<svg width="490" height="487" viewBox="0 0 490 487" fill="none" xmlns="http://www.w3.org/2000/svg">
<g clip-path="url(#clip0_198_1469)">
<path d="M424.064 384.22C490.035 318.249 490.035 211.288 424.064 145.317C358.093 79.346 251.132 79.346 185.161 145.317C119.19 211.289 119.19 318.249 185.161 384.22C251.132 450.192 358.093 450.192 424.064 384.22Z" fill="#EC5E5C"/>
<path opacity="0.3" d="M279.77 97.79C371.99 83.62 458.23 146.89 472.4 239.11C484.33 316.75 441.37 390.15 372.45 419.87C370.47 413.8 370.29 406.23 372.57 397.06C381.05 362.93 405.1 332.77 414.34 298.94C433.72 227.99 414.06 151.32 330.59 142.55C296.76 138.99 257.63 150.45 234.06 174.54C206.92 202.28 217.57 237.31 228.54 270.09C239.45 302.69 274.62 351.65 262.25 388.01C258.97 397.65 244.2 419.84 222.43 411.92C178.88 387.32 146.64 343.71 138.46 290.43C124.29 198.21 187.56 111.97 279.78 97.8L279.77 97.79Z" fill="#E23532"/>
<path opacity="0.6" d="M374.55 154.8C413.15 165.63 435.38 202.42 441.47 217.51C455.84 253.14 456.28 287.72 438.04 320.81C420.96 351.79 393.51 372.87 355.77 387.74C318.71 402.34 287.91 399.41 262.44 373.02C210.92 319.64 356.33 295.56 360.63 245.6C364.77 197.48 330.19 207.02 328.46 183.2C326.77 159.81 356.39 149.7 374.55 154.8Z" fill="#F89290"/>
<path opacity="0.5" d="M230.09 166.85C263.91 156.01 286.59 189.67 293.38 218.52C296.86 233.3 296.6 251.96 280.72 259.77C264.28 267.86 262.82 253.35 250.11 249.49C226 242.16 230.86 268.57 224.77 282.18L221.76 296.67C223.37 312.52 202.76 313.28 192.93 308.45C180.86 302.52 173.84 286.88 169.79 274.73C161.02 248.41 169.29 230.78 185.99 211.26C199.05 195.99 210.04 173.28 230.08 166.86L230.09 166.85Z" fill="#F89290"/>
<path opacity="0.3" d="M373.52 158.19C376.64 150.48 379.87 145.5 389.35 146.34C395.44 146.89 400.34 149.69 405.6 152.5C405.86 152.64 406.07 152.78 406.33 152.92L417.68 162.64C425.9 175.17 429.71 193.27 429.53 208.22C429.19 235.61 415.25 261.77 390.86 274.7C370.25 285.63 342.32 288.25 320.03 280.41C297.57 272.51 277.85 242.27 288.72 218.8C297.71 199.39 326.08 191.67 344.41 185.3C358.96 180.24 367.8 172.29 373.51 158.17L373.52 158.19Z" fill="#FFEDD5"/>
<g opacity="0.4">
<path d="M51.8199 2.42998C68.8799 3.50998 79.8299 15.21 95.0099 21.32C107.62 26.4 118.83 30.49 130.31 38.12C138.72 43.71 146.94 44.86 155.97 48.57C162.22 51.14 168.32 54.48 174.2 57.73C182.55 62.35 188.31 67.97 195.06 74.18C200.46 79.15 211.25 84.32 214.11 91.21C215.89 95.51 223.87 109.67 221.98 113.62C219.62 118.56 206.47 108.87 201.42 111.59C193.69 115.75 186.82 113.6 179.37 109.65C169.85 104.6 160.42 101.71 149.71 101.11C140.98 100.63 133.48 99.69 126.36 105.37C120.05 110.41 116.29 114.59 117.81 123.33C119.96 135.68 126.71 140.67 136.46 146.85C145.04 152.3 150.52 160.97 157.13 168.52C173.27 186.96 193.29 202.15 210.71 219.37C228.4 236.86 243.89 256.58 261.81 273.86C281.31 292.67 301.31 310.87 320.44 330.11C335.48 345.24 351.71 360.01 369.36 371.87C383.22 381.18 394.64 392.93 407.55 403.59C417.27 411.61 428.26 417.74 438.82 424.62C444.68 428.44 453.44 438.06 460.37 438.68C471.74 439.69 471.94 423.42 471.19 416.04C469.5 399.38 454.55 372.48 444.56 359.39L449.34 352.99C459.88 359.14 469.83 374.78 473.64 381.89C479.73 393.27 481.18 405.45 484.91 417.74C489.51 432.86 491.16 449.32 488.39 465.02C486.84 473.82 480.15 486.14 470.08 486.71C460.5 487.26 453.11 477.01 447.54 470.74C439.01 461.13 429.87 453.11 417.98 447.97C395.92 438.43 370.4 437.28 349.66 424.72C319.42 406.41 294.72 378.99 269.15 355.04C254.26 341.1 236.23 330.77 220.44 317.85C198.97 300.28 178.43 281.54 161.02 259.84C154.75 252.03 148.87 244 142.06 236.67C132.9 226.81 121.77 220.45 112.06 211.43C95.7399 196.26 86.8899 175 75.7899 156.13C58.6699 127.01 33.1699 104.61 21.8499 72.11C20.0399 66.92 17.8699 61 14.2299 56.75C10.5799 52.49 5.90993 49.11 3.40993 43.87C-0.0700705 36.62 -1.70007 17.09 2.49993 10.09C11.9699 -5.70002 37.5899 1.52998 51.8199 2.42998Z" fill="#F89290"/>
</g>
<path d="M129.21 77.16C135.85 78.82 142 81.25 148.72 83.09C156.34 85.18 163.75 84.3 171.3 85.85C181.01 87.85 205.15 108.32 184.06 104.49C169.7 101.88 162.13 89.25 147.92 84.97C134.86 81.03 117.44 77.39 106.43 86.49C91.3499 98.95 94.5499 116.83 105.6 130.61C117.91 145.96 130.95 161.08 143.69 176.33C168.27 205.74 195.2 233.33 221.25 261.75C233.81 275.46 248.26 286.59 261.05 300.01C273.98 313.59 289.08 320.4 303.94 331.3C331.76 351.71 351.61 380.57 381.11 399.3C395.84 408.65 411 417.82 426.1 426.57C436.66 432.68 451.02 441.05 456.88 452.43L464.58 460.03C466.58 462.72 467.02 467.36 463.42 468.27C460.94 468.89 456.43 464.13 454.85 462.8C448.8 457.73 443.03 451.25 438.28 444.75C432.53 436.87 430.19 431.31 420.45 428.23C411.13 425.28 401.98 423.07 393.63 418.01C371.83 404.8 354.16 384.59 336.13 366.25C324.9 354.83 308.93 353.13 295.9 343.18C282.19 332.7 268.75 321.11 256.23 309.25C230 284.4 203.69 262.51 182.2 232.27C156.64 196.31 116.75 173.22 94.1099 135.23C85.5799 120.91 79.3999 97.6 92.2999 83.96C101.66 74.07 117.14 74.15 129.2 77.17L129.21 77.16Z" fill="#FEB396"/>
<path opacity="0.5" d="M229.05 303.63C220.41 301.9 215.69 290.34 210.72 283.97C204.93 276.55 197.66 270.51 191.65 263.13C178.96 247.55 166.13 231.5 149.33 220.34C136.79 212.01 123.58 203.95 114.21 192.08C101.47 175.93 91.71 157.63 81.07 140.13C71.46 124.34 64.17 107.42 54.07 92.1C46.2 80.17 36.91 70.06 29.55 57.57C23.15 46.7 20.33 22.87 38.15 23C58.82 23.15 76.11 40.51 95.78 44.12C105.63 45.93 115.94 47.18 125.09 51.87C128.25 53.49 138.37 60.01 139.18 63.32C141.48 72.69 111.82 61.58 106.39 60.26C92.7 56.94 76.37 48.67 62 51.85C45 55.61 59.38 73.42 63.19 82.51C68.32 94.73 74.52 106.89 81.33 118.49C84.82 124.43 89.23 129.76 91.87 136C94.33 141.83 95.74 148.11 99.11 153.85C106.79 166.9 114.37 180.19 122.74 192.61C130.73 204.48 141.57 210.95 152.57 219.11C161.8 225.96 167.06 234.24 174.57 242.64C181.7 250.62 189.94 257.39 196.99 265.85C204.36 274.7 211.88 283.07 220.21 290.44C226.62 296.11 240.29 304.08 238.53 313.57C236.59 311.78 234.45 311.45 232.98 310.98L229.05 303.61V303.63Z" fill="#FEB396"/>
<path d="M472.74 462.81L471.28 461.96C461.18 456.81 473.19 450.4 475.23 444.22C477.09 438.6 474.63 430.25 479.26 426.12C482.34 432.03 483.29 465.77 472.74 462.81Z" fill="#FEB396"/>
<path d="M27.75 21.7L28.16 22.33C32.52 27.32 38.9 43.15 27.66 35.31C20.3 30.18 18.71 12.19 27.74 21.69L27.75 21.7Z" fill="#FFEDD5"/>
<path d="M189.23 93.33L189.86 93.74C195.85 96.58 208.01 108.55 194.58 105.85C185.78 104.08 177.16 88.22 189.23 93.33Z" fill="#FFEDD5"/>
<path d="M55.99 36L56.66 36.36C62.87 38.67 76.01 49.56 62.4 48.02C53.48 47.01 43.53 31.95 55.99 36.01V36Z" fill="#FFEDD5"/>
<path d="M132.52 71.24L132.92 71.45C136.79 72.5 143.96 80.17 134.89 81.07C128.94 81.66 124.66 69.66 132.53 71.23L132.52 71.24Z" fill="#FFEDD5"/>
<path d="M142.18 214.06L142.58 214.27C146.45 215.32 153.62 222.99 144.55 223.89C138.6 224.48 134.32 212.47 142.19 214.05L142.18 214.06Z" fill="#FFEDD5"/>
<path d="M134.57 163.91L134.97 164.12C138.84 165.17 146.01 172.84 136.94 173.74C130.99 174.33 126.71 162.32 134.58 163.9L134.57 163.91Z" fill="#FFEDD5"/>
<path d="M130.7 148.37L131.1 148.58C134.97 149.63 142.14 157.3 133.07 158.2C127.12 158.79 122.84 146.79 130.71 148.36L130.7 148.37Z" fill="#FFEDD5"/>
<path d="M274.1 348.96L274.5 349.17C278.37 350.22 285.54 357.89 276.47 358.79C270.52 359.38 266.24 347.37 274.11 348.95L274.1 348.96Z" fill="#FFEDD5"/>
<path d="M254.02 314.23L254.42 314.44C258.29 315.49 265.46 323.16 256.39 324.06C250.44 324.65 246.16 312.64 254.03 314.22L254.02 314.23Z" fill="#FFEDD5"/>
<path d="M335.06 355.06L335.46 355.27C339.33 356.32 346.5 363.99 337.43 364.89C331.48 365.48 327.2 353.48 335.07 355.05L335.06 355.06Z" fill="#FFEDD5"/>
<path d="M350.15 413.86L350.55 414.07C354.42 415.12 361.59 422.79 352.52 423.69C346.57 424.28 342.29 412.28 350.16 413.85L350.15 413.86Z" fill="#FFEDD5"/>
<path d="M281.33 335.18L281.73 335.39C285.6 336.44 292.77 344.11 283.7 345.01C277.75 345.6 273.47 333.59 281.34 335.17L281.33 335.18Z" fill="#FFEDD5"/>
<path d="M211.55 245.37L211.95 245.58C215.82 246.63 222.99 254.3 213.92 255.2C207.97 255.79 203.69 243.78 211.56 245.36L211.55 245.37Z" fill="#FFEDD5"/>
<path d="M43.9 6.44997L44.3 6.65997C48.17 7.70997 55.34 15.38 46.27 16.28C40.32 16.87 36.04 4.85997 43.91 6.43997L43.9 6.44997Z" fill="#FFEDD5"/>
<path d="M411.45 419.4L411.85 419.61C415.72 420.66 422.89 428.33 413.82 429.23C407.87 429.82 403.59 417.81 411.46 419.39L411.45 419.4Z" fill="#FFEDD5"/>
<path d="M396.76 422.29L396.91 422.71C399.03 426.12 399.06 436.62 391.8 431.1C387.04 427.48 392.09 415.78 396.77 422.29H396.76Z" fill="#FFEDD5"/>
<path d="M474.42 466.24L474.56 466.67C476.68 470.08 476.71 480.58 469.45 475.06C464.69 471.44 469.74 459.74 474.42 466.25V466.24Z" fill="#FFEDD5"/>
<path d="M484.83 447.66L484.98 448.09C487.1 451.5 487.13 462 479.87 456.48C475.11 452.86 480.16 441.16 484.84 447.67L484.83 447.66Z" fill="#FFEDD5"/>
<path d="M213.86 261.59L214.26 261.8C218.13 262.85 225.3 270.52 216.23 271.42C210.28 272.01 206 260 213.87 261.58L213.86 261.59Z" fill="#FFEDD5"/>
</g>
<defs>
<clipPath id="clip0_198_1469">
<rect width="489.73" height="486.77" fill="white"/>
</clipPath>
</defs>
</svg>