<svg width="318" height="315" viewBox="0 0 318 315" fill="none" xmlns="http://www.w3.org/2000/svg">
<g clip-path="url(#clip0_209_2067)">
<path opacity="0.1" d="M286.73 209.876C271.876 197.263 247.107 188.513 260.639 163.141C268.416 148.565 296.151 145.723 285.518 123.749C279.927 112.199 264.284 113.112 253.644 113.119C238.549 113.132 232.15 113.887 237.878 97.5607C241.489 87.2666 250.457 78.4754 253.664 68.5107C257.405 56.9126 247.909 57.6607 238.104 60.1656C223.407 63.9126 200.056 86.8342 192.561 63.3842C189.71 54.4489 194.253 43.2901 189.162 35.3499C184.065 27.396 173.678 26.8058 166.613 33.2224C161.029 38.294 161.536 53.9823 155.041 56.8921C144.208 61.744 141.612 42.4872 139.453 36.3587C137.699 31.3695 133.013 16.3881 126.271 16.6009C118.131 16.8548 117.966 32.543 117.939 38.4313C117.912 43.7499 124.606 62.9587 119.823 66.4587C113.054 71.4205 112.177 50.5372 105.531 48.8009L102.42 45.6921C97.0277 42.2332 88.559 34.7666 80.6728 37.395C71.1763 40.5656 76.3425 50.2626 73.4442 58.1617C67.6683 73.8773 49.6209 82.497 36.1368 90.0666C21.0905 98.5077 19.5352 113.407 33.0262 124.813C41.4332 131.922 43.1529 131.758 41.255 144.262C39.9258 152.984 38.1032 161.775 34.8693 170.169C28.5109 186.667 18.158 202.43 30.9569 217.885C44.3999 234.122 64.2972 225.551 78.6241 236.82C93.4923 248.514 68.9632 276.191 96.2055 282.251C119.186 287.364 136.863 258.863 155.24 253.963C175.26 248.623 188.347 277.385 203.941 285.593C226.182 297.294 229.807 271.01 229.807 254.189C229.807 227.232 247.95 226.107 270.273 232.688C277.576 234.843 289.697 239.331 295.357 231.391C301.167 223.238 292.403 214.708 286.71 209.87L286.73 209.876Z" fill="#EC5E5C"/>
<path opacity="0.1" d="M301.385 179.365C297.336 166.504 302.194 157.226 305.503 144.79C309.258 130.68 306.017 117.477 299.268 104.787C294.746 96.2981 282.447 89.7305 279.213 81.3579C276.198 73.5687 283.221 64.4825 280.844 56.0344C277.706 44.9099 266.496 36.6815 255.972 33.4766C247.942 31.0266 239.412 32.9138 231.683 30.7726C224.989 28.9197 223.516 23.9168 219.295 19.2638C210.388 9.4501 192.484 0.343237 178.863 2.14814C166.537 3.78147 161.056 11.1795 148.593 5.46971C141.494 2.21677 129.168 -3.32833 122.118 2.67657L119.836 8.38637C114.43 13.6158 113.046 16.2785 105.077 15.9903C97.7599 15.7226 90.2368 14.0687 82.556 14.6109C71.5111 15.3864 60.9595 20.6089 53.1966 28.6521C46.8656 35.206 47.9071 40.7923 46.0914 48.8423C41.3911 69.6913 19.0204 80.205 8.0097 96.8815C2.41873 105.343 -1.74709 116.008 2.72706 125.877C6.04327 133.185 13.4294 137.612 16.3414 145.264C26.4339 171.802 -6.28291 196.48 3.14501 223.705C10.7983 245.81 41.1376 240.876 52.0523 260.421C60.1305 274.887 66.4272 287.837 83.344 293.156C99.9045 298.365 116.088 299.305 133.087 297.61C144.112 296.512 157.733 294.062 168.778 296.773C184.358 300.595 192.937 317.052 210.669 314.78C238.966 311.15 257.856 285.641 273.026 264.703C284.941 248.26 312.752 246.476 317.329 223.883C320.734 207.083 306.078 194.223 301.399 179.358L301.385 179.365Z" fill="#EC5E5C"/>
<path d="M240.809 242.657C286.01 197.383 286.01 123.979 240.809 78.7041C195.607 33.4297 122.321 33.4297 77.1198 78.7041C31.9184 123.979 31.9184 197.383 77.1198 242.657C122.321 287.932 195.607 287.932 240.809 242.657Z" fill="#E23532"/>
<path d="M94.9306 140.089C102.467 119.92 104.516 111.039 124.187 101.479C132.642 97.3686 143.694 88.5843 134.801 78.6333C126.996 69.9039 120.124 69.3 107.901 74.6186L100.364 79.9235C80.8709 90.4921 41.0146 132.128 63.8582 154.892C78.2947 169.283 89.8535 153.671 94.9306 140.089Z" fill="#F89290"/>
<path d="M119.323 120.647L111.087 122.774C82.1317 135.546 124.393 213.246 163.269 179.557C192.19 154.494 145.887 106.812 119.323 120.647Z" fill="#F89290"/>
<path d="M123.928 192.548C121.14 183.709 113.664 184.505 108.368 178.28C104.01 173.147 106.97 159.655 100.338 159.353L91.4307 162.16C75.754 167.479 70.259 175.693 68.2103 191.512C66.3878 205.56 82.4824 219.292 95.1649 222.401C112.253 226.58 129.396 209.911 123.928 192.555V192.548Z" fill="#F89290"/>
<path d="M119.007 60.2136H122.111C130.313 59.3901 138.185 62.6362 143.084 69.5264C149.374 78.3793 143.79 83.6774 144.927 92.4274C146.709 106.084 173.389 108.479 185.318 103.813C198.597 98.6176 209.6 78.8048 196.452 67.7352C186.01 58.9509 161.714 55.2244 149.038 52.898C136.548 50.6058 129.127 53.8107 118.13 58.3401C117.192 60.0627 118.898 59.5411 119.007 60.2136Z" fill="#F89290"/>
<path d="M197.947 195.822C183.599 187.579 165.305 204.709 154.219 196.103L149.608 192.219C139.084 185.445 138.365 202.547 136.61 208.552C133.788 218.215 130.752 219.546 122.112 223.101C102.359 231.233 102.749 242.488 122.112 252.899C140.214 262.637 151.348 263.728 171.821 262.493C191.397 261.313 202.325 256.667 208.039 236.504C211.863 223.026 212.349 204.098 197.94 195.822H197.947Z" fill="#F89290"/>
<path d="M176.7 116.385C168.464 116.118 156.515 114.786 156.515 114.786C141.907 117.977 195.549 144.872 203.935 149.422C219.406 157.816 235.419 160.698 247.402 145.271C257.495 132.279 253.329 112.295 242.51 100.409C238.701 96.2225 231.013 90.0117 225.737 88.2205C213.062 83.9039 213.062 92.6196 210.177 101.733C204.696 119.027 196.357 117.023 176.707 116.392L176.7 116.385Z" fill="#F89290"/>
<path d="M223.613 171.232C213.569 172.426 206.142 159.229 197.721 162.908L189.985 164.013C180.503 167.478 186.991 177.93 193.576 182.618C200.27 187.38 209.143 186.083 216.358 190.167C225.066 195.094 226.251 201.73 225.737 211.661C225.313 219.786 220.564 231.988 232.932 229.291C250.184 225.523 252.562 191.683 253.877 178.466C256.899 148.009 238.906 169.407 223.613 171.225V171.232Z" fill="#F89290"/>
<path d="M79.1583 108.479C69.5112 119.021 59.7407 131.044 67.5105 135.711C75.2803 140.377 84.5986 127.153 90.813 117.82C97.0275 108.486 110.231 93.7038 104.016 92.9215C97.8018 92.146 87.7024 99.146 79.1583 108.479Z" fill="#FEB396"/>
<path d="M143.174 158.07C136.412 163.876 132.814 168.096 136.617 173.284C140.413 178.473 148.011 181.238 155.261 176.743C162.51 172.248 170.108 161.185 164.579 155.997C159.056 150.809 150.423 151.845 143.174 158.07Z" fill="#FEB396"/>
<path d="M80.3443 182.274C74.3423 184.567 73.0953 189.535 75.8565 197.146C78.6177 204.75 84.8322 213.397 92.4307 210.974C100.022 208.552 101.749 200.255 98.3026 194.723C94.8493 189.192 87.6003 179.509 80.3512 182.274H80.3443Z" fill="#FEB396"/>
<path d="M169.408 226.189C159.329 231.24 146.626 236.566 147.661 245.549C148.696 254.539 177.692 261.107 188.744 253.153C199.789 245.199 208.079 228.255 204.626 222.38C201.173 216.499 179.768 220.994 169.415 226.182L169.408 226.189Z" fill="#FEB396"/>
<path d="M229.135 103.092C221.358 102.694 213.252 115.884 212.218 124.188C211.183 132.485 212.56 148.736 222.578 148.393C232.588 148.05 241.564 144.591 244.325 132.485C247.086 120.386 242.598 103.785 229.135 103.092Z" fill="#FEB396"/>
<path d="M244.669 172.591C237.358 171.129 234.172 176.88 231.205 182.968C228.238 189.055 225.683 219.622 230.862 219.278C236.042 218.935 244.326 205.45 247.43 194.037C250.541 182.625 251.575 173.984 244.669 172.598V172.591Z" fill="#FEB396"/>
<path d="M161.468 71.2764C158.262 79.3058 161.126 93.0587 170.444 94.445C179.762 95.8313 192.191 93.7519 193.226 84.7617C194.261 75.7715 189.43 65.745 178.378 64.7087C167.333 63.6724 164.223 64.3656 161.462 71.2764H161.468Z" fill="#FEB396"/>
<path opacity="0.3" d="M64.9142 96.6893C28.7578 149.491 42.1871 221.66 94.904 257.868C139.289 288.359 197.371 283.637 236.206 249.873C233.048 246.846 228.423 244.472 222.085 243.154C198.495 238.24 172.732 244.129 149.094 239.771C99.5289 230.63 58.0419 195.657 77.4322 141.428C85.2911 119.453 103.996 98.6589 125.867 91.2609C151.06 82.7374 169.519 99.7501 186.49 116.289C203.373 132.739 223.147 169.057 249.272 172.234C256.199 173.079 274.288 170.546 275.871 154.728C273.623 120.476 256.282 87.5619 225.826 66.6374C173.109 30.4227 101.057 43.8736 64.9073 96.6756L64.9142 96.6893Z" fill="#FEB396"/>
</g>
<defs>
<clipPath id="clip0_209_2067">
<rect width="317" height="315" fill="white" transform="translate(0.830078)"/>
</clipPath>
</defs>
</svg>
