<svg width="986" height="603" viewBox="0 0 986 603" fill="none" xmlns="http://www.w3.org/2000/svg">
<g clip-path="url(#clip0_83_33)">
<g filter="url(#filter0_d_83_33)">
<path d="M974.343 569.727H277.097L974.343 6.51758V569.727Z" fill="#65936D"/>
<path d="M11.8708 569.727H711.852L11.8708 6.51758V569.727Z" fill="#65936D"/>
<g filter="url(#filter1_d_83_33)">
<path d="M429.689 219.546L11.3701 541.875H973.778L548.276 219.546C492.574 178.946 483.29 178.946 429.689 219.546Z" fill="#65936D"/>
</g>
<g filter="url(#filter2_d_83_33)">
<path d="M429.935 359.798L11.3701 7.37012L974.344 7.37018L548.592 359.798C492.857 404.19 483.568 404.19 429.935 359.798Z" fill="#65936D"/>
</g>
<path d="M11.3701 541.877H973.778V582.851C973.778 589.276 968.569 594.484 962.145 594.484H23.0032C16.5784 594.484 11.3701 589.276 11.3701 582.851V541.877Z" fill="#65936D"/>
</g>
<path d="M529.179 275.049C534.782 274.754 540.126 275.53 545.097 278.535C550.063 281.537 554.639 286.753 558.736 295.302C559.99 296.683 560.876 298.698 561.697 301.152C562.521 303.614 563.294 306.565 564.296 309.786C566.306 316.245 569.269 323.895 575.565 331.401C578.668 335.101 580.461 338.258 581.399 341.143C582.338 344.029 582.417 346.634 582.108 349.222C581.8 351.801 581.103 354.376 580.488 357.183C579.873 359.995 579.335 363.059 579.335 366.646C579.335 378.492 574.813 389.436 571.548 400.215C570.893 402.378 570.372 404.545 569.85 406.711C569.327 408.875 568.803 411.039 568.145 413.188C566.826 417.49 564.964 421.74 561.477 425.859C542.94 447.751 519.394 452.799 493.183 452.799H493.163L493.146 452.795C462.313 445.512 446.544 446.72 436.519 447.586C431.51 448.019 427.896 448.372 424.553 447.522C421.199 446.67 418.133 444.613 414.19 440.276C410.694 436.43 408.503 431.289 407.182 425.404C405.86 419.519 405.404 412.88 405.382 406.03C405.36 399.18 405.772 392.113 406.189 385.37C406.607 378.627 407.028 372.211 407.028 366.652C404.199 339.564 415.942 310.741 434.937 295.267C450.763 282.373 471.606 280.493 493.183 280.493C499.452 280.493 505.647 279.282 511.681 277.994C517.708 276.708 523.58 275.343 529.179 275.049Z" fill="#8A231D" stroke="#56130F" stroke-width="0.323883"/>
<path d="M432.771 439.52C418.191 438.011 411.064 428.865 410.099 416.2C409.863 413.1 412.69 399.52 412.69 401.139C412.69 408.254 421.921 427.374 445.24 439.52C451.431 442.744 446.86 440.977 432.771 439.52Z" fill="#B63E38"/>
<path d="M416.627 365.931L416.62 365.863C412.087 322.499 450.313 290.372 492.229 290.372C502.983 290.372 511.059 296.348 519.703 302.672C528.111 308.823 537.026 315.266 549.111 315.467C561.132 328.843 567.83 346.524 567.83 365.998C567.83 407.766 533.981 441.625 492.229 441.625C469.839 441.625 445.789 435.119 432.075 420.03C420.004 406.748 416.627 385.857 416.627 365.998V365.931Z" fill="#7C1D18" stroke="#56130F" stroke-width="2.59106"/>
<path d="M487.992 295.555C465.806 296.58 421.369 312.753 421.11 369.238" stroke="#56130F" stroke-width="0.647766"/>
<path d="M493.336 435.633C515.522 434.607 559.959 418.435 560.218 361.949" stroke="#56130F" stroke-width="0.647766"/>
<g filter="url(#filter3_dn_83_33)">
<path d="M465.396 334.67L487.008 356.59L488.319 357.147L495.741 357.154L497.02 356.647L518.632 334.733L518.684 334.68L519.2 333.391L519.195 325.862L518.652 324.538L497.092 302.638L495.622 302.031H488.353L486.934 302.633L476.141 313.59C475.684 313.396 475.203 313.298 474.707 313.298C472.642 313.298 470.961 314.999 470.961 317.093C470.961 319.186 472.64 320.888 474.707 320.888C476.773 320.888 478.452 319.186 478.452 317.093C478.452 316.588 478.354 316.099 478.161 315.631L488.561 305.074L488.931 304.917H495.064L495.482 305.092L516.235 326.171L516.343 326.439L516.348 332.829L516.259 333.054L495.425 354.181L495.208 354.269L488.902 354.261L488.637 354.149L467.83 333.046L467.722 332.774V326.431L467.845 326.114L471.778 322.117L469.756 320.078L465.415 324.488L464.862 325.867L464.867 333.334L465.401 334.668L465.396 334.67ZM474.704 318.749C473.805 318.749 473.072 318.007 473.072 317.093C473.072 316.179 473.803 315.437 474.704 315.437C475.605 315.437 476.336 316.179 476.336 317.093C476.336 318.007 475.605 318.749 474.704 318.749Z" fill="#FFBA18"/>
<path d="M482.688 371.146L483.221 369.812L483.226 362.345L482.673 360.966L478.333 356.556L476.31 358.595L480.244 362.592L480.37 362.909V369.252L480.258 369.525L459.451 390.627L459.187 390.739L452.881 390.747L452.664 390.66L431.829 369.527L431.741 369.302L431.745 362.912L431.854 362.645L452.607 341.565L453.024 341.392H459.158L459.528 341.547L469.928 352.105C469.735 352.569 469.636 353.059 469.636 353.566C469.636 355.657 471.315 357.361 473.382 357.361C475.449 357.361 477.128 355.66 477.128 353.566C477.128 351.473 475.449 349.771 473.382 349.771C472.886 349.771 472.404 349.869 471.947 350.064L461.155 339.107L459.735 338.502H452.466L450.997 339.112L429.484 360.958L429.432 361.011L428.889 362.335L428.884 369.864L429.4 371.154L451.009 393.068L451.064 393.123L452.343 393.63L459.765 393.622L461.076 393.065L482.486 371.353L482.691 371.146H482.688ZM475.009 353.569C475.009 354.48 474.278 355.225 473.377 355.225C472.476 355.225 471.745 354.483 471.745 353.569C471.745 352.654 472.476 351.912 473.377 351.912C474.278 351.912 475.009 352.654 475.009 353.569Z" fill="#FFBA18"/>
<path d="M554.614 360.903L543.807 349.956C543.999 349.492 544.096 349.005 544.096 348.5C544.096 346.409 542.417 344.705 540.35 344.705C538.283 344.705 536.604 346.406 536.604 348.5C536.604 350.593 538.283 352.295 540.35 352.295C540.849 352.295 541.33 352.195 541.79 352L552.199 362.545L552.355 362.922V369.145L552.182 369.57L531.397 390.615L531.135 390.725L524.837 390.73L524.617 390.64L503.783 369.512L503.696 369.287L503.704 362.89L503.815 362.62L524.622 341.52L524.886 341.41H531.138L531.446 341.535L535.387 345.525L537.404 343.483L533.056 339.082L531.693 338.52L524.326 338.525L523.007 339.067L501.392 360.986L500.844 362.312L500.837 369.835L501.336 371.129L522.945 393.045L522.997 393.098L524.271 393.622L531.701 393.617L533.009 393.065L554.602 371.204L555.199 369.717V362.347L554.607 360.911L554.614 360.903ZM540.352 350.156C539.454 350.156 538.72 349.414 538.72 348.5C538.72 347.586 539.451 346.844 540.352 346.844C541.254 346.844 541.985 347.586 541.985 348.5C541.985 349.414 541.254 350.156 540.352 350.156Z" fill="#FFBA18"/>
<path d="M518.791 397.609L497.231 375.745L497.176 375.69L495.858 375.148L488.49 375.143L487.127 375.705L482.779 380.107L484.796 382.148L488.737 378.158L489.045 378.031H495.297L495.561 378.143L516.369 399.245L516.48 399.515L516.487 405.913L516.401 406.138L495.566 427.265L495.347 427.355L489.048 427.35L488.786 427.24L468.001 406.195L467.831 405.771V399.548L467.984 399.17L478.391 388.625C478.851 388.82 479.332 388.92 479.831 388.92C481.895 388.92 483.576 387.219 483.576 385.125C483.576 383.032 481.897 381.331 479.831 381.331C477.764 381.331 476.085 383.032 476.085 385.125C476.085 385.63 476.181 386.117 476.374 386.582L465.567 397.532L464.972 398.968V406.338L465.572 407.827L487.112 429.636L487.164 429.688L488.473 430.241L495.902 430.246L497.174 429.721L518.783 407.807L518.838 407.752L519.336 406.458L519.329 398.935L518.781 397.609H518.791ZM479.841 383.472C480.739 383.472 481.473 384.214 481.473 385.128C481.473 386.042 480.742 386.784 479.841 386.784C478.939 386.784 478.209 386.042 478.209 385.128C478.209 384.214 478.939 383.472 479.841 383.472Z" fill="#FFBA18"/>
<path d="M496.957 315.23C494.892 315.23 493.211 316.932 493.211 319.025C493.211 321.119 494.89 322.82 496.957 322.82C497.453 322.82 497.934 322.723 498.394 322.528L503.379 327.584C503.186 328.049 503.087 328.538 503.087 329.043C503.087 331.134 504.766 332.838 506.833 332.838C508.9 332.838 510.579 331.137 510.579 329.043C510.579 326.95 508.9 325.248 506.833 325.248C506.337 325.248 505.855 325.346 505.396 325.541L500.411 320.484C500.603 320.02 500.702 319.53 500.702 319.025C500.702 316.934 499.023 315.23 496.957 315.23ZM508.463 329.038C508.463 329.95 507.732 330.694 506.831 330.694C505.929 330.694 505.198 329.952 505.198 329.038C505.198 328.124 505.929 327.382 506.831 327.382C507.732 327.382 508.463 328.124 508.463 329.038ZM496.957 320.679C496.058 320.679 495.324 319.937 495.324 319.023C495.324 318.108 496.055 317.366 496.957 317.366C497.858 317.366 498.589 318.108 498.589 319.023C498.589 319.937 497.858 320.679 496.957 320.679Z" fill="#FFBA18"/>
<path d="M449.496 373.254C447.431 373.254 445.75 374.955 445.75 377.049C445.75 379.142 447.429 380.843 449.496 380.843C449.928 380.843 450.35 380.769 450.757 380.621L454.328 384.234L457.952 380.566C458.404 380.754 458.878 380.851 459.365 380.851C461.429 380.851 463.11 379.15 463.11 377.056C463.11 374.963 461.431 373.261 459.365 373.261C457.298 373.261 455.619 374.963 455.619 377.056C455.619 377.571 455.72 378.068 455.92 378.538L454.328 380.149L452.873 378.678C453.113 378.168 453.239 377.611 453.239 377.049C453.239 374.958 451.56 373.254 449.493 373.254H449.496ZM447.864 377.049C447.864 376.137 448.594 375.392 449.496 375.392C450.397 375.392 451.128 376.134 451.128 377.049C451.128 377.963 450.397 378.705 449.496 378.705C448.594 378.705 447.864 377.963 447.864 377.049ZM459.362 375.4C460.261 375.4 460.994 376.142 460.994 377.056C460.994 377.971 460.263 378.712 459.362 378.712C458.461 378.712 457.73 377.971 457.73 377.056C457.73 376.142 458.461 375.4 459.362 375.4Z" fill="#FFBA18"/>
<path d="M480.576 405.131C478.512 405.131 476.83 406.832 476.83 408.926C476.83 411.019 478.509 412.72 480.576 412.72C481.072 412.72 481.553 412.623 482.013 412.428L486.998 417.484C486.805 417.949 486.707 418.439 486.707 418.943C486.707 421.034 488.385 422.738 490.452 422.738C492.519 422.738 494.198 421.037 494.198 418.943C494.198 416.85 492.519 415.149 490.452 415.149C489.956 415.149 489.474 415.246 489.015 415.441L484.03 410.385C484.223 409.92 484.321 409.43 484.321 408.926C484.321 406.835 482.642 405.131 480.576 405.131ZM490.45 417.285C491.348 417.285 492.082 418.027 492.082 418.941C492.082 419.855 491.351 420.597 490.45 420.597C489.548 420.597 488.818 419.855 488.818 418.941C488.818 418.027 489.548 417.285 490.45 417.285ZM478.944 408.926C478.944 408.014 479.674 407.269 480.576 407.269C481.477 407.269 482.208 408.011 482.208 408.926C482.208 409.84 481.477 410.582 480.576 410.582C479.674 410.582 478.944 409.84 478.944 408.926Z" fill="#FFBA18"/>
<path d="M517.958 364.705C520.024 364.705 521.708 363.006 521.708 360.915C521.708 358.824 520.027 357.125 517.958 357.125C515.888 357.125 514.207 358.824 514.207 360.915C514.207 361.352 514.281 361.779 514.427 362.191L510.856 365.804L514.481 369.471C514.296 369.928 514.2 370.408 514.2 370.9C514.2 372.989 515.881 374.69 517.95 374.69C520.019 374.69 521.701 372.991 521.701 370.9C521.701 368.809 520.019 367.11 517.95 367.11C517.442 367.11 516.95 367.213 516.486 367.415L514.893 365.804L516.348 364.332C516.851 364.575 517.402 364.702 517.958 364.702V364.705ZM519.595 360.915C519.595 361.824 518.861 362.566 517.958 362.566C517.054 362.566 516.321 361.827 516.321 360.915C516.321 360.003 517.054 359.263 517.958 359.263C518.861 359.263 519.595 360.003 519.595 360.915ZM517.95 369.249C518.851 369.249 519.587 369.988 519.587 370.9C519.587 371.812 518.854 372.551 517.95 372.551C517.046 372.551 516.313 371.812 516.313 370.9C516.313 369.988 517.046 369.249 517.95 369.249Z" fill="#FFBA18"/>
</g>
<path d="M535.28 283.272C532.43 280.292 519.302 282.031 513.094 283.272C519.571 286.889 533.077 293.96 535.28 293.313C538.033 292.503 538.842 286.997 535.28 283.272Z" fill="#B63E38"/>
<path d="M539.301 296.843C540.856 296.153 539.949 287.058 539.301 282.598C544.072 285.044 553.895 292.138 555.026 300.944C556.44 311.952 548.666 307.635 547.075 307.851C545.485 308.067 537.358 297.707 539.301 296.843Z" fill="#B63E38"/>
<path d="M429.651 404.703C433.875 414.814 454.567 436.407 487.992 436.282" stroke="#56130F" stroke-width="0.323883"/>
<path d="M572.364 334.582C574.739 337.119 578.582 344.363 574.955 353.043C573.546 356.415 572.743 360.238 572.325 363.931C572.469 369.315 572.455 374.332 572.364 378.144C571.968 375.239 571.668 369.746 572.325 363.931C571.96 350.253 570.576 334.21 566.858 329.562C561.675 323.084 568.369 330.209 572.364 334.582Z" fill="#B63E38"/>
<path d="M427.751 295.229C429.629 295.229 431.152 293.706 431.152 291.828C431.152 289.95 429.629 288.427 427.751 288.427C425.873 288.427 424.35 289.95 424.35 291.828C424.35 293.706 425.873 295.229 427.751 295.229Z" fill="#8A231D"/>
<path d="M577.708 396.605C578.87 396.605 579.813 395.662 579.813 394.5C579.813 393.337 578.87 392.395 577.708 392.395C576.545 392.395 575.603 393.337 575.603 394.5C575.603 395.662 576.545 396.605 577.708 396.605Z" fill="#8A231D"/>
<path d="M575.764 406.321C577.642 406.321 579.165 404.798 579.165 402.92C579.165 401.042 577.642 399.519 575.764 399.519C573.886 399.519 572.363 401.042 572.363 402.92C572.363 404.798 573.886 406.321 575.764 406.321Z" fill="#8A231D"/>
</g>
<defs>
<filter id="filter0_d_83_33" x="7.37012" y="6.51758" width="970.974" height="595.966" filterUnits="userSpaceOnUse" color-interpolation-filters="sRGB">
<feFlood flood-opacity="0" result="BackgroundImageFix"/>
<feColorMatrix in="SourceAlpha" type="matrix" values="0 0 0 0 0 0 0 0 0 0 0 0 0 0 0 0 0 0 127 0" result="hardAlpha"/>
<feOffset dy="4"/>
<feGaussianBlur stdDeviation="2"/>
<feComposite in2="hardAlpha" operator="out"/>
<feColorMatrix type="matrix" values="0 0 0 0 0 0 0 0 0 0 0 0 0 0 0 0 0 0 0.5 0"/>
<feBlend mode="normal" in2="BackgroundImageFix" result="effect1_dropShadow_83_33"/>
<feBlend mode="normal" in="SourceGraphic" in2="effect1_dropShadow_83_33" result="shape"/>
</filter>
<filter id="filter1_d_83_33" x="-0.000382423" y="175.399" width="985.149" height="375.52" filterUnits="userSpaceOnUse" color-interpolation-filters="sRGB">
<feFlood flood-opacity="0" result="BackgroundImageFix"/>
<feColorMatrix in="SourceAlpha" type="matrix" values="0 0 0 0 0 0 0 0 0 0 0 0 0 0 0 0 0 0 127 0" result="hardAlpha"/>
<feOffset dy="-2.32661"/>
<feGaussianBlur stdDeviation="5.68525"/>
<feComposite in2="hardAlpha" operator="out"/>
<feColorMatrix type="matrix" values="0 0 0 0 0 0 0 0 0 0 0 0 0 0 0 0 0 0 0.25 0"/>
<feBlend mode="normal" in2="BackgroundImageFix" result="effect1_dropShadow_83_33"/>
<feBlend mode="normal" in="SourceGraphic" in2="effect1_dropShadow_83_33" result="shape"/>
</filter>
<filter id="filter2_d_83_33" x="-0.000382423" y="-0.000382423" width="985.715" height="408.463" filterUnits="userSpaceOnUse" color-interpolation-filters="sRGB">
<feFlood flood-opacity="0" result="BackgroundImageFix"/>
<feColorMatrix in="SourceAlpha" type="matrix" values="0 0 0 0 0 0 0 0 0 0 0 0 0 0 0 0 0 0 127 0" result="hardAlpha"/>
<feOffset dy="4"/>
<feGaussianBlur stdDeviation="5.68525"/>
<feComposite in2="hardAlpha" operator="out"/>
<feColorMatrix type="matrix" values="0 0 0 0 0 0 0 0 0 0 0 0 0 0 0 0 0 0 0.31 0"/>
<feBlend mode="normal" in2="BackgroundImageFix" result="effect1_dropShadow_83_33"/>
<feBlend mode="normal" in="SourceGraphic" in2="effect1_dropShadow_83_33" result="shape"/>
</filter>
<filter id="filter3_dn_83_33" x="427.588" y="302.031" width="128.906" height="130.806" filterUnits="userSpaceOnUse" color-interpolation-filters="sRGB">
<feFlood flood-opacity="0" result="BackgroundImageFix"/>
<feColorMatrix in="SourceAlpha" type="matrix" values="0 0 0 0 0 0 0 0 0 0 0 0 0 0 0 0 0 0 127 0" result="hardAlpha"/>
<feOffset dy="1.29553"/>
<feGaussianBlur stdDeviation="0.647766"/>
<feComposite in2="hardAlpha" operator="out"/>
<feColorMatrix type="matrix" values="0 0 0 0 0.337255 0 0 0 0 0.0745098 0 0 0 0 0.0588235 0 0 0 1 0"/>
<feBlend mode="normal" in2="BackgroundImageFix" result="effect1_dropShadow_83_33"/>
<feBlend mode="normal" in="SourceGraphic" in2="BackgroundImageFix" result="shape"/>
<feTurbulence type="fractalNoise" baseFrequency="6.1750698089599609 6.1750698089599609" stitchTiles="stitch" numOctaves="3" result="noise" seed="1330" />
<feColorMatrix in="noise" type="luminanceToAlpha" result="alphaNoise" />
<feComponentTransfer in="alphaNoise" result="coloredNoise1">
<feFuncA type="discrete" tableValues="1 1 1 1 1 1 1 1 1 1 1 1 1 1 1 1 1 1 1 1 1 1 1 1 1 1 1 1 1 1 1 1 1 1 1 1 1 1 1 1 1 1 1 1 1 1 1 1 1 1 1 0 0 0 0 0 0 0 0 0 0 0 0 0 0 0 0 0 0 0 0 0 0 0 0 0 0 0 0 0 0 0 0 0 0 0 0 0 0 0 0 0 0 0 0 0 0 0 0 0 "/>
</feComponentTransfer>
<feComposite operator="in" in2="shape" in="coloredNoise1" result="noise1Clipped" />
<feFlood flood-color="rgba(0, 0, 0, 0.25)" result="color1Flood" />
<feComposite operator="in" in2="noise1Clipped" in="color1Flood" result="color1" />
<feMerge result="effect2_noise_83_33">
<feMergeNode in="shape" />
<feMergeNode in="color1" />
</feMerge>
<feBlend mode="normal" in="effect2_noise_83_33" in2="effect1_dropShadow_83_33" result="effect2_noise_83_33"/>
</filter>
<clipPath id="clip0_83_33">
<rect width="986" height="603" fill="white"/>
</clipPath>
</defs>
</svg>
