<svg width="1027" height="1175" viewBox="0 0 1027 1175" fill="none" xmlns="http://www.w3.org/2000/svg">
<rect x="11.3701" y="540.828" width="1004" height="55.4696" fill="#4C7252"/>
<g filter="url(#filter0_d_981_13723)">
<rect x="39.1045" y="8.32031" width="945.757" height="951.304" fill="#F0E3D8"/>
</g>
<rect x="94.5742" y="58.2422" width="837.389" height="471.492" fill="#D9D9D9"/>
<g filter="url(#filter1_d_981_13723)">
<path d="M127.888 5.83294e-06L33.5577 94.33L33.5576 177.503L212.075 0L127.888 5.83294e-06Z" fill="#801314"/>
</g>
<g filter="url(#filter2_d_981_13723)">
<path d="M993.183 94.3301L898.853 7.73851e-05L815.68 0L993.183 178.517L993.183 94.3301Z" fill="#801314"/>
</g>
<g filter="url(#filter3_d_981_13723)">
<path d="M1015.37 1141.01H288.417L1015.37 553.809V1141.01Z" fill="#65936D"/>
<path d="M11.8916 1141.01H741.694L11.8916 553.809V1141.01Z" fill="#65936D"/>
<g filter="url(#filter4_d_981_13723)">
<path d="M447.511 775.911L11.3701 1111.97L1014.78 1111.97L571.15 775.912C513.075 733.582 503.396 733.582 447.511 775.911Z" fill="#65936D"/>
</g>
<path d="M11.3701 1111.98H1014.78V1155.19C1014.78 1161.62 1009.57 1166.83 1003.15 1166.83H23.0032C16.5784 1166.83 11.3701 1161.62 11.3701 1155.19V1111.98Z" fill="#65936D"/>
<path d="M550.179 673.531C555.782 673.237 561.126 674.012 566.097 677.018C571.063 680.02 575.639 685.235 579.736 693.784C580.99 695.166 581.876 697.18 582.697 699.635C583.521 702.097 584.294 705.048 585.296 708.269C587.306 714.727 590.269 722.377 596.565 729.884C599.668 733.583 601.461 736.74 602.399 739.625C603.338 742.512 603.417 745.117 603.108 747.704C602.8 750.284 602.103 752.858 601.488 755.665C600.873 758.478 600.335 761.541 600.335 765.129C600.335 776.974 595.813 787.918 592.548 798.697C591.893 800.86 591.372 803.027 590.85 805.193C590.327 807.358 589.803 809.521 589.145 811.671C587.826 815.972 585.964 820.223 582.477 824.342C563.94 846.234 540.394 851.281 514.183 851.281H514.163L514.146 851.277C483.313 843.995 467.544 845.202 457.519 846.068C452.51 846.501 448.896 846.854 445.553 846.005C442.199 845.152 439.133 843.096 435.19 838.759C431.694 834.913 429.503 829.771 428.182 823.887C426.86 818.002 426.404 811.362 426.382 804.513C426.36 797.663 426.772 790.595 427.189 783.853C427.607 777.11 428.028 770.694 428.028 765.135C425.199 738.046 436.942 709.224 455.937 693.749C471.763 680.856 492.606 678.976 514.183 678.976C520.452 678.976 526.647 677.765 532.681 676.477C538.708 675.19 544.58 673.826 550.179 673.531Z" fill="#8A231D" stroke="#56130F" stroke-width="0.323883"/>
<path d="M453.771 838.002C439.191 836.494 432.064 827.347 431.099 814.682C430.863 811.582 433.69 798.002 433.69 799.622C433.69 806.737 442.921 825.856 466.24 838.002C472.431 841.226 467.86 839.459 453.771 838.002Z" fill="#B63E38"/>
<path d="M437.627 764.413L437.62 764.346C433.087 720.982 471.313 688.855 513.229 688.854C523.983 688.854 532.059 694.831 540.703 701.154C549.111 707.305 558.026 713.748 570.111 713.949C582.132 727.326 588.83 745.006 588.83 764.48C588.83 806.248 554.981 840.107 513.229 840.107C490.839 840.107 466.789 833.601 453.075 818.513C441.004 805.231 437.627 784.339 437.627 764.48V764.413Z" fill="#7C1D18" stroke="#56130F" stroke-width="2.59106"/>
<path d="M508.992 694.037C486.806 695.063 442.369 711.235 442.11 767.72" stroke="#56130F" stroke-width="0.647766"/>
<path d="M514.336 834.115C536.522 833.09 580.959 816.917 581.218 760.432" stroke="#56130F" stroke-width="0.647766"/>
<g filter="url(#filter5_dn_981_13723)">
<path d="M486.396 733.153L508.008 755.072L509.319 755.629L516.741 755.637L518.02 755.129L539.632 733.215L539.684 733.163L540.2 731.874L540.195 724.344L539.652 723.02L518.092 701.121L516.622 700.514H509.353L507.934 701.116L497.141 712.073C496.684 711.878 496.203 711.781 495.707 711.781C493.642 711.781 491.961 713.482 491.961 715.575C491.961 717.669 493.64 719.37 495.707 719.37C497.773 719.37 499.452 717.669 499.452 715.575C499.452 715.071 499.354 714.581 499.161 714.114L509.561 703.556L509.931 703.399H516.064L516.482 703.574L537.235 724.654L537.343 724.921L537.348 731.312L537.259 731.536L516.425 752.664L516.208 752.751L509.902 752.744L509.637 752.631L488.83 731.529L488.722 731.257V724.914L488.845 724.596L492.778 720.599L490.756 718.561L486.415 722.97L485.862 724.349L485.867 731.816L486.401 733.15L486.396 733.153ZM495.704 717.232C494.805 717.232 494.072 716.49 494.072 715.575C494.072 714.661 494.803 713.919 495.704 713.919C496.605 713.919 497.336 714.661 497.336 715.575C497.336 716.49 496.605 717.232 495.704 717.232Z" fill="#FFBA18"/>
<path d="M503.688 769.628L504.221 768.294L504.226 760.827L503.673 759.448L499.333 755.039L497.31 757.077L501.244 761.075L501.37 761.392V767.735L501.258 768.007L480.451 789.109L480.187 789.222L473.881 789.229L473.664 789.142L452.829 768.01L452.741 767.785L452.745 761.394L452.854 761.127L473.607 740.047L474.024 739.875H480.158L480.528 740.03L490.928 750.587C490.735 751.052 490.636 751.541 490.636 752.049C490.636 754.14 492.315 755.843 494.382 755.843C496.449 755.843 498.128 754.142 498.128 752.049C498.128 749.955 496.449 748.254 494.382 748.254C493.886 748.254 493.404 748.351 492.947 748.546L482.155 737.589L480.735 736.984H473.466L471.997 737.594L450.484 759.441L450.432 759.493L449.889 760.817L449.884 768.347L450.4 769.636L472.009 791.55L472.064 791.605L473.343 792.112L480.765 792.105L482.076 791.548L503.486 769.836L503.691 769.628H503.688ZM496.009 752.051C496.009 752.963 495.278 753.707 494.377 753.707C493.476 753.707 492.745 752.965 492.745 752.051C492.745 751.137 493.476 750.395 494.377 750.395C495.278 750.395 496.009 751.137 496.009 752.051Z" fill="#FFBA18"/>
<path d="M575.614 759.386L564.807 748.439C564.999 747.974 565.096 747.487 565.096 746.982C565.096 744.891 563.417 743.188 561.35 743.188C559.283 743.188 557.604 744.889 557.604 746.982C557.604 749.076 559.283 750.777 561.35 750.777C561.849 750.777 562.33 750.677 562.79 750.482L573.199 761.027L573.355 761.404V767.627L573.182 768.052L552.397 789.097L552.135 789.207L545.837 789.212L545.617 789.122L524.783 767.995L524.696 767.77L524.704 761.372L524.815 761.102L545.622 740.002L545.886 739.892H552.138L552.446 740.017L556.387 744.007L558.404 741.966L554.056 737.564L552.693 737.002L545.326 737.007L544.007 737.549L522.392 759.468L521.844 760.795L521.837 768.317L522.336 769.611L543.945 791.528L543.997 791.58L545.271 792.105L552.701 792.1L554.009 791.548L575.602 769.686L576.199 768.2V760.83L575.607 759.393L575.614 759.386ZM561.352 748.639C560.454 748.639 559.72 747.897 559.72 746.982C559.72 746.068 560.451 745.326 561.352 745.326C562.254 745.326 562.985 746.068 562.985 746.982C562.985 747.897 562.254 748.639 561.352 748.639Z" fill="#FFBA18"/>
<path d="M539.791 796.091L518.231 774.227L518.176 774.172L516.858 773.63L509.49 773.625L508.127 774.187L503.779 778.589L505.796 780.63L509.737 776.64L510.045 776.513H516.297L516.561 776.625L537.369 797.728L537.48 797.997L537.487 804.395L537.401 804.62L516.566 825.748L516.347 825.838L510.048 825.833L509.786 825.723L489.001 804.678L488.831 804.253V798.03L488.984 797.653L499.391 787.108C499.851 787.303 500.332 787.403 500.831 787.403C502.895 787.403 504.576 785.701 504.576 783.608C504.576 781.514 502.897 779.813 500.831 779.813C498.764 779.813 497.085 781.514 497.085 783.608C497.085 784.112 497.181 784.6 497.374 785.064L486.567 796.014L485.972 797.45V804.82L486.572 806.309L508.112 828.118L508.164 828.171L509.473 828.723L516.902 828.728L518.174 828.203L539.783 806.289L539.838 806.234L540.336 804.94L540.329 797.418L539.781 796.091H539.791ZM500.841 781.954C501.739 781.954 502.473 782.696 502.473 783.61C502.473 784.525 501.742 785.267 500.841 785.267C499.939 785.267 499.209 784.525 499.209 783.61C499.209 782.696 499.939 781.954 500.841 781.954Z" fill="#FFBA18"/>
<path d="M517.957 713.713C515.892 713.713 514.211 715.414 514.211 717.508C514.211 719.601 515.89 721.302 517.957 721.302C518.453 721.302 518.934 721.205 519.394 721.01L524.379 726.067C524.186 726.531 524.087 727.021 524.087 727.525C524.087 729.616 525.766 731.32 527.833 731.32C529.9 731.32 531.579 729.619 531.579 727.525C531.579 725.432 529.9 723.731 527.833 723.731C527.337 723.731 526.855 723.828 526.396 724.023L521.411 718.967C521.603 718.502 521.702 718.012 521.702 717.508C521.702 715.417 520.023 713.713 517.957 713.713ZM529.463 727.52C529.463 728.432 528.732 729.177 527.831 729.177C526.929 729.177 526.198 728.435 526.198 727.52C526.198 726.606 526.929 725.864 527.831 725.864C528.732 725.864 529.463 726.606 529.463 727.52ZM517.957 719.161C517.058 719.161 516.324 718.42 516.324 717.505C516.324 716.591 517.055 715.849 517.957 715.849C518.858 715.849 519.589 716.591 519.589 717.505C519.589 718.42 518.858 719.161 517.957 719.161Z" fill="#FFBA18"/>
<path d="M470.496 771.736C468.431 771.736 466.75 773.438 466.75 775.531C466.75 777.625 468.429 779.326 470.496 779.326C470.928 779.326 471.35 779.251 471.757 779.104L475.328 782.716L478.952 779.049C479.404 779.236 479.878 779.333 480.365 779.333C482.429 779.333 484.11 777.632 484.11 775.539C484.11 773.445 482.431 771.744 480.365 771.744C478.298 771.744 476.619 773.445 476.619 775.539C476.619 776.053 476.72 776.55 476.92 777.02L475.328 778.631L473.873 777.16C474.113 776.65 474.239 776.093 474.239 775.531C474.239 773.44 472.56 771.736 470.493 771.736H470.496ZM468.864 775.531C468.864 774.619 469.594 773.875 470.496 773.875C471.397 773.875 472.128 774.617 472.128 775.531C472.128 776.445 471.397 777.187 470.496 777.187C469.594 777.187 468.864 776.445 468.864 775.531ZM480.362 773.882C481.261 773.882 481.994 774.624 481.994 775.539C481.994 776.453 481.263 777.195 480.362 777.195C479.461 777.195 478.73 776.453 478.73 775.539C478.73 774.624 479.461 773.882 480.362 773.882Z" fill="#FFBA18"/>
<path d="M501.576 803.613C499.512 803.613 497.83 805.315 497.83 807.408C497.83 809.502 499.509 811.203 501.576 811.203C502.072 811.203 502.553 811.105 503.013 810.911L507.998 815.967C507.805 816.432 507.707 816.921 507.707 817.426C507.707 819.517 509.385 821.221 511.452 821.221C513.519 821.221 515.198 819.519 515.198 817.426C515.198 815.332 513.519 813.631 511.452 813.631C510.956 813.631 510.474 813.729 510.015 813.923L505.03 808.867C505.223 808.402 505.321 807.913 505.321 807.408C505.321 805.317 503.642 803.613 501.576 803.613ZM511.45 815.767C512.348 815.767 513.082 816.509 513.082 817.423C513.082 818.338 512.351 819.08 511.45 819.08C510.548 819.08 509.818 818.338 509.818 817.423C509.818 816.509 510.548 815.767 511.45 815.767ZM499.944 807.408C499.944 806.496 500.674 805.752 501.576 805.752C502.477 805.752 503.208 806.494 503.208 807.408C503.208 808.322 502.477 809.064 501.576 809.064C500.674 809.064 499.944 808.322 499.944 807.408Z" fill="#FFBA18"/>
<path d="M538.958 763.187C541.024 763.187 542.708 761.488 542.708 759.397C542.708 757.306 541.027 755.607 538.958 755.607C536.888 755.607 535.207 757.306 535.207 759.397C535.207 759.834 535.281 760.262 535.427 760.674L531.856 764.286L535.481 767.954C535.296 768.411 535.2 768.89 535.2 769.383C535.2 771.471 536.881 773.172 538.95 773.172C541.019 773.172 542.701 771.474 542.701 769.383C542.701 767.292 541.019 765.593 538.95 765.593C538.442 765.593 537.95 765.695 537.486 765.898L535.893 764.286L537.348 762.815C537.851 763.057 538.402 763.184 538.958 763.184V763.187ZM540.595 759.397C540.595 760.307 539.861 761.049 538.958 761.049C538.054 761.049 537.321 760.309 537.321 759.397C537.321 758.485 538.054 757.746 538.958 757.746C539.861 757.746 540.595 758.485 540.595 759.397ZM538.95 767.731C539.851 767.731 540.587 768.471 540.587 769.383C540.587 770.294 539.854 771.034 538.95 771.034C538.046 771.034 537.313 770.294 537.313 769.383C537.313 768.471 538.046 767.731 538.95 767.731Z" fill="#FFBA18"/>
</g>
<path d="M556.28 681.755C553.43 678.775 540.302 680.513 534.094 681.755C540.571 685.371 554.077 692.443 556.28 691.795C559.033 690.985 559.842 685.479 556.28 681.755Z" fill="#B63E38"/>
<path d="M560.301 695.326C561.856 694.635 560.949 685.541 560.301 681.08C565.072 683.526 574.895 690.62 576.026 699.427C577.44 710.435 569.666 706.118 568.075 706.334C566.485 706.549 558.358 696.189 560.301 695.326Z" fill="#B63E38"/>
<path d="M450.651 803.186C454.875 813.297 475.567 834.889 508.992 834.764" stroke="#56130F" stroke-width="0.323883"/>
<path d="M593.364 733.064C595.739 735.601 599.582 742.845 595.955 751.525C594.546 754.897 593.743 758.72 593.325 762.413C593.469 767.797 593.455 772.815 593.364 776.626C592.968 773.721 592.668 768.228 593.325 762.413C592.96 748.735 591.576 732.692 587.858 728.044C582.675 721.566 589.369 728.692 593.364 733.064Z" fill="#B63E38"/>
<circle cx="448.751" cy="690.311" r="3.40077" fill="#8A231D"/>
<circle cx="598.708" cy="792.982" r="2.10524" fill="#8A231D"/>
<circle cx="596.764" cy="801.403" r="3.40077" fill="#8A231D"/>
</g>
<defs>
<filter id="filter0_d_981_13723" x="27.4715" y="8.32031" width="969.023" height="974.571" filterUnits="userSpaceOnUse" color-interpolation-filters="sRGB">
<feFlood flood-opacity="0" result="BackgroundImageFix"/>
<feColorMatrix in="SourceAlpha" type="matrix" values="0 0 0 0 0 0 0 0 0 0 0 0 0 0 0 0 0 0 127 0" result="hardAlpha"/>
<feOffset dy="11.633"/>
<feGaussianBlur stdDeviation="5.81651"/>
<feComposite in2="hardAlpha" operator="out"/>
<feColorMatrix type="matrix" values="0 0 0 0 0 0 0 0 0 0 0 0 0 0 0 0 0 0 0.5 0"/>
<feBlend mode="normal" in2="BackgroundImageFix" result="effect1_dropShadow_981_13723"/>
<feBlend mode="normal" in="SourceGraphic" in2="effect1_dropShadow_981_13723" result="shape"/>
</filter>
<filter id="filter1_d_981_13723" x="30.7742" y="0" width="184.083" height="183.069" filterUnits="userSpaceOnUse" color-interpolation-filters="sRGB">
<feFlood flood-opacity="0" result="BackgroundImageFix"/>
<feColorMatrix in="SourceAlpha" type="matrix" values="0 0 0 0 0 0 0 0 0 0 0 0 0 0 0 0 0 0 127 0" result="hardAlpha"/>
<feOffset dy="2.78338"/>
<feGaussianBlur stdDeviation="1.39169"/>
<feComposite in2="hardAlpha" operator="out"/>
<feColorMatrix type="matrix" values="0 0 0 0 0 0 0 0 0 0 0 0 0 0 0 0 0 0 0.25 0"/>
<feBlend mode="normal" in2="BackgroundImageFix" result="effect1_dropShadow_981_13723"/>
<feBlend mode="normal" in="SourceGraphic" in2="effect1_dropShadow_981_13723" result="shape"/>
</filter>
<filter id="filter2_d_981_13723" x="812.896" y="0" width="183.07" height="184.084" filterUnits="userSpaceOnUse" color-interpolation-filters="sRGB">
<feFlood flood-opacity="0" result="BackgroundImageFix"/>
<feColorMatrix in="SourceAlpha" type="matrix" values="0 0 0 0 0 0 0 0 0 0 0 0 0 0 0 0 0 0 127 0" result="hardAlpha"/>
<feOffset dy="2.78338"/>
<feGaussianBlur stdDeviation="1.39169"/>
<feComposite in2="hardAlpha" operator="out"/>
<feColorMatrix type="matrix" values="0 0 0 0 0 0 0 0 0 0 0 0 0 0 0 0 0 0 0.25 0"/>
<feBlend mode="normal" in2="BackgroundImageFix" result="effect1_dropShadow_981_13723"/>
<feBlend mode="normal" in="SourceGraphic" in2="effect1_dropShadow_981_13723" result="shape"/>
</filter>
<filter id="filter3_d_981_13723" x="7.37012" y="553.809" width="1012" height="621.018" filterUnits="userSpaceOnUse" color-interpolation-filters="sRGB">
<feFlood flood-opacity="0" result="BackgroundImageFix"/>
<feColorMatrix in="SourceAlpha" type="matrix" values="0 0 0 0 0 0 0 0 0 0 0 0 0 0 0 0 0 0 127 0" result="hardAlpha"/>
<feOffset dy="4"/>
<feGaussianBlur stdDeviation="2"/>
<feComposite in2="hardAlpha" operator="out"/>
<feColorMatrix type="matrix" values="0 0 0 0 0 0 0 0 0 0 0 0 0 0 0 0 0 0 0.5 0"/>
<feBlend mode="normal" in2="BackgroundImageFix" result="effect1_dropShadow_981_13723"/>
<feBlend mode="normal" in="SourceGraphic" in2="effect1_dropShadow_981_13723" result="shape"/>
</filter>
<filter id="filter4_d_981_13723" x="-0.000378609" y="730.467" width="1026.15" height="390.55" filterUnits="userSpaceOnUse" color-interpolation-filters="sRGB">
<feFlood flood-opacity="0" result="BackgroundImageFix"/>
<feColorMatrix in="SourceAlpha" type="matrix" values="0 0 0 0 0 0 0 0 0 0 0 0 0 0 0 0 0 0 127 0" result="hardAlpha"/>
<feOffset dy="-2.32661"/>
<feGaussianBlur stdDeviation="5.68525"/>
<feComposite in2="hardAlpha" operator="out"/>
<feColorMatrix type="matrix" values="0 0 0 0 0 0 0 0 0 0 0 0 0 0 0 0 0 0 0.5 0"/>
<feBlend mode="normal" in2="BackgroundImageFix" result="effect1_dropShadow_981_13723"/>
<feBlend mode="normal" in="SourceGraphic" in2="effect1_dropShadow_981_13723" result="shape"/>
</filter>
<filter id="filter5_dn_981_13723" x="448.588" y="700.514" width="128.906" height="130.806" filterUnits="userSpaceOnUse" color-interpolation-filters="sRGB">
<feFlood flood-opacity="0" result="BackgroundImageFix"/>
<feColorMatrix in="SourceAlpha" type="matrix" values="0 0 0 0 0 0 0 0 0 0 0 0 0 0 0 0 0 0 127 0" result="hardAlpha"/>
<feOffset dy="1.29553"/>
<feGaussianBlur stdDeviation="0.647766"/>
<feComposite in2="hardAlpha" operator="out"/>
<feColorMatrix type="matrix" values="0 0 0 0 0.337255 0 0 0 0 0.0745098 0 0 0 0 0.0588235 0 0 0 1 0"/>
<feBlend mode="normal" in2="BackgroundImageFix" result="effect1_dropShadow_981_13723"/>
<feBlend mode="normal" in="SourceGraphic" in2="BackgroundImageFix" result="shape"/>
<feTurbulence type="fractalNoise" baseFrequency="6.1750698089599609 6.1750698089599609" stitchTiles="stitch" numOctaves="3" result="noise" seed="1330" />
<feColorMatrix in="noise" type="luminanceToAlpha" result="alphaNoise" />
<feComponentTransfer in="alphaNoise" result="coloredNoise1">
<feFuncA type="discrete" tableValues="1 1 1 1 1 1 1 1 1 1 1 1 1 1 1 1 1 1 1 1 1 1 1 1 1 1 1 1 1 1 1 1 1 1 1 1 1 1 1 1 1 1 1 1 1 1 1 1 1 1 1 0 0 0 0 0 0 0 0 0 0 0 0 0 0 0 0 0 0 0 0 0 0 0 0 0 0 0 0 0 0 0 0 0 0 0 0 0 0 0 0 0 0 0 0 0 0 0 0 0 "/>
</feComponentTransfer>
<feComposite operator="in" in2="shape" in="coloredNoise1" result="noise1Clipped" />
<feFlood flood-color="rgba(0, 0, 0, 0.25)" result="color1Flood" />
<feComposite operator="in" in2="noise1Clipped" in="color1Flood" result="color1" />
<feMerge result="effect2_noise_981_13723">
<feMergeNode in="shape" />
<feMergeNode in="color1" />
</feMerge>
<feBlend mode="normal" in="effect2_noise_981_13723" in2="effect1_dropShadow_981_13723" result="effect2_noise_981_13723"/>
</filter>
</defs>
</svg>
