<svg xmlns="http://www.w3.org/2000/svg" viewBox="0 0 610.26 194.44"><defs><style>.a{fill:#a4adaf;}.b{fill:#e32213;}.c{fill:#e42313;}.d{fill:#696868;}</style></defs><polygon class="a" points="0 14.27 80.11 14.27 80.11 34.3 40.36 34.3 40.36 54.64 80.09 54.64 80.09 74.07 40.36 74.07 40.36 114.41 0 114.41 0 14.27"/><rect class="b" x="88.98" y="14.13" width="39.76" height="100.16"/><path class="a" d="M223.68,64.25a25.5,25.5,0,0,0-6.83-50.07l-76.76,0V114.31h76.76a25.5,25.5,0,0,0,6.83-50.06ZM200.4,94.66H179.35V74.11H200.4Zm0-40.06H179.35V34H200.4Z"/><rect class="c" x="280.77" y="13.99" width="112.01" height="33.77"/><path class="c" d="M517.68,156.23a55.12,55.12,0,0,1-55.06-55.06H425.1a92.17,92.17,0,0,0,4,26.77H407v28.85h36.74a92.55,92.55,0,0,0,166.54-55.62H572.74A55.12,55.12,0,0,1,517.68,156.23Z"/><path class="c" d="M215.41,188.33H201L198.79,194h-8.63l14.32-34H212l14.23,34h-8.58Zm-2.62-6.66L208.25,170l-4.59,11.66Z"/><path class="c" d="M228.32,160h5l20.2,20.34L253.34,160h8.08v34h-5l-20.25-20.39L236.4,194h-8.08Z"/><path class="c" d="M296,160l-11.93,22.09V194h-8V182.09L264.13,160h8.63l7.4,15,7.34-15Z"/><path class="c" d="M296.55,190l3-5.42a14.65,14.65,0,0,0,9.14,3.17c3.67,0,5.65-1,5.65-3,0-2.2-2.48-3.12-6.25-4.13l-1.74-.46c-6-1.61-10.29-4.09-10.29-9.78,0-6.48,5.24-10.84,13.13-10.84a19.47,19.47,0,0,1,11.9,3.91l-3.54,5.6a13.18,13.18,0,0,0-8.27-2.85c-3,0-4.91,1.1-4.91,2.85,0,2.11,2.44,2.94,5.6,3.76l1.75.51c5.46,1.47,10.93,4.5,10.93,10.65s-5.42,10.47-13.5,10.47A19.2,19.2,0,0,1,296.55,190Z"/><path class="c" d="M466.42,72.55a55,55,0,0,1,102.52,0h39.11a92.56,92.56,0,0,0-180.74,0Z"/><path class="c" d="M342.12,80.48H311.33V55.43H254.6v30h25.91v32.93h61.61a17.74,17.74,0,0,1,17.71,17.72v2a17.73,17.73,0,0,1-17.71,17.71h-4.86v37.9h4.86a55.68,55.68,0,0,0,55.61-55.61v-2A55.68,55.68,0,0,0,342.12,80.48Z"/><polygon class="d" points="0 14.27 80.11 14.27 80.11 34.3 40.36 34.3 40.36 54.64 80.09 54.64 80.09 74.07 40.36 74.07 40.36 114.41 0 114.41 0 14.27"/><rect class="b" x="88.98" y="14.13" width="39.76" height="100.16"/><path class="d" d="M223.68,64.25a25.5,25.5,0,0,0-6.83-50.07l-76.76,0V114.31h76.76a25.5,25.5,0,0,0,6.83-50.06ZM200.4,94.66H179.35V74.11H200.4Zm0-40.06H179.35V34H200.4Z"/><rect class="c" x="280.77" y="13.99" width="112.01" height="33.77"/><path class="c" d="M517.68,156.23a55.12,55.12,0,0,1-55.06-55.06H425.1a92.17,92.17,0,0,0,4,26.77H407v28.85h36.74a92.55,92.55,0,0,0,166.54-55.62H572.74A55.12,55.12,0,0,1,517.68,156.23Z"/><path class="c" d="M215.41,188.33H201L198.79,194h-8.63l14.32-34H212l14.23,34h-8.58Zm-2.62-6.66L208.25,170l-4.59,11.66Z"/><path class="c" d="M228.32,160h5l20.2,20.34L253.34,160h8.08v34h-5l-20.25-20.39L236.4,194h-8.08Z"/><path class="c" d="M296,160l-11.93,22.09V194h-8V182.09L264.13,160h8.63l7.4,15,7.34-15Z"/><path class="c" d="M296.55,190l3-5.42a14.65,14.65,0,0,0,9.14,3.17c3.67,0,5.65-1,5.65-3,0-2.2-2.48-3.12-6.25-4.13l-1.74-.46c-6-1.61-10.29-4.09-10.29-9.78,0-6.48,5.24-10.84,13.13-10.84a19.47,19.47,0,0,1,11.9,3.91l-3.54,5.6a13.18,13.18,0,0,0-8.27-2.85c-3,0-4.91,1.1-4.91,2.85,0,2.11,2.44,2.94,5.6,3.76l1.75.51c5.46,1.47,10.93,4.5,10.93,10.65s-5.42,10.47-13.5,10.47A19.2,19.2,0,0,1,296.55,190Z"/><path class="c" d="M466.42,72.55a55,55,0,0,1,102.52,0h39.11a92.56,92.56,0,0,0-180.74,0Z"/><path class="c" d="M342.12,80.48H311.33V55.43H254.6v30h25.91v32.93h61.61a17.74,17.74,0,0,1,17.71,17.72v2a17.73,17.73,0,0,1-17.71,17.71h-4.86v37.9h4.86a55.68,55.68,0,0,0,55.61-55.61v-2A55.68,55.68,0,0,0,342.12,80.48Z"/></svg>