<svg width="471" height="128" viewBox="0 0 471 128" fill="none" xmlns="http://www.w3.org/2000/svg">
<rect width="471" height="128" transform="translate(471 128) rotate(-180)" fill="black"/>
<path d="M32.7709 32C41.5949 58.112 116.858 59.136 90.3865 96C86.7531 71.424 50.0367 100.096 50.0367 69.888C38.1693 66.0049 29.2679 56.9557 32.7709 32Z" fill="white"/>
<path d="M90.3865 96C116.858 59.136 41.5949 58.112 32.7709 32C29.2679 56.9557 38.1693 66.0049 50.0367 69.888M90.3865 96C97.8487 68.4772 69.8211 76.3616 50.0367 69.888M90.3865 96C86.7531 71.424 50.0367 100.096 50.0367 69.888" stroke="black" stroke-width="4" stroke-linejoin="round"/>
<path d="M132.608 88V54.272H140.352L140.48 65.024L139.392 62.592C139.861 60.8853 140.672 59.3493 141.824 57.984C142.976 56.6187 144.299 55.552 145.792 54.784C147.328 53.9733 148.928 53.568 150.592 53.568C151.317 53.568 152 53.632 152.64 53.76C153.323 53.888 153.877 54.0373 154.304 54.208L152.192 62.848C151.723 62.592 151.147 62.3787 150.464 62.208C149.781 62.0373 149.099 61.952 148.416 61.952C147.349 61.952 146.325 62.1653 145.344 62.592C144.405 62.976 143.573 63.5307 142.848 64.256C142.123 64.9813 141.547 65.8347 141.12 66.816C140.736 67.7547 140.544 68.8213 140.544 70.016V88H132.608ZM173.916 88.64C170.375 88.64 167.239 87.8933 164.508 86.4C161.82 84.9067 159.708 82.88 158.172 80.32C156.679 77.7173 155.932 74.752 155.932 71.424C155.932 68.7787 156.359 66.368 157.212 64.192C158.065 62.016 159.239 60.1387 160.732 58.56C162.268 56.9387 164.081 55.7013 166.172 54.848C168.305 53.952 170.631 53.504 173.148 53.504C175.367 53.504 177.436 53.9307 179.356 54.784C181.276 55.6373 182.94 56.8107 184.348 58.304C185.756 59.7547 186.823 61.504 187.548 63.552C188.316 65.5573 188.679 67.7547 188.636 70.144L188.572 72.896H161.244L159.772 67.52H181.98L180.956 68.608V67.2C180.828 65.8773 180.401 64.7253 179.676 63.744C178.951 62.72 178.012 61.9307 176.86 61.376C175.751 60.7787 174.513 60.48 173.148 60.48C171.057 60.48 169.287 60.8853 167.836 61.696C166.428 62.5067 165.361 63.68 164.636 65.216C163.911 66.7093 163.548 68.5867 163.548 70.848C163.548 73.024 163.996 74.9227 164.892 76.544C165.831 78.1653 167.132 79.424 168.796 80.32C170.503 81.1733 172.487 81.6 174.748 81.6C176.327 81.6 177.777 81.344 179.1 80.832C180.423 80.32 181.852 79.4027 183.388 78.08L187.292 83.52C186.14 84.5867 184.817 85.504 183.324 86.272C181.873 86.9973 180.337 87.5733 178.716 88C177.095 88.4267 175.495 88.64 173.916 88.64ZM195.608 102.08V54.272H203.352L203.48 61.952L202.136 61.376C202.392 60.0533 203.117 58.816 204.312 57.664C205.507 56.4693 206.957 55.5093 208.664 54.784C210.413 54.0587 212.227 53.696 214.104 53.696C217.091 53.696 219.736 54.4427 222.04 55.936C224.387 57.4293 226.221 59.4773 227.544 62.08C228.909 64.6827 229.592 67.6907 229.592 71.104C229.592 74.4747 228.909 77.4827 227.544 80.128C226.221 82.7307 224.387 84.8 222.04 86.336C219.736 87.8293 217.133 88.576 214.232 88.576C212.269 88.576 210.371 88.192 208.536 87.424C206.744 86.656 205.208 85.6533 203.928 84.416C202.691 83.1787 201.923 81.8773 201.624 80.512L203.544 79.616V102.08H195.608ZM212.632 81.6C214.424 81.6 216.024 81.152 217.432 80.256C218.84 79.36 219.928 78.1227 220.696 76.544C221.507 74.9653 221.912 73.152 221.912 71.104C221.912 69.056 221.528 67.264 220.76 65.728C219.992 64.1493 218.904 62.912 217.496 62.016C216.088 61.12 214.467 60.672 212.632 60.672C210.755 60.672 209.112 61.12 207.704 62.016C206.339 62.8693 205.251 64.0853 204.44 65.664C203.629 67.2427 203.224 69.056 203.224 71.104C203.224 73.152 203.629 74.9653 204.44 76.544C205.251 78.1227 206.339 79.36 207.704 80.256C209.112 81.152 210.755 81.6 212.632 81.6ZM236.672 88V40.64H244.608V88H236.672ZM269.041 88.64C265.5 88.64 262.364 87.8933 259.633 86.4C256.945 84.9067 254.833 82.88 253.297 80.32C251.804 77.7173 251.057 74.752 251.057 71.424C251.057 68.7787 251.484 66.368 252.337 64.192C253.19 62.016 254.364 60.1387 255.857 58.56C257.393 56.9387 259.206 55.7013 261.297 54.848C263.43 53.952 265.756 53.504 268.273 53.504C270.492 53.504 272.561 53.9307 274.481 54.784C276.401 55.6373 278.065 56.8107 279.473 58.304C280.881 59.7547 281.948 61.504 282.673 63.552C283.441 65.5573 283.804 67.7547 283.761 70.144L283.697 72.896H256.369L254.897 67.52H277.105L276.081 68.608V67.2C275.953 65.8773 275.526 64.7253 274.801 63.744C274.076 62.72 273.137 61.9307 271.985 61.376C270.876 60.7787 269.638 60.48 268.273 60.48C266.182 60.48 264.412 60.8853 262.961 61.696C261.553 62.5067 260.486 63.68 259.761 65.216C259.036 66.7093 258.673 68.5867 258.673 70.848C258.673 73.024 259.121 74.9227 260.017 76.544C260.956 78.1653 262.257 79.424 263.921 80.32C265.628 81.1733 267.612 81.6 269.873 81.6C271.452 81.6 272.902 81.344 274.225 80.832C275.548 80.32 276.977 79.4027 278.513 78.08L282.417 83.52C281.265 84.5867 279.942 85.504 278.449 86.272C276.998 86.9973 275.462 87.5733 273.841 88C272.22 88.4267 270.62 88.64 269.041 88.64ZM312.37 88L302.77 75.008L300.978 72.576L287.09 54.272H296.818L306.162 66.944L308.146 69.632L321.906 88H312.37ZM287.026 88L300.402 70.08L304.882 75.456L296.306 88H287.026ZM308.146 72.256L303.858 66.944L311.602 54.272H320.882L308.146 72.256ZM328.442 88V54.272H336.314V88H328.442ZM332.282 47.104C330.703 47.104 329.466 46.72 328.57 45.952C327.716 45.1413 327.29 44.0107 327.29 42.56C327.29 41.1947 327.738 40.0853 328.634 39.232C329.53 38.3787 330.746 37.952 332.282 37.952C333.903 37.952 335.14 38.3573 335.994 39.168C336.89 39.936 337.338 41.0667 337.338 42.56C337.338 43.8827 336.89 44.9707 335.994 45.824C335.098 46.6773 333.86 47.104 332.282 47.104ZM360.76 88.64C357.602 88.64 354.765 87.872 352.248 86.336C349.73 84.8 347.746 82.7093 346.296 80.064C344.845 77.4187 344.12 74.432 344.12 71.104C344.12 67.776 344.845 64.7893 346.296 62.144C347.746 59.4987 349.73 57.408 352.248 55.872C354.765 54.336 357.602 53.568 360.76 53.568C363.789 53.568 366.541 54.144 369.016 55.296C371.49 56.448 373.41 58.048 374.776 60.096L370.424 65.344C369.784 64.448 368.973 63.6373 367.992 62.912C367.01 62.1867 365.965 61.6107 364.856 61.184C363.746 60.7573 362.637 60.544 361.528 60.544C359.65 60.544 357.965 61.0133 356.472 61.952C355.021 62.848 353.869 64.1067 353.016 65.728C352.162 67.3067 351.736 69.0987 351.736 71.104C351.736 73.1093 352.162 74.9013 353.016 76.48C353.912 78.0587 355.106 79.3173 356.6 80.256C358.093 81.1947 359.757 81.664 361.592 81.664C362.701 81.664 363.768 81.4933 364.792 81.152C365.858 80.768 366.861 80.2347 367.8 79.552C368.738 78.8693 369.613 78.016 370.424 76.992L374.776 82.304C373.325 84.1813 371.32 85.7173 368.76 86.912C366.242 88.064 363.576 88.64 360.76 88.64ZM393.532 88.64C390.758 88.64 388.241 87.872 385.98 86.336C383.718 84.8 381.905 82.7093 380.54 80.064C379.174 77.4187 378.492 74.4107 378.492 71.04C378.492 67.6693 379.174 64.6613 380.54 62.016C381.905 59.3707 383.761 57.3013 386.108 55.808C388.454 54.3147 391.1 53.568 394.044 53.568C395.75 53.568 397.308 53.824 398.716 54.336C400.124 54.8053 401.361 55.488 402.428 56.384C403.494 57.28 404.369 58.304 405.052 59.456C405.777 60.608 406.268 61.8453 406.524 63.168L404.796 62.72V54.272H412.732V88H404.732V79.936L406.588 79.616C406.289 80.768 405.734 81.8987 404.924 83.008C404.156 84.0747 403.174 85.0347 401.98 85.888C400.828 86.6987 399.526 87.36 398.076 87.872C396.668 88.384 395.153 88.64 393.532 88.64ZM395.708 81.664C397.542 81.664 399.164 81.216 400.572 80.32C401.98 79.424 403.068 78.1867 403.836 76.608C404.646 74.9867 405.052 73.1307 405.052 71.04C405.052 68.992 404.646 67.1787 403.836 65.6C403.068 64.0213 401.98 62.784 400.572 61.888C399.164 60.992 397.542 60.544 395.708 60.544C393.873 60.544 392.252 60.992 390.844 61.888C389.478 62.784 388.412 64.0213 387.644 65.6C386.876 67.1787 386.492 68.992 386.492 71.04C386.492 73.1307 386.876 74.9867 387.644 76.608C388.412 78.1867 389.478 79.424 390.844 80.32C392.252 81.216 393.873 81.664 395.708 81.664Z" fill="white"/>
</svg>
