<?xml version="1.0" encoding="UTF-8"?>
<svg id="a" data-name="Capa 1" xmlns="http://www.w3.org/2000/svg" viewBox="0 0 709.153 214.942">
  <path d="M210.758,184.436h46.479v-5.101l-11.903-3.401v-54.981c0-22.107-9.258-30.42-25.885-30.42-14.17,0-26.64,10.959-32.119,16.627v-63.862l-35.143,11.148v3.212l11.147,6.612v111.664l-11.525,3.212v5.29h46.479v-5.29l-10.958-3.212v-63.106c3.589-2.834,10.391-7.18,17.571-7.18,11.336-.189,16.06,7.558,16.627,18.516v51.77l-10.77,3.212v5.29h0ZM262.905,184.436h48.368v-5.29l-12.47-3.212v-85.401l-35.52,9.636v3.023l11.525,7.558v65.184l-11.903,3.212v5.29h0ZM286.144,72.206c7.369,0,13.982-6.235,13.982-13.793,0-7.368-6.613-13.792-13.982-13.792s-13.792,6.424-13.792,13.792c0,7.558,6.424,13.793,13.792,13.793h0ZM317.318,184.436h46.479v-5.29l-10.96-3.212v-63.106c3.59-2.834,10.39-7.18,17.57-7.18,11.34-.189,16.06,7.558,16.63,18.516v51.77l-10.77,3.212v5.29h46.48v-5.101l-11.71-3.401v-54.981c0-22.107-9.45-30.42-25.89-30.42-14.93,0-28.15,12.092-33.25,17.383h-.38l-1.32-17.572h-.95l-31.929,10.392v2.834l11.526,7.18v65.184l-11.526,3.212v5.29h0Z" style="fill: #1f3855;"/>
  <polygon points="46.221 58.951 32.049 58.007 31.671 81.622 36.961 81.622 48.109 66.509 74.183 66.509 74.183 175.339 56.233 178.928 56.233 184.408 118.017 184.408 118.017 178.928 100.256 175.339 100.256 66.509 126.33 66.509 137.479 81.622 142.768 81.622 142.39 58.007 128.22 58.951 46.221 58.951 46.221 58.951" style="fill: #1f3855;"/>
  <path d="M440.887,175.934l-11.53,3.212v5.29h46.48v-5.29l-10.96-3.212V43.298l-35.14,11.148v3.212l11.15,6.613v111.663h0ZM515.137,187.082c8.31,0,14.74-4.535,14.74-4.535l-43.84-55.926,27.97-24.185,13.41-4.723v-4.535h-40.81v4.913l14.17,5.668-34.58,32.876,28.16,39.677c4.91,6.802,10.96,10.77,20.78,10.77h0Z" style="fill: #1f3855;"/>
  <path d="M678.648,90.506c0,33.413-27.08,60.501-60.5,60.501s-60.5-27.088-60.5-60.501,27.09-60.5,60.5-60.5,60.5,27.088,60.5,60.5h0Z" style="fill: #057bc0;"/>
  <path d="M606.297,75.187v17.23c0,3.941-.17,7.841-3.21,10.811-2.57,2.518-6.59,3.41-10.16,3.41s-7.6-.892-10.16-3.41c-3.05-2.97-3.21-6.87-3.21-10.811v-17.23h7.96v16.132c0,3.982.29,8.33,5.41,8.33s5.4-4.348,5.4-8.33v-16.132h7.97Z" style="fill: #fff;"/>
  <path d="M609.927,75.187h12.2c6.58,0,11.13,3.048,11.13,10.077,0,7.233-3.9,10.401-10.85,10.401h-4.51v10.16h-7.97v-30.638h0ZM617.898,89.389h1.34c2.89,0,5.73,0,5.73-3.737,0-3.861-2.64-3.903-5.73-3.903h-1.34v7.64h0Z" style="fill: #fff;"/>
  <path d="M658.407,85.467c-1.62-2.193-4.26-3.372-6.99-3.372-4.87,0-8.16,3.739-8.16,8.492,0,4.837,3.33,8.332,8.29,8.332,2.6,0,5.2-1.261,6.86-3.254v9.553c-2.64.81-4.55,1.42-7.03,1.42-4.26,0-8.33-1.624-11.5-4.511-3.37-3.045-4.91-7.028-4.91-11.58,0-4.186,1.58-8.207,4.51-11.216,3-3.087,7.35-4.955,11.66-4.955,2.56,0,4.92.566,7.27,1.541v9.55h0Z" style="fill: #fff;"/>
</svg>