<?xml version="1.0" encoding="utf-8"?>
<svg width="1458" height="685" viewBox="95.28 8.864 1358.288 676.136" fill="none" xmlns="http://www.w3.org/2000/svg">
  <rect width="1360.94" height="685" fill="#CAC9C9" style="" x="93.064"/>
  <path d="M128.8 4.6084C160.206 3.24072 208.675 4.60487 208.8 4.6084H231.357C240.993 4.60838 248.71 12.6022 248.476 22.2354C248.183 34.2482 247.927 50.1211 248.2 62.2998C248.242 64.1625 248.303 66.2509 248.373 68.3799C248.669 77.3504 242.048 85.1128 233.088 85.6328C228.092 85.9227 222.75 86.1019 218.4 85.9375C195.797 85.0831 164.824 83.7195 138.4 83.5332C129.012 83.467 120.098 83.5867 112.818 83.752C103.115 83.9723 95 76.2217 95 66.5156V22.1289C95.0001 12.5399 102.926 4.85103 112.515 4.87402C117.921 4.88698 123.772 4.82734 128.8 4.6084Z" fill="#D9D9D9"/>
  <path d="M128.8 4.6084C160.206 3.24072 208.675 4.60487 208.8 4.6084H231.357C240.993 4.60838 248.71 12.6022 248.476 22.2354C248.183 34.2482 247.927 50.1211 248.2 62.2998C248.242 64.1625 248.303 66.2509 248.373 68.3799C248.669 77.3504 242.048 85.1128 233.088 85.6328C228.092 85.9227 222.75 86.1019 218.4 85.9375C195.797 85.0831 164.824 83.7195 138.4 83.5332C129.012 83.467 120.098 83.5867 112.818 83.752C103.115 83.9723 95 76.2217 95 66.5156V22.1289C95.0001 12.5399 102.926 4.85103 112.515 4.87402C117.921 4.88698 123.772 4.82734 128.8 4.6084Z" stroke="#CAC9C9"/>
  <path d="M284.806 4.30176C317.508 4.30175 323.03 3.16337 355.662 5.30664C364.002 5.85444 378.805 5.80482 390.544 5.64648C400.112 5.51769 408 13.2071 408 22.7764V25.3018C408 33.1099 405.584 36.6552 406.792 45.2959C408 53.9369 408 57.4826 408 65.291V68.2852C408 77.6738 400.39 85.2851 391.001 85.2852H377.806C368.949 85.2852 342.175 83.6776 315.402 85.2852C301.153 86.1407 284.395 86.0864 271.835 85.8477C261.758 85.6558 254.582 76.6101 254.798 66.5332C254.807 66.1092 254.812 65.6944 254.812 65.291C254.812 57.4507 253 53.1043 253 45.2959V21.4355C253 12.3943 260.077 4.92733 269.113 4.62109C274.34 4.44397 280.02 4.30176 284.806 4.30176Z" fill="#D9D9D9"/>
  <path d="M284.806 4.30176C317.508 4.30175 323.03 3.16337 355.662 5.30664C364.002 5.85444 378.805 5.80482 390.544 5.64648C400.112 5.51769 408 13.2071 408 22.7764V25.3018C408 33.1099 405.584 36.6552 406.792 45.2959C408 53.9369 408 57.4826 408 65.291V68.2852C408 77.6738 400.39 85.2851 391.001 85.2852H377.806C368.949 85.2852 342.175 83.6776 315.402 85.2852C301.153 86.1407 284.395 86.0864 271.835 85.8477C261.758 85.6558 254.582 76.6101 254.798 66.5332C254.807 66.1092 254.812 65.6944 254.812 65.291C254.812 57.4507 253 53.1043 253 45.2959V21.4355C253 12.3943 260.077 4.92733 269.113 4.62109C274.34 4.44397 280.02 4.30176 284.806 4.30176Z" stroke="#CAC9C9"/>
  <path d="M550.003 4C559.392 4.00012 567.214 11.6447 566.146 20.9727C566.099 21.3888 566.048 21.7988 565.995 22.2002C564.991 29.8 567 36.0285 567 43.7998V66.5986C567 75.9875 559.39 83.5996 550.001 83.5996H536.86C512.535 83.5996 499.298 86 474.973 86C460.692 86 441.573 85.1733 428.218 84.4902C419.253 84.0315 412.281 76.6065 412.281 67.6299V63.7002C412.281 63.7002 413.286 52.371 413.286 44.5996C413.286 36.8286 411.277 34.7999 412.281 23.9004C412.295 23.7553 412.308 23.6102 412.32 23.4658C413.221 13.1975 421.455 4.23023 431.76 4.4668C446.444 4.80389 465.257 5.2002 472.562 5.2002C505.205 5.20019 495.778 4 528.421 4H550.003Z" fill="#D9D9D9"/>
  <path d="M550.003 4C559.392 4.00012 567.214 11.6447 566.146 20.9727C566.099 21.3888 566.048 21.7988 565.995 22.2002C564.991 29.8 567 36.0285 567 43.7998V66.5986C567 75.9875 559.39 83.5996 550.001 83.5996H536.86C512.535 83.5996 499.298 86 474.973 86C460.692 86 441.573 85.1733 428.218 84.4902C419.253 84.0315 412.281 76.6065 412.281 67.6299V63.7002C412.281 63.7002 413.286 52.371 413.286 44.5996C413.286 36.8286 411.277 34.7999 412.281 23.9004C412.295 23.7553 412.308 23.6102 412.32 23.4658C413.221 13.1975 421.455 4.23023 431.76 4.4668C446.444 4.80389 465.257 5.2002 472.562 5.2002C505.205 5.20019 495.778 4 528.421 4H550.003Z" stroke="#CAC9C9"/>
  <path d="M603.4 4C635.892 4.00001 657.308 5.60839 689.8 5.6084C695.133 5.6084 701.125 5.40467 706.632 5.14258C716.541 4.67101 725 12.4869 725 22.4072V24C725 31.8105 723.4 36.5919 723.4 44.4023C723.4 52.2126 725 56.1896 725 64V66.999C725 76.3879 717.39 84 708.001 84H695C670.787 84 657.012 82.1914 632.8 82.1914C615.62 82.1914 591.707 83.1018 579.265 83.6309C574.954 83.8139 571.523 80.0623 572.09 75.7852C572.163 75.2338 572.169 74.675 572.108 74.1221L571 64C571 64 571 51.8105 571 44C571 36.1895 572.2 31.7099 572.2 23.8994C572.2 23.5196 572.197 23.1296 572.191 22.7314C572.055 12.6799 579.717 4.0002 589.77 4H603.4Z" fill="#D9D9D9"/>
  <path d="M603.4 4C635.892 4.00001 657.308 5.60839 689.8 5.6084C695.133 5.6084 701.125 5.40467 706.632 5.14258C716.541 4.67101 725 12.4869 725 22.4072V24C725 31.8105 723.4 36.5919 723.4 44.4023C723.4 52.2126 725 56.1896 725 64V66.999C725 76.3879 717.39 84 708.001 84H695C670.787 84 657.012 82.1914 632.8 82.1914C615.62 82.1914 591.707 83.1018 579.265 83.6309C574.954 83.8139 571.523 80.0623 572.09 75.7852C572.163 75.2338 572.169 74.675 572.108 74.1221L571 64C571 64 571 51.8105 571 44C571 36.1895 572.2 31.7099 572.2 23.8994C572.2 23.5196 572.197 23.1296 572.191 22.7314C572.055 12.6799 579.717 4.0002 589.77 4H603.4Z" stroke="#CAC9C9"/>
  <path d="M763.02 85.3916C794.67 86.7611 843.539 85.3916 843.539 85.3916H866.354C875.991 85.3915 883.709 77.3954 883.473 67.7607C883.178 55.7484 882.921 39.8776 883.195 27.7002C883.237 25.842 883.299 23.7593 883.369 21.6357C883.667 12.6588 877.038 4.89176 868.071 4.37207C863.018 4.0792 857.604 3.89714 853.201 4.0625C830.451 4.91687 799.277 6.28054 772.683 6.4668C763.18 6.53335 754.16 6.41182 746.812 6.24512C737.11 6.02512 729 13.7746 729 23.4785V67.875C729 77.4626 736.924 85.1507 746.512 85.126C751.986 85.1119 757.923 85.1711 763.02 85.3916Z" fill="#D9D9D9"/>
  <path d="M763.02 85.3916C794.67 86.7611 843.539 85.3916 843.539 85.3916H866.354C875.991 85.3915 883.709 77.3954 883.473 67.7607C883.178 55.7484 882.921 39.8776 883.195 27.7002C883.237 25.842 883.299 23.7593 883.369 21.6357C883.667 12.6588 877.038 4.89176 868.071 4.37207C863.018 4.0792 857.604 3.89714 853.201 4.0625C830.451 4.91687 799.277 6.28054 772.683 6.4668C763.18 6.53335 754.16 6.41182 746.812 6.24512C737.11 6.02512 729 13.7746 729 23.4785V67.875C729 77.4626 736.924 85.1507 746.512 85.126C751.986 85.1119 757.923 85.1711 763.02 85.3916Z" stroke="#CAC9C9"/>
  <path d="M919.806 85.6982C952.508 85.6983 958.03 86.8366 990.662 84.6934C999.002 84.1456 1013.8 84.1952 1025.54 84.3535C1035.11 84.4823 1043 76.7929 1043 67.2236V64.6982C1043 56.8901 1040.58 53.3448 1041.79 44.7041C1043 36.0631 1043 32.5174 1043 24.709V21.7148C1043 12.3262 1035.39 4.7149 1026 4.71484H1012.81C1003.95 4.71484 977.175 6.32237 950.402 4.71484C936.153 3.85929 919.395 3.91355 906.835 4.15234C896.758 4.34419 889.582 13.3899 889.798 23.4668C889.807 23.8908 889.812 24.3056 889.812 24.709C889.812 32.5493 888 36.8957 888 44.7041V68.5645C888 77.6057 895.077 85.0727 904.113 85.3789C909.34 85.556 915.02 85.6982 919.806 85.6982Z" fill="#D9D9D9"/>
  <path d="M919.806 85.6982C952.508 85.6983 958.03 86.8366 990.662 84.6934C999.002 84.1456 1013.8 84.1952 1025.54 84.3535C1035.11 84.4823 1043 76.7929 1043 67.2236V64.6982C1043 56.8901 1040.58 53.3448 1041.79 44.7041C1043 36.0631 1043 32.5174 1043 24.709V21.7148C1043 12.3262 1035.39 4.7149 1026 4.71484H1012.81C1003.95 4.71484 977.175 6.32237 950.402 4.71484C936.153 3.85929 919.395 3.91355 906.835 4.15234C896.758 4.34419 889.582 13.3899 889.798 23.4668C889.807 23.8908 889.812 24.3056 889.812 24.709C889.812 32.5493 888 36.8957 888 44.7041V68.5645C888 77.6057 895.077 85.0727 904.113 85.3789C909.34 85.556 915.02 85.6982 919.806 85.6982Z" stroke="#CAC9C9"/>
  <path d="M1184 86C1193.39 86 1201.21 78.356 1200.15 69.0273C1200.1 68.6113 1200.05 68.2011 1200 67.7998C1199 60.2 1201 53.9715 1201 46.2002V23.4014C1201 14.0125 1193.39 6.40039 1184 6.40039H1171.05C1146.89 6.40039 1133.73 4.00001 1109.57 4C1095.41 4 1076.47 4.82273 1063.21 5.50488C1054.25 5.96578 1047.28 13.3892 1047.28 22.3633V26.2998C1047.28 26.2998 1048.28 37.629 1048.28 45.4004C1048.28 53.1714 1046.28 55.2002 1047.28 66.0996C1047.29 66.2483 1047.31 66.397 1047.32 66.5449C1048.21 76.8099 1056.45 85.7679 1066.75 85.5303C1081.32 85.1938 1099.93 84.7998 1107.17 84.7998C1139.6 84.7998 1130.24 86 1162.67 86H1184Z" fill="#D9D9D9"/>
  <path d="M1184 86C1193.39 86 1201.21 78.356 1200.15 69.0273C1200.1 68.6113 1200.05 68.2011 1200 67.7998C1199 60.2 1201 53.9715 1201 46.2002V23.4014C1201 14.0125 1193.39 6.40039 1184 6.40039H1171.05C1146.89 6.40039 1133.73 4.00001 1109.57 4C1095.41 4 1076.47 4.82273 1063.21 5.50488C1054.25 5.96578 1047.28 13.3892 1047.28 22.3633V26.2998C1047.28 26.2998 1048.28 37.629 1048.28 45.4004C1048.28 53.1714 1046.28 55.2002 1047.28 66.0996C1047.29 66.2483 1047.31 66.397 1047.32 66.5449C1048.21 76.8099 1056.45 85.7679 1066.75 85.5303C1081.32 85.1938 1099.93 84.7998 1107.17 84.7998C1139.6 84.7998 1130.24 86 1162.67 86H1184Z" stroke="#CAC9C9"/>
  <path d="M1237.4 84C1269.89 84 1291.31 82.3916 1323.8 82.3916C1329.13 82.3916 1335.12 82.5953 1340.63 82.8574C1350.54 83.329 1359 75.5131 1359 65.5928V64C1359 56.1895 1357.4 51.4081 1357.4 43.5977C1357.4 35.7874 1359 31.8104 1359 24V21.001C1359 11.6121 1351.39 4 1342 4H1329C1304.79 4 1291.01 5.80859 1266.8 5.80859C1249.62 5.80859 1225.71 4.89822 1213.26 4.36914C1208.95 4.18612 1205.52 7.93775 1206.09 12.2148C1206.16 12.7662 1206.17 13.325 1206.11 13.8779L1205 24C1205 24 1205 36.1895 1205 44C1205 51.8105 1206.2 56.2901 1206.2 64.1006C1206.2 64.4804 1206.2 64.8704 1206.19 65.2686C1206.06 75.3201 1213.72 83.9998 1223.77 84H1237.4Z" fill="#D9D9D9"/>
  <path d="M1237.4 84C1269.89 84 1291.31 82.3916 1323.8 82.3916C1329.13 82.3916 1335.12 82.5953 1340.63 82.8574C1350.54 83.329 1359 75.5131 1359 65.5928V64C1359 56.1895 1357.4 51.4081 1357.4 43.5977C1357.4 35.7874 1359 31.8104 1359 24V21.001C1359 11.6121 1351.39 4 1342 4H1329C1304.79 4 1291.01 5.80859 1266.8 5.80859C1249.62 5.80859 1225.71 4.89822 1213.26 4.36914C1208.95 4.18612 1205.52 7.93775 1206.09 12.2148C1206.16 12.7662 1206.17 13.325 1206.11 13.8779L1205 24C1205 24 1205 36.1895 1205 44C1205 51.8105 1206.2 56.2901 1206.2 64.1006C1206.2 64.4804 1206.2 64.8704 1206.19 65.2686C1206.06 75.3201 1213.72 83.9998 1223.77 84H1237.4Z" stroke="#CAC9C9"/>
  <path d="M224.1 89.3018C256.591 89.3018 262.078 88.1633 294.5 90.3066C302.759 90.8526 317.395 90.8055 329.04 90.6484C338.61 90.5193 346.5 98.2087 346.5 107.779V110.302C346.5 118.11 344.1 121.655 345.3 130.296C346.5 138.937 346.5 142.483 346.5 150.291V153.285C346.5 162.674 338.89 170.285 329.501 170.285H316.5C307.7 170.285 281.1 168.678 254.5 170.285C240.38 171.138 223.781 171.086 211.312 170.849C201.243 170.657 194.068 161.624 194.286 151.556C194.295 151.124 194.3 150.702 194.3 150.291C194.3 142.451 192.5 138.104 192.5 130.296V106.43C192.5 97.3907 199.574 89.9252 208.607 89.6182C213.773 89.4426 219.375 89.3018 224.1 89.3018Z" fill="#D9D9D9"/>
  <path d="M224.1 89.3018C256.591 89.3018 262.078 88.1633 294.5 90.3066C302.759 90.8526 317.395 90.8055 329.04 90.6484C338.61 90.5193 346.5 98.2087 346.5 107.779V110.302C346.5 118.11 344.1 121.655 345.3 130.296C346.5 138.937 346.5 142.483 346.5 150.291V153.285C346.5 162.674 338.89 170.285 329.501 170.285H316.5C307.7 170.285 281.1 168.678 254.5 170.285C240.38 171.138 223.781 171.086 211.312 170.849C201.243 170.657 194.068 161.624 194.286 151.556C194.295 151.124 194.3 150.702 194.3 150.291C194.3 142.451 192.5 138.104 192.5 130.296V106.43C192.5 97.3907 199.574 89.9252 208.607 89.6182C213.773 89.4426 219.375 89.3018 224.1 89.3018Z" stroke="#CAC9C9"/>
  <path d="M488.503 89C497.892 89.0001 505.713 96.6447 504.646 105.973C504.599 106.389 504.548 106.799 504.495 107.2C503.491 114.8 505.5 121.029 505.5 128.8V151.599C505.5 160.987 497.89 168.6 488.501 168.6H475.36C451.035 168.6 437.798 171 413.473 171C399.192 171 380.073 170.173 366.718 169.49C357.753 169.032 350.781 161.606 350.781 152.63V148.7C350.781 148.7 351.786 137.371 351.786 129.6C351.786 121.829 349.777 119.8 350.781 108.9C350.795 108.755 350.808 108.61 350.82 108.466C351.721 98.1975 359.955 89.2302 370.26 89.4668C384.944 89.8039 403.757 90.2002 411.062 90.2002C443.705 90.2002 434.278 89 466.921 89H488.503Z" fill="#D9D9D9"/>
  <path d="M488.503 89C497.892 89.0001 505.713 96.6447 504.646 105.973C504.599 106.389 504.548 106.799 504.495 107.2C503.491 114.8 505.5 121.029 505.5 128.8V151.599C505.5 160.987 497.89 168.6 488.501 168.6H475.36C451.035 168.6 437.798 171 413.473 171C399.192 171 380.073 170.173 366.718 169.49C357.753 169.032 350.781 161.606 350.781 152.63V148.7C350.781 148.7 351.786 137.371 351.786 129.6C351.786 121.829 349.777 119.8 350.781 108.9C350.795 108.755 350.808 108.61 350.82 108.466C351.721 98.1975 359.955 89.2302 370.26 89.4668C384.944 89.8039 403.757 90.2002 411.062 90.2002C443.705 90.2002 434.278 89 466.921 89H488.503Z" stroke="#CAC9C9"/>
  <path d="M542.11 89C574.813 89 596.369 90.6084 629.071 90.6084C634.48 90.6084 640.563 90.4017 646.142 90.1367C656.047 89.6663 664.5 97.4814 664.5 107.398V109C664.5 116.81 662.89 121.592 662.89 129.402C662.89 137.213 664.5 141.19 664.5 149V151.999C664.5 161.388 656.89 169 647.501 169H634.306C609.936 169 596.071 167.191 571.701 167.191C554.384 167.191 530.27 168.104 517.763 168.633C513.454 168.815 510.026 165.063 510.597 160.789C510.671 160.235 510.676 159.674 510.615 159.118L509.5 149C509.5 149 509.5 136.81 509.5 129C509.5 121.19 510.708 116.71 510.708 108.899C510.708 108.523 510.705 108.137 510.699 107.743C510.563 97.6871 518.225 89 528.282 89H542.11Z" fill="#D9D9D9"/>
  <path d="M542.11 89C574.813 89 596.369 90.6084 629.071 90.6084C634.48 90.6084 640.563 90.4017 646.142 90.1367C656.047 89.6663 664.5 97.4814 664.5 107.398V109C664.5 116.81 662.89 121.592 662.89 129.402C662.89 137.213 664.5 141.19 664.5 149V151.999C664.5 161.388 656.89 169 647.501 169H634.306C609.936 169 596.071 167.191 571.701 167.191C554.384 167.191 530.27 168.104 517.763 168.633C513.454 168.815 510.026 165.063 510.597 160.789C510.671 160.235 510.676 159.674 510.615 159.118L509.5 149C509.5 149 509.5 136.81 509.5 129C509.5 121.19 510.708 116.71 510.708 108.899C510.708 108.523 510.705 108.137 510.699 107.743C510.563 97.6871 518.225 89 528.282 89H542.11Z" stroke="#CAC9C9"/>
  <path d="M702.3 89.6084C733.706 88.2407 782.175 89.6049 782.3 89.6084H804.857C814.493 89.6084 822.21 97.6022 821.976 107.235C821.683 119.248 821.427 135.121 821.7 147.3C821.742 149.163 821.803 151.251 821.873 153.38C822.169 162.35 815.548 170.113 806.588 170.633C801.592 170.923 796.25 171.102 791.9 170.938C769.297 170.083 738.324 168.719 711.9 168.533C702.512 168.467 693.598 168.587 686.318 168.752C676.615 168.972 668.5 161.222 668.5 151.516V107.129C668.5 97.5399 676.426 89.851 686.015 89.874C691.421 89.887 697.272 89.8273 702.3 89.6084Z" fill="#D9D9D9"/>
  <path d="M702.3 89.6084C733.706 88.2407 782.175 89.6049 782.3 89.6084H804.857C814.493 89.6084 822.21 97.6022 821.976 107.235C821.683 119.248 821.427 135.121 821.7 147.3C821.742 149.163 821.803 151.251 821.873 153.38C822.169 162.35 815.548 170.113 806.588 170.633C801.592 170.923 796.25 171.102 791.9 170.938C769.297 170.083 738.324 168.719 711.9 168.533C702.512 168.467 693.598 168.587 686.318 168.752C676.615 168.972 668.5 161.222 668.5 151.516V107.129C668.5 97.5399 676.426 89.851 686.015 89.874C691.421 89.887 697.272 89.8273 702.3 89.6084Z" stroke="#CAC9C9"/>
  <path d="M858.306 170.698C891.008 170.698 896.53 171.837 929.162 169.693C937.502 169.146 952.305 169.195 964.044 169.354C973.612 169.482 981.5 161.793 981.5 152.224V149.698C981.5 141.89 979.084 138.345 980.292 129.704C981.5 121.063 981.5 117.517 981.5 109.709V106.715C981.5 97.3262 973.89 89.7149 964.501 89.7148H951.306C942.449 89.7148 915.675 91.3224 888.902 89.7148C874.653 88.8593 857.895 88.9136 845.335 89.1523C835.258 89.3442 828.082 98.3899 828.298 108.467C828.307 108.891 828.312 109.306 828.312 109.709C828.312 117.549 826.5 121.896 826.5 129.704V153.564C826.5 162.606 833.577 170.073 842.613 170.379C847.84 170.556 853.52 170.698 858.306 170.698Z" fill="#D9D9D9"/>
  <path d="M858.306 170.698C891.008 170.698 896.53 171.837 929.162 169.693C937.502 169.146 952.305 169.195 964.044 169.354C973.612 169.482 981.5 161.793 981.5 152.224V149.698C981.5 141.89 979.084 138.345 980.292 129.704C981.5 121.063 981.5 117.517 981.5 109.709V106.715C981.5 97.3262 973.89 89.7149 964.501 89.7148H951.306C942.449 89.7148 915.675 91.3224 888.902 89.7148C874.653 88.8593 857.895 88.9136 845.335 89.1523C835.258 89.3442 828.082 98.3899 828.298 108.467C828.307 108.891 828.312 109.306 828.312 109.709C828.312 117.549 826.5 121.896 826.5 129.704V153.564C826.5 162.606 833.577 170.073 842.613 170.379C847.84 170.556 853.52 170.698 858.306 170.698Z" stroke="#CAC9C9"/>
  <path d="M1122.5 171C1131.89 171 1139.71 163.356 1138.65 154.027C1138.6 153.611 1138.55 153.201 1138.5 152.8C1137.5 145.2 1139.5 138.971 1139.5 131.2V108.401C1139.5 99.0125 1131.89 91.4004 1122.5 91.4004H1109.55C1085.39 91.4004 1072.23 89 1048.07 89C1033.91 89 1014.97 89.8227 1001.71 90.5049C992.747 90.9658 985.779 98.3892 985.779 107.363V111.3C985.779 111.3 986.777 122.629 986.777 130.4C986.777 138.171 984.781 140.2 985.779 151.1C985.793 151.248 985.806 151.397 985.819 151.545C986.713 161.81 994.946 170.768 1005.25 170.53C1019.82 170.194 1038.43 169.8 1045.67 169.8C1078.1 169.8 1068.74 171 1101.17 171H1122.5Z" fill="#D9D9D9"/>
  <path d="M1122.5 171C1131.89 171 1139.71 163.356 1138.65 154.027C1138.6 153.611 1138.55 153.201 1138.5 152.8C1137.5 145.2 1139.5 138.971 1139.5 131.2V108.401C1139.5 99.0125 1131.89 91.4004 1122.5 91.4004H1109.55C1085.39 91.4004 1072.23 89 1048.07 89C1033.91 89 1014.97 89.8227 1001.71 90.5049C992.747 90.9658 985.779 98.3892 985.779 107.363V111.3C985.779 111.3 986.777 122.629 986.777 130.4C986.777 138.171 984.781 140.2 985.779 151.1C985.793 151.248 985.806 151.397 985.819 151.545C986.713 161.81 994.946 170.768 1005.25 170.53C1019.82 170.194 1038.43 169.8 1045.67 169.8C1078.1 169.8 1068.74 171 1101.17 171H1122.5Z" stroke="#CAC9C9"/>
  <path d="M1175.9 169C1208.39 169 1229.81 167.392 1262.3 167.392C1267.63 167.392 1273.62 167.595 1279.13 167.857C1289.04 168.329 1297.5 160.513 1297.5 150.593V149C1297.5 141.19 1295.9 136.408 1295.9 128.598C1295.9 120.787 1297.5 116.81 1297.5 109V106.001C1297.5 96.6121 1289.89 89 1280.5 89H1267.5C1243.29 89 1229.51 90.8086 1205.3 90.8086C1188.12 90.8086 1164.21 89.8982 1151.76 89.3691C1147.45 89.1861 1144.02 92.9377 1144.59 97.2148C1144.66 97.7662 1144.67 98.325 1144.61 98.8779L1143.5 109C1143.5 109 1143.5 121.19 1143.5 129C1143.5 136.81 1144.7 141.29 1144.7 149.101C1144.7 149.48 1144.7 149.87 1144.69 150.269C1144.56 160.32 1152.22 169 1162.27 169H1175.9Z" fill="#D9D9D9"/>
  <path d="M1175.9 169C1208.39 169 1229.81 167.392 1262.3 167.392C1267.63 167.392 1273.62 167.595 1279.13 167.857C1289.04 168.329 1297.5 160.513 1297.5 150.593V149C1297.5 141.19 1295.9 136.408 1295.9 128.598C1295.9 120.787 1297.5 116.81 1297.5 109V106.001C1297.5 96.6121 1289.89 89 1280.5 89H1267.5C1243.29 89 1229.51 90.8086 1205.3 90.8086C1188.12 90.8086 1164.21 89.8982 1151.76 89.3691C1147.45 89.1861 1144.02 92.9377 1144.59 97.2148C1144.66 97.7662 1144.67 98.325 1144.61 98.8779L1143.5 109C1143.5 109 1143.5 121.19 1143.5 129C1143.5 136.81 1144.7 141.29 1144.7 149.101C1144.7 149.48 1144.7 149.87 1144.69 150.269C1144.56 160.32 1152.22 169 1162.27 169H1175.9Z" stroke="#CAC9C9"/>
  <path d="M1335.3 170.392C1366.71 171.759 1415.17 170.395 1415.3 170.392H1437.86C1447.49 170.392 1455.21 162.398 1454.98 152.765C1454.68 140.752 1454.43 124.879 1454.7 112.7C1454.74 110.837 1454.8 108.749 1454.87 106.62C1455.17 97.6496 1448.55 89.8872 1439.59 89.3672C1434.59 89.0773 1429.25 88.8981 1424.9 89.0625C1402.3 89.9169 1371.32 91.2805 1344.9 91.4668C1335.51 91.533 1326.6 91.4133 1319.32 91.248C1309.61 91.0277 1301.5 98.7783 1301.5 108.484V152.871C1301.5 162.46 1309.43 170.149 1319.01 170.126C1324.42 170.113 1330.27 170.173 1335.3 170.392Z" fill="#D9D9D9"/>
  <path d="M1335.3 170.392C1366.71 171.759 1415.17 170.395 1415.3 170.392H1437.86C1447.49 170.392 1455.21 162.398 1454.98 152.765C1454.68 140.752 1454.43 124.879 1454.7 112.7C1454.74 110.837 1454.8 108.749 1454.87 106.62C1455.17 97.6496 1448.55 89.8872 1439.59 89.3672C1434.59 89.0773 1429.25 88.8981 1424.9 89.0625C1402.3 89.9169 1371.32 91.2805 1344.9 91.4668C1335.51 91.533 1326.6 91.4133 1319.32 91.248C1309.61 91.0277 1301.5 98.7783 1301.5 108.484V152.871C1301.5 162.46 1309.43 170.149 1319.01 170.126C1324.42 170.113 1330.27 170.173 1335.3 170.392Z" stroke="#CAC9C9"/>
  <path d="M216.2 174.608C184.794 173.241 136.325 174.605 136.2 174.608H113.643C104.007 174.608 96.2896 182.602 96.5244 192.235C96.8172 204.248 97.0729 220.121 96.7998 232.3C96.758 234.163 96.6971 236.251 96.627 238.38C96.3313 247.35 102.952 255.113 111.912 255.633C116.908 255.923 122.25 256.102 126.6 255.938C149.203 255.083 180.176 253.719 206.6 253.533C215.988 253.467 224.902 253.587 232.182 253.752C241.885 253.972 250 246.222 250 236.516V192.129C250 182.54 242.074 174.851 232.485 174.874C227.079 174.887 221.228 174.827 216.2 174.608Z" fill="#D9D9D9"/>
  <path d="M216.2 174.608C184.794 173.241 136.325 174.605 136.2 174.608H113.643C104.007 174.608 96.2896 182.602 96.5244 192.235C96.8172 204.248 97.0729 220.121 96.7998 232.3C96.758 234.163 96.6971 236.251 96.627 238.38C96.3313 247.35 102.952 255.113 111.912 255.633C116.908 255.923 122.25 256.102 126.6 255.938C149.203 255.083 180.176 253.719 206.6 253.533C215.988 253.467 224.902 253.587 232.182 253.752C241.885 253.972 250 246.222 250 236.516V192.129C250 182.54 242.074 174.851 232.485 174.874C227.079 174.887 221.228 174.827 216.2 174.608Z" stroke="#CAC9C9"/>
  <path d="M376.4 174.302C343.909 174.302 338.422 173.163 306 175.307C297.741 175.853 283.105 175.806 271.46 175.648C261.89 175.519 254 183.209 254 192.779V195.302C254 203.11 256.4 206.655 255.2 215.296C254 223.937 254 227.483 254 235.291V238.285C254 247.674 261.61 255.285 270.999 255.285H284C292.8 255.285 319.4 253.678 346 255.285C360.12 256.138 376.719 256.086 389.188 255.849C399.257 255.657 406.432 246.624 406.214 236.556C406.205 236.124 406.2 235.702 406.2 235.291C406.2 227.451 408 223.104 408 215.296V191.43C408 182.391 400.926 174.925 391.893 174.618C386.727 174.443 381.125 174.302 376.4 174.302Z" fill="#D9D9D9"/>
  <path d="M376.4 174.302C343.909 174.302 338.422 173.163 306 175.307C297.741 175.853 283.105 175.806 271.46 175.648C261.89 175.519 254 183.209 254 192.779V195.302C254 203.11 256.4 206.655 255.2 215.296C254 223.937 254 227.483 254 235.291V238.285C254 247.674 261.61 255.285 270.999 255.285H284C292.8 255.285 319.4 253.678 346 255.285C360.12 256.138 376.719 256.086 389.188 255.849C399.257 255.657 406.432 246.624 406.214 236.556C406.205 236.124 406.2 235.702 406.2 235.291C406.2 227.451 408 223.104 408 215.296V191.43C408 182.391 400.926 174.925 391.893 174.618C386.727 174.443 381.125 174.302 376.4 174.302Z" stroke="#CAC9C9"/>
  <path d="M428.997 174C419.608 174 411.787 181.645 412.854 190.973C412.901 191.389 412.952 191.799 413.005 192.2C414.009 199.8 412 206.029 412 213.8V236.599C412 245.987 419.61 253.6 428.999 253.6H442.14C466.465 253.6 479.702 256 504.027 256C518.308 256 537.427 255.173 550.782 254.49C559.747 254.032 566.719 246.606 566.719 237.63V233.7C566.719 233.7 565.714 222.371 565.714 214.6C565.714 206.829 567.723 204.8 566.719 193.9C566.705 193.755 566.692 193.61 566.68 193.466C565.779 183.198 557.545 174.23 547.24 174.467C532.556 174.804 513.743 175.2 506.438 175.2C473.795 175.2 483.222 174 450.579 174H428.997Z" fill="#D9D9D9"/>
  <path d="M428.997 174C419.608 174 411.787 181.645 412.854 190.973C412.901 191.389 412.952 191.799 413.005 192.2C414.009 199.8 412 206.029 412 213.8V236.599C412 245.987 419.61 253.6 428.999 253.6H442.14C466.465 253.6 479.702 256 504.027 256C518.308 256 537.427 255.173 550.782 254.49C559.747 254.032 566.719 246.606 566.719 237.63V233.7C566.719 233.7 565.714 222.371 565.714 214.6C565.714 206.829 567.723 204.8 566.719 193.9C566.705 193.755 566.692 193.61 566.68 193.466C565.779 183.198 557.545 174.23 547.24 174.467C532.556 174.804 513.743 175.2 506.438 175.2C473.795 175.2 483.222 174 450.579 174H428.997Z" stroke="#CAC9C9"/>
  <path d="M692.6 174C660.108 174 638.692 175.608 606.2 175.608C600.867 175.608 594.875 175.405 589.368 175.143C579.459 174.671 571 182.487 571 192.407V194C571 201.81 572.6 206.592 572.6 214.402C572.6 222.213 571 226.19 571 234V236.999C571 246.388 578.61 254 587.999 254H601C625.213 254 638.988 252.191 663.2 252.191C680.38 252.191 704.293 253.102 716.735 253.631C721.046 253.814 724.477 250.062 723.91 245.785C723.837 245.234 723.831 244.675 723.892 244.122L725 234C725 234 725 221.81 725 214C725 206.19 723.8 201.71 723.8 193.899C723.8 193.52 723.803 193.13 723.809 192.731C723.945 182.68 716.283 174 706.23 174H692.6Z" fill="#D9D9D9"/>
  <path d="M692.6 174C660.108 174 638.692 175.608 606.2 175.608C600.867 175.608 594.875 175.405 589.368 175.143C579.459 174.671 571 182.487 571 192.407V194C571 201.81 572.6 206.592 572.6 214.402C572.6 222.213 571 226.19 571 234V236.999C571 246.388 578.61 254 587.999 254H601C625.213 254 638.988 252.191 663.2 252.191C680.38 252.191 704.293 253.102 716.735 253.631C721.046 253.814 724.477 250.062 723.91 245.785C723.837 245.234 723.831 244.675 723.892 244.122L725 234C725 234 725 221.81 725 214C725 206.19 723.8 201.71 723.8 193.899C723.8 193.52 723.803 193.13 723.809 192.731C723.945 182.68 716.283 174 706.23 174H692.6Z" stroke="#CAC9C9"/>
  <path d="M849.2 255.392C817.794 256.759 769.325 255.395 769.2 255.392H746.643C737.007 255.392 729.29 247.398 729.524 237.765C729.817 225.752 730.073 209.879 729.8 197.7C729.758 195.837 729.697 193.749 729.627 191.62C729.331 182.65 735.952 174.887 744.912 174.367C749.908 174.077 755.25 173.898 759.6 174.062C782.203 174.917 813.176 176.281 839.6 176.467C848.988 176.533 857.902 176.413 865.182 176.248C874.885 176.028 883 183.778 883 193.484V237.871C883 247.46 875.074 255.149 865.485 255.126C860.079 255.113 854.228 255.173 849.2 255.392Z" fill="#D9D9D9"/>
  <path d="M849.2 255.392C817.794 256.759 769.325 255.395 769.2 255.392H746.643C737.007 255.392 729.29 247.398 729.524 237.765C729.817 225.752 730.073 209.879 729.8 197.7C729.758 195.837 729.697 193.749 729.627 191.62C729.331 182.65 735.952 174.887 744.912 174.367C749.908 174.077 755.25 173.898 759.6 174.062C782.203 174.917 813.176 176.281 839.6 176.467C848.988 176.533 857.902 176.413 865.182 176.248C874.885 176.028 883 183.778 883 193.484V237.871C883 247.46 875.074 255.149 865.485 255.126C860.079 255.113 854.228 255.173 849.2 255.392Z" stroke="#CAC9C9"/>
  <path d="M1010.19 255.698C977.492 255.698 971.97 256.837 939.338 254.693C930.998 254.146 916.195 254.195 904.456 254.354C894.888 254.482 887 246.793 887 237.224V234.698C887 226.89 889.416 223.345 888.208 214.704C887 206.063 887 202.517 887 194.709V191.715C887 182.326 894.61 174.715 903.999 174.715H917.194C926.051 174.715 952.825 176.322 979.598 174.715C993.847 173.859 1010.61 173.914 1023.17 174.152C1033.24 174.344 1040.42 183.39 1040.2 193.467C1040.19 193.891 1040.19 194.306 1040.19 194.709C1040.19 202.549 1042 206.896 1042 214.704V238.564C1042 247.606 1034.92 255.073 1025.89 255.379C1020.66 255.556 1014.98 255.698 1010.19 255.698Z" fill="#D9D9D9"/>
  <path d="M1010.19 255.698C977.492 255.698 971.97 256.837 939.338 254.693C930.998 254.146 916.195 254.195 904.456 254.354C894.888 254.482 887 246.793 887 237.224V234.698C887 226.89 889.416 223.345 888.208 214.704C887 206.063 887 202.517 887 194.709V191.715C887 182.326 894.61 174.715 903.999 174.715H917.194C926.051 174.715 952.825 176.322 979.598 174.715C993.847 173.859 1010.61 173.914 1023.17 174.152C1033.24 174.344 1040.42 183.39 1040.2 193.467C1040.19 193.891 1040.19 194.306 1040.19 194.709C1040.19 202.549 1042 206.896 1042 214.704V238.564C1042 247.606 1034.92 255.073 1025.89 255.379C1020.66 255.556 1014.98 255.698 1010.19 255.698Z" stroke="#CAC9C9"/>
  <path d="M1063 256C1053.61 256 1045.79 248.356 1046.85 239.027C1046.9 238.611 1046.95 238.201 1047 237.8C1048 230.2 1046 223.971 1046 216.2V193.401C1046 184.013 1053.61 176.4 1063 176.4H1075.95C1100.11 176.4 1113.27 174 1137.43 174C1151.59 174 1170.53 174.823 1183.79 175.505C1192.75 175.966 1199.72 183.389 1199.72 192.363V196.3C1199.72 196.3 1198.72 207.629 1198.72 215.4C1198.72 223.171 1200.72 225.2 1199.72 236.1C1199.71 236.248 1199.69 236.397 1199.68 236.545C1198.79 246.81 1190.55 255.768 1180.25 255.53C1165.68 255.194 1147.07 254.8 1139.83 254.8C1107.4 254.8 1116.76 256 1084.33 256H1063Z" fill="#D9D9D9"/>
  <path d="M1063 256C1053.61 256 1045.79 248.356 1046.85 239.027C1046.9 238.611 1046.95 238.201 1047 237.8C1048 230.2 1046 223.971 1046 216.2V193.401C1046 184.013 1053.61 176.4 1063 176.4H1075.95C1100.11 176.4 1113.27 174 1137.43 174C1151.59 174 1170.53 174.823 1183.79 175.505C1192.75 175.966 1199.72 183.389 1199.72 192.363V196.3C1199.72 196.3 1198.72 207.629 1198.72 215.4C1198.72 223.171 1200.72 225.2 1199.72 236.1C1199.71 236.248 1199.69 236.397 1199.68 236.545C1198.79 246.81 1190.55 255.768 1180.25 255.53C1165.68 255.194 1147.07 254.8 1139.83 254.8C1107.4 254.8 1116.76 256 1084.33 256H1063Z" stroke="#CAC9C9"/>
  <path d="M1325.6 254C1293.11 254 1271.69 252.392 1239.2 252.392C1233.87 252.392 1227.88 252.595 1222.37 252.857C1212.46 253.329 1204 245.513 1204 235.593V234C1204 226.19 1205.6 221.408 1205.6 213.598C1205.6 205.787 1204 201.81 1204 194V191.001C1204 181.612 1211.61 174 1221 174H1234C1258.21 174 1271.99 175.809 1296.2 175.809C1313.38 175.809 1337.29 174.898 1349.74 174.369C1354.05 174.186 1357.48 177.938 1356.91 182.215C1356.84 182.766 1356.83 183.325 1356.89 183.878L1358 194C1358 194 1358 206.19 1358 214C1358 221.81 1356.8 226.29 1356.8 234.101C1356.8 234.48 1356.8 234.87 1356.81 235.269C1356.94 245.32 1349.28 254 1339.23 254H1325.6Z" fill="#D9D9D9"/>
  <path d="M1325.6 254C1293.11 254 1271.69 252.392 1239.2 252.392C1233.87 252.392 1227.88 252.595 1222.37 252.857C1212.46 253.329 1204 245.513 1204 235.593V234C1204 226.19 1205.6 221.408 1205.6 213.598C1205.6 205.787 1204 201.81 1204 194V191.001C1204 181.612 1211.61 174 1221 174H1234C1258.21 174 1271.99 175.809 1296.2 175.809C1313.38 175.809 1337.29 174.898 1349.74 174.369C1354.05 174.186 1357.48 177.938 1356.91 182.215C1356.84 182.766 1356.83 183.325 1356.89 183.878L1358 194C1358 194 1358 206.19 1358 214C1358 221.81 1356.8 226.29 1356.8 234.101C1356.8 234.48 1356.8 234.87 1356.81 235.269C1356.94 245.32 1349.28 254 1339.23 254H1325.6Z" stroke="#CAC9C9"/>
  <path d="M314.9 259.302C282.409 259.302 276.922 258.163 244.5 260.307C236.241 260.853 221.605 260.806 209.96 260.648C200.39 260.519 192.5 268.209 192.5 277.779V280.302C192.5 288.11 194.9 291.655 193.7 300.296C192.5 308.937 192.5 312.483 192.5 320.291V323.285C192.5 332.674 200.11 340.285 209.499 340.285H222.5C231.3 340.285 257.9 338.678 284.5 340.285C298.62 341.138 315.219 341.086 327.688 340.849C337.757 340.657 344.932 331.624 344.714 321.556C344.705 321.124 344.7 320.702 344.7 320.291C344.7 312.451 346.5 308.104 346.5 300.296V276.43C346.5 267.391 339.426 259.925 330.393 259.618C325.227 259.443 319.625 259.302 314.9 259.302Z" fill="#D9D9D9"/>
  <path d="M314.9 259.302C282.409 259.302 276.922 258.163 244.5 260.307C236.241 260.853 221.605 260.806 209.96 260.648C200.39 260.519 192.5 268.209 192.5 277.779V280.302C192.5 288.11 194.9 291.655 193.7 300.296C192.5 308.937 192.5 312.483 192.5 320.291V323.285C192.5 332.674 200.11 340.285 209.499 340.285H222.5C231.3 340.285 257.9 338.678 284.5 340.285C298.62 341.138 315.219 341.086 327.688 340.849C337.757 340.657 344.932 331.624 344.714 321.556C344.705 321.124 344.7 320.702 344.7 320.291C344.7 312.451 346.5 308.104 346.5 300.296V276.43C346.5 267.391 339.426 259.925 330.393 259.618C325.227 259.443 319.625 259.302 314.9 259.302Z" stroke="#CAC9C9"/>
  <path d="M367.497 259C358.108 259 350.289 266.644 351.349 275.973C351.396 276.389 351.445 276.799 351.498 277.2C352.496 284.8 350.5 291.029 350.5 298.8V321.599C350.5 330.987 358.11 338.6 367.499 338.6H380.445C404.614 338.6 417.765 341 441.934 341C456.088 341 475.027 340.177 488.291 339.495C497.253 339.034 504.221 331.611 504.221 322.637V318.7C504.221 318.7 503.223 307.371 503.223 299.6C503.223 291.829 505.219 289.8 504.221 278.9C504.207 278.752 504.194 278.603 504.181 278.455C503.287 268.19 495.054 259.232 484.753 259.47C470.181 259.806 451.567 260.2 444.329 260.2C411.897 260.2 421.263 259 388.83 259H367.497Z" fill="#D9D9D9"/>
  <path d="M367.497 259C358.108 259 350.289 266.644 351.349 275.973C351.396 276.389 351.445 276.799 351.498 277.2C352.496 284.8 350.5 291.029 350.5 298.8V321.599C350.5 330.987 358.11 338.6 367.499 338.6H380.445C404.614 338.6 417.765 341 441.934 341C456.088 341 475.027 340.177 488.291 339.495C497.253 339.034 504.221 331.611 504.221 322.637V318.7C504.221 318.7 503.223 307.371 503.223 299.6C503.223 291.829 505.219 289.8 504.221 278.9C504.207 278.752 504.194 278.603 504.181 278.455C503.287 268.19 495.054 259.232 484.753 259.47C470.181 259.806 451.567 260.2 444.329 260.2C411.897 260.2 421.263 259 388.83 259H367.497Z" stroke="#CAC9C9"/>
  <path d="M630.89 259C598.187 259 576.631 260.608 543.929 260.608C538.52 260.608 532.437 260.402 526.858 260.137C516.953 259.666 508.5 267.481 508.5 277.398V279C508.5 286.81 510.11 291.592 510.11 299.402C510.11 307.213 508.5 311.19 508.5 319V321.999C508.5 331.388 516.11 339 525.499 339H538.694C563.064 339 576.929 337.191 601.299 337.191C618.616 337.191 642.73 338.104 655.237 338.633C659.546 338.815 662.974 335.063 662.403 330.789C662.329 330.235 662.324 329.674 662.385 329.118L663.5 319C663.5 319 663.5 306.81 663.5 299C663.5 291.19 662.292 286.71 662.292 278.899C662.292 278.523 662.295 278.137 662.301 277.743C662.437 267.687 654.775 259 644.718 259H630.89Z" fill="#D9D9D9"/>
  <path d="M630.89 259C598.187 259 576.631 260.608 543.929 260.608C538.52 260.608 532.437 260.402 526.858 260.137C516.953 259.666 508.5 267.481 508.5 277.398V279C508.5 286.81 510.11 291.592 510.11 299.402C510.11 307.213 508.5 311.19 508.5 319V321.999C508.5 331.388 516.11 339 525.499 339H538.694C563.064 339 576.929 337.191 601.299 337.191C618.616 337.191 642.73 338.104 655.237 338.633C659.546 338.815 662.974 335.063 662.403 330.789C662.329 330.235 662.324 329.674 662.385 329.118L663.5 319C663.5 319 663.5 306.81 663.5 299C663.5 291.19 662.292 286.71 662.292 278.899C662.292 278.523 662.295 278.137 662.301 277.743C662.437 267.687 654.775 259 644.718 259H630.89Z" stroke="#CAC9C9"/>
  <path d="M787.7 259.608C756.294 258.241 707.825 259.605 707.7 259.608H685.143C675.507 259.608 667.79 267.602 668.024 277.235C668.317 289.248 668.573 305.121 668.3 317.3C668.258 319.163 668.197 321.251 668.127 323.38C667.831 332.35 674.452 340.113 683.412 340.633C688.408 340.923 693.75 341.102 698.1 340.938C720.703 340.083 751.676 338.719 778.1 338.533C787.488 338.467 796.402 338.587 803.682 338.752C813.385 338.972 821.5 331.222 821.5 321.516V277.129C821.5 267.54 813.574 259.851 803.985 259.874C798.579 259.887 792.728 259.827 787.7 259.608Z" fill="#D9D9D9"/>
  <path d="M787.7 259.608C756.294 258.241 707.825 259.605 707.7 259.608H685.143C675.507 259.608 667.79 267.602 668.024 277.235C668.317 289.248 668.573 305.121 668.3 317.3C668.258 319.163 668.197 321.251 668.127 323.38C667.831 332.35 674.452 340.113 683.412 340.633C688.408 340.923 693.75 341.102 698.1 340.938C720.703 340.083 751.676 338.719 778.1 338.533C787.488 338.467 796.402 338.587 803.682 338.752C813.385 338.972 821.5 331.222 821.5 321.516V277.129C821.5 267.54 813.574 259.851 803.985 259.874C798.579 259.887 792.728 259.827 787.7 259.608Z" stroke="#CAC9C9"/>
  <path d="M947.9 340.698C915.409 340.698 909.922 341.837 877.5 339.693C869.241 339.147 854.605 339.194 842.96 339.352C833.39 339.481 825.5 331.791 825.5 322.221V319.698C825.5 311.89 827.9 308.345 826.7 299.704C825.5 291.063 825.5 287.517 825.5 279.709V276.715C825.5 267.326 833.11 259.715 842.499 259.715H855.5C864.3 259.715 890.9 261.322 917.5 259.715C931.62 258.862 948.219 258.914 960.688 259.151C970.757 259.343 977.932 268.376 977.714 278.444C977.705 278.876 977.7 279.298 977.7 279.709C977.7 287.549 979.5 291.896 979.5 299.704V323.57C979.5 332.609 972.426 340.075 963.393 340.382C958.227 340.557 952.625 340.698 947.9 340.698Z" fill="#D9D9D9"/>
  <path d="M947.9 340.698C915.409 340.698 909.922 341.837 877.5 339.693C869.241 339.147 854.605 339.194 842.96 339.352C833.39 339.481 825.5 331.791 825.5 322.221V319.698C825.5 311.89 827.9 308.345 826.7 299.704C825.5 291.063 825.5 287.517 825.5 279.709V276.715C825.5 267.326 833.11 259.715 842.499 259.715H855.5C864.3 259.715 890.9 261.322 917.5 259.715C931.62 258.862 948.219 258.914 960.688 259.151C970.757 259.343 977.932 268.376 977.714 278.444C977.705 278.876 977.7 279.298 977.7 279.709C977.7 287.549 979.5 291.896 979.5 299.704V323.57C979.5 332.609 972.426 340.075 963.393 340.382C958.227 340.557 952.625 340.698 947.9 340.698Z" stroke="#CAC9C9"/>
  <path d="M1000.5 341C991.108 341 983.289 333.356 984.349 324.027C984.396 323.611 984.445 323.201 984.498 322.8C985.496 315.2 983.5 308.971 983.5 301.2V278.401C983.5 269.013 991.11 261.4 1000.5 261.4H1013.45C1037.61 261.4 1050.77 259 1074.93 259C1089.09 259 1108.03 259.823 1121.29 260.505C1130.25 260.966 1137.22 268.389 1137.22 277.363V281.3C1137.22 281.3 1136.22 292.629 1136.22 300.4C1136.22 308.171 1138.22 310.2 1137.22 321.1C1137.21 321.248 1137.19 321.397 1137.18 321.545C1136.29 331.81 1128.05 340.768 1117.75 340.53C1103.18 340.194 1084.57 339.8 1077.33 339.8C1044.9 339.8 1054.26 341 1021.83 341H1000.5Z" fill="#D9D9D9"/>
  <path d="M1000.5 341C991.108 341 983.289 333.356 984.349 324.027C984.396 323.611 984.445 323.201 984.498 322.8C985.496 315.2 983.5 308.971 983.5 301.2V278.401C983.5 269.013 991.11 261.4 1000.5 261.4H1013.45C1037.61 261.4 1050.77 259 1074.93 259C1089.09 259 1108.03 259.823 1121.29 260.505C1130.25 260.966 1137.22 268.389 1137.22 277.363V281.3C1137.22 281.3 1136.22 292.629 1136.22 300.4C1136.22 308.171 1138.22 310.2 1137.22 321.1C1137.21 321.248 1137.19 321.397 1137.18 321.545C1136.29 331.81 1128.05 340.768 1117.75 340.53C1103.18 340.194 1084.57 339.8 1077.33 339.8C1044.9 339.8 1054.26 341 1021.83 341H1000.5Z" stroke="#CAC9C9"/>
  <path d="M1263.1 339C1230.61 339 1209.19 337.392 1176.7 337.392C1171.37 337.392 1165.38 337.595 1159.87 337.857C1149.96 338.329 1141.5 330.513 1141.5 320.593V319C1141.5 311.19 1143.1 306.408 1143.1 298.598C1143.1 290.787 1141.5 286.81 1141.5 279V276.001C1141.5 266.612 1149.11 259 1158.5 259H1171.5C1195.71 259 1209.49 260.809 1233.7 260.809C1250.88 260.809 1274.79 259.898 1287.24 259.369C1291.55 259.186 1294.98 262.938 1294.41 267.215C1294.34 267.766 1294.33 268.325 1294.39 268.878L1295.5 279C1295.5 279 1295.5 291.19 1295.5 299C1295.5 306.81 1294.3 311.29 1294.3 319.101C1294.3 319.48 1294.3 319.87 1294.31 320.269C1294.44 330.32 1286.78 339 1276.73 339H1263.1Z" fill="#D9D9D9"/>
  <path d="M1263.1 339C1230.61 339 1209.19 337.392 1176.7 337.392C1171.37 337.392 1165.38 337.595 1159.87 337.857C1149.96 338.329 1141.5 330.513 1141.5 320.593V319C1141.5 311.19 1143.1 306.408 1143.1 298.598C1143.1 290.787 1141.5 286.81 1141.5 279V276.001C1141.5 266.612 1149.11 259 1158.5 259H1171.5C1195.71 259 1209.49 260.809 1233.7 260.809C1250.88 260.809 1274.79 259.898 1287.24 259.369C1291.55 259.186 1294.98 262.938 1294.41 267.215C1294.34 267.766 1294.33 268.325 1294.39 268.878L1295.5 279C1295.5 279 1295.5 291.19 1295.5 299C1295.5 306.81 1294.3 311.29 1294.3 319.101C1294.3 319.48 1294.3 319.87 1294.31 320.269C1294.44 330.32 1286.78 339 1276.73 339H1263.1Z" stroke="#CAC9C9"/>
  <path d="M1419.7 340.392C1388.29 341.759 1339.83 340.395 1339.7 340.392H1317.14C1307.51 340.392 1299.79 332.398 1300.02 322.765C1300.32 310.752 1300.57 294.879 1300.3 282.7C1300.26 280.837 1300.2 278.749 1300.13 276.62C1299.83 267.65 1306.45 259.887 1315.41 259.367C1320.41 259.077 1325.75 258.898 1330.1 259.062C1352.7 259.917 1383.68 261.281 1410.1 261.467C1419.49 261.533 1428.4 261.413 1435.68 261.248C1445.39 261.028 1453.5 268.778 1453.5 278.484V322.871C1453.5 332.46 1445.57 340.149 1435.99 340.126C1430.58 340.113 1424.73 340.173 1419.7 340.392Z" fill="#D9D9D9"/>
  <path d="M1419.7 340.392C1388.29 341.759 1339.83 340.395 1339.7 340.392H1317.14C1307.51 340.392 1299.79 332.398 1300.02 322.765C1300.32 310.752 1300.57 294.879 1300.3 282.7C1300.26 280.837 1300.2 278.749 1300.13 276.62C1299.83 267.65 1306.45 259.887 1315.41 259.367C1320.41 259.077 1325.75 258.898 1330.1 259.062C1352.7 259.917 1383.68 261.281 1410.1 261.467C1419.49 261.533 1428.4 261.413 1435.68 261.248C1445.39 261.028 1453.5 268.778 1453.5 278.484V322.871C1453.5 332.46 1445.57 340.149 1435.99 340.126C1430.58 340.113 1424.73 340.173 1419.7 340.392Z" stroke="#CAC9C9"/>
  <path d="M128.8 344.608C160.206 343.241 208.675 344.605 208.8 344.608H231.357C240.993 344.608 248.71 352.602 248.476 362.235C248.183 374.248 247.927 390.121 248.2 402.3C248.242 404.163 248.303 406.251 248.373 408.38C248.669 417.35 242.048 425.113 233.088 425.633C228.092 425.923 222.75 426.102 218.4 425.938C195.797 425.083 164.824 423.719 138.4 423.533C129.012 423.467 120.098 423.587 112.818 423.752C103.115 423.972 95 416.222 95 406.516V362.129C95.0001 352.54 102.926 344.851 112.515 344.874C117.921 344.887 123.772 344.827 128.8 344.608Z" fill="#D9D9D9"/>
  <path d="M128.8 344.608C160.206 343.241 208.675 344.605 208.8 344.608H231.357C240.993 344.608 248.71 352.602 248.476 362.235C248.183 374.248 247.927 390.121 248.2 402.3C248.242 404.163 248.303 406.251 248.373 408.38C248.669 417.35 242.048 425.113 233.088 425.633C228.092 425.923 222.75 426.102 218.4 425.938C195.797 425.083 164.824 423.719 138.4 423.533C129.012 423.467 120.098 423.587 112.818 423.752C103.115 423.972 95 416.222 95 406.516V362.129C95.0001 352.54 102.926 344.851 112.515 344.874C117.921 344.887 123.772 344.827 128.8 344.608Z" stroke="#CAC9C9"/>
  <path d="M284.806 344.302C317.508 344.302 323.03 343.163 355.662 345.307C364.002 345.854 378.805 345.805 390.544 345.646C400.112 345.518 408 353.207 408 362.776V365.302C408 373.11 405.584 376.655 406.792 385.296C408 393.937 408 397.483 408 405.291V408.285C408 417.674 400.39 425.285 391.001 425.285H377.806C368.949 425.285 342.175 423.678 315.402 425.285C301.153 426.141 284.395 426.086 271.835 425.848C261.758 425.656 254.582 416.61 254.798 406.533C254.807 406.109 254.812 405.694 254.812 405.291C254.812 397.451 253 393.104 253 385.296V361.436C253 352.394 260.077 344.927 269.113 344.621C274.34 344.444 280.02 344.302 284.806 344.302Z" fill="#D9D9D9"/>
  <path d="M284.806 344.302C317.508 344.302 323.03 343.163 355.662 345.307C364.002 345.854 378.805 345.805 390.544 345.646C400.112 345.518 408 353.207 408 362.776V365.302C408 373.11 405.584 376.655 406.792 385.296C408 393.937 408 397.483 408 405.291V408.285C408 417.674 400.39 425.285 391.001 425.285H377.806C368.949 425.285 342.175 423.678 315.402 425.285C301.153 426.141 284.395 426.086 271.835 425.848C261.758 425.656 254.582 416.61 254.798 406.533C254.807 406.109 254.812 405.694 254.812 405.291C254.812 397.451 253 393.104 253 385.296V361.436C253 352.394 260.077 344.927 269.113 344.621C274.34 344.444 280.02 344.302 284.806 344.302Z" stroke="#CAC9C9"/>
  <path d="M550.003 344C559.392 344 567.213 351.645 566.146 360.973C566.099 361.389 566.048 361.799 565.995 362.2C564.991 369.8 567 376.029 567 383.8V406.599C567 415.987 559.39 423.6 550.001 423.6H536.86C512.535 423.6 499.298 426 474.973 426C460.692 426 441.573 425.173 428.218 424.49C419.253 424.032 412.281 416.606 412.281 407.63V403.7C412.281 403.7 413.286 392.371 413.286 384.6C413.286 376.829 411.277 374.8 412.281 363.9C412.295 363.755 412.308 363.61 412.32 363.466C413.221 353.198 421.455 344.23 431.76 344.467C446.444 344.804 465.257 345.2 472.562 345.2C505.205 345.2 495.778 344 528.421 344H550.003Z" fill="#D9D9D9"/>
  <path d="M550.003 344C559.392 344 567.213 351.645 566.146 360.973C566.099 361.389 566.048 361.799 565.995 362.2C564.991 369.8 567 376.029 567 383.8V406.599C567 415.987 559.39 423.6 550.001 423.6H536.86C512.535 423.6 499.298 426 474.973 426C460.692 426 441.573 425.173 428.218 424.49C419.253 424.032 412.281 416.606 412.281 407.63V403.7C412.281 403.7 413.286 392.371 413.286 384.6C413.286 376.829 411.277 374.8 412.281 363.9C412.295 363.755 412.308 363.61 412.32 363.466C413.221 353.198 421.455 344.23 431.76 344.467C446.444 344.804 465.257 345.2 472.562 345.2C505.205 345.2 495.778 344 528.421 344H550.003Z" stroke="#CAC9C9"/>
  <path d="M603.4 344C635.892 344 657.308 345.608 689.8 345.608C695.133 345.608 701.125 345.405 706.632 345.143C716.541 344.671 725 352.487 725 362.407V364C725 371.81 723.4 376.592 723.4 384.402C723.4 392.213 725 396.19 725 404V406.999C725 416.388 717.39 424 708.001 424H695C670.787 424 657.012 422.191 632.8 422.191C615.62 422.191 591.707 423.102 579.265 423.631C574.954 423.814 571.523 420.062 572.09 415.785C572.163 415.234 572.169 414.675 572.108 414.122L571 404C571 404 571 391.81 571 384C571 376.19 572.2 371.71 572.2 363.899C572.2 363.52 572.197 363.13 572.191 362.731C572.055 352.68 579.717 344 589.77 344H603.4Z" fill="#D9D9D9"/>
  <path d="M603.4 344C635.892 344 657.308 345.608 689.8 345.608C695.133 345.608 701.125 345.405 706.632 345.143C716.541 344.671 725 352.487 725 362.407V364C725 371.81 723.4 376.592 723.4 384.402C723.4 392.213 725 396.19 725 404V406.999C725 416.388 717.39 424 708.001 424H695C670.787 424 657.012 422.191 632.8 422.191C615.62 422.191 591.707 423.102 579.265 423.631C574.954 423.814 571.523 420.062 572.09 415.785C572.163 415.234 572.169 414.675 572.108 414.122L571 404C571 404 571 391.81 571 384C571 376.19 572.2 371.71 572.2 363.899C572.2 363.52 572.197 363.13 572.191 362.731C572.055 352.68 579.717 344 589.77 344H603.4Z" stroke="#CAC9C9"/>
  <path d="M763.02 425.392C794.67 426.761 843.539 425.392 843.539 425.392H866.354C875.991 425.391 883.709 417.395 883.473 407.761C883.178 395.748 882.921 379.878 883.195 367.7C883.237 365.842 883.299 363.759 883.369 361.636C883.667 352.659 877.038 344.892 868.071 344.372C863.018 344.079 857.605 343.897 853.201 344.062C830.451 344.917 799.277 346.281 772.683 346.467C763.18 346.533 754.16 346.412 746.812 346.245C737.11 346.025 729 353.775 729 363.479V407.875C729 417.463 736.924 425.151 746.512 425.126C751.986 425.112 757.923 425.171 763.02 425.392Z" fill="#D9D9D9"/>
  <path d="M763.02 425.392C794.67 426.761 843.539 425.392 843.539 425.392H866.354C875.991 425.391 883.709 417.395 883.473 407.761C883.178 395.748 882.921 379.878 883.195 367.7C883.237 365.842 883.299 363.759 883.369 361.636C883.667 352.659 877.038 344.892 868.071 344.372C863.018 344.079 857.605 343.897 853.201 344.062C830.451 344.917 799.277 346.281 772.683 346.467C763.18 346.533 754.16 346.412 746.812 346.245C737.11 346.025 729 353.775 729 363.479V407.875C729 417.463 736.924 425.151 746.512 425.126C751.986 425.112 757.923 425.171 763.02 425.392Z" stroke="#CAC9C9"/>
  <path d="M919.806 425.698C952.508 425.698 958.03 426.837 990.662 424.693C999.002 424.146 1013.8 424.195 1025.54 424.354C1035.11 424.482 1043 416.793 1043 407.224V404.698C1043 396.89 1040.58 393.345 1041.79 384.704C1043 376.063 1043 372.517 1043 364.709V361.715C1043 352.326 1035.39 344.715 1026 344.715H1012.81C1003.95 344.715 977.175 346.322 950.402 344.715C936.153 343.859 919.395 343.914 906.835 344.152C896.758 344.344 889.582 353.39 889.798 363.467C889.807 363.891 889.812 364.306 889.812 364.709C889.812 372.549 888 376.896 888 384.704V408.564C888 417.606 895.077 425.073 904.113 425.379C909.34 425.556 915.02 425.698 919.806 425.698Z" fill="#D9D9D9"/>
  <path d="M919.806 425.698C952.508 425.698 958.03 426.837 990.662 424.693C999.002 424.146 1013.8 424.195 1025.54 424.354C1035.11 424.482 1043 416.793 1043 407.224V404.698C1043 396.89 1040.58 393.345 1041.79 384.704C1043 376.063 1043 372.517 1043 364.709V361.715C1043 352.326 1035.39 344.715 1026 344.715H1012.81C1003.95 344.715 977.175 346.322 950.402 344.715C936.153 343.859 919.395 343.914 906.835 344.152C896.758 344.344 889.582 353.39 889.798 363.467C889.807 363.891 889.812 364.306 889.812 364.709C889.812 372.549 888 376.896 888 384.704V408.564C888 417.606 895.077 425.073 904.113 425.379C909.34 425.556 915.02 425.698 919.806 425.698Z" stroke="#CAC9C9"/>
  <path d="M1184 426C1193.39 426 1201.21 418.356 1200.15 409.027C1200.1 408.611 1200.05 408.201 1200 407.8C1199 400.2 1201 393.971 1201 386.2V363.401C1201 354.013 1193.39 346.4 1184 346.4H1171.05C1146.89 346.4 1133.73 344 1109.57 344C1095.41 344 1076.47 344.823 1063.21 345.505C1054.25 345.966 1047.28 353.389 1047.28 362.363V366.3C1047.28 366.3 1048.28 377.629 1048.28 385.4C1048.28 393.171 1046.28 395.2 1047.28 406.1C1047.29 406.248 1047.31 406.397 1047.32 406.545C1048.21 416.81 1056.45 425.768 1066.75 425.53C1081.32 425.194 1099.93 424.8 1107.17 424.8C1139.6 424.8 1130.24 426 1162.67 426H1184Z" fill="#D9D9D9"/>
  <path d="M1184 426C1193.39 426 1201.21 418.356 1200.15 409.027C1200.1 408.611 1200.05 408.201 1200 407.8C1199 400.2 1201 393.971 1201 386.2V363.401C1201 354.013 1193.39 346.4 1184 346.4H1171.05C1146.89 346.4 1133.73 344 1109.57 344C1095.41 344 1076.47 344.823 1063.21 345.505C1054.25 345.966 1047.28 353.389 1047.28 362.363V366.3C1047.28 366.3 1048.28 377.629 1048.28 385.4C1048.28 393.171 1046.28 395.2 1047.28 406.1C1047.29 406.248 1047.31 406.397 1047.32 406.545C1048.21 416.81 1056.45 425.768 1066.75 425.53C1081.32 425.194 1099.93 424.8 1107.17 424.8C1139.6 424.8 1130.24 426 1162.67 426H1184Z" stroke="#CAC9C9"/>
  <path d="M1237.4 424C1269.89 424 1291.31 422.392 1323.8 422.392C1329.13 422.392 1335.12 422.595 1340.63 422.857C1350.54 423.329 1359 415.513 1359 405.593V404C1359 396.19 1357.4 391.408 1357.4 383.598C1357.4 375.787 1359 371.81 1359 364V361.001C1359 351.612 1351.39 344 1342 344H1329C1304.79 344 1291.01 345.809 1266.8 345.809C1249.62 345.809 1225.71 344.898 1213.26 344.369C1208.95 344.186 1205.52 347.938 1206.09 352.215C1206.16 352.766 1206.17 353.325 1206.11 353.878L1205 364C1205 364 1205 376.19 1205 384C1205 391.81 1206.2 396.29 1206.2 404.101C1206.2 404.48 1206.2 404.87 1206.19 405.269C1206.06 415.32 1213.72 424 1223.77 424H1237.4Z" fill="#D9D9D9"/>
  <path d="M1237.4 424C1269.89 424 1291.31 422.392 1323.8 422.392C1329.13 422.392 1335.12 422.595 1340.63 422.857C1350.54 423.329 1359 415.513 1359 405.593V404C1359 396.19 1357.4 391.408 1357.4 383.598C1357.4 375.787 1359 371.81 1359 364V361.001C1359 351.612 1351.39 344 1342 344H1329C1304.79 344 1291.01 345.809 1266.8 345.809C1249.62 345.809 1225.71 344.898 1213.26 344.369C1208.95 344.186 1205.52 347.938 1206.09 352.215C1206.16 352.766 1206.17 353.325 1206.11 353.878L1205 364C1205 364 1205 376.19 1205 384C1205 391.81 1206.2 396.29 1206.2 404.101C1206.2 404.48 1206.2 404.87 1206.19 405.269C1206.06 415.32 1213.72 424 1223.77 424H1237.4Z" stroke="#CAC9C9"/>
  <path d="M224.1 429.302C256.591 429.302 262.078 428.163 294.5 430.307C302.759 430.853 317.395 430.806 329.04 430.648C338.61 430.519 346.5 438.209 346.5 447.779V450.302C346.5 458.11 344.1 461.655 345.3 470.296C346.5 478.937 346.5 482.483 346.5 490.291V493.285C346.5 502.674 338.89 510.285 329.501 510.285H316.5C307.7 510.285 281.1 508.678 254.5 510.285C240.38 511.138 223.781 511.086 211.312 510.849C201.243 510.657 194.068 501.624 194.286 491.556C194.295 491.124 194.3 490.702 194.3 490.291C194.3 482.451 192.5 478.104 192.5 470.296V446.43C192.5 437.391 199.574 429.925 208.607 429.618C213.773 429.443 219.375 429.302 224.1 429.302Z" fill="#D9D9D9"/>
  <path d="M224.1 429.302C256.591 429.302 262.078 428.163 294.5 430.307C302.759 430.853 317.395 430.806 329.04 430.648C338.61 430.519 346.5 438.209 346.5 447.779V450.302C346.5 458.11 344.1 461.655 345.3 470.296C346.5 478.937 346.5 482.483 346.5 490.291V493.285C346.5 502.674 338.89 510.285 329.501 510.285H316.5C307.7 510.285 281.1 508.678 254.5 510.285C240.38 511.138 223.781 511.086 211.312 510.849C201.243 510.657 194.068 501.624 194.286 491.556C194.295 491.124 194.3 490.702 194.3 490.291C194.3 482.451 192.5 478.104 192.5 470.296V446.43C192.5 437.391 199.574 429.925 208.607 429.618C213.773 429.443 219.375 429.302 224.1 429.302Z" stroke="#CAC9C9"/>
  <path d="M488.503 429C497.892 429 505.713 436.645 504.646 445.973C504.599 446.389 504.548 446.799 504.495 447.2C503.491 454.8 505.5 461.029 505.5 468.8V491.599C505.5 500.987 497.89 508.6 488.501 508.6H475.36C451.035 508.6 437.798 511 413.473 511C399.192 511 380.073 510.173 366.718 509.49C357.753 509.032 350.781 501.606 350.781 492.63V488.7C350.781 488.7 351.786 477.371 351.786 469.6C351.786 461.829 349.777 459.8 350.781 448.9C350.795 448.755 350.808 448.61 350.82 448.466C351.721 438.198 359.955 429.23 370.26 429.467C384.944 429.804 403.757 430.2 411.062 430.2C443.705 430.2 434.278 429 466.921 429H488.503Z" fill="#D9D9D9"/>
  <path d="M488.503 429C497.892 429 505.713 436.645 504.646 445.973C504.599 446.389 504.548 446.799 504.495 447.2C503.491 454.8 505.5 461.029 505.5 468.8V491.599C505.5 500.987 497.89 508.6 488.501 508.6H475.36C451.035 508.6 437.798 511 413.473 511C399.192 511 380.073 510.173 366.718 509.49C357.753 509.032 350.781 501.606 350.781 492.63V488.7C350.781 488.7 351.786 477.371 351.786 469.6C351.786 461.829 349.777 459.8 350.781 448.9C350.795 448.755 350.808 448.61 350.82 448.466C351.721 438.198 359.955 429.23 370.26 429.467C384.944 429.804 403.757 430.2 411.062 430.2C443.705 430.2 434.278 429 466.921 429H488.503Z" stroke="#CAC9C9"/>
  <path d="M542.11 429C574.813 429 596.369 430.608 629.071 430.608C634.48 430.608 640.563 430.402 646.142 430.137C656.047 429.666 664.5 437.481 664.5 447.398V449C664.5 456.81 662.89 461.592 662.89 469.402C662.89 477.213 664.5 481.19 664.5 489V491.999C664.5 501.388 656.89 509 647.501 509H634.306C609.936 509 596.071 507.191 571.701 507.191C554.384 507.191 530.27 508.104 517.763 508.633C513.454 508.815 510.026 505.063 510.597 500.789C510.671 500.235 510.676 499.674 510.615 499.118L509.5 489C509.5 489 509.5 476.81 509.5 469C509.5 461.19 510.708 456.71 510.708 448.899C510.708 448.523 510.705 448.137 510.699 447.743C510.563 437.687 518.225 429 528.282 429H542.11Z" fill="#D9D9D9"/>
  <path d="M542.11 429C574.813 429 596.369 430.608 629.071 430.608C634.48 430.608 640.563 430.402 646.142 430.137C656.047 429.666 664.5 437.481 664.5 447.398V449C664.5 456.81 662.89 461.592 662.89 469.402C662.89 477.213 664.5 481.19 664.5 489V491.999C664.5 501.388 656.89 509 647.501 509H634.306C609.936 509 596.071 507.191 571.701 507.191C554.384 507.191 530.27 508.104 517.763 508.633C513.454 508.815 510.026 505.063 510.597 500.789C510.671 500.235 510.676 499.674 510.615 499.118L509.5 489C509.5 489 509.5 476.81 509.5 469C509.5 461.19 510.708 456.71 510.708 448.899C510.708 448.523 510.705 448.137 510.699 447.743C510.563 437.687 518.225 429 528.282 429H542.11Z" stroke="#CAC9C9"/>
  <path d="M702.3 429.608C733.706 428.241 782.175 429.605 782.3 429.608H804.857C814.493 429.608 822.21 437.602 821.976 447.235C821.683 459.248 821.427 475.121 821.7 487.3C821.742 489.163 821.803 491.251 821.873 493.38C822.169 502.35 815.548 510.113 806.588 510.633C801.592 510.923 796.25 511.102 791.9 510.938C769.297 510.083 738.324 508.719 711.9 508.533C702.512 508.467 693.598 508.587 686.318 508.752C676.615 508.972 668.5 501.222 668.5 491.516V447.129C668.5 437.54 676.426 429.851 686.015 429.874C691.421 429.887 697.272 429.827 702.3 429.608Z" fill="#D9D9D9"/>
  <path d="M702.3 429.608C733.706 428.241 782.175 429.605 782.3 429.608H804.857C814.493 429.608 822.21 437.602 821.976 447.235C821.683 459.248 821.427 475.121 821.7 487.3C821.742 489.163 821.803 491.251 821.873 493.38C822.169 502.35 815.548 510.113 806.588 510.633C801.592 510.923 796.25 511.102 791.9 510.938C769.297 510.083 738.324 508.719 711.9 508.533C702.512 508.467 693.598 508.587 686.318 508.752C676.615 508.972 668.5 501.222 668.5 491.516V447.129C668.5 437.54 676.426 429.851 686.015 429.874C691.421 429.887 697.272 429.827 702.3 429.608Z" stroke="#CAC9C9"/>
  <path d="M858.306 510.698C891.008 510.698 896.53 511.837 929.162 509.693C937.502 509.146 952.305 509.195 964.044 509.354C973.612 509.482 981.5 501.793 981.5 492.224V489.698C981.5 481.89 979.084 478.345 980.292 469.704C981.5 461.063 981.5 457.517 981.5 449.709V446.715C981.5 437.326 973.89 429.715 964.501 429.715H951.306C942.449 429.715 915.675 431.322 888.902 429.715C874.653 428.859 857.895 428.914 845.335 429.152C835.258 429.344 828.082 438.39 828.298 448.467C828.307 448.891 828.312 449.306 828.312 449.709C828.312 457.549 826.5 461.896 826.5 469.704V493.564C826.5 502.606 833.577 510.073 842.613 510.379C847.84 510.556 853.52 510.698 858.306 510.698Z" fill="#D9D9D9"/>
  <path d="M858.306 510.698C891.008 510.698 896.53 511.837 929.162 509.693C937.502 509.146 952.305 509.195 964.044 509.354C973.612 509.482 981.5 501.793 981.5 492.224V489.698C981.5 481.89 979.084 478.345 980.292 469.704C981.5 461.063 981.5 457.517 981.5 449.709V446.715C981.5 437.326 973.89 429.715 964.501 429.715H951.306C942.449 429.715 915.675 431.322 888.902 429.715C874.653 428.859 857.895 428.914 845.335 429.152C835.258 429.344 828.082 438.39 828.298 448.467C828.307 448.891 828.312 449.306 828.312 449.709C828.312 457.549 826.5 461.896 826.5 469.704V493.564C826.5 502.606 833.577 510.073 842.613 510.379C847.84 510.556 853.52 510.698 858.306 510.698Z" stroke="#CAC9C9"/>
  <path d="M1122.5 511C1131.89 511 1139.71 503.356 1138.65 494.027C1138.6 493.611 1138.55 493.201 1138.5 492.8C1137.5 485.2 1139.5 478.971 1139.5 471.2V448.401C1139.5 439.013 1131.89 431.4 1122.5 431.4H1109.55C1085.39 431.4 1072.23 429 1048.07 429C1033.91 429 1014.97 429.823 1001.71 430.505C992.747 430.966 985.779 438.389 985.779 447.363V451.3C985.779 451.3 986.777 462.629 986.777 470.4C986.777 478.171 984.781 480.2 985.779 491.1C985.793 491.248 985.806 491.397 985.819 491.545C986.713 501.81 994.946 510.768 1005.25 510.53C1019.82 510.194 1038.43 509.8 1045.67 509.8C1078.1 509.8 1068.74 511 1101.17 511H1122.5Z" fill="#D9D9D9"/>
  <path d="M1122.5 511C1131.89 511 1139.71 503.356 1138.65 494.027C1138.6 493.611 1138.55 493.201 1138.5 492.8C1137.5 485.2 1139.5 478.971 1139.5 471.2V448.401C1139.5 439.013 1131.89 431.4 1122.5 431.4H1109.55C1085.39 431.4 1072.23 429 1048.07 429C1033.91 429 1014.97 429.823 1001.71 430.505C992.747 430.966 985.779 438.389 985.779 447.363V451.3C985.779 451.3 986.777 462.629 986.777 470.4C986.777 478.171 984.781 480.2 985.779 491.1C985.793 491.248 985.806 491.397 985.819 491.545C986.713 501.81 994.946 510.768 1005.25 510.53C1019.82 510.194 1038.43 509.8 1045.67 509.8C1078.1 509.8 1068.74 511 1101.17 511H1122.5Z" stroke="#CAC9C9"/>
  <path d="M1175.9 509C1208.39 509 1229.81 507.392 1262.3 507.392C1267.63 507.392 1273.62 507.595 1279.13 507.857C1289.04 508.329 1297.5 500.513 1297.5 490.593V489C1297.5 481.19 1295.9 476.408 1295.9 468.598C1295.9 460.787 1297.5 456.81 1297.5 449V446.001C1297.5 436.612 1289.89 429 1280.5 429H1267.5C1243.29 429 1229.51 430.809 1205.3 430.809C1188.12 430.809 1164.21 429.898 1151.76 429.369C1147.45 429.186 1144.02 432.938 1144.59 437.215C1144.66 437.766 1144.67 438.325 1144.61 438.878L1143.5 449C1143.5 449 1143.5 461.19 1143.5 469C1143.5 476.81 1144.7 481.29 1144.7 489.101C1144.7 489.48 1144.7 489.87 1144.69 490.269C1144.56 500.32 1152.22 509 1162.27 509H1175.9Z" fill="#D9D9D9"/>
  <path d="M1175.9 509C1208.39 509 1229.81 507.392 1262.3 507.392C1267.63 507.392 1273.62 507.595 1279.13 507.857C1289.04 508.329 1297.5 500.513 1297.5 490.593V489C1297.5 481.19 1295.9 476.408 1295.9 468.598C1295.9 460.787 1297.5 456.81 1297.5 449V446.001C1297.5 436.612 1289.89 429 1280.5 429H1267.5C1243.29 429 1229.51 430.809 1205.3 430.809C1188.12 430.809 1164.21 429.898 1151.76 429.369C1147.45 429.186 1144.02 432.938 1144.59 437.215C1144.66 437.766 1144.67 438.325 1144.61 438.878L1143.5 449C1143.5 449 1143.5 461.19 1143.5 469C1143.5 476.81 1144.7 481.29 1144.7 489.101C1144.7 489.48 1144.7 489.87 1144.69 490.269C1144.56 500.32 1152.22 509 1162.27 509H1175.9Z" stroke="#CAC9C9"/>
  <path d="M1335.3 510.392C1366.71 511.759 1415.17 510.395 1415.3 510.392H1437.86C1447.49 510.392 1455.21 502.398 1454.98 492.765C1454.68 480.752 1454.43 464.879 1454.7 452.7C1454.74 450.837 1454.8 448.749 1454.87 446.62C1455.17 437.65 1448.55 429.887 1439.59 429.367C1434.59 429.077 1429.25 428.898 1424.9 429.062C1402.3 429.917 1371.32 431.281 1344.9 431.467C1335.51 431.533 1326.6 431.413 1319.32 431.248C1309.61 431.028 1301.5 438.778 1301.5 448.484V492.871C1301.5 502.46 1309.43 510.149 1319.01 510.126C1324.42 510.113 1330.27 510.173 1335.3 510.392Z" fill="#D9D9D9"/>
  <path d="M1335.3 510.392C1366.71 511.759 1415.17 510.395 1415.3 510.392H1437.86C1447.49 510.392 1455.21 502.398 1454.98 492.765C1454.68 480.752 1454.43 464.879 1454.7 452.7C1454.74 450.837 1454.8 448.749 1454.87 446.62C1455.17 437.65 1448.55 429.887 1439.59 429.367C1434.59 429.077 1429.25 428.898 1424.9 429.062C1402.3 429.917 1371.32 431.281 1344.9 431.467C1335.51 431.533 1326.6 431.413 1319.32 431.248C1309.61 431.028 1301.5 438.778 1301.5 448.484V492.871C1301.5 502.46 1309.43 510.149 1319.01 510.126C1324.42 510.113 1330.27 510.173 1335.3 510.392Z" stroke="#CAC9C9"/>
  <path d="M216.2 514.608C184.794 513.241 136.325 514.605 136.2 514.608H113.643C104.007 514.608 96.2896 522.602 96.5244 532.235C96.8172 544.248 97.0729 560.121 96.7998 572.3C96.758 574.163 96.6971 576.251 96.627 578.38C96.3313 587.35 102.952 595.113 111.912 595.633C116.908 595.923 122.25 596.102 126.6 595.938C149.203 595.083 180.176 593.719 206.6 593.533C215.988 593.467 224.902 593.587 232.182 593.752C241.885 593.972 250 586.222 250 576.516V532.129C250 522.54 242.074 514.851 232.485 514.874C227.079 514.887 221.228 514.827 216.2 514.608Z" fill="#D9D9D9"/>
  <path d="M216.2 514.608C184.794 513.241 136.325 514.605 136.2 514.608H113.643C104.007 514.608 96.2896 522.602 96.5244 532.235C96.8172 544.248 97.0729 560.121 96.7998 572.3C96.758 574.163 96.6971 576.251 96.627 578.38C96.3313 587.35 102.952 595.113 111.912 595.633C116.908 595.923 122.25 596.102 126.6 595.938C149.203 595.083 180.176 593.719 206.6 593.533C215.988 593.467 224.902 593.587 232.182 593.752C241.885 593.972 250 586.222 250 576.516V532.129C250 522.54 242.074 514.851 232.485 514.874C227.079 514.887 221.228 514.827 216.2 514.608Z" stroke="#CAC9C9"/>
  <path d="M376.4 514.302C343.909 514.302 338.422 513.163 306 515.307C297.741 515.853 283.105 515.806 271.46 515.648C261.89 515.519 254 523.209 254 532.779V535.302C254 543.11 256.4 546.655 255.2 555.296C254 563.937 254 567.483 254 575.291V578.285C254 587.674 261.61 595.285 270.999 595.285H284C292.8 595.285 319.4 593.678 346 595.285C360.12 596.138 376.719 596.086 389.188 595.849C399.257 595.657 406.432 586.624 406.214 576.556C406.205 576.124 406.2 575.702 406.2 575.291C406.2 567.451 408 563.104 408 555.296V531.43C408 522.391 400.926 514.925 391.893 514.618C386.727 514.443 381.125 514.302 376.4 514.302Z" fill="#D9D9D9"/>
  <path d="M376.4 514.302C343.909 514.302 338.422 513.163 306 515.307C297.741 515.853 283.105 515.806 271.46 515.648C261.89 515.519 254 523.209 254 532.779V535.302C254 543.11 256.4 546.655 255.2 555.296C254 563.937 254 567.483 254 575.291V578.285C254 587.674 261.61 595.285 270.999 595.285H284C292.8 595.285 319.4 593.678 346 595.285C360.12 596.138 376.719 596.086 389.188 595.849C399.257 595.657 406.432 586.624 406.214 576.556C406.205 576.124 406.2 575.702 406.2 575.291C406.2 567.451 408 563.104 408 555.296V531.43C408 522.391 400.926 514.925 391.893 514.618C386.727 514.443 381.125 514.302 376.4 514.302Z" stroke="#CAC9C9"/>
  <path d="M428.997 514C419.608 514 411.787 521.645 412.854 530.973C412.901 531.389 412.952 531.799 413.005 532.2C414.009 539.8 412 546.029 412 553.8V576.599C412 585.987 419.61 593.6 428.999 593.6H442.14C466.465 593.6 479.702 596 504.027 596C518.308 596 537.427 595.173 550.782 594.49C559.747 594.032 566.719 586.606 566.719 577.63V573.7C566.719 573.7 565.714 562.371 565.714 554.6C565.714 546.829 567.723 544.8 566.719 533.9C566.705 533.755 566.692 533.61 566.68 533.466C565.779 523.198 557.545 514.23 547.24 514.467C532.556 514.804 513.743 515.2 506.438 515.2C473.795 515.2 483.222 514 450.579 514H428.997Z" fill="#D9D9D9"/>
  <path d="M428.997 514C419.608 514 411.787 521.645 412.854 530.973C412.901 531.389 412.952 531.799 413.005 532.2C414.009 539.8 412 546.029 412 553.8V576.599C412 585.987 419.61 593.6 428.999 593.6H442.14C466.465 593.6 479.702 596 504.027 596C518.308 596 537.427 595.173 550.782 594.49C559.747 594.032 566.719 586.606 566.719 577.63V573.7C566.719 573.7 565.714 562.371 565.714 554.6C565.714 546.829 567.723 544.8 566.719 533.9C566.705 533.755 566.692 533.61 566.68 533.466C565.779 523.198 557.545 514.23 547.24 514.467C532.556 514.804 513.743 515.2 506.438 515.2C473.795 515.2 483.222 514 450.579 514H428.997Z" stroke="#CAC9C9"/>
  <path d="M692.6 514C660.108 514 638.692 515.608 606.2 515.608C600.867 515.608 594.875 515.405 589.368 515.143C579.459 514.671 571 522.487 571 532.407V534C571 541.81 572.6 546.592 572.6 554.402C572.6 562.213 571 566.19 571 574V576.999C571 586.388 578.61 594 587.999 594H601C625.213 594 638.988 592.191 663.2 592.191C680.38 592.191 704.293 593.102 716.735 593.631C721.046 593.814 724.477 590.062 723.91 585.785C723.837 585.234 723.831 584.675 723.892 584.122L725 574C725 574 725 561.81 725 554C725 546.19 723.8 541.71 723.8 533.899C723.8 533.52 723.803 533.13 723.809 532.731C723.945 522.68 716.283 514 706.23 514H692.6Z" fill="#D9D9D9"/>
  <path d="M692.6 514C660.108 514 638.692 515.608 606.2 515.608C600.867 515.608 594.875 515.405 589.368 515.143C579.459 514.671 571 522.487 571 532.407V534C571 541.81 572.6 546.592 572.6 554.402C572.6 562.213 571 566.19 571 574V576.999C571 586.388 578.61 594 587.999 594H601C625.213 594 638.988 592.191 663.2 592.191C680.38 592.191 704.293 593.102 716.735 593.631C721.046 593.814 724.477 590.062 723.91 585.785C723.837 585.234 723.831 584.675 723.892 584.122L725 574C725 574 725 561.81 725 554C725 546.19 723.8 541.71 723.8 533.899C723.8 533.52 723.803 533.13 723.809 532.731C723.945 522.68 716.283 514 706.23 514H692.6Z" stroke="#CAC9C9"/>
  <path d="M849.2 595.392C817.794 596.759 769.325 595.395 769.2 595.392H746.643C737.007 595.392 729.29 587.398 729.524 577.765C729.817 565.752 730.073 549.879 729.8 537.7C729.758 535.837 729.697 533.749 729.627 531.62C729.331 522.65 735.952 514.887 744.912 514.367C749.908 514.077 755.25 513.898 759.6 514.062C782.203 514.917 813.176 516.281 839.6 516.467C848.988 516.533 857.902 516.413 865.182 516.248C874.885 516.028 883 523.778 883 533.484V577.871C883 587.46 875.074 595.149 865.485 595.126C860.079 595.113 854.228 595.173 849.2 595.392Z" fill="#D9D9D9"/>
  <path d="M849.2 595.392C817.794 596.759 769.325 595.395 769.2 595.392H746.643C737.007 595.392 729.29 587.398 729.524 577.765C729.817 565.752 730.073 549.879 729.8 537.7C729.758 535.837 729.697 533.749 729.627 531.62C729.331 522.65 735.952 514.887 744.912 514.367C749.908 514.077 755.25 513.898 759.6 514.062C782.203 514.917 813.176 516.281 839.6 516.467C848.988 516.533 857.902 516.413 865.182 516.248C874.885 516.028 883 523.778 883 533.484V577.871C883 587.46 875.074 595.149 865.485 595.126C860.079 595.113 854.228 595.173 849.2 595.392Z" stroke="#CAC9C9"/>
  <path d="M1010.19 595.698C977.492 595.698 971.97 596.837 939.338 594.693C930.998 594.146 916.195 594.195 904.456 594.354C894.888 594.482 887 586.793 887 577.224V574.698C887 566.89 889.416 563.345 888.208 554.704C887 546.063 887 542.517 887 534.709V531.715C887 522.326 894.61 514.715 903.999 514.715H917.194C926.051 514.715 952.825 516.322 979.598 514.715C993.847 513.859 1010.61 513.914 1023.17 514.152C1033.24 514.344 1040.42 523.39 1040.2 533.467C1040.19 533.891 1040.19 534.306 1040.19 534.709C1040.19 542.549 1042 546.896 1042 554.704V578.564C1042 587.606 1034.92 595.073 1025.89 595.379C1020.66 595.556 1014.98 595.698 1010.19 595.698Z" fill="#D9D9D9"/>
  <path d="M1010.19 595.698C977.492 595.698 971.97 596.837 939.338 594.693C930.998 594.146 916.195 594.195 904.456 594.354C894.888 594.482 887 586.793 887 577.224V574.698C887 566.89 889.416 563.345 888.208 554.704C887 546.063 887 542.517 887 534.709V531.715C887 522.326 894.61 514.715 903.999 514.715H917.194C926.051 514.715 952.825 516.322 979.598 514.715C993.847 513.859 1010.61 513.914 1023.17 514.152C1033.24 514.344 1040.42 523.39 1040.2 533.467C1040.19 533.891 1040.19 534.306 1040.19 534.709C1040.19 542.549 1042 546.896 1042 554.704V578.564C1042 587.606 1034.92 595.073 1025.89 595.379C1020.66 595.556 1014.98 595.698 1010.19 595.698Z" stroke="#CAC9C9"/>
  <path d="M1063 596C1053.61 596 1045.79 588.356 1046.85 579.027C1046.9 578.611 1046.95 578.201 1047 577.8C1048 570.2 1046 563.971 1046 556.2V533.401C1046 524.013 1053.61 516.4 1063 516.4H1075.95C1100.11 516.4 1113.27 514 1137.43 514C1151.59 514 1170.53 514.823 1183.79 515.505C1192.75 515.966 1199.72 523.389 1199.72 532.363V536.3C1199.72 536.3 1198.72 547.629 1198.72 555.4C1198.72 563.171 1200.72 565.2 1199.72 576.1C1199.71 576.248 1199.69 576.397 1199.68 576.545C1198.79 586.81 1190.55 595.768 1180.25 595.53C1165.68 595.194 1147.07 594.8 1139.83 594.8C1107.4 594.8 1116.76 596 1084.33 596H1063Z" fill="#D9D9D9"/>
  <path d="M1063 596C1053.61 596 1045.79 588.356 1046.85 579.027C1046.9 578.611 1046.95 578.201 1047 577.8C1048 570.2 1046 563.971 1046 556.2V533.401C1046 524.013 1053.61 516.4 1063 516.4H1075.95C1100.11 516.4 1113.27 514 1137.43 514C1151.59 514 1170.53 514.823 1183.79 515.505C1192.75 515.966 1199.72 523.389 1199.72 532.363V536.3C1199.72 536.3 1198.72 547.629 1198.72 555.4C1198.72 563.171 1200.72 565.2 1199.72 576.1C1199.71 576.248 1199.69 576.397 1199.68 576.545C1198.79 586.81 1190.55 595.768 1180.25 595.53C1165.68 595.194 1147.07 594.8 1139.83 594.8C1107.4 594.8 1116.76 596 1084.33 596H1063Z" stroke="#CAC9C9"/>
  <path d="M1325.6 594C1293.11 594 1271.69 592.392 1239.2 592.392C1233.87 592.392 1227.88 592.595 1222.37 592.857C1212.46 593.329 1204 585.513 1204 575.593V574C1204 566.19 1205.6 561.408 1205.6 553.598C1205.6 545.787 1204 541.81 1204 534V531.001C1204 521.612 1211.61 514 1221 514H1234C1258.21 514 1271.99 515.809 1296.2 515.809C1313.38 515.809 1337.29 514.898 1349.74 514.369C1354.05 514.186 1357.48 517.938 1356.91 522.215C1356.84 522.766 1356.83 523.325 1356.89 523.878L1358 534C1358 534 1358 546.19 1358 554C1358 561.81 1356.8 566.29 1356.8 574.101C1356.8 574.48 1356.8 574.87 1356.81 575.269C1356.94 585.32 1349.28 594 1339.23 594H1325.6Z" fill="#D9D9D9"/>
  <path d="M1325.6 594C1293.11 594 1271.69 592.392 1239.2 592.392C1233.87 592.392 1227.88 592.595 1222.37 592.857C1212.46 593.329 1204 585.513 1204 575.593V574C1204 566.19 1205.6 561.408 1205.6 553.598C1205.6 545.787 1204 541.81 1204 534V531.001C1204 521.612 1211.61 514 1221 514H1234C1258.21 514 1271.99 515.809 1296.2 515.809C1313.38 515.809 1337.29 514.898 1349.74 514.369C1354.05 514.186 1357.48 517.938 1356.91 522.215C1356.84 522.766 1356.83 523.325 1356.89 523.878L1358 534C1358 534 1358 546.19 1358 554C1358 561.81 1356.8 566.29 1356.8 574.101C1356.8 574.48 1356.8 574.87 1356.81 575.269C1356.94 585.32 1349.28 594 1339.23 594H1325.6Z" stroke="#CAC9C9"/>
  <path d="M315.694 599.302C282.992 599.302 277.47 598.163 244.838 600.307C236.498 600.854 221.695 600.805 209.956 600.646C200.388 600.518 192.5 608.207 192.5 617.776V620.302C192.5 628.11 194.916 631.655 193.708 640.296C192.5 648.937 192.5 652.483 192.5 660.291V663.285C192.5 672.674 200.11 680.285 209.499 680.285H222.694C231.551 680.285 258.325 678.678 285.098 680.285C299.347 681.141 316.105 681.086 328.665 680.848C338.742 680.656 345.918 671.61 345.702 661.533C345.693 661.109 345.688 660.694 345.688 660.291C345.688 652.451 347.5 648.104 347.5 640.296V616.436C347.5 607.394 340.423 599.927 331.387 599.621C326.16 599.444 320.48 599.302 315.694 599.302Z" fill="#D9D9D9"/>
  <path d="M315.694 599.302C282.992 599.302 277.47 598.163 244.838 600.307C236.498 600.854 221.695 600.805 209.956 600.646C200.388 600.518 192.5 608.207 192.5 617.776V620.302C192.5 628.11 194.916 631.655 193.708 640.296C192.5 648.937 192.5 652.483 192.5 660.291V663.285C192.5 672.674 200.11 680.285 209.499 680.285H222.694C231.551 680.285 258.325 678.678 285.098 680.285C299.347 681.141 316.105 681.086 328.665 680.848C338.742 680.656 345.918 671.61 345.702 661.533C345.693 661.109 345.688 660.694 345.688 660.291C345.688 652.451 347.5 648.104 347.5 640.296V616.436C347.5 607.394 340.423 599.927 331.387 599.621C326.16 599.444 320.48 599.302 315.694 599.302Z" stroke="#CAC9C9"/>
  <path d="M368.497 599C359.108 599 351.289 606.644 352.349 615.973C352.396 616.389 352.445 616.799 352.498 617.2C353.496 624.8 351.5 631.029 351.5 638.8V661.599C351.5 670.987 359.11 678.6 368.499 678.6H381.445C405.614 678.6 418.765 681 442.934 681C457.088 681 476.027 680.177 489.291 679.495C498.253 679.034 505.221 671.611 505.221 662.637V658.7C505.221 658.7 504.223 647.371 504.223 639.6C504.223 631.829 506.219 629.8 505.221 618.9C505.207 618.752 505.194 618.603 505.181 618.455C504.287 608.19 496.054 599.232 485.753 599.47C471.181 599.806 452.567 600.2 445.329 600.2C412.897 600.2 422.263 599 389.83 599H368.497Z" fill="#D9D9D9"/>
  <path d="M368.497 599C359.108 599 351.289 606.644 352.349 615.973C352.396 616.389 352.445 616.799 352.498 617.2C353.496 624.8 351.5 631.029 351.5 638.8V661.599C351.5 670.987 359.11 678.6 368.499 678.6H381.445C405.614 678.6 418.765 681 442.934 681C457.088 681 476.027 680.177 489.291 679.495C498.253 679.034 505.221 671.611 505.221 662.637V658.7C505.221 658.7 504.223 647.371 504.223 639.6C504.223 631.829 506.219 629.8 505.221 618.9C505.207 618.752 505.194 618.603 505.181 618.455C504.287 608.19 496.054 599.232 485.753 599.47C471.181 599.806 452.567 600.2 445.329 600.2C412.897 600.2 422.263 599 389.83 599H368.497Z" stroke="#CAC9C9"/>
  <path d="M631.89 599C599.187 599 577.631 600.608 544.929 600.608C539.52 600.608 533.437 600.402 527.858 600.137C517.953 599.666 509.5 607.481 509.5 617.398V619C509.5 626.81 511.11 631.592 511.11 639.402C511.11 647.213 509.5 651.19 509.5 659V661.999C509.5 671.388 517.11 679 526.499 679H539.694C564.064 679 577.929 677.191 602.299 677.191C619.616 677.191 643.73 678.104 656.237 678.633C660.546 678.815 663.974 675.063 663.403 670.789C663.329 670.235 663.324 669.674 663.385 669.118L664.5 659C664.5 659 664.5 646.81 664.5 639C664.5 631.19 663.292 626.71 663.292 618.899C663.292 618.523 663.295 618.137 663.301 617.743C663.437 607.687 655.775 599 645.718 599H631.89Z" fill="#D9D9D9"/>
  <path d="M631.89 599C599.187 599 577.631 600.608 544.929 600.608C539.52 600.608 533.437 600.402 527.858 600.137C517.953 599.666 509.5 607.481 509.5 617.398V619C509.5 626.81 511.11 631.592 511.11 639.402C511.11 647.213 509.5 651.19 509.5 659V661.999C509.5 671.388 517.11 679 526.499 679H539.694C564.064 679 577.929 677.191 602.299 677.191C619.616 677.191 643.73 678.104 656.237 678.633C660.546 678.815 663.974 675.063 663.403 670.789C663.329 670.235 663.324 669.674 663.385 669.118L664.5 659C664.5 659 664.5 646.81 664.5 639C664.5 631.19 663.292 626.71 663.292 618.899C663.292 618.523 663.295 618.137 663.301 617.743C663.437 607.687 655.775 599 645.718 599H631.89Z" stroke="#CAC9C9"/>
  <path d="M788.7 599.608C757.294 598.241 708.825 599.605 708.7 599.608H686.143C676.507 599.608 668.79 607.602 669.024 617.235C669.317 629.248 669.573 645.121 669.3 657.3C669.258 659.163 669.197 661.251 669.127 663.38C668.831 672.35 675.452 680.113 684.412 680.633C689.408 680.923 694.75 681.102 699.1 680.938C721.703 680.083 752.676 678.719 779.1 678.533C788.488 678.467 797.402 678.587 804.682 678.752C814.385 678.972 822.5 671.222 822.5 661.516V617.129C822.5 607.54 814.574 599.851 804.985 599.874C799.579 599.887 793.728 599.827 788.7 599.608Z" fill="#D9D9D9"/>
  <path d="M788.7 599.608C757.294 598.241 708.825 599.605 708.7 599.608H686.143C676.507 599.608 668.79 607.602 669.024 617.235C669.317 629.248 669.573 645.121 669.3 657.3C669.258 659.163 669.197 661.251 669.127 663.38C668.831 672.35 675.452 680.113 684.412 680.633C689.408 680.923 694.75 681.102 699.1 680.938C721.703 680.083 752.676 678.719 779.1 678.533C788.488 678.467 797.402 678.587 804.682 678.752C814.385 678.972 822.5 671.222 822.5 661.516V617.129C822.5 607.54 814.574 599.851 804.985 599.874C799.579 599.887 793.728 599.827 788.7 599.608Z" stroke="#CAC9C9"/>
  <path d="M949.694 680.698C916.992 680.698 911.47 681.837 878.838 679.693C870.498 679.146 855.695 679.195 843.956 679.354C834.388 679.482 826.5 671.793 826.5 662.224V659.698C826.5 651.89 828.916 648.345 827.708 639.704C826.5 631.063 826.5 627.517 826.5 619.709V616.715C826.5 607.326 834.11 599.715 843.499 599.715H856.694C865.551 599.715 892.325 601.322 919.098 599.715C933.347 598.859 950.105 598.914 962.665 599.152C972.742 599.344 979.918 608.39 979.702 618.467C979.693 618.891 979.688 619.306 979.688 619.709C979.688 627.549 981.5 631.896 981.5 639.704V663.564C981.5 672.606 974.423 680.073 965.387 680.379C960.16 680.556 954.48 680.698 949.694 680.698Z" fill="#D9D9D9"/>
  <path d="M949.694 680.698C916.992 680.698 911.47 681.837 878.838 679.693C870.498 679.146 855.695 679.195 843.956 679.354C834.388 679.482 826.5 671.793 826.5 662.224V659.698C826.5 651.89 828.916 648.345 827.708 639.704C826.5 631.063 826.5 627.517 826.5 619.709V616.715C826.5 607.326 834.11 599.715 843.499 599.715H856.694C865.551 599.715 892.325 601.322 919.098 599.715C933.347 598.859 950.105 598.914 962.665 599.152C972.742 599.344 979.918 608.39 979.702 618.467C979.693 618.891 979.688 619.306 979.688 619.709C979.688 627.549 981.5 631.896 981.5 639.704V663.564C981.5 672.606 974.423 680.073 965.387 680.379C960.16 680.556 954.48 680.698 949.694 680.698Z" stroke="#CAC9C9"/>
  <path d="M1002.5 681C993.108 681 985.287 673.355 986.354 664.027C986.401 663.611 986.452 663.201 986.505 662.8C987.509 655.2 985.5 648.971 985.5 641.2V618.401C985.5 609.013 993.11 601.4 1002.5 601.4H1015.64C1039.97 601.4 1053.2 599 1077.53 599C1091.81 599 1110.93 599.827 1124.28 600.51C1133.25 600.968 1140.22 608.394 1140.22 617.37V621.3C1140.22 621.3 1139.21 632.629 1139.21 640.4C1139.21 648.171 1141.22 650.2 1140.22 661.1C1140.21 661.245 1140.19 661.39 1140.18 661.534C1139.28 671.802 1131.05 680.77 1120.74 680.533C1106.06 680.196 1087.24 679.8 1079.94 679.8C1047.3 679.8 1056.72 681 1024.08 681H1002.5Z" fill="#D9D9D9"/>
  <path d="M1002.5 681C993.108 681 985.287 673.355 986.354 664.027C986.401 663.611 986.452 663.201 986.505 662.8C987.509 655.2 985.5 648.971 985.5 641.2V618.401C985.5 609.013 993.11 601.4 1002.5 601.4H1015.64C1039.97 601.4 1053.2 599 1077.53 599C1091.81 599 1110.93 599.827 1124.28 600.51C1133.25 600.968 1140.22 608.394 1140.22 617.37V621.3C1140.22 621.3 1139.21 632.629 1139.21 640.4C1139.21 648.171 1141.22 650.2 1140.22 661.1C1140.21 661.245 1140.19 661.39 1140.18 661.534C1139.28 671.802 1131.05 680.77 1120.74 680.533C1106.06 680.196 1087.24 679.8 1079.94 679.8C1047.3 679.8 1056.72 681 1024.08 681H1002.5Z" stroke="#CAC9C9"/>
  <path d="M1266.1 679C1233.61 679 1212.19 677.392 1179.7 677.392C1174.37 677.392 1168.38 677.595 1162.87 677.857C1152.96 678.329 1144.5 670.513 1144.5 660.593V659C1144.5 651.19 1146.1 646.408 1146.1 638.598C1146.1 630.787 1144.5 626.81 1144.5 619V616.001C1144.5 606.612 1152.11 599 1161.5 599H1174.5C1198.71 599 1212.49 600.809 1236.7 600.809C1253.88 600.809 1277.79 599.898 1290.24 599.369C1294.55 599.186 1297.98 602.938 1297.41 607.215C1297.34 607.766 1297.33 608.325 1297.39 608.878L1298.5 619C1298.5 619 1298.5 631.19 1298.5 639C1298.5 646.81 1297.3 651.29 1297.3 659.101C1297.3 659.48 1297.3 659.87 1297.31 660.269C1297.44 670.32 1289.78 679 1279.73 679H1266.1Z" fill="#D9D9D9"/>
  <path d="M1266.1 679C1233.61 679 1212.19 677.392 1179.7 677.392C1174.37 677.392 1168.38 677.595 1162.87 677.857C1152.96 678.329 1144.5 670.513 1144.5 660.593V659C1144.5 651.19 1146.1 646.408 1146.1 638.598C1146.1 630.787 1144.5 626.81 1144.5 619V616.001C1144.5 606.612 1152.11 599 1161.5 599H1174.5C1198.71 599 1212.49 600.809 1236.7 600.809C1253.88 600.809 1277.79 599.898 1290.24 599.369C1294.55 599.186 1297.98 602.938 1297.41 607.215C1297.34 607.766 1297.33 608.325 1297.39 608.878L1298.5 619C1298.5 619 1298.5 631.19 1298.5 639C1298.5 646.81 1297.3 651.29 1297.3 659.101C1297.3 659.48 1297.3 659.87 1297.31 660.269C1297.44 670.32 1289.78 679 1279.73 679H1266.1Z" stroke="#CAC9C9"/>
  <path d="M1423.48 680.392C1391.83 681.761 1342.96 680.392 1342.96 680.392H1320.15C1310.51 680.391 1302.79 672.395 1303.03 662.761C1303.32 650.748 1303.58 634.878 1303.3 622.7C1303.26 620.842 1303.2 618.759 1303.13 616.636C1302.83 607.659 1309.46 599.892 1318.43 599.372C1323.48 599.079 1328.9 598.897 1333.3 599.062C1356.05 599.917 1387.22 601.281 1413.82 601.467C1423.32 601.533 1432.34 601.412 1439.69 601.245C1449.39 601.025 1457.5 608.775 1457.5 618.479V662.875C1457.5 672.463 1449.58 680.151 1439.99 680.126C1434.51 680.112 1428.58 680.171 1423.48 680.392Z" fill="#D9D9D9"/>
  <path d="M1423.48 680.392C1391.83 681.761 1342.96 680.392 1342.96 680.392H1320.15C1310.51 680.391 1302.79 672.395 1303.03 662.761C1303.32 650.748 1303.58 634.878 1303.3 622.7C1303.26 620.842 1303.2 618.759 1303.13 616.636C1302.83 607.659 1309.46 599.892 1318.43 599.372C1323.48 599.079 1328.9 598.897 1333.3 599.062C1356.05 599.917 1387.22 601.281 1413.82 601.467C1423.32 601.533 1432.34 601.412 1439.69 601.245C1449.39 601.025 1457.5 608.775 1457.5 618.479V662.875C1457.5 672.463 1449.58 680.151 1439.99 680.126C1434.51 680.112 1428.58 680.171 1423.48 680.392Z" stroke="#CAC9C9"/>
</svg>