<svg width="150" height="150" viewBox="0 0 150 150" fill="none" xmlns="http://www.w3.org/2000/svg">
<path d="M102.99 131.53H47.525C44.6725 131.53 41.3961 130.175 39.3795 128.154L22.3715 111.145C20.3549 109.128 19 105.855 19 102.998V47.5278C19 44.6314 20.3232 41.4339 22.3715 39.3815L39.3795 22.3718C41.3961 20.3551 44.6685 19 47.525 19H102.99C105.886 19 109.083 20.3234 111.132 22.3718L128.14 39.3815C130.188 41.4339 131.511 44.6274 131.511 47.5278V102.998C131.511 105.851 130.156 109.124 128.14 111.145L111.132 128.154C109.083 130.203 105.886 131.53 102.986 131.53H102.99ZM101.619 118.617C101.619 118.617 101.611 118.625 101.608 118.629L101.619 118.617ZM48.3332 118.059H102.182L118.045 102.194V48.3399L102.182 32.4754H48.3332L32.4701 48.3399V102.194L48.3332 118.059Z" fill="#0060BF"/>
<path d="M103.009 129.548H47.5441C45.1789 129.548 42.469 128.427 40.8011 126.755L23.7931 109.745C22.1212 108.073 21 105.363 21 103.002V47.531C21 45.1696 22.1212 42.4594 23.7931 40.7874L40.8011 23.7776C42.473 22.1056 45.1828 20.9844 47.5441 20.9844H103.009C105.371 20.9844 108.08 22.1056 109.752 23.7776L126.76 40.7874C128.432 42.4594 129.553 45.1696 129.553 47.531V103.002C129.553 105.363 128.432 108.073 126.76 109.745L109.752 126.755C108.08 128.427 105.371 129.548 103.009 129.548ZM47.6867 120.039H102.859C102.942 120.015 103.053 119.968 103.128 119.928L119.93 103.124C119.97 103.049 120.017 102.938 120.041 102.855V47.6776C120.017 47.5944 119.97 47.4835 119.93 47.4082L103.128 30.6045C103.053 30.5649 102.942 30.5174 102.859 30.4936H47.6867C47.6035 30.5174 47.4926 30.5649 47.4173 30.6045L30.6153 47.4082C30.5757 47.4835 30.5281 47.5944 30.5044 47.6776V102.855C30.5281 102.938 30.5757 103.049 30.6153 103.124L47.4173 119.928C47.4926 119.968 47.6035 120.015 47.6867 120.039Z" fill="#231F20"/>
</svg>
