<svg width="65" height="72" viewBox="0 0 65 72" fill="none" xmlns="http://www.w3.org/2000/svg">
<path d="M62.1416 10.8296L62.1263 15.359C62.1292 14.5918 61.8554 13.8188 61.3002 13.0526C59.4582 10.5084 54.7288 8.34486 47.9847 6.96006C41.2406 5.57526 33.2888 5.13412 25.5927 5.71911C17.8976 6.3041 11.3805 7.84426 7.24152 10.0576C4.35024 11.6035 2.86119 13.348 2.85547 15.1269L2.87073 10.5976C2.87645 8.81861 4.3655 7.07418 7.25678 5.52827C11.3958 3.31585 17.9128 1.77473 25.608 1.18974C33.3031 0.604747 41.2549 1.04493 48 2.43069C54.7441 3.81549 59.4735 5.97996 61.3155 8.52323C61.8707 9.28948 62.1444 10.0634 62.1416 10.8296Z" fill="#380017"/>
<path d="M62.1278 15.3448C62.1278 15.5299 62.1125 15.714 62.0801 15.8981C62.0848 14.3887 62.0896 12.8782 62.0953 11.3688C62.1268 11.1846 62.143 10.9996 62.143 10.8154C62.1383 12.1743 62.1325 13.9859 62.1278 15.3448Z" fill="#AB8823"/>
<path d="M3.13787 16.4766C2.9509 16.0307 2.85838 15.5847 2.85742 15.1407L2.87268 10.6113C2.87268 11.0553 2.96617 11.5013 3.15313 11.9472C3.14836 13.4567 3.14359 14.9671 3.13787 16.4766Z" fill="#AB8823"/>
<path d="M3.25028 16.7221C3.21021 16.6406 3.17206 16.5591 3.13867 16.4766C3.14344 14.9672 3.14821 13.4567 3.15393 11.9473C3.18827 12.0288 3.22548 12.1103 3.2665 12.1928C3.26173 13.7022 3.25696 15.2127 3.25123 16.7221H3.25028Z" fill="#AB8823"/>
<path d="M64.9997 10.8262L64.9844 15.3555C64.9825 15.8868 64.8604 16.4172 64.6172 16.9465L64.6324 12.4172C64.8757 11.8878 64.9978 11.3565 64.9997 10.8262Z" fill="#380017"/>
<path d="M3.24991 16.7218C3.24132 16.6853 3.24991 16.6354 3.24991 16.599C3.25468 15.1298 3.25945 13.6616 3.26422 12.1924C3.30428 12.2739 3.34816 12.3554 3.3949 12.4369C3.39013 13.9464 3.38536 15.4568 3.37964 16.9663C3.3329 16.8848 3.28902 16.8033 3.24896 16.7218H3.24991Z" fill="#AB8823"/>
<path d="M3.68325 17.4339C3.57069 17.2785 3.46957 17.1232 3.38086 16.9669C3.38563 15.4574 3.3904 13.947 3.39612 12.4375C3.48579 12.5928 3.5869 12.7492 3.69851 12.9045C5.5405 15.4488 10.269 17.6123 17.0141 18.9971C23.7582 20.3819 31.7099 20.823 39.406 20.238C47.1021 19.653 53.6182 18.1119 57.7572 15.8995C60.3557 14.5099 61.8218 12.9601 62.0956 11.3701C62.0908 12.8796 62.086 14.39 62.0803 15.8995C61.8056 17.4905 60.3404 19.0402 57.742 20.4289C53.603 22.6413 47.0869 24.1824 39.3908 24.7674C31.6956 25.3524 23.7439 24.9122 16.9988 23.5264C10.2547 22.1416 5.52524 19.9772 3.68325 17.4339Z" fill="#AB8823"/>
<path d="M2.02482e-05 61.1621L0.0152827 10.6006C0.012421 11.4426 0.312901 12.2836 0.914815 13.1151C1.89734 14.4711 3.63344 15.7341 6.07544 16.8696C8.60328 18.0444 11.7798 19.0293 15.5172 19.7974C19.2536 20.5646 23.3297 21.07 27.6299 21.2973C31.7832 21.5169 35.9689 21.4699 40.0716 21.1582C44.1744 20.8466 47.9881 20.2846 51.4059 19.4896C54.9449 18.6658 57.902 17.6272 60.1952 16.4006C62.4884 15.1741 64.3161 13.0671 64.9666 11.6507L64.9514 62.2122C64.3008 63.6286 62.4731 65.7356 60.1799 66.9621C57.8868 68.1887 54.9296 69.2273 51.3907 70.0511C47.9728 70.8461 44.1591 71.4081 40.0564 71.7197C35.9546 72.0314 31.7679 72.0784 27.6146 71.8588C23.3144 71.6315 19.2384 71.1271 15.5019 70.3589C11.7655 69.5908 8.58802 68.6068 6.06017 67.4311C3.61913 66.2966 1.88207 65.0336 0.899552 63.6766C0.297639 62.8451 -0.00284146 62.0041 2.02482e-05 61.1621Z" fill="#41190D"/>
<path d="M48.0022 2.42971C54.7463 3.81451 59.4758 5.97898 61.3178 8.52226C63.1607 11.0665 61.8968 13.6855 57.7578 15.8979C53.6188 18.1104 47.1027 19.6515 39.4066 20.2365C31.7115 20.8215 23.7597 20.3813 17.0147 18.9955C10.2705 17.6107 5.54109 15.4463 3.6991 12.903C1.85616 10.3587 3.12008 7.73971 7.25907 5.52729C11.3981 3.31487 17.9151 1.77375 25.6103 1.18876C33.3054 0.603771 41.2572 1.04395 48.0022 2.42971Z" fill="#AB8823"/>
<path d="M31.6094 6.78836L31.6227 2.75C31.6227 2.76822 31.6237 2.78644 31.6304 2.80466L31.617 6.84302C31.6103 6.8248 31.6094 6.80658 31.6094 6.78836Z" fill="#1E1E1C"/>
<path d="M35.0466 2.77051L35.0332 6.80887C35.0332 6.85298 35.017 6.8971 34.9855 6.94025C34.9588 6.97669 34.9197 7.01313 34.8691 7.04862L34.8825 3.01026C34.9331 2.97478 34.9722 2.93929 34.9989 2.90189C35.0304 2.85874 35.0466 2.81462 35.0466 2.77051Z" fill="#1E1E1C"/>
<path d="M34.8926 7.03371C34.8973 5.68727 34.9012 4.34179 34.9059 2.99535C34.945 2.96466 34.9756 2.93301 34.9985 2.90137C34.9937 4.24781 34.9899 5.59329 34.9851 6.93973C34.9632 6.97137 34.9326 7.00302 34.8926 7.03371Z" fill="#030304"/>
<path d="M34.8925 7.03445C34.8925 7.03445 34.8906 7.03541 34.8906 7.03637C34.8954 5.68993 34.8992 4.34445 34.904 2.99801C34.904 2.99801 34.9059 2.99705 34.9059 2.99609C34.9011 4.34253 34.8973 5.68801 34.8925 7.03445Z" fill="#030304"/>
<path d="M34.8902 7.03641C34.8844 7.0412 34.8778 7.046 34.8711 7.04983L34.8844 3.01147C34.8911 3.00668 34.8968 3.00188 34.9035 2.99805C34.8988 4.34449 34.8949 5.68997 34.8902 7.03641Z" fill="#030304"/>
<path d="M31.9387 3.08088L31.9253 7.11924C31.8776 7.09527 31.8356 7.07321 31.7984 7.04923C31.7498 7.01759 31.7078 6.98114 31.6782 6.94854C31.6496 6.91497 31.6267 6.87757 31.6172 6.84305L31.6305 2.80469C31.6401 2.83921 31.663 2.87661 31.6916 2.91018C31.7212 2.94374 31.7631 2.97923 31.8118 3.01087C31.849 3.03485 31.891 3.05691 31.9387 3.08088Z" fill="#1E1E1C"/>
<path d="M32.7976 3.29012L32.7843 7.32848C32.6574 7.31601 32.5353 7.29683 32.4218 7.27286C32.2711 7.24217 32.1414 7.20381 32.0288 7.16257C31.9945 7.1501 31.9573 7.1338 31.9258 7.11942L31.9391 3.08105C31.9706 3.09544 32.0069 3.11174 32.0422 3.12421C32.1547 3.16641 32.2844 3.20381 32.4352 3.2345C32.5496 3.25751 32.6717 3.27765 32.7976 3.29012Z" fill="#1E1E1C"/>
<path d="M32.9845 3.30634L32.9712 7.3447C32.912 7.34087 32.8472 7.33511 32.7852 7.3284L32.7985 3.29004C32.8605 3.29675 32.9254 3.30251 32.9845 3.30634Z" fill="#1E1E1C"/>
<path d="M33.9298 3.28223L33.9164 7.32059C33.739 7.34456 33.552 7.35511 33.3574 7.35607L33.3708 3.31771C33.5654 3.31675 33.7514 3.30524 33.9298 3.28223Z" fill="#1E1E1C"/>
<path d="M33.3713 3.31815L33.358 7.35651C33.2912 7.35651 33.2254 7.35651 33.1624 7.35459C33.0995 7.35267 33.0365 7.35075 32.9707 7.345L32.9841 3.30664C33.0499 3.31144 33.1128 3.31335 33.1758 3.31623C33.2387 3.31815 33.3046 3.31815 33.3713 3.31815Z" fill="#1E1E1C"/>
<path d="M33.3691 3.33724C33.5571 3.33436 33.7478 3.3219 33.9281 3.30176C33.7536 3.32381 33.5637 3.33628 33.3691 3.33724Z" fill="#1E1E1C"/>
<path d="M33.9278 3.30078L33.9145 7.33914C33.7399 7.3612 33.5501 7.37367 33.3555 7.37462L33.3688 3.33626C33.5634 3.33531 33.7532 3.32188 33.9278 3.30078Z" fill="#1E1E1C"/>
<path d="M34.1853 3.38613C34.0966 3.35544 34.0098 3.32667 33.9277 3.30078C34.0088 3.32667 34.0956 3.35544 34.1853 3.38613Z" fill="#1E1E1C"/>
<path d="M35.4141 8.07156C35.4141 8.07156 35.4141 8.06581 35.4141 8.06293C35.4188 6.71937 35.4226 5.37677 35.4274 4.0332C35.4341 4.03992 35.4408 4.04759 35.4465 4.0543C35.4417 5.40074 35.4379 6.74622 35.4331 8.09266C35.4274 8.08499 35.4207 8.07828 35.4141 8.07156Z" fill="#1E1E1C"/>
<path d="M35.4321 8.09305C35.4178 8.05469 35.4321 7.99907 35.4321 7.95879C35.436 6.65742 35.4407 5.35605 35.4445 4.05469C35.4579 4.07003 35.4703 4.08633 35.4808 4.10168C35.476 5.44812 35.4722 6.7936 35.4674 8.14004C35.4569 8.12469 35.4445 8.10839 35.4312 8.09305H35.4321Z" fill="#1E1E1C"/>
<path d="M35.5184 8.22977C35.5165 8.2173 35.5184 8.19908 35.5184 8.18661C35.5232 6.85456 35.527 5.52346 35.5318 4.19141C35.5366 4.20291 35.5394 4.21538 35.5423 4.22689L35.5289 8.26525C35.5261 8.25374 35.5222 8.24127 35.5184 8.22977Z" fill="#1E1E1C"/>
<path d="M35.5427 4.2304L35.5293 8.26876C35.5293 8.26876 35.5293 8.26684 35.5293 8.26492L35.5427 4.22656C35.5427 4.22656 35.5427 4.22848 35.5427 4.2304Z" fill="#1E1E1C"/>
<path d="M35.5503 4.2928L35.5369 8.33116C35.5369 8.31007 35.5341 8.28897 35.5293 8.26883L35.5427 4.23047C35.5474 4.25157 35.5503 4.27267 35.5503 4.2928Z" fill="#1E1E1C"/>
<path d="M35.5511 4.30451L35.5377 8.34287C35.5482 7.9046 34.5714 7.52771 33.918 7.31961L33.9313 3.28125C34.5838 3.48839 35.5615 3.86624 35.5511 4.30451Z" fill="#1E1E1C"/>
<path d="M34.185 3.38613L34.1716 7.42449C34.0829 7.3938 33.9961 7.36503 33.9141 7.33914L33.9274 3.30078C34.0085 3.32667 34.0953 3.35544 34.185 3.38613Z" fill="#1E1E1C"/>
<path d="M34.2148 3.39629L34.2014 7.43465C34.1919 7.43081 34.1814 7.42794 34.1719 7.4241L34.1852 3.38574C34.1948 3.38958 34.2053 3.39246 34.2148 3.39629Z" fill="#1E1E1C"/>
<path d="M34.3214 3.43484L34.308 7.4732C34.2718 7.45978 34.2365 7.44731 34.2012 7.43484L34.2145 3.39648C34.2498 3.40895 34.2851 3.42142 34.3214 3.43484Z" fill="#1E1E1C"/>
<path d="M34.341 3.44226L34.3277 7.48062C34.321 7.4787 34.3153 7.47582 34.3086 7.47391L34.3219 3.43555C34.3286 3.43746 34.3343 3.44034 34.341 3.44226Z" fill="#1E1E1C"/>
<path d="M34.4617 3.48746L34.4483 7.52582C34.4083 7.51047 34.3682 7.49513 34.3281 7.48074L34.3415 3.44238C34.3815 3.45677 34.4216 3.47211 34.4617 3.48746Z" fill="#1E1E1C"/>
<path d="M34.4664 3.48922L34.453 7.52758C34.453 7.52758 34.4502 7.52662 34.4492 7.52566L34.4626 3.4873C34.4626 3.4873 34.4654 3.48826 34.4664 3.48922Z" fill="#1E1E1C"/>
<path d="M34.601 3.54296L34.5876 7.58132C34.5428 7.5631 34.498 7.54488 34.4531 7.52762L34.4665 3.48926C34.5113 3.50652 34.5561 3.52474 34.601 3.54296Z" fill="#1E1E1C"/>
<path d="M34.6012 3.54297L34.5878 7.58133C34.5878 7.58133 34.5869 7.58133 34.5859 7.58133L34.5993 3.54297C34.5993 3.54297 34.6002 3.54297 34.6012 3.54297Z" fill="#1E1E1C"/>
<path d="M35.414 8.0714C35.2461 7.89015 34.9265 7.72232 34.5879 7.5823L34.6012 3.54395C34.9399 3.68396 35.2594 3.85179 35.4273 4.03304C35.4226 5.37948 35.4187 6.72496 35.414 8.0714Z" fill="#1E1E1C"/>
<path d="M35.5184 8.22911C35.507 8.19938 35.4907 8.16965 35.4707 8.13992C35.4755 6.79348 35.4793 5.448 35.4841 4.10156C35.5041 4.13129 35.5203 4.16102 35.5318 4.19075C35.527 5.53719 35.5232 6.88267 35.5184 8.22911Z" fill="#1E1E1C"/>
<path d="M35.5421 4.22676C35.4801 3.97166 35.0585 3.73287 34.6016 3.54395C35.0594 3.73287 35.4801 3.97262 35.5421 4.22676Z" fill="#1E1E1C"/>
<path d="M35.5524 4.27832L35.539 8.31668C35.539 8.32627 35.539 8.3349 35.5371 8.34449L35.5505 4.30613C35.5514 4.29654 35.5524 4.28791 35.5524 4.27832Z" fill="#1E1E1C"/>
<path d="M35.5516 4.27746C35.5516 4.28705 35.5516 4.29568 35.5496 4.30527C35.5506 4.28034 35.5487 4.2554 35.543 4.23047C35.5468 4.24677 35.5516 4.26212 35.5525 4.27842L35.5516 4.27746Z" fill="#1E1E1C"/>
<path d="M36.8463 4.26172L36.8329 8.30008C36.8329 8.32501 36.8329 8.34995 36.8301 8.37584L36.8434 4.33748C36.8453 4.31159 36.8463 4.28665 36.8463 4.26172Z" fill="#1E1E1C"/>
<path d="M36.842 4.33691L36.8287 8.37527C36.821 8.42802 36.8001 8.4846 36.7695 8.54118L36.7829 4.50282C36.8134 4.44624 36.8344 4.39062 36.842 4.33691Z" fill="#1E1E1C"/>
<path d="M49.4948 4.97168L49.4814 9.01004H49.4805L49.4938 4.97168H49.4948Z" fill="#1E1E1C"/>
<path d="M49.4946 4.97168L49.4812 9.01004C49.4612 9.01771 49.4449 9.02634 49.4297 9.03401L49.443 4.99565C49.4574 4.98798 49.4745 4.97935 49.4946 4.97168Z" fill="#1E1E1C"/>
<path d="M49.442 4.99512L49.4287 9.03348H49.4277L49.4411 4.99512H49.442Z" fill="#1E1E1C"/>
<path d="M49.4952 4.97168C49.475 4.9794 49.4587 4.98808 49.4434 4.9958C49.4606 4.98712 49.4779 4.97843 49.4962 4.97168H49.4952Z" fill="#1E1E1C"/>
<path d="M49.4258 9.03543C49.4306 7.68899 49.4344 6.34351 49.4391 4.99707L49.4258 9.03543Z" fill="#1E1E1C"/>
<path d="M49.4246 9.03641C49.4246 9.03641 49.4189 9.03928 49.416 9.0412L49.4294 5.00284C49.4294 5.00284 49.4351 4.99996 49.438 4.99805C49.4332 6.34449 49.4294 7.68997 49.4246 9.03641Z" fill="#1E1E1C"/>
<path d="M49.4386 4.99707C49.4386 4.99707 49.4326 5.00102 49.4297 5.00201C49.4326 5.00003 49.4366 4.99806 49.4395 4.99707H49.4386Z" fill="#1E1E1C"/>
<path d="M49.2559 9.15445C49.2606 7.80801 49.2644 6.46253 49.2692 5.11609C49.3102 5.07677 49.3637 5.03841 49.4304 5.00293L49.4171 9.04129C49.3503 9.07677 49.2969 9.11609 49.2559 9.15445Z" fill="#1E1E1C"/>
<path d="M49.2555 9.15457C49.2555 9.15457 49.246 9.1632 49.2422 9.168L49.2555 5.12964C49.2555 5.12964 49.2641 5.12101 49.2689 5.11621C49.2641 6.46265 49.2603 7.80813 49.2555 9.15457Z" fill="#1E1E1C"/>
<path d="M48.6445 9.64201C48.6493 8.29557 48.6531 6.95009 48.6579 5.60365C48.9078 5.58639 49.1482 5.57008 49.3647 5.55762L49.3514 9.59598C49.1348 9.60749 48.8945 9.62379 48.6445 9.64201Z" fill="#030304"/>
<path d="M49.4384 5.58949L49.425 9.62785C49.1388 9.60675 48.8832 9.62306 48.6113 9.64415L48.6247 5.6058C48.8965 5.5847 49.1522 5.56935 49.4384 5.58949Z" fill="#1E1E1C"/>
<path d="M52.6016 5.30957L52.5882 9.34793C52.5882 9.44671 52.5062 9.54549 52.3383 9.63563C52.2095 9.70372 52.0474 9.75934 51.8633 9.80058L51.8766 5.76222C52.0607 5.72194 52.2229 5.66536 52.3517 5.59727C52.5186 5.50808 52.6016 5.40931 52.6016 5.30957Z" fill="#1E1E1C"/>
<path d="M52.3312 9.63992C52.3198 9.64568 52.3093 9.65143 52.2969 9.65718C52.3016 8.31075 52.3055 6.96526 52.3102 5.61882C52.3217 5.61307 52.3322 5.60732 52.3436 5.60156C52.3388 6.94321 52.335 8.28485 52.3303 9.62746C52.335 8.28581 52.3388 6.94417 52.3436 5.60156C52.3436 5.60156 52.3436 5.60156 52.3446 5.60156C52.3408 6.81278 52.335 8.4287 52.3312 9.63992Z" fill="#030304"/>
<path d="M48.6455 9.64188C48.6322 9.64188 48.6188 9.64379 48.6055 9.64475C48.6102 8.29831 48.6141 6.95283 48.6188 5.60639C48.6322 5.60639 48.6455 5.60447 48.6589 5.60352C48.6541 6.94996 48.6503 8.29544 48.6455 9.64188Z" fill="#030304"/>
<path d="M48.6263 5.60547L48.613 9.64383C48.4088 9.66109 48.2037 9.67835 47.992 9.69945C47.9195 9.70616 47.8479 9.71384 47.7773 9.72055L47.7907 5.68219C47.8613 5.67548 47.9338 5.6678 48.0053 5.66109C48.2171 5.63999 48.4222 5.62273 48.6263 5.60547Z" fill="#1E1E1C"/>
<path d="M48.6045 9.6448C48.6045 9.6448 48.6045 9.6448 48.6035 9.6448L48.6169 5.60645C48.6169 5.60645 48.6169 5.60645 48.6178 5.60645C48.6131 6.95288 48.6092 8.29837 48.6045 9.6448Z" fill="#030304"/>
<path d="M36.7829 4.50195L36.7696 8.54031C36.7533 8.56717 36.7333 8.59594 36.7123 8.62471C36.6913 8.65348 36.6656 8.68033 36.6351 8.71006C36.368 8.96419 35.2881 9.61727 34.5508 10.0517L34.5641 6.01334C35.3015 5.57891 36.3813 4.92583 36.6484 4.6717C36.678 4.64197 36.7047 4.61512 36.7257 4.58635C36.7467 4.55758 36.7657 4.52881 36.7829 4.50195Z" fill="#1E1E1C"/>
<path d="M45.9131 5.97363L45.8997 10.012C45.7576 10.0427 45.6164 10.0743 45.4867 10.1079C45.439 10.1204 45.4008 10.1319 45.3531 10.1434C45.2616 10.1654 45.1767 10.1894 45.0927 10.2163C45.0507 10.2297 45.0097 10.2431 44.9668 10.2565L44.9802 6.21818C45.0221 6.20475 45.0631 6.19133 45.1061 6.1779C45.1891 6.15105 45.2749 6.12803 45.3665 6.10502C45.4142 6.09351 45.4514 6.082 45.5 6.06953C45.6298 6.03597 45.7709 6.00528 45.9131 5.97363Z" fill="#1E1E1C"/>
<path d="M44.9812 6.2168L44.9679 10.2552C44.9326 10.2695 44.8916 10.283 44.842 10.3002C44.7475 10.3328 44.6416 10.377 44.5195 10.4278L44.5329 6.38942C44.654 6.33763 44.7609 6.29448 44.8553 6.26187C44.9049 6.24461 44.9459 6.23118 44.9812 6.2168Z" fill="#1E1E1C"/>
<path d="M23.6788 6.39253L23.6655 10.4309L23.4375 10.428L23.4509 6.38965L23.6788 6.39253Z" fill="#1E1E1C"/>
<path d="M23.502 10.4309C23.5067 9.0845 23.5105 7.73902 23.5153 6.39258C23.5706 6.39258 23.6269 6.39258 23.6832 6.39258L23.6698 10.4309C23.6136 10.4309 23.5582 10.43 23.502 10.4309Z" fill="#1E1E1C"/>
<path d="M36.248 6.54026L36.2346 10.5786L23.6641 10.4309L23.6774 6.39258L36.248 6.54026Z" fill="#1E1E1C"/>
<path d="M36.4757 6.54292L36.4633 10.5813L36.2344 10.5784L36.2477 6.54004L36.4757 6.54292Z" fill="#1E1E1C"/>
<path d="M36.2538 6.54124L36.2414 10.5796L23.6699 10.4319L23.6833 6.39355L36.2538 6.54124Z" fill="#030304"/>
<path d="M23.4503 6.38937L23.4369 10.4277C22.3457 10.4143 21.3126 10.5965 20.7402 10.9024L20.7536 6.86407C21.3269 6.55815 22.359 6.37594 23.4503 6.38937Z" fill="#1E1E1C"/>
<path d="M22.0859 10.5374C22.0907 9.19095 22.0945 7.84547 22.0993 6.49903C22.5371 6.4319 23.0189 6.3945 23.5168 6.39258C23.512 7.73902 23.5082 9.0845 23.5034 10.4309C23.0065 10.4329 22.5238 10.4693 22.0859 10.5374Z" fill="#1E1E1C"/>
<path d="M36.4798 10.5861C36.4169 10.5842 36.353 10.5823 36.2891 10.5813L36.3024 6.54297C36.3663 6.54297 36.4302 6.54585 36.4932 6.54776C36.4884 7.8942 36.4846 9.23968 36.4798 10.5861Z" fill="#1E1E1C"/>
<path d="M36.8865 10.5957C36.7482 10.588 36.607 10.5832 36.4648 10.5813L36.4782 6.54297C36.6203 6.54489 36.7615 6.54968 36.8998 6.55735C36.8951 7.90379 36.8912 9.24927 36.8865 10.5957Z" fill="#1E1E1C"/>
<path d="M44.5338 6.38965L44.5205 10.428C44.467 10.4472 44.4213 10.4673 44.3707 10.4903C44.324 10.5114 44.2734 10.5335 44.22 10.5575C44.1589 10.5862 44.0912 10.6131 44.0254 10.6438L44.0387 6.60542C44.1036 6.57474 44.1713 6.54788 44.2333 6.51911C44.2868 6.49418 44.3373 6.47212 44.3841 6.45198C44.4346 6.42993 44.4804 6.40883 44.5338 6.38965Z" fill="#1E1E1C"/>
<path d="M21.8496 10.5777C21.8544 9.23122 21.8582 7.88574 21.863 6.5393C21.9402 6.52492 22.0194 6.51149 22.0995 6.49902C22.0948 7.84546 22.0909 9.19094 22.0862 10.5374C22.006 10.5499 21.9269 10.5633 21.8496 10.5777Z" fill="#1E1E1C"/>
<path d="M36.8848 10.596C36.8895 9.24954 36.8934 7.90406 36.8981 6.55762C37.0841 6.56817 37.2654 6.58447 37.4409 6.60557C37.4361 7.95201 37.4323 9.29749 37.4275 10.6439C37.252 10.6228 37.0708 10.6065 36.8848 10.596Z" fill="#1E1E1C"/>
<path d="M44.039 6.60547L44.0257 10.6438C43.9866 10.6601 43.9532 10.6784 43.9141 10.6947L43.9274 6.6563C43.9665 6.63999 43.9999 6.62177 44.039 6.60547Z" fill="#1E1E1C"/>
<path d="M37.4277 10.6438C37.4325 9.29739 37.4363 7.95191 37.4411 6.60547C37.6376 6.62944 37.8265 6.66013 38.0058 6.69657C38.1737 6.7311 38.3311 6.77138 38.4761 6.81549C38.4713 8.16193 38.4675 9.50741 38.4627 10.8538C38.3177 10.8088 38.1603 10.7695 37.9924 10.7349C37.8131 10.6985 37.6242 10.6678 37.4277 10.6438Z" fill="#1E1E1C"/>
<path d="M36.4795 10.5862C36.4804 10.1853 36.4823 9.78544 36.4833 9.38458C36.4852 8.87439 36.4871 8.3642 36.4881 7.85497C36.489 7.41959 36.4919 6.9842 36.4919 6.54785C36.9669 6.5632 37.4219 6.61115 37.8302 6.68691C37.8254 8.03335 37.8216 9.37883 37.8168 10.7253C37.4086 10.6505 36.9536 10.6025 36.4785 10.5862H36.4795Z" fill="#1E1E1C"/>
<path d="M37.8184 10.7239C37.8231 9.37747 37.8269 8.03199 37.8317 6.68555C37.8813 6.69418 37.93 6.70377 37.9777 6.71432C38.0359 6.72583 38.0931 6.73829 38.1484 6.75172C38.1436 8.09816 38.1398 9.44364 38.1351 10.7901C38.0788 10.7767 38.0225 10.7642 37.9643 10.7527C37.9166 10.7431 37.868 10.7335 37.8184 10.7239Z" fill="#1E1E1C"/>
<path d="M43.9258 6.65625L43.9125 10.6946C43.7961 10.7474 43.6778 10.802 43.5586 10.8567L43.5719 6.81832C43.6912 6.76366 43.8104 6.709 43.9258 6.65625Z" fill="#1E1E1C"/>
<path d="M20.7536 6.86426L20.7403 10.9026L20.6191 10.9678L20.6315 6.92851L20.7536 6.86426Z" fill="#1E1E1C"/>
<path d="M20.6777 10.9409C20.6825 9.59444 20.6863 8.24896 20.6911 6.90252C20.9916 6.75004 21.396 6.62633 21.8634 6.53906C21.8587 7.8855 21.8549 9.23098 21.8501 10.5774C21.3827 10.6647 20.9782 10.7884 20.6777 10.9409Z" fill="#1E1E1C"/>
<path d="M20.6769 10.9407C20.6655 10.9465 20.654 10.9522 20.6426 10.9589L20.6559 6.92057C20.6674 6.91481 20.6788 6.90906 20.6903 6.90234C20.6855 8.24878 20.6817 9.59426 20.6769 10.9407Z" fill="#1E1E1C"/>
<path d="M23.456 6.39015L23.6839 6.39303C22.4582 6.37672 21.3001 6.57907 20.6562 6.91952L20.7593 6.8639C21.3326 6.55798 22.3609 6.37768 23.456 6.38919V6.39015Z" fill="#1E1E1C"/>
<path d="M38.9103 11.0274C38.7796 10.9641 38.6289 10.9066 38.4629 10.8548C38.4677 9.50833 38.4715 8.16285 38.4762 6.81641C38.6432 6.86819 38.7939 6.92573 38.9236 6.98903C38.9189 8.33547 38.915 9.68095 38.9103 11.0274Z" fill="#1E1E1C"/>
<path d="M38.1367 10.7903C38.1415 9.44387 38.1453 8.09839 38.1501 6.75195C38.4544 6.82292 38.7253 6.91019 38.9494 7.01088C38.9447 8.35732 38.9409 9.7028 38.9361 11.0492C38.7119 10.9485 38.441 10.8613 38.1367 10.7903Z" fill="#1E1E1C"/>
<path d="M38.9355 11.0491C38.9403 9.70266 38.9441 8.35718 38.9489 7.01074C38.9985 7.0328 39.0452 7.05582 39.0901 7.07883C39.0853 8.42527 39.0815 9.77075 39.0767 11.1172C39.0319 11.0942 38.9851 11.0712 38.9355 11.0491Z" fill="#1E1E1C"/>
<path d="M39.0762 11.1184C39.0809 9.772 39.0848 8.42652 39.0895 7.08008C39.0857 8.2913 39.08 9.90722 39.0762 11.1184Z" fill="#1E1E1C"/>
<path d="M39.091 7.08001C38.8058 6.93041 38.4233 6.80574 37.9787 6.71463C37.4808 6.61202 36.9056 6.5516 36.3027 6.54297L36.4887 6.54489C37.0344 6.55064 37.5552 6.60434 38.0064 6.69641C38.4557 6.78943 38.8325 6.91986 39.091 7.07905V7.08001Z" fill="#1E1E1C"/>
<path d="M38.9102 11.0276C38.9149 9.68118 38.9187 8.3357 38.9235 6.98926C38.9836 7.01899 39.0399 7.04967 39.0914 7.08132L39.078 11.1197C39.0265 11.088 38.9703 11.0573 38.9102 11.0276Z" fill="#1E1E1C"/>
<path d="M43.5714 6.81836L43.5581 10.8567C43.4093 10.9277 43.2605 10.9977 43.1117 11.0687C43.021 11.1128 42.9485 11.1473 42.8789 11.1799L42.8923 7.14154C42.9609 7.1099 43.0344 7.07537 43.125 7.0303C43.2738 6.95933 43.4226 6.88933 43.5714 6.81836Z" fill="#1E1E1C"/>
<path d="M39.1993 7.14625L39.1859 11.1846L39.0781 11.1184L39.0905 7.08008L39.1993 7.14625Z" fill="#1E1E1C"/>
<path d="M42.8929 7.1416L42.8795 11.18C42.829 11.202 42.7823 11.2231 42.7422 11.2452L42.7555 7.20681C42.7956 7.18476 42.8423 7.16462 42.8929 7.1416Z" fill="#1E1E1C"/>
<path d="M42.7556 7.20605L42.7423 11.2444C42.6736 11.277 42.6107 11.3106 42.541 11.3422L42.5544 7.30387C42.624 7.27127 42.687 7.2377 42.7556 7.20605Z" fill="#1E1E1C"/>
<path d="M42.5552 7.30469L42.5418 11.343C42.455 11.3852 42.3959 11.4169 42.3301 11.4476L42.3434 7.40922C42.4083 7.37853 42.4674 7.34688 42.5552 7.30469Z" fill="#1E1E1C"/>
<path d="M42.3426 7.40918L42.3292 11.4475C42.2977 11.46 42.272 11.4744 42.25 11.4859C42.2023 11.5118 42.147 11.5358 42.1031 11.5597C42.0592 11.5837 42.0087 11.6058 41.9677 11.6278C41.9228 11.6518 41.8761 11.6719 41.8398 11.6921L41.8532 7.65373C41.8904 7.63359 41.9371 7.61345 41.981 7.58947C42.0211 7.56741 42.0716 7.54536 42.1165 7.52138C42.1613 7.49741 42.2157 7.47343 42.2634 7.44754C42.2853 7.43603 42.3111 7.42165 42.3426 7.40918Z" fill="#1E1E1C"/>
<path d="M29.5684 11.8932C29.5731 10.5468 29.5769 9.20131 29.5817 7.85487C29.6008 7.84432 29.6208 7.83281 29.6409 7.82227C30.3725 7.43099 31.6507 7.25549 32.5054 7.43195C32.6199 7.45593 32.721 7.4847 32.8088 7.5173C32.804 8.86374 32.8002 10.2092 32.7954 11.5557C32.7086 11.5231 32.6075 11.4943 32.4921 11.4703C31.6364 11.2948 30.3591 11.4703 29.6275 11.8606C29.6075 11.8712 29.5874 11.8827 29.5684 11.8932Z" fill="#FDE249"/>
<path d="M32.7949 11.555C32.7997 10.2085 32.8035 8.86304 32.8083 7.5166C33.0773 7.61826 33.2137 7.76115 33.2127 7.92034L33.1994 11.9587C33.1994 11.8005 33.063 11.6576 32.7949 11.555Z" fill="#FDE249"/>
<path d="M25.4839 12.2414L25.4705 16.2798L18.5977 12.0784L18.611 8.04004L25.4839 12.2414Z" fill="#FDE249"/>
<path d="M20.6312 6.92871L20.6188 10.968L18.5918 12.0555L18.6052 8.01718L20.6312 6.92871Z" fill="#1E1E1C"/>
<path d="M29.5687 11.8929C29.2769 12.0607 29.1338 12.2381 29.1328 12.3992L29.1462 8.36085C29.1462 8.19973 29.2902 8.02232 29.5821 7.85449C29.5773 9.20093 29.5735 10.5464 29.5687 11.8929Z" fill="#FDE249"/>
<path d="M33.2147 7.91992L33.2014 11.9583C33.2014 12.129 33.0401 12.3179 32.712 12.4934C31.9785 12.8847 30.7012 13.0592 29.8465 12.8837C29.3781 12.7878 29.1377 12.6056 29.1387 12.3956L29.152 8.35723C29.152 8.56725 29.3924 8.74946 29.8598 8.84536C30.7145 9.02086 31.9908 8.84536 32.7254 8.45505C33.0535 8.27955 33.2147 8.09062 33.2147 7.91992Z" fill="#1E1E1C"/>
<path d="M32.5045 7.43096C33.3535 7.6055 33.4556 8.0639 32.7239 8.45517C31.9904 8.84644 30.7131 9.02098 29.8584 8.84549C29.0104 8.67095 28.9083 8.2135 29.638 7.82223C30.3716 7.43 31.6489 7.2545 32.5045 7.43096Z" fill="#1E1E1C"/>
<path d="M38.4603 12.6959C37.6046 12.5204 36.3273 12.6959 35.5957 13.0862L35.6091 9.04785C36.3407 8.65658 37.6189 8.48108 38.4736 8.65754C38.5938 8.68247 38.6988 8.7122 38.7894 8.74768C38.7846 10.0941 38.7808 11.4396 38.776 12.786C38.6864 12.7506 38.5805 12.7208 38.4603 12.6959Z" fill="#FDE249"/>
<path d="M35.541 13.1169C35.5458 11.7705 35.5496 10.425 35.5544 9.07854C35.5725 9.06799 35.5906 9.05744 35.6107 9.04785L35.5973 13.0689V13.0862C35.5782 13.0968 35.5591 13.1063 35.541 13.1169Z" fill="#FDE249"/>
<path d="M25.5898 12.8768C25.5316 12.9085 25.5039 12.944 25.5039 12.9814L25.5173 8.94301C25.5173 8.90465 25.5449 8.86916 25.6031 8.83847C25.8654 8.69846 26.6429 8.70134 27.3411 8.84519C27.6912 8.91711 27.9545 9.01014 28.0976 9.10316C28.0928 10.4496 28.089 11.7951 28.0842 13.1415C27.9411 13.0485 27.6769 12.9555 27.3278 12.8835C26.6295 12.7397 25.8521 12.7359 25.5898 12.8768Z" fill="#FDE249"/>
<path d="M38.7754 12.7864C38.7802 11.44 38.784 10.0945 38.7887 8.74805C39.0492 8.8497 39.1818 8.99067 39.1818 9.14699L39.1684 13.1854C39.1684 13.029 39.0358 12.8881 38.7754 12.7864Z" fill="#FDE249"/>
<path d="M28.1432 13.185C28.127 13.1707 28.1079 13.1563 28.0859 13.1429C28.0907 11.7964 28.0945 10.4509 28.0993 9.10449C28.1212 9.11888 28.1403 9.13326 28.1565 9.14669C28.1518 10.4931 28.1479 11.8386 28.1432 13.185Z" fill="#FDE249"/>
<path d="M28.1426 13.1848C28.1473 11.8384 28.1512 10.4929 28.1559 9.14648C28.1922 9.17813 28.2141 9.20978 28.2189 9.24047C28.2141 10.5869 28.2103 11.9324 28.2055 13.2788C28.2008 13.2491 28.1788 13.2175 28.1426 13.1848Z" fill="#FDE249"/>
<path d="M28.208 13.293C28.208 13.293 28.208 13.2834 28.207 13.2796C28.2118 11.9331 28.2156 10.5877 28.2204 9.24121C28.2204 9.24601 28.2213 9.2508 28.2213 9.25464C28.2175 10.4659 28.2118 12.0818 28.208 13.293Z" fill="#FDE249"/>
<path d="M28.2193 9.25293L28.2059 13.2913C28.2059 13.3296 28.1783 13.3651 28.1191 13.3968L28.1325 9.35842C28.1907 9.32677 28.2193 9.29129 28.2193 9.25293Z" fill="#E6155F"/>
<path d="M25.5039 12.9827L25.5173 8.94434C25.5173 9.07764 25.853 9.24067 26.3958 9.35191C27.0941 9.49576 27.8715 9.4996 28.1338 9.35863L28.1205 13.397C27.8581 13.537 27.0817 13.5332 26.3825 13.3903C25.8397 13.279 25.5039 13.116 25.5039 12.9827Z" fill="#E6155F"/>
<path d="M27.3419 8.84521C28.0402 8.98906 28.396 9.2173 28.1337 9.35827C27.8713 9.49925 27.0949 9.49445 26.3957 9.35156C25.6974 9.20771 25.3416 8.97947 25.6039 8.83945C25.8662 8.69944 26.6437 8.70231 27.3419 8.84616V8.84521Z" fill="#E6155F"/>
<path d="M35.5404 13.1175C35.2466 13.2853 35.1016 13.4637 35.1016 13.6257L35.1149 9.58737C35.1149 9.42626 35.2599 9.24789 35.5537 9.0791C35.5489 10.4255 35.5451 11.771 35.5404 13.1175Z" fill="#FDE249"/>
<path d="M43.9665 10.0619L43.9532 14.1002L39.1855 11.1848L39.1989 7.14648L43.9665 10.0619Z" fill="#1E1E1C"/>
<path d="M19.9948 11.0838L19.9815 15.1222L16.6523 13.0872L16.6657 9.04883L19.9948 11.0838Z" fill="#1E1E1C"/>
<path d="M22.9596 12.8965L22.9462 16.9349L19.9824 15.1223L19.9958 11.084L22.9596 12.8965Z" fill="#1E1E1C"/>
<path d="M21.6517 14.2912L21.6384 18.3296L14.7598 14.1272L14.7731 10.0889L21.6517 14.2912Z" fill="#FDE249"/>
<path d="M16.6655 9.04883L16.6521 13.0872L14.752 14.1037L14.7653 10.0654L16.6655 9.04883Z" fill="#1E1E1C"/>
<path d="M39.1835 9.14551L39.1701 13.1839C39.1701 13.3546 39.0089 13.5435 38.6807 13.719C37.9472 14.1103 36.6699 14.2848 35.8152 14.1093C35.3469 14.0134 35.1065 13.8312 35.1074 13.6212L35.1208 9.58281C35.1208 9.79283 35.3612 9.97505 35.8286 10.0709C36.6833 10.2464 37.9606 10.0709 38.6941 9.68063C39.0222 9.50513 39.1835 9.31621 39.1835 9.14551Z" fill="#1E1E1C"/>
<path d="M45.1923 10.8105L45.1789 14.8489L43.9551 14.0999L43.9684 10.0615L45.1923 10.8105Z" fill="#1E1E1C"/>
<path d="M35.1172 14.9506C35.122 13.6042 35.1258 12.2587 35.1305 10.9123C35.1334 10.8768 35.1611 10.8432 35.2164 10.8135C35.2116 12.1599 35.2078 13.5054 35.203 14.8518C35.1477 14.8816 35.12 14.9151 35.1172 14.9506Z" fill="#FDE249"/>
<path d="M35.1172 14.9505C35.1172 14.9505 35.1172 14.9543 35.1172 14.9562L35.1305 10.9179C35.1305 10.9179 35.1305 10.914 35.1305 10.9121C35.1267 12.0466 35.1229 13.1802 35.1191 14.3147C35.1191 14.4201 35.1191 14.5256 35.1181 14.6321C35.1181 14.657 35.1181 14.6906 35.1181 14.7155C35.1181 14.7404 35.1181 14.7731 35.1181 14.797C35.1181 14.8085 35.1181 14.8248 35.1181 14.8373C35.1181 14.8747 35.1191 14.9131 35.1181 14.9505H35.1172Z" fill="#FDE249"/>
<path d="M36.9411 14.8582C36.2429 14.7143 35.4654 14.7105 35.2031 14.8514C35.2079 13.505 35.2117 12.1595 35.2165 10.8131C35.4788 10.6731 36.2562 10.6759 36.9545 10.8198C37.1262 10.8553 37.2779 10.8956 37.4038 10.9387C37.399 12.2852 37.3952 13.6306 37.3904 14.9771C37.2645 14.9339 37.1128 14.8936 36.9411 14.8582Z" fill="#FDE249"/>
<path d="M37.818 15.253C37.8037 15.1658 37.6491 15.066 37.3906 14.9778C37.3954 13.6314 37.3992 12.2859 37.404 10.9395C37.6625 11.0277 37.817 11.1265 37.8313 11.2147C37.8266 12.5611 37.8227 13.9066 37.818 15.253Z" fill="#FDE249"/>
<path d="M37.8193 15.2666C37.8193 15.2666 37.8193 15.257 37.8184 15.2532C37.8231 13.9068 37.8269 12.5613 37.8317 11.2148C37.8317 11.2196 37.8327 11.2244 37.8327 11.2283C37.8289 12.4395 37.8231 14.0554 37.8193 15.2666Z" fill="#FDE249"/>
<path d="M37.8326 11.2275L37.8192 15.2659C37.8192 15.3043 37.7916 15.3397 37.7324 15.3714L37.7458 11.333C37.804 11.3014 37.8326 11.2659 37.8326 11.2275Z" fill="#E6155F"/>
<path d="M45.6184 11.3696L45.6051 15.408C45.6051 15.315 45.5717 15.222 45.504 15.1309C45.4343 15.034 45.3256 14.9391 45.1777 14.8489L45.1911 10.8105C45.3389 10.9007 45.4467 10.9956 45.5173 11.0925C45.5851 11.1836 45.6194 11.2766 45.6184 11.3696Z" fill="#1E1E1C"/>
<path d="M35.1172 14.9573L35.1305 10.9189C35.1305 11.0522 35.4663 11.2153 36.0091 11.3265C36.7073 11.4694 37.4838 11.4732 37.7461 11.3332L37.7328 15.3716C37.4705 15.5116 36.694 15.5078 35.9957 15.3649C35.453 15.2536 35.1172 15.0906 35.1172 14.9573Z" fill="#E6155F"/>
<path d="M36.9552 10.8198C37.6535 10.9627 38.0093 11.1919 37.746 11.3329C37.4827 11.4739 36.7072 11.4691 36.0089 11.3262C35.3107 11.1823 34.9549 10.9541 35.2172 10.8141C35.4795 10.674 36.2569 10.6769 36.9552 10.8208V10.8198Z" fill="#E6155F"/>
<path d="M45.6184 11.3701L45.605 15.4085C45.605 15.6156 45.4333 15.8228 45.0918 16.005L45.1052 11.9666C45.4457 11.7844 45.6174 11.5773 45.6184 11.3701Z" fill="#FDE249"/>
<path d="M45.5172 11.0935C45.7375 11.3879 45.5992 11.7034 45.106 11.9672L42.9769 13.1055L28.8811 12.9396C28.1675 12.931 27.4874 12.8609 26.9008 12.7401C26.3141 12.6193 25.8219 12.4495 25.4842 12.2414L18.6113 8.04004L20.6231 6.93815C21.2737 6.59003 22.4384 6.38672 23.6794 6.40111L36.25 6.54879C36.87 6.55551 37.4624 6.61688 37.9727 6.72237C38.4831 6.8269 38.9123 6.97555 39.2071 7.1568L43.9747 10.0722L45.1995 10.8211C45.3416 10.9084 45.4475 11.0005 45.5181 11.0935H45.5172ZM32.7205 8.45721C33.456 8.06402 33.3549 7.60561 32.5049 7.43108C31.655 7.25654 30.372 7.43108 29.6404 7.82139C28.9049 8.21458 29.0003 8.67202 29.855 8.84752C30.7097 9.02302 31.9889 8.84752 32.7205 8.45721ZM35.6089 9.04795C34.8735 9.44115 34.9689 9.89859 35.8236 10.0741C36.6726 10.2486 37.9575 10.0741 38.6891 9.68377C39.4208 9.29346 39.3235 8.83218 38.4735 8.65764C37.6179 8.48214 36.3406 8.65764 35.6089 9.04795ZM26.3952 9.35196C27.0934 9.49581 27.8709 9.49964 28.1332 9.35867C28.3955 9.2177 28.0397 8.98945 27.3415 8.8456C26.6432 8.70175 25.8658 8.69792 25.6034 8.83889C25.3411 8.97986 25.6969 9.20811 26.3952 9.35196ZM36.0086 11.3265C36.7069 11.4704 37.4834 11.4733 37.7457 11.3333C38.008 11.1932 37.6522 10.964 36.9549 10.8202C36.2567 10.6763 35.4792 10.6725 35.2169 10.8135C34.9546 10.9545 35.3104 11.1827 36.0086 11.3256" fill="#FDE249"/>
<path d="M38.4733 8.65654C39.3222 8.83108 39.4243 9.28948 38.6927 9.68076C37.9591 10.072 36.6818 10.2466 35.8271 10.0711C34.9791 9.89653 34.8771 9.43909 35.6068 9.04782C36.3403 8.65558 37.6176 8.48009 38.4733 8.65654Z" fill="#1E1E1C"/>
<path d="M28.8809 12.9394L28.8676 16.9777C28.154 16.9691 27.4739 16.8991 26.8872 16.7783C26.3006 16.6574 25.8084 16.4877 25.4707 16.2796L25.4841 12.2412C25.8217 12.4484 26.314 12.6191 26.9006 12.7399C27.4873 12.8607 28.1674 12.9307 28.8809 12.9394Z" fill="#FDE249"/>
<path d="M42.9764 13.1044L42.963 17.1428L28.8672 16.9778L28.8796 12.9395L42.9764 13.1044Z" fill="#FDE249"/>
<path d="M45.1073 11.9658L45.094 16.0051L42.9648 17.1425L42.9782 13.1042L45.1073 11.9658Z" fill="#FDE249"/>
<path d="M28.2233 13.9773L28.2099 18.0156C27.1244 18.0032 26.0665 17.8957 25.145 17.7059C24.2235 17.5169 23.4623 17.2513 22.9453 16.9339L22.9587 12.8955C23.4747 13.212 24.2369 13.4776 25.1584 13.6675C26.0798 13.8574 27.1377 13.9648 28.2233 13.9773Z" fill="#1E1E1C"/>
<path d="M41.0438 14.1387L41.0304 18.177L28.209 18.0159L28.2223 13.9775L41.0438 14.1387Z" fill="#1E1E1C"/>
<path d="M25.0469 14.9882L25.0336 19.0266C24.3201 19.0179 23.6399 18.9479 23.0533 18.8271C22.4666 18.7062 21.9744 18.5365 21.6367 18.3284L21.6501 14.29C21.9878 14.4972 22.48 14.6679 23.0666 14.7887C23.6533 14.9096 24.3334 14.9796 25.0469 14.9882Z" fill="#FDE249"/>
<path d="M39.1453 15.1542L39.132 19.1925L25.0352 19.0266L25.0485 14.9883L39.1453 15.1542Z" fill="#FDE249"/>
<path d="M41.0358 14.1387L41.0225 18.177L39.1309 19.1926L39.1442 15.1543L41.0358 14.1387Z" fill="#FDE249"/>
<path d="M16.6517 9.05762L19.9808 11.0926L22.9446 12.9051C23.4606 13.2216 24.2228 13.4872 25.1443 13.6771C26.0658 13.8661 27.1236 13.9744 28.2092 13.9869L41.0373 14.1394L39.1447 15.155L25.0489 14.989C24.3354 14.9804 23.6552 14.9104 23.0686 14.7896C22.4819 14.6687 21.9897 14.499 21.652 14.2909L14.7734 10.0885L16.6517 9.05762Z" fill="#FDE249"/>
<path d="M47.0754 11.6219C46.9762 11.831 46.7502 12.0362 46.3944 12.2088L41.0973 15.0408L39.8153 15.7265C39.7743 15.7485 39.7313 15.7667 39.6941 15.7869C39.5816 15.8425 39.4919 15.8818 39.3965 15.9192C39.2057 15.995 39.0102 16.0592 38.7984 16.1187C38.2299 16.276 37.5583 16.3891 36.8343 16.4515C36.6559 16.4668 36.469 16.4774 36.2858 16.486C36.0035 16.4994 35.7192 16.5042 35.434 16.4994L22.8625 16.3517C22.8119 16.3517 22.7585 16.3498 22.7022 16.3489C22.5343 16.345 22.3712 16.3383 22.2119 16.3297C22.1051 16.3239 22.003 16.3172 21.8933 16.3086C21.7903 16.3009 21.6854 16.2904 21.5804 16.2798C21.4202 16.2635 21.2685 16.2463 21.1149 16.2252C20.8641 16.1897 20.6237 16.1484 20.389 16.1005C20.2993 16.0823 20.2068 16.0602 20.12 16.0401C20.0332 16.0199 19.9445 15.996 19.8615 15.9729C19.6955 15.9279 19.5372 15.879 19.3855 15.8262C19.3101 15.7994 19.2405 15.7744 19.169 15.7466C18.9601 15.6622 18.7769 15.573 18.6205 15.4781L12.628 11.8128C12.5527 11.7648 12.4878 11.7188 12.421 11.6689C12.3552 11.62 12.3047 11.5711 12.257 11.5203C12.1816 11.4445 12.1311 11.3688 12.0919 11.292C12.0738 11.2527 12.0614 11.2144 12.05 11.177C12.0423 11.1587 12.0376 11.1386 12.0338 11.1194C12.0147 11.0226 12.0214 10.9247 12.0595 10.8288C12.0738 10.7905 12.0919 10.7531 12.1158 10.7147C12.1349 10.6773 12.1635 10.6399 12.1931 10.6016C12.2083 10.5805 12.2293 10.5594 12.2465 10.5411C12.277 10.5114 12.2961 10.497 12.3142 10.4788C12.3695 10.427 12.4172 10.3877 12.4726 10.3493C12.5079 10.3215 12.5346 10.3071 12.5536 10.2918C12.6032 10.2611 12.6233 10.2458 12.6452 10.2343C12.7015 10.1997 12.7349 10.1815 12.7683 10.1643L14.3241 9.33184L16.6011 8.11487L18.1569 7.28341L19.3473 6.64664C19.4284 6.60348 19.5162 6.56128 19.6097 6.52005C19.728 6.47018 19.8233 6.43278 19.9245 6.39634C20.141 6.32057 20.3241 6.26783 20.5178 6.217C20.597 6.19782 20.6742 6.17768 20.7582 6.15946C20.7982 6.15179 20.8431 6.14124 20.8822 6.13357C20.9709 6.11343 21.0606 6.09617 21.1607 6.07891C21.3515 6.04438 21.5499 6.01369 21.756 5.9878C21.8246 5.97725 21.8914 5.96862 21.963 5.96191C22.0154 5.95615 22.0679 5.9504 22.1203 5.94464C22.1728 5.93889 22.231 5.9341 22.2835 5.9293C22.3846 5.91971 22.4905 5.91204 22.5944 5.90533C22.6526 5.90053 22.7013 5.89765 22.7556 5.89478C22.8653 5.88998 22.9741 5.88519 23.079 5.88231C23.2994 5.8756 23.5188 5.87464 23.741 5.8756L33.1217 5.98588C33.4079 5.81518 33.7761 5.60036 34.1281 5.38555C34.1853 5.35102 34.2454 5.31362 34.3017 5.2791C34.4133 5.20621 34.5268 5.13621 34.6365 5.06908C34.6556 5.05373 34.6823 5.04031 34.7014 5.02496C34.7672 4.98085 34.8359 4.94057 34.8969 4.89837C34.9132 4.88495 34.9389 4.87152 34.9561 4.8581C35.0229 4.81782 35.082 4.77754 35.1326 4.7411C35.2022 4.69506 35.2575 4.65191 35.309 4.61643C35.3806 4.55985 35.4054 4.53779 35.4273 4.51765C35.5027 4.44572 35.5418 4.3738 35.5513 4.30379C35.5618 3.86553 34.585 3.48864 33.9316 3.28054C33.7542 3.30451 33.5672 3.31506 33.3726 3.31602C33.3058 3.31602 33.24 3.31602 33.1771 3.3141C33.1141 3.31218 33.0511 3.31026 32.9853 3.30451C32.9262 3.30067 32.8613 3.29492 32.7993 3.28821C32.6724 3.27574 32.5503 3.25656 32.4368 3.23259C32.2861 3.2019 32.1564 3.16354 32.0438 3.1223C32.0095 3.10983 31.9723 3.09353 31.9408 3.07914C31.8931 3.05517 31.8511 3.03311 31.8139 3.00914C31.7653 2.97749 31.7233 2.94105 31.6937 2.90844C31.6651 2.87488 31.6422 2.83748 31.6327 2.80295C31.6231 2.7761 31.625 2.74925 31.626 2.7224C31.6317 2.68787 31.6508 2.65143 31.6756 2.61499C31.7185 2.56128 31.7834 2.50854 31.8759 2.45867C31.9828 2.40113 32.1163 2.35222 32.2728 2.3129C32.4044 2.28221 32.4445 2.27454 32.4817 2.26879C32.5551 2.25632 32.6276 2.24385 32.703 2.23522C32.7554 2.22947 32.8079 2.22371 32.8604 2.21796C33.0158 2.20645 33.0998 2.20166 33.1799 2.19878C33.2343 2.1959 33.2848 2.1959 33.3421 2.19686C33.5348 2.2007 33.6101 2.20549 33.6845 2.20933C34.0184 2.24481 34.1281 2.26207 34.2302 2.28317C34.8798 2.41647 35.1688 2.66965 35 2.89981C34.9733 2.93625 34.9341 2.9727 34.8836 3.00818C35 3.04654 35.1278 3.08874 35.2508 3.13285C35.2938 3.15011 35.3348 3.16354 35.3777 3.1808C35.4063 3.19231 35.4349 3.20382 35.4636 3.21436C35.5561 3.24985 35.6486 3.28533 35.7326 3.32465C35.8184 3.36397 35.9081 3.40425 35.9901 3.44548C36.0702 3.48672 36.158 3.52988 36.2315 3.57495C36.2534 3.59029 36.2839 3.60468 36.3059 3.62002C36.3545 3.65167 36.4032 3.68332 36.4461 3.714C36.5157 3.761 36.573 3.81086 36.6226 3.85977C36.6426 3.87991 36.6664 3.89909 36.6807 3.91827C36.7179 3.95663 36.7456 3.99499 36.7695 4.03527C36.8143 4.09665 36.8353 4.1609 36.8458 4.22611C36.8458 4.2616 36.8458 4.29708 36.8429 4.33448C36.8353 4.38722 36.8143 4.44381 36.7838 4.50039C36.7676 4.52724 36.7475 4.55601 36.7265 4.58478C36.7055 4.61355 36.6798 4.6404 36.6493 4.67013C36.3822 4.92427 35.3024 5.57735 34.565 6.01178L36.3087 6.03287C36.3602 6.03287 36.4127 6.03575 36.4699 6.03575C36.5272 6.03575 36.5834 6.03671 36.6369 6.03959C37.3981 6.06452 38.1354 6.14795 38.786 6.28125C38.8766 6.29948 38.9692 6.32153 39.056 6.34263C39.1867 6.37524 39.3183 6.40784 39.4423 6.44429C39.5663 6.48073 39.6865 6.51909 39.7972 6.55841C39.8315 6.57087 39.8725 6.58526 39.9068 6.59773C39.9784 6.6265 40.0509 6.65431 40.1167 6.68212C40.152 6.69458 40.1825 6.70897 40.214 6.72431C40.3447 6.78377 40.4553 6.84515 40.5622 6.90748L41.1164 7.24889C41.9282 6.84611 43.4325 6.11343 44.0869 5.90628C44.1498 5.88615 44.2156 5.86409 44.2843 5.84587C44.3501 5.82381 44.4179 5.80559 44.4865 5.78641C44.5762 5.76052 44.6716 5.73654 44.766 5.71257C44.9091 5.67612 45.0541 5.64352 45.1963 5.61187C45.4176 5.56392 45.6455 5.52364 45.8716 5.48241C46.0986 5.44117 46.3304 5.40664 46.5565 5.37404C46.8866 5.32705 47.2271 5.28773 47.5476 5.25416C47.6154 5.24937 47.6774 5.24266 47.7394 5.23594C47.7976 5.23115 47.8538 5.22348 47.912 5.21964C48.0189 5.21197 48.12 5.20238 48.2163 5.1947L48.3813 5.18224C48.534 5.17265 48.6828 5.15922 48.8316 5.15155C48.9813 5.14196 49.1178 5.13525 49.2542 5.12757C49.3038 5.08154 49.3619 5.03743 49.4392 4.99619C49.5604 4.94057 49.6128 4.92139 49.6653 4.90221C49.7874 4.86385 49.8246 4.8533 49.8685 4.84275C49.9228 4.82645 49.9763 4.8159 50.0411 4.80439C50.1146 4.79192 50.1871 4.77946 50.2624 4.77083C50.3149 4.76507 50.3664 4.75932 50.4189 4.75356C50.643 4.7363 50.707 4.73342 50.7737 4.73342C50.8348 4.73247 50.8958 4.73151 50.9578 4.73342C51.141 4.73822 51.2755 4.74685 51.4081 4.76028C51.5016 4.76795 51.5989 4.78329 51.6876 4.79864C52.5966 4.98564 52.8475 5.3328 52.3524 5.59749C52.2237 5.66558 52.0615 5.7212 51.8774 5.76243C51.7267 5.79408 51.6532 5.80655 51.5741 5.81806C51.4291 5.83724 51.3671 5.84395 51.3089 5.84874C51.2469 5.85546 51.1915 5.85738 51.1286 5.86121C51.0485 5.86409 50.9683 5.86697 50.8853 5.86601C50.8033 5.86601 50.7251 5.86313 50.6392 5.85929C50.5858 5.85642 50.5333 5.85354 50.478 5.84779C50.3139 5.8334 50.1537 5.81134 50.003 5.78066C49.961 5.77202 49.919 5.76339 49.8799 5.75284C49.8418 5.7423 49.8036 5.73175 49.7645 5.7212C49.693 5.70106 49.6262 5.679 49.5661 5.65311C49.5213 5.63297 49.4755 5.61283 49.4402 5.59173C49.154 5.57063 48.8984 5.58694 48.6265 5.60803C48.4224 5.6253 48.2173 5.64256 48.0055 5.66366C47.933 5.67037 47.8615 5.67804 47.7909 5.68476C47.663 5.7001 47.539 5.71257 47.4169 5.72887C47.3807 5.73462 47.3378 5.73942 47.2948 5.74517C47.2195 5.7538 47.1441 5.76339 47.0649 5.7749C46.8704 5.80271 46.6815 5.83244 46.4859 5.86601C46.3858 5.88423 46.2894 5.89957 46.195 5.91875C46.1015 5.93793 46.0071 5.95711 45.9136 5.97629C45.7715 6.00698 45.6303 6.03863 45.5005 6.07219C45.4529 6.08466 45.4147 6.09617 45.367 6.10768C45.2754 6.12973 45.1905 6.15371 45.1066 6.18056C45.0646 6.19399 45.0236 6.20741 44.9807 6.22084C44.9454 6.23522 44.9044 6.24865 44.8548 6.26591C44.7603 6.29852 44.6544 6.34263 44.5323 6.39346C44.4789 6.41264 44.4331 6.43278 44.3826 6.45579C44.3358 6.47689 44.2853 6.49895 44.2319 6.52292C44.1708 6.55169 44.1031 6.57855 44.0373 6.60923C43.9981 6.62554 43.9648 6.64376 43.9256 6.66006C43.8093 6.71281 43.691 6.76747 43.5718 6.82213C43.4229 6.8931 43.2741 6.96311 43.1253 7.03407C43.0347 7.07819 42.9622 7.11271 42.8926 7.14532C42.842 7.16737 42.7953 7.18847 42.7552 7.21053C42.6865 7.24313 42.6236 7.2767 42.5539 7.30835C42.4671 7.35054 42.408 7.38219 42.3422 7.41288C42.3107 7.42534 42.2849 7.43973 42.263 7.45124C42.2153 7.47713 42.16 7.50111 42.1161 7.52508C42.0722 7.54906 42.0217 7.57111 41.9806 7.59317C41.9358 7.61715 41.8891 7.63728 41.8528 7.65742L46.5432 10.5872C46.5785 10.6083 46.6147 10.6294 46.6414 10.6505C46.6672 10.6725 46.7034 10.6936 46.7292 10.7147C46.7549 10.7368 46.7874 10.7598 46.815 10.7847C46.836 10.8001 46.8541 10.8173 46.8713 10.8346C46.9896 10.9545 47.0735 11.0782 47.1117 11.2009C47.147 11.3064 47.1479 11.4138 47.1165 11.5193C47.1069 11.5558 47.0917 11.5903 47.0754 11.6258V11.6219ZM42.9765 13.1046L45.1056 11.9662C45.5988 11.7025 45.7371 11.3879 45.5168 11.0926C45.4471 10.9957 45.3384 10.9008 45.1905 10.8106L43.9667 10.0616L39.1991 7.14628L39.0903 7.08106C38.8308 6.92091 38.4541 6.79049 38.0048 6.69746C37.5469 6.60348 37.0232 6.54882 36.4757 6.54306L36.2477 6.54019L23.6771 6.3925L23.4491 6.38962C22.3579 6.3762 21.3248 6.55841 20.7524 6.86433L20.6303 6.92954L18.6033 8.01801L25.4829 12.2424C25.8205 12.4496 26.3128 12.6203 26.8994 12.7411C27.4861 12.8619 28.1662 12.9319 28.8797 12.9406L42.9756 13.1065M39.1437 15.1539L41.0439 14.1384L28.2225 13.9773C27.1369 13.9648 26.0791 13.8574 25.1576 13.6675C24.2361 13.4776 23.4749 13.2129 22.9579 12.8955L19.9941 11.083L16.665 9.04798L14.7648 10.0636L21.6501 14.2889C21.9878 14.4961 22.48 14.6668 23.0666 14.7876C23.6533 14.9084 24.3334 14.9784 25.0469 14.9871L39.1428 15.153" fill="#1E1E1C"/>
<path d="M49.365 5.55859C49.1361 5.57106 48.8814 5.58832 48.6172 5.6075H48.6239C48.89 5.5864 49.138 5.57106 49.365 5.55859Z" fill="#030304"/>
<path d="M47.7896 5.68262L47.7763 9.72098C47.6485 9.73632 47.5244 9.74879 47.4023 9.76509L47.4157 5.72673C47.5368 5.71043 47.6618 5.69796 47.7896 5.68262Z" fill="#1E1E1C"/>
<path d="M51.883 9.79846C51.8877 8.45202 50.5618 7.10174 51.8963 5.7601C52.0547 5.72365 52.1968 5.67475 52.3113 5.61816C52.3065 6.9646 52.3027 8.31008 52.2979 9.65652C52.1834 9.71311 52.0413 9.76105 51.883 9.79846Z" fill="#030304"/>
<path d="M51.8828 9.7991C51.8828 9.7991 51.8818 9.7991 51.8809 9.7991C51.8856 8.45266 51.8894 7.10718 51.8942 5.76074C51.8942 5.76074 51.8952 5.76074 51.8961 5.76074C51.8914 7.10718 51.8875 8.45266 51.8828 9.7991Z" fill="#030304"/>
<path d="M51.8691 5.76651C52.058 5.72336 52.2183 5.66869 52.3442 5.60156C52.2183 5.66869 52.0542 5.72527 51.8691 5.76651Z" fill="#030304"/>
<path d="M51.8793 9.7991C51.8717 9.80102 51.8631 9.80294 51.8555 9.80486L51.8688 5.7665C51.8765 5.76458 51.885 5.76266 51.8927 5.76074C51.8879 7.10718 51.8841 8.45266 51.8793 9.7991Z" fill="#030304"/>
<path d="M50.477 5.8459L50.4636 9.88426C50.2996 9.86987 50.1393 9.84782 49.9886 9.81713C49.9466 9.8085 49.9046 9.79987 49.8655 9.78932C49.8274 9.77877 49.7892 9.76822 49.7501 9.75767C49.6786 9.73753 49.6118 9.71547 49.5517 9.68958C49.5069 9.66944 49.4611 9.6493 49.4258 9.6282L49.4391 5.58984C49.4744 5.61094 49.5202 5.63108 49.565 5.65122C49.6251 5.67711 49.6919 5.69917 49.7635 5.71931C49.8026 5.72986 49.8407 5.74041 49.8789 5.75096C49.918 5.76151 49.96 5.77014 50.0019 5.77877C50.1527 5.80946 50.312 5.83151 50.477 5.8459Z" fill="#1E1E1C"/>
<path d="M49.8672 5.75391C49.9092 5.76254 49.9473 5.77309 49.9902 5.78172C49.9483 5.77309 49.9063 5.76446 49.8672 5.75391Z" fill="#1E1E1C"/>
<path d="M49.988 5.78172L49.9746 9.82008C49.9326 9.81145 49.8907 9.80281 49.8516 9.79227L49.8649 5.75391C49.904 5.76446 49.945 5.77309 49.988 5.78172Z" fill="#1E1E1C"/>
<path d="M51.8768 5.76172L51.8635 9.80008C51.7127 9.83173 51.6393 9.84419 51.5601 9.8557C51.4151 9.87488 51.3531 9.88159 51.2949 9.88639L51.3083 5.84803C51.3665 5.84419 51.4285 5.83748 51.5735 5.81734C51.6526 5.80679 51.7261 5.79337 51.8768 5.76172Z" fill="#1E1E1C"/>
<path d="M50.6375 5.85721L50.6241 9.89557C50.5707 9.89269 50.5182 9.88982 50.4629 9.88406L50.4762 5.8457C50.5316 5.85146 50.585 5.85433 50.6375 5.85721Z" fill="#1E1E1C"/>
<path d="M51.3069 5.84766L51.2936 9.88602C51.2316 9.89273 51.1762 9.89465 51.1133 9.89848L51.1266 5.86012C51.1905 5.85725 51.2449 5.85437 51.3069 5.84766Z" fill="#1E1E1C"/>
<path d="M51.1277 5.85934L51.1144 9.8977C51.0342 9.90058 50.9541 9.90345 50.8711 9.90249C50.7891 9.90249 50.7109 9.89962 50.625 9.89578L50.6384 5.85742C50.7232 5.86126 50.8024 5.86318 50.8845 5.86413C50.9674 5.86413 51.0476 5.86222 51.1277 5.85934Z" fill="#1E1E1C"/>
<path d="M47.4151 5.72656L47.4018 9.76492C47.3655 9.77068 47.3226 9.77547 47.2797 9.78123C47.2043 9.78986 47.129 9.79945 47.0498 9.81096C46.8552 9.83877 46.6663 9.86849 46.4708 9.90206C46.3706 9.92028 46.2743 9.93563 46.1798 9.95481C46.0864 9.97399 45.9919 9.99317 45.8984 10.0123L45.9118 5.97399C46.0053 5.95481 46.0997 5.93563 46.1932 5.91644C46.2876 5.89726 46.384 5.88192 46.4841 5.8637C46.6797 5.83013 46.8686 5.80041 47.0632 5.77259C47.1423 5.76109 47.2177 5.75246 47.293 5.74287C47.336 5.73807 47.3779 5.73328 47.4151 5.72656Z" fill="#1E1E1C"/>
<path d="M12.0098 15.053L12.0231 11.0146C12.0231 11.0501 12.0269 11.0847 12.0336 11.1201C12.0384 11.1403 12.0422 11.1604 12.0498 11.1777L12.0365 15.216C12.0288 15.1978 12.0241 15.1777 12.0203 15.1585C12.0136 15.123 12.0098 15.0885 12.0098 15.053Z" fill="#1E1E1C"/>
<path d="M12.0924 11.2938L12.0791 15.3322C12.061 15.2928 12.0486 15.2545 12.0371 15.2171L12.0505 11.1787C12.0629 11.2171 12.0753 11.2545 12.0924 11.2938Z" fill="#1E1E1C"/>
<path d="M47.1398 11.3652L47.1264 15.4036C47.1264 15.4535 47.1188 15.5043 47.1035 15.5542C47.094 15.5906 47.0787 15.6251 47.0625 15.6606L47.0759 11.6222C47.0921 11.5868 47.1073 11.5522 47.1169 11.5158C47.1312 11.4659 47.1388 11.4151 47.1398 11.3652Z" fill="#1E1E1C"/>
<path d="M47.0663 15.6585C47.0663 15.6585 47.0635 15.6633 47.0625 15.6661C47.0673 14.3197 47.0711 12.9742 47.0759 11.6278C47.0768 11.6249 47.0787 11.623 47.0797 11.6201C47.0759 12.8313 47.342 14.4789 47.0663 15.6585Z" fill="#030304"/>
<path d="M12.2585 11.5222L12.2451 15.5605C12.1697 15.4848 12.1192 15.409 12.0801 15.3323L12.0934 11.2939C12.1335 11.3707 12.1831 11.4464 12.2585 11.5222Z" fill="#1E1E1C"/>
<path d="M47.0753 11.6221L47.0619 15.6604C46.9627 15.8695 46.7367 16.0747 46.3809 16.2473L46.3942 12.209C46.751 12.0364 46.9761 11.8311 47.0753 11.6221Z" fill="#1E1E1C"/>
<path d="M47.063 15.6663C47.0563 15.6797 47.0486 15.6931 47.041 15.7066C47.0458 14.3601 47.0496 13.0146 47.0544 11.6682C47.062 11.6548 47.0696 11.6414 47.0763 11.6279C47.0715 12.9744 47.0677 14.3198 47.063 15.6663Z" fill="#030304"/>
<path d="M12.6286 11.814L12.6152 15.8523C12.5399 15.8044 12.475 15.7584 12.4082 15.7085C12.3424 15.6596 12.2918 15.6107 12.2441 15.5598L12.2575 11.5215C12.3042 11.5723 12.3548 11.6212 12.4216 11.6701C12.4874 11.719 12.5523 11.7651 12.6286 11.814Z" fill="#1E1E1C"/>
<path d="M46.5039 16.1973C46.5087 14.8509 46.5125 13.5054 46.5173 12.159C46.7767 12.0046 46.957 11.8387 47.0562 11.668C47.0514 13.0144 47.0476 14.3599 47.0429 15.7063C46.9437 15.877 46.7643 16.0439 46.5039 16.1973Z" fill="#030304"/>
<path d="M46.5022 16.1975C46.4669 16.2186 46.4288 16.2397 46.3906 16.2608L46.404 12.2225C46.4431 12.2014 46.4803 12.1812 46.5156 12.1592C46.5108 13.5056 46.507 14.8511 46.5022 16.1975Z" fill="#030304"/>
<path d="M46.3944 12.21L46.381 16.2483L41.084 19.0793L41.0973 15.0409L46.3944 12.21Z" fill="#1E1E1C"/>
<path d="M18.621 15.4788L18.6077 19.5171L12.6152 15.8518L12.6286 11.8135L18.621 15.4788Z" fill="#1E1E1C"/>
<path d="M41.0981 15.041L41.0848 19.0794L39.8027 19.7651L39.8161 15.7267L41.0981 15.041Z" fill="#1E1E1C"/>
<path d="M39.8161 15.7266L39.8028 19.7649C39.7618 19.787 39.7188 19.8052 39.6816 19.8253L39.695 15.787C39.7322 15.7668 39.7761 15.7486 39.8161 15.7266Z" fill="#1E1E1C"/>
<path d="M39.6957 15.7871L39.6824 19.8255C39.5698 19.8811 39.4802 19.9204 39.3848 19.9578L39.3981 15.9195C39.4945 15.8821 39.5832 15.8427 39.6957 15.7871Z" fill="#1E1E1C"/>
<path d="M21.1152 16.2266L21.1019 20.2649C20.851 20.2294 20.6106 20.1882 20.376 20.1402C20.2863 20.122 20.1938 20.1 20.107 20.0798C20.0202 20.0597 19.9314 20.0357 19.8485 20.0127C19.6825 19.9676 19.5241 19.9187 19.3725 19.866C19.2971 19.8391 19.2275 19.8142 19.1559 19.7864C18.947 19.702 18.7639 19.6128 18.6074 19.5179L18.6208 15.4795C18.7763 15.5744 18.9594 15.6636 19.1693 15.748C19.2408 15.7768 19.3104 15.8017 19.3858 15.8276C19.5365 15.8804 19.6958 15.9293 19.8618 15.9743C19.9448 15.9974 20.0335 16.0204 20.1203 16.0415C20.2071 16.0616 20.2996 16.0837 20.3893 16.1019C20.624 16.1498 20.8644 16.1911 21.1152 16.2266Z" fill="#1E1E1C"/>
<path d="M21.1283 16.238C20.8764 16.2025 20.637 16.1612 20.4023 16.1133C20.6313 16.1603 20.8812 16.2006 21.1283 16.238Z" fill="#030304"/>
<path d="M21.8933 16.31L21.8799 20.3484C21.7769 20.3407 21.672 20.3301 21.5671 20.3196C21.4068 20.3033 21.2551 20.286 21.1016 20.2649L21.1149 16.2266C21.2675 16.2467 21.4192 16.2649 21.5804 16.2812C21.6854 16.2918 21.7912 16.3023 21.8933 16.31Z" fill="#1E1E1C"/>
<path d="M21.1279 16.238L21.1146 20.2763C20.8628 20.2408 20.6233 20.1996 20.3887 20.1516L20.402 16.1133C20.6367 16.1612 20.8771 16.2025 21.1279 16.238Z" fill="#030304"/>
<path d="M22.7012 16.3498L22.6878 20.3882C22.5199 20.3844 22.3568 20.3777 22.1975 20.369C22.0907 20.3633 21.9886 20.3566 21.8789 20.3479L21.8923 16.3096C22.001 16.3182 22.104 16.3259 22.2109 16.3307C22.3711 16.3393 22.5342 16.3451 22.7012 16.3498Z" fill="#1E1E1C"/>
<path d="M22.8631 16.3525L22.8497 20.3908C22.7992 20.3908 22.7457 20.3889 22.6895 20.388L22.7028 16.3496C22.7591 16.3496 22.8125 16.3534 22.8631 16.3525Z" fill="#1E1E1C"/>
<path d="M35.4345 16.5002L35.4211 20.5386L22.8496 20.3909L22.863 16.3525L35.4345 16.5002Z" fill="#1E1E1C"/>
<path d="M39.3958 15.9189L39.3824 19.9573C39.1917 20.0331 38.9961 20.0973 38.7843 20.1568C38.2158 20.3141 37.5443 20.4272 36.8203 20.4896C36.6419 20.5049 36.4549 20.5154 36.2718 20.5241C35.9894 20.5375 35.7051 20.5423 35.4199 20.5375L35.4333 16.4991C35.7175 16.503 36.0018 16.4991 36.2851 16.4857C36.4683 16.4771 36.6552 16.4656 36.8336 16.4512C37.5576 16.3889 38.2292 16.2757 38.7977 16.1184C39.0095 16.058 39.205 15.9947 39.3958 15.9189Z" fill="#1E1E1C"/>
<path d="M64.6333 12.4167C63.9827 13.8331 62.4889 15.1729 60.1957 16.3994C57.9025 17.626 54.9454 18.6646 51.4064 19.4884C47.9886 20.2834 44.1749 20.8454 40.0721 21.157C35.9704 21.4687 31.7837 21.5157 27.6304 21.2961C23.3302 21.0688 19.2541 20.5644 15.5177 19.7962C11.7803 19.029 8.6038 18.0441 6.07595 16.8684C3.63491 15.7339 1.89785 14.4709 0.915327 13.1139C-0.0671946 11.7578 -0.245575 10.3759 0.383048 9.00838C1.03361 7.59193 2.52647 6.25221 4.82061 5.02564C7.11475 3.79908 10.0709 2.76048 13.6108 1.9367C17.0287 1.14168 20.8414 0.579707 24.9442 0.268031C29.0479 -0.0436448 33.2336 -0.0906359 37.3869 0.128976C41.6871 0.356259 45.7622 0.860695 49.4996 1.62886C53.236 2.39606 56.4135 3.38095 58.9423 4.55669C61.3833 5.69119 63.1204 6.9542 64.101 8.31119C65.0845 9.66722 65.2629 11.0491 64.6342 12.4167H64.6333ZM39.4054 20.2364C47.1005 19.6514 53.6176 18.1112 57.7566 15.8979C61.8956 13.6845 63.1595 11.0654 61.3166 8.52217C59.4746 5.97793 54.7451 3.81442 48.001 2.42962C41.2569 1.04482 33.3052 0.603682 25.6091 1.18867C17.9139 1.77367 11.3968 3.31382 7.25784 5.5272C3.11885 7.74058 1.85492 10.3596 3.69787 12.9029C5.53986 15.4471 10.2684 17.6106 17.0134 18.9964C23.7575 20.3812 31.7093 20.8223 39.4054 20.2364Z" fill="#78360D"/>
</svg>
