<svg width="44" height="44" viewBox="0 0 44 44" fill="none" xmlns="http://www.w3.org/2000/svg">
<g clip-path="url(#clip0_500_3382)">
<path d="M21.9994 43.0233C33.6143 43.0233 43.0301 33.6075 43.0301 21.9926C43.0301 10.3777 33.6143 0.961914 21.9994 0.961914C10.3845 0.961914 0.96875 10.3777 0.96875 21.9926C0.96875 33.6075 10.3845 43.0233 21.9994 43.0233Z" fill="#AB8823" stroke="#78360D" stroke-width="2" stroke-miterlimit="10"/>
<path d="M23.9047 13.233C23.76 13.1522 23.6147 13.0773 23.459 13.0127C23.6095 13.0773 23.7594 13.1471 23.9047 13.233Z" fill="#030304"/>
<path d="M27.8613 4.84447C27.8988 4.81734 27.9363 4.79085 27.9795 4.76953C27.9369 4.79085 27.8988 4.81798 27.8613 4.84447Z" fill="#030304"/>
<path d="M29.917 5.89579C29.917 6.07861 29.8795 6.2498 29.8097 6.41131C29.8795 6.25562 29.917 6.07861 29.917 5.89579C29.917 5.17679 29.3375 4.59668 28.6179 4.59668C29.3369 4.59668 29.917 5.18196 29.917 5.89579Z" fill="#030304"/>
<path d="M32.1716 18.005C32.22 18.0322 32.2627 18.0587 32.3111 18.091C32.2685 18.0638 32.22 18.0322 32.1716 18.005Z" fill="#030304"/>
<path d="M27.5176 7.41516C27.6681 7.26464 27.8128 7.13091 27.9472 7.0127C27.8128 7.13091 27.6681 7.27045 27.5176 7.41516Z" fill="#030304"/>
<path d="M27.0728 7.90332C27.0082 7.97826 26.9494 8.05901 26.8848 8.13976C26.9494 8.05901 27.0082 7.9789 27.0728 7.90332Z" fill="#030304"/>
<path d="M22.0098 39.4C22.2191 39.4 22.4232 39.3839 22.6273 39.3516C22.4232 39.3787 22.2139 39.4 22.0098 39.4Z" fill="#030304"/>
<path d="M34.0654 21.2849C34.0654 20.7803 33.9634 20.2868 33.7754 19.8301C33.9634 20.2862 34.0654 20.7803 34.0654 21.2849Z" fill="#030304"/>
<path d="M15.5594 7.86563C15.6777 7.89277 15.812 7.92442 15.9458 7.96253C15.8114 7.92507 15.6777 7.89277 15.5594 7.86563C15.4897 7.2164 14.9367 6.70605 14.2661 6.70605C14.9373 6.70605 15.4897 7.21575 15.5594 7.86563Z" fill="#030304"/>
<path d="M18.9681 13.8929L20.1167 13.2327C20.1542 13.2114 20.1865 13.1901 20.224 13.1739C20.1865 13.1952 20.149 13.2114 20.1167 13.2327L18.9681 13.8929C18.9197 12.7443 18.8286 11.0266 18.6942 10.42C18.6781 10.3502 18.6619 10.2856 18.6406 10.2217C18.6619 10.2863 18.6781 10.3502 18.6942 10.42C18.8286 11.0266 18.9197 12.7443 18.9681 13.8929Z" fill="#030304"/>
<path d="M18.0069 9.12675C17.9423 9.05698 17.8784 8.99238 17.8086 8.93359C17.8784 8.99238 17.943 9.05698 18.0069 9.12675Z" fill="#030304"/>
<path d="M17.9261 12.5791C17.9152 12.3911 17.9048 12.2089 17.8887 12.0312C17.9048 12.2083 17.9158 12.3911 17.9261 12.5791Z" fill="#1E1E1C"/>
<path d="M24.9671 9.8409C24.9832 9.77113 25.0046 9.70653 25.0207 9.64258C25.0046 9.70718 24.9884 9.77113 24.9671 9.8409C24.7953 10.5121 24.7093 12.5567 24.6719 13.6736C24.7093 12.5574 24.8004 10.5121 24.9671 9.8409Z" fill="#1E1E1C"/>
<path d="M27.3184 5.89577C27.3184 5.86347 27.3184 5.83117 27.3235 5.80469C27.3184 5.83699 27.3184 5.86929 27.3184 5.89577C27.3184 6.00818 27.3345 6.12123 27.361 6.22847C27.3339 6.1264 27.3184 6.01399 27.3184 5.89577Z" fill="#1E1E1C"/>
<path d="M10.1113 31.9173C10.1385 32.0032 10.1649 32.0891 10.1972 32.1699C10.1649 32.0839 10.1385 32.0032 10.1113 31.9173Z" fill="#1E1E1C"/>
<path d="M10.0683 31.7561C10.0574 31.7186 10.047 31.6753 10.0412 31.6327C10.0412 31.6217 10.036 31.6165 10.036 31.6056C10.0147 31.5087 9.99857 31.4124 9.98759 31.3155C9.98759 31.3045 9.98759 31.2942 9.98242 31.2832C9.98242 31.2942 9.98242 31.3045 9.98759 31.3155C9.99857 31.4124 10.0147 31.5087 10.036 31.6056C10.036 31.6165 10.0412 31.6217 10.0412 31.6327C10.0464 31.6753 10.0574 31.7134 10.0683 31.7561C10.0683 31.7671 10.0735 31.7722 10.0735 31.7832C10.0845 31.8258 10.0948 31.8743 10.111 31.9176C10.1 31.8749 10.0838 31.8265 10.0735 31.7832C10.0735 31.7722 10.0683 31.7619 10.0683 31.7561Z" fill="#1E1E1C"/>
<path d="M15.2912 8.80566C15.2001 8.91807 15.0928 9.02014 14.9746 9.10089C15.098 9.02014 15.2052 8.91871 15.2912 8.80566C16.0909 8.9775 17.4811 9.43875 17.744 10.6306C17.755 10.6791 17.7653 10.7327 17.7763 10.8025C17.7653 10.7379 17.755 10.6791 17.744 10.6306C17.4863 9.43875 16.0909 8.9775 15.2912 8.80566Z" fill="#1E1E1C"/>
<path d="M9.97127 31.1769C9.97644 31.2144 9.97644 31.2518 9.98226 31.2893C9.97709 31.2518 9.97127 31.2144 9.97127 31.1769Z" fill="#1E1E1C"/>
<path d="M9.95508 28.5787V25.2725V21.2847C9.95508 21.1665 9.96025 21.0482 9.97123 20.9307C9.96025 21.0489 9.95508 21.1671 9.95508 21.2847V25.2725V30.8384C9.95508 30.8869 9.95508 30.9353 9.96025 30.9831C9.96025 30.9347 9.95508 30.8862 9.95508 30.8384V28.5787Z" fill="#1E1E1C"/>
<path d="M28.6183 7.1995C28.5808 7.1995 28.5433 7.1995 28.5059 7.19434C28.5433 7.19434 28.5808 7.1995 28.6183 7.1995Z" fill="#1E1E1C"/>
<path d="M27.5182 7.41504C27.4058 7.52744 27.2928 7.64566 27.1855 7.77486C27.298 7.64631 27.4058 7.52809 27.5182 7.41504Z" fill="#1E1E1C"/>
<path d="M25.6341 13.9688C25.6341 14.0275 25.6289 14.087 25.6289 14.1458C25.6341 14.0921 25.6341 14.0334 25.6341 13.9688Z" fill="#1E1E1C"/>
<path d="M27.7441 4.93479C27.7816 4.90249 27.8191 4.87019 27.8624 4.83789C27.8197 4.87019 27.7816 4.90249 27.7441 4.93479Z" fill="#1E1E1C"/>
<path d="M25.6113 8.29014C25.7082 8.1183 25.8155 7.95744 25.9227 7.80176C25.8155 7.95744 25.7082 8.12411 25.6113 8.29014Z" fill="#1E1E1C"/>
<path d="M25.8856 10.2168C25.8695 10.324 25.8482 10.4532 25.832 10.5979C25.8482 10.4532 25.8643 10.3189 25.8856 10.2168Z" fill="#1E1E1C"/>
<path d="M25.8319 10.5977C25.8267 10.6564 25.8209 10.7159 25.8105 10.7805C25.8157 10.7159 25.8215 10.6571 25.8319 10.5977Z" fill="#1E1E1C"/>
<path d="M23.3258 14.226L23.1753 14.1401C22.4563 13.7215 21.5648 13.7215 20.8458 14.1401L20.6953 14.226C21.506 13.7538 22.5093 13.7538 23.3252 14.226H23.3258Z" fill="#1E1E1C"/>
<path d="M33.777 19.8349C33.7447 19.7599 33.7124 19.6843 33.6749 19.6094C33.5677 19.3891 33.4385 19.1798 33.2886 18.9866C33.1168 18.7612 32.9126 18.5519 32.693 18.3639C32.6607 18.3368 32.6284 18.3103 32.5961 18.289C32.5476 18.2515 32.4992 18.2192 32.4565 18.1869C32.4139 18.1546 32.3655 18.1281 32.3222 18.0958C32.2789 18.0635 32.2311 18.037 32.1826 18.0099L25.6341 14.2314V14.1507C25.6341 14.097 25.6393 14.0383 25.6393 13.9737C25.6393 13.9149 25.6444 13.8503 25.6444 13.7857C25.6444 13.7211 25.6496 13.6513 25.6496 13.5815C25.6496 13.5492 25.6496 13.5118 25.6548 13.4743C25.6599 13.3884 25.6599 13.3025 25.6658 13.2114V13.1842C25.6709 13.0932 25.6709 13.0014 25.6767 12.9103C25.6767 12.8515 25.6819 12.7921 25.6877 12.7275C25.6929 12.6364 25.6987 12.5395 25.7039 12.4484V12.4161C25.7148 12.2178 25.7252 12.0188 25.7362 11.8205C25.7471 11.6648 25.7575 11.5092 25.7685 11.3586C25.7736 11.3102 25.7736 11.2617 25.7794 11.2139C25.7846 11.128 25.7956 11.0473 25.8008 10.9672C25.8059 10.8974 25.8117 10.8328 25.8169 10.774C25.8221 10.7094 25.8279 10.6506 25.8382 10.5912C25.8544 10.4407 25.8705 10.3121 25.8919 10.21C25.9028 10.1564 25.9132 10.1131 25.919 10.0705C25.93 10.0279 25.9403 9.98458 25.9513 9.94194C25.9726 9.85603 25.9997 9.77528 26.032 9.69517C26.0482 9.65253 26.0592 9.61442 26.0747 9.57178C26.1173 9.45356 26.1716 9.33535 26.2252 9.21777C26.2627 9.14284 26.3001 9.06725 26.3376 8.99232C26.3751 8.91738 26.4183 8.84761 26.461 8.77203C26.5469 8.62733 26.6328 8.49296 26.7239 8.35859C26.7614 8.30497 26.7988 8.25652 26.8363 8.20807C26.8576 8.18094 26.879 8.15445 26.8951 8.12732C26.9539 8.04657 27.0185 7.97163 27.0831 7.89088C27.1206 7.84824 27.158 7.80496 27.1955 7.76233C27.3079 7.63377 27.4209 7.51555 27.5282 7.4025C27.6787 7.25198 27.8234 7.11826 27.9578 7.00004C27.9849 7.01619 28.0062 7.02717 28.0327 7.04268C28.0812 7.06981 28.1348 7.09113 28.1884 7.11245C28.2582 7.13958 28.3279 7.15508 28.3977 7.16606C28.4352 7.17123 28.4726 7.17705 28.5101 7.18221C28.5476 7.18738 28.585 7.18738 28.6225 7.18738C28.7569 7.18738 28.8854 7.16606 29.0088 7.1286C29.0515 7.11761 29.0896 7.10146 29.127 7.08596C29.1858 7.05883 29.2395 7.03234 29.2937 7.00004C29.348 6.96774 29.3958 6.93027 29.4442 6.8928C29.4817 6.8605 29.514 6.83402 29.5463 6.7959C29.5786 6.7636 29.6109 6.72613 29.6374 6.68867C29.6535 6.67252 29.6645 6.6512 29.68 6.62988C29.7175 6.57626 29.7498 6.52264 29.7769 6.46321C29.7879 6.44189 29.7982 6.42057 29.8092 6.39861C29.879 6.24292 29.9165 6.06592 29.9165 5.8831C29.9165 5.1641 29.337 4.58398 28.6173 4.58398H28.5263C28.4513 4.58915 28.3706 4.60013 28.3008 4.62145C28.1987 4.64858 28.1025 4.68605 28.0166 4.72869C28.0056 4.73386 27.9894 4.74484 27.9791 4.75001C27.9365 4.77133 27.8983 4.79846 27.8609 4.82494C27.8182 4.85208 27.7801 4.88373 27.7427 4.92184C27.7265 4.93799 27.7104 4.94898 27.7 4.96448C27.6839 4.98063 27.6729 4.99678 27.6574 5.00712C27.6303 5.03942 27.6038 5.07172 27.5766 5.10402C27.5392 5.15247 27.5069 5.20609 27.4746 5.2597C27.4474 5.30816 27.4261 5.35079 27.41 5.40441C27.3938 5.44188 27.3828 5.47935 27.3725 5.51681C27.3615 5.54395 27.3563 5.5756 27.3512 5.60273C27.3402 5.66152 27.3299 5.72095 27.324 5.78555C27.324 5.81785 27.3189 5.85015 27.3189 5.87664C27.3189 5.98904 27.335 6.10209 27.3615 6.20933C27.2808 6.2791 27.2007 6.34887 27.1147 6.42962C27.0288 6.50456 26.9481 6.59047 26.8622 6.67122C26.8299 6.70352 26.8034 6.73001 26.7711 6.76231C26.7174 6.81593 26.6638 6.87472 26.6044 6.93415C26.5721 6.96645 26.5456 7.00392 26.5133 7.03622C26.481 7.07368 26.4487 7.11115 26.4112 7.14862C26.2446 7.34178 26.0734 7.55625 25.9177 7.78171C25.8105 7.93739 25.7032 8.09825 25.6063 8.27009C25.5094 8.44192 25.4132 8.61376 25.3272 8.79593C25.2736 8.91415 25.22 9.03754 25.1716 9.16609C25.1393 9.25201 25.107 9.33793 25.0805 9.42385C25.0592 9.48845 25.0378 9.5524 25.0217 9.62217C25.0004 9.68677 24.9842 9.75654 24.9681 9.8205C24.7962 10.4917 24.7103 12.5363 24.6728 13.6532L23.9054 13.2075C23.7607 13.1267 23.6153 13.0518 23.4596 12.9872C23.4222 12.9711 23.3847 12.9549 23.3472 12.9446C23.2723 12.9174 23.1916 12.891 23.1108 12.8638C23.0733 12.8528 23.0301 12.8425 22.9926 12.8315C22.8744 12.7992 22.751 12.7727 22.6276 12.7508C22.5042 12.7288 22.3808 12.7185 22.2574 12.7081C22.1767 12.703 22.0908 12.6972 22.0107 12.6972C21.4312 12.6972 20.8569 12.8315 20.3362 13.0893C20.2987 13.1054 20.2613 13.1267 20.2238 13.1481C20.1863 13.1694 20.1489 13.1855 20.1166 13.2069L18.968 13.8671C18.9195 12.7185 18.8284 11.0007 18.6941 10.3941C18.6779 10.3244 18.6618 10.2598 18.6405 10.1958C18.6191 10.1319 18.5978 10.0673 18.5759 10.0078C18.5274 9.88445 18.4738 9.76623 18.415 9.65899C18.3724 9.58406 18.3291 9.51429 18.2864 9.44452C18.2005 9.32113 18.1094 9.20292 18.0074 9.10085C17.9428 9.03108 17.8788 8.96648 17.809 8.90769C17.7767 8.87539 17.7393 8.8489 17.7018 8.8166C17.6107 8.74167 17.5138 8.66609 17.4118 8.60213C17.3472 8.5595 17.2774 8.51621 17.2076 8.47358C17.1753 8.45226 17.1378 8.43611 17.1055 8.41479C17.0035 8.356 16.8962 8.30755 16.7942 8.2591C16.6921 8.21065 16.5849 8.16802 16.4828 8.12473C16.3807 8.0821 16.2787 8.0498 16.1766 8.0175C16.1443 8.00652 16.112 7.99618 16.0797 7.9852C16.0312 7.96905 15.9886 7.95806 15.9402 7.94256C15.8058 7.90509 15.6721 7.87279 15.5538 7.84566C15.4841 7.19643 14.9311 6.68608 14.2605 6.68608C14.1695 6.68608 14.0784 6.69706 13.9925 6.71321C13.9653 6.71838 13.9337 6.7242 13.9065 6.73453C13.8794 6.74487 13.8529 6.75068 13.8206 6.76166C13.767 6.78298 13.7134 6.8043 13.6598 6.83143C13.6326 6.84242 13.6113 6.85857 13.5848 6.87407C13.5474 6.89539 13.5151 6.91671 13.4828 6.94384C13.4343 6.98131 13.3859 7.02459 13.3432 7.06722C13.3271 7.08338 13.3161 7.09952 13.3006 7.10986C13.2735 7.14216 13.247 7.17446 13.2198 7.20676C13.1824 7.25521 13.1501 7.30883 13.1178 7.36245C13.1016 7.38958 13.0855 7.42124 13.0751 7.44837C13.0641 7.4755 13.048 7.50199 13.0377 7.53429C12.984 7.67382 12.9569 7.82434 12.9569 7.98003C12.9569 8.1144 12.9782 8.24295 13.0157 8.36634C13.0428 8.44709 13.0745 8.52719 13.1126 8.59696C13.1449 8.65058 13.1772 8.7042 13.2147 8.75265C13.2631 8.81725 13.3219 8.8812 13.3813 8.93547C13.4408 8.98973 13.5099 9.04271 13.5797 9.08599C13.6333 9.11829 13.6869 9.14477 13.7463 9.17191C13.7838 9.18806 13.8271 9.20421 13.8645 9.21454C13.9879 9.25201 14.1171 9.27333 14.2509 9.27333C14.3529 9.27333 14.455 9.26235 14.5512 9.23586C14.5997 9.22488 14.6481 9.20873 14.6908 9.19322C14.7392 9.17707 14.7819 9.15576 14.8252 9.13444C14.8678 9.11312 14.9111 9.08599 14.9537 9.0595C15.0771 8.97875 15.1843 8.8825 15.2703 8.76428C16.07 8.93612 17.4602 9.39736 17.7231 10.5892C17.7341 10.6377 17.7444 10.6913 17.7554 10.7611C17.7606 10.7824 17.7606 10.8037 17.7664 10.8308C17.7774 10.9219 17.7935 11.0292 17.8039 11.1474C17.8149 11.2385 17.8252 11.3405 17.831 11.4478C17.8362 11.4801 17.8362 11.5175 17.842 11.5498C17.853 11.6571 17.8581 11.7643 17.8691 11.8774C17.8743 11.9148 17.8743 11.9523 17.8801 11.9898C17.8911 12.1668 17.9014 12.3496 17.9176 12.5376C17.9227 12.6287 17.9286 12.7256 17.9337 12.8167C17.966 13.38 17.9873 13.9491 18.0087 14.4L11.8361 17.964C11.6914 18.0499 11.5518 18.141 11.4175 18.2431C11.3529 18.2915 11.2889 18.3452 11.2243 18.3988C11.192 18.4259 11.1655 18.4524 11.1332 18.4847C11.0745 18.5383 11.015 18.5971 10.9614 18.6565C10.9343 18.6888 10.9026 18.7211 10.8755 18.7534C10.8484 18.7857 10.8219 18.818 10.7947 18.8503C10.7573 18.893 10.725 18.9363 10.6927 18.9847C10.5906 19.1191 10.4995 19.2586 10.4188 19.4033C10.3761 19.4783 10.338 19.548 10.3064 19.6236C10.2902 19.6559 10.2741 19.6934 10.2579 19.7257C10.2256 19.7954 10.1991 19.8652 10.172 19.935C10.1074 20.112 10.0538 20.289 10.0163 20.477C10.0111 20.4931 10.0111 20.5093 10.0053 20.5254C9.984 20.6378 9.96785 20.7509 9.95687 20.8633C9.95687 20.8743 9.95687 20.8846 9.9517 20.8956C9.94071 21.0138 9.93555 21.132 9.93555 21.2496V25.2374V30.8034C9.93555 30.8518 9.93555 30.9003 9.94072 30.9481V30.9907C9.94072 31.023 9.94588 31.0605 9.94588 31.0928C9.94588 31.1089 9.94588 31.1251 9.95105 31.1412C9.95622 31.1787 9.95622 31.2162 9.96203 31.2536C9.96203 31.2646 9.96203 31.2749 9.9672 31.2859C9.97818 31.3828 9.99433 31.4791 10.0157 31.576C10.0157 31.587 10.0208 31.5921 10.0208 31.6031C10.0318 31.6458 10.037 31.6839 10.048 31.7265C10.048 31.7375 10.0531 31.7427 10.0531 31.7536C10.0641 31.7963 10.0744 31.8447 10.0906 31.888V31.8932C10.1177 31.9791 10.1442 32.065 10.1765 32.1458C10.2088 32.2317 10.2411 32.3124 10.2786 32.3925C10.3697 32.5967 10.4827 32.7898 10.6113 32.972C10.6384 33.0095 10.6649 33.0469 10.692 33.0792C10.7456 33.149 10.7993 33.2188 10.8587 33.2885C10.9769 33.4229 11.1003 33.5515 11.2398 33.6697C11.3309 33.7504 11.422 33.8254 11.5241 33.8951C11.6261 33.9649 11.7224 34.0295 11.8303 34.0935L20.1017 38.8707C20.3162 38.994 20.5416 39.0961 20.7781 39.1769C20.8588 39.204 20.9338 39.2253 21.0145 39.2466C21.1754 39.2893 21.3369 39.3216 21.4977 39.3435C21.5785 39.3545 21.6644 39.3649 21.7445 39.3707C21.8253 39.3758 21.9112 39.3816 21.9913 39.3816C22.2006 39.3816 22.4047 39.3655 22.6089 39.3332C22.7322 39.3119 22.8505 39.2847 22.9739 39.2524C23.0546 39.2311 23.1347 39.2098 23.2103 39.1827C23.291 39.1556 23.366 39.1291 23.4409 39.0968C23.5533 39.0483 23.6664 38.9947 23.7788 38.9359C23.8162 38.9146 23.8537 38.8984 23.886 38.8771L32.1574 34.0999C32.3454 33.9927 32.5224 33.8693 32.6891 33.7298C32.7963 33.6387 32.9036 33.5418 33.0005 33.4397C33.3926 33.0263 33.6878 32.5327 33.8648 31.9959C33.9294 31.7917 33.9772 31.5883 34.0095 31.3731V31.3622C34.0257 31.2498 34.0367 31.1367 34.0418 31.0243V30.9817C34.0418 30.928 34.047 30.8744 34.047 30.815V21.2606C34.0683 20.7774 33.9663 20.2838 33.7789 19.8329L33.777 19.8349ZM11.099 21.2845V21.1075C11.099 20.2754 11.5447 19.5028 12.2637 19.0894L12.4143 19.0034L20.6857 14.2262L20.8362 14.1403C21.5552 13.7217 22.4467 13.7217 23.1657 14.1403L23.3162 14.2262L29.8971 18.0267L31.5877 19.0034C32.4036 19.4757 32.9081 20.3452 32.9081 21.2903V24.3821L23.6438 29.7336C22.7096 30.2756 21.5559 30.2756 20.6166 29.7336L11.1378 24.2587C11.1268 24.2535 11.1164 24.2425 11.1055 24.2374V21.2851H11.1003L11.099 21.2845ZM11.099 27.0436L15.6934 29.6955L19.7832 32.0573C20.4971 32.4707 21.3078 32.6852 22.1289 32.6852C22.95 32.6852 23.7607 32.4707 24.4745 32.0573L32.9178 27.1838V29.9429L23.6425 35.2995C22.7083 35.8415 21.5546 35.8415 20.6153 35.2995L11.1307 29.8247C11.1197 29.8195 11.1093 29.8085 11.0984 29.8033V27.0443L11.099 27.0436Z" fill="#1E1E1C"/>
<path d="M12.4188 19.0029L12.2683 19.0888C11.5493 19.5075 11.1036 20.2749 11.1036 21.107V21.284C11.0984 20.3447 11.6029 19.47 12.4188 19.0029Z" fill="#1E1E1C"/>
<path d="M20.6211 35.3204C21.5552 35.8624 22.709 35.8624 23.6482 35.3204L32.9236 29.9637V27.2046L24.4751 32.0781C23.7613 32.4915 22.9506 32.706 22.1295 32.706C21.3084 32.706 20.4977 32.4915 19.7838 32.0781L15.694 29.7163L11.0996 27.0645V29.8235C11.1106 29.8287 11.1209 29.8397 11.1319 29.8449L20.6217 35.3197L20.6211 35.3204Z" fill="#FDE248"/>
<path d="M20.6205 29.7544C21.5546 30.2964 22.7083 30.2964 23.6476 29.7544L32.923 24.3977V21.3059C32.923 20.3615 32.4184 19.4919 31.6025 19.0191L29.9119 18.0423L23.3311 14.2419C22.5152 13.7696 21.5113 13.7696 20.6954 14.2419L12.4239 19.0191C11.608 19.4913 11.1035 20.3608 11.1035 21.3059V24.2582C11.1145 24.2633 11.1248 24.2743 11.1358 24.2795L20.6205 29.7544ZM27.4209 23.0288C27.4209 23.41 26.9164 23.7162 26.2937 23.7162C25.6709 23.7162 25.1664 23.41 25.1664 23.0288C25.1664 22.6477 25.6709 22.3415 26.2937 22.3415C26.9164 22.3415 27.4209 22.6477 27.4209 23.0288ZM24.6677 17.4893C25.43 17.4893 26.0417 18.3479 26.0417 19.4112C26.0417 20.4745 25.4241 21.3331 24.6677 21.3331C23.9112 21.3331 23.2936 20.4745 23.2936 19.4112C23.2936 18.3479 23.9112 17.4893 24.6677 17.4893ZM19.3485 17.4893C20.1108 17.4893 20.7225 18.3479 20.7225 19.4112C20.7225 20.4745 20.1049 21.3331 19.3485 21.3331C18.592 21.3331 17.9744 20.4745 17.9744 19.4112C17.9744 18.3479 18.592 17.4893 19.3485 17.4893ZM17.7276 22.3415C18.3504 22.3415 18.8549 22.6477 18.8549 23.0288C18.8549 23.41 18.3504 23.7162 17.7276 23.7162C17.1049 23.7162 16.6004 23.41 16.6004 23.0288C16.6004 22.6477 17.1049 22.3415 17.7276 22.3415Z" fill="#FDE248"/>
<path d="M24.667 21.3271C25.4293 21.3271 26.0411 20.4686 26.0411 19.4053C26.0411 18.3419 25.4235 17.4834 24.667 17.4834C23.9106 17.4834 23.293 18.3419 23.293 19.4053C23.293 20.4686 23.9106 21.3271 24.667 21.3271Z" fill="#1E1E1C"/>
<path d="M25.168 23.0291C25.168 23.4103 25.6725 23.7165 26.2952 23.7165C26.918 23.7165 27.4225 23.4103 27.4225 23.0291C27.4225 22.648 26.918 22.3418 26.2952 22.3418C25.6725 22.3418 25.168 22.648 25.168 23.0291Z" fill="#E6155F"/>
<path d="M19.3487 21.3271C20.1109 21.3271 20.7227 20.4686 20.7227 19.4053C20.7227 18.3419 20.1051 17.4834 19.3487 17.4834C18.5922 17.4834 17.9746 18.3419 17.9746 19.4053C17.9746 20.4686 18.5922 21.3271 19.3487 21.3271Z" fill="#1E1E1C"/>
<path d="M17.7269 23.7155C18.3496 23.7155 18.8542 23.4093 18.8542 23.0282C18.8542 22.647 18.3496 22.3408 17.7269 22.3408C17.1041 22.3408 16.5996 22.647 16.5996 23.0282C16.5996 23.4093 17.1041 23.7155 17.7269 23.7155Z" fill="#E6155F"/>
</g>
<defs>
<clipPath id="clip0_500_3382">
<rect width="44" height="44" fill="white" transform="translate(0 -0.00683594)"/>
</clipPath>
</defs>
</svg>
