<svg width="382" height="539" viewBox="0 0 382 539" fill="none" xmlns="http://www.w3.org/2000/svg">
<g clip-path="url(#clip0_806_2045)">
<path d="M347.408 201.81L254.138 147.98C254.778 126.93 256.228 100.02 257.998 93.27C261.938 77.6 272.218 64.75 281.458 55.83C284.108 56.63 286.838 57.04 289.648 57.04C297.278 57.04 304.428 54.07 309.808 48.68C315.188 43.3 318.168 36.15 318.168 28.52C318.168 12.77 305.398 0 289.648 0C273.898 0 261.128 12.77 261.128 28.52V29.97C247.868 42.18 232.368 60.9 226.258 85.32C224.168 93.51 222.888 112.96 222.158 129.51C212.518 124.29 201.748 121.56 190.828 121.56C179.258 121.56 167.928 124.61 157.968 130.4L153.708 132.89C152.908 117.79 151.698 101.56 150.088 94.33C144.058 67.02 119.318 55.37 101.808 50.55C97.8683 39.38 87.2683 31.59 74.8983 31.59C59.1483 31.59 46.3783 44.36 46.3783 60.11C46.3783 75.86 59.1483 88.63 74.8983 88.63C81.6483 88.63 87.9883 86.3 93.0583 82.04C102.058 84.61 115.548 90.15 118.038 101.24C119.488 107.67 120.848 131.04 121.738 151.21L34.0883 201.82C13.7783 213.54 1.23828 235.31 1.23828 258.76V401.68C1.23828 402.56 1.23828 403.37 1.31828 404.17V404.89C1.31828 405.45 1.39828 406.1 1.39828 406.66C1.39828 406.9 1.47828 407.22 1.47828 407.46C1.55828 408.1 1.63828 408.75 1.71828 409.39L1.79828 409.95C2.03828 411.64 2.27828 413.32 2.67828 415.01L2.75828 415.49C2.91828 416.21 3.07828 416.86 3.23828 417.58L3.31828 418.06C3.47828 418.78 3.71828 419.59 3.95828 420.39V420.55C8.77828 436.7 19.5483 450.27 34.0883 458.63L157.888 530.13C167.848 535.91 179.258 538.97 190.748 538.97C202.238 538.97 213.648 535.92 223.608 530.13L347.408 458.63C364.598 448.67 376.648 430.99 379.628 411.15V411.07C379.948 409.14 380.108 407.13 380.188 405.21V404.57C380.268 403.61 380.268 402.64 380.268 401.68V258.76C380.268 235.38 367.738 213.53 347.408 201.8V201.81ZM371.188 258.76V401.76C371.188 402.56 371.188 403.37 371.108 404.25V404.89C371.028 406.58 370.868 408.26 370.628 409.95V410.11C370.148 413.32 369.418 416.38 368.458 419.43C365.808 427.46 361.388 434.85 355.528 441.04C354.078 442.57 352.478 444.01 350.868 445.38C348.378 447.47 345.728 449.32 342.918 450.92L219.118 522.42C218.558 522.74 218.078 523.06 217.508 523.3C215.898 524.18 214.218 524.99 212.448 525.71C211.328 526.19 210.118 526.59 208.998 527C207.788 527.4 206.668 527.72 205.468 528.04C203.698 528.52 201.848 528.92 200.008 529.25C196.958 529.73 193.898 529.97 190.768 529.97C189.558 529.97 188.278 529.89 187.068 529.81C185.858 529.73 184.578 529.57 183.368 529.41C180.958 529.09 178.468 528.61 176.138 527.96C174.928 527.64 173.728 527.32 172.608 526.92C169.078 525.71 165.698 524.19 162.488 522.34L38.6883 450.84C37.0783 449.96 35.5583 448.91 34.1083 447.87C32.6583 446.83 31.2183 445.7 29.8483 444.5C27.8383 442.73 25.9083 440.8 24.1483 438.8C23.2683 437.76 22.4583 436.71 21.6583 435.67C21.2583 435.11 20.8583 434.63 20.4483 434.06C18.5183 431.33 16.9183 428.44 15.4683 425.38C14.9083 424.17 14.4283 422.97 13.9383 421.68C13.4483 420.39 13.0583 419.19 12.6483 417.9V417.82C12.4883 417.18 12.2483 416.45 12.0883 415.81C12.0883 415.65 12.0083 415.57 12.0083 415.41C11.8483 414.85 11.6883 414.2 11.6083 413.56C11.6083 413.4 11.5283 413.32 11.5283 413.16C11.2083 411.71 10.9683 410.27 10.8083 408.82C10.8083 408.66 10.8083 408.5 10.7283 408.34C10.6483 407.78 10.5683 407.22 10.5683 406.65C10.5683 406.41 10.5683 406.17 10.4883 405.93C10.4083 405.45 10.4083 404.89 10.4083 404.4V403.76C10.4083 403.04 10.3283 402.31 10.3283 401.59V318.28V258.59C10.3283 256.82 10.4083 255.06 10.5683 253.29C10.5683 253.13 10.5683 252.97 10.6483 252.81C10.8083 251.12 11.0483 249.44 11.3683 247.75C11.4483 247.51 11.4483 247.27 11.5283 247.03C12.0883 244.3 12.8983 241.57 13.8583 238.92C14.2583 237.88 14.6583 236.83 15.1483 235.79C15.3883 235.31 15.6283 234.75 15.8683 234.26C16.4283 233.14 16.9883 232.01 17.5583 230.97C18.7683 228.8 20.1283 226.71 21.6583 224.7C22.1383 224.06 22.6983 223.33 23.1883 222.69C23.5883 222.21 23.9883 221.73 24.3983 221.24C24.7983 220.76 25.2783 220.28 25.6883 219.79C26.4883 218.91 27.3783 218.02 28.2583 217.22C28.7383 216.82 29.1383 216.42 29.6283 215.93C30.5883 215.13 31.4783 214.32 32.5183 213.6C34.5283 212.07 36.5383 210.71 38.7883 209.42L131.178 156.08C130.938 149.33 130.538 140.82 130.058 132.38C129.978 130.93 129.898 129.57 129.818 128.2C129.658 125.39 129.498 122.66 129.258 120.01C129.178 119.45 129.178 118.89 129.098 118.32C128.938 116.63 128.858 114.95 128.698 113.42C128.618 112.86 128.618 112.38 128.538 111.89C128.378 110.28 128.298 108.84 128.138 107.39C127.978 105.62 127.738 104.02 127.578 102.65C127.498 102.33 127.498 101.93 127.418 101.61C127.258 100.65 127.098 99.76 126.938 99.04C122.998 81.21 102.198 74.3 90.2283 71.73C88.8583 73.42 87.2583 74.94 85.4883 76.15C84.8483 76.55 84.2783 76.87 83.5583 77.27C82.9183 77.59 82.1883 77.91 81.5483 78.15C80.8283 78.39 80.1783 78.63 79.4583 78.79C78.0083 79.11 76.4883 79.35 74.9583 79.35C72.9483 79.35 71.0183 79.03 69.1783 78.47C68.5383 78.31 67.9683 78.07 67.4083 77.83C66.5283 77.43 65.7183 77.03 64.9183 76.54C63.8783 75.9 62.8283 75.17 61.9483 74.29C61.0683 73.41 60.1783 72.52 59.4583 71.56C58.8983 70.84 58.4183 70.03 57.9283 69.23C57.3683 68.11 56.8083 66.98 56.4783 65.78C55.9183 63.93 55.5983 62 55.5983 60C55.5983 57.67 55.9983 55.42 56.8083 53.33C56.9683 52.93 57.1283 52.45 57.3683 52.04C57.5283 51.56 57.7683 51.16 58.0083 50.75C58.4883 49.95 58.9683 49.14 59.5383 48.42C59.9383 47.94 60.3383 47.46 60.7483 46.97C60.9883 46.73 61.1483 46.49 61.3883 46.33C62.0283 45.69 62.7583 45.04 63.4783 44.48C63.9583 44.08 64.5183 43.76 65.0083 43.44C65.4083 43.2 65.7283 43.04 66.1283 42.8C66.9283 42.4 67.6583 42.08 68.5383 41.76C68.9383 41.6 69.3383 41.44 69.8283 41.36C70.3083 41.28 70.7083 41.12 71.1183 41.04C72.4083 40.8 73.7683 40.64 75.1383 40.64C85.1783 40.64 93.4583 48.19 94.4983 57.99C96.2683 58.39 98.2783 58.87 100.278 59.44C100.918 59.6 101.648 59.84 102.368 60.08C102.848 60.24 103.328 60.4 103.818 60.56C105.348 61.04 106.868 61.6 108.398 62.17C109.928 62.74 111.528 63.46 113.058 64.18C114.588 64.9 116.188 65.71 117.718 66.51C118.198 66.83 118.758 67.07 119.248 67.39C120.288 67.95 121.258 68.6 122.298 69.32C123.828 70.28 125.268 71.41 126.638 72.53C127.198 72.93 127.678 73.41 128.248 73.9C129.288 74.86 130.258 75.83 131.218 76.79C132.748 78.4 134.108 80.08 135.398 81.93C136.118 82.97 136.768 84.02 137.328 85.14C138.208 86.83 139.098 88.51 139.738 90.36C140.058 91.24 140.378 92.21 140.698 93.17C141.018 94.13 141.258 95.1 141.498 96.14C143.508 105.22 144.868 130.93 145.598 148.12L162.788 138.24C163.348 137.92 163.828 137.6 164.398 137.36C164.968 137.12 165.518 136.8 166.088 136.48C173.878 132.62 182.478 130.62 191.158 130.62C192.368 130.62 193.648 130.7 194.858 130.78C196.708 130.94 198.558 131.1 200.398 131.42C202.248 131.74 204.018 132.14 205.858 132.63C206.418 132.79 207.068 132.95 207.628 133.11C208.838 133.43 209.958 133.83 211.158 134.32C211.718 134.56 212.278 134.8 212.848 134.96C215.098 135.92 217.348 136.97 219.518 138.25L231.008 144.92C231.568 128.21 232.938 97.6 235.428 87.56C235.668 86.52 235.988 85.55 236.228 84.59C236.548 83.63 236.788 82.58 237.108 81.62C237.508 80.33 237.988 79.05 238.478 77.76C239.198 75.91 240.008 74.06 240.808 72.22C242.098 69.49 243.458 66.84 244.988 64.35C246.518 61.86 248.038 59.37 249.648 57.04C252.058 53.67 254.548 50.45 257.038 47.56C257.518 47 257.998 46.44 258.568 45.87C259.048 45.39 259.448 44.83 259.938 44.34C260.738 43.46 261.548 42.57 262.428 41.77C262.908 41.29 263.308 40.89 263.798 40.4C265.088 39.11 266.368 37.91 267.578 36.78C268.868 35.66 270.068 34.53 271.278 33.49C270.878 31.88 270.638 30.28 270.638 28.51C270.638 28.03 270.638 27.55 270.718 27.14C270.798 26.18 270.878 25.29 271.118 24.41C271.198 23.93 271.358 23.53 271.438 23.12C271.598 22.56 271.758 22 271.998 21.43C272.318 20.71 272.638 19.98 272.958 19.26C273.438 18.46 273.918 17.65 274.488 16.93C274.888 16.45 275.288 15.97 275.698 15.48C275.938 15.24 276.098 15 276.338 14.84C276.578 14.6 276.818 14.44 276.978 14.2C277.538 13.72 278.098 13.24 278.748 12.75C279.308 12.35 279.868 11.95 280.518 11.63C280.678 11.55 280.918 11.39 281.078 11.31C282.448 10.59 283.888 10.02 285.338 9.7C286.458 9.46 287.588 9.22 288.708 9.14H290.078C300.848 9.14 309.518 17.82 309.518 28.58C309.518 31.31 308.958 33.88 307.908 36.29C307.748 36.61 307.588 36.93 307.428 37.25C307.028 38.13 306.468 38.94 305.978 39.74C305.738 40.06 305.578 40.3 305.338 40.62C304.938 41.18 304.458 41.66 303.968 42.23C303.488 42.71 302.928 43.19 302.438 43.68C301.718 44.24 300.988 44.8 300.188 45.29C299.388 45.78 298.578 46.17 297.698 46.58C297.138 46.82 296.488 47.06 295.928 47.22C294.078 47.78 292.148 48.1 290.148 48.1C289.588 48.1 289.028 48.1 288.458 48.02C287.898 47.94 287.338 47.86 286.768 47.78C285.648 47.62 284.598 47.3 283.638 46.98C282.838 46.66 282.028 46.34 281.308 45.94C280.908 45.78 280.588 45.54 280.188 45.3C278.098 47.07 275.928 49.16 273.758 51.33C272.068 53.02 270.388 54.78 268.778 56.71C268.218 57.35 267.658 58 267.088 58.64C266.128 59.76 265.238 60.97 264.278 62.17C263.958 62.57 263.638 62.97 263.398 63.38C262.838 64.1 262.278 64.91 261.708 65.63C260.338 67.64 258.978 69.65 257.768 71.82C257.128 72.86 256.558 73.99 255.918 75.11C255.358 76.23 254.798 77.36 254.228 78.48C253.428 80.17 252.698 81.93 251.978 83.78C251.738 84.34 251.498 84.99 251.338 85.63C250.938 86.84 250.538 88.12 250.128 89.33C249.968 89.97 249.808 90.62 249.648 91.26C249.488 91.82 249.328 92.55 249.248 93.35C249.008 94.96 248.688 96.88 248.448 99.05C248.368 99.93 248.288 100.82 248.128 101.78C248.048 102.74 247.968 103.71 247.888 104.67C247.808 105.88 247.648 107.08 247.568 108.37C247.488 109.09 247.488 109.82 247.408 110.54C247.248 112.79 247.088 115.12 246.928 117.45C246.768 120.34 246.608 123.39 246.448 126.37V126.85C246.368 128.22 246.288 129.66 246.208 131.03C246.128 131.91 246.128 132.88 246.048 133.76C245.968 135.13 245.968 136.49 245.888 137.86V138.26C245.808 139.63 245.808 140.91 245.728 142.2C245.728 142.76 245.728 143.24 245.648 143.81C245.648 144.85 245.568 145.82 245.568 146.86C245.568 147.82 245.488 148.71 245.488 149.67C245.488 150.55 245.408 151.44 245.408 152.32V153.53L343.418 210.09C344.138 210.49 344.788 210.89 345.508 211.38C346.228 211.87 346.878 212.26 347.518 212.75C348.238 213.23 348.968 213.79 349.608 214.28C350.088 214.68 350.568 215.08 351.058 215.4C354.428 218.13 357.408 221.26 359.978 224.72C362.228 227.61 364.158 230.75 365.758 234.04C366.318 235.16 366.798 236.29 367.288 237.41C369.778 243.84 371.308 251.23 371.308 258.78L371.188 258.76Z" fill="white"/>
<path d="M219.111 138.26C216.941 137.05 214.771 135.93 212.441 134.97C214.691 135.93 216.941 136.98 219.111 138.26Z" fill="#010101"/>
<path d="M278.328 12.6903C278.888 12.2903 279.448 11.8903 280.098 11.5703C279.458 11.8903 278.888 12.2903 278.328 12.6903Z" fill="#010101"/>
<path d="M309.091 28.44C309.091 31.17 308.531 33.74 307.481 36.15C308.521 33.82 309.091 31.17 309.091 28.44C309.091 17.67 300.411 9 289.651 9C300.421 9 309.091 17.76 309.091 28.44Z" fill="#010101"/>
<path d="M342.838 209.68C343.558 210.08 344.208 210.48 344.928 210.97C344.288 210.57 343.558 210.09 342.838 209.68Z" fill="#010101"/>
<path d="M273.18 51.1696C275.43 48.9196 277.6 46.9096 279.61 45.1396C277.6 46.9096 275.43 48.9996 273.18 51.1696Z" fill="#010101"/>
<path d="M266.521 58.4902C265.561 59.6102 264.671 60.8202 263.711 62.0202C264.671 60.8102 265.561 59.6102 266.521 58.4902Z" fill="#010101"/>
<path d="M190.762 529.9C193.892 529.9 196.952 529.66 200.002 529.18C196.952 529.58 193.812 529.9 190.762 529.9Z" fill="#010101"/>
<path d="M94.1886 57.9203C95.9586 58.3203 97.9686 58.8003 99.9686 59.3703C97.9586 58.8103 95.9486 58.3303 94.1886 57.9203Z" fill="#010101"/>
<path d="M145.209 148.14L162.399 138.26C162.959 137.94 163.439 137.62 164.009 137.38C163.449 137.7 162.889 137.94 162.399 138.26L145.209 148.14C144.489 130.95 143.119 105.24 141.109 96.1604C143.119 105.24 144.479 130.95 145.209 148.14Z" fill="#010101"/>
<path d="M235.022 87.4895C235.262 86.4495 235.582 85.4795 235.822 84.5195C235.582 85.4795 235.342 86.4495 235.022 87.4895C232.452 97.5295 231.162 128.14 230.602 144.85C231.162 128.14 232.532 97.5295 235.022 87.4895Z" fill="#1E1E1C"/>
<path d="M270.211 28.4403C270.211 27.9603 270.211 27.4803 270.291 27.0703C270.211 27.5503 270.211 28.0303 270.211 28.4403C270.211 30.1303 270.451 31.8103 270.851 33.4203C270.451 31.8903 270.211 30.2103 270.211 28.4403Z" fill="#1E1E1C"/>
<path d="M12.6484 417.91C13.0484 419.2 13.4484 420.48 13.9384 421.69C13.4584 420.4 13.0584 419.2 12.6484 417.91Z" fill="#1E1E1C"/>
<path d="M12.0105 415.5C11.8505 414.94 11.6905 414.29 11.6105 413.65C11.6105 413.49 11.5305 413.41 11.5305 413.25C11.2105 411.8 10.9705 410.36 10.8105 408.91C10.8105 408.75 10.8105 408.59 10.7305 408.43C10.7305 408.59 10.7305 408.75 10.8105 408.91C10.9705 410.36 11.2105 411.8 11.5305 413.25C11.5305 413.41 11.6105 413.49 11.6105 413.65C11.6905 414.29 11.8505 414.86 12.0105 415.5C12.0105 415.66 12.0905 415.74 12.0905 415.9C12.2505 416.54 12.4105 417.27 12.6505 417.91C12.4905 417.27 12.2505 416.54 12.0905 415.9C12.0905 415.74 12.0105 415.58 12.0105 415.5Z" fill="#1E1E1C"/>
<path d="M90.1814 71.9805C88.8114 73.6705 87.2114 75.1905 85.4414 76.4005C87.2914 75.1905 88.8914 73.6705 90.1814 71.9805C102.151 74.5505 122.961 81.4605 126.891 99.2905C127.051 100.01 127.211 100.82 127.371 101.86C127.211 100.9 127.051 100.01 126.891 99.2905C123.031 81.4605 102.151 74.5505 90.1814 71.9805Z" fill="#1E1E1C"/>
<path d="M10.4784 406.1C10.3984 405.62 10.3984 405.06 10.3984 404.57C10.3984 405.05 10.3984 405.61 10.4784 406.1C10.4784 406.34 10.4784 406.58 10.5584 406.82C10.6384 407.38 10.6384 407.94 10.7184 408.51C10.6384 407.95 10.5584 407.39 10.5584 406.82C10.4784 406.58 10.4784 406.34 10.4784 406.1Z" fill="#1E1E1C"/>
<path d="M10.3203 367.94V318.45V401.76C10.3203 402.48 10.3203 403.21 10.4003 403.93C10.4003 403.21 10.3203 402.48 10.3203 401.76V367.94Z" fill="#1E1E1C"/>
<path d="M289.651 47.9599C289.091 47.9599 288.531 47.9599 287.961 47.8799C288.521 47.8799 289.081 47.9599 289.651 47.9599Z" fill="#1E1E1C"/>
<path d="M273.179 51.1699C271.489 52.8599 269.809 54.6199 268.199 56.5499C269.889 54.6199 271.489 52.8499 273.179 51.1699Z" fill="#1E1E1C"/>
<path d="M244.99 149.27C244.99 150.15 244.91 151.04 244.91 151.92C244.99 151.12 244.99 150.23 244.99 149.27Z" fill="#1E1E1C"/>
<path d="M276.559 14.0604C277.119 13.5804 277.679 13.1004 278.329 12.6104C277.689 13.0904 277.119 13.5704 276.559 14.0604Z" fill="#1E1E1C"/>
<path d="M244.66 64.27C246.11 61.7 247.71 59.29 249.32 56.96C247.71 59.29 246.11 61.78 244.66 64.27Z" fill="#1E1E1C"/>
<path d="M272.539 19.2001C273.019 18.4001 273.499 17.5901 274.069 16.8701C273.509 17.5901 273.029 18.4001 272.539 19.2001Z" fill="#1E1E1C"/>
<path d="M248.761 93.1104C248.521 94.7204 248.201 96.6403 247.961 98.8103C248.201 96.6403 248.441 94.6304 248.761 93.1104Z" fill="#1E1E1C"/>
<path d="M247.961 98.8096C247.881 99.6896 247.801 100.58 247.641 101.54C247.721 100.58 247.801 99.6896 247.961 98.8096Z" fill="#1E1E1C"/>
<path d="M210.44 153.12L208.19 151.83C197.42 145.56 184.09 145.56 173.32 151.83L171.07 153.12C183.2 146.05 198.22 146.05 210.44 153.12Z" fill="#1E1E1C"/>
<path d="M366.858 237.07C366.378 235.95 365.898 234.82 365.328 233.7C363.718 230.41 361.798 227.27 359.548 224.38C356.978 221.01 353.928 217.87 350.628 215.06C350.148 214.66 349.668 214.26 349.178 213.94C348.458 213.38 347.728 212.9 347.088 212.41C346.448 211.92 345.718 211.53 345.078 211.04C344.438 210.55 343.708 210.16 342.988 209.75L244.978 153.19V151.98C244.978 151.18 245.058 150.29 245.058 149.33C245.058 148.45 245.138 147.48 245.138 146.52C245.138 145.56 245.218 144.51 245.218 143.47C245.218 142.99 245.218 142.43 245.298 141.86C245.378 140.57 245.378 139.29 245.458 137.92V137.52C245.538 136.15 245.538 134.79 245.618 133.42C245.618 132.54 245.698 131.65 245.778 130.69C245.858 129.32 245.938 127.88 246.018 126.51V126.03C246.178 123.06 246.338 120.09 246.498 117.11C246.658 114.78 246.818 112.45 246.978 110.2C247.058 109.48 247.058 108.75 247.138 108.03C247.218 106.74 247.378 105.54 247.458 104.33C247.538 103.29 247.618 102.32 247.698 101.44C247.778 100.48 247.858 99.5898 248.018 98.7098C248.258 96.4598 248.498 94.5298 248.818 93.0098C248.978 92.2098 249.138 91.5598 249.218 90.9198C249.378 90.2798 249.538 89.6298 249.698 88.9898C250.018 87.6998 250.418 86.4998 250.908 85.2898C251.148 84.6498 251.308 84.0798 251.548 83.4398C252.188 81.6698 252.998 79.9098 253.798 78.1398C254.358 77.0198 254.918 75.8898 255.488 74.7698C256.048 73.6498 256.698 72.5998 257.338 71.4798C258.628 69.3098 259.908 67.2998 261.278 65.2898C261.838 64.4898 262.398 63.7598 262.968 63.0398C263.288 62.6398 263.608 62.2398 263.848 61.8298C264.728 60.6198 265.698 59.4998 266.658 58.2998C267.218 57.6598 267.778 57.0098 268.348 56.3698C270.038 54.4398 271.718 52.6698 273.328 50.9898C275.578 48.7398 277.748 46.7298 279.758 44.9598C280.158 45.1998 280.478 45.3598 280.878 45.5998C281.598 45.9998 282.408 46.3198 283.208 46.6398C284.248 47.0398 285.298 47.2798 286.338 47.4398C286.898 47.5198 287.458 47.5998 288.028 47.6798C288.588 47.7598 289.148 47.7598 289.718 47.7598C291.728 47.7598 293.658 47.4398 295.498 46.8798C296.138 46.7198 296.708 46.4798 297.268 46.2398C298.148 45.8398 298.958 45.4398 299.758 44.9498C300.558 44.4598 301.288 43.9098 302.008 43.3398C302.568 42.8598 303.048 42.4598 303.538 41.8898C304.018 41.4098 304.498 40.8498 304.908 40.2798C305.148 40.0398 305.308 39.7198 305.548 39.3998C306.108 38.5998 306.588 37.7898 306.998 36.9098C307.158 36.5898 307.318 36.2698 307.478 35.9498C308.518 33.6198 309.088 30.9698 309.088 28.2398C309.088 17.4698 300.408 8.7998 289.648 8.7998H288.278C287.158 8.8798 285.948 9.0398 284.908 9.3598C283.378 9.7598 281.938 10.3198 280.648 10.9698C280.488 11.0498 280.248 11.2098 280.088 11.2898C279.448 11.6098 278.878 12.0098 278.318 12.4098C277.678 12.8098 277.108 13.2898 276.548 13.8598C276.308 14.0998 276.068 14.2598 275.908 14.4998C275.668 14.7398 275.508 14.9798 275.268 15.1398C274.868 15.6198 274.468 16.0998 274.058 16.5898C273.498 17.3098 273.018 18.1198 272.528 18.9198C272.128 19.6398 271.808 20.2898 271.568 21.0898C271.328 21.6498 271.168 22.2098 271.008 22.7798C270.848 23.1798 270.768 23.6598 270.688 24.0698C270.528 24.9498 270.368 25.8398 270.288 26.7998C270.288 27.2798 270.208 27.7598 270.208 28.1698C270.208 29.8598 270.448 31.5398 270.848 33.1498C269.638 34.1898 268.438 35.2398 267.148 36.4398C265.858 37.5598 264.658 38.8498 263.368 40.0598L261.998 41.4298C261.198 42.2298 260.388 43.1198 259.508 43.9998C259.028 44.4798 258.628 45.0398 258.138 45.5298C257.658 46.0898 257.178 46.6498 256.608 47.2198C254.118 50.1098 251.548 53.3298 249.218 56.6998C247.608 59.0298 246.008 61.4398 244.558 64.0098C243.108 66.5798 241.668 69.1498 240.378 71.8798C239.578 73.6498 238.768 75.4998 238.048 77.4198C237.568 78.7098 237.088 79.9898 236.678 81.2798C236.358 82.2398 236.038 83.2098 235.798 84.2498C235.478 85.2098 235.238 86.2598 234.998 87.2198C232.428 97.2598 231.138 127.87 230.578 144.58L219.088 137.91C216.918 136.7 214.748 135.58 212.418 134.62C211.858 134.38 211.298 134.14 210.728 133.98C209.608 133.58 208.398 133.18 207.198 132.77C206.638 132.61 205.988 132.45 205.428 132.29C203.658 131.81 201.808 131.41 199.968 131.08C198.118 130.76 196.268 130.6 194.428 130.44C193.218 130.36 191.938 130.28 190.728 130.28C182.048 130.28 173.458 132.29 165.658 136.14C165.098 136.38 164.538 136.7 163.968 137.02C163.398 137.34 162.848 137.58 162.358 137.9L145.168 147.78C144.448 130.59 143.078 104.88 141.068 95.7998C140.828 94.7598 140.588 93.7898 140.268 92.8298C139.948 91.8698 139.628 90.8998 139.308 90.0198C138.588 88.1698 137.778 86.3998 136.898 84.7998C136.258 83.6798 135.608 82.6298 134.968 81.5898C133.678 79.7398 132.318 77.9698 130.788 76.4498C129.828 75.4098 128.858 74.4398 127.818 73.5598C127.338 73.0798 126.778 72.6798 126.208 72.1898C124.838 71.0698 123.398 69.9398 121.868 68.9798C120.908 68.3398 119.858 67.6898 118.818 67.0498C118.338 66.7298 117.778 66.4898 117.288 66.1698C115.758 65.2898 114.158 64.5598 112.628 63.8398C111.098 63.1198 109.498 62.4698 107.968 61.8298C106.438 61.1898 104.918 60.7098 103.388 60.2198C102.908 60.0598 102.428 59.8998 101.938 59.7398C101.218 59.4998 100.568 59.3398 99.8484 59.0998C97.8384 58.5398 95.8284 58.0598 94.0684 57.6498C93.0284 47.9298 84.7484 40.2998 74.7084 40.2998C73.3384 40.2998 71.9784 40.4598 70.6884 40.6998C70.2884 40.7798 69.8084 40.8598 69.3984 41.0198C68.9884 41.1798 68.5984 41.2598 68.1084 41.4198C67.3084 41.7398 66.4984 42.0598 65.6984 42.4598C65.2984 42.6198 64.9784 42.8598 64.5784 43.0998C64.0184 43.4198 63.5384 43.7398 63.0484 44.1398C62.3284 44.6998 61.5984 45.3498 60.9584 45.9898C60.7184 46.2298 60.5584 46.4698 60.3184 46.6298C59.9184 47.1098 59.5184 47.5898 59.1084 48.0798C58.5484 48.7998 58.0684 49.6098 57.5784 50.4098C57.3384 50.8098 57.0984 51.2898 56.9384 51.6998C56.7784 52.0998 56.5384 52.4998 56.3784 52.9898C55.5784 55.0798 55.1684 57.3298 55.1684 59.6598C55.1684 61.6698 55.4884 63.5998 56.0484 65.4398C56.4484 66.6498 56.9284 67.8498 57.4984 68.8898C57.9784 69.6898 58.4584 70.4998 59.0284 71.2198C59.7484 72.1798 60.6384 73.1498 61.5184 73.9498C62.3984 74.7498 63.4484 75.5598 64.4884 76.1998C65.2884 76.6798 66.0984 77.0798 66.9784 77.4898C67.5384 77.7298 68.1884 77.9698 68.7484 78.1298C70.5984 78.6898 72.5284 79.0098 74.5284 79.0098C76.0584 79.0098 77.5784 78.8498 79.0284 78.4498C79.7484 78.2898 80.4784 78.0498 81.1184 77.8098C81.8384 77.5698 82.4884 77.2498 83.1284 76.9298C83.7684 76.6098 84.4184 76.2098 85.0584 75.8098C86.9084 74.5998 88.5084 73.1598 89.7984 71.3898C101.768 73.9598 122.578 80.8698 126.508 98.6998C126.668 99.4198 126.828 100.23 126.988 101.27C127.068 101.59 127.068 101.91 127.148 102.31C127.308 103.68 127.548 105.28 127.708 107.05C127.868 108.42 128.028 109.94 128.108 111.55C128.188 112.03 128.188 112.59 128.268 113.08C128.428 114.69 128.508 116.29 128.668 117.98C128.748 118.54 128.748 119.1 128.828 119.67C128.988 122.32 129.148 125.05 129.388 127.86C129.468 129.23 129.548 130.67 129.628 132.04C130.108 140.48 130.428 148.99 130.748 155.74L38.3584 209.08C36.1884 210.37 34.0984 211.73 32.0884 213.26C31.1284 213.98 30.1584 214.79 29.1984 215.59C28.7184 215.99 28.3184 216.39 27.8284 216.88C26.9484 217.68 26.0584 218.57 25.2584 219.45C24.8584 219.93 24.3784 220.41 23.9684 220.9C23.5684 221.38 23.1684 221.86 22.7584 222.35C22.1984 222.99 21.7184 223.64 21.2284 224.36C19.6984 226.37 18.3384 228.46 17.1284 230.63C16.4884 231.75 15.9184 232.8 15.4384 233.92C15.1984 234.4 14.9584 234.96 14.7184 235.45C14.2384 236.49 13.8384 237.54 13.4284 238.58C12.4684 241.23 11.6584 243.88 11.0984 246.69C11.0184 246.93 11.0184 247.17 10.9384 247.41C10.6184 249.1 10.3784 250.78 10.2184 252.47C10.2184 252.63 10.2184 252.79 10.1384 252.95C9.97844 254.72 9.89844 256.48 9.89844 258.25V317.94V401.25C9.89844 401.97 9.89844 402.7 9.97844 403.42V404.06C9.97844 404.54 10.0584 405.1 10.0584 405.59C10.0584 405.83 10.0584 406.07 10.1384 406.31C10.2184 406.87 10.2184 407.43 10.2984 408C10.2984 408.16 10.2984 408.32 10.3784 408.48C10.5384 409.93 10.7784 411.37 11.0984 412.82C11.0984 412.98 11.1784 413.06 11.1784 413.22C11.3384 413.86 11.4184 414.43 11.5784 415.07C11.5784 415.23 11.6584 415.31 11.6584 415.47C11.8184 416.11 11.9784 416.84 12.2184 417.48V417.56C12.6184 418.85 13.0184 420.13 13.5084 421.34C13.9884 422.63 14.4684 423.83 15.0384 425.04C16.4084 428.09 18.0884 430.98 20.0184 433.72C20.4184 434.28 20.8184 434.84 21.2284 435.33C22.0284 436.37 22.8384 437.42 23.7184 438.46C25.4884 440.47 27.3384 442.4 29.4184 444.16C30.7884 445.37 32.1484 446.49 33.6784 447.53C35.2084 448.57 36.6484 449.54 38.2584 450.5L162.058 522C165.268 523.85 168.648 525.37 172.178 526.58C173.388 526.98 174.508 527.3 175.708 527.62C178.118 528.26 180.528 528.74 182.938 529.07C184.148 529.23 185.428 529.39 186.638 529.47C187.848 529.55 189.128 529.63 190.338 529.63C193.468 529.63 196.528 529.39 199.578 528.91C201.428 528.59 203.198 528.19 205.038 527.7C206.248 527.38 207.448 527.06 208.568 526.66C209.778 526.26 210.898 525.86 212.018 525.37C213.708 524.65 215.388 523.84 217.078 522.96C217.638 522.64 218.198 522.4 218.688 522.08L342.488 450.58C345.298 448.97 347.948 447.13 350.438 445.04C352.048 443.67 353.648 442.23 355.098 440.7C360.958 434.51 365.378 427.12 368.028 419.09C368.988 416.04 369.718 412.98 370.198 409.77V409.61C370.438 407.92 370.598 406.24 370.678 404.55V403.91C370.678 403.11 370.758 402.3 370.758 401.42V258.42C371.078 251.19 369.558 243.8 366.738 237.05L366.858 237.07ZM27.4284 258.76V256.11C27.4284 243.66 34.0984 232.09 44.8584 225.9L47.1084 224.61L170.908 153.11L173.158 151.82C183.928 145.55 197.258 145.55 208.028 151.82L210.278 153.11L308.768 209.99L334.078 224.61C346.288 231.68 353.838 244.69 353.838 258.83V305.1L215.178 385.2C201.198 393.31 183.928 393.31 169.868 385.2L27.9984 303.27C27.8384 303.19 27.6784 303.03 27.5184 302.95V258.76H27.4384H27.4284ZM27.4284 344.97L96.1984 384.66L157.418 420.01C168.098 426.2 180.238 429.41 192.528 429.41C204.818 429.41 216.948 426.2 227.638 420.01L354.008 347.06V388.35L215.188 468.53C201.208 476.64 183.938 476.64 169.878 468.53L27.9184 386.58C27.7584 386.5 27.5984 386.34 27.4384 386.26V344.97H27.4284Z" fill="#1E1E1C"/>
<path d="M47.2002 224.62L44.9502 225.91C34.1802 232.18 27.5202 243.66 27.5202 256.12V258.77C27.4402 244.71 34.9902 231.62 47.2002 224.63V224.62Z" fill="#1E1E1C"/>
<path d="M169.952 468.85C183.932 476.96 201.202 476.96 215.262 468.85L354.082 388.67V347.38L227.632 420.33C216.952 426.52 204.812 429.73 192.522 429.73C180.232 429.73 168.102 426.52 157.412 420.33L96.1919 384.98L27.4219 345.29V386.58C27.5819 386.66 27.7419 386.82 27.9019 386.9L169.942 468.84L169.952 468.85Z" fill="#FDE248"/>
<path d="M169.952 385.54C183.932 393.65 201.202 393.65 215.262 385.54L354.082 305.36V259.09C354.082 244.95 346.532 231.94 334.322 224.87L309.012 210.25L210.522 153.37C198.312 146.3 183.292 146.3 171.072 153.37L47.2717 224.87C35.0617 231.94 27.5117 244.95 27.5117 259.09V303.28C27.6717 303.36 27.8317 303.52 27.9917 303.6L169.952 385.54ZM271.742 284.87C271.742 290.57 264.192 295.15 254.872 295.15C245.552 295.15 238.002 290.57 238.002 284.87C238.002 279.17 245.552 274.59 254.872 274.59C264.192 274.59 271.742 279.17 271.742 284.87ZM230.522 201.97C241.932 201.97 251.092 214.82 251.092 230.73C251.092 246.64 241.852 259.49 230.522 259.49C219.192 259.49 209.952 246.64 209.952 230.73C209.952 214.82 219.192 201.97 230.522 201.97ZM150.912 201.97C162.322 201.97 171.482 214.82 171.482 230.73C171.482 246.64 162.242 259.49 150.912 259.49C139.582 259.49 130.342 246.64 130.342 230.73C130.342 214.82 139.582 201.97 150.912 201.97ZM126.652 274.59C135.972 274.59 143.522 279.17 143.522 284.87C143.522 290.57 135.972 295.15 126.652 295.15C117.332 295.15 109.782 290.57 109.782 284.87C109.782 279.17 117.332 274.59 126.652 274.59Z" fill="#FDE248"/>
<path d="M230.519 259.41C241.929 259.41 251.089 246.56 251.089 230.65C251.089 214.74 241.849 201.89 230.519 201.89C219.189 201.89 209.949 214.74 209.949 230.65C209.949 246.56 219.189 259.41 230.519 259.41Z" fill="#1E1E1C"/>
<path d="M238 284.87C238 290.57 245.55 295.15 254.87 295.15C264.19 295.15 271.74 290.57 271.74 284.87C271.74 279.17 264.19 274.59 254.87 274.59C245.55 274.59 238 279.17 238 284.87Z" fill="#E6155F"/>
<path d="M150.91 259.41C162.32 259.41 171.48 246.56 171.48 230.65C171.48 214.74 162.24 201.89 150.91 201.89C139.58 201.89 130.34 214.74 130.34 230.65C130.34 246.56 139.58 259.41 150.91 259.41Z" fill="#1E1E1C"/>
<path d="M126.651 295.16C135.971 295.16 143.521 290.58 143.521 284.88C143.521 279.18 135.971 274.6 126.651 274.6C117.331 274.6 109.781 279.18 109.781 284.88C109.781 290.58 117.331 295.16 126.651 295.16Z" fill="#E6155F"/>
</g>
<defs>
<clipPath id="clip0_806_2045">
<rect width="381.51" height="538.98" fill="white"/>
</clipPath>
</defs>
</svg>
