<svg width="70" height="100" viewBox="0 0 70 100" fill="none" xmlns="http://www.w3.org/2000/svg">
<g clip-path="url(#clip0_500_3422)">
<path d="M63.9317 37.4351L46.7068 27.4479C46.8253 23.5431 47.0921 18.5486 47.4182 17.2978C48.1454 14.3915 50.0443 12.0072 51.7497 10.3518C52.2397 10.5007 52.7437 10.576 53.2633 10.576C54.6723 10.576 55.9941 10.0242 56.988 9.02563C57.982 8.02708 58.5312 6.70094 58.5312 5.28371C58.5312 2.36164 56.1719 -0.00683594 53.2651 -0.00683594C50.3582 -0.00683594 47.9989 2.3634 47.9989 5.28371V5.55174C45.5507 7.81686 42.6874 11.2907 41.5592 15.821C41.1738 17.3416 40.9366 20.9486 40.8024 24.0196C39.022 23.0508 37.0341 22.5445 35.0166 22.5445C32.8805 22.5445 30.7879 23.1104 28.9483 24.1843L28.1618 24.6467C28.0136 21.8438 27.7904 18.8341 27.494 17.4922C26.3814 12.4242 21.811 10.2624 18.5763 9.36898C17.8492 7.29656 15.8909 5.8513 13.6066 5.8513C10.698 5.8513 8.34043 8.22153 8.34043 11.1418C8.34043 14.0622 10.6997 16.4324 13.6066 16.4324C14.8534 16.4324 16.0252 15.9997 16.9599 15.2096C18.6217 15.6861 21.1135 16.7144 21.5739 18.7728C21.8407 19.9658 22.0935 24.3034 22.2557 28.0435L6.06831 37.4334C2.31398 39.6109 0 43.6506 0 48.0022V74.518C0 74.6826 0 74.8316 0.0156939 74.9805V75.1153C0.0156939 75.2205 0.0313878 75.3396 0.0313878 75.4429C0.0313878 75.4885 0.0470817 75.548 0.0470817 75.5919C0.0627756 75.711 0.0767257 75.8301 0.0924196 75.9492L0.108113 76.0543C0.153451 76.3679 0.197046 76.6797 0.272027 76.9933L0.287721 77.0827C0.317365 77.2175 0.347009 77.3367 0.376653 77.4698L0.392347 77.5592C0.421991 77.694 0.467329 77.843 0.510923 77.9919V78.0216C1.40199 81.0173 3.38988 83.5364 6.07528 85.0868L28.9378 98.3517C30.7775 99.4256 32.8839 99.9914 35.0061 99.9914C37.1283 99.9914 39.2347 99.4256 41.0744 98.3517L63.9369 85.0868C67.1123 83.2386 69.3374 79.9592 69.8867 76.2786V76.2628C69.9459 75.9054 69.9756 75.5323 69.9913 75.1749V75.0558C70.007 74.8771 70.007 74.6984 70.007 74.5197V48.004C70.007 43.6664 67.693 39.6127 63.9387 37.4369L63.9317 37.4351ZM68.3225 48.0022V74.5337C68.3225 74.6826 68.3225 74.8316 68.3068 74.9962V75.1153C68.2911 75.4289 68.2615 75.7408 68.2179 76.0543V76.0841C68.1289 76.6797 67.9947 77.2473 67.8168 77.8132C67.3268 79.304 66.5107 80.6757 65.4278 81.8231C65.161 82.1069 64.8646 82.375 64.5682 82.6272C64.1078 83.0144 63.6178 83.3577 63.0999 83.6555L40.2374 96.9204C40.1328 96.98 40.0438 97.0396 39.941 97.0851C39.6445 97.2498 39.3324 97.3987 39.0063 97.5318C38.7988 97.6212 38.5756 97.6965 38.3681 97.7701C38.1449 97.8454 37.9374 97.905 37.7159 97.9645C37.3898 98.0539 37.048 98.1292 36.7063 98.1888C36.143 98.2781 35.5781 98.3237 35.0009 98.3237C34.7777 98.3237 34.5405 98.3079 34.3191 98.2939C34.0959 98.2781 33.8587 98.2483 33.6372 98.2186C33.1926 98.159 32.7322 98.0696 32.3015 97.9505C32.0783 97.891 31.8569 97.8314 31.6494 97.7561C30.9972 97.5318 30.3729 97.2498 29.78 96.9064L6.91752 83.6415C6.62108 83.4769 6.33859 83.2842 6.07179 83.0897C5.805 82.8952 5.5382 82.6868 5.28535 82.4643C4.91393 82.1367 4.5582 81.7793 4.23212 81.4062C4.06821 81.2117 3.91999 81.019 3.77177 80.8246C3.69678 80.7195 3.62355 80.6301 3.54856 80.5268C3.19284 80.0205 2.8964 79.4827 2.62786 78.9168C2.52323 78.6926 2.4343 78.4701 2.34537 78.2319C2.25643 77.9936 2.18145 77.7694 2.10821 77.5311V77.5154C2.07857 77.3962 2.03323 77.2613 2.00359 77.1422C2.00359 77.1124 1.98789 77.0967 1.98789 77.0669C1.95825 76.9618 1.92861 76.8427 1.91291 76.7235C1.91291 76.6937 1.89722 76.678 1.89722 76.6482C1.83793 76.3802 1.79259 76.1121 1.76295 75.8441C1.76295 75.8143 1.76295 75.7845 1.74725 75.7548C1.73156 75.6497 1.71761 75.5463 1.71761 75.4412C1.71761 75.3956 1.71761 75.3518 1.70192 75.3063C1.68622 75.217 1.68622 75.1118 1.68622 75.0225V74.9034C1.68622 74.7685 1.67053 74.6353 1.67053 74.5005V59.044V47.9689C1.67053 47.6413 1.68622 47.3137 1.71587 46.9844C1.71587 46.9546 1.71587 46.9248 1.73156 46.895C1.7612 46.5815 1.80654 46.2696 1.86583 45.9561C1.88152 45.9105 1.88152 45.8667 1.89547 45.8212C2.0001 45.3149 2.14832 44.8069 2.32618 44.3163C2.40117 44.1219 2.4744 43.9292 2.56334 43.7347C2.60867 43.6454 2.65227 43.5403 2.69761 43.4509C2.80223 43.2425 2.90511 43.034 3.00974 42.8395C3.23294 42.4366 3.48404 42.0495 3.76653 41.6763C3.85547 41.5572 3.96009 41.4223 4.04902 41.3032C4.12401 41.2138 4.19724 41.1245 4.27223 41.0352C4.34721 40.9458 4.43614 40.8565 4.50938 40.7671C4.6576 40.6024 4.82151 40.4395 4.98368 40.2906C5.07262 40.2153 5.1476 40.1417 5.23653 40.0524C5.41439 39.9035 5.57831 39.7546 5.77012 39.6197C6.14154 39.3359 6.51122 39.0836 6.92798 38.8454L23.9907 28.9475C23.9454 27.6949 23.8722 26.1148 23.7832 24.5504C23.7675 24.2824 23.7536 24.0283 23.7379 23.7761C23.7082 23.254 23.6786 22.7477 23.6333 22.2555C23.6176 22.1504 23.6176 22.047 23.6036 21.9419C23.574 21.6283 23.5583 21.3165 23.5286 21.0327C23.5129 20.9276 23.5129 20.8382 23.499 20.7489C23.4693 20.4511 23.4537 20.1831 23.424 19.915C23.3944 19.5874 23.349 19.2896 23.3194 19.0356C23.3037 18.976 23.3037 18.9007 23.2897 18.8412C23.2601 18.6625 23.2304 18.4978 23.2008 18.3647C22.4737 15.0554 18.6304 13.7731 16.421 13.2966C16.1682 13.6102 15.8718 13.8922 15.5457 14.1165C15.4271 14.1918 15.3225 14.2513 15.1899 14.3249C15.0714 14.3845 14.9371 14.444 14.8185 14.4896C14.6843 14.5351 14.5657 14.5789 14.4332 14.6087C14.1664 14.6683 13.8839 14.7138 13.6031 14.7138C13.2317 14.7138 12.876 14.6543 12.5342 14.5492C12.4156 14.5194 12.311 14.4738 12.2081 14.43C12.0442 14.3547 11.896 14.2811 11.7478 14.1918C11.5542 14.0727 11.3624 13.9378 11.1985 13.7748C11.0346 13.6102 10.8724 13.4473 10.7381 13.2686C10.6335 13.1337 10.5446 12.9848 10.4556 12.8359C10.351 12.6274 10.2481 12.4189 10.1888 12.1947C10.0842 11.8513 10.0249 11.494 10.0249 11.1208C10.0249 10.6881 10.0999 10.2712 10.2481 9.88402C10.2778 9.80869 10.3074 9.71935 10.3527 9.64577C10.3824 9.55643 10.4277 9.4811 10.4713 9.40753C10.5602 9.25862 10.6492 9.10971 10.7538 8.97482C10.8288 8.88548 10.902 8.79613 10.977 8.70679C11.0223 8.66124 11.052 8.61745 11.0956 8.58767C11.2142 8.46854 11.3484 8.34942 11.481 8.24431C11.5699 8.16898 11.6745 8.10942 11.7634 8.04985C11.8384 8.0043 11.8977 7.97452 11.971 7.93073C12.1192 7.8554 12.2534 7.79584 12.4156 7.73627C12.4906 7.70649 12.5638 7.67671 12.6528 7.66095C12.7417 7.64518 12.8167 7.6154 12.8899 7.60138C13.1271 7.55584 13.3799 7.52605 13.631 7.52605C15.4864 7.52605 17.0139 8.92752 17.2075 10.7459C17.5336 10.8213 17.905 10.9106 18.2764 11.014C18.395 11.0437 18.5293 11.0893 18.6618 11.1331C18.7507 11.1629 18.8396 11.1926 18.9286 11.2224C19.2111 11.3118 19.4918 11.4169 19.7743 11.5202C20.0568 11.6236 20.3532 11.7585 20.634 11.8934C20.9165 12.0283 21.2129 12.1772 21.4937 12.3261C21.5826 12.3856 21.6872 12.4312 21.7761 12.4908C21.9697 12.5959 22.1476 12.715 22.3394 12.8481C22.6219 13.0268 22.8887 13.2353 23.1398 13.4438C23.2444 13.5191 23.3333 13.6084 23.4362 13.6978C23.6298 13.8765 23.8076 14.0551 23.9855 14.2338C24.268 14.5316 24.5191 14.8452 24.7562 15.1886C24.8905 15.383 25.0091 15.5757 25.112 15.7842C25.2759 16.0978 25.4381 16.4096 25.5566 16.753C25.6159 16.9176 25.6752 17.0963 25.7345 17.275C25.7938 17.4537 25.8391 17.6324 25.8827 17.8268C26.2541 19.5104 26.5052 24.2806 26.6395 27.4707L29.8149 25.6365C29.9195 25.577 30.0085 25.5174 30.1113 25.4719C30.2142 25.4263 30.3189 25.3667 30.4235 25.3072C31.8621 24.5924 33.4507 24.2193 35.0532 24.2193C35.2764 24.2193 35.5135 24.2351 35.735 24.2491C36.0768 24.2789 36.4168 24.3086 36.7586 24.3682C37.1004 24.4278 37.4264 24.5031 37.7682 24.5924C37.8729 24.6222 37.9914 24.652 38.0943 24.6818C38.3175 24.7413 38.525 24.8167 38.7465 24.906C38.8511 24.9516 38.954 24.9954 39.0586 25.0251C39.4736 25.2038 39.8886 25.3983 40.2897 25.6365L42.4119 26.8733C42.5165 23.7726 42.7676 18.0949 43.228 16.2309C43.2733 16.0365 43.3326 15.8578 43.3762 15.6791C43.4355 15.5004 43.4808 15.306 43.5401 15.1273C43.6151 14.889 43.704 14.6508 43.7929 14.4125C43.9272 14.0692 44.0754 13.7276 44.2236 13.3842C44.4608 12.8779 44.7136 12.3856 44.9944 11.9232C45.2751 11.4607 45.5576 10.9982 45.8541 10.5672C46.2987 9.94183 46.7591 9.34446 47.2194 8.8084C47.3084 8.70329 47.3973 8.59993 47.5019 8.49482C47.5909 8.40547 47.6658 8.30037 47.7548 8.21102C47.903 8.04635 48.0512 7.88343 48.2151 7.73452C48.3041 7.64518 48.379 7.56985 48.468 7.48051C48.7051 7.24226 48.9423 7.01802 49.1655 6.80955C49.4026 6.60109 49.6258 6.39262 49.8473 6.19816C49.7723 5.90035 49.7287 5.60254 49.7287 5.27319C49.7287 5.18385 49.7287 5.09451 49.7444 5.01918C49.7601 4.84049 49.7741 4.67582 49.8194 4.5129C49.8351 4.42355 49.8647 4.34823 49.8787 4.27465C49.9083 4.16954 49.938 4.06618 49.9833 3.96107C50.0426 3.82618 50.1019 3.69304 50.1612 3.55815C50.2501 3.40924 50.339 3.26034 50.4437 3.12544C50.5186 3.0361 50.5919 2.94676 50.6669 2.85741C50.7122 2.81187 50.7418 2.76807 50.7854 2.73829C50.8308 2.69274 50.8744 2.66296 50.904 2.61916C51.0086 2.52982 51.1115 2.44048 51.2301 2.35113C51.3347 2.2758 51.4376 2.20223 51.5562 2.14267C51.5858 2.1269 51.6312 2.09712 51.6608 2.0831C51.9137 1.94821 52.1805 1.84485 52.4472 1.78529C52.6548 1.73974 52.8623 1.69595 53.0698 1.68018H53.3226C55.3105 1.68018 56.913 3.29012 56.913 5.28721C56.913 5.79349 56.8084 6.27174 56.6166 6.71846C56.5869 6.77802 56.5573 6.83758 56.5277 6.89715C56.4527 7.06182 56.3498 7.21072 56.2609 7.35963C56.2155 7.41919 56.1859 7.46474 56.1423 7.5243C56.0673 7.62941 55.9784 7.71876 55.8894 7.82211C55.8005 7.91146 55.6959 8.0008 55.607 8.09015C55.4727 8.19526 55.3402 8.29861 55.1919 8.38796C55.0437 8.4773 54.8955 8.55263 54.7316 8.62621C54.627 8.67175 54.5084 8.71555 54.4055 8.74533C54.0637 8.85044 53.708 8.91 53.3366 8.91C53.2319 8.91 53.1291 8.91 53.0244 8.89424C52.9198 8.87847 52.8169 8.86446 52.7123 8.84869C52.5048 8.81891 52.3112 8.75935 52.1334 8.69978C51.9851 8.64022 51.8369 8.58066 51.7027 8.50533C51.6277 8.47555 51.5684 8.43 51.4952 8.3862C51.1098 8.7138 50.7087 9.10095 50.3076 9.50388C49.9955 9.81745 49.6851 10.145 49.3869 10.5024C49.2823 10.6215 49.1794 10.7407 49.0748 10.8598C48.8969 11.0683 48.733 11.2925 48.5552 11.515C48.4959 11.5903 48.4366 11.6639 48.3913 11.7392C48.2866 11.8741 48.1837 12.023 48.0791 12.1562C47.8263 12.5293 47.5752 12.9007 47.352 13.3036C47.2334 13.4981 47.1288 13.7065 47.0102 13.915C46.9056 14.1235 46.8027 14.3319 46.698 14.5404C46.5498 14.854 46.4156 15.1816 46.283 15.5249C46.2377 15.63 46.1941 15.7492 46.1645 15.8683C46.0895 16.0925 46.0162 16.3308 45.9413 16.5533C45.9116 16.6724 45.882 16.7915 45.8523 16.9106C45.8227 17.0157 45.793 17.1489 45.7773 17.2978C45.732 17.5956 45.6727 17.953 45.6291 18.3559C45.6134 18.5206 45.5995 18.6835 45.5698 18.8622C45.5541 19.0409 45.5402 19.2196 45.5245 19.3982C45.5088 19.6225 45.4792 19.845 45.4652 20.0832C45.4495 20.2181 45.4495 20.3512 45.4356 20.4861C45.4059 20.9031 45.3763 21.3358 45.3466 21.7685C45.317 22.3045 45.2873 22.8721 45.2577 23.4222V23.5115C45.242 23.7656 45.2281 24.0336 45.2124 24.2859C45.1967 24.4505 45.1967 24.6292 45.1827 24.7921C45.167 25.0462 45.167 25.2984 45.1531 25.5524V25.6278C45.1374 25.8818 45.1374 26.12 45.1234 26.3583C45.1234 26.4634 45.1234 26.5527 45.1077 26.6561C45.1077 26.8505 45.092 27.0292 45.092 27.2219C45.092 27.4006 45.0763 27.5653 45.0763 27.744C45.0763 27.9087 45.0607 28.0716 45.0607 28.2362V28.4605L63.1609 38.954C63.2952 39.0293 63.4138 39.1029 63.5463 39.1922C63.6788 39.2816 63.7992 39.3569 63.9177 39.4462C64.052 39.5356 64.1845 39.6407 64.3031 39.73C64.392 39.8054 64.481 39.8789 64.5699 39.9385C65.1924 40.4448 65.7417 41.0264 66.216 41.6676C66.631 42.2036 66.9868 42.7852 67.285 43.3966C67.3896 43.6051 67.4785 43.8136 67.5674 44.022C68.0278 45.215 68.3085 46.585 68.3085 47.9864L68.3225 48.0022Z" fill="white"/>
<path d="M40.235 25.6456C39.8339 25.4213 39.4346 25.2129 39.0039 25.0342C39.4189 25.2129 39.8339 25.4073 40.235 25.6456Z" fill="#030304"/>
<path d="M51.1699 2.34812C51.2745 2.27279 51.3774 2.19921 51.496 2.13965C51.3774 2.19921 51.2728 2.27454 51.1699 2.34812Z" fill="#030304"/>
<path d="M56.8546 5.27011C56.8546 5.77639 56.75 6.25465 56.5582 6.70136C56.7517 6.26866 56.8546 5.77639 56.8546 5.27011C56.8546 3.27302 55.2521 1.66309 53.2642 1.66309C55.2521 1.66309 56.8546 3.28704 56.8546 5.27011Z" fill="#030304"/>
<path d="M63.0866 38.8958C63.2209 38.9712 63.3395 39.0447 63.472 39.1341C63.3534 39.0588 63.2191 38.9694 63.0866 38.8958Z" fill="#030304"/>
<path d="M50.2227 9.48779C50.6377 9.07085 51.0387 8.69771 51.4102 8.37012C51.0387 8.69771 50.6394 9.08487 50.2227 9.48779Z" fill="#030304"/>
<path d="M48.9903 10.8438C48.8125 11.0522 48.6486 11.2765 48.4707 11.4989C48.6486 11.2747 48.8125 11.0522 48.9903 10.8438Z" fill="#030304"/>
<path d="M35 98.3077C35.5789 98.3077 36.1422 98.2622 36.7054 98.1729C36.1422 98.2482 35.5632 98.3077 35 98.3077Z" fill="#030304"/>
<path d="M68.3219 48.0026C68.3219 46.6012 68.0394 45.2295 67.5215 43.9629C68.0411 45.2295 68.3219 46.6012 68.3219 48.0026Z" fill="#030304"/>
<path d="M17.1652 10.7404C17.4913 10.8157 17.8627 10.9051 18.2341 11.0084C17.8627 10.9033 17.493 10.814 17.1652 10.7404C16.9717 8.93599 15.4441 7.52051 13.5888 7.52051C13.3359 7.52051 13.0848 7.55029 12.8477 7.59584C13.0848 7.55029 13.3377 7.52051 13.5888 7.52051C15.4441 7.52051 16.9717 8.93599 17.1652 10.7404Z" fill="#030304"/>
<path d="M26.5867 27.4779L29.7621 25.6437C29.8667 25.5842 29.9556 25.5246 30.0585 25.4791C29.9539 25.5386 29.851 25.5842 29.7621 25.6437L26.5867 27.4779C26.4524 24.2878 26.2013 19.5193 25.8299 17.8341C25.7845 17.6396 25.7409 17.4609 25.6816 17.2822C25.7409 17.4609 25.7863 17.6396 25.8299 17.8341C26.2013 19.5176 26.4524 24.2878 26.5867 27.4779Z" fill="#030304"/>
<path d="M23.9321 14.2421C23.7542 14.0477 23.5764 13.869 23.3828 13.7061C23.5764 13.8707 23.7542 14.0494 23.9321 14.2421Z" fill="#030304"/>
<path d="M43.1735 16.2257C43.2188 16.0312 43.2781 15.8525 43.3217 15.6738C43.2764 15.8525 43.2328 16.0312 43.1735 16.2257C42.6992 18.0896 42.462 23.7673 42.3574 26.8681C42.462 23.7673 42.7131 18.0896 43.1735 16.2257Z" fill="#1E1E1C"/>
<path d="M49.6738 5.26964C49.6738 5.1803 49.6738 5.09095 49.6895 5.01562C49.6738 5.10497 49.6738 5.19431 49.6738 5.26964C49.6738 5.58322 49.7192 5.89505 49.7924 6.19461C49.7174 5.91081 49.6738 5.59899 49.6738 5.26964Z" fill="#1E1E1C"/>
<path d="M2.10742 77.5314C2.1824 77.7696 2.25564 78.0079 2.34457 78.2321C2.25564 77.9939 2.18066 77.7696 2.10742 77.5314Z" fill="#1E1E1C"/>
<path d="M1.98869 77.0826C1.95904 76.9775 1.9294 76.8584 1.9137 76.7393C1.9137 76.7095 1.89801 76.6937 1.89801 76.6639C1.83872 76.3959 1.79338 76.1279 1.76374 75.8599C1.76374 75.8301 1.76374 75.8003 1.74805 75.7705C1.74805 75.8003 1.74805 75.8301 1.76374 75.8599C1.79338 76.1279 1.83872 76.3959 1.89801 76.6639C1.89801 76.6937 1.9137 76.7095 1.9137 76.7393C1.9294 76.8584 1.95904 76.9635 1.98869 77.0826C1.98869 77.1124 2.00438 77.1282 2.00438 77.158C2.03402 77.2771 2.06367 77.412 2.10901 77.5311C2.07936 77.412 2.03402 77.2771 2.00438 77.158C2.00438 77.1282 1.98869 77.0984 1.98869 77.0826Z" fill="#1E1E1C"/>
<path d="M16.4242 13.3477C16.1714 13.6612 15.8749 13.9433 15.5488 14.1675C15.8906 13.9433 16.187 13.6612 16.4242 13.3477C18.6353 13.8242 22.4768 15.1065 23.204 18.4157C23.2336 18.5506 23.2632 18.6995 23.2929 18.8922C23.2632 18.7135 23.2336 18.5489 23.204 18.4157C22.4925 15.1065 18.6336 13.8242 16.4242 13.3477Z" fill="#1E1E1C"/>
<path d="M1.72084 75.4743C1.73653 75.5795 1.73653 75.6828 1.75049 75.7879C1.73479 75.6828 1.72084 75.5795 1.72084 75.4743Z" fill="#1E1E1C"/>
<path d="M1.67578 68.2586V59.0772V48.0021C1.67578 47.6745 1.69148 47.3469 1.72112 47.0176C1.69148 47.3452 1.67578 47.6728 1.67578 48.0021V59.0772V74.5336C1.67578 74.6685 1.67578 74.8017 1.69148 74.9366C1.69148 74.8017 1.67578 74.6685 1.67578 74.5336V68.2586Z" fill="#1E1E1C"/>
<path d="M53.2633 8.89077C53.1587 8.89077 53.0558 8.89077 52.9512 8.875C53.0558 8.875 53.1587 8.89077 53.2633 8.89077Z" fill="#1E1E1C"/>
<path d="M50.2215 9.48828C49.9094 9.80186 49.599 10.1295 49.3008 10.4868C49.6129 10.1295 49.9094 9.80186 50.2215 9.48828Z" fill="#1E1E1C"/>
<path d="M45.0137 27.6875C45.0137 27.8522 44.998 28.0151 44.998 28.1798C45.0137 28.0309 45.0137 27.8662 45.0137 27.6875Z" fill="#1E1E1C"/>
<path d="M50.8457 2.60202C50.9503 2.51267 51.0532 2.42333 51.1718 2.33398C51.0532 2.42333 50.9486 2.51267 50.8457 2.60202Z" fill="#1E1E1C"/>
<path d="M44.9551 11.9174C45.2219 11.4409 45.5183 10.9925 45.8148 10.5615C45.5183 10.9942 45.2219 11.4567 44.9551 11.9174Z" fill="#1E1E1C"/>
<path d="M45.7107 17.2676C45.6654 17.5654 45.6061 17.9228 45.5625 18.3257C45.6078 17.9228 45.6514 17.5514 45.7107 17.2676Z" fill="#1E1E1C"/>
<path d="M45.5632 18.3262C45.5475 18.4908 45.5336 18.6538 45.5039 18.8325C45.5196 18.6538 45.5335 18.4891 45.5632 18.3262Z" fill="#1E1E1C"/>
<path d="M38.635 28.4027L38.22 28.1644C36.2321 27.0012 33.7681 27.0012 31.7803 28.1644L31.3652 28.4027C33.606 27.0905 36.3803 27.0905 38.635 28.4027Z" fill="#1E1E1C"/>
<path d="M67.5219 43.9786C67.433 43.7701 67.3441 43.5616 67.2394 43.3532C66.943 42.7418 66.5873 42.1602 66.1705 41.6241C65.6962 40.9987 65.1312 40.4171 64.5244 39.895C64.4355 39.8197 64.3465 39.7461 64.2576 39.6866C64.1233 39.5815 63.9908 39.4921 63.8722 39.4028C63.7536 39.3134 63.6194 39.2381 63.5008 39.1488C63.3822 39.0594 63.248 38.9841 63.1154 38.9105L45.0151 28.417V28.1928C45.0151 28.0439 45.0308 27.8792 45.0308 27.7005C45.0308 27.5358 45.0465 27.3572 45.0465 27.1785C45.0465 26.9998 45.0622 26.8053 45.0622 26.6126C45.0622 26.5233 45.0622 26.4182 45.0779 26.3148C45.0936 26.0766 45.0936 25.8383 45.1075 25.5843V25.509C45.1232 25.255 45.1232 25.0027 45.1372 24.7487C45.1372 24.584 45.1529 24.4211 45.1668 24.2424C45.1825 23.9884 45.1965 23.7204 45.2122 23.4681V23.3787C45.2418 22.8269 45.2715 22.2751 45.3011 21.725C45.3308 21.2923 45.3604 20.8614 45.39 20.4427C45.4057 20.3078 45.4057 20.1746 45.4197 20.0397C45.4354 19.8015 45.465 19.5773 45.479 19.3548C45.4947 19.1603 45.5086 18.9816 45.5243 18.8187C45.54 18.64 45.554 18.4754 45.5836 18.3124C45.6289 17.8955 45.6725 17.5381 45.7318 17.2543C45.7615 17.1054 45.7911 16.9863 45.8068 16.8672C45.8364 16.748 45.8661 16.6289 45.8957 16.5098C45.955 16.2715 46.03 16.0473 46.1189 15.8248C46.1643 15.7057 46.1939 15.6006 46.2375 15.4815C46.3561 15.1539 46.5043 14.8263 46.6525 14.4969C46.7572 14.2885 46.86 14.08 46.9647 13.8715C47.0693 13.6631 47.1879 13.4686 47.3064 13.2601C47.5436 12.8572 47.7807 12.4858 48.0336 12.1127C48.1382 11.9638 48.2411 11.8289 48.3457 11.6958C48.405 11.6204 48.4643 11.5468 48.5096 11.4715C48.6735 11.2473 48.8514 11.0388 49.0293 10.8163C49.1339 10.6972 49.2368 10.5781 49.3414 10.459C49.6535 10.1016 49.9639 9.77399 50.2621 9.46041C50.6771 9.04348 51.0782 8.67034 51.4496 8.34274C51.5246 8.38829 51.5839 8.41807 51.6571 8.46187C51.7914 8.5372 51.9396 8.59676 52.0878 8.65632C52.2814 8.73165 52.4732 8.77545 52.6668 8.80523C52.7714 8.82099 52.8743 8.83501 52.9789 8.85078C53.0835 8.86654 53.1864 8.86654 53.291 8.86654C53.6625 8.86654 54.0182 8.80698 54.36 8.70187C54.4785 8.67209 54.5832 8.62654 54.6861 8.58274C54.85 8.50742 54.9982 8.43384 55.1464 8.34449C55.2946 8.25515 55.4289 8.15004 55.5614 8.04668C55.6661 7.95734 55.755 7.88201 55.8439 7.77865C55.9328 7.68931 56.0218 7.5842 56.0968 7.48084C56.1421 7.43529 56.1717 7.37573 56.2153 7.31617C56.32 7.16726 56.4089 7.01836 56.4821 6.85368C56.5118 6.79412 56.5414 6.73456 56.5711 6.675C56.7646 6.24229 56.8675 5.75003 56.8675 5.24375C56.8675 3.24666 55.265 1.63672 53.2771 1.63672H53.0242C52.8167 1.65249 52.5935 1.68227 52.4017 1.74183C52.1192 1.81716 51.8524 1.92052 51.6153 2.03964C51.5856 2.05541 51.5403 2.08519 51.5107 2.0992C51.3921 2.15877 51.2875 2.23409 51.1846 2.30767C51.066 2.383 50.9614 2.47234 50.8585 2.5757C50.8132 2.62125 50.7696 2.65103 50.7399 2.69483C50.6946 2.74037 50.6649 2.78417 50.6213 2.81395C50.5464 2.9033 50.4731 2.99264 50.3981 3.08198C50.2935 3.21687 50.2046 3.36578 50.1156 3.51469C50.0407 3.64958 49.9814 3.7687 49.9378 3.91761C49.8924 4.02272 49.8628 4.12608 49.8332 4.23119C49.8035 4.30652 49.7878 4.39586 49.7739 4.46944C49.7442 4.63411 49.7146 4.79703 49.6989 4.97572C49.6989 5.06506 49.6832 5.1544 49.6832 5.22973C49.6832 5.54331 49.7285 5.85514 49.8018 6.1547C49.5786 6.34915 49.3571 6.54186 49.12 6.76609C48.8828 6.97456 48.6596 7.21281 48.4225 7.43704L48.1696 7.69106C48.0214 7.83997 47.8732 8.00464 47.7092 8.16756C47.6203 8.2569 47.5453 8.36201 47.4564 8.45136C47.3675 8.55647 47.2785 8.65983 47.1739 8.76494C46.7136 9.301 46.2393 9.89837 45.8085 10.5238C45.5121 10.9565 45.2157 11.4032 44.9489 11.8797C44.6821 12.3562 44.4153 12.8344 44.1781 13.3407C44.0299 13.6683 43.8817 14.0117 43.7474 14.3691C43.6585 14.6073 43.5695 14.8456 43.4946 15.0838C43.4353 15.2625 43.376 15.4412 43.3307 15.6356C43.2714 15.8143 43.226 16.0088 43.1824 16.1875C42.7081 18.0514 42.471 23.7291 42.3664 26.8299L40.2442 25.5931C39.8431 25.3688 39.4438 25.1604 39.0131 24.9817C38.9085 24.9361 38.8056 24.8923 38.701 24.8625C38.4934 24.7872 38.2702 24.7136 38.0488 24.6383C37.9442 24.6085 37.8256 24.5787 37.7227 24.549C37.3966 24.4596 37.0548 24.3843 36.7131 24.3247C36.3713 24.2652 36.0312 24.2354 35.6895 24.2056C35.4663 24.1898 35.2291 24.1758 35.0077 24.1758C33.4051 24.1758 31.8183 24.549 30.378 25.2637C30.2733 25.3093 30.1705 25.3688 30.0658 25.4284C29.9612 25.488 29.8583 25.5335 29.7694 25.5931L26.594 27.4272C26.4597 24.2371 26.2086 19.4686 25.8372 17.7834C25.7919 17.5889 25.7483 17.4102 25.689 17.2316C25.6297 17.0529 25.5704 16.8742 25.5111 16.7095C25.3768 16.3661 25.2286 16.0386 25.0664 15.7407C24.9479 15.5323 24.8293 15.3378 24.7107 15.1451C24.4736 14.8018 24.2207 14.4742 23.94 14.1904C23.7621 13.9959 23.5842 13.8172 23.3907 13.6543C23.3018 13.565 23.1971 13.4896 23.0942 13.4003C22.8414 13.1918 22.5746 12.9834 22.2939 12.8047C22.116 12.6855 21.9224 12.5664 21.7306 12.4473C21.6417 12.3877 21.5371 12.3422 21.4481 12.2826C21.1656 12.1179 20.8692 11.9848 20.5885 11.8499C20.3077 11.715 20.0095 11.5959 19.7288 11.4768C19.448 11.3577 19.1655 11.2683 18.8831 11.179C18.7941 11.1492 18.7052 11.1194 18.6163 11.0896C18.482 11.0441 18.3634 11.0143 18.2309 10.9705C17.8595 10.8654 17.4898 10.776 17.162 10.7025C16.9684 8.89808 15.4409 7.48259 13.5855 7.48259C13.3326 7.48259 13.0815 7.51237 12.8444 7.55792C12.7694 7.57369 12.6805 7.5877 12.6072 7.61748C12.534 7.64726 12.459 7.66303 12.3701 7.69281C12.2219 7.75237 12.0736 7.81194 11.9254 7.88727C11.8504 7.91705 11.7912 7.96259 11.7179 8.00639C11.6133 8.06595 11.5244 8.12552 11.4354 8.20084C11.3012 8.30595 11.1686 8.42508 11.0501 8.5442C11.0047 8.58975 10.9751 8.63355 10.9315 8.66333C10.8565 8.75267 10.7833 8.84202 10.7083 8.93136C10.6037 9.06625 10.5147 9.21516 10.4258 9.36406C10.3804 9.43939 10.3369 9.52874 10.3072 9.60231C10.2776 9.67764 10.2322 9.75122 10.2026 9.84056C10.0544 10.2277 9.97938 10.6447 9.97938 11.0774C9.97938 11.4505 10.0387 11.8079 10.1433 12.1512C10.2183 12.3755 10.3072 12.5979 10.4101 12.7924C10.499 12.9413 10.588 13.0902 10.6926 13.2251C10.8269 13.4038 10.989 13.5825 11.1529 13.7314C11.3169 13.8803 11.5087 14.0292 11.7022 14.1483C11.8504 14.2377 11.9987 14.313 12.1626 14.3866C12.2672 14.4321 12.3858 14.4759 12.4887 14.5057C12.8304 14.6108 13.1862 14.6704 13.5576 14.6704C13.8401 14.6704 14.1208 14.6406 14.3876 14.5653C14.5219 14.5355 14.6544 14.4899 14.773 14.4461C14.9073 14.4006 15.0258 14.341 15.1444 14.2815C15.263 14.2219 15.3816 14.1466 15.5001 14.073C15.8419 13.8488 16.1384 13.5807 16.3755 13.2531C18.5866 13.7296 22.4281 15.012 23.1553 18.3212C23.1849 18.4561 23.2146 18.605 23.2442 18.7977C23.2599 18.8573 23.2599 18.9168 23.2739 18.9921C23.3035 19.2462 23.3488 19.544 23.3785 19.8716C23.4081 20.1256 23.4378 20.4076 23.4535 20.7054C23.4692 20.7948 23.4692 20.8999 23.4831 20.9892C23.5128 21.2871 23.5284 21.5849 23.5581 21.8984C23.5738 22.0036 23.5738 22.1069 23.5877 22.212C23.6174 22.7043 23.647 23.2106 23.6924 23.7326C23.7081 23.9866 23.722 24.2547 23.7377 24.5069C23.8266 26.0713 23.8859 27.6515 23.9452 28.904L6.88245 38.8019C6.48139 39.0401 6.09602 39.2942 5.72459 39.5762C5.54673 39.7111 5.36887 39.86 5.191 40.0089C5.10207 40.0842 5.02709 40.1578 4.93816 40.2472C4.77424 40.3961 4.61207 40.5607 4.46385 40.7237C4.38887 40.813 4.29994 40.9023 4.2267 40.9917C4.15172 41.081 4.07848 41.1704 4.0035 41.2597C3.89887 41.3788 3.80994 41.498 3.72101 41.6329C3.43852 42.006 3.18741 42.3932 2.96421 42.7961C2.84564 43.0046 2.74101 43.199 2.65208 43.4075C2.60674 43.4968 2.56315 43.6019 2.51781 43.6913C2.42888 43.8857 2.35389 44.0784 2.28066 44.2729C2.10279 44.7651 1.95457 45.2574 1.84995 45.7777C1.83425 45.8233 1.83425 45.8671 1.8203 45.9126C1.76101 46.2262 1.71568 46.538 1.68603 46.8516C1.68603 46.8814 1.68603 46.9111 1.67034 46.9409C1.64069 47.2685 1.625 47.5961 1.625 47.9255V59.0006V74.457C1.625 74.5919 1.625 74.725 1.64069 74.8599V74.979C1.64069 75.0684 1.65639 75.1735 1.65639 75.2628C1.65639 75.3084 1.65639 75.3522 1.67208 75.3977C1.68778 75.5028 1.68778 75.6062 1.70173 75.7113C1.70173 75.7411 1.70173 75.7709 1.71742 75.8007C1.74706 76.0687 1.7924 76.3367 1.85169 76.6048C1.85169 76.6345 1.86738 76.6503 1.86738 76.6801C1.89703 76.7992 1.91272 76.9043 1.94237 77.0234C1.94237 77.0532 1.95806 77.069 1.95806 77.0988C1.9877 77.2179 2.01735 77.3528 2.06269 77.4719V77.4877C2.13767 77.7259 2.21091 77.9642 2.29984 78.1884C2.38877 78.4267 2.4777 78.6509 2.58233 78.8734C2.83517 79.4392 3.14556 79.977 3.50304 80.4833C3.57802 80.5884 3.65126 80.6918 3.72624 80.7811C3.87446 80.9756 4.02268 81.1683 4.18659 81.3627C4.51268 81.7359 4.85445 82.0932 5.23983 82.4208C5.49267 82.6451 5.74378 82.8535 6.02627 83.0462C6.30876 83.2389 6.57555 83.4194 6.87199 83.5981L29.7345 96.863C30.3274 97.2063 30.9517 97.4884 31.6038 97.7126C31.827 97.7879 32.0345 97.8475 32.256 97.9071C32.7007 98.0262 33.1471 98.1155 33.5917 98.1751C33.8149 98.2049 34.0521 98.2347 34.2735 98.2504C34.495 98.2662 34.7339 98.2802 34.9553 98.2802C35.5343 98.2802 36.0975 98.2347 36.6608 98.1453C37.0025 98.0858 37.3286 98.0104 37.6704 97.9211C37.8936 97.8615 38.1151 97.802 38.3226 97.7266C38.5458 97.6513 38.7533 97.5777 38.9608 97.4884C39.2729 97.3535 39.5833 97.2046 39.8954 97.0416C40.0001 96.9821 40.1029 96.9365 40.1919 96.877L63.0544 83.6121C63.574 83.3143 64.064 82.9709 64.5226 82.5838C64.8191 82.3297 65.1155 82.0617 65.3823 81.7797C66.4652 80.6322 67.2813 79.2605 67.7713 77.7697C67.9491 77.2039 68.0834 76.6363 68.1723 76.0407V76.0109C68.2177 75.6973 68.2473 75.3855 68.2613 75.0719V74.9528C68.2613 74.8039 68.277 74.655 68.277 74.4903V47.9587C68.3363 46.6168 68.0538 45.2451 67.5359 43.9943L67.5219 43.9786ZM4.83702 48.0025V47.5103C4.83702 45.1996 6.06812 43.0536 8.05601 41.9062L8.47103 41.6679L31.3335 28.403L31.7486 28.1648C33.7365 27.0015 36.2004 27.0015 38.1883 28.1648L38.6033 28.403L56.7925 38.9561L61.4658 41.6697C63.7205 42.9818 65.1155 45.3958 65.1155 48.0201V56.6058L39.5083 71.4666C36.9275 72.9714 33.7365 72.9714 31.14 71.4666L4.9399 56.2607C4.91026 56.2449 4.88061 56.2151 4.85097 56.2011V48.0025H4.83527H4.83702ZM4.83702 63.9968L17.5369 71.3598L28.8417 77.9186C30.8156 79.0661 33.0546 79.6617 35.325 79.6617C37.5954 79.6617 39.8361 79.0661 41.8083 77.9186L65.1469 64.3839V72.0447L39.5101 86.9196C36.9293 88.4244 33.7382 88.4244 31.1417 86.9196L4.92595 71.7171C4.89631 71.7014 4.86666 71.6716 4.83702 71.6576V63.9968Z" fill="#1E1E1C"/>
<path d="M8.48765 41.668L8.07264 41.9062C6.08475 43.0694 4.85365 45.1997 4.85365 47.5103V48.0026C4.83795 45.3941 6.23297 42.9643 8.4894 41.668H8.48765Z" fill="#1E1E1C"/>
<path d="M31.1585 86.9804C33.7393 88.4852 36.9304 88.4852 39.5268 86.9804L65.1637 72.1055V64.4448L41.8112 77.9794C39.8372 79.1269 37.5982 79.7225 35.3278 79.7225C33.0575 79.7225 30.8167 79.1269 28.8445 77.9794L17.5397 71.4206L4.83984 64.0576V71.7184C4.86949 71.7342 4.89913 71.7639 4.92878 71.7779L31.1602 86.9821L31.1585 86.9804Z" fill="#FDE248"/>
<path d="M31.158 71.5236C33.7388 73.0285 36.9299 73.0285 39.5264 71.5236L65.1632 56.6488V48.0631C65.1632 45.4406 63.7682 43.0248 61.5135 41.7127L56.8402 38.9991L38.651 28.446C36.3963 27.1339 33.622 27.1339 31.3655 28.446L8.50127 41.7127C6.24658 43.0248 4.85156 45.4388 4.85156 48.0631V56.2616C4.88121 56.2774 4.91085 56.3072 4.94049 56.3212L31.1563 71.5254L31.158 71.5236ZM49.9558 52.8473C49.9558 53.9054 48.5608 54.7551 46.8397 54.7551C45.1186 54.7551 43.7236 53.9054 43.7236 52.8473C43.7236 51.7892 45.1186 50.9396 46.8397 50.9396C48.5608 50.9396 49.9558 51.7892 49.9558 52.8473ZM42.3443 37.4645C44.4507 37.4645 46.1422 39.8487 46.1422 42.8005C46.1422 45.7524 44.4368 48.1366 42.3443 48.1366C40.2518 48.1366 38.5464 45.7524 38.5464 42.8005C38.5464 39.8487 40.2518 37.4645 42.3443 37.4645ZM27.6408 37.4645C29.7473 37.4645 31.4388 39.8487 31.4388 42.8005C31.4388 45.7524 29.7334 48.1366 27.6408 48.1366C25.5483 48.1366 23.8429 45.7524 23.8429 42.8005C23.8429 39.8487 25.5483 37.4645 27.6408 37.4645ZM23.1611 50.9396C24.8822 50.9396 26.2772 51.7892 26.2772 52.8473C26.2772 53.9054 24.8822 54.7551 23.1611 54.7551C21.44 54.7551 20.045 53.9054 20.045 52.8473C20.045 51.7892 21.44 50.9396 23.1611 50.9396Z" fill="#FDE248"/>
<path d="M42.3448 48.1233C44.4513 48.1233 46.1427 45.7391 46.1427 42.7873C46.1427 39.8354 44.4373 37.4512 42.3448 37.4512C40.2523 37.4512 38.5469 39.8354 38.5469 42.7873C38.5469 45.7391 40.2523 48.1233 42.3448 48.1233Z" fill="#1E1E1C"/>
<path d="M43.7227 52.8482C43.7227 53.9063 45.1177 54.7559 46.8388 54.7559C48.5599 54.7559 49.9549 53.9063 49.9549 52.8482C49.9549 51.7901 48.5599 50.9404 46.8388 50.9404C45.1177 50.9404 43.7227 51.7901 43.7227 52.8482Z" fill="#E6155F"/>
<path d="M27.6397 48.1233C29.7462 48.1233 31.4376 45.7391 31.4376 42.7873C31.4376 39.8354 29.7322 37.4512 27.6397 37.4512C25.5472 37.4512 23.8418 39.8354 23.8418 42.7873C23.8418 45.7391 25.5472 48.1233 27.6397 48.1233Z" fill="#1E1E1C"/>
<path d="M23.161 54.7559C24.8821 54.7559 26.2771 53.9063 26.2771 52.8482C26.2771 51.7901 24.8821 50.9404 23.161 50.9404C21.4399 50.9404 20.0449 51.7901 20.0449 52.8482C20.0449 53.9063 21.4399 54.7559 23.161 54.7559Z" fill="#E6155F"/>
</g>
<defs>
<clipPath id="clip0_500_3422">
<rect width="70" height="100" fill="white" transform="translate(0 -0.00683594)"/>
</clipPath>
</defs>
</svg>
