<svg width="104" height="170" viewBox="0 0 104 170" fill="none" xmlns="http://www.w3.org/2000/svg">
<g clip-path="url(#clip0_464_9497)">
<path d="M103.078 135.571V132.922H102.884V72.2432H98.9898V68.047H90.9181V63.8507H87.219V60.4441H84.0923V55.4663H80.0584V51.2741H76.0245V29.3111H80.0584V20.9266H84.0923V16.7344H96.1941V0.939453H80.9773V9.32789H76.9395V13.5201H72.9056V17.7163H68.8717V38.6854H64.8338V47.0739H63.9149V42.8776H44.6642V47.0739H39.7075V26.1008H35.6735V21.9045H31.6396V17.7123H23.5718V9.32388H8.36665V25.1148H24.5024V29.307H28.5363V37.6955H32.5702V51.2701H28.5363V55.4623H20.4684V59.6545H16.4345V63.8507H12.3967L8.38612 63.8347L8.34719 72.2432H4.7883V76.4354H0.898438V168.844H8.04737V161.462H11.9411V157.27H15.9789V154.933H20.0129V152.949H20.4723V157.142H24.5063V161.338H27.6174V165.534H31.6513V169.726H38.8002V165.658H42.8341V161.462H46.872V153.078H52.4245V161.342H55.5356V165.538H59.5695V169.73H66.7184V165.538H70.7523V161.342H74.7863V157.134H78.8241V152.953H84.1469V156.985H88.1496V161.33H91.9694V165.614H95.9722V168.8H103.086V162.937H103.109V135.571H103.086H103.078Z" fill="white"/>
<path d="M101.522 137.804V135.155H101.323V124.81H93.3995V135.155H93.3956V115.063V124.806H101.319V112.226V95.4489V82.8642V74.4758H97.4295V70.2796H93.3956V74.4758V82.8642V95.4489V112.222V70.2796H89.3617V66.0874H85.8573V62.8811H82.5398V57.6989H78.5059V53.5067H71.4115V50.8495H66.4002V49.3105H62.3663V45.1183H58.3324L50.2645 45.1143V49.3105H50.2684V124.806L50.2645 124.842V124.81H44.9729L50.2645 124.806V87.317H49.186V91.8779H44.7626V91.4571H38.1627V91.2527L38.1588 87.2609H33.9302V87.0605H34.1249V83.0646H33.9302V82.8642H34.1249V78.8724H33.9302V78.672H34.1249V74.4758H38.1588V53.5067H30.091V57.6989H22.027V61.8911H17.9931V66.3238H13.9553V66.0874H9.92135V70.2796H10.116V74.4758H6.34689V78.668H2.45703V124.806V133.195V167.867H6.48706V160.488H10.3808V156.268V156.296H14.4186V153.96H18.4526V151.976H22.027V156.172H26.061V160.364H29.1721V164.56H33.206V168.753H37.2399V164.681H41.27V160.488H45.3078V152.1H53.9753V160.364H57.0864V164.56H61.1203V168.753H65.1542V164.56H69.1882V160.364H73.2221V151.976H73.226V156.156H77.2599V151.976H78.1788V151.815H78.5059V151.976H82.5398V150.004H85.3278V151.976H85.6977V156.008H89.6965V151.976H89.7004V160.352H93.5202V164.636H97.5191V161.959H97.523V167.823H101.522V161.959H101.541V137.8H101.522V137.804ZM66.2055 91.6214V91.2006H62.1716V87.0044H58.1377V74.0229H62.1716V69.8267H70.6288V74.1071H73.2727V78.668H74.472V87.0605H73.3934V91.6214H66.2055Z" fill="#F9E249"/>
<path d="M46.23 70.279H46.4247V74.363H49.0685V74.4752V78.9239H50.2639V74.4752V53.5061V49.3099V47.7067V45.1177H48.7103H46.23V47.7067V49.3099H38.1621V53.5061V70.279H46.23Z" fill="#F9E249"/>
<path d="M77.4803 103.837H79.0378H80.5953H81.5143H83.0718H84.4463H84.6293H86.0038H87.1057V102.234V101.248V99.6448V95.4526H83.0718H81.5143H80.5953H79.0378H77.4803H76.5614H75.0039V97.0518V98.0377V99.6408V99.6448V101.248V102.234V103.837H76.5614H77.4803Z" fill="#E6155F"/>
<path d="M41.1756 103.837H42.7292V102.234V101.248V99.6448V99.6408V98.0377V97.0518V95.4526H41.1756H40.2528H38.6953V97.0518V98.0377V99.6408V99.6448V101.248V102.234V103.837H40.2528H41.1756Z" fill="#E6155F"/>
<path d="M32.1845 103.837H33.1034H34.6609H36.2184H37.1373H38.6948V102.234V101.248V99.6448V99.6408V98.0377V97.0518V95.4526H37.1373H36.2184H34.6609H33.1034H32.1845H30.6309V103.837H32.1845Z" fill="#E6155F"/>
<path d="M15.5153 19.9209H13.9539H12.3964H9.92383V21.524V24.1171H17.9878V21.524V19.9209H16.4342H15.5153Z" fill="#1E1D1B"/>
<path d="M9.92383 14.1252V15.7283V17.3315V18.3174V19.9206H12.3964H13.9539H15.5153H16.4342H17.9878V18.3174V17.3315V15.7283V14.1252V11.5361H9.92383V14.1252Z" fill="#1E1D1B"/>
<path d="M17.9922 19.9206H19.5458H20.4686H22.0261V18.3174V17.3315V15.7283V14.1252V11.5361H17.9922V19.9206Z" fill="#1E1D1B"/>
<path d="M19.5458 19.9209H17.9922V24.1171H22.0261V21.524V19.9209H20.4686H19.5458Z" fill="#1E1D1B"/>
<path d="M34.1289 42.4967V43.4826V45.0858H38.1589V40.8936H34.1289V42.4967Z" fill="#1E1D1B"/>
<path d="M34.1289 28.3096V29.9127V30.9027V32.5018H35.6864H38.1589V28.3096H35.6864H34.1289Z" fill="#1E1D1B"/>
<path d="M34.1252 24.1131H31.6527H30.0952H30.0913V19.9249H22.0273V19.9209V21.524V24.1171H26.0613V28.3093H30.0913H30.0952H31.6527H32.5716H34.1291H34.1252V24.1131Z" fill="#1E1D1B"/>
<path d="M31.6513 28.3096H30.0938V29.9127V30.9027V32.5018H32.5702H34.1277V30.9027V29.9127V28.3096H32.5702H31.6513Z" fill="#1E1D1B"/>
<path d="M30.0938 32.5049V34.104V36.6971H34.1238H34.1277V35.094V34.104V32.5049H32.5702H30.0938Z" fill="#1E1D1B"/>
<path d="M34.1289 32.5049V34.104V35.094V36.6971V38.3002V39.2902V40.8933H38.1589V32.5049H35.6864H34.1289Z" fill="#1E1D1B"/>
<path d="M34.1289 49.2822V50.8854V51.8753V53.4784H35.6864H36.6053H38.1589V49.2822H36.6053H34.1289Z" fill="#1E1D1B"/>
<path d="M34.1289 46.689V47.6789V49.2821H36.6053H38.1589V45.0898H34.1289V46.689Z" fill="#1E1D1B"/>
<path d="M88.1344 3.14355H86.5769H85.0194H82.543V5.73664V7.33978H85.0194H86.5769H88.1344H89.0533H90.6069V5.73664V3.14355H89.0533H88.1344Z" fill="#1E1D1B"/>
<path d="M92.1649 3.14355H90.6113V5.73664V7.33978H92.1649H94.6414V3.14355H92.1649Z" fill="#1E1D1B"/>
<path d="M88.1344 7.33984H86.5769H85.0194H82.543V8.94299V9.92892V11.5321H84.0966H85.0194H86.5769H88.1344H89.0533H90.6069V9.92892V8.94299V7.33984H89.0533H88.1344Z" fill="#1E1D1B"/>
<path d="M90.6113 11.5322V13.1354V15.7285H94.6414V11.5322H92.1649H90.6113Z" fill="#1E1D1B"/>
<path d="M92.1649 7.33984H90.6113V8.94299V9.92892V11.5321H92.1649H94.6414V7.33984H92.1649Z" fill="#1E1D1B"/>
<path d="M86.8976 11.5322H84.5614H84.5575H82.2212H80.8389H78.5066V11.5362V13.1354V14.1253V15.7285H76.9491H74.4727V19.9207H76.0302H76.9491H78.5066H80.0641H82.5405V17.3316V15.7285H90.6084V13.1354V11.5322H88.276H86.8976Z" fill="#1E1D1B"/>
<path d="M76.9466 19.9209H76.0277H74.4702V19.9249H70.4363V28.3093V32.5016V40.894H66.3984V43.96V45.8557H66.4101H66.4062H70.4363H66.4062L66.3984 45.8597V47.7514V48.9217V49.2824V50.8215H69.5173H70.4324H70.4363H71.3591H71.4097V53.4787H71.9899H72.9127H72.9672H74.4702V51.8755V50.8856V50.8215V50.7413V49.2824V48.9217V47.7514V47.6793V46.6894V45.8557V45.0902V45.0862V44.9179V43.96V43.4831V42.7897V42.4971V42.3328V41.2788V40.894V35.3752V35.3712V32.5016V30.9024V29.9125V29.4676V28.3093H78.5041V25.7203V24.1171V24.1131V22.51V21.524V19.9209H76.9466Z" fill="#1E1D1B"/>
<path d="M47.788 83.0928H46.4252H46.2305V84.4394V84.6919V85.4294V85.8502V86.8321V87.0325V87.2329V87.2529H46.4252H47.788H48.7108H49.1858V87.285H50.2644V87.0325V85.8502V85.4294V84.6919V84.4394V83.0928H48.7108H47.788Z" fill="#1E1D1B"/>
<path d="M44.6737 83.0928H43.7548H42.392H42.1973V84.4394V84.6919V85.4294V86.8321V87.0325V87.2329V87.285H42.392H43.4043H43.7548H44.6737H44.7671V87.2529H46.0365H46.2312V87.2329V87.0325V86.8321V85.8502V85.4294V84.6919V84.4394V83.0928H46.0365H44.6737Z" fill="#1E1D1B"/>
<path d="M49.069 78.9285H48.7108H47.788H46.4252H46.2305V80.2431V80.3313V81.2331V81.4896V82.6358V82.8362V83.0366V83.0887H46.4252H47.788H48.7108H50.2644V82.8362V81.4896V81.2331V80.3313V80.2431V78.8965H49.069V78.9285Z" fill="#1E1D1B"/>
<path d="M44.6737 78.9285H44.6464V78.8965H43.7548H43.2836H42.392H42.1973V80.2431V81.2331V81.4896V82.6358V82.8362V83.0366V83.0887H42.392H43.7548H44.6737H46.0365H46.2312V83.0366V82.8362V82.6358V81.4896V81.2331V80.3313V80.2431V78.9285H46.0365H44.6737Z" fill="#1E1D1B"/>
<path d="M72.9139 82.8359H71.9911H70.4375V84.4391V85.429V85.5973V87.0001H70.6283H71.9911H72.9139H73.3968V87.0322H74.4714V85.5973V85.429V84.4391V82.8359H72.9139Z" fill="#1E1D1B"/>
<path d="M67.9559 82.8359H66.5931H66.3984V84.1826V84.4391V85.1725V85.429V85.5973V86.5753V86.7757V86.9761V87.0001H66.5931H67.6094H67.9559H68.8788H68.9722H70.4324V85.5973V85.429V84.4391V82.8359H68.8788H67.9559Z" fill="#1E1D1B"/>
<path d="M73.2722 78.6401V78.6441V78.6722H72.9139H71.9911H70.6283H70.4375V80.0749V80.2433V81.2332V82.8364H71.9911H72.9139H74.4714V81.2332V80.2433V80.0749V78.6441V78.6401H73.2722Z" fill="#1E1D1B"/>
<path d="M68.8476 78.6714H67.9559H67.4848H66.5931H66.3984V79.99V80.0741V80.2425V80.9799V81.2324V82.3827V82.579V82.5831V82.7794V82.8355H66.5931H67.9559H68.8788H70.4324V81.2324V80.2425V80.0741V78.6714H68.8788H68.8476Z" fill="#1E1D1B"/>
</g>
<defs>
<clipPath id="clip0_464_9497">
<rect width="102.203" height="168.787" fill="white" transform="translate(0.898438 0.939453)"/>
</clipPath>
</defs>
</svg>
