<svg width="432" height="632" viewBox="0 0 432 632" fill="none" xmlns="http://www.w3.org/2000/svg">
<g clip-path="url(#clip0_154_712)">
<path d="M409.2 240.83L412.62 250.37L141.46 373.7L431.95 413.02L430.74 434.23L88.7305 388.29L405.36 232.64" fill="white"/>
<path d="M76.8511 380.04C76.6911 379.96 76.5311 379.8 76.3711 379.72V380.04C76.5311 380.12 76.6911 380.28 76.8511 380.36L76.8911 380.38H77.4511L76.8511 380.04Z" fill="#FDE248"/>
<path d="M194.5 40.7296C193.47 39.4696 192.55 38.0596 191.84 36.5596C191.86 36.6096 191.89 36.6596 191.91 36.7096C192.6 38.1696 193.49 39.5396 194.48 40.7796C194.48 40.7596 194.5 40.7396 194.5 40.7296Z" fill="white"/>
<path d="M191.512 35.75C191.592 35.99 191.682 36.21 191.772 36.41C191.682 36.21 191.592 35.98 191.512 35.75Z" fill="white"/>
<path d="M64.8916 378.71L53.9116 355.29C53.1616 353.69 52.4816 352.06 51.8816 350.39C51.8816 350.21 51.8216 350.06 51.7516 349.92C51.1816 348.32 50.6816 346.69 50.2616 345.03C50.2316 344.78 50.1316 344.56 50.1016 344.31C49.4216 341.53 49.0216 338.78 48.7616 335.97C48.6816 334.85 48.6016 333.74 48.5916 332.59C48.6016 332.05 48.5916 331.44 48.5916 330.9C48.5516 329.68 48.6116 328.49 48.7216 327.2C48.8916 324.72 49.2416 322.25 49.7716 319.79C49.9016 318.93 50.0616 318.14 50.3016 317.32C50.4616 316.71 50.6216 316.11 50.7816 315.5C50.9416 314.89 51.1716 314.25 51.3316 313.64C51.6816 312.5 52.1116 311.32 52.5716 310.22C52.8016 309.58 52.9916 309.04 53.2616 308.48C53.7916 307.34 54.3216 306.21 54.8916 305.14C56.0616 302.91 57.3716 300.78 58.7916 298.7L119.792 211.18C116.632 205.21 112.732 197.63 108.712 190.2C108.062 189 107.372 187.72 106.722 186.52C105.312 184.08 104.002 181.67 102.732 179.34C102.422 178.87 102.182 178.36 101.872 177.88C101.012 176.42 100.252 175 99.4316 173.61C99.1516 173.21 98.9116 172.7 98.6416 172.3C97.8816 170.88 97.0916 169.57 96.3716 168.4C95.4716 166.87 94.5716 165.52 93.8516 164.35C93.6116 164.02 93.4716 163.73 93.2616 163.47C92.6716 162.59 92.1816 161.93 91.7316 161.35C90.0916 159.22 88.2116 157.46 86.1816 156.02C74.4116 148.08 57.4516 150.27 47.4316 152.58C46.9816 154.65 46.1816 156.72 45.0116 158.59C46.1016 156.75 46.9116 154.68 47.4316 152.58C57.3516 150.29 74.1316 148.1 85.8616 155.78C83.7616 154.34 81.5016 153.23 79.1316 152.38C68.3016 148.67 55.5016 150.47 47.3216 152.36C46.8016 154.47 45.9916 156.53 44.9016 158.37C44.4916 159.01 44.1216 159.54 43.6316 160.21C43.1816 160.77 42.6716 161.37 42.1916 161.86C41.6416 162.39 41.1616 162.88 40.5716 163.33C39.4016 164.24 38.1216 165.1 36.7416 165.75C34.9216 166.6 33.0416 167.13 31.1316 167.41C30.4816 167.54 29.8716 167.56 29.2616 167.58C28.2916 167.59 27.3916 167.57 26.4616 167.47C25.2416 167.33 23.9916 167.12 22.8116 166.7C22.6716 166.65 22.5416 166.6 22.4016 166.55C22.4016 166.55 22.3916 166.55 22.3816 166.55C21.2416 166.2 20.0316 165.7 18.9716 165.13C18.1516 164.71 17.3816 164.19 16.6016 163.67C15.6516 162.96 14.7016 162.08 13.8216 161.16C12.5316 159.73 11.4216 158.12 10.5616 156.3C9.57156 154.19 8.98156 151.98 8.82156 149.75C8.76156 149.25 8.81156 148.78 8.78156 148.35C8.75156 147.92 8.77156 147.38 8.82156 146.91C8.92156 145.98 9.01156 145.05 9.21156 144.15C9.37156 143.54 9.53156 142.94 9.69156 142.33C9.84156 142.08 9.88156 141.8 10.0016 141.48C10.3116 140.63 10.6916 139.74 11.1116 138.92C11.3816 138.35 11.6816 137.86 12.0516 137.33C12.3116 136.94 12.5016 136.59 12.8016 136.27C13.3616 135.57 13.9516 134.93 14.5416 134.3C14.9116 133.95 15.2416 133.71 15.5316 133.39C15.8216 133.07 16.2316 132.8 16.5616 132.55C17.6216 131.79 18.7916 131.06 20.0316 130.48C24.6516 128.31 29.6916 128.13 34.2016 129.57C38.6516 130.87 42.6216 133.75 45.2116 137.91C46.9116 137.54 48.8316 137.15 50.7816 136.82C51.5416 136.73 52.1916 136.6 52.9416 136.51C53.4416 136.45 53.9516 136.39 54.4516 136.33C56.0416 136.12 57.6216 135.91 59.2816 135.84C60.9416 135.77 62.6616 135.67 64.3516 135.68C66.0416 135.68 67.8016 135.66 69.5616 135.81C70.1316 135.9 70.7416 135.88 71.3216 135.96C72.5416 136.1 73.7616 136.24 74.9016 136.41C76.6916 136.63 78.4816 137.04 80.1916 137.48C80.9016 137.68 81.5816 137.8 82.2216 138.03C83.5416 138.39 84.8216 138.85 86.1416 139.39C86.1516 139.39 86.1716 139.4 86.1816 139.4C86.3116 139.45 86.4416 139.49 86.5716 139.54C86.8916 139.66 87.2016 139.8 87.5116 139.93C87.5816 139.96 87.6416 139.98 87.7116 140.01C89.3616 140.71 90.9516 141.5 92.5416 142.42C93.6416 143.06 94.6616 143.73 95.6516 144.51C97.1716 145.66 98.6816 146.81 100.052 148.21C100.722 148.87 101.422 149.61 102.122 150.35C102.822 151.09 103.452 151.86 104.112 152.7C109.732 160 121.702 182.33 129.662 197.58L140.832 181.62C141.132 181.12 141.542 180.67 141.912 180.14C142.282 179.61 142.662 179.08 143.062 178.62C148.482 171.82 155.412 166.35 163.262 162.67C164.352 162.16 165.552 161.69 166.672 161.25C168.412 160.61 170.152 159.97 171.962 159.48C173.772 158.99 175.612 158.57 177.422 158.25C178.002 158.16 178.652 158.03 179.222 157.94C180.482 157.79 181.742 157.64 182.932 157.53C183.512 157.44 184.122 157.42 184.732 157.4C187.252 157.28 189.692 157.38 192.172 157.55L205.402 158.71C198.812 143.34 186.982 115.08 185.042 104.9C184.852 103.92 184.622 102.88 184.512 101.87C184.282 100.82 184.172 99.8096 184.052 98.7996C183.872 97.4696 183.762 96.0996 183.652 94.7296C183.492 92.6796 183.432 90.6596 183.412 88.7196C183.412 85.6996 183.632 82.7596 183.852 79.8196C184.072 76.8796 184.502 74.0096 184.962 71.2196C185.642 67.1796 186.602 63.1796 187.632 59.4996C187.902 58.7496 188.102 58.0396 188.302 57.3196C188.532 56.6796 188.662 55.9996 188.892 55.3596C189.312 54.1796 189.672 53.0396 190.052 51.9796L190.712 50.1596C191.362 48.5196 191.912 46.8496 192.592 45.2796C193.232 43.6596 193.872 42.2196 194.512 40.7796C193.552 39.5996 192.662 38.2396 191.942 36.7096C191.922 36.6596 191.892 36.6096 191.872 36.5596C191.862 36.5396 191.852 36.5196 191.842 36.4896C191.832 36.4596 191.822 36.4396 191.812 36.4196C191.702 36.1696 191.602 35.9296 191.522 35.6896C191.462 35.5296 191.402 35.3696 191.332 35.2196C190.992 34.3096 190.762 33.4396 190.532 32.5796C190.432 32.1796 190.302 31.7096 190.282 31.2796C190.192 30.6996 190.092 30.1296 190.072 29.5096C189.952 28.6796 189.972 27.9596 190.022 27.1396C190.122 26.2096 190.212 25.2796 190.412 24.3796C190.572 23.7696 190.732 23.1696 190.892 22.5596C191.042 22.3096 191.082 22.0296 191.202 21.7096C191.242 21.4196 191.392 21.1796 191.512 20.8596C191.782 20.1096 192.082 19.4396 192.502 18.7996C192.842 18.1996 193.182 17.5896 193.622 17.0296C193.732 16.8896 193.882 16.6396 193.992 16.4996C194.882 15.3696 195.952 14.2496 197.162 13.2396C197.972 12.5096 198.992 11.8496 199.982 11.2996L200.132 11.2296L201.222 10.7196C206.172 8.39957 211.572 8.33957 216.302 10.1096C221.072 11.7696 225.192 15.2696 227.512 20.2196C228.672 22.6896 229.252 25.2596 229.332 27.8796C229.332 28.2396 229.312 28.5996 229.302 28.9596C229.312 29.9296 229.142 30.8996 229.052 31.8296C228.972 32.2196 228.932 32.5096 228.842 32.8996C228.722 33.5796 228.482 34.2196 228.292 34.9296C228.062 35.5696 227.752 36.2496 227.522 36.8896C227.102 37.7096 226.692 38.5196 226.172 39.2996C225.652 40.0796 225.092 40.7796 224.462 41.5196C224.052 41.9796 223.572 42.4696 223.132 42.8496C221.702 44.1396 220.092 45.2496 218.272 46.1096C217.762 46.3496 217.252 46.5896 216.712 46.7496C216.172 46.9196 215.622 47.0796 215.082 47.2496C213.992 47.5796 212.912 47.7296 211.902 47.8496C211.042 47.8996 210.172 47.9496 209.352 47.8896C208.922 47.9196 208.522 47.8296 208.062 47.7896C206.922 50.2796 205.842 53.0896 204.802 55.9696C203.992 58.2096 203.212 60.5296 202.582 62.9596C202.342 63.7796 202.112 64.5996 201.872 65.4196C201.472 66.8496 201.192 68.3096 200.832 69.8096C200.712 70.3096 200.592 70.8096 200.542 71.2796C200.342 72.1696 200.172 73.1396 199.972 74.0296C199.592 76.4296 199.202 78.8296 199.032 81.2996C198.892 82.5196 198.862 83.7796 198.762 85.0696L198.672 88.8396C198.662 90.7096 198.752 92.6196 198.882 94.5996C198.902 95.2096 198.962 95.8996 199.082 96.5496C199.232 97.8096 199.412 99.1496 199.562 100.41C199.692 101.06 199.812 101.71 199.942 102.36C200.032 102.94 200.192 103.66 200.462 104.42C200.922 105.98 201.452 107.86 202.152 109.93C202.452 110.76 202.752 111.6 203.022 112.54C203.362 113.45 203.692 114.35 204.032 115.26C204.472 116.39 204.842 117.54 205.312 118.74C205.542 119.43 205.852 120.08 206.092 120.77C206.902 122.87 207.742 125.05 208.592 127.23C209.672 129.92 210.822 132.75 211.942 135.51L212.142 135.95C212.652 137.22 213.192 138.56 213.702 139.83C214.002 140.66 214.412 141.54 214.712 142.37C215.222 143.64 215.802 144.88 216.302 146.15L216.472 146.51C216.982 147.78 217.522 148.94 218.002 150.14C218.242 150.65 218.442 151.09 218.612 151.63C219.052 152.58 219.392 153.48 219.832 154.43C220.242 155.3 220.542 156.14 220.952 157.01C221.332 157.81 221.632 158.64 222.002 159.44L222.452 160.41L334.832 169.97C335.662 170.03 336.482 170.08 337.272 170.25C338.062 170.41 338.882 170.47 339.672 170.63C340.462 170.79 341.322 170.92 342.212 171.13C342.782 171.22 343.392 171.38 344.002 171.53C344.612 171.7 345.212 171.89 345.812 172.07C349.522 173.1 353.082 174.52 356.462 176.33C359.722 177.99 362.802 180.01 365.652 182.31C366.642 183.09 367.552 183.9 368.462 184.72C373.442 189.48 377.962 195.53 381.172 202.36L401.002 244.64L409.242 240.83L389.392 198.51C379.462 177.34 358.842 162.88 335.462 160.89L228.162 151.76C219.802 132.43 209.692 107.45 208.422 100.59C205.332 84.7396 209.182 68.7296 213.762 56.7296C216.502 56.3296 219.142 55.5396 221.692 54.3396C228.602 51.0996 233.812 45.3696 236.402 38.2096C238.992 31.0496 238.642 23.3196 235.402 16.4096C228.712 2.14957 211.732 -3.99043 197.472 2.69957C183.212 9.38957 177.072 26.3696 183.762 40.6296L184.372 41.9396C177.552 58.6196 171.462 82.1596 176.312 106.86C177.902 115.17 184.992 133.31 191.362 148.6C180.412 147.97 169.512 150.06 159.622 154.7C149.152 159.61 140.192 167.19 133.622 176.65L130.822 180.71C123.682 167.38 115.702 153.2 111.172 147.33C94.1216 125.16 66.7716 125.12 48.8716 128.19C40.5616 119.75 27.6516 117.2 16.4516 122.45C2.19156 129.14 -3.94844 146.12 2.74156 160.38C9.43156 174.64 26.4116 180.78 40.6716 174.09C46.7816 171.22 51.5416 166.42 54.3116 160.42C63.5516 158.93 78.1216 158.21 85.0816 167.19C89.1216 172.39 100.282 192.98 109.642 210.86L51.7816 293.9C38.3616 313.15 36.2616 338.18 46.2216 359.42L65.2016 399.89L73.1516 396.21L64.9316 378.68L64.8916 378.71Z" fill="white"/>
<path d="M227.109 20.2002C228.269 22.6702 228.849 25.2402 228.929 27.8602C228.889 25.3102 228.269 22.6702 227.109 20.2002Z" fill="#010101"/>
<path d="M227.07 20.1201C227.07 20.1201 227.1 20.1701 227.11 20.1901C227.1 20.1601 227.08 20.1401 227.07 20.1201Z" fill="#010101"/>
<path d="M204.311 55.8698C204.311 55.8698 204.311 55.8898 204.301 55.9098C205.401 53.0298 206.461 50.2598 207.511 47.8398C206.461 50.2498 205.371 52.9398 204.311 55.8698Z" fill="#010101"/>
<path d="M191.828 36.5498C191.848 36.5998 191.868 36.6498 191.898 36.6998C191.878 36.6498 191.858 36.5998 191.828 36.5498Z" fill="#1E1E1C"/>
<path d="M191.898 36.71C192.618 38.24 193.508 39.61 194.468 40.78C193.478 39.54 192.588 38.17 191.898 36.71Z" fill="#1E1E1C"/>
<path d="M191.508 35.7502C191.508 35.7502 191.498 35.7102 191.488 35.7002C191.568 35.9402 191.658 36.1802 191.778 36.4302C191.688 36.2202 191.598 36.0002 191.518 35.7702L191.508 35.7502Z" fill="#1E1E1C"/>
<path d="M47.3906 152.57C57.4106 150.26 74.3706 148.07 86.1406 156.01C86.0306 155.93 85.9306 155.85 85.8206 155.77C74.0906 148.09 57.3106 150.28 47.3906 152.57Z" fill="#1E1E1C"/>
<path d="M44.9805 158.59C46.1405 156.71 46.9505 154.65 47.4005 152.58C46.8805 154.69 46.0705 156.75 44.9805 158.59Z" fill="#1E1E1C"/>
<path d="M217.79 46.1299C217.28 46.3699 216.74 46.5299 216.23 46.7699C216.77 46.5999 217.28 46.3599 217.79 46.1299Z" fill="#1E1E1C"/>
<path d="M155.09 191.69C162.56 180.88 174.95 174.6 188.03 174.84H188.01C181.83 174.29 175.74 175.42 170.3 177.95C164.88 180.51 160.11 184.47 156.58 189.57L155.09 191.69Z" fill="#1E1E1C"/>
<path d="M227.069 20.1203C227.069 20.1203 227.049 20.0703 227.039 20.0503C224.789 15.2503 220.849 11.8103 216.259 10.0903C214.479 9.47027 212.609 9.11027 210.699 9.03027C217.539 9.45027 223.919 13.4803 227.069 20.1203Z" fill="#1E1E1C"/>
<path d="M45.0597 138.14C45.1397 138.12 45.2197 138.11 45.2997 138.09C45.2597 138.02 45.2097 137.96 45.1697 137.9C45.0897 137.92 45.0097 137.93 44.9297 137.95C44.9697 138.02 45.0197 138.08 45.0597 138.14Z" fill="#1E1E1C"/>
<path d="M27.1803 128.85C28.9503 128.74 30.7203 128.87 32.4303 129.23C33.5703 129.47 34.6903 129.81 35.7703 130.25C36.8503 130.69 37.8903 131.22 38.8803 131.85C39.8703 132.47 40.8003 133.19 41.6703 133.99C42.0503 134.34 42.4203 134.72 42.7703 135.11C40.4303 132.5 37.4403 130.61 34.1603 129.57C31.4103 128.77 28.4803 128.56 25.5703 129.04C26.1103 128.96 26.6403 128.9 27.1803 128.86V128.85Z" fill="#1E1E1C"/>
<path d="M92.1302 161.5C92.5802 162.09 93.1002 162.82 93.6602 163.62C93.8702 163.88 94.0402 164.24 94.2502 164.5C94.9802 165.67 95.8802 167.02 96.7702 168.55C97.5302 169.79 98.2202 171.07 99.0402 172.45C99.3202 172.85 99.5202 173.29 99.8302 173.76C100.62 175.07 101.41 176.57 102.27 178.03C102.58 178.51 102.82 179.01 103.13 179.49C104.47 181.79 105.78 184.19 107.12 186.67C107.77 187.87 108.43 189.07 109.11 190.35C113.13 197.78 117.11 205.32 120.19 211.33L59.1902 298.85C57.7002 300.97 56.4602 303.06 55.2902 305.29C54.6502 306.39 54.1902 307.49 53.6602 308.63C53.4302 309.27 53.2402 309.81 52.9702 310.37C52.5102 311.47 52.0902 312.65 51.7302 313.79C51.5702 314.4 51.3402 315.04 51.1802 315.65C51.0202 316.26 50.8602 316.86 50.7002 317.47C50.5402 318.26 50.3302 319.15 50.1702 319.94C49.6402 322.41 49.2902 324.88 49.1202 327.35C49.0502 328.53 49.0202 329.79 48.9902 331.05C48.9802 331.59 48.9902 332.2 48.9902 332.74C48.9902 333.89 49.0802 335.01 49.1602 336.12C49.4102 338.93 49.8502 341.74 50.5002 344.46C50.5302 344.71 50.6302 344.93 50.6602 345.18C51.0902 346.84 51.5802 348.47 52.1502 350.07C52.1502 350.25 52.2102 350.39 52.2802 350.54C52.8902 352.21 53.5602 353.84 54.3102 355.44L54.3802 355.59C53.6302 353.99 52.9502 352.36 52.3502 350.69C52.9602 352.36 53.6302 353.99 54.3802 355.59L65.3002 378.87L65.3702 379.02L73.3902 396.12L89.4602 388.69H89.4202C89.2402 388.69 89.0302 388.6 88.8502 388.6L88.7102 388.31L69.9502 348.31L69.8802 348.34L68.7502 345.94C63.4602 334.67 64.5902 321.36 71.7102 311.19L73.2002 309.07L154.93 191.77L156.42 189.65C159.98 184.51 164.8 180.52 170.28 177.96C175.75 175.38 181.9 174.22 188.13 174.78L190.71 174.99C189.81 174.91 188.9 174.87 188.01 174.85L190.57 175.06L303.89 184.74L333.01 187.23C336.58 187.54 340.04 188.33 343.31 189.53C353.07 193.03 361.22 200.28 365.75 209.94L385.4 251.84V251.86L400.64 244.81L380.68 202.24C377.9 195.56 373.38 189.51 367.97 184.6C367.06 183.79 366.14 182.97 365.16 182.19C362.31 179.89 359.23 177.87 355.97 176.21C352.76 174.53 349.29 173.18 345.75 172.1C345.29 171.97 344.83 171.83 344.37 171.71C343.8 171.62 343.19 171.46 342.58 171.31C341.79 171.15 340.9 170.94 340.04 170.81C339.25 170.65 338.5 170.56 337.64 170.43C336.78 170.3 336.03 170.21 335.2 170.15L222.45 160.56L222.4 160.45L222.03 160.41L221.52 159.32C221.18 158.59 220.88 157.76 220.47 156.89C220.09 156.09 219.76 155.18 219.35 154.31C218.94 153.44 218.57 152.46 218.13 151.51C217.93 151.07 217.69 150.56 217.52 150.02C217.05 148.82 216.5 147.66 215.99 146.39L215.82 146.03C215.31 144.76 214.73 143.52 214.23 142.25C213.85 141.45 213.55 140.62 213.22 139.71C212.71 138.44 212.17 137.1 211.66 135.83L211.46 135.39C210.34 132.63 209.23 129.87 208.11 127.11C207.27 124.93 206.42 122.75 205.61 120.65C205.38 119.96 205.07 119.31 204.83 118.62C204.36 117.42 203.99 116.26 203.55 115.14C203.18 114.16 202.84 113.25 202.54 112.42C202.2 111.51 201.9 110.68 201.67 109.81C200.93 107.67 200.33 105.82 199.98 104.3C199.78 103.5 199.66 102.85 199.46 102.24C199.33 101.59 199.21 100.94 199.08 100.29C198.83 98.9899 198.68 97.7299 198.6 96.4299C198.55 95.7499 198.45 95.1699 198.4 94.4799C198.23 92.6099 198.21 90.6699 198.19 88.7199C198.22 87.4599 198.25 86.2099 198.28 84.9499C198.31 83.6899 198.45 82.4699 198.55 81.1799C198.79 78.6699 199.1 76.3099 199.49 73.9099C199.66 72.9399 199.86 72.0499 200.06 71.1599C200.18 70.6599 200.3 70.1599 200.35 69.6899C200.64 68.2199 201.03 66.7999 201.39 65.2999C201.63 64.4799 201.86 63.6599 202.1 62.8399C202.8 60.4099 203.56 58.1299 204.29 55.9499C204.27 55.9899 204.26 56.0299 204.24 56.0699C203.43 58.3099 202.72 60.5999 202.02 63.0599C202.66 60.6299 203.43 58.3199 204.24 56.0699C204.26 56.0199 204.28 55.9699 204.3 55.9099C204.3 55.8899 204.31 55.8699 204.32 55.8499C205.4 52.8599 206.51 50.1199 207.58 47.6699C208.05 47.7199 208.41 47.7299 208.87 47.7699C209.7 47.8299 210.56 47.7699 211.42 47.7299C212.54 47.6499 213.58 47.4199 214.6 47.1299C215.14 46.9599 215.69 46.7999 216.23 46.6299C216.77 46.4599 217.28 46.2299 217.79 45.9899C219.61 45.1399 221.22 44.0299 222.65 42.7299C223.16 42.3099 223.57 41.8499 223.98 41.3999C224.61 40.6599 225.17 39.9599 225.69 39.1799C226.21 38.3999 226.63 37.5899 227.04 36.7699C227.34 36.0899 227.61 35.5299 227.81 34.8099C228.04 34.1699 228.24 33.4599 228.36 32.7799C228.48 32.4599 228.48 32.0999 228.57 31.7099C228.74 30.7399 228.83 29.8099 228.82 28.8399C228.82 28.4799 228.84 28.1199 228.85 27.7599C228.81 25.2299 228.2 22.6199 227.06 20.1699C223.69 13.0599 216.5 8.90989 209.06 9.06989C206.55 9.17989 204.02 9.76989 201.6 10.8999L200.51 11.4099L200.36 11.4799C199.38 12.0299 198.46 12.7299 197.54 13.4199C196.37 14.3199 195.3 15.4499 194.37 16.6799C194.26 16.8199 194.11 17.0699 194 17.2099C193.55 17.7699 193.22 18.3799 192.88 18.9799C192.5 19.6899 192.2 20.3599 191.89 21.0399C191.85 21.3299 191.7 21.5699 191.58 21.8899C191.43 22.1399 191.39 22.4199 191.27 22.7399C191.11 23.3499 190.95 23.9499 190.79 24.5599C190.59 25.4499 190.49 26.3899 190.4 27.3199C190.42 28.1099 190.43 28.8999 190.45 29.6899C190.47 30.2999 190.56 30.8799 190.66 31.4599C190.76 31.8599 190.78 32.2899 190.91 32.7599C191.07 33.6599 191.37 34.4999 191.71 35.3999C191.81 35.7999 192.01 36.2299 192.22 36.6699C192.97 38.2699 193.87 39.6199 194.92 40.9099C194.27 42.3699 193.66 43.8999 192.97 45.4599C192.36 46.9899 191.7 48.6299 191.09 50.3399C190.86 50.9799 190.67 51.5199 190.43 52.1599C189.97 53.2599 189.62 54.3999 189.27 55.5499C189.04 56.1899 188.91 56.8699 188.68 57.5099C188.41 58.2599 188.21 58.9699 188.01 59.6899C186.98 63.3699 186.09 67.3299 185.34 71.4099C184.87 74.1999 184.55 77.0999 184.23 80.0099C183.91 82.9099 183.79 85.8899 183.79 88.9099C183.85 90.9199 183.9 92.9399 184.03 94.9199C184.14 96.2899 184.25 97.6599 184.43 98.9899C184.55 99.9999 184.77 101.05 184.89 102.06C185.08 103.04 185.2 104.04 185.42 105.09C187.43 115.24 199.19 143.53 205.78 158.9L205.41 158.87C205.41 158.87 205.44 158.93 205.45 158.97C205.44 158.94 205.42 158.91 205.41 158.87L192.54 157.74C190.03 157.5 187.55 157.51 185.1 157.59C184.52 157.68 183.91 157.7 183.3 157.72C182 157.8 180.82 157.91 179.59 158.13C179.01 158.22 178.36 158.35 177.79 158.44C175.91 158.79 174.14 159.17 172.33 159.67C170.52 160.17 168.78 160.8 167.04 161.44C165.91 161.88 164.72 162.35 163.63 162.86C155.77 166.54 148.84 172.01 143.43 178.81C143.06 179.34 142.68 179.87 142.28 180.33C141.88 180.79 141.57 181.28 141.2 181.81L129.83 198.06C129.8 198.01 129.77 197.95 129.75 197.9L129.54 198.2C126.31 192 122.38 184.58 118.48 177.45C117.88 176.35 117.28 175.26 116.68 174.19C116.08 173.11 115.49 172.05 114.9 171C113.43 168.39 112 165.88 110.64 163.58C112 165.88 113.43 168.38 114.9 171C115.49 172.05 116.08 173.11 116.68 174.19C117.28 175.27 117.88 176.36 118.48 177.45C122.38 184.58 126.31 192 129.54 198.2L129.75 197.9C129.7 197.81 129.65 197.71 129.6 197.62L129.4 197.9C121.45 182.64 109.29 159.95 103.62 152.58C102.96 151.74 102.33 150.97 101.63 150.23C100.93 149.49 100.23 148.76 99.5602 148.09C98.1202 146.72 96.6402 145.47 95.1602 144.39C94.1002 143.64 93.0802 142.97 92.0502 142.3C90.6102 141.46 89.1402 140.69 87.6502 140.04C87.5802 140.01 87.5202 139.99 87.4502 139.96C87.0102 139.77 86.5702 139.59 86.1202 139.43C84.9702 139.01 83.8102 138.6 82.5902 138.21C81.8802 138.01 81.2402 137.78 80.5602 137.66C78.8502 137.22 77.0602 136.82 75.2702 136.59C74.0202 136.38 72.8702 136.21 71.6902 136.14C71.1202 136.05 70.5102 136.07 69.9302 135.99C68.2102 135.91 66.4102 135.87 64.7202 135.86C63.0302 135.86 61.2702 135.88 59.6502 136.02C58.0302 136.16 56.4102 136.3 54.8202 136.51C54.3202 136.57 53.8102 136.63 53.3102 136.69C52.5502 136.78 51.8002 136.87 51.1502 137C49.0902 137.34 47.0702 137.76 45.3002 138.15C45.3002 138.15 45.3002 138.14 45.2902 138.13C45.2102 138.15 45.1302 138.16 45.0502 138.18C45.0102 138.11 44.9602 138.05 44.9202 137.99C44.9102 137.99 44.8902 137.99 44.8802 137.99C44.2502 136.96 43.5402 136.01 42.7602 135.13C42.4002 134.74 42.0402 134.37 41.6602 134.01C40.7902 133.21 39.8602 132.49 38.8702 131.87C37.8802 131.25 36.8402 130.71 35.7602 130.27C34.6802 129.83 33.5602 129.49 32.4202 129.25C30.7102 128.89 28.9402 128.76 27.1702 128.87C26.6302 128.9 26.1002 128.97 25.5602 129.05C23.8202 129.34 22.0902 129.86 20.4102 130.65C19.1702 131.23 18.0102 131.96 16.9402 132.72C16.6102 132.96 16.3102 133.28 15.9102 133.56C15.5102 133.84 15.2102 134.15 14.9202 134.47C14.2602 135.14 13.7402 135.73 13.1802 136.44C12.9202 136.83 12.7002 137.11 12.4302 137.5C12.1302 138 11.7602 138.53 11.4902 139.09C11.0702 139.91 10.6902 140.8 10.3802 141.65C10.2302 141.9 10.1902 142.18 10.0702 142.5C9.91023 143.11 9.75023 143.71 9.59023 144.32C9.39023 145.21 9.29023 146.15 9.20023 147.08C9.15023 147.55 9.10023 148.01 9.16023 148.52C9.11023 148.99 9.17023 149.49 9.20023 149.92C9.36023 152.15 9.95023 154.36 10.9402 156.47C11.7902 158.29 12.9002 159.9 14.2002 161.33C15.0002 162.28 15.9902 163.06 16.9802 163.84C17.7602 164.36 18.5302 164.89 19.3502 165.3C20.2902 165.8 21.3202 166.19 22.3602 166.57C23.5002 166.92 24.7702 167.2 25.9902 167.34C26.9202 167.44 27.8202 167.46 28.7902 167.45C29.4002 167.43 30.0902 167.37 30.6602 167.28C32.5702 167 34.4502 166.48 36.2702 165.62C37.6502 164.97 38.9702 164.18 40.1002 163.2C40.6902 162.75 41.2402 162.22 41.7202 161.73C42.2702 161.2 42.7202 160.64 43.1602 160.08C43.6102 159.52 44.0202 158.88 44.4302 158.24C45.5902 156.36 46.4302 154.37 46.8502 152.23C55.1302 150.32 68.1702 148.49 79.0902 152.4C84.0602 154.1 88.6202 156.97 92.1202 161.52L92.1302 161.5ZM201.32 65.4799C200.92 66.9099 200.64 68.3699 200.28 69.8699C200.64 68.3699 200.93 66.8999 201.32 65.4799ZM201.64 109.87C200.94 107.8 200.3 105.88 199.95 104.36C200.41 105.92 200.94 107.8 201.64 109.87C201.94 110.7 202.24 111.54 202.51 112.48C202.17 111.57 201.87 110.74 201.64 109.87ZM220.37 156.81C220.78 157.68 221.15 158.48 221.42 159.24C221.04 158.44 220.74 157.61 220.37 156.81ZM187.13 157.63C188.83 157.62 190.55 157.66 192.28 157.83C190.56 157.71 188.86 157.63 187.13 157.63C186.36 157.63 185.6 157.65 184.84 157.68C185.61 157.64 186.37 157.63 187.13 157.63Z" fill="#1E1E1C"/>
<path d="M47.8802 137.55C46.9802 137.73 46.1202 137.91 45.3002 138.09C45.3002 138.09 45.3102 138.1 45.3102 138.11C47.0802 137.72 49.1002 137.31 51.1602 136.96C51.8102 136.83 52.5702 136.74 53.3202 136.65C53.8202 136.59 54.3302 136.53 54.8302 136.47C56.4202 136.26 58.0402 136.12 59.6602 135.98C61.2802 135.84 63.0402 135.81 64.7302 135.82C66.4202 135.82 68.2102 135.87 69.9402 135.95C70.5102 136.04 71.1202 136.02 71.7002 136.1C72.8802 136.17 74.0302 136.34 75.2802 136.55C77.0702 136.77 78.8602 137.18 80.5702 137.62C81.2502 137.74 81.8902 137.98 82.6002 138.17C83.8202 138.56 84.9802 138.97 86.1302 139.39C86.1202 139.39 86.1002 139.38 86.0902 139.38C84.7702 138.84 83.4902 138.38 82.1702 138.02C81.5302 137.79 80.8502 137.66 80.1402 137.47C78.4302 137.03 76.6402 136.63 74.8502 136.4C73.7002 136.23 72.4902 136.09 71.2702 135.95C70.7002 135.86 70.0902 135.88 69.5102 135.8C67.7502 135.65 65.9902 135.68 64.3002 135.67C62.6102 135.67 60.8802 135.76 59.2302 135.83C57.5802 135.9 55.9902 136.11 54.4002 136.32C53.9002 136.38 53.3902 136.44 52.8902 136.5C52.1302 136.59 51.4802 136.72 50.7302 136.81C48.7802 137.14 46.8702 137.53 45.1602 137.9C45.2002 137.97 45.2502 138.03 45.2902 138.09C46.1102 137.91 46.9702 137.73 47.8702 137.55H47.8802Z" fill="#1E1E1C"/>
<path d="M140.921 181.91C141.291 181.38 141.591 180.88 142.001 180.43C141.631 180.96 141.221 181.42 140.921 181.91L129.761 197.86C129.791 197.91 129.821 197.97 129.841 198.02L141.211 181.77C141.581 181.24 141.881 180.74 142.291 180.29C142.701 179.84 143.071 179.3 143.441 178.77C148.861 171.97 155.791 166.5 163.641 162.82C164.731 162.31 165.931 161.84 167.051 161.4C168.791 160.76 170.531 160.12 172.341 159.63C174.151 159.14 175.921 158.75 177.801 158.4C178.381 158.31 179.031 158.18 179.601 158.09C180.831 157.87 182.021 157.76 183.311 157.68C183.921 157.66 184.531 157.64 185.111 157.55C187.561 157.47 190.041 157.46 192.551 157.7L205.421 158.83C198.831 143.44 187.041 115.28 185.111 105.12C184.881 104.07 184.771 103.06 184.581 102.09C184.771 103.07 184.961 104.04 185.111 105.12C187.121 115.25 198.831 143.44 205.421 158.83L205.791 158.86C199.201 143.49 187.441 115.2 185.431 105.05C185.201 104 185.091 102.99 184.901 102.02C184.781 101.01 184.561 99.9604 184.441 98.9504C184.261 97.6204 184.151 96.2504 184.041 94.8804C183.911 92.9004 183.851 90.8904 183.801 88.8704C183.801 85.8504 183.911 82.8704 184.241 79.9704C184.561 77.0704 184.891 74.1604 185.351 71.3704C186.101 67.2904 186.991 63.3204 188.021 59.6504C188.221 58.9404 188.421 58.2204 188.691 57.4704C188.921 56.8304 189.051 56.1504 189.281 55.5104C189.631 54.3704 189.981 53.2304 190.441 52.1204C190.671 51.4804 190.861 50.9404 191.101 50.3004C191.721 48.5904 192.371 46.9504 192.981 45.4204C193.671 43.8604 194.281 42.3304 194.931 40.8704C193.881 39.5904 192.981 38.2304 192.231 36.6304C192.031 36.1904 191.821 35.7604 191.721 35.3604C191.381 34.4504 191.081 33.6204 190.921 32.7204C190.791 32.2504 190.761 31.8204 190.671 31.4204C190.581 30.8404 190.481 30.2704 190.461 29.6504C190.441 28.8604 190.431 28.0704 190.411 27.2804C190.511 26.3504 190.601 25.4204 190.801 24.5204C190.961 23.9104 191.121 23.3104 191.281 22.7004C191.401 22.3804 191.441 22.0904 191.591 21.8504C191.711 21.5304 191.861 21.2804 191.901 21.0004C192.201 20.3204 192.511 19.6504 192.891 18.9404C193.231 18.3404 193.571 17.7404 194.011 17.1704C194.121 17.0304 194.271 16.7804 194.381 16.6404C195.311 15.4104 196.381 14.2804 197.551 13.3804C198.471 12.6804 199.381 11.9904 200.371 11.4404L200.521 11.3704L201.611 10.8604C204.031 9.7304 206.561 9.1304 209.071 9.0304C206.451 9.0904 203.791 9.6704 201.251 10.8504C204.311 9.4104 207.561 8.8404 210.701 9.0404C212.601 9.1204 214.471 9.4804 216.261 10.1004C211.531 8.3304 206.131 8.3904 201.181 10.7104L200.091 11.2204L199.941 11.2904C198.961 11.8404 197.931 12.5004 197.121 13.2304C195.911 14.2404 194.841 15.3704 193.951 16.4904C193.841 16.6304 193.691 16.8804 193.581 17.0204C193.131 17.5804 192.801 18.1904 192.461 18.7904C192.051 19.4304 191.741 20.1004 191.471 20.8504C191.351 21.1704 191.201 21.4204 191.161 21.7004C191.041 22.0204 191.001 22.3104 190.851 22.5504C190.691 23.1604 190.531 23.7604 190.371 24.3704C190.171 25.2604 190.071 26.2004 189.981 27.1304C189.921 27.9604 189.911 28.6704 190.031 29.5004C190.051 30.1104 190.141 30.6904 190.241 31.2704C190.271 31.7004 190.401 32.1704 190.491 32.5704C190.721 33.4404 190.951 34.3104 191.291 35.2104C191.361 35.3704 191.421 35.5304 191.481 35.6804C191.451 35.6004 191.411 35.5104 191.391 35.4204C191.421 35.5304 191.461 35.6304 191.501 35.7304C191.591 35.9704 191.671 36.1904 191.761 36.3904C191.781 36.4404 191.801 36.4904 191.831 36.5404C192.541 38.0404 193.461 39.4404 194.491 40.7104C194.491 40.7304 194.471 40.7504 194.471 40.7604C194.511 40.8104 194.551 40.8704 194.601 40.9204C194.561 40.8704 194.521 40.8104 194.471 40.7604C193.831 42.2004 193.191 43.6404 192.551 45.2604C191.861 46.8204 191.321 48.5004 190.671 50.1404L190.011 51.9604C189.621 53.0304 189.271 54.1704 188.851 55.3404C188.621 55.9804 188.491 56.6604 188.261 57.3004C188.061 58.0104 187.861 58.7304 187.591 59.4804C186.561 63.1604 185.601 67.1604 184.921 71.2004C184.451 73.9904 184.021 76.8604 183.811 79.8004C183.601 82.7404 183.371 85.6804 183.371 88.7004C183.391 90.6404 183.451 92.6604 183.611 94.7104C183.721 96.0804 183.831 97.4504 184.011 98.7804C184.131 99.7904 184.251 100.8 184.471 101.85C184.591 102.86 184.811 103.91 185.001 104.88C186.941 115.06 198.771 143.32 205.361 158.69L192.131 157.53C189.651 157.36 187.211 157.26 184.691 157.38C184.081 157.4 183.471 157.42 182.891 157.51C181.701 157.62 180.441 157.77 179.181 157.92C178.601 158.01 177.951 158.14 177.381 158.23C175.581 158.54 173.731 158.96 171.921 159.46C170.111 159.95 168.371 160.59 166.631 161.23C165.501 161.67 164.311 162.14 163.221 162.65C155.361 166.33 148.431 171.8 143.021 178.6C142.611 179.06 142.241 179.59 141.871 180.12C141.501 180.65 141.091 181.11 140.791 181.6L129.621 197.56C129.671 197.65 129.721 197.75 129.771 197.84L140.931 181.89L140.921 181.91ZM193.691 17.2404C193.241 17.8004 192.911 18.4104 192.571 19.0104C192.911 18.4104 193.251 17.8104 193.691 17.2404ZM192.531 18.9304C192.151 19.6404 191.851 20.3104 191.541 20.9904C191.841 20.3104 192.151 19.6404 192.531 18.9304ZM190.481 24.6004C190.281 25.4904 190.181 26.4304 190.091 27.3604C190.191 26.4304 190.281 25.5004 190.481 24.6004ZM185.101 71.4004C184.631 74.1904 184.241 77.1304 183.991 80.0004C184.211 77.0604 184.641 74.1904 185.101 71.4004Z" fill="#1E1E1C"/>
<path d="M191.8 36.4899C191.8 36.4899 191.82 36.5299 191.83 36.5599C191.81 36.5099 191.79 36.4699 191.77 36.4199C191.77 36.4399 191.79 36.4699 191.8 36.4899Z" fill="#1E1E1C"/>
<path d="M334.608 169.96C335.438 170.02 336.188 170.11 337.048 170.24C336.298 170.15 335.438 170.02 334.608 169.96L222.408 160.42L222.458 160.53L335.208 170.12C336.038 170.18 336.788 170.27 337.648 170.4C338.508 170.53 339.258 170.62 340.048 170.78C340.908 170.91 341.798 171.11 342.588 171.28C343.198 171.44 343.798 171.6 344.378 171.68C344.848 171.8 345.298 171.94 345.758 172.07C345.158 171.89 344.558 171.69 343.948 171.53C343.338 171.37 342.738 171.21 342.158 171.13C341.268 170.93 340.408 170.8 339.618 170.63C338.828 170.47 338.008 170.41 337.218 170.25C336.428 170.09 335.608 170.03 334.778 169.97L222.398 160.41L334.598 169.96H334.608Z" fill="#1E1E1C"/>
<path d="M65.3896 379.01L65.3196 378.86L54.3996 355.58L54.3296 355.43C53.5796 353.83 52.8996 352.2 52.2996 350.53C52.2296 350.38 52.1596 350.24 52.1696 350.06C51.5996 348.46 51.0996 346.83 50.6796 345.17C50.6496 344.92 50.5496 344.7 50.5196 344.45C49.8696 341.74 49.4396 338.92 49.1796 336.11C49.0996 334.99 49.0196 333.88 49.0096 332.73C49.0196 332.19 49.0096 331.58 49.0096 331.04C49.0396 329.78 49.0696 328.53 49.1396 327.34C49.3096 324.86 49.6596 322.39 50.1896 319.93C50.3496 319.14 50.5596 318.25 50.7196 317.46C50.8796 316.85 51.0396 316.25 51.1996 315.64C51.3596 315.03 51.5896 314.39 51.7496 313.78C52.0996 312.64 52.5296 311.46 52.9896 310.36C53.2596 309.79 53.4496 309.26 53.6796 308.62C54.2096 307.48 54.6696 306.38 55.3096 305.28C56.4796 303.05 57.7196 300.96 59.2096 298.84L120.21 211.32C117.13 205.31 113.15 197.77 109.13 190.34C108.44 189.06 107.79 187.86 107.14 186.66C105.8 184.18 104.5 181.78 103.15 179.48C102.84 179.01 102.6 178.5 102.29 178.02C101.43 176.56 100.64 175.07 99.8496 173.75C99.5396 173.27 99.3296 172.84 99.0596 172.44C98.2296 171.05 97.5496 169.78 96.7896 168.54C95.8896 167.01 94.9896 165.66 94.2696 164.49C94.0596 164.23 93.8896 163.87 93.6796 163.61C93.1296 162.81 92.5996 162.07 92.1496 161.49C88.6496 156.94 84.0896 154.07 79.1196 152.37C81.4796 153.22 83.7496 154.33 85.8496 155.77C88.2196 157.32 90.3896 159.27 92.2596 161.71C92.7096 162.3 93.1996 162.96 93.7896 163.83C93.2396 163.03 92.7096 162.29 92.2596 161.71C90.4796 159.39 88.4196 157.52 86.1796 156C88.2196 157.45 90.0896 159.2 91.7296 161.33C92.1796 161.92 92.6696 162.58 93.2596 163.45C93.4696 163.71 93.6096 164 93.8496 164.33C94.5796 165.5 95.4796 166.85 96.3696 168.38C97.0996 169.55 97.8896 170.86 98.6396 172.28C98.9196 172.68 99.1596 173.19 99.4296 173.59C100.26 174.98 101.01 176.4 101.87 177.86C102.18 178.34 102.42 178.84 102.73 179.32C104 181.65 105.31 184.06 106.72 186.5C107.37 187.7 108.06 188.98 108.71 190.18C112.73 197.61 116.63 205.19 119.79 211.16L58.7896 298.68C57.3696 300.76 56.0596 302.89 54.8896 305.12C54.3196 306.18 53.7896 307.32 53.2596 308.46C52.9896 309.03 52.7996 309.56 52.5696 310.2C52.1096 311.3 51.6896 312.48 51.3296 313.62C51.1696 314.23 50.9396 314.87 50.7796 315.48C50.6196 316.09 50.4596 316.69 50.2996 317.3C50.0596 318.12 49.8996 318.91 49.7696 319.77C49.2396 322.24 48.8896 324.71 48.7196 327.18C48.6196 328.47 48.5496 329.66 48.5896 330.88C48.5796 331.42 48.5896 332.03 48.5896 332.57C48.5896 333.72 48.6796 334.84 48.7596 335.95C49.0096 338.76 49.4096 341.5 50.0996 344.29C50.1296 344.54 50.2296 344.76 50.2596 345.01C50.6896 346.67 51.1796 348.3 51.7496 349.9C51.8196 350.05 51.8896 350.19 51.8796 350.37C52.4896 352.04 53.1596 353.67 53.9096 355.27L64.8896 378.69L73.1096 396.22L73.3996 396.09L65.3796 378.99L65.3896 379.01ZM103.1 179.78C104.44 182.08 105.75 184.48 107.09 186.96C105.75 184.48 104.45 182.08 103.1 179.78Z" fill="#1E1E1C"/>
<path d="M16.9901 163.81C16.0001 163.03 15.0201 162.25 14.2101 161.3C12.9201 159.87 11.8101 158.26 10.9501 156.44C9.96013 154.33 9.37013 152.12 9.21013 149.89C9.18013 149.46 9.13013 148.95 9.17013 148.49C9.11013 147.99 9.16013 147.52 9.21013 147.05C9.31013 146.12 9.40013 145.19 9.60013 144.29C9.76013 143.68 9.92013 143.08 10.0801 142.47C10.2001 142.15 10.2401 141.86 10.3901 141.62C10.7001 140.77 11.0801 139.88 11.5001 139.06C11.7701 138.49 12.1401 137.96 12.4401 137.47C12.7001 137.08 12.9201 136.8 13.1901 136.41C13.7501 135.71 14.2601 135.11 14.9301 134.44C15.2301 134.12 15.5201 133.81 15.9201 133.53C16.3201 133.25 16.6201 132.94 16.9501 132.69C18.0101 131.93 19.1801 131.2 20.4201 130.62C22.1001 129.83 23.8301 129.31 25.5701 129.02C25.5101 129.02 25.4601 129.02 25.4001 129.04C24.2201 129.23 23.0401 129.52 21.8801 129.94C21.3001 130.15 20.7301 130.38 20.1601 130.65C18.9201 131.23 17.7601 131.96 16.6901 132.72C17.7501 131.96 18.9201 131.23 20.1601 130.65C20.7301 130.38 21.3001 130.15 21.8801 129.94C23.0401 129.53 24.2201 129.23 25.4001 129.04C25.4601 129.04 25.5101 129.03 25.5701 129.02C28.4801 128.54 31.4101 128.75 34.1601 129.55C29.6501 128.12 24.6101 128.3 19.9901 130.46C18.7501 131.04 17.5901 131.77 16.5201 132.53C16.1901 132.77 15.7901 133.05 15.4901 133.37C15.1901 133.69 14.8601 133.93 14.5001 134.28C13.9101 134.91 13.3201 135.54 12.7601 136.25C12.4601 136.57 12.2801 136.92 12.0101 137.31C11.6401 137.84 11.3401 138.34 11.0701 138.9C10.6501 139.72 10.2701 140.61 9.96013 141.46C9.84013 141.78 9.80013 142.07 9.65013 142.31C9.49013 142.92 9.33013 143.52 9.17013 144.13C8.97013 145.02 8.87013 145.96 8.78013 146.89C8.73013 147.36 8.72013 147.89 8.74013 148.33C8.76013 148.76 8.72013 149.23 8.78013 149.73C8.94013 151.96 9.53013 154.17 10.5201 156.28C11.3701 158.1 12.4801 159.71 13.7801 161.14C14.6601 162.06 15.6001 162.95 16.5601 163.65C17.3401 164.17 18.1101 164.7 18.9301 165.11C19.9901 165.68 21.2001 166.17 22.3401 166.53C22.3401 166.53 22.3501 166.53 22.3601 166.53C21.3201 166.15 20.2901 165.76 19.3501 165.26C18.5301 164.84 17.7601 164.32 16.9801 163.8L16.9901 163.81Z" fill="#1E1E1C"/>
<path d="M184.84 157.68C185.6 157.65 186.36 157.64 187.13 157.63C186.37 157.63 185.61 157.63 184.84 157.68Z" fill="#1E1E1C"/>
<path d="M187.129 157.63C188.849 157.63 190.559 157.71 192.279 157.83C190.549 157.66 188.829 157.62 187.129 157.63Z" fill="#1E1E1C"/>
<path d="M210.699 9.04043C210.159 9.02043 209.609 9.01043 209.059 9.03043C216.509 8.87043 223.689 13.0204 227.059 20.1304C223.909 13.4904 217.529 9.46043 210.689 9.04043H210.699Z" fill="#1E1E1C"/>
<path d="M201.25 10.8503C203.78 9.66032 206.44 9.08031 209.07 9.03031C209.62 9.01031 210.16 9.02031 210.71 9.04031C207.56 8.85031 204.32 9.42032 201.26 10.8503H201.25Z" fill="#1E1E1C"/>
<path d="M334.609 169.96C335.439 170.02 336.289 170.15 337.049 170.24C336.189 170.11 335.439 170.02 334.609 169.96Z" fill="#1E1E1C"/>
<path d="M204.25 56.0301C204.25 56.0301 204.28 55.9501 204.3 55.9101C204.3 55.9001 204.3 55.8901 204.31 55.8701C204.29 55.9201 204.27 55.9701 204.25 56.0301Z" fill="#1E1E1C"/>
<path d="M25.3989 129.04C24.2189 129.23 23.0389 129.52 21.8789 129.94C23.0389 129.53 24.2189 129.23 25.3989 129.04Z" fill="#1E1E1C"/>
<path d="M118.499 177.41C117.899 176.31 117.299 175.22 116.699 174.15C117.299 175.23 117.899 176.32 118.499 177.41Z" fill="#1E1E1C"/>
<path d="M114.92 170.96C113.45 168.35 112.02 165.84 110.66 163.54C112.02 165.84 113.45 168.34 114.92 170.96Z" fill="#1E1E1C"/>
<path d="M140.922 181.91C141.222 181.41 141.632 180.96 142.002 180.43C141.592 180.89 141.292 181.38 140.922 181.91Z" fill="#1E1E1C"/>
<path d="M205.47 158.92C205.47 158.92 205.44 158.86 205.43 158.82C205.43 158.82 205.46 158.88 205.47 158.92Z" fill="#1E1E1C"/>
<path d="M185.12 105.11C184.97 104.03 184.78 103.05 184.59 102.08C184.78 103.06 184.9 104.06 185.12 105.11Z" fill="#1E1E1C"/>
<path d="M205.431 158.82C198.841 143.43 187.121 115.24 185.121 105.11C187.051 115.27 198.841 143.43 205.431 158.82Z" fill="#1E1E1C"/>
<path d="M191.398 35.4404C191.418 35.5204 191.458 35.6104 191.488 35.7004C191.488 35.7204 191.498 35.7404 191.508 35.7504C191.468 35.6504 191.428 35.5504 191.398 35.4404Z" fill="#1E1E1C"/>
<path d="M194.469 40.7803C194.509 40.8303 194.549 40.8903 194.599 40.9403C194.559 40.8903 194.519 40.8303 194.469 40.7803Z" fill="#1E1E1C"/>
<path d="M191.772 36.4104C191.792 36.4604 191.812 36.5004 191.832 36.5504C191.812 36.5004 191.792 36.4504 191.762 36.4004L191.772 36.4104Z" fill="#1E1E1C"/>
<path d="M85.8186 155.77C85.9286 155.85 86.0286 155.93 86.1386 156.01C88.3786 157.52 90.4386 159.4 92.2186 161.72C90.3586 159.28 88.1886 157.33 85.8086 155.78L85.8186 155.77Z" fill="#1E1E1C"/>
<path d="M92.2305 161.71C92.6805 162.3 93.2005 163.03 93.7605 163.83C93.1705 162.95 92.6805 162.29 92.2305 161.71Z" fill="#1E1E1C"/>
<path d="M54.4011 355.59C53.6511 353.99 52.9711 352.36 52.3711 350.69C52.9811 352.36 53.6511 353.99 54.4011 355.59Z" fill="#1E1E1C"/>
<path d="M204.251 56.0303C203.441 58.2703 202.661 60.5903 202.031 63.0203C202.741 60.5603 203.441 58.2803 204.251 56.0303Z" fill="#1E1E1C"/>
<path d="M221.421 159.25C221.151 158.49 220.781 157.69 220.371 156.82C220.751 157.62 221.051 158.45 221.421 159.25Z" fill="#1E1E1C"/>
<path d="M183.988 79.9896C184.238 77.1196 184.638 74.1796 185.098 71.3896C184.628 74.1796 184.198 77.0496 183.988 79.9896Z" fill="#1E1E1C"/>
<path d="M190.09 27.3498C190.19 26.4198 190.28 25.4898 190.48 24.5898C190.28 25.4798 190.18 26.4198 190.09 27.3498Z" fill="#1E1E1C"/>
<path d="M201.639 109.87C200.939 107.8 200.409 105.92 199.949 104.36C200.309 105.88 200.939 107.8 201.639 109.87Z" fill="#1E1E1C"/>
<path d="M202.511 112.48C202.251 111.54 201.941 110.7 201.641 109.87C201.871 110.74 202.171 111.57 202.511 112.48Z" fill="#1E1E1C"/>
<path d="M188.031 174.83C188.931 174.85 189.831 174.89 190.731 174.97L188.151 174.76C181.921 174.21 175.771 175.36 170.301 177.94C175.741 175.41 181.831 174.28 188.011 174.82H188.031V174.83Z" fill="#1E1E1C"/>
<path d="M73.2912 309.02L71.8012 311.14C64.7112 321.38 63.5612 334.62 68.8412 345.89L69.9712 348.29C63.9312 335.6 65.2012 320.53 73.2912 309.02Z" fill="#1E1E1C"/>
<path d="M89.9889 388.44L384.819 252.1L385.099 251.69L365.449 209.79C360.969 200.24 352.949 193.04 343.329 189.5C340.149 188.36 336.799 187.61 333.349 187.31L304.229 184.82L190.909 175.14C176.849 173.92 163.249 180.3 155.199 191.89L73.4689 309.19C65.4189 320.78 64.1089 335.77 70.1089 348.57L88.7389 388.28C88.9189 388.28 89.1289 388.36 89.3089 388.37L89.9989 388.43L89.9889 388.44ZM282.529 266.08C283.579 265.59 284.639 265.17 285.699 264.82C288.329 263.96 290.909 263.58 293.239 263.64C297.429 263.75 300.809 265.32 302.169 268.22C304.589 273.38 299.699 280.74 291.259 284.69C282.819 288.65 274.039 287.71 271.619 282.54C270.259 279.64 271.209 276.04 273.809 272.74C275.249 270.91 277.199 269.17 279.539 267.7C280.479 267.11 281.479 266.56 282.529 266.07V266.08ZM223.209 245.37C216.459 230.97 219.289 215.44 229.619 210.6C239.949 205.76 253.699 213.51 260.449 227.91C260.449 227.92 260.459 227.93 260.469 227.95C260.479 227.97 260.479 227.97 260.489 227.99C267.239 242.39 264.339 257.95 254.079 262.76C243.749 267.6 229.999 259.85 223.249 245.45C223.249 245.44 223.239 245.43 223.229 245.41C223.219 245.39 223.219 245.39 223.209 245.37ZM151.129 279.17C144.379 264.77 147.209 249.24 157.539 244.4C167.869 239.56 181.619 247.31 188.369 261.71C188.369 261.72 188.379 261.73 188.389 261.75C188.399 261.77 188.399 261.77 188.409 261.79C195.159 276.19 192.259 291.75 181.999 296.56C171.669 301.4 157.919 293.65 151.169 279.25C151.169 279.24 151.159 279.23 151.149 279.21C151.139 279.19 151.139 279.19 151.129 279.17ZM157.719 327.2C159.739 324.64 162.749 322.26 166.439 320.52C170.129 318.79 173.889 317.99 177.149 318.08C181.339 318.19 184.719 319.76 186.079 322.66C188.499 327.82 183.609 335.18 175.169 339.13C172.009 340.61 168.789 341.41 165.889 341.55C163.469 341.67 161.259 341.33 159.459 340.57C159.099 340.42 158.759 340.25 158.429 340.06C157.459 339.5 156.649 338.78 156.049 337.91C155.849 337.62 155.669 337.31 155.519 336.99C154.159 334.09 155.109 330.49 157.709 327.19L157.719 327.2Z" fill="#FDE248"/>
<path d="M365.768 209.92C361.238 200.26 353.088 193.02 343.328 189.51C352.948 193.06 360.968 200.25 365.448 209.8L385.098 251.7L384.818 252.11L385.408 251.84V251.82L365.768 209.92Z" fill="#FDE248"/>
<path d="M254.042 262.67C264.362 257.83 267.202 242.33 260.462 227.93C253.702 213.55 239.972 205.82 229.652 210.66C219.332 215.5 216.492 231 223.232 245.4C229.992 259.78 243.802 267.48 254.042 262.67Z" fill="#1E1E1C"/>
<path d="M229.652 210.67C239.972 205.83 253.702 213.56 260.462 227.94C260.462 227.93 260.452 227.92 260.442 227.9C253.692 213.5 239.862 205.78 229.612 210.59C219.362 215.4 216.452 230.96 223.202 245.36C223.202 245.37 223.212 245.38 223.222 245.4C216.492 231.01 219.402 215.47 229.642 210.66L229.652 210.67Z" fill="#1E1E1C"/>
<path d="M271.619 282.56C274.039 287.72 282.819 288.66 291.259 284.71C299.699 280.75 304.589 273.4 302.169 268.24C300.809 265.34 297.429 263.77 293.239 263.66C290.909 263.6 288.329 263.99 285.699 264.84C284.649 265.18 283.589 265.6 282.529 266.1C281.469 266.6 280.479 267.14 279.539 267.73C277.199 269.2 275.249 270.94 273.809 272.77C271.209 276.07 270.259 279.66 271.619 282.57V282.56Z" fill="#E6155F"/>
<path d="M181.96 296.48C192.28 291.64 195.12 276.14 188.38 261.74C181.62 247.36 167.89 239.63 157.57 244.47C147.25 249.31 144.41 264.81 151.15 279.21C157.91 293.59 171.72 301.29 181.96 296.48Z" fill="#1E1E1C"/>
<path d="M157.57 244.47C167.89 239.63 181.62 247.36 188.38 261.74C188.38 261.73 188.37 261.72 188.36 261.7C181.61 247.3 167.78 239.58 157.53 244.39C147.28 249.2 144.37 264.76 151.12 279.16C151.12 279.17 151.13 279.18 151.14 279.2C144.41 264.81 147.32 249.27 157.56 244.46L157.57 244.47Z" fill="#1E1E1C"/>
<path d="M158.44 340.07C158.76 340.26 159.11 340.43 159.47 340.58C161.26 341.35 163.48 341.68 165.9 341.56C168.81 341.42 172.02 340.62 175.18 339.14C183.62 335.18 188.51 327.83 186.09 322.67C184.73 319.77 181.35 318.2 177.16 318.09C173.9 318 170.14 318.8 166.45 320.53C162.76 322.26 159.75 324.64 157.73 327.21C155.13 330.51 154.18 334.1 155.54 337.01C155.69 337.33 155.87 337.64 156.07 337.93C156.67 338.8 157.48 339.52 158.45 340.08L158.44 340.07Z" fill="#E6155F"/>
<path d="M159.469 340.58C161.259 341.35 163.479 341.68 165.899 341.56C163.479 341.68 161.269 341.34 159.469 340.58Z" fill="#E6155F"/>
<path d="M43.1889 472.24L43.0889 472.96C43.0089 473.52 43.0089 474.16 42.9289 474.72C42.8989 474.96 42.9289 475.29 42.8989 475.53C42.8989 476.18 42.8889 476.83 42.8789 477.47V478.04C42.8989 479.74 42.9089 481.45 43.0789 483.17V483.66C43.1589 484.4 43.2289 485.06 43.2889 485.79V486.28C43.3689 487.02 43.4989 487.85 43.6289 488.67L43.6089 488.83C46.2189 505.48 55.0689 520.38 68.3589 530.61L181.449 618.07C190.549 625.14 201.439 629.69 212.829 631.23C224.219 632.77 235.929 631.28 246.579 626.88L378.849 572.63C397.219 565.06 411.539 549.17 417.139 529.9V529.82C417.729 527.95 418.159 525.98 418.489 524.08L418.579 523.44C418.789 522.5 418.919 521.54 419.049 520.58L431.949 425.28L422.959 424.01L413.779 491.82L410.039 519.44C409.929 520.24 409.819 521.03 409.629 521.9L409.589 522.22L409.549 522.54C409.239 524.2 408.859 525.85 408.389 527.49V527.57L408.369 527.65C407.459 530.77 406.339 533.7 404.969 536.59C401.269 544.2 395.899 550.93 389.249 556.27C387.609 557.59 385.829 558.81 384.049 559.94C381.299 561.68 378.429 563.15 375.419 564.37L243.149 618.62C242.549 618.86 242.029 619.12 241.439 619.28C239.729 619.94 237.949 620.51 236.099 620.99C234.919 621.32 233.669 621.55 232.499 621.8C231.249 622.04 230.089 622.2 228.859 622.36C227.039 622.6 225.159 622.75 223.279 622.82C220.189 622.89 217.129 622.72 214.029 622.3C212.839 622.14 211.569 621.89 210.389 621.65C209.209 621.41 207.949 621.08 206.779 620.76C204.429 620.12 202.029 619.31 199.809 618.36C198.659 617.88 197.509 617.4 196.449 616.85C193.109 615.18 189.969 613.22 187.029 610.95L73.9389 523.49C72.4689 522.4 71.0889 521.16 69.7989 519.93C68.5089 518.7 67.2189 517.39 66.0289 516.02C65.5689 515.49 65.1189 514.95 64.6789 514.4C63.2989 512.74 62.0489 511.01 60.8689 509.24C60.1289 508.09 59.4789 506.94 58.8189 505.8C58.4889 505.27 58.1589 504.66 57.8389 504.05C56.2989 501.08 55.0089 497.99 54.0689 494.78C53.6689 493.51 53.3589 492.25 53.0489 490.91C52.7289 489.65 52.5089 488.32 52.2789 487V486.92C52.1389 486.25 52.0789 485.51 51.9989 484.85C52.0189 484.69 51.9489 484.6 51.9689 484.44C51.8989 483.78 51.8889 483.21 51.8189 482.56C51.8389 482.4 51.7689 482.31 51.7889 482.15C51.6689 480.67 51.6189 479.21 51.6589 477.75C51.5989 477.58 51.6189 477.42 51.6489 477.26C51.6489 476.69 51.7189 476.13 51.7189 475.57C51.6689 475.32 51.7089 475.08 51.7389 474.84C51.7989 474.36 51.7989 473.79 51.8689 473.32L51.9589 472.68C51.9789 471.95 52.0689 471.24 52.1689 470.52L56.7089 437L63.3489 387.96L65.2889 373.63L56.6189 372.41L43.4489 469.74C43.3289 470.62 43.2189 471.41 43.1989 472.22L43.1889 472.24Z" fill="white"/>
<path d="M223.309 622.77C220.229 622.76 217.079 622.66 214.059 622.25C217.159 622.67 220.219 622.84 223.309 622.77Z" fill="#010101"/>
<path d="M69.5387 519.59C70.9088 520.83 72.2188 521.98 73.6787 523.15L186.769 610.61C189.709 612.87 192.849 614.84 196.189 616.51C197.329 617.07 198.399 617.54 199.549 618.02C201.849 618.98 204.179 619.78 206.519 620.42C207.689 620.74 208.939 621.07 210.129 621.31C211.319 621.55 212.579 621.8 213.769 621.96C216.869 622.38 219.929 622.55 223.019 622.48C224.889 622.41 226.699 622.25 228.599 622.02C229.839 621.86 231.069 621.71 232.239 621.46C233.489 621.22 234.659 620.98 235.839 620.65C237.609 620.16 239.389 619.59 241.179 618.94C241.779 618.7 242.369 618.53 242.889 618.28L375.159 564.03C378.159 562.81 381.039 561.34 383.789 559.6C385.569 558.46 387.349 557.24 388.989 555.93C395.629 550.59 400.999 543.86 404.709 536.25C406.069 533.35 407.199 530.43 408.109 527.31V527.23L408.129 527.15C408.599 525.51 408.979 523.86 409.289 522.2L409.329 521.88L409.369 521.56C409.479 520.76 409.669 519.98 409.779 519.1L413.519 491.48L422.659 423.99L406.019 421.65L257.719 482.47C242.699 488.62 225.579 486.31 212.819 476.39L83.1687 376.17L65.6287 373.7L63.6488 388.34L63.6287 388.5L57.0087 437.38L56.9888 437.54L52.4688 470.9C52.3688 471.62 52.3587 472.34 52.2587 473.06L52.2388 473.22L52.1787 473.7C52.1187 474.18 52.0387 474.73 52.0487 475.22C52.0987 475.47 52.0587 475.71 52.0287 475.95C52.0087 476.09 52.0087 476.24 51.9987 476.38C51.9987 476.66 51.9787 476.94 51.9688 477.21C51.9688 477.35 51.9688 477.5 51.9688 477.64C52.0287 477.81 52.0087 477.97 51.9787 478.13C51.9487 479.58 51.9887 481.05 52.1087 482.53C52.0887 482.69 52.1587 482.78 52.1387 482.94C52.1387 483.59 52.2087 484.25 52.2887 484.82C52.2687 484.98 52.3387 485.07 52.3187 485.23C52.3887 485.89 52.5287 486.64 52.6087 487.3V487.38C52.7087 488.04 52.8287 488.69 52.9487 489.33C53.0687 489.97 53.2087 490.62 53.3587 491.29C53.6687 492.63 53.9787 493.89 54.3787 495.16C55.3987 498.38 56.6088 501.46 58.1488 504.43C58.4688 505.04 58.8087 505.57 59.1287 506.18C59.7887 507.32 60.4387 508.47 61.1787 509.62C62.2687 511.26 63.4587 512.88 64.7087 514.42C65.0587 514.84 65.4187 515.26 65.7887 515.67C66.9788 517.05 68.1787 518.35 69.5587 519.58L69.5387 519.59ZM71.4287 458.31L71.4688 457.99L76.9688 417.39L77.0088 417.07L139.829 465.62L195.749 508.86C205.509 516.42 217.099 521.23 229.279 522.88C241.459 524.53 253.909 522.97 265.329 518.27L400.339 462.93L400.289 463.29L400.379 463.25L394.839 504.17L246.519 565C231.499 571.15 214.379 568.84 201.619 558.92L71.8587 458.67C71.7087 458.57 71.5687 458.39 71.4287 458.29V458.31Z" fill="#1E1E1C"/>
<path d="M61.1603 509.62C60.4203 508.47 59.7703 507.32 59.1103 506.18C58.7903 505.57 58.4503 505.04 58.1303 504.43C56.5903 501.46 55.3803 498.38 54.3603 495.16C53.9603 493.89 53.6503 492.63 53.3403 491.29C53.1903 490.62 53.0503 489.97 52.9303 489.33C53.0603 489.98 53.1903 490.62 53.3403 491.29C53.0203 490.03 52.8003 488.7 52.5703 487.38C52.4203 486.71 52.3603 485.97 52.2803 485.31C52.3003 485.15 52.2303 485.06 52.2503 484.9C52.1703 484.32 52.0903 483.66 52.1003 483.01C52.1203 482.85 52.0503 482.76 52.0703 482.6C51.9503 481.12 51.9003 479.66 51.9403 478.2C51.8803 478.03 51.9003 477.87 51.9303 477.71C51.9903 477.88 51.9703 478.04 51.9403 478.2C51.9103 479.65 51.9503 481.12 52.0703 482.6C52.0503 482.76 52.1203 482.85 52.1003 483.01C52.1003 483.66 52.1803 484.24 52.2503 484.9C52.2403 484.98 52.3003 485.15 52.2803 485.31C52.3503 485.97 52.4903 486.72 52.5703 487.38L52.5803 487.3C52.5103 486.64 52.3703 485.89 52.2903 485.23C52.3103 485.07 52.2403 484.98 52.2603 484.82C52.1803 484.24 52.1003 483.58 52.1103 482.94C52.1303 482.78 52.0603 482.69 52.0803 482.53C51.9603 481.05 51.9103 479.59 51.9503 478.13C51.9703 477.97 51.9903 477.81 51.9403 477.64C51.9403 477.5 51.9403 477.35 51.9403 477.21C51.9303 477.41 51.9203 477.6 51.9203 477.8C51.9203 477.23 51.9203 476.66 51.9903 476.11C51.9403 475.86 51.9803 475.62 52.0103 475.38C52.0003 474.89 52.0703 474.33 52.1403 473.86C52.0803 474.34 52.0003 474.89 52.0103 475.38C51.9803 475.62 51.9503 475.86 51.9903 476.11C51.9903 476.2 51.9903 476.29 51.9803 476.38C51.9903 476.24 51.9903 476.09 52.0103 475.95C52.0403 475.71 52.0703 475.47 52.0303 475.22C52.0203 474.73 52.0903 474.17 52.1603 473.7L52.2203 473.22C52.2403 472.49 52.3303 471.78 52.4303 471.06L52.4503 470.9L56.9703 437.54L56.9903 437.38L63.6103 388.5L63.6303 388.34L65.6103 373.7L65.2903 373.66L63.3503 387.99L56.7103 437.03L52.1703 470.55C52.0703 471.27 51.9803 471.98 51.9603 472.71L51.8703 473.35C51.8103 473.83 51.8103 474.4 51.7403 474.87C51.7103 475.11 51.6803 475.35 51.7203 475.6C51.7203 476.17 51.6503 476.73 51.6503 477.29C51.6303 477.45 51.6103 477.61 51.6603 477.78C51.6303 479.23 51.6703 480.7 51.7903 482.18C51.7703 482.34 51.8403 482.43 51.8203 482.59C51.8903 483.25 51.9003 483.82 51.9703 484.47C51.9503 484.63 52.0203 484.72 52.0003 484.88C52.0703 485.54 52.1403 486.28 52.2903 486.95V487.03C52.5003 488.36 52.7303 489.69 53.0503 490.94C53.3603 492.28 53.6703 493.54 54.0703 494.81C55.0103 498.02 56.3003 501.11 57.8403 504.08C58.1603 504.69 58.4903 505.3 58.8203 505.83C59.4803 506.97 60.1303 508.12 60.8703 509.27C62.0503 511.05 63.3003 512.77 64.6803 514.43C63.4303 512.89 62.2403 511.27 61.1503 509.63L61.1603 509.62Z" fill="#1E1E1C"/>
<path d="M52.2188 473.22L52.2388 473.06C52.3388 472.34 52.3487 471.62 52.4487 470.9L52.4287 471.06C52.3287 471.78 52.3188 472.5 52.2188 473.22Z" fill="#1E1E1C"/>
<path d="M52.5781 487.38C52.6881 488.04 52.8081 488.69 52.9281 489.33C52.7981 488.68 52.6881 488.04 52.5781 487.38Z" fill="#1E1E1C"/>
<path d="M53.3381 491.29C53.1881 490.62 53.0481 489.97 52.9281 489.33C52.8081 488.69 52.6881 488.04 52.5781 487.38C52.8081 488.71 53.0281 490.04 53.3481 491.29H53.3381Z" fill="#1E1E1C"/>
<path d="M51.9494 478.21C51.9694 478.05 51.9893 477.89 51.9393 477.72C51.9193 477.88 51.8994 478.04 51.9494 478.21Z" fill="#1E1E1C"/>
<path d="M52.2914 485.31C52.3114 485.15 52.2514 484.98 52.2614 484.9C52.2414 485.06 52.3114 485.15 52.2914 485.31Z" fill="#1E1E1C"/>
<path d="M52.2601 484.9C52.1901 484.24 52.1001 483.66 52.1101 483.01C52.1101 483.66 52.1801 484.32 52.2601 484.9Z" fill="#1E1E1C"/>
<path d="M52.2891 485.31C52.3591 485.97 52.4291 486.71 52.5791 487.38C52.5091 486.72 52.3691 485.97 52.2891 485.31Z" fill="#1E1E1C"/>
<path d="M51.9792 476.38C51.9592 476.66 51.9492 476.93 51.9492 477.21C51.9692 476.93 51.9692 476.65 51.9792 476.38Z" fill="#1E1E1C"/>
<path d="M51.9284 477.8C51.9284 477.6 51.9384 477.41 51.9484 477.21C51.9484 476.93 51.9584 476.65 51.9784 476.38C51.9784 476.29 51.9884 476.2 51.9884 476.11C51.9084 476.67 51.9184 477.24 51.9184 477.8H51.9284Z" fill="#1E1E1C"/>
<path d="M52.2188 473.22C52.3188 472.5 52.3287 471.78 52.4287 471.06C52.3287 471.78 52.2387 472.49 52.2188 473.22Z" fill="#1E1E1C"/>
<path d="M201.589 558.62C214.429 568.55 231.549 570.86 246.489 564.7L394.809 503.87L400.299 463.31L265.289 518.6C253.869 523.3 241.419 524.85 229.239 523.21C217.059 521.57 205.469 516.75 195.709 509.19L139.789 465.95L76.9688 417.4L71.4688 458C71.6188 458.1 71.7588 458.28 71.8988 458.38L201.579 558.62H201.589Z" fill="#FDE248"/>
<path d="M246.52 565.03L394.84 504.2L400.38 463.28L400.29 463.32L394.8 503.88L246.48 564.71C231.54 570.88 214.42 568.56 201.58 558.63L71.8997 458.39C71.7497 458.29 71.6097 458.11 71.4697 458.01L71.4297 458.33C71.5797 458.43 71.7197 458.61 71.8597 458.71L201.62 558.96C214.38 568.88 231.5 571.19 246.52 565.04V565.03Z" fill="#FDE248"/>
<path d="M212.759 476.06C225.599 485.99 242.719 488.3 257.659 482.14L405.349 421.55L83.6992 376.25L212.759 476.06Z" fill="#FDE248"/>
<path d="M257.661 482.14C242.721 488.31 225.601 485.99 212.761 476.06L83.7006 376.25L83.1406 376.17L212.791 476.39C225.551 486.31 242.671 488.62 257.691 482.47L405.991 421.65L405.341 421.56L257.651 482.15L257.661 482.14Z" fill="#FDE248"/>
</g>
<defs>
<clipPath id="clip0_154_712">
<rect width="431.95" height="631.83" fill="white"/>
</clipPath>
</defs>
</svg>
