<svg width="150" height="172" viewBox="0 0 150 172" fill="none" xmlns="http://www.w3.org/2000/svg">
<g clip-path="url(#clip0_447_1960)">
<path d="M149.494 124.501C149.414 122.304 148.364 120.074 146.756 118.682C146.151 118.158 145.527 117.596 144.978 117.099L144.893 117.021C144.3 116.486 143.693 115.94 143.089 115.412C142.305 114.729 141.444 114.171 140.454 113.703C140.246 113.604 140.029 113.51 139.811 113.418C138.691 112.957 137.603 112.677 136.64 112.431C135.946 112.252 135.292 112.083 134.775 111.883C134.226 111.671 133.65 111.499 133.021 111.359C132.67 111.282 132.322 111.219 131.976 111.166C132.426 109.88 132.774 108.615 133.036 107.341C133.157 106.745 133.263 106.134 133.348 105.526C133.406 105.104 133.457 104.672 133.5 104.232C133.827 103.938 134.119 103.651 134.395 103.383C134.922 102.869 135.377 102.427 135.738 102.253C135.82 102.215 135.89 102.188 135.958 102.171C136.417 102.056 136.867 101.875 137.293 101.636C137.641 101.44 137.987 101.196 138.34 100.895C138.413 100.832 138.483 100.769 138.553 100.709L138.577 100.687C138.597 100.67 138.616 100.651 138.635 100.636C139.288 100.096 139.884 99.5045 140.406 98.877C140.604 98.6381 140.783 98.4112 140.95 98.1795C141.11 97.9599 141.262 97.7306 141.407 97.5013C142.486 95.7805 143.118 93.8208 143.282 91.6776C143.318 91.2094 143.333 90.7267 143.323 90.2392C143.318 90.0075 143.311 89.771 143.297 89.5345C143.164 87.2297 142.762 85.3785 142.039 83.7084C141.052 81.4277 139.47 79.5838 137.339 78.2226C137.066 78.0488 136.78 77.8558 136.466 77.6313C136.316 77.5227 136.166 77.4141 136.016 77.3031C135.699 77.069 135.372 76.818 135.055 76.5766C134.54 76.1832 134.018 75.785 133.461 75.3868C132.9 74.9838 132.67 74.6217 132.436 73.7722C132.31 73.3161 132.16 72.8527 131.945 72.2734C131.645 71.4601 131.325 70.6492 130.994 69.8672C130.658 69.0732 130.305 68.2816 129.939 67.5165C129.756 67.1304 129.564 66.7418 129.371 66.3653C128.59 64.8303 127.733 63.334 126.821 61.9173C126.589 61.5577 126.352 61.1981 126.113 60.8481C125.387 59.7838 124.613 58.7412 123.812 57.7468C123.541 57.4114 123.263 57.0759 122.987 56.7525C121.459 54.9617 119.761 53.2554 117.942 51.6818C113.687 48.0037 108.638 44.9603 102.935 42.641C100.487 41.6442 97.9687 40.7802 95.424 40.0586C95.7046 33.5736 96.065 29.7242 96.3141 28.7346C97.2599 24.9793 99.6837 21.8104 101.849 19.5925C102.436 19.7011 103.034 19.7566 103.636 19.7566C106.28 19.7566 108.767 18.7284 110.637 16.8628C112.506 14.9972 113.537 12.5162 113.537 9.87829C113.537 4.43111 109.096 0 103.636 0C100.992 0 98.5057 1.02813 96.6358 2.89374C94.8483 4.67728 93.8275 7.02317 93.7428 9.53075C90.0588 13.0423 85.6419 18.4943 83.8495 25.6044C83.3585 27.5496 82.9618 31.5994 82.6642 37.6644C81.8805 37.5896 81.0823 37.5269 80.2913 37.4762C79.0117 37.3965 77.7079 37.3459 76.4162 37.3314C76.1211 37.329 75.8236 37.3266 75.5284 37.3266C74.96 37.3266 74.3867 37.3338 73.8207 37.3459C71.4235 37.399 68.978 37.5655 66.5156 37.843C66.2302 33.0451 65.9109 29.881 65.5432 28.2085C64.1402 21.8273 59.1282 17.0559 51.378 14.6811C50.6935 13.2064 49.6558 11.9297 48.3278 10.9402C46.608 9.65866 44.5567 8.98048 42.4015 8.98048C36.942 8.98048 32.5009 13.4116 32.5009 18.8588C32.5009 24.3059 36.942 28.7371 42.4015 28.7371C44.3898 28.7371 46.308 28.1458 47.9311 27.0525C49.8227 27.6727 52.5367 28.9036 52.989 30.9574C53.0834 31.387 53.4027 33.2816 53.7776 40.3241C50.4202 41.2895 47.232 42.4841 44.2785 43.8888C43.9592 44.0408 43.6351 44.1977 43.3182 44.357C38.7804 46.6208 34.6392 49.4638 31.0132 52.8089C29.0902 54.5804 27.3123 56.5136 25.7255 58.5529C23.5751 61.3163 21.6908 64.3887 20.1257 67.683C19.0759 69.8938 18.135 72.2759 17.327 74.7738C17.3125 74.7859 17.298 74.8003 17.2835 74.8148C17.2521 74.8438 17.2158 74.8752 17.1819 74.9065C16.9521 75.1093 16.7223 75.312 16.4949 75.5171L16.4708 75.5389C15.1718 76.6973 14.0494 77.6989 12.7166 78.3505C12.3078 78.5509 11.9184 78.797 11.5265 79.1059C10.3727 80.011 9.66394 81.1526 9.19467 81.9056L9.16565 81.9538C8.79555 82.55 8.46416 83.1678 8.17873 83.7905C8.08198 84.0004 7.99006 84.2128 7.9054 84.4252C7.12893 86.3415 6.75641 88.3567 6.79753 90.4178C6.80963 91.0864 6.86768 91.767 6.96928 92.4427C7.00556 92.6937 7.05152 92.9447 7.0999 93.1885C7.86427 96.9969 10.1163 100.064 13.6164 102.058C13.8656 102.2 14.1244 102.338 14.3881 102.471C14.4848 102.519 14.5864 102.577 14.6904 102.64C15.3 103.014 15.9628 103.6 16.6618 104.223C16.6739 104.232 16.686 104.245 16.6981 104.257C16.8239 105.666 17.0392 107.01 17.3512 108.335C17.5786 109.298 17.8544 110.24 18.1882 111.195C17.2472 111.321 15.9966 111.548 14.7557 112.045C14.2236 112.26 13.5995 112.45 12.9416 112.653L12.5594 112.771C12.4046 112.82 12.2498 112.868 12.0949 112.919C10.5638 113.408 8.77378 114.082 7.08538 115.359C6.54355 115.769 6.0259 116.203 5.54212 116.655C5.23008 116.947 4.92288 117.251 4.63261 117.564C4.21656 118.008 3.81502 118.482 3.43767 118.974C2.97808 119.572 2.54751 120.198 2.12662 120.888C1.94036 121.189 1.75411 121.51 1.57027 121.841C1.40336 122.143 1.23646 122.452 1.06472 122.785C0.914745 123.074 0.7938 123.378 0.706719 123.692C0.580936 124.134 0.515625 124.6 0.515625 125.078C0.515625 125.464 0.551909 125.775 0.576098 125.963C0.576098 126.024 0.576098 126.098 0.576098 126.132V126.197V126.371C0.576098 127.086 0.622057 127.933 0.938934 128.869C1.0623 129.233 1.19776 129.605 1.35015 130.006C1.55818 130.549 1.77346 131.07 1.95971 131.509C2.11936 131.888 2.27901 132.267 2.44108 132.649L2.47978 132.738L2.61524 133.054C2.98775 133.928 3.61425 134.647 4.4778 135.192C4.56246 135.267 4.64954 135.344 4.7342 135.419L4.7971 135.475C4.93014 135.593 5.06559 135.711 5.20105 135.829L5.40908 136.01L5.51309 136.102C5.60985 136.189 5.70903 136.276 5.81062 136.36C5.83481 136.385 5.85658 136.406 5.87835 136.428L5.89528 136.445C6.34762 136.899 7.28857 137.842 8.827 138.199C9.30352 138.311 9.78973 138.537 10.2034 138.745C10.4598 138.873 10.721 139.013 10.9992 139.16C11.2677 139.302 11.5749 139.464 11.8942 139.628C12.511 139.942 13.1859 140.229 13.8946 140.48C14.2163 140.596 14.5526 140.705 14.8936 140.808C16.2845 141.228 17.864 141.557 19.7266 141.815C20.4668 141.916 21.1513 141.931 21.7198 141.931C21.8698 141.931 22.0222 141.931 22.1721 141.931C22.3027 141.931 22.4309 141.931 22.5616 141.931C22.6051 141.931 22.6487 141.931 22.6898 141.931C24.4725 144.827 26.9446 147.233 29.8981 148.937L65.1949 169.27C68.308 171.064 71.8541 172.012 75.451 172.012C79.048 172.012 82.5917 171.064 85.7072 169.27L121.004 148.937C123.974 147.226 126.449 144.81 128.232 141.899C128.524 141.916 128.832 141.928 129.146 141.928C129.647 141.928 130.111 141.899 130.563 141.844C130.735 141.822 130.905 141.796 131.067 141.767C132.172 141.569 133.161 141.197 134.071 140.637C134.09 140.637 134.112 140.637 134.131 140.635C134.371 140.625 134.596 140.613 134.811 140.596C134.937 140.586 135.06 140.574 135.184 140.562C135.948 140.483 138.118 140.258 140.002 138.6C142.542 138.127 144.044 136.732 144.55 136.261C145 135.844 145.37 135.434 145.699 135.072L145.713 135.055C145.829 134.927 145.943 134.801 146.061 134.676C146.257 134.468 146.402 134.333 146.492 134.273C147.051 133.894 147.527 133.377 147.864 132.784C148.12 132.335 148.294 131.847 148.384 131.336C148.555 130.962 148.759 130.443 148.865 129.815C148.908 129.559 148.959 129.289 149.013 129.014L149.054 128.797L149.087 128.623C149.184 128.121 149.283 127.578 149.363 127.011C149.407 126.692 149.438 126.422 149.462 126.164C149.513 125.584 149.53 125.046 149.511 124.515L149.494 124.501ZM129.557 103.547C129.156 106.286 125.808 107.536 123.457 107.003C123.128 106.928 122.796 106.796 122.479 106.624C122.305 106.66 122.131 106.68 121.957 106.68C121.323 106.68 120.721 106.424 120.169 105.917C119.751 105.533 119.492 104.8 119.509 104.044C119.521 103.535 119.659 103.081 119.886 102.767C119.843 102.174 119.899 101.563 119.993 100.914C120.319 98.6839 120.75 96.4732 121.11 94.2504C121.151 93.9994 121.335 92.643 121.277 93.174C121.328 92.742 121.379 92.3124 121.418 91.878C121.519 90.7654 121.57 89.6455 121.553 88.5281C121.546 88.0406 121.526 87.5506 121.497 87.0631C121.485 86.8556 121.396 86.0615 121.396 85.9553C121.364 85.7695 121.333 85.5813 121.318 85.5113C121.248 85.1468 121.166 84.7872 121.074 84.4276C120.914 83.805 120.474 83.0254 120.39 82.381C120.353 82.3062 120.317 82.2314 120.278 82.1566C120.128 81.8645 119.971 81.5797 119.802 81.2974C119.637 81.0198 119.463 80.7471 119.282 80.4816C119.238 80.4165 119.19 80.3513 119.141 80.2861C118.844 79.9434 118.554 79.5959 118.234 79.2701C117.784 78.8115 117.305 78.3891 116.822 77.9692C116.754 77.9113 116.667 77.8558 116.589 77.793C116.444 77.6868 116.302 77.5806 116.154 77.4793C114.028 76.0167 111.694 74.8752 109.333 73.8446C109.241 73.8036 109.149 73.765 109.057 73.7263C108.885 73.7722 108.527 73.5743 108.501 73.5236C108.363 73.4536 108.237 73.3836 108.174 73.3595C107.572 73.1133 106.967 72.872 106.362 72.6331C104.417 71.8607 102.538 71.0378 100.714 70.0072C99.9207 69.5583 99.1346 69.0997 98.3243 68.6774C98.0775 68.5495 97.826 68.4288 97.5768 68.3009C97.5526 68.2888 97.4583 68.243 97.3712 68.2019C97.3059 68.1754 97.2454 68.1488 97.2236 68.1416C97.0277 68.0764 96.8342 68.0089 96.6358 67.9509C96.1835 67.8206 95.7239 67.7386 95.2643 67.6444C95.1603 67.6227 95.0805 67.6058 95.0176 67.5913C94.9257 67.5841 94.8338 67.5768 94.7443 67.5672C93.9073 67.4827 93.0704 67.4345 92.231 67.3983C87.2626 67.1883 82.3014 66.9493 77.3378 66.9856C76.6 67.3645 75.7703 67.5937 74.9431 67.6903C74.8366 67.7024 74.752 67.712 74.6794 67.7192C74.3819 67.7699 74.0819 67.811 73.782 67.8616C73.1869 67.9606 72.5943 68.0692 72.0017 68.185C70.7438 68.4288 69.4933 68.7039 68.2403 68.9742C65.5867 69.5462 62.9332 70.0531 60.2385 70.403C55.2338 71.0498 50.1758 70.864 45.1445 70.8592C44.8905 70.8592 44.6438 70.8326 44.4019 70.7964C43.7778 71.1464 43.161 71.4963 42.5514 71.8438C41.2912 72.5631 39.9898 73.304 38.703 73.987C37.0242 74.8776 35.4689 75.8647 34.0199 76.7987L34.003 76.8083L33.8651 76.8952L33.7394 77.0014C33.6861 77.0448 33.6353 77.0883 33.5821 77.1317C33.4926 77.2066 33.4007 77.279 33.3136 77.3562C33.1612 77.4865 33.0113 77.6217 32.8637 77.7544C32.7186 77.8847 32.5831 78.0054 32.4549 78.1164C32.317 78.2323 32.1767 78.3457 32.0364 78.4591C32.0268 78.4929 32.0171 78.5291 32.005 78.5629C31.4269 80.4502 30.602 82.1783 29.6417 83.8942C29.2329 84.6279 28.8362 85.3689 28.4661 86.1243C28.292 86.4791 28.1299 86.8387 27.9606 87.1959C27.9485 87.2224 27.9364 87.2465 27.9267 87.2683C27.9098 87.3093 27.8928 87.3576 27.8687 87.4155C27.5639 88.1926 27.293 88.9818 27.0753 89.7879C26.9616 90.2103 26.86 90.635 26.7777 91.0646C26.7656 91.1322 26.7535 91.1998 26.7414 91.2674C26.7342 91.6632 26.681 92.0614 26.681 92.4572C26.681 92.6334 26.8019 93.3092 26.756 93.5143C26.7656 93.5626 26.7753 93.6108 26.7874 93.6591C26.8696 94.0139 26.9809 94.3566 27.0898 94.7041C27.1551 94.8248 27.2131 94.9527 27.2784 95.071C27.3075 95.1241 27.6437 95.6792 27.8541 96.0098C28.0186 96.1812 28.1686 96.367 28.3331 96.5408C28.6596 96.8811 29.0031 97.1996 29.3563 97.511C31.4293 99.3428 31.0834 102.632 29.3563 104.508C27.4695 106.559 24.2838 106.224 22.3439 104.508C18.1592 100.808 16.2289 95.5488 16.9691 90.0486C17.5254 85.9119 19.2694 82.0769 21.3231 78.4688C21.5287 78.1068 21.7319 77.7472 21.9327 77.3827C21.9859 77.2259 22.0826 77.0352 22.1262 76.9097C22.4285 76.036 22.6728 75.143 22.9317 74.2549C23.5267 72.2035 24.1871 70.0217 25.4764 68.2912C27.8372 65.1248 31.3398 62.972 34.9198 61.3984C38.4732 59.8345 42.4184 58.3816 46.3685 58.5288C47.0603 58.5553 47.7037 58.705 48.2867 58.956C48.4754 58.6374 48.7003 58.3261 48.9688 58.0268C52.4956 54.088 58.4558 53.6271 63.3758 54.2425C67.188 54.7204 71.0123 55.6133 74.5754 57.1049C78.5182 56.9528 82.5094 57.0349 86.445 57.2641C90.5208 57.5031 94.6935 57.3438 98.6968 58.2633C100.854 58.7581 102.889 59.8562 104.805 60.9398C105.666 61.4274 106.52 61.9245 107.4 62.3759C107.751 62.5544 108.174 62.8465 108.559 62.9334C108.496 62.9189 108.44 62.9068 108.389 62.8947C108.551 62.9358 108.738 62.9865 108.847 63.0299C111.822 64.2101 114.816 65.3999 117.663 66.8673C123.268 69.7586 127.77 73.9653 130.046 79.9193C132.97 87.5699 130.692 95.795 129.557 103.542V103.547Z" fill="#E3C3FF"/>
<path d="M28.8789 88.5931V133.15C28.8789 135.96 30.381 138.557 32.8193 139.961L71.4928 162.24C73.9311 163.644 76.9354 163.644 79.3736 162.24L118.047 139.961C120.485 138.557 121.988 135.96 121.988 133.15V88.5931C121.988 85.7838 120.485 83.1869 118.047 81.7823L79.3736 59.5037C76.9354 58.099 73.9311 58.099 71.4928 59.5037L32.8193 81.7823C30.381 83.1869 28.8789 85.7838 28.8789 88.5931Z" fill="#F9E464"/>
<path d="M99.4854 71.0908C99.4854 71.0908 116.246 83.3198 104.403 113.84C99.3039 128.719 96.3359 142.186 96.3359 142.186L121.972 127.52L122.576 83.3053L99.4854 71.0908Z" fill="#FCDB38"/>
<path d="M47.9069 18.2578C47.607 15.4848 45.2534 13.3247 42.3942 13.3247C39.3319 13.3247 36.8477 15.8009 36.8477 18.8588C36.8477 21.9166 39.3295 24.3928 42.3942 24.3928C44.1745 24.3928 45.7541 23.5529 46.7676 22.2545C50.1759 22.981 56.1191 24.96 57.2342 30.0283C57.868 32.9075 58.3518 44.3956 58.4848 48.5781L62.6284 48.4478C62.5776 46.8694 62.1156 32.9196 61.2835 29.1425C59.6967 21.9239 52.273 19.2329 47.9045 18.2602L47.9069 18.2578Z" fill="#240059" stroke="#240059" stroke-miterlimit="10"/>
<path d="M103.632 4.34424C100.57 4.34424 98.0856 6.82045 98.0856 9.8783C98.0856 10.3682 98.1557 10.8389 98.2743 11.2902C94.6677 14.3866 89.8371 19.6383 88.0665 26.6663C87.111 30.453 86.7457 44.4632 86.707 46.0488L90.853 46.1502C90.9546 41.9701 91.3755 30.5061 92.0891 27.6776C93.5525 21.8732 97.6502 17.3576 100.783 14.6207C101.617 15.1203 102.59 15.4148 103.635 15.4148C106.697 15.4148 109.181 12.9386 109.181 9.88071C109.181 6.82527 106.699 4.34665 103.635 4.34665L103.632 4.34424Z" fill="#240059" stroke="#240059" stroke-miterlimit="10"/>
<path d="M75.9547 162.781C79.4645 162.781 82.9235 161.856 85.9641 160.104L125.716 137.205C126.476 135.323 126.89 133.288 126.89 131.203V123.277C125.84 124.728 124.488 125.971 122.884 126.895L82.4107 150.209C78.4171 152.509 73.4946 152.509 69.501 150.209L29.0278 126.895C26.829 125.628 25.0995 123.77 23.9844 121.588V131.203C23.9844 133.011 24.2916 134.777 24.8673 136.443L65.9452 160.107C68.9834 161.859 72.4448 162.783 75.9547 162.783V162.781Z" fill="#240059"/>
<path d="M75.9547 139.083C79.4645 139.083 82.9235 138.159 85.9641 136.407L125.716 113.508C126.476 111.625 126.89 109.591 126.89 107.505V99.5796C125.84 101.03 124.488 102.273 122.884 103.197L82.4107 126.511C78.4171 128.811 73.4946 128.811 69.501 126.511L29.0278 103.197C26.829 101.93 25.0995 100.072 23.9844 97.8901V107.505C23.9844 109.313 24.2916 111.08 24.8673 112.745L65.9452 136.409C68.9834 138.161 72.4448 139.085 75.9547 139.085V139.083Z" fill="#240059"/>
<path d="M118.809 76.5789L83.5123 56.2455C81.0595 54.8336 78.2657 54.0854 75.4331 54.0854C72.6006 54.0854 69.8067 54.8312 67.3539 56.2455L32.0572 76.5789C27.0743 79.4485 23.9805 84.7991 23.9805 90.5383V131.203C23.9805 136.944 27.0767 142.293 32.0572 145.162L67.3539 165.493C69.8067 166.907 72.6006 167.653 75.4331 167.653C78.2657 167.653 81.0595 166.907 83.5123 165.493L118.809 145.16C123.792 142.29 126.886 136.94 126.886 131.2V90.5359C126.886 84.7943 123.79 79.4461 118.809 76.5765V76.5789ZM116.361 140.934L81.0643 161.267C77.5811 163.273 73.29 163.273 69.8043 161.267L34.5076 140.934C31.0243 138.928 28.8788 135.219 28.8788 131.205V90.5407C28.8788 86.5272 31.0243 82.8201 34.5076 80.8121L69.8043 60.4787C73.2875 58.4731 77.5787 58.4731 81.0643 60.4787L116.361 80.8121C119.844 82.8177 121.99 86.5272 121.99 90.5407V131.205C121.99 135.219 119.844 138.926 116.361 140.934Z" fill="#240059" stroke="#240059" stroke-miterlimit="10"/>
<path d="M88.4762 90.6304C91.7185 90.6304 94.3469 86.9696 94.3469 82.4537C94.3469 77.9377 91.7185 74.2769 88.4762 74.2769C85.2339 74.2769 82.6055 77.9377 82.6055 82.4537C82.6055 86.9696 85.2339 90.6304 88.4762 90.6304Z" fill="#240059"/>
<path d="M95.4085 100.798C98.059 100.798 100.208 99.4872 100.208 97.8704C100.208 96.2536 98.059 94.9429 95.4085 94.9429C92.758 94.9429 90.6094 96.2536 90.6094 97.8704C90.6094 99.4872 92.758 100.798 95.4085 100.798Z" fill="#240059"/>
<path d="M65.7769 90.6304C69.0192 90.6304 71.6476 86.9696 71.6476 82.4537C71.6476 77.9377 69.0192 74.2769 65.7769 74.2769C62.5346 74.2769 59.9062 77.9377 59.9062 82.4537C59.9062 86.9696 62.5346 90.6304 65.7769 90.6304Z" fill="#240059"/>
<path d="M58.846 100.798C61.4965 100.798 63.6451 99.4872 63.6451 97.8704C63.6451 96.2536 61.4965 94.9429 58.846 94.9429C56.1955 94.9429 54.0469 96.2536 54.0469 97.8704C54.0469 99.4872 56.1955 100.798 58.846 100.798Z" fill="#240059"/>
<path d="M145.142 124.66C145.108 123.736 144.648 122.611 143.898 121.962C142.662 120.89 141.431 119.739 140.222 118.687C138.178 116.906 135.505 116.828 133.2 115.938C131.286 115.197 128.887 115.33 126.705 115.054C126.366 115.011 126.047 114.869 125.631 114.745C127.859 110.539 129.034 106.981 129.259 102.495C129.274 102.222 129.472 101.879 129.721 101.706C131.463 100.482 132.481 98.5729 134.886 97.9671C135.256 97.873 135.556 97.5472 135.853 97.2986C138.362 95.2206 139.114 92.602 138.952 89.7927C138.778 86.7856 138.025 83.8242 134.994 81.8887C133.533 80.9571 132.285 79.8976 130.923 78.9225C129.346 77.793 128.662 76.4753 128.236 74.9258C128.13 74.5397 127.999 74.1608 127.859 73.7818C123.418 61.7532 115.106 52.2876 101.287 46.6666C89.0303 41.6828 76.0988 40.534 62.7512 42.7568C51.4815 44.6321 41.7237 48.8412 33.959 56.0019C27.573 61.8907 23.7512 68.8777 21.3443 76.4704C21.1484 77.0907 20.5945 77.6892 20.0478 78.1695C18.3715 79.6441 16.792 81.1912 14.6198 82.2531C13.8312 82.6392 13.3087 83.5105 12.854 84.2418C11.3784 86.6142 10.8705 89.1725 11.2623 91.8031C11.6905 94.6776 13.1708 96.9969 16.3348 98.5898C18.0232 99.4393 19.31 100.842 20.7517 102.019C20.9089 102.15 20.9307 102.43 20.9404 102.644C21.1436 107.088 22.2901 110.604 24.5784 114.808C23.935 114.919 23.3932 115.028 22.8465 115.103C20.6695 115.4 18.2747 115.308 16.3735 116.073C14.1819 116.954 11.7582 117.265 9.70938 118.817C7.39691 120.569 6.07376 122.548 4.92236 124.773C4.78932 125.029 4.89333 125.374 4.90785 125.678C4.93929 126.279 4.85947 126.909 5.05056 127.474C5.49322 128.785 6.06167 130.064 6.60834 131.348C6.66881 131.49 6.93006 131.57 7.07519 131.695C7.60735 132.156 8.125 132.627 8.662 133.085C9.02725 133.397 9.3538 133.86 9.79646 133.964C11.3301 134.319 12.525 135.076 13.8506 135.75C15.7421 136.708 18.0836 137.198 20.309 137.507C22.1281 137.758 24.1019 137.198 25.7637 138.311C25.933 138.424 26.2789 138.373 26.5402 138.366C28.9808 138.284 31.4191 138.178 33.8598 138.122C34.1767 138.115 34.5516 138.301 34.8152 138.484C39.5321 141.74 45.0714 143.557 50.9445 144.704C65.3177 147.508 79.8021 147.537 94.3132 145.592C100.936 144.704 107.295 143.096 112.982 139.981C114.601 139.095 115.87 137.536 118.381 138.385C119.221 138.668 120.479 137.963 121.465 138.103C123.19 138.347 124.772 138.508 126.291 137.562C126.601 137.369 127.208 137.446 127.665 137.492C129.276 137.649 130.802 137.705 132.145 136.679C132.549 136.37 133.321 136.315 133.932 136.288C135.364 136.23 136.625 136.025 137.505 134.912C137.764 134.587 138.475 134.43 139.015 134.35C141.596 133.966 142.304 131.845 144.029 130.672C144.145 130.592 144.051 130.327 144.111 130.163C144.247 129.798 144.498 129.453 144.559 129.084C144.808 127.614 145.2 126.132 145.144 124.665L145.142 124.66ZM111.867 119.869C98.7277 126.424 88.4231 129.106 68.1164 128.509C47.8096 127.913 33.5743 118.831 27.2029 110.483C27.2029 110.483 18.9907 94.8393 18.8408 88.5836C18.6908 82.3279 20.7807 78.3047 25.113 74.2814C29.4429 70.2582 38.7 63.8529 58.7092 61.4684C78.7185 59.0839 97.1772 60.3944 112.465 66.8311C127.75 73.2678 130.532 81.5797 131.129 86.1991C131.726 90.8185 125.007 113.314 111.867 119.869Z" fill="#7F27A2"/>
<path d="M24.5769 114.808C22.2886 110.604 21.1445 107.088 20.9389 102.644C20.9292 102.432 20.9074 102.15 20.7502 102.019C19.3085 100.844 18.0217 99.4393 16.3333 98.5897C13.1694 96.9968 11.689 94.6775 11.2608 91.8031C10.869 89.1724 11.3794 86.6141 12.8525 84.2417C13.3072 83.5104 13.8297 82.6367 14.6183 82.253C16.7905 81.1911 18.37 79.6441 20.0463 78.1694C20.5954 77.6892 21.1469 77.0906 21.3429 76.4704C23.7497 68.8752 27.5715 61.8906 33.9575 56.0018C41.7198 48.8411 51.4801 44.632 62.7498 42.7567C76.0997 40.5364 89.0312 41.6828 101.285 46.6665C115.102 52.2851 123.416 61.7507 127.857 73.7818C127.997 74.1607 128.128 74.5396 128.234 74.9257C128.66 76.4776 129.342 77.7929 130.922 78.9224C132.284 79.8975 133.532 80.9546 134.993 81.8886C138.024 83.8242 138.776 86.7855 138.95 89.7927C139.115 92.6019 138.36 95.2205 135.852 97.2985C135.554 97.5447 135.254 97.8729 134.884 97.967C132.482 98.5752 131.461 100.484 129.72 101.705C129.471 101.882 129.272 102.222 129.258 102.495C129.033 106.981 127.857 110.539 125.629 114.745C126.045 114.869 126.365 115.011 126.703 115.054C128.885 115.327 131.282 115.197 133.198 115.938C135.503 116.831 138.176 116.905 140.22 118.687C141.43 119.741 142.661 120.89 143.897 121.962C144.647 122.611 145.106 123.736 145.14 124.66C145.193 126.127 144.804 127.609 144.555 129.079C144.492 129.448 144.24 129.793 144.107 130.158C144.047 130.322 144.141 130.59 144.025 130.667C142.3 131.84 141.592 133.961 139.011 134.345C138.474 134.425 137.76 134.582 137.501 134.907C136.618 136.018 135.358 136.223 133.929 136.283C133.317 136.307 132.545 136.365 132.141 136.674C130.799 137.697 129.27 137.644 127.661 137.487C127.204 137.444 126.597 137.364 126.287 137.557C124.768 138.504 123.189 138.342 121.462 138.098C120.475 137.958 119.217 138.665 118.377 138.38C115.867 137.531 114.597 139.088 112.978 139.976C107.294 143.091 100.935 144.699 94.3093 145.587C79.7982 147.535 65.3138 147.503 50.9406 144.699C45.0675 143.552 39.5306 141.735 34.8113 138.479C34.5477 138.298 34.1727 138.11 33.8559 138.117C31.4152 138.173 28.9769 138.279 26.5363 138.361C26.275 138.371 25.9291 138.419 25.7598 138.306C24.0956 137.193 22.1217 137.755 20.3051 137.502C18.0797 137.193 15.7382 136.703 13.8467 135.745C12.5211 135.074 11.3261 134.314 9.79256 133.959C9.3499 133.858 9.02335 133.392 8.65809 133.08C8.12351 132.622 7.60586 132.151 7.07129 131.69C6.92615 131.565 6.66491 131.485 6.60444 131.343C6.05776 130.059 5.48932 128.777 5.04666 127.469C4.85556 126.904 4.93539 126.275 4.90394 125.674C4.88943 125.369 4.78542 125.027 4.91846 124.769C6.06986 122.543 7.393 120.564 9.70548 118.812C11.7543 117.26 14.178 116.949 16.3696 116.068C18.2708 115.305 20.668 115.395 22.8426 115.098C23.3917 115.023 23.9335 114.914 24.5745 114.803L24.5769 114.808ZM122.037 112.255C126.841 102.854 131.469 94.3541 131.275 83.94V93.6228C132.567 90.6832 132.688 87.6978 132.097 84.6809C131.715 82.7357 130.903 80.9642 129.277 79.4655C128.67 78.9055 128.133 78.2153 127.838 77.5081C126.425 74.1076 124.229 71.1728 120.927 68.8076C113.54 63.5149 104.788 60.6791 95.3978 59.0355C85.7391 57.3461 75.9546 57.1506 66.1507 57.7274C55.8099 58.3356 45.8488 60.2181 36.6981 64.461C31.6474 66.802 27.0563 69.592 24.1923 73.9266C22.5862 76.3593 21.2921 78.9007 19.5117 81.2997C16.701 85.0864 17.3952 89.4693 18.7667 93.6807V85.0044C19.1078 94.7644 23.3239 102.837 27.6199 111.755C25.9847 109.733 24.352 107.713 22.6466 105.603C23.4739 110.244 25.3994 114.422 28.4206 118.274C31.4297 122.109 35.4088 125.106 40.3192 127.72C39.2041 127.962 38.4857 128.118 37.7552 128.278C37.7721 128.444 37.8035 128.768 37.8398 129.115C39.7314 128 40.9651 128.048 42.2108 129.245C44.1822 131.133 44.6103 134.895 42.8832 136.928C42.385 137.514 41.3158 137.985 40.4401 138.076C39.0952 138.219 37.6947 137.989 36.1127 137.907C36.5505 138.209 36.8166 138.414 37.1117 138.59C42.0124 141.547 47.6219 143.092 53.4587 144.103C65.5001 146.193 77.6406 146.28 89.8077 145.09C96.4573 144.441 102.957 143.21 108.975 140.656C110.709 139.92 112.318 138.979 113.985 138.132C112.395 137.982 110.961 138.221 109.59 138.069C108.731 137.975 107.666 137.446 107.214 136.845C105.697 134.823 105.93 132.627 106.984 130.508C108.109 128.249 109.836 127.814 112.521 128.799C111.752 128.403 110.983 128.007 110.1 127.556C114.751 125.106 118.75 122.094 121.786 118.243C124.855 114.345 127.494 108.405 127.318 105.847C125.634 107.889 123.834 110.071 122.035 112.252L122.037 112.255ZM103.508 56.2745C103.598 56.1321 103.685 55.9873 103.774 55.8449C106.472 56.9768 109.277 57.964 111.837 59.2817C114.381 60.5946 116.677 62.243 119.081 63.7442C114.321 58.7314 108.165 55.3478 101.07 53.055C105.175 53.6439 110.202 56.0284 117.371 60.5367C115.484 58.9052 113.59 57.2592 111.445 55.8811C109.236 54.462 106.863 53.1829 104.413 52.0655C102.067 50.9939 99.5317 50.2119 97.0789 49.2996C103.779 50.6994 109.643 53.4339 114.928 57.0903C107.19 48.7638 89.7085 41.6876 69.4211 43.1525C56.3372 44.0962 38.0333 51.4838 35.0895 57.2496C42.2785 52.6543 50.0626 49.2441 53.108 49.3551C42.7236 53.1394 34.8621 57.5126 33.2632 60.4233C37.893 56.972 43.0477 54.3872 49.0321 53.0284C41.8576 55.3502 35.6967 58.8231 30.929 63.8987C35.4233 60.3364 40.5296 57.643 46.514 56.1732C41.6157 58.0339 37.0367 60.276 33.3358 63.6018C33.6091 63.5777 33.8244 63.4811 34.0179 63.3556C39.4581 59.8561 45.5803 57.5126 52.1936 56.0501C64.5107 53.3277 77.0044 53.1346 89.544 54.5899C99.6043 55.7605 108.949 58.5311 116.987 63.8938C117.028 63.9228 117.163 63.8552 117.364 63.8045C113.416 60.3943 108.709 58.0315 103.513 56.2721L103.508 56.2745ZM24.8212 115.409C22.354 115.774 19.8963 116.027 17.5137 116.529C15.6487 116.92 13.8757 117.613 12.0736 118.194C11.8438 118.269 11.6285 118.452 11.4931 118.631C10.5182 119.91 8.69195 120.432 7.7897 121.918C6.91164 123.366 5.84006 124.609 6.34561 126.32C6.41576 126.559 6.24886 126.844 6.29481 127.095C6.38915 127.624 6.51977 128.152 6.69152 128.666C6.81246 129.033 6.99388 129.393 7.20432 129.731C7.49701 130.199 7.79696 130.672 8.17673 131.092C8.57585 131.536 9.07414 131.917 9.52648 132.327C9.84094 132.612 10.1022 133.095 10.4674 133.153C12.0252 133.404 13.0895 134.275 14.3667 134.907C16.3067 135.87 18.6821 136.372 20.951 136.674C22.5765 136.891 24.3205 136.452 25.7646 137.495C25.9605 137.637 26.396 137.668 26.6669 137.603C28.2996 137.203 29.8792 137.285 31.4926 137.724C31.9861 137.859 32.6198 137.613 33.1931 137.577C34.4775 137.497 35.7886 137.28 37.0464 137.405C39.2428 137.625 40.9578 137.265 41.623 136.056C42.7429 134.014 42.4745 132.009 40.9965 130.163C40.3337 129.335 39.2936 128.816 38.1422 129.477C36.5723 130.377 34.9928 130.225 33.2898 129.912C32.4553 129.757 31.5458 129.904 30.6726 129.871C28.3625 129.781 26.0404 129.762 23.7497 129.523C22.4168 129.385 21.1566 128.659 19.8359 128.599C18.3265 128.529 18.1281 127.45 17.6637 126.827C17.3275 126.376 17.2283 125.321 18.1668 124.479C19.0763 123.661 20.0995 123.545 21.1276 123.132C23.307 122.254 25.5348 122.357 28.1545 122.23C28.0336 121.346 28.1618 120.301 27.7167 119.471C26.9692 118.078 25.8565 116.823 24.8237 115.409H24.8212ZM125.298 115.39C124.43 116.592 123.735 117.798 122.768 118.829C121.672 119.997 121.667 121.107 122.221 122.087C123.677 122.271 124.889 122.485 126.113 122.565C128.397 122.715 130.629 123.012 132.049 124.674C132.521 125.227 132.787 126.178 132.555 126.791C132.301 127.464 131.485 128.184 130.695 128.485C129.328 129.011 127.816 129.371 126.321 129.547C124.188 129.798 122.018 129.832 119.86 129.931C118.677 129.984 117.487 130.035 116.304 129.989C114.976 129.936 113.561 129.979 112.352 129.608C110.869 129.151 109.996 129.118 109.091 130.237C107.664 132.009 107.466 133.92 108.419 135.897C108.871 136.833 109.648 137.388 110.976 137.318C112.483 137.239 114.202 136.841 115.467 137.29C118.305 138.298 121.135 136.684 123.883 137.606C124.125 137.688 124.538 137.36 124.889 137.287C125.932 137.072 126.977 136.867 128.031 136.698C128.987 136.544 129.974 136.508 130.91 136.302C131.998 136.064 133.058 135.716 134.112 135.383C134.87 135.144 135.624 134.883 136.34 134.57C137.143 134.217 137.896 133.788 138.677 133.399C139.284 133.097 139.961 132.868 140.494 132.494C141.118 132.057 141.647 131.517 142.163 130.986C142.472 130.665 142.714 130.291 142.92 129.914C143.13 129.528 143.331 129.12 143.408 128.705C143.643 127.426 143.979 126.137 143.955 124.853C143.94 124.054 143.595 123.065 142.956 122.514C141.749 121.477 140.673 120.323 139.439 119.3C137.4 117.608 134.811 117.342 132.468 116.57C130.266 115.846 127.76 115.769 125.295 115.392L125.298 115.39ZM110.888 62.1972C94.0577 52.2634 53.4176 53.166 39.5742 62.0982C63.0182 54.6165 87.246 54.6261 110.888 62.1972ZM125.726 129.118C125.946 129.089 126.166 129.055 126.384 129.016C127.613 128.797 128.757 128.213 129.988 128.051C131.369 127.87 131.679 127.09 131.916 126.231C132.24 125.061 131.215 124.211 130.254 123.9C128.82 123.434 127.284 123.166 125.745 122.937L125.724 129.118H125.726ZM22.8281 123.316C21.9379 123.487 21.0453 123.651 20.1503 123.81C18.6796 124.071 17.7846 125.912 18.5127 126.991C19.0642 127.809 20.0536 127.809 20.8252 128.198C21.4444 128.509 22.0589 128.792 22.695 128.924C22.995 128.987 22.8281 123.316 22.8281 123.316ZM135.856 93.9462C137.951 90.7942 136.962 84.7582 134.088 82.965C134.412 85.8225 134.753 88.8297 135.097 91.8393C135.14 91.8489 135.182 91.8562 135.225 91.8658C135.353 90.1161 135.479 88.3687 135.607 86.619C135.692 86.619 135.774 86.6214 135.859 86.6238V93.9462H135.856ZM14.9376 91.931C14.9811 91.9213 15.0222 91.9117 15.0658 91.9044C15.3923 88.8731 15.7213 85.8394 16.0358 82.9215C13.0363 85.2047 12.1365 91.5859 14.686 94.3034C13.9531 91.639 13.6846 89.1 14.5336 86.2425C14.6836 88.3494 14.8118 90.1426 14.9376 91.9334V91.931ZM118.75 126.325C117.712 127.363 116.677 128.398 115.639 129.436C117.582 129.052 118.022 127.607 118.75 126.325Z" fill="#E3C3FF"/>
<path d="M103.506 56.2772C108.702 58.0366 113.407 60.4018 117.357 63.8096C117.156 63.8603 117.023 63.9279 116.979 63.8989C108.941 58.5362 99.5971 55.7632 89.5369 54.5951C76.9973 53.1373 64.5036 53.3304 52.1865 56.0552C45.5732 57.5178 39.4509 59.8636 34.0108 63.3607C33.8197 63.4838 33.602 63.5828 33.3287 63.6069C37.032 60.2812 41.611 58.0391 46.5069 56.1783C40.5225 57.6505 35.4186 60.3439 30.9219 63.9038C35.692 58.8283 41.8505 55.3553 49.025 53.0336C43.0406 54.3923 37.8859 56.9771 33.2561 60.4284C34.855 57.5178 42.7189 53.1446 53.1009 49.3603C50.0555 49.2492 42.2714 52.6595 35.0824 57.2547C38.0262 51.4889 56.3301 44.1038 69.414 43.1577C89.7014 41.6927 107.185 48.769 114.921 57.0954C109.636 53.439 103.772 50.7046 97.0718 49.3048C99.5246 50.2146 102.06 50.999 104.406 52.0706C106.854 53.188 109.227 54.4671 111.438 55.8863C113.583 57.2643 115.477 58.9103 117.364 60.5418C110.194 56.0335 105.165 53.649 101.063 53.0601C108.158 55.3529 114.316 58.739 119.074 63.7493C116.67 62.2481 114.374 60.5997 111.83 59.2868C109.273 57.9667 106.467 56.982 103.767 55.8501C103.678 55.9925 103.591 56.1373 103.501 56.2797L103.506 56.2772ZM55.3456 46.6693C59.7045 46.0852 64.0392 45.267 68.4271 44.9798C72.8875 44.6902 77.4182 44.6975 81.8762 44.9919C86.2036 45.2767 90.4827 46.0924 94.7811 46.6765C81.6295 42.7353 68.49 42.6919 55.3456 46.6693Z" fill="#240059"/>
<path d="M24.8231 115.409C25.856 116.823 26.9687 118.078 27.7161 119.471C28.1612 120.301 28.033 121.346 28.154 122.23C25.5319 122.358 23.3065 122.254 21.127 123.132C20.099 123.545 19.0758 123.663 18.1663 124.479C17.2277 125.321 17.3293 126.378 17.6632 126.827C18.1276 127.45 18.3259 128.529 19.8353 128.599C21.1561 128.659 22.4187 129.386 23.7491 129.523C26.0374 129.76 28.362 129.779 30.672 129.871C31.5453 129.904 32.4548 129.76 33.2893 129.912C34.9922 130.225 36.5718 130.38 38.1416 129.477C39.293 128.816 40.3308 129.332 40.996 130.163C42.4763 132.011 42.7424 134.015 41.6225 136.056C40.9597 137.268 39.2422 137.625 37.0459 137.405C35.788 137.28 34.477 137.497 33.1926 137.577C32.6193 137.613 31.9855 137.857 31.4921 137.724C29.8762 137.285 28.2991 137.203 26.6663 137.603C26.3954 137.671 25.9624 137.637 25.7641 137.495C24.32 136.452 22.576 136.891 20.9505 136.674C18.6839 136.372 16.3061 135.868 14.3662 134.908C13.089 134.275 12.0247 133.404 10.4669 133.153C10.1041 133.095 9.8404 132.612 9.52594 132.328C9.07361 131.917 8.57531 131.533 8.17619 131.092C7.79642 130.672 7.49648 130.199 7.20379 129.731C6.99334 129.393 6.81192 129.033 6.69098 128.666C6.51924 128.15 6.38862 127.624 6.29428 127.095C6.25074 126.844 6.41764 126.562 6.34507 126.32C5.83952 124.609 6.90868 123.366 7.78916 121.918C8.69142 120.432 10.5177 119.91 11.4925 118.631C11.628 118.453 11.8433 118.267 12.0731 118.194C13.8751 117.613 15.6506 116.92 17.5132 116.529C19.8958 116.027 22.3558 115.776 24.8207 115.409H24.8231ZM17.0778 123.383C15.3894 122.053 13.418 121.204 10.6193 121.151C13.0261 121.983 15.0531 122.683 17.0778 123.383ZM15.6192 125.898C15.6288 125.753 15.6385 125.606 15.6506 125.461C13.7977 125.362 11.9424 125.263 10.0895 125.164C10.0799 125.3 10.0702 125.435 10.0605 125.57C11.9134 125.678 13.7663 125.789 15.6192 125.898ZM19.6297 129.13C17.4116 129.639 15.9336 130.824 15.8393 132.055C17.0487 131.123 18.2727 130.177 19.6297 129.13ZM27.0969 131.068C26.2164 132.354 25.7471 133.66 26.6978 135.347C26.8502 133.71 26.9735 132.39 27.0969 131.068ZM31.8694 131.005C31.1389 132.468 31.0929 133.896 32.1597 135.265C32.0629 133.846 31.9662 132.424 31.8694 131.005ZM16.8552 118.614C16.744 118.72 16.6327 118.824 16.5214 118.93C17.7454 119.903 18.9694 120.876 20.1933 121.848C20.3119 121.742 20.4304 121.638 20.5489 121.532C19.3177 120.559 18.084 119.587 16.8528 118.617L16.8552 118.614Z" fill="#240059"/>
<path d="M125.299 115.39C127.764 115.767 130.272 115.844 132.471 116.568C134.815 117.34 137.403 117.606 139.442 119.297C140.676 120.321 141.752 121.474 142.959 122.512C143.598 123.062 143.944 124.054 143.958 124.851C143.983 126.132 143.646 127.421 143.412 128.703C143.334 129.118 143.134 129.526 142.923 129.912C142.718 130.288 142.476 130.665 142.166 130.983C141.651 131.514 141.121 132.055 140.497 132.492C139.965 132.866 139.287 133.095 138.68 133.397C137.899 133.785 137.147 134.215 136.344 134.567C135.628 134.881 134.873 135.142 134.116 135.381C133.059 135.714 132.002 136.061 130.913 136.3C129.977 136.505 128.99 136.544 128.035 136.696C126.98 136.865 125.935 137.07 124.893 137.285C124.539 137.357 124.128 137.686 123.886 137.604C121.141 136.682 118.308 138.296 115.471 137.287C114.208 136.839 112.488 137.237 110.979 137.316C109.651 137.386 108.875 136.831 108.422 135.895C107.469 133.918 107.668 132.007 109.095 130.235C109.999 129.113 110.87 129.147 112.355 129.605C113.565 129.977 114.98 129.934 116.308 129.987C117.491 130.033 118.681 129.984 119.864 129.929C122.021 129.83 124.191 129.796 126.325 129.545C127.819 129.369 129.331 129.009 130.698 128.483C131.489 128.179 132.302 127.462 132.558 126.789C132.79 126.176 132.524 125.225 132.053 124.672C130.633 123.012 128.4 122.713 126.117 122.563C124.893 122.483 123.681 122.268 122.225 122.085C121.668 121.105 121.673 119.995 122.771 118.827C123.739 117.796 124.433 116.59 125.301 115.388L125.299 115.39ZM139.082 121.298C139.021 121.156 138.959 121.013 138.898 120.871C136.83 121.59 134.759 122.307 132.691 123.026C132.761 123.166 132.831 123.309 132.899 123.449C134.96 122.732 137.021 122.015 139.082 121.298ZM140.093 125.565C140.081 125.425 140.071 125.285 140.059 125.148C138.204 125.254 136.349 125.36 134.493 125.466C134.505 125.611 134.517 125.758 134.527 125.903C136.382 125.79 138.238 125.679 140.093 125.565ZM130.654 129.26C131.895 130.206 133.136 131.155 134.38 132.101C133.789 130.532 132.476 129.627 130.654 129.26ZM129.585 121.547C129.709 121.665 129.832 121.786 129.958 121.904C131.133 120.873 132.307 119.843 133.482 118.812C133.412 118.75 133.342 118.684 133.274 118.622C132.045 119.597 130.816 120.572 129.588 121.547H129.585ZM123.446 135.012C124.276 133.689 124.119 132.108 123.023 131.073C123.17 132.436 123.301 133.665 123.446 135.012ZM118.785 131.218C118.613 131.21 118.444 131.203 118.272 131.196C118.175 132.567 118.081 133.935 117.984 135.306C118.175 135.313 118.366 135.323 118.555 135.33C118.632 133.959 118.707 132.588 118.785 131.218ZM126.126 119.855C126.3 119.913 126.475 119.968 126.646 120.026C127.229 119.022 127.812 118.021 128.395 117.017C128.238 116.954 128.081 116.891 127.926 116.829C127.326 117.837 126.726 118.846 126.124 119.853L126.126 119.855Z" fill="#240059"/>
<path d="M110.889 62.1973C87.2461 54.6238 63.0183 54.6166 39.5742 62.0983C53.4176 53.1661 94.0577 52.2635 110.889 62.1973Z" fill="#240059"/>
<path d="M135.853 93.9485V86.6261C135.768 86.6261 135.686 86.6237 135.601 86.6213C135.473 88.371 135.347 90.1184 135.219 91.8681C135.175 91.8585 135.134 91.8512 135.091 91.8416C134.75 88.832 134.406 85.8248 134.082 82.9673C136.956 84.7605 137.947 90.7966 135.85 93.9485H135.853Z" fill="#240059"/>
<path d="M14.937 91.9337C14.8088 90.143 14.683 88.3497 14.5331 86.2428C13.6864 89.1027 13.9525 91.6393 14.6854 94.3037C12.1359 91.5862 13.0358 85.205 16.0352 82.9219C15.7207 85.8422 15.3918 88.8735 15.0652 91.9048C15.0217 91.9144 14.9806 91.9241 14.937 91.9313V91.9337Z" fill="#240059"/>
<path d="M118.747 126.328C118.019 127.609 117.579 129.055 115.637 129.439C116.674 128.401 117.71 127.365 118.747 126.328Z" fill="#240059"/>
<path d="M125.225 74.938C122.9 73.3137 120.685 71.5615 118.23 70.0869C111.094 65.7982 102.964 63.4378 94.3621 62.3059C79.273 60.3196 64.2007 60.3317 49.3027 63.4957C40.7639 65.3083 33.0403 68.482 26.6907 73.6974C25.9021 74.3442 25.1789 75.0466 24.1992 75.6017C24.7943 74.9283 25.3313 74.2163 25.9892 73.5888C32.3001 67.5841 40.4108 64.0533 49.4938 61.9222C61.2158 59.1732 73.1821 58.8547 85.2332 59.6487C93.4574 60.1917 101.445 61.6133 109.011 64.4491C114.729 66.5922 119.787 69.4932 123.967 73.4078C124.468 73.876 124.894 74.3973 125.353 74.8945C125.312 74.909 125.269 74.9235 125.227 74.938H125.225Z" fill="#E3C3FF"/>
<path d="M29.3594 115.477C42.0272 126.709 58.0694 131.203 76.1121 130.99C94.1402 130.775 109.97 125.871 122.037 114.171C110.545 126.523 94.7981 131.64 76.6079 131.953C58.0356 132.274 41.7079 127.624 29.3594 115.477Z" fill="#E3C3FF"/>
<path d="M43.7617 129.419C64.6248 136.894 85.4758 136.928 106.315 129.415C105.911 130.952 105.722 131.152 104.121 131.712C94.3266 135.125 84.0511 136.16 73.5312 136.042C64.1362 135.936 54.9855 134.799 46.2556 131.77C45.0429 131.349 44.2116 130.565 43.7617 129.419Z" fill="#E3C3FF"/>
<path d="M107.001 138.159C92.8602 144.296 58.2916 144.535 43.0742 138.159C43.3137 137.449 43.7249 137.188 44.6586 137.495C57.7884 141.837 71.4746 142.124 85.3011 141.272C92.2482 140.845 99.0236 139.73 105.511 137.536C105.942 137.391 106.561 137.63 107.093 137.69L107.001 138.159Z" fill="#E3C3FF"/>
<path d="M115.572 118.025C97.0065 133.549 56.0737 135.134 34.543 118.054C46.4053 125.901 60.0939 129.289 75.0258 129.294C89.9941 129.299 103.709 125.915 115.572 118.025Z" fill="#E3C3FF"/>
<path d="M40.2344 138.38C41.589 138.634 42.9702 138.815 44.2957 139.15C48.9376 140.33 53.5602 141.566 58.1948 142.768C58.7898 142.922 59.4091 143.009 60.142 143.154C57.2804 143.794 43.0621 140.871 40.2344 138.38Z" fill="#E3C3FF"/>
<path d="M110.341 138.499C106.901 140.751 94.9494 143.512 90.0898 143.159C91.9403 142.776 93.8271 142.481 95.6364 141.989C99.4002 140.968 103.108 139.805 106.875 138.791C107.854 138.528 108.965 138.603 110.343 138.497L110.341 138.499Z" fill="#E3C3FF"/>
<path d="M105.283 131.842C104.787 132.96 101.959 133.833 98.7422 133.995C101.011 133.247 103.026 132.586 105.283 131.842Z" fill="#E3C3FF"/>
<path d="M44.4817 136.148C46.574 136.797 48.664 137.446 50.7563 138.096C50.7224 138.19 50.6886 138.286 50.6547 138.38C48.5164 137.847 46.3805 137.314 44.2422 136.78C44.322 136.57 44.4018 136.36 44.4792 136.148H44.4817Z" fill="#E3C3FF"/>
<path d="M45.0859 132.06C46.9461 132.675 48.7748 133.281 50.959 134.002C47.3863 133.776 45.1392 133.018 45.0859 132.06Z" fill="#E3C3FF"/>
<path d="M100.242 137.828C102.056 137.268 103.871 136.71 105.682 136.15C105.762 136.356 105.842 136.561 105.924 136.766C104.064 137.249 102.202 137.731 100.341 138.214C100.307 138.086 100.276 137.956 100.242 137.828Z" fill="#E3C3FF"/>
<path d="M50.4271 136.056C48.5694 135.571 46.7093 135.089 44.8516 134.603C44.9314 134.403 45.0112 134.205 45.0935 134.005C46.9149 134.582 48.7363 135.159 50.5578 135.735C50.5142 135.842 50.4707 135.948 50.4271 136.056Z" fill="#E3C3FF"/>
<path d="M99.6016 135.728C101.406 135.151 103.213 134.577 105.018 134C105.08 134.145 105.143 134.29 105.206 134.432C103.595 135.4 101.597 135.513 99.6016 135.728Z" fill="#E3C3FF"/>
<path d="M55.3477 46.669C68.492 42.6916 81.6315 42.7351 94.7831 46.6762C90.4823 46.0922 86.2057 45.2764 81.8783 44.9916C77.4178 44.6972 72.8872 44.69 68.4291 44.9796C64.0436 45.2668 59.7065 46.0849 55.3477 46.669Z" fill="#E3C3FF"/>
<path d="M17.0757 123.383C15.0486 122.683 13.0216 121.984 10.6172 121.151C13.4183 121.204 15.3897 122.054 17.0757 123.383Z" fill="#E3C3FF"/>
<path d="M15.6172 125.898C13.7644 125.79 11.9115 125.679 10.0586 125.57C10.0683 125.435 10.0779 125.3 10.0876 125.165C11.9405 125.264 13.7958 125.362 15.6487 125.461C15.639 125.606 15.6293 125.753 15.6172 125.898Z" fill="#E3C3FF"/>
<path d="M19.6303 129.13C18.2708 130.177 17.0469 131.121 15.8398 132.055C15.9342 130.824 17.4146 129.639 19.6303 129.13Z" fill="#E3C3FF"/>
<path d="M27.0945 131.068C26.9711 132.39 26.8478 133.711 26.6954 135.347C25.7448 133.66 26.2164 132.354 27.0945 131.068Z" fill="#E3C3FF"/>
<path d="M31.8669 131.005C31.9637 132.424 32.0605 133.846 32.1572 135.265C31.0905 133.896 31.1388 132.467 31.8669 131.005Z" fill="#E3C3FF"/>
<path d="M16.8548 118.614C18.0861 119.587 19.3197 120.559 20.5509 121.53C20.4324 121.636 20.3139 121.74 20.1953 121.846C18.9714 120.873 17.7474 119.901 16.5234 118.928C16.6347 118.822 16.746 118.718 16.8572 118.612L16.8548 118.614Z" fill="#E3C3FF"/>
<path d="M139.082 121.298C137.021 122.015 134.96 122.732 132.899 123.449C132.829 123.309 132.759 123.166 132.691 123.026C134.76 122.307 136.83 121.59 138.898 120.871C138.959 121.013 139.022 121.156 139.082 121.298Z" fill="#E3C3FF"/>
<path d="M140.092 125.565C138.237 125.678 136.381 125.789 134.526 125.903C134.514 125.758 134.502 125.611 134.492 125.466C136.347 125.36 138.203 125.254 140.058 125.147C140.07 125.287 140.08 125.427 140.092 125.565Z" fill="#E3C3FF"/>
<path d="M130.652 129.26C132.474 129.627 133.785 130.535 134.377 132.101C133.137 131.155 131.896 130.206 130.652 129.26Z" fill="#E3C3FF"/>
<path d="M129.584 121.547C130.813 120.572 132.042 119.597 133.271 118.622C133.341 118.684 133.411 118.749 133.479 118.812C132.303 119.843 131.13 120.873 129.955 121.904C129.831 121.786 129.708 121.665 129.582 121.547H129.584Z" fill="#E3C3FF"/>
<path d="M123.443 135.014C123.298 133.667 123.165 132.439 123.02 131.075C124.115 132.111 124.273 133.691 123.443 135.014Z" fill="#E3C3FF"/>
<path d="M118.781 131.218C118.704 132.588 118.629 133.959 118.551 135.33C118.36 135.323 118.169 135.313 117.98 135.306C118.077 133.935 118.172 132.567 118.268 131.196C118.44 131.203 118.609 131.21 118.781 131.218Z" fill="#E3C3FF"/>
<path d="M126.121 119.855C126.721 118.846 127.321 117.837 127.923 116.831C128.08 116.893 128.238 116.956 128.392 117.019C127.809 118.023 127.227 119.024 126.644 120.028C126.469 119.97 126.295 119.915 126.124 119.857L126.121 119.855Z" fill="#E3C3FF"/>
</g>
<defs>
<clipPath id="clip0_447_1960">
<rect width="149" height="172" fill="white" transform="translate(0.5)"/>
</clipPath>
</defs>
</svg>
