<svg width="89" height="129" viewBox="0 0 89 129" fill="none" xmlns="http://www.w3.org/2000/svg">
<path d="M88.9995 61.6059V96.8635C88.9995 97.0638 88.9995 97.2587 88.9785 97.48V97.638C88.9574 98.0543 88.9205 98.4705 88.8573 98.8867V98.9288C88.7361 99.7191 88.5622 100.473 88.3198 101.226C87.6665 103.207 86.5758 105.03 85.1321 106.553C84.7738 106.927 84.3786 107.285 83.9834 107.622C83.3669 108.138 82.7136 108.591 82.0233 108.987L51.4996 126.615C51.3626 126.694 51.2415 126.774 51.1045 126.831C50.7093 127.047 50.293 127.248 49.8557 127.427C49.5764 127.548 49.2814 127.643 49.0021 127.743C48.707 127.843 48.4278 127.922 48.1327 128.001C47.6954 128.122 47.2422 128.217 46.7838 128.296C46.0303 128.417 45.2769 128.475 44.5076 128.475C44.2125 128.475 43.8911 128.454 43.596 128.433C43.301 128.412 42.9796 128.375 42.6845 128.333C42.0891 128.254 41.4779 128.133 40.9035 127.975C40.6085 127.896 40.3081 127.817 40.0342 127.717C39.1648 127.422 38.3322 127.042 37.5366 126.589L7.01294 108.96C6.61776 108.744 6.23839 108.486 5.88536 108.228C5.53233 107.97 5.17404 107.691 4.83682 107.396C4.34153 106.958 3.86731 106.484 3.42998 105.989C3.21395 105.731 3.01372 105.472 2.8135 105.214C2.71339 105.077 2.61327 104.956 2.51843 104.819C2.04421 104.145 1.64903 103.434 1.29074 102.68C1.15374 102.385 1.03255 102.085 0.916635 101.769C0.800715 101.453 0.700603 101.152 0.600491 100.836V100.815C0.558339 100.657 0.500379 100.478 0.463496 100.32C0.463496 100.278 0.442419 100.262 0.442419 100.22C0.400267 100.083 0.363383 99.9246 0.342307 99.7666C0.342307 99.7244 0.321231 99.7086 0.321231 99.6665C0.242195 99.3082 0.184235 98.9552 0.142083 98.5969C0.142083 98.5548 0.142083 98.5179 0.121006 98.4758C0.0999302 98.3388 0.0788539 98.1965 0.0788539 98.0595C0.0788539 98.0016 0.078854 97.9384 0.0577777 97.8804C0.0367015 97.7592 0.0367015 97.6222 0.0367015 97.5063V97.3483C0.0367015 97.1691 0.015625 96.99 0.015625 96.8109V76.2738V61.5585C0.015625 61.1212 0.0367013 60.6892 0.0735848 60.2519C0.0735848 60.2098 0.0735847 60.1729 0.094661 60.1307C0.136813 59.7145 0.194773 59.2983 0.273809 58.8821C0.294885 58.8241 0.294885 58.7609 0.315962 58.7029C0.452957 58.0286 0.653182 57.3542 0.89029 56.7009C0.990402 56.4427 1.09051 56.1845 1.20643 55.9264C1.26439 55.8052 1.32762 55.6682 1.38558 55.5523C1.52258 55.2731 1.66484 54.9991 1.80184 54.7409C2.0969 54.2035 2.43412 53.6925 2.8135 53.1972C2.93469 53.0392 3.07168 52.86 3.1876 52.702C3.28771 52.5808 3.38783 52.4649 3.48267 52.3437C3.58278 52.2225 3.6987 52.1066 3.79881 51.9854C3.99904 51.7694 4.21507 51.5481 4.4311 51.3532C4.55229 51.2531 4.64713 51.153 4.76832 51.0371C5.00543 50.8369 5.22146 50.6419 5.47964 50.4628C5.97493 50.0887 6.47023 49.7515 7.02348 49.4354L29.8016 36.285C29.7437 34.6201 29.6436 32.5232 29.5224 30.4421C29.5013 30.0838 29.4802 29.7466 29.4644 29.4147C29.4223 28.7192 29.3854 28.0501 29.3274 27.3968C29.3063 27.2598 29.3063 27.1176 29.2853 26.9806C29.2431 26.5644 29.2273 26.1481 29.1852 25.7741C29.1641 25.6371 29.1641 25.5159 29.143 25.4C29.1008 25.0048 29.085 24.6466 29.0429 24.2883C29.0007 23.851 28.9428 23.4559 28.9059 23.1187C28.8848 23.0396 28.8848 22.9395 28.8637 22.8605C28.8216 22.6234 28.7847 22.4074 28.7426 22.2283C27.773 17.829 22.641 16.1272 19.6903 15.495C19.3531 15.9112 18.9579 16.2853 18.5206 16.5856C18.3625 16.6857 18.2255 16.7647 18.0464 16.8648C17.8883 16.9439 17.7091 17.0229 17.5511 17.0808C17.3719 17.1388 17.2138 17.202 17.0347 17.2389C16.6764 17.3179 16.3023 17.3759 15.9229 17.3759C15.4276 17.3759 14.9534 17.2969 14.495 17.1599C14.3369 17.1177 14.1999 17.0598 14.0577 17.0018C13.8416 16.9017 13.6414 16.8016 13.4412 16.6857C13.183 16.5276 12.9248 16.3485 12.7088 16.1325C12.4928 15.9165 12.2715 15.6952 12.0923 15.4581C11.9553 15.279 11.8341 15.084 11.7182 14.8838C11.5812 14.6046 11.439 14.3306 11.3599 14.0303C11.2229 13.5772 11.1439 13.0978 11.1439 12.6025C11.1439 12.0282 11.244 11.475 11.439 10.9587C11.4811 10.8586 11.518 10.7427 11.5759 10.6426C11.6181 10.5214 11.6761 10.4266 11.734 10.3265C11.8552 10.1263 11.9711 9.93132 12.1081 9.75218C12.2082 9.63101 12.3083 9.5151 12.4032 9.39392C12.4612 9.33596 12.5033 9.27274 12.5613 9.23586C12.7193 9.0778 12.8985 8.91974 13.0776 8.78276C13.1988 8.68266 13.3358 8.60363 13.4517 8.5246C13.5518 8.46664 13.6309 8.42449 13.731 8.36654C13.9312 8.26644 14.1051 8.18741 14.3264 8.10838C14.4265 8.06623 14.5266 8.02935 14.6425 8.00827C14.7585 7.9872 14.8586 7.95032 14.9587 7.92924C15.2748 7.87129 15.6121 7.82914 15.9493 7.82914C18.4257 7.82914 20.4649 9.68896 20.723 12.1073C21.1604 12.2074 21.6557 12.3233 22.151 12.4655C22.309 12.5077 22.4882 12.5656 22.6673 12.6236C22.7885 12.6657 22.9044 12.7026 23.0256 12.7448C23.3997 12.8659 23.7791 13.0029 24.1532 13.1399C24.5273 13.2769 24.9278 13.456 25.3019 13.6352C25.676 13.8143 26.0764 14.0092 26.4505 14.2094C26.5717 14.2885 26.7087 14.3464 26.8246 14.4255C27.0828 14.5624 27.3199 14.7205 27.5781 14.8996C27.9522 15.1367 28.3105 15.416 28.6477 15.6899C28.7847 15.79 28.9059 15.9059 29.0429 16.0271C29.3011 16.2642 29.5382 16.5013 29.7753 16.7384C30.1494 17.1335 30.4866 17.5497 30.8028 18.0081C30.9819 18.2663 31.14 18.5244 31.277 18.7984C31.493 19.2146 31.7143 19.6308 31.8724 20.084C31.9514 20.3 32.0304 20.5371 32.1095 20.7794C32.1885 21.0218 32.2465 21.2536 32.3097 21.5117C32.805 23.7509 33.1422 30.0891 33.3214 34.325L37.5577 31.8909C37.6947 31.8119 37.8159 31.7329 37.9529 31.6749C38.0899 31.617 38.2321 31.5379 38.3691 31.4589C40.2923 30.5105 42.4105 30.0153 44.5497 30.0153C44.8448 30.0153 45.1662 30.0364 45.4613 30.0574C45.9144 30.0996 46.3728 30.1365 46.826 30.2155C47.2791 30.2945 47.7164 30.3946 48.1749 30.5105C48.3119 30.5527 48.4699 30.5896 48.6122 30.6317C48.9073 30.7108 49.1865 30.8109 49.4816 30.9268C49.6186 30.9847 49.7608 31.0479 49.8978 31.0848C50.4511 31.3219 51.0096 31.5801 51.5418 31.8962L54.3765 33.54C54.5135 29.4199 54.8508 21.8753 55.4672 19.399C55.5252 19.1409 55.6042 18.9038 55.6675 18.6667C55.7465 18.4296 55.8045 18.1714 55.8835 17.9344C55.9836 17.6182 56.0995 17.3021 56.2207 16.986C56.3999 16.5329 56.5948 16.0745 56.795 15.6214C57.1112 14.947 57.4484 14.2937 57.8225 13.6826C58.1966 13.0714 58.576 12.455 58.9712 11.8807C59.5666 11.0483 60.1778 10.258 60.7943 9.54144C60.9154 9.40446 61.0314 9.2622 61.1684 9.12522C61.2896 9.00404 61.3844 8.86706 61.5056 8.75115C61.7058 8.53514 61.9008 8.31385 62.1221 8.11891L62.4593 7.78172C62.7754 7.4656 63.0916 7.16529 63.3919 6.89132C63.7081 6.61209 64.0084 6.33812 64.3035 6.07996C64.2033 5.68481 64.1454 5.28966 64.1454 4.85237C64.1454 4.73119 64.1454 4.61528 64.1665 4.51518C64.1875 4.27809 64.2086 4.06208 64.2666 3.84079C64.2877 3.71962 64.3245 3.62478 64.3456 3.52468C64.3878 3.38769 64.4246 3.24544 64.4826 3.10846C64.5616 2.92932 64.6407 2.75019 64.7197 2.57106C64.8409 2.37085 64.9568 2.17591 65.0938 1.99678C65.1939 1.8756 65.294 1.75969 65.3889 1.63851C65.4468 1.58056 65.489 1.51733 65.547 1.48045C65.6049 1.4225 65.6681 1.38035 65.705 1.32239C65.842 1.20122 65.9843 1.08531 66.1424 0.964127C66.2794 0.864023 66.4216 0.76392 66.5797 0.68489C66.6218 0.663816 66.6798 0.626935 66.7167 0.605861C67.0539 0.426728 67.4122 0.289744 67.7652 0.210714C68.0445 0.15276 68.3185 0.0895363 68.5977 0.0737305H68.935C71.5906 0.0737305 73.7298 2.21279 73.7298 4.86817C73.7298 5.54256 73.5928 6.17479 73.3346 6.77015C73.2925 6.84918 73.2556 6.92821 73.2134 7.00723C73.1133 7.22325 72.9763 7.42346 72.8551 7.62366C72.7972 7.70269 72.755 7.76065 72.6971 7.83968C72.597 7.97666 72.481 8.09784 72.3598 8.23482C72.2387 8.356 72.1017 8.47191 71.9857 8.59309C71.8066 8.73007 71.6274 8.87232 71.4325 8.98823C71.2375 9.10415 71.0373 9.20425 70.816 9.30435C70.679 9.36231 70.521 9.42553 70.3787 9.46241C69.9255 9.5994 69.4461 9.67842 68.9508 9.67842C68.8138 9.67842 68.6715 9.67842 68.5345 9.65735C68.3975 9.63628 68.2553 9.6152 68.1183 9.59939C67.839 9.55725 67.5808 9.47822 67.3437 9.39919C67.1435 9.32016 66.9485 9.24113 66.7694 9.14103C66.6693 9.09888 66.5902 9.04092 66.4901 8.98297C65.9737 9.42026 65.4416 9.93132 64.9041 10.4687C64.4879 10.8849 64.0716 11.3222 63.6764 11.7964C63.5394 11.9545 63.3972 12.1125 63.2602 12.2706C63.0231 12.5498 62.807 12.8449 62.5647 13.1399C62.4856 13.24 62.4066 13.3401 62.3486 13.435C62.2116 13.6141 62.0694 13.809 61.9324 13.9882C61.5952 14.4834 61.2579 14.9787 60.9629 15.5108C60.8048 15.7689 60.6678 16.0482 60.5097 16.3222C60.3727 16.6014 60.2305 16.8754 60.0935 17.1546C59.8933 17.5708 59.7194 18.0081 59.5402 18.4612C59.4823 18.5982 59.419 18.7563 59.3822 18.9143C59.282 19.2094 59.1819 19.5307 59.0871 19.8258C59.0449 19.9838 59.0081 20.1419 58.9659 20.3C58.9237 20.4369 58.8869 20.6161 58.8658 20.8163C58.8078 21.2114 58.7288 21.6856 58.6656 22.223C58.6445 22.439 58.6234 22.6603 58.5865 22.8974C58.5654 23.1345 58.5444 23.3716 58.5286 23.6087C58.5075 23.9037 58.4706 24.204 58.4495 24.5201C58.4285 24.6993 58.4285 24.8784 58.4074 25.0575C58.3652 25.6107 58.3283 26.185 58.2862 26.7593C58.244 27.4706 58.2072 28.224 58.165 28.9563V29.0775C58.1439 29.4147 58.1228 29.7729 58.107 30.1049C58.086 30.3209 58.086 30.558 58.0649 30.7793C58.0438 31.1164 58.0438 31.4536 58.0227 31.7908V31.8909C58.0017 32.2281 58.0017 32.5442 57.9806 32.8604C57.9806 32.9973 57.9806 33.1185 57.9595 33.2555C57.9595 33.5137 57.9384 33.7507 57.9384 34.0089C57.9384 34.246 57.9174 34.462 57.9174 34.7044C57.9174 34.9204 57.8963 35.1417 57.8963 35.3577V35.6527L82.0602 49.5988C82.2393 49.6989 82.3974 49.799 82.5766 49.9149C82.7557 50.0308 82.9138 50.1309 83.0719 50.2521C83.251 50.3732 83.4302 50.5102 83.5882 50.6261C83.7094 50.7262 83.8253 50.8263 83.9465 50.9054C84.779 51.5798 85.5114 52.349 86.1437 53.2025C86.697 53.9138 87.1712 54.6882 87.5716 55.4996C87.7086 55.7789 87.8298 56.0528 87.9457 56.3321C88.5622 57.9179 88.9363 59.7409 88.9363 61.6007L88.9995 61.6059Z" fill="white"/>
<path d="M51.5004 31.8963C50.9629 31.6013 50.4308 31.322 49.8564 31.085C50.4097 31.322 50.9682 31.5802 51.5004 31.8963Z" fill="black"/>
<path d="M66.1006 0.937928C66.2376 0.837825 66.3798 0.737721 66.5379 0.658691C66.3798 0.737721 66.2429 0.837825 66.1006 0.937928Z" fill="black"/>
<path d="M73.6876 4.82081C73.6876 5.4952 73.5506 6.12743 73.2924 6.72278C73.5506 6.1485 73.6876 5.4952 73.6876 4.82081C73.6876 2.16543 71.5483 0.0263672 68.8927 0.0263672C71.5483 0.0263672 73.6876 2.1865 73.6876 4.82081Z" fill="black"/>
<path d="M82.0077 49.5046C82.1868 49.6047 82.3449 49.7048 82.524 49.8208C82.366 49.7206 82.1868 49.6047 82.0077 49.5046Z" fill="black"/>
<path d="M64.8311 10.4272C65.3843 9.87395 65.9217 9.3787 66.417 8.94141C65.9217 9.3787 65.3896 9.88976 64.8311 10.4272Z" fill="black"/>
<path d="M63.1867 12.2285C62.9496 12.5078 62.7336 12.8028 62.4912 13.0978C62.7283 12.8028 62.9444 12.5025 63.1867 12.2285Z" fill="black"/>
<path d="M44.5078 128.449C45.2824 128.449 46.0306 128.391 46.784 128.27C46.0306 128.37 45.2613 128.449 44.5078 128.449Z" fill="black"/>
<path d="M88.9993 61.606C88.9993 59.7462 88.6252 57.9233 87.9297 56.2373C88.6252 57.9233 88.9993 59.7409 88.9993 61.606Z" fill="black"/>
<path d="M20.7019 12.0862C21.1392 12.1863 21.6345 12.3022 22.1298 12.4445C21.6345 12.3075 21.1392 12.1863 20.7019 12.0862Z" fill="black"/>
<path d="M33.2793 34.3303L37.5156 31.8962C37.6526 31.8172 37.7738 31.7381 37.9108 31.6802C37.7738 31.7592 37.6315 31.8172 37.5156 31.8962L33.2793 34.3303C33.1001 30.0943 32.7629 23.7562 32.2676 21.517C32.2096 21.2588 32.1464 21.0218 32.0674 20.7847C32.1464 21.0218 32.2044 21.2588 32.2676 21.517C32.7629 23.7562 33.1001 30.0943 33.2793 34.3303Z" fill="black"/>
<path d="M29.4329 29.4783C29.3907 28.7829 29.3539 28.1138 29.2959 27.4604C29.3539 28.1138 29.396 28.7881 29.4329 29.4783Z" fill="#131718"/>
<path d="M55.4257 19.3783C55.4836 19.1202 55.5627 18.8831 55.6259 18.646C55.5679 18.8831 55.5047 19.1202 55.4257 19.3783C54.7934 21.8546 54.4772 29.3993 54.335 33.5193C54.472 29.3993 54.8092 21.8546 55.4257 19.3783Z" fill="#131718"/>
<path d="M64.0986 4.82108C64.0986 4.6999 64.0986 4.58399 64.1197 4.48389C64.0986 4.60506 64.0986 4.72097 64.0986 4.82108C64.0986 5.2373 64.1566 5.65352 64.2567 6.04867C64.1566 5.67459 64.0986 5.25837 64.0986 4.82108Z" fill="#131718"/>
<path d="M0.594727 100.841C0.694839 101.158 0.794951 101.474 0.91087 101.774C0.789682 101.458 0.694839 101.158 0.594727 100.841Z" fill="#131718"/>
<path d="M0.437624 100.246C0.395471 100.109 0.358588 99.9513 0.337512 99.7933C0.337512 99.7511 0.316435 99.7353 0.316435 99.6932C0.237399 99.3349 0.17944 98.9819 0.137287 98.6236C0.137287 98.5815 0.137287 98.5446 0.116211 98.5024C0.116211 98.5446 0.116211 98.5815 0.137287 98.6236C0.17944 98.9819 0.237399 99.3349 0.316435 99.6932C0.316435 99.7353 0.337512 99.7511 0.337512 99.7933C0.358588 99.9513 0.395471 100.088 0.437624 100.246C0.437624 100.289 0.4587 100.304 0.4587 100.346C0.500853 100.505 0.537736 100.684 0.595696 100.842C0.553543 100.684 0.495583 100.505 0.4587 100.346C0.4587 100.304 0.437624 100.267 0.437624 100.246Z" fill="#131718"/>
<path d="M19.7117 15.5532C19.3745 15.9694 18.9793 16.3435 18.542 16.6438C18.9951 16.3488 19.3956 15.9694 19.7117 15.5532C22.6624 16.1855 27.7945 17.8925 28.764 22.2865C28.8061 22.4657 28.843 22.6606 28.8852 22.9188C28.843 22.6817 28.8061 22.4657 28.764 22.2865C27.8155 17.8872 22.6624 16.1855 19.7117 15.5532Z" fill="#131718"/>
<path d="M0.0581856 97.9278C0.0371094 97.8066 0.0371094 97.6696 0.0371094 97.5537C0.0371094 97.6749 0.0371094 97.8119 0.0581856 97.9278C0.0581856 97.9857 0.0581856 98.049 0.0792618 98.1069C0.100338 98.2439 0.100338 98.3862 0.121414 98.5231C0.100338 98.3862 0.0792618 98.2439 0.0792618 98.1069C0.0581856 98.049 0.0581856 97.9857 0.0581856 97.9278Z" fill="#131718"/>
<path d="M0.0214844 88.5238V76.3217V61.6064C0.0214844 61.1691 0.0425607 60.7371 0.0794441 60.2998C0.0372916 60.7371 0.0214844 61.1691 0.0214844 61.6064V76.3217V96.8588C0.0214844 97.0379 0.0214844 97.217 0.0425606 97.3962C0.0425606 97.217 0.0214844 97.0379 0.0214844 96.8588V88.5185V88.5238Z" fill="#131718"/>
<path d="M68.8922 9.6314C68.7554 9.6314 68.6134 9.6314 68.4766 9.61035C68.6134 9.61035 68.7554 9.6314 68.8922 9.6314Z" fill="#131718"/>
<path d="M64.8312 10.4272C64.415 10.8435 63.9987 11.2808 63.6035 11.7549C64.0198 11.2808 64.415 10.8435 64.8312 10.4272Z" fill="#131718"/>
<path d="M57.8805 34.6099C57.8805 34.8259 57.8594 35.0472 57.8594 35.2632C57.8805 35.063 57.8805 34.847 57.8805 34.6099Z" fill="#131718"/>
<path d="M65.6631 1.27526C65.8001 1.15408 65.9423 1.03817 66.1004 0.916992C65.9423 1.03817 65.8054 1.15408 65.6631 1.27526Z" fill="#131718"/>
<path d="M57.8018 13.6515C58.1601 13.0192 58.5552 12.4239 58.9504 11.8496C58.5552 12.4239 58.1601 13.0403 57.8018 13.6515Z" fill="#131718"/>
<path d="M64.6719 2.53961C64.7931 2.3394 64.909 2.14447 65.046 1.96533C64.909 2.14447 64.7878 2.3394 64.6719 2.53961Z" fill="#131718"/>
<path d="M58.8076 20.7642C58.7497 21.1593 58.6707 21.6335 58.6074 22.1709C58.6654 21.6335 58.7286 21.1435 58.8076 20.7642Z" fill="#131718"/>
<path d="M58.6132 22.1709C58.5921 22.3869 58.5711 22.6082 58.5342 22.8453C58.5553 22.6082 58.5763 22.3922 58.6132 22.1709Z" fill="#131718"/>
<path d="M49.3609 35.5579L48.8076 35.2418C46.152 33.6981 42.8641 33.6981 40.2085 35.2418L39.6553 35.5579C42.6481 33.814 46.3523 33.814 49.3609 35.5579Z" fill="#131718"/>
<path d="M87.9301 56.2588C87.8089 55.9796 87.693 55.7056 87.556 55.4264C87.1608 54.615 86.6866 53.8405 86.1281 53.1292C85.4958 52.2968 84.7423 51.5223 83.9309 50.8321C83.8097 50.732 83.6938 50.6319 83.5726 50.5529C83.3934 50.4159 83.2143 50.2947 83.0562 50.1788C82.8981 50.0629 82.719 49.9628 82.5609 49.8416C82.4029 49.7205 82.2237 49.6256 82.0446 49.5255L57.8806 35.5795V35.2844C57.8806 35.0842 57.9017 34.8682 57.9017 34.6311C57.9017 34.4151 57.9228 34.178 57.9228 33.9357C57.9228 33.6933 57.9439 33.4404 57.9439 33.1823C57.9439 33.0611 57.9439 32.9241 57.9649 32.7871C57.986 32.471 57.986 32.1549 58.0071 31.8177V31.7176C58.0282 31.3804 58.0282 31.0432 58.0493 30.706C58.0493 30.49 58.0703 30.2687 58.0914 30.0316C58.1125 29.6944 58.1336 29.3362 58.1494 29.0042V28.8831C58.1915 28.1507 58.2284 27.4184 58.2706 26.686C58.3127 26.1118 58.3496 25.5375 58.3917 24.9843C58.4128 24.8052 58.4128 24.626 58.4339 24.4469C58.455 24.1308 58.4919 23.8305 58.5129 23.5354C58.534 23.2773 58.5551 23.0402 58.5709 22.8242C58.592 22.5871 58.613 22.371 58.6499 22.1498C58.7079 21.5966 58.7711 21.1224 58.8502 20.743C58.8923 20.5428 58.9292 20.3848 58.9503 20.2267C58.9924 20.0687 59.0293 19.9106 59.0715 19.7525C59.1505 19.4364 59.2506 19.1361 59.3665 18.8411C59.4245 18.683 59.4666 18.546 59.5246 18.388C59.6827 17.9507 59.8829 17.5187 60.0778 17.0814C60.2148 16.8021 60.3571 16.5281 60.4941 16.2489C60.6311 15.9697 60.7892 15.7115 60.9472 15.4375C61.2634 14.9001 61.5795 14.4102 61.9167 13.9149C62.0537 13.7147 62.196 13.5408 62.333 13.3617C62.412 13.2616 62.4911 13.1615 62.549 13.0667C62.7651 12.7716 63.0022 12.4924 63.2445 12.1973C63.3815 12.0393 63.5238 11.8812 63.6608 11.7232C64.0771 11.249 64.4933 10.8117 64.8885 10.3955C65.4417 9.84227 65.9792 9.34702 66.4745 8.90973C66.5746 8.96768 66.6536 9.00983 66.7537 9.06778C66.9329 9.16789 67.1278 9.24692 67.3281 9.32595C67.5863 9.42605 67.8444 9.484 68.1026 9.52615C68.2396 9.54723 68.3819 9.5683 68.5189 9.58411C68.6559 9.60518 68.7981 9.60518 68.9351 9.60518C69.4304 9.60518 69.9046 9.52615 70.363 9.38917C70.5211 9.34702 70.6581 9.28907 70.8004 9.23111C71.0164 9.13101 71.2166 9.0309 71.4169 8.91499C71.6171 8.79908 71.791 8.65683 71.9701 8.51985C72.1071 8.39867 72.2283 8.30383 72.3442 8.16158C72.4654 8.0404 72.5813 7.90342 72.6814 7.76643C72.7394 7.70848 72.7815 7.62945 72.8395 7.55042C72.9765 7.35021 73.0977 7.15527 73.1978 6.93399C73.24 6.85496 73.2768 6.77593 73.319 6.6969C73.5772 6.12262 73.7142 5.46932 73.7142 4.79493C73.7142 2.13955 71.5749 0.000488281 68.9193 0.000488281H68.5821C68.3028 0.0215628 68.0078 0.0584432 67.7496 0.137473C67.3755 0.237576 67.0172 0.37456 66.7011 0.532619C66.6589 0.553694 66.6009 0.590574 66.5641 0.611648C66.406 0.690678 66.269 0.790781 66.1267 0.890885C65.9687 0.990989 65.8317 1.1069 65.6894 1.24915C65.6314 1.30711 65.5682 1.34926 65.5313 1.40721C65.4734 1.46516 65.4312 1.52839 65.3732 1.56527C65.2731 1.68645 65.173 1.80236 65.0782 1.92353C64.9412 2.10267 64.82 2.29761 64.7041 2.49781C64.604 2.67695 64.5249 2.83501 64.467 3.03521C64.409 3.1722 64.3669 3.31445 64.33 3.45143C64.2878 3.55154 64.272 3.66745 64.2509 3.76755C64.2088 3.98357 64.1719 4.20485 64.1508 4.44194C64.1508 4.56311 64.1297 4.67902 64.1297 4.77913C64.1297 5.19535 64.1877 5.61157 64.2878 6.00672C63.9928 6.26488 63.6924 6.52304 63.3763 6.81808C63.0601 7.09732 62.7598 7.41344 62.4436 7.70848L62.1064 8.04567C61.9062 8.24588 61.7113 8.46189 61.49 8.67791C61.3688 8.79908 61.2739 8.93607 61.1527 9.05198C61.0315 9.18896 60.9156 9.33121 60.7786 9.4682C60.1621 10.1795 59.5299 10.975 58.9555 11.8075C58.5603 12.3817 58.1652 12.9771 57.8069 13.6093C57.4486 14.2416 57.0956 14.8791 56.7794 15.5482C56.5792 15.9855 56.3842 16.4386 56.2051 16.9128C56.0839 17.2289 55.968 17.545 55.8679 17.8611C55.7888 18.0982 55.7098 18.3353 55.6518 18.5934C55.5728 18.8305 55.5148 19.0887 55.4516 19.3258C54.8193 21.802 54.5032 29.3467 54.3609 33.4668L51.5262 31.823C50.9887 31.5279 50.4565 31.2487 49.8822 31.0116C49.7452 30.9536 49.6029 30.8904 49.466 30.8535C49.1867 30.7534 48.8916 30.6533 48.5966 30.5585C48.4596 30.5163 48.3015 30.4795 48.1592 30.4373C47.7219 30.3161 47.2688 30.2213 46.8103 30.1423C46.3519 30.0632 45.8988 30.0211 45.4457 29.9842C45.1506 29.9631 44.8292 29.9421 44.5341 29.9421C42.3949 29.9421 40.2767 30.4373 38.3535 31.3857C38.2165 31.4436 38.0742 31.5226 37.9372 31.6017C37.8003 31.6807 37.658 31.7387 37.5421 31.8177L33.3057 34.2518C33.1266 30.0158 32.7894 23.6777 32.2941 21.4385C32.2361 21.1803 32.1729 20.9433 32.0939 20.7062C32.0148 20.4691 31.9358 20.232 31.8567 20.0107C31.6776 19.5576 31.4826 19.1203 31.2613 18.7252C31.1033 18.4459 30.9452 18.1878 30.7871 17.9349C30.471 17.4818 30.1338 17.0445 29.7597 16.6651C29.5226 16.407 29.2854 16.1699 29.0273 15.9539C28.9061 15.8327 28.7691 15.7379 28.6321 15.6167C28.2949 15.3374 27.9366 15.0635 27.5625 14.8264C27.3254 14.6683 27.0672 14.5103 26.809 14.3522C26.6878 14.2732 26.5508 14.2152 26.4349 14.1362C26.0608 13.9202 25.6603 13.741 25.2862 13.5619C24.9121 13.3828 24.5117 13.2247 24.1376 13.0667C23.7635 12.9086 23.3841 12.7874 23.01 12.6715C22.8888 12.6294 22.7729 12.5925 22.6517 12.5503C22.4725 12.4924 22.3145 12.4502 22.1353 12.3923C21.64 12.2553 21.1447 12.1341 20.7074 12.034C20.4492 9.63679 18.4101 7.7559 15.9336 7.7559C15.5964 7.7559 15.2592 7.79805 14.9431 7.856C14.8429 7.87707 14.727 7.89815 14.6269 7.93503C14.5268 7.97191 14.4267 7.99298 14.3108 8.03513C14.1105 8.11416 13.9156 8.19319 13.7154 8.2933C13.6153 8.33544 13.5362 8.3934 13.4361 8.45136C13.2991 8.53039 13.1779 8.60941 13.062 8.70952C12.8829 8.8465 12.7037 9.00456 12.5456 9.16262C12.4877 9.22057 12.4455 9.2838 12.3876 9.32068C12.2875 9.44186 12.1873 9.55777 12.0925 9.67894C11.9555 9.85808 11.8343 10.053 11.7184 10.2532C11.6604 10.3533 11.5972 10.4692 11.5603 10.5693C11.5182 10.6694 11.4602 10.7695 11.4233 10.8855C11.2231 11.4018 11.1283 11.955 11.1283 12.5293C11.1283 13.0245 11.2073 13.4987 11.3443 13.9571C11.4444 14.2521 11.5603 14.5524 11.7026 14.8106C11.8238 15.0108 11.9397 15.2057 12.0767 15.3849C12.2558 15.6219 12.4719 15.859 12.6932 16.0592C12.9145 16.2594 13.1674 16.4544 13.4256 16.6124C13.6258 16.7336 13.8208 16.8285 14.0421 16.9286C14.179 16.9865 14.3371 17.0497 14.4794 17.0866C14.9325 17.2236 15.412 17.3026 15.9073 17.3026C16.2814 17.3026 16.6608 17.2605 17.0191 17.1657C17.1982 17.1235 17.3774 17.0655 17.5354 17.0076C17.7146 16.9496 17.8727 16.8706 18.0307 16.7916C18.1888 16.7126 18.3469 16.6124 18.5049 16.5123C18.9581 16.2173 19.3585 15.859 19.6747 15.4217C22.6254 16.054 27.7574 17.761 28.7269 22.155C28.7691 22.3342 28.806 22.5291 28.8481 22.7873C28.8692 22.8663 28.8692 22.9453 28.8903 23.0454C28.9324 23.3826 28.9904 23.7778 29.0273 24.2151C29.0694 24.5523 29.1063 24.9263 29.1274 25.3267C29.1485 25.4479 29.1484 25.5849 29.1695 25.7008C29.2117 26.096 29.2275 26.4911 29.2696 26.9073C29.2907 27.0443 29.2907 27.1866 29.3118 27.3236C29.3539 27.9769 29.3908 28.6512 29.4488 29.3414C29.4699 29.6786 29.4909 30.0369 29.5067 30.3688C29.6279 32.4499 29.707 34.5468 29.786 36.2117L7.00785 49.3622C6.47041 49.6783 5.95931 50.0155 5.46402 50.3896C5.22691 50.5687 4.9898 50.7636 4.75269 50.9638C4.63151 51.064 4.53666 51.1641 4.41547 51.28C4.19944 51.4802 3.97814 51.6962 3.78319 51.9122C3.68307 52.0334 3.56715 52.1493 3.46704 52.2705C3.36693 52.3916 3.26682 52.5076 3.17197 52.6287C3.03498 52.7868 2.91379 52.9449 2.79787 53.124C2.42377 53.6192 2.08655 54.1356 1.78621 54.6677C1.62814 54.9469 1.49114 55.2051 1.36996 55.4791C1.312 55.6002 1.24877 55.7372 1.19081 55.8531C1.06962 56.1113 0.974776 56.3694 0.874664 56.6276C0.637556 57.2809 0.437332 57.9342 0.300337 58.6297C0.27926 58.6876 0.27926 58.7509 0.258184 58.8088C0.179148 59.225 0.121188 59.6413 0.079036 60.0575C0.079036 60.0996 0.079036 60.1365 0.0579598 60.1787C0.0158073 60.616 0 61.048 0 61.4853V76.2005V96.7376C0 96.9168 -2.05998e-08 97.0959 0.0210762 97.275V97.4331C0.0210762 97.5543 0.0421525 97.6912 0.0421525 97.8072C0.0421525 97.8651 0.0421524 97.9283 0.0632287 97.9863C0.0843049 98.1233 0.0843049 98.2655 0.105381 98.4025C0.105381 98.4446 0.105381 98.4815 0.126457 98.5237C0.16861 98.8819 0.22657 99.2349 0.305606 99.5932C0.305606 99.6354 0.326682 99.6512 0.326682 99.6933C0.368834 99.8514 0.384641 99.9884 0.426794 100.146C0.426794 100.189 0.44787 100.204 0.44787 100.247C0.490023 100.405 0.526906 100.584 0.584866 100.742V100.763C0.684978 101.079 0.78509 101.395 0.90101 101.695C1.0222 102.012 1.13812 102.312 1.27511 102.607C1.61233 103.36 2.02859 104.072 2.5028 104.746C2.60292 104.883 2.70303 105.025 2.79787 105.141C2.9981 105.399 3.19305 105.657 3.41435 105.916C3.85168 106.411 4.30482 106.885 4.82119 107.322C5.15841 107.617 5.49563 107.897 5.86974 108.155C6.24384 108.413 6.60213 108.65 6.99731 108.887L37.521 126.516C38.3113 126.969 39.1439 127.348 40.0185 127.643C40.3136 127.743 40.5929 127.822 40.8879 127.902C41.4833 128.06 42.0787 128.181 42.6689 128.26C42.9639 128.302 43.2853 128.339 43.5804 128.36C43.8755 128.381 44.1969 128.402 44.492 128.402C45.2665 128.402 46.0147 128.344 46.7682 128.223C47.2213 128.144 47.6587 128.044 48.1171 127.928C48.4121 127.849 48.7125 127.77 48.9865 127.67C49.2815 127.57 49.5608 127.469 49.8401 127.354C50.2563 127.174 50.6726 126.979 51.0888 126.758C51.2258 126.679 51.3681 126.621 51.484 126.542L82.0077 108.913C82.7032 108.518 83.3566 108.06 83.9678 107.549C84.3629 107.212 84.7581 106.853 85.1164 106.479C86.5601 104.957 87.6508 103.134 88.3042 101.153C88.5413 100.399 88.7205 99.6459 88.8417 98.8556V98.8135C88.8996 98.3972 88.9418 97.981 88.9628 97.5648V97.4067C88.9628 97.2065 88.9839 97.0116 88.9839 96.7903V61.5327C89.063 59.7519 88.6888 57.929 87.9933 56.2641L87.9301 56.2588ZM4.24159 61.6065V60.9532C4.24159 57.8815 5.88554 55.0312 8.54115 53.5033L9.0944 53.1872L39.6181 35.5584L40.1713 35.2423C42.8269 33.6986 46.1148 33.6986 48.7704 35.2423L49.3237 35.5584L73.6088 49.5835L79.8474 53.1872C82.856 54.9311 84.7212 58.1397 84.7212 61.6223V73.0288L50.5303 92.7756C47.0843 94.7777 42.8269 94.7777 39.3599 92.7756L4.37859 72.5757C4.33644 72.5547 4.29955 72.5178 4.2574 72.4967V61.6012H4.23633L4.24159 61.6065ZM4.24159 82.8601L21.1974 92.6439L36.2933 101.358C38.9278 102.881 41.9207 103.676 44.9504 103.676C47.9801 103.676 50.9729 102.886 53.6074 101.358L84.7634 83.3764V93.5554L50.5356 113.323C47.0896 115.325 42.8322 115.325 39.3652 113.323L4.35751 93.1181C4.31536 93.097 4.27848 93.0601 4.23633 93.039V82.8601H4.24159Z" fill="#314632"/>
<path d="M9.10982 53.1865L8.55657 53.5026C5.90096 55.0463 4.25701 57.8809 4.25701 60.9525V61.6058C4.23594 58.139 6.10118 54.9094 9.10982 53.1865Z" fill="#131718"/>
<path d="M54.313 61.7647C57.1267 61.7647 59.3818 58.5982 59.3818 54.6731C59.3818 50.748 57.1056 47.5815 54.313 47.5815C51.5204 47.5815 49.2441 50.748 49.2441 54.6731C49.2441 58.5982 51.5204 61.7647 54.313 61.7647Z" fill="#131718"/>
<path d="M56.1572 68.0445C56.1572 69.4512 58.0172 70.5787 60.3145 70.5787C62.6118 70.5787 64.4718 69.4512 64.4718 68.0445C64.4718 66.6377 62.6118 65.5103 60.3145 65.5103C58.0172 65.5103 56.1572 66.6377 56.1572 68.0445Z" fill="#EE2467"/>
<path d="M34.686 61.7647C37.4997 61.7647 39.7549 58.5982 39.7549 54.6731C39.7549 50.748 37.4786 47.5815 34.686 47.5815C31.8934 47.5815 29.6172 50.748 29.6172 54.6731C29.6172 58.5982 31.8934 61.7647 34.686 61.7647Z" fill="#131718"/>
<path d="M28.7003 70.5787C30.9976 70.5787 32.8575 69.4512 32.8575 68.0445C32.8575 66.6377 30.9976 65.5103 28.7003 65.5103C26.4029 65.5103 24.543 66.6377 24.543 68.0445C24.543 69.4512 26.4029 70.5787 28.7003 70.5787Z" fill="#EE2467"/>
<mask id="mask0_986_108" style="mask-type:alpha" maskUnits="userSpaceOnUse" x="4" y="82" width="81" height="33">
<path d="M39.3771 113.234C42.823 115.236 47.0804 115.236 50.5475 113.234L84.7753 93.4658V83.2868L53.5983 101.269C50.9637 102.791 47.9709 103.587 44.9412 103.587C41.9115 103.587 38.9187 102.797 36.2841 101.269L21.1883 92.5543L4.23242 82.7705V92.9495C4.27457 92.9706 4.31146 93.0074 4.35361 93.0285L39.3718 113.234H39.3771Z" fill="#F9E055"/>
</mask>
<g mask="url(#mask0_986_108)">
<path d="M88.0164 133.073C95.0776 132.886 96.4918 112.765 96.4918 112.765H79.541C79.541 112.765 80.9552 132.886 88.0164 133.073Z" fill="#75A97D" stroke="#231F20" stroke-width="0.5" stroke-miterlimit="10"/>
<path d="M70.8494 133.073C77.9106 132.886 79.3248 112.765 79.3248 112.765H62.374C62.374 112.765 63.7882 132.886 70.8494 133.073Z" fill="#75A97D" stroke="#231F20" stroke-width="0.5" stroke-miterlimit="10"/>
<path d="M53.6824 133.073C60.7436 132.886 62.1578 112.765 62.1578 112.765H45.207C45.207 112.765 46.6212 132.886 53.6824 133.073Z" fill="#75A97D" stroke="#231F20" stroke-width="0.5" stroke-miterlimit="10"/>
<path d="M2.17948 133.073C9.24065 132.886 10.6549 112.765 10.6549 112.765H-6.2959C-6.2959 112.765 -4.88169 132.886 2.17948 133.073Z" fill="#75A97D" stroke="#231F20" stroke-width="0.5" stroke-miterlimit="10"/>
<path d="M19.3465 133.073C26.4076 132.886 27.8218 112.765 27.8218 112.765H10.8711C10.8711 112.765 12.2853 132.886 19.3465 133.073Z" fill="#75A97D" stroke="#231F20" stroke-width="0.5" stroke-miterlimit="10"/>
<path d="M36.5144 133.073C43.5756 132.886 44.9898 112.765 44.9898 112.765H28.0391C28.0391 112.765 29.4533 132.886 36.5144 133.073Z" fill="#75A97D" stroke="#231F20" stroke-width="0.5" stroke-miterlimit="10"/>
<path d="M88.0164 133.073C95.0776 132.886 96.4918 112.765 96.4918 112.765H79.541C79.541 112.765 80.9552 132.886 88.0164 133.073Z" fill="#75A97D" stroke="#231F20" stroke-width="0.5" stroke-miterlimit="10"/>
<path d="M70.8494 133.073C77.9106 132.886 79.3248 112.765 79.3248 112.765H62.374C62.374 112.765 63.7882 132.886 70.8494 133.073Z" fill="#75A97D" stroke="#231F20" stroke-width="0.5" stroke-miterlimit="10"/>
<path d="M53.6824 133.073C60.7436 132.886 62.1578 112.765 62.1578 112.765H45.207C45.207 112.765 46.6212 132.886 53.6824 133.073Z" fill="#75A97D" stroke="#231F20" stroke-width="0.5" stroke-miterlimit="10"/>
<path d="M2.17948 133.073C9.24065 132.886 10.6549 112.765 10.6549 112.765H-6.2959C-6.2959 112.765 -4.88169 132.886 2.17948 133.073Z" fill="#75A97D" stroke="#231F20" stroke-width="0.5" stroke-miterlimit="10"/>
<path d="M19.3465 133.073C26.4076 132.886 27.8218 112.765 27.8218 112.765H10.8711C10.8711 112.765 12.2853 132.886 19.3465 133.073Z" fill="#75A97D" stroke="#231F20" stroke-width="0.5" stroke-miterlimit="10"/>
<path d="M36.5144 133.073C43.5756 132.886 44.9898 112.765 44.9898 112.765H28.0391C28.0391 112.765 29.4533 132.886 36.5144 133.073Z" fill="#75A97D" stroke="#231F20" stroke-width="0.5" stroke-miterlimit="10"/>
<path d="M79.1912 129.47C86.2524 129.283 87.6666 109.162 87.6666 109.162H70.7158C70.7158 109.162 72.13 129.283 79.1912 129.47Z" fill="#75A97D" stroke="#231F20" stroke-width="0.5" stroke-miterlimit="10"/>
<path d="M62.0242 129.47C69.0854 129.283 70.4996 109.162 70.4996 109.162H53.5488C53.5488 109.162 54.963 129.283 62.0242 129.47Z" fill="#75A97D" stroke="#231F20" stroke-width="0.5" stroke-miterlimit="10"/>
<path d="M10.5262 129.47C17.5873 129.283 19.0015 109.162 19.0015 109.162H2.05078C2.05078 109.162 3.46498 129.283 10.5262 129.47Z" fill="#75A97D" stroke="#231F20" stroke-width="0.5" stroke-miterlimit="10"/>
<path d="M27.6941 129.47C34.7553 129.283 36.1695 109.162 36.1695 109.162H19.2188C19.2188 109.162 20.633 129.283 27.6941 129.47Z" fill="#75A97D" stroke="#231F20" stroke-width="0.5" stroke-miterlimit="10"/>
<path d="M44.8611 129.47C51.9223 129.283 53.3365 109.162 53.3365 109.162H36.3857C36.3857 109.162 37.7999 129.283 44.8611 129.47Z" fill="#75A97D" stroke="#231F20" stroke-width="0.5" stroke-miterlimit="10"/>
<path d="M88.4461 126.075C95.5073 125.888 96.9215 105.767 96.9215 105.767H79.9707C79.9707 105.767 81.3849 125.888 88.4461 126.075Z" fill="#75A97D" stroke="#231F20" stroke-width="0.5" stroke-miterlimit="10"/>
<path d="M71.2781 126.075C78.3393 125.888 79.7535 105.767 79.7535 105.767H62.8027C62.8027 105.767 64.2169 125.888 71.2781 126.075Z" fill="#75A97D" stroke="#231F20" stroke-width="0.5" stroke-miterlimit="10"/>
<path d="M54.115 126.075C61.1762 125.888 62.5904 105.767 62.5904 105.767H45.6396C45.6396 105.767 47.0539 125.888 54.115 126.075Z" fill="#75A97D" stroke="#231F20" stroke-width="0.5" stroke-miterlimit="10"/>
<path d="M2.61209 126.075C9.67326 125.888 11.0875 105.767 11.0875 105.767H-5.86328C-5.86328 105.767 -4.44908 125.888 2.61209 126.075Z" fill="#75A97D" stroke="#231F20" stroke-width="0.5" stroke-miterlimit="10"/>
<path d="M19.7801 126.075C26.8412 125.888 28.2554 105.767 28.2554 105.767H11.3047C11.3047 105.767 12.7189 125.888 19.7801 126.075Z" fill="#75A97D" stroke="#231F20" stroke-width="0.5" stroke-miterlimit="10"/>
<path d="M36.948 126.075C44.0092 125.888 45.4234 105.767 45.4234 105.767H28.4727C28.4727 105.767 29.8869 125.888 36.948 126.075Z" fill="#75A97D" stroke="#231F20" stroke-width="0.5" stroke-miterlimit="10"/>
<path d="M79.1912 123.157C86.2524 122.97 87.6666 102.85 87.6666 102.85H70.7158C70.7158 102.85 72.13 122.97 79.1912 123.157Z" fill="#75A97D" stroke="#231F20" stroke-width="0.5" stroke-miterlimit="10"/>
<path d="M62.0242 123.157C69.0854 122.97 70.4996 102.85 70.4996 102.85H53.5488C53.5488 102.85 54.963 122.97 62.0242 123.157Z" fill="#75A97D" stroke="#231F20" stroke-width="0.5" stroke-miterlimit="10"/>
<path d="M10.5262 123.157C17.5873 122.97 19.0015 102.85 19.0015 102.85H2.05078C2.05078 102.85 3.46498 122.97 10.5262 123.157Z" fill="#75A97D" stroke="#231F20" stroke-width="0.5" stroke-miterlimit="10"/>
<path d="M27.6941 123.157C34.7553 122.97 36.1695 102.85 36.1695 102.85H19.2188C19.2188 102.85 20.633 122.97 27.6941 123.157Z" fill="#75A97D" stroke="#231F20" stroke-width="0.5" stroke-miterlimit="10"/>
<path d="M44.8611 123.157C51.9223 122.97 53.3365 102.85 53.3365 102.85H36.3857C36.3857 102.85 37.7999 122.97 44.8611 123.157Z" fill="#75A97D" stroke="#231F20" stroke-width="0.5" stroke-miterlimit="10"/>
<path d="M88.4461 119.762C95.5073 119.575 96.9215 99.4546 96.9215 99.4546H79.9707C79.9707 99.4546 81.3849 119.575 88.4461 119.762Z" fill="#75A97D" stroke="#231F20" stroke-width="0.5" stroke-miterlimit="10"/>
<path d="M71.2781 119.762C78.3393 119.575 79.7535 99.4546 79.7535 99.4546H62.8027C62.8027 99.4546 64.2169 119.575 71.2781 119.762Z" fill="#75A97D" stroke="#231F20" stroke-width="0.5" stroke-miterlimit="10"/>
<path d="M54.115 119.762C61.1762 119.575 62.5904 99.4546 62.5904 99.4546H45.6396C45.6396 99.4546 47.0539 119.575 54.115 119.762Z" fill="#75A97D" stroke="#231F20" stroke-width="0.5" stroke-miterlimit="10"/>
<path d="M2.61209 119.762C9.67326 119.575 11.0875 99.4546 11.0875 99.4546H-5.86328C-5.86328 99.4546 -4.44908 119.575 2.61209 119.762Z" fill="#75A97D" stroke="#231F20" stroke-width="0.5" stroke-miterlimit="10"/>
<path d="M19.7801 119.762C26.8412 119.575 28.2554 99.4546 28.2554 99.4546H11.3047C11.3047 99.4546 12.7189 119.575 19.7801 119.762Z" fill="#75A97D" stroke="#231F20" stroke-width="0.5" stroke-miterlimit="10"/>
<path d="M36.948 119.762C44.0092 119.575 45.4234 99.4546 45.4234 99.4546H28.4727C28.4727 99.4546 29.8869 119.575 36.948 119.762Z" fill="#75A97D" stroke="#231F20" stroke-width="0.5" stroke-miterlimit="10"/>
<path d="M79.6248 116.16C86.686 115.973 88.1002 95.8525 88.1002 95.8525H71.1494C71.1494 95.8525 72.5636 115.973 79.6248 116.16Z" fill="#75A97D" stroke="#231F20" stroke-width="0.5" stroke-miterlimit="10"/>
<path d="M62.4578 116.16C69.519 115.973 70.9332 95.8525 70.9332 95.8525H53.9824C53.9824 95.8525 55.3966 115.973 62.4578 116.16Z" fill="#75A97D" stroke="#231F20" stroke-width="0.5" stroke-miterlimit="10"/>
<path d="M10.9549 116.16C18.016 115.973 19.4302 95.8525 19.4302 95.8525H2.47949C2.47949 95.8525 3.8937 115.973 10.9549 116.16Z" fill="#75A97D" stroke="#231F20" stroke-width="0.5" stroke-miterlimit="10"/>
<path d="M28.1228 116.16C35.184 115.973 36.5982 95.8525 36.5982 95.8525H19.6475C19.6475 95.8525 21.0617 115.973 28.1228 116.16Z" fill="#75A97D" stroke="#231F20" stroke-width="0.5" stroke-miterlimit="10"/>
<path d="M45.2898 116.16C52.351 115.973 53.7652 95.8525 53.7652 95.8525H36.8145C36.8145 95.8525 38.2287 115.973 45.2898 116.16Z" fill="#75A97D" stroke="#231F20" stroke-width="0.5" stroke-miterlimit="10"/>
<path d="M88.8787 112.765C95.9399 112.578 97.3541 92.457 97.3541 92.457H80.4033C80.4033 92.457 81.8175 112.578 88.8787 112.765Z" fill="#75A97D" stroke="#231F20" stroke-width="0.5" stroke-miterlimit="10"/>
<path d="M71.7117 112.765C78.7729 112.578 80.1871 92.457 80.1871 92.457H63.2363C63.2363 92.457 64.6505 112.578 71.7117 112.765Z" fill="#75A97D" stroke="#231F20" stroke-width="0.5" stroke-miterlimit="10"/>
<path d="M54.5437 112.765C61.6049 112.578 63.0191 92.457 63.0191 92.457H46.0684C46.0684 92.457 47.4826 112.578 54.5437 112.765Z" fill="#75A97D" stroke="#231F20" stroke-width="0.5" stroke-miterlimit="10"/>
<path d="M3.04667 112.765C10.1078 112.578 11.522 92.457 11.522 92.457H-5.42871C-5.42871 92.457 -4.0145 112.578 3.04667 112.765Z" fill="#75A97D" stroke="#231F20" stroke-width="0.5" stroke-miterlimit="10"/>
<path d="M20.2088 112.765C27.2699 112.578 28.6842 92.457 28.6842 92.457H11.7334C11.7334 92.457 13.1476 112.578 20.2088 112.765Z" fill="#75A97D" stroke="#231F20" stroke-width="0.5" stroke-miterlimit="10"/>
<path d="M37.3758 112.765C44.4369 112.578 45.8511 92.457 45.8511 92.457H28.9004C28.9004 92.457 30.3146 112.578 37.3758 112.765Z" fill="#75A97D" stroke="#231F20" stroke-width="0.5" stroke-miterlimit="10"/>
<path d="M79.6248 116.16C86.686 115.973 88.1002 95.8525 88.1002 95.8525H71.1494C71.1494 95.8525 72.5636 115.973 79.6248 116.16Z" fill="#75A97D" stroke="#231F20" stroke-width="0.5" stroke-miterlimit="10"/>
<path d="M62.4578 116.16C69.519 115.973 70.9332 95.8525 70.9332 95.8525H53.9824C53.9824 95.8525 55.3966 115.973 62.4578 116.16Z" fill="#75A97D" stroke="#231F20" stroke-width="0.5" stroke-miterlimit="10"/>
<path d="M10.9549 116.16C18.016 115.973 19.4302 95.8525 19.4302 95.8525H2.47949C2.47949 95.8525 3.8937 115.973 10.9549 116.16Z" fill="#75A97D" stroke="#231F20" stroke-width="0.5" stroke-miterlimit="10"/>
<path d="M28.1228 116.16C35.184 115.973 36.5982 95.8525 36.5982 95.8525H19.6475C19.6475 95.8525 21.0617 115.973 28.1228 116.16Z" fill="#75A97D" stroke="#231F20" stroke-width="0.5" stroke-miterlimit="10"/>
<path d="M45.2898 116.16C52.351 115.973 53.7652 95.8525 53.7652 95.8525H36.8145C36.8145 95.8525 38.2287 115.973 45.2898 116.16Z" fill="#75A97D" stroke="#231F20" stroke-width="0.5" stroke-miterlimit="10"/>
<path d="M88.8787 112.765C95.9399 112.578 97.3541 92.457 97.3541 92.457H80.4033C80.4033 92.457 81.8175 112.578 88.8787 112.765Z" fill="#75A97D" stroke="#231F20" stroke-width="0.5" stroke-miterlimit="10"/>
<path d="M71.7117 112.765C78.7729 112.578 80.1871 92.457 80.1871 92.457H63.2363C63.2363 92.457 64.6505 112.578 71.7117 112.765Z" fill="#75A97D" stroke="#231F20" stroke-width="0.5" stroke-miterlimit="10"/>
<path d="M54.5437 112.765C61.6049 112.578 63.0191 92.457 63.0191 92.457H46.0684C46.0684 92.457 47.4826 112.578 54.5437 112.765Z" fill="#75A97D" stroke="#231F20" stroke-width="0.5" stroke-miterlimit="10"/>
<path d="M3.04667 112.765C10.1078 112.578 11.522 92.457 11.522 92.457H-5.42871C-5.42871 92.457 -4.0145 112.578 3.04667 112.765Z" fill="#75A97D" stroke="#231F20" stroke-width="0.5" stroke-miterlimit="10"/>
<path d="M20.2088 112.765C27.2699 112.578 28.6842 92.457 28.6842 92.457H11.7334C11.7334 92.457 13.1476 112.578 20.2088 112.765Z" fill="#75A97D" stroke="#231F20" stroke-width="0.5" stroke-miterlimit="10"/>
<path d="M37.3758 112.765C44.4369 112.578 45.8511 92.457 45.8511 92.457H28.9004C28.9004 92.457 30.3146 112.578 37.3758 112.765Z" fill="#75A97D" stroke="#231F20" stroke-width="0.5" stroke-miterlimit="10"/>
<path d="M80.0545 109.162C87.1157 108.975 88.5299 88.8545 88.5299 88.8545H71.5791C71.5791 88.8545 72.9933 108.975 80.0545 109.162Z" fill="#75A97D" stroke="#231F20" stroke-width="0.5" stroke-miterlimit="10"/>
<path d="M62.8914 109.162C69.9526 108.975 71.3668 88.8545 71.3668 88.8545H54.416C54.416 88.8545 55.8302 108.975 62.8914 109.162Z" fill="#75A97D" stroke="#231F20" stroke-width="0.5" stroke-miterlimit="10"/>
<path d="M11.3885 109.162C18.4496 108.975 19.8638 88.8545 19.8638 88.8545H2.91309C2.91309 88.8545 4.32729 108.975 11.3885 109.162Z" fill="#75A97D" stroke="#231F20" stroke-width="0.5" stroke-miterlimit="10"/>
<path d="M28.5564 109.162C35.6176 108.975 37.0318 88.8545 37.0318 88.8545H20.0811C20.0811 88.8545 21.4953 108.975 28.5564 109.162Z" fill="#75A97D" stroke="#231F20" stroke-width="0.5" stroke-miterlimit="10"/>
<path d="M45.7234 109.162C52.7846 108.975 54.1988 88.8545 54.1988 88.8545H37.248C37.248 88.8545 38.6623 108.975 45.7234 109.162Z" fill="#75A97D" stroke="#231F20" stroke-width="0.5" stroke-miterlimit="10"/>
<path d="M89.3074 105.767C96.3686 105.58 97.7828 85.459 97.7828 85.459H80.832C80.832 85.459 82.2462 105.58 89.3074 105.767Z" fill="#75A97D" stroke="#231F20" stroke-width="0.5" stroke-miterlimit="10"/>
<path d="M72.1453 105.767C79.2065 105.58 80.6207 85.459 80.6207 85.459H63.6699C63.6699 85.459 65.0841 105.58 72.1453 105.767Z" fill="#75A97D" stroke="#231F20" stroke-width="0.5" stroke-miterlimit="10"/>
<path d="M54.9773 105.767C62.0385 105.58 63.4527 85.459 63.4527 85.459H46.502C46.502 85.459 47.9162 105.58 54.9773 105.767Z" fill="#75A97D" stroke="#231F20" stroke-width="0.5" stroke-miterlimit="10"/>
<path d="M3.47537 105.767C10.5365 105.58 11.9507 85.459 11.9507 85.459H-5C-5 85.459 -3.5858 105.58 3.47537 105.767Z" fill="#75A97D" stroke="#231F20" stroke-width="0.5" stroke-miterlimit="10"/>
<path d="M20.6424 105.767C27.7035 105.58 29.1177 85.459 29.1177 85.459H12.167C12.167 85.459 13.5812 105.58 20.6424 105.767Z" fill="#75A97D" stroke="#231F20" stroke-width="0.5" stroke-miterlimit="10"/>
<path d="M37.8103 105.767C44.8715 105.58 46.2857 85.459 46.2857 85.459H29.335C29.335 85.459 30.7492 105.58 37.8103 105.767Z" fill="#75A97D" stroke="#231F20" stroke-width="0.5" stroke-miterlimit="10"/>
<path d="M79.9412 102.737C87.0024 102.549 88.4166 82.4287 88.4166 82.4287H71.4658C71.4658 82.4287 72.88 102.549 79.9412 102.737Z" fill="#75A97D" stroke="#231F20" stroke-width="0.5" stroke-miterlimit="10"/>
<path d="M62.7732 102.737C69.8344 102.549 71.2486 82.4287 71.2486 82.4287H54.2979C54.2979 82.4287 55.7121 102.549 62.7732 102.737Z" fill="#75A97D" stroke="#231F20" stroke-width="0.5" stroke-miterlimit="10"/>
<path d="M11.2752 102.737C18.3363 102.549 19.7506 82.4287 19.7506 82.4287H2.7998C2.7998 82.4287 4.21401 102.549 11.2752 102.737Z" fill="#75A97D" stroke="#231F20" stroke-width="0.5" stroke-miterlimit="10"/>
<path d="M28.4431 102.737C35.5043 102.549 36.9185 82.4287 36.9185 82.4287H19.9678C19.9678 82.4287 21.382 102.549 28.4431 102.737Z" fill="#75A97D" stroke="#231F20" stroke-width="0.5" stroke-miterlimit="10"/>
<path d="M45.6101 102.737C52.6713 102.549 54.0855 82.4287 54.0855 82.4287H37.1348C37.1348 82.4287 38.549 102.549 45.6101 102.737Z" fill="#75A97D" stroke="#231F20" stroke-width="0.5" stroke-miterlimit="10"/>
<path d="M89.1941 99.3411C96.2553 99.1538 97.6695 79.0332 97.6695 79.0332H80.7188C80.7188 79.0332 82.1329 99.1538 89.1941 99.3411Z" fill="#75A97D" stroke="#231F20" stroke-width="0.5" stroke-miterlimit="10"/>
<path d="M72.0271 99.3411C79.0883 99.1538 80.5025 79.0332 80.5025 79.0332H63.5518C63.5518 79.0332 64.966 99.1538 72.0271 99.3411Z" fill="#75A97D" stroke="#231F20" stroke-width="0.5" stroke-miterlimit="10"/>
<path d="M54.8641 99.3411C61.9252 99.1538 63.3394 79.0332 63.3394 79.0332H46.3887C46.3887 79.0332 47.8029 99.1538 54.8641 99.3411Z" fill="#75A97D" stroke="#231F20" stroke-width="0.5" stroke-miterlimit="10"/>
<path d="M3.3621 99.3411C10.4233 99.1538 11.8375 79.0332 11.8375 79.0332H-5.11328C-5.11328 79.0332 -3.69907 99.1538 3.3621 99.3411Z" fill="#75A97D" stroke="#231F20" stroke-width="0.5" stroke-miterlimit="10"/>
<path d="M20.5291 99.3411C27.5903 99.1538 29.0045 79.0332 29.0045 79.0332H12.0537C12.0537 79.0332 13.4679 99.1538 20.5291 99.3411Z" fill="#75A97D" stroke="#231F20" stroke-width="0.5" stroke-miterlimit="10"/>
<path d="M37.6971 99.3411C44.7582 99.1538 46.1724 79.0332 46.1724 79.0332H29.2217C29.2217 79.0332 30.6359 99.1538 37.6971 99.3411Z" fill="#75A97D" stroke="#231F20" stroke-width="0.5" stroke-miterlimit="10"/>
<path d="M80.3738 95.739C87.435 95.5518 88.8492 75.4312 88.8492 75.4312H71.8984C71.8984 75.4312 73.3126 95.5518 80.3738 95.739Z" fill="#75A97D" stroke="#231F20" stroke-width="0.5" stroke-miterlimit="10"/>
<path d="M63.2068 95.739C70.268 95.5518 71.6822 75.4312 71.6822 75.4312H54.7314C54.7314 75.4312 56.1457 95.5518 63.2068 95.739Z" fill="#75A97D" stroke="#231F20" stroke-width="0.5" stroke-miterlimit="10"/>
<path d="M11.7039 95.739C18.7651 95.5518 20.1793 75.4312 20.1793 75.4312H3.22852C3.22852 75.4312 4.64272 95.5518 11.7039 95.739Z" fill="#75A97D" stroke="#231F20" stroke-width="0.5" stroke-miterlimit="10"/>
<path d="M28.8709 95.739C35.9321 95.5518 37.3463 75.4312 37.3463 75.4312H20.3955C20.3955 75.4312 21.8097 95.5518 28.8709 95.739Z" fill="#75A97D" stroke="#231F20" stroke-width="0.5" stroke-miterlimit="10"/>
<path d="M46.0389 95.739C53.1 95.5518 54.5142 75.4312 54.5142 75.4312H37.5635C37.5635 75.4312 38.9777 95.5518 46.0389 95.739Z" fill="#75A97D" stroke="#231F20" stroke-width="0.5" stroke-miterlimit="10"/>
<path d="M89.6277 92.343C96.6889 92.1558 98.1031 72.0352 98.1031 72.0352H81.1523C81.1523 72.0352 82.5666 92.1558 89.6277 92.343Z" fill="#75A97D" stroke="#231F20" stroke-width="0.5" stroke-miterlimit="10"/>
<path d="M72.4607 92.343C79.5219 92.1558 80.9361 72.0352 80.9361 72.0352H63.9854C63.9854 72.0352 65.3996 92.1558 72.4607 92.343Z" fill="#75A97D" stroke="#231F20" stroke-width="0.5" stroke-miterlimit="10"/>
<path d="M55.2937 92.343C62.3549 92.1558 63.7691 72.0352 63.7691 72.0352H46.8184C46.8184 72.0352 48.2326 92.1558 55.2937 92.343Z" fill="#75A97D" stroke="#231F20" stroke-width="0.5" stroke-miterlimit="10"/>
<path d="M3.79471 92.343C10.8559 92.1558 12.2701 72.0352 12.2701 72.0352H-4.68066C-4.68066 72.0352 -3.26646 92.1558 3.79471 92.343Z" fill="#75A97D" stroke="#231F20" stroke-width="0.5" stroke-miterlimit="10"/>
<path d="M20.9578 92.343C28.019 92.1558 29.4332 72.0352 29.4332 72.0352H12.4824C12.4824 72.0352 13.8966 92.1558 20.9578 92.343Z" fill="#75A97D" stroke="#231F20" stroke-width="0.5" stroke-miterlimit="10"/>
<path d="M38.1258 92.343C45.1869 92.1558 46.6011 72.0352 46.6011 72.0352H29.6504C29.6504 72.0352 31.0646 92.1558 38.1258 92.343Z" fill="#75A97D" stroke="#231F20" stroke-width="0.5" stroke-miterlimit="10"/>
<path d="M80.3738 95.739C87.435 95.5518 88.8492 75.4312 88.8492 75.4312H71.8984C71.8984 75.4312 73.3126 95.5518 80.3738 95.739Z" fill="#75A97D" stroke="#231F20" stroke-width="0.5" stroke-miterlimit="10"/>
<path d="M63.2068 95.739C70.268 95.5518 71.6822 75.4312 71.6822 75.4312H54.7314C54.7314 75.4312 56.1457 95.5518 63.2068 95.739Z" fill="#75A97D" stroke="#231F20" stroke-width="0.5" stroke-miterlimit="10"/>
<path d="M11.7039 95.739C18.7651 95.5518 20.1793 75.4312 20.1793 75.4312H3.22852C3.22852 75.4312 4.64272 95.5518 11.7039 95.739Z" fill="#75A97D" stroke="#231F20" stroke-width="0.5" stroke-miterlimit="10"/>
<path d="M28.8709 95.739C35.9321 95.5518 37.3463 75.4312 37.3463 75.4312H20.3955C20.3955 75.4312 21.8097 95.5518 28.8709 95.739Z" fill="#75A97D" stroke="#231F20" stroke-width="0.5" stroke-miterlimit="10"/>
<path d="M46.0389 95.739C53.1 95.5518 54.5142 75.4312 54.5142 75.4312H37.5635C37.5635 75.4312 38.9777 95.5518 46.0389 95.739Z" fill="#75A97D" stroke="#231F20" stroke-width="0.5" stroke-miterlimit="10"/>
<path d="M89.6277 92.343C96.6889 92.1558 98.1031 72.0352 98.1031 72.0352H81.1523C81.1523 72.0352 82.5666 92.1558 89.6277 92.343Z" fill="#75A97D" stroke="#231F20" stroke-width="0.5" stroke-miterlimit="10"/>
<path d="M72.4607 92.343C79.5219 92.1558 80.9361 72.0352 80.9361 72.0352H63.9854C63.9854 72.0352 65.3996 92.1558 72.4607 92.343Z" fill="#75A97D" stroke="#231F20" stroke-width="0.5" stroke-miterlimit="10"/>
<path d="M55.2937 92.343C62.3549 92.1558 63.7691 72.0352 63.7691 72.0352H46.8184C46.8184 72.0352 48.2326 92.1558 55.2937 92.343Z" fill="#75A97D" stroke="#231F20" stroke-width="0.5" stroke-miterlimit="10"/>
<path d="M3.79471 92.343C10.8559 92.1558 12.2701 72.0352 12.2701 72.0352H-4.68066C-4.68066 72.0352 -3.26646 92.1558 3.79471 92.343Z" fill="#75A97D" stroke="#231F20" stroke-width="0.5" stroke-miterlimit="10"/>
<path d="M20.9578 92.343C28.019 92.1558 29.4332 72.0352 29.4332 72.0352H12.4824C12.4824 72.0352 13.8966 92.1558 20.9578 92.343Z" fill="#75A97D" stroke="#231F20" stroke-width="0.5" stroke-miterlimit="10"/>
<path d="M38.1258 92.343C45.1869 92.1558 46.6011 72.0352 46.6011 72.0352H29.6504C29.6504 72.0352 31.0646 92.1558 38.1258 92.343Z" fill="#75A97D" stroke="#231F20" stroke-width="0.5" stroke-miterlimit="10"/>
<path d="M80.8025 88.741C87.8637 88.5537 89.2779 68.4331 89.2779 68.4331H72.3271C72.3271 68.4331 73.7413 88.5537 80.8025 88.741Z" fill="#75A97D" stroke="#231F20" stroke-width="0.5" stroke-miterlimit="10"/>
<path d="M63.6404 88.741C70.7016 88.5537 72.1158 68.4331 72.1158 68.4331H55.165C55.165 68.4331 56.5793 88.5537 63.6404 88.741Z" fill="#75A97D" stroke="#231F20" stroke-width="0.5" stroke-miterlimit="10"/>
<path d="M12.1375 88.741C19.1987 88.5537 20.6129 68.4331 20.6129 68.4331H3.66211C3.66211 68.4331 5.07631 88.5537 12.1375 88.741Z" fill="#75A97D" stroke="#231F20" stroke-width="0.5" stroke-miterlimit="10"/>
<path d="M29.3055 88.741C36.3666 88.5537 37.7808 68.4331 37.7808 68.4331H20.8301C20.8301 68.4331 22.2443 88.5537 29.3055 88.741Z" fill="#75A97D" stroke="#231F20" stroke-width="0.5" stroke-miterlimit="10"/>
<path d="M46.4724 88.741C53.5336 88.5537 54.9478 68.4331 54.9478 68.4331H37.9971C37.9971 68.4331 39.4113 88.5537 46.4724 88.741Z" fill="#75A97D" stroke="#231F20" stroke-width="0.5" stroke-miterlimit="10"/>
<path d="M90.0574 85.3411C97.1186 85.1538 98.5328 65.0332 98.5328 65.0332H81.582C81.582 65.0332 82.9962 85.1538 90.0574 85.3411Z" fill="#75A97D" stroke="#231F20" stroke-width="0.5" stroke-miterlimit="10"/>
<path d="M72.8943 85.3411C79.9555 85.1538 81.3697 65.0332 81.3697 65.0332H64.4189C64.4189 65.0332 65.8332 85.1538 72.8943 85.3411Z" fill="#75A97D" stroke="#231F20" stroke-width="0.5" stroke-miterlimit="10"/>
<path d="M55.7264 85.3411C62.7875 85.1538 64.2017 65.0332 64.2017 65.0332H47.251C47.251 65.0332 48.6652 85.1538 55.7264 85.3411Z" fill="#75A97D" stroke="#231F20" stroke-width="0.5" stroke-miterlimit="10"/>
<path d="M4.22343 85.3411C11.2846 85.1538 12.6988 65.0332 12.6988 65.0332H-4.25195C-4.25195 65.0332 -2.83774 85.1538 4.22343 85.3411Z" fill="#75A97D" stroke="#231F20" stroke-width="0.5" stroke-miterlimit="10"/>
<path d="M21.3914 85.3411C28.4526 85.1538 29.8668 65.0332 29.8668 65.0332H12.916C12.916 65.0332 14.3302 85.1538 21.3914 85.3411Z" fill="#75A97D" stroke="#231F20" stroke-width="0.5" stroke-miterlimit="10"/>
<path d="M38.5594 85.3411C45.6205 85.1538 47.0347 65.0332 47.0347 65.0332H30.084C30.084 65.0332 31.4982 85.1538 38.5594 85.3411Z" fill="#75A97D" stroke="#231F20" stroke-width="0.5" stroke-miterlimit="10"/>
</g>
<mask id="mask1_986_108" style="mask-type:alpha" maskUnits="userSpaceOnUse" x="4" y="34" width="81" height="61">
<path d="M39.4976 92.7869C42.9436 94.789 47.201 94.789 50.668 92.7869L84.8958 73.0191V61.6125C84.8958 58.1247 83.0359 54.9161 80.0219 53.1775L73.7834 49.5737L49.4983 35.5487C46.4896 33.8047 42.7855 33.8047 39.7716 35.5487L9.24791 53.1775C6.23927 54.9214 4.37402 58.13 4.37402 61.6125V72.508C4.41618 72.5291 4.45306 72.566 4.49521 72.5871L39.4976 92.7922V92.7869ZM64.5941 67.9717C64.5941 69.3785 62.7342 70.506 60.4368 70.506C58.1395 70.506 56.2796 69.3785 56.2796 67.9717C56.2796 66.565 58.1395 65.4375 60.4368 65.4375C62.7342 65.4375 64.5941 66.565 64.5941 67.9717ZM54.4301 47.5295C57.2438 47.5295 59.499 50.6959 59.499 54.6211C59.499 58.5462 57.2227 61.7126 54.4301 61.7126C51.6375 61.7126 49.3613 58.5462 49.3613 54.6211C49.3613 50.6959 51.6375 47.5295 54.4301 47.5295ZM34.8029 47.5295C37.6165 47.5295 39.8717 50.6959 39.8717 54.6211C39.8717 58.5462 37.5955 61.7126 34.8029 61.7126C32.0103 61.7126 29.734 58.5462 29.734 54.6211C29.734 50.6959 32.0103 47.5295 34.8029 47.5295ZM28.8172 65.4323C31.1145 65.4323 32.9745 66.5598 32.9745 67.9665C32.9745 69.3732 31.1145 70.5007 28.8172 70.5007C26.5199 70.5007 24.6599 69.3732 24.6599 67.9665C24.6599 66.5598 26.5199 65.4323 28.8172 65.4323Z" fill="#F9E055"/>
</mask>
<g mask="url(#mask1_986_108)">
<path d="M90.2888 113.242C97.35 113.055 98.7642 92.9341 98.7642 92.9341H81.8135C81.8135 92.9341 83.2277 113.055 90.2888 113.242Z" fill="#75A97D" stroke="#231F20" stroke-width="0.5" stroke-miterlimit="10"/>
<path d="M73.1219 113.242C80.183 113.055 81.5972 92.9341 81.5972 92.9341H64.6465C64.6465 92.9341 66.0607 113.055 73.1219 113.242Z" fill="#75A97D" stroke="#231F20" stroke-width="0.5" stroke-miterlimit="10"/>
<path d="M55.9539 113.242C63.0151 113.055 64.4293 92.9341 64.4293 92.9341H47.4785C47.4785 92.9341 48.8927 113.055 55.9539 113.242Z" fill="#75A97D" stroke="#231F20" stroke-width="0.5" stroke-miterlimit="10"/>
<path d="M4.45584 113.242C11.517 113.055 12.9312 92.9341 12.9312 92.9341H-4.01953C-4.01953 92.9341 -2.60533 113.055 4.45584 113.242Z" fill="#75A97D" stroke="#231F20" stroke-width="0.5" stroke-miterlimit="10"/>
<path d="M21.6238 113.242C28.685 113.055 30.0992 92.9341 30.0992 92.9341H13.1484C13.1484 92.9341 14.5626 113.055 21.6238 113.242Z" fill="#75A97D" stroke="#231F20" stroke-width="0.5" stroke-miterlimit="10"/>
<path d="M38.7918 113.242C45.853 113.055 47.2672 92.9341 47.2672 92.9341H30.3164C30.3164 92.9341 31.7306 113.055 38.7918 113.242Z" fill="#75A97D" stroke="#231F20" stroke-width="0.5" stroke-miterlimit="10"/>
<path d="M82.3748 109.846C89.436 109.659 90.8502 89.5386 90.8502 89.5386H73.8994C73.8994 89.5386 75.3136 109.659 82.3748 109.846Z" fill="#75A97D" stroke="#231F20" stroke-width="0.5" stroke-miterlimit="10"/>
<path d="M65.2078 109.846C72.269 109.659 73.6832 89.5386 73.6832 89.5386H56.7324C56.7324 89.5386 58.1466 109.659 65.2078 109.846Z" fill="#75A97D" stroke="#231F20" stroke-width="0.5" stroke-miterlimit="10"/>
<path d="M48.0447 109.846C55.1059 109.659 56.5201 89.5386 56.5201 89.5386H39.5693C39.5693 89.5386 40.9835 109.659 48.0447 109.846Z" fill="#75A97D" stroke="#231F20" stroke-width="0.5" stroke-miterlimit="10"/>
<path d="M-3.45724 109.846C3.60394 109.659 5.01814 89.5386 5.01814 89.5386H-11.9326C-11.9326 89.5386 -10.5184 109.659 -3.45724 109.846Z" fill="#75A97D" stroke="#231F20" stroke-width="0.5" stroke-miterlimit="10"/>
<path d="M13.7097 109.846C20.7709 109.659 22.1851 89.5386 22.1851 89.5386H5.23438C5.23438 89.5386 6.64858 109.659 13.7097 109.846Z" fill="#75A97D" stroke="#231F20" stroke-width="0.5" stroke-miterlimit="10"/>
<path d="M30.8777 109.846C37.9389 109.659 39.3531 89.5386 39.3531 89.5386H22.4023C22.4023 89.5386 23.8165 109.659 30.8777 109.846Z" fill="#75A97D" stroke="#231F20" stroke-width="0.5" stroke-miterlimit="10"/>
<path d="M90.7224 106.244C97.7836 106.057 99.1978 85.9365 99.1978 85.9365H82.2471C82.2471 85.9365 83.6613 106.057 90.7224 106.244Z" fill="#75A97D" stroke="#231F20" stroke-width="0.5" stroke-miterlimit="10"/>
<path d="M73.5555 106.244C80.6166 106.057 82.0308 85.9365 82.0308 85.9365H65.0801C65.0801 85.9365 66.4943 106.057 73.5555 106.244Z" fill="#75A97D" stroke="#231F20" stroke-width="0.5" stroke-miterlimit="10"/>
<path d="M56.3875 106.244C63.4487 106.057 64.8629 85.9365 64.8629 85.9365H47.9121C47.9121 85.9365 49.3263 106.057 56.3875 106.244Z" fill="#75A97D" stroke="#231F20" stroke-width="0.5" stroke-miterlimit="10"/>
<path d="M4.88455 106.244C11.9457 106.057 13.3599 85.9365 13.3599 85.9365H-3.59082C-3.59082 85.9365 -2.17662 106.057 4.88455 106.244Z" fill="#75A97D" stroke="#231F20" stroke-width="0.5" stroke-miterlimit="10"/>
<path d="M22.0515 106.244C29.1127 106.057 30.5269 85.9365 30.5269 85.9365H13.5762C13.5762 85.9365 14.9904 106.057 22.0515 106.244Z" fill="#75A97D" stroke="#231F20" stroke-width="0.5" stroke-miterlimit="10"/>
<path d="M39.2195 106.244C46.2807 106.057 47.6949 85.9365 47.6949 85.9365H30.7441C30.7441 85.9365 32.1584 106.057 39.2195 106.244Z" fill="#75A97D" stroke="#231F20" stroke-width="0.5" stroke-miterlimit="10"/>
<path d="M82.8094 102.849C89.8705 102.662 91.2847 82.541 91.2847 82.541H74.334C74.334 82.541 75.7482 102.662 82.8094 102.849Z" fill="#75A97D" stroke="#231F20" stroke-width="0.5" stroke-miterlimit="10"/>
<path d="M65.6414 102.849C72.7026 102.662 74.1168 82.541 74.1168 82.541H57.166C57.166 82.541 58.5802 102.662 65.6414 102.849Z" fill="#75A97D" stroke="#231F20" stroke-width="0.5" stroke-miterlimit="10"/>
<path d="M48.4744 102.849C55.5356 102.662 56.9498 82.541 56.9498 82.541H39.999C39.999 82.541 41.4132 102.662 48.4744 102.849Z" fill="#75A97D" stroke="#231F20" stroke-width="0.5" stroke-miterlimit="10"/>
<path d="M-3.02365 102.849C4.03752 102.662 5.45173 82.541 5.45173 82.541H-11.499C-11.499 82.541 -10.0848 102.662 -3.02365 102.849Z" fill="#75A97D" stroke="#231F20" stroke-width="0.5" stroke-miterlimit="10"/>
<path d="M14.1385 102.849C21.1996 102.662 22.6138 82.541 22.6138 82.541H5.66309C5.66309 82.541 7.07729 102.662 14.1385 102.849Z" fill="#75A97D" stroke="#231F20" stroke-width="0.5" stroke-miterlimit="10"/>
<path d="M31.3064 102.849C38.3676 102.662 39.7818 82.541 39.7818 82.541H22.8311C22.8311 82.541 24.2453 102.662 31.3064 102.849Z" fill="#75A97D" stroke="#231F20" stroke-width="0.5" stroke-miterlimit="10"/>
<path d="M90.7224 106.244C97.7836 106.057 99.1978 85.9365 99.1978 85.9365H82.2471C82.2471 85.9365 83.6613 106.057 90.7224 106.244Z" fill="#75A97D" stroke="#231F20" stroke-width="0.5" stroke-miterlimit="10"/>
<path d="M73.5555 106.244C80.6166 106.057 82.0308 85.9365 82.0308 85.9365H65.0801C65.0801 85.9365 66.4943 106.057 73.5555 106.244Z" fill="#75A97D" stroke="#231F20" stroke-width="0.5" stroke-miterlimit="10"/>
<path d="M56.3875 106.244C63.4487 106.057 64.8629 85.9365 64.8629 85.9365H47.9121C47.9121 85.9365 49.3263 106.057 56.3875 106.244Z" fill="#75A97D" stroke="#231F20" stroke-width="0.5" stroke-miterlimit="10"/>
<path d="M4.88455 106.244C11.9457 106.057 13.3599 85.9365 13.3599 85.9365H-3.59082C-3.59082 85.9365 -2.17662 106.057 4.88455 106.244Z" fill="#75A97D" stroke="#231F20" stroke-width="0.5" stroke-miterlimit="10"/>
<path d="M22.0515 106.244C29.1127 106.057 30.5269 85.9365 30.5269 85.9365H13.5762C13.5762 85.9365 14.9904 106.057 22.0515 106.244Z" fill="#75A97D" stroke="#231F20" stroke-width="0.5" stroke-miterlimit="10"/>
<path d="M39.2195 106.244C46.2807 106.057 47.6949 85.9365 47.6949 85.9365H30.7441C30.7441 85.9365 32.1584 106.057 39.2195 106.244Z" fill="#75A97D" stroke="#231F20" stroke-width="0.5" stroke-miterlimit="10"/>
<path d="M82.8094 102.849C89.8705 102.662 91.2847 82.541 91.2847 82.541H74.334C74.334 82.541 75.7482 102.662 82.8094 102.849Z" fill="#75A97D" stroke="#231F20" stroke-width="0.5" stroke-miterlimit="10"/>
<path d="M65.6414 102.849C72.7026 102.662 74.1168 82.541 74.1168 82.541H57.166C57.166 82.541 58.5802 102.662 65.6414 102.849Z" fill="#75A97D" stroke="#231F20" stroke-width="0.5" stroke-miterlimit="10"/>
<path d="M48.4744 102.849C55.5356 102.662 56.9498 82.541 56.9498 82.541H39.999C39.999 82.541 41.4132 102.662 48.4744 102.849Z" fill="#75A97D" stroke="#231F20" stroke-width="0.5" stroke-miterlimit="10"/>
<path d="M-3.02365 102.849C4.03752 102.662 5.45173 82.541 5.45173 82.541H-11.499C-11.499 82.541 -10.0848 102.662 -3.02365 102.849Z" fill="#75A97D" stroke="#231F20" stroke-width="0.5" stroke-miterlimit="10"/>
<path d="M14.1385 102.849C21.1996 102.662 22.6138 82.541 22.6138 82.541H5.66309C5.66309 82.541 7.07729 102.662 14.1385 102.849Z" fill="#75A97D" stroke="#231F20" stroke-width="0.5" stroke-miterlimit="10"/>
<path d="M31.3064 102.849C38.3676 102.662 39.7818 82.541 39.7818 82.541H22.8311C22.8311 82.541 24.2453 102.662 31.3064 102.849Z" fill="#75A97D" stroke="#231F20" stroke-width="0.5" stroke-miterlimit="10"/>
<path d="M91.1511 99.2463C98.2123 99.0591 99.6265 78.9385 99.6265 78.9385H82.6758C82.6758 78.9385 84.09 99.0591 91.1511 99.2463Z" fill="#75A97D" stroke="#231F20" stroke-width="0.5" stroke-miterlimit="10"/>
<path d="M73.9832 99.2463C81.0443 99.0591 82.4586 78.9385 82.4586 78.9385H65.5078C65.5078 78.9385 66.922 99.0591 73.9832 99.2463Z" fill="#75A97D" stroke="#231F20" stroke-width="0.5" stroke-miterlimit="10"/>
<path d="M56.8201 99.2463C63.8813 99.0591 65.2955 78.9385 65.2955 78.9385H48.3447C48.3447 78.9385 49.7589 99.0591 56.8201 99.2463Z" fill="#75A97D" stroke="#231F20" stroke-width="0.5" stroke-miterlimit="10"/>
<path d="M5.31815 99.2463C12.3793 99.0591 13.7935 78.9385 13.7935 78.9385H-3.15723C-3.15723 78.9385 -1.74302 99.0591 5.31815 99.2463Z" fill="#75A97D" stroke="#231F20" stroke-width="0.5" stroke-miterlimit="10"/>
<path d="M22.4861 99.2463C29.5473 99.0591 30.9615 78.9385 30.9615 78.9385H14.0107C14.0107 78.9385 15.4249 99.0591 22.4861 99.2463Z" fill="#75A97D" stroke="#231F20" stroke-width="0.5" stroke-miterlimit="10"/>
<path d="M39.6531 99.2463C46.7143 99.0591 48.1285 78.9385 48.1285 78.9385H31.1777C31.1777 78.9385 32.5919 99.0591 39.6531 99.2463Z" fill="#75A97D" stroke="#231F20" stroke-width="0.5" stroke-miterlimit="10"/>
<path d="M83.2381 95.8464C90.2992 95.6592 91.7134 75.5386 91.7134 75.5386H74.7627C74.7627 75.5386 76.1769 95.6592 83.2381 95.8464Z" fill="#75A97D" stroke="#231F20" stroke-width="0.5" stroke-miterlimit="10"/>
<path d="M66.075 95.8464C73.1362 95.6592 74.5504 75.5386 74.5504 75.5386H57.5996C57.5996 75.5386 59.0138 95.6592 66.075 95.8464Z" fill="#75A97D" stroke="#231F20" stroke-width="0.5" stroke-miterlimit="10"/>
<path d="M48.907 95.8464C55.9682 95.6592 57.3824 75.5386 57.3824 75.5386H40.4316C40.4316 75.5386 41.8459 95.6592 48.907 95.8464Z" fill="#75A97D" stroke="#231F20" stroke-width="0.5" stroke-miterlimit="10"/>
<path d="M-2.59591 95.8464C4.46526 95.6592 5.87947 75.5386 5.87947 75.5386H-11.0713C-11.0713 75.5386 -9.65708 95.6592 -2.59591 95.8464Z" fill="#75A97D" stroke="#231F20" stroke-width="0.5" stroke-miterlimit="10"/>
<path d="M14.5721 95.8464C21.6332 95.6592 23.0474 75.5386 23.0474 75.5386H6.09668C6.09668 75.5386 7.51088 95.6592 14.5721 95.8464Z" fill="#75A97D" stroke="#231F20" stroke-width="0.5" stroke-miterlimit="10"/>
<path d="M31.74 95.8464C38.8012 95.6592 40.2154 75.5386 40.2154 75.5386H23.2646C23.2646 75.5386 24.6789 95.6592 31.74 95.8464Z" fill="#75A97D" stroke="#231F20" stroke-width="0.5" stroke-miterlimit="10"/>
<path d="M91.1511 92.9339C98.2123 92.7466 99.6265 72.626 99.6265 72.626H82.6758C82.6758 72.626 84.09 92.7466 91.1511 92.9339Z" fill="#75A97D" stroke="#231F20" stroke-width="0.5" stroke-miterlimit="10"/>
<path d="M73.9832 92.9339C81.0443 92.7466 82.4586 72.626 82.4586 72.626H65.5078C65.5078 72.626 66.922 92.7466 73.9832 92.9339Z" fill="#75A97D" stroke="#231F20" stroke-width="0.5" stroke-miterlimit="10"/>
<path d="M56.8201 92.9339C63.8813 92.7466 65.2955 72.626 65.2955 72.626H48.3447C48.3447 72.626 49.7589 92.7466 56.8201 92.9339Z" fill="#75A97D" stroke="#231F20" stroke-width="0.5" stroke-miterlimit="10"/>
<path d="M5.31815 92.9339C12.3793 92.7466 13.7935 72.626 13.7935 72.626H-3.15723C-3.15723 72.626 -1.74302 92.7466 5.31815 92.9339Z" fill="#75A97D" stroke="#231F20" stroke-width="0.5" stroke-miterlimit="10"/>
<path d="M22.4861 92.9339C29.5473 92.7466 30.9615 72.626 30.9615 72.626H14.0107C14.0107 72.626 15.4249 92.7466 22.4861 92.9339Z" fill="#75A97D" stroke="#231F20" stroke-width="0.5" stroke-miterlimit="10"/>
<path d="M39.6531 92.9339C46.7143 92.7466 48.1285 72.626 48.1285 72.626H31.1777C31.1777 72.626 32.5919 92.7466 39.6531 92.9339Z" fill="#75A97D" stroke="#231F20" stroke-width="0.5" stroke-miterlimit="10"/>
<path d="M83.2381 89.5335C90.2992 89.3462 91.7134 69.2256 91.7134 69.2256H74.7627C74.7627 69.2256 76.1769 89.3462 83.2381 89.5335Z" fill="#75A97D" stroke="#231F20" stroke-width="0.5" stroke-miterlimit="10"/>
<path d="M66.075 89.5335C73.1362 89.3462 74.5504 69.2256 74.5504 69.2256H57.5996C57.5996 69.2256 59.0138 89.3462 66.075 89.5335Z" fill="#75A97D" stroke="#231F20" stroke-width="0.5" stroke-miterlimit="10"/>
<path d="M48.907 89.5335C55.9682 89.3462 57.3824 69.2256 57.3824 69.2256H40.4316C40.4316 69.2256 41.8459 89.3462 48.907 89.5335Z" fill="#75A97D" stroke="#231F20" stroke-width="0.5" stroke-miterlimit="10"/>
<path d="M-2.59591 89.5335C4.46526 89.3462 5.87947 69.2256 5.87947 69.2256H-11.0713C-11.0713 69.2256 -9.65708 89.3462 -2.59591 89.5335Z" fill="#75A97D" stroke="#231F20" stroke-width="0.5" stroke-miterlimit="10"/>
<path d="M14.5721 89.5335C21.6332 89.3462 23.0474 69.2256 23.0474 69.2256H6.09668C6.09668 69.2256 7.51088 89.3462 14.5721 89.5335Z" fill="#75A97D" stroke="#231F20" stroke-width="0.5" stroke-miterlimit="10"/>
<path d="M31.74 89.5335C38.8012 89.3462 40.2154 69.2256 40.2154 69.2256H23.2646C23.2646 69.2256 24.6789 89.3462 31.74 89.5335Z" fill="#75A97D" stroke="#231F20" stroke-width="0.5" stroke-miterlimit="10"/>
<path d="M91.5847 85.9363C98.6459 85.749 100.06 65.6284 100.06 65.6284H83.1094C83.1094 65.6284 84.5236 85.749 91.5847 85.9363Z" fill="#75A97D" stroke="#231F20" stroke-width="0.5" stroke-miterlimit="10"/>
<path d="M74.4168 85.9363C81.478 85.749 82.8922 65.6284 82.8922 65.6284H65.9414C65.9414 65.6284 67.3556 85.749 74.4168 85.9363Z" fill="#75A97D" stroke="#231F20" stroke-width="0.5" stroke-miterlimit="10"/>
<path d="M57.2498 85.9363C64.311 85.749 65.7252 65.6284 65.7252 65.6284H48.7744C48.7744 65.6284 50.1886 85.749 57.2498 85.9363Z" fill="#75A97D" stroke="#231F20" stroke-width="0.5" stroke-miterlimit="10"/>
<path d="M5.75174 85.9363C12.8129 85.749 14.2271 65.6284 14.2271 65.6284H-2.72363C-2.72363 65.6284 -1.30943 85.749 5.75174 85.9363Z" fill="#75A97D" stroke="#231F20" stroke-width="0.5" stroke-miterlimit="10"/>
<path d="M22.9197 85.9363C29.9809 85.749 31.3951 65.6284 31.3951 65.6284H14.4443C14.4443 65.6284 15.8585 85.749 22.9197 85.9363Z" fill="#75A97D" stroke="#231F20" stroke-width="0.5" stroke-miterlimit="10"/>
<path d="M40.0818 85.9363C47.143 85.749 48.5572 65.6284 48.5572 65.6284H31.6064C31.6064 65.6284 33.0207 85.749 40.0818 85.9363Z" fill="#75A97D" stroke="#231F20" stroke-width="0.5" stroke-miterlimit="10"/>
<path d="M83.6707 82.5364C90.7319 82.3491 92.1461 62.2285 92.1461 62.2285H75.1953C75.1953 62.2285 76.6095 82.3491 83.6707 82.5364Z" fill="#75A97D" stroke="#231F20" stroke-width="0.5" stroke-miterlimit="10"/>
<path d="M66.5037 82.5364C73.5649 82.3491 74.9791 62.2285 74.9791 62.2285H58.0283C58.0283 62.2285 59.4425 82.3491 66.5037 82.5364Z" fill="#75A97D" stroke="#231F20" stroke-width="0.5" stroke-miterlimit="10"/>
<path d="M49.3357 82.5364C56.3969 82.3491 57.8111 62.2285 57.8111 62.2285H40.8604C40.8604 62.2285 42.2746 82.3491 49.3357 82.5364Z" fill="#75A97D" stroke="#231F20" stroke-width="0.5" stroke-miterlimit="10"/>
<path d="M-2.16134 82.5364C4.89983 82.3491 6.31403 62.2285 6.31403 62.2285H-10.6367C-10.6367 62.2285 -9.22252 82.3491 -2.16134 82.5364Z" fill="#75A97D" stroke="#231F20" stroke-width="0.5" stroke-miterlimit="10"/>
<path d="M15.0056 82.5364C22.0668 82.3491 23.481 62.2285 23.481 62.2285H6.53027C6.53027 62.2285 7.94448 82.3491 15.0056 82.5364Z" fill="#75A97D" stroke="#231F20" stroke-width="0.5" stroke-miterlimit="10"/>
<path d="M32.1736 82.5364C39.2348 82.3491 40.649 62.2285 40.649 62.2285H23.6982C23.6982 62.2285 25.1124 82.3491 32.1736 82.5364Z" fill="#75A97D" stroke="#231F20" stroke-width="0.5" stroke-miterlimit="10"/>
<path d="M91.5847 85.9363C98.6459 85.749 100.06 65.6284 100.06 65.6284H83.1094C83.1094 65.6284 84.5236 85.749 91.5847 85.9363Z" fill="#75A97D" stroke="#231F20" stroke-width="0.5" stroke-miterlimit="10"/>
<path d="M74.4168 85.9363C81.478 85.749 82.8922 65.6284 82.8922 65.6284H65.9414C65.9414 65.6284 67.3556 85.749 74.4168 85.9363Z" fill="#75A97D" stroke="#231F20" stroke-width="0.5" stroke-miterlimit="10"/>
<path d="M57.2498 85.9363C64.311 85.749 65.7252 65.6284 65.7252 65.6284H48.7744C48.7744 65.6284 50.1886 85.749 57.2498 85.9363Z" fill="#75A97D" stroke="#231F20" stroke-width="0.5" stroke-miterlimit="10"/>
<path d="M5.75174 85.9363C12.8129 85.749 14.2271 65.6284 14.2271 65.6284H-2.72363C-2.72363 65.6284 -1.30943 85.749 5.75174 85.9363Z" fill="#75A97D" stroke="#231F20" stroke-width="0.5" stroke-miterlimit="10"/>
<path d="M22.9197 85.9363C29.9809 85.749 31.3951 65.6284 31.3951 65.6284H14.4443C14.4443 65.6284 15.8585 85.749 22.9197 85.9363Z" fill="#75A97D" stroke="#231F20" stroke-width="0.5" stroke-miterlimit="10"/>
<path d="M40.0818 85.9363C47.143 85.749 48.5572 65.6284 48.5572 65.6284H31.6064C31.6064 65.6284 33.0207 85.749 40.0818 85.9363Z" fill="#75A97D" stroke="#231F20" stroke-width="0.5" stroke-miterlimit="10"/>
<path d="M83.6707 82.5364C90.7319 82.3491 92.1461 62.2285 92.1461 62.2285H75.1953C75.1953 62.2285 76.6095 82.3491 83.6707 82.5364Z" fill="#75A97D" stroke="#231F20" stroke-width="0.5" stroke-miterlimit="10"/>
<path d="M66.5037 82.5364C73.5649 82.3491 74.9791 62.2285 74.9791 62.2285H58.0283C58.0283 62.2285 59.4425 82.3491 66.5037 82.5364Z" fill="#75A97D" stroke="#231F20" stroke-width="0.5" stroke-miterlimit="10"/>
<path d="M49.3357 82.5364C56.3969 82.3491 57.8111 62.2285 57.8111 62.2285H40.8604C40.8604 62.2285 42.2746 82.3491 49.3357 82.5364Z" fill="#75A97D" stroke="#231F20" stroke-width="0.5" stroke-miterlimit="10"/>
<path d="M-2.16134 82.5364C4.89983 82.3491 6.31403 62.2285 6.31403 62.2285H-10.6367C-10.6367 62.2285 -9.22252 82.3491 -2.16134 82.5364Z" fill="#75A97D" stroke="#231F20" stroke-width="0.5" stroke-miterlimit="10"/>
<path d="M15.0056 82.5364C22.0668 82.3491 23.481 62.2285 23.481 62.2285H6.53027C6.53027 62.2285 7.94448 82.3491 15.0056 82.5364Z" fill="#75A97D" stroke="#231F20" stroke-width="0.5" stroke-miterlimit="10"/>
<path d="M32.1736 82.5364C39.2348 82.3491 40.649 62.2285 40.649 62.2285H23.6982C23.6982 62.2285 25.1124 82.3491 32.1736 82.5364Z" fill="#75A97D" stroke="#231F20" stroke-width="0.5" stroke-miterlimit="10"/>
<path d="M92.0184 78.9387C99.0795 78.7515 100.494 58.6309 100.494 58.6309H83.543C83.543 58.6309 84.9572 78.7515 92.0184 78.9387Z" fill="#75A97D" stroke="#231F20" stroke-width="0.5" stroke-miterlimit="10"/>
<path d="M74.8514 78.9387C81.9125 78.7515 83.3267 58.6309 83.3267 58.6309H66.376C66.376 58.6309 67.7902 78.7515 74.8514 78.9387Z" fill="#75A97D" stroke="#231F20" stroke-width="0.5" stroke-miterlimit="10"/>
<path d="M57.6834 78.9387C64.7446 78.7515 66.1588 58.6309 66.1588 58.6309H49.208C49.208 58.6309 50.6222 78.7515 57.6834 78.9387Z" fill="#75A97D" stroke="#231F20" stroke-width="0.5" stroke-miterlimit="10"/>
<path d="M6.18045 78.9387C13.2416 78.7515 14.6558 58.6309 14.6558 58.6309H-2.29492C-2.29492 58.6309 -0.880718 78.7515 6.18045 78.9387Z" fill="#75A97D" stroke="#231F20" stroke-width="0.5" stroke-miterlimit="10"/>
<path d="M23.3484 78.9387C30.4096 78.7515 31.8238 58.6309 31.8238 58.6309H14.873C14.873 58.6309 16.2873 78.7515 23.3484 78.9387Z" fill="#75A97D" stroke="#231F20" stroke-width="0.5" stroke-miterlimit="10"/>
<path d="M40.5154 78.9387C47.5766 78.7515 48.9908 58.6309 48.9908 58.6309H32.04C32.04 58.6309 33.4542 78.7515 40.5154 78.9387Z" fill="#75A97D" stroke="#231F20" stroke-width="0.5" stroke-miterlimit="10"/>
<path d="M84.1043 75.5383C91.1655 75.3511 92.5797 55.2305 92.5797 55.2305H75.6289C75.6289 55.2305 77.0431 75.3511 84.1043 75.5383Z" fill="#75A97D" stroke="#231F20" stroke-width="0.5" stroke-miterlimit="10"/>
<path d="M66.9373 75.5383C73.9985 75.3511 75.4127 55.2305 75.4127 55.2305H58.4619C58.4619 55.2305 59.8761 75.3511 66.9373 75.5383Z" fill="#75A97D" stroke="#231F20" stroke-width="0.5" stroke-miterlimit="10"/>
<path d="M49.7693 75.5383C56.8305 75.3511 58.2447 55.2305 58.2447 55.2305H41.2939C41.2939 55.2305 42.7082 75.3511 49.7693 75.5383Z" fill="#75A97D" stroke="#231F20" stroke-width="0.5" stroke-miterlimit="10"/>
<path d="M-1.73263 75.5383C5.32854 75.3511 6.74275 55.2305 6.74275 55.2305H-10.208C-10.208 55.2305 -8.7938 75.3511 -1.73263 75.5383Z" fill="#75A97D" stroke="#231F20" stroke-width="0.5" stroke-miterlimit="10"/>
<path d="M15.4344 75.5383C22.4955 75.3511 23.9097 55.2305 23.9097 55.2305H6.95898C6.95898 55.2305 8.37319 75.3511 15.4344 75.5383Z" fill="#75A97D" stroke="#231F20" stroke-width="0.5" stroke-miterlimit="10"/>
<path d="M32.6023 75.5383C39.6635 75.3511 41.0777 55.2305 41.0777 55.2305H24.127C24.127 55.2305 25.5412 75.3511 32.6023 75.5383Z" fill="#75A97D" stroke="#231F20" stroke-width="0.5" stroke-miterlimit="10"/>
<path d="M92.2791 71.8577C99.3403 71.6704 100.754 51.5498 100.754 51.5498H83.8037C83.8037 51.5498 85.2179 71.6704 92.2791 71.8577Z" fill="#75A97D" stroke="#231F20" stroke-width="0.5" stroke-miterlimit="10"/>
<path d="M75.1121 71.8577C82.1733 71.6704 83.5875 51.5498 83.5875 51.5498H66.6367C66.6367 51.5498 68.0509 71.6704 75.1121 71.8577Z" fill="#75A97D" stroke="#231F20" stroke-width="0.5" stroke-miterlimit="10"/>
<path d="M57.9441 71.8577C65.0053 71.6704 66.4195 51.5498 66.4195 51.5498H49.4688C49.4688 51.5498 50.883 71.6704 57.9441 71.8577Z" fill="#75A97D" stroke="#231F20" stroke-width="0.5" stroke-miterlimit="10"/>
<path d="M6.44217 71.8577C13.5033 71.6704 14.9175 51.5498 14.9175 51.5498H-2.0332C-2.0332 51.5498 -0.618999 71.6704 6.44217 71.8577Z" fill="#75A97D" stroke="#231F20" stroke-width="0.5" stroke-miterlimit="10"/>
<path d="M23.6092 71.8577C30.6703 71.6704 32.0845 51.5498 32.0845 51.5498H15.1338C15.1338 51.5498 16.548 71.6704 23.6092 71.8577Z" fill="#75A97D" stroke="#231F20" stroke-width="0.5" stroke-miterlimit="10"/>
<path d="M40.7771 71.8577C47.8383 71.6704 49.2525 51.5498 49.2525 51.5498H32.3018C32.3018 51.5498 33.716 71.6704 40.7771 71.8577Z" fill="#75A97D" stroke="#231F20" stroke-width="0.5" stroke-miterlimit="10"/>
<path d="M84.366 68.4573C91.4272 68.27 92.8414 48.1494 92.8414 48.1494H75.8906C75.8906 48.1494 77.3048 68.27 84.366 68.4573Z" fill="#75A97D" stroke="#231F20" stroke-width="0.5" stroke-miterlimit="10"/>
<path d="M67.198 68.4573C74.2592 68.27 75.6734 48.1494 75.6734 48.1494H58.7227C58.7227 48.1494 60.1369 68.27 67.198 68.4573Z" fill="#75A97D" stroke="#231F20" stroke-width="0.5" stroke-miterlimit="10"/>
<path d="M50.0301 68.4573C57.0912 68.27 58.5054 48.1494 58.5054 48.1494H41.5547C41.5547 48.1494 42.9689 68.27 50.0301 68.4573Z" fill="#75A97D" stroke="#231F20" stroke-width="0.5" stroke-miterlimit="10"/>
<path d="M-1.46701 68.4573C5.59416 68.27 7.00837 48.1494 7.00837 48.1494H-9.94238C-9.94238 48.1494 -8.52818 68.27 -1.46701 68.4573Z" fill="#75A97D" stroke="#231F20" stroke-width="0.5" stroke-miterlimit="10"/>
<path d="M15.6951 68.4573C22.7563 68.27 24.1705 48.1494 24.1705 48.1494H7.21973C7.21973 48.1494 8.63393 68.27 15.6951 68.4573Z" fill="#75A97D" stroke="#231F20" stroke-width="0.5" stroke-miterlimit="10"/>
<path d="M32.8631 68.4573C39.9242 68.27 41.3384 48.1494 41.3384 48.1494H24.3877C24.3877 48.1494 25.8019 68.27 32.8631 68.4573Z" fill="#75A97D" stroke="#231F20" stroke-width="0.5" stroke-miterlimit="10"/>
<path d="M92.7088 64.8596C99.7699 64.6724 101.184 44.5518 101.184 44.5518H84.2334C84.2334 44.5518 85.6476 64.6724 92.7088 64.8596Z" fill="#75A97D" stroke="#231F20" stroke-width="0.5" stroke-miterlimit="10"/>
<path d="M75.5408 64.8596C82.602 64.6724 84.0162 44.5518 84.0162 44.5518H67.0654C67.0654 44.5518 68.4796 64.6724 75.5408 64.8596Z" fill="#75A97D" stroke="#231F20" stroke-width="0.5" stroke-miterlimit="10"/>
<path d="M58.3787 64.8596C65.4399 64.6724 66.8541 44.5518 66.8541 44.5518H49.9033C49.9033 44.5518 51.3175 64.6724 58.3787 64.8596Z" fill="#75A97D" stroke="#231F20" stroke-width="0.5" stroke-miterlimit="10"/>
<path d="M6.87576 64.8596C13.9369 64.6724 15.3511 44.5518 15.3511 44.5518H-1.59961C-1.59961 44.5518 -0.185406 64.6724 6.87576 64.8596Z" fill="#75A97D" stroke="#231F20" stroke-width="0.5" stroke-miterlimit="10"/>
<path d="M24.0428 64.8596C31.1039 64.6724 32.5181 44.5518 32.5181 44.5518H15.5674C15.5674 44.5518 16.9816 64.6724 24.0428 64.8596Z" fill="#75A97D" stroke="#231F20" stroke-width="0.5" stroke-miterlimit="10"/>
<path d="M41.2107 64.8596C48.2719 64.6724 49.6861 44.5518 49.6861 44.5518H32.7354C32.7354 44.5518 34.1496 64.6724 41.2107 64.8596Z" fill="#75A97D" stroke="#231F20" stroke-width="0.5" stroke-miterlimit="10"/>
<path d="M84.7947 61.4592C91.8559 61.272 93.2701 41.1514 93.2701 41.1514H76.3193C76.3193 41.1514 77.7335 61.272 84.7947 61.4592Z" fill="#75A97D" stroke="#231F20" stroke-width="0.5" stroke-miterlimit="10"/>
<path d="M67.6316 61.4592C74.6928 61.272 76.107 41.1514 76.107 41.1514H59.1562C59.1562 41.1514 60.5705 61.272 67.6316 61.4592Z" fill="#75A97D" stroke="#231F20" stroke-width="0.5" stroke-miterlimit="10"/>
<path d="M50.4646 61.4592C57.5258 61.272 58.94 41.1514 58.94 41.1514H41.9893C41.9893 41.1514 43.4035 61.272 50.4646 61.4592Z" fill="#75A97D" stroke="#231F20" stroke-width="0.5" stroke-miterlimit="10"/>
<path d="M-1.0383 61.4592C6.02287 61.272 7.43708 41.1514 7.43708 41.1514H-9.51367C-9.51367 41.1514 -8.09947 61.272 -1.0383 61.4592Z" fill="#75A97D" stroke="#231F20" stroke-width="0.5" stroke-miterlimit="10"/>
<path d="M16.1297 61.4592C23.1908 61.272 24.6051 41.1514 24.6051 41.1514H7.6543C7.6543 41.1514 9.06851 61.272 16.1297 61.4592Z" fill="#75A97D" stroke="#231F20" stroke-width="0.5" stroke-miterlimit="10"/>
<path d="M33.2967 61.4592C40.3578 61.272 41.772 41.1514 41.772 41.1514H24.8213C24.8213 41.1514 26.2355 61.272 33.2967 61.4592Z" fill="#75A97D" stroke="#231F20" stroke-width="0.5" stroke-miterlimit="10"/>
<path d="M92.7088 64.8596C99.7699 64.6724 101.184 44.5518 101.184 44.5518H84.2334C84.2334 44.5518 85.6476 64.6724 92.7088 64.8596Z" fill="#75A97D" stroke="#231F20" stroke-width="0.5" stroke-miterlimit="10"/>
<path d="M75.5408 64.8596C82.602 64.6724 84.0162 44.5518 84.0162 44.5518H67.0654C67.0654 44.5518 68.4796 64.6724 75.5408 64.8596Z" fill="#75A97D" stroke="#231F20" stroke-width="0.5" stroke-miterlimit="10"/>
<path d="M58.3787 64.8596C65.4399 64.6724 66.8541 44.5518 66.8541 44.5518H49.9033C49.9033 44.5518 51.3175 64.6724 58.3787 64.8596Z" fill="#75A97D" stroke="#231F20" stroke-width="0.5" stroke-miterlimit="10"/>
<path d="M6.87576 64.8596C13.9369 64.6724 15.3511 44.5518 15.3511 44.5518H-1.59961C-1.59961 44.5518 -0.185406 64.6724 6.87576 64.8596Z" fill="#75A97D" stroke="#231F20" stroke-width="0.5" stroke-miterlimit="10"/>
<path d="M24.0428 64.8596C31.1039 64.6724 32.5181 44.5518 32.5181 44.5518H15.5674C15.5674 44.5518 16.9816 64.6724 24.0428 64.8596Z" fill="#75A97D" stroke="#231F20" stroke-width="0.5" stroke-miterlimit="10"/>
<path d="M41.2107 64.8596C48.2719 64.6724 49.6861 44.5518 49.6861 44.5518H32.7354C32.7354 44.5518 34.1496 64.6724 41.2107 64.8596Z" fill="#75A97D" stroke="#231F20" stroke-width="0.5" stroke-miterlimit="10"/>
<path d="M84.7947 61.4592C91.8559 61.272 93.2701 41.1514 93.2701 41.1514H76.3193C76.3193 41.1514 77.7335 61.272 84.7947 61.4592Z" fill="#75A97D" stroke="#231F20" stroke-width="0.5" stroke-miterlimit="10"/>
<path d="M67.6316 61.4592C74.6928 61.272 76.107 41.1514 76.107 41.1514H59.1562C59.1562 41.1514 60.5705 61.272 67.6316 61.4592Z" fill="#75A97D" stroke="#231F20" stroke-width="0.5" stroke-miterlimit="10"/>
<path d="M50.4646 61.4592C57.5258 61.272 58.94 41.1514 58.94 41.1514H41.9893C41.9893 41.1514 43.4035 61.272 50.4646 61.4592Z" fill="#75A97D" stroke="#231F20" stroke-width="0.5" stroke-miterlimit="10"/>
<path d="M-1.0383 61.4592C6.02287 61.272 7.43708 41.1514 7.43708 41.1514H-9.51367C-9.51367 41.1514 -8.09947 61.272 -1.0383 61.4592Z" fill="#75A97D" stroke="#231F20" stroke-width="0.5" stroke-miterlimit="10"/>
<path d="M16.1297 61.4592C23.1908 61.272 24.6051 41.1514 24.6051 41.1514H7.6543C7.6543 41.1514 9.06851 61.272 16.1297 61.4592Z" fill="#75A97D" stroke="#231F20" stroke-width="0.5" stroke-miterlimit="10"/>
<path d="M33.2967 61.4592C40.3578 61.272 41.772 41.1514 41.772 41.1514H24.8213C24.8213 41.1514 26.2355 61.272 33.2967 61.4592Z" fill="#75A97D" stroke="#231F20" stroke-width="0.5" stroke-miterlimit="10"/>
<path d="M93.1424 57.8621C100.204 57.6748 101.618 37.5542 101.618 37.5542H84.667C84.667 37.5542 86.0812 57.6748 93.1424 57.8621Z" fill="#75A97D" stroke="#231F20" stroke-width="0.5" stroke-miterlimit="10"/>
<path d="M75.9744 57.8621C83.0356 57.6748 84.4498 37.5542 84.4498 37.5542H67.499C67.499 37.5542 68.9132 57.6748 75.9744 57.8621Z" fill="#75A97D" stroke="#231F20" stroke-width="0.5" stroke-miterlimit="10"/>
<path d="M58.8064 57.8621C65.8676 57.6748 67.2818 37.5542 67.2818 37.5542H50.3311C50.3311 37.5542 51.7453 57.6748 58.8064 57.8621Z" fill="#75A97D" stroke="#231F20" stroke-width="0.5" stroke-miterlimit="10"/>
<path d="M7.30838 57.8621C14.3696 57.6748 15.7838 37.5542 15.7838 37.5542H-1.16699C-1.16699 37.5542 0.247211 57.6748 7.30838 57.8621Z" fill="#75A97D" stroke="#231F20" stroke-width="0.5" stroke-miterlimit="10"/>
<path d="M24.4715 57.8621C31.5326 57.6748 32.9468 37.5542 32.9468 37.5542H15.9961C15.9961 37.5542 17.4103 57.6748 24.4715 57.8621Z" fill="#75A97D" stroke="#231F20" stroke-width="0.5" stroke-miterlimit="10"/>
<path d="M41.6394 57.8621C48.7006 57.6748 50.1148 37.5542 50.1148 37.5542H33.1641C33.1641 37.5542 34.5783 57.6748 41.6394 57.8621Z" fill="#75A97D" stroke="#231F20" stroke-width="0.5" stroke-miterlimit="10"/>
<path d="M85.2283 54.4622C92.2895 54.2749 93.7037 34.1543 93.7037 34.1543H76.7529C76.7529 34.1543 78.1671 54.2749 85.2283 54.4622Z" fill="#75A97D" stroke="#231F20" stroke-width="0.5" stroke-miterlimit="10"/>
<path d="M68.0613 54.4622C75.1225 54.2749 76.5367 34.1543 76.5367 34.1543H59.5859C59.5859 34.1543 61.0001 54.2749 68.0613 54.4622Z" fill="#75A97D" stroke="#231F20" stroke-width="0.5" stroke-miterlimit="10"/>
<path d="M50.8934 54.4622C57.9545 54.2749 59.3687 34.1543 59.3687 34.1543H42.418C42.418 34.1543 43.8322 54.2749 50.8934 54.4622Z" fill="#75A97D" stroke="#231F20" stroke-width="0.5" stroke-miterlimit="10"/>
<path d="M-0.604704 54.4622C6.45647 54.2749 7.87067 34.1543 7.87067 34.1543H-9.08008C-9.08008 34.1543 -7.66587 54.2749 -0.604704 54.4622Z" fill="#75A97D" stroke="#231F20" stroke-width="0.5" stroke-miterlimit="10"/>
<path d="M16.5633 54.4622C23.6244 54.2749 25.0386 34.1543 25.0386 34.1543H8.08789C8.08789 34.1543 9.50209 54.2749 16.5633 54.4622Z" fill="#75A97D" stroke="#231F20" stroke-width="0.5" stroke-miterlimit="10"/>
<path d="M33.7303 54.4622C40.7914 54.2749 42.2056 34.1543 42.2056 34.1543H25.2549C25.2549 34.1543 26.6691 54.2749 33.7303 54.4622Z" fill="#75A97D" stroke="#231F20" stroke-width="0.5" stroke-miterlimit="10"/>
<path d="M93.1424 51.5496C100.204 51.3623 101.618 31.2417 101.618 31.2417H84.667C84.667 31.2417 86.0812 51.3623 93.1424 51.5496Z" fill="#75A97D" stroke="#231F20" stroke-width="0.5" stroke-miterlimit="10"/>
<path d="M75.9744 51.5496C83.0356 51.3623 84.4498 31.2417 84.4498 31.2417H67.499C67.499 31.2417 68.9132 51.3623 75.9744 51.5496Z" fill="#75A97D" stroke="#231F20" stroke-width="0.5" stroke-miterlimit="10"/>
<path d="M58.8064 51.5496C65.8676 51.3623 67.2818 31.2417 67.2818 31.2417H50.3311C50.3311 31.2417 51.7453 51.3623 58.8064 51.5496Z" fill="#75A97D" stroke="#231F20" stroke-width="0.5" stroke-miterlimit="10"/>
<path d="M7.30838 51.5496C14.3696 51.3623 15.7838 31.2417 15.7838 31.2417H-1.16699C-1.16699 31.2417 0.247211 51.3623 7.30838 51.5496Z" fill="#75A97D" stroke="#231F20" stroke-width="0.5" stroke-miterlimit="10"/>
<path d="M24.4715 51.5496C31.5326 51.3623 32.9468 31.2417 32.9468 31.2417H15.9961C15.9961 31.2417 17.4103 51.3623 24.4715 51.5496Z" fill="#75A97D" stroke="#231F20" stroke-width="0.5" stroke-miterlimit="10"/>
<path d="M41.6394 51.5496C48.7006 51.3623 50.1148 31.2417 50.1148 31.2417H33.1641C33.1641 31.2417 34.5783 51.3623 41.6394 51.5496Z" fill="#75A97D" stroke="#231F20" stroke-width="0.5" stroke-miterlimit="10"/>
<path d="M85.2283 48.1492C92.2895 47.9619 93.7037 27.8413 93.7037 27.8413H76.7529C76.7529 27.8413 78.1671 47.9619 85.2283 48.1492Z" fill="#75A97D" stroke="#231F20" stroke-width="0.5" stroke-miterlimit="10"/>
<path d="M68.0613 48.1492C75.1225 47.9619 76.5367 27.8413 76.5367 27.8413H59.5859C59.5859 27.8413 61.0001 47.9619 68.0613 48.1492Z" fill="#75A97D" stroke="#231F20" stroke-width="0.5" stroke-miterlimit="10"/>
<path d="M50.8934 48.1492C57.9545 47.9619 59.3687 27.8413 59.3687 27.8413H42.418C42.418 27.8413 43.8322 47.9619 50.8934 48.1492Z" fill="#75A97D" stroke="#231F20" stroke-width="0.5" stroke-miterlimit="10"/>
<path d="M-0.604704 48.1492C6.45647 47.9619 7.87067 27.8413 7.87067 27.8413H-9.08008C-9.08008 27.8413 -7.66587 47.9619 -0.604704 48.1492Z" fill="#75A97D" stroke="#231F20" stroke-width="0.5" stroke-miterlimit="10"/>
<path d="M16.5633 48.1492C23.6244 47.9619 25.0386 27.8413 25.0386 27.8413H8.08789C8.08789 27.8413 9.50209 47.9619 16.5633 48.1492Z" fill="#75A97D" stroke="#231F20" stroke-width="0.5" stroke-miterlimit="10"/>
<path d="M33.7303 48.1492C40.7914 47.9619 42.2056 27.8413 42.2056 27.8413H25.2549C25.2549 27.8413 26.6691 47.9619 33.7303 48.1492Z" fill="#75A97D" stroke="#231F20" stroke-width="0.5" stroke-miterlimit="10"/>
<path d="M93.5711 44.5515C100.632 44.3643 102.046 24.2437 102.046 24.2437H85.0957C85.0957 24.2437 86.5099 44.3643 93.5711 44.5515Z" fill="#75A97D" stroke="#231F20" stroke-width="0.5" stroke-miterlimit="10"/>
<path d="M76.408 44.5515C83.4692 44.3643 84.8834 24.2437 84.8834 24.2437H67.9326C67.9326 24.2437 69.3468 44.3643 76.408 44.5515Z" fill="#75A97D" stroke="#231F20" stroke-width="0.5" stroke-miterlimit="10"/>
<path d="M59.24 44.5515C66.3012 44.3643 67.7154 24.2437 67.7154 24.2437H50.7646C50.7646 24.2437 52.1789 44.3643 59.24 44.5515Z" fill="#75A97D" stroke="#231F20" stroke-width="0.5" stroke-miterlimit="10"/>
<path d="M7.73807 44.5515C14.7992 44.3643 16.2135 24.2437 16.2135 24.2437H-0.737305C-0.737305 24.2437 0.676899 44.3643 7.73807 44.5515Z" fill="#75A97D" stroke="#231F20" stroke-width="0.5" stroke-miterlimit="10"/>
<path d="M24.9051 44.5515C31.9662 44.3643 33.3804 24.2437 33.3804 24.2437H16.4297C16.4297 24.2437 17.8439 44.3643 24.9051 44.5515Z" fill="#75A97D" stroke="#231F20" stroke-width="0.5" stroke-miterlimit="10"/>
<path d="M42.0721 44.5515C49.1332 44.3643 50.5474 24.2437 50.5474 24.2437H33.5967C33.5967 24.2437 35.0109 44.3643 42.0721 44.5515Z" fill="#75A97D" stroke="#231F20" stroke-width="0.5" stroke-miterlimit="10"/>
<path d="M85.6619 41.1516C92.7231 40.9644 94.1373 20.8438 94.1373 20.8438H77.1865C77.1865 20.8438 78.6007 40.9644 85.6619 41.1516Z" fill="#75A97D" stroke="#231F20" stroke-width="0.5" stroke-miterlimit="10"/>
<path d="M68.4949 41.1516C75.5561 40.9644 76.9703 20.8438 76.9703 20.8438H60.0195C60.0195 20.8438 61.4337 40.9644 68.4949 41.1516Z" fill="#75A97D" stroke="#231F20" stroke-width="0.5" stroke-miterlimit="10"/>
<path d="M51.3269 41.1516C58.3881 40.9644 59.8023 20.8438 59.8023 20.8438H42.8516C42.8516 20.8438 44.2658 40.9644 51.3269 41.1516Z" fill="#75A97D" stroke="#231F20" stroke-width="0.5" stroke-miterlimit="10"/>
<path d="M-0.175993 41.1516C6.88518 40.9644 8.29939 20.8438 8.29939 20.8438H-8.65137C-8.65137 20.8438 -7.23716 40.9644 -0.175993 41.1516Z" fill="#75A97D" stroke="#231F20" stroke-width="0.5" stroke-miterlimit="10"/>
<path d="M16.991 41.1516C24.0522 40.9644 25.4664 20.8438 25.4664 20.8438H8.51562C8.51562 20.8438 9.92984 40.9644 16.991 41.1516Z" fill="#75A97D" stroke="#231F20" stroke-width="0.5" stroke-miterlimit="10"/>
<path d="M34.159 41.1516C41.2201 40.9644 42.6343 20.8438 42.6343 20.8438H25.6836C25.6836 20.8438 27.0978 40.9644 34.159 41.1516Z" fill="#75A97D" stroke="#231F20" stroke-width="0.5" stroke-miterlimit="10"/>
<path d="M93.5711 44.5515C100.632 44.3643 102.046 24.2437 102.046 24.2437H85.0957C85.0957 24.2437 86.5099 44.3643 93.5711 44.5515Z" fill="#75A97D" stroke="#231F20" stroke-width="0.5" stroke-miterlimit="10"/>
<path d="M76.408 44.5515C83.4692 44.3643 84.8834 24.2437 84.8834 24.2437H67.9326C67.9326 24.2437 69.3468 44.3643 76.408 44.5515Z" fill="#75A97D" stroke="#231F20" stroke-width="0.5" stroke-miterlimit="10"/>
<path d="M59.24 44.5515C66.3012 44.3643 67.7154 24.2437 67.7154 24.2437H50.7646C50.7646 24.2437 52.1789 44.3643 59.24 44.5515Z" fill="#75A97D" stroke="#231F20" stroke-width="0.5" stroke-miterlimit="10"/>
<path d="M7.73807 44.5515C14.7992 44.3643 16.2135 24.2437 16.2135 24.2437H-0.737305C-0.737305 24.2437 0.676899 44.3643 7.73807 44.5515Z" fill="#75A97D" stroke="#231F20" stroke-width="0.5" stroke-miterlimit="10"/>
<path d="M24.9051 44.5515C31.9662 44.3643 33.3804 24.2437 33.3804 24.2437H16.4297C16.4297 24.2437 17.8439 44.3643 24.9051 44.5515Z" fill="#75A97D" stroke="#231F20" stroke-width="0.5" stroke-miterlimit="10"/>
<path d="M42.0721 44.5515C49.1332 44.3643 50.5474 24.2437 50.5474 24.2437H33.5967C33.5967 24.2437 35.0109 44.3643 42.0721 44.5515Z" fill="#75A97D" stroke="#231F20" stroke-width="0.5" stroke-miterlimit="10"/>
<path d="M85.6619 41.1516C92.7231 40.9644 94.1373 20.8438 94.1373 20.8438H77.1865C77.1865 20.8438 78.6007 40.9644 85.6619 41.1516Z" fill="#75A97D" stroke="#231F20" stroke-width="0.5" stroke-miterlimit="10"/>
<path d="M68.4949 41.1516C75.5561 40.9644 76.9703 20.8438 76.9703 20.8438H60.0195C60.0195 20.8438 61.4337 40.9644 68.4949 41.1516Z" fill="#75A97D" stroke="#231F20" stroke-width="0.5" stroke-miterlimit="10"/>
<path d="M51.3269 41.1516C58.3881 40.9644 59.8023 20.8438 59.8023 20.8438H42.8516C42.8516 20.8438 44.2658 40.9644 51.3269 41.1516Z" fill="#75A97D" stroke="#231F20" stroke-width="0.5" stroke-miterlimit="10"/>
<path d="M-0.175993 41.1516C6.88518 40.9644 8.29939 20.8438 8.29939 20.8438H-8.65137C-8.65137 20.8438 -7.23716 40.9644 -0.175993 41.1516Z" fill="#75A97D" stroke="#231F20" stroke-width="0.5" stroke-miterlimit="10"/>
<path d="M16.991 41.1516C24.0522 40.9644 25.4664 20.8438 25.4664 20.8438H8.51562C8.51562 20.8438 9.92984 40.9644 16.991 41.1516Z" fill="#75A97D" stroke="#231F20" stroke-width="0.5" stroke-miterlimit="10"/>
<path d="M34.159 41.1516C41.2201 40.9644 42.6343 20.8438 42.6343 20.8438H25.6836C25.6836 20.8438 27.0978 40.9644 34.159 41.1516Z" fill="#75A97D" stroke="#231F20" stroke-width="0.5" stroke-miterlimit="10"/>
<path d="M76.8367 37.5496C83.8979 37.3623 85.3121 17.2417 85.3121 17.2417H68.3613C68.3613 17.2417 69.7755 37.3623 76.8367 37.5496Z" fill="#75A97D" stroke="#231F20" stroke-width="0.5" stroke-miterlimit="10"/>
<path d="M59.6687 37.5496C66.7299 37.3623 68.1441 17.2417 68.1441 17.2417H51.1934C51.1934 17.2417 52.6076 37.3623 59.6687 37.5496Z" fill="#75A97D" stroke="#231F20" stroke-width="0.5" stroke-miterlimit="10"/>
<path d="M8.17166 37.5496C15.2328 37.3623 16.647 17.2417 16.647 17.2417H-0.303711C-0.303711 17.2417 1.11049 37.3623 8.17166 37.5496Z" fill="#75A97D" stroke="#231F20" stroke-width="0.5" stroke-miterlimit="10"/>
<path d="M25.3387 37.5496C32.3998 37.3623 33.814 17.2417 33.814 17.2417H16.8633C16.8633 17.2417 18.2775 37.3623 25.3387 37.5496Z" fill="#75A97D" stroke="#231F20" stroke-width="0.5" stroke-miterlimit="10"/>
<path d="M42.5066 37.5496C49.5678 37.3623 50.982 17.2417 50.982 17.2417H34.0312C34.0312 17.2417 35.4455 37.3623 42.5066 37.5496Z" fill="#75A97D" stroke="#231F20" stroke-width="0.5" stroke-miterlimit="10"/>
<path d="M86.0906 34.1541C93.1518 33.9668 94.566 13.8462 94.566 13.8462H77.6152C77.6152 13.8462 79.0294 33.9668 86.0906 34.1541Z" fill="#75A97D" stroke="#231F20" stroke-width="0.5" stroke-miterlimit="10"/>
<path d="M68.9226 34.1541C75.9838 33.9668 77.398 13.8462 77.398 13.8462H60.4473C60.4473 13.8462 61.8615 33.9668 68.9226 34.1541Z" fill="#75A97D" stroke="#231F20" stroke-width="0.5" stroke-miterlimit="10"/>
<path d="M51.7605 34.1541C58.8217 33.9668 60.2359 13.8462 60.2359 13.8462H43.2852C43.2852 13.8462 44.6994 33.9668 51.7605 34.1541Z" fill="#75A97D" stroke="#231F20" stroke-width="0.5" stroke-miterlimit="10"/>
<path d="M0.257601 34.1541C7.31877 33.9668 8.73298 13.8462 8.73298 13.8462H-8.21777C-8.21777 13.8462 -6.80357 33.9668 0.257601 34.1541Z" fill="#75A97D" stroke="#231F20" stroke-width="0.5" stroke-miterlimit="10"/>
<path d="M17.4246 34.1541C24.4858 33.9668 25.9 13.8462 25.9 13.8462H8.94922C8.94922 13.8462 10.3634 33.9668 17.4246 34.1541Z" fill="#75A97D" stroke="#231F20" stroke-width="0.5" stroke-miterlimit="10"/>
<path d="M34.5926 34.1541C41.6537 33.9668 43.0679 13.8462 43.0679 13.8462H26.1172C26.1172 13.8462 27.5314 33.9668 34.5926 34.1541Z" fill="#75A97D" stroke="#231F20" stroke-width="0.5" stroke-miterlimit="10"/>
</g>
</svg>
