<svg width="66" height="65" viewBox="0 0 66 65" fill="none" xmlns="http://www.w3.org/2000/svg">
<g clip-path="url(#clip0_500_2392)">
<path d="M59.2255 24.27V18.1H53.0455V0H36.8755V6.18H29.1155V0H12.9455V18.1H6.77547V24.27H0.605469V53.04H12.9455V58.79H19.1055V64.96H46.8755V58.79H53.0455V53.04H65.3955V24.27H59.2255Z" fill="white"/>
<path d="M54.2255 29.27V23.1H48.0455V5H41.8755V11.18H24.1155V5H17.9455V23.1H11.7755V29.27H5.60547V48.04H11.7755V36.11H17.9455V53.79H24.1155V48.04H41.8755V53.79H48.0455V36.11H54.2255V48.04H60.3955V29.27H54.2255ZM26.6155 29.36H20.4455V23.18H26.6155V29.36ZM44.5455 29.36H38.3755V23.18H44.5455V29.36Z" fill="#5665FF"/>
<path d="M58.2255 25.27V19.1H52.0455V1H37.8755V7.18H28.1155V1H13.9455V19.1H7.77547V25.27H1.60547V52.04H13.9455V57.79H20.1055V63.96H45.8755V57.79H52.0455V52.04H64.3955V25.27H58.2255ZM60.3955 48.04H54.2255V36.11H48.0455V53.79H41.8755V59.96H35.7055V53.79H41.8755V48.04H24.1155V53.79H30.2855V59.96H24.1055V53.79H17.9455V36.11H11.7755V48.04H5.60547V29.27H11.7755V23.1H17.9455V5H24.1155V11.18H41.8755V5H48.0455V23.1H54.2255V29.27H60.3955V48.04Z" fill="#1D1D1B"/>
<path d="M41.8751 53.79H35.7051V59.96H41.8751V53.79Z" fill="#5665FF"/>
<path d="M30.2855 53.79H24.1055V59.96H30.2855V53.79Z" fill="#5665FF"/>
<path d="M26.6153 23.1797H20.4453V29.3597H26.6153V23.1797Z" fill="#E72687"/>
<path d="M44.545 23.1797H38.375V29.3597H44.545V23.1797Z" fill="#E72687"/>
</g>
<defs>
<clipPath id="clip0_500_2392">
<rect width="64.79" height="64.96" fill="white" transform="translate(0.605469)"/>
</clipPath>
</defs>
</svg>
