<svg width="430" height="1953" viewBox="0 0 430 1953" fill="none" xmlns="http://www.w3.org/2000/svg">
<rect x="-47.4521" y="-32.5" width="101" height="43" fill="#D9D9D9" stroke="#CAC9C9" stroke-width="7"/>
<rect x="46.5479" y="-32.5" width="101" height="43" fill="#D9D9D9" stroke="#CAC9C9" stroke-width="7"/>
<rect x="140.548" y="-32.5" width="101" height="43" fill="#D9D9D9" stroke="#CAC9C9" stroke-width="7"/>
<rect x="234.548" y="-32.5" width="101" height="43" fill="#D9D9D9" stroke="#CAC9C9" stroke-width="7"/>
<rect x="328.548" y="-32.5" width="101" height="43" fill="#D9D9D9" stroke="#CAC9C9" stroke-width="7"/>
<rect x="422.548" y="-32.5" width="101" height="43" fill="#D9D9D9" stroke="#CAC9C9" stroke-width="7"/>
<rect x="-100.452" y="17.5" width="101" height="43" fill="#D9D9D9" stroke="#CAC9C9" stroke-width="7"/>
<rect x="-6.45215" y="17.5" width="101" height="43" fill="#D9D9D9" stroke="#CAC9C9" stroke-width="7"/>
<rect x="87.5479" y="17.5" width="101" height="43" fill="#BFB39A" stroke="#CAC9C9" stroke-width="7"/>
<rect x="181.548" y="17.5" width="101" height="43" fill="#D9D9D9" stroke="#CAC9C9" stroke-width="7"/>
<rect x="275.548" y="17.5" width="101" height="43" fill="#D9D9D9" stroke="#CAC9C9" stroke-width="7"/>
<rect x="369.548" y="17.5" width="101" height="43" fill="#D9D9D9" stroke="#CAC9C9" stroke-width="7"/>
<rect x="-47.4521" y="67.5" width="101" height="43" fill="#D9D9D9" stroke="#CAC9C9" stroke-width="7"/>
<rect x="46.5479" y="67.5" width="101" height="43" fill="#D9D9D9" stroke="#CAC9C9" stroke-width="7"/>
<rect x="140.548" y="67.5" width="101" height="43" fill="#D9D9D9" stroke="#CAC9C9" stroke-width="7"/>
<rect x="234.548" y="67.5" width="101" height="43" fill="#D9D9D9" stroke="#CAC9C9" stroke-width="7"/>
<rect x="328.548" y="67.5" width="101" height="43" fill="#D9D9D9" stroke="#CAC9C9" stroke-width="7"/>
<rect x="422.548" y="67.5" width="101" height="43" fill="#D9D9D9" stroke="#CAC9C9" stroke-width="7"/>
<rect x="-100.452" y="117.5" width="101" height="43" fill="#D9D9D9" stroke="#CAC9C9" stroke-width="7"/>
<rect x="-6.45215" y="117.5" width="101" height="43" fill="#D9D9D9" stroke="#CAC9C9" stroke-width="7"/>
<rect x="87.5479" y="117.5" width="101" height="43" fill="#D9D9D9" stroke="#CAC9C9" stroke-width="7"/>
<rect x="181.548" y="117.5" width="101" height="43" fill="#D9D9D9" stroke="#CAC9C9" stroke-width="7"/>
<rect x="275.548" y="117.5" width="101" height="43" fill="#D9D9D9" stroke="#CAC9C9" stroke-width="7"/>
<rect x="369.548" y="117.5" width="101" height="43" fill="#D9D9D9" stroke="#CAC9C9" stroke-width="7"/>
<rect x="-47.4521" y="167.5" width="101" height="43" fill="#D9D9D9" stroke="#CAC9C9" stroke-width="7"/>
<rect x="46.5479" y="167.5" width="101" height="43" fill="#D9D9D9" stroke="#CAC9C9" stroke-width="7"/>
<rect x="140.548" y="167.5" width="101" height="43" fill="#D9D9D9" stroke="#CAC9C9" stroke-width="7"/>
<rect x="234.548" y="167.5" width="101" height="43" fill="#D9D9D9" stroke="#CAC9C9" stroke-width="7"/>
<rect x="328.548" y="167.5" width="101" height="43" fill="#D9D9D9" stroke="#CAC9C9" stroke-width="7"/>
<rect x="422.548" y="167.5" width="101" height="43" fill="#D9D9D9" stroke="#CAC9C9" stroke-width="7"/>
<rect x="-100.452" y="217.5" width="101" height="43" fill="#D9D9D9" stroke="#CAC9C9" stroke-width="7"/>
<rect x="-6.45215" y="217.5" width="101" height="43" fill="#D9D9D9" stroke="#CAC9C9" stroke-width="7"/>
<rect x="87.5479" y="217.5" width="101" height="43" fill="#D9D9D9" stroke="#CAC9C9" stroke-width="7"/>
<rect x="181.548" y="217.5" width="101" height="43" fill="#D9D9D9" stroke="#CAC9C9" stroke-width="7"/>
<rect x="275.548" y="217.5" width="101" height="43" fill="#D9D9D9" stroke="#CAC9C9" stroke-width="7"/>
<rect x="369.548" y="217.5" width="101" height="43" fill="#D9D9D9" stroke="#CAC9C9" stroke-width="7"/>
<rect x="-47.4521" y="267.5" width="101" height="43" fill="#D9D9D9" stroke="#CAC9C9" stroke-width="7"/>
<rect x="46.5479" y="267.5" width="101" height="43" fill="#D9D9D9" stroke="#CAC9C9" stroke-width="7"/>
<rect x="140.548" y="267.5" width="101" height="43" fill="#D9D9D9" stroke="#CAC9C9" stroke-width="7"/>
<rect x="234.548" y="267.5" width="101" height="43" fill="#D9D9D9" stroke="#CAC9C9" stroke-width="7"/>
<rect x="328.548" y="267.5" width="101" height="43" fill="#D9D9D9" stroke="#CAC9C9" stroke-width="7"/>
<rect x="422.548" y="267.5" width="101" height="43" fill="#D9D9D9" stroke="#CAC9C9" stroke-width="7"/>
<rect x="-100.452" y="317.5" width="101" height="43" fill="#BFB39A" stroke="#CAC9C9" stroke-width="7"/>
<rect x="-6.45215" y="317.5" width="101" height="43" fill="#D9D9D9" stroke="#CAC9C9" stroke-width="7"/>
<rect x="87.5479" y="317.5" width="101" height="43" fill="#D9D9D9" stroke="#CAC9C9" stroke-width="7"/>
<rect x="181.548" y="317.5" width="101" height="43" fill="#D9D9D9" stroke="#CAC9C9" stroke-width="7"/>
<rect x="275.548" y="317.5" width="101" height="43" fill="#D9D9D9" stroke="#CAC9C9" stroke-width="7"/>
<rect x="369.548" y="317.5" width="101" height="43" fill="#D9D9D9" stroke="#CAC9C9" stroke-width="7"/>
<rect x="-47.4521" y="367.5" width="101" height="43" fill="#D9D9D9" stroke="#CAC9C9" stroke-width="7"/>
<rect x="46.5479" y="367.5" width="101" height="43" fill="#D9D9D9" stroke="#CAC9C9" stroke-width="7"/>
<rect x="140.548" y="367.5" width="101" height="43" fill="#D9D9D9" stroke="#CAC9C9" stroke-width="7"/>
<rect x="234.548" y="367.5" width="101" height="43" fill="#D9D9D9" stroke="#CAC9C9" stroke-width="7"/>
<rect x="328.548" y="367.5" width="101" height="43" fill="#D9D9D9" stroke="#CAC9C9" stroke-width="7"/>
<rect x="422.548" y="367.5" width="101" height="43" fill="#D9D9D9" stroke="#CAC9C9" stroke-width="7"/>
<rect x="-100.452" y="417.5" width="101" height="43" fill="#D9D9D9" stroke="#CAC9C9" stroke-width="7"/>
<rect x="-6.45215" y="417.5" width="101" height="43" fill="#D9D9D9" stroke="#CAC9C9" stroke-width="7"/>
<rect x="87.5479" y="417.5" width="101" height="43" fill="#D9D9D9" stroke="#CAC9C9" stroke-width="7"/>
<rect x="181.548" y="417.5" width="101" height="43" fill="#D9D9D9" stroke="#CAC9C9" stroke-width="7"/>
<rect x="275.548" y="417.5" width="101" height="43" fill="#D9D9D9" stroke="#CAC9C9" stroke-width="7"/>
<rect x="369.548" y="417.5" width="101" height="43" fill="#D9D9D9" stroke="#CAC9C9" stroke-width="7"/>
<rect x="-47.4521" y="467.5" width="101" height="43" fill="#D9D9D9" stroke="#CAC9C9" stroke-width="7"/>
<rect x="46.5479" y="467.5" width="101" height="43" fill="#D9D9D9" stroke="#CAC9C9" stroke-width="7"/>
<rect x="140.548" y="467.5" width="101" height="43" fill="#D9D9D9" stroke="#CAC9C9" stroke-width="7"/>
<rect x="234.548" y="467.5" width="101" height="43" fill="#D9D9D9" stroke="#CAC9C9" stroke-width="7"/>
<rect x="328.548" y="467.5" width="101" height="43" fill="#D9D9D9" stroke="#CAC9C9" stroke-width="7"/>
<rect x="422.548" y="467.5" width="101" height="43" fill="#D9D9D9" stroke="#CAC9C9" stroke-width="7"/>
<rect x="-100.452" y="517.5" width="101" height="43" fill="#D9D9D9" stroke="#CAC9C9" stroke-width="7"/>
<rect x="-6.45215" y="517.5" width="101" height="43" fill="#D9D9D9" stroke="#CAC9C9" stroke-width="7"/>
<rect x="87.5479" y="517.5" width="101" height="43" fill="#D9D9D9" stroke="#CAC9C9" stroke-width="7"/>
<rect x="181.548" y="517.5" width="101" height="43" fill="#D9D9D9" stroke="#CAC9C9" stroke-width="7"/>
<rect x="275.548" y="517.5" width="101" height="43" fill="#D9D9D9" stroke="#CAC9C9" stroke-width="7"/>
<rect x="369.548" y="517.5" width="101" height="43" fill="#D9D9D9" stroke="#CAC9C9" stroke-width="7"/>
<rect x="-47.4521" y="567.5" width="101" height="43" fill="#D9D9D9" stroke="#CAC9C9" stroke-width="7"/>
<rect x="46.5479" y="567.5" width="101" height="43" fill="#D9D9D9" stroke="#CAC9C9" stroke-width="7"/>
<rect x="140.548" y="567.5" width="101" height="43" fill="#D9D9D9" stroke="#CAC9C9" stroke-width="7"/>
<rect x="234.548" y="567.5" width="101" height="43" fill="#D9D9D9" stroke="#CAC9C9" stroke-width="7"/>
<rect x="328.548" y="567.5" width="101" height="43" fill="#D9D9D9" stroke="#CAC9C9" stroke-width="7"/>
<rect x="422.548" y="567.5" width="101" height="43" fill="#D9D9D9" stroke="#CAC9C9" stroke-width="7"/>
<rect x="-100.452" y="617.5" width="101" height="43" fill="#D9D9D9" stroke="#CAC9C9" stroke-width="7"/>
<rect x="-6.45215" y="617.5" width="101" height="43" fill="#D9D9D9" stroke="#CAC9C9" stroke-width="7"/>
<rect x="87.5479" y="617.5" width="101" height="43" fill="#D9D9D9" stroke="#CAC9C9" stroke-width="7"/>
<rect x="181.548" y="617.5" width="101" height="43" fill="#BFB39A" stroke="#CAC9C9" stroke-width="7"/>
<rect x="275.548" y="617.5" width="101" height="43" fill="#D9D9D9" stroke="#CAC9C9" stroke-width="7"/>
<rect x="369.548" y="617.5" width="101" height="43" fill="#D9D9D9" stroke="#CAC9C9" stroke-width="7"/>
<rect x="-47.4521" y="667.5" width="101" height="43" fill="#D9D9D9" stroke="#CAC9C9" stroke-width="7"/>
<rect x="46.5479" y="667.5" width="101" height="43" fill="#D9D9D9" stroke="#CAC9C9" stroke-width="7"/>
<rect x="140.548" y="667.5" width="101" height="43" fill="#D9D9D9" stroke="#CAC9C9" stroke-width="7"/>
<rect x="234.548" y="667.5" width="101" height="43" fill="#D9D9D9" stroke="#CAC9C9" stroke-width="7"/>
<rect x="328.548" y="667.5" width="101" height="43" fill="#D9D9D9" stroke="#CAC9C9" stroke-width="7"/>
<rect x="422.548" y="667.5" width="101" height="43" fill="#D9D9D9" stroke="#CAC9C9" stroke-width="7"/>
<rect x="-100.452" y="717.5" width="101" height="43" fill="#D9D9D9" stroke="#CAC9C9" stroke-width="7"/>
<rect x="-6.45215" y="717.5" width="101" height="43" fill="#D9D9D9" stroke="#CAC9C9" stroke-width="7"/>
<rect x="87.5479" y="717.5" width="101" height="43" fill="#D9D9D9" stroke="#CAC9C9" stroke-width="7"/>
<rect x="181.548" y="717.5" width="101" height="43" fill="#D9D9D9" stroke="#CAC9C9" stroke-width="7"/>
<rect x="275.548" y="717.5" width="101" height="43" fill="#D9D9D9" stroke="#CAC9C9" stroke-width="7"/>
<rect x="369.548" y="717.5" width="101" height="43" fill="#D9D9D9" stroke="#CAC9C9" stroke-width="7"/>
<rect x="-47.4521" y="767.5" width="101" height="43" fill="#D9D9D9" stroke="#CAC9C9" stroke-width="7"/>
<rect x="46.5479" y="767.5" width="101" height="43" fill="#D9D9D9" stroke="#CAC9C9" stroke-width="7"/>
<rect x="140.548" y="767.5" width="101" height="43" fill="#D9D9D9" stroke="#CAC9C9" stroke-width="7"/>
<rect x="234.548" y="767.5" width="101" height="43" fill="#D9D9D9" stroke="#CAC9C9" stroke-width="7"/>
<rect x="328.548" y="767.5" width="101" height="43" fill="#D9D9D9" stroke="#CAC9C9" stroke-width="7"/>
<rect x="422.548" y="767.5" width="101" height="43" fill="#D9D9D9" stroke="#CAC9C9" stroke-width="7"/>
<rect x="-100.452" y="817.5" width="101" height="43" fill="#D9D9D9" stroke="#CAC9C9" stroke-width="7"/>
<rect x="-6.45215" y="817.5" width="101" height="43" fill="#D9D9D9" stroke="#CAC9C9" stroke-width="7"/>
<rect x="87.5479" y="817.5" width="101" height="43" fill="#D9D9D9" stroke="#CAC9C9" stroke-width="7"/>
<rect x="181.548" y="817.5" width="101" height="43" fill="#D9D9D9" stroke="#CAC9C9" stroke-width="7"/>
<rect x="275.548" y="817.5" width="101" height="43" fill="#D9D9D9" stroke="#CAC9C9" stroke-width="7"/>
<rect x="369.548" y="817.5" width="101" height="43" fill="#D9D9D9" stroke="#CAC9C9" stroke-width="7"/>
<rect x="-47.4521" y="867.5" width="101" height="43" fill="#D9D9D9" stroke="#CAC9C9" stroke-width="7"/>
<rect x="46.5479" y="867.5" width="101" height="43" fill="#D9D9D9" stroke="#CAC9C9" stroke-width="7"/>
<rect x="140.548" y="867.5" width="101" height="43" fill="#D9D9D9" stroke="#CAC9C9" stroke-width="7"/>
<rect x="234.548" y="867.5" width="101" height="43" fill="#D9D9D9" stroke="#CAC9C9" stroke-width="7"/>
<rect x="328.548" y="867.5" width="101" height="43" fill="#D9D9D9" stroke="#CAC9C9" stroke-width="7"/>
<rect x="422.548" y="867.5" width="101" height="43" fill="#D9D9D9" stroke="#CAC9C9" stroke-width="7"/>
<rect x="-100.452" y="917.5" width="101" height="43" fill="#D9D9D9" stroke="#CAC9C9" stroke-width="7"/>
<rect x="-6.45215" y="917.5" width="101" height="43" fill="#D9D9D9" stroke="#CAC9C9" stroke-width="7"/>
<rect x="87.5479" y="917.5" width="101" height="43" fill="#D9D9D9" stroke="#CAC9C9" stroke-width="7"/>
<rect x="181.548" y="917.5" width="101" height="43" fill="#D9D9D9" stroke="#CAC9C9" stroke-width="7"/>
<rect x="275.548" y="917.5" width="101" height="43" fill="#D9D9D9" stroke="#CAC9C9" stroke-width="7"/>
<rect x="369.548" y="917.5" width="101" height="43" fill="#D9D9D9" stroke="#CAC9C9" stroke-width="7"/>
<rect x="-47.4521" y="967.5" width="101" height="43" fill="#D9D9D9" stroke="#CAC9C9" stroke-width="7"/>
<rect x="46.5479" y="967.5" width="101" height="43" fill="#D9D9D9" stroke="#CAC9C9" stroke-width="7"/>
<rect x="140.548" y="967.5" width="101" height="43" fill="#D9D9D9" stroke="#CAC9C9" stroke-width="7"/>
<rect x="234.548" y="967.5" width="101" height="43" fill="#D9D9D9" stroke="#CAC9C9" stroke-width="7"/>
<rect x="328.548" y="967.5" width="101" height="43" fill="#D9D9D9" stroke="#CAC9C9" stroke-width="7"/>
<rect x="422.548" y="967.5" width="101" height="43" fill="#D9D9D9" stroke="#CAC9C9" stroke-width="7"/>
<rect x="-100.452" y="1017.5" width="101" height="43" fill="#D9D9D9" stroke="#CAC9C9" stroke-width="7"/>
<rect x="-6.45215" y="1017.5" width="101" height="43" fill="#D9D9D9" stroke="#CAC9C9" stroke-width="7"/>
<rect x="87.5479" y="1017.5" width="101" height="43" fill="#D9D9D9" stroke="#CAC9C9" stroke-width="7"/>
<rect x="181.548" y="1017.5" width="101" height="43" fill="#D9D9D9" stroke="#CAC9C9" stroke-width="7"/>
<rect x="275.548" y="1017.5" width="101" height="43" fill="#D9D9D9" stroke="#CAC9C9" stroke-width="7"/>
<rect x="369.548" y="1017.5" width="101" height="43" fill="#D9D9D9" stroke="#CAC9C9" stroke-width="7"/>
<rect x="-47.4521" y="1067.5" width="101" height="43" fill="#D9D9D9" stroke="#CAC9C9" stroke-width="7"/>
<rect x="46.5479" y="1067.5" width="101" height="43" fill="#D9D9D9" stroke="#CAC9C9" stroke-width="7"/>
<rect x="140.548" y="1067.5" width="101" height="43" fill="#D9D9D9" stroke="#CAC9C9" stroke-width="7"/>
<rect x="234.548" y="1067.5" width="101" height="43" fill="#D9D9D9" stroke="#CAC9C9" stroke-width="7"/>
<rect x="328.548" y="1067.5" width="101" height="43" fill="#D9D9D9" stroke="#CAC9C9" stroke-width="7"/>
<rect x="422.548" y="1067.5" width="101" height="43" fill="#D9D9D9" stroke="#CAC9C9" stroke-width="7"/>
<rect x="-100.452" y="1117.5" width="101" height="43" fill="#D9D9D9" stroke="#CAC9C9" stroke-width="7"/>
<rect x="-6.45215" y="1117.5" width="101" height="43" fill="#D9D9D9" stroke="#CAC9C9" stroke-width="7"/>
<rect x="87.5479" y="1117.5" width="101" height="43" fill="#D9D9D9" stroke="#CAC9C9" stroke-width="7"/>
<rect x="181.548" y="1117.5" width="101" height="43" fill="#D9D9D9" stroke="#CAC9C9" stroke-width="7"/>
<rect x="275.548" y="1117.5" width="101" height="43" fill="#D9D9D9" stroke="#CAC9C9" stroke-width="7"/>
<rect x="369.548" y="1117.5" width="101" height="43" fill="#D9D9D9" stroke="#CAC9C9" stroke-width="7"/>
<rect x="-47.4521" y="1167.5" width="101" height="43" fill="#D9D9D9" stroke="#CAC9C9" stroke-width="7"/>
<rect x="46.5479" y="1167.5" width="101" height="43" fill="#D9D9D9" stroke="#CAC9C9" stroke-width="7"/>
<rect x="140.548" y="1167.5" width="101" height="43" fill="#D9D9D9" stroke="#CAC9C9" stroke-width="7"/>
<rect x="234.548" y="1167.5" width="101" height="43" fill="#D9D9D9" stroke="#CAC9C9" stroke-width="7"/>
<rect x="328.548" y="1167.5" width="101" height="43" fill="#D9D9D9" stroke="#CAC9C9" stroke-width="7"/>
<rect x="422.548" y="1167.5" width="101" height="43" fill="#D9D9D9" stroke="#CAC9C9" stroke-width="7"/>
<rect x="-100.452" y="1217.5" width="101" height="43" fill="#D9D9D9" stroke="#CAC9C9" stroke-width="7"/>
<rect x="-6.45215" y="1217.5" width="101" height="43" fill="#D9D9D9" stroke="#CAC9C9" stroke-width="7"/>
<rect x="87.5479" y="1217.5" width="101" height="43" fill="#D9D9D9" stroke="#CAC9C9" stroke-width="7"/>
<rect x="181.548" y="1217.5" width="101" height="43" fill="#D9D9D9" stroke="#CAC9C9" stroke-width="7"/>
<rect x="275.548" y="1217.5" width="101" height="43" fill="#D9D9D9" stroke="#CAC9C9" stroke-width="7"/>
<rect x="369.548" y="1217.5" width="101" height="43" fill="#D9D9D9" stroke="#CAC9C9" stroke-width="7"/>
<rect x="-47.4521" y="1267.5" width="101" height="43" fill="#D9D9D9" stroke="#CAC9C9" stroke-width="7"/>
<rect x="46.5479" y="1267.5" width="101" height="43" fill="#D9D9D9" stroke="#CAC9C9" stroke-width="7"/>
<rect x="140.548" y="1267.5" width="101" height="43" fill="#D9D9D9" stroke="#CAC9C9" stroke-width="7"/>
<rect x="234.548" y="1267.5" width="101" height="43" fill="#D9D9D9" stroke="#CAC9C9" stroke-width="7"/>
<rect x="328.548" y="1267.5" width="101" height="43" fill="#D9D9D9" stroke="#CAC9C9" stroke-width="7"/>
<rect x="422.548" y="1267.5" width="101" height="43" fill="#D9D9D9" stroke="#CAC9C9" stroke-width="7"/>
<rect x="-100.452" y="1317.5" width="101" height="43" fill="#D9D9D9" stroke="#CAC9C9" stroke-width="7"/>
<rect x="-6.45215" y="1317.5" width="101" height="43" fill="#D9D9D9" stroke="#CAC9C9" stroke-width="7"/>
<rect x="87.5479" y="1317.5" width="101" height="43" fill="#D9D9D9" stroke="#CAC9C9" stroke-width="7"/>
<rect x="181.548" y="1317.5" width="101" height="43" fill="#D9D9D9" stroke="#CAC9C9" stroke-width="7"/>
<rect x="275.548" y="1317.5" width="101" height="43" fill="#D9D9D9" stroke="#CAC9C9" stroke-width="7"/>
<rect x="369.548" y="1317.5" width="101" height="43" fill="#D9D9D9" stroke="#CAC9C9" stroke-width="7"/>
<rect x="-47.4521" y="1367.5" width="101" height="43" fill="#D9D9D9" stroke="#CAC9C9" stroke-width="7"/>
<rect x="46.5479" y="1367.5" width="101" height="43" fill="#D9D9D9" stroke="#CAC9C9" stroke-width="7"/>
<rect x="140.548" y="1367.5" width="101" height="43" fill="#D9D9D9" stroke="#CAC9C9" stroke-width="7"/>
<rect x="234.548" y="1367.5" width="101" height="43" fill="#D9D9D9" stroke="#CAC9C9" stroke-width="7"/>
<rect x="328.548" y="1367.5" width="101" height="43" fill="#D9D9D9" stroke="#CAC9C9" stroke-width="7"/>
<rect x="422.548" y="1367.5" width="101" height="43" fill="#D9D9D9" stroke="#CAC9C9" stroke-width="7"/>
<rect x="-100.452" y="1417.5" width="101" height="43" fill="#D9D9D9" stroke="#CAC9C9" stroke-width="7"/>
<rect x="-6.45215" y="1417.5" width="101" height="43" fill="#D9D9D9" stroke="#CAC9C9" stroke-width="7"/>
<rect x="87.5479" y="1417.5" width="101" height="43" fill="#D9D9D9" stroke="#CAC9C9" stroke-width="7"/>
<rect x="181.548" y="1417.5" width="101" height="43" fill="#D9D9D9" stroke="#CAC9C9" stroke-width="7"/>
<rect x="275.548" y="1417.5" width="101" height="43" fill="#D9D9D9" stroke="#CAC9C9" stroke-width="7"/>
<rect x="369.548" y="1417.5" width="101" height="43" fill="#D9D9D9" stroke="#CAC9C9" stroke-width="7"/>
<rect x="-47.4521" y="1467.5" width="101" height="43" fill="#D9D9D9" stroke="#CAC9C9" stroke-width="7"/>
<rect x="46.5479" y="1467.5" width="101" height="43" fill="#D9D9D9" stroke="#CAC9C9" stroke-width="7"/>
<rect x="140.548" y="1467.5" width="101" height="43" fill="#D9D9D9" stroke="#CAC9C9" stroke-width="7"/>
<rect x="234.548" y="1467.5" width="101" height="43" fill="#D9D9D9" stroke="#CAC9C9" stroke-width="7"/>
<rect x="328.548" y="1467.5" width="101" height="43" fill="#D9D9D9" stroke="#CAC9C9" stroke-width="7"/>
<rect x="422.548" y="1467.5" width="101" height="43" fill="#D9D9D9" stroke="#CAC9C9" stroke-width="7"/>
<rect x="-100.452" y="1517.5" width="101" height="43" fill="#D9D9D9" stroke="#CAC9C9" stroke-width="7"/>
<rect x="-6.45215" y="1517.5" width="101" height="43" fill="#D9D9D9" stroke="#CAC9C9" stroke-width="7"/>
<rect x="87.5479" y="1517.5" width="101" height="43" fill="#D9D9D9" stroke="#CAC9C9" stroke-width="7"/>
<rect x="181.548" y="1517.5" width="101" height="43" fill="#D9D9D9" stroke="#CAC9C9" stroke-width="7"/>
<rect x="275.548" y="1517.5" width="101" height="43" fill="#D9D9D9" stroke="#CAC9C9" stroke-width="7"/>
<rect x="369.548" y="1517.5" width="101" height="43" fill="#D9D9D9" stroke="#CAC9C9" stroke-width="7"/>
<rect x="-47.4521" y="1567.5" width="101" height="43" fill="#D9D9D9" stroke="#CAC9C9" stroke-width="7"/>
<rect x="46.5479" y="1567.5" width="101" height="43" fill="#D9D9D9" stroke="#CAC9C9" stroke-width="7"/>
<rect x="140.548" y="1567.5" width="101" height="43" fill="#D9D9D9" stroke="#CAC9C9" stroke-width="7"/>
<rect x="234.548" y="1567.5" width="101" height="43" fill="#D9D9D9" stroke="#CAC9C9" stroke-width="7"/>
<rect x="328.548" y="1567.5" width="101" height="43" fill="#D9D9D9" stroke="#CAC9C9" stroke-width="7"/>
<rect x="422.548" y="1567.5" width="101" height="43" fill="#D9D9D9" stroke="#CAC9C9" stroke-width="7"/>
<rect x="-100.452" y="1617.5" width="101" height="43" fill="#D9D9D9" stroke="#CAC9C9" stroke-width="7"/>
<rect x="-6.45215" y="1617.5" width="101" height="43" fill="#D9D9D9" stroke="#CAC9C9" stroke-width="7"/>
<rect x="87.5479" y="1617.5" width="101" height="43" fill="#D9D9D9" stroke="#CAC9C9" stroke-width="7"/>
<rect x="181.548" y="1617.5" width="101" height="43" fill="#D9D9D9" stroke="#CAC9C9" stroke-width="7"/>
<rect x="275.548" y="1617.5" width="101" height="43" fill="#D9D9D9" stroke="#CAC9C9" stroke-width="7"/>
<rect x="369.548" y="1617.5" width="101" height="43" fill="#D9D9D9" stroke="#CAC9C9" stroke-width="7"/>
<rect x="-47.4521" y="1667.5" width="101" height="43" fill="#D9D9D9" stroke="#CAC9C9" stroke-width="7"/>
<rect x="46.5479" y="1667.5" width="101" height="43" fill="#D9D9D9" stroke="#CAC9C9" stroke-width="7"/>
<rect x="140.548" y="1667.5" width="101" height="43" fill="#D9D9D9" stroke="#CAC9C9" stroke-width="7"/>
<rect x="234.548" y="1667.5" width="101" height="43" fill="#D9D9D9" stroke="#CAC9C9" stroke-width="7"/>
<rect x="328.548" y="1667.5" width="101" height="43" fill="#D9D9D9" stroke="#CAC9C9" stroke-width="7"/>
<rect x="422.548" y="1667.5" width="101" height="43" fill="#D9D9D9" stroke="#CAC9C9" stroke-width="7"/>
<rect x="-100.452" y="1717.5" width="101" height="43" fill="#D9D9D9" stroke="#CAC9C9" stroke-width="7"/>
<rect x="-6.45215" y="1717.5" width="101" height="43" fill="#D9D9D9" stroke="#CAC9C9" stroke-width="7"/>
<rect x="87.5479" y="1717.5" width="101" height="43" fill="#D9D9D9" stroke="#CAC9C9" stroke-width="7"/>
<rect x="181.548" y="1717.5" width="101" height="43" fill="#D9D9D9" stroke="#CAC9C9" stroke-width="7"/>
<rect x="275.548" y="1717.5" width="101" height="43" fill="#D9D9D9" stroke="#CAC9C9" stroke-width="7"/>
<rect x="369.548" y="1717.5" width="101" height="43" fill="#D9D9D9" stroke="#CAC9C9" stroke-width="7"/>
<rect x="-47.4521" y="1767.5" width="101" height="43" fill="#D9D9D9" stroke="#CAC9C9" stroke-width="7"/>
<rect x="46.5479" y="1767.5" width="101" height="43" fill="#D9D9D9" stroke="#CAC9C9" stroke-width="7"/>
<rect x="140.548" y="1767.5" width="101" height="43" fill="#D9D9D9" stroke="#CAC9C9" stroke-width="7"/>
<rect x="234.548" y="1767.5" width="101" height="43" fill="#D9D9D9" stroke="#CAC9C9" stroke-width="7"/>
<rect x="328.548" y="1767.5" width="101" height="43" fill="#D9D9D9" stroke="#CAC9C9" stroke-width="7"/>
<rect x="422.548" y="1767.5" width="101" height="43" fill="#D9D9D9" stroke="#CAC9C9" stroke-width="7"/>
<rect x="-100.452" y="1817.5" width="101" height="43" fill="#D9D9D9" stroke="#CAC9C9" stroke-width="7"/>
<rect x="-6.45215" y="1817.5" width="101" height="43" fill="#D9D9D9" stroke="#CAC9C9" stroke-width="7"/>
<rect x="87.5479" y="1817.5" width="101" height="43" fill="#D9D9D9" stroke="#CAC9C9" stroke-width="7"/>
<rect x="181.548" y="1817.5" width="101" height="43" fill="#D9D9D9" stroke="#CAC9C9" stroke-width="7"/>
<rect x="275.548" y="1817.5" width="101" height="43" fill="#D9D9D9" stroke="#CAC9C9" stroke-width="7"/>
<rect x="369.548" y="1817.5" width="101" height="43" fill="#D9D9D9" stroke="#CAC9C9" stroke-width="7"/>
<rect x="-47.4521" y="1867.5" width="101" height="43" fill="#D9D9D9" stroke="#CAC9C9" stroke-width="7"/>
<rect x="46.5479" y="1867.5" width="101" height="43" fill="#D9D9D9" stroke="#CAC9C9" stroke-width="7"/>
<rect x="140.548" y="1867.5" width="101" height="43" fill="#D9D9D9" stroke="#CAC9C9" stroke-width="7"/>
<rect x="234.548" y="1867.5" width="101" height="43" fill="#D9D9D9" stroke="#CAC9C9" stroke-width="7"/>
<rect x="328.548" y="1867.5" width="101" height="43" fill="#D9D9D9" stroke="#CAC9C9" stroke-width="7"/>
<rect x="422.548" y="1867.5" width="101" height="43" fill="#D9D9D9" stroke="#CAC9C9" stroke-width="7"/>
<rect x="-100.452" y="1917.5" width="101" height="43" fill="#D9D9D9" stroke="#CAC9C9" stroke-width="7"/>
<rect x="-6.45215" y="1917.5" width="101" height="43" fill="#D9D9D9" stroke="#CAC9C9" stroke-width="7"/>
<rect x="87.5479" y="1917.5" width="101" height="43" fill="#BFB39A" stroke="#CAC9C9" stroke-width="7"/>
<rect x="181.548" y="1917.5" width="101" height="43" fill="#D9D9D9" stroke="#CAC9C9" stroke-width="7"/>
<rect x="275.548" y="1917.5" width="101" height="43" fill="#D9D9D9" stroke="#CAC9C9" stroke-width="7"/>
<rect x="369.548" y="1917.5" width="101" height="43" fill="#D9D9D9" stroke="#CAC9C9" stroke-width="7"/>
</svg>
