<svg width="163" height="54" viewBox="0 0 163 54" fill="none" xmlns="http://www.w3.org/2000/svg">
<path d="M54.317 0H0.683594V54H54.317V0Z" fill="#56300E"/>
<path d="M51.143 3.19629H3.8623V50.8002H51.143V3.19629Z" fill="#774512"/>
<path d="M33.0018 5.69238H5.87891V18.0484H33.0018V5.69238Z" fill="#E06A12"/>
<path d="M49.1267 5.69238H35.5674V18.0484H49.1267V5.69238Z" fill="#F48122"/>
<path d="M33.0018 35.9531H5.87891V48.305H33.0018V35.9531Z" fill="#F48122"/>
<path d="M49.1267 35.9531H35.5674V48.305H49.1267V35.9531Z" fill="#FF8E39"/>
<path d="M49.1268 20.8252H22.0039V33.177H49.1268V20.8252Z" fill="#E06A12"/>
<path d="M19.4383 20.8252H5.87891V33.177H19.4383V20.8252Z" fill="#F48122"/>
<path d="M108.317 0H54.6836V54H108.317V0Z" fill="#56300E"/>
<path d="M105.143 3.19629H57.8623V50.8002H105.143V3.19629Z" fill="#774512"/>
<path d="M87.0018 5.69238H59.8789V18.0484H87.0018V5.69238Z" fill="#E06A12"/>
<path d="M103.127 5.69238H89.5674V18.0484H103.127V5.69238Z" fill="#F48122"/>
<path d="M87.0018 35.9531H59.8789V48.305H87.0018V35.9531Z" fill="#F48122"/>
<path d="M103.127 35.9531H89.5674V48.305H103.127V35.9531Z" fill="#FF8E39"/>
<path d="M103.127 20.8252H76.0039V33.177H103.127V20.8252Z" fill="#E06A12"/>
<path d="M73.4383 20.8252H59.8789V33.177H73.4383V20.8252Z" fill="#F48122"/>
<path d="M162.317 0H108.684V54H162.317V0Z" fill="#56300E"/>
<path d="M159.143 3.19629H111.862V50.8002H159.143V3.19629Z" fill="#774512"/>
<path d="M141.002 5.69238H113.879V18.0484H141.002V5.69238Z" fill="#E06A12"/>
<path d="M157.127 5.69238H143.567V18.0484H157.127V5.69238Z" fill="#F48122"/>
<path d="M141.002 35.9531H113.879V48.305H141.002V35.9531Z" fill="#F48122"/>
<path d="M157.127 35.9531H143.567V48.305H157.127V35.9531Z" fill="#FF8E39"/>
<path d="M157.127 20.8252H130.004V33.177H157.127V20.8252Z" fill="#E06A12"/>
<path d="M127.438 20.8252H113.879V33.177H127.438V20.8252Z" fill="#F48122"/>
</svg>
