<svg width="163" height="54" viewBox="0 0 163 54" fill="none" xmlns="http://www.w3.org/2000/svg">
<path d="M54.317 0H0.683594V54H54.317V0Z" fill="#56300E"/>
<path d="M51.144 3.19629H3.86328V50.8002H51.144V3.19629Z" fill="#774512"/>
<path d="M33.0018 5.69238H5.87891V18.0484H33.0018V5.69238Z" fill="#E06A12"/>
<path d="M49.1258 5.69238H35.5664V18.0484H49.1258V5.69238Z" fill="#F48122"/>
<path d="M33.0018 35.9531H5.87891V48.305H33.0018V35.9531Z" fill="#F48122"/>
<path d="M49.1258 35.9531H35.5664V48.305H49.1258V35.9531Z" fill="#FF8E39"/>
<path d="M49.1268 20.8252H22.0039V33.177H49.1268V20.8252Z" fill="#E06A12"/>
<path d="M19.4383 20.8252H5.87891V33.177H19.4383V20.8252Z" fill="#F48122"/>
<path d="M108.317 0H54.6836V54H108.317V0Z" fill="#56300E"/>
<path d="M105.144 3.19629H57.8633V50.8002H105.144V3.19629Z" fill="#774512"/>
<path d="M87.0018 5.69238H59.8789V18.0484H87.0018V5.69238Z" fill="#E06A12"/>
<path d="M103.126 5.69238H89.5664V18.0484H103.126V5.69238Z" fill="#F48122"/>
<path d="M87.0018 35.9531H59.8789V48.305H87.0018V35.9531Z" fill="#F48122"/>
<path d="M103.126 35.9531H89.5664V48.305H103.126V35.9531Z" fill="#FF8E39"/>
<path d="M103.127 20.8252H76.0039V33.177H103.127V20.8252Z" fill="#E06A12"/>
<path d="M73.4383 20.8252H59.8789V33.177H73.4383V20.8252Z" fill="#F48122"/>
<path d="M162.317 0H108.684V54H162.317V0Z" fill="#56300E"/>
<path d="M159.144 3.19629H111.863V50.8002H159.144V3.19629Z" fill="#774512"/>
<path d="M141.002 5.69238H113.879V18.0484H141.002V5.69238Z" fill="#E06A12"/>
<path d="M157.126 5.69238H143.566V18.0484H157.126V5.69238Z" fill="#F48122"/>
<path d="M141.002 35.9531H113.879V48.305H141.002V35.9531Z" fill="#F48122"/>
<path d="M157.126 35.9531H143.566V48.305H157.126V35.9531Z" fill="#FF8E39"/>
<path d="M157.127 20.8252H130.004V33.177H157.127V20.8252Z" fill="#E06A12"/>
<path d="M127.438 20.8252H113.879V33.177H127.438V20.8252Z" fill="#F48122"/>
<g clip-path="url(#clip0_504_2194)">
<path d="M109 0H55V54H109V0Z" fill="#BA8A43"/>
<path d="M105.799 3.19629H58.1953V50.8002H105.799V3.19629Z" fill="#E2B266"/>
<path d="M73.1908 16.8063V14.9189H92.0646V18.6937H95.8393V26.2432H92.0646V30.018H88.2898V33.7927H76.9655V30.018H84.515V26.2432H88.2898V22.4685H76.9655V26.2432H69.416V18.6937H73.1908V16.8063ZM76.9655 39.4549V37.5675H88.2898V41.3422H76.9655V39.4549Z" fill="#08002A"/>
<path d="M70.6732 14.5417V12.6543H89.547V16.4291H93.3217V23.9786H89.547V27.7533H85.7722V31.5281H74.448V27.7533H81.9975V23.9786H85.7722V20.2038H74.448V23.9786H66.8984V16.4291H70.6732V14.5417ZM74.448 37.1902V35.3028H85.7722V39.0776H74.448V37.1902Z" fill="#B46F00"/>
<path d="M65.7244 4.97461H60.3223V6.92071H65.7244V4.97461Z" fill="#BA8A43"/>
<path d="M103.586 4.97461H98.1836V6.92071H103.586V4.97461Z" fill="#BA8A43"/>
<path d="M65.8162 47.5918H60.4141V49.5379H65.8162V47.5918Z" fill="#BA8A43"/>
<path d="M103.681 47.5918H98.2793V49.5379H103.681V47.5918Z" fill="#BA8A43"/>
</g>
<defs>
<clipPath id="clip0_504_2194">
<rect width="54" height="54" fill="white" transform="translate(55)"/>
</clipPath>
</defs>
</svg>
