<svg width="232" height="254" viewBox="0 0 232 254" fill="none" xmlns="http://www.w3.org/2000/svg">
<path d="M109.104 7.79654C114.114 6.12629 127.922 3.23118 143.065 5.01279C161.995 7.23979 171.46 12.8071 179.811 26.7259C188.162 40.6447 177.959 46.3064 194.843 52.3365C210.432 57.904 214.86 37.0034 216 33.9637C217.67 29.5097 227.692 23.9421 231.032 35.0772V95.2063C228.063 109.867 214.886 136.517 185.935 125.828C156.984 115.138 122.651 82.7722 109.104 67.9255V7.79654Z" fill="#C32314"/>
<path d="M122.76 62.9048C121.699 62.3229 120.649 61.7722 119.516 61.3047C120.607 61.7722 121.709 62.2814 122.76 62.9048Z" fill="black"/>
<path d="M151.568 1.84951C151.839 1.6521 152.119 1.45468 152.431 1.29883C152.119 1.45468 151.849 1.6521 151.568 1.84951Z" fill="black"/>
<path d="M166.544 9.50786C166.544 10.8378 166.274 12.0846 165.764 13.2587C166.274 12.1262 166.544 10.8378 166.544 9.50786C166.544 4.27117 162.323 0.0527344 157.082 0.0527344C162.323 0.0527344 166.544 4.31273 166.544 9.50786Z" fill="black"/>
<path d="M182.96 97.628C183.313 97.8254 183.625 98.0228 183.978 98.2514C183.667 98.054 183.313 97.8254 182.96 97.628Z" fill="black"/>
<path d="M149.064 20.5668C150.156 19.4758 151.217 18.4991 152.194 17.6367C151.217 18.4991 150.167 19.507 149.064 20.5668Z" fill="black"/>
<path d="M145.82 24.1133C145.352 24.664 144.926 25.2458 144.447 25.8277C144.915 25.2458 145.341 24.6536 145.82 24.1133Z" fill="black"/>
<path d="M108.965 253.316C110.493 253.316 111.97 253.202 113.456 252.963C111.97 253.16 110.452 253.316 108.965 253.316Z" fill="black"/>
<path d="M196.759 121.494C196.759 117.826 196.021 114.231 194.648 110.906C196.021 114.231 196.759 117.816 196.759 121.494Z" fill="black"/>
<path d="M61.988 23.8373C62.8509 24.0347 63.8283 24.2633 64.8056 24.5438C63.8283 24.2737 62.8509 24.0347 61.988 23.8373Z" fill="black"/>
<path d="M86.8055 67.7035L95.1649 62.9033C95.4352 62.7474 95.6744 62.5916 95.9447 62.4773C95.6744 62.6331 95.3937 62.7474 95.1649 62.9033L86.8055 67.7035C86.4519 59.3498 85.7865 46.8503 84.8092 42.4345C84.6948 41.9254 84.57 41.4578 84.4141 40.9902C84.57 41.4578 84.6844 41.9254 84.8092 42.4345C85.7865 46.8503 86.4519 59.3498 86.8055 67.7035Z" fill="black"/>
<path d="M79.2156 58.1357C79.1325 56.7642 79.0597 55.4446 78.9453 54.1562C79.0597 55.4446 79.1429 56.7746 79.2156 58.1357Z" fill="#131718"/>
<path d="M130.506 38.2157C130.62 37.7066 130.776 37.239 130.901 36.7715C130.786 37.239 130.662 37.7066 130.506 38.2157C129.258 43.0991 128.634 57.978 128.354 66.1031C128.624 57.978 129.289 43.0991 130.506 38.2157Z" fill="#131718"/>
<path d="M147.619 9.50482C147.619 9.26584 147.619 9.03726 147.661 8.83984C147.619 9.07882 147.619 9.30741 147.619 9.50482C147.619 10.3256 147.734 11.1465 147.931 11.9257C147.734 11.188 147.619 10.3672 147.619 9.50482Z" fill="#131718"/>
<path d="M22.3105 198.872C22.5081 199.495 22.7056 200.118 22.9344 200.711C22.6952 200.087 22.5081 199.495 22.3105 198.872Z" fill="#131718"/>
<path d="M21.9995 197.701C21.9163 197.431 21.8435 197.119 21.8019 196.807C21.8019 196.724 21.7603 196.693 21.7603 196.61C21.6044 195.903 21.49 195.207 21.4068 194.501C21.4068 194.418 21.4068 194.345 21.3652 194.262C21.3652 194.345 21.3652 194.418 21.4068 194.501C21.49 195.207 21.6044 195.903 21.7603 196.61C21.7603 196.693 21.8019 196.724 21.8019 196.807C21.8435 197.119 21.9163 197.389 21.9995 197.701C21.9995 197.784 22.0411 197.815 22.0411 197.898C22.1242 198.21 22.197 198.563 22.3114 198.875C22.2282 198.563 22.1138 198.21 22.0411 197.898C22.0411 197.815 21.9995 197.742 21.9995 197.701Z" fill="#131718"/>
<path d="M60.0328 30.6699C59.3674 31.4908 58.5876 32.2285 57.7246 32.8207C58.6188 32.2388 59.409 31.4908 60.0328 30.6699C65.8553 31.9168 75.9823 35.2832 77.8954 43.9487C77.9786 44.3019 78.0514 44.6864 78.1346 45.1955C78.0514 44.7279 77.9786 44.3019 77.8954 43.9487C76.0239 35.2728 65.8553 31.9168 60.0328 30.6699Z" fill="#131718"/>
<path d="M21.2506 193.126C21.209 192.887 21.209 192.617 21.209 192.389C21.209 192.628 21.209 192.898 21.2506 193.126C21.2506 193.241 21.2506 193.365 21.2922 193.48C21.3338 193.75 21.3338 194.03 21.3753 194.3C21.3338 194.03 21.2922 193.75 21.2922 193.48C21.2506 193.365 21.2506 193.241 21.2506 193.126Z" fill="#131718"/>
<path d="M21.1758 174.578V150.515V121.495C21.1758 120.632 21.2174 119.78 21.2902 118.918C21.207 119.78 21.1758 120.632 21.1758 121.495V150.515V191.016C21.1758 191.369 21.1758 191.722 21.2174 192.076C21.2174 191.722 21.1758 191.369 21.1758 191.016V174.568V174.578Z" fill="#131718"/>
<path d="M157.081 18.9947C156.811 18.9947 156.53 18.9947 156.26 18.9531C156.53 18.9531 156.811 18.9947 157.081 18.9947Z" fill="#131718"/>
<path d="M149.065 20.5586C148.244 21.3794 147.422 22.2418 146.643 23.1769C147.464 22.2418 148.244 21.3794 149.065 20.5586Z" fill="#131718"/>
<path d="M135.352 68.2559C135.352 68.6819 135.311 69.1182 135.311 69.5442C135.352 69.1494 135.352 68.7234 135.352 68.2559Z" fill="#131718"/>
<path d="M150.709 2.51708C150.979 2.27811 151.26 2.04952 151.572 1.81055C151.26 2.04952 150.99 2.27811 150.709 2.51708Z" fill="#131718"/>
<path d="M135.195 26.9207C135.902 25.6738 136.682 24.4997 137.462 23.3672C136.682 24.4997 135.902 25.7154 135.195 26.9207Z" fill="#131718"/>
<path d="M148.754 5.00754C148.993 4.61271 149.222 4.22827 149.492 3.875C149.222 4.22827 148.983 4.61271 148.754 5.00754Z" fill="#131718"/>
<path d="M137.18 40.9492C137.066 41.7285 136.91 42.6636 136.785 43.7234C136.9 42.6636 137.024 41.6973 137.18 40.9492Z" fill="#131718"/>
<path d="M136.797 43.7227C136.755 44.1487 136.713 44.585 136.641 45.0526C136.682 44.585 136.724 44.159 136.797 43.7227Z" fill="#131718"/>
<path d="M118.539 70.1254L117.447 69.502C112.207 66.4577 105.719 66.4577 100.478 69.502L99.3867 70.1254C105.292 66.6862 112.602 66.6862 118.539 70.1254Z" fill="#131718"/>
<path d="M194.646 110.947C194.406 110.396 194.178 109.856 193.907 109.305C193.128 107.705 192.192 106.178 191.09 104.775C189.842 103.134 188.355 101.606 186.754 100.245C186.515 100.048 186.286 99.8502 186.047 99.6944C185.693 99.4242 185.34 99.1853 185.028 98.9567C184.716 98.7281 184.363 98.5307 184.051 98.2917C183.739 98.0527 183.385 97.8657 183.032 97.6683L135.35 70.1653V69.5835C135.35 69.1886 135.391 68.7626 135.391 68.2951C135.391 67.8691 135.433 67.4015 135.433 66.9236C135.433 66.4456 135.474 65.9469 135.474 65.4378C135.474 65.1988 135.474 64.9286 135.516 64.6585C135.557 64.0351 135.557 63.4117 135.599 62.7467V62.5493C135.641 61.8843 135.641 61.2193 135.682 60.5543C135.682 60.1283 135.724 59.6919 135.765 59.2244C135.807 58.5594 135.849 57.8529 135.88 57.1983V56.9593C135.963 55.5151 136.036 54.0708 136.119 52.6266C136.202 51.494 136.275 50.3615 136.358 49.2705C136.4 48.9173 136.4 48.564 136.441 48.2107C136.483 47.5873 136.556 46.9951 136.597 46.4132C136.639 45.9041 136.68 45.4365 136.712 45.0105C136.753 44.543 136.795 44.117 136.868 43.6806C136.982 42.5896 137.107 41.6545 137.263 40.9064C137.346 40.5116 137.419 40.1999 137.46 39.8881C137.543 39.5764 137.616 39.2647 137.699 38.953C137.855 38.3296 138.053 37.7374 138.282 37.1555C138.396 36.8438 138.479 36.5737 138.593 36.262C138.905 35.3996 139.3 34.5476 139.685 33.6852C139.956 33.1345 140.236 32.5942 140.507 32.0435C140.777 31.4928 141.089 30.9837 141.401 30.4434C142.025 29.3836 142.648 28.4173 143.314 27.4406C143.584 27.0458 143.865 26.7029 144.135 26.3497C144.291 26.1522 144.447 25.9548 144.562 25.7678C144.988 25.1859 145.456 24.6353 145.934 24.0534C146.204 23.7417 146.485 23.43 146.755 23.1183C147.577 22.1832 148.398 21.3208 149.178 20.5C150.27 19.409 151.33 18.4323 152.308 17.5699C152.505 17.6842 152.661 17.7673 152.859 17.8816C153.212 18.079 153.597 18.2349 153.992 18.3907C154.501 18.5881 155.011 18.7024 155.52 18.7856C155.791 18.8271 156.071 18.8687 156.342 18.8999C156.612 18.9414 156.893 18.9414 157.163 18.9414C158.14 18.9414 159.076 18.7856 159.981 18.5154C160.293 18.4323 160.563 18.318 160.844 18.2037C161.27 18.0063 161.665 17.8089 162.06 17.5803C162.455 17.3517 162.798 17.0712 163.152 16.801C163.422 16.562 163.661 16.375 163.89 16.0945C164.129 15.8555 164.358 15.5854 164.556 15.3152C164.67 15.2009 164.753 15.0451 164.868 14.8892C165.138 14.4944 165.377 14.11 165.575 13.6736C165.658 13.5177 165.731 13.3619 165.814 13.206C166.323 12.0735 166.593 10.7851 166.593 9.45512C166.593 4.21844 162.372 0 157.132 0H156.466C155.915 0.041561 155.333 0.114293 154.824 0.270147C154.085 0.467561 153.378 0.737708 152.755 1.04941C152.671 1.09098 152.557 1.16371 152.484 1.20527C152.172 1.36112 151.902 1.55854 151.621 1.75595C151.309 1.95337 151.039 2.18195 150.758 2.46249C150.644 2.57678 150.519 2.6599 150.446 2.7742C150.332 2.88849 150.249 3.01317 150.135 3.0859C149.937 3.32488 149.739 3.55346 149.552 3.79244C149.282 4.14571 149.043 4.53015 148.814 4.92498C148.617 5.27824 148.461 5.58995 148.346 5.98478C148.232 6.25493 148.149 6.53546 148.076 6.80561C147.993 7.00302 147.961 7.23161 147.92 7.42902C147.837 7.85502 147.764 8.29141 147.722 8.75898C147.722 8.99795 147.681 9.22654 147.681 9.42395C147.681 10.2448 147.795 11.0656 147.993 11.8449C147.41 12.354 146.818 12.8631 146.194 13.445C145.57 13.9957 144.977 14.6191 144.354 15.2009L143.688 15.8659C143.293 16.2607 142.908 16.6867 142.472 17.1127C142.233 17.3517 142.045 17.6219 141.806 17.8504C141.567 18.1206 141.338 18.4011 141.068 18.6713C139.852 20.0739 138.604 21.6429 137.471 23.2845C136.691 24.4171 135.911 25.5912 135.204 26.838C134.497 28.0848 133.8 29.342 133.176 30.6616C132.781 31.524 132.397 32.4176 132.043 33.3527C131.804 33.9761 131.575 34.5995 131.378 35.2229C131.222 35.6905 131.066 36.158 130.951 36.6672C130.795 37.1347 130.681 37.6439 130.556 38.1114C129.309 42.9948 128.685 57.8737 128.404 65.9988L122.81 62.7571C121.75 62.1752 120.7 61.6245 119.566 61.157C119.296 61.0427 119.015 60.918 118.745 60.8453C118.194 60.6479 117.612 60.4504 117.029 60.2634C116.759 60.1803 116.447 60.1076 116.166 60.0244C115.303 59.7855 114.409 59.5984 113.505 59.4426C112.6 59.2867 111.706 59.2036 110.812 59.1309C110.23 59.0893 109.595 59.0478 109.013 59.0478C104.792 59.0478 100.612 60.0244 96.817 61.8947C96.5466 62.009 96.2659 62.1648 95.9956 62.3207C95.7253 62.4765 95.4445 62.5908 95.2158 62.7467L86.8563 67.547C86.5028 59.1932 85.8374 46.6938 84.86 42.2779C84.7457 41.7688 84.6209 41.3012 84.4649 40.8337C84.309 40.3661 84.153 39.8985 83.9971 39.4621C83.6436 38.5686 83.2589 37.7062 82.8222 36.9269C82.5102 36.3762 82.1983 35.8671 81.8864 35.3684C81.2626 34.4748 80.5971 33.6124 79.8589 32.8643C79.391 32.3552 78.9232 31.8877 78.4137 31.4617C78.1746 31.2227 77.9042 31.0357 77.6339 30.7967C76.9685 30.246 76.2614 29.7057 75.5232 29.2381C75.0554 28.9264 74.5459 28.6147 74.0364 28.303C73.7973 28.1472 73.5269 28.0329 73.2982 27.877C72.56 27.451 71.7698 27.0978 71.0316 26.7445C70.2934 26.3912 69.5032 26.0795 68.765 25.7678C68.0268 25.4561 67.2781 25.2171 66.5399 24.9885C66.3008 24.9054 66.0721 24.8327 65.8329 24.7496C65.4794 24.6353 65.1675 24.5521 64.814 24.4379C63.8366 24.1677 62.8593 23.9287 61.9963 23.7313C61.4868 19.0038 57.4631 15.2944 52.5763 15.2944C51.9109 15.2944 51.2455 15.3776 50.6216 15.4919C50.4241 15.5334 50.1953 15.575 49.9978 15.6477C49.8002 15.7204 49.6027 15.762 49.3739 15.8451C48.9788 16.001 48.5941 16.1568 48.199 16.3542C48.0015 16.4374 47.8455 16.5517 47.648 16.666C47.3776 16.8218 47.1385 16.9777 46.9098 17.1751C46.5563 17.4452 46.2027 17.7569 45.8908 18.0686C45.7765 18.1829 45.6933 18.3076 45.5789 18.3803C45.3814 18.6193 45.1838 18.8479 44.9967 19.0869C44.7263 19.4401 44.4872 19.8246 44.2584 20.2194C44.1441 20.4168 44.0193 20.6454 43.9465 20.8428C43.8633 21.0402 43.749 21.2377 43.6762 21.4662C43.2811 22.4845 43.0939 23.5755 43.0939 24.708C43.0939 25.6847 43.2499 26.6198 43.5202 27.5238C43.7178 28.1056 43.9465 28.6979 44.2272 29.207C44.4664 29.6018 44.6951 29.9862 44.9655 30.3395C45.319 30.8071 45.7453 31.2746 46.1819 31.6695C46.6186 32.0643 47.1177 32.4487 47.6272 32.7604C48.0223 32.9994 48.407 33.1864 48.8437 33.3839C49.114 33.4981 49.4259 33.6228 49.7066 33.6956C50.6008 33.9657 51.547 34.1216 52.5243 34.1216C53.2625 34.1216 54.0111 34.0384 54.7182 33.8514C55.0717 33.7683 55.4252 33.654 55.7371 33.5397C56.0906 33.4254 56.4025 33.2696 56.7145 33.1137C57.0264 32.9579 57.3383 32.7604 57.6502 32.563C58.5444 31.9812 59.3346 31.2746 59.9584 30.4122C65.7809 31.6591 75.9079 35.0255 77.821 43.691C77.9042 44.0442 77.977 44.4287 78.0602 44.9378C78.1018 45.0937 78.1018 45.2495 78.1434 45.4469C78.2265 46.1119 78.3409 46.8912 78.4137 47.7536C78.4969 48.4185 78.5697 49.1562 78.6112 49.9459C78.6528 50.1849 78.6528 50.455 78.6944 50.6836C78.7776 51.4629 78.8088 52.2421 78.892 53.063C78.9336 53.3331 78.9336 53.6137 78.9751 53.8838C79.0583 55.1722 79.1311 56.5021 79.2455 57.8633C79.2871 58.5282 79.3287 59.2348 79.3598 59.8894C79.599 63.9935 79.755 68.1288 79.9109 71.4121L34.9632 97.3462C33.9027 97.9696 32.8942 98.6346 31.9168 99.3723C31.4489 99.7256 30.981 100.11 30.5132 100.505C30.274 100.702 30.0869 100.9 29.8477 101.128C29.4214 101.523 28.9848 101.949 28.6001 102.375C28.4025 102.614 28.1738 102.843 27.9762 103.082C27.7787 103.321 27.5811 103.549 27.394 103.788C27.1236 104.1 26.8845 104.412 26.6558 104.765C25.9175 105.742 25.2521 106.76 24.6595 107.809C24.3475 108.36 24.0772 108.869 23.8381 109.409C23.7237 109.648 23.5989 109.918 23.4846 110.147C23.2454 110.656 23.0583 111.165 22.8607 111.674C22.3928 112.963 21.9977 114.251 21.7274 115.623C21.6858 115.737 21.6858 115.862 21.6442 115.976C21.4883 116.797 21.3739 117.618 21.2907 118.438C21.2907 118.522 21.2907 118.594 21.2491 118.677C21.166 119.54 21.1348 120.392 21.1348 121.254V150.274V190.775C21.1348 191.129 21.1348 191.482 21.1764 191.835V192.147C21.1764 192.386 21.2179 192.656 21.2179 192.884C21.2179 192.999 21.2179 193.123 21.2595 193.238C21.3011 193.508 21.3011 193.788 21.3427 194.059C21.3427 194.142 21.3427 194.214 21.3843 194.298C21.4675 195.004 21.5819 195.7 21.7378 196.407C21.7378 196.49 21.7794 196.521 21.7794 196.604C21.8626 196.916 21.8938 197.186 21.9769 197.498C21.9769 197.581 22.0185 197.612 22.0185 197.695C22.1017 198.007 22.1745 198.36 22.2889 198.672V198.713C22.4864 199.337 22.684 199.96 22.9127 200.552C23.1518 201.176 23.3806 201.768 23.6509 202.35C24.3164 203.836 25.1377 205.238 26.0735 206.568C26.271 206.839 26.4686 207.119 26.6558 207.348C27.0509 207.857 27.4356 208.366 27.8722 208.875C28.7352 209.852 29.6294 210.787 30.6483 211.649C31.3138 212.231 31.9792 212.782 32.7174 213.291C33.4556 213.8 34.1626 214.268 34.9424 214.735L95.1742 249.501C96.7338 250.394 98.3766 251.143 100.103 251.724C100.685 251.922 101.236 252.078 101.818 252.234C102.993 252.545 104.168 252.784 105.332 252.94C105.915 253.023 106.549 253.096 107.131 253.137C107.713 253.179 108.348 253.221 108.93 253.221C110.458 253.221 111.935 253.106 113.422 252.867C114.316 252.711 115.179 252.514 116.083 252.286C116.665 252.13 117.258 251.974 117.799 251.776C118.381 251.579 118.932 251.382 119.483 251.153C120.305 250.8 121.126 250.415 121.947 249.979C122.218 249.823 122.498 249.709 122.727 249.553L182.959 214.787C184.331 214.008 185.621 213.104 186.827 212.096C187.607 211.431 188.386 210.725 189.093 209.987C191.942 206.984 194.094 203.389 195.384 199.482C195.852 197.996 196.205 196.511 196.444 194.952V194.869C196.559 194.048 196.642 193.227 196.683 192.407V192.095C196.683 191.7 196.725 191.316 196.725 190.879V121.348C196.881 117.836 196.143 114.241 194.77 110.957L194.646 110.947ZM29.5046 121.493V120.205C29.5046 114.147 32.7486 108.526 37.9888 105.513L39.0806 104.89L99.3123 70.1238L100.404 69.5003C105.644 66.456 112.132 66.456 117.373 69.5003L118.464 70.1238L166.386 97.7826L178.696 104.89C184.633 108.329 188.314 114.656 188.314 121.524V144.019L120.845 182.962C114.045 186.91 105.644 186.91 98.8029 182.962L29.775 143.126C29.6918 143.084 29.619 143.011 29.5358 142.97V121.483H29.4942L29.5046 121.493ZM29.5046 163.407L62.9632 182.702L92.7516 199.887C97.9503 202.89 103.856 204.459 109.834 204.459C115.813 204.459 121.719 202.901 126.917 199.887L188.397 164.426V184.5L120.856 223.484C114.056 227.432 105.655 227.432 98.8133 223.484L29.7334 183.637C29.6502 183.596 29.5774 183.523 29.4942 183.481V163.407H29.5046Z" fill="black"/>
<path d="M39.1134 104.891L38.0217 105.514C32.7814 108.558 29.5375 114.148 29.5375 120.206V121.494C29.4959 114.657 33.1765 108.288 39.1134 104.891Z" fill="#131718"/>
<path d="M98.8463 223.629C105.646 227.577 114.047 227.577 120.889 223.629L188.43 184.645V164.571L126.909 200.033C121.71 203.036 115.804 204.605 109.826 204.605C103.847 204.605 97.9418 203.046 92.7431 200.033L62.9547 182.847L29.4961 163.553V183.627C29.5793 183.668 29.6521 183.741 29.7352 183.783L98.8359 223.629H98.8463Z" fill="#F2ED6E"/>
<path d="M98.8458 183.127C105.646 187.075 114.047 187.075 120.888 183.127L188.429 144.143V121.648C188.429 114.77 184.759 108.442 178.812 105.013L166.501 97.9062L118.58 70.2473C112.643 66.8082 105.334 66.8082 99.3864 70.2473L39.1546 105.013C33.2178 108.452 29.5371 114.78 29.5371 121.648V143.135C29.6203 143.176 29.6931 143.249 29.7762 143.291L98.8458 183.137V183.127ZM148.368 134.189C148.368 136.963 144.698 139.187 140.165 139.187C135.632 139.187 131.961 136.963 131.961 134.189C131.961 131.415 135.632 129.191 140.165 129.191C144.698 129.191 148.368 131.415 148.368 134.189ZM128.312 93.8748C133.864 93.8748 138.314 100.119 138.314 107.86C138.314 115.601 133.822 121.845 128.312 121.845C122.801 121.845 118.31 115.601 118.31 107.86C118.31 100.119 122.801 93.8748 128.312 93.8748ZM89.5817 93.8748C95.1339 93.8748 99.584 100.119 99.584 107.86C99.584 115.601 95.0923 121.845 89.5817 121.845C84.0712 121.845 79.5795 115.601 79.5795 107.86C79.5795 100.119 84.0712 93.8748 89.5817 93.8748ZM77.7704 129.181C82.3036 129.181 85.9739 131.404 85.9739 134.179C85.9739 136.953 82.3036 139.176 77.7704 139.176C73.2371 139.176 69.5669 136.953 69.5669 134.179C69.5669 131.404 73.2371 129.181 77.7704 129.181Z" fill="#F2ED6E"/>
<path d="M128.313 121.805C133.865 121.805 138.315 115.56 138.315 107.819C138.315 100.079 133.823 93.834 128.313 93.834C122.802 93.834 118.311 100.079 118.311 107.819C118.311 115.56 122.802 121.805 128.313 121.805Z" fill="#131718"/>
<path d="M131.951 134.189C131.951 136.963 135.621 139.187 140.155 139.187C144.688 139.187 148.358 136.963 148.358 134.189C148.358 131.415 144.688 129.191 140.155 129.191C135.621 129.191 131.951 131.415 131.951 134.189Z" fill="#EE2467"/>
<path d="M89.5843 121.805C95.1365 121.805 99.5865 115.56 99.5865 107.819C99.5865 100.079 95.0949 93.834 89.5843 93.834C84.0737 93.834 79.582 100.079 79.582 107.819C79.582 115.56 84.0737 121.805 89.5843 121.805Z" fill="#131718"/>
<path d="M77.7719 139.187C82.3051 139.187 85.9754 136.963 85.9754 134.189C85.9754 131.415 82.3051 129.191 77.7719 129.191C73.2386 129.191 69.5684 131.415 69.5684 134.189C69.5684 136.963 73.2386 139.187 77.7719 139.187Z" fill="#EE2467"/>
<path d="M107.944 38.3262C139.323 38.3261 164.683 52.8446 181.271 71.5371C197.68 90.0276 206.123 113.374 202.328 131.524L200.405 140.721L194.074 133.778C155.297 91.2574 120.601 82.7668 92.5039 88.2803C63.9421 93.885 40.8404 114.201 26.1357 131.938L19.8789 139.484L17.7461 129.916C8.53053 88.5657 44.5014 38.3265 107.944 38.3262Z" fill="#B4D2D2" stroke="black" stroke-width="9.61006"/>
<path d="M109.104 43.1348C167.709 43.8389 203.908 97.8237 197.734 129.977H197.107C165.099 95.0906 135.265 82.3669 109.104 81.9775V43.1348Z" fill="#9EB8B8"/>
<path d="M190.905 131.541H27.2981C17.7446 131.541 10 139.286 10 148.839V166.528C10 173.59 14.2932 179.943 20.8459 182.577L103.432 215.778C107.605 217.456 112.268 217.442 116.431 215.74L197.452 182.613C203.955 179.954 208.204 173.627 208.204 166.602V148.839C208.204 139.286 200.459 131.541 190.905 131.541Z" fill="#3C4D5F"/>
<path d="M27.2979 141.151H190.905C195.151 141.151 198.594 144.593 198.594 148.839V166.602C198.594 169.724 196.705 172.536 193.815 173.718L112.794 206.845C110.944 207.601 108.871 207.607 107.017 206.861L24.4307 173.661C21.5184 172.49 19.6104 169.666 19.6104 166.527V148.839C19.6105 144.593 23.0521 141.152 27.2979 141.151Z" stroke="#8AA1A1" stroke-width="19.2201"/>
<path d="M190.905 126.736C203.112 126.736 213.009 136.632 213.009 148.839V166.602C213.009 175.578 207.579 183.663 199.271 187.061L118.249 220.188C112.929 222.362 106.972 222.38 101.64 220.236L19.0537 187.036C10.6809 183.67 5.19531 175.551 5.19531 166.527V148.839C5.19545 136.632 15.0908 126.736 27.2979 126.736H190.905Z" stroke="black" stroke-width="9.61006"/>
<path d="M130.603 139.803C161.969 140.624 203.014 141.793 202.634 142.167C202.071 142.722 202.614 174.352 202.634 174.977C202.634 174.977 202.634 174.978 202.634 174.979C202.634 174.989 202.634 174.988 202.634 174.977C202.47 174.692 166.892 188.651 137.23 200.364C126.036 204.784 113.853 196.722 113.558 184.691L112.89 157.508C112.647 147.622 120.717 139.544 130.603 139.803Z" fill="#233246"/>
<path d="M49.5315 189.446L43.4509 139.049" stroke="#8AA1A1" stroke-width="19.2201"/>
<path d="M80.1554 202.254L73.5173 142.392" stroke="#8AA1A1" stroke-width="19.2201"/>
<path d="M175.343 190.202L180.867 139.248" stroke="#778A8A" stroke-width="19.2201"/>
<path d="M144.013 201.408L150.649 140.994" stroke="#778A8A" stroke-width="19.2201"/>
<line y1="-9.61006" x2="62.7131" y2="-9.61006" transform="matrix(0 -1 -1 0 102.422 206.504)" stroke="#8AA1A1" stroke-width="19.2201"/>
<g clip-path="url(#clip0_1456_566)">
<path d="M23.6843 137.896H112.765H201.845C203.69 137.896 205.185 139.392 205.185 141.237V171.162C205.185 172.519 204.365 173.74 203.11 174.254L114.835 210.347C114.031 210.676 113.13 210.679 112.324 210.355L22.4381 174.219C21.1729 173.71 20.344 172.484 20.3438 171.12V141.237C20.3438 139.392 21.8394 137.896 23.6843 137.896Z" stroke="#778A8A" stroke-width="19.2201"/>
<line y1="-9.61006" x2="62.7131" y2="-9.61006" transform="matrix(0 -1 -1 0 106.084 203.951)" stroke="#778A8A" stroke-width="19.2201"/>
</g>
<path d="M109.424 67.9241H95.9129C82.5504 50.6648 78.0944 14.9213 109.272 7.79492L109.424 67.9241Z" fill="#F0361E"/>
<path d="M109.121 67.9241H122.632C135.994 50.6648 140.451 14.9213 109.273 7.79492L109.121 67.9241Z" fill="#C32314"/>
<path d="M190.905 126.541C203.22 126.541 213.203 136.524 213.203 148.839V166.602C213.203 175.657 207.727 183.814 199.345 187.241L118.323 220.368C112.957 222.562 106.947 222.58 101.567 220.417L18.9805 187.217C10.5339 183.821 5 175.631 5 166.527V148.839C5.00014 136.524 14.9832 126.541 27.2979 126.541H190.905Z" stroke="black" stroke-width="10"/>
<defs>
<clipPath id="clip0_1456_566">
<rect width="97.9883" height="86.8532" fill="white" transform="translate(113.879 131.217)"/>
</clipPath>
</defs>
</svg>
