<svg width="862" height="101" viewBox="0 0 862 101" fill="none" xmlns="http://www.w3.org/2000/svg">
<path d="M0 33.7285H151.8V100.521H0L28.2419 66.5174L0 33.7285Z" fill="#65936D"/>
<path d="M862 33.4766H710.2V100.269H862L833.758 66.2654L862 33.4766Z" fill="#65936D"/>
<rect x="69.3461" width="715.779" height="66.9549" fill="#A1C8A8"/>
<path d="M182.974 45.7451C181.269 45.7451 179.693 45.4644 178.246 44.9031C176.8 44.3202 175.548 43.5106 174.49 42.4743C173.432 41.438 172.601 40.2182 171.996 38.8149C171.413 37.4116 171.122 35.8787 171.122 34.2164C171.122 32.554 171.413 31.0211 171.996 29.6178C172.601 28.2145 173.432 26.9947 174.49 25.9584C175.569 24.9221 176.832 24.1233 178.279 23.562C179.725 22.9791 181.301 22.6876 183.007 22.6876C184.648 22.6876 186.191 22.9683 187.638 23.5296C189.084 24.0694 190.304 24.8898 191.297 25.9908L189.775 27.5129C188.847 26.5629 187.821 25.8829 186.699 25.4727C185.576 25.0409 184.367 24.825 183.072 24.825C181.711 24.825 180.448 25.0625 179.283 25.5374C178.117 25.9908 177.102 26.6493 176.239 27.5129C175.375 28.3548 174.695 29.348 174.198 30.4922C173.723 31.6148 173.486 32.8562 173.486 34.2164C173.486 35.5765 173.723 36.8287 174.198 37.9729C174.695 39.0956 175.375 40.0887 176.239 40.9522C177.102 41.7942 178.117 42.4527 179.283 42.9277C180.448 43.381 181.711 43.6077 183.072 43.6077C184.367 43.6077 185.576 43.3918 186.699 42.9601C187.821 42.5283 188.847 41.8374 189.775 40.8875L191.297 42.4095C190.304 43.5106 189.084 44.3418 187.638 44.9031C186.191 45.4644 184.637 45.7451 182.974 45.7451ZM215.253 22.8819H217.617V45.5508H215.253V22.8819ZM201.069 45.5508H198.673V22.8819H201.069V45.5508ZM215.48 35.0907H200.81V32.9858H215.48V35.0907ZM237.193 45.7451C235.487 45.7451 233.9 45.4644 232.432 44.9031C230.986 44.3202 229.723 43.5106 228.643 42.4743C227.585 41.4164 226.754 40.1966 226.15 38.8149C225.567 37.4116 225.275 35.8787 225.275 34.2164C225.275 32.554 225.567 31.0319 226.15 29.6502C226.754 28.2469 227.585 27.0271 228.643 25.9908C229.723 24.9329 230.986 24.1233 232.432 23.562C233.879 22.9791 235.465 22.6876 237.193 22.6876C238.898 22.6876 240.474 22.9791 241.921 23.562C243.367 24.1233 244.619 24.9221 245.677 25.9584C246.757 26.9947 247.588 28.2145 248.171 29.6178C248.775 31.0211 249.078 32.554 249.078 34.2164C249.078 35.8787 248.775 37.4116 248.171 38.8149C247.588 40.2182 246.757 41.438 245.677 42.4743C244.619 43.5106 243.367 44.3202 241.921 44.9031C240.474 45.4644 238.898 45.7451 237.193 45.7451ZM237.193 43.6077C238.553 43.6077 239.805 43.381 240.949 42.9277C242.115 42.4527 243.119 41.7942 243.961 40.9522C244.824 40.0887 245.494 39.0956 245.969 37.9729C246.444 36.8287 246.681 35.5765 246.681 34.2164C246.681 32.8562 246.444 31.6148 245.969 30.4922C245.494 29.348 244.824 28.3548 243.961 27.5129C243.119 26.6493 242.115 25.9908 240.949 25.5374C239.805 25.0625 238.553 24.825 237.193 24.825C235.833 24.825 234.57 25.0625 233.404 25.5374C232.238 25.9908 231.223 26.6493 230.36 27.5129C229.518 28.3548 228.848 29.348 228.352 30.4922C227.877 31.6148 227.639 32.8562 227.639 34.2164C227.639 35.5549 227.877 36.7963 228.352 37.9405C228.848 39.0848 229.518 40.0887 230.36 40.9522C231.223 41.7942 232.238 42.4527 233.404 42.9277C234.57 43.381 235.833 43.6077 237.193 43.6077ZM266.625 45.7451C264.92 45.7451 263.333 45.4644 261.865 44.9031C260.418 44.3202 259.156 43.5106 258.076 42.4743C257.018 41.4164 256.187 40.1966 255.582 38.8149C255 37.4116 254.708 35.8787 254.708 34.2164C254.708 32.554 255 31.0319 255.582 29.6502C256.187 28.2469 257.018 27.0271 258.076 25.9908C259.156 24.9329 260.418 24.1233 261.865 23.562C263.311 22.9791 264.898 22.6876 266.625 22.6876C268.331 22.6876 269.907 22.9791 271.354 23.562C272.8 24.1233 274.052 24.9221 275.11 25.9584C276.19 26.9947 277.021 28.2145 277.604 29.6178C278.208 31.0211 278.51 32.554 278.51 34.2164C278.51 35.8787 278.208 37.4116 277.604 38.8149C277.021 40.2182 276.19 41.438 275.11 42.4743C274.052 43.5106 272.8 44.3202 271.354 44.9031C269.907 45.4644 268.331 45.7451 266.625 45.7451ZM266.625 43.6077C267.986 43.6077 269.238 43.381 270.382 42.9277C271.548 42.4527 272.552 41.7942 273.394 40.9522C274.257 40.0887 274.927 39.0956 275.402 37.9729C275.876 36.8287 276.114 35.5765 276.114 34.2164C276.114 32.8562 275.876 31.6148 275.402 30.4922C274.927 29.348 274.257 28.3548 273.394 27.5129C272.552 26.6493 271.548 25.9908 270.382 25.5374C269.238 25.0625 267.986 24.825 266.625 24.825C265.265 24.825 264.002 25.0625 262.837 25.5374C261.671 25.9908 260.656 26.6493 259.792 27.5129C258.95 28.3548 258.281 29.348 257.785 30.4922C257.31 31.6148 257.072 32.8562 257.072 34.2164C257.072 35.5549 257.31 36.7963 257.785 37.9405C258.281 39.0848 258.95 40.0887 259.792 40.9522C260.656 41.7942 261.671 42.4527 262.837 42.9277C264.002 43.381 265.265 43.6077 266.625 43.6077ZM292.399 45.7451C290.715 45.7451 289.096 45.4752 287.541 44.9355C286.008 44.3742 284.821 43.6617 283.979 42.7981L284.918 40.9522C285.717 41.7295 286.786 42.3879 288.124 42.9277C289.484 43.4458 290.909 43.7049 292.399 43.7049C293.824 43.7049 294.979 43.5322 295.864 43.1867C296.771 42.8197 297.429 42.334 297.839 41.7295C298.271 41.125 298.487 40.4557 298.487 39.7217C298.487 38.8365 298.228 38.124 297.71 37.5843C297.213 37.0446 296.555 36.6236 295.734 36.3213C294.914 35.9975 294.007 35.7168 293.014 35.4793C292.021 35.2419 291.028 34.9936 290.035 34.7345C289.042 34.4538 288.124 34.0868 287.282 33.6334C286.462 33.1801 285.792 32.5864 285.274 31.8523C284.778 31.0967 284.53 30.1144 284.53 28.9054C284.53 27.7827 284.821 26.7572 285.404 25.8289C286.008 24.879 286.926 24.1233 288.157 23.562C289.387 22.9791 290.963 22.6876 292.885 22.6876C294.158 22.6876 295.421 22.8711 296.674 23.2382C297.926 23.5836 299.005 24.0694 299.912 24.6954L299.102 26.6061C298.131 25.9584 297.095 25.4835 295.993 25.1812C294.914 24.879 293.867 24.7278 292.852 24.7278C291.492 24.7278 290.369 24.9113 289.484 25.2784C288.599 25.6454 287.941 26.1419 287.509 26.768C287.099 27.3725 286.894 28.0634 286.894 28.8406C286.894 29.7258 287.142 30.4382 287.638 30.978C288.157 31.5177 288.826 31.9387 289.646 32.2409C290.488 32.5432 291.406 32.8131 292.399 33.0505C293.392 33.288 294.374 33.5471 295.346 33.8278C296.339 34.1084 297.246 34.4754 298.066 34.9288C298.908 35.3606 299.577 35.9435 300.074 36.6776C300.592 37.4116 300.851 38.3723 300.851 39.5597C300.851 40.6608 300.549 41.6863 299.944 42.6362C299.34 43.5646 298.411 44.3202 297.159 44.9031C295.929 45.4644 294.342 45.7451 292.399 45.7451ZM310.477 33.0182H322.459V35.0583H310.477V33.0182ZM310.736 43.4782H324.37V45.5508H308.339V22.8819H323.884V24.9545H310.736V43.4782ZM348.42 45.5508V37.1309L348.971 38.6206L339.352 22.8819H341.911L350.363 36.7099H349.003L357.455 22.8819H359.852L350.233 38.6206L350.784 37.1309V45.5508H348.42ZM374.764 45.7451C373.059 45.7451 371.472 45.4644 370.004 44.9031C368.557 44.3202 367.294 43.5106 366.215 42.4743C365.157 41.4164 364.326 40.1966 363.721 38.8149C363.138 37.4116 362.847 35.8787 362.847 34.2164C362.847 32.554 363.138 31.0319 363.721 29.6502C364.326 28.2469 365.157 27.0271 366.215 25.9908C367.294 24.9329 368.557 24.1233 370.004 23.562C371.45 22.9791 373.037 22.6876 374.764 22.6876C376.47 22.6876 378.046 22.9791 379.492 23.562C380.939 24.1233 382.191 24.9221 383.249 25.9584C384.328 26.9947 385.159 28.2145 385.742 29.6178C386.347 31.0211 386.649 32.554 386.649 34.2164C386.649 35.8787 386.347 37.4116 385.742 38.8149C385.159 40.2182 384.328 41.438 383.249 42.4743C382.191 43.5106 380.939 44.3202 379.492 44.9031C378.046 45.4644 376.47 45.7451 374.764 45.7451ZM374.764 43.6077C376.124 43.6077 377.376 43.381 378.521 42.9277C379.687 42.4527 380.69 41.7942 381.532 40.9522C382.396 40.0887 383.065 39.0956 383.54 37.9729C384.015 36.8287 384.253 35.5765 384.253 34.2164C384.253 32.8562 384.015 31.6148 383.54 30.4922C383.065 29.348 382.396 28.3548 381.532 27.5129C380.69 26.6493 379.687 25.9908 378.521 25.5374C377.376 25.0625 376.124 24.825 374.764 24.825C373.404 24.825 372.141 25.0625 370.975 25.5374C369.809 25.9908 368.795 26.6493 367.931 27.5129C367.089 28.3548 366.42 29.348 365.923 30.4922C365.448 31.6148 365.211 32.8562 365.211 34.2164C365.211 35.5549 365.448 36.7963 365.923 37.9405C366.42 39.0848 367.089 40.0887 367.931 40.9522C368.795 41.7942 369.809 42.4527 370.975 42.9277C372.141 43.381 373.404 43.6077 374.764 43.6077ZM403.42 45.7451C400.527 45.7451 398.249 44.9139 396.587 43.2515C394.924 41.5891 394.093 39.1279 394.093 35.8679V22.8819H396.49V35.7708C396.49 38.4479 397.094 40.4233 398.303 41.6971C399.512 42.9709 401.218 43.6077 403.42 43.6077C405.643 43.6077 407.36 42.9709 408.569 41.6971C409.778 40.4233 410.382 38.4479 410.382 35.7708V22.8819H412.714V35.8679C412.714 39.1279 411.883 41.5891 410.22 43.2515C408.58 44.9139 406.313 45.7451 403.42 45.7451ZM422.202 45.5508V22.8819H430.687C432.608 22.8819 434.26 23.195 435.642 23.8211C437.023 24.4256 438.081 25.3107 438.815 26.4766C439.571 27.6208 439.949 29.0133 439.949 30.6541C439.949 32.2517 439.571 33.6334 438.815 34.7993C438.081 35.9435 437.023 36.8287 435.642 37.4548C434.26 38.0593 432.608 38.3615 430.687 38.3615H423.53L424.599 37.2605V45.5508H422.202ZM437.682 45.5508L431.853 37.3252H434.443L440.305 45.5508H437.682ZM424.599 37.4548L423.53 36.3213H430.622C432.889 36.3213 434.605 35.8248 435.771 34.8317C436.959 33.8385 437.552 32.446 437.552 30.6541C437.552 28.8406 436.959 27.4373 435.771 26.4442C434.605 25.4511 432.889 24.9545 430.622 24.9545H423.53L424.599 23.8211V37.4548ZM469.155 45.9394C467.406 45.9394 465.776 45.6587 464.265 45.0974C462.775 44.5145 461.48 43.6941 460.378 42.6362C459.277 41.5783 458.414 40.3369 457.788 38.9121C457.183 37.4872 456.881 35.9219 456.881 34.2164C456.881 32.5108 457.183 30.9456 457.788 29.5207C458.414 28.0958 459.277 26.8544 460.378 25.7965C461.501 24.7386 462.807 23.929 464.297 23.3677C465.787 22.7848 467.417 22.4933 469.187 22.4933C471.152 22.4933 472.922 22.8388 474.498 23.5296C476.096 24.1989 477.434 25.192 478.514 26.509L475.146 29.6178C474.368 28.7327 473.505 28.0742 472.555 27.6424C471.605 27.189 470.569 26.9623 469.446 26.9623C468.388 26.9623 467.417 27.135 466.531 27.4805C465.646 27.8259 464.88 28.3225 464.232 28.9701C463.584 29.6178 463.077 30.3842 462.71 31.2694C462.365 32.1546 462.192 33.1369 462.192 34.2164C462.192 35.2958 462.365 36.2781 462.71 37.1633C463.077 38.0485 463.584 38.8149 464.232 39.4626C464.88 40.1103 465.646 40.6068 466.531 40.9522C467.417 41.2977 468.388 41.4704 469.446 41.4704C470.569 41.4704 471.605 41.2545 472.555 40.8227C473.505 40.3693 474.368 39.6893 475.146 38.7825L478.514 41.8914C477.434 43.2083 476.096 44.2122 474.498 44.9031C472.922 45.594 471.141 45.9394 469.155 45.9394ZM499.868 22.8819H505.114V45.5508H499.868V22.8819ZM489.569 45.5508H484.323V22.8819H489.569V45.5508ZM500.256 36.2566H489.181V31.8199H500.256V36.2566ZM509.765 45.5508L519.868 22.8819H525.05L535.186 45.5508H529.681L521.391 25.5374H523.463L515.14 45.5508H509.765ZM514.817 40.6932L516.209 36.7099H527.867L529.292 40.6932H514.817ZM539.805 45.5508V22.8819H549.617C551.647 22.8819 553.395 23.2166 554.863 23.8858C556.332 24.5335 557.465 25.4727 558.264 26.7033C559.063 27.9339 559.462 29.4019 559.462 31.1075C559.462 32.7915 559.063 34.2487 558.264 35.4793C557.465 36.6883 556.332 37.6167 554.863 38.2644C553.395 38.9121 551.647 39.2359 549.617 39.2359H542.719L545.051 36.9366V45.5508H539.805ZM554.216 45.5508L548.549 37.3252H554.151L559.883 45.5508H554.216ZM545.051 37.5195L542.719 35.0583H549.326C550.945 35.0583 552.154 34.7129 552.953 34.0221C553.752 33.3096 554.151 32.3381 554.151 31.1075C554.151 29.8553 553.752 28.8838 552.953 28.1929C552.154 27.5021 550.945 27.1566 549.326 27.1566H542.719L545.051 24.6631V37.5195ZM562.906 45.5508L573.01 22.8819H578.191L588.328 45.5508H582.822L574.532 25.5374H576.605L568.282 45.5508H562.906ZM567.958 40.6932L569.351 36.7099H581.009L582.434 40.6932H567.958ZM603.479 45.9394C601.73 45.9394 600.1 45.6587 598.589 45.0974C597.099 44.5145 595.804 43.6941 594.703 42.6362C593.602 41.5783 592.738 40.3369 592.112 38.9121C591.507 37.4872 591.205 35.9219 591.205 34.2164C591.205 32.5108 591.507 30.9456 592.112 29.5207C592.738 28.0958 593.602 26.8544 594.703 25.7965C595.825 24.7386 597.132 23.929 598.621 23.3677C600.111 22.7848 601.741 22.4933 603.511 22.4933C605.476 22.4933 607.246 22.8388 608.822 23.5296C610.42 24.1989 611.758 25.192 612.838 26.509L609.47 29.6178C608.693 28.7327 607.829 28.0742 606.879 27.6424C605.929 27.189 604.893 26.9623 603.77 26.9623C602.712 26.9623 601.741 27.135 600.856 27.4805C599.971 27.8259 599.204 28.3225 598.556 28.9701C597.909 29.6178 597.401 30.3842 597.034 31.2694C596.689 32.1546 596.516 33.1369 596.516 34.2164C596.516 35.2958 596.689 36.2781 597.034 37.1633C597.401 38.0485 597.909 38.8149 598.556 39.4626C599.204 40.1103 599.971 40.6068 600.856 40.9522C601.741 41.2977 602.712 41.4704 603.77 41.4704C604.893 41.4704 605.929 41.2545 606.879 40.8227C607.829 40.3693 608.693 39.6893 609.47 38.7825L612.838 41.8914C611.758 43.2083 610.42 44.2122 608.822 44.9031C607.246 45.594 605.465 45.9394 603.479 45.9394ZM623.122 45.5508V27.1566H615.868V22.8819H635.622V27.1566H628.368V45.5508H623.122ZM645.537 32.0142H656.45V36.0946H645.537V32.0142ZM645.925 41.3409H658.264V45.5508H640.712V22.8819H657.843V27.0919H645.925V41.3409ZM664.705 45.5508V22.8819H674.517C676.547 22.8819 678.295 23.2166 679.763 23.8858C681.232 24.5335 682.365 25.4727 683.164 26.7033C683.963 27.9339 684.362 29.4019 684.362 31.1075C684.362 32.7915 683.963 34.2487 683.164 35.4793C682.365 36.6883 681.232 37.6167 679.763 38.2644C678.295 38.9121 676.547 39.2359 674.517 39.2359H667.619L669.951 36.9366V45.5508H664.705ZM679.116 45.5508L673.449 37.3252H679.051L684.783 45.5508H679.116ZM669.951 37.5195L667.619 35.0583H674.226C675.845 35.0583 677.054 34.7129 677.853 34.0221C678.652 33.3096 679.051 32.3381 679.051 31.1075C679.051 29.8553 678.652 28.8838 677.853 28.1929C677.054 27.5021 675.845 27.1566 674.226 27.1566H667.619L669.951 24.6631V37.5195Z" fill="black"/>
</svg>
