<svg width="205" height="131" viewBox="0 0 205 131" fill="none" xmlns="http://www.w3.org/2000/svg">
<path d="M202.169 73.3669C197.996 64.5569 187.584 59.0487 178.054 61.0111C177.888 50.9831 172.056 41.2403 163.306 36.3755C154.847 31.6715 143.979 31.7153 135.517 36.3945C135.653 34.6427 135.657 32.8573 135.513 31.05C134.029 12.4754 117.805 -1.37772 99.2741 0.109359C84.5056 1.29376 72.7393 11.8671 69.3171 25.5126C61.6323 21.6655 53.1146 21.6114 46.7967 26.2159C42.4117 29.4123 39.8282 34.3123 39.0828 39.8556C36.3374 38.9387 33.3674 38.5469 30.3011 38.794C18.0738 39.7751 8.95656 50.505 9.93393 62.7613C10.2053 66.1493 11.2395 69.2829 12.8223 72.0465C4.53362 76.8674 -0.732496 86.1394 0.0829501 96.353C1.21495 110.523 13.5925 121.092 27.7293 119.958C33.153 119.522 38.0369 117.418 41.9464 114.202C46.1461 117.697 51.0388 120.127 56.054 121.054C65.5228 122.805 75.4978 122.003 84.4546 118.525C89.3516 126.991 100.89 131.83 113.262 129.765C122.123 128.285 129.415 123.584 133.551 117.514C134.938 116.074 136.175 114.495 137.24 112.8C141.59 116.608 147.401 118.731 153.614 118.232C161.117 117.63 167.437 113.348 170.984 107.304C180.193 109.902 190.792 107.346 197.449 100.453C204.214 93.4461 206.343 82.1768 202.169 73.3669Z" fill="url(#paint0_radial_569_13362)" fill-opacity="0.7"/>
<defs>
<radialGradient id="paint0_radial_569_13362" cx="0" cy="0" r="1" gradientUnits="userSpaceOnUse" gradientTransform="translate(105.197 77.3387) scale(136.561 90.9879)">
<stop stop-color="white"/>
<stop offset="0.2868" stop-color="#FAFDFD"/>
<stop offset="0.6194" stop-color="#ECF6F7"/>
<stop offset="0.9736" stop-color="#D5EBEE"/>
<stop offset="0.9992" stop-color="#D3EAED"/>
</radialGradient>
</defs>
</svg>
