<svg width="94" height="104" viewBox="0 0 94 104" fill="none" xmlns="http://www.w3.org/2000/svg">
<path d="M92.5246 58.3939C89.6443 51.3819 82.4592 46.9979 75.8821 48.5597C75.7674 40.5783 71.7424 32.8238 65.7039 28.9518C59.8658 25.2079 52.3656 25.2428 46.5254 28.967C46.6191 27.5727 46.6221 26.1517 46.5224 24.7132C45.4986 9.92936 34.3015 -1.09655 21.5129 0.087041C11.3206 1.02973 3.20019 9.44522 0.838364 20.3059C-4.46517 17.2439 -10.3436 17.2008 -14.7038 20.8657C-17.7301 23.4098 -19.513 27.3097 -20.0274 31.7217C-21.9221 30.992 -23.9719 30.6801 -26.088 30.8768C-34.5266 31.6577 -40.8187 40.1977 -40.1442 49.9528C-39.957 52.6493 -39.2432 55.1434 -38.1508 57.343C-43.8712 61.18 -47.5055 68.5598 -46.9428 76.689C-46.1615 87.9674 -37.6193 96.3795 -27.8629 95.4763C-24.1199 95.1295 -20.7493 93.4548 -18.0512 90.8956C-15.1528 93.6771 -11.7762 95.6113 -8.31497 96.3492C-1.78019 97.7423 5.10393 97.1045 11.2853 94.3358C14.665 101.074 22.6283 104.925 31.1665 103.282C37.2815 102.104 42.3142 98.3626 45.1684 93.5316C46.1258 92.3853 46.9795 91.1283 47.7144 89.7795C50.7165 92.8101 54.7274 94.4999 59.0151 94.103C64.1928 93.6236 68.555 90.2159 71.0024 85.4047C77.358 87.4728 84.673 85.4385 89.2668 79.9523C93.9361 74.3753 95.4049 65.4058 92.5246 58.3939Z" fill="url(#paint0_radial_986_20041)" fill-opacity="0.7"/>
<defs>
<radialGradient id="paint0_radial_986_20041" cx="0" cy="0" r="1" gradientUnits="userSpaceOnUse" gradientTransform="translate(25.6008 61.5551) scale(94.246 72.4188)">
<stop stop-color="white"/>
<stop offset="0.2868" stop-color="#FAFDFD"/>
<stop offset="0.6194" stop-color="#ECF6F7"/>
<stop offset="0.9736" stop-color="#D5EBEE"/>
<stop offset="0.9992" stop-color="#D3EAED"/>
</radialGradient>
</defs>
</svg>
