<svg width="341" height="247" viewBox="0 0 341 247" fill="none" xmlns="http://www.w3.org/2000/svg">
<g clip-path="url(#clip0_819_2091)">
<path d="M227.829 244.188H225V247H227.829V244.188Z" fill="#BFE7FF"/>
<path d="M338.172 238.562V244.187H335.343V247H256.122V244.187H258.952V241.374H261.781V238.562H273.098V241.374H281.586V238.562H284.416V241.374H295.732V238.562H312.708V241.374H324.025V238.562H338.172Z" fill="#A0D5EF"/>
<path d="M270.269 230.125H267.439V232.938H270.269V230.125Z" fill="#A0D5EF"/>
<path d="M292.903 232.937H290.073V235.749H292.903V232.937Z" fill="#A0D5EF"/>
<path d="M309.878 232.937H307.049V235.749H309.878V232.937Z" fill="#A0D5EF"/>
<path d="M236.317 230.125H233.487V235.749H236.317V230.125Z" fill="white"/>
<path d="M335.343 224.5V230.126H332.513V232.937H326.854V230.126H321.196V227.313H315.537V224.5H301.391V227.313H292.903V230.126H281.586V227.313H267.44V230.126H258.951V232.937H256.122V235.75H253.292V238.562H247.635V235.75H239.146V238.562H233.487V235.75H236.317V230.126H241.976V227.313H244.805V230.126H250.464V227.313H253.292V224.5H256.122V221.688H258.951V218.875H281.586V221.688H290.073V218.875H292.903V216.062H295.732V213.251H324.025V216.062H326.854V218.875H332.513V224.5H335.343Z" fill="#E1F5FF"/>
<path d="M233.487 238.562H227.829V241.374H233.487V238.562Z" fill="#E1F5FF"/>
<path d="M338.171 232.937V238.562H324.024V241.375H312.707V238.562H295.732V241.375H284.415V238.562H281.586V241.375H273.097V238.562H261.78V241.375H258.951V244.187H256.121V247H227.829V241.375H233.487V238.562H239.146V235.749H247.634V238.562H253.292V235.749H256.121V232.937H258.951V230.125H267.439V227.313H281.586V230.125H292.902V227.313H301.391V224.5H315.537V227.313H321.196V230.125H326.853V232.937H338.171Z" fill="#BFE7FF"/>
<path d="M341 224.5V232.937H332.513V230.125H335.342V224.5H332.513V218.875H326.854V216.062H324.024V213.251H295.732V216.062H292.903V218.875H290.073V221.687H281.586V218.875H258.951V221.687H256.122V224.5H253.292V227.313H250.464V230.125H244.805V227.313H241.976V224.5H244.805V218.875H247.635V213.251H250.464V210.438H256.122V207.625H261.781V204.813H270.268V207.625H278.756V210.438H281.586V213.251H284.415V210.438H287.244V207.625H290.073V204.813H295.732V202H318.367V204.813H324.024V207.625H329.683V210.438H332.513V213.251H335.342V216.062H338.172V224.5H341Z" fill="white"/>
</g>
<g clip-path="url(#clip1_819_2091)">
<path d="M24.0002 11.999H21V20.9996H24.0002V11.999Z" fill="#BFE7FF"/>
<path d="M80.9994 26.999V29.9992H65.9999V26.999H59.9995V24.0002H56.9993V21H35.9994V24.0002H33.0007V26.999H27.0003V29.9992H17.9997V32.9994H15.0009V35.9996H12.0008V38.9998H0V35.9996H3.00019V32.9994H6.00038V29.9992H9.00057V26.999H17.9997V24.0002H20.9999V21H24.0001V6.00041H27.0003V3.0002H33.0007V0H45V3.0002H56.9993V6.00041H59.9995V8.99919H62.9997V11.9994H65.9999V17.9998H69.0001V26.999H80.9994Z" fill="white"/>
<path d="M80.9996 29.9992V38.9998H77.9995V35.9996H66.0001V32.9994H59.9997V35.9996H56.9995V32.9994H33.0009V35.9996H17.9999V38.9998H12.001V35.9996H15.0012V32.9994H17.9999V29.9992H27.0005V26.999H33.0009V24.0002H35.9996V21H56.9995V24.0002H59.9997V26.999H66.0001V29.9992H80.9996Z" fill="#E1F5FF"/>
<path d="M89.9998 32.9994V42H3V38.9998H17.9995V35.9996H33.0005V32.9994H56.9991V35.9996H59.9993V32.9994H65.9997V35.9996H77.999V38.9998H80.9992V26.999H83.9994V29.9992H86.9996V32.9994H89.9998Z" fill="#BFE7FF"/>
</g>
<defs>
<clipPath id="clip0_819_2091">
<rect width="116" height="45" fill="white" transform="translate(225 202)"/>
</clipPath>
<clipPath id="clip1_819_2091">
<rect width="90" height="42" fill="white"/>
</clipPath>
</defs>
</svg>
