<svg width="116" height="45" viewBox="0 0 116 45" fill="none" xmlns="http://www.w3.org/2000/svg">
<g clip-path="url(#clip0_323_2504)">
<path d="M2.8295 42.1875H0V45.0002H2.8295V42.1875Z" fill="#BFE7FF"/>
<path d="M113.172 36.562V42.1873H110.343V45H31.1221V42.1873H33.9516V39.3747H36.7811V36.562H48.0977V39.3747H56.5862V36.562H59.4157V39.3747H70.7324V36.562H87.708V39.3747H99.0246V36.562H113.172Z" fill="#A0D5EF"/>
<path d="M45.269 28.1255H42.4395V30.9382H45.269V28.1255Z" fill="#A0D5EF"/>
<path d="M67.9027 30.9365H65.0732V33.7492H67.9027V30.9365Z" fill="#A0D5EF"/>
<path d="M84.8783 30.9365H82.0488V33.7492H84.8783V30.9365Z" fill="#A0D5EF"/>
<path d="M11.3168 28.1255H8.4873V33.7495H11.3168V28.1255Z" fill="white"/>
<path d="M110.343 22.4998V28.1252H107.513V30.9365H101.854V28.1252H96.1964V25.3125H90.5374V22.4998H76.3912V25.3125H67.9027V28.1252H56.5861V25.3125H42.4399V28.1252H33.9514V30.9365H31.1219V33.7492H28.2924V36.5618H22.6348V33.7492H14.1463V36.5618H8.4873V33.7492H11.3168V28.1252H16.9758V25.3125H19.8053V28.1252H25.4643V25.3125H28.2924V22.4998H31.1219V19.6872H33.9514V16.8745H56.5861V19.6872H65.0732V16.8745H67.9027V14.0618H70.7322V11.2505H99.0245V14.0618H101.854V16.8745H107.513V22.4998H110.343Z" fill="#E1F5FF"/>
<path d="M8.48675 36.562H2.8291V39.3747H8.48675V36.562Z" fill="#E1F5FF"/>
<path d="M113.171 30.9367V36.562H99.024V39.3747H87.7073V36.562H70.7317V39.3747H59.415V36.562H56.5855V39.3747H48.097V36.562H36.7804V39.3747H33.9509V42.1873H31.1214V45H2.8291V39.3747H8.48675V36.562H14.1457V33.7493H22.6342V36.562H28.2919V33.7493H31.1214V30.9367H33.9509V28.1253H42.4394V25.3127H56.5855V28.1253H67.9022V25.3127H76.3907V22.5H90.5368V25.3127H96.1958V28.1253H101.853V30.9367H113.171Z" fill="#BFE7FF"/>
<path d="M116 22.5V30.9367H107.513V28.1253H110.342V22.5H107.513V16.8747H101.854V14.062H99.0243V11.2507H70.732V14.062H67.9025V16.8747H65.073V19.6873H56.5859V16.8747H33.9512V19.6873H31.1217V22.5H28.2922V25.3127H25.4641V28.1253H19.8051V25.3127H16.9756V22.5H19.8051V16.8747H22.6346V11.2507H25.4641V8.438H31.1217V5.62533H36.7807V2.81267H45.2679V5.62533H53.7564V8.438H56.5859V11.2507H59.4154V8.438H62.2435V5.62533H65.073V2.81267H70.732V0H93.3667V2.81267H99.0243V5.62533H104.683V8.438H107.513V11.2507H110.342V14.062H113.172V22.5H116Z" fill="white"/>
</g>
<defs>
<clipPath id="clip0_323_2504">
<rect width="116" height="45" fill="white"/>
</clipPath>
</defs>
</svg>
