<svg width="90" height="42" viewBox="0 0 90 42" fill="none" xmlns="http://www.w3.org/2000/svg">
<g clip-path="url(#clip0_323_2499)">
<path d="M24.0002 11.999H21V20.9996H24.0002V11.999Z" fill="#BFE7FF"/>
<path d="M80.9994 26.999V29.9992H65.9999V26.999H59.9995V24.0002H56.9993V21H35.9994V24.0002H33.0007V26.999H27.0003V29.9992H17.9997V32.9994H15.0009V35.9996H12.0008V38.9998H0V35.9996H3.00019V32.9994H6.00038V29.9992H9.00057V26.999H17.9997V24.0002H20.9999V21H24.0001V6.00041H27.0003V3.0002H33.0007V0H45V3.0002H56.9993V6.00041H59.9995V8.99919H62.9997V11.9994H65.9999V17.9998H69.0001V26.999H80.9994Z" fill="white"/>
<path d="M80.9996 29.9992V38.9998H77.9995V35.9996H66.0001V32.9994H59.9997V35.9996H56.9995V32.9994H33.0009V35.9996H17.9999V38.9998H12.001V35.9996H15.0012V32.9994H17.9999V29.9992H27.0005V26.999H33.0009V24.0002H35.9996V21H56.9995V24.0002H59.9997V26.999H66.0001V29.9992H80.9996Z" fill="#E1F5FF"/>
<path d="M89.9998 32.9994V42H3V38.9998H17.9995V35.9996H33.0005V32.9994H56.9991V35.9996H59.9993V32.9994H65.9997V35.9996H77.999V38.9998H80.9992V26.999H83.9994V29.9992H86.9996V32.9994H89.9998Z" fill="#BFE7FF"/>
</g>
<defs>
<clipPath id="clip0_323_2499">
<rect width="90" height="42" fill="white"/>
</clipPath>
</defs>
</svg>
