<svg width="12" height="19" viewBox="0 0 12 19" fill="none" xmlns="http://www.w3.org/2000/svg">
<g clip-path="url(#clip0_500_2794)">
<path d="M7.86187 0.493424L3.74219 0.549499L4.00675 8.71772C4.00675 8.97941 4.00675 9.25978 4.00675 9.52146C4.00675 10.0261 4.04455 10.5308 4.08235 11.0168L4.32801 18.4934L8.14534 18.4373C10.3564 18.4 12.076 14.3626 12.0194 9.40931C11.9249 4.45604 10.0729 0.456041 7.86187 0.493424Z" fill="#F4C23C"/>
<g style="mix-blend-mode:multiply">
<path d="M7.86187 0.493424L3.74219 0.549499L4.00675 8.71772C4.00675 8.97941 4.00675 9.25978 4.00675 9.52146C4.00675 10.0261 4.04455 10.5308 4.08235 11.0168L4.32801 18.4934L8.14534 18.4373C10.3564 18.4 12.076 14.3626 12.0194 9.40931C11.9249 4.45604 10.0729 0.456041 7.86187 0.493424Z" fill="#F3BA3E"/>
</g>
<g style="mix-blend-mode:multiply">
<path d="M7.86187 0.493424L3.74219 0.549499L4.00675 8.71772C4.00675 8.97941 4.00675 9.25978 4.00675 9.52146C4.00675 10.0261 4.04455 10.5308 4.08235 11.0168L4.32801 18.4934L8.14534 18.4373C10.3564 18.4 12.076 14.3626 12.0194 9.40931C11.9249 4.45604 10.0729 0.456041 7.86187 0.493424Z" fill="#F3DBA6"/>
</g>
<g style="mix-blend-mode:multiply">
<path d="M4.21447 0.550065H3.91211L4.17668 18.494H4.47904C6.69006 18.4566 8.42865 14.4192 8.35306 9.46595C8.25857 4.51268 6.4066 0.512681 4.21447 0.550065Z" fill="#F3DBA6"/>
</g>
<g style="mix-blend-mode:screen" opacity="0.4">
<path d="M9.01526 0.848633L3.76172 0.923399V1.29723L9.46881 1.22246C9.31763 1.09162 9.16644 0.960782 9.01526 0.867324V0.848633Z" fill="#F4C23C"/>
<path d="M4.30928 18.1195L9.26046 18.0447C9.41164 17.9326 9.56282 17.8204 9.69511 17.6709L4.27148 17.7457V18.1008L4.30928 18.1195Z" fill="#F4C23C"/>
<path d="M4.21484 15.3159L11.1314 15.2225C11.1692 15.1103 11.207 14.9795 11.2637 14.8486L4.21484 14.9421V15.3159Z" fill="#F4C23C"/>
<path d="M4.25327 16.7173L10.4895 16.6238C10.5651 16.5117 10.6218 16.3808 10.6785 16.25L4.23438 16.3435V16.7173H4.25327Z" fill="#F4C23C"/>
<path d="M4.1771 13.9137L11.5472 13.8016C11.5661 13.6894 11.6039 13.5586 11.6228 13.4277L4.1582 13.5399V13.9137H4.1771Z" fill="#F4C23C"/>
<path d="M4.08335 11.0174V11.1108L11.9637 10.9987C11.9637 10.8865 11.9637 10.7557 11.9826 10.6436L4.06445 10.7557C4.06445 10.7557 4.06445 10.9426 4.08335 11.0361V11.0174Z" fill="#F4C23C"/>
<path d="M4.12109 12.5123L11.8124 12.4002C11.8124 12.288 11.8502 12.1572 11.8691 12.0264L4.12109 12.1385V12.5123Z" fill="#F4C23C"/>
<path d="M4.00781 9.52172C4.00781 9.52172 4.00781 9.63387 4.00781 9.70864L12.0015 9.59649C12.0015 9.59649 12.0015 9.46565 12.0015 9.40957C12.0015 9.3535 12.0015 9.27873 12.0015 9.22266L4.00781 9.33481C4.00781 9.33481 4.00781 9.44696 4.00781 9.52172Z" fill="#F4C23C"/>
<path d="M3.95117 6.90493L11.7937 6.79278C11.7937 6.66194 11.7559 6.54979 11.737 6.41895L3.95117 6.53109V6.90493Z" fill="#F4C23C"/>
<path d="M3.98765 8.30629L11.9436 8.19414C11.9436 8.0633 11.9247 7.95115 11.9058 7.82031L3.96875 7.93246V8.30629H3.98765Z" fill="#F4C23C"/>
<path d="M3.91211 5.50245L11.5279 5.3903C11.4901 5.25945 11.4712 5.14731 11.4334 5.03516L3.91211 5.14731V5.52114V5.50245Z" fill="#F4C23C"/>
<path d="M3.81773 2.6986L10.4886 2.60514C10.413 2.4743 10.3563 2.36215 10.2807 2.25L3.79883 2.34346V2.71729L3.81773 2.6986Z" fill="#F4C23C"/>
<path d="M3.85679 4.10108L11.0946 3.98893C11.0568 3.85809 11.0001 3.74594 10.9623 3.63379L3.83789 3.72725V4.10108H3.85679Z" fill="#F4C23C"/>
</g>
<path d="M7.99412 9.46595C8.06971 14.4192 6.33113 18.4566 4.12011 18.494C1.92798 18.5314 0.0760119 14.5314 0.000421354 9.5781C-0.0751692 4.62483 1.66341 0.587448 3.87444 0.550065C6.08546 0.512681 7.93743 4.51268 7.99412 9.46595Z" fill="#F4C23C"/>
<g style="mix-blend-mode:screen">
<path d="M0.227193 9.57784C0.151603 4.69934 1.81459 0.718029 3.96893 0.549805C3.93113 0.549805 3.89334 0.549805 3.85554 0.549805C1.66341 0.587188 -0.075169 4.62457 0.000421529 9.57784C0.0760121 14.5311 1.92798 18.5311 4.139 18.4937C4.1768 18.4937 4.2146 18.4937 4.25239 18.4937C2.09806 18.4003 0.302784 14.4563 0.227193 9.57784Z" fill="#F4C23C"/>
</g>
<g style="mix-blend-mode:multiply">
<path d="M7.1066 9.48359C7.16329 13.5023 5.76487 16.7733 3.96959 16.792C2.17432 16.8107 0.681404 13.577 0.624711 9.57705C0.568018 5.55835 1.96644 2.28733 3.76172 2.26864C5.55699 2.24994 7.04991 5.48359 7.1066 9.48359Z" fill="#F3BA3E"/>
</g>
<path d="M6.82233 9.48466C6.87902 13.1295 5.59398 16.1015 3.98769 16.1202C2.36249 16.1389 1.00186 13.2043 0.945166 9.55943C0.888473 5.91457 2.17351 2.94261 3.77981 2.92392C5.40501 2.90523 6.76564 5.8398 6.82233 9.48466Z" fill="#F4C23C"/>
<g style="mix-blend-mode:screen">
<path d="M1.22866 9.55934C1.17196 6.02663 2.38141 3.12944 3.93102 2.92383C3.87432 2.92383 3.83653 2.92383 3.77984 2.92383C2.15464 2.94252 0.888498 5.91448 0.945191 9.55934C1.00188 13.2042 2.36251 16.1388 3.98771 16.1201C4.0444 16.1201 4.0822 16.1201 4.13889 16.1201C2.58929 15.9706 1.30425 13.1107 1.24755 9.55934H1.22866Z" fill="#F4C23C"/>
</g>
</g>
<defs>
<clipPath id="clip0_500_2794">
<rect width="12" height="18" fill="white" transform="translate(0 0.493164)"/>
</clipPath>
</defs>
</svg>
