<svg width="169" height="72" viewBox="0 0 169 72" fill="none" xmlns="http://www.w3.org/2000/svg">
<g clip-path="url(#clip0_887_5405)">
<path d="M166.895 1.5564C159.059 4.76772 133.906 15.7668 126.055 18.9499C124.789 19.4662 103.092 28.598 102.434 26.964C101.776 25.3301 136.746 13.9631 135.333 11.4026C134.843 10.5113 125.118 14.6705 123.746 15.3141C122.914 15.7032 101.042 24.3327 102.315 22.5927C104.183 20.0392 121.451 14.5927 121.836 13.0719C122.431 10.7164 103.547 18.9569 103.064 19.1833C101.713 19.7987 93.1564 24.7076 93.7021 20.1028C93.8561 18.8084 95.5633 18.3133 96.5848 17.8606C98.7258 16.9127 135.809 3.36719 134.759 0.757105C133.941 -1.27296 127.825 1.4503 126.65 1.91714C123.508 3.15498 8.13161 50.5467 8.13161 50.5467C1.77854 53.1497 -1.55192 59.8482 0.708035 65.4786C2.80707 70.7129 9.0132 73.2027 14.9814 71.4344L93.7581 39.2858C93.5342 39.2858 131.226 24.0922 135.669 22.3451C139.02 21.0294 137.089 19.6148 135.039 20.4565C131.002 21.6519 94.2409 38.1965 93.4223 35.6926C92.6036 33.1815 159.85 6.89681 167.756 2.964C170.198 1.74738 168.589 0.919793 166.902 1.54932C163.642 2.76595 169.232 0.594418 166.902 1.54932L166.895 1.5564Z" fill="#FFDAD5"/>
<path d="M15.2599 68.2979C20.1692 66.2846 22.7936 61.2748 21.1217 57.1082C19.4499 52.9415 14.1147 51.1959 9.20546 53.2092C4.29617 55.2224 1.67175 60.2322 3.34364 64.3989C5.01554 68.5655 10.3506 70.3112 15.2599 68.2979Z" fill="#E23532"/>
<path d="M82.7981 41.3014C82.4763 40.5022 75.8643 43.3457 73.8912 43.4376C71.9741 43.5296 70.2669 44.152 68.4687 44.8947C65.8449 45.9699 63.9208 46.1043 61.1431 45.984C57.3858 45.8213 53.4117 48.877 50.0113 50.2634C48.9128 50.709 44.3159 52.9159 44.3509 50.1007C44.3788 47.7807 49.8923 46.6348 51.4456 45.8991C55.0629 44.1803 58.4773 42.2422 62.2766 40.87C64.3406 40.1273 66.4327 39.0945 68.5807 38.6277C70.7357 38.1609 72.5269 38.2599 74.2551 36.5764C77.0538 33.8532 72.156 34.129 70.6237 34.4403C69.2874 34.709 64.1167 35.9327 66.3977 33.1034C67.916 31.2219 70.3439 30.8116 72.4499 29.9416C73.6463 29.4535 76.6759 28.3076 76.3681 26.6525C75.9693 24.4951 73.6463 25.2307 72.0371 25.8815L71.8062 25.9734C71.4354 26.129 71.1135 26.2705 70.8756 26.3554L8.66733 51.8762C3.04193 54.1821 0.0613053 60.0388 2.0274 64.9336C3.99349 69.8284 10.1646 71.9292 15.79 69.6233L78.9429 43.7983C82.0215 42.511 83.064 41.9522 82.7981 41.2944V41.3014Z" fill="#FF8886"/>
<path d="M41.4979 49.5421C41.218 48.8559 33.4236 52.1804 32.7869 52.4987C32.3951 52.6968 26.1679 55.0027 26.6647 53.9063C27.3924 52.3007 31.5554 51.7914 31.6184 50.7657C31.7094 49.1813 26.9726 51.4872 26.7417 51.6004C26.105 51.9046 22.1798 54.5429 22.0468 51.3882C22.0119 50.497 22.8375 50.3131 23.3202 50.0938C24.3278 49.6269 40.2035 43.3033 39.7976 42.2706C39.2029 40.7781 33.6335 43.2184 33.0807 43.4377C32.3531 43.7207 20.9343 48.4103 9.43865 53.1353C9.36169 53.1636 9.29172 53.1849 9.21476 53.2131C9.13779 53.2414 9.06783 53.2839 8.99086 53.3192C4.23306 55.3917 1.71422 60.3007 3.35846 64.4032C4.89075 68.2229 9.50162 69.9983 14.0425 68.718C14.4553 68.6048 14.8612 68.4704 15.274 68.3007L23.803 64.7498C23.6911 64.7286 37.4047 59.2963 39.5178 58.4899C41.113 57.8816 40.0005 56.7215 39.028 57.1177C37.0759 57.5774 23.957 64.0425 23.3133 62.2176C22.6695 60.3926 34.1792 56.6225 37.8595 54.6066C39 53.9841 38.1044 53.2627 37.2998 53.5456C35.5786 54.2741 34.5151 54.8754 32.521 55.7101C31.9263 55.9576 27.4204 57.8957 27.1335 56.962C26.7557 55.7313 42.1486 51.1123 41.5188 49.5421H41.4979Z" fill="#E23532"/>
</g>
<defs>
<clipPath id="clip0_887_5405">
<rect width="169" height="72" fill="white"/>
</clipPath>
</defs>
</svg>
