<svg width="93" height="39" viewBox="0 0 93 39" fill="none" xmlns="http://www.w3.org/2000/svg">
<g clip-path="url(#clip0_447_1973)">
<path d="M91.8418 0.843191C87.5295 2.58265 73.6877 8.54051 69.3676 10.2646C68.6707 10.5443 56.731 15.4907 56.369 14.6056C56.0071 13.7206 75.2509 7.5635 74.4731 6.17653C74.2036 5.69377 68.8517 7.94664 68.097 8.2953C67.6389 8.50603 55.6028 13.1804 56.3036 12.2378C57.3316 10.8547 66.8342 7.90449 67.0459 7.08074C67.3732 5.80488 56.9813 10.2685 56.7156 10.3911C55.9725 10.7244 51.2636 13.3834 51.5639 10.8892C51.6486 10.188 52.5881 9.91982 53.1502 9.67461C54.3284 9.1612 74.735 1.82403 74.1574 0.410241C73.7069 -0.689376 70.3418 0.78572 69.6949 1.03859C67.9661 1.70909 4.47479 27.3796 4.47479 27.3796C0.978724 28.7896 -0.854016 32.4179 0.389629 35.4677C1.54472 38.303 4.95993 39.6516 8.24423 38.6938L51.5947 21.28C51.4715 21.28 72.213 13.0501 74.6579 12.1037C76.5022 11.3911 75.4396 10.6248 74.3114 11.0807C72.0898 11.7282 51.8604 20.6899 51.4099 19.3336C50.9594 17.9735 87.9646 3.73591 92.3154 1.60564C93.6591 0.94664 92.7736 0.498364 91.8457 0.83936C90.0514 1.49836 93.1278 0.322119 91.8457 0.83936L91.8418 0.843191Z" fill="#E3C3FF"/>
<path d="M8.39914 36.9944C11.1007 35.9039 12.5449 33.1902 11.6249 30.9333C10.7048 28.6764 7.76895 27.7308 5.06739 28.8213C2.36583 29.9119 0.921619 32.6255 1.84166 34.8824C2.76169 37.1394 5.69758 38.0849 8.39914 36.9944Z" fill="#E23532"/>
<path d="M45.5662 22.3718C45.3891 21.9389 41.7505 23.4791 40.6647 23.5289C39.6098 23.5787 38.6703 23.9159 37.6808 24.3182C36.2369 24.9006 35.1781 24.9734 33.6495 24.9082C31.5819 24.8201 29.3949 26.4753 27.5237 27.2262C26.9192 27.4676 24.3895 28.663 24.4088 27.1381C24.4242 25.8814 27.4582 25.2607 28.313 24.8622C30.3036 23.9312 32.1825 22.8814 34.2733 22.1381C35.4091 21.7358 36.5603 21.1764 37.7424 20.9235C38.9283 20.6707 39.9139 20.7243 40.865 19.8124C42.4051 18.3373 39.7099 18.4868 38.8667 18.6553C38.1313 18.8009 35.2859 19.4638 36.5411 17.9312C37.3766 16.912 38.7126 16.6898 39.8716 16.2186C40.53 15.9542 42.1972 15.3335 42.0277 14.437C41.8083 13.2684 40.53 13.6668 39.6444 14.0193L39.5174 14.0691C39.3133 14.1534 39.1362 14.2301 39.0053 14.276L4.7723 28.0998C1.67667 29.3488 0.0364403 32.5212 1.11837 35.1726C2.20031 37.8239 5.59626 38.9619 8.6919 37.7128L43.4447 23.7243C45.1388 23.027 45.7125 22.7243 45.5662 22.368V22.3718Z" fill="#C379E0"/>
<path d="M22.8351 26.8352C22.681 26.4636 18.3918 28.2644 18.0414 28.4368C17.8258 28.5441 14.3991 29.7931 14.6724 29.1992C15.0729 28.3295 17.3638 28.0536 17.3984 27.4981C17.4485 26.6398 14.8418 27.8889 14.7148 27.9502C14.3644 28.1149 12.2044 29.5441 12.1312 27.8352C12.112 27.3525 12.5663 27.2529 12.832 27.1341C13.3864 26.8812 22.1228 23.4559 21.8994 22.8965C21.5722 22.0881 18.5073 23.41 18.2032 23.5287C17.8027 23.682 11.519 26.2222 5.19301 28.7816C5.15066 28.7969 5.11216 28.8084 5.0698 28.8237C5.02745 28.8391 4.98895 28.8621 4.94659 28.8812C2.32839 30.0038 0.942287 32.6628 1.84711 34.885C2.69032 36.954 5.22766 37.9157 7.7265 37.2222C7.95367 37.1609 8.17699 37.0881 8.40416 36.9962L13.0977 35.0728C13.0361 35.0613 20.5826 32.1188 21.7454 31.682C22.6233 31.3525 22.0111 30.7241 21.4759 30.9387C20.4017 31.1877 13.1824 34.6896 12.8281 33.7011C12.4739 32.7126 18.8076 30.6705 20.8329 29.5785C21.4605 29.2414 20.9677 28.8506 20.5249 29.0038C19.5777 29.3985 18.9925 29.7241 17.8951 30.1762C17.5679 30.3103 15.0883 31.3601 14.9304 30.8544C14.7225 30.1877 23.1931 27.6858 22.8466 26.8352H22.8351Z" fill="#E23532"/>
</g>
<defs>
<clipPath id="clip0_447_1973">
<rect width="93" height="39" fill="white"/>
</clipPath>
</defs>
</svg>
