<svg width="381" height="162" viewBox="0 0 381 162" fill="none" xmlns="http://www.w3.org/2000/svg">
<g clip-path="url(#clip0_447_1970)">
<path d="M376.251 3.50226C358.585 10.7277 301.878 35.4757 284.18 42.6375C281.325 43.7993 232.41 64.3458 230.927 60.6694C229.445 56.993 308.282 31.4174 305.096 25.6561C303.992 23.6508 282.066 33.0089 278.974 34.4572C277.097 35.3325 227.788 54.7489 230.659 50.8338C234.871 45.0885 273.801 32.8338 274.668 29.4121C276.009 24.1123 233.435 42.6535 232.347 43.1627C229.303 44.5474 210.011 55.5924 211.242 45.2317C211.589 42.3192 215.438 41.2052 217.741 40.1866C222.567 38.054 306.168 7.57653 303.802 1.70385C301.957 -2.86379 288.17 3.26354 285.52 4.31393C278.438 7.09908 18.3283 113.73 18.3283 113.73C4.0057 119.587 -3.50262 134.659 1.59232 147.327C6.32445 159.104 20.3158 164.707 33.7708 160.728L211.368 88.3935C210.863 88.3935 295.837 54.2078 305.853 50.2768C313.409 47.3166 309.055 44.1336 304.433 46.0275C295.332 48.7171 212.456 85.9426 210.611 80.3086C208.765 74.6588 360.367 15.5182 378.191 6.66937C383.697 3.93197 380.069 2.0699 376.267 3.48635C368.916 6.22375 381.52 1.33781 376.267 3.48635L376.251 3.50226Z" fill="#FFDAD5"/>
<path d="M34.4041 153.67C45.4718 149.14 51.3884 137.868 47.6192 128.493C43.85 119.118 31.8223 115.191 20.7547 119.72C9.68697 124.25 3.77037 135.522 7.53956 144.897C11.3087 154.272 23.3364 158.2 34.4041 153.67Z" fill="#E23532"/>
<path d="M186.669 92.9285C185.943 91.1301 171.037 97.528 166.589 97.7349C162.267 97.9418 158.418 99.3423 154.364 101.013C148.449 103.432 144.111 103.735 137.849 103.464C129.378 103.098 120.419 109.974 112.753 113.093C110.276 114.096 99.9128 119.061 99.9917 112.727C100.055 107.507 112.485 104.928 115.986 103.273C124.141 99.4059 131.839 95.0452 140.404 91.9577C145.057 90.2866 149.774 87.963 154.616 86.9126C159.475 85.8622 163.513 86.085 167.409 82.2972C173.718 76.1699 162.677 76.7906 159.222 77.4908C156.209 78.0956 144.553 80.8489 149.695 74.4829C153.118 70.2494 158.591 69.3264 163.339 67.3688C166.037 66.2707 172.867 63.6924 172.173 59.9683C171.273 55.1142 166.036 56.7693 162.409 58.2335L161.888 58.4404C161.052 58.7906 160.326 59.1089 159.79 59.2998L19.5454 116.722C6.86325 121.91 0.143618 135.088 4.57605 146.101C9.00848 157.114 22.921 161.841 35.6031 156.653L177.977 98.5465C184.918 95.65 187.268 94.3927 186.669 92.9126V92.9285Z" fill="#FF8886"/>
<path d="M93.5544 111.469C92.9234 109.926 75.3514 117.406 73.916 118.122C73.0327 118.568 58.994 123.756 60.1139 121.289C61.7544 117.676 71.1398 116.53 71.2818 114.223C71.4868 110.658 60.808 115.846 60.2874 116.101C58.852 116.785 50.0029 122.721 49.7032 115.623C49.6244 113.618 51.4857 113.204 52.5741 112.711C54.8455 111.66 90.6362 97.4322 89.7213 95.1086C88.3806 91.7506 75.8246 97.2413 74.5785 97.7346C72.938 98.3712 47.1952 108.923 21.2789 119.554C21.1054 119.618 20.9476 119.666 20.7741 119.729C20.6006 119.793 20.4429 119.888 20.2694 119.968C9.54318 124.631 3.86462 135.676 7.57146 144.907C11.0259 153.501 21.4208 157.496 31.658 154.615C32.5887 154.361 33.5036 154.058 34.4342 153.676L53.6625 145.687C53.4101 145.639 84.3267 133.416 89.0904 131.602C92.6868 130.233 90.1788 127.623 87.9862 128.514C83.5853 129.549 54.0095 144.095 52.5583 139.989C51.1071 135.883 77.055 127.4 85.352 122.865C87.9231 121.464 85.9041 119.841 84.0901 120.477C80.2097 122.117 77.8121 123.469 73.3166 125.347C71.9758 125.904 61.8175 130.265 61.1708 128.164C60.319 125.395 95.0213 115.003 93.6017 111.469H93.5544Z" fill="#E23532"/>
</g>
<defs>
<clipPath id="clip0_447_1970">
<rect width="381" height="162" fill="white"/>
</clipPath>
</defs>
</svg>
