<svg width="185" height="78" viewBox="0 0 185 78" fill="none" xmlns="http://www.w3.org/2000/svg">
<g clip-path="url(#clip0_447_1971)">
<path d="M182.696 1.68638C174.118 5.16531 146.583 17.081 137.989 20.5293C136.603 21.0887 112.852 30.9814 112.132 29.2113C111.412 27.4412 149.693 15.127 148.145 12.3531C147.609 11.3875 136.963 15.8933 135.462 16.5906C134.55 17.0121 110.608 26.3607 112.002 24.4757C114.047 21.7094 132.95 15.809 133.371 14.1615C134.022 11.6098 113.35 20.537 112.821 20.7822C111.343 21.4488 101.976 26.7668 102.573 21.7783C102.742 20.376 104.611 19.8396 105.729 19.3492C108.073 18.3224 148.666 3.64807 147.517 0.820482C146.621 -1.37875 139.927 1.57144 138.64 2.07719C135.201 3.41818 8.90147 54.7592 8.90147 54.7592C1.94692 57.5791 -1.69885 64.8358 0.775068 70.9354C3.07282 76.6059 9.86652 79.3032 16.3998 77.3875L102.635 42.5599C102.39 42.5599 143.65 26.1002 148.513 24.2075C152.182 22.7822 150.068 21.2496 147.824 22.1615C143.404 23.4565 103.163 41.3799 102.267 38.6672C101.371 35.9469 174.983 7.47182 183.638 3.21129C186.311 1.89328 184.55 0.996728 182.704 1.67872C179.135 2.99673 185.254 0.644237 182.704 1.67872L182.696 1.68638Z" fill="#FFDAD5"/>
<path d="M16.706 73.9893C22.08 71.8083 24.9529 66.381 23.1227 61.8671C21.2926 57.3533 15.4523 55.4621 10.0783 57.6432C4.7042 59.8242 1.83131 65.2515 3.6615 69.7654C5.49168 74.2792 11.3319 76.1703 16.706 73.9893Z" fill="#E23532"/>
<path d="M90.6391 44.7432C90.2868 43.8772 83.0489 46.9577 80.889 47.0573C78.7903 47.1569 76.9215 47.8313 74.9531 48.6359C72.0809 49.8006 69.9746 49.9462 66.9339 49.816C62.8209 49.6397 58.4705 52.95 54.7482 54.452C53.5457 54.9347 48.5136 57.3255 48.5519 54.2757C48.5825 51.7623 54.6179 50.5209 56.3183 49.724C60.2781 47.8619 64.0158 45.7623 68.1747 44.2757C70.4342 43.4711 72.7243 42.3523 75.0756 41.8466C77.4347 41.3409 79.3954 41.4481 81.2872 39.6244C84.3509 36.6742 78.9895 36.973 77.3121 37.3102C75.8492 37.6014 70.1891 38.9271 72.686 35.8619C74.348 33.8236 77.0058 33.3792 79.3112 32.4366C80.6209 31.9079 83.9373 30.6665 83.6003 28.8734C83.1637 26.5363 80.6209 27.3332 78.8593 28.0382L78.6065 28.1378C78.2006 28.3064 77.8483 28.4596 77.5879 28.5516L9.49001 56.1991C3.33203 58.6972 0.0692126 65.042 2.22144 70.3447C4.37368 75.6474 11.1291 77.9232 17.2871 75.4251L86.4189 47.4481C89.7889 46.0535 90.9301 45.4481 90.6391 44.7355V44.7432Z" fill="#FF8886"/>
<path d="M45.4258 53.6705C45.1195 52.9272 36.5871 56.5287 35.8902 56.8735C35.4612 57.0881 28.6446 59.5862 29.1884 58.3984C29.9849 56.659 34.5421 56.1073 34.6111 54.9961C34.7106 53.2797 29.5254 55.7778 29.2726 55.9004C28.5756 56.2299 24.2788 59.0881 24.1333 55.6705C24.095 54.705 24.9988 54.5057 25.5273 54.2682C26.6302 53.7624 44.0089 46.9119 43.5647 45.7931C42.9136 44.1762 36.8169 46.8199 36.2118 47.0575C35.4153 47.364 22.9155 52.4444 10.3314 57.5632C10.2472 57.5939 10.1706 57.6168 10.0864 57.6475C10.0021 57.6781 9.92551 57.7241 9.84126 57.7624C4.63301 60.0076 1.8757 65.3257 3.67561 69.7701C5.35297 73.908 10.4004 75.8314 15.3712 74.4444C15.8231 74.3218 16.2673 74.1762 16.7192 73.9923L26.0558 70.1456C25.9332 70.1226 40.9452 64.2375 43.2583 63.364C45.0046 62.705 43.7868 61.4483 42.7221 61.8774C40.5852 62.3755 26.2243 69.3793 25.5196 67.4023C24.815 65.4253 37.4143 61.341 41.4431 59.1571C42.6915 58.4827 41.7111 57.7011 40.8303 58.0076C38.9462 58.7969 37.782 59.4483 35.5991 60.3525C34.9481 60.6207 30.0156 62.7203 29.7015 61.7088C29.2879 60.3755 46.1381 55.3716 45.4488 53.6705H45.4258Z" fill="#E23532"/>
</g>
<defs>
<clipPath id="clip0_447_1971">
<rect width="185" height="78" fill="white"/>
</clipPath>
</defs>
</svg>
