<svg width="99" height="42" viewBox="0 0 99 42" fill="none" xmlns="http://www.w3.org/2000/svg">
<g clip-path="url(#clip0_887_5406)">
<path d="M97.7671 0.90794C93.1765 2.78121 78.4417 9.19736 73.843 11.0541C73.1011 11.3553 60.391 16.6822 60.0058 15.729C59.6205 14.7759 80.1058 8.14519 79.2779 6.65153C78.9909 6.13164 73.2938 8.55781 72.4904 8.93329C72.0027 9.16022 59.1901 14.1941 59.9361 13.1791C61.0304 11.6895 71.146 8.51242 71.3715 7.6253C71.7199 6.25129 60.6575 11.0582 60.3747 11.1903C59.5836 11.5493 54.5709 14.4128 54.8906 11.7267C54.9808 10.9716 55.9808 10.6828 56.5793 10.4187C57.8335 9.86579 79.5566 1.96423 78.9418 0.441685C78.4622 -0.742517 74.88 0.846047 74.1914 1.11837C72.3511 1.84045 4.76349 29.4856 4.76349 29.4856C1.04187 31.004 -0.909114 34.9115 0.414766 38.1959C1.64438 41.2492 5.27992 42.7016 8.77611 41.6701L54.9234 22.9168C54.7922 22.9168 76.8719 14.0538 79.4746 13.0347C81.4379 12.2672 80.3066 11.442 79.1057 11.933C76.7408 12.6303 55.2062 22.2814 54.7266 20.8207C54.2471 19.3559 93.6397 4.02318 98.2712 1.72904C99.7017 1.01935 98.759 0.536587 97.7712 0.903813C95.8612 1.61351 99.1361 0.346784 97.7712 0.903813L97.7671 0.90794Z" fill="#FFDAD5"/>
<path d="M8.9414 39.8404C11.8173 38.666 13.3546 35.7436 12.3752 33.313C11.3959 30.8825 8.27055 29.8642 5.3947 31.0386C2.51884 32.213 0.981457 35.1354 1.96085 37.5659C2.94025 39.9965 6.06554 41.0148 8.9414 39.8404Z" fill="#E23532"/>
<path d="M48.5021 24.0924C48.3136 23.6262 44.4403 25.2849 43.2845 25.3385C42.1615 25.3922 41.1614 25.7553 40.108 26.1885C38.571 26.8157 37.4438 26.8941 35.8167 26.8239C33.6157 26.729 31.2876 28.5115 29.2956 29.3202C28.6521 29.5802 25.9593 30.8676 25.9798 29.2253C25.9962 27.872 29.226 27.2035 30.1359 26.7744C32.2549 25.7718 34.2551 24.6412 36.4807 23.8407C37.6898 23.4075 38.9153 22.8051 40.1736 22.5327C41.436 22.2604 42.4852 22.3182 43.4976 21.3362C45.1371 19.7476 42.268 19.9085 41.3704 20.0901C40.5876 20.2469 37.5586 20.9607 38.8948 19.3102C39.7842 18.2127 41.2065 17.9734 42.4402 17.4658C43.141 17.1811 44.9158 16.5127 44.7354 15.5472C44.5018 14.2887 43.141 14.7178 42.1983 15.0974L42.0631 15.1511C41.8459 15.2419 41.6573 15.3244 41.518 15.3739L5.07641 30.261C1.78106 31.6061 0.035011 35.0226 1.18675 37.8779C2.33848 40.7332 5.95353 41.9586 9.24889 40.6135L46.2438 25.549C48.0472 24.798 48.6579 24.472 48.5021 24.0883V24.0924Z" fill="#FF8886"/>
<path d="M24.3085 28.8995C24.1446 28.4992 19.5786 30.4385 19.2057 30.6242C18.9761 30.7397 15.3283 32.0848 15.6193 31.4453C16.0456 30.5086 18.4843 30.2116 18.5212 29.6133C18.5745 28.689 15.7996 30.0341 15.6644 30.1002C15.2914 30.2776 12.992 31.8166 12.9142 29.9764C12.8937 29.4565 13.3773 29.3492 13.6601 29.2213C14.2503 28.949 23.5503 25.2602 23.3126 24.6578C22.9642 23.7872 19.7016 25.2107 19.3778 25.3386C18.9515 25.5036 12.2625 28.2393 5.5283 30.9955C5.48321 31.012 5.44222 31.0244 5.39714 31.0409C5.35205 31.0574 5.31107 31.0822 5.26598 31.1028C2.47886 32.3118 1.00333 35.1753 1.96653 37.5685C2.86414 39.7966 5.56519 40.8323 8.22524 40.0854C8.46706 40.0194 8.70479 39.941 8.94661 39.842L13.9429 37.7707C13.8773 37.7583 21.9108 34.5894 23.1486 34.119C24.0831 33.7642 23.4314 33.0875 22.8617 33.3186C21.7182 33.5867 14.0331 37.358 13.656 36.2935C13.2789 35.229 20.0213 33.0297 22.1772 31.8538C22.8453 31.4907 22.3207 31.0698 21.8493 31.2348C20.841 31.6598 20.218 32.0106 19.0499 32.4974C18.7015 32.6419 16.062 33.7724 15.8939 33.2278C15.6726 32.5098 24.6897 29.8155 24.3208 28.8995H24.3085Z" fill="#E23532"/>
</g>
<defs>
<clipPath id="clip0_887_5406">
<rect width="99" height="42" fill="white"/>
</clipPath>
</defs>
</svg>
