<svg width="430" height="118" viewBox="0 0 430 118" fill="none" xmlns="http://www.w3.org/2000/svg">
<path opacity="0.5" d="M120.112 59.2241C120.112 91.4004 93.4158 117.48 60.479 117.48C27.5421 117.48 0.845703 91.4004 0.845703 59.2241C0.845703 27.0478 27.5421 0.967773 60.479 0.967773C93.4158 0.967773 120.112 27.0478 120.112 59.2241Z" fill="white"/>
<path d="M115.816 59.2238C115.816 89.0845 91.0387 113.283 60.4722 113.283C29.9057 113.283 5.13477 89.0845 5.13477 59.2238C5.13477 29.363 29.9121 5.16406 60.4722 5.16406C91.0324 5.16406 115.816 29.363 115.816 59.2238Z" fill="#594F4F"/>
<path d="M102.561 59.2249C102.561 81.934 83.7192 100.335 60.4798 100.335C37.2404 100.335 18.3984 81.9277 18.3984 59.2249C18.3984 36.5221 37.2404 18.1152 60.4798 18.1152C83.7192 18.1152 102.561 36.5221 102.561 59.2249Z" fill="#4F4646"/>
<path d="M97.9845 59.2239C97.9845 79.4621 81.1952 95.8638 60.4786 95.8638C39.762 95.8638 22.9727 79.4621 22.9727 59.2239C22.9727 38.9857 39.762 22.584 60.4786 22.584C81.1952 22.584 97.9845 38.9857 97.9845 59.2239Z" fill="#706767"/>
<path d="M84.6147 59.2237C84.6147 72.2481 73.8052 82.8018 60.4729 82.8018C47.1405 82.8018 36.3438 72.2419 36.3438 59.2237C36.3438 46.2054 47.1469 35.6455 60.4729 35.6455C73.7988 35.6455 84.6147 46.2054 84.6147 59.2237Z" fill="#594F4F"/>
<path d="M65.8482 50.1553C65.8482 52.7565 63.6876 54.8672 61.0186 54.8672C58.3496 54.8672 56.1953 52.7565 56.1953 50.1553C56.1953 47.5541 58.3559 45.4434 61.0186 45.4434C63.6813 45.4434 65.8482 47.5541 65.8482 50.1553Z" fill="#706767"/>
<path d="M379.987 40.0596C383.546 42.0648 384.759 46.5036 382.707 49.9863C380.654 53.4628 376.11 54.6486 372.552 52.6371C368.993 50.6319 367.779 46.1932 369.832 42.7229C371.885 39.2464 376.428 38.0606 379.987 40.0658V40.0596Z" fill="#594F4F"/>
<path d="M372.551 65.8098C376.109 63.8046 380.653 64.9903 382.706 68.473C384.758 71.9433 383.544 76.3821 379.979 78.3873C376.421 80.3925 371.89 79.2005 369.825 75.724C367.772 72.2537 368.992 67.8149 372.551 65.8035V65.8098Z" fill="#594F4F"/>
<path d="M391.66 84.9753C391.66 80.9649 394.984 77.7119 399.095 77.7119C403.207 77.7119 406.524 80.9587 406.524 84.9815C406.524 89.0043 403.2 92.2325 399.089 92.2325C394.984 92.2449 391.66 88.9857 391.66 84.9753Z" fill="#594F4F"/>
<path d="M418.202 78.3883C414.643 76.3831 413.417 71.9382 415.476 68.4616C417.528 64.9976 422.072 63.8056 425.637 65.8108C429.196 67.816 430.403 72.2486 428.344 75.7251C426.304 79.2016 421.754 80.3873 418.202 78.3821V78.3883Z" fill="#594F4F"/>
<path d="M425.64 52.6372C422.075 54.6424 417.531 53.4567 415.479 49.9802C413.426 46.5037 414.646 42.0649 418.205 40.0535C421.77 38.0483 426.301 39.2403 428.36 42.7168C430.419 46.1871 429.192 50.6196 425.64 52.631V52.6372Z" fill="#594F4F"/>
<path d="M406.524 59.2234C406.524 63.2338 403.2 66.4868 399.095 66.4868C394.99 66.4868 391.66 63.2338 391.66 59.2234C391.66 55.213 394.984 51.96 399.095 51.96C403.207 51.96 406.524 55.213 406.524 59.2234Z" fill="#594F4F"/>
<path d="M406.524 33.4792C406.524 37.4896 403.2 40.7365 399.095 40.7365C394.99 40.7365 391.66 37.4896 391.66 33.4792C391.66 29.4688 394.984 26.2158 399.095 26.2158C403.207 26.2158 406.524 29.4626 406.524 33.4792Z" fill="#594F4F"/>
<path d="M230.797 59.2233C230.797 67.5173 223.915 74.2406 215.425 74.2406H158.804C150.314 74.2406 143.432 67.5173 143.432 59.2233C143.432 50.9294 150.314 44.2061 158.804 44.2061H215.425C223.915 44.2061 230.797 50.9294 230.797 59.2233Z" fill="#594F4F"/>
<path d="M158.803 68.653C153.478 68.653 149.15 64.4253 149.15 59.223C149.15 54.0207 153.484 49.793 158.803 49.793H215.424C220.743 49.793 225.077 54.0269 225.077 59.223C225.077 64.4191 220.743 68.653 215.424 68.653H158.803Z" fill="#706767"/>
<path d="M331.838 59.2233C331.838 67.5173 324.956 74.2406 316.466 74.2406H259.845C251.355 74.2406 244.473 67.5173 244.473 59.2233C244.473 50.9294 251.355 44.2061 259.845 44.2061H316.466C324.956 44.2061 331.838 50.9294 331.838 59.2233Z" fill="#594F4F"/>
<path d="M259.844 68.653C254.519 68.653 250.191 64.4253 250.191 59.223C250.191 54.0207 254.525 49.793 259.844 49.793H316.465C321.784 49.793 326.118 54.0269 326.118 59.223C326.118 64.4191 321.784 68.653 316.465 68.653H259.844Z" fill="#CC333F"/>
</svg>
