<svg width="182" height="75" viewBox="0 0 182 75" fill="none" xmlns="http://www.w3.org/2000/svg">
<g clip-path="url(#clip0_1176_4136)">
<g filter="url(#filter0_dd_1176_4136)">
<mask id="path-1-inside-1_1176_4136" fill="white">
<path d="M50.1918 62.1036C52.0334 57.0837 51.9932 50.4221 50.078 43.2495C48.1627 36.077 44.4904 28.8355 39.6845 22.7543C34.8786 16.6731 29.2352 12.127 23.7122 9.88766C18.1893 7.64835 13.1273 7.85384 9.3854 10.4692L27.3502 39.6208L50.1918 62.1036Z"/>
</mask>
<path d="M50.1918 62.1036C52.0334 57.0837 51.9932 50.4221 50.078 43.2495C48.1627 36.077 44.4904 28.8355 39.6845 22.7543C34.8786 16.6731 29.2352 12.127 23.7122 9.88766C18.1893 7.64835 13.1273 7.85384 9.3854 10.4692L27.3502 39.6208L50.1918 62.1036Z" stroke="white" stroke-width="1.4" shape-rendering="crispEdges" mask="url(#path-1-inside-1_1176_4136)"/>
</g>
<path d="M20.4414 8.5C20.4414 11.8521 17.942 14.5 14.9414 14.5C11.9408 14.5 9.44141 11.8521 9.44141 8.5C9.44141 5.14786 11.9408 2.5 14.9414 2.5C17.942 2.5 20.4414 5.14786 20.4414 8.5Z" fill="#FD5A96" stroke="#FD5A96"/>
<path d="M19.4414 45.5C19.4414 48.8521 16.942 51.5 13.9414 51.5C10.9408 51.5 8.44141 48.8521 8.44141 45.5C8.44141 42.1479 10.9408 39.5 13.9414 39.5C16.942 39.5 19.4414 42.1479 19.4414 45.5Z" fill="#FD5A96" stroke="#FD5A96"/>
<path d="M53.4414 59.5C53.4414 62.8521 50.942 65.5 47.9414 65.5C44.9408 65.5 42.4414 62.8521 42.4414 59.5C42.4414 56.1479 44.9408 53.5 47.9414 53.5C50.942 53.5 53.4414 56.1479 53.4414 59.5Z" fill="#FD5A96" stroke="#FD5A96"/>
<line x1="17.4665" y1="6.38014" x2="51.4665" y2="59.3801" stroke="#FD5A96" stroke-width="6"/>
<line x1="14.0837" y1="49.226" x2="48.0837" y2="63.226" stroke="#FD5A96" stroke-width="6"/>
<line x1="10.9425" y1="45.6079" x2="11.9425" y2="7.92065" stroke="#FD5A96" stroke-width="6"/>
<path d="M12.2621 45.4425L15.3928 8.56488L36.8779 38.7004L12.2621 45.4425Z" fill="#FD5A96" stroke="#FD5A96"/>
<path d="M33.5838 29.7406L50.2462 62.788L16.1537 48.3842L33.5838 29.7406Z" fill="#FD5A96" stroke="#FD5A96"/>
<path d="M35 31L52 57" stroke="#FD5A96" stroke-width="3"/>
<path d="M14.5551 49.9796C14.3641 50.4011 13.9386 50.7167 13.3282 50.8421C12.7185 50.9673 11.9624 50.89 11.2168 50.5523C10.4713 50.2145 9.91452 49.6971 9.6066 49.1561C9.29835 48.6146 9.25497 48.0866 9.44592 47.6651C9.63687 47.2436 10.0624 46.9281 10.6727 46.8027C11.2825 46.6774 12.0386 46.7547 12.7842 47.0925C13.5297 47.4302 14.0865 47.9476 14.3944 48.4886C14.7026 49.0302 14.746 49.5581 14.5551 49.9796Z" fill="#FD5A96" stroke="#FD5A96"/>
<path d="M53.5 59.5C53.5 62.8521 51.0006 65.5 48 65.5C44.9994 65.5 42.5 62.8521 42.5 59.5C42.5 56.1479 44.9994 53.5 48 53.5C51.0006 53.5 53.5 56.1479 53.5 59.5Z" fill="#FD5A96" stroke="#FD5A96"/>
<path d="M9.14619 46.7667C8.46506 47.2383 8.29516 48.1727 8.76671 48.8538C9.23826 49.5349 10.1727 49.7048 10.8538 49.2333L9.14619 46.7667ZM10.8538 49.2333L36.8538 31.2333L35.1462 28.7667L9.14619 46.7667L10.8538 49.2333Z" fill="#FD5A96"/>
<path d="M12.5711 48.613C11.8051 48.2976 10.9284 48.6628 10.613 49.4289C10.2976 50.1949 10.6628 51.0716 11.4289 51.387L12.5711 48.613ZM11.4289 51.387L45.4289 65.387L46.5711 62.613L12.5711 48.613L11.4289 51.387Z" fill="#FD5A96"/>
<rect x="14.6992" y="43.7461" width="33.411" height="7.24287" transform="rotate(19.4881 14.6992 43.7461)" fill="#FD5A96"/>
<rect x="30.8438" y="34" width="5.38075" height="18.649" transform="rotate(52.7492 30.8438 34)" fill="#FD5A96"/>
<path d="M52.3609 58.3087L19.6181 51.9873L34.1382 30.3804L52.3609 58.3087Z" fill="#FD5A96"/>
<path d="M52.3609 58.3087L19.6181 51.9873L34.1382 30.3804L52.3609 58.3087Z" fill="#FD5A96"/>
<g filter="url(#filter1_dd_1176_4136)">
<mask id="path-19-inside-2_1176_4136" fill="white">
<path d="M131.742 62.1036C129.9 57.0837 129.94 50.4221 131.856 43.2495C133.771 36.077 137.443 28.8355 142.249 22.7543C147.055 16.6731 152.698 12.127 158.221 9.88766C163.744 7.64835 168.806 7.85384 172.548 10.4692L154.583 39.6208L131.742 62.1036Z"/>
</mask>
<path d="M131.742 62.1036C129.9 57.0837 129.94 50.4221 131.856 43.2495C133.771 36.077 137.443 28.8355 142.249 22.7543C147.055 16.6731 152.698 12.127 158.221 9.88766C163.744 7.64835 168.806 7.85384 172.548 10.4692L154.583 39.6208L131.742 62.1036Z" stroke="white" stroke-width="1.4" shape-rendering="crispEdges" mask="url(#path-19-inside-2_1176_4136)"/>
</g>
<path d="M161.492 8.5C161.492 11.8521 163.992 14.5 166.992 14.5C169.993 14.5 172.492 11.8521 172.492 8.5C172.492 5.14786 169.993 2.5 166.992 2.5C163.992 2.5 161.492 5.14786 161.492 8.5Z" fill="#FD5A96" stroke="#FD5A96"/>
<path d="M162.492 45.5C162.492 48.8521 164.992 51.5 167.992 51.5C170.993 51.5 173.492 48.8521 173.492 45.5C173.492 42.1479 170.993 39.5 167.992 39.5C164.992 39.5 162.492 42.1479 162.492 45.5Z" fill="#FD5A96" stroke="#FD5A96"/>
<path d="M128.492 59.5C128.492 62.8521 130.992 65.5 133.992 65.5C136.993 65.5 139.492 62.8521 139.492 59.5C139.492 56.1479 136.993 53.5 133.992 53.5C130.992 53.5 128.492 56.1479 128.492 59.5Z" fill="#FD5A96" stroke="#FD5A96"/>
<line y1="-3" x2="62.9683" y2="-3" transform="matrix(-0.539955 0.841694 0.841694 0.539955 166.992 8)" stroke="#FD5A96" stroke-width="6"/>
<line y1="-3" x2="36.7696" y2="-3" transform="matrix(-0.924678 0.38075 0.38075 0.924678 168.992 52)" stroke="#FD5A96" stroke-width="6"/>
<line y1="-3" x2="37.7005" y2="-3" transform="matrix(-0.0265248 -0.999648 -0.999648 0.0265248 167.992 45.6875)" stroke="#FD5A96" stroke-width="6"/>
<path d="M169.671 45.4425L166.541 8.56488L145.056 38.7004L169.671 45.4425Z" fill="#FD5A96" stroke="#FD5A96"/>
<path d="M148.35 29.7406L131.687 62.788L165.78 48.3842L148.35 29.7406Z" fill="#FD5A96" stroke="#FD5A96"/>
<path d="M146.934 31L129.934 57" stroke="#FD5A96" stroke-width="3"/>
<path d="M167.379 49.9796C167.569 50.4011 167.995 50.7167 168.605 50.8421C169.215 50.9673 169.971 50.89 170.717 50.5523C171.462 50.2145 172.019 49.6971 172.327 49.1561C172.635 48.6146 172.679 48.0866 172.488 47.6651C172.297 47.2436 171.871 46.9281 171.261 46.8027C170.651 46.6774 169.895 46.7547 169.149 47.0925C168.404 47.4302 167.847 47.9476 167.539 48.4886C167.231 49.0302 167.188 49.5581 167.379 49.9796Z" fill="#FD5A96" stroke="#FD5A96"/>
<path d="M128.434 59.5C128.434 62.8521 130.933 65.5 133.934 65.5C136.934 65.5 139.434 62.8521 139.434 59.5C139.434 56.1479 136.934 53.5 133.934 53.5C130.933 53.5 128.434 56.1479 128.434 59.5Z" fill="#FD5A96" stroke="#FD5A96"/>
<path d="M172.787 46.7667C173.469 47.2383 173.638 48.1727 173.167 48.8538C172.695 49.5349 171.761 49.7048 171.08 49.2333L172.787 46.7667ZM171.08 49.2333L145.08 31.2333L146.787 28.7667L172.787 46.7667L171.08 49.2333Z" fill="#FD5A96"/>
<path d="M169.362 48.613C170.128 48.2976 171.005 48.6628 171.321 49.4289C171.636 50.1949 171.271 51.0716 170.505 51.387L169.362 48.613ZM170.505 51.387L136.505 65.387L135.362 62.613L169.362 48.613L170.505 51.387Z" fill="#FD5A96"/>
<rect width="33.411" height="7.24287" transform="matrix(-0.942711 0.333611 0.333611 0.942711 167.234 43.7461)" fill="#FD5A96"/>
<rect width="5.38075" height="18.649" transform="matrix(-0.605305 0.795994 0.795994 0.605305 151.09 34)" fill="#FD5A96"/>
<path d="M129.573 58.3087L162.316 51.9873L147.795 30.3804L129.573 58.3087Z" fill="#FD5A96"/>
<path d="M129.573 58.3087L162.316 51.9873L147.795 30.3804L129.573 58.3087Z" fill="#FD5A96"/>
<circle cx="44.5" cy="22.5" r="4.5" fill="white"/>
</g>
<defs>
<filter id="filter0_dd_1176_4136" x="5.38477" y="8.3457" width="50.1602" height="61.7578" filterUnits="userSpaceOnUse" color-interpolation-filters="sRGB">
<feFlood flood-opacity="0" result="BackgroundImageFix"/>
<feColorMatrix in="SourceAlpha" type="matrix" values="0 0 0 0 0 0 0 0 0 0 0 0 0 0 0 0 0 0 127 0" result="hardAlpha"/>
<feOffset dy="4"/>
<feGaussianBlur stdDeviation="2"/>
<feComposite in2="hardAlpha" operator="out"/>
<feColorMatrix type="matrix" values="0 0 0 0 0 0 0 0 0 0 0 0 0 0 0 0 0 0 0.25 0"/>
<feBlend mode="normal" in2="BackgroundImageFix" result="effect1_dropShadow_1176_4136"/>
<feColorMatrix in="SourceAlpha" type="matrix" values="0 0 0 0 0 0 0 0 0 0 0 0 0 0 0 0 0 0 127 0" result="hardAlpha"/>
<feOffset dy="4"/>
<feGaussianBlur stdDeviation="2"/>
<feComposite in2="hardAlpha" operator="out"/>
<feColorMatrix type="matrix" values="0 0 0 0 0 0 0 0 0 0 0 0 0 0 0 0 0 0 0.25 0"/>
<feBlend mode="normal" in2="effect1_dropShadow_1176_4136" result="effect2_dropShadow_1176_4136"/>
<feBlend mode="normal" in="SourceGraphic" in2="effect2_dropShadow_1176_4136" result="shape"/>
</filter>
<filter id="filter1_dd_1176_4136" x="126.389" y="8.3457" width="50.1602" height="61.7578" filterUnits="userSpaceOnUse" color-interpolation-filters="sRGB">
<feFlood flood-opacity="0" result="BackgroundImageFix"/>
<feColorMatrix in="SourceAlpha" type="matrix" values="0 0 0 0 0 0 0 0 0 0 0 0 0 0 0 0 0 0 127 0" result="hardAlpha"/>
<feOffset dy="4"/>
<feGaussianBlur stdDeviation="2"/>
<feComposite in2="hardAlpha" operator="out"/>
<feColorMatrix type="matrix" values="0 0 0 0 0 0 0 0 0 0 0 0 0 0 0 0 0 0 0.25 0"/>
<feBlend mode="normal" in2="BackgroundImageFix" result="effect1_dropShadow_1176_4136"/>
<feColorMatrix in="SourceAlpha" type="matrix" values="0 0 0 0 0 0 0 0 0 0 0 0 0 0 0 0 0 0 127 0" result="hardAlpha"/>
<feOffset dy="4"/>
<feGaussianBlur stdDeviation="2"/>
<feComposite in2="hardAlpha" operator="out"/>
<feColorMatrix type="matrix" values="0 0 0 0 0 0 0 0 0 0 0 0 0 0 0 0 0 0 0.25 0"/>
<feBlend mode="normal" in2="effect1_dropShadow_1176_4136" result="effect2_dropShadow_1176_4136"/>
<feBlend mode="normal" in="SourceGraphic" in2="effect2_dropShadow_1176_4136" result="shape"/>
</filter>
<clipPath id="clip0_1176_4136">
<rect width="182" height="75" fill="white"/>
</clipPath>
</defs>
</svg>
