<svg width="240" height="201" viewBox="0 0 240 201" fill="none" xmlns="http://www.w3.org/2000/svg">
<path d="M4.60451 128.663C5.1195 127.924 6.22973 127.618 6.44525 126.743C6.5375 126.37 6.43219 125.959 6.5734 125.6C6.78976 125.066 7.467 124.894 8.04602 124.813C9.35608 124.634 10.6983 124.548 11.917 124.031C13.5006 123.353 14.7447 121.955 15.227 120.31C15.4966 119.39 15.6005 118.294 16.3726 117.718C16.7694 117.421 17.2796 117.324 17.7689 117.236C19.8792 116.855 21.9895 116.474 24.0889 116.102C24.6381 114.964 25.3515 113.901 26.2315 113.003C27.2637 111.968 28.5553 111.185 29.9861 110.886C32.3665 110.398 34.7785 111.297 37.0945 112.028C38.6861 112.546 40.3443 112.989 42.017 112.912C43.6906 112.824 45.408 112.108 46.3316 110.702C45.7889 112.583 44.3094 114.152 42.4667 114.807C41.0488 115.308 39.5067 115.266 38.0045 115.227C36.5032 115.179 34.9711 115.138 33.5448 115.618C32.2225 116.056 31.0109 117.077 30.6465 118.4L30.7345 118.428C31.8726 119.318 33.1239 120.058 34.4271 120.662C35.5565 118.61 37.851 117.252 40.1913 117.231C38.43 118.225 37.1791 120.054 36.867 122.055C42.4549 126.298 50.3645 126.525 57.2513 124.867C62.3749 123.64 67.2331 121.527 72.1779 119.693C74.2409 118.927 76.3097 118.211 78.4171 117.629C79.6927 117.266 80.9931 116.966 82.2961 116.636C84.7989 116.008 87.2761 115.327 89.5661 114.138C90.9214 113.432 92.2158 112.499 93.2857 111.376C94.9391 109.651 96.077 107.5 96.13 105.126C96.1953 102.492 94.9132 100.004 93.3704 97.864C92.9209 97.2534 92.4598 96.6618 91.9778 96.0785C91.4495 95.4511 90.9104 94.8327 90.3595 94.2335C88.688 92.4241 86.9083 90.7057 85.2359 88.9063C82.6532 86.1355 80.249 83.0388 79.0609 79.4541C78.9809 79.2164 78.9009 78.9787 78.8417 78.7328C78.8047 78.5791 78.7569 78.4344 78.7199 78.2807C77.8006 74.4883 78.4945 70.1417 81.2946 67.4511C80.4752 70.1008 80.9795 73.1149 82.5403 75.3966C99.7908 57.6354 123.099 45.8939 147.633 42.5678C145.634 44.1126 144.903 46.9004 145.291 49.3927C145.69 51.8858 147.043 54.1296 148.589 56.119C154.876 64.2659 164.883 69.4097 175.158 69.7889C170.843 74.4673 168.353 80.7878 168.33 87.149C168.306 93.5103 170.753 99.8625 175.027 104.555C168.394 105.241 161.616 105.984 155.538 108.745C149.459 111.516 144.096 116.707 142.9 123.279C135.614 119.532 126.207 120.843 119.878 125.941C129.843 126.896 139.43 130.739 148.355 135.389C158.463 140.652 167.986 146.988 178.263 151.914C188.541 156.83 199.855 160.31 211.21 159.326C218.693 158.673 226.304 155.833 231.134 150.065C226.753 156.213 219.667 159.961 212.398 161.978C203.658 164.41 194.306 164.622 185.468 162.579C174.268 159.993 164.215 153.982 153.74 149.26C143.584 144.685 132.215 141.261 121.372 143.634C120.811 145.382 119.811 146.973 118.524 148.287C117.347 149.491 115.921 150.443 114.362 151.062C114.668 152.885 116.348 154.354 118.046 155.272C120.003 156.323 122.235 157.097 123.59 158.859C124.135 158.113 124.474 157.208 124.534 156.28C125.66 156.607 126.464 157.65 126.85 158.757C127.125 159.533 127.234 160.366 127.325 161.186C127.355 161.53 127.385 161.884 127.426 162.229C127.739 165.016 128.507 167.761 129.673 170.32C130.13 171.303 130.686 172.314 131.599 172.904C132.512 173.495 133.873 173.541 134.586 172.719C134.421 174.17 133.346 175.473 131.954 175.906C132.64 175.985 133.325 176.063 134.01 176.152C133.115 177.23 131.458 177.59 130.196 176.979C130.545 177.592 130.885 178.193 131.234 178.805C128.657 179.236 126.074 177.64 124.615 175.457C123.166 173.285 122.63 170.64 122.239 168.057C122.04 166.745 121.822 165.311 120.855 164.415C120.094 163.698 119.02 163.455 117.994 163.257C115.456 162.768 112.905 162.439 110.36 162.03C108.132 161.679 105.774 161.205 104.164 159.622C102.145 157.642 101.895 154.479 102.216 151.666C102.511 149.052 103.208 146.422 102.93 143.809C95.9504 145.729 89.394 149.854 82.1865 149.517C81.7464 149.5 81.308 149.462 80.8713 149.405C77.7223 149.024 74.7711 147.858 71.8804 146.456C72.0916 147.036 72.0036 147.711 71.7439 148.281C71.4459 148.948 70.9471 149.497 70.4492 150.036C70.117 150.399 69.7847 150.762 69.4525 151.125C67.7741 152.206 66.0948 153.296 64.4063 154.376C64.2466 154.483 64.0878 154.58 63.9042 154.614C63.7106 154.648 63.5156 154.581 63.3297 154.525C61.5315 153.959 59.7432 153.394 57.9549 152.829C55.7268 152.126 53.4597 151.41 51.4904 150.147C50.6629 149.614 49.8157 148.96 48.8527 148.837C49.1857 149.518 49.0092 150.406 48.5352 151.018C48.0054 151.695 47.1799 152.076 46.3572 152.306C46.1004 152.375 45.8337 152.442 45.6207 152.585C45.4069 152.737 45.2335 153.003 45.2919 153.259C45.3446 153.464 45.5119 153.619 45.6719 153.743C46.3209 154.25 47.0699 154.646 47.8633 154.875C46.5825 155.297 45.1734 155.577 43.9089 155.108C42.8975 154.73 42.1047 153.909 41.573 152.97C41.0412 152.031 40.7082 150.999 40.3951 149.969C40.2616 149.536 40.1315 149.063 40.2978 148.645C40.4231 148.355 40.6727 148.136 40.9107 147.935C41.7969 147.198 42.6831 146.461 43.5801 145.715C44.7043 144.778 45.8394 143.831 47.1423 143.15C47.4891 142.969 47.864 142.81 48.2517 142.854C48.6983 142.912 49.0613 143.244 49.4302 143.507C50.5344 144.324 51.9122 144.643 53.2635 144.919C54.9211 145.252 56.6121 145.548 58.303 145.492C59.1784 145.467 60.0939 145.325 60.7546 144.759C61.675 143.975 61.8202 142.632 61.7243 141.41C60.9304 141.07 60.1331 140.771 59.3215 140.521C54.1442 138.863 48.6185 138.81 43.2306 138.087C37.9912 137.387 32.5694 135.888 28.8105 132.204C28.2337 132.726 27.5659 133.141 26.8394 133.42C24.4006 134.355 21.6632 133.739 19.0607 134.007C16.8138 134.226 14.6392 135.124 12.881 136.549C11.4156 135.731 10.1394 134.577 9.17274 133.21C8.78044 134.039 8.6022 134.947 9.08897 135.591C7.77126 134.806 6.72769 133.632 5.71317 132.471C5.23779 131.929 4.7533 131.375 4.47918 130.71C4.20592 130.034 4.17464 129.228 4.58714 128.631L4.60451 128.663ZM170.739 71.2266C145.43 66.1558 117.251 65.516 94.2936 78.9035C117.929 67.0996 145.175 67.8402 170.739 71.2266ZM170.153 101.588C150.031 87.0553 124.007 80.7188 99.4651 84.3754C124.129 82.4556 149.113 88.5122 170.153 101.588ZM141 119.803C129.681 104.792 113.547 93.271 95.6584 87.4514C112.909 94.8523 128.383 105.885 141 119.803ZM119.381 125.537C115.489 112.989 107.494 101.584 97.0146 93.6399C106.362 102.852 113.901 113.606 119.381 125.537Z" fill="#2C2842" fill-opacity="0.85"/>
<path d="M4.60451 128.663C5.1195 127.924 6.22973 127.618 6.44525 126.743C6.5375 126.37 6.43219 125.959 6.5734 125.6C6.78976 125.066 7.467 124.894 8.04602 124.813C9.35608 124.634 10.6983 124.548 11.917 124.031C13.5006 123.353 14.7447 121.955 15.227 120.31C15.4966 119.39 15.6005 118.294 16.3726 117.718C16.7694 117.421 17.2796 117.324 17.7689 117.236C19.8792 116.855 21.9895 116.474 24.0889 116.102C24.6381 114.964 25.3515 113.901 26.2315 113.003C27.2637 111.968 28.5553 111.185 29.9861 110.886C32.3665 110.398 34.7785 111.297 37.0945 112.028C38.6861 112.546 40.3443 112.989 42.017 112.912C43.6906 112.824 45.408 112.108 46.3316 110.702C45.7889 112.583 44.3094 114.152 42.4667 114.807C41.0488 115.308 39.5067 115.266 38.0045 115.227C36.5032 115.179 34.9711 115.138 33.5448 115.618C32.2225 116.056 31.0109 117.077 30.6465 118.4L30.7345 118.428C31.8726 119.318 33.1239 120.058 34.4271 120.662C35.5565 118.61 37.851 117.252 40.1913 117.231C38.43 118.225 37.1791 120.054 36.867 122.055C42.4549 126.298 50.3645 126.525 57.2513 124.867C62.3749 123.64 67.2331 121.527 72.1779 119.693C74.2409 118.927 76.3097 118.211 78.4171 117.629C79.6927 117.266 80.9931 116.966 82.2961 116.636C84.7989 116.008 87.2761 115.327 89.5661 114.138C90.9214 113.432 92.2158 112.499 93.2857 111.376C94.9391 109.651 96.077 107.5 96.13 105.126C96.1953 102.492 94.9132 100.004 93.3704 97.864C92.9209 97.2534 92.4598 96.6618 91.9778 96.0785C91.4495 95.4511 90.9104 94.8327 90.3595 94.2335C88.688 92.4241 86.9083 90.7057 85.2359 88.9063C82.6532 86.1355 80.249 83.0388 79.0609 79.4541C78.9809 79.2164 78.9009 78.9787 78.8417 78.7328C78.8047 78.5791 78.7569 78.4344 78.7199 78.2807C77.8006 74.4883 78.4945 70.1417 81.2946 67.4511C80.4752 70.1008 80.9795 73.1149 82.5403 75.3966C100.5 57 123.099 45.8939 147.633 42.5678C145.634 44.1126 144.903 46.9004 145.291 49.3927C145.69 51.8858 147.043 54.1296 148.589 56.119C154.876 64.2659 164.883 69.4097 175.158 69.7889C170.843 74.4673 168.353 80.7878 168.33 87.149C168.306 93.5103 170.753 99.8625 175.027 104.555C168.394 105.241 161.616 105.984 155.538 108.745C149.459 111.516 144.096 116.707 142.9 123.279C135.614 119.532 126.207 120.843 119.878 125.941C129.843 126.896 139.43 130.739 148.355 135.389C158.463 140.652 167.986 146.988 178.263 151.914C188.541 156.83 199.855 160.31 211.21 159.326C218.693 158.673 226.304 155.833 231.134 150.065C226.753 156.213 219.667 159.961 212.398 161.978C203.658 164.41 194.306 164.622 185.468 162.579C174.268 159.993 164.215 153.982 153.74 149.26C143.584 144.685 132.215 141.261 121.372 143.634C120.811 145.382 119.811 146.973 118.524 148.287C117.347 149.491 115.921 150.443 114.362 151.062C114.668 152.885 116.348 154.354 118.046 155.272C120.003 156.323 122.235 157.097 123.59 158.859C124.135 158.113 124.474 157.208 124.534 156.28C125.66 156.607 126.464 157.65 126.85 158.757C127.125 159.533 127.234 160.366 127.325 161.186C127.355 161.53 127.385 161.884 127.426 162.229C127.739 165.016 128.507 167.761 129.673 170.32C130.13 171.303 130.686 172.314 131.599 172.904C132.512 173.495 133.873 173.541 134.586 172.719C134.421 174.17 133.346 175.473 131.954 175.906C132.64 175.985 133.325 176.063 134.01 176.152C133.115 177.23 131.458 177.59 130.196 176.979C130.545 177.592 130.885 178.193 131.234 178.805C128.657 179.236 126.074 177.64 124.615 175.457C123.166 173.285 122.63 170.64 122.239 168.057C122.04 166.745 121.822 165.311 120.855 164.415C120.094 163.698 119.02 163.455 117.994 163.257C115.456 162.768 112.905 162.439 110.36 162.03C108.132 161.679 105.774 161.205 104.164 159.622C102.145 157.642 101.895 154.479 102.216 151.666C102.511 149.052 103.208 146.422 102.93 143.809C95.9504 145.729 89.394 149.854 82.1865 149.517C81.7464 149.5 81.308 149.462 80.8713 149.405C77.7223 149.024 74.7711 147.858 71.8804 146.456C72.0916 147.036 72.0036 147.711 71.7439 148.281C71.4459 148.948 70.9471 149.497 70.4492 150.036C70.117 150.399 69.7847 150.762 69.4525 151.125C67.7741 152.206 66.0948 153.296 64.4063 154.376C64.2466 154.483 64.0878 154.58 63.9042 154.614C63.7106 154.648 63.5156 154.581 63.3297 154.525C61.5315 153.959 59.7432 153.394 57.9549 152.829C55.7268 152.126 53.4597 151.41 51.4904 150.147C50.6629 149.614 49.8157 148.96 48.8527 148.837C49.1857 149.518 49.0092 150.406 48.5352 151.018C48.0054 151.695 47.1799 152.076 46.3572 152.306C46.1004 152.375 45.8337 152.442 45.6207 152.585C45.4069 152.737 45.2335 153.003 45.2919 153.259C45.3446 153.464 45.5119 153.619 45.6719 153.743C46.3209 154.25 47.0699 154.646 47.8633 154.875C46.5825 155.297 45.1734 155.577 43.9089 155.108C42.8975 154.73 42.1047 153.909 41.573 152.97C41.0412 152.031 40.7082 150.999 40.3951 149.969C40.2616 149.536 40.1315 149.063 40.2978 148.645C40.4231 148.355 40.6727 148.136 40.9107 147.935C41.7969 147.198 42.6831 146.461 43.5801 145.715C44.7043 144.778 45.8394 143.831 47.1423 143.15C47.4891 142.969 47.864 142.81 48.2517 142.854C48.6983 142.912 49.0613 143.244 49.4302 143.507C50.5344 144.324 51.9122 144.643 53.2635 144.919C54.9211 145.252 56.6121 145.548 58.303 145.492C59.1784 145.467 60.0939 145.325 60.7546 144.759C61.675 143.975 61.8202 142.632 61.7243 141.41C60.9304 141.07 60.1331 140.771 59.3215 140.521C54.1442 138.863 48.6185 138.81 43.2306 138.087C37.9912 137.387 32.5694 135.888 28.8105 132.204C28.2337 132.726 27.5659 133.141 26.8394 133.42C24.4006 134.355 21.6632 133.739 19.0607 134.007C16.8138 134.226 14.6392 135.124 12.881 136.549C11.4156 135.731 10.1394 134.577 9.17274 133.21C8.78044 134.039 8.6022 134.947 9.08897 135.591C7.77126 134.806 6.72769 133.632 5.71317 132.471C5.23779 131.929 4.7533 131.375 4.47918 130.71C4.20592 130.034 4.17464 129.228 4.58714 128.631L4.60451 128.663ZM170.739 71.2266C145.43 66.1558 117.251 65.516 94.2936 78.9035C117.929 67.0996 145.175 67.8402 170.739 71.2266ZM170.153 101.588C150.031 87.0553 124.007 80.7188 99.4651 84.3754C124.129 82.4556 149.113 88.5122 170.153 101.588ZM141 119.803C129.681 104.792 113.547 93.271 95.6584 87.4514C112.909 94.8523 128.383 105.885 141 119.803ZM119.381 125.537C115.489 112.989 107.494 101.584 97.0146 93.6399C106.362 102.852 113.901 113.606 119.381 125.537Z" fill="#2C2842" fill-opacity="0.85"/>
<path d="M28.9175 91.9759C26.7832 89.5949 26.0428 86.2895 25.7532 83.1132C25.1573 76.7189 26.0582 70.192 28.3597 64.1867C29.2625 67.5862 32.9344 69.4769 36.3866 70.1844C43.281 71.5986 50.7568 69.8609 56.3163 65.5401C58.8527 73.7669 67.669 79.5713 76.2291 78.6493C75.6652 85.9277 80.902 93.2118 87.9373 95.0897C88.1531 95.1483 88.3697 95.197 88.5863 95.2457C86.9419 100.494 88.5956 106.608 92.6119 110.335C91.5429 111.448 90.2485 112.38 88.8923 113.097C86.1392 114.537 83.0989 115.23 80.0734 115.984C79.294 116.178 78.5245 116.373 77.7533 116.588C75.6459 117.17 73.5763 117.896 71.5141 118.653C68.8632 112.815 66.0566 106.803 61.1609 102.68C54.8423 97.3605 46.0019 96.0504 37.7672 96.6892C34.6051 96.93 31.3726 97.4055 28.3236 96.562C25.2753 95.7084 22.4324 93.0458 22.6227 89.8905C24.4366 91.2103 26.6712 91.9539 28.9266 91.9867L28.9175 91.9759ZM87.5723 97.0055C80.853 95.6565 73.5033 97.0938 67.7972 100.9C74.203 98.6493 80.7883 97.3472 87.5723 97.0055ZM74.2343 81.0777C68.1192 84.3874 63.0835 89.8572 60.2986 96.2325C64.5213 90.7633 69.1283 85.7285 74.2343 81.0777ZM53.0685 89.721C53.3294 86.5618 53.6614 82.1038 54.1264 79.0223C54.5117 75.9339 55.4216 71.5255 56.0287 68.4261C52.8979 74.9725 51.8242 82.5786 53.0685 89.721Z" fill="#2C2842" fill-opacity="0.85"/>
<path d="M119.863 148.362C120.853 149.34 122.22 149.909 123.586 150.247C125.188 150.635 126.843 150.767 128.432 151.195C130.021 151.632 131.609 152.42 132.505 153.802L132.58 153.738C133.57 152.97 133.852 151.428 133.201 150.359C134.081 150.515 134.845 151.092 135.407 151.793C135.959 152.492 136.33 153.317 136.67 154.149C138.026 157.417 139.042 160.897 141.137 163.746C141.873 164.752 142.747 165.681 143.863 166.248C144.978 166.815 146.339 166.982 147.467 166.467L147.616 166.6C147.366 167.883 146.368 168.982 145.121 169.367C145.794 169.475 146.458 169.572 147.132 169.68C146.725 170.438 145.974 171.006 145.126 171.184C144.286 171.373 143.361 171.163 142.673 170.642C143.103 171.482 143.711 172.227 144.442 172.841C142.522 173.108 140.58 172.46 138.992 171.31C138.378 170.866 137.82 170.347 137.327 169.782C135.575 167.745 134.624 165.135 133.996 162.511C133.833 161.835 133.664 161.118 133.152 160.652C132.508 160.085 131.544 160.093 130.713 160.303C129.942 160.508 129.199 160.865 128.406 160.988C128.315 160.167 128.215 159.346 127.931 158.559C127.545 157.452 125.514 155.029 124.378 154.701C124.318 155.629 123.99 156.535 123.434 157.28C121.845 156.029 121.116 155.877 119.158 154.825C117.979 154.182 116.104 152.757 115.38 151.721C116.886 150.777 118.805 149.937 119.844 148.35L119.863 148.362Z" fill="#2C2842" fill-opacity="0.85"/>
<path d="M64.6078 160.335C64.6288 161.963 64.6498 163.591 64.67 165.228C64.6756 165.982 64.6995 166.756 65.0235 167.427C65.5011 168.411 66.5959 168.987 67.6703 169.099C68.7546 169.212 69.8423 168.934 70.868 168.56C71.7166 168.261 72.5513 167.891 73.2337 167.308C73.916 166.724 74.4296 165.885 74.4658 164.994C74.5028 164.094 73.9811 163.156 73.1339 162.853C73.7482 163.297 73.5996 164.328 73.0254 164.821C72.4512 165.313 71.6487 165.425 70.8912 165.481C71.2971 164.492 71.6684 163.44 71.5173 162.393C71.367 161.336 70.5216 160.31 69.4569 160.319C72.3102 158.647 75.1644 156.965 78.0077 155.292C79.0214 154.706 80.0585 154.082 80.7617 153.139C81.3382 152.385 81.6371 151.357 81.4125 150.465C78.2635 150.084 75.3124 148.918 72.4216 147.516C72.6328 148.096 72.5448 148.771 72.2852 149.341C71.9871 150.008 71.4883 150.557 70.9904 151.097C70.6582 151.46 70.326 151.823 69.9938 152.185C68.6082 153.713 67.2136 155.229 65.828 156.756C65.4733 157.147 65.1086 157.538 64.8866 158.02C64.5552 158.725 64.5549 159.548 64.568 160.332L64.6078 160.335Z" fill="#2C2842" fill-opacity="0.85"/>
</svg>
