<svg width="240" height="201" viewBox="0 0 240 201" fill="none" xmlns="http://www.w3.org/2000/svg">
<path d="M6.51964 126.483C6.30412 127.358 5.19389 127.664 4.6789 128.403L4.66153 128.371C4.24903 128.968 4.28031 129.774 4.55357 130.449C4.82769 131.115 5.31218 131.669 5.78756 132.211C6.80208 133.372 7.84565 134.546 9.16336 135.331C8.67659 134.687 8.85483 133.779 9.24713 132.95C10.2138 134.317 11.49 135.47 12.9554 136.289C14.7136 134.864 16.8882 133.966 19.1351 133.747C21.7376 133.479 24.475 134.095 26.9138 133.16C27.6403 132.881 28.3081 132.466 28.8849 131.944C32.6438 135.628 38.0656 137.127 43.3049 137.827C48.6929 138.55 54.2186 138.602 59.3959 140.261C60.2074 140.511 61.0048 140.81 61.7987 141.149C61.8946 142.372 61.7494 143.715 60.829 144.499C60.1683 145.064 59.2528 145.207 58.3774 145.232C56.6865 145.288 54.9955 144.992 53.3379 144.659C51.9866 144.383 50.6088 144.064 49.5046 143.247C49.1357 142.984 48.7727 142.652 48.3261 142.594C47.9384 142.55 47.5634 142.709 47.2167 142.89C45.9141 143.571 44.7793 144.517 43.6553 145.454L43.6545 145.455L40.9851 147.675C40.7471 147.875 40.4974 148.095 40.3722 148.385C40.2059 148.803 40.336 149.275 40.4695 149.708C40.7826 150.739 41.1156 151.771 41.6474 152.71C42.1791 153.649 42.9719 154.47 43.9833 154.847C45.2478 155.317 46.6569 155.036 47.9377 154.614C47.1443 154.386 46.3953 153.99 45.7463 153.483C45.5863 153.359 45.4189 153.204 45.3663 152.999C45.3079 152.743 45.4813 152.477 45.6951 152.324C45.9 152.187 46.1547 152.12 46.4025 152.054L46.4316 152.046C47.2543 151.816 48.0798 151.435 48.6096 150.758C49.0836 150.146 49.2601 149.258 48.9271 148.577C49.8901 148.7 50.7373 149.354 51.5648 149.887C53.5341 151.15 55.8012 151.866 58.0293 152.569L58.0404 152.573C59.825 153.136 61.6096 153.7 63.4041 154.264C63.59 154.321 63.785 154.387 63.9786 154.354C64.1622 154.319 64.321 154.223 64.4807 154.116C66.1691 153.036 67.8485 151.946 69.5269 150.865L70.5236 149.776C71.0215 149.237 71.5203 148.687 71.8183 148.021C72.078 147.451 72.1659 146.776 71.9547 146.195C74.8455 147.598 77.7967 148.764 80.9457 149.144C81.3824 149.202 81.8207 149.24 82.2608 149.257C89.4684 149.594 96.0248 145.469 103.004 143.549C103.282 146.162 102.585 148.792 102.29 151.406C101.969 154.219 102.22 157.382 104.238 159.362C105.849 160.945 108.207 161.418 110.435 161.77C112.979 162.179 115.53 162.508 118.068 162.997C119.095 163.195 120.168 163.438 120.929 164.155C121.896 165.051 122.115 166.485 122.313 167.797C122.704 170.38 123.24 173.025 124.69 175.197C126.149 177.38 128.732 178.976 131.308 178.545C130.959 177.933 130.619 177.331 130.27 176.719C131.533 177.329 133.189 176.97 134.085 175.892C133.4 175.803 132.715 175.725 132.03 175.646L132.028 175.646C133.42 175.213 134.496 173.91 134.66 172.459C133.947 173.281 132.586 173.234 131.673 172.644C130.76 172.054 130.205 171.043 129.747 170.06C128.582 167.501 127.813 164.756 127.5 161.969C127.46 161.624 127.43 161.27 127.399 160.926C127.309 160.106 127.199 159.273 126.925 158.497C126.538 157.39 125.734 156.347 124.608 156.02C124.548 156.948 124.21 157.853 123.664 158.599C122.31 156.837 120.078 156.063 118.12 155.012C116.423 154.094 114.742 152.625 114.437 150.802C115.995 150.183 117.422 149.231 118.599 148.027C119.886 146.712 120.885 145.122 121.447 143.374C132.289 141.001 143.658 144.425 153.814 148.999C164.289 153.722 174.343 159.733 185.543 162.319C194.38 164.361 203.733 164.15 212.472 161.717C219.741 159.701 226.827 155.953 231.209 149.805C226.378 155.573 218.768 158.413 211.285 159.066C199.929 160.05 188.615 156.57 178.337 151.654C168.061 146.728 158.537 140.391 148.43 135.129C139.504 130.479 129.918 126.636 119.953 125.681C109.456 119.234 90.5241 116.792 82.3704 116.376C81.0675 116.706 79.7671 117.006 78.4915 117.369C76.3841 117.951 74.3153 118.667 72.2523 119.433C67.3075 121.267 62.4492 123.38 57.3257 124.607C50.4389 126.264 42.5293 126.038 36.9414 121.795C37.2535 119.794 38.5044 117.964 40.2657 116.971C37.9254 116.991 35.6309 118.35 34.5015 120.401C33.1983 119.798 31.9469 119.058 30.8089 118.168L30.7209 118.14C31.0853 116.816 32.2969 115.796 33.6192 115.358C35.0454 114.878 36.5775 114.919 38.0789 114.967L38.0988 114.968C39.5947 115.006 41.1294 115.045 42.5411 114.547C44.3838 113.892 45.8633 112.323 46.4059 110.442C45.4824 111.848 43.765 112.564 42.0914 112.651C40.4187 112.729 38.7605 112.286 37.1689 111.768C34.8529 111.037 32.4409 110.138 30.0604 110.626C28.6297 110.925 27.3381 111.708 26.3059 112.743C25.4259 113.641 24.7125 114.704 24.1633 115.841C22.0639 116.213 19.9536 116.595 17.8433 116.976C17.354 117.064 16.8438 117.161 16.447 117.458C15.6749 118.034 15.571 119.129 15.3014 120.05C14.8191 121.694 13.575 123.093 11.9914 123.771C10.7727 124.288 9.43047 124.374 8.12041 124.553C7.54139 124.633 6.86415 124.806 6.64779 125.34C6.50658 125.699 6.61189 126.109 6.51964 126.483Z" fill="#29263C"/>
<path d="M38.4605 142.412C36.3261 144.793 35.5858 148.098 35.2961 151.275C34.7002 157.669 35.6012 164.196 37.9027 170.201C38.8055 166.802 42.4774 164.911 45.9296 164.204C52.824 162.789 60.2998 164.527 65.8592 168.848C68.3957 160.621 77.212 154.817 85.7721 155.739C85.2082 148.46 90.445 141.176 97.4803 139.298C97.696 139.24 97.9127 139.191 98.1293 139.142C96.4849 133.894 98.1386 127.78 102.155 124.053C101.086 122.94 99.7915 122.008 98.4353 121.291C95.6822 119.851 92.6419 119.158 89.6164 118.404C88.8369 118.21 88.0675 118.015 87.2963 117.8C85.1889 117.218 83.1193 116.492 81.0571 115.735C78.4062 121.573 75.5995 127.585 70.7039 131.708C64.3853 137.027 55.5449 138.337 47.3102 137.699C44.148 137.458 40.9156 136.982 37.8665 137.826C34.8183 138.68 31.9754 141.342 32.1657 144.497C33.9795 143.178 36.2142 142.434 38.4696 142.401L38.4605 142.412ZM97.1153 137.382C90.3959 138.731 83.0463 137.294 77.3402 133.488C83.7459 135.739 90.3313 137.041 97.1153 137.382ZM83.7773 153.31C77.6622 150.001 72.6264 144.531 69.8416 138.155C74.0643 143.625 78.6713 148.659 83.7773 153.31ZM62.6115 144.667C62.8723 147.826 63.2044 152.284 63.6694 155.366C64.0546 158.454 64.9646 162.862 65.5716 165.962C62.4409 159.415 61.3671 151.809 62.6115 144.667Z" fill="#2C2842" fill-opacity="0.85"/>
<path d="M119.937 148.362C120.927 149.34 122.294 149.909 123.66 150.247C125.263 150.635 126.917 150.767 128.507 151.194C130.095 151.632 131.684 152.42 132.579 153.802L132.654 153.738C133.644 152.97 133.926 151.428 133.275 150.359C134.155 150.515 134.919 151.092 135.481 151.792C136.033 152.492 136.404 153.317 136.744 154.149C138.1 157.417 139.117 160.896 141.211 163.746C141.947 164.752 142.821 165.68 143.937 166.248C145.053 166.815 146.413 166.982 147.541 166.467L147.691 166.6C147.44 167.883 146.443 168.982 145.195 169.367C145.868 169.475 146.532 169.572 147.206 169.68C146.799 170.438 146.048 171.006 145.2 171.184C144.361 171.373 143.435 171.163 142.747 170.642C143.177 171.482 143.786 172.227 144.516 172.841C142.596 173.108 140.654 172.46 139.067 171.31C138.452 170.866 137.895 170.347 137.401 169.782C135.649 167.745 134.698 165.134 134.07 162.511C133.907 161.835 133.738 161.118 133.226 160.652C132.582 160.085 131.618 160.093 130.787 160.303C130.016 160.507 129.273 160.865 128.48 160.988C128.39 160.167 128.289 159.346 128.006 158.559C127.619 157.451 125.588 155.029 124.452 154.701C124.393 155.629 124.064 156.534 123.508 157.28C121.919 156.029 121.19 155.876 119.233 154.825C118.053 154.182 116.178 152.757 115.454 151.721C116.96 150.776 118.879 149.937 119.918 148.35L119.937 148.362Z" fill="#2C2842" fill-opacity="0.85"/>
<path d="M64.683 160.335C64.704 161.963 64.725 163.59 64.7452 165.228C64.7508 165.981 64.7747 166.756 65.0987 167.426C65.5763 168.411 66.6711 168.986 67.7455 169.099C68.8298 169.212 69.9175 168.934 70.9432 168.56C71.7918 168.261 72.6265 167.891 73.3088 167.307C73.9912 166.724 74.5048 165.884 74.541 164.994C74.578 164.094 74.0562 163.156 73.2091 162.853C73.8234 163.297 73.6747 164.328 73.1005 164.821C72.5264 165.313 71.7239 165.425 70.9664 165.481C71.3723 164.492 71.7436 163.44 71.5924 162.393C71.4422 161.336 70.5967 160.31 69.5321 160.319C72.3854 158.647 75.2396 156.965 78.0829 155.291C79.0966 154.706 80.1337 154.082 80.8369 153.139C81.4134 152.385 81.7123 151.357 81.4877 150.465C78.3387 150.084 75.3876 148.918 72.4968 147.516C72.708 148.096 72.62 148.771 72.3604 149.341C72.0623 150.008 71.5635 150.557 71.0656 151.097C70.7334 151.459 70.4012 151.822 70.069 152.185C68.6834 153.713 67.2888 155.229 65.9032 156.756C65.5485 157.147 65.1838 157.538 64.9618 158.02C64.6304 158.725 64.6301 159.548 64.6431 160.332L64.683 160.335Z" fill="#2C2842" fill-opacity="0.85"/>
<path d="M56.9398 132.353C56.8868 129.979 55.7489 127.829 54.0955 126.104L80.6883 111.538C87.017 116.636 96.4234 117.947 103.71 114.201C105.269 118.194 109.978 126.69 116.348 128.735C122.426 131.495 129.204 132.239 135.837 132.925C131.562 137.617 129.116 143.969 129.14 150.331C129.163 156.692 131.652 163.012 135.968 167.691C125.693 168.07 115.686 173.214 109.399 181.361C107.853 183.35 106.5 185.594 106.101 188.087C105.713 190.579 106.444 193.367 108.443 194.912C83.909 191.586 60.6006 179.844 43.3501 162.083C41.7893 164.365 41.285 167.379 42.1044 170.029C39.3043 167.338 38.6104 162.991 39.5297 159.199C39.5667 159.045 39.6146 158.901 39.6516 158.747C39.7108 158.501 39.7907 158.263 39.8707 158.026C41.0588 154.441 43.463 151.344 46.0458 148.573C47.7181 146.774 49.4978 145.056 51.1694 143.246C51.7202 142.647 52.2593 142.029 52.7877 141.401C53.2696 140.818 53.7307 140.226 54.1802 139.616C55.723 137.476 57.0051 134.987 56.9398 132.353Z" fill="#2C2842" fill-opacity="0.85"/>
</svg>
