<svg width="239" height="157" viewBox="0 0 239 157" fill="none" xmlns="http://www.w3.org/2000/svg">
<path d="M3.60459 97.6628C4.11958 96.9241 5.22981 96.6179 5.44533 95.7431C5.53758 95.3696 5.43226 94.9591 5.57347 94.5999C5.78984 94.0664 6.46708 93.8936 7.0461 93.8128C8.35616 93.6341 9.69838 93.5484 10.9171 93.0307C12.5007 92.3535 13.7448 90.9546 14.2271 89.3098C14.4967 88.3895 14.6006 87.2944 15.3727 86.7182C15.7695 86.421 16.2796 86.3243 16.769 86.2358C18.8793 85.8547 20.9895 85.4736 23.089 85.1016C23.6382 83.9643 24.3516 82.9014 25.2315 82.0033C26.2638 80.9677 27.5554 80.1852 28.9861 79.8863C31.3666 79.3979 33.7785 80.2973 36.0946 81.0278C37.6862 81.5457 39.3444 81.989 41.0171 81.9116C42.6907 81.8243 44.4081 81.1084 45.3316 79.7021C44.789 81.5827 43.3095 83.152 41.4668 83.807C40.0488 84.3076 38.5068 84.2658 37.0046 84.2273C35.5032 84.1788 33.9711 84.1378 32.5449 84.6177C31.2226 85.0563 30.011 86.0765 29.6466 87.4002L29.7346 87.4278C30.8726 88.3183 32.124 89.058 33.4272 89.6615C34.5566 87.6105 36.8511 86.2515 39.1914 86.2314C37.4301 87.2246 36.1792 89.0544 35.8671 91.055C41.455 95.298 49.3646 95.5246 56.2514 93.8669C61.3749 92.6401 66.2332 90.5275 71.178 88.6932C73.241 87.9267 75.3097 87.2108 77.4172 86.6287C78.6928 86.2664 79.9932 85.9664 81.2961 85.6365C83.799 85.008 86.2762 84.3272 88.5661 83.1385C89.9215 82.4317 91.2159 81.4989 92.2857 80.3762C93.9392 78.6511 95.0771 76.5005 95.1301 74.1263C95.1954 71.4923 93.9133 69.0036 92.3705 66.864C91.921 66.2534 91.4598 65.6618 90.9779 65.0785C90.4496 64.4511 89.9104 63.8327 89.3596 63.2335C87.6881 61.4241 85.9084 59.7057 84.236 57.9063C81.6533 55.1355 79.2491 52.0388 78.061 48.4541C77.981 48.2164 77.901 47.9787 77.8418 47.7328C77.8048 47.5791 77.757 47.4344 77.72 47.2807C76.8006 43.4883 77.4945 39.1417 80.2947 36.4511C79.4753 39.1008 79.9796 42.1149 81.5404 44.3966C98.7909 26.6354 122.099 14.8939 146.633 11.5678C144.634 13.1126 143.903 15.9004 144.291 18.3927C144.69 20.8858 146.043 23.1296 147.589 25.119C153.876 33.2659 163.883 38.4097 174.158 38.7889C169.843 43.4673 167.354 49.7878 167.33 56.149C167.306 62.5103 169.753 68.8625 174.027 73.5548C167.395 74.2407 160.616 74.9843 154.538 77.7451C148.459 80.5159 143.096 85.7067 141.9 92.2785C134.614 88.5323 125.207 89.8434 118.879 94.9414C128.843 95.8962 138.43 99.7393 147.356 104.389C157.463 109.652 166.986 115.988 177.263 120.914C187.541 125.83 198.855 129.31 210.21 128.326C217.693 127.673 225.304 124.833 230.134 119.065C225.753 125.213 218.667 128.961 211.398 130.978C202.658 133.41 193.306 133.622 184.468 131.579C173.268 128.993 163.215 122.982 152.74 118.26C142.584 113.685 131.215 110.261 120.372 112.634C119.811 114.382 118.812 115.973 117.524 117.287C116.347 118.491 114.921 119.443 113.362 120.062C113.668 121.885 115.348 123.354 117.046 124.272C119.003 125.323 121.235 126.097 122.59 127.859C123.136 127.113 123.474 126.208 123.534 125.28C124.66 125.607 125.464 126.65 125.85 127.757C126.125 128.533 126.234 129.366 126.325 130.186C126.355 130.53 126.385 130.884 126.426 131.229C126.739 134.016 127.507 136.761 128.673 139.32C129.131 140.303 129.686 141.314 130.599 141.904C131.512 142.495 132.873 142.541 133.586 141.719C133.421 143.17 132.346 144.473 130.954 144.906C131.64 144.985 132.326 145.063 133.01 145.152C132.115 146.23 130.458 146.59 129.196 145.979C129.545 146.592 129.885 147.193 130.234 147.805C127.657 148.236 125.074 146.64 123.615 144.457C122.166 142.285 121.63 139.64 121.239 137.057C121.04 135.745 120.822 134.311 119.855 133.415C119.094 132.698 118.02 132.455 116.994 132.257C114.456 131.768 111.905 131.439 109.361 131.03C107.132 130.679 104.774 130.205 103.164 128.622C101.145 126.642 100.895 123.479 101.216 120.666C101.511 118.052 102.208 115.422 101.93 112.809C94.9505 114.729 88.3941 118.854 81.1865 118.517C80.7464 118.5 80.308 118.462 79.8714 118.405C76.7223 118.024 73.7712 116.858 70.8804 115.456C71.0916 116.036 71.0037 116.711 70.744 117.281C70.4459 117.948 69.9472 118.497 69.4493 119.036C69.117 119.399 68.7848 119.762 68.4526 120.125C66.7741 121.206 65.0948 122.296 63.4064 123.376C63.2467 123.483 63.0879 123.58 62.9043 123.614C62.7107 123.648 62.5157 123.581 62.3298 123.525C60.5315 122.959 58.7433 122.394 56.955 121.829C54.7269 121.126 52.4598 120.41 50.4905 119.147C49.663 118.614 48.8158 117.96 47.8528 117.837C48.1858 118.518 48.0093 119.406 47.5353 120.018C47.0055 120.695 46.1799 121.076 45.3572 121.306C45.1005 121.375 44.8337 121.442 44.6208 121.585C44.407 121.737 44.2336 122.003 44.292 122.259C44.3446 122.464 44.512 122.619 44.672 122.743C45.321 123.25 46.07 123.646 46.8633 123.875C45.5826 124.297 44.1735 124.577 42.909 124.108C41.8976 123.73 41.1048 122.909 40.573 121.97C40.0413 121.031 39.7083 119.999 39.3952 118.969C39.2617 118.536 39.1316 118.063 39.2979 117.645C39.4231 117.355 39.6728 117.136 39.9108 116.935C40.797 116.198 41.6832 115.461 42.5802 114.715C43.7044 113.778 44.8394 112.831 46.1424 112.15C46.4891 111.969 46.864 111.81 47.2518 111.854C47.6984 111.912 48.0614 112.244 48.4303 112.507C49.5345 113.324 50.9123 113.643 52.2636 113.919C53.9212 114.252 55.6122 114.548 57.3031 114.492C58.1785 114.467 59.094 114.325 59.7547 113.759C60.6751 112.975 60.8203 111.632 60.7244 110.41C59.9305 110.07 59.1331 109.771 58.3215 109.521C53.1443 107.863 47.6186 107.81 42.2306 107.087C36.9913 106.387 31.5695 104.888 27.8106 101.204C27.2338 101.726 26.566 102.141 25.8395 102.42C23.4007 103.355 20.6633 102.739 18.0608 103.007C15.8139 103.226 13.6393 104.124 11.8811 105.549C10.4157 104.731 9.13952 103.577 8.17282 102.21C7.78052 103.039 7.60228 103.947 8.08905 104.591C6.77133 103.806 5.72777 102.632 4.71325 101.471C4.23787 100.929 3.75338 100.375 3.47926 99.7096C3.206 99.0338 3.17471 98.2282 3.58722 97.6312L3.60459 97.6628ZM169.739 40.2266C144.43 35.1558 116.251 34.516 93.2937 47.9035C116.929 36.0996 144.175 36.8402 169.739 40.2266ZM169.153 70.5876C149.031 56.0553 123.007 49.7188 98.4651 53.3754C123.129 51.4555 148.113 57.5122 169.153 70.5876ZM140 88.8035C128.681 73.7916 112.547 62.271 94.6584 56.4514C111.909 63.8523 127.383 74.8846 140 88.8035ZM118.381 94.5374C114.489 81.989 106.494 70.5843 96.0147 62.6399C105.362 71.8521 112.901 82.6056 118.381 94.5374Z" fill="#2C2842" fill-opacity="0.85"/>
<path d="M3.60459 97.6628C4.11958 96.9241 5.22981 96.6179 5.44533 95.7431C5.53758 95.3696 5.43226 94.9591 5.57347 94.5999C5.78984 94.0664 6.46708 93.8936 7.0461 93.8128C8.35616 93.6341 9.69838 93.5484 10.9171 93.0307C12.5007 92.3535 13.7448 90.9546 14.2271 89.3098C14.4967 88.3895 14.6006 87.2944 15.3727 86.7182C15.7695 86.421 16.2796 86.3243 16.769 86.2358C18.8793 85.8547 20.9895 85.4736 23.089 85.1016C23.6382 83.9643 24.3516 82.9014 25.2315 82.0033C26.2638 80.9677 27.5554 80.1852 28.9861 79.8863C31.3666 79.3979 33.7785 80.2973 36.0946 81.0278C37.6862 81.5457 39.3444 81.989 41.0171 81.9116C42.6907 81.8243 44.4081 81.1084 45.3316 79.7021C44.789 81.5827 43.3095 83.152 41.4668 83.807C40.0488 84.3076 38.5068 84.2658 37.0046 84.2273C35.5032 84.1788 33.9711 84.1378 32.5449 84.6177C31.2226 85.0563 30.011 86.0765 29.6466 87.4002L29.7346 87.4278C30.8726 88.3183 32.124 89.058 33.4272 89.6615C34.5566 87.6105 36.8511 86.2515 39.1914 86.2314C37.4301 87.2246 36.1792 89.0544 35.8671 91.055C41.455 95.298 49.3646 95.5246 56.2514 93.8669C61.3749 92.6401 66.2332 90.5275 71.178 88.6932C73.241 87.9267 75.3097 87.2108 77.4172 86.6287C78.6928 86.2664 79.9932 85.9664 81.2961 85.6365C83.799 85.008 86.2762 84.3272 88.5661 83.1385C89.9215 82.4317 91.2159 81.4989 92.2857 80.3762C93.9392 78.6511 95.0771 76.5005 95.1301 74.1263C95.1954 71.4923 93.9133 69.0036 92.3705 66.864C91.921 66.2534 91.4598 65.6618 90.9779 65.0785C90.4496 64.4511 89.9104 63.8327 89.3596 63.2335C87.6881 61.4241 85.9084 59.7057 84.236 57.9063C81.6533 55.1355 79.2491 52.0388 78.061 48.4541C77.981 48.2164 77.901 47.9787 77.8418 47.7328C77.8048 47.5791 77.757 47.4344 77.72 47.2807C76.8006 43.4883 77.4945 39.1417 80.2947 36.4511C79.4753 39.1008 79.9796 42.1149 81.5404 44.3966C98.7909 26.6354 122.099 14.8939 146.633 11.5678C144.634 13.1126 143.903 15.9004 144.291 18.3927C144.69 20.8858 146.043 23.1296 147.589 25.119C153.876 33.2659 163.883 38.4097 174.158 38.7889C169.843 43.4673 167.354 49.7878 167.33 56.149C167.306 62.5103 169.753 68.8625 174.027 73.5548C167.395 74.2407 160.616 74.9843 154.538 77.7451C148.459 80.5159 143.096 85.7067 141.9 92.2785C134.614 88.5323 125.207 89.8434 118.879 94.9414C128.843 95.8962 138.43 99.7393 147.356 104.389C157.463 109.652 166.986 115.988 177.263 120.914C187.541 125.83 198.855 129.31 210.21 128.326C217.693 127.673 225.304 124.833 230.134 119.065C225.753 125.213 218.667 128.961 211.398 130.978C202.658 133.41 193.306 133.622 184.468 131.579C173.268 128.993 163.215 122.982 152.74 118.26C142.584 113.685 131.215 110.261 120.372 112.634C119.811 114.382 118.812 115.973 117.524 117.287C116.347 118.491 114.921 119.443 113.362 120.062C113.668 121.885 115.348 123.354 117.046 124.272C119.003 125.323 121.235 126.097 122.59 127.859C123.136 127.113 123.474 126.208 123.534 125.28C124.66 125.607 125.464 126.65 125.85 127.757C126.125 128.533 126.234 129.366 126.325 130.186C126.355 130.53 126.385 130.884 126.426 131.229C126.739 134.016 127.507 136.761 128.673 139.32C129.131 140.303 129.686 141.314 130.599 141.904C131.512 142.495 132.873 142.541 133.586 141.719C133.421 143.17 132.346 144.473 130.954 144.906C131.64 144.985 132.326 145.063 133.01 145.152C132.115 146.23 130.458 146.59 129.196 145.979C129.545 146.592 129.885 147.193 130.234 147.805C127.657 148.236 125.074 146.64 123.615 144.457C122.166 142.285 121.63 139.64 121.239 137.057C121.04 135.745 120.822 134.311 119.855 133.415C119.094 132.698 118.02 132.455 116.994 132.257C114.456 131.768 111.905 131.439 109.361 131.03C107.132 130.679 104.774 130.205 103.164 128.622C101.145 126.642 100.895 123.479 101.216 120.666C101.511 118.052 102.208 115.422 101.93 112.809C94.9505 114.729 88.3941 118.854 81.1865 118.517C80.7464 118.5 80.308 118.462 79.8714 118.405C76.7223 118.024 73.7712 116.858 70.8804 115.456C71.0916 116.036 71.0037 116.711 70.744 117.281C70.4459 117.948 69.9472 118.497 69.4493 119.036C69.117 119.399 68.7848 119.762 68.4526 120.125C66.7741 121.206 65.0948 122.296 63.4064 123.376C63.2467 123.483 63.0879 123.58 62.9043 123.614C62.7107 123.648 62.5157 123.581 62.3298 123.525C60.5315 122.959 58.7433 122.394 56.955 121.829C54.7269 121.126 52.4598 120.41 50.4905 119.147C49.663 118.614 48.8158 117.96 47.8528 117.837C48.1858 118.518 48.0093 119.406 47.5353 120.018C47.0055 120.695 46.1799 121.076 45.3572 121.306C45.1005 121.375 44.8337 121.442 44.6208 121.585C44.407 121.737 44.2336 122.003 44.292 122.259C44.3446 122.464 44.512 122.619 44.672 122.743C45.321 123.25 46.07 123.646 46.8633 123.875C45.5826 124.297 44.1735 124.577 42.909 124.108C41.8976 123.73 41.1048 122.909 40.573 121.97C40.0413 121.031 39.7083 119.999 39.3952 118.969C39.2617 118.536 39.1316 118.063 39.2979 117.645C39.4231 117.355 39.6728 117.136 39.9108 116.935C40.797 116.198 41.6832 115.461 42.5802 114.715C43.7044 113.778 44.8394 112.831 46.1424 112.15C46.4891 111.969 46.864 111.81 47.2518 111.854C47.6984 111.912 48.0614 112.244 48.4303 112.507C49.5345 113.324 50.9123 113.643 52.2636 113.919C53.9212 114.252 55.6122 114.548 57.3031 114.492C58.1785 114.467 59.094 114.325 59.7547 113.759C60.6751 112.975 60.8203 111.632 60.7244 110.41C59.9305 110.07 59.1331 109.771 58.3215 109.521C53.1443 107.863 47.6186 107.81 42.2306 107.087C36.9913 106.387 31.5695 104.888 27.8106 101.204C27.2338 101.726 26.566 102.141 25.8395 102.42C23.4007 103.355 20.6633 102.739 18.0608 103.007C15.8139 103.226 13.6393 104.124 11.8811 105.549C10.4157 104.731 9.13952 103.577 8.17282 102.21C7.78052 103.039 7.60228 103.947 8.08905 104.591C6.77133 103.806 5.72777 102.632 4.71325 101.471C4.23787 100.929 3.75338 100.375 3.47926 99.7096C3.206 99.0338 3.17471 98.2282 3.58722 97.6312L3.60459 97.6628ZM169.739 40.2266C144.43 35.1558 116.251 34.516 93.2937 47.9035C116.929 36.0996 144.175 36.8402 169.739 40.2266ZM169.153 70.5876C149.031 56.0553 123.007 49.7188 98.4651 53.3754C123.129 51.4555 148.113 57.5122 169.153 70.5876ZM140 88.8035C128.681 73.7916 112.547 62.271 94.6584 56.4514C111.909 63.8523 127.383 74.8846 140 88.8035ZM118.381 94.5374C114.489 81.989 106.494 70.5843 96.0147 62.6399C105.362 71.8521 112.901 82.6056 118.381 94.5374Z" fill="#2C2842" fill-opacity="0.85"/>
<path d="M27.9177 60.9758C25.7834 58.5947 25.043 55.2894 24.7534 52.1131C24.1575 45.7188 25.0584 39.1919 27.3599 33.1865C28.2627 36.5861 31.9346 38.4767 35.3868 39.1843C42.2812 40.5985 49.757 38.8608 55.3165 34.54C57.8529 42.7668 66.6692 48.5712 75.2293 47.6492C74.6654 54.9276 79.9022 62.2116 86.9375 64.0896C87.1533 64.1482 87.3699 64.1969 87.5865 64.2456C85.9421 69.4943 87.5958 75.6079 91.6121 79.3347C90.5431 80.4474 89.2487 81.3803 87.8925 82.097C85.1394 83.5371 82.0991 84.2298 79.0736 84.9841C78.2942 85.1782 77.5247 85.3732 76.7535 85.5881C74.6461 86.1702 72.5765 86.896 70.5143 87.6526C67.8634 81.8148 65.0568 75.803 60.1611 71.6797C53.8425 66.3604 45.0021 65.0503 36.7674 65.6891C33.6053 65.9298 30.3728 66.4054 27.3238 65.5618C24.2755 64.7083 21.4326 62.0457 21.6229 58.8904C23.4368 60.2102 25.6714 60.9538 27.9268 60.9866L27.9177 60.9758ZM86.5725 66.0054C79.8532 64.6564 72.5035 66.0937 66.7974 69.9001C73.2032 67.6492 79.7885 66.347 86.5725 66.0054ZM73.2345 50.0776C67.1194 53.3873 62.0837 58.857 59.2988 65.2324C63.5215 59.7632 68.1285 54.7284 73.2345 50.0776ZM52.0687 58.7209C52.3296 55.5616 52.6616 51.1037 53.1266 48.0222C53.5119 44.9338 54.4218 40.5254 55.0289 37.426C51.8981 43.9724 50.8244 51.5785 52.0687 58.7209Z" fill="#2C2842" fill-opacity="0.85"/>
<path d="M118.863 117.362C119.853 118.34 121.219 118.909 122.586 119.247C124.188 119.635 125.843 119.767 127.432 120.195C129.021 120.632 130.609 121.421 131.504 122.802L131.58 122.738C132.569 121.97 132.852 120.429 132.201 119.359C133.081 119.515 133.845 120.092 134.407 120.793C134.959 121.492 135.33 122.317 135.67 123.149C137.026 126.417 138.042 129.897 140.136 132.746C140.873 133.753 141.747 134.681 142.863 135.248C143.978 135.815 145.339 135.982 146.467 135.467L146.616 135.6C146.366 136.883 145.368 137.982 144.121 138.367C144.794 138.475 145.458 138.572 146.131 138.68C145.725 139.438 144.974 140.006 144.126 140.184C143.286 140.373 142.361 140.163 141.673 139.642C142.103 140.482 142.711 141.227 143.441 141.842C141.522 142.109 139.58 141.46 137.992 140.31C137.378 139.866 136.82 139.347 136.327 138.783C134.574 136.745 133.624 134.135 132.996 131.511C132.833 130.835 132.664 130.118 132.152 129.652C131.508 129.085 130.544 129.093 129.713 129.303C128.942 129.508 128.199 129.866 127.406 129.988C127.315 129.167 127.215 128.346 126.931 127.559C126.545 126.452 124.514 124.029 123.378 123.701C123.318 124.629 122.99 125.535 122.434 126.28C120.845 125.03 120.116 124.877 118.158 123.826C116.979 123.183 115.104 121.757 114.38 120.721C115.886 119.777 117.805 118.938 118.844 117.351L118.863 117.362Z" fill="#2C2842" fill-opacity="0.85"/>
<path d="M63.608 129.335C63.629 130.963 63.65 132.59 63.6702 134.228C63.6758 134.981 63.6997 135.756 64.0237 136.426C64.5013 137.411 65.5961 137.986 66.6705 138.099C67.7548 138.212 68.8425 137.934 69.8682 137.56C70.7168 137.261 71.5515 136.891 72.2339 136.307C72.9162 135.724 73.4298 134.884 73.466 133.994C73.503 133.094 72.9813 132.156 72.1341 131.853C72.7484 132.297 72.5998 133.328 72.0256 133.821C71.4514 134.313 70.6489 134.425 69.8914 134.481C70.2973 133.492 70.6686 132.44 70.5175 131.393C70.3672 130.336 69.5218 129.31 68.4571 129.319C71.3104 127.647 74.1646 125.965 77.0079 124.291C78.0216 123.706 79.0587 123.082 79.7619 122.139C80.3384 121.385 80.6373 120.357 80.4127 119.465C77.2637 119.084 74.3126 117.918 71.4218 116.516C71.633 117.096 71.545 117.771 71.2854 118.341C70.9873 119.008 70.4885 119.557 69.9906 120.097C69.6584 120.459 69.3262 120.822 68.994 121.185C67.6084 122.713 66.2138 124.229 64.8282 125.756C64.4735 126.147 64.1088 126.538 63.8868 127.02C63.5554 127.725 63.5551 128.548 63.5682 129.332L63.608 129.335Z" fill="#2C2842" fill-opacity="0.85"/>
</svg>
