<svg width="143" height="106" viewBox="0 0 143 106" fill="none" xmlns="http://www.w3.org/2000/svg">
<path d="M3.30964 66.2176C3.61284 65.7167 4.26649 65.509 4.39338 64.9159C4.44769 64.6627 4.38569 64.3844 4.46883 64.1408C4.59621 63.7791 4.99494 63.6619 5.33584 63.6071C6.10715 63.486 6.89739 63.4279 7.6149 63.0768C8.54728 62.6177 9.27972 61.6692 9.56367 60.554C9.72241 59.93 9.78361 59.1875 10.2382 58.7968C10.4718 58.5954 10.7721 58.5297 11.0602 58.4697C12.3027 58.2113 13.5451 57.9529 14.7812 57.7007C15.1045 56.9296 15.5245 56.2089 16.0426 55.6C16.6504 54.8978 17.4108 54.3673 18.2531 54.1647C19.6546 53.8335 21.0747 54.4433 22.4383 54.9386C23.3753 55.2897 24.3516 55.5903 25.3364 55.5378C26.3218 55.4786 27.3329 54.9932 27.8766 54.0398C27.5571 55.3148 26.6861 56.3789 25.6012 56.8229C24.7664 57.1624 23.8585 57.134 22.974 57.1079C22.0901 57.0751 21.1881 57.0472 20.3484 57.3726C19.5699 57.67 18.8565 58.3618 18.642 59.2593L18.6938 59.278C19.3638 59.8818 20.1006 60.3832 20.8679 60.7925C21.5328 59.4018 22.8837 58.4804 24.2615 58.4668C23.2245 59.1402 22.4881 60.3808 22.3043 61.7373C25.5943 64.6141 30.2511 64.7678 34.3057 63.6438C37.3222 62.812 40.1825 61.3796 43.0938 60.1359C44.3084 59.6162 45.5264 59.1308 46.7671 58.7362C47.5182 58.4905 48.2838 58.2871 49.0509 58.0634C50.5245 57.6373 51.9829 57.1756 53.3312 56.3697C54.1291 55.8905 54.8912 55.258 55.5211 54.4968C56.4945 53.3271 57.1645 51.869 57.1957 50.2592C57.2341 48.4733 56.4793 46.7859 55.571 45.3352C55.3063 44.9212 55.0348 44.5201 54.7511 44.1246C54.44 43.6992 54.1226 43.2799 53.7983 42.8736C52.8142 41.6468 51.7664 40.4817 50.7818 39.2616C49.2612 37.383 47.8457 35.2833 47.1462 32.8529C47.0991 32.6917 47.052 32.5305 47.0172 32.3638C46.9954 32.2595 46.9672 32.1615 46.9454 32.0572C46.4042 29.4859 46.8127 26.5388 48.4613 24.7145C47.9789 26.511 48.2758 28.5547 49.1947 30.1017C59.351 18.0592 73.0739 10.0982 87.5184 7.84298C86.3413 8.89042 85.911 10.7806 86.1397 12.4704C86.3743 14.1609 87.171 15.6822 88.0811 17.031C91.7825 22.5548 97.6743 26.0424 103.724 26.2996C101.183 29.4717 99.7176 33.7571 99.7037 38.0702C99.6899 42.3833 101.13 46.6902 103.647 49.8718C99.7418 50.3368 95.751 50.841 92.1725 52.7128C88.5935 54.5915 85.4359 58.111 84.7319 62.5669C80.4419 60.0268 74.9038 60.9158 71.1777 64.3723C77.0446 65.0198 82.6888 67.6255 87.9437 70.778C93.8944 74.3463 99.5014 78.6428 105.552 81.9827C111.603 85.3159 118.264 87.675 124.95 87.0082C129.355 86.5654 133.836 84.6397 136.68 80.7286C134.101 84.8972 129.929 87.4386 125.649 88.8058C120.503 90.4549 114.997 90.5985 109.794 89.2136C103.2 87.46 97.2811 83.3844 91.1139 80.1827C85.1343 77.0811 78.4408 74.7597 72.0573 76.3682C71.7267 77.5537 71.1383 78.632 70.3805 79.5235C69.6875 80.3397 68.8476 80.9849 67.93 81.4047C68.1098 82.6406 69.0993 83.6366 70.0988 84.2593C71.2512 84.9719 72.5654 85.4964 73.3628 86.6912C73.6841 86.1853 73.8834 85.5721 73.9184 84.9427C74.5814 85.1647 75.0547 85.8715 75.2825 86.6221C75.4442 87.1485 75.5085 87.7129 75.5616 88.2693C75.5797 88.5025 75.5973 88.7424 75.6213 88.9762C75.8056 90.8658 76.2579 92.7274 76.9442 94.4624C77.2137 95.1287 77.5408 95.8143 78.0783 96.2145C78.6158 96.6146 79.4171 96.6461 79.8368 96.0887C79.7398 97.0727 79.1068 97.9561 78.2872 98.2494C78.691 98.3029 79.0947 98.3564 79.498 98.4166C78.9708 99.1471 77.9954 99.3911 77.2521 98.9774C77.4576 99.3924 77.6576 99.8001 77.8631 100.215C76.3463 100.508 74.8255 99.4251 73.9666 97.9452C73.1131 96.4727 72.7975 94.679 72.5675 92.9278C72.4505 92.0384 72.322 91.0662 71.7527 90.4587C71.3044 89.9721 70.6725 89.8077 70.068 89.6731C68.574 89.3418 67.072 89.1186 65.5739 88.8414C64.2621 88.603 62.8737 88.2822 61.9255 87.2086C60.7372 85.8663 60.5896 83.7217 60.7789 81.8146C60.9523 80.0419 61.3628 78.2587 61.1993 76.4868C57.09 77.7891 53.2299 80.5859 48.9864 80.3574C48.7273 80.3455 48.4692 80.32 48.2121 80.281C46.3581 80.023 44.6206 79.2322 42.9186 78.2815C43.043 78.6749 42.9912 79.1325 42.8383 79.5189C42.6628 79.9711 42.3692 80.3437 42.076 80.7094C41.8804 80.9555 41.6848 81.2016 41.4892 81.4477C40.501 82.1803 39.5123 82.9197 38.5183 83.6518C38.4242 83.7241 38.3307 83.7898 38.2226 83.8131C38.1086 83.8359 37.9938 83.7905 37.8844 83.7525C36.8257 83.3689 35.7728 82.9859 34.7199 82.603C33.4081 82.1264 32.0734 81.6407 30.9139 80.7844C30.4267 80.4233 29.928 79.9793 29.361 79.8961C29.5571 80.3578 29.4531 80.96 29.1741 81.3748C28.8621 81.834 28.3761 82.0922 27.8917 82.2485C27.7405 82.2948 27.5835 82.3406 27.4581 82.4371C27.3323 82.5403 27.2302 82.7208 27.2645 82.8943C27.2955 83.0335 27.3941 83.1385 27.4883 83.2226C27.8704 83.5666 28.3113 83.8347 28.7784 83.9897C28.0244 84.2759 27.1948 84.4662 26.4503 84.1477C25.8548 83.8916 25.3881 83.3351 25.075 82.6985C24.7619 82.0619 24.5659 81.3621 24.3815 80.6633C24.3029 80.3698 24.2263 80.0492 24.3242 79.7662C24.398 79.5693 24.545 79.4205 24.6851 79.2847C25.2068 78.785 25.7286 78.2853 26.2567 77.7794C26.9186 77.1438 27.5868 76.5021 28.354 76.0402C28.5581 75.9175 28.7788 75.81 29.0071 75.8393C29.2701 75.8789 29.4838 76.1042 29.701 76.2821C30.3511 76.8363 31.1623 77.0525 31.9579 77.24C32.9338 77.4656 33.9293 77.666 34.9249 77.6282C35.4403 77.6111 35.9793 77.5146 36.3683 77.1311C36.9102 76.5994 36.9957 75.6891 36.9392 74.8601C36.4718 74.6302 36.0023 74.4273 35.5245 74.2577C32.4764 73.1332 29.2231 73.0978 26.0509 72.6076C22.9662 72.1329 19.7741 71.1167 17.561 68.6184C17.2215 68.9728 16.8282 69.2538 16.4005 69.4429C14.9647 70.0769 13.353 69.6592 11.8208 69.8413C10.4979 69.9897 9.21761 70.5982 8.18248 71.5644C7.31968 71.0097 6.56835 70.2277 5.99921 69.3005C5.76823 69.8629 5.6633 70.4786 5.94988 70.9152C5.17407 70.3827 4.55967 69.5871 3.96236 68.7999C3.68248 68.432 3.39724 68.0568 3.23585 67.6053C3.07497 67.1471 3.05655 66.6009 3.29941 66.1961L3.30964 66.2176ZM101.122 27.2744C86.2212 23.8362 69.631 23.4024 56.1145 32.4795C70.0297 24.4762 86.0711 24.9783 101.122 27.2744ZM100.777 47.8599C88.9302 38.0066 73.6085 33.7103 59.1592 36.1896C73.6804 34.8879 88.3898 38.9944 100.777 47.8599ZM83.6132 60.2107C76.9492 50.0322 67.4498 42.221 56.918 38.2752C67.0745 43.2932 76.1849 50.7734 83.6132 60.2107ZM70.885 64.0985C68.5934 55.5903 63.8864 47.8576 57.7165 42.4711C63.2197 48.7173 67.6582 56.0083 70.885 64.0985Z" fill="#2C2842" fill-opacity="0.85"/>
<path d="M3.30964 66.2176C3.61284 65.7167 4.26649 65.509 4.39338 64.9159C4.44769 64.6627 4.38569 64.3844 4.46883 64.1408C4.59621 63.7791 4.99494 63.6619 5.33584 63.6071C6.10715 63.486 6.89739 63.4279 7.6149 63.0768C8.54728 62.6177 9.27972 61.6692 9.56367 60.554C9.72241 59.93 9.78361 59.1875 10.2382 58.7968C10.4718 58.5954 10.7721 58.5297 11.0602 58.4697C12.3027 58.2113 13.5451 57.9529 14.7812 57.7007C15.1045 56.9296 15.5245 56.2089 16.0426 55.6C16.6504 54.8978 17.4108 54.3673 18.2531 54.1647C19.6546 53.8335 21.0747 54.4433 22.4383 54.9386C23.3753 55.2897 24.3516 55.5903 25.3364 55.5378C26.3218 55.4786 27.3329 54.9932 27.8766 54.0398C27.5571 55.3148 26.6861 56.3789 25.6012 56.8229C24.7664 57.1624 23.8585 57.134 22.974 57.1079C22.0901 57.0751 21.1881 57.0472 20.3484 57.3726C19.5699 57.67 18.8565 58.3618 18.642 59.2593L18.6938 59.278C19.3638 59.8818 20.1006 60.3832 20.8679 60.7925C21.5328 59.4018 22.8837 58.4804 24.2615 58.4668C23.2245 59.1402 22.4881 60.3808 22.3043 61.7373C25.5943 64.6141 30.2511 64.7678 34.3057 63.6438C37.3222 62.812 40.1825 61.3796 43.0938 60.1359C44.3084 59.6162 45.5264 59.1308 46.7671 58.7362C47.5182 58.4905 48.2838 58.2871 49.0509 58.0634C50.5245 57.6373 51.9829 57.1756 53.3312 56.3697C54.1291 55.8905 54.8912 55.258 55.5211 54.4968C56.4945 53.3271 57.1645 51.869 57.1957 50.2592C57.2341 48.4733 56.4793 46.7859 55.571 45.3352C55.3063 44.9212 55.0348 44.5201 54.7511 44.1246C54.44 43.6992 54.1226 43.2799 53.7983 42.8736C52.8142 41.6468 51.7664 40.4817 50.7818 39.2616C49.2612 37.383 47.8457 35.2833 47.1462 32.8529C47.0991 32.6917 47.052 32.5305 47.0172 32.3638C46.9954 32.2595 46.9672 32.1615 46.9454 32.0572C46.4042 29.4859 46.8127 26.5388 48.4613 24.7145C47.9789 26.511 48.2758 28.5547 49.1947 30.1017C59.351 18.0592 73.0739 10.0982 87.5184 7.84298C86.3413 8.89042 85.911 10.7806 86.1397 12.4704C86.3743 14.1609 87.171 15.6822 88.0811 17.031C91.7825 22.5548 97.6743 26.0424 103.724 26.2996C101.183 29.4717 99.7176 33.7571 99.7037 38.0702C99.6899 42.3833 101.13 46.6902 103.647 49.8718C99.7418 50.3368 95.751 50.841 92.1725 52.7128C88.5935 54.5915 85.4359 58.111 84.7319 62.5669C80.4419 60.0268 74.9038 60.9158 71.1777 64.3723C77.0446 65.0198 82.6888 67.6255 87.9437 70.778C93.8944 74.3463 99.5014 78.6428 105.552 81.9827C111.603 85.3159 118.264 87.675 124.95 87.0082C129.355 86.5654 133.836 84.6397 136.68 80.7286C134.101 84.8972 129.929 87.4386 125.649 88.8058C120.503 90.4549 114.997 90.5985 109.794 89.2136C103.2 87.46 97.2811 83.3844 91.1139 80.1827C85.1343 77.0811 78.4408 74.7597 72.0573 76.3682C71.7267 77.5537 71.1383 78.632 70.3805 79.5235C69.6875 80.3397 68.8476 80.9849 67.93 81.4047C68.1098 82.6406 69.0993 83.6366 70.0988 84.2593C71.2512 84.9719 72.5654 85.4964 73.3628 86.6912C73.6841 86.1853 73.8834 85.5721 73.9184 84.9427C74.5814 85.1647 75.0547 85.8715 75.2825 86.6221C75.4442 87.1485 75.5085 87.7129 75.5616 88.2693C75.5797 88.5025 75.5973 88.7424 75.6213 88.9762C75.8056 90.8658 76.2579 92.7274 76.9442 94.4624C77.2137 95.1287 77.5408 95.8143 78.0783 96.2145C78.6158 96.6146 79.4171 96.6461 79.8368 96.0887C79.7398 97.0727 79.1068 97.9561 78.2872 98.2494C78.691 98.3029 79.0947 98.3564 79.498 98.4166C78.9708 99.1471 77.9954 99.3911 77.2521 98.9774C77.4576 99.3924 77.6576 99.8001 77.8631 100.215C76.3463 100.508 74.8255 99.4251 73.9666 97.9452C73.1131 96.4727 72.7975 94.679 72.5675 92.9278C72.4505 92.0384 72.322 91.0662 71.7527 90.4587C71.3044 89.9721 70.6725 89.8077 70.068 89.6731C68.574 89.3418 67.072 89.1186 65.5739 88.8414C64.2621 88.603 62.8737 88.2822 61.9255 87.2086C60.7372 85.8663 60.5896 83.7217 60.7789 81.8146C60.9523 80.0419 61.3628 78.2587 61.1993 76.4868C57.09 77.7891 53.2299 80.5859 48.9864 80.3574C48.7273 80.3455 48.4692 80.32 48.2121 80.281C46.3581 80.023 44.6206 79.2322 42.9186 78.2815C43.043 78.6749 42.9912 79.1325 42.8383 79.5189C42.6628 79.9711 42.3692 80.3437 42.076 80.7094C41.8804 80.9555 41.6848 81.2016 41.4892 81.4477C40.501 82.1803 39.5123 82.9197 38.5183 83.6518C38.4242 83.7241 38.3307 83.7898 38.2226 83.8131C38.1086 83.8359 37.9938 83.7905 37.8844 83.7525C36.8257 83.3689 35.7728 82.9859 34.7199 82.603C33.4081 82.1264 32.0734 81.6407 30.9139 80.7844C30.4267 80.4233 29.928 79.9793 29.361 79.8961C29.5571 80.3578 29.4531 80.96 29.1741 81.3748C28.8621 81.834 28.3761 82.0922 27.8917 82.2485C27.7405 82.2948 27.5835 82.3406 27.4581 82.4371C27.3323 82.5403 27.2302 82.7208 27.2645 82.8943C27.2955 83.0335 27.3941 83.1385 27.4883 83.2226C27.8704 83.5666 28.3113 83.8347 28.7784 83.9897C28.0244 84.2759 27.1948 84.4662 26.4503 84.1477C25.8548 83.8916 25.3881 83.3351 25.075 82.6985C24.7619 82.0619 24.5659 81.3621 24.3815 80.6633C24.3029 80.3698 24.2263 80.0492 24.3242 79.7662C24.398 79.5693 24.545 79.4205 24.6851 79.2847C25.2068 78.785 25.7286 78.2853 26.2567 77.7794C26.9186 77.1438 27.5868 76.5021 28.354 76.0402C28.5581 75.9175 28.7788 75.81 29.0071 75.8393C29.2701 75.8789 29.4838 76.1042 29.701 76.2821C30.3511 76.8363 31.1623 77.0525 31.9579 77.24C32.9338 77.4656 33.9293 77.666 34.9249 77.6282C35.4403 77.6111 35.9793 77.5146 36.3683 77.1311C36.9102 76.5994 36.9957 75.6891 36.9392 74.8601C36.4718 74.6302 36.0023 74.4273 35.5245 74.2577C32.4764 73.1332 29.2231 73.0978 26.0509 72.6076C22.9662 72.1329 19.7741 71.1167 17.561 68.6184C17.2215 68.9728 16.8282 69.2538 16.4005 69.4429C14.9647 70.0769 13.353 69.6592 11.8208 69.8413C10.4979 69.9897 9.21761 70.5982 8.18248 71.5644C7.31968 71.0097 6.56835 70.2277 5.99921 69.3005C5.76823 69.8629 5.6633 70.4786 5.94988 70.9152C5.17407 70.3827 4.55967 69.5871 3.96236 68.7999C3.68248 68.432 3.39724 68.0568 3.23585 67.6053C3.07497 67.1471 3.05655 66.6009 3.29941 66.1961L3.30964 66.2176ZM101.122 27.2744C86.2212 23.8362 69.631 23.4024 56.1145 32.4795C70.0297 24.4762 86.0711 24.9783 101.122 27.2744ZM100.777 47.8599C88.9302 38.0066 73.6085 33.7103 59.1592 36.1896C73.6804 34.8879 88.3898 38.9944 100.777 47.8599ZM83.6132 60.2107C76.9492 50.0322 67.4498 42.221 56.918 38.2752C67.0745 43.2932 76.1849 50.7734 83.6132 60.2107ZM70.885 64.0985C68.5934 55.5903 63.8864 47.8576 57.7165 42.4711C63.2197 48.7173 67.6582 56.0083 70.885 64.0985Z" fill="#2C2842" fill-opacity="0.85"/>
<path d="M17.6242 41.3611C16.3676 39.7467 15.9318 37.5056 15.7612 35.3519C15.4104 31.0164 15.9408 26.591 17.2958 22.5193C17.8274 24.8243 19.9892 26.1061 22.0217 26.5859C26.0808 27.5447 30.4822 26.3665 33.7554 23.4369C35.2487 29.0149 40.4394 32.9504 45.4792 32.3253C45.1472 37.2602 48.2304 42.199 52.3724 43.4723C52.4995 43.512 52.627 43.5451 52.7546 43.5781C51.7864 47.1368 52.76 51.282 55.1246 53.8088C54.4953 54.5633 53.7332 55.1958 52.9347 55.6818C51.3138 56.6582 49.5238 57.1279 47.7425 57.6393C47.2836 57.7709 46.8306 57.9031 46.3766 58.0488C45.1358 58.4435 43.9173 58.9356 42.7032 59.4486C41.1425 55.4904 39.49 51.4143 36.6077 48.6186C32.8876 45.0119 27.6827 44.1237 22.8345 44.5568C20.9728 44.72 19.0697 45.0425 17.2745 44.4705C15.4799 43.8918 13.8061 42.0865 13.9181 39.9471C14.9861 40.842 16.3017 41.3462 17.6296 41.3684L17.6242 41.3611ZM52.1575 44.7713C48.2015 43.8566 43.8743 44.8311 40.5149 47.412C44.2863 45.8858 48.1634 45.0029 52.1575 44.7713ZM44.3047 33.9718C40.7044 36.2159 37.7396 39.9245 36.1 44.2472C38.5861 40.5389 41.2985 37.1252 44.3047 33.9718ZM31.8432 39.8322C31.9968 37.6901 32.1923 34.6676 32.4661 32.5782C32.6929 30.4842 33.2287 27.4952 33.5861 25.3937C31.7428 29.8324 31.1106 34.9895 31.8432 39.8322Z" fill="#2C2842" fill-opacity="0.85"/>
<path d="M71.1684 79.5919C71.7513 80.2551 72.5557 80.6408 73.3601 80.8699C74.3036 81.1332 75.2779 81.2227 76.2136 81.5124C77.1488 81.8089 78.084 82.3436 78.6111 83.2803L78.6557 83.2371C79.2381 82.7162 79.4046 81.671 79.0213 80.9458C79.5393 81.0514 79.9888 81.4429 80.3198 81.9179C80.645 82.3923 80.8633 82.9515 81.0636 83.5157C81.8618 85.7313 82.4602 88.0906 83.6932 90.0225C84.127 90.705 84.6415 91.3342 85.2983 91.7189C85.9551 92.1036 86.7562 92.2168 87.4205 91.8673L87.5083 91.9576C87.3608 92.8277 86.7735 93.5727 86.039 93.8336C86.4354 93.9068 86.8264 93.9726 87.2228 94.0458C86.9836 94.5598 86.5413 94.9448 86.0418 95.0656C85.5477 95.1938 85.0029 95.0515 84.5978 94.6985C84.8509 95.2679 85.2092 95.7728 85.6391 96.1895C84.5088 96.3705 83.3656 95.931 82.4309 95.1514C82.0692 94.8503 81.7409 94.498 81.4503 94.1154C80.4186 92.7342 79.859 90.964 79.4891 89.1854C79.3933 88.7268 79.2936 88.2406 78.9921 87.925C78.613 87.5405 78.0453 87.5457 77.5561 87.6879C77.1025 87.8269 76.6649 88.0695 76.1978 88.1526C76.1447 87.5962 76.0857 87.0392 75.9187 86.5055C75.6909 85.7548 74.4955 84.1124 73.8266 83.8899C73.7915 84.5193 73.5981 85.133 73.2709 85.6383C72.3354 84.7906 71.9058 84.6869 70.7534 83.9743C70.0591 83.5382 68.9551 82.5718 68.5288 81.8696C69.4156 81.229 70.5452 80.66 71.1571 79.584L71.1684 79.5919Z" fill="#2C2842" fill-opacity="0.85"/>
<path d="M38.6368 87.7098C38.6491 88.8135 38.6615 89.9171 38.6734 91.0276C38.6767 91.5383 38.6908 92.0637 38.8815 92.518C39.1627 93.1855 39.8073 93.5758 40.4398 93.6518C41.0782 93.7285 41.7186 93.5399 42.3225 93.2865C42.8221 93.0841 43.3135 92.8332 43.7153 92.4373C44.117 92.0415 44.4194 91.4725 44.4407 90.8689C44.4625 90.2586 44.1553 89.6226 43.6565 89.4169C44.0182 89.718 43.9307 90.4171 43.5926 90.7512C43.2546 91.0852 42.7821 91.1611 42.3361 91.1987C42.5751 90.5282 42.7937 89.8148 42.7047 89.1051C42.6163 88.3886 42.1185 87.693 41.4917 87.6991C43.1716 86.5653 44.852 85.4246 46.526 84.2901C47.1229 83.8931 47.7335 83.4703 48.1474 82.8306C48.4869 82.3197 48.6629 81.6226 48.5306 81.0175C46.6766 80.7596 44.9391 79.9687 43.2372 79.018C43.3615 79.4114 43.3097 79.869 43.1569 80.2555C42.9814 80.7077 42.6877 81.0802 42.3946 81.4459C42.199 81.692 42.0034 81.9381 41.8078 82.1842C40.992 83.2197 40.1709 84.2478 39.3552 85.2833C39.1463 85.5485 38.9316 85.8131 38.8009 86.1405C38.6058 86.618 38.6056 87.176 38.6133 87.7075L38.6368 87.7098Z" fill="#2C2842" fill-opacity="0.85"/>
</svg>
