<svg width="385" height="54" viewBox="0 0 385 54" fill="none" xmlns="http://www.w3.org/2000/svg" preserveAspectRatio="none">
<g clip-path="url(#clip0_51_185)">
<path d="M369.342 5.29883C369.315 5.61493 369.3 5.93498 369.3 6.25781C369.3 12.6089 374.673 17.7578 381.3 17.7578C381.637 17.7578 381.97 17.74 382.3 17.7139V39.8408C381.97 39.8147 381.637 39.7988 381.3 39.7988C374.672 39.7988 369.3 44.9476 369.3 51.2988H15.2998C15.2998 44.9476 9.92722 39.7988 3.2998 39.7988V17.7578C9.92708 17.7578 15.2996 12.6089 15.2998 6.25781C15.2998 5.93498 15.285 5.61493 15.2578 5.29883H369.342Z" fill="#F0E3D8"/>
<path d="M379.8 9.29883C382.285 9.29883 384.3 7.28411 384.3 4.79883C384.3 2.31355 382.285 0.298828 379.8 0.298828C377.315 0.298828 375.3 2.31355 375.3 4.79883C375.3 7.28411 377.315 9.29883 379.8 9.29883Z" fill="#D9D9D9"/>
<path d="M381.826 0.780273C382.433 1.08705 382.961 1.52724 383.372 2.0625L377.063 8.37109C376.528 7.96047 376.088 7.43238 375.781 6.8252L381.826 0.780273Z" fill="#A9A9A9"/>
<path d="M379.8 9.29883C382.285 9.29883 384.3 7.28411 384.3 4.79883C384.3 2.31355 382.285 0.298828 379.8 0.298828C377.315 0.298828 375.3 2.31355 375.3 4.79883C375.3 7.28411 377.315 9.29883 379.8 9.29883Z" fill="#D9D9D9"/>
<path d="M375.366 49.5656C375.789 52.0145 378.118 53.6564 380.567 53.2329C383.016 52.8093 384.658 50.4807 384.234 48.0318C383.811 45.5828 381.482 43.941 379.033 44.3645C376.584 44.7881 374.942 47.1167 375.366 49.5656Z" fill="#D9D9D9"/>
<path d="M381.826 0.780273C382.433 1.08705 382.961 1.52724 383.372 2.0625L377.063 8.37109C376.528 7.96047 376.088 7.43238 375.781 6.8252L381.826 0.780273Z" fill="#A9A9A9"/>
<path d="M384.104 50.1108C383.906 50.7614 383.562 51.3567 383.104 51.8526L375.813 46.7114C376.126 46.114 376.572 45.5903 377.118 45.1845L384.104 50.1108Z" fill="#A9A9A9"/>
<path d="M0.0366384 5.0627C0.347399 7.52848 2.59823 9.27546 5.064 8.9647C7.52978 8.65394 9.27676 6.40311 8.966 3.93734C8.65524 1.47156 6.40441 -0.275422 3.93864 0.0353389C1.47286 0.3461 -0.274123 2.59693 0.0366384 5.0627Z" fill="#D9D9D9"/>
<path d="M8.74127 6.00724C8.51283 6.64802 8.14214 7.22701 7.66242 7.70134L0.614502 2.23109C0.954976 1.64868 1.42388 1.14592 1.98793 0.765625L8.74127 6.00724Z" fill="#A9A9A9"/>
<path d="M4.16639 44.3115C1.68794 44.4958 -0.171851 46.6543 0.012416 49.1327C0.196683 51.6112 2.35523 53.471 4.83367 53.2867C7.31212 53.1024 9.17191 50.9439 8.98764 48.4655C8.80338 45.987 6.64483 44.1272 4.16639 44.3115Z" fill="#D9D9D9"/>
<path d="M2.77734 52.956C2.14909 52.6951 1.58981 52.2953 1.14062 51.7919L6.96413 45.033C7.52837 45.4028 8.00649 45.8968 8.35744 46.4795L2.77734 52.956Z" fill="#A9A9A9"/>
</g>
<defs>
<clipPath id="clip0_51_185">
<rect width="385" height="54" fill="white"/>
</clipPath>
</defs>
</svg>
