<svg width="756" height="91" viewBox="0 0 756 91" fill="none" xmlns="http://www.w3.org/2000/svg">
<rect width="756" height="91" rx="11" fill="#5B5340"/>
<path d="M718.766 10C718.477 11.3827 718.338 12.8218 718.366 14.2998C718.568 24.9588 727.374 33.5994 738.035 33.5996C738.359 33.5996 738.681 33.5919 739 33.5762V58.0742C738.441 58.0256 737.875 58 737.304 58C729.227 58 722.403 62.9603 719.657 70H39.4043C36.3916 62.9605 29.3806 58.0001 21.3037 58C19.8212 58 18.3806 58.167 17 58.4834V32.9385C18.6098 33.3689 20.2976 33.5996 22.0352 33.5996C32.6962 33.5996 41.1748 24.9589 40.9727 14.2998C40.9446 12.8217 40.7501 11.3828 40.4092 10H718.766Z" fill="white"/>
<path d="M718.552 16.6387C719.888 26.7402 728.166 34.5682 738.035 34.5684C738.402 34.5684 738.766 34.5565 739.127 34.5352V60.4521C738.526 60.3928 737.918 60.3613 737.304 60.3613C726.884 60.3613 718.551 69.086 718.367 80H40.9443C40.3688 69.0861 31.7228 60.3615 21.3037 60.3613C19.8728 60.3613 18.4811 60.5267 17.1445 60.8389V33.9092C18.7107 34.3382 20.3495 34.5683 22.0352 34.5684C31.9044 34.5684 39.9027 26.7403 40.876 16.6387H718.552Z" fill="#F0E3D8"/>
<circle cx="7.06531" cy="7.06531" r="7.06531" transform="matrix(0.899295 0.437342 -0.414119 0.910223 731.18 8)" fill="#D9D9D9"/>
<path d="M741.491 18.9078C741.388 19.4848 741.212 20.0569 740.96 20.6117C740.793 20.9777 740.598 21.3213 740.381 21.6423L727.854 15.5498C727.954 15.1723 728.085 14.7977 728.252 14.4317C728.504 13.8769 728.819 13.3726 729.183 12.9225L741.491 18.9078Z" fill="#A9A9A9"/>
<circle cx="7.06531" cy="7.06531" r="7.06531" transform="matrix(-0.507564 0.861614 -0.874357 -0.485284 744.527 72.1699)" fill="#D9D9D9"/>
<path d="M732.834 81.5808C732.267 81.432 731.711 81.2114 731.178 80.9156C730.826 80.7205 730.499 80.4989 730.196 80.2571L737.267 68.2543C737.635 68.3849 737.998 68.546 738.349 68.7411C738.882 69.037 739.361 69.3902 739.78 69.7891L732.834 81.5808Z" fill="#A9A9A9"/>
<circle cx="7.06531" cy="7.06531" r="7.06531" transform="matrix(0.899295 0.437342 -0.414119 0.910223 20.3359 8)" fill="#D9D9D9"/>
<path d="M30.6481 18.9074C30.545 19.4844 30.3694 20.0565 30.117 20.6113C29.9505 20.9773 29.7556 21.3208 29.5387 21.6419L17.0109 15.5494C17.1118 15.1719 17.2436 14.7977 17.4101 14.4317C17.6625 13.8769 17.9766 13.3722 18.3408 12.9221L30.6481 18.9074Z" fill="#A9A9A9"/>
<circle cx="7.06531" cy="7.06531" r="7.06531" transform="matrix(-0.507564 0.861614 -0.874357 -0.485284 33.5273 72.1699)" fill="#D9D9D9"/>
<path d="M21.8334 81.5797C21.2664 81.4309 20.7101 81.2103 20.1771 80.9145C19.8256 80.7194 19.4986 80.4978 19.1959 80.256L26.2671 68.2523C26.6353 68.383 26.9979 68.5441 27.3494 68.7392C27.8823 69.035 28.3605 69.3883 28.7802 69.7872L21.8334 81.5797Z" fill="#A9A9A9"/>
</svg>
