<svg width="820" height="140" viewBox="0 0 820 140" fill="none" xmlns="http://www.w3.org/2000/svg">
<g clip-path="url(#clip0_80_2)">
<path d="M808.069 0H11.9312C5.34179 0 0 7.57672 0 16.9231V123.077C0 132.423 5.34179 140 11.9312 140H808.069C814.658 140 820 132.423 820 123.077V16.9231C820 7.57672 814.658 0 808.069 0Z" fill="#5B5340"/>
<path d="M779.614 15.3848C779.301 17.512 779.15 19.726 779.18 21.9998C779.4 38.3983 788.951 51.6915 800.514 51.6918C800.866 51.6918 801.215 51.68 801.561 51.6558V89.3451C800.955 89.2703 800.341 89.2309 799.722 89.2309C790.961 89.2309 783.559 96.8622 780.581 107.692H42.7404C39.4727 96.8625 31.8681 89.2311 23.1075 89.2309C21.4995 89.2309 19.9369 89.4878 18.4395 89.9746V50.6748C20.1855 51.3369 22.0162 51.6918 23.9009 51.6918C35.4644 51.6918 44.6608 38.3985 44.4416 21.9998C44.4111 19.7258 44.2001 17.5122 43.8304 15.3848H779.614Z" fill="white"/>
<path d="M779.382 25.5981C780.831 41.1389 789.809 53.182 800.514 53.1823C800.912 53.1823 801.307 53.164 801.698 53.1312V93.0034C801.047 92.9121 800.387 92.8637 799.721 92.8637C788.419 92.8637 779.381 106.286 779.181 123.077H44.4103C43.7861 106.286 34.4081 92.864 23.107 92.8637C21.555 92.8637 20.0455 93.1182 18.5957 93.5985V52.1681C20.2945 52.8281 22.072 53.1821 23.9004 53.1823C34.6051 53.1823 43.2805 41.1391 44.3362 25.5981H779.382Z" fill="#F0E3D8"/>
<path d="M793.623 36.8491C797.429 39.4746 801.935 37.1733 803.688 31.709C805.441 26.2448 803.776 19.6868 799.97 17.0614C796.164 14.436 791.657 16.7372 789.905 22.2015C788.152 27.6657 789.816 34.2237 793.623 36.8491Z" fill="#D9D9D9"/>
<path d="M804.262 29.089C804.15 29.9767 803.96 30.8569 803.686 31.7104C803.505 32.2735 803.294 32.8021 803.058 33.2959L789.471 23.9229C789.579 23.3421 789.721 22.7658 789.902 22.2027C790.176 21.3492 790.517 20.5733 790.912 19.8809L804.262 29.089Z" fill="#A9A9A9"/>
<path d="M790.266 109.846C788.118 115.019 789.376 121.574 793.077 124.487C796.777 127.4 801.519 125.569 803.667 120.396C805.815 115.224 804.557 108.669 800.856 105.756C797.155 102.843 792.414 104.674 790.266 109.846Z" fill="#D9D9D9"/>
<path d="M794.873 125.509C794.258 125.28 793.655 124.941 793.077 124.486C792.695 124.186 792.34 123.845 792.012 123.473L799.681 105.007C800.081 105.208 800.474 105.456 800.855 105.756C801.433 106.211 801.953 106.754 802.407 107.368L794.873 125.509Z" fill="#A9A9A9"/>
<path d="M22.6012 36.8491C26.4074 39.4746 30.9137 37.1733 32.6664 31.709C34.4192 26.2448 32.7545 19.6868 28.9483 17.0614C25.1422 14.436 20.6358 16.7372 18.8831 22.2015C17.1304 27.6657 18.795 34.2237 22.6012 36.8491Z" fill="#D9D9D9"/>
<path d="M33.2428 29.0885C33.131 29.9762 32.9405 30.8564 32.6668 31.7099C32.4862 32.273 32.2748 32.8014 32.0395 33.2954L18.4512 23.9224C18.5606 23.3416 18.7036 22.7659 18.8842 22.2028C19.1579 21.3493 19.4986 20.5728 19.8937 19.8804L33.2428 29.0885Z" fill="#A9A9A9"/>
<path d="M19.0744 109.846C16.9262 115.019 18.1847 121.574 21.8853 124.487C25.5859 127.4 30.3273 125.569 32.4756 120.396C34.6238 115.224 33.3653 108.669 29.6647 105.756C25.964 102.843 21.2226 104.674 19.0744 109.846Z" fill="#D9D9D9"/>
<path d="M23.6811 125.507C23.0661 125.278 22.4627 124.939 21.8846 124.484C21.5033 124.184 21.1486 123.843 20.8203 123.471L28.4901 105.003C28.8895 105.204 29.2828 105.452 29.6641 105.752C30.2421 106.208 30.7607 106.751 31.216 107.365L23.6811 125.507Z" fill="#A9A9A9"/>
</g>
<defs>
<clipPath id="clip0_80_2">
<rect width="820" height="140" fill="white"/>
</clipPath>
</defs>
</svg>
