<svg width="68" height="67" viewBox="0 0 68 67" fill="none" xmlns="http://www.w3.org/2000/svg">
<g clip-path="url(#clip0_500_2375)">
<path d="M65.1394 18.15H58.4094V13.98V11.98H56.4094H52.2394V2V0H50.2394H36.0694H34.1694H32.1694H17.9994H15.9994V2V11.98H11.8294H9.82938V13.98V18.15H2.85938H0.859375V20.15V40.22V42.22H2.85938H9.82938V58.37V60.37H11.8294H15.9994V64.54V66.54H17.9994H50.2394H52.2394V64.54V60.37H56.4094H58.4094V58.37V42.22H65.1394H67.1394V40.22V20.15V18.15H65.1394Z" fill="white"/>
<path d="M52.4102 48.2002H46.2402V54.3702H52.4102V48.2002Z" fill="#77C914"/>
<path d="M31.19 54.3701H22V60.5401H31.19V54.3701Z" fill="#77C914"/>
<path d="M56.4094 20.15V13.98H50.2394V2H36.0694V8.25H32.1694V2H17.9994V13.98H11.8294V20.15H2.85938V40.22H11.8294V58.37H17.9994V64.54H50.2394V58.37H56.4094V40.22H65.1394V20.15H56.4094ZM61.1394 36.22H52.4094V42.65H46.2394V48.2H52.4094V54.37H46.2394V60.54H37.0494V54.37H46.2394V48.2H21.9994V54.37H31.1894V60.54H21.9994V54.37H15.8294V48.2H21.9994V42.65H15.8294V36.22H6.85938V24.15H15.8294V17.98H21.9994V6H28.1694V12.25H40.0694V6H46.2394V17.98H52.4094V24.15H61.1394V36.22Z" fill="#1D1D1B"/>
<path d="M46.2388 54.3701H37.0488V60.5401H46.2388V54.3701Z" fill="#77C914"/>
<path d="M22.0001 48.2002H15.8301V54.3702H22.0001V48.2002Z" fill="#77C914"/>
<path d="M61.1394 24.15V36.22H52.4094V42.65H46.2394V48.2H21.9994V42.65H15.8294V36.22H6.85938V24.15H15.8294V17.98H21.9994V6H28.1694V12.25H40.0694V6H46.2394V17.98H52.4094V24.15H61.1394Z" fill="#77C914"/>
<path d="M28.17 24.1504H22V30.3204H28.17V24.1504Z" fill="#E72687"/>
<path d="M46.2403 24.1504H40.0703V30.3204H46.2403V24.1504Z" fill="#E72687"/>
</g>
<defs>
<clipPath id="clip0_500_2375">
<rect width="66.28" height="66.54" fill="white" transform="translate(0.859375)"/>
</clipPath>
</defs>
</svg>
