<svg width="94" height="94" viewBox="0 0 94 94" fill="none" xmlns="http://www.w3.org/2000/svg">
<g clip-path="url(#clip0_887_5420)">
<path d="M27.3809 23.9305L43.2917 40.0001L44.257 40.4085L49.7211 40.414L50.6627 40.0422L66.5735 23.9763L66.6117 23.9379L66.9916 22.9928L66.988 17.4726L66.5881 16.502L50.7154 0.447008L49.6339 0.00195313L44.2824 0.00195313L43.2372 0.443345L35.2918 8.47631C34.9555 8.33346 34.601 8.26203 34.2357 8.26203C32.716 8.26203 31.4781 9.50928 31.4781 11.0441C31.4781 12.5789 32.7142 13.8261 34.2357 13.8261C35.7571 13.8261 36.9932 12.5789 36.9932 11.0441C36.9932 10.6741 36.9205 10.3151 36.7787 9.97265L44.4351 2.23272L44.7078 2.11734L49.2231 2.11734L49.5303 2.24554L64.8085 17.6998L64.8885 17.8957L64.8921 22.5807L64.8267 22.7455L49.4885 38.2346L49.3285 38.2987L44.6859 38.2932L44.4914 38.2107L29.1732 22.74L29.0932 22.5404V17.8902L29.1841 17.6576L32.0798 14.7272L30.5911 13.2327L27.3955 16.4653L26.9883 17.4763L26.9919 22.9507L27.3846 23.9287L27.3809 23.9305ZM34.2339 12.2584C33.5722 12.2584 33.0323 11.7144 33.0323 11.0441C33.0323 10.3737 33.5704 9.82979 34.2339 9.82979C34.8973 9.82979 35.4354 10.3737 35.4354 11.0441C35.4354 11.7144 34.8973 12.2584 34.2339 12.2584Z" fill="#F9FDFF"/>
<path d="M40.1107 50.672L40.5033 49.694L40.507 44.2196L40.0998 43.2086L36.9042 39.976L35.4154 41.4705L38.3111 44.4009L38.4038 44.6335V49.2837L38.322 49.4833L23.0038 64.954L22.8093 65.0365L18.1668 65.0419L18.0068 64.9778L2.66858 49.4852L2.60314 49.3203L2.60678 44.6354L2.68676 44.4394L17.965 28.9852L18.2722 28.8588H22.7875L23.0602 28.9723L30.7165 36.7123C30.5748 37.0529 30.5021 37.4119 30.5021 37.7837C30.5021 39.3167 31.7381 40.5658 33.2596 40.5658C34.781 40.5658 36.0171 39.3185 36.0171 37.7837C36.0171 36.2489 34.781 35.0017 33.2596 35.0017C32.8942 35.0017 32.5398 35.0731 32.2035 35.2159L24.2581 27.183L23.2129 26.7397H17.8614L16.7798 27.1866L0.941715 43.2031L0.903542 43.2416L0.503636 44.2123L0.5 49.7324L0.879911 50.6775L16.7889 66.7434L16.8289 66.7837L17.7705 67.1555L23.2347 67.15L24.1999 66.7416L39.9617 50.824L40.1125 50.672H40.1107ZM34.4575 37.7855C34.4575 38.454 33.9194 38.9998 33.256 38.9998C32.5925 38.9998 32.0544 38.4559 32.0544 37.7855C32.0544 37.1152 32.5925 36.5712 33.256 36.5712C33.9194 36.5712 34.4575 37.1152 34.4575 37.7855Z" fill="#F9FDFF"/>
<path d="M93.0634 43.1632L85.1071 35.1375C85.2488 34.7969 85.3197 34.4397 85.3197 34.0698C85.3197 32.5368 84.0837 31.2877 82.5622 31.2877C81.0407 31.2877 79.8047 32.535 79.8047 34.0698C79.8047 35.6046 81.0407 36.8518 82.5622 36.8518C82.9294 36.8518 83.2838 36.7786 83.6219 36.6357L91.2856 44.3665L91.4001 44.643V49.2053L91.2729 49.5167L75.971 64.9452L75.7783 65.0258L71.1412 65.0295L70.9795 64.9636L55.6412 49.4745L55.5776 49.3097L55.5831 44.6192L55.6649 44.4214L70.9831 28.9526L71.1776 28.872H75.7801L76.0074 28.9636L78.9085 31.8885L80.3936 30.3921L77.1925 27.165L76.1891 26.7529L70.765 26.7566L69.7943 27.154L53.8817 43.2236L53.4781 44.1962L53.4727 49.7108L53.8398 50.6595L69.7488 66.7273L69.787 66.7658L70.725 67.1504L76.1946 67.1467L77.158 66.7419L93.0543 50.7145L93.4942 49.6247V44.2218L93.0579 43.1687L93.0634 43.1632ZM82.564 35.2841C81.9023 35.2841 81.3625 34.7401 81.3625 34.0698C81.3625 33.3994 81.9005 32.8555 82.564 32.8555C83.2275 32.8555 83.7655 33.3994 83.7655 34.0698C83.7655 34.7401 83.2275 35.2841 82.564 35.2841Z" fill="#F9FDFF"/>
<path d="M66.688 70.0713L50.8154 54.042L50.7754 54.0017L49.8047 53.6042L44.3805 53.6006L43.3771 54.0127L40.1761 57.2398L41.6612 58.7361L44.5623 55.8112L44.7895 55.7178H49.3921L49.5866 55.8002L64.9048 71.2709L64.9866 71.4687L64.9921 76.1592L64.9284 76.324L49.5902 91.813L49.4284 91.879L44.7913 91.8753L44.5987 91.7947L29.2968 76.3662L29.1714 76.0548V71.4925L29.2841 71.216L36.9459 63.4852C37.284 63.6281 37.6385 63.7013 38.0057 63.7013C39.5253 63.7013 40.7632 62.4541 40.7632 60.9193C40.7632 59.3845 39.5271 58.1372 38.0057 58.1372C36.4842 58.1372 35.2481 59.3845 35.2481 60.9193C35.2481 61.2892 35.319 61.6464 35.4608 61.987L27.5045 70.0145L27.0664 71.0676V76.4705L27.5081 77.5621L43.3662 93.5511L43.4044 93.5896L44.3678 93.9944L49.8374 93.998L50.7736 93.6134L66.6826 77.5475L66.7226 77.5072L67.0897 76.5585L67.0843 71.0438L66.6807 70.0713H66.688ZM38.0129 59.7068C38.6746 59.7068 39.2145 60.2508 39.2145 60.9211C39.2145 61.5914 38.6764 62.1354 38.0129 62.1354C37.3494 62.1354 36.8114 61.5914 36.8114 60.9211C36.8114 60.2508 37.3494 59.7068 38.0129 59.7068Z" fill="#F9FDFF"/>
<path d="M50.613 9.67773C49.0934 9.67773 47.8555 10.925 47.8555 12.4598C47.8555 13.9946 49.0915 15.2418 50.613 15.2418C50.9784 15.2418 51.3328 15.1704 51.6709 15.0276L55.341 18.7345C55.1992 19.0752 55.1265 19.4341 55.1265 19.8041C55.1265 21.3371 56.3626 22.5862 57.884 22.5862C59.4055 22.5862 60.6416 21.3389 60.6416 19.8041C60.6416 18.2693 59.4055 17.0221 57.884 17.0221C57.5187 17.0221 57.1642 17.0935 56.8261 17.2363L53.156 13.5294C53.2978 13.1887 53.3705 12.8297 53.3705 12.4598C53.3705 10.9268 52.1345 9.67773 50.613 9.67773ZM59.0837 19.8004C59.0837 20.4689 58.5457 21.0147 57.8822 21.0147C57.2187 21.0147 56.6807 20.4708 56.6807 19.8004C56.6807 19.1301 57.2187 18.5862 57.8822 18.5862C58.5457 18.5862 59.0837 19.1301 59.0837 19.8004ZM50.613 13.6722C49.9513 13.6722 49.4115 13.1283 49.4115 12.458C49.4115 11.7876 49.9495 11.2437 50.613 11.2437C51.2765 11.2437 51.8145 11.7876 51.8145 12.458C51.8145 13.1283 51.2765 13.6722 50.613 13.6722Z" fill="#F9FDFF"/>
<path d="M15.6716 52.2163C14.152 52.2163 12.9141 53.4636 12.9141 54.9984C12.9141 56.5332 14.1501 57.7804 15.6716 57.7804C15.9897 57.7804 16.3005 57.7255 16.6005 57.6174L19.2289 60.2658L21.8974 57.5771C22.2301 57.7145 22.5791 57.7859 22.9372 57.7859C24.4568 57.7859 25.6947 56.5387 25.6947 55.0039C25.6947 53.4691 24.4586 52.2218 22.9372 52.2218C21.4157 52.2218 20.1796 53.4691 20.1796 55.0039C20.1796 55.3811 20.2542 55.7456 20.4014 56.0899L19.2289 57.2713L18.1583 56.1925C18.3346 55.8189 18.4273 55.4104 18.4273 54.9984C18.4273 53.4654 17.1912 52.2163 15.6698 52.2163H15.6716ZM14.4701 54.9984C14.4701 54.3299 15.0081 53.7841 15.6716 53.7841C16.3351 53.7841 16.8731 54.328 16.8731 54.9984C16.8731 55.6687 16.3351 56.2126 15.6716 56.2126C15.0081 56.2126 14.4701 55.6687 14.4701 54.9984ZM22.9353 53.7896C23.597 53.7896 24.1369 54.3335 24.1369 55.0039C24.1369 55.6742 23.5988 56.2181 22.9353 56.2181C22.2719 56.2181 21.7338 55.6742 21.7338 55.0039C21.7338 54.3335 22.2719 53.7896 22.9353 53.7896Z" fill="#F9FDFF"/>
<path d="M38.5544 75.5859C37.0348 75.5859 35.7969 76.8332 35.7969 78.368C35.7969 79.9028 37.033 81.15 38.5544 81.15C38.9198 81.15 39.2742 81.0786 39.6123 80.9358L43.2824 84.6427C43.1406 84.9834 43.0679 85.3423 43.0679 85.7123C43.0679 87.2453 44.304 88.4944 45.8254 88.4944C47.3469 88.4944 48.583 87.2471 48.583 85.7123C48.583 84.1775 47.3469 82.9303 45.8254 82.9303C45.4601 82.9303 45.1056 83.0017 44.7675 83.1445L41.0974 79.4376C41.2392 79.0969 41.3119 78.738 41.3119 78.368C41.3119 76.835 40.0759 75.5859 38.5544 75.5859ZM45.8236 84.4962C46.4853 84.4962 47.0251 85.0401 47.0251 85.7105C47.0251 86.3808 46.4871 86.9248 45.8236 86.9248C45.1601 86.9248 44.6221 86.3808 44.6221 85.7105C44.6221 85.0401 45.1601 84.4962 45.8236 84.4962ZM37.3529 78.368C37.3529 77.6995 37.8909 77.1537 38.5544 77.1537C39.2179 77.1537 39.7559 77.6977 39.7559 78.368C39.7559 79.0383 39.2179 79.5823 38.5544 79.5823C37.8909 79.5823 37.3529 79.0383 37.3529 78.368Z" fill="#F9FDFF"/>
<path d="M66.0755 45.9489C67.597 45.9489 68.8367 44.7034 68.8367 43.1705C68.8367 41.6375 67.5988 40.3921 66.0755 40.3921C64.5522 40.3921 63.3144 41.6375 63.3144 43.1705C63.3144 43.491 63.3689 43.8042 63.4761 44.1064L60.8477 46.7547L63.5161 49.4434C63.3798 49.7785 63.3089 50.1302 63.3089 50.491C63.3089 52.0221 64.5468 53.2694 66.0701 53.2694C67.5933 53.2694 68.8312 52.024 68.8312 50.491C68.8312 48.958 67.5933 47.7126 66.0701 47.7126C65.6956 47.7126 65.3339 47.7877 64.9921 47.936L63.8197 46.7547L64.8903 45.676C65.2612 45.8536 65.6665 45.947 66.0755 45.947V45.9489ZM67.2807 43.1705C67.2807 43.8371 66.7408 44.3811 66.0755 44.3811C65.4102 44.3811 64.8703 43.839 64.8703 43.1705C64.8703 42.502 65.4102 41.9599 66.0755 41.9599C66.7408 41.9599 67.2807 42.502 67.2807 43.1705ZM66.0701 49.2804C66.7336 49.2804 67.2752 49.8225 67.2752 50.491C67.2752 51.1595 66.7354 51.7016 66.0701 51.7016C65.4048 51.7016 64.8649 51.1595 64.8649 50.491C64.8649 49.8225 65.4048 49.2804 66.0701 49.2804Z" fill="#F9FDFF"/>
</g>
<defs>
<clipPath id="clip0_887_5420">
<rect width="93" height="94" fill="white" transform="translate(0.5)"/>
</clipPath>
</defs>
</svg>
