<svg width="374" height="130" viewBox="0 0 374 130" fill="none" xmlns="http://www.w3.org/2000/svg">
<path d="M265.299 86.6559C268.781 88.4351 271.703 91.1444 273.74 94.4836C275.776 97.8953 276.823 101.807 276.763 105.78C276.763 108.741 276.335 111.287 275.479 113.419C274.623 115.552 273.422 117.174 271.874 118.287C270.284 119.411 268.376 119.994 266.43 119.952C264.91 120.003 263.408 119.618 262.099 118.842C260.898 118.071 259.992 116.916 259.529 115.565C257.711 118.49 254.838 119.952 250.91 119.952C248.833 119.973 246.792 119.413 245.015 118.337C243.227 117.259 241.77 115.709 240.805 113.857C239.795 111.801 239.269 109.541 239.269 107.25C239.269 104.959 239.795 102.698 240.805 100.643C241.756 98.7788 243.2 97.2121 244.979 96.1132C246.763 95.0318 248.814 94.4722 250.899 94.4978C254.218 94.4978 256.805 95.6079 258.661 97.8281V94.8536H265.513V111.192C265.513 113.346 266.32 114.422 267.934 114.419C269.107 114.419 270.022 113.714 270.679 112.302C271.336 110.891 271.663 108.756 271.66 105.898C271.66 102.499 270.879 99.498 269.317 96.8959C267.742 94.2758 265.452 92.1592 262.718 90.7939C259.874 89.3304 256.606 88.5986 252.915 88.5986C249.225 88.5986 245.957 89.3802 243.113 90.9433C240.347 92.4378 238.059 94.6838 236.514 97.4225C234.922 100.29 234.114 103.526 234.17 106.805C234.109 110.12 234.907 113.395 236.489 116.309C238.003 119.053 240.266 121.31 243.013 122.816C245.82 124.377 249.053 125.159 252.713 125.161C256.149 125.204 259.549 124.444 262.64 122.941L264.254 127.566C262.554 128.399 260.749 128.997 258.889 129.345C256.856 129.762 254.787 129.972 252.713 129.975C247.941 129.975 243.725 128.975 240.066 126.976C236.494 125.075 233.535 122.199 231.532 118.682C229.49 115.052 228.446 110.945 228.506 106.78C228.458 102.648 229.521 98.5787 231.586 94.9995C233.618 91.5045 236.596 88.6553 240.176 86.7804C243.871 84.795 248.121 83.8035 252.926 83.8059C257.563 83.8083 261.687 84.7583 265.299 86.6559ZM257.008 112.327C258.193 111.098 258.786 109.392 258.786 107.207C258.786 105.022 258.193 103.342 257.008 102.165C256.421 101.561 255.714 101.086 254.933 100.771C254.151 100.456 253.313 100.308 252.471 100.337C250.589 100.337 249.078 100.951 247.938 102.18C246.797 103.408 246.226 105.081 246.224 107.196C246.224 109.348 246.795 111.046 247.938 112.292C249.08 113.537 250.591 114.158 252.471 114.156C253.313 114.187 254.152 114.04 254.934 113.725C255.716 113.41 256.422 112.933 257.008 112.327Z" fill="white"/>
<path d="M284.641 116.821C282.375 114.591 281.242 111.431 281.242 107.339V92.0784H289.025V107.097C289.025 111.502 290.768 113.704 294.252 113.704C297.736 113.704 299.467 111.502 299.443 107.097V92.0784H307.105V107.339C307.105 111.431 305.972 114.591 303.706 116.821C301.44 119.051 298.263 120.164 294.174 120.162C290.085 120.162 286.907 119.048 284.641 116.821Z" fill="white"/>
<path d="M331.436 93.3167C333.184 94.064 334.674 95.3087 335.721 96.896C336.769 98.4833 337.327 100.344 337.327 102.246C337.327 104.148 336.769 106.008 335.721 107.595C334.674 109.182 333.184 110.427 331.436 111.174C329.388 112.05 327.178 112.479 324.951 112.434H320.158V119.632H312.375V92.0785H324.951C327.176 92.0267 329.387 92.4487 331.436 93.3167ZM328.098 105.236C328.908 104.542 329.314 103.55 329.314 102.265C329.314 100.981 328.908 99.9844 328.098 99.2764C327.287 98.5683 326.078 98.209 324.482 98.209H320.158V106.279H324.482C326.079 106.279 327.285 105.931 328.098 105.236Z" fill="white"/>
<path d="M347.3 118.333C345.063 117.168 343.192 115.406 341.896 113.242C340.607 110.99 339.93 108.441 339.93 105.846C339.93 103.252 340.607 100.702 341.896 98.4509C343.193 96.2863 345.064 94.523 347.3 93.3558C349.698 92.1127 352.366 91.4843 355.066 91.5269C357.4 91.4921 359.716 91.9479 361.864 92.8648C363.831 93.7183 365.559 95.0428 366.895 96.7217L361.96 101.205C360.18 99.0557 358.018 97.98 355.474 97.9777C354.082 97.9537 352.707 98.2934 351.485 98.9632C350.332 99.6055 349.39 100.568 348.772 101.735C348.139 103.013 347.809 104.42 347.809 105.846C347.809 107.273 348.139 108.68 348.772 109.958C349.39 111.124 350.332 112.087 351.485 112.729C352.707 113.398 354.082 113.736 355.474 113.711C358.015 113.711 360.177 112.637 361.96 110.488L366.913 114.971C365.573 116.656 363.839 117.984 361.864 118.838C359.716 119.754 357.4 120.209 355.066 120.173C352.365 120.214 349.696 119.582 347.3 118.333Z" fill="white"/>
<path d="M57.49 38.8858C57.49 34.9648 58.4381 32.0105 60.3344 30.0227C62.2307 28.035 64.7931 27.0411 68.0216 27.0411C70.904 27.0411 73.1084 27.8986 74.6349 29.6135C76.1615 31.3285 76.9235 33.9294 76.9212 37.4163V60.6183H89.6572V35.4558C89.6572 29.03 87.9837 24.1828 84.6368 20.9141C81.2898 17.6455 76.8998 16.0112 71.4669 16.0112C68.7938 15.985 66.1379 16.4419 63.6269 17.3597C61.3254 18.1955 59.2318 19.5197 57.49 21.2415V0H44.7539V60.6183H57.49V38.8858Z" fill="white"/>
<path d="M102.924 38.3166C99.8428 40.6578 98.302 43.8707 98.302 47.9553C98.2676 50.387 98.9516 52.7747 100.268 54.8188C101.671 56.9115 103.646 58.5556 105.957 59.5545C108.437 60.7002 111.363 61.2719 114.736 61.2695C121.264 61.2695 125.726 59.2272 128.123 55.1426V60.6184H140.041V35.5378C140.041 29.0029 138.218 24.1141 134.572 20.8716C130.927 17.629 125.698 16.0089 118.885 16.0113C115.395 16.0056 111.921 16.4736 108.556 17.4025C105.482 18.1999 102.568 19.5241 99.9447 21.3163L104.514 30.2114C106.24 28.8827 108.189 27.873 110.27 27.2298C112.497 26.5007 114.825 26.1284 117.168 26.1268C120.543 26.1268 123.075 26.8763 124.763 28.3755C126.45 29.8746 127.293 32.0094 127.291 34.7799H117.168C110.747 34.7942 105.999 35.9731 102.924 38.3166ZM127.291 42.2305V46.7207C126.662 48.586 125.388 50.1656 123.699 51.1754C121.943 52.2016 119.938 52.7248 117.904 52.6875C115.671 52.6875 113.916 52.2131 112.638 51.2643C112.023 50.8256 111.526 50.2417 111.191 49.5645C110.856 48.8873 110.694 48.1377 110.718 47.3825C110.718 43.9525 113.331 42.2376 118.558 42.2376L127.291 42.2305Z" fill="white"/>
<path d="M160.641 58.3697C164.367 60.3052 168.571 61.2718 173.252 61.2695C177.877 61.2695 181.919 60.2898 185.377 58.3305C188.715 56.4952 191.366 53.6228 192.929 50.147L183.048 44.7531C180.815 48.7855 177.523 50.8017 173.171 50.8017C169.852 50.8017 167.104 49.713 164.925 47.5354C162.747 45.3579 161.659 42.3929 161.661 38.6403C161.661 34.8831 162.749 31.918 164.925 29.7453C167.101 27.5725 169.845 26.4802 173.156 26.4683C177.454 26.4683 180.746 28.4845 183.034 32.517L192.915 27.2084C191.392 23.6784 188.734 20.7591 185.363 18.9146C181.914 16.979 177.877 16.0112 173.252 16.0112C168.571 16.0112 164.367 16.9778 160.641 18.911C157.038 20.7294 154.013 23.5164 151.905 26.9593C149.807 30.3893 148.759 34.2829 148.762 38.6403C148.764 42.9978 149.812 46.8926 151.905 50.3249C154.013 53.7674 157.038 56.5533 160.641 58.3697Z" fill="white"/>
<path d="M212.685 49.4247L218.808 43.3796L232.685 60.6183H248.117L228.195 35.2922L246.485 16.6658H231.299L212.685 34.3137V0H199.949V60.6183H212.685V49.4247Z" fill="white"/>
<path d="M260.603 58.3697C264.415 60.3053 268.8 61.2719 273.759 61.2695C281.704 61.2695 287.749 58.8975 291.892 54.1534L285.136 46.799C283.724 48.1983 282.043 49.2962 280.194 50.0261C278.248 50.7391 276.186 51.0853 274.114 51.0473C270.796 51.0473 268.02 50.2586 265.787 48.6812C263.592 47.1588 262.071 44.8461 261.542 42.2269H294.768C294.932 40.0921 295.014 38.9476 295.014 38.7934C295.014 34.2201 294.021 30.2043 292.034 26.7459C290.12 23.3573 287.271 20.5918 283.828 18.7794C280.158 16.9321 276.104 15.98 271.997 16.0011C267.889 16.0221 263.845 17.0156 260.194 18.9004C256.68 20.7638 253.751 23.5674 251.735 26.9985C249.676 30.5283 248.617 34.5534 248.674 38.6404C248.674 43.0002 249.709 46.895 251.778 50.325C253.89 53.7961 256.953 56.5881 260.603 58.3697ZM264.93 28.1086C266.888 26.4743 269.311 25.6583 272.198 25.6607C275.028 25.6607 277.422 26.4909 279.38 28.1513C281.338 29.8117 282.536 32.0308 282.975 34.8084H261.335C261.772 31.9715 262.97 29.7382 264.93 28.1086Z" fill="white"/>
<path d="M316.201 39.8679C316.201 35.7832 317.234 32.7198 319.301 30.6775C321.368 28.6351 324.226 27.614 327.874 27.614C328.365 27.614 329.314 27.6674 330.718 27.7777V16.0112C327.352 16.0112 324.373 16.5556 321.78 17.6444C319.318 18.6428 317.187 20.3133 315.628 22.4655V16.6659H303.465V60.6183H316.201V39.8679Z" fill="white"/>
<path d="M353.854 53.335C358.645 53.3299 363.252 55.177 366.715 58.4906C368.594 57.5573 370.245 56.221 371.55 54.5768C373.167 52.5004 374.031 49.9361 374 47.3042C374 44.0901 373.156 41.5852 371.468 39.7896C369.853 38.0367 367.796 36.7511 365.513 36.0679C362.615 35.2527 359.67 34.6123 356.695 34.1501C353.483 33.6591 351.142 33.1408 349.673 32.5952C348.203 32.0497 347.468 31.1009 347.468 29.7488C347.468 28.5486 348.15 27.5677 349.513 26.8063C350.876 26.0449 352.917 25.6642 355.635 25.6642C360.065 25.6282 364.427 26.7544 368.286 28.9305L372.531 19.861C370.519 18.675 367.976 17.7357 364.901 17.0431C361.858 16.3627 358.75 16.0168 355.632 16.0112C351.439 16.0112 347.805 16.6042 344.73 17.7902C341.656 18.9763 339.317 20.6568 337.712 22.832C336.105 24.9649 335.253 27.5724 335.29 30.2434C335.29 33.5642 336.149 36.1248 337.865 37.9252C339.527 39.69 341.624 40.9858 343.945 41.6825C346.861 42.5142 349.831 43.142 352.834 43.5611C355.882 43.943 358.141 44.4056 359.611 44.9487C361.08 45.4919 361.815 46.3909 361.815 47.6457C361.815 50.3143 359.12 51.6485 353.73 51.6485C350.962 51.636 348.209 51.2372 345.552 50.4637C343.045 49.7931 340.65 48.7611 338.441 47.4002L334.195 56.5515C336.063 57.7236 338.081 58.6379 340.194 59.2698C341.939 57.3917 344.053 55.895 346.404 54.8736C348.755 53.8523 351.291 53.3285 353.854 53.335Z" fill="white"/>
<path d="M353.849 57.537C350.541 57.5397 347.327 58.6414 344.713 60.6693C342.098 62.6971 340.23 65.5363 339.403 68.7413H38.8464L38.8038 68.6986L27.7815 57.6687C29.6247 54.5399 30.2643 50.8459 29.5805 47.279C28.8967 43.712 26.9364 40.5171 24.0671 38.293C21.1977 36.069 17.6162 34.9684 13.994 35.1978C10.3718 35.4271 6.95751 36.9705 4.3911 39.5387C1.82469 42.1068 0.282358 45.5235 0.0532064 49.1482C-0.175945 52.773 0.923813 56.3569 3.14634 59.2283C5.36887 62.0996 8.56159 64.0613 12.126 64.7456C15.6905 65.4298 19.382 64.7897 22.5086 62.9453L34.6615 75.1102C34.7536 75.2035 34.8509 75.2914 34.9531 75.3735C35.0064 75.4126 35.0562 75.4553 35.1095 75.4909L35.2731 75.6012C35.8798 75.9859 36.5815 76.1941 37.2998 76.2025H339.406C340.102 78.9109 341.543 81.3695 343.566 83.2987C345.589 85.228 348.113 86.5505 350.85 87.1159C353.586 87.6813 356.427 87.4669 359.048 86.4971C361.669 85.5272 363.966 83.8409 365.677 81.6298C367.387 79.4187 368.444 76.7715 368.726 73.9893C369.008 71.2072 368.504 68.4016 367.272 65.8916C366.04 63.3817 364.129 61.2681 361.756 59.7912C359.383 58.3143 356.643 57.5333 353.849 57.537ZM20.5068 50.3925C20.4311 51.7671 19.8519 53.0655 18.8798 54.0396C17.9077 55.0137 16.6109 55.5951 15.2374 55.6726H14.9245C13.8172 55.6733 12.7346 55.3453 11.8136 54.73C10.8926 54.1148 10.1748 53.2399 9.75086 52.2163C9.32694 51.1926 9.21602 50.0661 9.43214 48.9793C9.64826 47.8925 10.1817 46.8943 10.9649 46.111C11.7482 45.3277 12.746 44.7945 13.8322 44.5789C14.9184 44.3634 16.0441 44.4751 17.0668 44.8999C18.0895 45.3248 18.9632 46.0437 19.5775 46.9657C20.1917 47.8877 20.5189 48.9713 20.5175 50.0794C20.5175 50.1861 20.5139 50.2893 20.5068 50.3925ZM353.856 78.0634C352.749 78.0641 351.667 77.7362 350.746 77.1213C349.825 76.5063 349.107 75.6319 348.683 74.6086C348.259 73.5854 348.147 72.4592 348.363 71.3726C348.579 70.286 349.111 69.2878 349.894 68.5042C350.676 67.7206 351.674 67.1869 352.759 66.9705C353.845 66.7542 354.97 66.8649 355.993 67.2886C357.016 67.7124 357.89 68.4302 358.505 69.3513C359.121 70.2723 359.449 71.3552 359.449 72.463C359.453 73.1993 359.311 73.9292 359.032 74.6104C358.752 75.2915 358.341 75.9104 357.82 76.4313C357.3 76.9521 356.682 77.3645 356.001 77.6447C355.321 77.9248 354.592 78.0671 353.856 78.0634Z" fill="white"/>
</svg>
