<svg width="126" height="126" viewBox="0 0 126 126" fill="none" xmlns="http://www.w3.org/2000/svg">
<g clip-path="url(#clip0_1118_5076)">
<path d="M43.3809 39.9305L59.2917 56.0001L60.257 56.4085L65.7211 56.414L66.6627 56.0422L82.5735 39.9763L82.6117 39.9379L82.9916 38.9928L82.988 33.4726L82.5881 32.502L66.7154 16.447L65.6339 16.002H60.2824L59.2372 16.4433L51.2918 24.4763C50.9555 24.3335 50.601 24.262 50.2357 24.262C48.716 24.262 47.4781 25.5093 47.4781 27.0441C47.4781 28.5789 48.7142 29.8261 50.2357 29.8261C51.7571 29.8261 52.9932 28.5789 52.9932 27.0441C52.9932 26.6741 52.9205 26.3151 52.7787 25.9726L60.4351 18.2327L60.7078 18.1173H65.2231L65.5303 18.2455L80.8085 33.6998L80.8885 33.8957L80.8921 38.5807L80.8267 38.7455L65.4885 54.2346L65.3285 54.2987L60.6859 54.2932L60.4914 54.2107L45.1732 38.74L45.0932 38.5404V33.8902L45.1841 33.6576L48.0798 30.7272L46.5911 29.2327L43.3955 32.4653L42.9883 33.4763L42.9919 38.9507L43.3846 39.9287L43.3809 39.9305ZM50.2339 28.2584C49.5722 28.2584 49.0323 27.7144 49.0323 27.0441C49.0323 26.3737 49.5704 25.8298 50.2339 25.8298C50.8973 25.8298 51.4354 26.3737 51.4354 27.0441C51.4354 27.7144 50.8973 28.2584 50.2339 28.2584Z" fill="#E23532"/>
<path d="M56.1107 66.672L56.5033 65.694L56.507 60.2196L56.0998 59.2086L52.9042 55.976L51.4154 57.4705L54.3111 60.4009L54.4038 60.6335V65.2837L54.322 65.4833L39.0038 80.954L38.8093 81.0365L34.1668 81.0419L34.0068 80.9778L18.6686 65.4852L18.6031 65.3203L18.6068 60.6354L18.6868 60.4394L33.965 44.9852L34.2722 44.8588H38.7875L39.0602 44.9723L46.7165 52.7123C46.5748 53.0529 46.5021 53.4119 46.5021 53.7837C46.5021 55.3167 47.7381 56.5658 49.2596 56.5658C50.781 56.5658 52.0171 55.3185 52.0171 53.7837C52.0171 52.2489 50.781 51.0017 49.2596 51.0017C48.8942 51.0017 48.5398 51.0731 48.2035 51.2159L40.2581 43.183L39.2129 42.7397H33.8614L32.7798 43.1866L16.9417 59.2031L16.9035 59.2416L16.5036 60.2123L16.5 65.7324L16.8799 66.6775L32.7889 82.7434L32.8289 82.7837L33.7705 83.1555L39.2347 83.15L40.1999 82.7416L55.9617 66.824L56.1125 66.672H56.1107ZM50.4575 53.7855C50.4575 54.454 49.9194 54.9998 49.256 54.9998C48.5925 54.9998 48.0544 54.4559 48.0544 53.7855C48.0544 53.1152 48.5925 52.5712 49.256 52.5712C49.9194 52.5712 50.4575 53.1152 50.4575 53.7855Z" fill="#E23532"/>
<path d="M109.063 59.1632L101.107 51.1375C101.249 50.7969 101.32 50.4397 101.32 50.0698C101.32 48.5368 100.084 47.2877 98.5622 47.2877C97.0407 47.2877 95.8047 48.535 95.8047 50.0698C95.8047 51.6046 97.0407 52.8518 98.5622 52.8518C98.9294 52.8518 99.2838 52.7786 99.6219 52.6357L107.286 60.3665L107.4 60.643V65.2053L107.273 65.5167L91.971 80.9452L91.7783 81.0258L87.1412 81.0295L86.9795 80.9636L71.6412 65.4745L71.5776 65.3097L71.5831 60.6192L71.6649 60.4214L86.9831 44.9526L87.1776 44.872H91.7801L92.0074 44.9636L94.9085 47.8885L96.3936 46.3921L93.1925 43.165L92.1891 42.7529L86.765 42.7566L85.7943 43.154L69.8817 59.2236L69.4781 60.1962L69.4727 65.7108L69.8398 66.6595L85.7488 82.7273L85.787 82.7658L86.725 83.1504L92.1946 83.1467L93.158 82.7419L109.054 66.7145L109.494 65.6247V60.2218L109.058 59.1687L109.063 59.1632ZM98.564 51.2841C97.9023 51.2841 97.3625 50.7401 97.3625 50.0698C97.3625 49.3994 97.9005 48.8555 98.564 48.8555C99.2275 48.8555 99.7655 49.3994 99.7655 50.0698C99.7655 50.7401 99.2275 51.2841 98.564 51.2841Z" fill="#E23532"/>
<path d="M82.688 86.0713L66.8154 70.042L66.7754 70.0017L65.8047 69.6042L60.3805 69.6006L59.3771 70.0127L56.1761 73.2398L57.6612 74.7361L60.5623 71.8112L60.7895 71.7178H65.3921L65.5866 71.8002L80.9048 87.2709L80.9866 87.4687L80.9921 92.1592L80.9284 92.324L65.5902 107.813L65.4284 107.879L60.7913 107.875L60.5987 107.795L45.2968 92.3662L45.1714 92.0548V87.4925L45.2841 87.216L52.9459 79.4852C53.284 79.6281 53.6385 79.7013 54.0057 79.7013C55.5253 79.7013 56.7632 78.4541 56.7632 76.9193C56.7632 75.3845 55.5271 74.1372 54.0057 74.1372C52.4842 74.1372 51.2481 75.3845 51.2481 76.9193C51.2481 77.2892 51.319 77.6464 51.4608 77.987L43.5045 86.0145L43.0664 87.0676V92.4705L43.5081 93.5621L59.3662 109.551L59.4044 109.59L60.3678 109.994L65.8374 109.998L66.7736 109.613L82.6826 93.5475L82.7226 93.5072L83.0897 92.5585L83.0843 87.0438L82.6807 86.0713H82.688ZM54.0129 75.7068C54.6746 75.7068 55.2145 76.2508 55.2145 76.9211C55.2145 77.5914 54.6764 78.1354 54.0129 78.1354C53.3494 78.1354 52.8114 77.5914 52.8114 76.9211C52.8114 76.2508 53.3494 75.7068 54.0129 75.7068Z" fill="#E23532"/>
<path d="M66.613 25.6777C65.0934 25.6777 63.8555 26.925 63.8555 28.4598C63.8555 29.9946 65.0915 31.2418 66.613 31.2418C66.9784 31.2418 67.3328 31.1704 67.6709 31.0276L71.341 34.7345C71.1992 35.0752 71.1265 35.4341 71.1265 35.8041C71.1265 37.3371 72.3626 38.5862 73.884 38.5862C75.4055 38.5862 76.6416 37.3389 76.6416 35.8041C76.6416 34.2693 75.4055 33.0221 73.884 33.0221C73.5187 33.0221 73.1642 33.0935 72.8261 33.2363L69.156 29.5294C69.2978 29.1887 69.3705 28.8297 69.3705 28.4598C69.3705 26.9268 68.1345 25.6777 66.613 25.6777ZM75.0837 35.8004C75.0837 36.4689 74.5457 37.0147 73.8822 37.0147C73.2187 37.0147 72.6807 36.4708 72.6807 35.8004C72.6807 35.1301 73.2187 34.5862 73.8822 34.5862C74.5457 34.5862 75.0837 35.1301 75.0837 35.8004ZM66.613 29.6722C65.9513 29.6722 65.4115 29.1283 65.4115 28.458C65.4115 27.7876 65.9495 27.2437 66.613 27.2437C67.2765 27.2437 67.8145 27.7876 67.8145 28.458C67.8145 29.1283 67.2765 29.6722 66.613 29.6722Z" fill="#E23532"/>
<path d="M31.6716 68.2163C30.152 68.2163 28.9141 69.4636 28.9141 70.9984C28.9141 72.5332 30.1501 73.7804 31.6716 73.7804C31.9897 73.7804 32.3005 73.7255 32.6005 73.6174L35.2289 76.2658L37.8974 73.5771C38.2301 73.7145 38.5791 73.7859 38.9372 73.7859C40.4568 73.7859 41.6947 72.5387 41.6947 71.0039C41.6947 69.4691 40.4586 68.2218 38.9372 68.2218C37.4157 68.2218 36.1796 69.4691 36.1796 71.0039C36.1796 71.3811 36.2542 71.7456 36.4014 72.0899L35.2289 73.2713L34.1583 72.1925C34.3346 71.8189 34.4273 71.4104 34.4273 70.9984C34.4273 69.4654 33.1912 68.2163 31.6698 68.2163H31.6716ZM30.4701 70.9984C30.4701 70.3299 31.0081 69.7841 31.6716 69.7841C32.3351 69.7841 32.8731 70.328 32.8731 70.9984C32.8731 71.6687 32.3351 72.2126 31.6716 72.2126C31.0081 72.2126 30.4701 71.6687 30.4701 70.9984ZM38.9353 69.7896C39.597 69.7896 40.1369 70.3335 40.1369 71.0039C40.1369 71.6742 39.5988 72.2181 38.9353 72.2181C38.2719 72.2181 37.7338 71.6742 37.7338 71.0039C37.7338 70.3335 38.2719 69.7896 38.9353 69.7896Z" fill="#E23532"/>
<path d="M54.5544 91.5859C53.0348 91.5859 51.7969 92.8332 51.7969 94.368C51.7969 95.9028 53.033 97.15 54.5544 97.15C54.9198 97.15 55.2742 97.0786 55.6123 96.9358L59.2824 100.643C59.1406 100.983 59.0679 101.342 59.0679 101.712C59.0679 103.245 60.304 104.494 61.8254 104.494C63.3469 104.494 64.583 103.247 64.583 101.712C64.583 100.178 63.3469 98.9303 61.8254 98.9303C61.4601 98.9303 61.1056 99.0017 60.7675 99.1445L57.0974 95.4376C57.2392 95.0969 57.3119 94.738 57.3119 94.368C57.3119 92.835 56.0759 91.5859 54.5544 91.5859ZM61.8236 100.496C62.4853 100.496 63.0251 101.04 63.0251 101.71C63.0251 102.381 62.4871 102.925 61.8236 102.925C61.1601 102.925 60.6221 102.381 60.6221 101.71C60.6221 101.04 61.1601 100.496 61.8236 100.496ZM53.3529 94.368C53.3529 93.6995 53.8909 93.1537 54.5544 93.1537C55.2179 93.1537 55.7559 93.6977 55.7559 94.368C55.7559 95.0383 55.2179 95.5823 54.5544 95.5823C53.8909 95.5823 53.3529 95.0383 53.3529 94.368Z" fill="#E23532"/>
<path d="M82.0755 61.9489C83.597 61.9489 84.8367 60.7034 84.8367 59.1705C84.8367 57.6375 83.5988 56.3921 82.0755 56.3921C80.5522 56.3921 79.3144 57.6375 79.3144 59.1705C79.3144 59.491 79.3689 59.8042 79.4761 60.1064L76.8477 62.7547L79.5161 65.4434C79.3798 65.7785 79.3089 66.1302 79.3089 66.491C79.3089 68.0221 80.5468 69.2694 82.0701 69.2694C83.5933 69.2694 84.8312 68.024 84.8312 66.491C84.8312 64.958 83.5933 63.7126 82.0701 63.7126C81.6956 63.7126 81.3339 63.7877 80.9921 63.936L79.8197 62.7547L80.8903 61.676C81.2612 61.8536 81.6665 61.947 82.0755 61.947V61.9489ZM83.2807 59.1705C83.2807 59.8371 82.7408 60.3811 82.0755 60.3811C81.4102 60.3811 80.8703 59.839 80.8703 59.1705C80.8703 58.502 81.4102 57.9599 82.0755 57.9599C82.7408 57.9599 83.2807 58.502 83.2807 59.1705ZM82.0701 65.2804C82.7336 65.2804 83.2752 65.8225 83.2752 66.491C83.2752 67.1595 82.7354 67.7016 82.0701 67.7016C81.4048 67.7016 80.8649 67.1595 80.8649 66.491C80.8649 65.8225 81.4048 65.2804 82.0701 65.2804Z" fill="#E23532"/>
</g>
<defs>
<clipPath id="clip0_1118_5076">
<rect width="93" height="94" fill="white" transform="translate(16.5 16)"/>
</clipPath>
</defs>
</svg>
