<svg width="132" height="146" viewBox="0 0 132 146" fill="none" xmlns="http://www.w3.org/2000/svg">
<path d="M61.9421 4.47966C64.8212 3.51996 72.7547 1.85649 81.456 2.88016C92.3325 4.15976 97.7708 7.35864 102.569 15.3561C107.368 23.3536 101.505 26.6067 111.207 30.0715C120.164 33.2705 122.708 21.2614 123.363 19.5148C124.322 16.9556 130.081 13.7566 132 20.1546V54.7037C130.294 63.1277 122.723 78.4402 106.088 72.2982C89.4534 66.1561 69.7263 47.5593 61.9421 39.0287V4.47966Z" fill="#C32314"/>
<path d="M69.7891 36.1425C69.1797 35.8082 68.5763 35.4918 67.9252 35.2231C68.5525 35.4918 69.1857 35.7843 69.7891 36.1425Z" fill="black"/>
<path d="M86.3429 1.06251C86.4983 0.949075 86.6596 0.835644 86.8388 0.746094C86.6596 0.835644 86.5042 0.949075 86.3429 1.06251Z" fill="black"/>
<path d="M94.9462 5.46252C94.9462 6.22669 94.7908 6.94309 94.4981 7.61771C94.7908 6.96697 94.9462 6.22669 94.9462 5.46252C94.9462 2.45362 92.5207 0.0297852 89.5097 0.0297852C92.5207 0.0297852 94.9462 2.4775 94.9462 5.46252Z" fill="black"/>
<path d="M104.379 56.0942C104.582 56.2076 104.762 56.3211 104.965 56.4524C104.785 56.339 104.582 56.2076 104.379 56.0942Z" fill="black"/>
<path d="M84.9034 11.8144C85.5307 11.1876 86.14 10.6264 86.7016 10.1309C86.14 10.6264 85.5366 11.2055 84.9034 11.8144Z" fill="black"/>
<path d="M83.0396 13.8564C82.7707 14.1729 82.5258 14.5072 82.251 14.8415C82.5198 14.5072 82.7648 14.1669 83.0396 13.8564Z" fill="black"/>
<path d="M61.8619 145.549C62.7401 145.549 63.5884 145.484 64.4427 145.346C63.5884 145.46 62.7162 145.549 61.8619 145.549Z" fill="black"/>
<path d="M112.307 69.8076C112.307 67.7002 111.883 65.6345 111.094 63.7241C111.883 65.6345 112.307 67.6942 112.307 69.8076Z" fill="black"/>
<path d="M34.8707 13.6953C35.3666 13.8088 35.9281 13.9401 36.4897 14.1013C35.9281 13.9461 35.3666 13.8088 34.8707 13.6953Z" fill="black"/>
<path d="M49.1305 38.9007L53.9336 36.1426C54.089 36.053 54.2264 35.9635 54.3817 35.8978C54.2264 35.9874 54.0651 36.053 53.9336 36.1426L49.1305 38.9007C48.9273 34.1008 48.545 26.9189 47.9834 24.3816C47.9177 24.0891 47.846 23.8204 47.7564 23.5518C47.846 23.8204 47.9117 24.0891 47.9834 24.3816C48.545 26.9189 48.9273 34.1008 49.1305 38.9007Z" fill="black"/>
<path d="M44.7692 33.4018C44.7214 32.6137 44.6796 31.8555 44.6139 31.1152C44.6796 31.8555 44.7274 32.6197 44.7692 33.4018Z" fill="#131718"/>
<path d="M74.2398 21.9578C74.3055 21.6652 74.3951 21.3966 74.4668 21.1279C74.4011 21.3966 74.3294 21.6652 74.2398 21.9578C73.5229 24.7637 73.1645 33.3128 73.0032 37.9814C73.1585 33.3128 73.5408 24.7637 74.2398 21.9578Z" fill="#131718"/>
<path d="M84.0731 5.46265C84.0731 5.32534 84.0731 5.194 84.097 5.08057C84.0731 5.21788 84.0731 5.34922 84.0731 5.46265C84.0731 5.93428 84.1388 6.40592 84.2523 6.85367C84.1388 6.4298 84.0731 5.95816 84.0731 5.46265Z" fill="#131718"/>
<path d="M12.0733 114.266C12.1868 114.624 12.3003 114.982 12.4318 115.323C12.2943 114.965 12.1868 114.624 12.0733 114.266Z" fill="#131718"/>
<path d="M11.8942 113.592C11.8464 113.437 11.8046 113.258 11.7807 113.079C11.7807 113.031 11.7568 113.013 11.7568 112.965C11.6672 112.559 11.6014 112.159 11.5537 111.754C11.5537 111.706 11.5537 111.664 11.5298 111.616C11.5298 111.664 11.5298 111.706 11.5537 111.754C11.6014 112.159 11.6672 112.559 11.7568 112.965C11.7568 113.013 11.7807 113.031 11.7807 113.079C11.8046 113.258 11.8464 113.413 11.8942 113.592C11.8942 113.64 11.9181 113.658 11.9181 113.706C11.9659 113.885 12.0077 114.088 12.0734 114.267C12.0256 114.088 11.9599 113.885 11.9181 113.706C11.9181 113.658 11.8942 113.616 11.8942 113.592Z" fill="#131718"/>
<path d="M33.7469 17.623C33.3645 18.0947 32.9165 18.5186 32.4206 18.8588C32.9344 18.5245 33.3884 18.0947 33.7469 17.623C37.0924 18.3395 42.9112 20.2737 44.0104 25.2528C44.0582 25.4557 44.1 25.6766 44.1478 25.9692C44.1 25.7005 44.0582 25.4557 44.0104 25.2528C42.9351 20.2678 37.0924 18.3395 33.7469 17.623Z" fill="#131718"/>
<path d="M11.4638 110.965C11.4399 110.828 11.4399 110.673 11.4399 110.542C11.4399 110.679 11.4399 110.834 11.4638 110.965C11.4638 111.031 11.4638 111.103 11.4877 111.168C11.5116 111.324 11.5116 111.485 11.5355 111.64C11.5116 111.485 11.4877 111.324 11.4877 111.168C11.4638 111.103 11.4638 111.031 11.4638 110.965Z" fill="#131718"/>
<path d="M11.4216 100.308V86.4816V69.8072C11.4216 69.3117 11.4455 68.8222 11.4873 68.3267C11.4396 68.8222 11.4216 69.3117 11.4216 69.8072V86.4816V109.753C11.4216 109.956 11.4216 110.159 11.4455 110.362C11.4455 110.159 11.4216 109.956 11.4216 109.753V100.302V100.308Z" fill="#131718"/>
<path d="M89.5099 10.913C89.3546 10.913 89.1933 10.913 89.0379 10.8892C89.1933 10.8892 89.3546 10.913 89.5099 10.913Z" fill="#131718"/>
<path d="M84.9032 11.814C84.4313 12.2856 83.9593 12.7811 83.5113 13.3184C83.9832 12.7811 84.4313 12.2856 84.9032 11.814Z" fill="#131718"/>
<path d="M77.0238 39.2173C77.0238 39.4621 76.9999 39.7128 76.9999 39.9576C77.0238 39.7307 77.0238 39.4859 77.0238 39.2173Z" fill="#131718"/>
<path d="M85.8476 1.44454C86.0029 1.30723 86.1642 1.17589 86.3434 1.03857C86.1642 1.17589 86.0089 1.30723 85.8476 1.44454Z" fill="#131718"/>
<path d="M76.9339 15.468C77.3401 14.7516 77.7882 14.077 78.2363 13.4263C77.7882 14.077 77.3401 14.7755 76.9339 15.468Z" fill="#131718"/>
<path d="M84.724 2.87778C84.8614 2.65092 84.9929 2.43003 85.1482 2.22705C84.9929 2.43003 84.8555 2.65092 84.724 2.87778Z" fill="#131718"/>
<path d="M78.0754 23.5283C78.0097 23.9761 77.9201 24.5134 77.8484 25.1223C77.9141 24.5134 77.9858 23.9582 78.0754 23.5283Z" fill="#131718"/>
<path d="M77.8543 25.1216C77.8304 25.3664 77.8065 25.6171 77.7647 25.8857C77.7886 25.6171 77.8125 25.3723 77.8543 25.1216Z" fill="#131718"/>
<path d="M67.3634 40.2917L66.7361 39.9335C63.7252 38.1843 59.9973 38.1843 56.9864 39.9335L56.3591 40.2917C59.7524 38.3156 63.9522 38.3156 67.3634 40.2917Z" fill="#131718"/>
<path d="M111.094 63.7481C110.957 63.4317 110.825 63.1212 110.67 62.8048C110.222 61.8854 109.684 61.0078 109.051 60.2019C108.334 59.2586 107.48 58.381 106.56 57.599C106.422 57.4855 106.291 57.3721 106.154 57.2825C105.95 57.1273 105.747 56.99 105.568 56.8587C105.389 56.7273 105.186 56.6139 105.007 56.4766C104.827 56.3393 104.624 56.2318 104.421 56.1184L77.0238 40.3157V39.9814C77.0238 39.7545 77.0477 39.5097 77.0477 39.2411C77.0477 38.9963 77.0716 38.7277 77.0716 38.453C77.0716 38.1784 77.0955 37.8918 77.0955 37.5993C77.0955 37.462 77.0955 37.3068 77.1194 37.1516C77.1433 36.7934 77.1433 36.4352 77.1672 36.0531V35.9396C77.1911 35.5576 77.1911 35.1755 77.215 34.7934C77.215 34.5486 77.2389 34.2979 77.2628 34.0292C77.2867 33.6472 77.3105 33.2412 77.3285 32.8651V32.7278C77.3763 31.8979 77.4181 31.0681 77.4659 30.2383C77.5137 29.5875 77.5555 28.9368 77.6033 28.3099C77.6272 28.107 77.6272 27.904 77.6511 27.701C77.675 27.3428 77.7168 27.0025 77.7407 26.6682C77.7646 26.3756 77.7885 26.107 77.8064 25.8622C77.8303 25.5936 77.8542 25.3488 77.896 25.0981C77.9617 24.4712 78.0334 23.9339 78.123 23.5041C78.1708 23.2772 78.2126 23.0981 78.2365 22.919C78.2843 22.7399 78.3261 22.5608 78.3739 22.3817C78.4636 22.0235 78.5771 21.6832 78.7085 21.3489C78.7742 21.1698 78.822 21.0145 78.8877 20.8354C79.0669 20.3399 79.294 19.8504 79.515 19.3549C79.6703 19.0385 79.8316 18.728 79.987 18.4116C80.1423 18.0952 80.3215 17.8027 80.5007 17.4922C80.8592 16.8833 81.2176 16.3281 81.6 15.7669C81.7553 15.54 81.9166 15.343 82.0719 15.14C82.1615 15.0266 82.2511 14.9132 82.3169 14.8057C82.5618 14.4714 82.8306 14.155 83.1054 13.8206C83.2608 13.6415 83.4221 13.4624 83.5774 13.2833C84.0494 12.746 84.5213 12.2505 84.9694 11.7789C85.5966 11.152 86.206 10.5909 86.7676 10.0953C86.8811 10.161 86.9707 10.2088 87.0842 10.2744C87.2873 10.3879 87.5084 10.4774 87.7354 10.567C88.0281 10.6804 88.3208 10.7461 88.6136 10.7938C88.7689 10.8177 88.9302 10.8416 89.0855 10.8595C89.2409 10.8834 89.4022 10.8834 89.5575 10.8834C90.119 10.8834 90.6567 10.7938 91.1765 10.6386C91.3557 10.5909 91.511 10.5252 91.6723 10.4595C91.9173 10.3461 92.1443 10.2327 92.3713 10.1013C92.5983 9.96997 92.7955 9.80878 92.9986 9.65356C93.1539 9.51625 93.2913 9.40878 93.4227 9.24759C93.5601 9.11028 93.6916 8.95506 93.8051 8.79984C93.8708 8.73417 93.9186 8.64462 93.9843 8.55507C94.1396 8.32821 94.277 8.10732 94.3905 7.85657C94.4383 7.76702 94.4802 7.67747 94.528 7.58792C94.8207 6.93719 94.976 6.1969 94.976 5.43274C94.976 2.42384 92.5505 0 89.5396 0H89.1572C88.8406 0.0238802 88.506 0.0656706 88.2133 0.155221C87.7891 0.268652 87.3829 0.423873 87.0245 0.602974C86.9767 0.626854 86.9109 0.668645 86.8691 0.692525C86.6899 0.782076 86.5346 0.895506 86.3733 1.00894C86.1941 1.12237 86.0387 1.25371 85.8774 1.4149C85.8117 1.48057 85.74 1.52833 85.6982 1.594C85.6325 1.65967 85.5847 1.73131 85.519 1.7731C85.4055 1.91041 85.292 2.04175 85.1844 2.17906C85.0291 2.38205 84.8917 2.60294 84.7603 2.8298C84.6468 3.03278 84.5572 3.21188 84.4914 3.43874C84.4257 3.59396 84.3779 3.75516 84.3361 3.91038C84.2883 4.02381 84.2704 4.15515 84.2465 4.26858C84.1987 4.51335 84.1569 4.76409 84.133 5.03274C84.133 5.17006 84.1091 5.3014 84.1091 5.41483C84.1091 5.88646 84.1748 6.35809 84.2883 6.80585C83.9538 7.09838 83.6132 7.39091 83.2548 7.72523C82.8963 8.04165 82.5558 8.39985 82.1974 8.73417L81.815 9.11625C81.588 9.34311 81.367 9.58789 81.1161 9.83266C80.9787 9.96997 80.8711 10.1252 80.7337 10.2565C80.5963 10.4118 80.4649 10.5729 80.3096 10.7282C79.6106 11.5341 78.8937 12.4356 78.2425 13.3789C77.7944 14.0296 77.3464 14.7042 76.9402 15.4206C76.5339 16.137 76.1337 16.8594 75.7752 17.6176C75.5482 18.1131 75.3271 18.6265 75.124 19.1638C74.9866 19.522 74.8552 19.8802 74.7417 20.2384C74.6521 20.5071 74.5625 20.7757 74.4967 21.0683C74.4071 21.3369 74.3414 21.6295 74.2697 21.8981C73.5528 24.704 73.1944 33.2531 73.0331 37.9217L69.819 36.059C69.2096 35.7247 68.6063 35.4083 67.9551 35.1397C67.7998 35.074 67.6385 35.0024 67.4831 34.9606C67.1665 34.8471 66.832 34.7337 66.4974 34.6262C66.3421 34.5785 66.1628 34.5367 66.0015 34.4889C65.5057 34.3516 64.9919 34.2442 64.4722 34.1546C63.9524 34.0651 63.4386 34.0173 62.9249 33.9755C62.5903 33.9516 62.2259 33.9277 61.8914 33.9277C59.4659 33.9277 57.0643 34.4889 54.8837 35.5635C54.7284 35.6292 54.5671 35.7188 54.4118 35.8083C54.2564 35.8979 54.0951 35.9635 53.9637 36.0531L49.1605 38.8112C48.9574 34.0113 48.575 26.8294 48.0135 24.2921C47.9478 23.9996 47.8761 23.7309 47.7865 23.4623C47.6969 23.1936 47.6072 22.925 47.5176 22.6742C47.3145 22.1608 47.0935 21.6653 46.8426 21.2175C46.6633 20.9011 46.4841 20.6086 46.3049 20.322C45.9464 19.8086 45.5641 19.3131 45.1399 18.8832C44.8711 18.5907 44.6023 18.3221 44.3095 18.0773C44.1721 17.94 44.0168 17.8325 43.8615 17.6952C43.4791 17.3788 43.0729 17.0683 42.6487 16.7997C42.3799 16.6206 42.0872 16.4415 41.7944 16.2624C41.657 16.1728 41.5017 16.1072 41.3703 16.0176C40.9461 15.7728 40.4921 15.5699 40.0679 15.3669C39.6437 15.1639 39.1897 14.9848 38.7655 14.8057C38.3414 14.6266 37.9112 14.4893 37.4871 14.3579C37.3497 14.3102 37.2183 14.2684 37.0808 14.2206C36.8777 14.155 36.6985 14.1072 36.4954 14.0415C35.9338 13.8863 35.3722 13.749 34.8764 13.6356C34.5837 10.9192 32.2717 8.7879 29.4638 8.7879C29.0815 8.7879 28.6992 8.83566 28.3407 8.90133C28.2272 8.92521 28.0958 8.94909 27.9823 8.99088C27.8688 9.03267 27.7552 9.05655 27.6238 9.10431C27.3968 9.19386 27.1758 9.28341 26.9487 9.39684C26.8352 9.4446 26.7456 9.51028 26.6321 9.57595C26.4768 9.6655 26.3394 9.75505 26.208 9.86848C26.0048 10.0237 25.8017 10.2028 25.6225 10.3819C25.5568 10.4476 25.509 10.5192 25.4433 10.561C25.3298 10.6983 25.2163 10.8297 25.1087 10.967C24.9534 11.1699 24.816 11.3908 24.6846 11.6177C24.6188 11.7311 24.5471 11.8625 24.5053 11.9759C24.4575 12.0893 24.3918 12.2028 24.35 12.3341C24.123 12.9192 24.0155 13.546 24.0155 14.1968C24.0155 14.7579 24.1051 15.2952 24.2604 15.8146C24.3739 16.149 24.5053 16.4893 24.6666 16.7818C24.804 17.0086 24.9355 17.2295 25.0908 17.4325C25.2939 17.7012 25.5389 17.9698 25.7898 18.1967C26.0407 18.4235 26.3274 18.6444 26.6202 18.8235C26.8472 18.9608 27.0682 19.0683 27.3191 19.1817C27.4745 19.2474 27.6537 19.3191 27.815 19.3608C28.3288 19.5161 28.8724 19.6056 29.434 19.6056C29.8581 19.6056 30.2883 19.5579 30.6945 19.4504C30.8976 19.4026 31.1008 19.337 31.28 19.2713C31.4831 19.2056 31.6623 19.1161 31.8415 19.0265C32.0208 18.937 32.2 18.8235 32.3792 18.7101C32.893 18.3758 33.347 17.9698 33.7055 17.4743C37.051 18.1907 42.8698 20.125 43.969 25.104C44.0168 25.307 44.0586 25.5279 44.1064 25.8204C44.1303 25.91 44.1303 25.9995 44.1542 26.113C44.202 26.495 44.2677 26.9428 44.3095 27.4383C44.3573 27.8204 44.3991 28.2443 44.423 28.698C44.4469 28.8353 44.4469 28.9905 44.4708 29.1219C44.5186 29.5696 44.5365 30.0174 44.5843 30.489C44.6082 30.6442 44.6082 30.8054 44.6321 30.9606C44.6799 31.7009 44.7217 32.4651 44.7875 33.2472C44.8114 33.6292 44.8353 34.0352 44.8532 34.4113C44.9906 36.7695 45.0802 39.1456 45.1698 41.0321L19.3437 55.9333C18.7343 56.2915 18.1548 56.6736 17.5933 57.0975C17.3244 57.3005 17.0556 57.5213 16.7868 57.7482C16.6494 57.8616 16.5418 57.9751 16.4044 58.1064C16.1595 58.3333 15.9086 58.578 15.6875 58.8228C15.574 58.9601 15.4426 59.0915 15.3291 59.2288C15.2156 59.3661 15.1021 59.4974 14.9945 59.6347C14.8392 59.8138 14.7018 59.9929 14.5704 60.1959C14.1462 60.7571 13.7639 61.3422 13.4233 61.9451C13.2441 62.2616 13.0888 62.5541 12.9514 62.8645C12.8857 63.0018 12.814 63.1571 12.7483 63.2884C12.6109 63.5809 12.5033 63.8735 12.3898 64.166C12.121 64.9063 11.894 65.6466 11.7386 66.4346C11.7147 66.5003 11.7147 66.5719 11.6908 66.6376C11.6012 67.1092 11.5355 67.5809 11.4877 68.0525C11.4877 68.1003 11.4877 68.1421 11.4638 68.1898C11.416 68.6853 11.3981 69.1749 11.3981 69.6704V86.3447V109.616C11.3981 109.819 11.3981 110.022 11.422 110.225V110.404C11.422 110.541 11.4459 110.697 11.4459 110.828C11.4459 110.894 11.4459 110.965 11.4698 111.031C11.4937 111.186 11.4937 111.347 11.5176 111.502C11.5176 111.55 11.5176 111.592 11.5415 111.64C11.5893 112.046 11.655 112.446 11.7446 112.852C11.7446 112.899 11.7685 112.917 11.7685 112.965C11.8163 113.144 11.8342 113.299 11.882 113.479C11.882 113.526 11.9059 113.544 11.9059 113.592C11.9537 113.771 11.9955 113.974 12.0612 114.153V114.177C12.1748 114.535 12.2883 114.893 12.4197 115.234C12.5571 115.592 12.6885 115.932 12.8439 116.267C13.2262 117.12 13.6982 117.926 14.2358 118.69C14.3493 118.846 14.4628 119.007 14.5704 119.138C14.7974 119.431 15.0184 119.723 15.2693 120.016C15.7652 120.577 16.279 121.114 16.8644 121.61C17.2468 121.944 17.6291 122.26 18.0533 122.553C18.4774 122.846 18.8837 123.114 19.3317 123.383L53.9398 143.359C54.8359 143.872 55.7798 144.302 56.7715 144.636C57.1061 144.75 57.4227 144.839 57.7573 144.929C58.4323 145.108 59.1074 145.245 59.7765 145.335C60.1111 145.382 60.4755 145.424 60.81 145.448C61.1446 145.472 61.509 145.496 61.8436 145.496C62.7218 145.496 63.5701 145.43 64.4244 145.293C64.9382 145.203 65.434 145.09 65.9538 144.959C66.2883 144.869 66.6288 144.779 66.9395 144.666C67.274 144.553 67.5907 144.439 67.9073 144.308C68.3792 144.105 68.8512 143.884 69.3232 143.633C69.4785 143.544 69.6398 143.478 69.7712 143.388L104.379 123.413C105.168 122.965 105.909 122.446 106.602 121.866C107.05 121.484 107.498 121.078 107.904 120.655C109.541 118.929 110.778 116.864 111.518 114.619C111.787 113.765 111.99 112.911 112.128 112.016V111.968C112.193 111.496 112.241 111.025 112.265 110.553V110.374C112.265 110.147 112.289 109.926 112.289 109.676V69.7241C112.379 67.7062 111.954 65.6406 111.166 63.7541L111.094 63.7481ZM16.2073 69.8077V69.0674C16.2073 65.5869 18.0712 62.3571 21.0822 60.6258L21.7094 60.2676L56.3175 40.2918L56.9448 39.9336C59.9557 38.1844 63.6836 38.1844 66.6945 39.9336L67.3218 40.2918L94.8565 56.1841L101.93 60.2676C105.341 62.2436 107.456 65.8794 107.456 69.8256V82.7507L68.6899 105.126C64.7828 107.395 59.9557 107.395 56.0248 105.126L16.3626 82.2373C16.3148 82.2134 16.273 82.1716 16.2252 82.1478V69.8017H16.2013L16.2073 69.8077ZM16.2073 93.8908L35.432 104.977L52.5478 114.852C55.5349 116.577 58.9282 117.478 62.3633 117.478C65.7984 117.478 69.1917 116.583 72.1788 114.852L107.504 94.4759V106.01L68.6959 128.41C64.7888 130.678 59.9617 130.678 56.0307 128.41L16.3387 105.515C16.2909 105.491 16.2491 105.449 16.2013 105.425V93.8908H16.2073Z" fill="black"/>
<path d="M21.7272 60.2671L21.0999 60.6253C18.089 62.3745 16.2251 65.5864 16.2251 69.0669V69.8072C16.2012 65.8789 18.316 62.2193 21.7272 60.2671Z" fill="#131718"/>
<path d="M56.0483 128.493C59.9554 130.762 64.7825 130.762 68.7134 128.493L107.521 106.093V94.5592L72.1725 114.935C69.1854 116.66 65.7921 117.562 62.357 117.562C58.9219 117.562 55.5286 116.666 52.5415 114.935L35.4257 105.06L16.2009 93.9741V105.508C16.2487 105.532 16.2906 105.574 16.3383 105.598L56.0423 128.493H56.0483Z" fill="#F2ED6E"/>
<path d="M56.0483 105.222C59.9554 107.491 64.7825 107.491 68.7134 105.222L107.521 82.8223V69.8972C107.521 65.945 105.412 62.3093 101.995 60.3392L94.9219 56.2557L67.3872 40.3634C63.976 38.3873 59.7762 38.3873 56.359 40.3634L21.7509 60.3392C18.3397 62.3153 16.2249 65.951 16.2249 69.8972V82.2432C16.2726 82.2671 16.3145 82.3089 16.3623 82.3328L56.0483 105.228V105.222ZM84.503 77.103C84.503 78.697 82.3942 79.9746 79.7895 79.9746C77.1847 79.9746 75.0759 78.697 75.0759 77.103C75.0759 75.509 77.1847 74.2315 79.7895 74.2315C82.3942 74.2315 84.503 75.509 84.503 77.103ZM72.979 53.9393C76.1691 53.9393 78.7261 57.5273 78.7261 61.975C78.7261 66.4226 76.1452 70.0106 72.979 70.0106C69.8127 70.0106 67.2319 66.4226 67.2319 61.975C67.2319 57.5273 69.8127 53.9393 72.979 53.9393ZM50.7254 53.9393C53.9156 53.9393 56.4725 57.5273 56.4725 61.975C56.4725 66.4226 53.8917 70.0106 50.7254 70.0106C47.5591 70.0106 44.9783 66.4226 44.9783 61.975C44.9783 57.5273 47.5591 53.9393 50.7254 53.9393ZM43.9388 74.2255C46.5435 74.2255 48.6524 75.5031 48.6524 77.0971C48.6524 78.6911 46.5435 79.9687 43.9388 79.9687C41.3341 79.9687 39.2252 78.6911 39.2252 77.0971C39.2252 75.5031 41.3341 74.2255 43.9388 74.2255Z" fill="#F2ED6E"/>
<path d="M72.9793 69.9864C76.1695 69.9864 78.7264 66.3984 78.7264 61.9507C78.7264 57.503 76.1456 53.915 72.9793 53.915C69.813 53.915 67.2322 57.503 67.2322 61.9507C67.2322 66.3984 69.813 69.9864 72.9793 69.9864Z" fill="#131718"/>
<path d="M75.0703 77.103C75.0703 78.697 77.1792 79.9746 79.7839 79.9746C82.3886 79.9746 84.4975 78.697 84.4975 77.103C84.4975 75.509 82.3886 74.2314 79.7839 74.2314C77.1792 74.2314 75.0703 75.509 75.0703 77.103Z" fill="#EE2467"/>
<path d="M50.7254 69.9864C53.9156 69.9864 56.4725 66.3984 56.4725 61.9507C56.4725 57.503 53.8917 53.915 50.7254 53.915C47.5592 53.915 44.9783 57.503 44.9783 61.9507C44.9783 66.3984 47.5592 69.9864 50.7254 69.9864Z" fill="#131718"/>
<path d="M43.9389 79.9746C46.5436 79.9746 48.6524 78.697 48.6524 77.103C48.6524 75.509 46.5436 74.2314 43.9389 74.2314C41.3341 74.2314 39.2253 75.509 39.2253 77.103C39.2253 78.697 41.3341 79.9746 43.9389 79.9746Z" fill="#EE2467"/>
<path d="M61.2771 22.2808C79.2219 22.2807 93.7256 30.5831 103.215 41.2759C112.61 51.8634 117.411 65.1963 115.254 75.5161L114.253 80.3013L110.959 76.6899C88.6329 52.2089 68.6107 47.2765 52.3552 50.4663C35.8581 53.7036 22.5361 65.4306 14.071 75.6411L10.8152 79.5669L9.70578 74.5894C4.45295 51.0198 24.9627 22.2811 61.2771 22.2808Z" fill="#B4D2D2" stroke="black" stroke-width="5"/>
<path d="M61.9422 24.7808C95.6181 25.1844 116.418 56.2067 112.869 74.6812H112.512C94.1187 54.6339 76.9748 47.3223 61.9422 47.0991V24.7808Z" fill="#9EB8B8"/>
<path d="M109.884 75.5815H14C9.02944 75.5815 5 79.611 5 84.5815V96.3189C5 99.9934 7.23372 103.299 10.643 104.669L59.0376 124.125C61.2089 124.998 63.6347 124.99 65.8008 124.105L113.29 104.688C116.673 103.305 118.884 100.013 118.884 96.3574V84.5815C118.884 79.611 114.855 75.5815 109.884 75.5815Z" fill="#3C4D5F"/>
<path d="M14 80.5815H109.884C112.093 80.5815 113.884 82.3724 113.884 84.5815V96.3569C113.884 97.9814 112.901 99.4453 111.397 100.06L63.9082 119.477C62.9456 119.871 61.8672 119.874 60.9023 119.486L12.5078 100.03C10.9928 99.4206 10 97.9518 10 96.3188V84.5815C10 82.3724 11.7909 80.5815 14 80.5815Z" stroke="#8AA1A1" stroke-width="10"/>
<path d="M109.884 73.0815C116.235 73.0815 121.384 78.2303 121.384 84.5815V96.3569C121.384 101.027 118.559 105.235 114.236 107.002L66.7471 126.418C63.9794 127.55 60.8798 127.559 58.1055 126.444L9.71094 106.989C5.35466 105.237 2.5 101.014 2.5 96.3188V84.5815C2.5 78.2303 7.64873 73.0815 14 73.0815H109.884Z" stroke="black" stroke-width="5"/>
<path d="M73.3127 80.3013C91.447 80.7742 115.906 81.4669 115.684 81.6854C115.36 82.0044 115.672 100.177 115.683 100.537C115.684 100.538 115.684 100.538 115.684 100.539C115.684 100.545 115.684 100.544 115.683 100.537C115.587 100.37 94.1248 108.796 76.8475 115.62C71.0239 117.921 64.6886 113.725 64.5348 107.465L64.0938 89.514C63.9674 84.3701 68.169 80.1672 73.3127 80.3013Z" fill="#233246"/>
<path d="M27.7128 108.851L24.219 79.8942" stroke="#8AA1A1" stroke-width="10"/>
<path d="M45.3071 116.209L41.493 81.8131" stroke="#8AA1A1" stroke-width="10"/>
<path d="M99.9999 109.284L103.174 80.0063" stroke="#778A8A" stroke-width="10"/>
<path d="M82 115.723L85.8128 81.0099" stroke="#778A8A" stroke-width="10"/>
<line y1="-5" x2="36.0338" y2="-5" transform="matrix(0 -1 -1 0 58.103 118.653)" stroke="#8AA1A1" stroke-width="10"/>
<g clip-path="url(#clip0_954_1435)">
<path d="M12.8621 79.2314H64.046H115.23C116.29 79.2314 117.149 80.0908 117.149 81.1508V98.3454C117.149 99.1248 116.678 99.8267 115.957 100.122L65.2356 120.86C64.7737 121.049 64.256 121.051 63.7929 120.865L12.1461 100.102C11.4191 99.8095 10.9428 99.1045 10.9427 98.321V81.1508C10.9427 80.0908 11.8021 79.2314 12.8621 79.2314Z" stroke="#778A8A" stroke-width="10"/>
<line y1="-5" x2="36.0338" y2="-5" transform="matrix(0 -1 -1 0 60.2072 117.185)" stroke="#778A8A" stroke-width="10"/>
</g>
<path d="M62.1265 39.0276H54.363C46.6852 29.1107 44.1249 8.57322 62.0392 4.47852L62.1265 39.0276Z" fill="#F0361E"/>
<path d="M61.9537 39.0276H69.7171C77.3949 29.1107 79.9553 8.57322 62.041 4.47852L61.9537 39.0276Z" fill="#C32314"/>
<defs>
<clipPath id="clip0_954_1435">
<rect width="56.3022" height="49.9043" fill="white" transform="translate(64.6858 75.3926)"/>
</clipPath>
</defs>
</svg>
