<svg width="94" height="94" viewBox="0 0 94 94" fill="none" xmlns="http://www.w3.org/2000/svg">
<g clip-path="url(#clip0_376_1676)">
<path d="M27.3809 70.0695L43.2917 53.9999L44.257 53.5914L49.7211 53.586L50.6627 53.9578L66.5735 70.0237L66.6117 70.0621L66.9916 71.0072L66.988 76.5274L66.5881 77.498L50.7154 93.553L49.6339 93.998H44.2824L43.2372 93.5567L35.2918 85.5237C34.9555 85.6665 34.601 85.738 34.2357 85.738C32.716 85.738 31.4781 84.4907 31.4781 82.9559C31.4781 81.4211 32.7142 80.1739 34.2357 80.1739C35.7571 80.1739 36.9932 81.4211 36.9932 82.9559C36.9932 83.3259 36.9205 83.6849 36.7787 84.0274L44.4351 91.7673L44.7078 91.8827H49.2231L49.5303 91.7545L64.8085 76.3002L64.8885 76.1043L64.8921 71.4193L64.8267 71.2545L49.4885 55.7654L49.3285 55.7013L44.6859 55.7068L44.4914 55.7893L29.1732 71.26L29.0932 71.4596V76.1098L29.1841 76.3424L32.0798 79.2728L30.5911 80.7673L27.3955 77.5347L26.9883 76.5237L26.9919 71.0493L27.3846 70.0713L27.3809 70.0695ZM34.2339 81.7416C33.5722 81.7416 33.0323 82.2856 33.0323 82.9559C33.0323 83.6263 33.5704 84.1702 34.2339 84.1702C34.8973 84.1702 35.4354 83.6263 35.4354 82.9559C35.4354 82.2856 34.8973 81.7416 34.2339 81.7416Z" fill="#E23532"/>
<path d="M40.1107 43.328L40.5033 44.306L40.507 49.7804L40.0998 50.7914L36.9042 54.024L35.4154 52.5295L38.3111 49.5991L38.4038 49.3665V44.7163L38.322 44.5167L23.0038 29.046L22.8093 28.9635L18.1668 28.958L18.0068 29.0222L2.66858 44.5148L2.60314 44.6797L2.60678 49.3646L2.68676 49.5606L17.965 65.0148L18.2722 65.1412H22.7875L23.0602 65.0277L30.7165 57.2877C30.5748 56.9471 30.5021 56.5881 30.5021 56.2163C30.5021 54.6833 31.7381 53.4342 33.2596 53.4342C34.781 53.4342 36.0171 54.6815 36.0171 56.2163C36.0171 57.7511 34.781 58.9983 33.2596 58.9983C32.8942 58.9983 32.5398 58.9269 32.2035 58.7841L24.2581 66.817L23.2129 67.2603H17.8614L16.7798 66.8134L0.941715 50.7969L0.903542 50.7584L0.503636 49.7877L0.5 44.2676L0.879911 43.3225L16.7889 27.2566L16.8289 27.2163L17.7705 26.8445L23.2347 26.85L24.1999 27.2584L39.9617 43.176L40.1125 43.328H40.1107ZM34.4575 56.2145C34.4575 55.546 33.9194 55.0002 33.256 55.0002C32.5925 55.0002 32.0544 55.5441 32.0544 56.2145C32.0544 56.8848 32.5925 57.4288 33.256 57.4288C33.9194 57.4288 34.4575 56.8848 34.4575 56.2145Z" fill="#E23532"/>
<path d="M93.0634 50.8368L85.107 58.8625C85.2488 59.2031 85.3197 59.5603 85.3197 59.9302C85.3197 61.4632 84.0837 62.7123 82.5622 62.7123C81.0407 62.7123 79.8047 61.465 79.8047 59.9302C79.8047 58.3954 81.0407 57.1482 82.5622 57.1482C82.9294 57.1482 83.2838 57.2214 83.6219 57.3643L91.2856 49.6335L91.4001 49.357V44.7947L91.2729 44.4833L75.971 29.0548L75.7783 28.9742L71.1412 28.9705L70.9795 29.0364L55.6412 44.5255L55.5776 44.6903L55.5831 49.3808L55.6649 49.5786L70.9831 65.0474L71.1776 65.128H75.7801L76.0074 65.0364L78.9085 62.1115L80.3936 63.6079L77.1925 66.835L76.1891 67.2471L70.765 67.2434L69.7943 66.846L53.8817 50.7764L53.4781 49.8038L53.4727 44.2892L53.8398 43.3405L69.7488 27.2727L69.787 27.2342L70.725 26.8496L76.1946 26.8533L77.158 27.2581L93.0543 43.2855L93.4942 44.3753V49.7782L93.0579 50.8313L93.0634 50.8368ZM82.564 58.7159C81.9023 58.7159 81.3625 59.2599 81.3625 59.9302C81.3625 60.6006 81.9005 61.1445 82.564 61.1445C83.2275 61.1445 83.7655 60.6006 83.7655 59.9302C83.7655 59.2599 83.2275 58.7159 82.564 58.7159Z" fill="#E23532"/>
<path d="M66.688 23.9287L50.8154 39.958L50.7754 39.9983L49.8047 40.3958L44.3805 40.3994L43.3771 39.9873L40.1761 36.7602L41.6612 35.2639L44.5623 38.1888L44.7895 38.2822H49.3921L49.5866 38.1998L64.9048 22.7291L64.9866 22.5313L64.9921 17.8408L64.9284 17.676L49.5902 2.18697L49.4284 2.12103L44.7913 2.12469L44.5987 2.20528L29.2968 17.6339L29.1714 17.9452V22.5075L29.2841 22.784L36.9459 30.5148C37.284 30.3719 37.6385 30.2987 38.0057 30.2987C39.5253 30.2987 40.7632 31.5459 40.7632 33.0807C40.7632 34.6155 39.5271 35.8628 38.0057 35.8628C36.4842 35.8628 35.2481 34.6155 35.2481 33.0807C35.2481 32.7108 35.319 32.3536 35.4608 32.013L27.5045 23.9855L27.0664 22.9324V17.5295L27.5081 16.4379L43.3662 0.448868L43.4044 0.410408L44.3678 0.00564194L49.8374 0.00198364L50.7736 0.386597L66.6826 16.4525L66.7226 16.4928L67.0897 17.4415L67.0843 22.9562L66.6807 23.9287H66.688ZM38.0129 34.2932C38.6746 34.2932 39.2145 33.7492 39.2145 33.0789C39.2145 32.4086 38.6764 31.8646 38.0129 31.8646C37.3494 31.8646 36.8114 32.4086 36.8114 33.0789C36.8114 33.7492 37.3494 34.2932 38.0129 34.2932Z" fill="#E23532"/>
<path d="M50.613 84.3223C49.0934 84.3223 47.8555 83.075 47.8555 81.5402C47.8555 80.0054 49.0915 78.7582 50.613 78.7582C50.9784 78.7582 51.3328 78.8296 51.6709 78.9724L55.341 75.2655C55.1992 74.9248 55.1265 74.5659 55.1265 74.1959C55.1265 72.6629 56.3626 71.4138 57.884 71.4138C59.4055 71.4138 60.6416 72.6611 60.6416 74.1959C60.6416 75.7307 59.4055 76.9779 57.884 76.9779C57.5187 76.9779 57.1642 76.9065 56.8261 76.7637L53.156 80.4706C53.2978 80.8113 53.3705 81.1703 53.3705 81.5402C53.3705 83.0732 52.1345 84.3223 50.613 84.3223ZM59.0837 74.1996C59.0837 73.5311 58.5457 72.9853 57.8822 72.9853C57.2187 72.9853 56.6807 73.5292 56.6807 74.1996C56.6807 74.8699 57.2187 75.4138 57.8822 75.4138C58.5457 75.4138 59.0837 74.8699 59.0837 74.1996ZM50.613 80.3278C49.9513 80.3278 49.4115 80.8717 49.4115 81.542C49.4115 82.2124 49.9495 82.7563 50.613 82.7563C51.2765 82.7563 51.8145 82.2124 51.8145 81.542C51.8145 80.8717 51.2765 80.3278 50.613 80.3278Z" fill="#E23532"/>
<path d="M15.6716 41.7837C14.152 41.7837 12.9141 40.5364 12.9141 39.0016C12.9141 37.4668 14.1501 36.2196 15.6716 36.2196C15.9897 36.2196 16.3005 36.2745 16.6005 36.3826L19.2289 33.7342L21.8974 36.4229C22.2301 36.2855 22.5791 36.2141 22.9372 36.2141C24.4568 36.2141 25.6947 37.4613 25.6947 38.9961C25.6947 40.5309 24.4586 41.7782 22.9372 41.7782C21.4157 41.7782 20.1796 40.5309 20.1796 38.9961C20.1796 38.6189 20.2542 38.2544 20.4014 37.9101L19.2289 36.7287L18.1583 37.8075C18.3346 38.1811 18.4273 38.5896 18.4273 39.0016C18.4273 40.5346 17.1912 41.7837 15.6698 41.7837H15.6716ZM14.4701 39.0016C14.4701 39.6701 15.0081 40.2159 15.6716 40.2159C16.3351 40.2159 16.8731 39.672 16.8731 39.0016C16.8731 38.3313 16.3351 37.7874 15.6716 37.7874C15.0081 37.7874 14.4701 38.3313 14.4701 39.0016ZM22.9353 40.2104C23.597 40.2104 24.1369 39.6665 24.1369 38.9961C24.1369 38.3258 23.5988 37.7819 22.9353 37.7819C22.2719 37.7819 21.7338 38.3258 21.7338 38.9961C21.7338 39.6665 22.2719 40.2104 22.9353 40.2104Z" fill="#E23532"/>
<path d="M38.5544 18.4141C37.0348 18.4141 35.7969 17.1668 35.7969 15.632C35.7969 14.0972 37.033 12.85 38.5544 12.85C38.9198 12.85 39.2742 12.9214 39.6123 13.0642L43.2824 9.35729C43.1406 9.01663 43.0679 8.65766 43.0679 8.28769C43.0679 6.75473 44.304 5.50564 45.8254 5.50564C47.3469 5.50564 48.583 6.7529 48.583 8.28769C48.583 9.82249 47.3469 11.0697 45.8254 11.0697C45.4601 11.0697 45.1056 10.9983 44.7675 10.8555L41.0974 14.5624C41.2392 14.9031 41.3119 15.262 41.3119 15.632C41.3119 17.165 40.0759 18.4141 38.5544 18.4141ZM45.8236 9.50381C46.4853 9.50381 47.0252 8.95985 47.0252 8.28952C47.0252 7.61919 46.4871 7.07524 45.8236 7.07524C45.1601 7.07524 44.6221 7.61919 44.6221 8.28952C44.6221 8.95985 45.1601 9.50381 45.8236 9.50381ZM37.3529 15.632C37.3529 16.3005 37.8909 16.8463 38.5544 16.8463C39.2179 16.8463 39.7559 16.3023 39.7559 15.632C39.7559 14.9617 39.2179 14.4177 38.5544 14.4177C37.8909 14.4177 37.3529 14.9617 37.3529 15.632Z" fill="#E23532"/>
<path d="M66.0755 48.0511C67.597 48.0511 68.8367 49.2966 68.8367 50.8295C68.8367 52.3625 67.5988 53.6079 66.0755 53.6079C64.5522 53.6079 63.3144 52.3625 63.3144 50.8295C63.3144 50.509 63.3689 50.1958 63.4761 49.8936L60.8477 47.2453L63.5161 44.5566C63.3798 44.2215 63.3089 43.8698 63.3089 43.509C63.3089 41.9779 64.5468 40.7306 66.0701 40.7306C67.5933 40.7306 68.8312 41.976 68.8312 43.509C68.8312 45.042 67.5933 46.2874 66.0701 46.2874C65.6956 46.2874 65.3339 46.2123 64.9921 46.064L63.8197 47.2453L64.8903 48.324C65.2612 48.1464 65.6665 48.053 66.0755 48.053V48.0511ZM67.2807 50.8295C67.2807 50.1629 66.7408 49.6189 66.0755 49.6189C65.4102 49.6189 64.8703 50.161 64.8703 50.8295C64.8703 51.498 65.4102 52.0401 66.0755 52.0401C66.7408 52.0401 67.2807 51.498 67.2807 50.8295ZM66.0701 44.7196C66.7336 44.7196 67.2752 44.1775 67.2752 43.509C67.2752 42.8405 66.7354 42.2984 66.0701 42.2984C65.4048 42.2984 64.8649 42.8405 64.8649 43.509C64.8649 44.1775 65.4048 44.7196 66.0701 44.7196Z" fill="#E23532"/>
</g>
<defs>
<clipPath id="clip0_376_1676">
<rect width="93" height="94" fill="white" transform="matrix(1 0 0 -1 0.5 94)"/>
</clipPath>
</defs>
</svg>
