<svg width="168" height="213" viewBox="0 0 168 213" fill="none" xmlns="http://www.w3.org/2000/svg">
<g filter="url(#filter0_d_1230_9606)">
<path d="M6.7998 2.80078V201.801L83.2998 160.301L160.3 201.801V2.80078H6.7998Z" fill="#A1C8A8"/>
<path d="M61.6498 56.5312L79.3192 74.4813L80.3911 74.9375L86.4592 74.9436L87.5048 74.5283L105.174 56.5823L105.217 56.5394L105.638 55.4837L105.634 49.3176L105.19 48.2333L87.5634 30.2996L86.3623 29.8025H80.4193L79.2586 30.2955L70.435 39.2685C70.0616 39.1089 69.668 39.0291 69.2622 39.0291C67.5746 39.0291 66.1999 40.4223 66.1999 42.1367C66.1999 43.8512 67.5726 45.2444 69.2622 45.2444C70.9518 45.2444 72.3245 43.8512 72.3245 42.1367C72.3245 41.7235 72.2438 41.3225 72.0863 40.9399L80.5889 32.2943L80.8917 32.1654H85.9061L86.2472 32.3086L103.214 49.5713L103.303 49.7902L103.307 55.0234L103.234 55.2075L86.2008 72.5091L86.0231 72.5807L80.8675 72.5746L80.6515 72.4825L63.6402 55.2014L63.5514 54.9784V49.784L63.6523 49.5242L66.8681 46.2509L65.2148 44.5815L61.666 48.1924L61.2138 49.3217L61.2178 55.4367L61.6539 56.5291L61.6498 56.5312ZM69.2602 43.4931C68.5254 43.4931 67.9259 42.8855 67.9259 42.1367C67.9259 41.388 68.5234 40.7804 69.2602 40.7804C69.997 40.7804 70.5945 41.388 70.5945 42.1367C70.5945 42.8855 69.997 43.4931 69.2602 43.4931Z" fill="black"/>
<path d="M75.7884 86.4027L76.2245 85.3102L76.2285 79.1953L75.7763 78.066L72.2275 74.4551L70.5742 76.1245L73.7899 79.3978L73.8929 79.6576V84.852L73.8021 85.075L56.7908 102.356L56.5748 102.448L51.4192 102.454L51.2415 102.383L34.2081 85.077L34.1354 84.8929L34.1394 79.6597L34.2283 79.4408L51.1951 62.1781L51.5362 62.0369H56.5506L56.8534 62.1638L65.356 70.8094C65.1985 71.19 65.1178 71.5909 65.1178 72.0062C65.1178 73.7186 66.4905 75.1139 68.1801 75.1139C69.8697 75.1139 71.2424 73.7206 71.2424 72.0062C71.2424 70.2918 69.8697 68.8986 68.1801 68.8986C67.7743 68.8986 67.3807 68.9784 67.0073 69.138L58.1837 60.165L57.023 59.6699H51.08L49.8789 60.1691L32.2903 78.0598L32.2479 78.1028L31.8038 79.1871L31.7998 85.3532L32.2217 86.4089L49.889 104.355L49.9334 104.4L50.9791 104.815L57.0472 104.809L58.1191 104.353L75.6229 86.5725L75.7904 86.4027H75.7884ZM69.5104 72.0083C69.5104 72.755 68.9129 73.3647 68.1761 73.3647C67.4392 73.3647 66.8417 72.7571 66.8417 72.0083C66.8417 71.2595 67.4392 70.6519 68.1761 70.6519C68.9129 70.6519 69.5104 71.2595 69.5104 72.0083Z" fill="black"/>
<path d="M134.592 78.014L125.756 69.0491C125.914 68.6686 125.993 68.2697 125.993 67.8564C125.993 66.1441 124.62 64.7488 122.93 64.7488C121.241 64.7488 119.868 66.142 119.868 67.8564C119.868 69.5708 121.241 70.964 122.93 70.964C123.338 70.964 123.732 70.8822 124.107 70.7226L132.618 79.3581L132.745 79.667V84.7631L132.604 85.1109L115.611 102.345L115.397 102.435L110.247 102.439L110.067 102.365L93.034 85.0639L92.9633 84.8798L92.9694 79.6404L93.0602 79.4194L110.071 62.1404L110.287 62.0504H115.399L115.651 62.1527L118.873 65.4198L120.522 63.7484L116.967 60.1437L115.853 59.6834L109.829 59.6874L108.751 60.1314L91.0799 78.0815L90.6318 79.1678L90.6257 85.3278L91.0335 86.3875L108.701 104.336L108.743 104.379L109.785 104.808L115.859 104.804L116.929 104.352L134.582 86.4489L135.071 85.2316V79.1964L134.586 78.0201L134.592 78.014ZM122.932 69.2128C122.198 69.2128 121.598 68.6052 121.598 67.8564C121.598 67.1077 122.196 66.5 122.932 66.5C123.669 66.5 124.267 67.1077 124.267 67.8564C124.267 68.6052 123.669 69.2128 122.932 69.2128Z" fill="black"/>
<path d="M105.303 108.072L87.6763 90.1665L87.6319 90.1215L86.5539 89.6776L80.5302 89.6735L79.4159 90.1338L75.8611 93.7386L77.5103 95.41L80.7321 92.1428L80.9844 92.0385H86.0957L86.3117 92.1305L103.323 109.412L103.414 109.633L103.42 114.872L103.349 115.056L86.3157 132.358L86.136 132.431L80.9864 132.427L80.7725 132.337L63.7794 115.103L63.6401 114.755V109.659L63.7652 109.35L72.2739 100.715C72.6494 100.874 73.043 100.956 73.4508 100.956C75.1384 100.956 76.5131 99.563 76.5131 97.8486C76.5131 96.1342 75.1404 94.741 73.4508 94.741C71.7612 94.741 70.3885 96.1342 70.3885 97.8486C70.3885 98.2619 70.4672 98.6608 70.6247 99.0414L61.789 108.008L61.3025 109.185V115.22L61.793 116.439L79.4462 134.342L80.5161 134.794L86.5902 134.798L87.6298 134.369L105.297 116.423L105.342 116.378L105.749 115.318L105.743 109.158L105.295 108.072H105.303ZM73.4588 96.4943C74.1936 96.4943 74.7932 97.1019 74.7932 97.8507C74.7932 98.5994 74.1957 99.2071 73.4588 99.2071C72.722 99.2071 72.1245 98.5994 72.1245 97.8507C72.1245 97.1019 72.722 96.4943 73.4588 96.4943Z" fill="black"/>
<path d="M87.452 40.6111C85.7644 40.6111 84.3897 42.0043 84.3897 43.7187C84.3897 45.4331 85.7624 46.8263 87.452 46.8263C87.8578 46.8263 88.2514 46.7465 88.6269 46.5869L92.7026 50.7277C92.5451 51.1082 92.4644 51.5092 92.4644 51.9225C92.4644 53.6348 93.8371 55.0301 95.5267 55.0301C97.2163 55.0301 98.589 53.6369 98.589 51.9225C98.589 50.2081 97.2163 48.8149 95.5267 48.8149C95.1209 48.8149 94.7273 48.8946 94.3518 49.0542L90.2761 44.9135C90.4336 44.5329 90.5144 44.132 90.5144 43.7187C90.5144 42.0063 89.1417 40.6111 87.452 40.6111ZM96.859 51.9184C96.859 52.6651 96.2615 53.2748 95.5247 53.2748C94.7879 53.2748 94.1903 52.6671 94.1903 51.9184C94.1903 51.1696 94.7879 50.562 95.5247 50.562C96.2615 50.562 96.859 51.1696 96.859 51.9184ZM87.452 45.073C86.7173 45.073 86.1177 44.4654 86.1177 43.7167C86.1177 42.9679 86.7152 42.3603 87.452 42.3603C88.1889 42.3603 88.7864 42.9679 88.7864 43.7167C88.7864 44.4654 88.1889 45.073 87.452 45.073Z" fill="black"/>
<path d="M48.6494 88.127C46.9618 88.127 45.5871 89.5202 45.5871 91.2346C45.5871 92.949 46.9598 94.3422 48.6494 94.3422C49.0027 94.3422 49.3479 94.2809 49.6809 94.1602L52.5999 97.1184L55.5633 94.1152C55.9327 94.2686 56.3203 94.3484 56.718 94.3484C58.4056 94.3484 59.7803 92.9552 59.7803 91.2408C59.7803 89.5264 58.4076 88.1332 56.718 88.1332C55.0284 88.1332 53.6557 89.5264 53.6557 91.2408C53.6557 91.6622 53.7385 92.0693 53.902 92.4539L52.5999 93.7735L51.4109 92.5685C51.6067 92.1512 51.7097 91.6949 51.7097 91.2346C51.7097 89.5223 50.337 88.127 48.6474 88.127H48.6494ZM47.3151 91.2346C47.3151 90.4879 47.9126 89.8782 48.6494 89.8782C49.3862 89.8782 49.9837 90.4859 49.9837 91.2346C49.9837 91.9834 49.3862 92.591 48.6494 92.591C47.9126 92.591 47.3151 91.9834 47.3151 91.2346ZM56.716 89.8844C57.4508 89.8844 58.0503 90.492 58.0503 91.2408C58.0503 91.9895 57.4528 92.5972 56.716 92.5972C55.9792 92.5972 55.3816 91.9895 55.3816 91.2408C55.3816 90.492 55.9792 89.8844 56.716 89.8844Z" fill="black"/>
<path d="M74.0606 114.232C72.373 114.232 70.9983 115.626 70.9983 117.34C70.9983 119.054 72.371 120.448 74.0606 120.448C74.4664 120.448 74.86 120.368 75.2355 120.208L79.3111 124.349C79.1537 124.73 79.0729 125.131 79.0729 125.544C79.0729 127.256 80.4456 128.651 82.1353 128.651C83.8249 128.651 85.1976 127.258 85.1976 125.544C85.1976 123.829 83.8249 122.436 82.1353 122.436C81.7295 122.436 81.3359 122.516 80.9604 122.676L76.8847 118.535C77.0422 118.154 77.1229 117.753 77.1229 117.34C77.1229 115.628 75.7502 114.232 74.0606 114.232ZM82.1332 124.185C82.868 124.185 83.4676 124.793 83.4676 125.542C83.4676 126.291 82.87 126.898 82.1332 126.898C81.3964 126.898 80.7989 126.291 80.7989 125.542C80.7989 124.793 81.3964 124.185 82.1332 124.185ZM72.7263 117.34C72.7263 116.593 73.3238 115.984 74.0606 115.984C74.7974 115.984 75.3949 116.591 75.3949 117.34C75.3949 118.089 74.7974 118.696 74.0606 118.696C73.3238 118.696 72.7263 118.089 72.7263 117.34Z" fill="black"/>
<path d="M104.623 81.1267C106.313 81.1267 107.69 79.7355 107.69 78.0232C107.69 76.3108 106.315 74.9196 104.623 74.9196C102.932 74.9196 101.557 76.3108 101.557 78.0232C101.557 78.3812 101.617 78.731 101.736 79.0686L98.8175 82.0269L101.781 85.0301C101.629 85.4045 101.551 85.7973 101.551 86.2003C101.551 87.9107 102.925 89.3039 104.617 89.3039C106.309 89.3039 107.683 87.9127 107.683 86.2003C107.683 84.488 106.309 83.0968 104.617 83.0968C104.201 83.0968 103.8 83.1807 103.42 83.3464L102.118 82.0269L103.307 80.8219C103.719 81.0203 104.169 81.1246 104.623 81.1246V81.1267ZM105.962 78.0232C105.962 78.7679 105.362 79.3755 104.623 79.3755C103.884 79.3755 103.285 78.7699 103.285 78.0232C103.285 77.2764 103.884 76.6709 104.623 76.6709C105.362 76.6709 105.962 77.2764 105.962 78.0232ZM104.617 84.8481C105.354 84.8481 105.955 85.4536 105.955 86.2003C105.955 86.9471 105.356 87.5526 104.617 87.5526C103.878 87.5526 103.279 86.9471 103.279 86.2003C103.279 85.4536 103.878 84.8481 104.617 84.8481Z" fill="black"/>
</g>
<defs>
<filter id="filter0_d_1230_9606" x="-0.000195503" y="0.000781059" width="167.1" height="212.6" filterUnits="userSpaceOnUse" color-interpolation-filters="sRGB">
<feFlood flood-opacity="0" result="BackgroundImageFix"/>
<feColorMatrix in="SourceAlpha" type="matrix" values="0 0 0 0 0 0 0 0 0 0 0 0 0 0 0 0 0 0 127 0" result="hardAlpha"/>
<feOffset dy="4"/>
<feGaussianBlur stdDeviation="3.4"/>
<feComposite in2="hardAlpha" operator="out"/>
<feColorMatrix type="matrix" values="0 0 0 0 0 0 0 0 0 0 0 0 0 0 0 0 0 0 0.62 0"/>
<feBlend mode="normal" in2="BackgroundImageFix" result="effect1_dropShadow_1230_9606"/>
<feBlend mode="normal" in="SourceGraphic" in2="effect1_dropShadow_1230_9606" result="shape"/>
</filter>
</defs>
</svg>
