<svg width="94" height="94" viewBox="0 0 94 94" fill="none" xmlns="http://www.w3.org/2000/svg">
<g clip-path="url(#clip0_1069_2459)">
<path d="M27.3809 70.0695L43.2917 53.9999L44.257 53.5915L49.7211 53.586L50.6627 53.9578L66.5735 70.0237L66.6117 70.0621L66.9916 71.0072L66.988 76.5274L66.5881 77.498L50.7154 93.553L49.6339 93.998H44.2824L43.2372 93.5567L35.2918 85.5237C34.9555 85.6665 34.601 85.738 34.2357 85.738C32.716 85.738 31.4781 84.4907 31.4781 82.9559C31.4781 81.4211 32.7142 80.1739 34.2357 80.1739C35.7571 80.1739 36.9932 81.4211 36.9932 82.9559C36.9932 83.3259 36.9205 83.6849 36.7787 84.0274L44.4351 91.7673L44.7078 91.8827H49.2231L49.5303 91.7545L64.8085 76.3002L64.8885 76.1043L64.8921 71.4193L64.8267 71.2545L49.4885 55.7654L49.3285 55.7013L44.6859 55.7068L44.4914 55.7893L29.1732 71.26L29.0932 71.4596V76.1098L29.1841 76.3424L32.0798 79.2728L30.5911 80.7673L27.3955 77.5347L26.9883 76.5237L26.9919 71.0493L27.3846 70.0713L27.3809 70.0695ZM34.2339 81.7416C33.5722 81.7416 33.0323 82.2856 33.0323 82.9559C33.0323 83.6263 33.5704 84.1702 34.2339 84.1702C34.8973 84.1702 35.4354 83.6263 35.4354 82.9559C35.4354 82.2856 34.8973 81.7416 34.2339 81.7416Z" fill="#F9FDFF"/>
<path d="M40.1107 43.3278L40.5033 44.3058L40.507 49.7802L40.0998 50.7911L36.9042 54.0237L35.4154 52.5292L38.3111 49.5988L38.4038 49.3662V44.7161L38.322 44.5164L23.0038 29.0457L22.8093 28.9633L18.1668 28.9578L18.0068 29.0219L2.66858 44.5146L2.60314 44.6794L2.60678 49.3644L2.68676 49.5604L17.965 65.0146L18.2722 65.141H22.7875L23.0602 65.0274L30.7165 57.2875C30.5748 56.9468 30.5021 56.5878 30.5021 56.2161C30.5021 54.6831 31.7381 53.434 33.2596 53.434C34.781 53.434 36.0171 54.6813 36.0171 56.2161C36.0171 57.7509 34.781 58.9981 33.2596 58.9981C32.8942 58.9981 32.5398 58.9267 32.2035 58.7838L24.2581 66.8168L23.2129 67.26H17.8614L16.7798 66.8131L0.941715 50.7966L0.903542 50.7582L0.503636 49.7875L0.5 44.2673L0.879911 43.3223L16.7889 27.2563L16.8289 27.216L17.7705 26.8443L23.2347 26.8497L24.1999 27.2582L39.9617 43.1758L40.1125 43.3278H40.1107ZM34.4575 56.2142C34.4575 55.5457 33.9194 54.9999 33.256 54.9999C32.5925 54.9999 32.0544 55.5439 32.0544 56.2142C32.0544 56.8846 32.5925 57.4285 33.256 57.4285C33.9194 57.4285 34.4575 56.8846 34.4575 56.2142Z" fill="#F9FDFF"/>
<path d="M93.0634 50.8371L85.107 58.8627C85.2488 59.2034 85.3197 59.5605 85.3197 59.9305C85.3197 61.4634 84.0837 62.7125 82.5622 62.7125C81.0407 62.7125 79.8047 61.4653 79.8047 59.9305C79.8047 58.3957 81.0407 57.1484 82.5622 57.1484C82.9294 57.1484 83.2838 57.2217 83.6219 57.3645L91.2856 49.6338L91.4001 49.3572V44.7949L91.2729 44.4836L75.971 29.055L75.7783 28.9744L71.1412 28.9708L70.9795 29.0367L55.6412 44.5257L55.5776 44.6905L55.5831 49.381L55.6649 49.5788L70.9831 65.0477L71.1776 65.1283H75.7801L76.0074 65.0367L78.9085 62.1118L80.3936 63.6081L77.1925 66.8352L76.1891 67.2473L70.765 67.2437L69.7943 66.8462L53.8817 50.7766L53.4781 49.8041L53.4727 44.2894L53.8398 43.3407L69.7488 27.273L69.787 27.2345L70.725 26.8499L76.1946 26.8535L77.158 27.2583L93.0543 43.2858L93.4942 44.3755V49.7785L93.0579 50.8316L93.0634 50.8371ZM82.564 58.7162C81.9023 58.7162 81.3625 59.2601 81.3625 59.9305C81.3625 60.6008 81.9005 61.1448 82.564 61.1448C83.2275 61.1448 83.7655 60.6008 83.7655 59.9305C83.7655 59.2601 83.2275 58.7162 82.564 58.7162Z" fill="#F9FDFF"/>
<path d="M66.688 23.9285L50.8154 39.9578L50.7754 39.9981L49.8047 40.3955L44.3805 40.3992L43.3771 39.9871L40.1761 36.76L41.6612 35.2636L44.5623 38.1885L44.7895 38.282H49.3921L49.5866 38.1995L64.9048 22.7288L64.9866 22.531L64.9921 17.8406L64.9284 17.6757L49.5902 2.18672L49.4284 2.12078L44.7913 2.12444L44.5987 2.20503L29.2968 17.6336L29.1714 17.945V22.5072L29.2841 22.7838L36.9459 30.5146C37.284 30.3717 37.6385 30.2984 38.0057 30.2984C39.5253 30.2984 40.7632 31.5457 40.7632 33.0805C40.7632 34.6153 39.5271 35.8625 38.0057 35.8625C36.4842 35.8625 35.2481 34.6153 35.2481 33.0805C35.2481 32.7105 35.319 32.3534 35.4608 32.0127L27.5045 23.9853L27.0664 22.9321V17.5292L27.5081 16.4376L43.3662 0.448622L43.4044 0.410162L44.3678 0.00539608L49.8374 0.00174068L50.7736 0.386352L66.6826 16.4523L66.7226 16.4926L67.0897 17.4413L67.0843 22.9559L66.6807 23.9285H66.688ZM38.0129 34.2929C38.6746 34.2929 39.2145 33.749 39.2145 33.0787C39.2145 32.4083 38.6764 31.8644 38.0129 31.8644C37.3494 31.8644 36.8114 32.4083 36.8114 33.0787C36.8114 33.749 37.3494 34.2929 38.0129 34.2929Z" fill="#F9FDFF"/>
<path d="M50.613 84.3223C49.0934 84.3223 47.8555 83.075 47.8555 81.5402C47.8555 80.0054 49.0915 78.7582 50.613 78.7582C50.9784 78.7582 51.3328 78.8296 51.6709 78.9724L55.341 75.2655C55.1992 74.9248 55.1265 74.5659 55.1265 74.1959C55.1265 72.6629 56.3626 71.4138 57.884 71.4138C59.4055 71.4138 60.6416 72.6611 60.6416 74.1959C60.6416 75.7307 59.4055 76.9779 57.884 76.9779C57.5187 76.9779 57.1642 76.9065 56.8261 76.7637L53.156 80.4706C53.2978 80.8113 53.3705 81.1703 53.3705 81.5402C53.3705 83.0732 52.1345 84.3223 50.613 84.3223ZM59.0837 74.1996C59.0837 73.5311 58.5457 72.9853 57.8822 72.9853C57.2187 72.9853 56.6807 73.5292 56.6807 74.1996C56.6807 74.8699 57.2187 75.4138 57.8822 75.4138C58.5457 75.4138 59.0837 74.8699 59.0837 74.1996ZM50.613 80.3278C49.9513 80.3278 49.4115 80.8717 49.4115 81.542C49.4115 82.2124 49.9495 82.7563 50.613 82.7563C51.2765 82.7563 51.8145 82.2124 51.8145 81.542C51.8145 80.8717 51.2765 80.3278 50.613 80.3278Z" fill="#F9FDFF"/>
<path d="M15.6716 41.7839C14.152 41.7839 12.9141 40.5367 12.9141 39.0019C12.9141 37.4671 14.1501 36.2198 15.6716 36.2198C15.9897 36.2198 16.3005 36.2748 16.6005 36.3828L19.2289 33.7345L21.8974 36.4231C22.2301 36.2858 22.5791 36.2143 22.9372 36.2143C24.4568 36.2143 25.6947 37.4616 25.6947 38.9964C25.6947 40.5312 24.4586 41.7784 22.9372 41.7784C21.4157 41.7784 20.1796 40.5312 20.1796 38.9964C20.1796 38.6191 20.2542 38.2546 20.4014 37.9103L19.2289 36.729L18.1583 37.8077C18.3346 38.1814 18.4273 38.5898 18.4273 39.0019C18.4273 40.5349 17.1912 41.7839 15.6698 41.7839H15.6716ZM14.4701 39.0019C14.4701 39.6704 15.0081 40.2162 15.6716 40.2162C16.3351 40.2162 16.8731 39.6722 16.8731 39.0019C16.8731 38.3316 16.3351 37.7876 15.6716 37.7876C15.0081 37.7876 14.4701 38.3316 14.4701 39.0019ZM22.9353 40.2107C23.597 40.2107 24.1369 39.6667 24.1369 38.9964C24.1369 38.3261 23.5988 37.7821 22.9353 37.7821C22.2719 37.7821 21.7338 38.3261 21.7338 38.9964C21.7338 39.6667 22.2719 40.2107 22.9353 40.2107Z" fill="#F9FDFF"/>
<path d="M38.5544 18.4138C37.0348 18.4138 35.7969 17.1666 35.7969 15.6318C35.7969 14.097 37.033 12.8497 38.5544 12.8497C38.9198 12.8497 39.2742 12.9211 39.6123 13.064L43.2824 9.35705C43.1406 9.01639 43.0679 8.65741 43.0679 8.28745C43.0679 6.75448 44.304 5.5054 45.8254 5.5054C47.3469 5.5054 48.583 6.75265 48.583 8.28745C48.583 9.82225 47.3469 11.0695 45.8254 11.0695C45.4601 11.0695 45.1056 10.9981 44.7675 10.8552L41.0974 14.5622C41.2392 14.9028 41.3119 15.2618 41.3119 15.6318C41.3119 17.1647 40.0759 18.4138 38.5544 18.4138ZM45.8236 9.50356C46.4853 9.50356 47.0251 8.95961 47.0251 8.28928C47.0251 7.61895 46.4871 7.075 45.8236 7.075C45.1601 7.075 44.6221 7.61895 44.6221 8.28928C44.6221 8.95961 45.1601 9.50356 45.8236 9.50356ZM37.3529 15.6318C37.3529 16.3003 37.8909 16.8461 38.5544 16.8461C39.2179 16.8461 39.7559 16.3021 39.7559 15.6318C39.7559 14.9614 39.2179 14.4175 38.5544 14.4175C37.8909 14.4175 37.3529 14.9614 37.3529 15.6318Z" fill="#F9FDFF"/>
<path d="M66.0755 48.0514C67.597 48.0514 68.8367 49.2968 68.8367 50.8298C68.8367 52.3627 67.5988 53.6082 66.0755 53.6082C64.5522 53.6082 63.3144 52.3627 63.3144 50.8298C63.3144 50.5093 63.3689 50.1961 63.4761 49.8939L60.8477 47.2455L63.5161 44.5569C63.3798 44.2217 63.3089 43.8701 63.3089 43.5093C63.3089 41.9781 64.5468 40.7309 66.0701 40.7309C67.5933 40.7309 68.8312 41.9763 68.8312 43.5093C68.8312 45.0422 67.5933 46.2876 66.0701 46.2876C65.6956 46.2876 65.3339 46.2125 64.9921 46.0642L63.8197 47.2455L64.8903 48.3243C65.2612 48.1466 65.6665 48.0532 66.0755 48.0532V48.0514ZM67.2807 50.8298C67.2807 50.1631 66.7408 49.6191 66.0755 49.6191C65.4102 49.6191 64.8703 50.1613 64.8703 50.8298C64.8703 51.4983 65.4102 52.0404 66.0755 52.0404C66.7408 52.0404 67.2807 51.4983 67.2807 50.8298ZM66.0701 44.7199C66.7336 44.7199 67.2752 44.1778 67.2752 43.5093C67.2752 42.8408 66.7354 42.2986 66.0701 42.2986C65.4048 42.2986 64.8649 42.8408 64.8649 43.5093C64.8649 44.1778 65.4048 44.7199 66.0701 44.7199Z" fill="#F9FDFF"/>
</g>
<defs>
<clipPath id="clip0_1069_2459">
<rect width="93" height="94" fill="white" transform="matrix(1 0 0 -1 0.5 94)"/>
</clipPath>
</defs>
</svg>
