<svg width="249" height="87" viewBox="0 0 249 87" fill="none" xmlns="http://www.w3.org/2000/svg">
<path d="M176.625 57.657C178.943 58.8408 180.888 60.6434 182.245 62.8651C183.601 65.1351 184.297 67.7378 184.257 70.3815C184.257 72.3511 183.972 74.0453 183.403 75.4642C182.833 76.883 182.033 77.9625 181.002 78.7027C179.944 79.4504 178.673 79.8388 177.378 79.8106C176.366 79.8443 175.365 79.5881 174.494 79.072C173.694 78.559 173.091 77.7907 172.783 76.8917C171.572 78.8376 169.659 79.8106 167.044 79.8106C165.661 79.8243 164.302 79.4521 163.119 78.7358C161.929 78.0189 160.959 76.9876 160.316 75.7553C159.643 74.3875 159.294 72.8835 159.294 71.3592C159.294 69.8348 159.643 68.3308 160.316 66.963C160.949 65.723 161.911 64.6805 163.096 63.9494C164.283 63.2299 165.649 62.8576 167.037 62.8746C169.247 62.8746 170.969 63.6132 172.205 65.0905V63.1114H176.767V73.9822C176.767 75.4152 177.304 76.131 178.379 76.1294C179.16 76.1294 179.77 75.6599 180.207 74.7208C180.644 73.7818 180.862 72.3614 180.86 70.4596C180.86 68.198 180.34 66.2015 179.3 64.4702C178.251 62.7269 176.727 61.3186 174.906 60.4102C173.012 59.4364 170.837 58.9496 168.379 58.9496C165.922 58.9496 163.747 59.4696 161.853 60.5096C160.011 61.504 158.488 62.9984 157.459 64.8206C156.399 66.7283 155.861 68.8814 155.899 71.0633C155.858 73.269 156.389 75.4477 157.442 77.3864C158.45 79.2125 159.957 80.7142 161.786 81.7163C163.655 82.7548 165.808 83.2748 168.245 83.2764C170.533 83.3053 172.796 82.7994 174.854 81.7992L175.929 84.8767C174.797 85.4306 173.595 85.8288 172.357 86.0604C171.003 86.3374 169.626 86.4777 168.245 86.4794C165.068 86.4794 162.261 85.8142 159.824 84.4837C157.446 83.2191 155.476 81.3055 154.142 78.9655C152.783 76.5503 152.087 73.8179 152.128 71.0467C152.095 68.2973 152.803 65.5898 154.178 63.2084C155.531 60.883 157.514 58.9873 159.897 57.7398C162.358 56.4189 165.187 55.7592 168.387 55.7607C171.474 55.7623 174.22 56.3944 176.625 57.657ZM171.104 74.7374C171.893 73.9199 172.288 72.7843 172.288 71.3308C172.288 69.8772 171.893 68.759 171.104 67.9762C170.713 67.5741 170.243 67.2582 169.722 67.0486C169.202 66.8391 168.644 66.7406 168.084 66.7594C166.83 66.7594 165.824 67.1682 165.065 67.9857C164.306 68.8032 163.926 69.9159 163.924 71.3237C163.924 72.7551 164.304 73.8851 165.065 74.7137C165.826 75.5423 166.832 75.9558 168.084 75.9542C168.644 75.9747 169.203 75.8769 169.723 75.6673C170.244 75.4576 170.714 75.1408 171.104 74.7374Z" fill="#5B5340"/>
<path d="M189.503 77.7272C187.995 76.2436 187.24 74.1406 187.24 71.4182V61.2646H192.422V71.2572C192.422 74.188 193.582 75.6534 195.902 75.6534C198.222 75.6534 199.374 74.188 199.359 71.2572V61.2646H204.46V71.4182C204.46 74.1406 203.706 76.2436 202.197 77.7272C200.688 79.2107 198.573 79.9517 195.85 79.9501C193.128 79.9501 191.012 79.2091 189.503 77.7272Z" fill="#5B5340"/>
<path d="M220.66 62.0884C221.824 62.5856 222.816 63.4138 223.513 64.4699C224.21 65.526 224.582 66.7637 224.582 68.0292C224.582 69.2948 224.21 70.5324 223.513 71.5886C222.816 72.6447 221.824 73.4728 220.66 73.9701C219.296 74.5525 217.825 74.8382 216.342 74.8081H213.151V79.5973H207.969V61.2645H216.342C217.824 61.2301 219.295 61.5109 220.66 62.0884ZM218.437 70.019C218.977 69.5574 219.247 68.8969 219.247 68.0423C219.247 67.1876 218.977 66.5248 218.437 66.0537C217.897 65.5826 217.092 65.3435 216.03 65.3435H213.151V70.7126H216.03C217.093 70.7126 217.896 70.4814 218.437 70.019Z" fill="#5B5340"/>
<path d="M231.221 78.7324C229.731 77.9574 228.486 76.7848 227.622 75.3448C226.765 73.8467 226.313 72.1505 226.313 70.4242C226.313 68.698 226.765 67.0018 227.622 65.5037C228.486 64.0635 229.732 62.8903 231.221 62.1137C232.817 61.2866 234.594 60.8685 236.391 60.8969C237.946 60.8737 239.488 61.1769 240.917 61.787C242.228 62.3549 243.378 63.2361 244.267 64.3532L240.981 67.336C239.796 65.9062 238.357 65.1904 236.663 65.1889C235.736 65.1729 234.821 65.3989 234.007 65.8446C233.24 66.272 232.612 66.9125 232.201 67.6888C231.779 68.539 231.56 69.4752 231.56 70.4242C231.56 71.3733 231.779 72.3095 232.201 73.1597C232.612 73.936 233.24 74.5765 234.007 75.0039C234.821 75.4487 235.736 75.6739 236.663 75.6573C238.355 75.6573 239.795 74.9423 240.981 73.5124L244.279 76.4953C243.387 77.6165 242.233 78.5004 240.917 79.0686C239.487 79.6779 237.945 79.9803 236.391 79.9564C234.593 79.9837 232.816 79.5631 231.221 78.7324Z" fill="#5B5340"/>
<path d="M38.263 25.8727C38.263 23.2639 38.8943 21.2982 40.1569 19.9757C41.4195 18.6531 43.1256 17.9918 45.2751 17.9918C47.1942 17.9918 48.662 18.5623 49.6784 19.7034C50.6947 20.8445 51.2021 22.575 51.2006 24.895V40.3324H59.6804V23.5906C59.6804 19.3152 58.5662 16.0901 56.3377 13.9153C54.1092 11.7404 51.1864 10.6531 47.5691 10.6531C45.7893 10.6357 44.0209 10.9396 42.3491 11.5503C40.8167 12.1064 39.4228 12.9875 38.263 14.133V0H29.7832V40.3324H38.263V25.8727Z" fill="#5B5340"/>
<path d="M68.5129 25.4933C66.4612 27.051 65.4354 29.1887 65.4354 31.9064C65.4125 33.5243 65.8679 35.113 66.7445 36.473C67.6782 37.8654 68.9932 38.9593 70.5323 39.6239C72.1831 40.3862 74.1314 40.7666 76.3773 40.765C80.7237 40.765 83.6947 39.4061 85.2903 36.6884V40.3318H93.2256V23.6444C93.2256 19.2963 92.012 16.0436 89.5847 13.8862C87.1574 11.7287 83.6758 10.6508 79.1399 10.6524C76.8163 10.6486 74.5028 10.96 72.2628 11.578C70.2156 12.1086 68.2757 12.9896 66.5291 14.1821L69.5711 20.1005C70.7205 19.2164 72.0184 18.5446 73.4039 18.1166C74.8865 17.6315 76.4365 17.3838 77.9965 17.3827C80.2439 17.3827 81.9295 17.8815 83.0532 18.8789C84.1769 19.8763 84.7379 21.2967 84.7364 23.1401H77.9965C73.7211 23.1496 70.5599 23.934 68.5129 25.4933ZM84.7364 28.0973V31.0849C84.3176 32.326 83.4698 33.377 82.3453 34.0488C81.1757 34.7317 79.8407 35.0797 78.4866 35.055C76.9999 35.055 75.8312 34.7393 74.9805 34.108C74.5712 33.8161 74.2403 33.4276 74.0172 32.9771C73.7942 32.5265 73.686 32.0278 73.7022 31.5253C73.7022 29.2431 75.4422 28.1021 78.9222 28.1021L84.7364 28.0973Z" fill="#5B5340"/>
<path d="M106.942 38.8356C109.423 40.1234 112.222 40.7665 115.339 40.765C118.419 40.765 121.109 40.1132 123.412 38.8095C125.635 37.5884 127.4 35.6772 128.44 33.3646L121.862 29.7758C120.375 32.4587 118.183 33.8002 115.285 33.8002C113.076 33.8002 111.246 33.0758 109.795 31.627C108.345 30.1782 107.62 28.2054 107.622 25.7087C107.622 23.2087 108.346 21.236 109.795 19.7903C111.244 18.3446 113.071 17.6179 115.276 17.61C118.137 17.61 120.329 18.9515 121.852 21.6345L128.431 18.1024C127.417 15.7537 125.647 13.8113 123.403 12.5841C121.106 11.2963 118.419 10.6523 115.339 10.6523C112.222 10.6523 109.423 11.2955 106.942 12.5817C104.544 13.7916 102.53 15.6459 101.126 17.9367C99.7292 20.2188 99.0316 22.8094 99.0332 25.7087C99.0348 28.6079 99.7324 31.1993 101.126 33.483C102.529 35.7734 104.544 37.6271 106.942 38.8356Z" fill="#5B5340"/>
<path d="M141.593 32.8848L145.67 28.8627L154.909 40.3324H165.184L151.919 23.4817L164.097 11.0886H153.986L141.593 22.8307V0H133.113V40.3324H141.593V32.8848Z" fill="#5B5340"/>
<path d="M173.499 38.8358C176.036 40.1236 178.956 40.7667 182.258 40.7651C187.548 40.7651 191.572 39.1869 194.331 36.0305L189.833 31.1372C188.893 32.0682 187.773 32.7987 186.543 33.2843C185.247 33.7587 183.874 33.989 182.494 33.9638C180.285 33.9638 178.437 33.439 176.95 32.3895C175.489 31.3766 174.476 29.8378 174.124 28.0951H196.246C196.355 26.6747 196.41 25.9132 196.41 25.8106C196.41 22.7678 195.748 20.0959 194.426 17.7948C193.151 15.5402 191.254 13.7002 188.962 12.4943C186.519 11.2652 183.819 10.6317 181.085 10.6457C178.35 10.6597 175.657 11.3208 173.226 12.5748C170.886 13.8147 168.937 15.68 167.594 17.9629C166.223 20.3115 165.518 22.9895 165.556 25.7088C165.556 28.6096 166.245 31.2011 167.623 33.4832C169.029 35.7927 171.068 37.6504 173.499 38.8358ZM176.38 18.7015C177.683 17.6141 179.296 17.0712 181.218 17.0728C183.103 17.0728 184.697 17.6251 186.001 18.7299C187.304 19.8347 188.102 21.3111 188.394 23.1592H173.986C174.277 21.2716 175.074 19.7857 176.38 18.7015Z" fill="#5B5340"/>
<path d="M210.516 26.5254C210.516 23.8077 211.204 21.7694 212.58 20.4105C213.957 19.0517 215.859 18.3723 218.288 18.3723C218.615 18.3723 219.247 18.4078 220.182 18.4812V10.6523C217.941 10.6523 215.957 11.0145 214.23 11.739C212.592 12.4032 211.172 13.5147 210.135 14.9467V11.0879H202.036V40.3317H210.516V26.5254Z" fill="#5B5340"/>
<path d="M235.586 35.4858C238.776 35.4824 241.844 36.7114 244.149 38.9161C245.4 38.2951 246.5 37.406 247.368 36.312C248.445 34.9305 249.02 33.2243 248.999 31.4731C248.999 29.3346 248.438 27.668 247.314 26.4733C246.238 25.307 244.869 24.4517 243.349 23.9971C241.419 23.4547 239.458 23.0286 237.478 22.7211C235.339 22.3944 233.781 22.0495 232.802 21.6865C231.824 21.3235 231.334 20.6923 231.334 19.7927C231.334 18.9941 231.788 18.3415 232.696 17.8349C233.603 17.3283 234.962 17.0749 236.772 17.0749C239.721 17.051 242.626 17.8003 245.195 19.2482L248.022 13.2138C246.682 12.4247 244.988 11.7997 242.941 11.3389C240.915 10.8862 238.846 10.656 236.77 10.6523C233.978 10.6523 231.558 11.0469 229.512 11.836C227.465 12.6251 225.907 13.7433 224.838 15.1905C223.768 16.6097 223.201 18.3446 223.226 20.1217C223.226 22.3312 223.798 24.0349 224.94 25.2328C226.047 26.407 227.443 27.2692 228.988 27.7327C230.93 28.2862 232.907 28.7038 234.907 28.9827C236.936 29.2368 238.44 29.5445 239.419 29.906C240.397 30.2674 240.887 30.8655 240.887 31.7004C240.887 33.4759 239.092 34.3637 235.503 34.3637C233.66 34.3553 231.828 34.09 230.058 33.5753C228.39 33.1292 226.795 32.4425 225.324 31.5371L222.497 37.6259C223.741 38.4057 225.084 39.0141 226.491 39.4345C227.653 38.1849 229.061 37.189 230.626 36.5095C232.191 35.83 233.88 35.4814 235.586 35.4858Z" fill="#5B5340"/>
<path d="M235.581 38.2827C233.379 38.2845 231.239 39.0175 229.498 40.3667C227.758 41.716 226.514 43.605 225.963 45.7375H25.8488L25.8204 45.7091L18.4817 38.3703C19.7089 36.2886 20.1348 33.8307 19.6795 31.4575C19.2242 29.0842 17.919 26.9585 16.0085 25.4787C14.0981 23.9989 11.7135 23.2667 9.30179 23.4192C6.89008 23.5718 4.61679 24.5987 2.90804 26.3075C1.19929 28.0162 0.172392 30.2895 0.0198205 32.7012C-0.132751 35.1129 0.599481 37.4975 2.07927 39.408C3.55906 41.3184 5.68481 42.6236 8.05807 43.0789C10.4313 43.5342 12.8892 43.1083 14.9709 41.8811L23.0625 49.975C23.1238 50.0371 23.1886 50.0956 23.2566 50.1502C23.2921 50.1762 23.3252 50.2047 23.3608 50.2283L23.4697 50.3017C23.8736 50.5576 24.3408 50.6962 24.819 50.7018H225.965C226.429 52.5038 227.388 54.1396 228.735 55.4233C230.082 56.7069 231.762 57.5869 233.584 57.963C235.407 58.3392 237.298 58.1966 239.043 57.5513C240.788 56.906 242.317 55.784 243.456 54.3128C244.596 52.8417 245.299 51.0804 245.487 49.2293C245.675 47.3781 245.339 45.5114 244.519 43.8414C243.698 42.1715 242.426 40.7652 240.846 39.7825C239.266 38.7998 237.442 38.2802 235.581 38.2827ZM13.6381 33.5291C13.5877 34.4436 13.202 35.3076 12.5548 35.9557C11.9076 36.6038 11.0442 36.9906 10.1297 37.0422H9.92134C9.18407 37.0427 8.46322 36.8244 7.85004 36.4151C7.23685 36.0057 6.75889 35.4236 6.47664 34.7425C6.19439 34.0614 6.12054 33.3119 6.26443 32.5888C6.40832 31.8657 6.76349 31.2015 7.28499 30.6804C7.80649 30.1592 8.47087 29.8044 9.19406 29.661C9.91725 29.5176 10.6667 29.5919 11.3477 29.8746C12.0286 30.1573 12.6104 30.6356 13.0193 31.2491C13.4283 31.8625 13.6461 32.5835 13.6452 33.3208C13.6452 33.3918 13.6428 33.4604 13.6381 33.5291ZM235.586 51.9399C234.849 51.9404 234.128 51.7222 233.515 51.3131C232.902 50.9039 232.424 50.3221 232.142 49.6413C231.859 48.9605 231.785 48.2112 231.929 47.4882C232.072 46.7653 232.427 46.1011 232.948 45.5797C233.469 45.0584 234.133 44.7033 234.856 44.5593C235.579 44.4153 236.328 44.489 237.009 44.7709C237.69 45.0529 238.272 45.5305 238.682 46.1433C239.091 46.7561 239.31 47.4766 239.31 48.2137C239.313 48.7036 239.218 49.1893 239.032 49.6425C238.846 50.0957 238.572 50.5075 238.226 50.854C237.879 51.2005 237.468 51.4749 237.015 51.6613C236.562 51.8477 236.076 51.9424 235.586 51.9399Z" fill="#5B5340"/>
</svg>
