<svg width="96" height="128" viewBox="0 0 96 128" fill="none" xmlns="http://www.w3.org/2000/svg">
<rect width="96" height="99" fill="#A1C8A8"/>
<path d="M0 97H96V128L46.5 101.5L0 128V97Z" fill="#A1C8A8"/>
<g clip-path="url(#clip0_1328_161)">
<path d="M32.0987 31.8389L44.5879 44.4894L45.3455 44.8109L49.6346 44.8152L50.3737 44.5226L62.8628 31.8749L62.8928 31.8446L63.191 31.1006L63.1881 26.755L62.8742 25.9908L50.4151 13.3518L49.5661 13.0015H45.3655L44.5451 13.3489L38.3083 19.6728C38.0444 19.5603 37.7661 19.5041 37.4793 19.5041C36.2865 19.5041 35.3148 20.486 35.3148 21.6942C35.3148 22.9024 36.2851 23.8843 37.4793 23.8843C38.6736 23.8843 39.6439 22.9024 39.6439 21.6942C39.6439 21.403 39.5868 21.1204 39.4755 20.8507L45.4853 14.7576L45.6994 14.6668H49.2436L49.4848 14.7677L61.4774 26.9338L61.5401 27.0881L61.543 30.7762L61.4916 30.906L49.452 43.0995L49.3264 43.1499L45.6822 43.1456L45.5296 43.0807L33.5056 30.9017L33.4428 30.7445V27.0837L33.5141 26.9006L35.7871 24.5937L34.6185 23.4172L32.1101 25.962L31.7905 26.7579L31.7934 31.0675L32.1016 31.8374L32.0987 31.8389ZM37.4779 22.6501C36.9585 22.6501 36.5348 22.2219 36.5348 21.6942C36.5348 21.1665 36.9571 20.7383 37.4779 20.7383C37.9987 20.7383 38.4211 21.1665 38.4211 21.6942C38.4211 22.2219 37.9987 22.6501 37.4779 22.6501Z" fill="black"/>
<path d="M42.0923 52.8911L42.4005 52.1211L42.4033 47.8115L42.0837 47.0156L39.5753 44.4708L38.4067 45.6473L40.6797 47.9543L40.7525 48.1374V51.7982L40.6883 51.9553L28.6643 64.1344L28.5116 64.1993L24.8675 64.2036L24.7419 64.1531L12.7022 51.9568L12.6509 51.827L12.6537 48.1388L12.7165 47.9845L24.7091 35.8185L24.9502 35.719H28.4945L28.7085 35.8084L34.7184 41.9015C34.6071 42.1697 34.55 42.4523 34.55 42.745C34.55 43.9518 35.5203 44.9351 36.7145 44.9351C37.9088 44.9351 38.879 43.9532 38.879 42.745C38.879 41.5367 37.9088 40.5548 36.7145 40.5548C36.4277 40.5548 36.1495 40.6111 35.8855 40.7235L29.6488 34.3997L28.8284 34.0508H24.6278L23.7788 34.4026L11.3467 47.0113L11.3168 47.0416L11.0029 47.8057L11 52.1514L11.2982 52.8954L23.7859 65.543L23.8173 65.5748L24.5564 65.8674L28.8455 65.8631L29.6031 65.5416L41.9753 53.0107L42.0937 52.8911H42.0923ZM37.6548 42.7464C37.6548 43.2727 37.2325 43.7023 36.7117 43.7023C36.1909 43.7023 35.7685 43.2741 35.7685 42.7464C35.7685 42.2187 36.1909 41.7905 36.7117 41.7905C37.2325 41.7905 37.6548 42.2187 37.6548 42.7464Z" fill="black"/>
<path d="M83.6562 46.9793L77.4109 40.6612C77.5222 40.393 77.5778 40.1119 77.5778 39.8206C77.5778 38.6138 76.6076 37.6305 75.4133 37.6305C74.219 37.6305 73.2488 38.6124 73.2488 39.8206C73.2488 41.0289 74.219 42.0107 75.4133 42.0107C75.7015 42.0107 75.9798 41.9531 76.2452 41.8406L82.2607 47.9265L82.3506 48.1442V51.7358L82.2507 51.9809L70.2396 64.1268L70.0883 64.1903L66.4485 64.1932L66.3215 64.1412L54.2818 51.9478L54.2319 51.818L54.2361 48.1255L54.3004 47.9698L66.3243 35.7922L66.477 35.7287H70.0898L70.2681 35.8008L72.5454 38.1034L73.7111 36.9254L71.1984 34.385L70.4108 34.0605L66.1531 34.0634L65.3912 34.3763L52.9006 47.0268L52.5839 47.7924L52.5796 52.1338L52.8678 52.8806L65.3555 65.5297L65.3855 65.56L66.1217 65.8628L70.4151 65.8599L71.1713 65.5413L83.649 52.9239L83.9943 52.066V47.8126L83.6519 46.9836L83.6562 46.9793ZM75.4147 40.7765C74.8954 40.7765 74.4716 40.3483 74.4716 39.8206C74.4716 39.2929 74.8939 38.8647 75.4147 38.8647C75.9355 38.8647 76.3579 39.2929 76.3579 39.8206C76.3579 40.3483 75.9355 40.7765 75.4147 40.7765Z" fill="black"/>
<path d="M62.9541 68.1626L50.4949 55.5438L50.4635 55.512L49.7016 55.1992L45.4439 55.1963L44.6563 55.5207L42.1436 58.0612L43.3094 59.2392L45.5866 56.9366L45.765 56.863H49.3777L49.5304 56.9279L61.5544 69.107L61.6186 69.2627L61.6229 72.9552L61.5729 73.085L49.5332 85.2784L49.4063 85.3303L45.7664 85.3275L45.6151 85.264L33.604 73.1181L33.5056 72.873V69.2814L33.594 69.0637L39.6081 62.9778C39.8735 63.0903 40.1518 63.1479 40.44 63.1479C41.6328 63.1479 42.6045 62.166 42.6045 60.9578C42.6045 59.7496 41.6343 58.7677 40.44 58.7677C39.2457 58.7677 38.2755 59.7496 38.2755 60.9578C38.2755 61.2491 38.3311 61.5302 38.4424 61.7984L32.1971 68.1179L31.8533 68.9469V73.2003L32.2 74.0596L44.6477 86.6467L44.6777 86.677L45.4339 86.9956L49.7273 86.9985L50.4621 86.6957L62.9498 74.0481L62.9812 74.0164L63.2694 73.2695L63.2652 68.9282L62.9484 68.1626H62.9541ZM40.4457 60.0033C40.9651 60.0033 41.3888 60.4315 41.3888 60.9592C41.3888 61.487 40.9665 61.9152 40.4457 61.9152C39.9249 61.9152 39.5026 61.487 39.5026 60.9592C39.5026 60.4315 39.9249 60.0033 40.4457 60.0033Z" fill="black"/>
<path d="M50.3365 20.6187C49.1437 20.6187 48.172 21.6005 48.172 22.8088C48.172 24.017 49.1423 24.9989 50.3365 24.9989C50.6233 24.9989 50.9015 24.9427 51.1669 24.8302L54.0477 27.7485C53.9364 28.0166 53.8794 28.2992 53.8794 28.5905C53.8794 29.7973 54.8496 30.7806 56.0439 30.7806C57.2381 30.7806 58.2084 29.7987 58.2084 28.5905C58.2084 27.3822 57.2381 26.4004 56.0439 26.4004C55.7571 26.4004 55.4788 26.4566 55.2135 26.569L52.3327 23.6508C52.444 23.3826 52.501 23.1 52.501 22.8088C52.501 21.602 51.5308 20.6187 50.3365 20.6187ZM56.9856 28.5876C56.9856 29.1139 56.5632 29.5435 56.0424 29.5435C55.5217 29.5435 55.0993 29.1153 55.0993 28.5876C55.0993 28.0599 55.5217 27.6317 56.0424 27.6317C56.5632 27.6317 56.9856 28.0599 56.9856 28.5876ZM50.3365 23.7633C49.8171 23.7633 49.3934 23.335 49.3934 22.8073C49.3934 22.2796 49.8157 21.8514 50.3365 21.8514C50.8573 21.8514 51.2797 22.2796 51.2797 22.8073C51.2797 23.335 50.8573 23.7633 50.3365 23.7633Z" fill="black"/>
<path d="M22.9099 54.1064C21.717 54.1064 20.7454 55.0883 20.7454 56.2966C20.7454 57.5048 21.7156 58.4867 22.9099 58.4867C23.1596 58.4867 23.4036 58.4434 23.639 58.3584L25.7022 60.4432L27.7968 58.3267C28.0579 58.4348 28.3319 58.491 28.613 58.491C29.8058 58.491 30.7775 57.5091 30.7775 56.3009C30.7775 55.0927 29.8072 54.1108 28.613 54.1108C27.4187 54.1108 26.4484 55.0927 26.4484 56.3009C26.4484 56.5979 26.5069 56.8848 26.6225 57.1559L25.7022 58.0859L24.8618 57.2366C25.0002 56.9425 25.073 56.621 25.073 56.2966C25.073 55.0898 24.1027 54.1064 22.9085 54.1064H22.9099ZM21.9667 56.2966C21.9667 55.7703 22.3891 55.3406 22.9099 55.3406C23.4307 55.3406 23.853 55.7689 23.853 56.2966C23.853 56.8243 23.4307 57.2525 22.9099 57.2525C22.3891 57.2525 21.9667 56.8243 21.9667 56.2966ZM28.6115 55.345C29.1309 55.345 29.5547 55.7732 29.5547 56.3009C29.5547 56.8286 29.1323 57.2568 28.6115 57.2568C28.0907 57.2568 27.6684 56.8286 27.6684 56.3009C27.6684 55.7732 28.0907 55.345 28.6115 55.345Z" fill="black"/>
<path d="M40.8709 72.5039C39.6781 72.5039 38.7064 73.4858 38.7064 74.694C38.7064 75.9023 39.6767 76.8842 40.8709 76.8842C41.1577 76.8842 41.436 76.8279 41.7014 76.7155L44.5821 79.6337C44.4709 79.9019 44.4138 80.1845 44.4138 80.4757C44.4138 81.6825 45.384 82.6659 46.5783 82.6659C47.7726 82.6659 48.7428 81.684 48.7428 80.4757C48.7428 79.2675 47.7726 78.2856 46.5783 78.2856C46.2915 78.2856 46.0133 78.3418 45.7479 78.4543L42.8671 75.5361C42.9784 75.2679 43.0355 74.9853 43.0355 74.694C43.0355 73.4872 42.0652 72.5039 40.8709 72.5039ZM46.5769 79.5184C47.0962 79.5184 47.52 79.9466 47.52 80.4743C47.52 81.002 47.0977 81.4302 46.5769 81.4302C46.0561 81.4302 45.6337 81.002 45.6337 80.4743C45.6337 79.9466 46.0561 79.5184 46.5769 79.5184ZM39.9278 74.694C39.9278 74.1678 40.3501 73.7381 40.8709 73.7381C41.3917 73.7381 41.8141 74.1663 41.8141 74.694C41.8141 75.2217 41.3917 75.65 40.8709 75.65C40.3501 75.65 39.9278 75.2217 39.9278 74.694Z" fill="black"/>
<path d="M62.4732 49.1723C63.6675 49.1723 64.6406 48.1919 64.6406 46.9851C64.6406 45.7783 63.6689 44.7979 62.4732 44.7979C61.2775 44.7979 60.3059 45.7783 60.3059 46.9851C60.3059 47.2374 60.3487 47.484 60.4328 47.7219L58.3696 49.8067L60.4642 51.9233C60.3572 52.1872 60.3016 52.464 60.3016 52.7481C60.3016 53.9534 61.2733 54.9353 62.4689 54.9353C63.6646 54.9353 64.6363 53.9549 64.6363 52.7481C64.6363 51.5412 63.6646 50.5608 62.4689 50.5608C62.175 50.5608 61.8911 50.6199 61.6228 50.7367L60.7025 49.8067L61.5429 48.9575C61.834 49.0974 62.1522 49.1709 62.4732 49.1709V49.1723ZM63.4192 46.9851C63.4192 47.5099 62.9954 47.9381 62.4732 47.9381C61.951 47.9381 61.5272 47.5114 61.5272 46.9851C61.5272 46.4588 61.951 46.0321 62.4732 46.0321C62.9954 46.0321 63.4192 46.4588 63.4192 46.9851ZM62.4689 51.795C62.9897 51.795 63.4149 52.2218 63.4149 52.7481C63.4149 53.2743 62.9912 53.7011 62.4689 53.7011C61.9467 53.7011 61.5229 53.2743 61.5229 52.7481C61.5229 52.2218 61.9467 51.795 62.4689 51.795Z" fill="black"/>
</g>
<defs>
<clipPath id="clip0_1328_161">
<rect width="73" height="74" fill="white" transform="translate(11 13)"/>
</clipPath>
</defs>
</svg>
