<svg width="367" height="231" viewBox="0 0 367 231" fill="none" xmlns="http://www.w3.org/2000/svg">
<mask id="path-1-outside-1_958_3235" maskUnits="userSpaceOnUse" x="0" y="0" width="367" height="231" fill="black">
<rect fill="white" width="367" height="231"/>
<path d="M353.31 3C358.832 3 363.309 7.47772 363.31 13V18.585L328.435 24.2393L363.31 29.8926V38.0127L339.632 41.8516L363.31 45.6895V97.7041L344.721 101.423L363.31 105.141V112.157L330.471 117.481L363.31 122.805V187.843L337.597 193.63L363.31 199.416V217.818C363.31 223.341 358.832 227.818 353.31 227.818H13C7.47715 227.818 3 223.341 3 217.818V189.158L45.7197 182.233L3 175.308V164.688L27.1416 159.959L3 155.229V71.2129L33.25 65.1621L3 59.1104V13C3.00066 7.47772 7.47756 3 13 3H353.31Z"/>
</mask>
<path d="M353.31 3C358.832 3 363.309 7.47772 363.31 13V18.585L328.435 24.2393L363.31 29.8926V38.0127L339.632 41.8516L363.31 45.6895V97.7041L344.721 101.423L363.31 105.141V112.157L330.471 117.481L363.31 122.805V187.843L337.597 193.63L363.31 199.416V217.818C363.31 223.341 358.832 227.818 353.31 227.818H13C7.47715 227.818 3 223.341 3 217.818V189.158L45.7197 182.233L3 175.308V164.688L27.1416 159.959L3 155.229V71.2129L33.25 65.1621L3 59.1104V13C3.00066 7.47772 7.47756 3 13 3H353.31Z" fill="#FEDDB9"/>
<path d="M363.31 13H366.31V12.9996L363.31 13ZM363.31 18.585L363.79 21.5463L366.31 21.1377V18.585H363.31ZM328.435 24.2393L327.954 21.2779L327.955 27.2006L328.435 24.2393ZM363.31 29.8926H366.31V27.3397L363.79 26.9312L363.31 29.8926ZM363.31 38.0127L363.79 40.974L366.31 40.5655V38.0127H363.31ZM339.632 41.8516L339.152 38.8902L339.152 44.8129L339.632 41.8516ZM363.31 45.6895H366.31V43.1366L363.79 42.7281L363.31 45.6895ZM363.31 97.7041L363.898 100.646L366.31 100.163V97.7041H363.31ZM344.721 101.423L344.132 98.4811L344.132 104.365L344.721 101.423ZM363.31 105.141H366.31V102.681L363.898 102.199L363.31 105.141ZM363.31 112.157L363.79 115.119L366.31 114.71V112.157H363.31ZM330.471 117.481L329.991 114.52L329.991 120.443L330.471 117.481ZM363.31 122.805H366.31V120.252L363.79 119.843L363.31 122.805ZM363.31 187.843L363.968 190.77L366.31 190.243V187.843H363.31ZM337.597 193.63L336.938 190.703L336.938 196.557L337.597 193.63ZM363.31 199.416H366.31V197.016L363.968 196.489L363.31 199.416ZM353.31 227.818V230.818V227.818ZM3 189.158L2.51997 186.197L0 186.605V189.158H3ZM45.7197 182.233L46.1998 185.195L46.1998 179.272L45.7197 182.233ZM3 175.308H0V177.86L2.5199 178.269L3 175.308ZM3 164.688L2.42336 161.743L0 162.218V164.688H3ZM27.1416 159.959L27.7182 162.903L27.7184 157.015L27.1416 159.959ZM3 155.229H0V157.699L2.42324 158.174L3 155.229ZM3 71.2129L2.41158 68.2712L0 68.7535V71.2129H3ZM33.25 65.1621L33.8384 68.1038L33.8385 62.2204L33.25 65.1621ZM3 59.1104H0V61.5696L2.41149 62.0521L3 59.1104ZM3 13L0 12.9996V13H3ZM13 3V0V3ZM353.31 3V6C357.175 6 360.309 9.13429 360.31 13.0004L363.31 13L366.31 12.9996C366.309 5.82114 360.489 0 353.31 0V3ZM363.31 13H360.31V18.585H363.31H366.31V13H363.31ZM363.31 18.585L362.829 15.6236L327.954 21.2779L328.435 24.2393L328.915 27.2006L363.79 21.5463L363.31 18.585ZM328.435 24.2393L327.955 27.2006L362.83 32.8539L363.31 29.8926L363.79 26.9312L328.915 21.2779L328.435 24.2393ZM363.31 29.8926H360.31V38.0127H363.31H366.31V29.8926H363.31ZM363.31 38.0127L362.829 35.0514L339.152 38.8902L339.632 41.8516L340.112 44.8129L363.79 40.974L363.31 38.0127ZM339.632 41.8516L339.152 44.8129L362.83 48.6508L363.31 45.6895L363.79 42.7281L340.112 38.8902L339.632 41.8516ZM363.31 45.6895H360.31V97.7041H363.31H366.31V45.6895H363.31ZM363.31 97.7041L362.721 94.7624L344.132 98.4811L344.721 101.423L345.309 104.365L363.898 100.646L363.31 97.7041ZM344.721 101.423L344.132 104.365L362.721 108.082L363.31 105.141L363.898 102.199L345.309 98.4811L344.721 101.423ZM363.31 105.141H360.31V112.157H363.31H366.31V105.141H363.31ZM363.31 112.157L362.829 109.196L329.991 114.52L330.471 117.481L330.951 120.443L363.79 115.119L363.31 112.157ZM330.471 117.481L329.991 120.443L362.83 125.766L363.31 122.805L363.79 119.843L330.951 114.52L330.471 117.481ZM363.31 122.805H360.31V187.843H363.31H366.31V122.805H363.31ZM363.31 187.843L362.651 184.916L336.938 190.703L337.597 193.63L338.255 196.557L363.968 190.77L363.31 187.843ZM337.597 193.63L336.938 196.557L362.651 202.343L363.31 199.416L363.968 196.489L338.255 190.703L337.597 193.63ZM363.31 199.416H360.31V217.818H363.31H366.31V199.416H363.31ZM363.31 217.818H360.31C360.31 221.684 357.176 224.818 353.31 224.818V227.818V230.818C360.489 230.818 366.31 224.998 366.31 217.818H363.31ZM353.31 227.818V224.818H13V227.818V230.818H353.31V227.818ZM13 227.818V224.818C9.13401 224.818 6 221.684 6 217.818H3H0C0 224.998 5.8203 230.818 13 230.818V227.818ZM3 217.818H6V189.158H3H0V217.818H3ZM3 189.158L3.48003 192.12L46.1998 185.195L45.7197 182.233L45.2397 179.272L2.51997 186.197L3 189.158ZM45.7197 182.233L46.1998 179.272L3.4801 172.346L3 175.308L2.5199 178.269L45.2396 185.195L45.7197 182.233ZM3 175.308H6V164.688H3H0V175.308H3ZM3 164.688L3.57664 167.632L27.7182 162.903L27.1416 159.959L26.565 157.015L2.42336 161.743L3 164.688ZM27.1416 159.959L27.7184 157.015L3.57676 152.285L3 155.229L2.42324 158.174L26.5648 162.903L27.1416 159.959ZM3 155.229H6V71.2129H3H0V155.229H3ZM3 71.2129L3.58842 74.1546L33.8384 68.1038L33.25 65.1621L32.6616 62.2204L2.41158 68.2712L3 71.2129ZM33.25 65.1621L33.8385 62.2204L3.58851 56.1686L3 59.1104L2.41149 62.0521L32.6615 68.1038L33.25 65.1621ZM3 59.1104H6V13H3H0V59.1104H3ZM3 13L6 13.0004C6.00046 9.13429 9.13478 6 13 6V3V0C5.82035 0 0.00086236 5.82114 0 12.9996L3 13ZM13 3V6H353.31V3V0H13V3Z" fill="#FDC085" mask="url(#path-1-outside-1_958_3235)"/>
</svg>
