<svg width="1127" height="340" viewBox="0 0 1127 340" fill="none" xmlns="http://www.w3.org/2000/svg">
<path d="M455.872 48.6417C459.593 48.6417 463.912 49.0404 468.829 49.8378C473.88 50.5023 479.129 51.499 484.578 52.828C483.914 57.7454 483.05 63.7924 481.987 70.969C480.923 78.1456 479.86 85.5216 478.797 93.097C477.867 100.539 477.069 107.45 476.405 113.829C475.74 120.076 475.408 124.927 475.408 128.382C475.408 130.774 475.674 132.369 476.205 133.167C476.87 133.831 477.534 134.163 478.199 134.163C479.794 134.163 481.455 133.034 483.183 130.774C484.91 128.515 486.638 124.395 488.366 118.415L499.131 121.604C498.599 124.395 497.669 127.585 496.34 131.173C495.011 134.761 493.217 138.217 490.957 141.539C488.831 144.729 486.107 147.387 482.784 149.513C479.594 151.64 475.807 152.703 471.421 152.703C467.168 152.703 463.447 151.44 460.257 148.915C457.068 146.39 455.473 141.606 455.473 134.562C455.473 132.834 455.539 130.907 455.672 128.781C455.805 126.654 456.005 124.727 456.27 123H456.071C453.679 128.714 451.087 133.499 448.296 137.353C445.638 141.207 442.847 144.264 439.924 146.523C437.133 148.782 434.209 150.377 431.152 151.307C428.228 152.238 425.238 152.703 422.181 152.703C414.872 152.703 408.625 149.779 403.442 143.931C398.259 137.951 395.668 128.781 395.668 116.421C395.668 107.251 396.997 98.6123 399.655 90.5054C402.313 82.3985 406.233 75.2218 411.416 68.9755C416.599 62.5962 422.912 57.6125 430.355 54.0242C437.797 50.4358 446.303 48.6417 455.872 48.6417ZM448.496 61.7988C444.774 61.7988 441.319 62.9949 438.129 65.3872C435.073 67.7794 432.348 71.3012 429.956 75.9528C427.697 80.6043 425.969 86.3855 424.773 93.2963C423.577 100.207 422.979 108.248 422.979 117.418C422.979 122.867 423.643 127.186 424.972 130.376C426.301 133.432 428.162 134.961 430.554 134.961C433.478 134.961 436.202 133.499 438.727 130.575C441.253 127.518 443.512 123.465 445.505 118.415C447.632 113.231 449.426 107.517 450.888 101.27C452.483 94.8911 453.745 88.4454 454.676 81.9333C455.739 75.2883 456.403 68.9755 456.669 62.9949C456.005 62.7291 454.808 62.4633 453.081 62.1975C451.486 61.9317 449.958 61.7988 448.496 61.7988Z" fill="black"/>
<path d="M554.516 48.6417C560.63 48.6417 566.079 49.6384 570.863 51.6319C575.78 53.6254 579.634 56.4164 582.425 60.0047C585.349 63.4601 586.811 67.6465 586.811 72.5638C586.811 76.5508 585.615 79.8069 583.223 82.332C580.963 84.8571 577.907 86.1861 574.053 86.319C569.534 86.4519 566.344 85.1229 564.484 82.332C562.623 79.4082 561.693 76.8166 561.693 74.5573C561.693 73.3612 561.826 72.0322 562.091 70.5703C562.49 68.9755 563.022 67.5136 563.686 66.1846C563.155 64.9885 562.025 63.9917 560.297 63.1943C558.57 62.264 556.51 61.7988 554.117 61.7988C549.865 61.7988 546.343 63.2608 543.552 66.1846C540.894 68.9755 538.767 72.5638 537.173 76.9495C535.711 81.3353 534.647 85.9868 533.983 90.9041C533.318 95.6885 532.92 100.074 532.787 104.061C532.521 111.238 533.186 117.019 534.78 121.405C536.375 125.791 538.502 128.98 541.16 130.974C543.818 132.967 546.542 134.097 549.333 134.363C551.858 134.496 554.715 134.163 557.905 133.366C561.095 132.436 564.351 130.509 567.673 127.585C570.996 124.528 573.986 119.876 576.644 113.63L588.007 119.212C584.286 127.85 580.1 134.628 575.448 139.546C570.796 144.463 565.879 147.919 560.696 149.912C555.513 151.773 550.13 152.703 544.549 152.703C532.853 152.57 523.417 148.982 516.241 141.938C509.064 134.894 505.476 123.996 505.476 109.244C505.476 102.865 506.473 96.1537 508.466 89.1099C510.46 82.0662 513.45 75.4876 517.437 69.3742C521.557 63.2608 526.673 58.277 532.787 54.4229C538.9 50.5687 546.143 48.6417 554.516 48.6417Z" fill="black"/>
<path d="M666.91 152.703C661.062 152.703 656.278 150.842 652.556 147.121C648.835 143.4 645.18 136.688 641.592 126.987C640.263 123.398 639.067 120.209 638.004 117.418C636.941 114.627 635.678 112.766 634.216 111.836C633.685 111.437 633.086 111.171 632.422 111.039C631.89 110.773 631.292 110.773 630.628 111.039C629.83 114.76 629.232 119.212 628.834 124.395C628.435 129.445 628.236 133.698 628.236 137.154C628.236 138.881 628.302 141.074 628.435 143.732C628.568 146.39 628.701 148.649 628.834 150.51H602.918C602.652 147.719 602.453 145.726 602.32 144.53C602.32 143.333 602.32 142.071 602.32 140.742C602.32 139.28 602.386 136.29 602.519 131.771C602.785 127.12 603.117 121.405 603.516 114.627C603.915 107.849 604.446 100.34 605.111 92.1002C605.775 83.7275 606.506 75.0225 607.304 65.9852C608.234 56.948 609.297 47.9772 610.493 39.0728C610.759 36.4148 611.158 33.4245 611.689 30.102C612.354 26.6466 612.952 23.457 613.484 20.5332C611.357 20.6661 608.766 20.799 605.709 20.9319C602.785 20.9319 600.592 20.9983 599.13 21.1312L599.928 5.98054C606.174 5.98054 611.357 5.64829 615.477 4.98378C619.597 4.31928 622.853 3.52188 625.245 2.59157C627.77 1.66127 629.498 0.79741 630.428 0H641.193C640.529 4.78443 639.798 9.76821 639.001 14.9513C638.336 20.0016 637.672 25.1847 637.007 30.5007C636.342 35.6838 635.678 41.0663 635.014 46.6482C634.482 52.0971 633.817 56.8815 633.02 61.0014C632.355 65.1214 631.691 68.9755 631.026 72.5638H631.226C634.15 66.7162 637.406 62.0646 640.994 58.6092C644.715 55.0209 648.436 52.4958 652.158 51.0339C656.012 49.4391 659.667 48.6417 663.122 48.6417C668.039 48.6417 672.093 49.5055 675.282 51.2332C678.472 52.9609 680.798 55.4196 682.26 58.6092C683.855 61.6659 684.652 65.3872 684.652 69.7729C684.652 73.7599 683.456 78.2121 681.064 83.1294C678.804 88.0467 674.884 92.6318 669.302 96.8846C663.853 101.137 656.344 104.261 646.775 106.254V106.453C652.357 106.586 656.344 108.048 658.736 110.839C661.261 113.497 663.056 116.222 664.119 119.013C665.448 121.804 666.577 124.262 667.508 126.389C668.571 128.515 669.568 130.176 670.498 131.372C671.561 132.436 672.624 132.967 673.688 132.967C675.15 132.967 676.545 131.97 677.874 129.977C679.336 127.983 680.798 124.395 682.26 119.212L693.025 122.601C692.094 127.385 690.433 132.103 688.041 136.755C685.782 141.273 682.858 145.061 679.269 148.118C675.814 151.175 671.694 152.703 666.91 152.703ZM632.023 98.2801C641.858 98.2801 649.101 95.8214 653.753 90.9041C658.404 85.8539 660.73 79.0759 660.73 70.5703C660.73 68.8426 660.53 67.3142 660.132 65.9852C659.866 64.6562 659.334 63.6595 658.537 62.9949C657.74 62.1975 656.743 61.7988 655.547 61.7988C653.42 61.7988 650.762 63.1943 647.573 65.9852C644.516 68.7761 641.526 72.896 638.602 78.345C635.811 83.7939 633.618 90.4389 632.023 98.2801Z" fill="black"/>
<path d="M840.33 9.96756L839.533 23.1247C836.609 23.2576 834.084 23.6563 831.957 24.3208C829.831 24.9854 828.103 26.5137 826.774 28.9059C825.578 31.1652 824.847 35.0194 824.581 40.4683L821.99 90.3061C821.325 101.736 819.332 111.437 816.009 119.411C812.819 127.385 808.567 133.831 803.251 138.748C798.067 143.666 792.021 147.254 785.11 149.513C778.199 151.64 770.756 152.703 762.782 152.703C751.619 152.703 742.382 151.108 735.073 147.919C727.896 144.729 722.314 140.277 718.327 134.562C714.34 128.847 711.682 122.269 710.353 114.826C709.024 107.384 708.559 99.4098 708.958 90.9041L711.549 42.6611C711.815 39.0728 712.081 35.6174 712.346 32.2949C712.612 28.9724 712.945 26.4473 713.343 24.7196C711.217 24.8525 708.492 24.9854 705.17 25.1183C701.98 25.1183 699.654 25.1847 698.193 25.3176L698.99 9.96756H756.004L755.207 23.1247C752.283 23.2576 749.692 23.6563 747.432 24.3208C745.306 24.9854 743.578 26.5137 742.249 28.9059C741.053 31.1652 740.322 35.0194 740.056 40.4683L737.265 95.2898C736.867 103.663 737.398 110.573 738.86 116.022C740.322 121.338 742.449 125.591 745.239 128.781C748.163 131.838 751.486 134.03 755.207 135.359C758.928 136.688 762.782 137.419 766.769 137.552C774.079 137.818 780.392 136.423 785.708 133.366C791.157 130.309 795.409 125.591 798.466 119.212C801.523 112.833 803.317 104.726 803.849 94.8911L806.64 42.6611C806.905 39.0728 807.171 35.6174 807.437 32.2949C807.703 28.9724 808.035 26.4473 808.434 24.7196C806.307 24.8525 803.649 24.9854 800.46 25.1183C797.27 25.1183 794.944 25.1847 793.482 25.3176L794.08 9.96756H840.33Z" fill="black"/>
<path d="M910.677 9.56888C922.373 9.43598 932.407 10.9643 940.779 14.154C949.285 17.3436 955.664 22.2609 959.917 28.9059C964.303 35.5509 966.031 44.1895 965.1 54.8216C964.702 60.1376 963.173 65.3872 960.515 70.5703C957.99 75.6205 954.269 80.272 949.352 84.5249C944.567 88.6448 938.587 92.0337 931.41 94.6918C924.366 97.3498 916.126 98.8117 906.69 99.0775C903.767 99.2104 901.175 99.2768 898.916 99.2768C896.789 99.2768 894.596 99.2104 892.337 99.0775L891.34 116.62C891.208 120.342 890.942 123.863 890.543 127.186C890.277 130.509 890.011 133.034 889.746 134.761C891.208 134.628 893.068 134.562 895.327 134.562C897.587 134.429 899.78 134.363 901.906 134.363C904.032 134.23 905.561 134.163 906.491 134.163L905.893 149.513H847.084L847.882 136.356C850.806 136.223 853.331 135.825 855.457 135.16C857.584 134.496 859.245 132.967 860.441 130.575C861.77 128.183 862.567 124.329 862.833 119.013L866.82 42.6611C867.086 39.0728 867.352 35.6174 867.618 32.2949C868.016 28.9724 868.349 26.4473 868.614 24.7196C866.488 24.8525 863.83 24.9854 860.64 25.1183C857.451 25.1183 855.125 25.1847 853.663 25.3176L854.46 9.96756C863.896 9.83467 873.266 9.76822 882.569 9.76822C892.005 9.76822 901.374 9.70178 910.677 9.56888ZM909.681 23.5234C906.89 23.5234 904.431 23.8557 902.305 24.5202C900.311 25.1847 898.716 26.6466 897.52 28.9059C896.324 31.1652 895.593 34.6206 895.327 39.2722L893.135 84.1262C894.596 84.2591 896.058 84.392 897.52 84.5249C898.982 84.6578 900.511 84.7242 902.105 84.7242C909.415 84.7242 915.396 83.5281 920.047 81.1359C924.831 78.6108 928.42 75.0225 930.812 70.371C933.204 65.5865 934.6 59.8053 934.998 53.0274C935.264 46.3824 934.6 41.0663 933.005 37.0793C931.41 33.0923 929.217 30.1685 926.426 28.3079C923.768 26.3143 920.911 25.0518 917.854 24.5202C914.93 23.8557 912.206 23.5234 909.681 23.5234Z" fill="black"/>
<path d="M1047.4 6.77795C1052.58 6.77795 1058.16 7.64181 1064.15 9.36952C1070.26 10.9643 1075.91 13.3565 1081.09 16.5461H1081.29L1081.09 8.1734H1096.44L1094.05 54.6222H1080.89C1079.69 43.5915 1076.44 35.1523 1071.12 29.3046C1065.81 23.3241 1058.5 20.3338 1049.19 20.3338C1042.28 20.3338 1036.1 21.9286 1030.65 25.1183C1025.34 28.3079 1020.82 32.6936 1017.1 38.2754C1013.38 43.7243 1010.45 49.9042 1008.33 56.8151C1006.33 63.593 1005.14 70.5703 1004.74 77.7469C1004.21 89.1764 1005.34 99.4097 1008.13 108.447C1011.05 117.351 1015.5 124.395 1021.48 129.578C1027.6 134.761 1035.11 137.419 1044.01 137.552C1051.98 137.685 1060.29 135.825 1068.93 131.97C1077.57 127.983 1085.28 121.604 1092.05 112.833L1099.83 120.807C1092.92 129.711 1085.74 136.489 1078.3 141.141C1070.99 145.659 1063.88 148.716 1056.97 150.311C1050.06 151.906 1043.81 152.703 1038.23 152.703C1028 152.703 1018.76 150.909 1010.52 147.32C1002.41 143.599 995.502 138.549 989.787 132.17C984.072 125.658 979.82 118.149 977.029 109.643C974.238 101.005 973.108 91.7015 973.64 81.734C974.171 72.6967 976.098 63.7259 979.421 54.8216C982.876 45.9172 987.661 37.8767 993.774 30.7001C1000.02 23.3905 1007.6 17.6093 1016.5 13.3565C1025.54 8.9708 1035.84 6.77795 1047.4 6.77795Z" fill="black"/>
<path d="M415.827 183.695H1116.23C1121.97 183.695 1126.62 188.349 1126.62 194.09V208.639C1126.62 231.602 1108.01 250.217 1085.05 250.217H433.151C423.583 250.217 415.827 242.461 415.827 232.893V183.695Z" fill="#75AA7E"/>
<path d="M415.827 183.695H1119.32C1123.35 183.695 1126.62 187.269 1126.62 191.678V218.287C1126.62 235.921 1113.55 250.217 1097.41 250.217H427.998C421.276 250.217 415.827 244.26 415.827 236.913V183.695Z" fill="#75AA7E"/>
<path d="M720.102 232.497L733.711 202.728H736.816L750.425 232.497H747.108L734.605 204.556H735.88L723.377 232.497H720.102ZM725.461 224.545L726.397 221.993H743.706L744.641 224.545H725.461Z" fill="black"/>
<path d="M766.237 232.71C764.309 232.71 762.565 232.271 761.006 231.392C759.447 230.484 758.199 229.194 757.263 227.522C756.356 225.82 755.903 223.751 755.903 221.312C755.903 218.874 756.356 216.819 757.263 215.146C758.171 213.445 759.404 212.155 760.963 211.276C762.523 210.397 764.281 209.957 766.237 209.957C768.363 209.957 770.263 210.439 771.936 211.403C773.637 212.339 774.969 213.672 775.933 215.401C776.897 217.102 777.379 219.073 777.379 221.312C777.379 223.581 776.897 225.565 775.933 227.266C774.969 228.968 773.637 230.3 771.936 231.264C770.263 232.228 768.363 232.71 766.237 232.71ZM754.712 240.748V210.17H757.604V216.889L757.306 221.355L757.731 225.863V240.748H754.712ZM766.024 230.031C767.612 230.031 769.03 229.676 770.277 228.968C771.525 228.23 772.517 227.21 773.254 225.905C773.991 224.573 774.36 223.042 774.36 221.312C774.36 219.583 773.991 218.066 773.254 216.762C772.517 215.458 771.525 214.437 770.277 213.7C769.03 212.963 767.612 212.594 766.024 212.594C764.437 212.594 763.005 212.963 761.729 213.7C760.481 214.437 759.489 215.458 758.752 216.762C758.043 218.066 757.689 219.583 757.689 221.312C757.689 223.042 758.043 224.573 758.752 225.905C759.489 227.21 760.481 228.23 761.729 228.968C763.005 229.676 764.437 230.031 766.024 230.031Z" fill="black"/>
<path d="M783.535 232.497V210.17H786.427V216.252L786.129 215.188C786.753 213.487 787.802 212.197 789.276 211.318C790.75 210.411 792.579 209.957 794.762 209.957V212.892C794.649 212.892 794.535 212.892 794.422 212.892C794.308 212.863 794.195 212.849 794.082 212.849C791.728 212.849 789.885 213.572 788.553 215.018C787.22 216.436 786.554 218.463 786.554 221.1V232.497H783.535Z" fill="black"/>
<path d="M800.272 232.497V210.17H803.291V232.497H800.272ZM801.803 205.237C801.179 205.237 800.655 205.024 800.229 204.599C799.804 204.174 799.591 203.663 799.591 203.068C799.591 202.472 799.804 201.976 800.229 201.579C800.655 201.154 801.179 200.941 801.803 200.941C802.427 200.941 802.951 201.14 803.376 201.537C803.802 201.934 804.014 202.43 804.014 203.025C804.014 203.649 803.802 204.174 803.376 204.599C802.979 205.024 802.455 205.237 801.803 205.237Z" fill="black"/>
<path d="M811.693 232.497V200.941H814.712V232.497H811.693Z" fill="black"/>
<path d="M831.693 232.497V230.328L844.069 218.208C845.203 217.102 846.053 216.138 846.62 215.316C847.187 214.465 847.57 213.672 847.769 212.934C847.967 212.197 848.066 211.503 848.066 210.85C848.066 209.121 847.471 207.76 846.28 206.768C845.118 205.775 843.388 205.279 841.092 205.279C839.334 205.279 837.774 205.549 836.413 206.087C835.081 206.626 833.933 207.462 832.969 208.596L830.8 206.725C831.962 205.364 833.451 204.315 835.265 203.578C837.08 202.841 839.107 202.472 841.347 202.472C843.36 202.472 845.103 202.798 846.578 203.451C848.052 204.074 849.186 204.996 849.98 206.215C850.802 207.434 851.213 208.866 851.213 210.51C851.213 211.474 851.072 212.424 850.788 213.36C850.533 214.295 850.051 215.288 849.342 216.337C848.662 217.357 847.655 218.52 846.323 219.824L834.968 230.966L834.117 229.776H852.574V232.497H831.693Z" fill="black"/>
<path d="M854.951 224.672V222.461L870.729 202.728H874.132L858.481 222.461L856.823 221.95H880.766V224.672H854.951ZM871.75 232.497V224.672L871.835 221.95V215.061H874.812V232.497H871.75Z" fill="black"/>
<path d="M884.334 222.291V219.654H895.477V222.291H884.334Z" fill="black"/>
<path d="M899.182 232.497V230.328L911.557 218.208C912.691 217.102 913.542 216.138 914.109 215.316C914.676 214.465 915.059 213.672 915.257 212.934C915.456 212.197 915.555 211.503 915.555 210.85C915.555 209.121 914.959 207.76 913.769 206.768C912.606 205.775 910.877 205.279 908.58 205.279C906.822 205.279 905.263 205.549 903.902 206.087C902.57 206.626 901.421 207.462 900.457 208.596L898.288 206.725C899.451 205.364 900.939 204.315 902.754 203.578C904.568 202.841 906.596 202.472 908.835 202.472C910.848 202.472 912.592 202.798 914.066 203.451C915.541 204.074 916.675 204.996 917.469 206.215C918.291 207.434 918.702 208.866 918.702 210.51C918.702 211.474 918.56 212.424 918.277 213.36C918.021 214.295 917.54 215.288 916.831 216.337C916.15 217.357 915.144 218.52 913.811 219.824L902.456 230.966L901.606 229.776H920.063V232.497H899.182Z" fill="black"/>
<path d="M936.028 232.753C933.391 232.753 931.166 232.171 929.351 231.009C927.537 229.818 926.162 228.117 925.226 225.905C924.29 223.666 923.823 220.986 923.823 217.868C923.823 214.494 924.39 211.673 925.524 209.405C926.686 207.108 928.288 205.379 930.329 204.216C932.371 203.054 934.738 202.472 937.432 202.472C938.764 202.472 940.04 202.6 941.259 202.855C942.478 203.11 943.556 203.521 944.491 204.088L943.258 206.555C942.493 206.045 941.614 205.69 940.621 205.492C939.629 205.265 938.58 205.152 937.474 205.152C934.27 205.152 931.705 206.172 929.777 208.214C927.877 210.255 926.927 213.303 926.927 217.357C926.927 217.981 926.956 218.761 927.012 219.696C927.097 220.604 927.267 221.511 927.523 222.418L926.459 221.61C926.771 220.136 927.381 218.888 928.288 217.868C929.195 216.819 930.329 216.025 931.69 215.486C933.051 214.947 934.54 214.678 936.156 214.678C938.14 214.678 939.884 215.047 941.387 215.784C942.889 216.521 944.066 217.556 944.917 218.888C945.767 220.221 946.192 221.794 946.192 223.609C946.192 225.452 945.753 227.068 944.874 228.457C943.995 229.818 942.776 230.881 941.217 231.647C939.686 232.384 937.956 232.753 936.028 232.753ZM935.901 230.158C937.318 230.158 938.566 229.903 939.643 229.393C940.749 228.854 941.614 228.103 942.237 227.139C942.861 226.146 943.173 224.998 943.173 223.694C943.173 221.738 942.493 220.178 941.132 219.016C939.799 217.853 937.985 217.272 935.688 217.272C934.157 217.272 932.824 217.556 931.69 218.123C930.556 218.69 929.663 219.47 929.011 220.462C928.359 221.426 928.033 222.532 928.033 223.779C928.033 224.856 928.331 225.891 928.926 226.884C929.521 227.848 930.4 228.641 931.563 229.265C932.754 229.861 934.2 230.158 935.901 230.158Z" fill="black"/>
<path d="M958.797 232.71C956.699 232.71 955.083 232.143 953.949 231.009C952.814 229.875 952.247 228.273 952.247 226.203V205.237H955.267V226.033C955.267 227.337 955.593 228.344 956.245 229.053C956.926 229.761 957.889 230.116 959.137 230.116C960.47 230.116 961.575 229.733 962.454 228.968L963.517 231.136C962.922 231.675 962.199 232.072 961.348 232.327C960.526 232.582 959.676 232.71 958.797 232.71ZM948.25 212.679V210.17H962.071V212.679H948.25Z" fill="black"/>
<path d="M980.412 209.957C982.226 209.957 983.814 210.312 985.175 211.021C986.564 211.701 987.642 212.75 988.407 214.168C989.201 215.585 989.598 217.371 989.598 219.526V232.497H986.578V219.824C986.578 217.471 985.983 215.699 984.792 214.508C983.63 213.289 981.985 212.679 979.859 212.679C978.271 212.679 976.882 213.005 975.691 213.657C974.529 214.281 973.621 215.203 972.969 216.422C972.346 217.612 972.034 219.058 972.034 220.76V232.497H969.014V200.941H972.034V216.294L971.438 215.146C972.147 213.53 973.281 212.268 974.841 211.361C976.4 210.425 978.257 209.957 980.412 209.957Z" fill="black"/>
<path d="M1006.33 232.497V230.328L1018.71 218.208C1019.84 217.102 1020.69 216.138 1021.26 215.316C1021.83 214.465 1022.21 213.672 1022.41 212.934C1022.61 212.197 1022.71 211.503 1022.71 210.85C1022.71 209.121 1022.11 207.76 1020.92 206.768C1019.76 205.775 1018.03 205.279 1015.73 205.279C1013.97 205.279 1012.41 205.549 1011.05 206.087C1009.72 206.626 1008.57 207.462 1007.61 208.596L1005.44 206.725C1006.6 205.364 1008.09 204.315 1009.91 203.578C1011.72 202.841 1013.75 202.472 1015.99 202.472C1018 202.472 1019.74 202.798 1021.22 203.451C1022.69 204.074 1023.83 204.996 1024.62 206.215C1025.44 207.434 1025.85 208.866 1025.85 210.51C1025.85 211.474 1025.71 212.424 1025.43 213.36C1025.17 214.295 1024.69 215.288 1023.98 216.337C1023.3 217.357 1022.29 218.52 1020.96 219.824L1009.61 230.966L1008.76 229.776H1027.21V232.497H1006.33Z" fill="black"/>
<path d="M1042.84 232.753C1040.54 232.753 1038.5 232.157 1036.72 230.966C1034.93 229.747 1033.53 228.018 1032.5 225.778C1031.48 223.51 1030.97 220.788 1030.97 217.612C1030.97 214.437 1031.48 211.729 1032.5 209.49C1033.53 207.221 1034.93 205.492 1036.72 204.301C1038.5 203.082 1040.54 202.472 1042.84 202.472C1045.14 202.472 1047.18 203.082 1048.96 204.301C1050.75 205.492 1052.15 207.221 1053.17 209.49C1054.22 211.729 1054.75 214.437 1054.75 217.612C1054.75 220.788 1054.22 223.51 1053.17 225.778C1052.15 228.018 1050.75 229.747 1048.96 230.966C1047.18 232.157 1045.14 232.753 1042.84 232.753ZM1042.84 229.946C1044.6 229.946 1046.13 229.478 1047.43 228.542C1048.74 227.578 1049.76 226.189 1050.49 224.374C1051.23 222.532 1051.6 220.278 1051.6 217.612C1051.6 214.947 1051.23 212.708 1050.49 210.893C1049.76 209.05 1048.74 207.661 1047.43 206.725C1046.13 205.761 1044.6 205.279 1042.84 205.279C1041.14 205.279 1039.62 205.761 1038.29 206.725C1036.96 207.661 1035.92 209.05 1035.18 210.893C1034.45 212.708 1034.08 214.947 1034.08 217.612C1034.08 220.278 1034.45 222.532 1035.18 224.374C1035.92 226.189 1036.96 227.578 1038.29 228.542C1039.62 229.478 1041.14 229.946 1042.84 229.946Z" fill="black"/>
<path d="M1058.58 232.497V230.328L1070.96 218.208C1072.09 217.102 1072.94 216.138 1073.51 215.316C1074.07 214.465 1074.46 213.672 1074.65 212.934C1074.85 212.197 1074.95 211.503 1074.95 210.85C1074.95 209.121 1074.36 207.76 1073.17 206.768C1072 205.775 1070.27 205.279 1067.98 205.279C1066.22 205.279 1064.66 205.549 1063.3 206.087C1061.97 206.626 1060.82 207.462 1059.86 208.596L1057.69 206.725C1058.85 205.364 1060.34 204.315 1062.15 203.578C1063.97 202.841 1065.99 202.472 1068.23 202.472C1070.25 202.472 1071.99 202.798 1073.46 203.451C1074.94 204.074 1076.07 204.996 1076.87 206.215C1077.69 207.434 1078.1 208.866 1078.1 210.51C1078.1 211.474 1077.96 212.424 1077.67 213.36C1077.42 214.295 1076.94 215.288 1076.23 216.337C1075.55 217.357 1074.54 218.52 1073.21 219.824L1061.85 230.966L1061 229.776H1079.46V232.497H1058.58Z" fill="black"/>
<path d="M1095.43 232.753C1092.79 232.753 1090.56 232.171 1088.75 231.009C1086.93 229.818 1085.56 228.117 1084.62 225.905C1083.69 223.666 1083.22 220.986 1083.22 217.868C1083.22 214.494 1083.79 211.673 1084.92 209.405C1086.08 207.108 1087.69 205.379 1089.73 204.216C1091.77 203.054 1094.14 202.472 1096.83 202.472C1098.16 202.472 1099.44 202.6 1100.66 202.855C1101.88 203.11 1102.95 203.521 1103.89 204.088L1102.66 206.555C1101.89 206.045 1101.01 205.69 1100.02 205.492C1099.03 205.265 1097.98 205.152 1096.87 205.152C1093.67 205.152 1091.1 206.172 1089.17 208.214C1087.27 210.255 1086.32 213.303 1086.32 217.357C1086.32 217.981 1086.35 218.761 1086.41 219.696C1086.5 220.604 1086.67 221.511 1086.92 222.418L1085.86 221.61C1086.17 220.136 1086.78 218.888 1087.69 217.868C1088.59 216.819 1089.73 216.025 1091.09 215.486C1092.45 214.947 1093.94 214.678 1095.55 214.678C1097.54 214.678 1099.28 215.047 1100.78 215.784C1102.29 216.521 1103.46 217.556 1104.31 218.888C1105.17 220.221 1105.59 221.794 1105.59 223.609C1105.59 225.452 1105.15 227.068 1104.27 228.457C1103.39 229.818 1102.17 230.881 1100.61 231.647C1099.08 232.384 1097.35 232.753 1095.43 232.753ZM1095.3 230.158C1096.72 230.158 1097.96 229.903 1099.04 229.393C1100.15 228.854 1101.01 228.103 1101.64 227.139C1102.26 226.146 1102.57 224.998 1102.57 223.694C1102.57 221.738 1101.89 220.178 1100.53 219.016C1099.2 217.853 1097.38 217.272 1095.09 217.272C1093.55 217.272 1092.22 217.556 1091.09 218.123C1089.95 218.69 1089.06 219.47 1088.41 220.462C1087.76 221.426 1087.43 222.532 1087.43 223.779C1087.43 224.856 1087.73 225.891 1088.32 226.884C1088.92 227.848 1089.8 228.641 1090.96 229.265C1092.15 229.861 1093.6 230.158 1095.3 230.158Z" fill="black"/>
<path d="M442.723 234.917V207.699L445.7 210.676H436.769V205.147H449.613V234.917H442.723Z" fill="black"/>
<path d="M467.543 235.427C465.104 235.427 462.921 234.832 460.993 233.641C459.065 232.422 457.548 230.664 456.443 228.367C455.337 226.071 454.784 223.292 454.784 220.032C454.784 216.771 455.337 213.993 456.443 211.696C457.548 209.4 459.065 207.656 460.993 206.465C462.921 205.246 465.104 204.637 467.543 204.637C470.009 204.637 472.192 205.246 474.092 206.465C476.02 207.656 477.537 209.4 478.642 211.696C479.748 213.993 480.301 216.771 480.301 220.032C480.301 223.292 479.748 226.071 478.642 228.367C477.537 230.664 476.02 232.422 474.092 233.641C472.192 234.832 470.009 235.427 467.543 235.427ZM467.543 229.601C468.705 229.601 469.711 229.275 470.562 228.623C471.441 227.971 472.121 226.936 472.603 225.518C473.114 224.1 473.369 222.272 473.369 220.032C473.369 217.792 473.114 215.963 472.603 214.546C472.121 213.128 471.441 212.093 470.562 211.441C469.711 210.789 468.705 210.463 467.543 210.463C466.408 210.463 465.402 210.789 464.523 211.441C463.672 212.093 462.992 213.128 462.482 214.546C462 215.963 461.759 217.792 461.759 220.032C461.759 222.272 462 224.1 462.482 225.518C462.992 226.936 463.672 227.971 464.523 228.623C465.402 229.275 466.408 229.601 467.543 229.601Z" fill="black"/>
<path d="M504.964 234.917V222.754L506.537 226.922L493.439 205.147H500.753L510.79 221.861H506.58L516.659 205.147H523.421L510.322 226.922L511.853 222.754V234.917H504.964Z" fill="black"/>
<path d="M532.391 217.14H546.723V222.499H532.391V217.14ZM532.901 229.388H549.105V234.917H526.054V205.147H548.552V210.676H532.901V229.388Z" fill="black"/>
<path d="M550.674 234.917L563.943 205.147H570.747L584.059 234.917H576.829L565.942 208.634H568.663L557.734 234.917H550.674ZM557.308 228.538L559.137 223.307H574.447L576.318 228.538H557.308Z" fill="black"/>
<path d="M587.147 234.917V205.147H600.033C602.698 205.147 604.995 205.587 606.923 206.465C608.851 207.316 610.339 208.549 611.388 210.165C612.437 211.781 612.962 213.709 612.962 215.949C612.962 218.161 612.437 220.074 611.388 221.691C610.339 223.278 608.851 224.497 606.923 225.348C604.995 226.199 602.698 226.624 600.033 226.624H590.975L594.037 223.604V234.917H587.147ZM606.072 234.917L598.63 224.115H605.987L613.515 234.917H606.072ZM594.037 224.37L590.975 221.138H599.65C601.777 221.138 603.365 220.684 604.414 219.777C605.463 218.841 605.987 217.565 605.987 215.949C605.987 214.305 605.463 213.029 604.414 212.122C603.365 211.214 601.777 210.761 599.65 210.761H590.975L594.037 207.486V224.37Z" fill="black"/>
<path d="M628.202 235.427C625.82 235.427 623.538 235.115 621.355 234.492C619.172 233.839 617.414 233.003 616.081 231.982L618.42 226.794C619.696 227.701 621.199 228.453 622.928 229.048C624.686 229.615 626.458 229.898 628.244 229.898C629.605 229.898 630.697 229.771 631.519 229.516C632.37 229.232 632.993 228.849 633.39 228.367C633.787 227.885 633.986 227.333 633.986 226.709C633.986 225.915 633.674 225.291 633.05 224.838C632.426 224.356 631.604 223.973 630.583 223.689C629.563 223.377 628.429 223.094 627.181 222.839C625.962 222.555 624.729 222.215 623.481 221.818C622.262 221.421 621.142 220.911 620.122 220.287C619.101 219.663 618.264 218.841 617.612 217.82C616.989 216.8 616.677 215.496 616.677 213.908C616.677 212.207 617.13 210.662 618.038 209.272C618.973 207.855 620.362 206.735 622.205 205.913C624.077 205.062 626.416 204.637 629.223 204.637C631.094 204.637 632.937 204.864 634.751 205.317C636.566 205.742 638.168 206.395 639.557 207.273L637.43 212.504C636.041 211.711 634.652 211.129 633.263 210.761C631.873 210.364 630.513 210.165 629.18 210.165C627.847 210.165 626.756 210.321 625.905 210.633C625.055 210.945 624.445 211.356 624.077 211.867C623.708 212.349 623.524 212.916 623.524 213.568C623.524 214.333 623.836 214.957 624.459 215.439C625.083 215.893 625.905 216.261 626.926 216.545C627.947 216.828 629.067 217.112 630.286 217.395C631.533 217.679 632.767 218.005 633.986 218.373C635.233 218.742 636.367 219.238 637.388 219.862C638.409 220.486 639.231 221.308 639.855 222.328C640.507 223.349 640.833 224.639 640.833 226.199C640.833 227.871 640.365 229.402 639.429 230.792C638.494 232.181 637.09 233.301 635.219 234.151C633.376 235.002 631.037 235.427 628.202 235.427Z" fill="black"/>
<g clip-path="url(#clip0_1218_9235)">
<path d="M376.283 3.82227H0.116577V340.235H400.536V172.028C386.246 170.242 377.96 151.685 375.975 146.723C369.426 130.349 370.319 100.876 374.487 81.2269C378.655 61.578 393.59 49.7192 400.536 46.2459V28.0762C400.536 14.6811 389.678 3.82227 376.283 3.82227Z" fill="#75AA7E"/>
<path d="M219.608 32.1025C219.76 32.3072 222.963 20.2535 233.743 23.8467C242.674 26.8238 237.556 35.0824 235.231 37.9883C229.409 45.2661 223.824 46.8507 219.868 51.0928C219.808 51.23 219.747 51.352 219.678 51.4551C219.655 51.4289 219.63 51.4039 219.607 51.3779C219.605 51.3802 219.603 51.3825 219.601 51.3848C219.593 51.3723 219.586 51.3587 219.578 51.3457C215.613 46.9656 209.953 45.4394 204.048 38.0586C201.724 35.1527 196.605 26.8941 205.537 23.917C215.614 20.5579 219.021 30.8768 219.589 32.0664C219.599 31.9954 219.604 31.9825 219.601 32.0342C219.6 32.0643 219.601 32.0844 219.604 32.0957C219.605 32.0981 219.607 32.1003 219.608 32.1025Z" fill="#B85353"/>
<path d="M72.3347 23.4476C78.9329 23.4476 72.5115 32.7613 78.5794 36.0623C82.8801 38.5381 85.7079 41.5444 87.0628 44.9634C88.8302 49.5023 89.7728 58.9929 89.7728 73.376V254.698C89.7728 271.557 88.1233 282.167 84.8242 286.588C79.581 293.367 87.7698 295.431 76.164 295.431L73.2184 302.622V304.391H175.903V302.622L165.77 296.727C159.172 296.727 158.759 295.077 152.809 291.776C148.391 289.3 145.504 286.294 144.09 282.875C142.323 278.336 141.38 268.904 141.38 254.698V193.608C141.38 193.608 212.311 239.009 221.324 239.009C230.338 239.009 301.269 193.608 301.269 193.608V254.698C301.269 271.557 299.56 282.167 296.084 286.588C290.841 293.367 288.367 296.727 276.938 296.727L266.982 302.622V304.391H387.104V302.622L377.148 296.727C370.55 296.727 370.079 295.077 364.011 291.776C359.71 289.3 356.882 286.294 355.527 282.875C353.76 278.336 352.817 268.904 352.817 254.698V73.376C352.817 59.5823 353.583 50.3865 355.174 45.9065C356.764 41.4265 359.769 38.0666 364.187 35.8266C370.138 32.6434 370.491 31.0518 377.148 31.0518L387.104 25.1571V23.3887H317.941C308.692 23.3887 301.269 30.875 301.269 40.0708V146.338C301.269 146.338 230.22 187.601 221.324 187.601C212.429 187.601 141.38 146.338 141.38 146.338V40.1297C141.38 30.875 133.898 23.4476 124.708 23.4476" fill="#120F0E"/>
<path d="M212.37 217.271C216.494 219.511 217.79 220.926 220.971 220.926C223.858 220.926 226.332 218.686 229.572 217.271L279 189.802V178.602L229.572 205.599C229.572 205.599 223.327 208.9 220.971 208.9C218.614 208.9 212.37 205.599 212.37 205.599L162.942 178.602V189.802L212.37 217.271Z" fill="#F2ED6E"/>
<path d="M271.518 135.1L262.504 129.913L227.51 109.694C223.151 107.159 217.849 107.159 213.489 109.694L169.54 135.1C165.181 137.635 162.53 142.233 162.53 147.243V158.561C162.53 158.561 196.817 176.894 213.489 184.38C221.089 187.799 221.148 187.917 230.279 184.144C246.598 177.366 278.528 158.561 278.528 158.561V147.243C278.528 142.233 275.818 137.576 271.518 135.1Z" fill="#F2ED6E"/>
<path d="M201.471 115.116C201.176 108.337 200.646 98.198 199.88 94.6022C199.762 94.1896 199.704 93.8359 199.586 93.4233C199.468 93.0106 199.35 92.657 199.232 92.3033C198.938 91.5959 198.643 90.8885 198.29 90.2401C198.054 89.7685 197.759 89.3559 197.524 88.9433C196.994 88.2359 196.463 87.5286 195.874 86.9391C195.521 86.5264 195.108 86.1728 194.696 85.8191C194.519 85.6422 194.284 85.4654 194.048 85.2885C193.518 84.817 192.929 84.4043 192.34 83.9917C191.986 83.7559 191.574 83.4612 191.161 83.2254C190.985 83.1075 190.749 82.9896 190.572 82.8717C189.983 82.518 189.335 82.2233 188.746 81.9286C188.157 81.6338 187.509 81.398 186.92 81.1622C186.33 80.9264 185.741 80.6907 185.093 80.5138C184.917 80.4549 184.74 80.3959 184.504 80.337C184.21 80.2191 183.974 80.1601 183.679 80.1012C182.914 79.8654 182.089 79.6886 181.382 79.5117C180.969 75.6801 177.729 72.6738 173.723 72.6738C173.193 72.6738 172.663 72.7328 172.133 72.8507C171.956 72.8507 171.779 72.9096 171.602 72.9686C171.426 73.0275 171.308 73.0865 171.072 73.1454C170.778 73.2633 170.424 73.3812 170.129 73.558C169.953 73.617 169.835 73.7349 169.658 73.7938C169.423 73.9117 169.246 74.0296 169.069 74.2065C168.775 74.4422 168.48 74.678 168.244 74.9138C168.126 75.0317 168.068 75.0907 168.009 75.1496C167.832 75.3265 167.714 75.5033 167.537 75.7391C167.302 76.0338 167.125 76.3286 166.948 76.6822C166.83 76.8591 166.771 77.0359 166.713 77.2128C166.654 77.3896 166.536 77.5075 166.477 77.7433C166.182 78.5686 166.006 79.4528 166.006 80.3959C166.006 81.1622 166.123 81.9286 166.359 82.6949C166.536 83.1664 166.713 83.638 166.948 84.0507C167.125 84.3454 167.302 84.6991 167.537 84.9938C167.832 85.3475 168.185 85.7601 168.539 86.0549C168.892 86.3496 169.305 86.7033 169.717 86.9391C170.012 87.1159 170.365 87.2928 170.719 87.4696C170.954 87.5875 171.19 87.6464 171.426 87.7054C172.133 87.9412 172.898 88.0591 173.723 88.0591C174.312 88.0591 174.901 88.0001 175.491 87.8233C175.785 87.7643 176.08 87.6464 176.315 87.5875C176.61 87.4696 176.846 87.3517 177.081 87.2338C177.317 87.1159 177.611 86.9391 177.847 86.7622C178.554 86.2907 179.202 85.7012 179.732 84.9938C184.445 85.9959 192.693 88.7664 194.225 95.7812C194.284 96.0759 194.343 96.3706 194.401 96.7833C194.401 96.9012 194.401 97.0191 194.46 97.1959C194.519 97.7264 194.637 98.3749 194.696 99.0822C194.755 99.6127 194.814 100.202 194.873 100.851C194.873 101.027 194.873 101.263 194.932 101.44C194.991 102.089 195.049 102.737 195.108 103.385C195.108 103.621 195.108 103.857 195.167 104.034C195.226 105.095 195.285 106.156 195.403 107.276C195.403 107.806 195.462 108.396 195.521 108.926C195.698 112.286 195.815 115.646 195.992 118.299" fill="#120F0E"/>
<path d="M239.587 115.116C239.882 108.337 240.412 98.198 241.178 94.6022C241.296 94.1896 241.355 93.8359 241.473 93.4233C241.59 93.0106 241.708 92.657 241.826 92.3033C242.121 91.5959 242.415 90.8885 242.769 90.2401C243.004 89.7685 243.299 89.3559 243.535 88.9433C244.065 88.2359 244.595 87.5286 245.184 86.9391C245.538 86.5264 245.95 86.1728 246.362 85.8191C246.539 85.6422 246.775 85.4654 247.01 85.2885C247.541 84.817 248.13 84.4043 248.719 83.9917C249.072 83.7559 249.485 83.4612 249.897 83.2254C250.074 83.1075 250.31 82.9896 250.486 82.8717C251.075 82.518 251.723 82.2233 252.313 81.9286C252.902 81.6338 253.55 81.398 254.139 81.1622C254.728 80.9264 255.317 80.6907 255.965 80.5138C256.142 80.4549 256.319 80.3959 256.554 80.337C256.849 80.2191 257.084 80.1601 257.379 80.1012C258.145 79.8654 258.97 79.6886 259.677 79.5117C260.089 75.6801 263.329 72.6738 267.335 72.6738C267.865 72.6738 268.396 72.7328 268.926 72.8507C269.103 72.8507 269.279 72.9096 269.456 72.9686C269.633 73.0275 269.751 73.0865 269.986 73.1454C270.281 73.2633 270.634 73.3812 270.929 73.558C271.106 73.617 271.224 73.7349 271.4 73.7938C271.636 73.9117 271.813 74.0296 271.989 74.2065C272.284 74.4422 272.578 74.678 272.814 74.9138C272.932 75.0317 272.991 75.0907 273.05 75.1496C273.227 75.3265 273.344 75.5033 273.521 75.7391C273.757 76.0338 273.933 76.3286 274.11 76.6822C274.228 76.8591 274.287 77.0359 274.346 77.2128C274.405 77.3896 274.523 77.5075 274.582 77.7433C274.876 78.5686 275.053 79.4528 275.053 80.3959C275.053 81.1622 274.935 81.9286 274.699 82.6949C274.523 83.1664 274.346 83.638 274.11 84.0507C273.933 84.3454 273.757 84.6991 273.521 84.9938C273.227 85.3475 272.873 85.7601 272.52 86.0549C272.166 86.3496 271.754 86.7033 271.341 86.9391C271.047 87.1159 270.693 87.2928 270.34 87.4696C270.104 87.5875 269.869 87.6464 269.633 87.7054C268.926 87.9412 268.16 88.0591 267.335 88.0591C266.746 88.0591 266.157 88.0001 265.568 87.8233C265.273 87.7643 264.979 87.6464 264.743 87.5875C264.449 87.4696 264.213 87.3517 263.977 87.2338C263.742 87.1159 263.447 86.9391 263.211 86.7622C262.504 86.2907 261.856 85.7012 261.326 84.9938C256.613 85.9959 248.365 88.7664 246.834 95.7812C246.775 96.0759 246.716 96.3706 246.657 96.7833C246.657 96.9012 246.657 97.0191 246.598 97.1959C246.539 97.7264 246.421 98.3749 246.362 99.0822C246.304 99.6127 246.245 100.202 246.186 100.851C246.186 101.027 246.186 101.263 246.127 101.44C246.068 102.089 246.009 102.737 245.95 103.385C245.95 103.621 245.95 103.857 245.891 104.034C245.832 105.095 245.773 106.156 245.655 107.276C245.655 107.806 245.597 108.396 245.538 108.926C245.361 112.286 245.243 115.646 245.066 118.299" fill="#120F0E"/>
<path d="M83.8819 31.1172H76.1643V295.496H83.8819V31.1172Z" fill="#120F0E"/>
<path d="M365.542 31.1172H357.825V295.496H365.542V31.1172Z" fill="#120F0E"/>
<path d="M125.769 131.091C129.315 131.091 132.19 128.214 132.19 124.665C132.19 121.117 129.315 118.24 125.769 118.24C122.222 118.24 119.347 121.117 119.347 124.665C119.347 128.214 122.222 131.091 125.769 131.091Z" fill="#2F2927"/>
<path d="M125.769 239.194C129.315 239.194 132.19 236.318 132.19 232.769C132.19 229.22 129.315 226.344 125.769 226.344C122.222 226.344 119.347 229.22 119.347 232.769C119.347 236.318 122.222 239.194 125.769 239.194Z" fill="#2F2927"/>
<path d="M102.557 191.392C106.104 191.392 108.978 188.515 108.978 184.966C108.978 181.418 106.104 178.541 102.557 178.541C99.0105 178.541 96.1356 181.418 96.1356 184.966C96.1356 188.515 99.0105 191.392 102.557 191.392Z" fill="#2F2927"/>
<path d="M102.557 65.1259C106.104 65.1259 108.978 62.2492 108.978 58.7006C108.978 55.1521 106.104 52.2754 102.557 52.2754C99.0105 52.2754 96.1356 55.1521 96.1356 58.7006C96.1356 62.2492 99.0105 65.1259 102.557 65.1259Z" fill="#2F2927"/>
<path d="M107.8 278.694C111.347 278.694 114.222 275.818 114.222 272.269C114.222 268.72 111.347 265.844 107.8 265.844C104.254 265.844 101.379 268.72 101.379 272.269C101.379 275.818 104.254 278.694 107.8 278.694Z" fill="#2F2927"/>
<mask id="mask0_1218_9235" style="mask-type:alpha" maskUnits="userSpaceOnUse" x="72" y="23" width="316" height="282">
<path d="M72.3347 23.4476C78.9329 23.4476 72.5115 32.7613 78.5794 36.0623C82.8801 38.5381 85.7079 41.5444 87.0628 44.9634C88.8302 49.5023 89.7728 58.9929 89.7728 73.376V254.698C89.7728 271.557 88.1233 282.167 84.8242 286.588C79.581 293.367 87.7698 295.431 76.164 295.431L73.2184 302.622V304.391H175.903V302.622L165.77 296.727C159.172 296.727 158.759 295.077 152.809 291.776C148.391 289.3 145.504 286.294 144.09 282.875C142.323 278.336 141.38 268.904 141.38 254.698V163.212C141.38 163.212 212.311 204.475 221.324 204.475C230.338 204.475 301.269 163.212 301.269 163.212V254.698C301.269 271.557 299.56 282.167 296.084 286.588C290.841 293.367 288.367 296.727 276.938 296.727L266.982 302.622V304.391H387.104V302.622L377.148 296.727C370.55 296.727 370.079 295.077 364.011 291.776C359.71 289.3 356.882 286.294 355.527 282.875C353.76 278.336 352.817 268.904 352.817 254.698V73.376C352.817 59.5823 353.583 50.3865 355.174 45.9065C356.764 41.4265 359.769 38.0666 364.187 35.8266C370.138 32.6434 370.491 31.0518 377.148 31.0518L387.104 25.1571V23.3887H317.941C308.692 23.3887 301.269 30.875 301.269 40.0708V147.826C301.269 147.826 230.22 189.09 221.324 189.09C212.429 189.09 141.38 147.826 141.38 147.826V40.1297C141.38 30.875 133.898 23.4476 124.708 23.4476" fill="#120F0E"/>
</mask>
<g mask="url(#mask0_1218_9235)">
<path d="M106.563 18.1463C132.661 36.8326 138.847 69.0768 120.938 95.662C113.632 107.157 106.209 117.001 108.213 128.201C110.451 148.95 140.261 170.348 126.888 194.163C120.643 207.072 102.027 218.272 107.977 233.717C111.865 244.209 118.64 253.7 125.945 262.011C131.424 270.5 126.947 280.933 122.705 288.597C119.465 294.55 115.577 300.091 113.397 305.632C112.808 307.165 111.099 307.872 109.567 307.283C108.095 306.693 107.329 304.984 107.918 303.51C110.51 296.731 114.28 291.367 117.108 285.649C121.232 277.397 125.003 269.085 117.344 262.719C110.039 254.997 105.031 246.331 100.731 236.605C99.2578 233.245 98.1974 228.883 98.7276 225.11C100.495 208.428 119.347 197.936 121.114 182.491C121.35 177.304 119.052 171.881 115.989 166.458C105.797 150.719 89.9496 128.731 101.143 107.569C104.148 100.967 108.036 95.3673 111.158 89.9442C125.238 68.2515 119.995 43.2579 98.6098 28.8747C91.5403 23.6874 99.4345 12.9 106.563 18.2642V18.1463Z" fill="#2F2927"/>
<path d="M345.159 28.7575C323.773 43.1407 318.53 68.0754 332.61 89.8269C338.384 99.6122 346.808 111.343 346.337 123.957C347.044 147.772 323.773 161.507 322.595 182.433C322.595 187.62 325.835 192.454 329.724 197.7C347.986 220.395 350.343 229.591 333.023 254.526C330.372 259.536 323.597 263.721 322.183 269.086C320.946 281.111 331.668 291.898 335.85 303.57C336.44 305.102 335.674 306.812 334.142 307.401C332.61 307.991 330.843 307.166 330.313 305.574C328.074 300.092 324.245 294.61 321.063 288.656C316.822 280.993 312.344 270.559 317.823 262.071C320.769 257.886 324.421 255.056 327.072 250.458C331.314 243.149 337.5 234.543 337.146 226.054C333.73 210.138 314.878 200.294 313.581 183.023C313.051 174.947 316.233 167.755 319.473 161.743C336.44 133.861 343.98 124.547 322.89 95.7217C304.98 69.2543 311.225 36.6565 337.323 18.147C344.452 13.0186 352.287 23.4523 345.218 28.8165L345.159 28.7575Z" fill="#2F2927"/>
</g>
<path d="M318 131.091C321.546 131.091 324.421 128.214 324.421 124.665C324.421 121.117 321.546 118.24 318 118.24C314.454 118.24 311.579 121.117 311.579 124.665C311.579 128.214 314.454 131.091 318 131.091Z" fill="#2F2927"/>
<path d="M318 239.194C321.546 239.194 324.421 236.318 324.421 232.769C324.421 229.22 321.546 226.344 318 226.344C314.453 226.344 311.578 229.22 311.578 232.769C311.578 236.318 314.453 239.194 318 239.194Z" fill="#2F2927"/>
<path d="M341.211 191.392C344.758 191.392 347.633 188.515 347.633 184.966C347.633 181.418 344.758 178.541 341.211 178.541C337.665 178.541 334.79 181.418 334.79 184.966C334.79 188.515 337.665 191.392 341.211 191.392Z" fill="#2F2927"/>
<path d="M341.211 65.1259C344.758 65.1259 347.633 62.2492 347.633 58.7006C347.633 55.1521 344.758 52.2754 341.211 52.2754C337.665 52.2754 334.79 55.1521 334.79 58.7006C334.79 62.2492 337.665 65.1259 341.211 65.1259Z" fill="#2F2927"/>
<path d="M336.027 278.694C339.574 278.694 342.449 275.818 342.449 272.269C342.449 268.72 339.574 265.844 336.027 265.844C332.481 265.844 329.606 268.72 329.606 272.269C329.606 275.818 332.481 278.694 336.027 278.694Z" fill="#2F2927"/>
<path d="M393.094 317.904H73.0556V329.813H393.094V317.904Z" fill="#F2ED6E"/>
<path d="M16.4907 17.2266H59.6586V319.402L16.4907 329.822L12.025 177.246L16.4907 17.2266Z" fill="#A1C8A8"/>
<path d="M391.605 177.693L375.231 158.629V290.475L391.605 295.576V177.693Z" fill="#A1C8A8"/>
<path d="M210.393 100.162C210.337 100.816 210.552 101.48 210.971 102.006C211.391 102.531 211.982 102.875 212.632 102.965C213.282 103.054 213.943 102.882 214.489 102.489C215.035 102.096 215.42 101.514 215.542 100.869C215.542 100.869 215.542 100.869 215.542 100.869C215.926 98.8107 216.224 96.7428 216.453 94.6542C217.565 83.6062 217.286 72.2015 213.217 60.9938C209.69 49.8019 197.82 39.1504 184.744 38.7352C171.113 37.7212 159.005 30.6669 156.575 20.2957C156.237 18.9792 156.079 17.6088 156.144 16.6463C156.166 14.3461 155.266 12.1779 153.574 10.6215C151.887 9.06499 149.546 8.24767 147.134 8.34666C144.723 8.44564 142.457 9.45203 140.903 11.1417C139.344 12.8315 138.624 15.0661 138.835 17.3567C138.835 17.3567 138.835 17.3567 138.835 17.3567C139.075 20.4211 139.779 23.0692 140.717 25.5885C147.943 44.7723 168.616 51.4189 184.229 50.9736C202.955 49.2993 211.21 74.2183 210.66 94.3017C210.641 96.2689 210.557 98.225 210.393 100.162Z" fill="#A1C8A8"/>
<path d="M230.323 99.7815C230.38 100.435 230.166 101.1 229.747 101.626C229.328 102.152 228.737 102.496 228.088 102.586C227.438 102.676 226.776 102.504 226.229 102.112C225.684 101.719 225.298 101.138 225.175 100.493C225.175 100.493 225.175 100.493 225.175 100.493C224.79 98.4398 224.492 96.377 224.262 94.2936C223.147 83.2795 223.426 71.903 227.511 60.7305C231.057 49.5628 242.947 39.0151 255.959 38.6062C269.567 37.5983 281.691 30.5864 284.119 20.2677C284.456 18.9602 284.613 17.5982 284.546 16.6473C284.524 14.3471 285.424 12.1789 287.115 10.6223C288.803 9.0655 291.144 8.24791 293.555 8.34662C295.967 8.44532 298.233 9.45143 299.788 11.1409C301.347 12.8305 302.067 15.065 301.856 17.3557C301.856 17.3557 301.856 17.3557 301.856 17.3557C301.616 20.4211 300.91 23.0675 299.969 25.583C292.693 44.757 272.041 51.282 256.468 50.8413C237.786 49.1458 229.493 73.9074 230.055 93.9386C230.074 95.8998 230.159 97.8503 230.323 99.7815Z" fill="#A1C8A8"/>
<path d="M220.663 264.696C218.674 265.326 216.622 265.099 214.93 263.905C213.239 262.721 212.047 260.667 211.644 258.355C211.241 256.042 211.668 253.706 212.858 252.02C214.046 250.324 215.901 249.415 217.985 249.336C217.985 249.336 217.985 249.336 217.985 249.336C218.83 249.206 219.896 249.142 221.18 249.409C222.261 249.572 224.492 250.582 225.635 251.971C227.934 254.707 227.696 256.933 227.736 257.711C227.724 258.231 227.673 258.678 227.606 259.082C227.544 259.436 227.483 259.686 227.411 259.96C227.27 260.492 227.099 260.974 226.961 261.308C216.452 278.178 201.918 288.417 184.595 287.662C183.677 287.547 182.786 287.379 181.896 287.156C181.7 287.105 181.522 286.967 181.4 286.789C181.279 286.611 181.223 286.406 181.247 286.205C181.271 286.004 181.374 285.818 181.535 285.674C181.696 285.53 181.901 285.439 182.104 285.436C182.104 285.436 182.104 285.436 182.104 285.436C182.95 285.421 183.771 285.353 184.593 285.237C199.066 282.784 209.85 267.17 212.773 256.76C212.754 256.728 212.719 256.73 212.664 256.847C212.637 256.908 212.608 256.979 212.575 257.117C212.54 257.277 212.504 257.498 212.491 257.812C212.534 258.238 212.217 259.907 214.237 262.354C215.243 263.583 217.232 264.479 218.141 264.614C219.233 264.843 220.075 264.781 220.663 264.696Z" fill="#A1C8A8"/>
<path d="M219.564 264.696C221.552 265.326 223.605 265.099 225.297 263.905C226.988 262.721 228.179 260.667 228.582 258.355C228.986 256.042 228.559 253.706 227.369 252.02C226.181 250.324 224.326 249.415 222.241 249.336C222.241 249.336 222.241 249.336 222.241 249.336C221.397 249.206 220.331 249.142 219.046 249.409C217.966 249.572 215.734 250.582 214.592 251.971C212.292 254.707 212.531 256.933 212.491 257.711C212.502 258.231 212.554 258.678 212.621 259.082C212.683 259.436 212.744 259.686 212.815 259.96C212.957 260.492 213.128 260.974 213.265 261.308C223.774 278.178 238.309 288.417 255.631 287.662C256.549 287.547 257.441 287.379 258.33 287.156C258.527 287.105 258.705 286.967 258.826 286.789C258.948 286.611 259.004 286.406 258.98 286.205C258.955 286.004 258.852 285.818 258.692 285.674C258.531 285.53 258.326 285.439 258.123 285.436C258.123 285.436 258.123 285.436 258.123 285.436C257.277 285.421 256.456 285.353 255.634 285.237C241.161 282.784 230.377 267.17 227.453 256.76C227.473 256.728 227.508 256.73 227.563 256.847C227.59 256.908 227.619 256.979 227.652 257.117C227.687 257.277 227.723 257.498 227.736 257.812C227.692 258.238 228.01 259.907 225.99 262.354C224.983 263.583 222.995 264.479 222.086 264.614C220.994 264.843 220.152 264.781 219.564 264.696Z" fill="#A1C8A8"/>
</g>
<path d="M273.234 252.698C273.593 238.3 282.889 234.698 287.492 234.697C295.032 248.002 281.639 260.713 274 265.406C273.595 267.169 272.875 267.097 273.234 252.698Z" fill="#A1C8A8"/>
<path d="M278.714 212.525C267.872 220.721 270.19 231.194 272.705 235.406C287.024 235.034 289.451 215.835 288.874 206.282C290.005 204.948 289.556 204.329 278.714 212.525Z" fill="#A1C8A8"/>
<path d="M253.897 231.087C241.191 234.931 240.227 245.654 241.333 250.536C254.967 255.33 263.04 238.071 265.372 228.842C266.842 227.989 266.604 227.243 253.897 231.087Z" fill="#A1C8A8"/>
<path d="M259.529 249.688C249.53 259.076 252.836 269.227 255.74 273.13C269.945 271.127 270.524 251.756 269.038 242.321C270.035 240.865 269.529 240.301 259.529 249.688Z" fill="#A1C8A8"/>
<path d="M163.145 252.698C162.786 238.3 153.49 234.698 148.887 234.697C141.347 248.002 154.74 260.713 162.379 265.406C162.784 267.169 163.504 267.097 163.145 252.698Z" fill="#A1C8A8"/>
<path d="M157.665 212.525C168.507 220.721 166.189 231.194 163.674 235.406C149.355 235.034 146.928 215.835 147.505 206.282C146.374 204.948 146.823 204.329 157.665 212.525Z" fill="#A1C8A8"/>
<path d="M190.469 235.345C181.896 224.401 172.597 227.992 169.019 231.156C170.822 246.678 188.553 247.352 197.193 245.748C198.523 246.84 199.041 246.289 190.469 235.345Z" fill="#A1C8A8"/>
<path d="M176.85 249.688C186.849 259.076 183.543 269.227 180.64 273.13C166.434 271.127 165.855 251.756 167.341 242.321C166.344 240.865 166.85 240.301 176.85 249.688Z" fill="#A1C8A8"/>
<path d="M158.974 69.7296C162.364 83.6488 154.383 89.9804 149.969 91.4062C139.288 80.9812 148.835 64.645 154.943 57.7801C154.874 55.9636 155.583 55.8104 158.974 69.7296Z" fill="#A1C8A8"/>
<path d="M156.532 126.504C161.913 113.355 154.959 105.713 150.81 103.535C138.743 111.964 145.78 129.756 150.807 137.598C150.473 139.379 151.151 139.654 156.532 126.504Z" fill="#A1C8A8"/>
<path d="M283.114 70.9659C279.724 84.8851 287.705 91.2167 292.119 92.6426C302.8 82.2175 293.254 65.8813 287.145 59.0164C287.214 57.1999 286.505 57.0467 283.114 70.9659Z" fill="#A1C8A8"/>
<path d="M285.556 127.739C280.175 114.589 287.129 106.947 291.278 104.77C303.346 113.199 296.308 130.99 291.281 138.832C291.615 140.613 290.937 140.888 285.556 127.739Z" fill="#A1C8A8"/>
<path d="M268.732 109.525C281.9 108.812 284.989 98.5789 284.887 93.5515C272.544 85.6136 261.21 100.524 257.085 108.971C255.48 109.453 255.563 110.237 268.732 109.525Z" fill="#A1C8A8"/>
<path d="M170.766 108.29C157.598 107.577 154.509 97.3445 154.61 92.3171C166.954 84.3792 178.288 99.2895 182.413 107.737C184.018 108.218 183.935 109.003 170.766 108.29Z" fill="#A1C8A8"/>
<path d="M175.053 55.5288C188.236 55.8014 191.61 65.9265 191.649 70.9549C179.533 79.3014 167.787 64.7766 163.428 56.471C161.811 56.0433 161.871 55.2562 175.053 55.5288Z" fill="#A1C8A8"/>
<path d="M251.542 20.2549C259.211 8.5387 268.761 11.2331 272.577 14.0448C272.015 29.6801 254.405 32.0342 245.671 31.2568C244.432 32.4713 243.872 31.9711 251.542 20.2549Z" fill="#A1C8A8"/>
<path d="M187.872 20.2549C180.203 8.5387 170.653 11.2331 166.837 14.0448C167.398 29.6801 185.008 32.0342 193.743 31.2568C194.982 32.4713 195.541 31.9711 187.872 20.2549Z" fill="#A1C8A8"/>
<path d="M265.495 55.5288C252.312 55.8014 248.938 65.9265 248.899 70.9549C261.015 79.3014 272.761 64.7766 277.12 56.471C278.738 56.0433 278.677 55.2562 265.495 55.5288Z" fill="#A1C8A8"/>
<defs>
<clipPath id="clip0_1218_9235">
<rect width="400.344" height="336.653" fill="white" transform="translate(0 3.34766)"/>
</clipPath>
</defs>
</svg>
