<svg width="378" height="188" viewBox="0 0 378 188" fill="none" xmlns="http://www.w3.org/2000/svg">
<path d="M205.534 22.7921C207.278 22.7921 209.302 22.9789 211.606 23.3526C213.972 23.6639 216.432 24.131 218.985 24.7537C218.674 27.0578 218.269 29.8913 217.771 33.254C217.273 36.6168 216.774 40.073 216.276 43.6226C215.84 47.1099 215.467 50.3481 215.155 53.3372C214.844 56.2641 214.688 58.5371 214.688 60.1562C214.688 61.2771 214.813 62.0244 215.062 62.398C215.373 62.7094 215.685 62.8651 215.996 62.8651C216.743 62.8651 217.522 62.3358 218.331 61.2771C219.141 60.2185 219.95 58.288 220.76 55.4857L225.804 56.9802C225.555 58.288 225.119 59.7825 224.496 61.4639C223.874 63.1453 223.033 64.7644 221.974 66.3213C220.978 67.8158 219.701 69.0613 218.144 70.0577C216.65 71.054 214.875 71.5522 212.82 71.5522C210.827 71.5522 209.084 70.9606 207.589 69.7774C206.095 68.5942 205.347 66.3524 205.347 63.0519C205.347 62.2423 205.378 61.3394 205.441 60.343C205.503 59.3466 205.596 58.4437 205.721 57.6341H205.628C204.507 60.3119 203.292 62.5537 201.985 64.3596C200.739 66.1656 199.431 67.5979 198.061 68.6565C196.754 69.7152 195.384 70.4624 193.951 70.8984C192.581 71.3343 191.18 71.5522 189.748 71.5522C186.323 71.5522 183.396 70.1822 180.967 67.4422C178.539 64.6399 177.324 60.343 177.324 54.5516C177.324 50.2547 177.947 46.2069 179.192 42.4082C180.438 38.6096 182.275 35.2468 184.704 32.3199C187.132 29.3308 190.09 26.9956 193.578 25.3142C197.065 23.6328 201.05 22.7921 205.534 22.7921ZM202.078 28.9572C200.334 28.9572 198.715 29.5176 197.221 30.6386C195.788 31.7595 194.512 33.4097 193.391 35.5893C192.332 37.7689 191.523 40.4778 190.962 43.716C190.402 46.9542 190.121 50.7218 190.121 55.0186C190.121 57.5718 190.433 59.5957 191.056 61.0903C191.678 62.5226 192.55 63.2387 193.671 63.2387C195.041 63.2387 196.318 62.5537 197.501 61.1837C198.684 59.7514 199.743 57.8521 200.677 55.4857C201.673 53.057 202.514 50.3792 203.199 47.4524C203.946 44.4633 204.538 41.443 204.974 38.3916C205.472 35.2779 205.783 32.3199 205.908 29.5176C205.596 29.3931 205.036 29.2685 204.226 29.144C203.479 29.0194 202.763 28.9572 202.078 28.9572Z" fill="black"/>
<path d="M251.756 22.7921C254.621 22.7921 257.174 23.2591 259.416 24.1933C261.72 25.1274 263.526 26.4351 264.834 28.1165C266.204 29.7356 266.889 31.6972 266.889 34.0013C266.889 35.8695 266.328 37.3952 265.207 38.5784C264.149 39.7616 262.716 40.3844 260.91 40.4466C258.793 40.5089 257.298 39.8862 256.427 38.5784C255.555 37.2084 255.119 35.9941 255.119 34.9354C255.119 34.375 255.181 33.7522 255.306 33.0672C255.493 32.3199 255.742 31.6349 256.053 31.0122C255.804 30.4517 255.275 29.9847 254.465 29.611C253.655 29.1751 252.69 28.9572 251.569 28.9572C249.577 28.9572 247.926 29.6422 246.619 31.0122C245.373 32.3199 244.377 34.0013 243.629 36.0563C242.944 38.1114 242.446 40.2909 242.135 42.5951C241.823 44.8369 241.637 46.8919 241.574 48.7601C241.45 52.1229 241.761 54.8318 242.508 56.8868C243.256 58.9419 244.252 60.4364 245.498 61.3705C246.743 62.3046 248.02 62.8339 249.327 62.9585C250.511 63.0208 251.85 62.8651 253.344 62.4914C254.839 62.0555 256.364 61.1526 257.921 59.7825C259.478 58.3503 260.879 56.1707 262.125 53.2438L267.449 55.8593C265.705 59.9071 263.744 63.083 261.564 65.3872C259.385 67.6913 257.08 69.3104 254.652 70.2445C252.223 71.1163 249.701 71.5522 247.086 71.5522C241.606 71.49 237.184 69.8086 233.821 66.5081C230.459 63.2076 228.777 58.1012 228.777 51.1888C228.777 48.1997 229.244 45.0549 230.178 41.7544C231.112 38.4539 232.514 35.3713 234.382 32.5068C236.312 29.6422 238.71 27.3069 241.574 25.501C244.439 23.6951 247.833 22.7921 251.756 22.7921Z" fill="black"/>
<path d="M304.42 71.5522C301.68 71.5522 299.439 70.6804 297.695 68.9367C295.951 67.1931 294.239 64.0483 292.557 59.5023C291.935 57.8209 291.374 56.3264 290.876 55.0186C290.378 53.7109 289.786 52.8391 289.101 52.4031C288.852 52.2163 288.572 52.0918 288.261 52.0295C288.011 51.9049 287.731 51.9049 287.42 52.0295C287.046 53.7732 286.766 55.8593 286.579 58.288C286.392 60.6544 286.299 62.6471 286.299 64.2662C286.299 65.0758 286.33 66.1033 286.392 67.3488C286.455 68.5942 286.517 69.6529 286.579 70.5247H274.436C274.311 69.217 274.218 68.2829 274.156 67.7224C274.156 67.1619 274.156 66.5704 274.156 65.9476C274.156 65.2626 274.187 63.8615 274.249 61.7442C274.374 59.5646 274.529 56.8868 274.716 53.7109C274.903 50.5349 275.152 47.0165 275.463 43.1555C275.775 39.2323 276.117 35.1534 276.491 30.9188C276.927 26.6842 277.425 22.4807 277.985 18.3084C278.11 17.0629 278.297 15.6618 278.546 14.1049C278.857 12.4858 279.137 10.9913 279.387 9.62126C278.39 9.68353 277.176 9.7458 275.744 9.80807C274.374 9.80807 273.346 9.83921 272.661 9.90148L273.035 2.80231C275.962 2.80231 278.39 2.64663 280.321 2.33526C282.251 2.02389 283.777 1.65025 284.898 1.21433C286.081 0.778421 286.891 0.373643 287.326 0H292.371C292.059 2.24185 291.717 4.5771 291.343 7.00577C291.032 9.37216 290.72 11.8008 290.409 14.2918C290.098 16.7204 289.786 19.2425 289.475 21.858C289.226 24.4112 288.914 26.6531 288.541 28.5835C288.229 30.514 287.918 32.3199 287.607 34.0013H287.7C289.07 31.2613 290.596 29.0817 292.277 27.4626C294.021 25.7812 295.764 24.598 297.508 23.913C299.314 23.1657 301.027 22.7921 302.646 22.7921C304.95 22.7921 306.849 23.1969 308.344 24.0064C309.838 24.816 310.928 25.968 311.613 27.4626C312.36 28.8949 312.734 30.6386 312.734 32.6936C312.734 34.5618 312.174 36.6479 311.053 38.9521C309.994 41.2562 308.157 43.4046 305.541 45.3974C302.988 47.3901 299.47 48.8535 294.986 49.7876V49.8811C297.602 49.9433 299.47 50.6283 300.591 51.9361C301.774 53.1816 302.615 54.4582 303.113 55.7659C303.735 57.0737 304.265 58.2257 304.701 59.2221C305.199 60.2185 305.666 60.9969 306.102 61.5573C306.6 62.0555 307.098 62.3046 307.596 62.3046C308.281 62.3046 308.935 61.8376 309.558 60.9035C310.243 59.9694 310.928 58.288 311.613 55.8593L316.657 57.4473C316.221 59.6891 315.443 61.8998 314.322 64.0794C313.263 66.1967 311.893 67.9715 310.212 69.4038C308.593 70.8361 306.662 71.5522 304.42 71.5522ZM288.074 46.0512C292.682 46.0512 296.076 44.8992 298.255 42.5951C300.435 40.2287 301.525 37.0527 301.525 33.0672C301.525 32.2577 301.431 31.5415 301.245 30.9188C301.12 30.2961 300.871 29.829 300.497 29.5176C300.124 29.144 299.657 28.9572 299.096 28.9572C298.1 28.9572 296.854 29.611 295.36 30.9188C293.927 32.2265 292.526 34.157 291.156 36.7102C289.848 39.2634 288.821 42.3771 288.074 46.0512Z" fill="black"/>
<path d="M254.325 80.4885L253.952 86.6535C252.582 86.7158 251.399 86.9026 250.402 87.214C249.406 87.5254 248.596 88.2415 247.973 89.3624C247.413 90.4211 247.071 92.227 246.946 94.7802L245.732 118.133C245.42 123.488 244.486 128.034 242.929 131.771C241.435 135.507 239.442 138.527 236.951 140.831C234.522 143.136 231.689 144.817 228.451 145.876C225.213 146.872 221.725 147.37 217.989 147.37C212.758 147.37 208.43 146.623 205.005 145.128C201.642 143.634 199.027 141.548 197.158 138.87C195.29 136.192 194.045 133.11 193.422 129.622C192.799 126.135 192.581 122.399 192.768 118.413L193.982 95.8077C194.107 94.1264 194.231 92.5073 194.356 90.9504C194.481 89.3936 194.636 88.2104 194.823 87.4008C193.827 87.4631 192.55 87.5254 190.993 87.5877C189.499 87.5877 188.409 87.6188 187.724 87.6811L188.098 80.4885H214.813L214.439 86.6535C213.069 86.7158 211.855 86.9026 210.796 87.214C209.8 87.5254 208.99 88.2415 208.368 89.3624C207.807 90.4211 207.465 92.227 207.34 94.7802L206.032 120.468C205.845 124.391 206.095 127.629 206.78 130.183C207.465 132.674 208.461 134.666 209.769 136.161C211.139 137.593 212.696 138.621 214.439 139.243C216.183 139.866 217.989 140.209 219.857 140.271C223.282 140.396 226.24 139.742 228.731 138.309C231.284 136.877 233.277 134.666 234.709 131.677C236.142 128.688 236.982 124.889 237.231 120.281L238.539 95.8077C238.664 94.1264 238.788 92.5073 238.913 90.9504C239.037 89.3936 239.193 88.2104 239.38 87.4008C238.383 87.4631 237.138 87.5254 235.643 87.5877C234.149 87.5877 233.059 87.6188 232.374 87.6811L232.654 80.4885H254.325Z" fill="black"/>
<path d="M287.288 80.3017C292.768 80.2394 297.47 80.9555 301.393 82.4501C305.379 83.9447 308.368 86.2488 310.361 89.3624C312.416 92.4761 313.225 96.5239 312.789 101.506C312.602 103.997 311.886 106.457 310.641 108.885C309.458 111.252 307.714 113.431 305.41 115.424C303.168 117.354 300.366 118.942 297.003 120.188C293.702 121.433 289.841 122.118 285.42 122.243C284.05 122.305 282.836 122.336 281.777 122.336C280.781 122.336 279.753 122.305 278.694 122.243L278.227 130.463C278.165 132.207 278.041 133.857 277.854 135.414C277.729 136.971 277.605 138.154 277.48 138.963C278.165 138.901 279.037 138.87 280.096 138.87C281.154 138.808 282.182 138.776 283.178 138.776C284.175 138.714 284.891 138.683 285.327 138.683L285.046 145.876H257.49L257.864 139.711C259.234 139.648 260.417 139.461 261.414 139.15C262.41 138.839 263.188 138.123 263.749 137.002C264.372 135.881 264.745 134.075 264.87 131.584L266.738 95.8077C266.863 94.1264 266.987 92.5073 267.112 90.9504C267.298 89.3936 267.454 88.2104 267.579 87.4008C266.582 87.4631 265.337 87.5254 263.842 87.5877C262.348 87.5877 261.258 87.6188 260.573 87.6811L260.947 80.4885C265.368 80.4262 269.758 80.3951 274.117 80.3951C278.539 80.3951 282.929 80.3639 287.288 80.3017ZM286.821 86.8404C285.513 86.8404 284.361 86.996 283.365 87.3074C282.431 87.6188 281.684 88.3038 281.123 89.3624C280.563 90.4211 280.22 92.0402 280.096 94.2198L279.068 115.237C279.753 115.299 280.438 115.362 281.123 115.424C281.808 115.486 282.524 115.517 283.272 115.517C286.697 115.517 289.499 114.957 291.679 113.836C293.92 112.653 295.602 110.971 296.723 108.792C297.844 106.55 298.497 103.841 298.684 100.665C298.809 97.5514 298.497 95.0605 297.75 93.1923C297.003 91.3241 295.975 89.954 294.668 89.0822C293.422 88.1481 292.083 87.5565 290.651 87.3074C289.281 86.996 288.004 86.8404 286.821 86.8404Z" fill="black"/>
<path d="M351.352 78.9939C353.781 78.9939 356.396 79.3987 359.199 80.2082C362.063 80.9555 364.71 82.0764 367.139 83.571H367.232L367.139 79.6478H374.331L373.21 101.412H367.045C366.485 96.2437 364.959 92.2893 362.468 89.5493C359.977 86.747 356.552 85.3458 352.193 85.3458C348.955 85.3458 346.059 86.0931 343.506 87.5877C341.015 89.0822 338.898 91.1372 337.154 93.7527C335.41 96.3059 334.04 99.2017 333.044 102.44C332.11 105.616 331.549 108.885 331.363 112.248C331.113 117.603 331.643 122.399 332.95 126.633C334.321 130.805 336.407 134.106 339.209 136.535C342.074 138.963 345.592 140.209 349.764 140.271C353.501 140.333 357.393 139.461 361.441 137.656C365.488 135.787 369.1 132.798 372.276 128.688L375.919 132.425C372.681 136.597 369.318 139.773 365.831 141.952C362.406 144.07 359.074 145.502 355.836 146.249C352.598 146.997 349.671 147.37 347.055 147.37C342.26 147.37 337.932 146.529 334.071 144.848C330.273 143.104 327.035 140.738 324.357 137.749C321.679 134.698 319.686 131.179 318.378 127.194C317.071 123.146 316.541 118.787 316.791 114.116C317.04 109.882 317.943 105.678 319.499 101.506C321.119 97.3334 323.36 93.5659 326.225 90.2031C329.152 86.7781 332.701 84.0692 336.874 82.0764C341.108 80.0214 345.935 78.9939 351.352 78.9939Z" fill="black"/>
<path d="M14.3232 156.462H372C375.314 156.462 378 159.148 378 162.462V163.599C378 176.854 367.255 187.599 354 187.599H24.3232C18.8004 187.599 14.3232 183.122 14.3232 177.599V156.462Z" fill="#75AA7E"/>
<path d="M14.3232 156.462H374.264C376.327 156.462 378 158.135 378 160.199V172.653C378 180.908 371.309 187.599 363.055 187.599H20.5506C17.1113 187.599 14.3232 184.811 14.3232 181.372V156.462Z" fill="#75AA7E"/>
<path d="M186.16 178.88L192.537 164.931H193.992L200.368 178.88H198.814L192.955 165.788H193.553L187.695 178.88H186.16ZM188.671 175.154L189.109 173.958H197.22L197.658 175.154H188.671Z" fill="black"/>
<path d="M207.777 178.98C206.874 178.98 206.057 178.774 205.326 178.362C204.596 177.937 204.011 177.333 203.573 176.549C203.148 175.752 202.935 174.782 202.935 173.64C202.935 172.497 203.148 171.534 203.573 170.75C203.998 169.953 204.576 169.348 205.306 168.937C206.037 168.525 206.861 168.319 207.777 168.319C208.774 168.319 209.664 168.545 210.448 168.996C211.245 169.435 211.869 170.059 212.321 170.87C212.773 171.667 212.998 172.59 212.998 173.64C212.998 174.702 212.773 175.632 212.321 176.429C211.869 177.226 211.245 177.851 210.448 178.303C209.664 178.754 208.774 178.98 207.777 178.98ZM202.377 182.746V168.419H203.732V171.567L203.593 173.659L203.792 175.772V182.746H202.377ZM207.678 177.725C208.422 177.725 209.086 177.559 209.671 177.226C210.255 176.881 210.72 176.403 211.066 175.792C211.411 175.167 211.584 174.45 211.584 173.64C211.584 172.829 211.411 172.118 211.066 171.507C210.72 170.896 210.255 170.418 209.671 170.072C209.086 169.727 208.422 169.554 207.678 169.554C206.934 169.554 206.263 169.727 205.665 170.072C205.081 170.418 204.616 170.896 204.27 171.507C203.938 172.118 203.772 172.829 203.772 173.64C203.772 174.45 203.938 175.167 204.27 175.792C204.616 176.403 205.081 176.881 205.665 177.226C206.263 177.559 206.934 177.725 207.678 177.725Z" fill="black"/>
<path d="M215.883 178.88V168.419H217.238V171.268L217.098 170.77C217.391 169.973 217.882 169.368 218.573 168.957C219.264 168.531 220.121 168.319 221.144 168.319V169.694C221.09 169.694 221.037 169.694 220.984 169.694C220.931 169.681 220.878 169.674 220.825 169.674C219.722 169.674 218.859 170.013 218.234 170.69C217.61 171.354 217.298 172.304 217.298 173.54V178.88H215.883Z" fill="black"/>
<path d="M223.725 178.88V168.419H225.14V178.88H223.725ZM224.443 166.107C224.15 166.107 223.905 166.007 223.705 165.808C223.506 165.609 223.406 165.37 223.406 165.091C223.406 164.812 223.506 164.579 223.705 164.393C223.905 164.194 224.15 164.094 224.443 164.094C224.735 164.094 224.981 164.187 225.18 164.373C225.379 164.559 225.479 164.792 225.479 165.071C225.479 165.363 225.379 165.609 225.18 165.808C224.994 166.007 224.748 166.107 224.443 166.107Z" fill="black"/>
<path d="M229.077 178.88V164.094H230.492V178.88H229.077Z" fill="black"/>
<path d="M238.448 178.88V177.864L244.247 172.185C244.779 171.667 245.177 171.215 245.443 170.83C245.708 170.431 245.888 170.059 245.981 169.714C246.074 169.368 246.12 169.043 246.12 168.737C246.12 167.927 245.841 167.289 245.283 166.824C244.739 166.359 243.928 166.127 242.852 166.127C242.029 166.127 241.298 166.253 240.66 166.505C240.036 166.758 239.498 167.15 239.046 167.681L238.03 166.804C238.574 166.167 239.272 165.675 240.122 165.33C240.972 164.984 241.922 164.812 242.972 164.812C243.915 164.812 244.732 164.964 245.423 165.27C246.114 165.562 246.645 165.994 247.017 166.565C247.402 167.137 247.595 167.807 247.595 168.578C247.595 169.03 247.529 169.475 247.396 169.913C247.276 170.351 247.05 170.816 246.718 171.308C246.399 171.786 245.928 172.331 245.303 172.942L239.983 178.163L239.584 177.605H248.233V178.88H238.448Z" fill="black"/>
<path d="M249.347 175.214V174.178L256.74 164.931H258.334L251.001 174.178L250.223 173.938H261.443V175.214H249.347ZM257.218 178.88V175.214L257.258 173.938V170.71H258.653V178.88H257.218Z" fill="black"/>
<path d="M263.114 174.098V172.862H268.335V174.098H263.114Z" fill="black"/>
<path d="M270.071 178.88V177.864L275.87 172.185C276.402 171.667 276.8 171.215 277.066 170.83C277.332 170.431 277.511 170.059 277.604 169.714C277.697 169.368 277.744 169.043 277.744 168.737C277.744 167.927 277.465 167.289 276.907 166.824C276.362 166.359 275.552 166.127 274.475 166.127C273.652 166.127 272.921 166.253 272.283 166.505C271.659 166.758 271.121 167.15 270.669 167.681L269.653 166.804C270.198 166.167 270.895 165.675 271.745 165.33C272.596 164.984 273.546 164.812 274.595 164.812C275.538 164.812 276.355 164.964 277.046 165.27C277.737 165.562 278.268 165.994 278.64 166.565C279.026 167.137 279.218 167.807 279.218 168.578C279.218 169.03 279.152 169.475 279.019 169.913C278.899 170.351 278.674 170.816 278.341 171.308C278.023 171.786 277.551 172.331 276.927 172.942L271.606 178.163L271.207 177.605H279.856V178.88H270.071Z" fill="black"/>
<path d="M287.337 179C286.101 179 285.058 178.728 284.208 178.183C283.358 177.625 282.714 176.828 282.275 175.792C281.837 174.742 281.618 173.487 281.618 172.025C281.618 170.444 281.883 169.123 282.415 168.06C282.959 166.984 283.71 166.173 284.667 165.629C285.623 165.084 286.732 164.812 287.994 164.812C288.619 164.812 289.217 164.871 289.788 164.991C290.359 165.111 290.864 165.303 291.302 165.569L290.724 166.725C290.366 166.486 289.954 166.319 289.489 166.226C289.024 166.12 288.532 166.067 288.014 166.067C286.513 166.067 285.311 166.545 284.407 167.502C283.517 168.458 283.072 169.887 283.072 171.786C283.072 172.079 283.086 172.444 283.112 172.882C283.152 173.307 283.232 173.733 283.351 174.158L282.853 173.779C282.999 173.088 283.285 172.504 283.71 172.025C284.135 171.534 284.667 171.162 285.304 170.909C285.942 170.657 286.639 170.531 287.397 170.531C288.327 170.531 289.144 170.704 289.848 171.049C290.552 171.394 291.103 171.879 291.502 172.504C291.9 173.128 292.099 173.865 292.099 174.716C292.099 175.579 291.894 176.336 291.482 176.987C291.07 177.625 290.499 178.123 289.768 178.482C289.051 178.827 288.24 179 287.337 179ZM287.277 177.784C287.941 177.784 288.526 177.665 289.031 177.426C289.549 177.173 289.954 176.821 290.246 176.37C290.538 175.905 290.685 175.367 290.685 174.755C290.685 173.839 290.366 173.108 289.728 172.563C289.104 172.019 288.253 171.746 287.177 171.746C286.46 171.746 285.836 171.879 285.304 172.145C284.773 172.411 284.354 172.776 284.049 173.241C283.743 173.693 283.59 174.211 283.59 174.795C283.59 175.3 283.73 175.785 284.009 176.25C284.288 176.702 284.7 177.074 285.244 177.366C285.802 177.645 286.48 177.784 287.277 177.784Z" fill="black"/>
<path d="M298.006 178.98C297.022 178.98 296.265 178.714 295.734 178.183C295.202 177.652 294.937 176.901 294.937 175.931V166.107H296.352V175.851C296.352 176.463 296.504 176.934 296.81 177.266C297.129 177.598 297.58 177.765 298.165 177.765C298.789 177.765 299.307 177.585 299.719 177.226L300.217 178.243C299.938 178.495 299.6 178.681 299.201 178.801C298.816 178.92 298.417 178.98 298.006 178.98ZM293.063 169.594V168.419H299.54V169.594H293.063Z" fill="black"/>
<path d="M308.134 168.319C308.984 168.319 309.728 168.485 310.366 168.817C311.017 169.136 311.521 169.627 311.88 170.292C312.252 170.956 312.438 171.793 312.438 172.803V178.88H311.023V172.942C311.023 171.839 310.744 171.009 310.186 170.451C309.642 169.88 308.871 169.594 307.875 169.594C307.131 169.594 306.48 169.747 305.922 170.053C305.377 170.345 304.952 170.777 304.646 171.348C304.354 171.906 304.208 172.583 304.208 173.38V178.88H302.793V164.094H304.208V171.288L303.929 170.75C304.261 169.993 304.792 169.402 305.523 168.976C306.254 168.538 307.124 168.319 308.134 168.319Z" fill="black"/>
<path d="M320.279 178.88V177.864L326.078 172.185C326.61 171.667 327.008 171.215 327.274 170.83C327.54 170.431 327.719 170.059 327.812 169.714C327.905 169.368 327.952 169.043 327.952 168.737C327.952 167.927 327.673 167.289 327.115 166.824C326.57 166.359 325.76 166.127 324.683 166.127C323.86 166.127 323.129 166.253 322.491 166.505C321.867 166.758 321.329 167.15 320.877 167.681L319.861 166.804C320.406 166.167 321.103 165.675 321.953 165.33C322.804 164.984 323.754 164.812 324.803 164.812C325.746 164.812 326.563 164.964 327.254 165.27C327.945 165.562 328.476 165.994 328.848 166.565C329.234 167.137 329.426 167.807 329.426 168.578C329.426 169.03 329.36 169.475 329.227 169.913C329.107 170.351 328.882 170.816 328.549 171.308C328.231 171.786 327.759 172.331 327.135 172.942L321.814 178.163L321.415 177.605H330.064V178.88H320.279Z" fill="black"/>
<path d="M337.385 179C336.309 179 335.353 178.721 334.516 178.163C333.679 177.592 333.021 176.781 332.543 175.732C332.065 174.669 331.826 173.394 331.826 171.906C331.826 170.418 332.065 169.149 332.543 168.1C333.021 167.037 333.679 166.226 334.516 165.669C335.353 165.097 336.309 164.812 337.385 164.812C338.461 164.812 339.418 165.097 340.255 165.669C341.092 166.226 341.75 167.037 342.228 168.1C342.719 169.149 342.965 170.418 342.965 171.906C342.965 173.394 342.719 174.669 342.228 175.732C341.75 176.781 341.092 177.592 340.255 178.163C339.418 178.721 338.461 179 337.385 179ZM337.385 177.685C338.209 177.685 338.926 177.466 339.538 177.027C340.149 176.576 340.627 175.925 340.972 175.074C341.318 174.211 341.49 173.155 341.49 171.906C341.49 170.657 341.318 169.608 340.972 168.757C340.627 167.894 340.149 167.243 339.538 166.804C338.926 166.353 338.209 166.127 337.385 166.127C336.588 166.127 335.878 166.353 335.253 166.804C334.629 167.243 334.144 167.894 333.798 168.757C333.453 169.608 333.28 170.657 333.28 171.906C333.28 173.155 333.453 174.211 333.798 175.074C334.144 175.925 334.629 176.576 335.253 177.027C335.878 177.466 336.588 177.685 337.385 177.685Z" fill="black"/>
<path d="M344.761 178.88V177.864L350.56 172.185C351.091 171.667 351.49 171.215 351.755 170.83C352.021 170.431 352.2 170.059 352.293 169.714C352.386 169.368 352.433 169.043 352.433 168.737C352.433 167.927 352.154 167.289 351.596 166.824C351.051 166.359 350.241 166.127 349.165 166.127C348.341 166.127 347.61 166.253 346.973 166.505C346.348 166.758 345.81 167.15 345.359 167.681L344.342 166.804C344.887 166.167 345.584 165.675 346.435 165.33C347.285 164.984 348.235 164.812 349.284 164.812C350.228 164.812 351.045 164.964 351.735 165.27C352.426 165.562 352.958 165.994 353.33 166.565C353.715 167.137 353.907 167.807 353.907 168.578C353.907 169.03 353.841 169.475 353.708 169.913C353.589 170.351 353.363 170.816 353.031 171.308C352.712 171.786 352.24 172.331 351.616 172.942L346.295 178.163L345.897 177.605H354.545V178.88H344.761Z" fill="black"/>
<path d="M362.026 179C360.791 179 359.748 178.728 358.897 178.183C358.047 177.625 357.403 176.828 356.964 175.792C356.526 174.742 356.307 173.487 356.307 172.025C356.307 170.444 356.573 169.123 357.104 168.06C357.649 166.984 358.399 166.173 359.356 165.629C360.312 165.084 361.422 164.812 362.684 164.812C363.308 164.812 363.906 164.871 364.477 164.991C365.048 165.111 365.553 165.303 365.992 165.569L365.414 166.725C365.055 166.486 364.643 166.319 364.178 166.226C363.713 166.12 363.222 166.067 362.704 166.067C361.202 166.067 360 166.545 359.097 167.502C358.207 168.458 357.762 169.887 357.762 171.786C357.762 172.079 357.775 172.444 357.801 172.882C357.841 173.307 357.921 173.733 358.041 174.158L357.542 173.779C357.689 173.088 357.974 172.504 358.399 172.025C358.824 171.534 359.356 171.162 359.993 170.909C360.631 170.657 361.329 170.531 362.086 170.531C363.016 170.531 363.833 170.704 364.537 171.049C365.241 171.394 365.792 171.879 366.191 172.504C366.589 173.128 366.789 173.865 366.789 174.716C366.789 175.579 366.583 176.336 366.171 176.987C365.759 177.625 365.188 178.123 364.457 178.482C363.74 178.827 362.929 179 362.026 179ZM361.966 177.784C362.631 177.784 363.215 177.665 363.72 177.426C364.238 177.173 364.643 176.821 364.935 176.37C365.228 175.905 365.374 175.367 365.374 174.755C365.374 173.839 365.055 173.108 364.417 172.563C363.793 172.019 362.943 171.746 361.867 171.746C361.149 171.746 360.525 171.879 359.993 172.145C359.462 172.411 359.044 172.776 358.738 173.241C358.432 173.693 358.28 174.211 358.28 174.795C358.28 175.3 358.419 175.785 358.698 176.25C358.977 176.702 359.389 177.074 359.934 177.366C360.492 177.645 361.169 177.784 361.966 177.784Z" fill="black"/>
<path d="M24.7254 178.881V166.127L26.1203 167.522H21.9355V164.931H27.9537V178.881H24.7254Z" fill="black"/>
<path d="M36.3551 179.12C35.2126 179.12 34.1897 178.841 33.2863 178.283C32.3829 177.711 31.6722 176.888 31.154 175.812C30.6359 174.736 30.3769 173.434 30.3769 171.906C30.3769 170.378 30.6359 169.076 31.154 168C31.6722 166.924 32.3829 166.107 33.2863 165.549C34.1897 164.978 35.2126 164.692 36.3551 164.692C37.5109 164.692 38.5339 164.978 39.424 165.549C40.3273 166.107 41.0381 166.924 41.5562 168C42.0743 169.076 42.3334 170.378 42.3334 171.906C42.3334 173.434 42.0743 174.736 41.5562 175.812C41.0381 176.888 40.3273 177.711 39.424 178.283C38.5339 178.841 37.5109 179.12 36.3551 179.12ZM36.3551 176.39C36.8998 176.39 37.3714 176.237 37.77 175.931C38.1818 175.626 38.5007 175.141 38.7265 174.477C38.9656 173.812 39.0852 172.955 39.0852 171.906C39.0852 170.856 38.9656 169.999 38.7265 169.335C38.5007 168.671 38.1818 168.186 37.77 167.881C37.3714 167.575 36.8998 167.422 36.3551 167.422C35.8237 167.422 35.3521 167.575 34.9403 167.881C34.5417 168.186 34.2229 168.671 33.9838 169.335C33.7579 169.999 33.645 170.856 33.645 171.906C33.645 172.955 33.7579 173.812 33.9838 174.477C34.2229 175.141 34.5417 175.626 34.9403 175.931C35.3521 176.237 35.8237 176.39 36.3551 176.39Z" fill="black"/>
<path d="M53.8896 178.881V173.181L54.6269 175.134L48.4893 164.931H51.9168L56.6197 172.763H54.6469L59.3697 164.931H62.5382L56.4005 175.134L57.1179 173.181V178.881H53.8896Z" fill="black"/>
<path d="M66.7413 170.551H73.4569V173.062H66.7413V170.551ZM66.9804 176.29H74.5728V178.881H63.7721V164.931H74.3138V167.522H66.9804V176.29Z" fill="black"/>
<path d="M75.3081 178.881L81.5255 164.931H84.7139L90.9512 178.881H87.5635L82.4621 166.565H83.7375L78.6161 178.881H75.3081ZM78.4168 175.891L79.2737 173.44H86.4476L87.3244 175.891H78.4168Z" fill="black"/>
<path d="M92.3984 178.881V164.931H98.4365C99.6853 164.931 100.761 165.137 101.665 165.549C102.568 165.948 103.266 166.525 103.757 167.283C104.249 168.04 104.494 168.943 104.494 169.993C104.494 171.029 104.249 171.926 103.757 172.683C103.266 173.427 102.568 173.998 101.665 174.397C100.761 174.795 99.6853 174.995 98.4365 174.995H94.1919L95.6267 173.58V178.881H92.3984ZM101.266 178.881L97.7789 173.819H101.226L104.754 178.881H101.266ZM95.6267 173.939L94.1919 172.424H98.2571C99.2535 172.424 99.9975 172.211 100.489 171.786C100.981 171.348 101.226 170.75 101.226 169.993C101.226 169.222 100.981 168.625 100.489 168.199C99.9975 167.774 99.2535 167.562 98.2571 167.562H94.1919L95.6267 166.027V173.939Z" fill="black"/>
<path d="M111.636 179.12C110.52 179.12 109.45 178.974 108.427 178.681C107.404 178.376 106.581 177.984 105.956 177.506L107.052 175.074C107.65 175.499 108.354 175.852 109.164 176.131C109.988 176.396 110.818 176.529 111.655 176.529C112.293 176.529 112.805 176.469 113.19 176.35C113.588 176.217 113.881 176.038 114.067 175.812C114.253 175.586 114.346 175.327 114.346 175.035C114.346 174.663 114.2 174.37 113.907 174.158C113.615 173.932 113.23 173.753 112.751 173.62C112.273 173.474 111.742 173.341 111.157 173.221C110.586 173.088 110.008 172.929 109.424 172.743C108.852 172.557 108.328 172.318 107.849 172.025C107.371 171.733 106.979 171.348 106.674 170.87C106.381 170.391 106.235 169.78 106.235 169.036C106.235 168.239 106.448 167.515 106.873 166.864C107.311 166.2 107.962 165.675 108.826 165.29C109.703 164.891 110.799 164.692 112.114 164.692C112.991 164.692 113.854 164.798 114.704 165.011C115.555 165.21 116.305 165.516 116.956 165.928L115.96 168.379C115.309 168.007 114.658 167.734 114.007 167.562C113.356 167.376 112.718 167.283 112.094 167.283C111.469 167.283 110.958 167.356 110.559 167.502C110.161 167.648 109.875 167.841 109.703 168.08C109.53 168.306 109.443 168.571 109.443 168.877C109.443 169.236 109.59 169.528 109.882 169.754C110.174 169.966 110.559 170.139 111.038 170.272C111.516 170.405 112.041 170.538 112.612 170.67C113.196 170.803 113.774 170.956 114.346 171.129C114.93 171.301 115.462 171.534 115.94 171.826C116.418 172.118 116.803 172.504 117.096 172.982C117.401 173.46 117.554 174.065 117.554 174.795C117.554 175.579 117.335 176.297 116.896 176.948C116.458 177.599 115.8 178.123 114.924 178.522C114.06 178.92 112.964 179.12 111.636 179.12Z" fill="black"/>
<g clip-path="url(#clip0_986_20040)">
<path d="M167.839 6.38306H14.3232V147.121H181.839V76.7521C175.861 76.0048 172.394 68.2414 171.564 66.1656C168.824 59.3155 169.197 46.9854 170.941 38.7653C172.685 30.5452 178.933 25.584 181.839 24.131V20.3831C181.839 12.6511 175.571 6.38306 167.839 6.38306Z" fill="#75AA7E"/>
<path d="M106.147 18.2122C106.201 18.3405 107.532 13.2506 112.061 14.76C115.797 16.0055 113.656 19.4603 112.684 20.676C110.248 23.7203 107.912 24.3834 106.257 26.1575C106.232 26.2156 106.206 26.2673 106.177 26.3108C106.167 26.2997 106.156 26.2886 106.146 26.2776C106.146 26.2785 106.145 26.2796 106.145 26.2805C106.142 26.2768 106.14 26.2726 106.138 26.2688C104.479 24.4334 102.11 23.7961 99.6377 20.7063C98.6651 19.4906 96.5243 16.0358 100.261 14.7903C104.483 13.383 105.907 17.7131 106.142 18.2004C106.146 18.1695 106.146 18.163 106.145 18.1848C106.144 18.1941 106.144 18.2013 106.145 18.2063C106.146 18.2083 106.147 18.2103 106.147 18.2122Z" fill="#B85353"/>
<path d="M44.5352 14.595C47.2955 14.595 44.6091 18.4913 47.1476 19.8723C48.9468 20.9081 50.1298 22.1658 50.6967 23.5961C51.436 25.495 51.8304 29.4653 51.8304 35.4825V111.339C51.8304 118.391 51.1403 122.83 49.7601 124.68C47.5666 127.516 50.9924 128.379 46.1371 128.379L44.9048 131.388V132.127H87.8629V131.388L83.6238 128.922C80.8634 128.922 80.6909 128.231 78.2017 126.85C76.3532 125.814 75.1455 124.557 74.554 123.126C73.8147 121.227 73.4203 117.282 73.4203 111.339V85.7817C73.4203 85.7817 103.094 104.775 106.865 104.775C110.636 104.775 140.31 85.7817 140.31 85.7817V111.339C140.31 118.391 139.595 122.83 138.141 124.68C135.947 127.516 134.912 128.922 130.131 128.922L125.966 131.388V132.127H176.219V131.388L172.054 128.922C169.293 128.922 169.096 128.231 166.558 126.85C164.759 125.814 163.576 124.557 163.009 123.126C162.269 121.227 161.875 117.282 161.875 111.339V35.4825C161.875 29.7119 162.195 25.8649 162.861 23.9907C163.526 22.1165 164.783 20.7108 166.632 19.7737C169.121 18.442 169.269 17.7762 172.054 17.7762L176.219 15.3101V14.5703H147.285C143.415 14.5703 140.31 17.7022 140.31 21.5493V66.0061C140.31 66.0061 110.587 83.2685 106.865 83.2685C103.143 83.2685 73.4203 66.0061 73.4203 66.0061V21.5739C73.4203 17.7022 70.2903 14.595 66.4455 14.595" fill="#120F0E"/>
<path d="M103.119 95.6788C104.845 96.6159 105.387 97.2078 106.718 97.2078C107.925 97.2078 108.961 96.2707 110.316 95.6788L130.994 84.187V79.5015L110.316 90.796C110.316 90.796 107.704 92.177 106.718 92.177C105.732 92.177 103.119 90.796 103.119 90.796L82.4414 79.5015V84.187L103.119 95.6788Z" fill="#F2ED6E"/>
<path d="M127.864 61.3022L124.093 59.1321L109.453 50.6735C107.629 49.6131 105.411 49.6131 103.587 50.6735L85.2014 61.3022C83.3776 62.3626 82.2686 64.2861 82.2686 66.3823V71.1171C82.2686 71.1171 96.6125 78.7866 103.587 81.9185C106.767 83.3488 106.791 83.3981 110.612 81.8198C117.438 78.9839 130.797 71.1171 130.797 71.1171V66.3823C130.797 64.2861 129.663 62.3379 127.864 61.3022Z" fill="#F2ED6E"/>
<path d="M98.5596 52.9422C98.4363 50.1062 98.2145 45.8646 97.8941 44.3603C97.8448 44.1876 97.8202 44.0397 97.7709 43.8671C97.7216 43.6944 97.6723 43.5465 97.623 43.3985C97.4998 43.1026 97.3766 42.8066 97.2287 42.5354C97.1301 42.3381 97.0069 42.1655 96.9083 41.9928C96.6865 41.6969 96.4647 41.401 96.2182 41.1544C96.0703 40.9818 95.8978 40.8338 95.7253 40.6858C95.6513 40.6119 95.5528 40.5379 95.4542 40.4639C95.2324 40.2666 94.9859 40.094 94.7394 39.9214C94.5916 39.8227 94.419 39.6994 94.2465 39.6008C94.1726 39.5514 94.074 39.5021 94.0001 39.4528C93.7536 39.3048 93.4825 39.1815 93.236 39.0582C92.9896 38.9349 92.7185 38.8363 92.472 38.7376C92.2255 38.639 91.9791 38.5404 91.708 38.4664C91.634 38.4417 91.5601 38.4171 91.4615 38.3924C91.3383 38.3431 91.2397 38.3184 91.1165 38.2938C90.7961 38.1951 90.451 38.1211 90.1553 38.0472C89.9828 36.4442 88.6272 35.1865 86.9513 35.1865C86.7295 35.1865 86.5077 35.2112 86.2858 35.2605C86.2119 35.2605 86.138 35.2852 86.064 35.3098C85.9901 35.3345 85.9408 35.3591 85.8422 35.3838C85.719 35.4331 85.5711 35.4824 85.4479 35.5564C85.3739 35.5811 85.3246 35.6304 85.2507 35.6551C85.1521 35.7044 85.0782 35.7537 85.0043 35.8277C84.881 35.9263 84.7578 36.025 84.6592 36.1236C84.6099 36.1729 84.5853 36.1976 84.5606 36.2223C84.4867 36.2963 84.4374 36.3702 84.3634 36.4689C84.2649 36.5922 84.1909 36.7155 84.117 36.8634C84.0677 36.9374 84.0431 37.0114 84.0184 37.0854C83.9938 37.1594 83.9445 37.2087 83.9198 37.3073C83.7966 37.6526 83.7227 38.0225 83.7227 38.4171C83.7227 38.7376 83.7719 39.0582 83.8705 39.3788C83.9445 39.5761 84.0184 39.7734 84.117 39.946C84.1909 40.0693 84.2649 40.2173 84.3634 40.3406C84.4867 40.4886 84.6346 40.6612 84.7824 40.7845C84.9303 40.9078 85.1028 41.0557 85.2754 41.1544C85.3986 41.2284 85.5465 41.3024 85.6943 41.3763C85.7929 41.4257 85.8915 41.4503 85.9901 41.475C86.2858 41.5736 86.6062 41.6229 86.9513 41.6229C87.1977 41.6229 87.4442 41.5983 87.6907 41.5243C87.8139 41.4996 87.9371 41.4503 88.0357 41.4257C88.1589 41.3763 88.2575 41.327 88.3561 41.2777C88.4547 41.2284 88.5779 41.1544 88.6765 41.0804C88.9723 40.8831 89.2434 40.6365 89.4652 40.3406C91.4369 40.7598 94.8873 41.9189 95.5281 44.8535C95.5528 44.9768 95.5774 45.1001 95.6021 45.2727C95.6021 45.322 95.602 45.3714 95.6267 45.4453C95.6513 45.6673 95.7006 45.9385 95.7253 46.2345C95.7499 46.4564 95.7746 46.703 95.7992 46.9743C95.7992 47.0483 95.7992 47.1469 95.8239 47.2209C95.8485 47.4922 95.8732 47.7634 95.8978 48.0347C95.8978 48.1333 95.8978 48.232 95.9224 48.306C95.9471 48.7499 95.9717 49.1937 96.021 49.6623C96.021 49.8842 96.0457 50.1308 96.0703 50.3528C96.1443 51.7584 96.1936 53.1641 96.2675 54.2738" fill="#120F0E"/>
<path d="M114.506 52.9422C114.629 50.1062 114.851 45.8646 115.171 44.3603C115.221 44.1876 115.245 44.0397 115.295 43.8671C115.344 43.6944 115.393 43.5465 115.442 43.3985C115.566 43.1026 115.689 42.8066 115.837 42.5354C115.935 42.3381 116.059 42.1655 116.157 41.9928C116.379 41.6969 116.601 41.401 116.847 41.1544C116.995 40.9818 117.168 40.8338 117.34 40.6858C117.414 40.6119 117.513 40.5379 117.611 40.4639C117.833 40.2666 118.08 40.094 118.326 39.9214C118.474 39.8227 118.646 39.6994 118.819 39.6008C118.893 39.5514 118.991 39.5021 119.065 39.4528C119.312 39.3048 119.583 39.1815 119.829 39.0582C120.076 38.9349 120.347 38.8363 120.593 38.7376C120.84 38.639 121.086 38.5404 121.357 38.4664C121.431 38.4417 121.505 38.4171 121.604 38.3924C121.727 38.3431 121.826 38.3184 121.949 38.2938C122.269 38.1951 122.614 38.1211 122.91 38.0472C123.083 36.4442 124.438 35.1865 126.114 35.1865C126.336 35.1865 126.558 35.2112 126.78 35.2605C126.854 35.2605 126.927 35.2852 127.001 35.3098C127.075 35.3345 127.125 35.3591 127.223 35.3838C127.346 35.4331 127.494 35.4824 127.618 35.5564C127.691 35.5811 127.741 35.6304 127.815 35.6551C127.913 35.7044 127.987 35.7537 128.061 35.8277C128.184 35.9263 128.308 36.025 128.406 36.1236C128.456 36.1729 128.48 36.1976 128.505 36.2223C128.579 36.2963 128.628 36.3702 128.702 36.4689C128.801 36.5922 128.875 36.7155 128.948 36.8634C128.998 36.9374 129.022 37.0114 129.047 37.0854C129.072 37.1594 129.121 37.2087 129.146 37.3073C129.269 37.6526 129.343 38.0225 129.343 38.4171C129.343 38.7376 129.293 39.0582 129.195 39.3788C129.121 39.5761 129.047 39.7734 128.948 39.946C128.875 40.0693 128.801 40.2173 128.702 40.3406C128.579 40.4886 128.431 40.6612 128.283 40.7845C128.135 40.9078 127.963 41.0557 127.79 41.1544C127.667 41.2284 127.519 41.3024 127.371 41.3763C127.273 41.4257 127.174 41.4503 127.075 41.475C126.78 41.5736 126.459 41.6229 126.114 41.6229C125.868 41.6229 125.621 41.5983 125.375 41.5243C125.252 41.4996 125.128 41.4503 125.03 41.4257C124.906 41.3763 124.808 41.327 124.709 41.2777C124.611 41.2284 124.488 41.1544 124.389 41.0804C124.093 40.8831 123.822 40.6365 123.6 40.3406C121.629 40.7598 118.178 41.9189 117.537 44.8535C117.513 44.9768 117.488 45.1001 117.463 45.2727C117.463 45.322 117.463 45.3714 117.439 45.4453C117.414 45.6673 117.365 45.9385 117.34 46.2345C117.316 46.4564 117.291 46.703 117.266 46.9743C117.266 47.0483 117.266 47.1469 117.242 47.2209C117.217 47.4922 117.192 47.7634 117.168 48.0347C117.168 48.1333 117.168 48.232 117.143 48.306C117.118 48.7499 117.094 49.1937 117.044 49.6623C117.044 49.8842 117.02 50.1308 116.995 50.3528C116.921 51.7584 116.872 53.1641 116.798 54.2738" fill="#120F0E"/>
<path d="M49.3663 17.801H46.1377V128.404H49.3663V17.801Z" fill="#120F0E"/>
<path d="M167.198 17.801H163.97V128.404H167.198V17.801Z" fill="#120F0E"/>
<path d="M66.8895 59.6253C68.3732 59.6253 69.576 58.4218 69.576 56.9373C69.576 55.4527 68.3732 54.2493 66.8895 54.2493C65.4059 54.2493 64.2031 55.4527 64.2031 56.9373C64.2031 58.4218 65.4059 59.6253 66.8895 59.6253Z" fill="#2F2927"/>
<path d="M66.8895 104.853C68.3732 104.853 69.576 103.649 69.576 102.165C69.576 100.68 68.3732 99.4768 66.8895 99.4768C65.4059 99.4768 64.2031 100.68 64.2031 102.165C64.2031 103.649 65.4059 104.853 66.8895 104.853Z" fill="#2F2927"/>
<path d="M57.1786 84.8531C58.6623 84.8531 59.865 83.6496 59.865 82.1651C59.865 80.6805 58.6623 79.4771 57.1786 79.4771C55.6949 79.4771 54.4922 80.6805 54.4922 82.1651C54.4922 83.6496 55.6949 84.8531 57.1786 84.8531Z" fill="#2F2927"/>
<path d="M57.1786 32.0301C58.6623 32.0301 59.865 30.8266 59.865 29.3421C59.865 27.8575 58.6623 26.6541 57.1786 26.6541C55.6949 26.6541 54.4922 27.8575 54.4922 29.3421C54.4922 30.8266 55.6949 32.0301 57.1786 32.0301Z" fill="#2F2927"/>
<path d="M59.372 121.376C60.8556 121.376 62.0584 120.172 62.0584 118.688C62.0584 117.203 60.8556 116 59.372 116C57.8883 116 56.6855 117.203 56.6855 118.688C56.6855 120.172 57.8883 121.376 59.372 121.376Z" fill="#2F2927"/>
<mask id="mask0_986_20040" style="mask-type:alpha" maskUnits="userSpaceOnUse" x="44" y="14" width="133" height="119">
<path d="M44.5352 14.5952C47.2955 14.5952 44.6091 18.4916 47.1476 19.8726C48.9468 20.9083 50.1298 22.166 50.6967 23.5963C51.436 25.4952 51.8304 29.4656 51.8304 35.4827V111.339C51.8304 118.392 51.1403 122.831 49.7601 124.68C47.5666 127.516 50.9924 128.379 46.1371 128.379L44.9048 131.388V132.128H87.8629V131.388L83.6238 128.922C80.8634 128.922 80.6909 128.231 78.2017 126.85C76.3532 125.815 75.1455 124.557 74.554 123.127C73.8147 121.228 73.4203 117.282 73.4203 111.339V73.0655C73.4203 73.0655 103.094 90.3279 106.865 90.3279C110.636 90.3279 140.31 73.0655 140.31 73.0655V111.339C140.31 118.392 139.595 122.831 138.141 124.68C135.947 127.516 134.912 128.922 130.131 128.922L125.966 131.388V132.128H176.219V131.388L172.054 128.922C169.293 128.922 169.096 128.231 166.558 126.85C164.759 125.815 163.576 124.557 163.009 123.127C162.269 121.228 161.875 117.282 161.875 111.339V35.4827C161.875 29.7122 162.195 25.8651 162.861 23.9909C163.526 22.1167 164.783 20.711 166.632 19.7739C169.121 18.4423 169.269 17.7764 172.054 17.7764L176.219 15.3104V14.5706H147.285C143.415 14.5706 140.31 17.7025 140.31 21.5495V66.6291C140.31 66.6291 110.587 83.8915 106.865 83.8915C103.143 83.8915 73.4203 66.6291 73.4203 66.6291V21.5742C73.4203 17.7025 70.2903 14.5952 66.4455 14.5952" fill="#120F0E"/>
</mask>
<g mask="url(#mask0_986_20040)">
<path d="M58.8549 12.3756C69.7731 20.1931 72.3609 33.6824 64.8685 44.8043C61.8124 49.6132 58.707 53.7315 59.545 58.417C60.4815 67.0975 72.9524 76.0493 67.3578 86.0122C64.7453 91.4129 56.9571 96.0984 59.4464 102.559C61.073 106.949 63.9073 110.919 66.9634 114.397C69.2555 117.948 67.3824 122.313 65.6079 125.518C64.2524 128.009 62.6257 130.327 61.7138 132.645C61.4674 133.287 60.7526 133.582 60.1118 133.336C59.4957 133.089 59.1753 132.374 59.4217 131.758C60.5062 128.922 62.0835 126.678 63.2665 124.285C64.9918 120.833 66.5691 117.356 63.3651 114.692C60.309 111.462 58.2141 107.837 56.4149 103.768C55.7988 102.362 55.3551 100.537 55.577 98.959C56.3163 91.9801 64.2031 87.5905 64.9425 81.1294C65.041 78.9593 64.0798 76.6905 62.7983 74.4217C58.5345 67.8373 51.9047 58.6389 56.5874 49.7858C57.8444 47.0238 59.471 44.681 60.7773 42.4123C66.6677 33.3372 64.4742 22.8811 55.5277 16.8639C52.5701 14.6937 55.8727 10.1809 58.8549 12.425V12.3756Z" fill="#2F2927"/>
<path d="M158.671 16.8146C149.725 22.8318 147.531 33.2632 153.421 42.363C155.837 46.4566 159.361 51.3641 159.164 56.6414C159.46 66.6043 149.725 72.3503 149.232 81.1048C149.232 83.2749 150.587 85.2971 152.214 87.4919C159.854 96.9862 160.84 100.833 153.594 111.265C152.485 113.361 149.651 115.112 149.059 117.356C148.542 122.387 153.027 126.9 154.777 131.782C155.023 132.423 154.703 133.139 154.062 133.385C153.421 133.632 152.682 133.287 152.46 132.621C151.524 130.327 149.922 128.034 148.591 125.543C146.816 122.337 144.943 117.972 147.235 114.421C148.468 112.67 149.996 111.487 151.105 109.563C152.879 106.505 155.467 102.905 155.319 99.3536C153.89 92.6953 146.003 88.5769 145.461 81.3514C145.239 77.9729 146.57 74.9643 147.925 72.4489C155.023 60.7844 158.178 56.8881 149.355 44.829C141.862 33.7564 144.475 20.1191 155.393 12.3757C158.375 10.2302 161.653 14.5951 158.696 16.8392L158.671 16.8146Z" fill="#2F2927"/>
</g>
<path d="M147.309 59.6253C148.793 59.6253 149.996 58.4218 149.996 56.9373C149.996 55.4527 148.793 54.2493 147.309 54.2493C145.826 54.2493 144.623 55.4527 144.623 56.9373C144.623 58.4218 145.826 59.6253 147.309 59.6253Z" fill="#2F2927"/>
<path d="M147.309 104.853C148.793 104.853 149.996 103.649 149.996 102.165C149.996 100.68 148.793 99.4768 147.309 99.4768C145.826 99.4768 144.623 100.68 144.623 102.165C144.623 103.649 145.826 104.853 147.309 104.853Z" fill="#2F2927"/>
<path d="M157.02 84.8531C158.504 84.8531 159.707 83.6496 159.707 82.1651C159.707 80.6805 158.504 79.4771 157.02 79.4771C155.537 79.4771 154.334 80.6805 154.334 82.1651C154.334 83.6496 155.537 84.8531 157.02 84.8531Z" fill="#2F2927"/>
<path d="M157.02 32.0301C158.504 32.0301 159.707 30.8266 159.707 29.3421C159.707 27.8575 158.504 26.6541 157.02 26.6541C155.537 26.6541 154.334 27.8575 154.334 29.3421C154.334 30.8266 155.537 32.0301 157.02 32.0301Z" fill="#2F2927"/>
<path d="M154.851 121.376C156.335 121.376 157.538 120.172 157.538 118.688C157.538 117.203 156.335 116 154.851 116C153.368 116 152.165 117.203 152.165 118.688C152.165 120.172 153.368 121.376 154.851 121.376Z" fill="#2F2927"/>
<path d="M178.725 137.78H44.8369V142.762H178.725V137.78Z" fill="#F2ED6E"/>
<path d="M21.1729 11.9875H39.2322V138.403L21.1729 142.762L19.3047 78.9315L21.1729 11.9875Z" fill="#A1C8A8"/>
<path d="M178.102 79.123L171.252 71.1475V126.305L178.102 128.439V79.123Z" fill="#A1C8A8"/>
<path d="M101.883 46.6283C101.858 46.9998 101.989 47.3772 102.232 47.6756C102.475 47.9741 102.81 48.169 103.179 48.2196C103.547 48.2702 103.923 48.1728 104.238 47.951C104.552 47.7291 104.779 47.4008 104.855 47.0364C104.855 47.0364 104.855 47.0364 104.855 47.0364C105.033 46.1657 105.175 45.2917 105.287 44.4083C105.837 39.7339 105.82 34.9013 104.133 30.0164C102.712 25.151 97.404 20.2519 91.6027 20.0144C86.0578 19.4743 81.6726 16.4908 81.0368 12.852C80.9432 12.3968 80.9205 11.925 80.9722 11.6893C81.0103 10.3605 80.5129 9.1081 79.536 8.20972C78.5622 7.31122 77.1888 6.84037 75.7713 6.89855C74.3539 6.95673 73.0237 7.53855 72.1268 8.51384C71.2268 9.48925 70.8337 10.7782 70.9806 12.0994C70.9806 12.0994 70.9806 12.0994 70.9806 12.0994C71.1053 13.5483 71.4432 14.7576 71.8832 15.9072C75.2871 24.6327 84.616 27.381 91.3055 27.0788C98.2348 26.05 102.026 35.7832 101.943 44.2049C101.952 45.0182 101.934 45.8277 101.883 46.6283Z" fill="#A1C8A8"/>
<path d="M111.039 46.4688C111.064 46.8402 110.933 47.2177 110.691 47.5162C110.448 47.8149 110.113 48.0101 109.745 48.061C109.376 48.1119 109.001 48.0149 108.686 47.7934C108.371 47.5717 108.144 47.2437 108.067 46.8795C108.067 46.8795 108.067 46.8795 108.067 46.8795C107.888 46.0109 107.747 45.139 107.634 44.2577C107.083 39.5972 107.1 34.7759 108.795 29.9047C110.224 25.0476 115.543 20.1951 121.314 19.9608C126.851 19.424 131.246 16.4519 131.876 12.8385C131.969 12.3875 131.991 11.9197 131.939 11.6899C131.9 10.3611 132.397 9.10863 133.374 8.21014C134.348 7.31152 135.721 6.8405 137.139 6.89852C138.557 6.95654 139.887 7.53821 140.784 8.51339C141.684 9.48869 142.078 10.7776 141.931 12.0988C141.931 12.0988 141.931 12.0988 141.931 12.0988C141.806 13.5492 141.467 14.7584 141.025 15.9067C137.596 24.6315 128.279 27.3226 121.608 27.0231C114.691 25.9903 110.893 35.6527 110.978 44.0528C110.969 44.8636 110.988 45.6706 111.039 46.4688Z" fill="#A1C8A8"/>
<path d="M107.345 116.448C106.198 116.831 105.019 116.716 104.048 116.019C103.077 115.328 102.394 114.112 102.168 112.747C101.941 111.381 102.193 110.01 102.888 109.042C103.581 108.068 104.66 107.577 105.869 107.57C105.869 107.57 105.869 107.57 105.869 107.57C106.321 107.504 106.886 107.472 107.574 107.604C108.136 107.682 109.379 108.178 110.076 108.95C111.504 110.509 111.382 111.903 111.4 112.352C111.392 112.66 111.36 112.92 111.318 113.152C111.283 113.338 111.244 113.492 111.202 113.643C111.116 113.946 111.021 114.192 110.94 114.376C105.242 122.876 97.8048 127.283 89.2689 126.7C88.8176 126.633 88.3792 126.541 87.9428 126.424C87.8323 126.393 87.7321 126.313 87.6631 126.211C87.5942 126.108 87.5622 125.992 87.5753 125.878C87.5884 125.765 87.6459 125.659 87.7363 125.575C87.8266 125.491 87.9425 125.436 88.0572 125.431C88.0572 125.431 88.0572 125.431 88.0572 125.431C88.4702 125.411 88.8709 125.366 89.2703 125.3C96.2576 124.019 101.624 116.346 102.802 111.596C102.784 111.597 102.757 111.622 102.718 111.717C102.698 111.764 102.678 111.824 102.656 111.913C102.632 112.025 102.608 112.174 102.6 112.381C102.62 112.656 102.457 113.779 103.742 115.202C104.37 115.899 105.49 116.343 105.969 116.409C106.563 116.523 107.018 116.492 107.345 116.448Z" fill="#A1C8A8"/>
<path d="M106.595 116.441C107.736 116.841 108.916 116.742 109.894 116.053C110.87 115.371 111.565 114.156 111.805 112.786C112.045 111.417 111.806 110.038 111.12 109.064C110.435 108.084 109.36 107.589 108.15 107.576C108.15 107.576 108.15 107.576 108.15 107.576C107.673 107.503 107.063 107.465 106.325 107.621C105.7 107.717 104.425 108.304 103.777 109.1C102.481 110.664 102.624 111.903 102.6 112.332C102.607 112.619 102.635 112.864 102.672 113.083C102.706 113.277 102.739 113.41 102.777 113.557C102.854 113.84 102.945 114.095 103.017 114.268C108.358 122.595 115.411 127.214 123.771 126.7C124.211 126.634 124.637 126.542 125.06 126.424C125.17 126.392 125.269 126.31 125.337 126.208C125.405 126.105 125.436 125.989 125.422 125.876C125.408 125.763 125.351 125.658 125.26 125.574C125.17 125.491 125.054 125.436 124.94 125.431C124.94 125.431 124.94 125.431 124.94 125.431C124.541 125.412 124.157 125.367 123.773 125.3C117.072 123.964 112.194 116.266 111.214 111.663C111.231 111.663 111.258 111.689 111.293 111.777C111.325 111.859 111.382 112.008 111.4 112.393C111.375 112.656 111.555 113.631 110.39 115.057C109.807 115.777 108.646 116.311 108.102 116.393C107.455 116.53 106.951 116.493 106.595 116.441Z" fill="#A1C8A8"/>
</g>
<path d="M128.582 110.502C128.732 104.479 132.621 102.972 134.546 102.971C137.701 108.537 132.098 113.855 128.902 115.818C128.733 116.556 128.431 116.526 128.582 110.502Z" fill="#A1C8A8"/>
<path d="M130.874 93.6949C126.338 97.1237 127.308 101.505 128.36 103.267C134.35 103.112 135.366 95.0797 135.125 91.0831C135.598 90.5251 135.41 90.2661 130.874 93.6949Z" fill="#A1C8A8"/>
<path d="M120.492 101.463C115.176 103.071 114.773 107.557 115.236 109.599C120.94 111.605 124.317 104.385 125.292 100.524C125.907 100.167 125.808 99.8549 120.492 101.463Z" fill="#A1C8A8"/>
<path d="M122.848 109.243C118.665 113.17 120.048 117.417 121.263 119.05C127.205 118.212 127.448 110.108 126.826 106.161C127.243 105.552 127.031 105.316 122.848 109.243Z" fill="#A1C8A8"/>
<path d="M82.5258 110.502C82.3757 104.478 78.4868 102.972 76.5611 102.971C73.4069 108.537 79.0097 113.855 82.2054 115.818C82.3747 116.556 82.6759 116.525 82.5258 110.502Z" fill="#A1C8A8"/>
<path d="M80.2335 93.6949C84.7693 97.1237 83.7994 101.505 82.7475 103.267C76.757 103.112 75.7417 95.0797 75.9829 91.0831C75.5099 90.5251 75.6978 90.2661 80.2335 93.6949Z" fill="#A1C8A8"/>
<path d="M93.9565 103.241C90.3703 98.6631 86.4799 100.165 84.9829 101.489C85.7374 107.983 93.1551 108.264 96.7696 107.593C97.3261 108.05 97.5427 107.82 93.9565 103.241Z" fill="#A1C8A8"/>
<path d="M88.2593 109.243C92.4427 113.17 91.0594 117.417 89.8448 119.049C83.902 118.212 83.6597 110.108 84.2815 106.161C83.8643 105.552 84.076 105.315 88.2593 109.243Z" fill="#A1C8A8"/>
<path d="M80.7812 33.9569C82.1996 39.78 78.8609 42.4288 77.0142 43.0253C72.5457 38.664 76.5395 31.8297 79.095 28.9578C79.0661 28.1979 79.3629 28.1338 80.7812 33.9569Z" fill="#A1C8A8"/>
<path d="M79.7596 57.7072C82.0106 52.2061 79.1017 49.009 77.3659 48.0981C72.3174 51.6244 75.2615 59.0674 77.3646 62.3481C77.225 63.0933 77.5086 63.2083 79.7596 57.7072Z" fill="#A1C8A8"/>
<path d="M132.715 34.473C131.296 40.2961 134.635 42.9449 136.482 43.5414C140.95 39.1801 136.957 32.3459 134.401 29.4739C134.43 28.714 134.133 28.6499 132.715 34.473Z" fill="#A1C8A8"/>
<path d="M133.737 58.223C131.485 52.7219 134.394 49.5249 136.13 48.614C141.179 52.1402 138.235 59.5833 136.132 62.864C136.271 63.6091 135.988 63.7241 133.737 58.223Z" fill="#A1C8A8"/>
<path d="M126.698 50.6049C132.207 50.3066 133.499 46.0257 133.457 43.9225C128.293 40.6016 123.551 46.8394 121.825 50.3733C121.154 50.5748 121.189 50.9031 126.698 50.6049Z" fill="#A1C8A8"/>
<path d="M85.7144 50.089C80.2053 49.7908 78.9131 45.5098 78.9556 43.4066C84.1195 40.0858 88.8613 46.3235 90.5867 49.8575C91.258 50.0589 91.2235 50.3872 85.7144 50.089Z" fill="#A1C8A8"/>
<path d="M87.5079 28.0153C93.0228 28.1294 94.4342 32.3652 94.4506 34.4688C89.3821 37.9606 84.468 31.8841 82.6444 28.4095C81.9677 28.2306 81.9931 27.9013 87.5079 28.0153Z" fill="#A1C8A8"/>
<path d="M119.507 13.2578C122.715 8.35629 126.71 9.48348 128.307 10.6598C128.072 17.2008 120.705 18.1856 117.05 17.8604C116.532 18.3685 116.298 18.1592 119.507 13.2578Z" fill="#A1C8A8"/>
<path d="M92.8704 13.2578C89.662 8.35629 85.6668 9.48348 84.0702 10.6598C84.3052 17.2008 91.6723 18.1856 95.3266 17.8604C95.8447 18.3685 96.0788 18.1592 92.8704 13.2578Z" fill="#A1C8A8"/>
<path d="M125.344 28.0153C119.829 28.1294 118.417 32.3652 118.401 34.4688C123.469 37.9606 128.384 31.8841 130.207 28.4095C130.884 28.2306 130.858 27.9013 125.344 28.0153Z" fill="#A1C8A8"/>
<defs>
<clipPath id="clip0_986_20040">
<rect width="181.839" height="140.738" fill="white" transform="translate(0 6.38306)"/>
</clipPath>
</defs>
</svg>
