<?xml version="1.0" encoding="UTF-8"?>
<!DOCTYPE svg PUBLIC "-//W3C//DTD SVG 1.1//EN" "http://www.w3.org/Graphics/SVG/1.1/DTD/svg11.dtd">
<svg xmlns="http://www.w3.org/2000/svg" version="1.1" width="159px" height="114px" style="shape-rendering:geometricPrecision; text-rendering:geometricPrecision; image-rendering:optimizeQuality; fill-rule:evenodd; clip-rule:evenodd" xmlns:xlink="http://www.w3.org/1999/xlink">
<g><path style="opacity:1" fill="#96bf1a" d="M -0.5,-0.5 C 52.5,-0.5 105.5,-0.5 158.5,-0.5C 158.5,37.5 158.5,75.5 158.5,113.5C 105.5,113.5 52.5,113.5 -0.5,113.5C -0.5,75.5 -0.5,37.5 -0.5,-0.5 Z"/></g>
<g><path style="opacity:1" fill="#4e640d" d="M 66.5,23.5 C 73.8333,23.5 81.1667,23.5 88.5,23.5C 88.5,29.8333 88.5,36.1667 88.5,42.5C 81.1667,42.5 73.8333,42.5 66.5,42.5C 66.5,36.1667 66.5,29.8333 66.5,23.5 Z"/></g>
<g><path style="opacity:1" fill="#060a00" d="M 67.5,24.5 C 74.1667,24.5 80.8333,24.5 87.5,24.5C 87.5,30.1667 87.5,35.8333 87.5,41.5C 80.8333,41.5 74.1667,41.5 67.5,41.5C 67.5,35.8333 67.5,30.1667 67.5,24.5 Z"/></g>
<g><path style="opacity:1" fill="#4a600c" d="M 45.5,44.5 C 51.8333,44.5 58.1667,44.5 64.5,44.5C 64.5,49.8333 64.5,55.1667 64.5,60.5C 58.1667,60.5 51.8333,60.5 45.5,60.5C 45.5,55.1667 45.5,49.8333 45.5,44.5 Z"/></g>
<g><path style="opacity:1" fill="#51660e" d="M 90.5,44.5 C 97.8333,44.5 105.167,44.5 112.5,44.5C 112.5,49.8333 112.5,55.1667 112.5,60.5C 105.167,60.5 97.8333,60.5 90.5,60.5C 90.5,55.1667 90.5,49.8333 90.5,44.5 Z"/></g>
<g><path style="opacity:1" fill="#000100" d="M 46.5,45.5 C 52.1667,45.5 57.8333,45.5 63.5,45.5C 63.5,50.1667 63.5,54.8333 63.5,59.5C 57.8333,59.5 52.1667,59.5 46.5,59.5C 46.5,54.8333 46.5,50.1667 46.5,45.5 Z"/></g>
<g><path style="opacity:1" fill="#0c0e02" d="M 91.5,45.5 C 98.1667,45.5 104.833,45.5 111.5,45.5C 111.5,50.1667 111.5,54.8333 111.5,59.5C 104.833,59.5 98.1667,59.5 91.5,59.5C 91.5,54.8333 91.5,50.1667 91.5,45.5 Z"/></g>
<g><path style="opacity:1" fill="#4e640d" d="M 66.5,62.5 C 73.8333,62.5 81.1667,62.5 88.5,62.5C 88.5,68.8333 88.5,75.1667 88.5,81.5C 81.1667,81.5 73.8333,81.5 66.5,81.5C 66.5,75.1667 66.5,68.8333 66.5,62.5 Z"/></g>
<g><path style="opacity:1" fill="#070a01" d="M 67.5,63.5 C 74.1667,63.5 80.8333,63.5 87.5,63.5C 87.5,69.1667 87.5,74.8333 87.5,80.5C 80.8333,80.5 74.1667,80.5 67.5,80.5C 67.5,74.8333 67.5,69.1667 67.5,63.5 Z"/></g>
</svg>
