<svg width="695" height="830" viewBox="0 0 695 830" fill="none" xmlns="http://www.w3.org/2000/svg">
<path d="M-108.083 92.2393H-29.5V0H76.417V92.2393H155V0H260.917V92.2393H339.5V0H445.417V92.2393H524V0H629.917V92.2393H708.5V0H814.417V92.2393H893V913H-214V0H-108.083V92.2393Z" fill="#A29898"/>
<path d="M-108.083 92.2393H-29.5V0H76.417V92.2393H155V0H260.917V92.2393H339.5V0H445.417V92.2393H524V0H629.917V92.2393H708.5V0H814.417V92.2393H893V913H-214V0H-108.083V92.2393Z" stroke="black"/>
<mask id="mask0_569_10802" style="mask-type:alpha" maskUnits="userSpaceOnUse" x="-300" y="0" width="1296" height="1069">
<path d="M-176 108H-84V0H40V108H132V0H256V108H348V0H472V108H564V0H688V108H780V0H904V108H996V1069H-300V0H-176V108Z" fill="#D9D9D9"/>
<path d="M-176 108H-84V0H40V108H132V0H256V108H348V0H472V108H564V0H688V108H780V0H904V108H996V1069H-300V0H-176V108Z" stroke="black"/>
</mask>
<g mask="url(#mask0_569_10802)">
<rect x="-100.5" y="-53.5" width="101" height="60" fill="#D9D9D9" stroke="#CAC9C9" stroke-width="7"/>
<rect x="-6.5" y="-53.5" width="101" height="60" fill="#D9D9D9" stroke="#CAC9C9" stroke-width="7"/>
<rect x="87.5" y="-53.5" width="101" height="60" fill="#D9D9D9" stroke="#CAC9C9" stroke-width="7"/>
<rect x="181.5" y="-53.5" width="101" height="60" fill="#D9D9D9" stroke="#CAC9C9" stroke-width="7"/>
<rect x="275.5" y="-53.5" width="101" height="60" fill="#D9D9D9" stroke="#CAC9C9" stroke-width="7"/>
<rect x="369.5" y="-53.5" width="101" height="60" fill="#D9D9D9" stroke="#CAC9C9" stroke-width="7"/>
<rect x="463.5" y="-53.5" width="101" height="60" fill="#D9D9D9" stroke="#CAC9C9" stroke-width="7"/>
<rect x="557.5" y="-53.5" width="101" height="60" fill="#D9D9D9" stroke="#CAC9C9" stroke-width="7"/>
<rect x="651.5" y="-53.5" width="101" height="60" fill="#D9D9D9" stroke="#CAC9C9" stroke-width="7"/>
<rect x="-59.5" y="5" width="101" height="43" fill="#D9D9D9" stroke="#CAC9C9" stroke-width="7"/>
<rect x="34.5" y="5" width="101" height="43" fill="#D9D9D9" stroke="#CAC9C9" stroke-width="7"/>
<rect x="128.5" y="5" width="101" height="43" fill="#D9D9D9" stroke="#CAC9C9" stroke-width="7"/>
<rect x="222.5" y="5" width="101" height="43" fill="#D9D9D9" stroke="#CAC9C9" stroke-width="7"/>
<rect x="316.5" y="5" width="101" height="43" fill="#D9D9D9" stroke="#CAC9C9" stroke-width="7"/>
<rect x="410.5" y="5" width="101" height="43" fill="#D9D9D9" stroke="#CAC9C9" stroke-width="7"/>
<rect x="504.5" y="5" width="101" height="43" fill="#D9D9D9" stroke="#CAC9C9" stroke-width="7"/>
<rect x="598.5" y="5" width="101" height="43" fill="#BFB39A" stroke="#CAC9C9" stroke-width="7"/>
<rect x="692.5" y="5" width="101" height="43" fill="#D9D9D9" stroke="#CAC9C9" stroke-width="7"/>
<rect x="-100.5" y="55" width="101" height="43" fill="#D9D9D9" stroke="#CAC9C9" stroke-width="7"/>
<rect x="-6.5" y="55" width="101" height="43" fill="#D9D9D9" stroke="#CAC9C9" stroke-width="7"/>
<rect x="87.5" y="55" width="101" height="43" fill="#BFB39A" stroke="#CAC9C9" stroke-width="7"/>
<rect x="181.5" y="55" width="101" height="43" fill="#D9D9D9" stroke="#CAC9C9" stroke-width="7"/>
<rect x="275.5" y="55" width="101" height="43" fill="#D9D9D9" stroke="#CAC9C9" stroke-width="7"/>
<rect x="369.5" y="55" width="101" height="43" fill="#D9D9D9" stroke="#CAC9C9" stroke-width="7"/>
<rect x="463.5" y="55" width="101" height="43" fill="#D9D9D9" stroke="#CAC9C9" stroke-width="7"/>
<rect x="557.5" y="55" width="101" height="43" fill="#D9D9D9" stroke="#CAC9C9" stroke-width="7"/>
<rect x="651.5" y="55" width="101" height="43" fill="#D9D9D9" stroke="#CAC9C9" stroke-width="7"/>
<rect x="-59.5" y="105" width="101" height="43" fill="#D9D9D9" stroke="#CAC9C9" stroke-width="7"/>
<rect x="34.5" y="105" width="101" height="43" fill="#D9D9D9" stroke="#CAC9C9" stroke-width="7"/>
<rect x="128.5" y="105" width="101" height="43" fill="#D9D9D9" stroke="#CAC9C9" stroke-width="7"/>
<rect x="222.5" y="105" width="101" height="43" fill="#D9D9D9" stroke="#CAC9C9" stroke-width="7"/>
<rect x="316.5" y="105" width="101" height="43" fill="#D9D9D9" stroke="#CAC9C9" stroke-width="7"/>
<rect x="410.5" y="105" width="101" height="43" fill="#D9D9D9" stroke="#CAC9C9" stroke-width="7"/>
<rect x="504.5" y="105" width="101" height="43" fill="#D9D9D9" stroke="#CAC9C9" stroke-width="7"/>
<rect x="598.5" y="105" width="101" height="43" fill="#D9D9D9" stroke="#CAC9C9" stroke-width="7"/>
<rect x="692.5" y="105" width="101" height="43" fill="#D9D9D9" stroke="#CAC9C9" stroke-width="7"/>
<rect x="-100.5" y="155" width="101" height="43" fill="#D9D9D9" stroke="#CAC9C9" stroke-width="7"/>
<rect x="-6.5" y="155" width="101" height="43" fill="#D9D9D9" stroke="#CAC9C9" stroke-width="7"/>
<rect x="87.5" y="155" width="101" height="43" fill="#D9D9D9" stroke="#CAC9C9" stroke-width="7"/>
<rect x="181.5" y="155" width="101" height="43" fill="#D9D9D9" stroke="#CAC9C9" stroke-width="7"/>
<rect x="275.5" y="155" width="101" height="43" fill="#D9D9D9" stroke="#CAC9C9" stroke-width="7"/>
<rect x="369.5" y="155" width="101" height="43" fill="#D9D9D9" stroke="#CAC9C9" stroke-width="7"/>
<rect x="463.5" y="155" width="101" height="43" fill="#D9D9D9" stroke="#CAC9C9" stroke-width="7"/>
<rect x="557.5" y="155" width="101" height="43" fill="#D9D9D9" stroke="#CAC9C9" stroke-width="7"/>
<rect x="651.5" y="155" width="101" height="43" fill="#D9D9D9" stroke="#CAC9C9" stroke-width="7"/>
<rect x="-59.5" y="205" width="101" height="43" fill="#D9D9D9" stroke="#CAC9C9" stroke-width="7"/>
<rect x="34.5" y="205" width="101" height="43" fill="#D9D9D9" stroke="#CAC9C9" stroke-width="7"/>
<rect x="128.5" y="205" width="101" height="43" fill="#D9D9D9" stroke="#CAC9C9" stroke-width="7"/>
<rect x="222.5" y="205" width="101" height="43" fill="#D9D9D9" stroke="#CAC9C9" stroke-width="7"/>
<rect x="316.5" y="205" width="101" height="43" fill="#D9D9D9" stroke="#CAC9C9" stroke-width="7"/>
<rect x="410.5" y="205" width="101" height="43" fill="#D9D9D9" stroke="#CAC9C9" stroke-width="7"/>
<rect x="504.5" y="205" width="101" height="43" fill="#D9D9D9" stroke="#CAC9C9" stroke-width="7"/>
<rect x="598.5" y="205" width="101" height="43" fill="#D9D9D9" stroke="#CAC9C9" stroke-width="7"/>
<rect x="692.5" y="205" width="101" height="43" fill="#D9D9D9" stroke="#CAC9C9" stroke-width="7"/>
<rect x="-100.5" y="255" width="101" height="43" fill="#D9D9D9" stroke="#CAC9C9" stroke-width="7"/>
<rect x="-6.5" y="255" width="101" height="43" fill="#BFB39A" stroke="#CAC9C9" stroke-width="7"/>
<rect x="87.5" y="255" width="101" height="43" fill="#D9D9D9" stroke="#CAC9C9" stroke-width="7"/>
<rect x="181.5" y="255" width="101" height="43" fill="#D9D9D9" stroke="#CAC9C9" stroke-width="7"/>
<rect x="275.5" y="255" width="101" height="43" fill="#D9D9D9" stroke="#CAC9C9" stroke-width="7"/>
<rect x="369.5" y="255" width="101" height="43" fill="#D9D9D9" stroke="#CAC9C9" stroke-width="7"/>
<rect x="463.5" y="255" width="101" height="43" fill="#D9D9D9" stroke="#CAC9C9" stroke-width="7"/>
<rect x="557.5" y="255" width="101" height="43" fill="#D9D9D9" stroke="#CAC9C9" stroke-width="7"/>
<rect x="651.5" y="255" width="101" height="43" fill="#D9D9D9" stroke="#CAC9C9" stroke-width="7"/>
<rect x="-59.5" y="305" width="101" height="43" fill="#D9D9D9" stroke="#CAC9C9" stroke-width="7"/>
<rect x="34.5" y="305" width="101" height="43" fill="#D9D9D9" stroke="#CAC9C9" stroke-width="7"/>
<rect x="128.5" y="305" width="101" height="43" fill="#D9D9D9" stroke="#CAC9C9" stroke-width="7"/>
<rect x="222.5" y="305" width="101" height="43" fill="#D9D9D9" stroke="#CAC9C9" stroke-width="7"/>
<rect x="316.5" y="305" width="101" height="43" fill="#D9D9D9" stroke="#CAC9C9" stroke-width="7"/>
<rect x="410.5" y="305" width="101" height="43" fill="#BFB39A" stroke="#CAC9C9" stroke-width="7"/>
<rect x="504.5" y="305" width="101" height="43" fill="#D9D9D9" stroke="#CAC9C9" stroke-width="7"/>
<rect x="598.5" y="305" width="101" height="43" fill="#D9D9D9" stroke="#CAC9C9" stroke-width="7"/>
<rect x="692.5" y="305" width="101" height="43" fill="#D9D9D9" stroke="#CAC9C9" stroke-width="7"/>
<rect x="-100.5" y="355" width="101" height="43" fill="#D9D9D9" stroke="#CAC9C9" stroke-width="7"/>
<rect x="-6.5" y="355" width="101" height="43" fill="#D9D9D9" stroke="#CAC9C9" stroke-width="7"/>
<rect x="87.5" y="355" width="101" height="43" fill="#D9D9D9" stroke="#CAC9C9" stroke-width="7"/>
<rect x="181.5" y="355" width="101" height="43" fill="#D9D9D9" stroke="#CAC9C9" stroke-width="7"/>
<rect x="275.5" y="355" width="101" height="43" fill="#D9D9D9" stroke="#CAC9C9" stroke-width="7"/>
<rect x="369.5" y="355" width="101" height="43" fill="#D9D9D9" stroke="#CAC9C9" stroke-width="7"/>
<rect x="463.5" y="355" width="101" height="43" fill="#D9D9D9" stroke="#CAC9C9" stroke-width="7"/>
<rect x="557.5" y="355" width="101" height="43" fill="#D9D9D9" stroke="#CAC9C9" stroke-width="7"/>
<rect x="651.5" y="355" width="101" height="43" fill="#D9D9D9" stroke="#CAC9C9" stroke-width="7"/>
<rect x="-59.5" y="405" width="101" height="43" fill="#D9D9D9" stroke="#CAC9C9" stroke-width="7"/>
<rect x="34.5" y="405" width="101" height="43" fill="#D9D9D9" stroke="#CAC9C9" stroke-width="7"/>
<rect x="128.5" y="405" width="101" height="43" fill="#D9D9D9" stroke="#CAC9C9" stroke-width="7"/>
<rect x="222.5" y="405" width="101" height="43" fill="#D9D9D9" stroke="#CAC9C9" stroke-width="7"/>
<rect x="316.5" y="405" width="101" height="43" fill="#D9D9D9" stroke="#CAC9C9" stroke-width="7"/>
<rect x="410.5" y="405" width="101" height="43" fill="#D9D9D9" stroke="#CAC9C9" stroke-width="7"/>
<rect x="504.5" y="405" width="101" height="43" fill="#D9D9D9" stroke="#CAC9C9" stroke-width="7"/>
<rect x="598.5" y="405" width="101" height="43" fill="#D9D9D9" stroke="#CAC9C9" stroke-width="7"/>
<rect x="692.5" y="405" width="101" height="43" fill="#D9D9D9" stroke="#CAC9C9" stroke-width="7"/>
<rect x="-100.5" y="455" width="101" height="43" fill="#D9D9D9" stroke="#CAC9C9" stroke-width="7"/>
<rect x="-6.5" y="455" width="101" height="43" fill="#D9D9D9" stroke="#CAC9C9" stroke-width="7"/>
<rect x="87.5" y="455" width="101" height="43" fill="#D9D9D9" stroke="#CAC9C9" stroke-width="7"/>
<rect x="181.5" y="455" width="101" height="43" fill="#D9D9D9" stroke="#CAC9C9" stroke-width="7"/>
<rect x="275.5" y="455" width="101" height="43" fill="#D9D9D9" stroke="#CAC9C9" stroke-width="7"/>
<rect x="369.5" y="455" width="101" height="43" fill="#D9D9D9" stroke="#CAC9C9" stroke-width="7"/>
<rect x="463.5" y="455" width="101" height="43" fill="#D9D9D9" stroke="#CAC9C9" stroke-width="7"/>
<rect x="557.5" y="455" width="101" height="43" fill="#D9D9D9" stroke="#CAC9C9" stroke-width="7"/>
<rect x="651.5" y="455" width="101" height="43" fill="#D9D9D9" stroke="#CAC9C9" stroke-width="7"/>
<rect x="-59.5" y="505" width="101" height="43" fill="#D9D9D9" stroke="#CAC9C9" stroke-width="7"/>
<rect x="34.5" y="505" width="101" height="43" fill="#D9D9D9" stroke="#CAC9C9" stroke-width="7"/>
<rect x="128.5" y="505" width="101" height="43" fill="#D9D9D9" stroke="#CAC9C9" stroke-width="7"/>
<rect x="222.5" y="505" width="101" height="43" fill="#D9D9D9" stroke="#CAC9C9" stroke-width="7"/>
<rect x="316.5" y="505" width="101" height="43" fill="#D9D9D9" stroke="#CAC9C9" stroke-width="7"/>
<rect x="410.5" y="505" width="101" height="43" fill="#D9D9D9" stroke="#CAC9C9" stroke-width="7"/>
<rect x="504.5" y="505" width="101" height="43" fill="#D9D9D9" stroke="#CAC9C9" stroke-width="7"/>
<rect x="598.5" y="505" width="101" height="43" fill="#D9D9D9" stroke="#CAC9C9" stroke-width="7"/>
<rect x="692.5" y="505" width="101" height="43" fill="#D9D9D9" stroke="#CAC9C9" stroke-width="7"/>
<rect x="-100.5" y="555" width="101" height="43" fill="#D9D9D9" stroke="#CAC9C9" stroke-width="7"/>
<rect x="-6.5" y="555" width="101" height="43" fill="#D9D9D9" stroke="#CAC9C9" stroke-width="7"/>
<rect x="87.5" y="555" width="101" height="43" fill="#D9D9D9" stroke="#CAC9C9" stroke-width="7"/>
<rect x="181.5" y="555" width="101" height="43" fill="#D9D9D9" stroke="#CAC9C9" stroke-width="7"/>
<rect x="275.5" y="555" width="101" height="43" fill="#D9D9D9" stroke="#CAC9C9" stroke-width="7"/>
<rect x="369.5" y="555" width="101" height="43" fill="#D9D9D9" stroke="#CAC9C9" stroke-width="7"/>
<rect x="463.5" y="555" width="101" height="43" fill="#D9D9D9" stroke="#CAC9C9" stroke-width="7"/>
<rect x="557.5" y="555" width="101" height="43" fill="#D9D9D9" stroke="#CAC9C9" stroke-width="7"/>
<rect x="651.5" y="555" width="101" height="43" fill="#D9D9D9" stroke="#CAC9C9" stroke-width="7"/>
<rect x="-59.5" y="605" width="101" height="43" fill="#D9D9D9" stroke="#CAC9C9" stroke-width="7"/>
<rect x="34.5" y="605" width="101" height="43" fill="#D9D9D9" stroke="#CAC9C9" stroke-width="7"/>
<rect x="128.5" y="605" width="101" height="43" fill="#D9D9D9" stroke="#CAC9C9" stroke-width="7"/>
<rect x="222.5" y="605" width="101" height="43" fill="#D9D9D9" stroke="#CAC9C9" stroke-width="7"/>
<rect x="316.5" y="605" width="101" height="43" fill="#D9D9D9" stroke="#CAC9C9" stroke-width="7"/>
<rect x="410.5" y="605" width="101" height="43" fill="#D9D9D9" stroke="#CAC9C9" stroke-width="7"/>
<rect x="504.5" y="605" width="101" height="43" fill="#D9D9D9" stroke="#CAC9C9" stroke-width="7"/>
<rect x="598.5" y="605" width="101" height="43" fill="#D9D9D9" stroke="#CAC9C9" stroke-width="7"/>
<rect x="692.5" y="605" width="101" height="43" fill="#BFB39A" stroke="#CAC9C9" stroke-width="7"/>
<rect x="-100.5" y="655" width="101" height="43" fill="#D9D9D9" stroke="#CAC9C9" stroke-width="7"/>
<rect x="-6.5" y="655" width="101" height="43" fill="#D9D9D9" stroke="#CAC9C9" stroke-width="7"/>
<rect x="87.5" y="655" width="101" height="43" fill="#D9D9D9" stroke="#CAC9C9" stroke-width="7"/>
<rect x="181.5" y="655" width="101" height="43" fill="#BFB39A" stroke="#CAC9C9" stroke-width="7"/>
<rect x="275.5" y="655" width="101" height="43" fill="#D9D9D9" stroke="#CAC9C9" stroke-width="7"/>
<rect x="369.5" y="655" width="101" height="43" fill="#D9D9D9" stroke="#CAC9C9" stroke-width="7"/>
<rect x="463.5" y="655" width="101" height="43" fill="#D9D9D9" stroke="#CAC9C9" stroke-width="7"/>
<rect x="557.5" y="655" width="101" height="43" fill="#D9D9D9" stroke="#CAC9C9" stroke-width="7"/>
<rect x="651.5" y="655" width="101" height="43" fill="#D9D9D9" stroke="#CAC9C9" stroke-width="7"/>
<rect x="-59.5" y="705" width="101" height="43" fill="#D9D9D9" stroke="#CAC9C9" stroke-width="7"/>
<rect x="34.5" y="705" width="101" height="43" fill="#D9D9D9" stroke="#CAC9C9" stroke-width="7"/>
<rect x="128.5" y="705" width="101" height="43" fill="#D9D9D9" stroke="#CAC9C9" stroke-width="7"/>
<rect x="222.5" y="705" width="101" height="43" fill="#D9D9D9" stroke="#CAC9C9" stroke-width="7"/>
<rect x="316.5" y="705" width="101" height="43" fill="#D9D9D9" stroke="#CAC9C9" stroke-width="7"/>
<rect x="410.5" y="705" width="101" height="43" fill="#D9D9D9" stroke="#CAC9C9" stroke-width="7"/>
<rect x="504.5" y="705" width="101" height="43" fill="#D9D9D9" stroke="#CAC9C9" stroke-width="7"/>
<rect x="598.5" y="705" width="101" height="43" fill="#D9D9D9" stroke="#CAC9C9" stroke-width="7"/>
<rect x="692.5" y="705" width="101" height="43" fill="#D9D9D9" stroke="#CAC9C9" stroke-width="7"/>
<rect x="-100.5" y="755" width="101" height="43" fill="#D9D9D9" stroke="#CAC9C9" stroke-width="7"/>
<rect x="-6.5" y="755" width="101" height="43" fill="#D9D9D9" stroke="#CAC9C9" stroke-width="7"/>
<rect x="87.5" y="755" width="101" height="43" fill="#D9D9D9" stroke="#CAC9C9" stroke-width="7"/>
<rect x="181.5" y="755" width="101" height="43" fill="#D9D9D9" stroke="#CAC9C9" stroke-width="7"/>
<rect x="275.5" y="755" width="101" height="43" fill="#D9D9D9" stroke="#CAC9C9" stroke-width="7"/>
<rect x="369.5" y="755" width="101" height="43" fill="#D9D9D9" stroke="#CAC9C9" stroke-width="7"/>
<rect x="463.5" y="755" width="101" height="43" fill="#D9D9D9" stroke="#CAC9C9" stroke-width="7"/>
<rect x="557.5" y="755" width="101" height="43" fill="#D9D9D9" stroke="#CAC9C9" stroke-width="7"/>
<rect x="651.5" y="755" width="101" height="43" fill="#D9D9D9" stroke="#CAC9C9" stroke-width="7"/>
<rect x="-59.5" y="805" width="101" height="43" fill="#D9D9D9" stroke="#CAC9C9" stroke-width="7"/>
<rect x="34.5" y="805" width="101" height="43" fill="#D9D9D9" stroke="#CAC9C9" stroke-width="7"/>
<rect x="128.5" y="805" width="101" height="43" fill="#D9D9D9" stroke="#CAC9C9" stroke-width="7"/>
<rect x="222.5" y="805" width="101" height="43" fill="#D9D9D9" stroke="#CAC9C9" stroke-width="7"/>
<rect x="316.5" y="805" width="101" height="43" fill="#D9D9D9" stroke="#CAC9C9" stroke-width="7"/>
<rect x="410.5" y="805" width="101" height="43" fill="#D9D9D9" stroke="#CAC9C9" stroke-width="7"/>
<rect x="504.5" y="805" width="101" height="43" fill="#D9D9D9" stroke="#CAC9C9" stroke-width="7"/>
<rect x="598.5" y="805" width="101" height="43" fill="#D9D9D9" stroke="#CAC9C9" stroke-width="7"/>
<rect x="692.5" y="805" width="101" height="43" fill="#D9D9D9" stroke="#CAC9C9" stroke-width="7"/>
</g>
</svg>
