<svg width="430" height="693" viewBox="0 0 430 693" fill="none" xmlns="http://www.w3.org/2000/svg">
<path d="M-121.062 66.3223H-77.333V15H-18.3955V66.3223H25.333V15H84.2715V66.3223H128V15H186.938V66.3223H230.667V15H289.604V66.3223H333.333V15H392.271V66.3223H436V523H-180V15H-121.062V66.3223Z" fill="#A29898"/>
<path d="M-121.062 66.3223H-77.333V15H-18.3955V66.3223H25.333V15H84.2715V66.3223H128V15H186.938V66.3223H230.667V15H289.604V66.3223H333.333V15H392.271V66.3223H436V523H-180V15H-121.062V66.3223Z" stroke="black"/>
<path d="M-218.553 1C-218 1 -217.553 1.44772 -217.553 2V68.9014C-217.553 69.4536 -217.105 69.9012 -216.553 69.9014H-161.833C-161.281 69.9012 -160.833 69.4535 -160.833 68.9014V2C-160.833 1.44772 -160.385 1 -159.833 1H-85.3857C-84.8335 1.00003 -84.3857 1.44774 -84.3857 2V68.9014C-84.3857 69.4537 -83.938 69.9014 -83.3857 69.9014H-28.667C-28.1147 69.9014 -27.667 69.4537 -27.667 68.9014V2C-27.667 1.44783 -27.2191 1.00018 -26.667 1H47.7812C48.3334 1.0002 48.7812 1.44784 48.7812 2V68.9014C48.7812 69.4537 49.229 69.9014 49.7812 69.9014H104.5C105.052 69.9014 105.5 69.4537 105.5 68.9014V2C105.5 1.44772 105.948 1 106.5 1H180.947C181.5 1 181.947 1.44772 181.947 2V68.9014C181.947 69.4536 182.395 69.9012 182.947 69.9014H237.667C238.219 69.9012 238.667 69.4535 238.667 68.9014V2C238.667 1.44772 239.115 1 239.667 1H314.114C314.667 1.00003 315.114 1.44774 315.114 2V68.9014C315.114 69.4537 315.562 69.9014 316.114 69.9014H370.833C371.385 69.9014 371.833 69.4537 371.833 68.9014V2C371.833 1.44784 372.281 1.0002 372.833 1H447.281C447.833 1.0002 448.281 1.44784 448.281 2V68.9014C448.281 69.4537 448.729 69.9014 449.281 69.9014H504C504.552 69.9014 505 70.3493 505 70.9014V683H-294V2C-294 1.44772 -293.552 1 -293 1H-218.553Z" fill="#CAC9C9"/>
<path d="M-218.553 1C-218 1 -217.553 1.44772 -217.553 2V68.9014C-217.553 69.4536 -217.105 69.9012 -216.553 69.9014H-161.833C-161.281 69.9012 -160.833 69.4535 -160.833 68.9014V2C-160.833 1.44772 -160.385 1 -159.833 1H-85.3857C-84.8335 1.00003 -84.3857 1.44774 -84.3857 2V68.9014C-84.3857 69.4537 -83.938 69.9014 -83.3857 69.9014H-28.667C-28.1147 69.9014 -27.667 69.4537 -27.667 68.9014V2C-27.667 1.44783 -27.2191 1.00018 -26.667 1H47.7812C48.3334 1.0002 48.7812 1.44784 48.7812 2V68.9014C48.7812 69.4537 49.229 69.9014 49.7812 69.9014H104.5C105.052 69.9014 105.5 69.4537 105.5 68.9014V2C105.5 1.44772 105.948 1 106.5 1H180.947C181.5 1 181.947 1.44772 181.947 2V68.9014C181.947 69.4536 182.395 69.9012 182.947 69.9014H237.667C238.219 69.9012 238.667 69.4535 238.667 68.9014V2C238.667 1.44772 239.115 1 239.667 1H314.114C314.667 1.00003 315.114 1.44774 315.114 2V68.9014C315.114 69.4537 315.562 69.9014 316.114 69.9014H370.833C371.385 69.9014 371.833 69.4537 371.833 68.9014V2C371.833 1.44784 372.281 1.0002 372.833 1H447.281C447.833 1.0002 448.281 1.44784 448.281 2V68.9014C448.281 69.4537 448.729 69.9014 449.281 69.9014H504C504.552 69.9014 505 70.3493 505 70.9014V683H-294V2C-294 1.44772 -293.552 1 -293 1H-218.553Z" stroke="black"/>
<mask id="mask0_986_17165" style="mask-type:alpha" maskUnits="userSpaceOnUse" x="-294" y="0" width="799" height="693">
<path d="M-224.553 0C-220.687 0 -217.553 3.13401 -217.553 7V63.0127C-217.553 66.8786 -214.419 70.0126 -210.553 70.0127H-167.833C-163.967 70.0125 -160.833 66.8786 -160.833 63.0127V7C-160.833 3.13401 -157.699 0 -153.833 0H-91.3857C-87.5198 3.29856e-05 -84.3857 3.13403 -84.3857 7V63.0127C-84.3857 66.8787 -81.2517 70.0127 -77.3857 70.0127H-34.667C-30.801 70.0127 -27.667 66.8787 -27.667 63.0127V7C-27.667 3.13412 -24.5328 0.000181419 -20.667 0H41.7812C45.6471 0.000197907 48.7812 3.13413 48.7812 7V63.0127C48.7812 66.8787 51.9153 70.0127 55.7812 70.0127H98.5C102.366 70.0127 105.5 66.8787 105.5 63.0127V7C105.5 3.13401 108.634 0 112.5 0H174.947C178.813 0 181.947 3.13401 181.947 7V63.0127C181.947 66.8786 185.081 70.0125 188.947 70.0127H231.667C235.533 70.0125 238.667 66.8786 238.667 63.0127V7C238.667 3.13401 241.801 0 245.667 0H308.114C311.98 3.29859e-05 315.114 3.13403 315.114 7V63.0127C315.114 66.8787 318.248 70.0127 322.114 70.0127H364.833C368.699 70.0127 371.833 66.8787 371.833 63.0127V7C371.833 3.13413 374.967 0.000197912 378.833 0H441.281C445.147 0.000197909 448.281 3.13413 448.281 7V63.0127C448.281 66.8787 451.415 70.0127 455.281 70.0127H498C501.866 70.0127 505 73.1469 505 77.0127V693H-294V7C-294 3.13401 -290.866 0 -287 0H-224.553Z" fill="#D9D9D9"/>
<path d="M-224.553 0C-220.687 0 -217.553 3.13401 -217.553 7V63.0127C-217.553 66.8786 -214.419 70.0126 -210.553 70.0127H-167.833C-163.967 70.0125 -160.833 66.8786 -160.833 63.0127V7C-160.833 3.13401 -157.699 0 -153.833 0H-91.3857C-87.5198 3.29856e-05 -84.3857 3.13403 -84.3857 7V63.0127C-84.3857 66.8787 -81.2517 70.0127 -77.3857 70.0127H-34.667C-30.801 70.0127 -27.667 66.8787 -27.667 63.0127V7C-27.667 3.13412 -24.5328 0.000181419 -20.667 0H41.7812C45.6471 0.000197907 48.7812 3.13413 48.7812 7V63.0127C48.7812 66.8787 51.9153 70.0127 55.7812 70.0127H98.5C102.366 70.0127 105.5 66.8787 105.5 63.0127V7C105.5 3.13401 108.634 0 112.5 0H174.947C178.813 0 181.947 3.13401 181.947 7V63.0127C181.947 66.8786 185.081 70.0125 188.947 70.0127H231.667C235.533 70.0125 238.667 66.8786 238.667 63.0127V7C238.667 3.13401 241.801 0 245.667 0H308.114C311.98 3.29859e-05 315.114 3.13403 315.114 7V63.0127C315.114 66.8787 318.248 70.0127 322.114 70.0127H364.833C368.699 70.0127 371.833 66.8787 371.833 63.0127V7C371.833 3.13413 374.967 0.000197912 378.833 0H441.281C445.147 0.000197909 448.281 3.13413 448.281 7V63.0127C448.281 66.8787 451.415 70.0127 455.281 70.0127H498C501.866 70.0127 505 73.1469 505 77.0127V693H-294V7C-294 3.13401 -290.866 0 -287 0H-224.553Z" stroke="black"/>
</mask>
<g mask="url(#mask0_986_17165)">
<path d="M-17.5996 0C14.8917 1.2838e-05 36.3084 1.60839 68.7998 1.6084C74.1328 1.6084 80.1245 1.40467 85.6318 1.14258C95.541 0.671006 104 8.48686 104 18.4072V20C104 27.8105 102.4 32.5919 102.4 40.4023C102.4 48.2126 104 52.1896 104 60V62.999C104 72.3879 96.3898 80 87.001 80H74C49.7875 80 36.0123 78.1914 11.7998 78.1914C-5.37968 78.1914 -29.2929 79.1018 -41.7354 79.6309C-46.046 79.8139 -49.4774 76.0623 -48.9102 71.7852C-48.837 71.2338 -48.831 70.675 -48.8916 70.1221L-50 60C-50 60 -50 47.8105 -50 40C-50 32.1895 -48.7998 27.7099 -48.7998 19.8994C-48.7998 19.5196 -48.8032 19.1296 -48.8086 18.7314C-48.9449 8.67986 -41.2829 0.00019872 -31.2305 0H-17.5996Z" fill="#D9D9D9"/>
<path d="M-17.5996 0C14.8917 1.2838e-05 36.3084 1.60839 68.7998 1.6084C74.1328 1.6084 80.1245 1.40467 85.6318 1.14258C95.541 0.671006 104 8.48686 104 18.4072V20C104 27.8105 102.4 32.5919 102.4 40.4023C102.4 48.2126 104 52.1896 104 60V62.999C104 72.3879 96.3898 80 87.001 80H74C49.7875 80 36.0123 78.1914 11.7998 78.1914C-5.37968 78.1914 -29.2929 79.1018 -41.7354 79.6309C-46.046 79.8139 -49.4774 76.0623 -48.9102 71.7852C-48.837 71.2338 -48.831 70.675 -48.8916 70.1221L-50 60C-50 60 -50 47.8105 -50 40C-50 32.1895 -48.7998 27.7099 -48.7998 19.8994C-48.7998 19.5196 -48.8032 19.1296 -48.8086 18.7314C-48.9449 8.67986 -41.2829 0.00019872 -31.2305 0H-17.5996Z" stroke="#CAC9C9"/>
<path d="M142.02 81.3916C173.67 82.7611 222.539 81.3916 222.539 81.3916H245.354C254.991 81.3915 262.709 73.3954 262.473 63.7607C262.178 51.7484 261.921 35.8776 262.195 23.7002C262.237 21.842 262.299 19.7593 262.369 17.6357C262.667 8.65881 256.038 0.891762 247.071 0.37207C242.018 0.0791967 236.604 -0.102864 232.201 0.0625C209.451 0.916866 178.277 2.28054 151.683 2.4668C142.18 2.53335 133.16 2.41182 125.812 2.24512C116.11 2.02512 108 9.77461 108 19.4785V63.875C108 73.4626 115.924 81.1507 125.512 81.126C130.986 81.1119 136.923 81.1711 142.02 81.3916Z" fill="#D9D9D9"/>
<path d="M142.02 81.3916C173.67 82.7611 222.539 81.3916 222.539 81.3916H245.354C254.991 81.3915 262.709 73.3954 262.473 63.7607C262.178 51.7484 261.921 35.8776 262.195 23.7002C262.237 21.842 262.299 19.7593 262.369 17.6357C262.667 8.65881 256.038 0.891762 247.071 0.37207C242.018 0.0791967 236.604 -0.102864 232.201 0.0625C209.451 0.916866 178.277 2.28054 151.683 2.4668C142.18 2.53335 133.16 2.41182 125.812 2.24512C116.11 2.02512 108 9.77461 108 19.4785V63.875C108 73.4626 115.924 81.1507 125.512 81.126C130.986 81.1119 136.923 81.1711 142.02 81.3916Z" stroke="#CAC9C9"/>
<path d="M298.806 81.6982C331.508 81.6983 337.03 82.8366 369.662 80.6934C378.002 80.1456 392.805 80.1952 404.544 80.3535C414.112 80.4823 422 72.7929 422 63.2236V60.6982C422 52.8901 419.584 49.3448 420.792 40.7041C422 32.0631 422 28.5174 422 20.709V17.7148C422 8.32625 414.39 0.714901 405.001 0.714844H391.806C382.949 0.714844 356.175 2.32237 329.402 0.714844C315.153 -0.14071 298.395 -0.0864474 285.835 0.152344C275.758 0.344192 268.582 9.3899 268.798 19.4668C268.807 19.8908 268.812 20.3056 268.812 20.709C268.812 28.5493 267 32.8957 267 40.7041V64.5645C267 73.6057 274.077 81.0727 283.113 81.3789C288.34 81.556 294.02 81.6982 298.806 81.6982Z" fill="#D9D9D9"/>
<path d="M298.806 81.6982C331.508 81.6983 337.03 82.8366 369.662 80.6934C378.002 80.1456 392.805 80.1952 404.544 80.3535C414.112 80.4823 422 72.7929 422 63.2236V60.6982C422 52.8901 419.584 49.3448 420.792 40.7041C422 32.0631 422 28.5174 422 20.709V17.7148C422 8.32625 414.39 0.714901 405.001 0.714844H391.806C382.949 0.714844 356.175 2.32237 329.402 0.714844C315.153 -0.14071 298.395 -0.0864474 285.835 0.152344C275.758 0.344192 268.582 9.3899 268.798 19.4668C268.807 19.8908 268.812 20.3056 268.812 20.709C268.812 28.5493 267 32.8957 267 40.7041V64.5645C267 73.6057 274.077 81.0727 283.113 81.3789C288.34 81.556 294.02 81.6982 298.806 81.6982Z" stroke="#CAC9C9"/>
<path d="M563.003 82C572.392 82 580.211 74.356 579.151 65.0273C579.104 64.6113 579.055 64.2011 579.002 63.7998C578.004 56.2 580 49.9715 580 42.2002V19.4014C580 10.0125 572.39 2.40039 563.001 2.40039H550.055C525.886 2.40039 512.735 6.5671e-06 488.566 0C474.412 0 455.473 0.822728 442.209 1.50488C433.247 1.96578 426.279 9.38923 426.279 18.3633V22.2998C426.279 22.2998 427.277 33.629 427.277 41.4004C427.277 49.1714 425.281 51.2002 426.279 62.0996C426.293 62.2483 426.306 62.397 426.319 62.5449C427.213 72.8099 435.446 81.7679 445.747 81.5303C460.319 81.1938 478.933 80.7998 486.171 80.7998C518.603 80.7998 509.237 82 541.67 82H563.003Z" fill="#D9D9D9"/>
<path d="M563.003 82C572.392 82 580.211 74.356 579.151 65.0273C579.104 64.6113 579.055 64.2011 579.002 63.7998C578.004 56.2 580 49.9715 580 42.2002V19.4014C580 10.0125 572.39 2.40039 563.001 2.40039H550.055C525.886 2.40039 512.735 6.5671e-06 488.566 0C474.412 0 455.473 0.822728 442.209 1.50488C433.247 1.96578 426.279 9.38923 426.279 18.3633V22.2998C426.279 22.2998 427.277 33.629 427.277 41.4004C427.277 49.1714 425.281 51.2002 426.279 62.0996C426.293 62.2483 426.306 62.397 426.319 62.5449C427.213 72.8099 435.446 81.7679 445.747 81.5303C460.319 81.1938 478.933 80.7998 486.171 80.7998C518.603 80.7998 509.237 82 541.67 82H563.003Z" stroke="#CAC9C9"/>
<path d="M37.5029 85C46.8917 85.0001 54.7135 92.6447 53.6465 101.973C53.5989 102.389 53.5482 102.799 53.4951 103.2C52.4906 110.8 54.5 117.029 54.5 124.8V147.599C54.5 156.987 46.8898 164.6 37.501 164.6H24.3604C0.0348841 164.6 -13.2019 167 -37.5273 167C-51.8076 167 -70.9271 166.173 -84.2822 165.49C-93.2471 165.032 -100.219 157.606 -100.219 148.63V144.7C-100.219 144.7 -99.2139 133.371 -99.2139 125.6C-99.2139 117.829 -101.223 115.8 -100.219 104.9C-100.205 104.755 -100.192 104.61 -100.18 104.466C-99.2788 94.1975 -91.0452 85.2302 -80.7402 85.4668C-66.0562 85.8039 -47.2429 86.2002 -39.9385 86.2002C-7.29536 86.2002 -16.7223 85 15.9209 85H37.5029Z" fill="#D9D9D9"/>
<path d="M37.5029 85C46.8917 85.0001 54.7135 92.6447 53.6465 101.973C53.5989 102.389 53.5482 102.799 53.4951 103.2C52.4906 110.8 54.5 117.029 54.5 124.8V147.599C54.5 156.987 46.8898 164.6 37.501 164.6H24.3604C0.0348841 164.6 -13.2019 167 -37.5273 167C-51.8076 167 -70.9271 166.173 -84.2822 165.49C-93.2471 165.032 -100.219 157.606 -100.219 148.63V144.7C-100.219 144.7 -99.2139 133.371 -99.2139 125.6C-99.2139 117.829 -101.223 115.8 -100.219 104.9C-100.205 104.755 -100.192 104.61 -100.18 104.466C-99.2788 94.1975 -91.0452 85.2302 -80.7402 85.4668C-66.0562 85.8039 -47.2429 86.2002 -39.9385 86.2002C-7.29536 86.2002 -16.7223 85 15.9209 85H37.5029Z" stroke="#CAC9C9"/>
<path d="M91.1104 85C123.813 85 145.369 86.6084 178.071 86.6084C183.48 86.6084 189.563 86.4017 195.142 86.1367C205.047 85.6663 213.5 93.4814 213.5 103.398V105C213.5 112.81 211.89 117.592 211.89 125.402C211.89 133.213 213.5 137.19 213.5 145V147.999C213.5 157.388 205.89 165 196.501 165H183.306C158.936 165 145.071 163.191 120.701 163.191C103.384 163.191 79.2701 164.104 66.7627 164.633C62.4544 164.815 59.026 161.063 59.5967 156.789C59.6706 156.235 59.6765 155.674 59.6152 155.118L58.5 145C58.5 145 58.5 132.81 58.5 125C58.5 117.19 59.708 112.71 59.708 104.899C59.708 104.523 59.7046 104.137 59.6992 103.743C59.5631 93.6871 67.2253 85 77.2822 85H91.1104Z" fill="#D9D9D9"/>
<path d="M91.1104 85C123.813 85 145.369 86.6084 178.071 86.6084C183.48 86.6084 189.563 86.4017 195.142 86.1367C205.047 85.6663 213.5 93.4814 213.5 103.398V105C213.5 112.81 211.89 117.592 211.89 125.402C211.89 133.213 213.5 137.19 213.5 145V147.999C213.5 157.388 205.89 165 196.501 165H183.306C158.936 165 145.071 163.191 120.701 163.191C103.384 163.191 79.2701 164.104 66.7627 164.633C62.4544 164.815 59.026 161.063 59.5967 156.789C59.6706 156.235 59.6765 155.674 59.6152 155.118L58.5 145C58.5 145 58.5 132.81 58.5 125C58.5 117.19 59.708 112.71 59.708 104.899C59.708 104.523 59.7046 104.137 59.6992 103.743C59.5631 93.6871 67.2253 85 77.2822 85H91.1104Z" stroke="#CAC9C9"/>
<path d="M251.3 85.6084C282.706 84.2407 331.175 85.6049 331.3 85.6084H353.857C363.493 85.6084 371.21 93.6022 370.976 103.235C370.683 115.248 370.427 131.121 370.7 143.3C370.742 145.163 370.803 147.251 370.873 149.38C371.169 158.35 364.548 166.113 355.588 166.633C350.592 166.923 345.25 167.102 340.9 166.938C318.297 166.083 287.324 164.719 260.9 164.533C251.512 164.467 242.598 164.587 235.318 164.752C225.615 164.972 217.5 157.222 217.5 147.516V103.129C217.5 93.5399 225.426 85.851 235.015 85.874C240.421 85.887 246.272 85.8273 251.3 85.6084Z" fill="#D9D9D9"/>
<path d="M251.3 85.6084C282.706 84.2407 331.175 85.6049 331.3 85.6084H353.857C363.493 85.6084 371.21 93.6022 370.976 103.235C370.683 115.248 370.427 131.121 370.7 143.3C370.742 145.163 370.803 147.251 370.873 149.38C371.169 158.35 364.548 166.113 355.588 166.633C350.592 166.923 345.25 167.102 340.9 166.938C318.297 166.083 287.324 164.719 260.9 164.533C251.512 164.467 242.598 164.587 235.318 164.752C225.615 164.972 217.5 157.222 217.5 147.516V103.129C217.5 93.5399 225.426 85.851 235.015 85.874C240.421 85.887 246.272 85.8273 251.3 85.6084Z" stroke="#CAC9C9"/>
<path d="M407.306 166.698C440.008 166.698 445.53 167.837 478.162 165.693C486.502 165.146 501.305 165.195 513.044 165.354C522.612 165.482 530.5 157.793 530.5 148.224V145.698C530.5 137.89 528.084 134.345 529.292 125.704C530.5 117.063 530.5 113.517 530.5 105.709V102.715C530.5 93.3262 522.89 85.7149 513.501 85.7148H500.306C491.449 85.7148 464.675 87.3224 437.902 85.7148C423.653 84.8593 406.895 84.9136 394.335 85.1523C384.258 85.3442 377.082 94.3899 377.298 104.467C377.307 104.891 377.312 105.306 377.312 105.709C377.312 113.549 375.5 117.896 375.5 125.704V149.564C375.5 158.606 382.577 166.073 391.613 166.379C396.84 166.556 402.52 166.698 407.306 166.698Z" fill="#D9D9D9"/>
<path d="M407.306 166.698C440.008 166.698 445.53 167.837 478.162 165.693C486.502 165.146 501.305 165.195 513.044 165.354C522.612 165.482 530.5 157.793 530.5 148.224V145.698C530.5 137.89 528.084 134.345 529.292 125.704C530.5 117.063 530.5 113.517 530.5 105.709V102.715C530.5 93.3262 522.89 85.7149 513.501 85.7148H500.306C491.449 85.7148 464.675 87.3224 437.902 85.7148C423.653 84.8593 406.895 84.9136 394.335 85.1523C384.258 85.3442 377.082 94.3899 377.298 104.467C377.307 104.891 377.312 105.306 377.312 105.709C377.312 113.549 375.5 117.896 375.5 125.704V149.564C375.5 158.606 382.577 166.073 391.613 166.379C396.84 166.556 402.52 166.698 407.306 166.698Z" stroke="#CAC9C9"/>
<path d="M71.5996 170C39.1083 170 17.6916 171.608 -14.7998 171.608C-20.1328 171.608 -26.1245 171.405 -31.6318 171.143C-41.541 170.671 -49.9998 178.487 -50 188.407V190C-50 197.81 -48.4004 202.592 -48.4004 210.402C-48.4004 218.213 -50 222.19 -50 230V232.999C-50 242.388 -42.3898 250 -33.001 250H-20C4.2125 250 17.9877 248.191 42.2002 248.191C59.3797 248.191 83.2929 249.102 95.7354 249.631C100.046 249.814 103.477 246.062 102.91 241.785C102.837 241.234 102.831 240.675 102.892 240.122L104 230C104 230 104 217.81 104 210C104 202.19 102.8 197.71 102.8 189.899C102.8 189.52 102.803 189.13 102.809 188.731C102.945 178.68 95.2829 170 85.2305 170H71.5996Z" fill="#D9D9D9"/>
<path d="M71.5996 170C39.1083 170 17.6916 171.608 -14.7998 171.608C-20.1328 171.608 -26.1245 171.405 -31.6318 171.143C-41.541 170.671 -49.9998 178.487 -50 188.407V190C-50 197.81 -48.4004 202.592 -48.4004 210.402C-48.4004 218.213 -50 222.19 -50 230V232.999C-50 242.388 -42.3898 250 -33.001 250H-20C4.2125 250 17.9877 248.191 42.2002 248.191C59.3797 248.191 83.2929 249.102 95.7354 249.631C100.046 249.814 103.477 246.062 102.91 241.785C102.837 241.234 102.831 240.675 102.892 240.122L104 230C104 230 104 217.81 104 210C104 202.19 102.8 197.71 102.8 189.899C102.8 189.52 102.803 189.13 102.809 188.731C102.945 178.68 95.2829 170 85.2305 170H71.5996Z" stroke="#CAC9C9"/>
<path d="M228.2 251.392C196.794 252.759 148.325 251.395 148.2 251.392H125.643C116.007 251.392 108.29 243.398 108.524 233.765C108.817 221.752 109.073 205.879 108.8 193.7C108.758 191.837 108.697 189.749 108.627 187.62C108.331 178.65 114.952 170.887 123.912 170.367C128.908 170.077 134.25 169.898 138.6 170.062C161.203 170.917 192.176 172.281 218.6 172.467C227.988 172.533 236.902 172.413 244.182 172.248C253.885 172.028 262 179.778 262 189.484V233.871C262 243.46 254.074 251.149 244.485 251.126C239.079 251.113 233.228 251.173 228.2 251.392Z" fill="#D9D9D9"/>
<path d="M228.2 251.392C196.794 252.759 148.325 251.395 148.2 251.392H125.643C116.007 251.392 108.29 243.398 108.524 233.765C108.817 221.752 109.073 205.879 108.8 193.7C108.758 191.837 108.697 189.749 108.627 187.62C108.331 178.65 114.952 170.887 123.912 170.367C128.908 170.077 134.25 169.898 138.6 170.062C161.203 170.917 192.176 172.281 218.6 172.467C227.988 172.533 236.902 172.413 244.182 172.248C253.885 172.028 262 179.778 262 189.484V233.871C262 243.46 254.074 251.149 244.485 251.126C239.079 251.113 233.228 251.173 228.2 251.392Z" stroke="#CAC9C9"/>
<path d="M389.194 251.698C356.492 251.698 350.97 252.837 318.338 250.693C309.998 250.146 295.195 250.195 283.456 250.354C273.888 250.482 266 242.793 266 233.224V230.698C266 222.89 268.416 219.345 267.208 210.704C266 202.063 266 198.517 266 190.709V187.715C266 178.326 273.61 170.715 282.999 170.715H296.194C305.051 170.715 331.825 172.322 358.598 170.715C372.847 169.859 389.605 169.914 402.165 170.152C412.242 170.344 419.418 179.39 419.202 189.467C419.193 189.891 419.188 190.306 419.188 190.709C419.188 198.549 421 202.896 421 210.704V234.564C421 243.606 413.923 251.073 404.887 251.379C399.66 251.556 393.98 251.698 389.194 251.698Z" fill="#D9D9D9"/>
<path d="M389.194 251.698C356.492 251.698 350.97 252.837 318.338 250.693C309.998 250.146 295.195 250.195 283.456 250.354C273.888 250.482 266 242.793 266 233.224V230.698C266 222.89 268.416 219.345 267.208 210.704C266 202.063 266 198.517 266 190.709V187.715C266 178.326 273.61 170.715 282.999 170.715H296.194C305.051 170.715 331.825 172.322 358.598 170.715C372.847 169.859 389.605 169.914 402.165 170.152C412.242 170.344 419.418 179.39 419.202 189.467C419.193 189.891 419.188 190.306 419.188 190.709C419.188 198.549 421 202.896 421 210.704V234.564C421 243.606 413.923 251.073 404.887 251.379C399.66 251.556 393.98 251.698 389.194 251.698Z" stroke="#CAC9C9"/>
<path d="M441.997 252C432.608 252 424.789 244.356 425.849 235.027C425.896 234.611 425.945 234.201 425.998 233.8C426.996 226.2 425 219.971 425 212.2V189.401C425 180.013 432.61 172.4 441.999 172.4H454.945C479.114 172.4 492.265 170 516.434 170C530.588 170 549.527 170.823 562.791 171.505C571.753 171.966 578.721 179.389 578.721 188.363V192.3C578.721 192.3 577.723 203.629 577.723 211.4C577.723 219.171 579.719 221.2 578.721 232.1C578.707 232.248 578.694 232.397 578.681 232.545C577.787 242.81 569.554 251.768 559.253 251.53C544.681 251.194 526.067 250.8 518.829 250.8C486.397 250.8 495.763 252 463.33 252H441.997Z" fill="#D9D9D9"/>
<path d="M441.997 252C432.608 252 424.789 244.356 425.849 235.027C425.896 234.611 425.945 234.201 425.998 233.8C426.996 226.2 425 219.971 425 212.2V189.401C425 180.013 432.61 172.4 441.999 172.4H454.945C479.114 172.4 492.265 170 516.434 170C530.588 170 549.527 170.823 562.791 171.505C571.753 171.966 578.721 179.389 578.721 188.363V192.3C578.721 192.3 577.723 203.629 577.723 211.4C577.723 219.171 579.719 221.2 578.721 232.1C578.707 232.248 578.694 232.397 578.681 232.545C577.787 242.81 569.554 251.768 559.253 251.53C544.681 251.194 526.067 250.8 518.829 250.8C486.397 250.8 495.763 252 463.33 252H441.997Z" stroke="#CAC9C9"/>
<path d="M-83.5029 255C-92.8917 255 -100.711 262.644 -99.6514 271.973C-99.6041 272.389 -99.5547 272.799 -99.502 273.2C-98.5039 280.8 -100.5 287.029 -100.5 294.8V317.599C-100.5 326.987 -92.8898 334.6 -83.501 334.6H-70.5547C-46.3862 334.6 -33.2349 337 -9.06641 337C5.08776 337 24.0265 336.177 37.291 335.495C46.2532 335.034 53.2207 327.611 53.2207 318.637V314.7C53.2207 314.7 52.2227 303.371 52.2227 295.6C52.2227 287.829 54.2189 285.8 53.2207 274.9C53.2071 274.752 53.1935 274.603 53.1807 274.455C52.287 264.19 44.054 255.232 33.7529 255.47C19.1806 255.806 0.56736 256.2 -6.6709 256.2C-39.1033 256.2 -29.7373 255 -62.1699 255H-83.5029Z" fill="#D9D9D9"/>
<path d="M-83.5029 255C-92.8917 255 -100.711 262.644 -99.6514 271.973C-99.6041 272.389 -99.5547 272.799 -99.502 273.2C-98.5039 280.8 -100.5 287.029 -100.5 294.8V317.599C-100.5 326.987 -92.8898 334.6 -83.501 334.6H-70.5547C-46.3862 334.6 -33.2349 337 -9.06641 337C5.08776 337 24.0265 336.177 37.291 335.495C46.2532 335.034 53.2207 327.611 53.2207 318.637V314.7C53.2207 314.7 52.2227 303.371 52.2227 295.6C52.2227 287.829 54.2189 285.8 53.2207 274.9C53.2071 274.752 53.1935 274.603 53.1807 274.455C52.287 264.19 44.054 255.232 33.7529 255.47C19.1806 255.806 0.56736 256.2 -6.6709 256.2C-39.1033 256.2 -29.7373 255 -62.1699 255H-83.5029Z" stroke="#CAC9C9"/>
<path d="M179.89 255C147.187 255 125.631 256.608 92.9287 256.608C87.5196 256.608 81.4367 256.402 75.8584 256.137C65.9526 255.666 57.5 263.481 57.5 273.398V275C57.5 282.81 59.1104 287.592 59.1104 295.402C59.1103 303.213 57.5 307.19 57.5 315V317.999C57.5 327.388 65.1102 335 74.499 335H87.6943C112.064 335 125.929 333.191 150.299 333.191C167.616 333.191 191.73 334.104 204.237 334.633C208.546 334.815 211.974 331.063 211.403 326.789C211.329 326.235 211.324 325.674 211.385 325.118L212.5 315C212.5 315 212.5 302.81 212.5 295C212.5 287.19 211.292 282.71 211.292 274.899C211.292 274.523 211.295 274.137 211.301 273.743C211.437 263.687 203.775 255 193.718 255H179.89Z" fill="#D9D9D9"/>
<path d="M179.89 255C147.187 255 125.631 256.608 92.9287 256.608C87.5196 256.608 81.4367 256.402 75.8584 256.137C65.9526 255.666 57.5 263.481 57.5 273.398V275C57.5 282.81 59.1104 287.592 59.1104 295.402C59.1103 303.213 57.5 307.19 57.5 315V317.999C57.5 327.388 65.1102 335 74.499 335H87.6943C112.064 335 125.929 333.191 150.299 333.191C167.616 333.191 191.73 334.104 204.237 334.633C208.546 334.815 211.974 331.063 211.403 326.789C211.329 326.235 211.324 325.674 211.385 325.118L212.5 315C212.5 315 212.5 302.81 212.5 295C212.5 287.19 211.292 282.71 211.292 274.899C211.292 274.523 211.295 274.137 211.301 273.743C211.437 263.687 203.775 255 193.718 255H179.89Z" stroke="#CAC9C9"/>
<path d="M336.7 255.608C305.294 254.241 256.825 255.605 256.7 255.608H234.143C224.507 255.608 216.79 263.602 217.024 273.235C217.317 285.248 217.573 301.121 217.3 313.3C217.258 315.163 217.197 317.251 217.127 319.38C216.831 328.35 223.452 336.113 232.412 336.633C237.408 336.923 242.75 337.102 247.1 336.938C269.703 336.083 300.676 334.719 327.1 334.533C336.488 334.467 345.402 334.587 352.682 334.752C362.385 334.972 370.5 327.222 370.5 317.516V273.129C370.5 263.54 362.574 255.851 352.985 255.874C347.579 255.887 341.728 255.827 336.7 255.608Z" fill="#D9D9D9"/>
<path d="M336.7 255.608C305.294 254.241 256.825 255.605 256.7 255.608H234.143C224.507 255.608 216.79 263.602 217.024 273.235C217.317 285.248 217.573 301.121 217.3 313.3C217.258 315.163 217.197 317.251 217.127 319.38C216.831 328.35 223.452 336.113 232.412 336.633C237.408 336.923 242.75 337.102 247.1 336.938C269.703 336.083 300.676 334.719 327.1 334.533C336.488 334.467 345.402 334.587 352.682 334.752C362.385 334.972 370.5 327.222 370.5 317.516V273.129C370.5 263.54 362.574 255.851 352.985 255.874C347.579 255.887 341.728 255.827 336.7 255.608Z" stroke="#CAC9C9"/>
<path d="M496.9 336.698C464.409 336.698 458.922 337.837 426.5 335.693C418.241 335.147 403.605 335.194 391.96 335.352C382.39 335.481 374.5 327.791 374.5 318.221V315.698C374.5 307.89 376.9 304.345 375.7 295.704C374.5 287.063 374.5 283.517 374.5 275.709V272.715C374.5 263.326 382.11 255.715 391.499 255.715H404.5C413.3 255.715 439.9 257.322 466.5 255.715C480.62 254.862 497.219 254.914 509.688 255.151C519.757 255.343 526.932 264.376 526.714 274.444C526.705 274.876 526.7 275.298 526.7 275.709C526.7 283.549 528.5 287.896 528.5 295.704V319.57C528.5 328.609 521.426 336.075 512.393 336.382C507.227 336.557 501.625 336.698 496.9 336.698Z" fill="#D9D9D9"/>
<path d="M496.9 336.698C464.409 336.698 458.922 337.837 426.5 335.693C418.241 335.147 403.605 335.194 391.96 335.352C382.39 335.481 374.5 327.791 374.5 318.221V315.698C374.5 307.89 376.9 304.345 375.7 295.704C374.5 287.063 374.5 283.517 374.5 275.709V272.715C374.5 263.326 382.11 255.715 391.499 255.715H404.5C413.3 255.715 439.9 257.322 466.5 255.715C480.62 254.862 497.219 254.914 509.688 255.151C519.757 255.343 526.932 264.376 526.714 274.444C526.705 274.876 526.7 275.298 526.7 275.709C526.7 283.549 528.5 287.896 528.5 295.704V319.57C528.5 328.609 521.426 336.075 512.393 336.382C507.227 336.557 501.625 336.698 496.9 336.698Z" stroke="#CAC9C9"/>
<path d="M-17.5996 340C14.8917 340 36.3084 341.608 68.7998 341.608C74.1328 341.608 80.1245 341.405 85.6318 341.143C95.541 340.671 104 348.487 104 358.407V360C104 367.81 102.4 372.592 102.4 380.402C102.4 388.213 104 392.19 104 400V402.999C104 412.388 96.3898 420 87.001 420H74C49.7875 420 36.0123 418.191 11.7998 418.191C-5.37968 418.191 -29.2929 419.102 -41.7354 419.631C-46.046 419.814 -49.4774 416.062 -48.9102 411.785C-48.837 411.234 -48.831 410.675 -48.8916 410.122L-50 400C-50 400 -50 387.81 -50 380C-50 372.19 -48.7998 367.71 -48.7998 359.899C-48.7998 359.52 -48.8032 359.13 -48.8086 358.731C-48.9449 348.68 -41.2829 340 -31.2305 340H-17.5996Z" fill="#D9D9D9"/>
<path d="M-17.5996 340C14.8917 340 36.3084 341.608 68.7998 341.608C74.1328 341.608 80.1245 341.405 85.6318 341.143C95.541 340.671 104 348.487 104 358.407V360C104 367.81 102.4 372.592 102.4 380.402C102.4 388.213 104 392.19 104 400V402.999C104 412.388 96.3898 420 87.001 420H74C49.7875 420 36.0123 418.191 11.7998 418.191C-5.37968 418.191 -29.2929 419.102 -41.7354 419.631C-46.046 419.814 -49.4774 416.062 -48.9102 411.785C-48.837 411.234 -48.831 410.675 -48.8916 410.122L-50 400C-50 400 -50 387.81 -50 380C-50 372.19 -48.7998 367.71 -48.7998 359.899C-48.7998 359.52 -48.8032 359.13 -48.8086 358.731C-48.9449 348.68 -41.2829 340 -31.2305 340H-17.5996Z" stroke="#CAC9C9"/>
<path d="M142.02 421.392C173.67 422.761 222.539 421.392 222.539 421.392H245.354C254.991 421.391 262.709 413.395 262.473 403.761C262.178 391.748 261.921 375.878 262.195 363.7C262.237 361.842 262.299 359.759 262.369 357.636C262.667 348.659 256.038 340.892 247.071 340.372C242.018 340.079 236.605 339.897 232.201 340.062C209.451 340.917 178.277 342.281 151.683 342.467C142.18 342.533 133.16 342.412 125.812 342.245C116.11 342.025 108 349.775 108 359.479V403.875C108 413.463 115.924 421.151 125.512 421.126C130.986 421.112 136.923 421.171 142.02 421.392Z" fill="#D9D9D9"/>
<path d="M142.02 421.392C173.67 422.761 222.539 421.392 222.539 421.392H245.354C254.991 421.391 262.709 413.395 262.473 403.761C262.178 391.748 261.921 375.878 262.195 363.7C262.237 361.842 262.299 359.759 262.369 357.636C262.667 348.659 256.038 340.892 247.071 340.372C242.018 340.079 236.605 339.897 232.201 340.062C209.451 340.917 178.277 342.281 151.683 342.467C142.18 342.533 133.16 342.412 125.812 342.245C116.11 342.025 108 349.775 108 359.479V403.875C108 413.463 115.924 421.151 125.512 421.126C130.986 421.112 136.923 421.171 142.02 421.392Z" stroke="#CAC9C9"/>
<path d="M298.806 421.698C331.508 421.698 337.03 422.837 369.662 420.693C378.002 420.146 392.805 420.195 404.544 420.354C414.112 420.482 422 412.793 422 403.224V400.698C422 392.89 419.584 389.345 420.792 380.704C422 372.063 422 368.517 422 360.709V357.715C422 348.326 414.39 340.715 405.001 340.715H391.806C382.949 340.715 356.175 342.322 329.402 340.715C315.153 339.859 298.395 339.914 285.835 340.152C275.758 340.344 268.582 349.39 268.798 359.467C268.807 359.891 268.812 360.306 268.812 360.709C268.812 368.549 267 372.896 267 380.704V404.564C267 413.606 274.077 421.073 283.113 421.379C288.34 421.556 294.02 421.698 298.806 421.698Z" fill="#D9D9D9"/>
<path d="M298.806 421.698C331.508 421.698 337.03 422.837 369.662 420.693C378.002 420.146 392.805 420.195 404.544 420.354C414.112 420.482 422 412.793 422 403.224V400.698C422 392.89 419.584 389.345 420.792 380.704C422 372.063 422 368.517 422 360.709V357.715C422 348.326 414.39 340.715 405.001 340.715H391.806C382.949 340.715 356.175 342.322 329.402 340.715C315.153 339.859 298.395 339.914 285.835 340.152C275.758 340.344 268.582 349.39 268.798 359.467C268.807 359.891 268.812 360.306 268.812 360.709C268.812 368.549 267 372.896 267 380.704V404.564C267 413.606 274.077 421.073 283.113 421.379C288.34 421.556 294.02 421.698 298.806 421.698Z" stroke="#CAC9C9"/>
<path d="M563.003 422C572.392 422 580.211 414.356 579.151 405.027C579.104 404.611 579.055 404.201 579.002 403.8C578.004 396.2 580 389.971 580 382.2V359.401C580 350.013 572.39 342.4 563.001 342.4H550.055C525.886 342.4 512.735 340 488.566 340C474.412 340 455.473 340.823 442.209 341.505C433.247 341.966 426.279 349.389 426.279 358.363V362.3C426.279 362.3 427.277 373.629 427.277 381.4C427.277 389.171 425.281 391.2 426.279 402.1C426.293 402.248 426.306 402.397 426.319 402.545C427.213 412.81 435.446 421.768 445.747 421.53C460.319 421.194 478.933 420.8 486.171 420.8C518.603 420.8 509.237 422 541.67 422H563.003Z" fill="#D9D9D9"/>
<path d="M563.003 422C572.392 422 580.211 414.356 579.151 405.027C579.104 404.611 579.055 404.201 579.002 403.8C578.004 396.2 580 389.971 580 382.2V359.401C580 350.013 572.39 342.4 563.001 342.4H550.055C525.886 342.4 512.735 340 488.566 340C474.412 340 455.473 340.823 442.209 341.505C433.247 341.966 426.279 349.389 426.279 358.363V362.3C426.279 362.3 427.277 373.629 427.277 381.4C427.277 389.171 425.281 391.2 426.279 402.1C426.293 402.248 426.306 402.397 426.319 402.545C427.213 412.81 435.446 421.768 445.747 421.53C460.319 421.194 478.933 420.8 486.171 420.8C518.603 420.8 509.237 422 541.67 422H563.003Z" stroke="#CAC9C9"/>
<path d="M37.5029 425C46.8917 425 54.7135 432.645 53.6465 441.973C53.5989 442.389 53.5482 442.799 53.4951 443.2C52.4906 450.8 54.5 457.029 54.5 464.8V487.599C54.5 496.987 46.8898 504.6 37.501 504.6H24.3604C0.0348841 504.6 -13.2019 507 -37.5273 507C-51.8076 507 -70.9271 506.173 -84.2822 505.49C-93.2471 505.032 -100.219 497.606 -100.219 488.63V484.7C-100.219 484.7 -99.2139 473.371 -99.2139 465.6C-99.2139 457.829 -101.223 455.8 -100.219 444.9C-100.205 444.755 -100.192 444.61 -100.18 444.466C-99.2788 434.198 -91.0452 425.23 -80.7402 425.467C-66.0562 425.804 -47.2429 426.2 -39.9385 426.2C-7.29536 426.2 -16.7223 425 15.9209 425H37.5029Z" fill="#D9D9D9"/>
<path d="M37.5029 425C46.8917 425 54.7135 432.645 53.6465 441.973C53.5989 442.389 53.5482 442.799 53.4951 443.2C52.4906 450.8 54.5 457.029 54.5 464.8V487.599C54.5 496.987 46.8898 504.6 37.501 504.6H24.3604C0.0348841 504.6 -13.2019 507 -37.5273 507C-51.8076 507 -70.9271 506.173 -84.2822 505.49C-93.2471 505.032 -100.219 497.606 -100.219 488.63V484.7C-100.219 484.7 -99.2139 473.371 -99.2139 465.6C-99.2139 457.829 -101.223 455.8 -100.219 444.9C-100.205 444.755 -100.192 444.61 -100.18 444.466C-99.2788 434.198 -91.0452 425.23 -80.7402 425.467C-66.0562 425.804 -47.2429 426.2 -39.9385 426.2C-7.29536 426.2 -16.7223 425 15.9209 425H37.5029Z" stroke="#CAC9C9"/>
<path d="M91.1104 425C123.813 425 145.369 426.608 178.071 426.608C183.48 426.608 189.563 426.402 195.142 426.137C205.047 425.666 213.5 433.481 213.5 443.398V445C213.5 452.81 211.89 457.592 211.89 465.402C211.89 473.213 213.5 477.19 213.5 485V487.999C213.5 497.388 205.89 505 196.501 505H183.306C158.936 505 145.071 503.191 120.701 503.191C103.384 503.191 79.2701 504.104 66.7627 504.633C62.4544 504.815 59.026 501.063 59.5967 496.789C59.6706 496.235 59.6765 495.674 59.6152 495.118L58.5 485C58.5 485 58.5 472.81 58.5 465C58.5 457.19 59.708 452.71 59.708 444.899C59.708 444.523 59.7046 444.137 59.6992 443.743C59.5631 433.687 67.2253 425 77.2822 425H91.1104Z" fill="#D9D9D9"/>
<path d="M91.1104 425C123.813 425 145.369 426.608 178.071 426.608C183.48 426.608 189.563 426.402 195.142 426.137C205.047 425.666 213.5 433.481 213.5 443.398V445C213.5 452.81 211.89 457.592 211.89 465.402C211.89 473.213 213.5 477.19 213.5 485V487.999C213.5 497.388 205.89 505 196.501 505H183.306C158.936 505 145.071 503.191 120.701 503.191C103.384 503.191 79.2701 504.104 66.7627 504.633C62.4544 504.815 59.026 501.063 59.5967 496.789C59.6706 496.235 59.6765 495.674 59.6152 495.118L58.5 485C58.5 485 58.5 472.81 58.5 465C58.5 457.19 59.708 452.71 59.708 444.899C59.708 444.523 59.7046 444.137 59.6992 443.743C59.5631 433.687 67.2253 425 77.2822 425H91.1104Z" stroke="#CAC9C9"/>
<path d="M251.3 425.608C282.706 424.241 331.175 425.605 331.3 425.608H353.857C363.493 425.608 371.21 433.602 370.976 443.235C370.683 455.248 370.427 471.121 370.7 483.3C370.742 485.163 370.803 487.251 370.873 489.38C371.169 498.35 364.548 506.113 355.588 506.633C350.592 506.923 345.25 507.102 340.9 506.938C318.297 506.083 287.324 504.719 260.9 504.533C251.512 504.467 242.598 504.587 235.318 504.752C225.615 504.972 217.5 497.222 217.5 487.516V443.129C217.5 433.54 225.426 425.851 235.015 425.874C240.421 425.887 246.272 425.827 251.3 425.608Z" fill="#D9D9D9"/>
<path d="M251.3 425.608C282.706 424.241 331.175 425.605 331.3 425.608H353.857C363.493 425.608 371.21 433.602 370.976 443.235C370.683 455.248 370.427 471.121 370.7 483.3C370.742 485.163 370.803 487.251 370.873 489.38C371.169 498.35 364.548 506.113 355.588 506.633C350.592 506.923 345.25 507.102 340.9 506.938C318.297 506.083 287.324 504.719 260.9 504.533C251.512 504.467 242.598 504.587 235.318 504.752C225.615 504.972 217.5 497.222 217.5 487.516V443.129C217.5 433.54 225.426 425.851 235.015 425.874C240.421 425.887 246.272 425.827 251.3 425.608Z" stroke="#CAC9C9"/>
<path d="M407.306 506.698C440.008 506.698 445.53 507.837 478.162 505.693C486.502 505.146 501.305 505.195 513.044 505.354C522.612 505.482 530.5 497.793 530.5 488.224V485.698C530.5 477.89 528.084 474.345 529.292 465.704C530.5 457.063 530.5 453.517 530.5 445.709V442.715C530.5 433.326 522.89 425.715 513.501 425.715H500.306C491.449 425.715 464.675 427.322 437.902 425.715C423.653 424.859 406.895 424.914 394.335 425.152C384.258 425.344 377.082 434.39 377.298 444.467C377.307 444.891 377.312 445.306 377.312 445.709C377.312 453.549 375.5 457.896 375.5 465.704V489.564C375.5 498.606 382.577 506.073 391.613 506.379C396.84 506.556 402.52 506.698 407.306 506.698Z" fill="#D9D9D9"/>
<path d="M407.306 506.698C440.008 506.698 445.53 507.837 478.162 505.693C486.502 505.146 501.305 505.195 513.044 505.354C522.612 505.482 530.5 497.793 530.5 488.224V485.698C530.5 477.89 528.084 474.345 529.292 465.704C530.5 457.063 530.5 453.517 530.5 445.709V442.715C530.5 433.326 522.89 425.715 513.501 425.715H500.306C491.449 425.715 464.675 427.322 437.902 425.715C423.653 424.859 406.895 424.914 394.335 425.152C384.258 425.344 377.082 434.39 377.298 444.467C377.307 444.891 377.312 445.306 377.312 445.709C377.312 453.549 375.5 457.896 375.5 465.704V489.564C375.5 498.606 382.577 506.073 391.613 506.379C396.84 506.556 402.52 506.698 407.306 506.698Z" stroke="#CAC9C9"/>
<path d="M71.5996 510C39.1083 510 17.6916 511.608 -14.7998 511.608C-20.1328 511.608 -26.1245 511.405 -31.6318 511.143C-41.541 510.671 -49.9998 518.487 -50 528.407V530C-50 537.81 -48.4004 542.592 -48.4004 550.402C-48.4004 558.213 -50 562.19 -50 570V572.999C-50 582.388 -42.3898 590 -33.001 590H-20C4.2125 590 17.9877 588.191 42.2002 588.191C59.3797 588.191 83.2929 589.102 95.7354 589.631C100.046 589.814 103.477 586.062 102.91 581.785C102.837 581.234 102.831 580.675 102.892 580.122L104 570C104 570 104 557.81 104 550C104 542.19 102.8 537.71 102.8 529.899C102.8 529.52 102.803 529.13 102.809 528.731C102.945 518.68 95.2829 510 85.2305 510H71.5996Z" fill="#D9D9D9"/>
<path d="M71.5996 510C39.1083 510 17.6916 511.608 -14.7998 511.608C-20.1328 511.608 -26.1245 511.405 -31.6318 511.143C-41.541 510.671 -49.9998 518.487 -50 528.407V530C-50 537.81 -48.4004 542.592 -48.4004 550.402C-48.4004 558.213 -50 562.19 -50 570V572.999C-50 582.388 -42.3898 590 -33.001 590H-20C4.2125 590 17.9877 588.191 42.2002 588.191C59.3797 588.191 83.2929 589.102 95.7354 589.631C100.046 589.814 103.477 586.062 102.91 581.785C102.837 581.234 102.831 580.675 102.892 580.122L104 570C104 570 104 557.81 104 550C104 542.19 102.8 537.71 102.8 529.899C102.8 529.52 102.803 529.13 102.809 528.731C102.945 518.68 95.2829 510 85.2305 510H71.5996Z" stroke="#CAC9C9"/>
<path d="M228.2 591.392C196.794 592.759 148.325 591.395 148.2 591.392H125.643C116.007 591.392 108.29 583.398 108.524 573.765C108.817 561.752 109.073 545.879 108.8 533.7C108.758 531.837 108.697 529.749 108.627 527.62C108.331 518.65 114.952 510.887 123.912 510.367C128.908 510.077 134.25 509.898 138.6 510.062C161.203 510.917 192.176 512.281 218.6 512.467C227.988 512.533 236.902 512.413 244.182 512.248C253.885 512.028 262 519.778 262 529.484V573.871C262 583.46 254.074 591.149 244.485 591.126C239.079 591.113 233.228 591.173 228.2 591.392Z" fill="#D9D9D9"/>
<path d="M228.2 591.392C196.794 592.759 148.325 591.395 148.2 591.392H125.643C116.007 591.392 108.29 583.398 108.524 573.765C108.817 561.752 109.073 545.879 108.8 533.7C108.758 531.837 108.697 529.749 108.627 527.62C108.331 518.65 114.952 510.887 123.912 510.367C128.908 510.077 134.25 509.898 138.6 510.062C161.203 510.917 192.176 512.281 218.6 512.467C227.988 512.533 236.902 512.413 244.182 512.248C253.885 512.028 262 519.778 262 529.484V573.871C262 583.46 254.074 591.149 244.485 591.126C239.079 591.113 233.228 591.173 228.2 591.392Z" stroke="#CAC9C9"/>
<path d="M389.194 591.698C356.492 591.698 350.97 592.837 318.338 590.693C309.998 590.146 295.195 590.195 283.456 590.354C273.888 590.482 266 582.793 266 573.224V570.698C266 562.89 268.416 559.345 267.208 550.704C266 542.063 266 538.517 266 530.709V527.715C266 518.326 273.61 510.715 282.999 510.715H296.194C305.051 510.715 331.825 512.322 358.598 510.715C372.847 509.859 389.605 509.914 402.165 510.152C412.242 510.344 419.418 519.39 419.202 529.467C419.193 529.891 419.188 530.306 419.188 530.709C419.188 538.549 421 542.896 421 550.704V574.564C421 583.606 413.923 591.073 404.887 591.379C399.66 591.556 393.98 591.698 389.194 591.698Z" fill="#D9D9D9"/>
<path d="M389.194 591.698C356.492 591.698 350.97 592.837 318.338 590.693C309.998 590.146 295.195 590.195 283.456 590.354C273.888 590.482 266 582.793 266 573.224V570.698C266 562.89 268.416 559.345 267.208 550.704C266 542.063 266 538.517 266 530.709V527.715C266 518.326 273.61 510.715 282.999 510.715H296.194C305.051 510.715 331.825 512.322 358.598 510.715C372.847 509.859 389.605 509.914 402.165 510.152C412.242 510.344 419.418 519.39 419.202 529.467C419.193 529.891 419.188 530.306 419.188 530.709C419.188 538.549 421 542.896 421 550.704V574.564C421 583.606 413.923 591.073 404.887 591.379C399.66 591.556 393.98 591.698 389.194 591.698Z" stroke="#CAC9C9"/>
<path d="M441.997 592C432.608 592 424.789 584.356 425.849 575.027C425.896 574.611 425.945 574.201 425.998 573.8C426.996 566.2 425 559.971 425 552.2V529.401C425 520.013 432.61 512.4 441.999 512.4H454.945C479.114 512.4 492.265 510 516.434 510C530.588 510 549.527 510.823 562.791 511.505C571.753 511.966 578.721 519.389 578.721 528.363V532.3C578.721 532.3 577.723 543.629 577.723 551.4C577.723 559.171 579.719 561.2 578.721 572.1C578.707 572.248 578.694 572.397 578.681 572.545C577.787 582.81 569.554 591.768 559.253 591.53C544.681 591.194 526.067 590.8 518.829 590.8C486.397 590.8 495.763 592 463.33 592H441.997Z" fill="#D9D9D9"/>
<path d="M441.997 592C432.608 592 424.789 584.356 425.849 575.027C425.896 574.611 425.945 574.201 425.998 573.8C426.996 566.2 425 559.971 425 552.2V529.401C425 520.013 432.61 512.4 441.999 512.4H454.945C479.114 512.4 492.265 510 516.434 510C530.588 510 549.527 510.823 562.791 511.505C571.753 511.966 578.721 519.389 578.721 528.363V532.3C578.721 532.3 577.723 543.629 577.723 551.4C577.723 559.171 579.719 561.2 578.721 572.1C578.707 572.248 578.694 572.397 578.681 572.545C577.787 582.81 569.554 591.768 559.253 591.53C544.681 591.194 526.067 590.8 518.829 590.8C486.397 590.8 495.763 592 463.33 592H441.997Z" stroke="#CAC9C9"/>
<path d="M-82.5029 595C-91.8917 595 -99.7115 602.644 -98.6514 611.973C-98.6041 612.389 -98.5547 612.799 -98.502 613.2C-97.5039 620.8 -99.5 627.029 -99.5 634.8V657.599C-99.5 666.987 -91.8898 674.6 -82.501 674.6H-69.5547C-45.3862 674.6 -32.2349 677 -8.06641 677C6.08776 677 25.0265 676.177 38.291 675.495C47.2532 675.034 54.2207 667.611 54.2207 658.637V654.7C54.2207 654.7 53.2227 643.371 53.2227 635.6C53.2227 627.829 55.2189 625.8 54.2207 614.9C54.2071 614.752 54.1935 614.603 54.1807 614.455C53.287 604.19 45.054 595.232 34.7529 595.47C20.1806 595.806 1.56736 596.2 -5.6709 596.2C-38.1033 596.2 -28.7373 595 -61.1699 595H-82.5029Z" fill="#D9D9D9"/>
<path d="M-82.5029 595C-91.8917 595 -99.7115 602.644 -98.6514 611.973C-98.6041 612.389 -98.5547 612.799 -98.502 613.2C-97.5039 620.8 -99.5 627.029 -99.5 634.8V657.599C-99.5 666.987 -91.8898 674.6 -82.501 674.6H-69.5547C-45.3862 674.6 -32.2349 677 -8.06641 677C6.08776 677 25.0265 676.177 38.291 675.495C47.2532 675.034 54.2207 667.611 54.2207 658.637V654.7C54.2207 654.7 53.2227 643.371 53.2227 635.6C53.2227 627.829 55.2189 625.8 54.2207 614.9C54.2071 614.752 54.1935 614.603 54.1807 614.455C53.287 604.19 45.054 595.232 34.7529 595.47C20.1806 595.806 1.56736 596.2 -5.6709 596.2C-38.1033 596.2 -28.7373 595 -61.1699 595H-82.5029Z" stroke="#CAC9C9"/>
<path d="M180.89 595C148.187 595 126.631 596.608 93.9287 596.608C88.5196 596.608 82.4367 596.402 76.8584 596.137C66.9526 595.666 58.5 603.481 58.5 613.398V615C58.5 622.81 60.1104 627.592 60.1104 635.402C60.1103 643.213 58.5 647.19 58.5 655V657.999C58.5 667.388 66.1102 675 75.499 675H88.6943C113.064 675 126.929 673.191 151.299 673.191C168.616 673.191 192.73 674.104 205.237 674.633C209.546 674.815 212.974 671.063 212.403 666.789C212.329 666.235 212.324 665.674 212.385 665.118L213.5 655C213.5 655 213.5 642.81 213.5 635C213.5 627.19 212.292 622.71 212.292 614.899C212.292 614.523 212.295 614.137 212.301 613.743C212.437 603.687 204.775 595 194.718 595H180.89Z" fill="#D9D9D9"/>
<path d="M180.89 595C148.187 595 126.631 596.608 93.9287 596.608C88.5196 596.608 82.4367 596.402 76.8584 596.137C66.9526 595.666 58.5 603.481 58.5 613.398V615C58.5 622.81 60.1104 627.592 60.1104 635.402C60.1103 643.213 58.5 647.19 58.5 655V657.999C58.5 667.388 66.1102 675 75.499 675H88.6943C113.064 675 126.929 673.191 151.299 673.191C168.616 673.191 192.73 674.104 205.237 674.633C209.546 674.815 212.974 671.063 212.403 666.789C212.329 666.235 212.324 665.674 212.385 665.118L213.5 655C213.5 655 213.5 642.81 213.5 635C213.5 627.19 212.292 622.71 212.292 614.899C212.292 614.523 212.295 614.137 212.301 613.743C212.437 603.687 204.775 595 194.718 595H180.89Z" stroke="#CAC9C9"/>
<path d="M337.7 595.608C306.294 594.241 257.825 595.605 257.7 595.608H235.143C225.507 595.608 217.79 603.602 218.024 613.235C218.317 625.248 218.573 641.121 218.3 653.3C218.258 655.163 218.197 657.251 218.127 659.38C217.831 668.35 224.452 676.113 233.412 676.633C238.408 676.923 243.75 677.102 248.1 676.938C270.703 676.083 301.676 674.719 328.1 674.533C337.488 674.467 346.402 674.587 353.682 674.752C363.385 674.972 371.5 667.222 371.5 657.516V613.129C371.5 603.54 363.574 595.851 353.985 595.874C348.579 595.887 342.728 595.827 337.7 595.608Z" fill="#D9D9D9"/>
<path d="M337.7 595.608C306.294 594.241 257.825 595.605 257.7 595.608H235.143C225.507 595.608 217.79 603.602 218.024 613.235C218.317 625.248 218.573 641.121 218.3 653.3C218.258 655.163 218.197 657.251 218.127 659.38C217.831 668.35 224.452 676.113 233.412 676.633C238.408 676.923 243.75 677.102 248.1 676.938C270.703 676.083 301.676 674.719 328.1 674.533C337.488 674.467 346.402 674.587 353.682 674.752C363.385 674.972 371.5 667.222 371.5 657.516V613.129C371.5 603.54 363.574 595.851 353.985 595.874C348.579 595.887 342.728 595.827 337.7 595.608Z" stroke="#CAC9C9"/>
<path d="M498.694 676.698C465.992 676.698 460.47 677.837 427.838 675.693C419.498 675.146 404.695 675.195 392.956 675.354C383.388 675.482 375.5 667.793 375.5 658.224V655.698C375.5 647.89 377.916 644.345 376.708 635.704C375.5 627.063 375.5 623.517 375.5 615.709V612.715C375.5 603.326 383.11 595.715 392.499 595.715H405.694C414.551 595.715 441.325 597.322 468.098 595.715C482.347 594.859 499.105 594.914 511.665 595.152C521.742 595.344 528.918 604.39 528.702 614.467C528.693 614.891 528.688 615.306 528.688 615.709C528.688 623.549 530.5 627.896 530.5 635.704V659.564C530.5 668.606 523.423 676.073 514.387 676.379C509.16 676.556 503.48 676.698 498.694 676.698Z" fill="#D9D9D9"/>
<path d="M498.694 676.698C465.992 676.698 460.47 677.837 427.838 675.693C419.498 675.146 404.695 675.195 392.956 675.354C383.388 675.482 375.5 667.793 375.5 658.224V655.698C375.5 647.89 377.916 644.345 376.708 635.704C375.5 627.063 375.5 623.517 375.5 615.709V612.715C375.5 603.326 383.11 595.715 392.499 595.715H405.694C414.551 595.715 441.325 597.322 468.098 595.715C482.347 594.859 499.105 594.914 511.665 595.152C521.742 595.344 528.918 604.39 528.702 614.467C528.693 614.891 528.688 615.306 528.688 615.709C528.688 623.549 530.5 627.896 530.5 635.704V659.564C530.5 668.606 523.423 676.073 514.387 676.379C509.16 676.556 503.48 676.698 498.694 676.698Z" stroke="#CAC9C9"/>
</g>
</svg>
