<svg width="80" height="80" viewBox="0 0 80 80" fill="none" xmlns="http://www.w3.org/2000/svg">
<circle cx="40" cy="40" r="39.5" stroke="#C379E0"/>
<path d="M61.125 24.0313H40.6203L57.1289 19.3133C57.1966 19.2922 57.2605 19.2603 57.318 19.2188C57.5849 19.4927 57.9356 19.6697 58.3145 19.7219C58.6934 19.774 59.0788 19.6983 59.4099 19.5067C59.7409 19.3151 59.9985 19.0186 60.142 18.6641C60.2855 18.3095 60.3067 17.9173 60.2022 17.5494C60.0976 17.1815 59.8734 16.859 59.5649 16.6329C59.2564 16.4068 58.8813 16.29 58.499 16.3011C58.1167 16.3122 57.749 16.4505 57.4541 16.6941C57.1593 16.9378 56.9541 17.2727 56.8711 17.6461C56.8029 17.6333 56.733 17.6333 56.6648 17.6461L34.5961 23.9625L24.3781 18.1188C24.3137 18.0763 24.2445 18.0417 24.1719 18.0156C24.1719 17.6757 24.0711 17.3434 23.8822 17.0607C23.6934 16.7781 23.4249 16.5578 23.1109 16.4277C22.7968 16.2976 22.4512 16.2636 22.1178 16.3299C21.7844 16.3962 21.4782 16.5599 21.2378 16.8003C20.9974 17.0407 20.8337 17.3469 20.7674 17.6803C20.7011 18.0137 20.7351 18.3593 20.8652 18.6734C20.9953 18.9874 21.2156 19.2559 21.4982 19.4447C21.7809 19.6336 22.1132 19.7344 22.4531 19.7344C22.7728 19.7312 23.0853 19.639 23.3555 19.468C23.4034 19.5234 23.4583 19.5725 23.5187 19.6141L31.2531 24.0313H19.875C18.9633 24.0313 18.089 24.3934 17.4443 25.0381C16.7997 25.6827 16.4375 26.5571 16.4375 27.4688V56.6875C16.4375 57.5992 16.7997 58.4735 17.4443 59.1182C18.089 59.7628 18.9633 60.125 19.875 60.125H21.5938V62.7031C21.5938 62.931 21.6843 63.1496 21.8455 63.3108C22.0066 63.472 22.2252 63.5625 22.4531 63.5625H58.5469C58.7748 63.5625 58.9934 63.472 59.1545 63.3108C59.3157 63.1496 59.4062 62.931 59.4062 62.7031V60.125H61.125C62.0367 60.125 62.911 59.7628 63.5557 59.1182C64.2003 58.4735 64.5625 57.5992 64.5625 56.6875V27.4688C64.5625 26.5571 64.2003 25.6827 63.5557 25.0381C62.911 24.3934 62.0367 24.0313 61.125 24.0313ZM60.2656 48.0938H55.1094C54.8815 48.0938 54.6629 48.0032 54.5017 47.842C54.3405 47.6809 54.25 47.4623 54.25 47.2344C54.25 47.0065 54.3405 46.7879 54.5017 46.6267C54.6629 46.4655 54.8815 46.375 55.1094 46.375H60.2656C60.4935 46.375 60.7121 46.4655 60.8733 46.6267C61.0345 46.7879 61.125 47.0065 61.125 47.2344C61.125 47.4623 61.0345 47.6809 60.8733 47.842C60.7121 48.0032 60.4935 48.0938 60.2656 48.0938ZM61.125 50.6719C61.125 50.8998 61.0345 51.1184 60.8733 51.2795C60.7121 51.4407 60.4935 51.5312 60.2656 51.5312H55.1094C54.8815 51.5312 54.6629 51.4407 54.5017 51.2795C54.3405 51.1184 54.25 50.8998 54.25 50.6719C54.25 50.444 54.3405 50.2254 54.5017 50.0642C54.6629 49.903 54.8815 49.8125 55.1094 49.8125H60.2656C60.4935 49.8125 60.7121 49.903 60.8733 50.0642C61.0345 50.2254 61.125 50.444 61.125 50.6719ZM55.8656 38.5375C56.2877 38.116 56.8428 37.8538 57.4365 37.7958C58.0301 37.7377 58.6256 37.8873 59.1213 38.219C59.617 38.5507 59.9824 39.0441 60.1551 39.615C60.3279 40.186 60.2973 40.7991 60.0686 41.35C59.84 41.901 59.4273 42.3555 58.901 42.6363C58.3748 42.9171 57.7674 43.0067 57.1825 42.8898C56.5975 42.773 56.0712 42.4569 55.6932 41.9955C55.3152 41.5341 55.1088 40.9559 55.1094 40.3594C55.11 39.6758 55.382 39.0205 55.8656 38.5375ZM55.1094 31.7656C55.1094 31.2557 55.2606 30.7573 55.5439 30.3333C55.8272 29.9093 56.2298 29.5789 56.7009 29.3837C57.172 29.1886 57.6904 29.1376 58.1905 29.237C58.6906 29.3365 59.15 29.5821 59.5105 29.9426C59.8711 30.3032 60.1166 30.7626 60.2161 31.2627C60.3156 31.7628 60.2645 32.2811 60.0694 32.7522C59.8742 33.2233 59.5438 33.626 59.1198 33.9093C58.6959 34.1925 58.1974 34.3438 57.6875 34.3438C57.0037 34.3438 56.348 34.0721 55.8645 33.5886C55.381 33.1051 55.1094 32.4494 55.1094 31.7656ZM20.7344 31.7656C20.7344 30.8539 21.0965 29.9796 21.7412 29.3349C22.3859 28.6903 23.2602 28.3281 24.1719 28.3281H49.0938C50.0054 28.3281 50.8798 28.6903 51.5244 29.3349C52.1691 29.9796 52.5312 30.8539 52.5312 31.7656V52.3906C52.5312 53.3023 52.1691 54.1766 51.5244 54.8213C50.8798 55.466 50.0054 55.8281 49.0938 55.8281H24.1719C23.2602 55.8281 22.3859 55.466 21.7412 54.8213C21.0965 54.1766 20.7344 53.3023 20.7344 52.3906V31.7656ZM60.2656 54.9688H55.1094C54.8815 54.9688 54.6629 54.8782 54.5017 54.717C54.3405 54.5559 54.25 54.3373 54.25 54.1094C54.25 53.8815 54.3405 53.6629 54.5017 53.5017C54.6629 53.3405 54.8815 53.25 55.1094 53.25H60.2656C60.4935 53.25 60.7121 53.3405 60.8733 53.5017C61.0345 53.6629 61.125 53.8815 61.125 54.1094C61.125 54.3373 61.0345 54.5559 60.8733 54.717C60.7121 54.8782 60.4935 54.9688 60.2656 54.9688Z" fill="#C379E0"/>
<path d="M30.1874 44.5101C30.1833 44.5588 30.1833 44.6076 30.1874 44.6562V48.0937C30.1874 48.3217 30.278 48.5402 30.4391 48.7014C30.6003 48.8626 30.8189 48.9531 31.0468 48.9531C31.2747 48.9531 31.4933 48.8626 31.6545 48.7014C31.8156 48.5402 31.9062 48.3217 31.9062 48.0937V44.6562H33.6249L38.7812 47.2344V36.9219L33.6249 39.5H31.0468C30.438 39.4991 29.8484 39.7137 29.3827 40.1058C28.9169 40.4979 28.6049 41.0422 28.502 41.6423C28.399 42.2423 28.5118 42.8595 28.8203 43.3844C29.1288 43.9093 29.6131 44.3081 30.1874 44.5101ZM42.2187 42.9375H43.9374C44.1654 42.9375 44.3839 42.847 44.5451 42.6858C44.7063 42.5246 44.7968 42.306 44.7968 42.0781C44.7968 41.8502 44.7063 41.6316 44.5451 41.4704C44.3839 41.3093 44.1654 41.2187 43.9374 41.2187H42.2187C41.9908 41.2187 41.7722 41.3093 41.611 41.4704C41.4499 41.6316 41.3593 41.8502 41.3593 42.0781C41.3593 42.306 41.4499 42.5246 41.611 42.6858C41.7722 42.847 41.9908 42.9375 42.2187 42.9375ZM42.2187 39.5C42.3535 39.5016 42.4865 39.4691 42.6054 39.4055L44.3242 38.5461C44.4333 38.5007 44.5318 38.4332 44.6137 38.348C44.6955 38.2627 44.7589 38.1615 44.7999 38.0507C44.8408 37.9398 44.8585 37.8217 44.8518 37.7038C44.845 37.5858 44.814 37.4704 44.7607 37.365C44.7074 37.2595 44.6329 37.1662 44.5419 37.0908C44.4508 37.0155 44.3453 36.9597 44.2317 36.927C44.1181 36.8942 43.9991 36.8853 43.8819 36.9007C43.7647 36.9161 43.652 36.9555 43.5507 37.0164L41.832 37.8758C41.6296 37.9788 41.4762 38.1578 41.4053 38.3735C41.3345 38.5893 41.3519 38.8244 41.4538 39.0273C41.5253 39.1691 41.6345 39.2882 41.7695 39.3717C41.9045 39.4551 42.06 39.4995 42.2187 39.5ZM44.3242 45.6101L42.6054 44.7508C42.5042 44.6898 42.3914 44.6505 42.2742 44.6351C42.1571 44.6197 42.038 44.6286 41.9244 44.6613C41.8109 44.694 41.7053 44.7498 41.6143 44.8252C41.5232 44.9006 41.4487 44.9939 41.3954 45.0994C41.3421 45.2048 41.3111 45.3201 41.3044 45.4381C41.2976 45.5561 41.3153 45.6742 41.3563 45.7851C41.3972 45.8959 41.4606 45.9971 41.5425 46.0824C41.6243 46.1676 41.7229 46.235 41.832 46.2805L43.5507 47.1398C43.6696 47.2035 43.8026 47.236 43.9374 47.2344C44.0961 47.2339 44.2516 47.1895 44.3866 47.106C44.5216 47.0226 44.6309 46.9034 44.7023 46.7617C44.8042 46.5588 44.8217 46.3237 44.7508 46.1079C44.68 45.8921 44.5266 45.7132 44.3242 45.6101Z" fill="#C379E0"/>
</svg>
