<svg width="641" height="946" viewBox="0 0 641 946" fill="none" xmlns="http://www.w3.org/2000/svg">
<g clip-path="url(#clip0_882_2402)">
<g filter="url(#filter0_d_882_2402)">
<mask id="path-1-outside-1_882_2402" maskUnits="userSpaceOnUse" x="-1.60352" y="697.926" width="641" height="192" fill="black">
<rect fill="white" x="-1.60352" y="697.926" width="641" height="192"/>
<path d="M7.39648 719.242L313.081 881.81L441.271 842.399L631.091 706.926"/>
</mask>
<path d="M11.1529 712.178C7.25192 710.104 2.40781 711.584 0.333222 715.485C-1.74136 719.386 -0.260818 724.23 3.64011 726.305L11.1529 712.178ZM313.081 881.81L309.324 888.873C311.202 889.872 313.399 890.082 315.432 889.457L313.081 881.81ZM441.271 842.399L443.622 850.046C444.443 849.794 445.219 849.41 445.918 848.911L441.271 842.399ZM635.738 713.437C639.334 710.871 640.169 705.875 637.602 702.278C635.036 698.682 630.04 697.847 626.443 700.414L635.738 713.437ZM3.64011 726.305L309.324 888.873L316.837 874.747L11.1529 712.178L3.64011 726.305ZM315.432 889.457L443.622 850.046L438.92 834.753L310.73 874.163L315.432 889.457ZM445.918 848.911L635.738 713.437L626.443 700.414L436.623 835.888L445.918 848.911Z" fill="white" mask="url(#path-1-outside-1_882_2402)"/>
<path d="M143.79 829.305V852.4C143.79 854.609 145.581 856.4 147.79 856.4H195.559V889.347C195.559 891.556 197.35 893.347 199.559 893.347H247.328V913.979C247.328 916.188 249.119 917.979 251.328 917.979H299.098V936.147C299.098 938.356 300.888 940.147 303.098 940.147H327.749C329.959 940.147 331.749 938.356 331.749 936.147V917.979H379.519C381.728 917.979 383.519 916.188 383.519 913.979V893.347H404.171C406.373 893.347 408.16 891.567 408.17 889.365L408.276 866.105H480.592C482.801 866.105 484.592 864.314 484.592 862.105V829.305H532.361C534.57 829.305 536.361 827.514 536.361 825.305V788.358C536.361 787.135 535.801 785.979 534.841 785.22C533.882 784.461 532.628 784.184 531.438 784.466L386.446 818.842H327.749C325.54 818.842 323.749 820.633 323.749 822.842V844.262H307.098V822.842C307.098 820.633 305.307 818.842 303.098 818.842H252.046L99.8765 762.439C98.6489 761.984 97.2764 762.158 96.2017 762.906C95.127 763.654 94.4863 764.88 94.4863 766.189V825.305C94.4863 827.514 96.2772 829.305 98.4863 829.305H143.79Z" stroke="white" stroke-width="8" stroke-linecap="round" stroke-linejoin="round"/>
<path d="M257.916 258.631C257.916 256.422 256.126 254.631 253.916 254.631H240.66V177.347C240.66 175.138 238.869 173.347 236.66 173.347H216.008V150.252C216.008 148.043 214.217 146.252 212.008 146.252H191.356V125.621C191.356 123.412 189.565 121.621 187.356 121.621H139.587V73.8945C139.587 71.6854 137.796 69.8945 135.587 69.8945H59.166C56.9569 69.8945 55.166 71.6854 55.166 73.8945V150.252C55.166 152.462 56.9569 154.252 59.166 154.252H156.239V174.884C156.239 177.093 158.03 178.884 160.239 178.884H183.356V211.831C183.356 214.04 185.147 215.831 187.356 215.831H208.008V322.673C208.008 324.883 209.799 326.673 212.008 326.673H253.916C256.126 326.673 257.916 324.883 257.916 322.673V258.631Z" stroke="white" stroke-width="8" stroke-linecap="round" stroke-linejoin="round"/>
<path d="M452.666 322.673V169.031H475.783C477.992 169.031 479.783 167.241 479.783 165.031V114.842H502.925C505.134 114.842 506.925 113.051 506.925 110.842V90.2104H579.321C581.531 90.2104 583.321 88.4195 583.321 86.2104V9.85254C583.321 7.6434 581.531 5.85254 579.321 5.85254H502.9C500.691 5.85254 498.9 7.6434 498.9 9.85254V57.5788H475.783C473.574 57.5788 471.783 59.3697 471.783 61.5788V82.2104H451.131C448.922 82.2104 447.131 84.0013 447.131 86.2104V109.305H426.479C424.27 109.305 422.479 111.096 422.479 113.305V237.389H406.758C404.549 237.389 402.758 239.18 402.758 241.389V322.673C402.758 324.883 404.549 326.673 406.758 326.673H448.666C450.875 326.673 452.666 324.883 452.666 322.673Z" stroke="white" stroke-width="8" stroke-linecap="round" stroke-linejoin="round"/>
<path d="M257.916 258.631C257.916 256.422 256.126 254.631 253.916 254.631H240.66V177.347C240.66 175.138 238.869 173.347 236.66 173.347H216.008V150.252C216.008 148.043 214.217 146.252 212.008 146.252H191.356V125.621C191.356 123.412 189.565 121.621 187.356 121.621H139.587V73.8945C139.587 71.6854 137.796 69.8945 135.587 69.8945H59.166C56.9569 69.8945 55.166 71.6854 55.166 73.8945V150.252C55.166 152.462 56.9569 154.252 59.166 154.252H156.239V174.884C156.239 177.093 158.03 178.884 160.239 178.884H183.356V211.831C183.356 214.04 185.147 215.831 187.356 215.831H208.008V322.673C208.008 324.883 209.799 326.673 212.008 326.673H253.916C256.126 326.673 257.916 324.883 257.916 322.673V258.631Z" stroke="white" stroke-width="8" stroke-linecap="round" stroke-linejoin="round"/>
<path d="M452.666 322.673V169.031H475.783C477.992 169.031 479.783 167.241 479.783 165.031V114.842H502.925C505.134 114.842 506.925 113.051 506.925 110.842V90.2104H579.321C581.531 90.2104 583.321 88.4195 583.321 86.2104V9.85254C583.321 7.6434 581.531 5.85254 579.321 5.85254H502.9C500.691 5.85254 498.9 7.6434 498.9 9.85254V57.5788H475.783C473.574 57.5788 471.783 59.3697 471.783 61.5788V82.2104H451.131C448.922 82.2104 447.131 84.0013 447.131 86.2104V109.305H426.479C424.27 109.305 422.479 111.096 422.479 113.305V237.389H406.758C404.549 237.389 402.758 239.18 402.758 241.389V322.673C402.758 324.883 404.549 326.673 406.758 326.673H448.666C450.875 326.673 452.666 324.883 452.666 322.673Z" stroke="white" stroke-width="8" stroke-linecap="round" stroke-linejoin="round"/>
<path d="M257.916 258.631C257.916 256.422 256.126 254.631 253.916 254.631H240.66V177.347C240.66 175.138 238.869 173.347 236.66 173.347H216.008V150.252C216.008 148.043 214.217 146.252 212.008 146.252H191.356V125.621C191.356 123.412 189.565 121.621 187.356 121.621H139.587V73.8945C139.587 71.6854 137.796 69.8945 135.587 69.8945H59.166C56.9569 69.8945 55.166 71.6854 55.166 73.8945V150.252C55.166 152.462 56.9569 154.252 59.166 154.252H156.239V174.884C156.239 177.093 158.03 178.884 160.239 178.884H183.356V211.831C183.356 214.04 185.147 215.831 187.356 215.831H208.008V322.673C208.008 324.883 209.799 326.673 212.008 326.673H253.916C256.126 326.673 257.916 324.883 257.916 322.673V258.631Z" stroke="white" stroke-width="8" stroke-linecap="round" stroke-linejoin="round"/>
<path d="M452.666 322.673V169.031H475.783C477.992 169.031 479.783 167.241 479.783 165.031V114.842H502.925C505.134 114.842 506.925 113.051 506.925 110.842V90.2104H579.321C581.531 90.2104 583.321 88.4195 583.321 86.2104V9.85254C583.321 7.6434 581.531 5.85254 579.321 5.85254H502.9C500.691 5.85254 498.9 7.6434 498.9 9.85254V57.5788H475.783C473.574 57.5788 471.783 59.3697 471.783 61.5788V82.2104H451.131C448.922 82.2104 447.131 84.0013 447.131 86.2104V109.305H426.479C424.27 109.305 422.479 111.096 422.479 113.305V237.389H406.758C404.549 237.389 402.758 239.18 402.758 241.389V322.673C402.758 324.883 404.549 326.673 406.758 326.673H448.666C450.875 326.673 452.666 324.883 452.666 322.673Z" stroke="white" stroke-width="8" stroke-linecap="round" stroke-linejoin="round"/>
<path d="M631.09 888.273C632.154 888.273 633.174 887.85 633.925 887.096C634.675 886.342 635.095 885.32 635.09 884.257C634.721 795.792 634.77 532.368 635.09 448.31C635.094 447.246 634.675 446.225 633.924 445.471C633.174 444.718 632.154 444.294 631.09 444.294H620.299V418.737C620.299 416.527 618.508 414.737 616.299 414.737H588.252V394.105C588.252 391.896 586.461 390.105 584.252 390.105H541.413V369.473C541.413 367.264 539.622 365.473 537.413 365.473H501.97V342.379C501.97 340.17 500.179 338.379 497.97 338.379H452.666V322.673C452.666 320.464 450.875 318.673 448.666 318.673H403.362V298.042C403.362 295.833 401.571 294.042 399.362 294.042H354.058V280.8C354.058 278.591 352.267 276.8 350.058 276.8H310.64C308.431 276.8 306.64 278.591 306.64 280.8V294.042H261.311C259.102 294.042 257.311 295.833 257.311 298.042V318.673H212.007C209.798 318.673 208.007 320.464 208.007 322.673V345.768H162.703C160.494 345.768 158.703 347.559 158.703 349.768V367.913C152.91 367.914 145.514 367.919 138.114 367.924L138.058 367.924C128.798 367.93 119.536 367.937 113.4 367.937C111.19 367.937 109.4 369.727 109.4 371.937V392.568H61.6304C59.4213 392.568 57.6304 394.359 57.6304 396.568V414.737H32.0481C29.8389 414.737 28.0481 416.527 28.0481 418.737V441.831H9.86133C7.65219 441.831 5.86133 443.622 5.86133 445.831V884.273C5.86133 886.482 7.65219 888.273 9.86133 888.273H24.6525C26.8616 888.273 28.6525 886.482 28.6525 884.273V871.031H49.3044C51.5136 871.031 53.3044 869.24 53.3044 867.031V843.936H73.9564C76.1655 843.936 77.9564 842.146 77.9564 839.936V819.305H101.074C103.283 819.305 105.074 817.514 105.074 815.305V794.673H136.517V812.842C136.517 815.051 138.308 816.842 140.517 816.842H158.703V832.547C158.703 834.756 160.494 836.547 162.703 836.547H183.355V857.203C183.355 859.412 185.146 861.203 187.355 861.203H208.007V884.273C208.007 886.482 209.798 888.273 212.007 888.273H239.124C241.334 888.273 243.124 886.482 243.124 884.273V861.179H266.242C268.451 861.179 270.242 859.388 270.242 857.179V829.157H290.894C293.103 829.157 294.894 827.367 294.894 825.157V809.452H341.128V832.547C341.128 834.756 342.919 836.547 345.128 836.547H360.849V859.642C360.849 861.851 362.64 863.642 364.849 863.642H387.967V884.273C387.967 886.482 389.757 888.273 391.967 888.273H416.618C418.828 888.273 420.618 886.482 420.618 884.273V863.642H443.736C445.945 863.642 447.736 861.851 447.736 859.642V839.01H468.388C470.597 839.01 472.388 837.219 472.388 835.01V816.924L493.056 816.842C495.258 816.833 497.04 815.045 497.04 812.842V794.673H528.483V815.305C528.483 817.514 530.273 819.305 532.483 819.305H553.135V839.936C553.135 842.146 554.925 843.936 557.135 843.936H577.787V864.667C577.787 865.73 578.21 866.75 578.964 867.501C579.717 868.251 580.739 868.671 581.803 868.667L602.438 868.584V884.273C602.438 886.482 604.229 888.273 606.438 888.273H631.09Z" stroke="white" stroke-width="8" stroke-linecap="round" stroke-linejoin="round"/>
<path d="M631.09 888.273C632.154 888.273 633.174 887.85 633.925 887.096C634.675 886.342 635.095 885.32 635.09 884.257C634.721 795.792 634.77 532.368 635.09 448.31C635.094 447.246 634.675 446.225 633.924 445.471C633.174 444.718 632.154 444.294 631.09 444.294H620.299V418.737C620.299 416.527 618.508 414.737 616.299 414.737H588.252V394.105C588.252 391.896 586.461 390.105 584.252 390.105H541.413V369.473C541.413 367.264 539.622 365.473 537.413 365.473H501.97V342.379C501.97 340.17 500.179 338.379 497.97 338.379H452.666V322.673C452.666 320.464 450.875 318.673 448.666 318.673H403.362V298.042C403.362 295.833 401.571 294.042 399.362 294.042H354.058V280.8C354.058 278.591 352.267 276.8 350.058 276.8H310.64C308.431 276.8 306.64 278.591 306.64 280.8V294.042H261.311C259.102 294.042 257.311 295.833 257.311 298.042V318.673H212.007C209.798 318.673 208.007 320.464 208.007 322.673V345.768H162.703C160.494 345.768 158.703 347.559 158.703 349.768V367.913C152.91 367.914 145.514 367.919 138.114 367.924L138.058 367.924C128.798 367.93 119.536 367.937 113.4 367.937C111.19 367.937 109.4 369.727 109.4 371.937V392.568H61.6304C59.4213 392.568 57.6304 394.359 57.6304 396.568V414.737H32.0481C29.8389 414.737 28.0481 416.527 28.0481 418.737V441.831H9.86133C7.65219 441.831 5.86133 443.622 5.86133 445.831V884.273C5.86133 886.482 7.65219 888.273 9.86133 888.273H24.6525C26.8616 888.273 28.6525 886.482 28.6525 884.273V871.031H49.3044C51.5136 871.031 53.3044 869.24 53.3044 867.031V843.936H73.9564C76.1655 843.936 77.9564 842.146 77.9564 839.936V819.305H101.074C103.283 819.305 105.074 817.514 105.074 815.305V794.673H136.517V812.842C136.517 815.051 138.308 816.842 140.517 816.842H158.703V832.547C158.703 834.756 160.494 836.547 162.703 836.547H183.355V857.203C183.355 859.412 185.146 861.203 187.355 861.203H208.007V884.273C208.007 886.482 209.798 888.273 212.007 888.273H239.124C241.334 888.273 243.124 886.482 243.124 884.273V861.179H266.242C268.451 861.179 270.242 859.388 270.242 857.179V829.157H290.894C293.103 829.157 294.894 827.367 294.894 825.157V809.452H341.128V832.547C341.128 834.756 342.919 836.547 345.128 836.547H360.849V859.642C360.849 861.851 362.64 863.642 364.849 863.642H387.967V884.273C387.967 886.482 389.757 888.273 391.967 888.273H416.618C418.828 888.273 420.618 886.482 420.618 884.273V863.642H443.736C445.945 863.642 447.736 861.851 447.736 859.642V839.01H468.388C470.597 839.01 472.388 837.219 472.388 835.01V816.924L493.056 816.842C495.258 816.833 497.04 815.045 497.04 812.842V794.673H528.483V815.305C528.483 817.514 530.273 819.305 532.483 819.305H553.135V839.936C553.135 842.146 554.925 843.936 557.135 843.936H577.787V864.667C577.787 865.73 578.21 866.75 578.964 867.501C579.717 868.251 580.739 868.671 581.803 868.667L602.438 868.584V884.273C602.438 886.482 604.229 888.273 606.438 888.273H631.09Z" stroke="white" stroke-width="8" stroke-linecap="round" stroke-linejoin="round"/>
<path d="M106.004 686.294H151.308V709.389C151.308 711.598 153.099 713.389 155.308 713.389H203.077V734.02C203.077 736.229 204.868 738.02 207.077 738.02H254.846V761.115C254.846 763.324 256.637 765.115 258.846 765.115H306.615V783.283C306.615 785.493 308.406 787.283 310.615 787.283H335.267C337.476 787.283 339.267 785.493 339.267 783.283V765.115H387.036C389.245 765.115 391.036 763.324 391.036 761.115V740.483H436.34C438.549 740.483 440.34 738.693 440.34 736.483V713.389H488.109C490.318 713.389 492.109 711.598 492.109 709.389V686.294H532.483C534.692 686.294 536.483 684.503 536.483 682.294V661.662H581.787C583.996 661.662 585.787 659.872 585.787 657.662V634.568H608.46C610.669 634.568 612.46 632.777 612.46 630.568V613.212H631.09C633.3 613.212 635.09 611.421 635.09 609.212V536.968C635.09 534.759 633.3 532.968 631.09 532.968H609.347C607.138 532.968 605.347 534.759 605.347 536.968V550.21H584.252C582.043 550.21 580.252 552.001 580.252 554.21V577.305H532.507C530.298 577.305 528.507 579.095 528.507 581.305V601.936H488.134C485.925 601.936 484.134 603.727 484.134 605.936V626.568H436.365C434.156 626.568 432.365 628.359 432.365 630.568V653.662H387.085C384.876 653.662 383.085 655.453 383.085 657.662V678.294H335.316C333.107 678.294 331.316 680.085 331.316 682.294V702.926H314.664V682.294C314.664 680.085 312.874 678.294 310.664 678.294H310.59H262.846V655.199C262.846 652.99 261.055 651.199 258.846 651.199H213.542V630.568C213.542 628.359 211.751 626.568 209.542 626.568H161.773V605.936C161.773 603.727 159.982 601.936 157.773 601.936H112.469V581.305C112.469 579.095 110.678 577.305 108.469 577.305H60.7V554.21C60.7 552.001 58.9092 550.21 56.7 550.21H36.4918V536.968C36.4918 534.759 34.701 532.968 32.4918 532.968H9.86133C7.65219 532.968 5.86133 534.759 5.86133 536.968V561.599V613.326C5.86133 615.535 7.65219 617.326 9.86133 617.326H27.8049L28.4971 630.773C28.6039 632.847 30.2798 634.494 32.3552 634.565L55.1652 635.345V655.199C55.1652 657.408 56.9561 659.199 59.1652 659.199H102.004V682.294C102.004 684.503 103.795 686.294 106.004 686.294Z" stroke="white" stroke-width="8" stroke-linecap="round" stroke-linejoin="round"/>
<path d="M635.09 692.146C635.09 689.937 633.299 688.146 631.09 688.146H605.994C603.785 688.146 601.994 689.937 601.994 692.146V702.925H581.786C579.577 702.925 577.786 704.716 577.786 706.925V715.241H530.017C527.807 715.241 526.017 717.032 526.017 719.241V742.336H485.643C483.434 742.336 481.643 744.127 481.643 746.336V769.431H422.164C419.955 769.431 418.164 771.222 418.164 773.431V794.062H384.57C382.361 794.062 380.57 795.853 380.57 798.062V818.694H345.127C342.918 818.694 341.127 820.485 341.127 822.694V832.546C341.127 834.756 342.918 836.546 345.127 836.546H360.849V859.641C360.849 861.85 362.639 863.641 364.849 863.641H387.966V884.273C387.966 886.482 389.757 888.273 391.966 888.273H416.618C418.827 888.273 420.618 886.482 420.618 884.273V863.641H443.735C445.944 863.641 447.735 861.85 447.735 859.641V839.01H468.387C470.596 839.01 472.387 837.219 472.387 835.01V816.924L493.055 816.841C495.258 816.832 497.039 815.044 497.039 812.841V804.525H532.482H557.134H579.32C581.53 804.525 583.32 802.735 583.32 800.525V777.431H604.737C606.946 777.431 608.737 775.64 608.737 773.431V762.652H631.09C633.299 762.652 635.09 760.861 635.09 758.652V692.146Z" stroke="white" stroke-width="8" stroke-linecap="round" stroke-linejoin="round"/>
<path d="M215.895 796.796L211.841 796.821V775.549C211.841 773.34 210.05 771.549 207.841 771.549H160.072V750.918C160.072 748.708 158.281 746.918 156.072 746.918H110.768V726.286C110.768 724.077 108.977 722.286 106.768 722.286H58.999V699.191C58.999 696.982 57.2082 695.191 54.999 695.191H34.7908V681.949C34.7908 679.74 33 677.949 30.7908 677.949H9.86133C7.65219 677.949 5.86133 679.74 5.86133 681.949V787.865C5.86133 790.074 7.65219 791.865 9.86133 791.865H26.7908V800.181C26.7908 802.39 28.5817 804.181 30.7908 804.181H70.7206V807.57C70.7206 809.779 72.5115 811.57 74.7206 811.57H94.6083V815.305C94.6083 817.514 96.3992 819.305 98.6083 819.305H101.074C103.283 819.305 105.074 817.514 105.074 815.305V794.673H136.517V812.841C136.517 815.051 138.308 816.841 140.517 816.841H158.703V832.547C158.703 834.756 160.494 836.547 162.703 836.547H183.355V857.178C183.355 859.387 185.146 861.178 187.355 861.178H208.007V884.273C208.007 886.482 209.798 888.273 212.007 888.273H239.124C241.334 888.273 243.124 886.482 243.124 884.273V861.178H266.242C268.451 861.178 270.242 859.387 270.242 857.178V829.157H290.894C293.103 829.157 294.894 827.366 294.894 825.157V820.354C294.894 818.145 293.103 816.354 290.894 816.354H270.242V800.526C270.242 798.316 268.451 796.526 266.242 796.526C262.504 796.526 247.887 796.606 234.226 796.686C227.391 796.726 220.788 796.766 215.895 796.796Z" stroke="white" stroke-width="8" stroke-linecap="round" stroke-linejoin="round"/>
<path d="M453.898 375.631C453.898 373.422 452.107 371.631 449.898 371.631H434.177V348.536C434.177 346.327 432.386 344.536 430.177 344.536H378.407C376.198 344.536 374.407 346.327 374.407 348.536V371.631H356.221C354.012 371.631 352.221 373.422 352.221 375.631V451.989C352.221 454.198 354.012 455.989 356.221 455.989H374.407V479.083C374.407 481.293 376.198 483.083 378.407 483.083H449.898C452.107 483.083 453.898 481.293 453.898 479.083V375.631Z" stroke="white" stroke-width="8" stroke-linecap="round" stroke-linejoin="round"/>
<path d="M464.991 401.494C464.991 399.285 463.201 397.494 460.991 397.494H411.688C409.478 397.494 407.688 399.285 407.688 401.494V453.22C407.688 455.43 409.478 457.22 411.688 457.22H460.991C463.201 457.22 464.991 455.43 464.991 453.22V401.494Z" stroke="white" stroke-width="8" stroke-linecap="round" stroke-linejoin="round"/>
<path d="M200.914 458.452H221.566V479.083C221.566 481.292 223.357 483.083 225.566 483.083H294.591C296.801 483.083 298.591 481.292 298.591 479.083V375.631C298.591 373.421 296.801 371.631 294.591 371.631H281.335V350.999C281.335 348.79 279.544 346.999 277.335 346.999H225.566C223.357 346.999 221.566 348.79 221.566 350.999V371.631H200.914C198.705 371.631 196.914 373.421 196.914 375.631V454.452C196.914 456.661 198.705 458.452 200.914 458.452Z" stroke="white" stroke-width="8" stroke-linecap="round" stroke-linejoin="round"/>
<path d="M312.15 403.957C312.15 401.748 310.359 399.957 308.15 399.957H256.381C254.172 399.957 252.381 401.748 252.381 403.957V455.683C252.381 457.892 254.172 459.683 256.381 459.683H308.15C310.359 459.683 312.15 457.892 312.15 455.683V403.957Z" stroke="white" stroke-width="8" stroke-linecap="round" stroke-linejoin="round"/>
<path d="M147.912 491.094C145.703 491.094 143.912 492.885 143.912 495.094V546.82C143.912 549.029 145.703 550.82 147.912 550.82H224.333C226.542 550.82 228.333 549.029 228.333 546.82V495.094C228.333 492.885 226.542 491.094 224.333 491.094H147.912Z" stroke="white" stroke-width="8" stroke-linecap="round" stroke-linejoin="round"/>
<path d="M428.945 491.094C426.736 491.094 424.945 492.885 424.945 495.094V546.82C424.945 549.029 426.736 550.82 428.945 550.82H505.366C507.575 550.82 509.366 549.029 509.366 546.82V495.094C509.366 492.885 507.575 491.094 505.366 491.094H428.945Z" stroke="white" stroke-width="8" stroke-linecap="round" stroke-linejoin="round"/>
<path d="M7.39648 719.242L313.081 881.81L441.271 842.399L631.091 706.926" fill="#E5D31C"/>
<path d="M386.914 822.842H327.749V848.262H303.098V822.842H251.328L98.4863 766.189V825.305H147.79V852.4H199.559V889.347H251.328V913.979H303.098V936.147H327.749V913.979H379.519V889.347H404.171L404.294 862.105H480.592V825.305H532.361V788.358L386.914 822.842Z" fill="black"/>
<path d="M253.916 258.631H236.66V177.347H212.008V150.252H187.356V125.621H135.587V73.8945H59.166V150.252H160.239V174.884H187.356V211.831H212.008V322.673H253.916V258.631Z" fill="#F7A059"/>
<path d="M448.666 165.031H475.783V110.842H502.925V86.2104H579.321V9.85254H502.9V61.5788H475.783V86.2104H451.131V113.305H426.479V241.389H406.758V322.673H448.666V165.031Z" fill="#F7A059"/>
<path d="M253.916 258.631H236.66V177.347H212.008V150.252H187.356V125.621H135.587V73.8945H59.166V150.252H160.239V174.884H187.356V211.831H212.008V322.673H253.916V258.631Z" fill="#1D1C1A"/>
<path d="M448.666 165.031H475.783V110.842H502.925V86.2104H579.321V9.85254H502.9V61.5788H475.783V86.2104H451.131V113.305H426.479V241.389H406.758V322.673H448.666V165.031Z" fill="#1D1C1A"/>
<path d="M631.09 884.273C630.721 795.797 630.77 532.362 631.09 448.294H616.299V418.737H584.252V394.105H537.413V369.473H497.97V342.379H448.666V322.673H399.362V298.042H350.058V280.8H310.64V298.042H261.311V322.673H212.007V349.768H162.703V371.912C150.451 371.912 125.676 371.937 113.4 371.937V396.568H61.6304V418.737H32.0481V445.831H9.86133V884.273H24.6525V867.031H49.3044V839.936H73.9564V815.305H101.074V790.673H140.517V812.842H162.703V832.547H187.355V857.203H212.007V884.273H239.124V857.179H266.242V825.157H290.894V805.452H345.128V832.547H364.849V859.642H391.967V884.273H416.618V859.642H443.736V835.01H468.388V812.94L493.04 812.842V790.673H532.483V815.305H557.135V839.936H581.787V864.667L606.439 864.568V884.273H631.09ZM152.843 736.41V736.287L152.966 736.361L152.843 736.41ZM253.916 709.389V708.379L256.332 709.389H253.916ZM382.106 709.389H381.342L382.106 709.044V709.389Z" fill="#F7A059"/>
<path d="M310.59 682.294H258.846V655.199H209.542V630.568H157.773V605.936H108.469V581.305H56.7V554.21H32.4918V536.968H9.86133V561.599V613.326H31.6043L32.4918 630.568L59.1652 631.479V655.199H106.004V682.294H155.308V709.389H207.077V734.02H258.846V761.115H310.615V783.283H335.267V761.115H387.036V736.483H436.34V709.389H488.109V682.294H532.483V657.662H581.787V630.568H608.46V609.212H631.09V536.968H609.347V554.21H584.252V581.305H532.507V605.936H488.134V630.568H436.365V657.662H387.085V682.294H335.316V706.926H310.664V682.294H310.59Z" fill="#E06A12"/>
<path d="M631.09 692.146V758.652H604.737V773.431H579.32V800.525H557.134H532.482H493.039V812.841L468.387 812.94V835.01H443.735V859.641H416.618V884.273H391.966V859.641H364.849V832.546H345.127V822.694H384.57V798.062H422.164V773.431H485.643V746.336H530.017V719.241H581.786V706.925H605.994V692.146H631.09Z" fill="#E06A12"/>
<path d="M266.242 820.354H290.894V825.157H266.242V857.178H239.124V884.273H212.007V857.178H187.355V832.547H162.703V812.841H140.517V790.673H101.074V815.305H98.6083V807.57H74.7206V800.181H30.7908V787.865H9.86133V681.949H30.7908V699.191H54.999V726.286H106.768V750.918H156.072V775.549H207.841V800.846C207.841 800.846 258.797 800.526 266.242 800.526V820.354Z" fill="#E06A12"/>
<path d="M450.398 375.631C450.398 375.355 450.174 375.131 449.898 375.131H430.677V348.536C430.677 348.26 430.453 348.036 430.177 348.036H378.407C378.131 348.036 377.907 348.26 377.907 348.536V375.131H356.221C355.945 375.131 355.721 375.355 355.721 375.631V451.989C355.721 452.265 355.945 452.489 356.221 452.489H377.907V479.083C377.907 479.36 378.131 479.583 378.407 479.583H449.898C450.174 479.583 450.398 479.36 450.398 479.083V375.631Z" fill="white" stroke="white" stroke-linecap="round" stroke-linejoin="round"/>
<path d="M460.991 401.494H411.688V453.22H460.991V401.494Z" fill="#1D1C1A"/>
<path d="M200.914 454.952H225.066V479.083C225.066 479.359 225.29 479.583 225.566 479.583H294.591C294.868 479.583 295.091 479.359 295.091 479.083V375.631C295.091 375.354 294.868 375.131 294.591 375.131H277.835V350.999C277.835 350.723 277.611 350.499 277.335 350.499H225.566C225.29 350.499 225.066 350.723 225.066 350.999V375.131H200.914C200.638 375.131 200.414 375.354 200.414 375.631V454.452C200.414 454.728 200.638 454.952 200.914 454.952Z" fill="white" stroke="white" stroke-linecap="round" stroke-linejoin="round"/>
<path d="M308.15 403.957H256.381V455.683H308.15V403.957Z" fill="#1D1C1A"/>
<path d="M224.333 495.094H147.912V546.82H224.333V495.094Z" fill="#F15A24"/>
<path d="M505.366 495.094H428.945V546.82H505.366V495.094Z" fill="#F15A24"/>
</g>
</g>
<defs>
<filter id="filter0_d_882_2402" x="-4.60547" y="1.85254" width="647.697" height="950.295" filterUnits="userSpaceOnUse" color-interpolation-filters="sRGB">
<feFlood flood-opacity="0" result="BackgroundImageFix"/>
<feColorMatrix in="SourceAlpha" type="matrix" values="0 0 0 0 0 0 0 0 0 0 0 0 0 0 0 0 0 0 127 0" result="hardAlpha"/>
<feOffset dy="4"/>
<feGaussianBlur stdDeviation="2"/>
<feComposite in2="hardAlpha" operator="out"/>
<feColorMatrix type="matrix" values="0 0 0 0 0 0 0 0 0 0 0 0 0 0 0 0 0 0 0.25 0"/>
<feBlend mode="normal" in2="BackgroundImageFix" result="effect1_dropShadow_882_2402"/>
<feBlend mode="normal" in="SourceGraphic" in2="effect1_dropShadow_882_2402" result="shape"/>
</filter>
<clipPath id="clip0_882_2402">
<rect width="641" height="946" fill="white"/>
</clipPath>
</defs>
</svg>
