<svg width="314" height="220" viewBox="0 0 314 220" fill="none" xmlns="http://www.w3.org/2000/svg">
<g clip-path="url(#clip0_209_2159)">
<path d="M215.788 187.424C258.64 144.663 258.64 75.3337 215.788 32.5725C172.936 -10.1886 103.459 -10.1886 60.6077 32.5725C17.7558 75.3337 17.7558 144.663 60.6077 187.424C103.459 230.185 172.936 230.185 215.788 187.424Z" fill="#563065"/>
<path opacity="0.3" d="M107.798 60.2102C88.117 76.6675 66.2596 82.9743 58.9781 74.3016C51.6966 65.629 61.7517 45.2632 81.4331 28.8125C101.115 12.3552 122.972 6.04845 130.254 14.7211C137.535 23.3937 127.48 43.7595 107.798 60.2102Z" fill="#D9AFFF"/>
<path opacity="0.3" d="M95.5536 114.612C110.298 135.587 111.37 160.211 97.944 169.61C84.5177 179.008 61.6795 169.629 46.9281 148.654C32.1833 127.679 31.1115 103.055 44.5378 93.6562C57.964 84.2576 80.8023 93.6368 95.5536 114.612Z" fill="#D9AFFF"/>
<path opacity="0.1" d="M186.467 138.342C204.018 116.55 227.402 106.224 238.697 115.286C249.999 124.347 244.933 149.354 227.382 171.152C209.831 192.944 186.447 203.27 175.151 194.208C163.856 185.147 168.916 160.14 186.467 138.342Z" fill="#D9AFFF"/>
<path opacity="0.3" d="M100.341 147.448C112.767 165.124 116.885 183.623 109.532 188.77C102.179 193.916 86.1485 183.759 73.7226 166.084C61.2966 148.408 57.1785 129.909 64.5314 124.762C71.8843 119.616 87.9153 129.773 100.341 147.448Z" fill="#D9AFFF"/>
<path opacity="0.3" d="M99.6788 87.33C93.2937 107.962 81.16 122.539 72.5859 119.894C64.0053 117.25 62.2256 98.3814 68.6172 77.7499C75.0023 57.1184 87.1359 42.5409 95.71 45.1854C104.291 47.83 106.07 66.6985 99.6788 87.3235V87.33Z" fill="#D9AFFF"/>
<path opacity="0.3" d="M149.662 57.4166C124.051 59.2055 102.641 51.5117 101.849 40.2269C101.056 28.9421 121.179 18.3444 146.791 16.5554C172.403 14.7664 193.812 22.4603 194.605 33.7451C195.397 45.0299 175.274 55.6276 149.662 57.4166Z" fill="#D9AFFF"/>
<path d="M33.4252 142.626C33.4252 142.626 5.8322 163.044 12.7045 173.265C19.5767 183.481 87.6499 173.194 164.888 127.31C248.999 77.3416 288.232 38.5416 280.093 30.6403C267.985 18.8824 221.834 39.4555 221.834 39.4555L219.217 36.5193C219.217 36.5193 284.179 11.7913 305.945 25.0919C321.983 34.8924 324.1 72.9923 207.109 139.068C120.381 188.05 29.0667 202.096 4.19533 185.769C-11.3485 175.566 32.0287 137.758 32.0287 137.758L33.4252 142.626Z" fill="#A67FB5"/>
<path d="M15.8086 181.355C15.8086 181.355 47.4418 186.022 95.3398 168.372C127.252 156.614 171.279 137.415 198.924 120.607C251.7 88.5227 287.783 41.9835 290.725 33.6544C293.674 25.3253 277.962 23.1215 277.962 23.1215C277.962 23.1215 304.717 20.9177 299.806 35.1257C294.895 49.3338 279.189 75.786 207.758 121.346C149.727 158.357 102.459 174.497 45.753 182.826C28.7282 185.328 15.8086 181.355 15.8086 181.355Z" fill="#D9AFFF"/>
<path d="M141.244 164.457C141.244 164.457 237.462 118.164 273.058 78.236C296.526 51.9135 300.794 41.0047 302.515 36.1044C304.236 31.2042 300.06 25.5715 300.06 25.5715C300.06 25.5715 308.251 29.9791 306.685 38.0619C303.983 52.0237 282.632 82.151 243.354 109.096C199.028 139.508 141.244 164.45 141.244 164.45V164.457Z" fill="#390B4B"/>
</g>
<defs>
<clipPath id="clip0_209_2159">
<rect width="313" height="219" fill="white" transform="translate(0.830078 0.5)"/>
</clipPath>
</defs>
</svg>
