<svg width="629" height="24" viewBox="0 0 629 24" fill="none" xmlns="http://www.w3.org/2000/svg">
<g clip-path="url(#clip0_500_2561)">
<path d="M0 1.11426H628.139" stroke="#E656CD" stroke-width="4" stroke-miterlimit="10"/>
<path d="M0 23H628.139" stroke="#E656CD" stroke-width="4" stroke-miterlimit="10"/>
<path d="M1.24609 22.7052L27.2489 1.41406L53.2457 22.7052" stroke="#E656CD" stroke-width="4" stroke-miterlimit="10"/>
<path d="M53.2441 22.7052L79.247 1.41406L105.25 22.7052" stroke="#E656CD" stroke-width="4" stroke-miterlimit="10"/>
<path d="M105.25 22.7052L131.253 1.41406L157.25 22.7052" stroke="#E656CD" stroke-width="4" stroke-miterlimit="10"/>
<path d="M158.684 22.7052L184.686 1.41406L210.683 22.7052" stroke="#E656CD" stroke-width="4" stroke-miterlimit="10"/>
<path d="M210.684 22.7052L236.686 1.41406L262.689 22.7052" stroke="#E656CD" stroke-width="4" stroke-miterlimit="10"/>
<path d="M314.689 22.7052L340.692 1.41406L366.695 22.7052" stroke="#E656CD" stroke-width="4" stroke-miterlimit="10"/>
<path d="M262.689 22.7052L288.686 1.41406L314.689 22.7052" stroke="#E656CD" stroke-width="4" stroke-miterlimit="10"/>
<path d="M366.695 22.7052L392.692 1.41406L418.695 22.7052" stroke="#E656CD" stroke-width="4" stroke-miterlimit="10"/>
<path d="M420.129 22.7052L446.126 1.41406L472.128 22.7052" stroke="#E656CD" stroke-width="4" stroke-miterlimit="10"/>
<path d="M472.129 22.7052L498.132 1.41406L524.135 22.7052" stroke="#E656CD" stroke-width="4" stroke-miterlimit="10"/>
<path d="M576.133 22.7052L602.136 1.41406L628.138 22.7052" stroke="#E656CD" stroke-width="4" stroke-miterlimit="10"/>
<path d="M524.135 22.7052L550.132 1.41406L576.134 22.7052" stroke="#E656CD" stroke-width="4" stroke-miterlimit="10"/>
</g>
<defs>
<clipPath id="clip0_500_2561">
<rect width="629" height="24" fill="white"/>
</clipPath>
</defs>
</svg>
