<svg width="224" height="268" viewBox="0 0 224 268" fill="none" xmlns="http://www.w3.org/2000/svg">
<path d="M126.434 65.3819C125.332 64.7771 124.24 64.2047 123.062 63.7188C124.197 64.2047 125.343 64.7339 126.434 65.3819Z" fill="black"/>
<path d="M156.379 1.922C156.66 1.71681 156.952 1.51161 157.276 1.34961C156.952 1.51161 156.671 1.71681 156.379 1.922Z" fill="black"/>
<path d="M171.946 9.88064C171.946 11.263 171.665 12.559 171.135 13.7794C171.665 12.6022 171.946 11.263 171.946 9.88064C171.946 4.43749 167.558 0.0527344 162.111 0.0527344C167.558 0.0527344 171.946 4.48069 171.946 9.88064Z" fill="black"/>
<path d="M189.007 101.476C189.375 101.681 189.699 101.886 190.066 102.124C189.742 101.919 189.375 101.681 189.007 101.476Z" fill="black"/>
<path d="M153.779 21.3737C154.914 20.2397 156.016 19.2245 157.032 18.3281C156.016 19.2245 154.925 20.2721 153.779 21.3737Z" fill="black"/>
<path d="M150.405 25.0664C149.919 25.6388 149.476 26.2436 148.979 26.8484C149.465 26.2436 149.908 25.628 150.405 25.0664Z" fill="black"/>
<path d="M112.094 263.305C113.682 263.305 115.217 263.186 116.762 262.938C115.217 263.143 113.639 263.305 112.094 263.305Z" fill="black"/>
<path d="M203.352 126.284C203.352 122.472 202.585 118.735 201.158 115.279C202.585 118.735 203.352 122.461 203.352 126.284Z" fill="black"/>
<path d="M63.2684 24.7734C64.1654 24.9786 65.1813 25.2162 66.1972 25.5078C65.1813 25.227 64.1654 24.9786 63.2684 24.7734Z" fill="black"/>
<path d="M89.0638 70.374L97.7528 65.3844C98.0338 65.2224 98.2824 65.0604 98.5634 64.9416C98.2824 65.1036 97.9906 65.2224 97.7528 65.3844L89.0638 70.374C88.6963 61.6908 88.0047 48.6986 86.9888 44.1086C86.8699 43.5794 86.7402 43.0934 86.5781 42.6074C86.7402 43.0934 86.8591 43.5794 86.9888 44.1086C88.0047 48.6986 88.6963 61.6908 89.0638 70.374Z" fill="black"/>
<path d="M81.1736 60.4235C81.0871 58.9979 81.0115 57.6263 80.8926 56.2871C81.0115 57.6263 81.0979 59.0087 81.1736 60.4235Z" fill="#131718"/>
<path d="M134.485 39.718C134.604 39.1888 134.766 38.7028 134.896 38.2168C134.777 38.7028 134.647 39.1888 134.485 39.718C133.188 44.7939 132.54 60.2594 132.248 68.7049C132.529 60.2594 133.221 44.7939 134.485 39.718Z" fill="#131718"/>
<path d="M152.273 9.8826C152.273 9.6342 152.273 9.3966 152.317 9.19141C152.273 9.4398 152.273 9.6774 152.273 9.8826C152.273 10.7358 152.392 11.589 152.598 12.399C152.392 11.6322 152.273 10.779 152.273 9.8826Z" fill="#131718"/>
<path d="M22.0273 206.709C22.2327 207.357 22.438 208.005 22.6758 208.621C22.4272 207.973 22.2327 207.357 22.0273 206.709Z" fill="#131718"/>
<path d="M21.7022 205.489C21.6158 205.208 21.5401 204.884 21.4969 204.56C21.4969 204.474 21.4536 204.441 21.4536 204.355C21.2915 203.62 21.1727 202.897 21.0862 202.162C21.0862 202.076 21.0862 202 21.043 201.914C21.043 202 21.043 202.076 21.0862 202.162C21.1727 202.897 21.2915 203.62 21.4536 204.355C21.4536 204.441 21.4969 204.474 21.4969 204.56C21.5401 204.884 21.6158 205.165 21.7022 205.489C21.7022 205.575 21.7454 205.608 21.7454 205.694C21.8319 206.018 21.9075 206.385 22.0264 206.709C21.94 206.385 21.8211 206.018 21.7454 205.694C21.7454 205.608 21.7022 205.532 21.7022 205.489Z" fill="#131718"/>
<path d="M61.2371 31.8809C60.5454 32.7341 59.7349 33.5008 58.8379 34.1164C59.7673 33.5116 60.5887 32.7341 61.2371 31.8809C67.2891 33.1768 77.8154 36.676 79.8039 45.6831C79.8904 46.0503 79.966 46.4499 80.0525 46.9791C79.966 46.4931 79.8904 46.0503 79.8039 45.6831C77.8586 36.6652 67.2891 33.1768 61.2371 31.8809Z" fill="#131718"/>
<path d="M20.9241 200.732C20.8809 200.483 20.8809 200.202 20.8809 199.965C20.8809 200.213 20.8809 200.494 20.9241 200.732C20.9241 200.85 20.9241 200.98 20.9673 201.099C21.0105 201.38 21.0105 201.671 21.0538 201.952C21.0105 201.671 20.9673 201.38 20.9673 201.099C20.9241 200.98 20.9241 200.85 20.9241 200.732Z" fill="#131718"/>
<path d="M20.8477 181.457V156.444V126.28C20.8477 125.384 20.8909 124.498 20.9665 123.602C20.8801 124.498 20.8477 125.384 20.8477 126.28V156.444V198.542C20.8477 198.909 20.8477 199.276 20.8909 199.644C20.8909 199.276 20.8477 198.909 20.8477 198.542V181.446V181.457Z" fill="#131718"/>
<path d="M162.11 19.7385C161.829 19.7385 161.537 19.7385 161.256 19.6953C161.537 19.6953 161.829 19.7385 162.11 19.7385Z" fill="#131718"/>
<path d="M153.778 21.373C152.924 22.2262 152.07 23.1226 151.26 24.0946C152.114 23.1226 152.924 22.2262 153.778 21.373Z" fill="#131718"/>
<path d="M139.522 70.9395C139.522 71.3822 139.479 71.8358 139.479 72.2786C139.522 71.8682 139.522 71.4254 139.522 70.9395Z" fill="#131718"/>
<path d="M155.486 2.60939C155.767 2.361 156.059 2.1234 156.383 1.875C156.059 2.1234 155.778 2.361 155.486 2.60939Z" fill="#131718"/>
<path d="M139.361 27.9787C140.096 26.6827 140.907 25.4623 141.717 24.2852C140.907 25.4623 140.096 26.7259 139.361 27.9787Z" fill="#131718"/>
<path d="M153.453 5.20453C153.702 4.79414 153.939 4.39454 154.22 4.02734C153.939 4.39454 153.691 4.79414 153.453 5.20453Z" fill="#131718"/>
<path d="M141.426 42.5625C141.307 43.3725 141.145 44.3445 141.016 45.4461C141.135 44.3445 141.264 43.3401 141.426 42.5625Z" fill="#131718"/>
<path d="M141.025 45.4434C140.982 45.8862 140.939 46.3397 140.863 46.8257C140.907 46.3397 140.95 45.897 141.025 45.4434Z" fill="#131718"/>
<path d="M122.048 72.8885L120.913 72.2405C115.466 69.0761 108.722 69.0761 103.275 72.2405L102.141 72.8885C108.279 69.3137 115.877 69.3137 122.048 72.8885Z" fill="#131718"/>
<path d="M201.156 115.321C200.907 114.749 200.669 114.187 200.389 113.615C199.578 111.952 198.605 110.364 197.46 108.906C196.163 107.2 194.617 105.612 192.953 104.197C192.705 103.992 192.467 103.787 192.218 103.625C191.851 103.344 191.483 103.096 191.159 102.858C190.835 102.621 190.467 102.415 190.143 102.167C189.819 101.919 189.452 101.724 189.084 101.519L139.522 72.9317V72.3269C139.522 71.9165 139.565 71.4737 139.565 70.9877C139.565 70.5449 139.609 70.0589 139.609 69.5621C139.609 69.0653 139.652 68.5469 139.652 68.0177C139.652 67.7693 139.652 67.4885 139.695 67.2077C139.738 66.5597 139.738 65.9118 139.782 65.2206V65.0154C139.825 64.3242 139.825 63.633 139.868 62.9418C139.868 62.499 139.911 62.0454 139.954 61.5594C139.998 60.8682 140.041 60.1338 140.073 59.4534V59.205C140.16 57.7038 140.235 56.2027 140.322 54.7015C140.408 53.5243 140.484 52.3471 140.57 51.2131C140.614 50.8459 140.614 50.4787 140.657 50.1115C140.7 49.4635 140.776 48.8479 140.819 48.2431C140.862 47.7139 140.905 47.2279 140.938 46.7851C140.981 46.2991 141.024 45.8563 141.1 45.4028C141.219 44.2688 141.349 43.2968 141.511 42.5192C141.597 42.1088 141.673 41.7848 141.716 41.4608C141.802 41.1368 141.878 40.8128 141.965 40.4888C142.127 39.8408 142.332 39.2252 142.57 38.6204C142.689 38.2964 142.775 38.0156 142.894 37.6916C143.218 36.7952 143.629 35.9096 144.029 35.0133C144.31 34.4409 144.602 33.8793 144.883 33.3069C145.164 32.7345 145.488 32.2053 145.812 31.6437C146.46 30.5421 147.109 29.5377 147.801 28.5225C148.081 28.1121 148.373 27.7557 148.654 27.3885C148.816 27.1833 148.978 26.9781 149.097 26.7837C149.54 26.1789 150.027 25.6066 150.524 25.0018C150.805 24.6778 151.097 24.3538 151.378 24.0298C152.231 23.0578 153.085 22.1614 153.896 21.3082C155.031 20.1742 156.133 19.159 157.149 18.2626C157.354 18.3814 157.516 18.4678 157.722 18.5866C158.089 18.7918 158.489 18.9538 158.9 19.1158C159.429 19.321 159.959 19.4398 160.488 19.5262C160.769 19.5694 161.061 19.6126 161.342 19.645C161.623 19.6882 161.915 19.6882 162.196 19.6882C163.212 19.6882 164.184 19.5262 165.124 19.2454C165.449 19.159 165.73 19.0402 166.021 18.9214C166.465 18.7162 166.875 18.511 167.286 18.2734C167.697 18.0358 168.053 17.7442 168.421 17.4634C168.702 17.215 168.95 17.0206 169.188 16.729C169.437 16.4806 169.674 16.1998 169.88 15.919C169.999 15.8002 170.085 15.6382 170.204 15.4762C170.485 15.0659 170.733 14.6663 170.939 14.2127C171.025 14.0507 171.101 13.8887 171.187 13.7267C171.717 12.5495 171.998 11.2103 171.998 9.8279C171.998 4.38476 167.61 0 162.163 0H161.472C160.899 0.0431996 160.294 0.118799 159.764 0.280797C158.997 0.485995 158.262 0.766793 157.613 1.09079C157.527 1.13399 157.408 1.20959 157.332 1.25279C157.008 1.41479 156.727 1.61998 156.436 1.82518C156.111 2.03038 155.83 2.26798 155.538 2.55958C155.42 2.67837 155.29 2.76477 155.214 2.88357C155.095 3.00237 155.009 3.13197 154.89 3.20757C154.685 3.45597 154.479 3.69356 154.285 3.94196C154.004 4.30916 153.755 4.70875 153.518 5.11915C153.312 5.48635 153.15 5.81034 153.031 6.22074C152.912 6.50154 152.826 6.79313 152.75 7.07393C152.664 7.27913 152.631 7.51673 152.588 7.72192C152.502 8.16472 152.426 8.61832 152.383 9.10431C152.383 9.35271 152.34 9.59031 152.34 9.7955C152.34 10.6487 152.458 11.5019 152.664 12.3119C152.059 12.8411 151.443 13.3703 150.794 13.9751C150.146 14.5475 149.53 15.1955 148.881 15.8002L148.19 16.4914C147.779 16.9018 147.379 17.3446 146.925 17.7874C146.677 18.0358 146.482 18.3166 146.233 18.5542C145.985 18.835 145.747 19.1266 145.466 19.4074C144.202 20.8654 142.905 22.4962 141.727 24.2026C140.916 25.3798 140.106 26.6001 139.371 27.8961C138.636 29.1921 137.912 30.4989 137.263 31.8705C136.853 32.7669 136.453 33.6957 136.085 34.6677C135.837 35.3157 135.599 35.9636 135.394 36.6116C135.232 37.0976 135.07 37.5836 134.951 38.1128C134.789 38.5988 134.67 39.128 134.54 39.614C133.243 44.69 132.595 60.1554 132.303 68.6009L126.489 65.2314C125.386 64.6266 124.295 64.0542 123.117 63.5682C122.836 63.4494 122.544 63.3198 122.263 63.2442C121.69 63.039 121.085 62.8338 120.48 62.6394C120.199 62.553 119.875 62.4774 119.583 62.391C118.686 62.1426 117.756 61.9482 116.816 61.7862C115.876 61.6242 114.947 61.5378 114.017 61.4622C113.412 61.419 112.753 61.3758 112.147 61.3758C107.76 61.3758 103.415 62.391 99.4706 64.335C99.1896 64.4538 98.8978 64.6158 98.6168 64.7778C98.3358 64.9398 98.044 65.0586 97.8062 65.2206L89.1172 70.2101C88.7498 61.527 88.0581 48.5347 87.0422 43.9448C86.9233 43.4156 86.7937 42.9296 86.6316 42.4436C86.4695 41.9576 86.3073 41.4716 86.1452 41.018C85.7778 40.0892 85.3779 39.1928 84.924 38.3828C84.5998 37.8104 84.2756 37.2812 83.9514 36.7628C83.3029 35.834 82.6113 34.9377 81.8439 34.1601C81.3576 33.6309 80.8713 33.1449 80.3417 32.7021C80.0932 32.4537 79.8122 32.2593 79.5312 32.0109C78.8395 31.4385 78.1046 30.8769 77.3373 30.3909C76.851 30.0669 76.3215 29.7429 75.7919 29.4189C75.5433 29.2569 75.2623 29.1381 75.0246 28.9761C74.2573 28.5333 73.4359 28.1661 72.6686 27.7989C71.9013 27.4317 71.0799 27.1077 70.3126 26.7837C69.5453 26.4597 68.7672 26.2113 67.9999 25.9737C67.7513 25.8873 67.5136 25.8117 67.265 25.7253C66.8975 25.6065 66.5733 25.5201 66.2059 25.4014C65.19 25.1206 64.1741 24.8722 63.2771 24.667C62.7476 19.753 58.5652 15.8974 53.4858 15.8974C52.7941 15.8974 52.1024 15.9838 51.454 16.1026C51.2487 16.1458 51.0109 16.189 50.8056 16.2646C50.6002 16.3402 50.3949 16.3834 50.1571 16.4698C49.7465 16.6318 49.3466 16.7938 48.9359 16.999C48.7306 17.0854 48.5685 17.2042 48.3631 17.323C48.0821 17.485 47.8336 17.647 47.5958 17.8522C47.2284 18.133 46.8609 18.457 46.5367 18.781C46.4178 18.8998 46.3314 19.0294 46.2125 19.105C46.0072 19.3534 45.8018 19.591 45.6073 19.8394C45.3263 20.2066 45.0777 20.6062 44.84 21.0166C44.7211 21.2218 44.5914 21.4594 44.5158 21.6646C44.4293 21.8698 44.3104 22.075 44.2348 22.3126C43.8241 23.371 43.6296 24.505 43.6296 25.6821C43.6296 26.6973 43.7917 27.6693 44.0727 28.6089C44.278 29.2137 44.5158 29.8293 44.8076 30.3585C45.0561 30.7689 45.2939 31.1685 45.5749 31.5357C45.9423 32.0217 46.3854 32.5077 46.8393 32.9181C47.2932 33.3285 47.812 33.7281 48.3415 34.0521C48.7522 34.3005 49.1521 34.4949 49.606 34.7001C49.887 34.8189 50.2112 34.9485 50.503 35.0241C51.4324 35.3049 52.4159 35.4669 53.4317 35.4669C54.199 35.4669 54.9772 35.3805 55.7121 35.1861C56.0795 35.0997 56.447 34.9809 56.7712 34.8621C57.1386 34.7433 57.4628 34.5813 57.787 34.4193C58.1113 34.2573 58.4355 34.0521 58.7597 33.8469C59.6891 33.2421 60.5105 32.5077 61.1589 31.6113C67.211 32.9073 77.7372 36.4064 79.7257 45.4136C79.8122 45.7808 79.8878 46.1803 79.9743 46.7095C80.0175 46.8715 80.0175 47.0335 80.0608 47.2387C80.1472 47.9299 80.2661 48.7399 80.3417 49.6363C80.4282 50.3275 80.5039 51.0943 80.5471 51.9151C80.5903 52.1635 80.5903 52.4443 80.6335 52.6819C80.72 53.4919 80.7524 54.3019 80.8389 55.1551C80.8821 55.4359 80.8821 55.7275 80.9253 56.0083C81.0118 57.3474 81.0874 58.7298 81.2063 60.1446C81.2496 60.8358 81.2928 61.5702 81.3252 62.2506C81.5738 66.5165 81.7359 70.8149 81.898 74.2277L35.1783 101.184C34.076 101.832 33.0277 102.523 32.0118 103.29C31.5255 103.657 31.0391 104.057 30.5528 104.467C30.3042 104.673 30.1097 104.878 29.8611 105.115C29.4181 105.526 28.9642 105.969 28.5643 106.411C28.3589 106.66 28.1212 106.897 27.9158 107.146C27.7105 107.394 27.5052 107.632 27.3106 107.88C27.0297 108.204 26.7811 108.528 26.5433 108.895C25.776 109.911 25.0844 110.969 24.4683 112.06C24.1441 112.632 23.8631 113.161 23.6146 113.723C23.4957 113.971 23.366 114.252 23.2471 114.49C22.9986 115.019 22.804 115.548 22.5987 116.077C22.1124 117.416 21.7017 118.756 21.4207 120.181C21.3775 120.3 21.3775 120.43 21.3342 120.548C21.1721 121.402 21.0533 122.255 20.9668 123.108C20.9668 123.194 20.9668 123.27 20.9236 123.356C20.8371 124.253 20.8047 125.138 20.8047 126.035V156.199V198.297C20.8047 198.664 20.8047 199.031 20.8479 199.398V199.722C20.8479 199.971 20.8911 200.252 20.8911 200.489C20.8911 200.608 20.8911 200.738 20.9344 200.856C20.9776 201.137 20.9776 201.429 21.0208 201.71C21.0208 201.796 21.0208 201.872 21.0641 201.958C21.1505 202.692 21.2694 203.416 21.4315 204.15C21.4315 204.237 21.4747 204.269 21.4747 204.356C21.5612 204.68 21.5936 204.96 21.6801 205.284C21.6801 205.371 21.7233 205.403 21.7233 205.49C21.8098 205.814 21.8854 206.181 22.0043 206.505V206.548C22.2096 207.196 22.415 207.844 22.6527 208.46C22.9013 209.108 23.1391 209.723 23.42 210.328C24.1117 211.872 24.9655 213.33 25.9381 214.713C26.1435 214.993 26.3488 215.285 26.5433 215.523C26.954 216.052 27.3539 216.581 27.8078 217.11C28.7048 218.125 29.6342 219.097 30.6933 219.994C31.385 220.599 32.0766 221.171 32.8439 221.7C33.6113 222.229 34.3462 222.715 35.1567 223.201L97.763 259.338C99.3841 260.267 101.092 261.044 102.886 261.649C103.491 261.854 104.064 262.016 104.669 262.178C105.89 262.502 107.111 262.751 108.322 262.913C108.927 262.999 109.586 263.075 110.191 263.118C110.797 263.161 111.456 263.204 112.061 263.204C113.65 263.204 115.184 263.085 116.73 262.837C117.659 262.675 118.556 262.47 119.496 262.232C120.102 262.07 120.718 261.908 121.28 261.703C121.885 261.498 122.458 261.293 123.03 261.055C123.884 260.688 124.738 260.288 125.592 259.835C125.873 259.673 126.164 259.554 126.402 259.392L189.008 223.255C190.435 222.445 191.775 221.506 193.029 220.458C193.839 219.767 194.65 219.033 195.385 218.266C198.346 215.145 200.583 211.408 201.923 207.347C202.409 205.803 202.777 204.258 203.025 202.638V202.552C203.144 201.699 203.231 200.846 203.274 199.992V199.668C203.274 199.258 203.317 198.858 203.317 198.405V126.132C203.479 122.482 202.712 118.745 201.286 115.332L201.156 115.321ZM29.5045 126.283V124.944C29.5045 118.648 32.8764 112.805 38.3232 109.673L39.458 109.025L102.064 72.8885L103.199 72.2405C108.646 69.0761 115.39 69.0761 120.836 72.2405L121.971 72.8885L171.782 101.638L184.578 109.025C190.748 112.6 194.574 119.177 194.574 126.316V149.697L124.446 190.175C117.378 194.279 108.646 194.279 101.535 190.175L29.7855 148.769C29.699 148.725 29.6234 148.65 29.5369 148.607V126.272H29.4937L29.5045 126.283ZM29.5045 169.85L64.2822 189.905L95.2449 207.768C100.649 210.89 106.787 212.52 113.001 212.52C119.215 212.52 125.354 210.9 130.757 207.768L194.661 170.908V191.774L124.457 232.295C117.389 236.399 108.657 236.399 101.546 232.295L29.7423 190.877C29.6558 190.834 29.5802 190.759 29.4937 190.715V169.85H29.5045Z" fill="black"/>
<path d="M39.4909 109.023L38.3562 109.671C32.9093 112.836 29.5375 118.646 29.5375 124.942V126.282C29.4942 119.175 33.32 112.555 39.4909 109.023Z" fill="#131718"/>
<path d="M101.578 232.451C108.646 236.555 117.379 236.555 124.49 232.451L194.694 191.93V171.064L130.747 207.924C125.344 211.045 119.205 212.676 112.991 212.676C106.777 212.676 100.638 211.056 95.2346 207.924L64.2718 190.061L29.4941 170.006V190.871C29.5806 190.914 29.6562 190.99 29.7427 191.033L101.568 232.451H101.578Z" fill="#F2ED6E"/>
<path d="M101.578 190.347C108.646 194.451 117.378 194.451 124.489 190.347L194.693 149.826V126.444C194.693 119.295 190.878 112.717 184.697 109.153L171.901 101.766L122.09 73.017C115.919 69.4422 108.322 69.4422 102.14 73.017L39.5338 109.153C33.3629 112.728 29.5371 119.305 29.5371 126.444V148.778C29.6236 148.821 29.6992 148.897 29.7857 148.94L101.578 190.358V190.347ZM153.053 139.48C153.053 142.363 149.238 144.674 144.526 144.674C139.814 144.674 135.999 142.363 135.999 139.48C135.999 136.596 139.814 134.285 144.526 134.285C149.238 134.285 153.053 136.596 153.053 139.48ZM132.206 97.576C137.977 97.576 142.602 104.067 142.602 112.113C142.602 120.159 137.934 126.649 132.206 126.649C126.478 126.649 121.809 120.159 121.809 112.113C121.809 104.067 126.478 97.576 132.206 97.576ZM91.9489 97.576C97.7199 97.576 102.345 104.067 102.345 112.113C102.345 120.159 97.6767 126.649 91.9489 126.649C86.2211 126.649 81.5523 120.159 81.5523 112.113C81.5523 104.067 86.2211 97.576 91.9489 97.576ZM79.6719 134.274C84.3838 134.274 88.1988 136.585 88.1988 139.469C88.1988 142.352 84.3838 144.663 79.6719 144.663C74.9599 144.663 71.145 142.352 71.145 139.469C71.145 136.585 74.9599 134.274 79.6719 134.274Z" fill="#F2ED6E"/>
<path d="M132.205 126.607C137.976 126.607 142.602 120.116 142.602 112.07C142.602 104.024 137.933 97.5332 132.205 97.5332C126.477 97.5332 121.809 104.024 121.809 112.07C121.809 120.116 126.477 126.607 132.205 126.607Z" fill="#131718"/>
<path d="M135.99 139.48C135.99 142.363 139.805 144.675 144.517 144.675C149.229 144.675 153.044 142.363 153.044 139.48C153.044 136.596 149.229 134.285 144.517 134.285C139.805 134.285 135.99 136.596 135.99 139.48Z" fill="#EE2467"/>
<path d="M91.9493 126.607C97.7204 126.607 102.346 120.116 102.346 112.07C102.346 104.024 97.6771 97.5332 91.9493 97.5332C86.2215 97.5332 81.5527 104.024 81.5527 112.07C81.5527 120.116 86.2215 126.607 91.9493 126.607Z" fill="#131718"/>
<path d="M79.6734 144.675C84.3853 144.675 88.2003 142.363 88.2003 139.48C88.2003 136.596 84.3853 134.285 79.6734 134.285C74.9614 134.285 71.1465 136.596 71.1465 139.48C71.1465 142.363 74.9614 144.675 79.6734 144.675Z" fill="#EE2467"/>
<path fill-rule="evenodd" clip-rule="evenodd" d="M33.4989 247.455C103.798 267.403 131.065 267.562 194.148 247.154C171.43 249.548 139.001 243.692 110.305 198C83.4198 240.807 55.8633 248.16 33.4989 247.455Z" fill="white"/>
<path d="M24.9461 165C18.2794 178 4.80462 215.5 4.80469 239C16.8047 246.5 27.3047 246.943 33.4989 247.455C55.8633 248.16 83.4198 240.807 110.305 198C139.001 243.692 171.43 249.548 194.148 247.154C209.805 245 212.305 242.235 218.305 239C218.305 214.5 202.613 178 195.946 165C98.3047 202 128.805 204 24.9461 165Z" fill="#F490B6"/>
<path d="M4.80469 239C4.80462 215.5 18.2794 178 24.9461 165C128.805 204 98.3047 202 195.946 165C202.613 178 218.305 214.5 218.305 239M4.80469 239C11.58 243.285 21.5908 247.08 33.4989 247.455M4.80469 239C16.8047 246.5 27.3047 246.943 33.4989 247.455M218.305 239C212.387 242.743 204.047 246.111 194.148 247.154M218.305 239C212.305 242.235 209.805 245 194.148 247.154M33.4989 247.455C103.798 267.403 131.065 267.562 194.148 247.154M33.4989 247.455C55.8633 248.16 83.4198 240.807 110.305 198C139.001 243.692 171.43 249.548 194.148 247.154" stroke="black" stroke-width="9.61"/>
<path d="M109.71 192.691C138.873 169.79 199.995 128.477 211.177 146.44C222.359 164.403 148.192 184.759 109.71 192.691Z" fill="white" stroke="black" stroke-width="9.61"/>
<path d="M107.483 192.691C78.3202 169.79 17.1988 128.477 6.01662 146.44C-5.16552 164.403 69.0017 184.759 107.483 192.691Z" fill="white" stroke="black" stroke-width="9.61"/>
<path d="M117.033 34.9443L132.292 60.0127L145.808 52.1025L152.027 48.4609L151.756 55.6631L150.933 77.4688L150.833 80.1191L148.343 81.0322C117.564 92.3177 86.3575 85.7707 74.3438 80.9941L71.7539 79.9639L71.8535 77.1787L72.6758 54.1387L72.9238 47.1992L78.7656 50.9541L92.8389 60.001L110.41 34.7422L113.877 29.7588L117.033 34.9443Z" fill="#FFEB96" stroke="black" stroke-width="7.90766"/>
<circle cx="112.805" cy="28" r="11" fill="#5ED9E7" stroke="black" stroke-width="9"/>
</svg>
