<svg width="31" height="31" viewBox="0 0 31 31" fill="none" xmlns="http://www.w3.org/2000/svg">
<g clip-path="url(#clip0_326_2804)">
<path d="M31 0H0V31H31V0Z" fill="#BA8A43"/>
<path d="M29.1631 1.83496H1.83496V29.1631H29.1631V1.83496Z" fill="#E2B266"/>
<path d="M10.4424 9.64795V8.56445H21.2773V10.7314H23.4443V15.0654H21.2773V17.2324H19.1103V19.3994H12.6094V17.2324H16.9434V15.0654H19.1103V12.8984H12.6094V15.0654H8.27539V10.7314H10.4424V9.64795ZM12.6094 22.6499V21.5664H19.1103V23.7334H12.6094V22.6499Z" fill="#08002A"/>
<path d="M8.99804 8.34814V7.26465H19.833V9.43164H22V13.7656H19.833V15.9326H17.666V18.0996H11.165V15.9326H15.499V13.7656H17.666V11.5986H11.165V13.7656H6.83105V9.43164H8.99804V8.34814ZM11.165 21.3501V20.2666H17.666V22.4336H11.165V21.3501Z" fill="#B46F00"/>
<path d="M6.15687 2.85547H3.05566V3.97267H6.15687V2.85547Z" fill="#BA8A43"/>
<path d="M27.8922 2.85547H24.791V3.97267H27.8922V2.85547Z" fill="#BA8A43"/>
<path d="M6.2096 27.3203H3.1084V28.4375H6.2096V27.3203Z" fill="#BA8A43"/>
<path d="M27.9469 27.3203H24.8457V28.4375H27.9469V27.3203Z" fill="#BA8A43"/>
</g>
<defs>
<clipPath id="clip0_326_2804">
<rect width="31" height="31" fill="white"/>
</clipPath>
</defs>
</svg>
