<svg width="68" height="68" viewBox="0 0 68 68" fill="none" xmlns="http://www.w3.org/2000/svg">
<g clip-path="url(#clip0_500_2420)">
<path d="M65.5697 30.52H61.6097V20.54V18.54H59.6097H55.1297V14.37V12.37H53.1297H49.0797V2V0H47.0797H20.6997H18.6997V2V12.37H14.5297H12.5297V14.37V18.54H8.59969H6.59969V20.54V30.52H2.42969H0.429688V32.52V53.06V55.06H2.42969H6.59969V59.24V61.24H8.59969H9.67969V65.41V67.41H11.6797H25.8597H27.8597V65.41V61.24H40.1697V65.41V67.41H42.1697H56.3397H58.3397V65.41V61.24H59.1797H61.1797V59.24V55.06H65.5697H67.5697V53.06V32.52V30.52H65.5697Z" fill="white"/>
<path d="M61.5697 36.52V49.06H55.1797V55.24H52.3397V61.41H46.1697V55.24H43.0797V49.06H37.0397V55.24H30.8697V49.06H24.6997V55.24H21.8597V61.41H15.6797V55.24H12.5997V49.06H6.42969V36.52H12.5997V24.54H18.5297V18.37H24.6997V6H43.0797V18.37H49.1297V24.54H55.6097V36.52H61.5697Z" fill="#FB3E01"/>
<path d="M59.6097 32.52V20.54H53.1297V14.37H47.0797V2H20.6997V14.37H14.5297V20.54H8.59969V32.52H2.42969V53.06H8.59969V59.24H11.6797V65.41H25.8597V59.24H42.1697V65.41H56.3397V59.24H59.1797V53.06H65.5697V32.52H59.6097ZM61.5697 49.06H55.1797V55.24H52.3397V61.41H46.1697V55.24H43.0797V49.06H37.0397V55.24H30.8697V49.06H24.6997V55.24H21.8597V61.41H15.6797V55.24H12.5997V49.06H6.42969V36.52H12.5997V24.54H18.5297V18.37H24.6997V6H43.0797V18.37H49.1297V24.54H55.6097V36.52H61.5697V49.06Z" fill="#1D1D1B"/>
<path d="M24.9395 36.5195H18.7695V42.6895H24.9395V36.5195Z" fill="#5665FF"/>
<path d="M49.4493 36.5195H43.2793V42.6895H49.4493V36.5195Z" fill="#5665FF"/>
<path d="M37.0391 36.5195H30.8691V42.6895H37.0391V36.5195Z" fill="#5665FF"/>
</g>
<defs>
<clipPath id="clip0_500_2420">
<rect width="67.14" height="67.41" fill="white" transform="translate(0.429688)"/>
</clipPath>
</defs>
</svg>
