<svg width="605" height="355" viewBox="0 0 605 355" fill="none" xmlns="http://www.w3.org/2000/svg">
<g clip-path="url(#clip0_198_1461)">
<path d="M307.37 337.86C400.667 337.86 476.3 262.227 476.3 168.93C476.3 75.6325 400.667 0 307.37 0C214.072 0 138.44 75.6325 138.44 168.93C138.44 262.227 214.072 337.86 307.37 337.86Z" fill="#E23532"/>
<path d="M272.43 202.98C240.36 184.84 189.67 188.33 165.03 217.3C160.99 222.05 156.86 229.67 153.46 238.55C174.98 286.42 218.15 322.45 270.5 334.19C312.18 299.9 328.41 234.65 272.43 202.99V202.98Z" fill="#FC5C5A"/>
<path d="M220.76 80.51C199.97 79.02 175.31 100 170.8 119.81C163.92 150.03 191.21 150.4 213.2 151.55C234.25 152.65 262.06 147.61 266.14 121.32C270.21 95.06 246 82.32 220.76 80.51Z" fill="#FC5C5A"/>
<path d="M418.35 104.78C409.93 81.66 394.68 62.55 378.39 45.25C369.29 35.58 299.77 12.26 315.95 60.86C320.28 73.88 325.31 90.71 332.2 101.34C345.93 122.52 360.53 159.33 388.21 159.12C415.54 158.91 426.41 126.9 418.36 104.79L418.35 104.78Z" fill="#FC5C5A"/>
<path d="M452.93 193.52C452.06 189.53 444.78 165.82 444.78 165.82C423.07 135.23 371.57 229.62 381.28 249.8C402.54 293.98 461.02 230.58 452.92 193.52H452.93Z" fill="#FC5C5A"/>
<path opacity="0.2" d="M157 91.05C113.82 173.76 145.86 275.81 228.56 318.99C298.19 355.35 381.53 338.38 431.91 282.75C426.81 278.92 419.69 276.3 410.28 275.5C375.24 272.51 338.94 285.53 303.93 283.35C230.52 278.79 164.3 235.43 182.95 153.59C190.51 120.42 213.98 87.08 244.39 72.55C279.41 55.82 309.12 77.21 336.6 98.17C363.94 119.02 398.91 168.11 437.32 168.14C447.5 168.14 473.27 161.33 472.81 138.17C463.58 89.01 432.71 44.42 384.94 19.48C302.23 -23.7 200.18 8.34001 157 91.04V91.05Z" fill="white"/>
<path d="M167.85 57.08C167.85 57.08 110.41 43.48 95.2901 67.66C80.1701 91.84 148.42 162.41 282.72 219.57C430.1 282.3 514.58 290.46 535.91 267.94C549.51 253.58 491.32 203.7 491.32 203.7L495.1 193.12C495.1 193.12 591.84 251.31 555.56 292.13C519.28 332.94 366.9 301.43 273.65 255.1C148.96 193.12 27.9601 99.65 49.2001 60.1C71.1201 19.29 173.15 49.52 173.15 49.52L167.86 57.08H167.85Z" fill="#7F27A2"/>
<path d="M104.37 31.3801C98.3199 32.8901 15.4099 26.7001 28.7899 70.6801C39.3699 105.45 110.53 186.84 247.21 253.58C408.19 332.18 473.14 329.23 520.05 330.67C618.3 333.69 573.71 264.92 573.71 264.92C573.71 264.92 638.46 330.5 579.76 346.54C466.39 377.53 302.02 313.22 225.3 271.72C133.09 221.84 31.8099 149.29 6.11988 91.8501C-12.3801 50.5001 14.6799 31.0901 39.3699 23.8301C65.0699 16.2701 104.37 31.3901 104.37 31.3901V31.3801Z" fill="#7F27A2"/>
<path opacity="0.6" d="M118.16 129.45C111.18 119.49 101.63 113.37 94.3399 103.36C88.1399 94.85 76.6399 87.61 74.1599 77.46C70.8799 64.05 78.2699 57.72 89.2499 53.31C94.2999 51.29 98.8499 49.09 104.37 47.98C107.08 47.43 122.88 47.83 114.19 42.1C110.48 39.66 100.52 42.89 96.7699 43.44C91.0699 44.28 85.5499 44.97 79.4299 44.99L75.6499 46.5C64.3899 49.29 56.1299 60.57 57.4899 72.21C58.9599 84.74 63.4499 95.3 74.1699 102.23C94.9399 115.66 105.44 141.26 127.83 153.63C130.9 155.33 133.12 156.99 136.75 156.73C139.21 143.55 124.7 138.78 118.16 129.45Z" fill="#240059"/>
<path opacity="0.6" d="M70.9298 144.94C67.3398 141.52 64.4698 137.73 61.5198 134C56.9298 128.19 50.9798 126.28 46.3298 120.53C33.4298 104.59 21.8898 80.78 18.9298 61.62C17.7098 53.74 19.0798 43.6 25.6098 38.76C31.9698 34.05 41.3998 33.11 47.6198 28.18C44.6198 25.84 38.9998 26.51 35.5998 28.37L30.3098 31.39C17.1798 32.05 9.61979 50.13 9.10979 60.87C8.53979 72.94 17.7398 83.44 21.9998 94.88C26.9398 108.15 28.3898 117.45 39.1898 127.57C48.9498 136.72 56.9898 144.82 67.2998 153.23C70.2398 155.62 81.8798 164.53 81.5498 155.33C81.4398 152.29 73.1398 147.05 70.9398 144.95L70.9298 144.94Z" fill="#240059"/>
<path opacity="0.3" d="M544.65 268.7C533.44 283.38 514.44 288.29 495.91 288.03C477.37 287.77 459.58 281.95 441.5 280.1C422.68 278.18 405 276.52 387.15 272.1C368.71 267.54 350.82 262.81 333.56 254.31C326.94 251.05 316 242.71 308.87 242.44C291.92 241.81 313.44 249.13 316.81 252.89L321.34 255.16C328 268.69 357.61 272.94 371.21 275.31C393.51 279.2 415.43 284.77 438.16 288.09C457.29 290.89 475.7 296.34 494.78 298.29C509.8 299.82 532.39 297.42 544.37 287.75C549.45 283.66 557.37 276.54 557.18 269.95C556.79 256.31 549.12 262.84 544.65 268.7Z" fill="#240059"/>
</g>
<defs>
<clipPath id="clip0_198_1461">
<rect width="604.36" height="354.71" fill="white"/>
</clipPath>
</defs>
</svg>
