<?xml version="1.0" encoding="UTF-8"?><svg id="Capa_1" xmlns="http://www.w3.org/2000/svg" xmlns:xlink="http://www.w3.org/1999/xlink" viewBox="0 0 1438.19 372.75"><defs><style>.cls-1{clip-path:url(#clippath);}.cls-2{fill:none;}.cls-2,.cls-3,.cls-4,.cls-5,.cls-6{stroke-width:0px;}.cls-3{fill:url(#Degradado_sin_nombre);fill-opacity:.9;}.cls-4{fill:#f9fdff;}.cls-5{fill:#240059;}.cls-6{fill:#e23532;}</style><linearGradient id="Degradado_sin_nombre" x1="719.09" y1="372.75" x2="719.09" y2="127.31" gradientUnits="userSpaceOnUse"><stop offset="0" stop-color="#eaf7ff"/><stop offset="1" stop-color="#eaf7ff" stop-opacity=".79"/></linearGradient><clipPath id="clippath"><rect class="cls-2" x="665.53" width="106.12" height="139.04"/></clipPath></defs><path class="cls-3" d="M1438.18,349.72h.01c0-9.47-7.63-17.16-17.09-17.22-80.02-.5-413.45-1.44-415.89-1.41-41.53.53-69.96-11.14-79.11-26.2-20.65-34-103.91-21.79-116.18-37.92-12.27-16.13,9.68-34-31.63-55.36-21.68-11.21-33.75-30.71-40.33-46.7-5.95-14.47-7.41-26.08-7.41-26.08-.66-.44-7.57-.29-11.94-.14-4.37-.15-11.28-.31-11.94.14,0,0-1.46,11.61-7.42,26.08-6.58,16-18.66,35.49-40.34,46.7-41.31,21.36-19.36,39.23-31.63,55.36-12.27,16.13-95.5,3.92-116.16,37.92-9.97,16.42-45.94,27.55-83.14,27.08-1.2-.02-331.16.38-410.8.62-9.48.03-17.15,7.72-17.16,17.2l-.02,22.96h1438.16l.02-23.03Z"/><g class="cls-1"><path class="cls-6" d="M733.62,124.39l-14.84.64-14.84-.64s-6.09,4.79-5.96,14.64h41.59c.13-9.85-5.96-14.64-5.96-14.64h.01Z"/><path class="cls-6" d="M741.36,78.78s.2,9.85,9.01,13.48c8.8,3.63,21.09,9.85,21.29,33.69h-34.6l4.3-47.17Z"/><path class="cls-6" d="M695.83,78.78s-.2,9.85-9.01,13.48c-8.8,3.63-21.09,9.85-21.29,33.69h34.6l-4.3-47.17Z"/><path class="cls-4" d="M742.54,126.99s8.14-94.91-23.95-126.99c-32.08,32.08-23.94,126.99-23.94,126.99h47.89Z"/><path class="cls-5" d="M723.79,60.68c6.82-2.8,10.08-10.6,7.28-17.42-2.8-6.82-10.6-10.08-17.42-7.28-6.82,2.8-10.08,10.6-7.28,17.42,2.8,6.82,10.6,10.08,17.42,7.28Z"/><path class="cls-5" d="M718.72,85.13c3.79,0,6.87-3.08,6.87-6.87s-3.08-6.87-6.87-6.87-6.87,3.08-6.87,6.87,3.08,6.87,6.87,6.87Z"/></g></svg>