<?xml version="1.0" encoding="UTF-8"?><svg id="Capa_1" xmlns="http://www.w3.org/2000/svg" xmlns:xlink="http://www.w3.org/1999/xlink" viewBox="0 0 429.63 356.2"><defs><style>.cls-1{fill:rgba(234,247,255,.85);}.cls-1,.cls-2,.cls-3,.cls-4,.cls-5{stroke-width:0px;}.cls-6{clip-path:url(#clippath);}.cls-2{fill:none;}.cls-3{fill:#f9fdff;}.cls-4{fill:#240059;}.cls-5{fill:#e23532;}</style><clipPath id="clippath"><rect class="cls-2" x="161.07" width="106.12" height="139.04"/></clipPath></defs><path class="cls-1" d="M429.26,333.18c-17.43-2.72-36.34-10.01-47.14-27.79h-.02c-20.65-34-63.89-21.79-76.16-37.92-12.27-16.13,9.68-34-31.63-55.36-21.68-11.21-33.75-30.71-40.33-46.7-5.95-14.47-7.44-26.38-7.44-26.38h-23.85s-1.46,11.91-7.42,26.38c-6.58,16-18.66,35.49-40.34,46.7-41.31,21.36-19.36,39.23-31.63,55.36-12.27,16.13-55.5,3.92-76.16,37.92C36.35,323.18,17.43,330.47,0,333.19v.71s0,22.3,0,22.3h429.63l-.37-22.3v-.71Z"/><g class="cls-6"><path class="cls-5" d="M229.16,124.39l-14.84.64-14.84-.64s-6.09,4.79-5.96,14.64h41.59c.13-9.85-5.96-14.64-5.96-14.64h.01Z"/><path class="cls-5" d="M236.9,78.78s.2,9.85,9.01,13.48c8.8,3.63,21.09,9.85,21.29,33.69h-34.6l4.3-47.17Z"/><path class="cls-5" d="M191.37,78.78s-.2,9.85-9.01,13.48c-8.8,3.63-21.09,9.85-21.29,33.69h34.6l-4.3-47.17Z"/><path class="cls-3" d="M238.08,126.99S246.22,32.08,214.13,0c-32.08,32.08-23.94,126.99-23.94,126.99h47.89Z"/><path class="cls-4" d="M219.32,60.68c6.82-2.8,10.08-10.6,7.28-17.42-2.8-6.82-10.6-10.08-17.42-7.28-6.82,2.8-10.08,10.6-7.28,17.42,2.8,6.82,10.6,10.08,17.42,7.28Z"/><path class="cls-4" d="M214.26,85.13c3.79,0,6.87-3.08,6.87-6.87s-3.08-6.87-6.87-6.87-6.87,3.08-6.87,6.87,3.08,6.87,6.87,6.87Z"/></g></svg>