<?xml version="1.0" encoding="UTF-8"?><svg id="Capa_1" xmlns="http://www.w3.org/2000/svg" viewBox="0 0 429.26 186.19"><defs><style>.cls-1{fill:rgba(234,247,255,.85);stroke-width:0px;}</style></defs><path class="cls-1" d="M0,1.1c0,20.9,11.23,39.98,29.11,50.8,7.03,4.26,13.32,10.02,18.04,17.8h.02c20.65,34,63.89,21.8,76.16,37.93s7.11,18.49,31.63,31.86c14.92,8.13,24.52,19.62,31.69,31.48,5.71,9.44,16.95,15.22,27.99,15.22,13.71,0,21.28-5.78,26.99-15.22,7.17-11.86,17.93-23.09,32.7-31.48,25.67-14.58,19.36-15.73,31.63-31.86s55.5-3.93,76.16-37.93c4.72-7.78,11-13.54,18.03-17.8,17.88-10.84,29.11-29.92,29.11-50.84V0S0,0,0,0v1.1Z"/></svg>