<svg version="1.2" xmlns="http://www.w3.org/2000/svg" viewBox="0 0 1439 305" width="1439" height="305">
	<title>Mask group(1)-svg</title>
	<defs>
		<clipPath clipPathUnits="userSpaceOnUse" id="cp1">
			<path d="m1438.72-860.82c0-9.46-7.63-17.15-17.09-17.21-80.02-0.5-413.45-1.44-415.89-1.41-41.53 0.53-69.96-11.14-79.11-26.2-20.65-34-103.91-21.79-116.18-37.93-12.27-16.13 9.68-34-31.63-55.35-21.68-11.21-33.75-30.71-40.33-46.7-5.95-14.47-7.41-26.08-7.41-26.08-0.66-0.44-7.57-0.29-11.94-0.14-4.37-0.15-11.28-0.31-11.94 0.14 0 0-1.46 11.61-7.42 26.08-6.58 16-18.66 35.49-40.34 46.7-41.31 21.35-19.36 39.23-31.63 55.35-12.27 16.14-95.5 3.93-116.16 37.93-9.97 16.42-45.94 27.55-83.14 27.07-1.2-0.01-331.16 0.39-410.8 0.62-9.48 0.04-17.15 7.73-17.16 17.21l-0.55 862.53c-0.04 66.21 50.18 121.63 116.07 128.08 111.16 10.89 276.42 28.61 364.09 38.1 39.29 4.25 77.26 16.68 111.46 36.48l29.91 10.65c8.27 2.94 14.65 9.65 17.14 18.07 2.21 7.48 7.54 16.86 20.15 23.73 14.63 7.97 24.15 19.18 31.27 30.79 6.06 9.88 16.81 15.92 28.41 15.92 13.71 0 21.28-5.78 26.99-15.23 7.17-11.86 17.93-23.09 32.7-31.48 12.83-7.29 18.25-16.51 20.46-23.92 2.58-8.66 9.02-15.63 17.57-18.54l28.33-9.62c34.61-20.15 73.1-32.73 112.93-36.91 88.1-9.26 253.4-26.56 364.95-37.8 65.67-6.62 115.67-61.87 115.72-127.89l0.56-863.03z"/>
		</clipPath>
	</defs>
	<style>
		.s0 { fill: #ebf7ff } 
	</style>
	<g id="Clip-Path" clip-path="url(#cp1)">
		<g id="Layer">
			<path id="Layer" class="s0" d="m0 0h1439v412.1h-1439z"/>
		</g>
	</g>
</svg>