<svg version="1.2" xmlns="http://www.w3.org/2000/svg" viewBox="0 0 1439 228" width="1439" height="228">
	<title>Mask group-svg</title>
	<defs>
		<clipPath clipPathUnits="userSpaceOnUse" id="cp1">
			<path d="m1438.72 211.19c0-9.47-7.63-17.16-17.09-17.22-80.02-0.5-413.45-1.44-415.89-1.41-41.53 0.53-69.96-11.15-79.11-26.21-20.65-34-103.91-21.79-116.18-37.91-12.27-16.13 9.68-34-31.63-55.36-21.68-11.21-33.75-30.71-40.33-46.7-5.95-14.47-7.41-26.08-7.41-26.08-0.66-0.44-7.57-0.29-11.94-0.14-4.37-0.15-11.28-0.31-11.94 0.14 0 0-1.46 11.61-7.42 26.08-6.58 16-18.66 35.49-40.34 46.7-41.31 21.36-19.36 39.23-31.63 55.35-12.27 16.13-95.5 3.92-116.16 37.92-9.97 16.43-45.94 27.55-83.14 27.08-1.2-0.02-331.16 0.38-410.8 0.63-9.48 0.03-17.15 7.72-17.16 17.19l-0.55 862.54c-0.04 66.21 50.18 121.62 116.07 128.07 111.16 10.89 276.42 28.61 364.09 38.1 39.29 4.25 77.26 16.68 111.46 36.48l29.91 10.65c8.27 2.94 14.65 9.66 17.14 18.08 2.21 7.48 7.54 16.86 20.15 23.73 14.63 7.97 24.15 19.18 31.27 30.79 6.06 9.88 16.81 15.91 28.41 15.91 13.71 0 21.28-5.78 26.99-15.22 7.17-11.86 17.93-23.09 32.7-31.48 12.83-7.29 18.25-16.52 20.46-23.93 2.58-8.66 9.02-15.62 17.57-18.53l28.33-9.62c34.61-20.15 73.1-32.73 112.93-36.91 88.1-9.26 253.4-26.57 364.95-37.81 65.67-6.62 115.67-61.87 115.72-127.88l0.56-863.03z"/>
		</clipPath>
	</defs>
	<style>
		.s0 { fill: #ebf7ff } 
	</style>
	<g id="Clip-Path" clip-path="url(#cp1)">
		<g id="Layer">
			<path id="Layer" class="s0" d="m0 0h1439v228.1h-1439z"/>
		</g>
	</g>
</svg>