<?xml version="1.0" encoding="UTF-8"?><svg id="Capa_1" xmlns="http://www.w3.org/2000/svg" xmlns:xlink="http://www.w3.org/1999/xlink" viewBox="0 0 1438.16 314.58"><defs><style>.cls-1{fill:url(#Degradado_sin_nombre_3);fill-opacity:.9;stroke-width:0px;}</style><linearGradient id="Degradado_sin_nombre_3" x1="719.08" y1="314.58" x2="719.08" y2="-15.08" gradientUnits="userSpaceOnUse"><stop offset="0" stop-color="#eaf7ff"/><stop offset="1" stop-color="#eaf7ff" stop-opacity=".79"/></linearGradient></defs><path class="cls-1" d="M730.15,0H.01v12.76c-.05,66.21,50.17,121.63,116.06,128.08,111.16,10.89,276.42,28.61,364.09,38.1,39.29,4.25,77.26,16.68,111.46,36.48l29.91,10.65c8.27,2.94,14.65,9.65,17.14,18.07,2.21,7.48,7.54,16.86,20.15,23.73,14.63,7.97,24.15,19.18,31.27,30.79,6.06,9.88,16.81,15.92,28.41,15.92,13.71,0,21.28-5.78,26.99-15.23,7.17-11.86,17.93-23.09,32.7-31.48,12.83-7.29,18.25-16.51,20.46-23.92,2.58-8.66,9.02-15.63,17.57-18.54l28.33-9.62c34.61-20.15,73.1-32.73,112.93-36.91,88.1-9.26,253.4-26.56,364.95-37.8,65.67-6.62,115.67-61.87,115.72-127.88V0s-708,0-708,0"/></svg>