<svg width="480" height="120" viewBox="0 0 480 120" fill="none" xmlns="http://www.w3.org/2000/svg">
<rect width="40" height="40" fill="black"/>
<rect x="40" width="40" height="40" fill="white"/>
<rect x="80" width="40" height="40" fill="black"/>
<rect x="120" width="40" height="40" fill="white"/>
<rect x="160" width="40" height="40" fill="black"/>
<rect x="200" width="40" height="40" fill="white"/>
<rect x="240" width="40" height="40" fill="black"/>
<rect x="280" width="40" height="40" fill="white"/>
<rect x="320" width="40" height="40" fill="black"/>
<rect x="360" width="40" height="40" fill="white"/>
<rect x="400" width="40" height="40" fill="black"/>
<rect x="440" width="40" height="40" fill="white"/>
<rect y="40" width="40" height="40" fill="white"/>
<rect x="40" y="40" width="40" height="40" fill="black"/>
<rect x="80" y="40" width="40" height="40" fill="white"/>
<rect x="120" y="40" width="40" height="40" fill="black"/>
<rect x="160" y="40" width="40" height="40" fill="white"/>
<rect x="200" y="40" width="40" height="40" fill="black"/>
<rect x="240" y="40" width="40" height="40" fill="white"/>
<rect x="280" y="40" width="40" height="40" fill="black"/>
<rect x="320" y="40" width="40" height="40" fill="white"/>
<rect x="360" y="40" width="40" height="40" fill="black"/>
<rect x="400" y="40" width="40" height="40" fill="white"/>
<rect x="440" y="40" width="40" height="40" fill="black"/>
<rect y="80" width="40" height="40" fill="black"/>
<rect x="40" y="80" width="40" height="40" fill="white"/>
<rect x="80" y="80" width="40" height="40" fill="black"/>
<rect x="120" y="80" width="40" height="40" fill="white"/>
<rect x="160" y="80" width="40" height="40" fill="black"/>
<rect x="200" y="80" width="40" height="40" fill="white"/>
<rect x="240" y="80" width="40" height="40" fill="black"/>
<rect x="280" y="80" width="40" height="40" fill="white"/>
<rect x="320" y="80" width="40" height="40" fill="black"/>
<rect x="360" y="80" width="40" height="40" fill="white"/>
<rect x="400" y="80" width="40" height="40" fill="black"/>
<rect x="440" y="80" width="40" height="40" fill="white"/>
</svg>
