<svg width="563" height="794" viewBox="0 0 563 794" fill="none" xmlns="http://www.w3.org/2000/svg">
<path d="M14.7578 705.331V370.233C14.7578 334.185 27.7146 299.477 51.0604 273.211C91.4802 227.72 164.203 164.227 261.911 153.429C368.147 141.703 457.192 197.078 506.864 247.107C533.354 273.785 548.244 310.865 548.244 349.55V694.754C548.244 694.754 540.083 746.211 512.044 747.905C458.432 751.131 491.96 651.929 473.277 633.456C462.062 622.378 444.619 618.385 427.84 636.137C411.917 653.004 421.79 776.086 362.362 775.217C312.114 774.481 331.387 650.692 312.513 615.542C290.776 575.045 238.373 576.931 232.042 631.158C216.827 761.635 157.991 712.137 149.269 642.56C146.377 619.475 111.889 618.385 106.901 653.608C100.349 699.88 96.66 764.611 55.6499 758.026C26.0765 753.267 14.7578 743.235 14.7578 705.331Z" fill="white" stroke="white" stroke-width="5" stroke-miterlimit="10"/>
<path d="M512.678 297.297L375.038 217.997C375.983 186.987 378.123 147.345 380.735 137.401C386.549 114.317 401.719 95.3867 415.355 82.2461C419.266 83.4247 423.294 84.0286 427.441 84.0286C438.701 84.0286 449.252 79.6534 457.191 71.7131C465.131 63.7875 469.528 53.2545 469.528 42.0143C469.528 18.8122 450.684 0 427.441 0C404.199 0 385.354 18.8122 385.354 42.0143V44.1504C365.786 62.1376 342.912 89.715 333.895 125.689C330.811 137.755 328.922 166.407 327.845 190.788C313.619 183.098 297.726 179.076 281.611 179.076C264.537 179.076 247.817 183.57 233.119 192.099L226.832 195.767C225.652 173.523 223.866 149.613 221.49 138.963C212.592 98.7307 176.082 81.5685 150.243 74.4679C144.428 58.0128 128.786 46.5369 110.531 46.5369C87.2887 46.5369 68.4438 65.3491 68.4438 88.5512C68.4438 111.753 87.2887 130.566 110.531 130.566C120.492 130.566 129.848 127.133 137.33 120.857C150.612 124.643 170.519 132.805 174.194 149.142C176.333 158.614 178.34 193.042 179.654 222.755L50.3073 297.312C20.3355 314.577 1.83008 346.648 1.83008 381.193V591.736C1.83008 593.032 1.83008 594.226 1.94814 595.404V596.465C1.94814 597.29 2.06619 598.247 2.06619 599.072C2.06619 599.426 2.18425 599.897 2.18425 600.251C2.30231 601.194 2.42036 602.151 2.53842 603.094L2.65648 603.919C3.01065 606.409 3.36482 608.884 3.95511 611.373L4.07316 612.08C4.30928 613.141 4.54539 614.099 4.78151 615.159L4.89957 615.866C5.13568 616.927 5.48985 618.12 5.84402 619.299V619.534C12.957 643.326 28.8504 663.317 50.3073 675.632L233.001 780.963C247.699 789.477 264.537 793.985 281.493 793.985C298.449 793.985 315.287 789.492 329.985 780.963L512.678 675.632C538.046 660.96 555.828 634.914 560.226 605.687V605.569C560.698 602.726 560.934 599.765 561.052 596.936V595.994C561.17 594.579 561.17 593.15 561.17 591.736V381.193C561.17 346.751 542.68 314.562 512.678 297.282V297.297ZM547.771 381.193V591.854C547.771 593.032 547.771 594.226 547.653 595.522V596.465C547.535 598.955 547.299 601.429 546.944 603.919V604.155C546.236 608.884 545.159 613.391 543.742 617.885C539.831 629.714 533.309 640.601 524.661 649.719C522.521 651.973 520.16 654.095 517.784 656.113C514.11 659.192 510.199 661.917 506.052 664.274L323.359 769.605C322.532 770.076 321.824 770.547 320.983 770.901C318.607 772.197 316.128 773.391 313.516 774.451C311.863 775.158 310.077 775.748 308.425 776.352C306.639 776.941 304.986 777.412 303.215 777.884C300.603 778.591 297.873 779.18 295.158 779.666C290.657 780.373 286.141 780.727 281.522 780.727C279.737 780.727 277.848 780.609 276.062 780.491C274.277 780.373 272.388 780.138 270.602 779.902C267.046 779.43 263.371 778.723 259.933 777.766C258.147 777.294 256.376 776.823 254.723 776.234C249.514 774.451 244.526 772.212 239.789 769.487L57.0956 664.156C54.7197 662.86 52.4766 661.313 50.3368 659.781C48.197 658.249 46.072 656.584 44.0503 654.817C41.0841 652.209 38.236 649.366 35.6387 646.42C34.3401 644.887 33.1447 643.341 31.9642 641.809C31.3739 640.984 30.7836 640.276 30.1786 639.437C27.3304 635.415 24.9693 631.158 22.8295 626.65C22.0031 624.867 21.2948 623.1 20.5717 621.199C19.8486 619.299 19.273 617.531 18.668 615.631V615.513C18.4319 614.57 18.0777 613.495 17.8416 612.552C17.8416 612.316 17.7235 612.198 17.7235 611.962C17.4874 611.138 17.2513 610.18 17.1332 609.237C17.1332 609.001 17.0152 608.884 17.0152 608.648C16.543 606.512 16.1888 604.39 15.9527 602.254C15.9527 602.019 15.9527 601.783 15.8346 601.547C15.7166 600.722 15.5985 599.897 15.5985 599.058C15.5985 598.704 15.5985 598.351 15.4804 597.997C15.3624 597.29 15.3624 596.465 15.3624 595.743V594.8C15.3624 593.74 15.2443 592.664 15.2443 591.604V468.875V380.943C15.2443 378.335 15.3624 375.742 15.5985 373.135C15.5985 372.899 15.5985 372.664 15.7166 372.428C15.9527 369.938 16.3068 367.463 16.7791 364.974C16.8971 364.62 16.8971 364.267 17.0152 363.913C17.8416 359.891 19.0369 355.87 20.4536 351.966C21.0439 350.434 21.6342 348.887 22.3573 347.355C22.7114 346.648 23.0656 345.823 23.4198 345.101C24.2462 343.451 25.0726 341.786 25.9137 340.254C27.6994 337.057 29.7063 333.979 31.9642 331.017C32.6725 330.075 33.4989 328.999 34.222 328.056C34.8123 327.349 35.4026 326.642 36.0076 325.92C36.5979 325.213 37.3063 324.506 37.9113 323.784C39.0919 322.488 40.4053 321.177 41.7039 319.998C42.4122 319.409 43.0025 318.82 43.7256 318.098C45.1423 316.919 46.4557 315.726 47.9904 314.665C50.9566 312.412 53.9228 310.408 57.2432 308.508L193.584 229.93C193.23 219.986 192.64 207.449 191.932 195.016C191.814 192.88 191.696 190.876 191.578 188.858C191.341 184.719 191.105 180.697 190.751 176.793C190.633 175.968 190.633 175.143 190.515 174.303C190.279 171.814 190.161 169.339 189.925 167.085C189.807 166.26 189.807 165.553 189.689 164.831C189.452 162.459 189.334 160.338 189.098 158.202C188.862 155.594 188.508 153.237 188.272 151.219C188.154 150.748 188.154 150.158 188.036 149.687C187.8 148.273 187.564 146.962 187.327 145.901C181.513 119.635 150.818 109.455 133.154 105.669C131.132 108.159 128.771 110.398 126.159 112.181C125.215 112.77 124.373 113.241 123.311 113.831C122.366 114.302 121.289 114.773 120.345 115.127C119.282 115.48 118.323 115.834 117.261 116.07C115.121 116.541 112.878 116.895 110.62 116.895C107.654 116.895 104.805 116.423 102.09 115.598C101.146 115.363 100.305 115.009 99.4781 114.656C98.1795 114.066 96.9842 113.477 95.8036 112.755C94.2689 111.812 92.7194 110.737 91.4207 109.441C90.1221 108.144 88.8087 106.833 87.7462 105.419C86.9198 104.358 86.2115 103.165 85.4884 101.986C84.662 100.336 83.8356 98.6718 83.3486 96.904C82.5222 94.1787 82.0499 91.3355 82.0499 88.3892C82.0499 84.9567 82.6402 81.6421 83.8356 78.5633C84.0717 77.974 84.3078 77.2669 84.662 76.6629C84.8981 75.9558 85.2522 75.3665 85.6064 74.7625C86.3148 73.584 87.0231 72.3907 87.8643 71.3301C88.4545 70.623 89.0448 69.9158 89.6499 69.194C90.004 68.8404 90.2402 68.4869 90.5943 68.2512C91.5388 67.3084 92.6161 66.3508 93.6786 65.5258C94.3869 64.9366 95.2133 64.4652 95.9364 63.9938C96.5267 63.6402 96.9989 63.4045 97.5892 63.0509C98.7698 62.4617 99.8471 61.9903 101.146 61.5189C101.736 61.2832 102.326 61.0475 103.049 60.9296C103.758 60.8118 104.348 60.5761 104.953 60.4582C106.857 60.1046 108.864 59.8689 110.885 59.8689C125.702 59.8689 137.921 70.9912 139.455 85.4281C142.067 86.0174 145.033 86.7245 147.985 87.5642C148.929 87.7999 150.007 88.1535 151.069 88.507C151.777 88.7427 152.486 88.9784 153.209 89.2141C155.467 89.9213 157.71 90.7462 159.968 91.5859C162.226 92.4256 164.587 93.4863 166.845 94.547C169.102 95.6076 171.464 96.8009 173.721 97.9794C174.43 98.4508 175.256 98.8044 175.979 99.2758C177.514 100.101 178.945 101.058 180.48 102.119C182.738 103.533 184.863 105.198 186.885 106.848C187.711 107.437 188.419 108.144 189.261 108.866C190.795 110.28 192.227 111.709 193.643 113.123C195.901 115.495 197.908 117.97 199.812 120.695C200.874 122.228 201.834 123.774 202.66 125.424C203.959 127.914 205.272 130.389 206.217 133.114C206.689 134.41 207.161 135.839 207.633 137.254C208.105 138.668 208.46 140.097 208.814 141.629C211.78 155.005 213.787 192.88 214.864 218.203L240.232 203.649C241.058 203.177 241.767 202.706 242.608 202.352C243.449 201.999 244.261 201.527 245.102 201.056C256.597 195.37 269.289 192.423 282.098 192.423C283.883 192.423 285.772 192.541 287.558 192.659C290.288 192.895 293.018 193.13 295.733 193.602C298.464 194.073 301.076 194.662 303.791 195.384C304.617 195.62 305.576 195.856 306.403 196.091C308.188 196.563 309.841 197.152 311.612 197.874C312.439 198.227 313.265 198.581 314.106 198.817C317.426 200.231 320.747 201.778 323.949 203.663L340.905 213.489C341.731 188.873 343.753 143.78 347.428 128.989C347.782 127.457 348.254 126.028 348.608 124.614C349.081 123.2 349.435 121.653 349.907 120.239C350.497 118.338 351.206 116.453 351.929 114.552C352.991 111.827 354.187 109.102 355.367 106.391C357.271 102.369 359.278 98.4655 361.536 94.7974C363.793 91.1292 366.037 87.4611 368.412 84.0286C371.969 79.0641 375.643 74.3206 379.318 70.0632C380.026 69.2382 380.735 68.4132 381.576 67.5735C382.284 66.8664 382.874 66.0414 383.598 65.3196C384.778 64.0232 385.973 62.7121 387.272 61.5336C387.98 60.8265 388.571 60.2372 389.294 59.5154C391.197 57.615 393.086 55.8472 394.872 54.1826C396.776 52.5326 398.547 50.868 400.332 49.3359C399.742 46.9641 399.388 44.6071 399.388 41.9996C399.388 41.2925 399.388 40.5854 399.506 39.9814C399.624 38.5671 399.742 37.256 400.096 35.9597C400.214 35.2526 400.45 34.6633 400.568 34.0593C400.804 33.2343 401.04 32.4094 401.395 31.5697C401.867 30.509 402.339 29.4336 402.811 28.3729C403.52 27.1944 404.228 26.0012 405.069 24.9405C405.659 24.2334 406.25 23.5263 406.855 22.8044C407.209 22.4509 407.445 22.0973 407.799 21.8616C408.153 21.508 408.508 21.2723 408.744 20.9188C409.57 20.2117 410.397 19.5045 411.356 18.7827C412.182 18.1934 413.009 17.6042 413.968 17.1328C414.204 17.0149 414.558 16.7792 414.794 16.6614C416.816 15.6007 418.941 14.761 421.081 14.2896C422.733 13.936 424.401 13.5825 426.054 13.4646H428.076C443.969 13.4646 456.763 26.2516 456.763 42.1027C456.763 46.1244 455.937 49.9104 454.388 53.4607C454.151 53.9321 453.915 54.4035 453.679 54.8749C453.089 56.1713 452.263 57.3646 451.539 58.5431C451.185 59.0145 450.949 59.3681 450.595 59.8395C450.005 60.6644 449.296 61.3716 448.573 62.2113C447.865 62.9184 447.039 63.6255 446.315 64.3473C445.253 65.1723 444.176 65.9973 442.995 66.7191C441.815 67.4409 440.619 68.0155 439.321 68.6195C438.494 68.973 437.535 69.3266 436.709 69.5623C433.978 70.3873 431.13 70.8587 428.179 70.8587C427.352 70.8587 426.526 70.8587 425.685 70.7408C424.859 70.623 424.032 70.5051 423.191 70.3872C421.538 70.1515 419.989 69.6801 418.572 69.2087C417.391 68.7373 416.196 68.2659 415.134 67.6766C414.543 67.4409 414.071 67.0874 413.481 66.7338C410.397 69.3413 407.194 72.4202 403.992 75.6169C401.498 78.1066 399.019 80.6993 396.643 83.5425C395.816 84.4853 394.99 85.4429 394.149 86.3857C392.732 88.0356 391.419 89.8181 390.002 91.5859C389.53 92.1752 389.058 92.7644 388.704 93.3684C387.877 94.4291 387.051 95.6224 386.21 96.683C384.188 99.6441 382.181 102.605 380.395 105.802C379.451 107.334 378.61 108.999 377.665 110.649C376.839 112.298 376.012 113.963 375.171 115.613C373.991 118.103 372.913 120.695 371.851 123.421C371.497 124.246 371.142 125.203 370.906 126.146C370.316 127.929 369.726 129.814 369.121 131.597C368.885 132.54 368.649 133.497 368.412 134.44C368.176 135.265 367.94 136.34 367.822 137.519C367.468 139.891 366.996 142.719 366.642 145.916C366.523 147.212 366.405 148.523 366.169 149.938C366.051 151.352 365.933 152.781 365.815 154.195C365.697 155.977 365.461 157.745 365.343 159.646C365.225 160.706 365.225 161.782 365.107 162.842C364.871 166.157 364.635 169.589 364.398 173.022C364.162 177.279 363.926 181.772 363.69 186.162V186.869C363.572 188.888 363.454 191.009 363.336 193.027C363.218 194.324 363.218 195.753 363.1 197.049C362.982 199.067 362.982 201.071 362.864 203.089V203.678C362.746 205.696 362.746 207.582 362.628 209.482C362.628 210.307 362.628 211.014 362.51 211.854C362.51 213.386 362.392 214.815 362.392 216.347C362.392 217.761 362.273 219.073 362.273 220.487C362.273 221.783 362.155 223.094 362.155 224.391V226.173L506.79 309.495C507.853 310.084 508.812 310.673 509.874 311.395C510.937 312.117 511.896 312.691 512.841 313.413C513.903 314.12 514.98 314.945 515.925 315.667C516.633 316.256 517.342 316.846 518.065 317.317C523.038 321.339 527.435 325.95 531.228 331.047C534.548 335.304 537.397 339.93 539.758 344.777C540.584 346.427 541.292 348.091 542.016 349.741C545.69 359.214 547.948 370.1 547.948 381.223L547.771 381.193Z" fill="white"/>
<path d="M323.343 203.678C320.141 201.895 316.938 200.245 313.5 198.831C316.82 200.245 320.141 201.792 323.343 203.678Z" fill="#010101"/>
<path d="M410.736 18.6939C411.563 18.1046 412.389 17.5154 413.348 17.0439C412.404 17.5154 411.563 18.1046 410.736 18.6939Z" fill="#010101"/>
<path d="M456.128 41.8969C456.128 45.9186 455.301 49.7046 453.752 53.2549C455.287 49.8225 456.128 45.9186 456.128 41.8969C456.128 26.031 443.319 13.2588 427.44 13.2588C443.333 13.2588 456.128 26.1636 456.128 41.8969Z" fill="#010101"/>
<path d="M505.934 308.891C506.996 309.48 507.955 310.069 509.018 310.791C508.073 310.202 506.996 309.495 505.934 308.891Z" fill="#010101"/>
<path d="M403.137 75.3812C406.457 72.0666 409.659 69.1055 412.626 66.498C409.659 69.1055 406.457 72.1844 403.137 75.3812Z" fill="#010101"/>
<path d="M393.307 86.165C391.89 87.815 390.577 89.5975 389.16 91.3653C390.577 89.5828 391.89 87.815 393.307 86.165Z" fill="#010101"/>
<path d="M281.508 780.624C286.127 780.624 290.643 780.271 295.143 779.563C290.643 780.153 286.009 780.624 281.508 780.624Z" fill="#010101"/>
<path d="M138.998 85.3248C141.61 85.9141 144.577 86.6212 147.528 87.4609C144.562 86.6359 141.596 85.9288 138.998 85.3248Z" fill="#010101"/>
<path d="M214.288 218.233L239.655 203.678C240.482 203.207 241.19 202.735 242.031 202.382C241.205 202.853 240.378 203.207 239.655 203.678L214.288 218.233C213.225 192.909 211.203 155.035 208.237 141.658C211.203 155.035 213.21 192.909 214.288 218.233Z" fill="#010101"/>
<path d="M346.823 128.886C347.178 127.354 347.65 125.925 348.004 124.511C347.65 125.925 347.296 127.354 346.823 128.886C343.031 143.676 341.127 188.77 340.301 213.386C341.127 188.77 343.149 143.676 346.823 128.886Z" fill="#1E1E1C"/>
<path d="M398.752 41.8962C398.752 41.189 398.752 40.4819 398.87 39.8779C398.752 40.585 398.752 41.2922 398.752 41.8962C398.752 44.3858 399.106 46.8607 399.696 49.2324C399.106 46.9785 398.752 44.5036 398.752 41.8962Z" fill="#1E1E1C"/>
<path d="M18.668 615.645C19.2583 617.546 19.8485 619.431 20.5716 621.214C19.8633 619.313 19.273 617.546 18.668 615.645Z" fill="#1E1E1C"/>
<path d="M17.7229 612.095C17.4868 611.27 17.2507 610.312 17.1326 609.37C17.1326 609.134 17.0146 609.016 17.0146 608.78C16.5423 606.644 16.1882 604.523 15.952 602.387C15.952 602.151 15.952 601.915 15.834 601.68C15.834 601.915 15.834 602.151 15.952 602.387C16.1882 604.523 16.5423 606.644 17.0146 608.78C17.0146 609.016 17.1326 609.134 17.1326 609.37C17.2507 610.312 17.4868 611.152 17.7229 612.095C17.7229 612.331 17.841 612.448 17.841 612.684C18.0771 613.627 18.3132 614.702 18.6674 615.645C18.4312 614.702 18.0771 613.627 17.841 612.684C17.841 612.448 17.7229 612.213 17.7229 612.095Z" fill="#1E1E1C"/>
<path d="M133.081 106.037C131.059 108.527 128.698 110.766 126.086 112.548C128.816 110.766 131.177 108.527 133.081 106.037C150.745 109.823 181.455 120.003 187.254 146.269C187.49 147.33 187.727 148.523 187.963 150.055C187.727 148.641 187.49 147.33 187.254 146.269C181.558 120.003 150.745 109.823 133.081 106.037Z" fill="#1E1E1C"/>
<path d="M15.4657 598.247C15.3477 597.54 15.3477 596.715 15.3477 595.993C15.3477 596.7 15.3477 597.525 15.4657 598.247C15.4657 598.601 15.4657 598.954 15.5838 599.308C15.7018 600.133 15.7018 600.958 15.8199 601.797C15.7018 600.972 15.5838 600.147 15.5838 599.308C15.4657 598.954 15.4657 598.601 15.4657 598.247Z" fill="#1E1E1C"/>
<path d="M15.2285 542.032V469.126V591.854C15.2285 592.915 15.2285 593.99 15.3466 595.051C15.3466 593.99 15.2285 592.915 15.2285 591.854V542.032Z" fill="#1E1E1C"/>
<path d="M427.441 70.652C426.615 70.652 425.788 70.652 424.947 70.5342C425.774 70.5342 426.6 70.652 427.441 70.652Z" fill="#1E1E1C"/>
<path d="M403.136 75.3809C400.642 77.8705 398.163 80.4632 395.787 83.3064C398.281 80.4632 400.642 77.8558 403.136 75.3809Z" fill="#1E1E1C"/>
<path d="M361.536 219.897C361.536 221.194 361.418 222.505 361.418 223.801C361.536 222.623 361.536 221.312 361.536 219.897Z" fill="#1E1E1C"/>
<path d="M408.123 20.7122C408.949 20.0051 409.776 19.298 410.735 18.5762C409.791 19.2833 408.949 19.9904 408.123 20.7122Z" fill="#1E1E1C"/>
<path d="M361.049 94.6799C363.189 90.8939 365.55 87.3436 367.926 83.9111C365.55 87.3436 363.189 91.0117 361.049 94.6799Z" fill="#1E1E1C"/>
<path d="M402.191 28.285C402.9 27.1065 403.608 25.9132 404.449 24.8525C403.623 25.9132 402.915 27.1065 402.191 28.285Z" fill="#1E1E1C"/>
<path d="M367.099 137.165C366.744 139.537 366.272 142.365 365.918 145.562C366.272 142.365 366.626 139.404 367.099 137.165Z" fill="#1E1E1C"/>
<path d="M365.918 145.562C365.799 146.859 365.681 148.17 365.445 149.584C365.563 148.17 365.681 146.859 365.918 145.562Z" fill="#1E1E1C"/>
<path d="M310.55 225.569L307.23 223.669C291.336 214.432 271.665 214.432 255.772 223.669L252.451 225.569C270.352 215.154 292.517 215.154 310.55 225.569Z" fill="#1E1E1C"/>
<path d="M541.381 349.241C540.672 347.591 539.964 345.926 539.123 344.276C536.747 339.429 533.913 334.804 530.593 330.546C526.801 325.582 522.3 320.956 517.43 316.816C516.721 316.227 516.013 315.638 515.29 315.166C514.227 314.342 513.15 313.634 512.206 312.913C511.261 312.191 510.184 311.616 509.239 310.894C508.295 310.172 507.218 309.598 506.155 308.994L361.52 225.672V223.89C361.52 222.711 361.639 221.4 361.639 219.986C361.639 218.69 361.757 217.261 361.757 215.846C361.757 214.432 361.875 212.885 361.875 211.353C361.875 210.646 361.875 209.821 361.993 208.982C362.111 207.081 362.111 205.196 362.229 203.177V202.588C362.347 200.57 362.347 198.566 362.465 196.548C362.465 195.252 362.583 193.941 362.701 192.526C362.819 190.508 362.937 188.387 363.055 186.369V185.662C363.291 181.286 363.527 176.911 363.764 172.521C364 169.089 364.236 165.656 364.472 162.342C364.59 161.281 364.59 160.206 364.708 159.145C364.826 157.244 365.062 155.477 365.18 153.694C365.298 152.162 365.416 150.733 365.534 149.437C365.652 148.023 365.771 146.711 366.007 145.415C366.361 142.1 366.715 139.257 367.187 137.018C367.423 135.84 367.659 134.882 367.777 133.939C368.014 132.996 368.25 132.039 368.486 131.096C368.958 129.196 369.548 127.428 370.271 125.645C370.626 124.703 370.862 123.863 371.216 122.92C372.16 120.313 373.356 117.72 374.536 115.112C375.363 113.462 376.189 111.798 377.03 110.148C377.857 108.498 378.816 106.951 379.76 105.301C381.664 102.104 383.553 99.1433 385.575 96.1823C386.401 95.0038 387.227 93.9284 388.069 92.8677C388.541 92.2784 389.013 91.6892 389.367 91.0852C390.666 89.3027 392.097 87.6527 393.514 85.8849C394.34 84.9421 395.167 83.9846 396.008 83.0418C398.502 80.1986 400.981 77.5911 403.357 75.1162C406.677 71.8016 409.88 68.8406 412.846 66.2331C413.436 66.5866 413.908 66.8223 414.499 67.1759C415.561 67.7652 416.756 68.2366 417.937 68.708C419.472 69.2972 421.021 69.6508 422.556 69.8865C423.382 70.0044 424.209 70.1222 425.05 70.2401C425.876 70.3579 426.703 70.3579 427.544 70.3579C430.51 70.3579 433.358 69.8865 436.074 69.0615C437.018 68.8258 437.859 68.4723 438.686 68.1187C439.984 67.5295 441.18 66.9402 442.36 66.2184C443.541 65.4965 444.618 64.6863 445.68 63.8466C446.507 63.1395 447.215 62.5502 447.938 61.7105C448.647 61.0034 449.355 60.1784 449.96 59.3387C450.314 58.9852 450.55 58.5138 450.904 58.0424C451.731 56.8638 452.439 55.6706 453.044 54.3742C453.28 53.9028 453.517 53.4314 453.753 52.96C455.287 49.5275 456.129 45.6237 456.129 41.602C456.129 25.7361 443.319 12.9639 427.441 12.9639H425.419C423.766 13.0817 421.98 13.3174 420.446 13.7888C418.188 14.3781 416.063 15.2031 414.159 16.1606C413.923 16.2785 413.569 16.5142 413.333 16.632C412.388 17.1034 411.547 17.6927 410.721 18.2819C409.776 18.8712 408.935 19.5783 408.109 20.418C407.755 20.7716 407.4 21.0073 407.164 21.3608C406.81 21.7144 406.574 22.068 406.22 22.3037C405.63 23.0108 405.039 23.7179 404.434 24.4397C403.608 25.5004 402.899 26.6937 402.176 27.8722C401.586 28.9328 401.114 29.8904 400.76 31.0689C400.406 31.8939 400.169 32.7188 399.933 33.5585C399.697 34.1478 399.579 34.8549 399.461 35.4589C399.225 36.7553 398.989 38.0664 398.871 39.4806C398.871 40.1877 398.753 40.8948 398.753 41.4988C398.753 43.9885 399.107 46.4634 399.697 48.8351C397.912 50.3672 396.141 51.914 394.237 53.6818C392.333 55.3317 390.563 57.2321 388.659 59.0146L386.637 61.0329C385.457 62.2114 384.261 63.5225 382.963 64.8189C382.254 65.526 381.664 66.3509 380.941 67.0728C380.233 67.8977 379.524 68.7227 378.683 69.5624C375.008 73.8198 371.216 78.5634 367.777 83.5279C365.402 86.9603 363.04 90.5106 360.901 94.2966C358.761 98.0827 356.636 101.869 354.732 105.89C353.552 108.498 352.356 111.223 351.294 114.052C350.585 115.952 349.877 117.838 349.272 119.738C348.8 121.152 348.328 122.581 347.973 124.113C347.501 125.527 347.147 127.074 346.793 128.489C343 143.279 341.097 188.372 340.27 212.989L323.314 203.163C320.112 201.38 316.91 199.73 313.471 198.316C312.645 197.962 311.818 197.609 310.977 197.373C309.324 196.784 307.539 196.195 305.768 195.591C304.942 195.355 303.982 195.119 303.156 194.884C300.544 194.176 297.814 193.587 295.099 193.101C292.368 192.63 289.638 192.394 286.923 192.158C285.137 192.04 283.249 191.922 281.463 191.922C268.654 191.922 255.977 194.884 244.467 200.555C243.64 200.909 242.814 201.38 241.973 201.852C241.132 202.323 240.32 202.676 239.597 203.148L214.229 217.703C213.167 192.379 211.145 154.504 208.179 141.128C207.825 139.596 207.471 138.167 206.998 136.753C206.526 135.339 206.054 133.91 205.582 132.613C204.519 129.888 203.324 127.281 202.025 124.923C201.081 123.274 200.121 121.727 199.177 120.195C197.273 117.469 195.266 114.862 193.009 112.623C191.592 111.091 190.16 109.662 188.626 108.365C187.917 107.658 187.091 107.069 186.25 106.347C184.228 104.697 182.103 103.032 179.845 101.618C178.428 100.675 176.879 99.7179 175.344 98.775C174.636 98.3036 173.809 97.9501 173.086 97.4787C170.829 96.1823 168.467 95.1069 166.21 94.0462C163.952 92.9855 161.591 92.028 159.333 91.0852C157.075 90.1424 154.832 89.4352 152.574 88.7134C151.866 88.4777 151.157 88.242 150.434 88.0063C149.372 87.6527 148.412 87.417 147.35 87.0635C144.384 86.2385 141.418 85.5314 138.82 84.9274C137.286 70.6083 125.067 59.3682 110.25 59.3682C108.229 59.3682 106.222 59.6039 104.318 59.9574C103.728 60.0753 103.019 60.1932 102.414 60.4289C101.809 60.6646 101.234 60.7824 100.511 61.0181C99.3302 61.4895 98.1348 61.9609 96.9543 62.5502C96.364 62.7859 95.8918 63.1395 95.3015 63.493C94.4751 63.9644 93.7667 64.4358 93.0436 65.0251C91.9811 65.8501 90.9038 66.8076 89.9594 67.7504C89.6052 68.104 89.3691 68.4575 89.0149 68.6932C88.4246 69.4004 87.8343 70.1075 87.2293 70.8293C86.4029 71.89 85.6946 73.0832 84.9715 74.2618C84.6173 74.851 84.2631 75.5581 84.027 76.1621C83.7909 76.7514 83.4367 77.3407 83.2006 78.0625C82.02 81.1414 81.415 84.456 81.415 87.8884C81.415 90.8495 81.8872 93.6927 82.7136 96.4033C83.3039 98.1858 84.0122 99.9536 84.8534 101.486C85.5617 102.664 86.2701 103.857 87.1112 104.918C88.1738 106.332 89.4872 107.761 90.7858 108.94C92.0844 110.118 93.6339 111.312 95.1686 112.254C96.3492 112.961 97.5446 113.551 98.8432 114.155C99.6696 114.508 100.629 114.862 101.455 115.098C104.185 115.923 107.033 116.394 109.985 116.394C112.243 116.394 114.486 116.158 116.626 115.569C117.688 115.333 118.765 114.98 119.71 114.626C120.772 114.273 121.732 113.801 122.676 113.33C123.62 112.858 124.58 112.269 125.524 111.68C128.254 109.897 130.615 107.776 132.519 105.169C150.183 108.955 180.893 119.134 186.692 145.4C186.929 146.461 187.165 147.654 187.401 149.186C187.519 149.658 187.519 150.129 187.637 150.718C187.873 152.737 188.227 155.094 188.463 157.701C188.699 159.719 188.936 161.959 189.054 164.33C189.172 165.037 189.172 165.862 189.29 166.584C189.526 168.956 189.644 171.313 189.88 173.803C189.998 174.628 189.998 175.453 190.116 176.292C190.352 180.196 190.588 184.218 190.943 188.357C191.061 190.376 191.179 192.497 191.297 194.515C192.005 206.949 192.477 219.485 192.95 229.429L56.6082 308.007C53.4059 309.907 50.3217 311.911 47.3555 314.165C45.9388 315.225 44.5074 316.419 43.0907 317.597C42.3823 318.186 41.792 318.776 41.0689 319.498C39.7703 320.676 38.4569 321.987 37.2764 323.284C36.6861 323.991 35.9777 324.698 35.3727 325.42C34.7824 326.127 34.1921 326.834 33.5871 327.556C32.7607 328.499 32.0523 329.456 31.3292 330.517C29.0714 333.478 27.0644 336.557 25.2788 339.753C24.3343 341.403 23.4932 342.95 22.7848 344.6C22.4307 345.307 22.0765 346.132 21.7223 346.854C21.014 348.386 20.4237 349.933 19.8186 351.465C18.402 355.369 17.2066 359.273 16.3802 363.412C16.2622 363.766 16.2622 364.119 16.1441 364.473C15.6719 366.963 15.3177 369.437 15.0816 371.927C15.0816 372.163 15.0816 372.398 14.9635 372.634C14.7274 375.242 14.6094 377.834 14.6094 380.442V468.374V591.103C14.6094 592.163 14.6094 593.239 14.7274 594.3V595.242C14.7274 595.949 14.8455 596.774 14.8455 597.496C14.8455 597.85 14.8455 598.203 14.9635 598.557C15.0816 599.382 15.0816 600.207 15.1997 601.047C15.1997 601.282 15.1997 601.518 15.3177 601.754C15.5538 603.89 15.908 606.011 16.3802 608.147C16.3802 608.383 16.4983 608.501 16.4983 608.736C16.7344 609.679 16.8525 610.519 17.0886 611.462C17.0886 611.697 17.2066 611.815 17.2066 612.051C17.4427 612.994 17.6789 614.069 18.033 615.012V615.13C18.6233 617.03 19.2136 618.916 19.9367 620.698C20.645 622.599 21.3534 624.367 22.1946 626.149C24.2163 630.642 26.6955 634.9 29.5436 638.936C30.1339 639.761 30.7242 640.586 31.3292 641.308C32.5098 642.84 33.7051 644.387 35.0038 645.919C37.6158 648.88 40.3458 651.723 43.4153 654.316C45.4371 656.098 47.444 657.748 49.7019 659.28C51.9597 660.812 54.0847 662.241 56.4606 663.656L239.154 768.986C243.891 771.711 248.879 773.951 254.088 775.733C255.874 776.322 257.527 776.794 259.298 777.265C262.854 778.208 266.411 778.915 269.967 779.401C271.753 779.637 273.642 779.873 275.427 779.99C277.213 780.108 279.102 780.226 280.887 780.226C285.506 780.226 290.022 779.873 294.523 779.165C297.253 778.694 299.865 778.105 302.58 777.383C304.366 776.912 306.137 776.44 307.79 775.851C309.575 775.262 311.228 774.672 312.881 773.951C315.375 772.89 317.854 771.697 320.348 770.4C321.174 769.929 322.001 769.575 322.724 769.104L505.417 663.773C509.564 661.402 513.475 658.691 517.149 655.612C519.525 653.594 521.886 651.473 524.026 649.219C532.674 640.1 539.197 629.213 543.107 617.384C544.524 612.891 545.601 608.383 546.309 603.654V603.418C546.664 600.929 546.9 598.454 547.018 595.964V595.021C547.018 593.843 547.136 592.65 547.136 591.353V380.692C547.608 370.041 545.365 359.155 541.203 349.211L541.381 349.241ZM40.4787 381.193V377.289C40.4787 358.949 50.3217 341.904 66.2004 332.785L69.5207 330.885L252.214 225.555L255.535 223.654C271.428 214.418 291.099 214.418 306.993 223.654L310.313 225.555L455.656 309.348L493.007 330.885C511.025 341.3 522.167 360.466 522.167 381.296V449.459L317.544 567.459C296.914 579.406 271.428 579.406 250.679 567.459L41.3198 446.763C41.0837 446.645 40.8476 446.41 40.6115 446.292V381.193H40.4934H40.4787ZM40.4787 508.194L141.964 566.663L232.307 618.739C248.067 627.858 265.983 632.587 284.119 632.587C302.256 632.587 320.156 627.858 335.932 618.739L522.418 511.273V572.099L317.559 690.217C296.928 702.164 271.443 702.164 250.694 690.217L41.2018 569.492C40.9656 569.374 40.7295 569.138 40.4934 569.02V508.194H40.4787Z" fill="#1E1E1C"/>
<path d="M69.6543 330.899L66.334 332.8C50.4405 342.036 40.6123 358.948 40.6123 377.304V381.208C40.4942 360.495 51.6358 341.211 69.6543 330.914V330.899Z" fill="#1E1E1C"/>
<path d="M250.798 690.688C271.429 702.635 296.915 702.635 317.663 690.688L522.522 572.57V511.744L335.918 619.21C320.157 628.329 302.242 633.058 284.105 633.058C265.969 633.058 248.068 628.329 232.293 619.21L141.95 567.134L40.4648 508.665V569.491C40.701 569.609 40.9371 569.845 41.1732 569.963L250.784 690.673L250.798 690.688Z" fill="white"/>
<path d="M250.798 567.959C271.429 579.907 296.915 579.907 317.663 567.959L522.522 449.842V381.679C522.522 360.849 511.38 341.683 493.362 331.268L456.011 309.73L310.668 225.937C292.65 215.522 270.485 215.522 252.451 225.937L69.7578 331.268C51.7393 341.683 40.5977 360.849 40.5977 381.679V446.778C40.8338 446.896 41.0699 447.131 41.306 447.249L250.798 567.959ZM401.012 419.657C401.012 428.054 389.87 434.801 376.116 434.801C362.363 434.801 351.221 428.054 351.221 419.657C351.221 411.26 362.363 404.513 376.116 404.513C389.87 404.513 401.012 411.26 401.012 419.657ZM340.183 297.533C357.02 297.533 370.538 316.463 370.538 339.9C370.538 363.338 356.902 382.268 340.183 382.268C323.463 382.268 309.827 363.338 309.827 339.9C309.827 316.463 323.463 297.533 340.183 297.533ZM222.701 297.533C239.539 297.533 253.056 316.463 253.056 339.9C253.056 363.338 239.421 382.268 222.701 382.268C205.981 382.268 192.345 363.338 192.345 339.9C192.345 316.463 205.981 297.533 222.701 297.533ZM186.9 404.513C200.654 404.513 211.795 411.26 211.795 419.657C211.795 428.054 200.654 434.801 186.9 434.801C173.146 434.801 162.005 428.054 162.005 419.657C162.005 411.26 173.146 404.513 186.9 404.513Z" fill="white"/>
<path d="M340.182 382.151C357.02 382.151 370.537 363.221 370.537 339.783C370.537 316.345 356.901 297.415 340.182 297.415C323.462 297.415 309.826 316.345 309.826 339.783C309.826 363.221 323.462 382.151 340.182 382.151Z" fill="#1E1E1C"/>
<path d="M351.221 419.657C351.221 428.054 362.362 434.801 376.116 434.801C389.87 434.801 401.011 428.054 401.011 419.657C401.011 411.26 389.87 404.513 376.116 404.513C362.362 404.513 351.221 411.26 351.221 419.657Z" fill="#E6155F"/>
<path d="M222.699 382.151C239.537 382.151 253.055 363.221 253.055 339.783C253.055 316.345 239.419 297.415 222.699 297.415C205.979 297.415 192.344 316.345 192.344 339.783C192.344 363.221 205.979 382.151 222.699 382.151Z" fill="#1E1E1C"/>
<path d="M186.899 434.815C200.653 434.815 211.795 428.068 211.795 419.671C211.795 411.274 200.653 404.527 186.899 404.527C173.146 404.527 162.004 411.274 162.004 419.671C162.004 428.068 173.146 434.815 186.899 434.815Z" fill="#E6155F"/>
<path d="M14.7578 705.331V370.233C14.7578 334.185 27.7146 299.477 51.0604 273.211C91.4802 227.72 164.203 164.227 261.911 153.429C368.147 141.703 457.192 197.078 506.864 247.107C533.354 273.785 548.244 310.865 548.244 349.55V694.754C548.244 694.754 540.083 746.211 512.044 747.905C458.432 751.131 491.96 651.929 473.277 633.456C462.062 622.378 444.619 618.385 427.84 636.137C411.917 653.004 421.79 776.086 362.362 775.217C312.114 774.481 331.387 650.692 312.513 615.542C290.776 575.045 238.373 576.931 232.042 631.158C216.827 761.635 157.991 712.137 149.269 642.56C146.377 619.475 111.889 618.385 106.901 653.608C100.349 699.88 96.66 764.611 55.6499 758.026C26.0765 753.267 14.7578 743.235 14.7578 705.331Z" fill="white"/>
<path d="M342.896 358.198C360.31 358.198 374.285 338.619 374.285 314.371C374.285 290.123 360.177 270.545 342.896 270.545C325.616 270.545 311.508 290.123 311.508 314.371C311.508 338.619 325.616 358.198 342.896 358.198Z" fill="#1E1E1C"/>
<path d="M354.305 397C354.305 405.692 365.83 412.675 380.056 412.675C394.282 412.675 405.807 405.692 405.807 397C405.807 388.309 394.282 381.326 380.056 381.326C365.83 381.326 354.305 388.309 354.305 397Z" fill="#E6155F"/>
<path d="M221.387 358.198C238.8 358.198 252.775 338.619 252.775 314.371C252.775 290.123 238.667 270.545 221.387 270.545C204.106 270.545 189.998 290.123 189.998 314.371C189.998 338.619 204.106 358.198 221.387 358.198Z" fill="#1E1E1C"/>
<path d="M184.361 412.675C198.586 412.675 210.112 405.692 210.112 397C210.112 388.309 198.586 381.326 184.361 381.326C170.135 381.326 158.609 388.309 158.609 397C158.609 405.692 170.135 412.675 184.361 412.675Z" fill="#E6155F"/>
</svg>
