<svg width="648" height="951" viewBox="0 0 648 951" fill="none" xmlns="http://www.w3.org/2000/svg">
<g filter="url(#filter0_d_895_2090)">
<mask id="path-1-outside-1_895_2090" maskUnits="userSpaceOnUse" x="3" y="696.073" width="641" height="192" fill="black">
<rect fill="white" x="3" y="696.073" width="641" height="192"/>
<path d="M12 717.389L317.684 879.957L445.874 840.547L635.694 705.073"/>
</mask>
<path d="M15.7564 710.326C11.8554 708.251 7.01132 709.732 4.93674 713.633C2.86215 717.534 4.3427 722.378 8.24363 724.452L15.7564 710.326ZM317.684 879.957L313.928 887.021C315.805 888.019 318.003 888.229 320.035 887.604L317.684 879.957ZM445.874 840.547L448.225 848.194C449.047 847.941 449.822 847.558 450.522 847.059L445.874 840.547ZM640.342 711.585C643.938 709.018 644.773 704.022 642.206 700.426C639.639 696.83 634.643 695.995 631.047 698.562L640.342 711.585ZM8.24363 724.452L313.928 887.021L321.441 872.894L15.7564 710.326L8.24363 724.452ZM320.035 887.604L448.225 848.194L443.523 832.9L315.333 872.311L320.035 887.604ZM450.522 847.059L640.342 711.585L631.047 698.562L441.227 834.035L450.522 847.059Z" fill="white" mask="url(#path-1-outside-1_895_2090)"/>
<path d="M148.393 827.453V850.547C148.393 852.757 150.184 854.547 152.393 854.547H200.162V887.495C200.162 889.704 201.953 891.495 204.162 891.495H251.931V912.126C251.931 914.335 253.722 916.126 255.931 916.126H303.7V934.295C303.7 936.504 305.491 938.295 307.7 938.295H332.352C334.561 938.295 336.352 936.504 336.352 934.295V916.126H384.121C386.33 916.126 388.121 914.335 388.121 912.126V891.495H408.773C410.975 891.495 412.763 889.715 412.773 887.513L412.878 864.252H485.194C487.403 864.252 489.194 862.461 489.194 860.252V827.453H536.963C539.172 827.453 540.963 825.662 540.963 823.453V786.505C540.963 785.282 540.404 784.126 539.444 783.368C538.484 782.609 537.231 782.331 536.04 782.613L391.049 816.99H332.352C330.143 816.99 328.352 818.78 328.352 820.99V842.409H311.7V820.99C311.7 818.78 309.909 816.99 307.7 816.99H256.648L104.479 760.586C103.251 760.131 101.879 760.306 100.804 761.054C99.7296 761.801 99.0889 763.028 99.0889 764.337V823.453C99.0889 825.662 100.88 827.453 103.089 827.453H148.393Z" stroke="white" stroke-width="8" stroke-linecap="round" stroke-linejoin="round"/>
<path d="M262.52 256.779C262.52 254.57 260.729 252.779 258.52 252.779H245.264V175.495C245.264 173.285 243.473 171.495 241.264 171.495H220.612V148.4C220.612 146.191 218.821 144.4 216.612 144.4H195.96V123.768C195.96 121.559 194.169 119.768 191.96 119.768H144.191V72.042C144.191 69.8329 142.4 68.042 140.191 68.042H63.7695C61.5604 68.042 59.7695 69.8329 59.7695 72.042V148.4C59.7695 150.609 61.5604 152.4 63.7695 152.4H160.843V173.031C160.843 175.241 162.633 177.031 164.843 177.031H187.96V209.979C187.96 212.188 189.751 213.979 191.96 213.979H212.612V320.821C212.612 323.03 214.402 324.821 216.612 324.821H258.52C260.729 324.821 262.52 323.03 262.52 320.821V256.779Z" stroke="white" stroke-width="8" stroke-linecap="round" stroke-linejoin="round"/>
<path d="M457.271 320.821V167.179H480.388C482.597 167.179 484.388 165.388 484.388 163.179V112.989H507.53C509.739 112.989 511.53 111.199 511.53 108.989V88.3579H583.926C586.135 88.3579 587.926 86.567 587.926 84.3579V8C587.926 5.79086 586.135 4 583.926 4H507.505C505.296 4 503.505 5.79086 503.505 8V55.7263H480.388C478.179 55.7263 476.388 57.5172 476.388 59.7263V80.3579H455.736C453.527 80.3579 451.736 82.1487 451.736 84.3579V107.453H431.084C428.875 107.453 427.084 109.243 427.084 111.453V235.537H411.362C409.153 235.537 407.362 237.328 407.362 239.537V320.821C407.362 323.03 409.153 324.821 411.362 324.821H453.271C455.48 324.821 457.271 323.03 457.271 320.821Z" stroke="white" stroke-width="8" stroke-linecap="round" stroke-linejoin="round"/>
<path d="M262.52 256.779C262.52 254.57 260.729 252.779 258.52 252.779H245.264V175.495C245.264 173.285 243.473 171.495 241.264 171.495H220.612V148.4C220.612 146.191 218.821 144.4 216.612 144.4H195.96V123.768C195.96 121.559 194.169 119.768 191.96 119.768H144.191V72.042C144.191 69.8329 142.4 68.042 140.191 68.042H63.7695C61.5604 68.042 59.7695 69.8329 59.7695 72.042V148.4C59.7695 150.609 61.5604 152.4 63.7695 152.4H160.843V173.031C160.843 175.241 162.633 177.031 164.843 177.031H187.96V209.979C187.96 212.188 189.751 213.979 191.96 213.979H212.612V320.821C212.612 323.03 214.402 324.821 216.612 324.821H258.52C260.729 324.821 262.52 323.03 262.52 320.821V256.779Z" stroke="white" stroke-width="8" stroke-linecap="round" stroke-linejoin="round"/>
<path d="M457.271 320.821V167.179H480.388C482.597 167.179 484.388 165.388 484.388 163.179V112.989H507.53C509.739 112.989 511.53 111.199 511.53 108.989V88.3579H583.926C586.135 88.3579 587.926 86.567 587.926 84.3579V8C587.926 5.79086 586.135 4 583.926 4H507.505C505.296 4 503.505 5.79086 503.505 8V55.7263H480.388C478.179 55.7263 476.388 57.5172 476.388 59.7263V80.3579H455.736C453.527 80.3579 451.736 82.1487 451.736 84.3579V107.453H431.084C428.875 107.453 427.084 109.243 427.084 111.453V235.537H411.362C409.153 235.537 407.362 237.328 407.362 239.537V320.821C407.362 323.03 409.153 324.821 411.362 324.821H453.271C455.48 324.821 457.271 323.03 457.271 320.821Z" stroke="white" stroke-width="8" stroke-linecap="round" stroke-linejoin="round"/>
<path d="M262.52 256.779C262.52 254.57 260.729 252.779 258.52 252.779H245.264V175.495C245.264 173.285 243.473 171.495 241.264 171.495H220.612V148.4C220.612 146.191 218.821 144.4 216.612 144.4H195.96V123.768C195.96 121.559 194.169 119.768 191.96 119.768H144.191V72.042C144.191 69.8329 142.4 68.042 140.191 68.042H63.7695C61.5604 68.042 59.7695 69.8329 59.7695 72.042V148.4C59.7695 150.609 61.5604 152.4 63.7695 152.4H160.843V173.031C160.843 175.241 162.633 177.031 164.843 177.031H187.96V209.979C187.96 212.188 189.751 213.979 191.96 213.979H212.612V320.821C212.612 323.03 214.402 324.821 216.612 324.821H258.52C260.729 324.821 262.52 323.03 262.52 320.821V256.779Z" stroke="white" stroke-width="8" stroke-linecap="round" stroke-linejoin="round"/>
<path d="M457.271 320.821V167.179H480.388C482.597 167.179 484.388 165.388 484.388 163.179V112.989H507.53C509.739 112.989 511.53 111.199 511.53 108.989V88.3579H583.926C586.135 88.3579 587.926 86.567 587.926 84.3579V8C587.926 5.79086 586.135 4 583.926 4H507.505C505.296 4 503.505 5.79086 503.505 8V55.7263H480.388C478.179 55.7263 476.388 57.5172 476.388 59.7263V80.3579H455.736C453.527 80.3579 451.736 82.1487 451.736 84.3579V107.453H431.084C428.875 107.453 427.084 109.243 427.084 111.453V235.537H411.362C409.153 235.537 407.362 237.328 407.362 239.537V320.821C407.362 323.03 409.153 324.821 411.362 324.821H453.271C455.48 324.821 457.271 323.03 457.271 320.821Z" stroke="white" stroke-width="8" stroke-linecap="round" stroke-linejoin="round"/>
<path d="M635.694 886.421C636.758 886.421 637.778 885.997 638.528 885.243C639.279 884.489 639.698 883.468 639.694 882.404C639.324 793.939 639.373 530.515 639.694 446.457C639.698 445.394 639.278 444.372 638.528 443.619C637.777 442.865 636.758 442.442 635.694 442.442H624.903V416.884C624.903 414.675 623.112 412.884 620.903 412.884H592.855V392.252C592.855 390.043 591.064 388.252 588.855 388.252H546.017V367.621C546.017 365.412 544.226 363.621 542.017 363.621H506.573V340.526C506.573 338.317 504.783 336.526 502.573 336.526H457.27V320.821C457.27 318.612 455.479 316.821 453.27 316.821H407.966V296.189C407.966 293.98 406.175 292.189 403.966 292.189H358.662V278.947C358.662 276.738 356.871 274.947 354.662 274.947H315.243C313.034 274.947 311.243 276.738 311.243 278.947V292.189H265.915C263.706 292.189 261.915 293.98 261.915 296.189V316.821H216.611C214.402 316.821 212.611 318.612 212.611 320.821V343.916H167.307C165.098 343.916 163.307 345.707 163.307 347.916V366.06C157.514 366.062 150.118 366.067 142.717 366.072L142.662 366.072C133.401 366.078 124.14 366.084 118.003 366.084C115.794 366.084 114.003 367.875 114.003 370.084V390.716H66.2339C64.0248 390.716 62.2339 392.507 62.2339 394.716V412.884H36.6516C34.4425 412.884 32.6516 414.675 32.6516 416.884V439.979H14.4648C12.2557 439.979 10.4648 441.77 10.4648 443.979V882.421C10.4648 884.63 12.2557 886.421 14.4648 886.421H29.256C31.4652 886.421 33.256 884.63 33.256 882.421V869.179H53.908C56.1171 869.179 57.908 867.388 57.908 865.179V842.084H78.5599C80.7691 842.084 82.5599 840.293 82.5599 838.084V817.452H105.677C107.886 817.452 109.677 815.661 109.677 813.452V792.821H141.12V810.989C141.12 813.198 142.911 814.989 145.12 814.989H163.307V830.694C163.307 832.904 165.098 834.694 167.307 834.694H187.959V855.351C187.959 857.56 189.75 859.351 191.959 859.351H212.611V882.421C212.611 884.63 214.402 886.421 216.611 886.421H243.728C245.937 886.421 247.728 884.63 247.728 882.421V859.326H270.845C273.054 859.326 274.845 857.535 274.845 855.326V827.305H295.497C297.706 827.305 299.497 825.514 299.497 823.305V807.6H345.731V830.694C345.731 832.904 347.522 834.694 349.731 834.694H365.453V857.789C365.453 859.998 367.244 861.789 369.453 861.789H392.57V882.421C392.57 884.63 394.361 886.421 396.57 886.421H421.222C423.431 886.421 425.222 884.63 425.222 882.421V861.789H448.339C450.548 861.789 452.339 859.998 452.339 857.789V837.158H472.991C475.2 837.158 476.991 835.367 476.991 833.158V815.072L497.659 814.989C499.862 814.98 501.643 813.192 501.643 810.989V792.821H533.086V813.452C533.086 815.661 534.877 817.452 537.086 817.452H557.738V838.084C557.738 840.293 559.529 842.084 561.738 842.084H582.39V862.814C582.39 863.878 582.814 864.897 583.567 865.648C584.321 866.399 585.342 866.818 586.406 866.814L607.042 866.732V882.421C607.042 884.63 608.833 886.421 611.042 886.421H635.694Z" stroke="white" stroke-width="8" stroke-linecap="round" stroke-linejoin="round"/>
<path d="M635.694 886.421C636.758 886.421 637.778 885.997 638.528 885.243C639.279 884.489 639.698 883.468 639.694 882.404C639.324 793.939 639.373 530.515 639.694 446.457C639.698 445.394 639.278 444.372 638.528 443.619C637.777 442.865 636.758 442.442 635.694 442.442H624.903V416.884C624.903 414.675 623.112 412.884 620.903 412.884H592.855V392.252C592.855 390.043 591.064 388.252 588.855 388.252H546.017V367.621C546.017 365.412 544.226 363.621 542.017 363.621H506.573V340.526C506.573 338.317 504.783 336.526 502.573 336.526H457.27V320.821C457.27 318.612 455.479 316.821 453.27 316.821H407.966V296.189C407.966 293.98 406.175 292.189 403.966 292.189H358.662V278.947C358.662 276.738 356.871 274.947 354.662 274.947H315.243C313.034 274.947 311.243 276.738 311.243 278.947V292.189H265.915C263.706 292.189 261.915 293.98 261.915 296.189V316.821H216.611C214.402 316.821 212.611 318.612 212.611 320.821V343.916H167.307C165.098 343.916 163.307 345.707 163.307 347.916V366.06C157.514 366.062 150.118 366.067 142.717 366.072L142.662 366.072C133.401 366.078 124.14 366.084 118.003 366.084C115.794 366.084 114.003 367.875 114.003 370.084V390.716H66.2339C64.0248 390.716 62.2339 392.507 62.2339 394.716V412.884H36.6516C34.4425 412.884 32.6516 414.675 32.6516 416.884V439.979H14.4648C12.2557 439.979 10.4648 441.77 10.4648 443.979V882.421C10.4648 884.63 12.2557 886.421 14.4648 886.421H29.256C31.4652 886.421 33.256 884.63 33.256 882.421V869.179H53.908C56.1171 869.179 57.908 867.388 57.908 865.179V842.084H78.5599C80.7691 842.084 82.5599 840.293 82.5599 838.084V817.452H105.677C107.886 817.452 109.677 815.661 109.677 813.452V792.821H141.12V810.989C141.12 813.198 142.911 814.989 145.12 814.989H163.307V830.694C163.307 832.904 165.098 834.694 167.307 834.694H187.959V855.351C187.959 857.56 189.75 859.351 191.959 859.351H212.611V882.421C212.611 884.63 214.402 886.421 216.611 886.421H243.728C245.937 886.421 247.728 884.63 247.728 882.421V859.326H270.845C273.054 859.326 274.845 857.535 274.845 855.326V827.305H295.497C297.706 827.305 299.497 825.514 299.497 823.305V807.6H345.731V830.694C345.731 832.904 347.522 834.694 349.731 834.694H365.453V857.789C365.453 859.998 367.244 861.789 369.453 861.789H392.57V882.421C392.57 884.63 394.361 886.421 396.57 886.421H421.222C423.431 886.421 425.222 884.63 425.222 882.421V861.789H448.339C450.548 861.789 452.339 859.998 452.339 857.789V837.158H472.991C475.2 837.158 476.991 835.367 476.991 833.158V815.072L497.659 814.989C499.862 814.98 501.643 813.192 501.643 810.989V792.821H533.086V813.452C533.086 815.661 534.877 817.452 537.086 817.452H557.738V838.084C557.738 840.293 559.529 842.084 561.738 842.084H582.39V862.814C582.39 863.878 582.814 864.897 583.567 865.648C584.321 866.399 585.342 866.818 586.406 866.814L607.042 866.732V882.421C607.042 884.63 608.833 886.421 611.042 886.421H635.694Z" stroke="white" stroke-width="8" stroke-linecap="round" stroke-linejoin="round"/>
<path d="M110.607 684.441H155.911V707.536C155.911 709.745 157.702 711.536 159.911 711.536H207.68V732.168C207.68 734.377 209.471 736.168 211.68 736.168H259.45V759.262C259.45 761.472 261.24 763.262 263.45 763.262H311.219V781.431C311.219 783.64 313.009 785.431 315.219 785.431H339.871C342.08 785.431 343.871 783.64 343.871 781.431V763.262H391.64C393.849 763.262 395.64 761.472 395.64 759.262V738.631H440.944C443.153 738.631 444.944 736.84 444.944 734.631V711.536H492.713C494.922 711.536 496.713 709.745 496.713 707.536V684.441H537.086C539.295 684.441 541.086 682.651 541.086 680.441V659.81H586.39C588.599 659.81 590.39 658.019 590.39 655.81V632.715H613.063C615.273 632.715 617.063 630.924 617.063 628.715V611.36H635.694C637.903 611.36 639.694 609.569 639.694 607.36V535.115C639.694 532.906 637.903 531.115 635.694 531.115H613.951C611.742 531.115 609.951 532.906 609.951 535.115V548.357H588.855C586.646 548.357 584.855 550.148 584.855 552.357V575.452H537.111C534.902 575.452 533.111 577.243 533.111 579.452V600.084H492.737C490.528 600.084 488.737 601.874 488.737 604.084V624.715H440.968C438.759 624.715 436.968 626.506 436.968 628.715V651.81H391.689C389.48 651.81 387.689 653.601 387.689 655.81V676.441H339.92C337.711 676.441 335.92 678.232 335.92 680.441V701.073H319.268V680.441C319.268 678.232 317.477 676.441 315.268 676.441H315.194H267.45V653.347C267.45 651.138 265.659 649.347 263.45 649.347H218.146V628.715C218.146 626.506 216.355 624.715 214.146 624.715H166.377V604.084C166.377 601.874 164.586 600.084 162.377 600.084H117.073V579.452C117.073 577.243 115.282 575.452 113.073 575.452H65.3035V552.357C65.3035 550.148 63.5127 548.357 61.3035 548.357H41.0953V535.115C41.0953 532.906 39.3045 531.115 37.0953 531.115H14.4648C12.2557 531.115 10.4648 532.906 10.4648 535.115V559.747V611.473C10.4648 613.682 12.2557 615.473 14.4648 615.473H32.4085L33.1006 628.921C33.2074 630.995 34.8833 632.642 36.9587 632.713L59.7687 633.492V653.347C59.7687 655.556 61.5596 657.347 63.7687 657.347H106.607V680.441C106.607 682.651 108.398 684.441 110.607 684.441Z" stroke="white" stroke-width="8" stroke-linecap="round" stroke-linejoin="round"/>
<path d="M639.694 690.294C639.694 688.085 637.903 686.294 635.694 686.294H610.598C608.389 686.294 606.598 688.085 606.598 690.294V701.073H586.39C584.181 701.073 582.39 702.864 582.39 705.073V713.389H534.621C532.412 713.389 530.621 715.18 530.621 717.389V740.483H490.248C488.038 740.483 486.248 742.274 486.248 744.483V767.578H426.769C424.56 767.578 422.769 769.369 422.769 771.578V792.21H389.175C386.965 792.21 385.175 794.001 385.175 796.21V816.841H349.731C347.522 816.841 345.731 818.632 345.731 820.841V830.694C345.731 832.903 347.522 834.694 349.731 834.694H365.453V857.789C365.453 859.998 367.244 861.789 369.453 861.789H392.57V882.42C392.57 884.629 394.361 886.42 396.57 886.42H421.222C423.431 886.42 425.222 884.629 425.222 882.42V861.789H448.339C450.548 861.789 452.339 859.998 452.339 857.789V837.157H472.991C475.2 837.157 476.991 835.366 476.991 833.157V815.071L497.659 814.989C499.862 814.98 501.643 813.192 501.643 810.989V802.673H537.086H561.738H583.925C586.134 802.673 587.925 800.882 587.925 798.673V775.578H609.341C611.55 775.578 613.341 773.787 613.341 771.578V760.799H635.694C637.903 760.799 639.694 759.008 639.694 756.799V690.294Z" stroke="white" stroke-width="8" stroke-linecap="round" stroke-linejoin="round"/>
<path d="M220.498 794.943L216.445 794.968V773.697C216.445 771.488 214.654 769.697 212.445 769.697H164.676V749.065C164.676 746.856 162.885 745.065 160.676 745.065H115.372V724.434C115.372 722.224 113.581 720.434 111.372 720.434H63.6026V697.339C63.6026 695.13 61.8117 693.339 59.6026 693.339H39.3943V680.097C39.3943 677.888 37.6035 676.097 35.3943 676.097H14.4648C12.2557 676.097 10.4648 677.888 10.4648 680.097V786.012C10.4648 788.222 12.2557 790.012 14.4648 790.012H31.3943V798.328C31.3943 800.537 33.1852 802.328 35.3943 802.328H75.3241V805.718C75.3241 807.927 77.115 809.718 79.3241 809.718H99.2119V813.452C99.2119 815.661 101.003 817.452 103.212 817.452H105.677C107.886 817.452 109.677 815.661 109.677 813.452V792.82H141.12V810.989C141.12 813.198 142.911 814.989 145.12 814.989H163.307V830.694C163.307 832.903 165.098 834.694 167.307 834.694H187.959V855.326C187.959 857.535 189.75 859.326 191.959 859.326H212.611V882.42C212.611 884.63 214.402 886.42 216.611 886.42H243.728C245.937 886.42 247.728 884.63 247.728 882.42V859.326H270.845C273.054 859.326 274.845 857.535 274.845 855.326V827.305H295.497C297.706 827.305 299.497 825.514 299.497 823.305V818.501C299.497 816.292 297.706 814.501 295.497 814.501H274.845V798.673C274.845 796.464 273.054 794.673 270.845 794.673C267.107 794.673 252.491 794.753 238.83 794.833C231.994 794.873 225.392 794.913 220.498 794.943Z" stroke="white" stroke-width="8" stroke-linecap="round" stroke-linejoin="round"/>
<path d="M458.503 373.778C458.503 371.569 456.712 369.778 454.503 369.778H438.781V346.684C438.781 344.474 436.99 342.684 434.781 342.684H383.012C380.803 342.684 379.012 344.474 379.012 346.684V369.778H360.825C358.616 369.778 356.825 371.569 356.825 373.778V450.136C356.825 452.345 358.616 454.136 360.825 454.136H379.012V477.231C379.012 479.44 380.803 481.231 383.012 481.231H454.503C456.712 481.231 458.503 479.44 458.503 477.231V373.778Z" stroke="white" stroke-width="8" stroke-linecap="round" stroke-linejoin="round"/>
<path d="M469.596 399.642C469.596 397.432 467.805 395.642 465.596 395.642H416.292C414.083 395.642 412.292 397.432 412.292 399.642V451.368C412.292 453.577 414.083 455.368 416.292 455.368H465.596C467.805 455.368 469.596 453.577 469.596 451.368V399.642Z" stroke="white" stroke-width="8" stroke-linecap="round" stroke-linejoin="round"/>
<path d="M205.518 456.599H226.17V477.231C226.17 479.44 227.96 481.231 230.17 481.231H299.195C301.404 481.231 303.195 479.44 303.195 477.231V373.778C303.195 371.569 301.404 369.778 299.195 369.778H285.939V349.146C285.939 346.937 284.148 345.146 281.939 345.146H230.17C227.96 345.146 226.17 346.937 226.17 349.146V369.778H205.518C203.308 369.778 201.518 371.569 201.518 373.778V452.599C201.518 454.808 203.308 456.599 205.518 456.599Z" stroke="white" stroke-width="8" stroke-linecap="round" stroke-linejoin="round"/>
<path d="M316.753 402.104C316.753 399.895 314.963 398.104 312.753 398.104H260.984C258.775 398.104 256.984 399.895 256.984 402.104V453.831C256.984 456.04 258.775 457.831 260.984 457.831H312.753C314.963 457.831 316.753 456.04 316.753 453.831V402.104Z" stroke="white" stroke-width="8" stroke-linecap="round" stroke-linejoin="round"/>
<path d="M152.516 489.241C150.306 489.241 148.516 491.032 148.516 493.241V544.968C148.516 547.177 150.306 548.968 152.516 548.968H228.937C231.146 548.968 232.937 547.177 232.937 544.968V493.241C232.937 491.032 231.146 489.241 228.937 489.241H152.516Z" stroke="white" stroke-width="8" stroke-linecap="round" stroke-linejoin="round"/>
<path d="M433.548 489.241C431.339 489.241 429.548 491.032 429.548 493.241V544.968C429.548 547.177 431.339 548.968 433.548 548.968H509.969C512.178 548.968 513.969 547.177 513.969 544.968V493.241C513.969 491.032 512.178 489.241 509.969 489.241H433.548Z" stroke="white" stroke-width="8" stroke-linecap="round" stroke-linejoin="round"/>
<path d="M12 717.389L317.684 879.957L445.874 840.547L635.694 705.073" fill="#E5D31C"/>
<path d="M391.517 820.99H332.352V846.409H307.7V820.99H255.931L103.089 764.337V823.453H152.393V850.547H204.162V887.495H255.931V912.126H307.7V934.295H332.352V912.126H384.121V887.495H408.773L408.896 860.252H485.194V823.453H536.963V786.505L391.517 820.99Z" fill="black"/>
<path d="M258.52 256.779H241.264V175.495H216.612V148.4H191.96V123.768H140.191V72.042H63.7695V148.4H164.843V173.031H191.96V209.979H216.612V320.821H258.52V256.779Z" fill="#F9E249"/>
<path d="M453.271 163.179H480.388V108.989H507.53V84.3579H583.926V8H507.505V59.7263H480.388V84.3579H455.736V111.453H431.084V239.537H411.362V320.821H453.271V163.179Z" fill="#F9E249"/>
<path d="M258.52 256.779H241.264V175.495H216.612V148.4H191.96V123.768H140.191V72.042H63.7695V148.4H164.843V173.031H191.96V209.979H216.612V320.821H258.52V256.779Z" fill="#1D1C1A"/>
<path d="M453.271 163.179H480.388V108.989H507.53V84.3579H583.926V8H507.505V59.7263H480.388V84.3579H455.736V111.453H431.084V239.537H411.362V320.821H453.271V163.179Z" fill="#1D1C1A"/>
<path d="M635.694 882.421C635.324 793.944 635.373 530.509 635.694 446.442H620.903V416.884H588.855V392.252H542.017V367.621H502.573V340.526H453.27V320.821H403.966V296.189H354.662V278.947H315.243V296.189H265.915V320.821H216.611V347.916H167.307V370.059C155.055 370.059 130.28 370.084 118.003 370.084V394.716H66.2339V416.884H36.6516V443.979H14.4648V882.421H29.256V865.179H53.908V838.084H78.5599V813.452H105.677V788.821H145.12V810.989H167.307V830.694H191.959V855.351H216.611V882.421H243.728V855.326H270.845V823.305H295.497V803.6H349.731V830.694H369.453V857.789H396.57V882.421H421.222V857.789H448.339V833.158H472.991V811.088L497.643 810.989V788.821H537.086V813.452H561.738V838.084H586.39V862.814L611.042 862.715V882.421H635.694ZM157.446 734.557V734.434L157.569 734.508L157.446 734.557ZM258.519 707.537V706.527L260.935 707.537H258.519ZM386.709 707.537H385.945L386.709 707.192V707.537Z" fill="#F9E249"/>
<path d="M315.194 680.441H263.45V653.347H214.146V628.715H162.377V604.084H113.073V579.452H61.3035V552.357H37.0953V535.115H14.4648V559.747V611.473H36.2079L37.0953 628.715L63.7687 629.627V653.347H110.607V680.441H159.911V707.536H211.68V732.168H263.45V759.262H315.219V781.431H339.871V759.262H391.64V734.631H440.944V707.536H492.713V680.441H537.086V655.81H586.39V628.715H613.063V607.36H635.694V535.115H613.951V552.357H588.855V579.452H537.111V604.084H492.737V628.715H440.968V655.81H391.689V680.441H339.92V705.073H315.268V680.441H315.194Z" fill="#AB8823"/>
<path d="M635.694 690.294V756.799H609.341V771.578H583.925V798.673H561.738H537.086H497.643V810.989L472.991 811.087V833.157H448.339V857.789H421.222V882.42H396.57V857.789H369.453V830.694H349.731V820.841H389.175V796.21H426.769V771.578H490.248V744.483H534.621V717.389H586.39V705.073H610.598V690.294H635.694Z" fill="#AB8823"/>
<path d="M270.845 818.501H295.497V823.305H270.845V855.326H243.728V882.42H216.611V855.326H191.959V830.694H167.307V810.989H145.12V788.82H105.677V813.452H103.212V805.718H79.3241V798.328H35.3943V786.012H14.4648V680.097H35.3943V697.339H59.6026V724.434H111.372V749.065H160.676V773.697H212.445V798.993C212.445 798.993 263.4 798.673 270.845 798.673V818.501Z" fill="#AB8823"/>
<path d="M455.003 373.778C455.003 373.502 454.779 373.278 454.503 373.278H435.281V346.684C435.281 346.407 435.057 346.184 434.781 346.184H383.012C382.736 346.184 382.512 346.407 382.512 346.684V373.278H360.825C360.549 373.278 360.325 373.502 360.325 373.778V450.136C360.325 450.412 360.549 450.636 360.825 450.636H382.512V477.231C382.512 477.507 382.736 477.731 383.012 477.731H454.503C454.779 477.731 455.003 477.507 455.003 477.231V373.778Z" fill="white" stroke="white" stroke-linecap="round" stroke-linejoin="round"/>
<path d="M465.596 399.642H416.292V451.368H465.596V399.642Z" fill="#1D1C1A"/>
<path d="M205.518 453.099H229.67V477.231C229.67 477.507 229.893 477.731 230.17 477.731H299.195C299.471 477.731 299.695 477.507 299.695 477.231V373.778C299.695 373.502 299.471 373.278 299.195 373.278H282.439V349.146C282.439 348.87 282.215 348.646 281.939 348.646H230.17C229.893 348.646 229.67 348.87 229.67 349.146V373.278H205.518C205.241 373.278 205.018 373.502 205.018 373.778V452.599C205.018 452.875 205.241 453.099 205.518 453.099Z" fill="white" stroke="white" stroke-linecap="round" stroke-linejoin="round"/>
<path d="M312.753 402.104H260.984V453.831H312.753V402.104Z" fill="#1D1C1A"/>
<path d="M228.937 493.241H152.516V544.968H228.937V493.241Z" fill="#F15A24"/>
<path d="M509.969 493.241H433.548V544.968H509.969V493.241Z" fill="#F15A24"/>
</g>
<defs>
<filter id="filter0_d_895_2090" x="-0.00195312" y="0" width="647.697" height="950.295" filterUnits="userSpaceOnUse" color-interpolation-filters="sRGB">
<feFlood flood-opacity="0" result="BackgroundImageFix"/>
<feColorMatrix in="SourceAlpha" type="matrix" values="0 0 0 0 0 0 0 0 0 0 0 0 0 0 0 0 0 0 127 0" result="hardAlpha"/>
<feOffset dy="4"/>
<feGaussianBlur stdDeviation="2"/>
<feComposite in2="hardAlpha" operator="out"/>
<feColorMatrix type="matrix" values="0 0 0 0 0 0 0 0 0 0 0 0 0 0 0 0 0 0 0.25 0"/>
<feBlend mode="normal" in2="BackgroundImageFix" result="effect1_dropShadow_895_2090"/>
<feBlend mode="normal" in="SourceGraphic" in2="effect1_dropShadow_895_2090" result="shape"/>
</filter>
</defs>
</svg>
