<svg width="217" height="129" viewBox="0 0 217 129" fill="none" xmlns="http://www.w3.org/2000/svg">
<path d="M110.618 128.923C146.219 128.923 175.08 100.063 175.08 64.4617C175.08 28.8605 146.219 0 110.618 0C75.0167 0 46.1562 28.8605 46.1562 64.4617C46.1562 100.063 75.0167 128.923 110.618 128.923Z" fill="#204E84"/>
<path d="M65.989 100.361C75.6355 96.1904 86.3429 95.0494 96.6687 95.0838C105.079 95.1143 107.262 90.7108 112.382 84.8C118.354 77.9085 127.264 76.4852 136.068 76.4852C141.353 76.4852 144.554 76.6721 148.839 73.1196C153.518 69.2426 154.869 63.8508 158.879 59.7105C162.554 55.9137 168.148 53.7768 173.551 52.5825C172.563 47.2708 170.922 42.1918 168.716 37.4258C162.26 40.5891 157.875 46.4885 152.938 51.8307C146.065 59.2641 141.75 63.8813 130.867 64.3774C121.491 64.8047 111.76 64.6903 105.777 73.028C100.553 80.3125 99.4238 83.9261 89.3384 83.411C80.9587 82.9836 74.9105 83.018 67.3741 87.3032C62.6195 90.0048 58.7082 94.0306 54.1406 96.3354C55.7929 99.2355 57.6627 101.991 59.7309 104.589C61.6732 102.746 63.9665 101.243 65.9928 100.369L65.989 100.361Z" fill="#0B8980"/>
<path d="M161.472 80.0518C156.031 81.479 149.998 84.7034 146.018 88.6948C142.569 92.1558 141.126 95.4184 136.177 97.3569C126.092 101.306 114.419 95.7847 105.238 102.428C98.2089 107.515 88.2533 116.574 78 120.329C81.4457 122.317 85.0938 123.996 88.9058 125.327C89.0508 125.232 89.192 125.137 89.3408 125.041C97.5297 119.79 104.891 120.802 113.999 119.764C127.545 118.218 135.482 100.612 148.594 96.7082C153.7 95.1894 159.301 96.2617 164.609 95.8534C165.22 95.8076 165.895 95.7389 166.616 95.6474C169.486 90.4616 171.669 84.8408 173.027 78.9071C168.288 78.8804 163.552 79.5062 161.472 80.0518Z" fill="#0B8980"/>
<path d="M80.6837 65.3523C88.2391 61.4982 89.3343 54.187 94.5277 48.3639C101.465 40.5833 107.418 44.2275 116.156 45.6699C127.451 47.5359 133.461 38.1526 138.12 29.3189C141.967 22.0305 146.824 22.1297 154.655 23.2974C156.315 23.5454 158.306 23.8507 160.264 23.8774C157.082 19.9547 153.445 16.4135 149.434 13.3303C148.549 13.5745 147.652 13.731 146.748 13.7577C139.101 13.9866 132.542 10.5371 127.402 18.062C122.258 25.5946 119.552 32.4517 108.799 31.9251C99.5418 31.471 87.9606 31.0742 82.065 40.1445C76.4939 48.7188 75.3186 57.0527 62.9398 57.8884C55.7774 58.373 50.855 55.8049 45.7875 61.5211C45.7455 62.4942 45.7188 63.4748 45.7188 64.4593C45.7188 66.5352 45.8218 68.5919 46.0126 70.6182C50.4047 68.84 55.3538 68.031 59.4826 67.8288C66.9274 67.4624 73.9868 68.7675 80.6799 65.3523H80.6837Z" fill="#0B8980"/>
<path opacity="0.3" d="M109.938 129C145.54 129 174.4 100.14 174.4 64.5382C174.4 34.5645 153.943 9.372 126.228 2.15234C125.835 4.55635 126.205 7.42208 127.594 10.7495C132.772 23.1321 143.587 33.1106 149.032 45.3367C160.453 70.9756 157.484 101.03 126.507 109.176C113.952 112.477 98.5287 110.424 88.2449 102.709C76.4004 93.8175 78.3885 79.9925 80.6284 66.9918C82.8531 54.0636 93.2819 33.5609 86.5087 20.564C84.7114 17.1182 77.8581 9.60476 70.1042 13.8518C55.104 25.6544 45.4727 43.9706 45.4727 64.5382C45.4727 100.14 74.3322 129 109.934 129H109.938Z" fill="#9CE8E6"/>
<path opacity="0.1" d="M238.034 45.3271C236.222 41.2403 229.689 40.6679 225.911 39.8094C220.561 38.5959 220.111 38.2067 216.631 34.4251C210.571 27.8351 202.359 28.1595 194.453 29.785C188.111 31.0901 180.83 30.8955 175.866 34.9632C173.248 37.1077 171.611 39.1301 174.435 41.9806C177.43 45.0066 181.948 43.1025 185.921 43.1711C188.443 43.2131 195.315 44.0068 193.499 48.2654C192.297 51.0853 184.719 49.6734 186.981 54.5348C188.63 58.0836 193.075 56.355 193.587 61.7698C193.949 65.6353 192.251 67.9897 189.286 70.096C182.677 74.7896 173.382 71.7178 165.807 71.7178C153.131 71.7178 145.121 74.4499 133.364 79.1549C124.992 82.5053 117.589 81.4674 108.828 80.7919C98.4299 79.9868 87.6768 81.9596 78.0951 85.8861C71.7454 88.4886 60.523 93.4492 58.5234 84.6956C57.9816 82.3221 59.6567 81.7993 57.3214 79.4831C55.9401 78.1132 54.3145 78.1361 52.5744 77.785C49.0638 77.0753 45.2632 77.1668 41.7602 77.869C37.9215 78.6398 20.4829 82.1466 26.9355 72.1375C28.0078 70.4738 41.1039 65.5513 45.6143 60.3045L46.0416 54.6684C46.74 46.7428 22.5053 55.4659 19.5938 58.2935C14.1867 63.5442 14.5874 70.6951 9.72973 75.942C5.91385 80.0669 -2.37807 86.8363 0.65937 93.3424C4.51341 101.592 16.8425 96.3913 23.1425 96.3684C34.2315 96.334 29.0877 105.507 34.4261 111.17C43.0386 120.309 55.444 115.486 65.5599 112.048C72.9818 109.526 80.1671 106.114 87.7646 104.134C96.7014 101.802 105.913 100.699 114.911 98.6274C133.288 94.3994 152.1 94.0674 170.771 95.0595C184.07 95.7655 216.81 97.8222 218.268 78.201C218.562 74.2477 214.402 70.7027 215.207 67.3867C216.108 63.6777 222.61 63.1855 225.632 62.2086C232.055 60.1289 241.644 53.4359 238.045 45.3157L238.034 45.3271Z" fill="white"/>
<path opacity="0.2" d="M225.621 62.2198C232.043 60.1401 241.632 53.4471 238.034 45.3269C236.221 41.2401 229.689 40.6677 225.911 39.8091C220.561 38.5957 220.111 38.2064 216.631 34.4249C215.417 33.1046 214.112 32.0629 212.746 31.2539C212.376 31.3608 212.006 31.4714 211.639 31.5897C198.001 36.039 217.741 44.5981 219.218 48.807C221.778 56.0953 211.773 58.2284 206.629 59.6746C206.748 66.4669 208.117 77.9336 200.619 80.6963C196.517 82.2074 192.755 80.4941 188.832 79.9179C182.963 79.0555 177.049 80.391 171.191 81.5625C155.05 84.7907 139.111 87.3627 122.974 90.2246C115.224 91.5983 107.855 90.8466 100.143 91.522C92.7747 92.1669 86.1312 94.5785 78.9574 96.2689C70.6578 98.2265 55.0738 102.622 47.4039 97.1428C44.2023 94.8532 43.2674 91.4456 39.5928 89.5644C35.6548 87.5458 31.3542 87.5496 27.1568 86.8857C22.0664 86.0805 19.4868 85.1762 16.6554 81.2611C14.5643 78.3724 13.286 76.7621 9.84027 75.8196C9.80212 75.8616 9.76399 75.9074 9.72583 75.9493C5.90994 80.0743 -2.38198 86.8437 0.655463 93.3498C4.50951 101.6 16.8386 96.3987 23.1386 96.3758C34.2276 96.3414 29.0838 105.515 34.4222 111.178C43.0347 120.317 55.4401 115.493 65.556 112.055C72.9779 109.533 80.1632 106.122 87.7607 104.141C96.6974 101.81 105.909 100.707 114.907 98.6348C133.284 94.4068 152.096 94.0748 170.768 95.0669C184.066 95.7729 216.806 97.8296 218.264 78.2084C218.558 74.2551 214.398 70.714 215.204 67.3941C216.104 63.6851 222.606 63.1929 225.629 62.216L225.621 62.2198Z" fill="white"/>
<path d="M17.6105 89.1004C17.7555 88.9554 17.9006 88.8103 18.0417 88.6692C18.3203 88.3906 18.3203 87.9289 18.0417 87.6503C17.7632 87.3718 17.3015 87.3718 17.0229 87.6503C16.8779 87.7953 16.7329 87.9403 16.5917 88.0815C16.3132 88.3601 16.3132 88.8218 16.5917 89.1004C16.8703 89.3789 17.332 89.3789 17.6105 89.1004Z" fill="white"/>
<path d="M24.0964 85.0581C23.9514 84.9131 23.8064 84.7681 23.6652 84.6269C23.3867 84.3483 22.925 84.3483 22.6464 84.6269C22.3679 84.9054 22.3679 85.3672 22.6464 85.6457C22.7914 85.7907 22.9364 85.9357 23.0776 86.0769C23.3562 86.3555 23.8179 86.3555 24.0964 86.0769C24.375 85.7984 24.375 85.3366 24.0964 85.0581Z" fill="white"/>
<path d="M17.0972 81.3828H16.9751C16.5821 81.3828 16.2539 81.711 16.2539 82.104C16.2539 82.4971 16.5821 82.8252 16.9751 82.8252H17.5284C17.9214 82.8252 18.2496 82.4971 18.2496 82.104C18.2496 81.711 17.9214 81.3828 17.5284 81.3828H16.9751C16.5821 81.3828 16.2539 81.711 16.2539 82.104C16.2539 82.4971 16.5821 82.8252 16.9751 82.8252H17.0972C17.4902 82.8252 17.8184 82.4971 17.8184 82.104C17.8184 81.711 17.4902 81.3828 17.0972 81.3828Z" fill="white"/>
<path d="M10.6085 89.3135C11.5395 89.3135 11.5395 87.8711 10.6085 87.8711C9.67739 87.8711 9.67739 89.3135 10.6085 89.3135Z" fill="white"/>
<path d="M11.0429 93.06C10.9743 93.06 10.9094 93.06 10.8407 93.06C10.7758 93.06 10.6766 93.0295 10.9399 93.0753C10.9285 93.0753 10.917 93.0715 10.9056 93.0638C11.0086 93.0905 11.0964 93.144 11.1727 93.2165C11.2032 93.2584 11.2375 93.2966 11.2681 93.3386C11.3253 93.4874 11.3444 93.5332 11.3215 93.4645C11.291 93.3653 11.3444 93.6858 11.333 93.5713C11.3253 93.495 11.3291 93.4187 11.3291 93.3462C11.3291 92.9532 11.001 92.625 10.6079 92.625C10.2149 92.625 9.88672 92.9532 9.88672 93.3462C9.88672 93.682 9.92109 93.972 10.1539 94.2353C10.3752 94.4872 10.7339 94.4986 11.0429 94.5024C11.436 94.5024 11.7642 94.1742 11.7642 93.7812C11.7642 93.3882 11.436 93.06 11.0429 93.06Z" fill="white"/>
<path d="M14.6474 92.9165C14.6436 93.0005 14.6474 92.9776 14.6589 92.8516C14.6741 92.8173 14.6894 92.783 14.7047 92.7486C14.6665 92.8135 14.6856 92.7906 14.7581 92.6876C14.8611 92.6151 14.884 92.596 14.8192 92.6341C14.9794 92.5387 14.926 92.5922 14.8497 92.6151C14.823 92.6227 14.7963 92.6265 14.7696 92.6303C14.9871 92.5922 14.8383 92.6189 14.7848 92.6227C14.6894 92.6303 14.594 92.6265 14.5025 92.6265C14.1094 92.6265 13.7812 92.9547 13.7812 93.3477C13.7812 93.7407 14.1094 94.0689 14.5025 94.0689C14.7772 94.0689 15.0825 94.0727 15.3419 93.9697C15.8075 93.7827 16.0708 93.424 16.0898 92.9165C16.1051 92.5235 15.7502 92.1953 15.3686 92.1953C14.9641 92.1953 14.6627 92.5235 14.6474 92.9165Z" fill="white"/>
<path d="M5.42096 91.4737C6.35204 91.4737 6.35204 90.0312 5.42096 90.0312C4.48989 90.0312 4.48989 91.4737 5.42096 91.4737Z" fill="white"/>
<path d="M7.1509 84.9854H7.58209C7.97513 84.9854 8.3033 84.6572 8.3033 84.2642C8.3033 83.8711 7.97513 83.543 7.58209 83.543H7.1509C6.75786 83.543 6.42969 83.8711 6.42969 84.2642C6.42969 84.6572 6.75786 84.9854 7.1509 84.9854Z" fill="white"/>
<path d="M12.7764 84.5557C13.7075 84.5557 13.7075 83.1133 12.7764 83.1133C11.8454 83.1133 11.8454 84.5557 12.7764 84.5557Z" fill="white"/>
<path d="M15.3702 79.7979C16.3013 79.7979 16.3013 78.3555 15.3702 78.3555C14.4391 78.3555 14.4391 79.7979 15.3702 79.7979Z" fill="white"/>
<path d="M29.2061 65.5205C30.1372 65.5205 30.1372 64.0781 29.2061 64.0781C28.275 64.0781 28.275 65.5205 29.2061 65.5205Z" fill="white"/>
<path d="M34.0442 64.4441C34.1892 64.2991 34.3342 64.1541 34.4754 64.0129C34.7539 63.7344 34.7539 63.2726 34.4754 62.9941C34.1968 62.7155 33.7351 62.7155 33.4565 62.9941L33.0253 63.4253C32.7468 63.7038 32.7468 64.1656 33.0253 64.4441C33.3039 64.7227 33.7656 64.7227 34.0442 64.4441Z" fill="white"/>
<path d="M39.1632 62.0635C40.0942 62.0635 40.0942 60.6211 39.1632 60.6211C38.2321 60.6211 38.2321 62.0635 39.1632 62.0635Z" fill="white"/>
<path d="M40.0225 58.169C40.9536 58.169 40.9536 56.7266 40.0225 56.7266C39.0914 56.7266 39.0914 58.169 40.0225 58.169Z" fill="white"/>
<path d="M32.2413 59.4658C33.1724 59.4658 33.1724 58.0234 32.2413 58.0234C31.3102 58.0234 31.3102 59.4658 32.2413 59.4658Z" fill="white"/>
<path d="M23.3008 60.0415V60.4727C23.3008 60.8657 23.629 61.1939 24.022 61.1939C24.415 61.1939 24.7432 60.8657 24.7432 60.4727V60.0415C24.7432 59.6485 24.415 59.3203 24.022 59.3203C23.629 59.3203 23.3008 59.6485 23.3008 60.0415Z" fill="white"/>
<path d="M27.9132 65.0908C28.8442 65.0908 28.8442 63.6484 27.9132 63.6484C26.9821 63.6484 26.9821 65.0908 27.9132 65.0908Z" fill="white"/>
<path d="M20.9913 68.5518C21.9224 68.5518 21.9224 67.1094 20.9913 67.1094C20.0602 67.1094 20.0602 68.5518 20.9913 68.5518Z" fill="white"/>
<path d="M17.5337 72.876H17.9649C18.3579 72.876 18.6861 72.5478 18.6861 72.1548C18.6861 71.7618 18.3579 71.4336 17.9649 71.4336H17.5337C17.1407 71.4336 16.8125 71.7618 16.8125 72.1548C16.8125 72.5478 17.1407 72.876 17.5337 72.876Z" fill="white"/>
<path d="M21.8585 73.7393C22.7895 73.7393 22.7895 72.2969 21.8585 72.2969C20.9274 72.2969 20.9274 73.7393 21.8585 73.7393Z" fill="white"/>
<path d="M51.2764 89.3135C52.2075 89.3135 52.2075 87.8711 51.2764 87.8711C50.3454 87.8711 50.3454 89.3135 51.2764 89.3135Z" fill="white"/>
<path d="M57.3272 92.7744C58.2583 92.7744 58.2583 91.332 57.3272 91.332C56.3961 91.332 56.3961 92.7744 57.3272 92.7744Z" fill="white"/>
<path d="M58.0518 98.1101C58.0518 98.0338 58.0517 97.9536 58.0556 97.8773C58.0632 97.7476 58.0213 98.0719 58.048 97.9574C58.0747 97.843 57.9602 98.1368 58.0136 98.0299C58.025 98.0032 58.0441 97.9803 58.0594 97.9574C57.9258 98.1444 58.006 98.0338 58.0403 97.9918C58.1128 97.9117 58.193 97.8353 58.2693 97.759C58.5478 97.4805 58.5478 97.0187 58.2693 96.7402C57.9907 96.4616 57.529 96.4616 57.2504 96.7402C57.0711 96.9195 56.8689 97.1027 56.7544 97.3316C56.6285 97.5835 56.6094 97.843 56.6094 98.1177C56.6094 98.5107 56.9375 98.8389 57.3306 98.8389C57.7236 98.8389 58.0518 98.5107 58.0518 98.1177V98.1101Z" fill="white"/>
<path d="M65.9757 92.7744C66.9067 92.7744 66.9067 91.332 65.9757 91.332C65.0446 91.332 65.0446 92.7744 65.9757 92.7744Z" fill="white"/>
<path d="M77.6592 92.3447C78.5903 92.3447 78.5903 90.9023 77.6592 90.9023C76.7282 90.9023 76.7282 92.3447 77.6592 92.3447Z" fill="white"/>
<path d="M74.2722 100.628C74.1272 100.483 73.9822 100.338 73.841 100.197C73.5625 99.9186 73.1008 99.9186 72.8222 100.197C72.5436 100.476 72.5436 100.937 72.8222 101.216C72.9672 101.361 73.1122 101.506 73.2534 101.647C73.532 101.926 73.9936 101.926 74.2722 101.647C74.5508 101.369 74.5508 100.907 74.2722 100.628Z" fill="white"/>
<path d="M57.7608 101.856C58.6919 101.856 58.6919 100.414 57.7608 100.414C56.8297 100.414 56.8297 101.856 57.7608 101.856Z" fill="white"/>
<path d="M46.9453 109.074H46.5141C46.1211 109.074 45.793 109.402 45.793 109.795C45.793 110.188 46.1211 110.517 46.5141 110.517H46.9453C47.3384 110.517 47.6665 110.188 47.6665 109.795C47.6665 109.402 47.3384 109.074 46.9453 109.074Z" fill="white"/>
<path d="M41.1846 104.168V103.737C41.1846 103.344 40.8564 103.016 40.4634 103.016C40.0704 103.016 39.7422 103.344 39.7422 103.737V104.168C39.7422 104.561 40.0704 104.889 40.4634 104.889C40.8564 104.889 41.1846 104.561 41.1846 104.168Z" fill="white"/>
<path d="M45.9385 101.133V100.702C45.9385 100.309 45.6103 99.9805 45.2173 99.9805C44.8243 99.9805 44.4961 100.309 44.4961 100.702V101.133C44.4961 101.526 44.8243 101.854 45.2173 101.854C45.6103 101.854 45.9385 101.526 45.9385 101.133Z" fill="white"/>
<path d="M46.8056 95.9493V95.5181C46.8056 95.125 46.4775 94.7969 46.0845 94.7969C45.6915 94.7969 45.3633 95.125 45.3633 95.5181V95.9493C45.3633 96.3423 45.6915 96.6705 46.0845 96.6705C46.4775 96.6705 46.8056 96.3423 46.8056 95.9493Z" fill="white"/>
<path d="M47.0913 89.4595C47.0913 89.5282 47.0913 89.593 47.0913 89.6617C47.0913 89.7266 47.0608 89.8258 47.1065 89.5625C47.1065 89.5739 47.1027 89.5854 47.0951 89.5969C47.1218 89.4938 47.1752 89.4061 47.2477 89.3297C47.2897 89.2992 47.3278 89.2649 47.3698 89.2343C47.5186 89.1771 47.5645 89.158 47.4958 89.1809C47.3966 89.2114 47.7171 89.158 47.6026 89.1695C47.5263 89.1771 47.45 89.1733 47.3775 89.1733C46.9844 89.1733 46.6562 89.5015 46.6562 89.8945C46.6562 90.2875 46.9844 90.6157 47.3775 90.6157C47.7133 90.6157 48.0033 90.5813 48.2666 90.3486C48.5184 90.1273 48.5337 89.7686 48.5337 89.4595C48.5337 89.0664 48.2055 88.7383 47.8125 88.7383C47.4194 88.7383 47.0913 89.0664 47.0913 89.4595Z" fill="white"/>
<path d="M37.8594 94.3594H37.4282C37.0352 94.3594 36.707 94.6875 36.707 95.0806C36.707 95.4736 37.0352 95.8018 37.4282 95.8018H37.8594C38.2525 95.8018 38.5806 95.4736 38.5806 95.0806C38.5806 94.6875 38.2525 94.3594 37.8594 94.3594Z" fill="white"/>
<path d="M30.0767 93.2041H30.5079C30.9009 93.2041 31.2291 92.876 31.2291 92.4829C31.2291 92.0899 30.9009 91.7617 30.5079 91.7617H30.0767C29.6836 91.7617 29.3555 92.0899 29.3555 92.4829C29.3555 92.876 29.6836 93.2041 30.0767 93.2041Z" fill="white"/>
<path d="M86.3111 104.888H86.7422C87.1353 104.888 87.4635 104.56 87.4635 104.167C87.4635 103.773 87.1353 103.445 86.7422 103.445H86.3111C85.918 103.445 85.5898 103.773 85.5898 104.167C85.5898 104.56 85.918 104.888 86.3111 104.888Z" fill="white"/>
<path d="M94.1001 97.9619H94.5313C94.9243 97.9619 95.2525 97.6338 95.2525 97.2407C95.2525 96.8477 94.9243 96.5195 94.5313 96.5195H94.1001C93.7071 96.5195 93.3789 96.8477 93.3789 97.2407C93.3789 97.6338 93.7071 97.9619 94.1001 97.9619Z" fill="white"/>
<path d="M103.612 99.2627H104.043C104.436 99.2627 104.764 98.9345 104.764 98.5415C104.764 98.1485 104.436 97.8203 104.043 97.8203H103.612C103.219 97.8203 102.891 98.1485 102.891 98.5415C102.891 98.9345 103.219 99.2627 103.612 99.2627Z" fill="white"/>
<path d="M90.2022 92.7744C91.1333 92.7744 91.1333 91.332 90.2022 91.332C89.2711 91.332 89.2711 92.7744 90.2022 92.7744Z" fill="white"/>
<path d="M95.5391 89.0219C95.5391 89.3577 95.5734 89.6477 95.8062 89.911C96.0275 90.1628 96.3862 90.1743 96.6952 90.1743C97.0883 90.1743 97.4164 89.8461 97.4164 89.4531C97.4164 89.0601 97.0883 88.7319 96.6952 88.7319C96.6266 88.7319 96.5617 88.7319 96.493 88.7319C96.4282 88.7319 96.329 88.7014 96.5923 88.7472C96.5808 88.7472 96.5693 88.7433 96.5579 88.7357C96.6609 88.7624 96.7487 88.8158 96.825 88.8883C96.8555 88.9303 96.8899 88.9685 96.9204 89.0104C96.9776 89.1593 96.9967 89.2051 96.9738 89.1364C96.9433 89.0372 96.9967 89.3577 96.9853 89.2432C96.9776 89.1669 96.9814 89.0906 96.9814 89.0181C96.9814 88.625 96.6533 88.2969 96.2603 88.2969C95.8672 88.2969 95.5391 88.625 95.5391 89.0181V89.0219Z" fill="white"/>
<path d="M99.2882 91.9112C100.219 91.9112 100.219 90.4688 99.2882 90.4688C98.3571 90.4688 98.3571 91.9112 99.2882 91.9112Z" fill="white"/>
<path d="M98.8546 94.5049C99.7856 94.5049 99.7856 93.0625 98.8546 93.0625C97.9235 93.0625 97.9235 94.5049 98.8546 94.5049Z" fill="white"/>
<path d="M102.749 94.5049H103.18C103.573 94.5049 103.901 94.1767 103.901 93.7837C103.901 93.3907 103.573 93.0625 103.18 93.0625H102.749C102.355 93.0625 102.027 93.3907 102.027 93.7837C102.027 94.1767 102.355 94.5049 102.749 94.5049Z" fill="white"/>
<path d="M110.53 96.669H110.961C111.354 96.669 111.682 96.3408 111.682 95.9478C111.682 95.5547 111.354 95.2266 110.961 95.2266H110.53C110.137 95.2266 109.809 95.5547 109.809 95.9478C109.809 96.3408 110.137 96.669 110.53 96.669Z" fill="white"/>
<path d="M121.788 97.0947C122.719 97.0947 122.719 95.6523 121.788 95.6523C120.857 95.6523 120.857 97.0947 121.788 97.0947Z" fill="white"/>
<path d="M108.949 86.8579C108.949 87.1937 108.984 87.4837 109.216 87.747C109.438 87.9989 109.796 88.0103 110.105 88.0103C110.498 88.0103 110.827 87.6822 110.827 87.2891C110.827 86.8961 110.498 86.5679 110.105 86.5679C110.041 86.5679 109.972 86.5679 109.903 86.5679C109.838 86.5679 109.739 86.5374 110.002 86.5832C109.991 86.5832 109.979 86.5794 109.968 86.5756C110.071 86.6023 110.159 86.6557 110.235 86.7282C110.266 86.7702 110.3 86.8083 110.331 86.8503C110.388 86.9991 110.407 87.0449 110.384 86.9762C110.353 86.877 110.407 87.1975 110.395 87.0831C110.388 87.0067 110.392 86.9304 110.392 86.8579C110.392 86.4649 110.063 86.1367 109.67 86.1367C109.277 86.1367 108.949 86.4649 108.949 86.8579Z" fill="white"/>
<path d="M122.359 85.565C122.359 85.9008 122.394 86.1908 122.627 86.4541C122.848 86.7059 123.207 86.7174 123.516 86.7174C123.909 86.7174 124.237 86.3892 124.237 85.9962C124.237 85.6031 123.909 85.2749 123.516 85.2749C123.447 85.2749 123.382 85.2749 123.313 85.2749C123.248 85.2749 123.149 85.2444 123.413 85.2902C123.401 85.2902 123.39 85.2864 123.378 85.2826C123.481 85.3093 123.569 85.3627 123.645 85.4352L123.741 85.5573C123.798 85.7061 123.817 85.7519 123.794 85.6832C123.764 85.584 123.817 85.9046 123.806 85.7901C123.798 85.7138 123.802 85.6375 123.802 85.565C123.802 85.1719 123.474 84.8438 123.081 84.8438C122.688 84.8438 122.359 85.1719 122.359 85.565Z" fill="white"/>
<path d="M131.3 89.7471C132.231 89.7471 132.231 88.3047 131.3 88.3047C130.369 88.3047 130.369 89.7471 131.3 89.7471Z" fill="white"/>
<path d="M155.234 90.7524V91.1836C155.234 91.5767 155.563 91.9049 155.956 91.9049C156.349 91.9049 156.677 91.5767 156.677 91.1836V90.7524C156.677 90.3594 156.349 90.0312 155.956 90.0312C155.563 90.0312 155.234 90.3594 155.234 90.7524Z" fill="white"/>
<path d="M161.151 87.5791H161.582C161.975 87.5791 162.303 87.251 162.303 86.8579C162.303 86.4649 161.975 86.1367 161.582 86.1367H161.151C160.758 86.1367 160.43 86.4649 160.43 86.8579C160.43 87.251 160.758 87.5791 161.151 87.5791Z" fill="white"/>
<path d="M166.914 84.2642C166.914 84.6 166.948 84.89 167.181 85.1533C167.403 85.4051 167.761 85.4166 168.07 85.4166C168.463 85.4166 168.791 85.0884 168.791 84.6954C168.791 84.3023 168.463 83.9742 168.07 83.9742C168.002 83.9742 167.937 83.9742 167.868 83.9742C167.803 83.9742 167.704 83.9436 167.967 83.9894C167.956 83.9894 167.944 83.9856 167.933 83.9818C168.036 84.0085 168.124 84.0619 168.2 84.1344C168.231 84.1764 168.265 84.2146 168.295 84.2565C168.353 84.4054 168.372 84.4512 168.349 84.3825C168.318 84.2833 168.372 84.6038 168.36 84.4893C168.353 84.413 168.356 84.3367 168.356 84.2642C168.356 83.8711 168.028 83.543 167.635 83.543C167.242 83.543 166.914 83.8711 166.914 84.2642Z" fill="white"/>
<path d="M188.397 88.0166H188.828C189.221 88.0166 189.549 87.6885 189.549 87.2954C189.549 86.9024 189.221 86.5742 188.828 86.5742H188.397C188.004 86.5742 187.676 86.9024 187.676 87.2954C187.676 87.6885 188.004 88.0166 188.397 88.0166Z" fill="white"/>
<path d="M196.186 91.044H197.483C197.876 91.044 198.205 90.7158 198.205 90.3228C198.205 89.9297 197.876 89.6016 197.483 89.6016H196.186C195.793 89.6016 195.465 89.9297 195.465 90.3228C195.465 90.7158 195.793 91.044 196.186 91.044Z" fill="white"/>
<path d="M207.432 87.5845C207.768 87.5845 208.058 87.5502 208.321 87.3212C208.573 87.0999 208.588 86.7412 208.588 86.4321C208.588 86.0391 208.26 85.7109 207.867 85.7109C207.474 85.7109 207.146 86.0391 207.146 86.4321C207.146 86.5008 207.146 86.5657 207.146 86.6344C207.146 86.6992 207.115 86.7985 207.161 86.5352C207.161 86.5466 207.157 86.5581 207.154 86.5695C207.18 86.4665 207.234 86.3787 207.306 86.3024C207.348 86.2719 207.386 86.2375 207.428 86.207C207.577 86.1498 207.623 86.1307 207.554 86.1536C207.455 86.1841 207.776 86.1307 207.661 86.1421C207.585 86.1498 207.509 86.1459 207.436 86.1459C207.043 86.1459 206.715 86.4741 206.715 86.8671C206.715 87.2602 207.043 87.5883 207.436 87.5883L207.432 87.5845Z" fill="white"/>
<path d="M209.884 82.1055V81.6743C209.884 81.2813 209.556 80.9531 209.163 80.9531C208.77 80.9531 208.441 81.2813 208.441 81.6743V82.1055C208.441 82.4986 208.77 82.8267 209.163 82.8267C209.556 82.8267 209.884 82.4986 209.884 82.1055Z" fill="white"/>
<path d="M195.749 71.5791H196.18C196.573 71.5791 196.901 71.251 196.901 70.8579C196.901 70.4649 196.573 70.1367 196.18 70.1367H195.749C195.356 70.1367 195.027 70.4649 195.027 70.8579C195.027 71.251 195.356 71.5791 195.749 71.5791Z" fill="white"/>
<path d="M203.104 73.7393H203.535C203.928 73.7393 204.256 73.4111 204.256 73.0181C204.256 72.625 203.928 72.2969 203.535 72.2969H203.104C202.711 72.2969 202.383 72.625 202.383 73.0181C202.383 73.4111 202.711 73.7393 203.104 73.7393Z" fill="white"/>
<path d="M209.163 72.8774C209.498 72.8774 209.788 72.8431 210.052 72.6103C210.304 72.389 210.315 72.0303 210.319 71.7212C210.319 71.3282 209.991 71 209.598 71C209.205 71 208.876 71.3282 208.876 71.7212C208.876 71.7899 208.876 71.8548 208.876 71.9234C208.876 71.9883 208.846 72.0875 208.892 71.8242C208.892 71.8357 208.888 71.8471 208.88 71.8586C208.907 71.7555 208.96 71.6678 209.033 71.5915C209.075 71.5609 209.113 71.5266 209.155 71.4961C209.304 71.4388 209.346 71.4197 209.281 71.4426C209.182 71.4732 209.502 71.4197 209.388 71.4312C209.311 71.4388 209.235 71.435 209.163 71.435C208.77 71.435 208.441 71.7632 208.441 72.1562C208.441 72.5492 208.77 72.8774 209.163 72.8774Z" fill="white"/>
<path d="M214.642 64.7983V63.9321C214.642 63.5391 214.313 63.2109 213.92 63.2109C213.527 63.2109 213.199 63.5391 213.199 63.9321V64.7983C213.199 65.1914 213.527 65.5195 213.92 65.5195C214.313 65.5195 214.642 65.1914 214.642 64.7983Z" fill="white"/>
<path d="M202.962 60.4727V60.0415C202.962 59.6485 202.634 59.3203 202.241 59.3203C201.848 59.3203 201.52 59.6485 201.52 60.0415V60.4727C201.52 60.8657 201.848 61.1939 202.241 61.1939C202.634 61.1939 202.962 60.8657 202.962 60.4727Z" fill="white"/>
<path d="M198.35 56.8736C198.686 56.8736 198.976 56.8393 199.239 56.6103C199.491 56.389 199.506 56.0303 199.506 55.7212C199.506 55.3282 199.178 55 198.785 55C198.392 55 198.064 55.3282 198.064 55.7212C198.064 55.7899 198.064 55.8548 198.064 55.9234C198.064 55.9883 198.033 56.0875 198.079 55.8242C198.079 55.8357 198.075 55.8471 198.068 55.8586C198.094 55.7555 198.148 55.6678 198.22 55.5915C198.262 55.5609 198.301 55.5266 198.343 55.4961C198.491 55.4388 198.533 55.4197 198.468 55.4426C198.369 55.4732 198.69 55.4197 198.575 55.4312C198.499 55.4388 198.423 55.435 198.35 55.435C197.957 55.435 197.629 55.7632 197.629 56.1562C197.629 56.5492 197.957 56.8774 198.35 56.8774V56.8736Z" fill="white"/>
<path d="M207.862 53.4112H208.293C208.686 53.4112 209.014 53.083 209.014 52.69C209.014 52.2969 208.686 51.9688 208.293 51.9688H207.862C207.469 51.9688 207.141 52.2969 207.141 52.69C207.141 53.083 207.469 53.4112 207.862 53.4112Z" fill="white"/>
<path d="M180.899 38.8477V38.4165C180.899 38.0235 180.571 37.6953 180.178 37.6953C179.785 37.6953 179.457 38.0235 179.457 38.4165V38.8477C179.457 39.2407 179.785 39.5689 180.178 39.5689C180.571 39.5689 180.899 39.2407 180.899 38.8477Z" fill="white"/>
<path d="M184.936 36.9697H185.367C185.76 36.9697 186.088 36.6416 186.088 36.2485C186.088 35.8555 185.76 35.5273 185.367 35.5273H184.936C184.543 35.5273 184.215 35.8555 184.215 36.2485C184.215 36.6416 184.543 36.9697 184.936 36.9697Z" fill="white"/>
<path d="M187.534 38.7041H187.965C188.358 38.7041 188.686 38.376 188.686 37.9829C188.686 37.5899 188.358 37.2617 187.965 37.2617H187.534C187.141 37.2617 186.812 37.5899 186.812 37.9829C186.812 38.376 187.141 38.7041 187.534 38.7041Z" fill="white"/>
<path d="M193.155 40.8604H193.586C193.979 40.8604 194.307 40.5322 194.307 40.1392C194.307 39.7461 193.979 39.418 193.586 39.418H193.155C192.762 39.418 192.434 39.7461 192.434 40.1392C192.434 40.5322 192.762 40.8604 193.155 40.8604Z" fill="white"/>
<path d="M200.506 34.3799H200.937C201.331 34.3799 201.659 34.0517 201.659 33.6587C201.659 33.2657 201.331 32.9375 200.937 32.9375H200.506C200.113 32.9375 199.785 33.2657 199.785 33.6587C199.785 34.0517 200.113 34.3799 200.506 34.3799Z" fill="white"/>
<path d="M210.464 39.1377C211.395 39.1377 211.395 37.6953 210.464 37.6953C209.533 37.6953 209.533 39.1377 210.464 39.1377Z" fill="white"/>
<path d="M204.405 45.626H204.836C205.229 45.626 205.557 45.2978 205.557 44.9048C205.557 44.5118 205.229 44.1836 204.836 44.1836H204.405C204.012 44.1836 203.684 44.5118 203.684 44.9048C203.684 45.2978 204.012 45.626 204.405 45.626Z" fill="white"/>
<path d="M210.894 46.919C211.825 46.919 211.825 45.4766 210.894 45.4766C209.963 45.4766 209.963 46.919 210.894 46.919Z" fill="white"/>
<path d="M211.899 48.7954C211.914 49.1999 212.093 49.5891 212.475 49.7761C212.792 49.9326 213.139 49.9478 213.486 49.9478C213.879 49.9478 214.207 49.6197 214.207 49.2266C214.207 48.8336 213.879 48.5054 213.486 48.5054C213.406 48.5054 213.326 48.5054 213.25 48.5054C213.219 48.5054 213.189 48.5054 213.158 48.5016C212.998 48.4901 213.33 48.5321 213.177 48.5054C213.15 48.5016 213.128 48.494 213.101 48.4863C212.964 48.4482 213.257 48.5665 213.139 48.4978C213.17 48.5207 213.2 48.5436 213.231 48.5665C213.303 48.6733 213.322 48.6924 213.284 48.6275C213.299 48.6619 213.315 48.6962 213.33 48.7306C213.341 48.8565 213.345 48.8756 213.341 48.7954C213.326 48.4024 213.025 48.0742 212.62 48.0742C212.238 48.0742 211.884 48.4024 211.899 48.7954Z" fill="white"/>
<path d="M215.648 44.1836H215.217C214.824 44.1836 214.496 44.5118 214.496 44.9048C214.496 45.2978 214.824 45.626 215.217 45.626H215.648C216.042 45.626 216.37 45.2978 216.37 44.9048C216.37 44.5118 216.042 44.1836 215.648 44.1836Z" fill="white"/>
<path d="M215.648 41.7276C216.579 41.7276 216.579 40.2852 215.648 40.2852C214.716 40.2852 214.716 41.7276 215.648 41.7276Z" fill="white"/>
<path d="M150.764 77.6367C151.169 77.6215 151.558 77.4383 151.745 77.0605C151.901 76.7438 151.917 76.3966 151.917 76.0493C151.917 75.6563 151.588 75.3281 151.195 75.3281C150.802 75.3281 150.474 75.6563 150.474 76.0493C150.474 76.1295 150.474 76.2058 150.474 76.2859C150.474 76.3164 150.474 76.347 150.47 76.3775C150.459 76.5378 150.501 76.2058 150.474 76.3546C150.47 76.3813 150.463 76.408 150.455 76.4309C150.417 76.5683 150.535 76.2745 150.467 76.3928C150.489 76.3622 150.512 76.3317 150.535 76.3012C150.642 76.2287 150.661 76.2096 150.6 76.2478C150.634 76.2325 150.669 76.2172 150.703 76.202C150.829 76.1905 150.848 76.1867 150.764 76.1905C150.371 76.2058 150.043 76.5072 150.043 76.9117C150.043 77.2933 150.371 77.6482 150.764 77.6329V77.6367Z" fill="white"/>
<path d="M158.116 75.4697H158.547C158.94 75.4697 159.268 75.1416 159.268 74.7486C159.268 74.3555 158.94 74.0273 158.547 74.0273H158.116C157.723 74.0273 157.395 74.3555 157.395 74.7486C157.395 75.1416 157.723 75.4697 158.116 75.4697Z" fill="white"/>
<path d="M160.71 78.9307C161.641 78.9307 161.641 77.4883 160.71 77.4883C159.779 77.4883 159.779 78.9307 160.71 78.9307Z" fill="white"/>
<path d="M162.878 81.0947C163.809 81.0947 163.809 79.6523 162.878 79.6523C161.947 79.6523 161.947 81.0947 162.878 81.0947Z" fill="white"/>
<path d="M166.772 77.6377H167.203C167.596 77.6377 167.924 77.3095 167.924 76.9165C167.924 76.5235 167.596 76.1953 167.203 76.1953H166.772C166.379 76.1953 166.051 76.5235 166.051 76.9165C166.051 77.3095 166.379 77.6377 166.772 77.6377Z" fill="white"/>
</svg>
