<svg width="210" height="142" viewBox="0 0 210 142" fill="none" xmlns="http://www.w3.org/2000/svg">
<g clip-path="url(#clip0_1_2)">
<g clip-path="url(#clip1_1_2)">
<mask id="mask0_1_2" style="mask-type:luminance" maskUnits="userSpaceOnUse" x="34" y="2" width="149" height="145">
<path d="M182.39 2H34V146.717H182.39V2Z" fill="white"/>
</mask>
<g mask="url(#mask0_1_2)">
<path opacity="0.1" d="M174.621 52.2286C172.861 49.0915 170.821 46.1003 168.551 43.2824C155.581 27.223 134.711 16.8085 111.171 16.8085C71.8314 16.8085 39.9414 45.8906 39.9414 81.7667C39.9414 88.8525 41.1914 95.6737 43.4914 102.057C44.3414 104.41 45.3314 106.69 46.4514 108.915C57.7214 131.231 82.4614 146.715 111.161 146.715C150.501 146.715 182.391 117.633 182.391 81.7576C182.391 71.1242 179.591 61.0837 174.621 52.2195V52.2286Z" fill="white"/>
<path d="M168.909 54.8913C167.309 52.0369 165.449 49.3193 163.379 46.7568C167.179 54.2803 169.309 62.6429 169.309 71.4706C169.309 104.118 140.289 130.574 104.499 130.574C83.0791 130.574 64.0791 121.09 52.2891 106.48C62.5491 126.78 85.0591 140.879 111.179 140.879C146.979 140.879 175.989 114.414 175.989 81.7756C175.989 72.0998 173.439 62.9621 168.919 54.9005L168.909 54.8913Z" fill="#6C8FB5"/>
<path d="M104.49 130.565C140.29 130.565 169.3 104.1 169.3 71.4618C169.3 62.6341 167.17 54.2715 163.37 46.7479C151.57 32.1385 132.58 22.6542 111.15 22.6542C75.3498 22.6542 46.3398 49.119 46.3398 81.7577C46.3398 88.2051 47.4798 94.4152 49.5698 100.224C50.3398 102.358 51.2398 104.447 52.2698 106.462C64.0698 121.071 83.0598 130.556 104.48 130.556L104.49 130.565Z" fill="#8DC0F7"/>
<path opacity="0.2" d="M97.5108 55.825C97.8008 57.4118 97.9208 59.0624 98.6708 60.5215C99.4608 62.0536 100.861 63.23 102.281 64.3153C111.491 71.3737 122.661 76.2983 134.451 78.487C136.101 81.6788 130.561 84.442 130.471 87.9712C130.421 90.169 132.481 91.8654 133.641 93.7987C136.421 98.4587 133.741 104.14 131.261 108.937C128.781 113.734 128.811 119.069 132.271 123.337C133.581 120.008 132.661 117.363 133.961 114.044C138.121 114.172 142.371 114.281 146.361 113.187C150.351 112.092 154.091 109.539 155.321 105.909C155.981 103.949 155.901 101.76 157.011 99.9817C158.671 97.3279 162.341 96.4798 165.231 94.9204C168.111 93.3518 170.361 89.4759 167.871 87.4241C165.681 85.6184 162.031 87.114 159.311 86.0653C156.881 85.1259 155.921 82.5269 154.321 80.6118C148.191 73.2888 134.281 77.2649 126.461 71.4285C125.051 70.3797 123.831 69.0027 122.101 68.5011C120.541 68.0451 118.801 68.3826 117.231 67.9266C115.671 67.4706 114.471 65.4552 115.761 64.5341C120.461 62.6282 127.591 66.3854 130.341 62.4184C131.181 61.2146 131.161 59.6917 131.351 58.2781C131.831 54.6942 133.861 51.3017 136.911 48.9945C135.061 48.7848 133.211 48.5841 131.351 48.3744C133.261 47.9822 133.401 45.2555 131.951 44.0517C130.501 42.848 128.351 42.7568 126.391 42.7385C123.951 42.7112 123.731 42.009 121.291 41.9816C120.861 44.8543 119.511 48.5476 121.421 50.864C116.971 48.1099 112.511 45.3558 108.061 42.6017C110.281 42.4741 112.731 42.2461 114.221 40.7414C115.711 39.2366 114.951 36.0995 112.731 36.1451C111.571 36.1725 110.661 37.0115 109.761 37.6772C101.191 44.0882 91.3308 34.5675 84.8008 45.5473C91.5208 44.453 96.4908 50.3351 97.5008 55.8432L97.5108 55.825Z" fill="#2F2E2E"/>
<path d="M99.7391 55.1379C100.029 56.7247 100.149 58.3754 100.899 59.8345C101.689 61.3666 103.089 62.543 104.509 63.6282C113.719 70.6867 124.889 75.6112 136.679 77.7999C138.329 80.9917 132.789 83.7549 132.699 87.2842C132.649 89.482 134.709 91.1782 135.869 93.1115C138.649 97.772 135.969 103.453 133.489 108.25C131.009 113.047 128.809 119.057 132.269 123.325C133.579 119.996 134.879 116.677 136.189 113.348C140.349 113.476 144.599 113.585 148.589 112.491C152.579 111.397 156.319 108.843 157.549 105.214C158.209 103.253 158.129 101.064 159.239 99.2859C160.899 96.6321 164.569 95.784 167.459 94.2246C170.339 92.6555 172.589 88.7798 170.099 86.7279C167.909 84.9222 164.259 86.4178 161.539 85.3691C159.109 84.4298 158.149 81.8307 156.549 79.9156C150.419 72.5927 136.509 76.5688 128.689 70.7323C127.279 69.6835 126.059 68.3065 124.329 67.7958C122.769 67.3398 121.029 67.6772 119.459 67.2213C117.899 66.7653 116.699 64.7499 117.989 63.8288C122.689 61.9228 129.819 65.6801 132.569 61.7131C133.409 60.5093 133.389 58.9864 133.579 57.5728C134.059 53.9889 136.089 50.5964 139.139 48.2892C137.289 48.0794 135.439 47.8788 133.579 47.6691C135.489 47.2769 135.629 44.5502 134.179 43.3464C132.729 42.1427 130.579 42.0515 128.619 42.0332C126.179 42.0059 123.739 41.9785 121.299 41.9511C120.869 44.8238 121.739 47.8423 123.659 50.1587C119.209 47.4046 114.749 44.6505 110.299 41.8964C112.519 41.7688 114.969 41.5408 116.459 40.0361C117.949 38.5313 117.189 35.3942 114.969 35.4398C113.809 35.4672 112.899 36.3062 111.999 36.9719C103.429 43.3829 93.5691 33.8622 87.0391 44.842C93.7591 43.7477 98.7291 49.6298 99.7391 55.1379Z" fill="url(#paint0_linear_1_2)"/>
<path opacity="0.2" d="M71.2815 126.992C71.2815 126.992 84.6815 138.364 106.132 139.413C106.132 139.413 102.772 134.643 116.672 130.922C130.572 127.202 114.632 123.827 104.072 124.666C93.5115 125.514 95.3815 130.403 87.0415 127.375C78.7015 124.347 68.8515 118.328 71.2815 126.992Z" fill="#2F2E2E"/>
<path d="M71.2815 128.349C71.2815 128.349 86.3915 139.83 107.831 140.87C107.831 140.87 102.772 135.991 116.672 132.279C130.572 128.559 114.632 125.184 104.072 126.023C93.5115 126.871 95.3815 131.76 87.0415 128.732C78.7015 125.704 68.8515 119.685 71.2815 128.349Z" fill="url(#paint1_linear_1_2)"/>
<path opacity="0.2" d="M72.0607 101.683C73.7607 102.915 75.7807 103.717 77.7707 104.51C79.5607 105.222 81.3607 105.933 83.1507 106.644C84.4507 107.155 85.8107 107.684 87.2207 107.62C88.6307 107.556 90.1107 106.699 90.3007 105.413C90.5307 103.854 88.9007 102.659 87.5307 101.702C85.1207 100.015 82.8807 97.8806 82.1707 95.1903C81.4807 92.5825 82.3307 89.8649 82.9007 87.2385C83.4707 84.6029 83.6907 81.6482 81.9907 79.4595C77.9707 74.307 67.8207 76.6872 66.3807 82.4872C64.8707 88.5608 66.5407 97.6982 72.0607 101.693V101.683Z" fill="#2F2E2E"/>
<path d="M74.2794 101.683C75.9794 102.915 77.9994 103.717 79.9894 104.51C81.7794 105.222 83.5794 105.933 85.3694 106.644C86.6694 107.155 88.0294 107.684 89.4394 107.62C90.8494 107.556 92.3294 106.699 92.5194 105.413C92.7494 103.854 91.1194 102.659 89.7494 101.702C87.3394 100.015 85.0994 97.8806 84.3894 95.1903C83.6994 92.5825 84.5494 89.8649 85.1194 87.2385C85.6894 84.6029 85.9094 81.6482 84.2094 79.4595C80.1894 74.307 70.0394 76.6872 68.5994 82.4872C67.0894 88.5608 68.7594 97.6982 74.2794 101.693V101.683Z" fill="url(#paint2_linear_1_2)"/>
<path opacity="0.2" d="M59.2812 48.8942C59.2812 48.8942 61.9313 40.8964 70.9013 35.4429C70.9013 35.4429 68.7212 43.4225 73.9112 44.6627C79.1012 45.903 71.5913 57.959 59.2812 48.8851V48.8942Z" fill="#2F2E2E"/>
<path d="M57.8008 48.2173C57.8008 48.2173 61.9308 40.8944 70.9008 35.45C70.9008 35.45 67.2408 42.7548 72.4308 43.995C77.6208 45.2353 70.1008 57.2912 57.8008 48.2173Z" fill="url(#paint3_linear_1_2)"/>
<path opacity="0.2" d="M114.128 22.6542C114.128 22.6542 112.088 25.1712 111.168 29.4482C110.248 33.7344 109.008 29.4482 104.068 28.5454C99.1284 27.6426 89.9784 29.4391 89.9784 31.0168C89.9784 32.5945 84.3784 28.9467 88.6684 27.6608C92.9684 26.3658 96.0184 22.8366 114.128 22.6542Z" fill="#2F2E2E"/>
<path d="M114.128 22.6542C114.128 22.6542 112.088 23.8215 111.168 28.0985C110.248 32.3847 109.008 28.0985 104.068 27.1957C99.1284 26.2929 89.9784 28.0894 89.9784 29.6671C89.9784 31.2448 84.3784 27.597 88.6684 26.3111C92.9684 25.0162 96.0184 22.8457 114.128 22.6542Z" fill="url(#paint4_linear_1_2)"/>
<path opacity="0.7" d="M78.0911 39.9817C80.2211 38.6047 82.3511 37.2276 84.4911 35.8506C89.2411 32.7864 94.5911 29.5672 100.371 30.1782C102.911 30.4427 105.641 31.8106 106.071 34.1087C106.321 35.4402 105.741 36.7899 105.021 37.9663C102.751 41.7053 98.9511 44.6509 94.5311 46.0918C93.0511 46.5751 91.5111 46.8943 90.0811 47.4962C88.2811 48.2622 86.7511 49.4477 85.1511 50.4965C81.5911 52.8311 72.1011 58.5855 68.7311 53.3418C65.3611 48.0798 74.2711 42.4348 78.0911 39.9635V39.9817Z" fill="white"/>
<path opacity="0.1" d="M57.9 8.28333C57.59 7.72704 57.23 7.19811 56.82 6.69654C54.52 3.85126 50.82 2 46.64 2C39.66 2 34 7.16164 34 13.527C34 14.7855 34.22 15.9984 34.63 17.1292C34.78 17.5487 34.96 17.95 35.16 18.3421C37.16 22.3 41.55 25.0541 46.65 25.0541C53.63 25.0541 59.29 19.8925 59.29 13.527C59.29 11.6393 58.79 9.86101 57.91 8.28333H57.9Z" fill="white"/>
<path d="M56.2795 9.0042C56.0095 8.52087 55.6995 8.06489 55.3495 7.63627C55.1695 7.41741 54.9795 7.19854 54.7895 6.99791C54.8495 7.0891 54.8995 7.1803 54.9495 7.27149C55.7095 8.6303 56.1395 10.1624 56.1395 11.7948C56.1395 17.2847 51.2595 21.735 45.2395 21.735C41.9595 21.735 39.0195 20.4127 37.0195 18.3244C38.8795 21.3885 42.4595 23.4677 46.5695 23.4677C52.5895 23.4677 57.4695 19.0174 57.4695 13.5275C57.4695 11.8951 57.0395 10.363 56.2795 9.0042Z" fill="#858583"/>
<path d="M45.2402 21.7437C51.2602 21.7437 56.1402 17.2934 56.1402 11.8035C56.1402 10.1711 55.7102 8.639 54.9502 7.28021C54.9002 7.18901 54.8402 7.09781 54.7902 7.00662C52.7902 4.91826 49.8502 3.59593 46.5702 3.59593C40.5402 3.58681 35.6602 8.03713 35.6602 13.527C35.6602 14.6123 35.8502 15.661 36.2002 16.6368C36.3302 16.9925 36.4802 17.3481 36.6502 17.6855C36.7602 17.9044 36.8802 18.1142 37.0002 18.3239C39.0002 20.4123 41.9402 21.7346 45.2202 21.7346L45.2402 21.7437Z" fill="#B3B3B0"/>
<path opacity="0.7" d="M40.5913 6.49483C40.9513 6.26684 41.3113 6.02974 41.6713 5.80175C42.4713 5.28194 43.3713 4.74389 44.3413 4.8442C44.7713 4.8898 45.2313 5.11779 45.3013 5.50992C45.3413 5.73791 45.2413 5.95678 45.1213 6.15741C44.7413 6.78665 44.1013 7.27911 43.3613 7.52533C43.1113 7.60741 42.8513 7.66213 42.6113 7.76244C42.3113 7.89011 42.0513 8.09074 41.7813 8.26401C41.1813 8.65615 39.5813 9.62282 39.0213 8.74735C38.4513 7.86275 39.9513 6.91433 40.6013 6.49483H40.5913Z" fill="white"/>
</g>
</g>
</g>
<defs>
<linearGradient id="paint0_linear_1_2" x1="129.099" y1="19.8728" x2="129.099" y2="174.075" gradientUnits="userSpaceOnUse">
<stop stop-color="#65884A"/>
<stop offset="1" stop-color="#3B4A36"/>
</linearGradient>
<linearGradient id="paint1_linear_1_2" x1="96.5015" y1="19.8726" x2="96.5015" y2="174.074" gradientUnits="userSpaceOnUse">
<stop stop-color="#65884A"/>
<stop offset="1" stop-color="#3B4A36"/>
</linearGradient>
<linearGradient id="paint2_linear_1_2" x1="80.3094" y1="19.8728" x2="80.3094" y2="174.074" gradientUnits="userSpaceOnUse">
<stop stop-color="#65884A"/>
<stop offset="1" stop-color="#3B4A36"/>
</linearGradient>
<linearGradient id="paint3_linear_1_2" x1="65.9508" y1="19.8739" x2="65.9508" y2="174.076" gradientUnits="userSpaceOnUse">
<stop stop-color="#65884A"/>
<stop offset="1" stop-color="#3B4A36"/>
</linearGradient>
<linearGradient id="paint4_linear_1_2" x1="100.589" y1="19.8728" x2="100.589" y2="174.074" gradientUnits="userSpaceOnUse">
<stop stop-color="#65884A"/>
<stop offset="1" stop-color="#3B4A36"/>
</linearGradient>
<clipPath id="clip0_1_2">
<rect width="210" height="142" fill="white"/>
</clipPath>
<clipPath id="clip1_1_2">
<rect width="149" height="145" fill="white" transform="translate(34 2)"/>
</clipPath>
</defs>
</svg>
