<svg width="210" height="142" viewBox="0 0 210 142" fill="none" xmlns="http://www.w3.org/2000/svg">
<g clip-path="url(#clip0_1_2)">
<g clip-path="url(#clip1_1_2)">
<mask id="mask0_1_2" style="mask-type:luminance" maskUnits="userSpaceOnUse" x="34" y="3" width="143" height="143">
<path d="M176.45 3H34V145.45H176.45V3Z" fill="white"/>
</mask>
<g mask="url(#mask0_1_2)">
<path opacity="0.1" d="M168.68 41.84C166.92 38.4 164.88 35.12 162.61 32.03C149.64 14.43 128.77 3 105.23 3C65.89 3 34 34.89 34 74.23C34 82 35.25 89.48 37.55 96.48C38.4 99.06 39.39 101.56 40.51 104C51.78 128.47 76.52 145.45 105.22 145.45C144.56 145.45 176.45 113.56 176.45 74.22C176.45 62.56 173.65 51.55 168.68 41.83V41.84Z" fill="white"/>
<path d="M162.52 44.7502C160.92 41.6202 159.06 38.6402 156.99 35.8302C155.93 34.3902 154.81 33.0002 153.64 31.6602C153.97 32.2602 154.3 32.8502 154.61 33.4602C159.13 42.3002 161.68 52.3202 161.68 62.9302C161.68 98.7302 132.66 127.74 96.87 127.74C77.37 127.74 59.88 119.12 48 105.49C59.03 125.49 80.32 139.04 104.78 139.04C140.58 139.04 169.59 110.02 169.59 74.2302C169.59 63.6202 167.04 53.6002 162.52 44.7602V44.7502Z" fill="#858583"/>
<path d="M96.8709 127.74C132.671 127.74 161.681 98.7202 161.681 62.9302C161.681 52.3202 159.131 42.3002 154.611 33.4602C154.301 32.8502 153.971 32.2602 153.641 31.6602C141.761 18.0302 124.281 9.41016 104.771 9.41016C68.9809 9.41016 39.9609 38.4302 39.9609 74.2302C39.9609 81.3002 41.1009 88.1102 43.1909 94.4802C43.9609 96.8202 44.8609 99.1102 45.8909 101.32C46.5409 102.74 47.2509 104.13 48.0009 105.49C59.8809 119.12 77.3709 127.74 96.8709 127.74Z" fill="#B3B3B0"/>
<path opacity="0.7" d="M69.2317 28.4107C71.3617 26.9007 73.4917 25.3907 75.6317 23.8807C80.3817 20.5207 85.7317 16.9907 91.5117 17.6607C94.0517 17.9507 96.7817 19.4507 97.2117 21.9707C97.4617 23.4307 96.8817 24.9107 96.1617 26.2007C93.8917 30.3007 90.0917 33.5307 85.6717 35.1107C84.1917 35.6407 82.6517 35.9907 81.2217 36.6507C79.4217 37.4907 77.8917 38.7907 76.2917 39.9407C72.7317 42.5007 63.2417 48.8107 59.8717 43.0607C56.5017 37.2907 65.4117 31.1007 69.2317 28.3907V28.4107Z" fill="white"/>
<path d="M93.9916 106.401C93.9916 99.1714 99.3916 93.2114 106.382 92.3214C105.782 92.2414 105.182 92.1914 104.562 92.1914C96.7116 92.1914 90.3516 98.5514 90.3516 106.401C90.3516 114.251 96.7116 120.611 104.562 120.611C105.182 120.611 105.782 120.561 106.382 120.481C99.3916 119.581 93.9916 113.631 93.9916 106.401Z" fill="#625E5F"/>
<path d="M118.768 106.4C118.768 99.1703 113.368 93.2103 106.378 92.3203C99.3883 93.2203 93.9883 99.1703 93.9883 106.4C93.9883 113.63 99.3883 119.59 106.378 120.48C113.368 119.58 118.768 113.63 118.768 106.4Z" fill="#7F7B7D"/>
<path d="M112.81 28.2092C112.81 24.1292 115.86 20.7692 119.8 20.2692C119.46 20.2292 119.12 20.1992 118.77 20.1992C114.34 20.1992 110.75 23.7892 110.75 28.2192C110.75 32.6492 114.34 36.2392 118.77 36.2392C119.12 36.2392 119.46 36.2092 119.8 36.1692C115.86 35.6592 112.81 32.3092 112.81 28.2292V28.2092Z" fill="#625E5F"/>
<path d="M126.789 28.2095C126.789 24.1295 123.739 20.7695 119.799 20.2695C115.859 20.7795 112.809 24.1295 112.809 28.2095C112.809 32.2895 115.859 35.6495 119.799 36.1495C123.739 35.6395 126.789 32.2895 126.789 28.2095Z" fill="#7F7B7D"/>
<path d="M130.769 45.4317C130.769 42.8017 132.729 40.6417 135.269 40.3117C135.049 40.2817 134.829 40.2617 134.609 40.2617C131.759 40.2617 129.449 42.5717 129.449 45.4217C129.449 48.2717 131.759 50.5817 134.609 50.5817C134.829 50.5817 135.049 50.5617 135.269 50.5317C132.729 50.2017 130.769 48.0417 130.769 45.4117V45.4317Z" fill="#625E5F"/>
<path d="M139.77 45.4286C139.77 42.7986 137.81 40.6386 135.27 40.3086C132.729 40.6386 130.77 42.7986 130.77 45.4286C130.77 48.0586 132.729 50.2186 135.27 50.5486C137.81 50.2186 139.77 48.0586 139.77 45.4286Z" fill="#7F7B7D"/>
<path d="M55.6899 94.6192C54.0999 90.0592 55.6399 85.2992 59.1299 83.4492C58.7999 83.5092 58.4699 83.5892 58.1399 83.6992C53.9999 85.1492 52.0399 90.3392 53.7699 95.2892C55.4999 100.239 60.2599 103.089 64.4099 101.639C64.7399 101.529 65.0399 101.379 65.3399 101.219C61.4499 101.939 57.2899 99.1792 55.6899 94.6192Z" fill="#625E5F"/>
<path d="M68.7713 90.0482C67.1813 85.4882 63.0113 82.7182 59.1213 83.4482C55.6313 85.2982 54.0913 90.0582 55.6813 94.6182C57.2713 99.1782 61.4413 101.948 65.3313 101.218C68.8213 99.3682 70.3613 94.6082 68.7713 90.0482Z" fill="#7F7B7D"/>
<path d="M61.8304 75.9702C61.4104 74.7802 61.9904 73.4702 63.1304 72.9102C63.0204 72.9302 62.9204 72.9602 62.8104 73.0002C61.4704 73.4702 60.7504 74.9002 61.2004 76.1902C61.6504 77.4902 63.1104 78.1602 64.4504 77.6902C64.5604 77.6502 64.6604 77.6102 64.7504 77.5602C63.5104 77.8302 62.2404 77.1702 61.8204 75.9702H61.8304Z" fill="#625E5F"/>
<path d="M66.0581 74.49C65.6381 73.3 64.3781 72.64 63.1281 72.9C61.9881 73.46 61.4081 74.77 61.8281 75.96C62.2481 77.15 63.5081 77.81 64.7581 77.55C65.8981 76.99 66.4781 75.68 66.0581 74.49Z" fill="#7F7B7D"/>
<path d="M127.669 102.828C127.199 100.838 128.309 98.8484 130.169 98.1484C129.999 98.1684 129.828 98.1884 129.658 98.2284C127.498 98.7384 126.148 100.898 126.658 103.068C127.168 105.228 129.328 106.578 131.498 106.068C131.668 106.028 131.829 105.978 131.989 105.918C130.009 106.128 128.128 104.828 127.658 102.838L127.669 102.828Z" fill="#625E5F"/>
<path d="M134.501 101.221C134.031 99.2315 132.161 97.9415 130.171 98.1415C128.301 98.8415 127.201 100.832 127.671 102.822C128.141 104.811 130.011 106.101 132.001 105.901C133.871 105.201 134.971 103.211 134.501 101.221Z" fill="#7F7B7D"/>
<path d="M111.61 50.8697C111.42 50.0497 111.87 49.2197 112.65 48.9297C112.58 48.9297 112.51 48.9497 112.44 48.9597C111.55 49.1697 110.99 50.0697 111.2 50.9597C111.41 51.8497 112.31 52.4097 113.2 52.1997C113.27 52.1797 113.34 52.1597 113.4 52.1397C112.58 52.2197 111.8 51.6897 111.61 50.8697Z" fill="#625E5F"/>
<path d="M114.431 50.2095C114.241 49.3895 113.461 48.8495 112.641 48.9395C111.871 49.2295 111.411 50.0495 111.601 50.8795C111.791 51.6995 112.571 52.2395 113.391 52.1495C114.161 51.8595 114.621 51.0395 114.431 50.2095Z" fill="#7F7B7D"/>
<path d="M99.6188 27.8686C99.8188 27.0486 100.599 26.5186 101.419 26.6086C101.349 26.5786 101.289 26.5586 101.219 26.5486C100.329 26.3386 99.4288 26.8886 99.2088 27.7786C98.9988 28.6686 99.5488 29.5686 100.439 29.7886C100.509 29.8086 100.579 29.8186 100.649 29.8186C99.8788 29.5286 99.4288 28.6986 99.6188 27.8786V27.8686Z" fill="#625E5F"/>
<path d="M102.44 28.5398C102.64 27.7198 102.19 26.8898 101.41 26.5998C100.59 26.5098 99.8099 27.0398 99.6099 27.8598C99.4099 28.6798 99.8599 29.5098 100.64 29.7998C101.46 29.8898 102.24 29.3598 102.44 28.5398Z" fill="#7F7B7D"/>
<path d="M138.271 29.5209C138.471 28.7009 139.251 28.1709 140.071 28.2609C140.001 28.2309 139.941 28.2109 139.871 28.2009C138.981 27.9909 138.081 28.5409 137.861 29.4309C137.651 30.3209 138.201 31.2209 139.091 31.4409C139.161 31.4609 139.231 31.4709 139.301 31.4809C138.531 31.1909 138.081 30.3609 138.271 29.5409V29.5209Z" fill="#625E5F"/>
<path d="M141.088 30.1999C141.288 29.3799 140.838 28.5499 140.058 28.2599C139.238 28.1699 138.458 28.6999 138.258 29.5199C138.058 30.3399 138.508 31.1699 139.288 31.4599C140.108 31.5499 140.888 31.0199 141.088 30.1999Z" fill="#7F7B7D"/>
<path d="M75.3213 112.381C75.1313 111.561 75.5813 110.731 76.3613 110.441C76.2913 110.441 76.2213 110.461 76.1513 110.471C75.2613 110.681 74.7013 111.581 74.9113 112.471C75.1213 113.361 76.0213 113.921 76.9113 113.711C76.9813 113.691 77.0513 113.671 77.1113 113.651C76.2913 113.731 75.5113 113.201 75.3213 112.381Z" fill="#625E5F"/>
<path d="M78.1501 111.721C77.9601 110.901 77.1801 110.361 76.3601 110.451C75.5901 110.741 75.1301 111.561 75.3201 112.391C75.5101 113.221 76.2901 113.751 77.1101 113.661C77.8801 113.371 78.3401 112.551 78.1501 111.721Z" fill="#7F7B7D"/>
</g>
</g>
</g>
<defs>
<clipPath id="clip0_1_2">
<rect width="210" height="142" fill="white"/>
</clipPath>
<clipPath id="clip1_1_2">
<rect width="143" height="143" fill="white" transform="translate(34 3)"/>
</clipPath>
</defs>
</svg>
