<svg width="210" height="142" viewBox="0 0 210 142" fill="none" xmlns="http://www.w3.org/2000/svg">
<g clip-path="url(#clip0_1_2)">
<path d="M133.913 110.25C155.805 89.9535 155.805 57.0465 133.913 36.75C112.022 16.4535 76.5292 16.4535 54.6378 36.75C32.7465 57.0465 32.7465 89.9535 54.6378 110.25C76.5292 130.546 112.022 130.546 133.913 110.25Z" fill="#405182"/>
<path opacity="0.3" d="M79.2633 50.4574C69.1658 58.275 57.952 61.2709 54.2162 57.1511C50.4805 53.0314 55.6392 43.3572 65.7367 35.5426C75.8342 27.725 87.048 24.7291 90.7838 28.8488C94.5195 32.9686 89.3608 42.6428 79.2633 50.4574Z" fill="#0BD6D6"/>
<path opacity="0.3" d="M72.792 75.5264C80.5498 85.3522 81.1137 96.8875 74.0496 101.29C66.9855 105.693 54.9694 101.299 47.2081 91.4736C39.4502 81.6478 38.8863 70.1125 45.9504 65.7097C53.0145 61.3069 65.0307 65.7006 72.792 75.5264Z" fill="#0BD6D6"/>
<path opacity="0.1" d="M118.174 87.3244C127.461 77.1286 139.835 72.2976 145.813 76.5373C151.793 80.7769 149.112 92.4768 139.825 102.676C130.537 112.871 118.163 117.702 112.186 113.463C106.209 109.223 108.886 97.5232 118.174 87.3244Z" fill="#0BD6D6"/>
<path opacity="0.3" d="M75.6172 91.8889C81.7952 100.636 83.8427 109.791 80.1869 112.338C76.5312 114.885 68.5608 109.858 62.3828 101.111C56.2048 92.3637 54.1573 83.2089 57.8131 80.662C61.4688 78.1151 69.4392 83.1415 75.6172 91.8889Z" fill="#0BD6D6"/>
<path opacity="0.3" d="M75.0193 62.7256C71.7224 72.3116 65.4572 79.0848 61.0299 77.856C56.5994 76.6273 55.6804 67.8604 58.9807 58.2744C62.2776 48.6884 68.5428 41.9152 72.9701 43.144C77.4006 44.3727 78.3196 53.1396 75.0193 62.7226V62.7256Z" fill="#0BD6D6"/>
<path opacity="0.3" d="M100.196 47.8814C87.7767 48.7029 77.3952 45.17 77.011 39.9882C76.6267 34.8064 86.3846 29.9401 98.8039 29.1186C111.223 28.2971 121.605 31.83 121.989 37.0118C122.373 42.1936 112.615 47.0599 100.196 47.8814Z" fill="#0BD6D6"/>
<path d="M40.661 90.2103C40.661 90.2103 26.556 99.9952 30.0689 104.894C33.5819 109.789 68.3795 104.86 107.862 82.87C150.858 58.9234 170.913 40.332 166.752 36.5423C160.563 30.9074 136.972 40.7669 136.972 40.7669L135.634 39.3597C135.634 39.3597 168.841 27.5091 179.968 33.8833C188.166 38.58 189.248 56.839 129.445 88.5049C85.1109 111.983 38.433 118.711 25.7192 110.886C17.7736 105.997 39.9471 87.8774 39.9471 87.8774L40.661 90.2103Z" fill="#161C16"/>
<path d="M32 106.913C32 106.913 48.2279 109.12 72.7997 100.771C89.1709 95.2087 111.757 86.1264 125.939 78.1755C153.013 62.9973 171.523 40.9814 173.033 37.0412C174.546 33.101 166.485 32.0584 166.485 32.0584C166.485 32.0584 180.21 31.0159 177.691 37.7372C175.172 44.4585 167.115 56.9721 130.47 78.525C100.7 96.0336 76.4518 103.669 47.3615 107.609C38.6278 108.792 32 106.913 32 106.913Z" fill="#A5C3FF"/>
<path d="M96 99C96 99 144.795 77.001 162.846 58.0268C174.747 45.518 176.911 40.334 177.784 38.0054C178.657 35.6767 176.539 33 176.539 33C176.539 33 180.693 35.0945 179.899 38.9356C178.529 45.5704 167.701 59.8873 147.782 72.6918C125.304 87.1442 96 98.9969 96 98.9969V99Z" fill="#161C16"/>
</g>
<defs>
<clipPath id="clip0_1_2">
<rect width="210" height="142" fill="white"/>
</clipPath>
</defs>
</svg>
