<svg width="210" height="142" viewBox="0 0 210 142" fill="none" xmlns="http://www.w3.org/2000/svg">
<g clip-path="url(#clip0_1_2)">
<path d="M171.848 29.6607L168.205 27.6763C168.205 27.6763 161.514 26.684 152.914 29.1198C144.311 31.5556 135.801 35.6177 135.801 35.6177L146.641 50.8844L157.289 56.9739L172.036 35.4529L171.844 29.6607H171.848Z" fill="#7D0D98"/>
<path d="M52.8383 60.627C52.8383 60.627 39.8518 68.8227 32.9356 75.3206C27.6492 80.2853 23.2878 89.219 23.2878 89.219L44.2384 99.206L61.0335 89.459L52.8419 60.627H52.8383Z" fill="#7D0D98"/>
<path d="M103.839 131.597C137.552 131.597 164.881 104.505 164.881 71.0857C164.881 37.6659 137.552 10.574 103.839 10.574C70.1271 10.574 42.7978 37.6659 42.7978 71.0857C42.7978 104.505 70.1271 131.597 103.839 131.597Z" fill="#34256B"/>
<g filter="url(#filter0_d_1_2)">
<path d="M112.71 115.765C110.596 106.326 107.369 101.39 100.193 94.8312C94.7368 89.845 90.1621 88.011 90.1802 80.1412C90.191 75.1693 92.1495 72.0314 93.5696 67.4535C95.5317 61.1312 91.528 54.0638 92.229 47.1504C92.6409 43.0955 94.8596 39.6997 95.7991 35.7702C96.7964 31.5971 95.9978 27.6855 95.0041 23.5088C94.1477 19.9231 92.8866 15.7931 92.1857 11.6558C88.2001 12.4188 84.3554 13.5686 80.6841 15.0588C82.8414 17.1901 84.1169 20.6898 83.6327 24.0032C82.9787 28.4557 79.0726 32.3995 77.4791 36.5834C75.6832 41.3081 74.5522 46.2263 75.011 51.302C75.4916 56.6214 77.2984 61.6864 77.0671 67.1598C76.8467 72.4111 75.6796 77.1645 77.0671 82.3871C78.5884 88.1184 81.2731 90.5936 84.8469 95.0425C87.8206 98.7428 87.9507 103.217 90.061 107.246C94.0213 114.812 102.625 116.177 104.193 125.905C104.453 127.51 104.403 129.548 104.457 131.569C107.655 131.537 110.795 131.261 113.859 130.76C114.452 125.848 113.747 120.418 112.703 115.765H112.71Z" fill="#EC6162"/>
</g>
<path d="M84.854 111.303C81.8224 105.575 79.2894 102.104 73.8874 98.3891C70.9496 96.3688 68.5865 95.1616 66.5124 92.1276C62.6568 86.493 62.7363 79.8483 62.7363 73.1427C62.7363 65.6706 60.2756 59.1332 60.6876 51.6109C61.0561 44.8946 64.124 40.0731 65.6922 33.7436C66.5486 30.2906 66.6967 26.1281 67.629 22.3419C61.6343 26.7299 56.4779 32.1747 52.4418 38.4039C53.5475 43.6122 56.4093 48.3118 55.4517 53.9572C54.0606 62.1601 48.7958 68.658 52.0877 77.194C53.6776 81.3241 55.8312 84.0142 56.2756 88.4739C56.5935 91.6727 56.6369 95.3157 58.3244 98.2207C59.8782 100.9 62.6713 102.182 64.8068 104.321C67.2315 106.753 68.2468 109.475 69.6995 112.52C72.2035 117.761 76.0735 121.74 79.1883 126.425C83.0438 128.116 87.1125 129.424 91.3366 130.295C90.7259 123.56 88.5397 118.255 84.854 111.299V111.303Z" fill="#EC6162"/>
<path d="M148.04 98.2213C145.493 92.1533 147.837 85.3867 144.958 79.0967C144.098 77.2233 143.144 75.0919 141.402 73.8382C139.877 72.7421 138.479 73.4943 137.287 71.9397C135.505 69.6113 136.054 63.8263 136.058 60.9571C136.069 52.242 137.464 43.6952 141.28 35.7824C142.211 33.8517 143.444 29.9401 145.157 26.5228C141.901 23.5532 138.316 20.9276 134.464 18.7103C135.025 28.0524 131.118 37.5412 127.978 46.2312C124.473 55.9279 120.77 73.1576 129.413 81.3749C132.271 84.0936 135.288 85.0429 136.456 88.9796C137.521 92.5724 136.079 95.9681 136.058 99.5355C136.036 102.87 136.564 107.466 139.007 110.093C140.889 112.116 143.798 113.065 146.57 114.28C150.017 110.931 153.059 107.183 155.632 103.107C152.543 102.431 149.608 101.961 148.04 98.2249V98.2213Z" fill="#EC6162"/>
<path d="M118.03 14.2445C118.033 13.5854 118.04 12.8977 118.073 12.2028C114.355 11.3216 110.506 10.7807 106.56 10.6087C106.571 24.6719 106.405 39.4551 103.691 53.2173C102.492 59.314 102.054 65.203 102.054 71.4178C102.054 77.6327 102.405 79.6028 106.47 84.1879C109.455 87.5514 111.081 91.4594 111.897 95.8689C112.729 100.372 113.306 100.848 115.879 104.513C117.263 106.482 117.766 108.911 118.51 111.24C125.575 111.014 115.547 87.4331 115.143 84.0876C114.455 78.4064 113.614 76.2141 109.603 71.579C106.065 67.4918 104.385 66.2954 106.961 61.1659C109.205 56.7027 111.167 53.0382 111.489 48.0449C111.753 43.904 109.798 40.304 110.25 36.1596C111.164 27.7775 117.964 22.8738 118.033 14.2445H118.03Z" fill="#EC6162"/>
<path d="M153.717 36.1657C153.041 37.4266 152.423 38.5442 152.03 39.4111C147.78 48.7316 148.896 58.5393 151.701 68.2431C153.215 73.48 157.28 85.1289 162.53 87.7474C164.062 82.4459 164.883 76.8507 164.883 71.0622C164.883 58.0664 160.749 46.0307 153.717 36.1693V36.1657Z" fill="#EC6162"/>
<path opacity="0.2" d="M146.701 114.796C170.817 91.4415 171.265 53.1278 147.706 29.2247C127.872 9.09714 97.3422 5.60106 73.7936 18.9371C75.1162 20.8105 77.2661 22.4941 80.4098 23.8122C92.11 28.7304 106.04 28.3364 117.82 32.9716C142.52 42.6933 160.397 64.8233 144.808 90.6141C138.491 101.066 126.687 109.807 114.611 111.369C100.706 113.17 92.9014 102.582 85.8155 92.3836C78.7657 82.2428 72.2616 61.6353 59.0726 57.3511C55.5748 56.2155 45.9595 55.6675 43.5205 63.6053C41.1718 81.3688 46.7689 99.9883 60.3807 113.797C83.9401 137.704 122.589 138.148 146.701 114.793V114.796Z" fill="#9CE8E6"/>
<path opacity="0.1" d="M86.5733 65.9539C78.7069 75.7974 66.5767 79.2613 59.48 73.6912C52.3832 68.1175 53.0047 55.6197 60.8711 45.7762C68.7375 35.9327 80.8677 32.4688 87.9644 38.0389C95.0612 43.6126 94.4397 56.1104 86.5733 65.9539Z" fill="white"/>
<path d="M23.6447 87.9569C23.6447 87.9569 46.5862 101.673 111.411 76.0609C162.978 55.6861 168.203 27.6781 168.203 27.6781C168.203 27.6781 174.179 27.9073 178.588 32.6141C183.914 38.2988 177.359 49.2635 177.359 49.2635C177.359 49.2635 163.433 76.8776 121.652 95.1497C69.2424 118.072 26.5571 113.59 22.5246 99.2114C20.8732 93.33 23.6483 87.9641 23.6483 87.9641L23.6447 87.9569Z" fill="#4B3B94"/>
<path d="M27.9658 93.7827L25.5195 97.8125C25.5195 97.8125 35.2504 102.204 46.7338 101.459C75.0883 99.6175 99.2006 92.074 107.793 88.8108C117.715 85.0388 124.39 81.052 124.39 81.052L128.462 71.8175C128.462 71.8175 117.304 78.8276 104.978 83.1475C91.3017 87.9439 67.6375 94.9433 47.2072 96.0286C35.142 96.6698 27.9694 93.7827 27.9694 93.7827H27.9658Z" fill="#EC6162"/>
</g>
<defs>
<filter id="filter0_d_1_2" x="70.9088" y="11.6558" width="47.1664" height="127.913" filterUnits="userSpaceOnUse" color-interpolation-filters="sRGB">
<feFlood flood-opacity="0" result="BackgroundImageFix"/>
<feColorMatrix in="SourceAlpha" type="matrix" values="0 0 0 0 0 0 0 0 0 0 0 0 0 0 0 0 0 0 127 0" result="hardAlpha"/>
<feOffset dy="4"/>
<feGaussianBlur stdDeviation="2"/>
<feComposite in2="hardAlpha" operator="out"/>
<feColorMatrix type="matrix" values="0 0 0 0 0 0 0 0 0 0 0 0 0 0 0 0 0 0 0.25 0"/>
<feBlend mode="normal" in2="BackgroundImageFix" result="effect1_dropShadow_1_2"/>
<feBlend mode="normal" in="SourceGraphic" in2="effect1_dropShadow_1_2" result="shape"/>
</filter>
<clipPath id="clip0_1_2">
<rect width="159" height="122" fill="white" transform="translate(22 10)"/>
</clipPath>
</defs>
</svg>
