<svg width="217" height="143" viewBox="0 0 217 143" fill="none" xmlns="http://www.w3.org/2000/svg">
<g clip-path="url(#clip0_1792_8859)">
<path d="M152.2 24.149C149.64 21.769 146.9 19.619 144.01 17.689C141.55 16.049 138.98 14.589 136.33 13.309C133.81 12.089 131.21 11.039 128.56 10.159C115.29 5.73902 100.49 5.59902 86.3196 10.749C52.9096 22.889 35.6696 59.819 47.8096 93.229C50.2096 99.829 53.5796 105.799 57.6896 111.039C59.1996 112.969 60.8196 114.789 62.5296 116.509C64.6596 118.659 66.9196 120.639 69.3096 122.459C72.4696 124.859 75.8396 126.969 79.3796 128.739C94.6596 136.429 112.94 138.049 130.29 131.739C163.7 119.599 180.94 82.669 168.8 49.259C165.2 39.359 159.42 30.869 152.2 24.149Z" fill="#ECE7E7"/>
<path d="M46.7891 52.281C46.7891 52.281 104.569 58.461 144.009 17.701C144.009 17.701 121.519 1.991 88.6991 12.251C55.8791 22.511 46.7891 52.281 46.7891 52.281Z" fill="#A69B8A"/>
<path d="M45.0391 80.1019C45.0391 80.1019 102.699 90.4519 162.489 37.4219C162.489 37.4219 175.709 56.8719 171.639 82.7519C171.639 82.7519 121.219 127.902 64.9791 118.852C64.9791 118.852 47.2991 104.272 45.0391 80.1019Z" fill="#A69B8A"/>
<path d="M46.7891 52.279C46.7891 52.279 101.019 52.909 144.009 17.699C144.009 17.699 120.759 -0.100996 87.9391 10.159C55.1191 20.419 46.7891 52.279 46.7891 52.279Z" fill="#D0C3AD"/>
<path d="M44.2812 78.0081C44.2812 78.0081 101.941 88.3581 161.731 35.3281C161.731 35.3281 176.201 53.6981 172.131 79.5781C172.131 79.5781 118.771 125.558 62.5312 116.498C62.5312 116.498 46.5412 102.178 44.2812 78.0081Z" fill="#D0C3AD"/>
<path d="M91.2188 133.299C91.2188 133.299 128.779 132.319 161.239 107.859C161.239 107.859 152.679 123.919 130.279 131.739C107.879 139.559 91.2188 133.299 91.2188 133.299Z" fill="#D0C3AD"/>
<path opacity="0.1" d="M162.028 24.4699C160.398 22.5999 158.678 20.8099 156.878 19.1399C154.048 16.5099 151.018 14.12 147.818 12C129.618 -0.13005 106.098 -3.74005 83.9783 4.29995C55.3383 14.7099 37.4483 41.5599 37.0683 70.3299C12.8683 83.0699 -15.1917 101.07 -10.4817 114.05C-7.3517 122.67 7.0783 124.96 33.6183 121.05C39.9583 120.12 46.7683 118.84 53.9383 117.27C55.1283 118.67 56.3583 120.02 57.6483 121.32C76.5983 140.46 105.648 147.98 132.628 138.18C161.408 127.72 179.348 100.64 179.538 71.7099C186.228 68.2299 192.428 64.75 198.018 61.31C220.878 47.27 230.468 36.25 227.338 27.6299C222.598 14.5699 189.018 18.6199 162.028 24.4599V24.4699ZM-3.0417 111.35C-3.9417 108.88 0.508305 98.3099 37.4683 78.8199C38.0683 84.4199 39.3483 90.0299 41.3583 95.5599C43.2883 100.86 45.7783 105.78 48.7383 110.3C43.0383 111.49 37.5983 112.47 32.4683 113.23C-0.211697 118.05 -3.0217 111.42 -3.0517 111.35H-3.0417ZM193.888 54.58C189.338 57.37 184.378 60.2 179.068 63.0299C178.438 57.6399 177.178 52.24 175.248 46.91C173.178 41.2099 170.448 35.9399 167.188 31.1399C208.338 22.25 219.008 27.84 219.918 30.33C219.938 30.4 222.048 37.2799 193.898 54.57L193.888 54.58Z" fill="white"/>
<path d="M117.779 96.5805C88.6994 107.15 60.4894 114.76 38.3294 118.03C13.4394 121.7 -0.0806184 119.55 -3.02062 111.46C-7.60062 98.8504 20.7694 81.2104 43.9594 69.2104L44.2094 77.2505C7.44938 96.2804 3.08938 106.56 3.94938 108.93C3.96938 108.99 6.60938 115.21 37.2494 110.69C58.9294 107.5 86.6294 100.01 115.249 89.6105C143.869 79.2104 169.919 67.1705 188.589 55.7005C214.989 39.4905 213.009 33.0305 212.989 32.9705C212.119 30.5805 201.679 25.1505 160.879 34.3205L156.049 28.0605C181.759 22.2905 215.359 17.7605 219.969 30.4405C222.909 38.5305 213.919 48.8605 192.479 62.0205C173.389 73.7405 146.869 86.0205 117.789 96.5805H117.779Z" fill="#A69B8A"/>
</g>
<defs>
<clipPath id="clip0_1792_8859">
<rect width="238.92" height="142.49" fill="white" transform="translate(-11)"/>
</clipPath>
</defs>
</svg>
