<svg width="210" height="154" viewBox="0 0 210 154" fill="none" xmlns="http://www.w3.org/2000/svg">
<g clip-path="url(#clip0_1792_8826)">
<path opacity="0.1" d="M168.961 47.8009C167.201 44.3609 165.161 41.0809 162.891 37.9909C149.921 20.3809 129.051 8.96094 105.511 8.96094C66.1713 8.96094 34.2812 40.8509 34.2812 80.1909C34.2812 87.9609 35.5313 95.4409 37.8313 102.441C38.6813 105.021 39.6713 107.521 40.7913 109.961C52.0613 134.431 76.8013 151.411 105.501 151.411C144.841 151.411 176.731 119.521 176.731 80.1809C176.731 68.5209 173.931 57.5109 168.961 47.7909V47.8009Z" fill="white"/>
<path d="M162.848 50.9203C161.258 47.8103 159.418 44.8503 157.358 42.0603C155.608 39.6803 153.688 37.4303 151.638 35.3203C149.688 33.3103 147.608 31.4403 145.408 29.7003C134.438 21.0203 120.578 15.8203 105.508 15.8203C69.9584 15.8203 41.1484 44.6403 41.1484 80.1803C41.1484 87.2003 42.2784 93.9603 44.3584 100.29C45.1184 102.62 46.0184 104.88 47.0384 107.09C48.2984 109.83 49.7584 112.47 51.3784 114.99C53.5284 118.33 55.9784 121.46 58.6984 124.33C70.4284 136.77 87.0684 144.54 105.518 144.54C141.068 144.54 169.878 115.72 169.878 80.1803C169.878 69.6403 167.348 59.6903 162.858 50.9103L162.848 50.9203Z" fill="#C5A458"/>
<path d="M73.5391 24.2983C73.5391 24.2983 104.209 39.8983 141.889 27.0983C141.889 27.0983 110.379 4.91834 73.5391 24.2983Z" fill="#876B32"/>
<path d="M59.8913 36.8008C59.8913 36.8008 92.8512 70.3108 157.891 43.5408C157.891 43.5408 164.811 51.3408 167.261 61.7608C167.261 61.7608 103.781 87.7308 48.2812 50.7008C48.2812 50.7008 54.8413 41.4808 59.8913 36.8008Z" fill="#876B32"/>
<path d="M74.6406 23.7005C74.6406 23.7005 102.921 39.0405 140.611 26.2405C140.611 26.2405 111.491 4.31051 74.6406 23.7005Z" fill="#B5893E"/>
<path d="M59.3686 35.3086C59.3686 35.3086 92.3286 68.8186 157.369 42.0486C157.369 42.0486 164.289 49.8486 166.739 60.2686C166.739 60.2686 104.299 86.7386 48.8086 49.7086C48.8086 49.7086 54.3186 39.9786 59.3786 35.3086H59.3686Z" fill="#B5893E"/>
<path d="M41.1484 84.0217C41.1484 84.0217 87.4984 120.862 167.588 97.2317C167.588 97.2317 164.698 105.842 162.838 109.472C162.838 109.472 102.918 133.282 42.8884 96.5717C42.8884 96.5717 41.4084 89.1117 41.1484 84.0117V84.0217Z" fill="#584B2E"/>
<path d="M41.1484 82.5312C41.1484 82.5312 87.9184 119.251 168.008 95.6213C168.008 95.6213 165.588 104.021 163.728 107.651C163.728 107.651 102.908 131.791 42.8884 95.0912C42.8884 95.0912 41.4084 87.6312 41.1484 82.5312Z" fill="#726137"/>
<path d="M50.2287 113.148C50.2287 113.148 90.3587 143.348 147.539 128.928C147.539 128.928 119.249 154.198 83.7687 140.778C83.7687 140.778 65.4888 136.288 50.2188 113.148H50.2287Z" fill="#B5893E"/>
<path opacity="0.7" d="M70.3918 42.2192C72.5218 40.7092 74.6518 39.1992 76.7918 37.6892C81.5418 34.3292 86.8918 30.7992 92.6718 31.4692C95.2118 31.7592 97.9418 33.2592 98.3718 35.7792C98.6218 37.2392 98.0418 38.7192 97.3218 40.0092C95.0518 44.1092 91.2518 47.3392 86.8318 48.9192C85.3518 49.4492 83.8118 49.7992 82.3818 50.4592C80.5818 51.2992 79.0518 52.5992 77.4518 53.7492C73.8918 56.3092 64.4018 62.6192 61.0318 56.8692C57.6618 51.0992 66.5718 44.9092 70.3918 42.1992V42.2192Z" fill="white"/>
<path d="M42.0409 69.4414C42.0409 69.4414 93.5009 112.331 169.871 80.1814C169.871 80.1814 169.941 89.2314 168.001 95.6214C168.001 95.6214 97.5009 120.251 41.1409 82.5314C41.1409 82.5314 41.1009 74.0214 42.0409 69.4414Z" fill="#B5893E"/>
<path opacity="0.5" d="M162.849 50.9203C161.259 47.8103 159.419 44.8503 157.359 42.0603C155.609 39.6803 153.689 37.4303 151.639 35.3203C152.809 37.1303 153.899 38.9903 154.889 40.9103C159.379 49.6903 161.909 59.6403 161.909 70.1803C161.909 105.73 133.089 134.54 97.5489 134.54C79.4289 134.54 63.0689 127.04 51.3789 114.99C62.8289 132.77 82.7989 144.54 105.519 144.54C141.069 144.54 169.879 115.72 169.879 80.1803C169.879 69.6403 167.349 59.6903 162.859 50.9103L162.849 50.9203Z" fill="#2F2E2E"/>
<path d="M132.669 84.4706C131.889 82.1206 132.819 79.5206 134.749 78.3906C134.569 78.4406 134.389 78.4906 134.209 78.5706C131.929 79.5206 130.768 82.3606 131.618 84.9206C132.468 87.4806 134.989 88.7806 137.269 87.8306C137.449 87.7606 137.619 87.6606 137.779 87.5706C135.659 88.1206 133.449 86.8406 132.669 84.4806V84.4706Z" fill="#876B32"/>
<path d="M139.848 81.4706C139.068 79.1106 136.858 77.8306 134.738 78.3806C132.808 79.5206 131.888 82.1106 132.658 84.4606C133.438 86.8106 135.648 88.1006 137.768 87.5506C139.698 86.4106 140.618 83.8206 139.848 81.4706Z" fill="#B5893E"/>
<path d="M140.631 73.951C141.061 72.891 142.121 72.391 143.081 72.721C143.011 72.671 142.931 72.621 142.851 72.581C141.831 72.051 140.621 72.561 140.151 73.701C139.681 74.851 140.131 76.201 141.151 76.731C141.231 76.771 141.311 76.801 141.391 76.831C140.531 76.231 140.191 75.001 140.621 73.941L140.631 73.951Z" fill="#876B32"/>
<path d="M143.861 75.6117C144.291 74.5517 143.941 73.3217 143.091 72.7217C142.131 72.3817 141.071 72.8917 140.641 73.9517C140.211 75.0117 140.561 76.2417 141.411 76.8417C142.371 77.1817 143.431 76.6717 143.861 75.6117Z" fill="#B5893E"/>
<path opacity="0.1" d="M182.619 6.89C182.309 6.28 181.949 5.7 181.539 5.15C179.239 2.03 175.529 0 171.359 0C164.379 0 158.719 5.66 158.719 12.64C158.719 14.02 158.939 15.35 159.349 16.59C159.499 17.05 159.679 17.49 159.879 17.92C161.879 22.26 166.269 25.28 171.369 25.28C178.349 25.28 184.009 19.62 184.009 12.64C184.009 10.57 183.509 8.62 182.629 6.89H182.619Z" fill="white"/>
<path d="M180.99 7.68047C180.72 7.15047 180.41 6.65047 180.06 6.18047C179.88 5.94047 179.69 5.70047 179.5 5.48047C179.56 5.58047 179.61 5.68047 179.66 5.78047C180.42 7.27047 180.85 8.95047 180.85 10.7405C180.85 16.7605 175.97 21.6405 169.95 21.6405C166.67 21.6405 163.73 20.1905 161.73 17.9005C163.59 21.2605 167.17 23.5405 171.28 23.5405C177.3 23.5405 182.18 18.6605 182.18 12.6405C182.18 10.8505 181.75 9.17047 180.99 7.68047Z" fill="#858583"/>
<path d="M169.949 21.65C175.969 21.65 180.849 16.77 180.849 10.75C180.849 8.96 180.419 7.28 179.659 5.79C179.609 5.69 179.549 5.59 179.499 5.49C177.499 3.2 174.559 1.75 171.279 1.75C165.259 1.75 160.379 6.63 160.379 12.65C160.379 13.84 160.569 14.99 160.919 16.06C161.049 16.45 161.199 16.84 161.369 17.21C161.479 17.45 161.599 17.68 161.719 17.91C163.719 20.2 166.659 21.65 169.939 21.65H169.949Z" fill="#B3B3B0"/>
<path opacity="0.7" d="M165.298 4.92881C165.658 4.67881 166.018 4.41881 166.378 4.16881C167.178 3.59881 168.078 3.00881 169.048 3.11881C169.478 3.16881 169.938 3.41881 170.008 3.84881C170.048 4.09881 169.948 4.33881 169.828 4.55881C169.448 5.24881 168.808 5.78881 168.068 6.05881C167.818 6.14881 167.558 6.20881 167.318 6.31881C167.018 6.45881 166.758 6.67881 166.488 6.86881C165.888 7.29881 164.288 8.35881 163.728 7.39881C163.158 6.42881 164.658 5.38881 165.308 4.92881H165.298Z" fill="white"/>
<path opacity="0.1" d="M23.9 62.0189C23.59 61.4089 23.23 60.8289 22.82 60.2789C20.52 57.1589 16.81 55.1289 12.64 55.1289C5.66 55.1289 0 60.7889 0 67.7689C0 69.1489 0.22 70.4789 0.63 71.7189C0.78 72.1789 0.96 72.6189 1.16 73.0489C3.16 77.3889 7.55 80.4089 12.65 80.4089C19.63 80.4089 25.29 74.7489 25.29 67.7689C25.29 65.6989 24.79 63.7489 23.91 62.0189H23.9Z" fill="white"/>
<path d="M22.2795 62.8094C22.0095 62.2794 21.6995 61.7794 21.3495 61.3094C21.1695 61.0694 20.9795 60.8294 20.7895 60.6094C20.8495 60.7094 20.8995 60.8094 20.9495 60.9094C21.7095 62.3994 22.1395 64.0794 22.1395 65.8694C22.1395 71.8894 17.2595 76.7694 11.2395 76.7694C7.95953 76.7694 5.01953 75.3194 3.01953 73.0294C4.87953 76.3894 8.45953 78.6694 12.5695 78.6694C18.5895 78.6694 23.4695 73.7894 23.4695 67.7694C23.4695 65.9794 23.0395 64.2994 22.2795 62.8094Z" fill="#858583"/>
<path d="M11.2419 76.7711C17.2619 76.7711 22.1419 71.8911 22.1419 65.8711C22.1419 64.0811 21.7119 62.4011 20.9519 60.9111C20.9019 60.8111 20.8419 60.7111 20.7919 60.6111C18.7919 58.3211 15.8519 56.8711 12.5719 56.8711C6.55187 56.8711 1.67188 61.7511 1.67188 67.7711C1.67188 68.9611 1.86188 70.1111 2.21188 71.1811C2.34188 71.5711 2.49188 71.9611 2.66188 72.3311C2.77188 72.5711 2.89188 72.8011 3.01188 73.0311C5.01188 75.3211 7.95187 76.7711 11.2319 76.7711H11.2419Z" fill="#B3B3B0"/>
<path opacity="0.7" d="M6.59126 60.0616C6.95126 59.8116 7.31126 59.5516 7.67126 59.3016C8.47126 58.7316 9.37126 58.1416 10.3413 58.2516C10.7713 58.3016 11.2313 58.5516 11.3013 58.9816C11.3413 59.2316 11.2413 59.4716 11.1213 59.6916C10.7413 60.3816 10.1013 60.9216 9.36126 61.1916C9.11126 61.2816 8.85126 61.3416 8.61126 61.4516C8.31126 61.5916 8.05126 61.8116 7.78126 62.0016C7.18126 62.4316 5.58126 63.4916 5.02126 62.5316C4.45126 61.5616 5.95126 60.5216 6.60126 60.0616H6.59126Z" fill="white"/>
<path opacity="0.1" d="M207.709 70.2806C207.399 69.6706 207.039 69.0906 206.629 68.5406C204.329 65.4206 200.619 63.3906 196.449 63.3906C189.469 63.3906 183.809 69.0506 183.809 76.0306C183.809 77.4106 184.029 78.7406 184.439 79.9806C184.589 80.4406 184.769 80.8806 184.969 81.3106C186.969 85.6506 191.359 88.6706 196.459 88.6706C203.439 88.6706 209.099 83.0106 209.099 76.0306C209.099 73.9606 208.599 72.0106 207.719 70.2806H207.709Z" fill="white"/>
<path d="M206.088 71.0711C205.818 70.5411 205.508 70.0411 205.158 69.5711C204.978 69.3311 204.788 69.0911 204.598 68.8711C204.658 68.9711 204.708 69.0711 204.758 69.1711C205.518 70.6611 205.948 72.3411 205.948 74.1311C205.948 80.1511 201.068 85.0311 195.048 85.0311C191.768 85.0311 188.828 83.5811 186.828 81.2911C188.688 84.6511 192.268 86.9311 196.378 86.9311C202.398 86.9311 207.278 82.0511 207.278 76.0311C207.278 74.2411 206.848 72.5611 206.088 71.0711Z" fill="#858583"/>
<path d="M195.039 85.0289C201.059 85.0289 205.939 80.1489 205.939 74.1289C205.939 72.3389 205.509 70.6589 204.749 69.1689C204.699 69.0689 204.639 68.9689 204.589 68.8689C202.589 66.5789 199.649 65.1289 196.369 65.1289C190.349 65.1289 185.469 70.0089 185.469 76.0289C185.469 77.2189 185.659 78.3689 186.009 79.4389C186.139 79.8289 186.289 80.2189 186.459 80.5889C186.569 80.8289 186.689 81.0589 186.809 81.2889C188.809 83.5789 191.749 85.0289 195.029 85.0289H195.039Z" fill="#B3B3B0"/>
<path opacity="0.7" d="M190.388 68.3194C190.748 68.0694 191.108 67.8094 191.468 67.5594C192.268 66.9894 193.168 66.3994 194.138 66.5094C194.568 66.5594 195.028 66.8094 195.098 67.2394C195.138 67.4894 195.038 67.7294 194.918 67.9494C194.538 68.6394 193.898 69.1794 193.158 69.4494C192.908 69.5394 192.648 69.5994 192.408 69.7094C192.108 69.8494 191.848 70.0694 191.578 70.2594C190.978 70.6894 189.378 71.7494 188.818 70.7894C188.248 69.8194 189.748 68.7794 190.398 68.3194H190.388Z" fill="white"/>
<path opacity="0.1" d="M187.502 134.761C187.192 134.151 186.832 133.571 186.422 133.021C184.122 129.901 180.412 127.871 176.242 127.871C169.262 127.871 163.602 133.531 163.602 140.511C163.602 141.891 163.822 143.221 164.232 144.461C164.382 144.921 164.562 145.361 164.762 145.791C166.762 150.131 171.152 153.151 176.252 153.151C183.232 153.151 188.892 147.491 188.892 140.511C188.892 138.441 188.392 136.491 187.512 134.761H187.502Z" fill="white"/>
<path d="M185.881 135.552C185.611 135.022 185.301 134.522 184.951 134.052C184.771 133.812 184.581 133.572 184.391 133.352C184.451 133.452 184.501 133.552 184.551 133.652C185.311 135.142 185.741 136.822 185.741 138.612C185.741 144.632 180.861 149.512 174.841 149.512C171.561 149.512 168.621 148.062 166.621 145.772C168.481 149.142 172.061 151.412 176.171 151.412C182.191 151.412 187.071 146.532 187.071 140.512C187.071 138.722 186.641 137.042 185.881 135.552Z" fill="#858583"/>
<path d="M174.832 149.521C180.852 149.521 185.732 144.641 185.732 138.621C185.732 136.831 185.302 135.151 184.542 133.661C184.492 133.561 184.432 133.461 184.382 133.361C182.382 131.071 179.442 129.621 176.162 129.621C170.142 129.621 165.262 134.501 165.262 140.521C165.262 141.711 165.452 142.861 165.802 143.931C165.932 144.321 166.082 144.711 166.252 145.081C166.362 145.321 166.482 145.551 166.602 145.781C168.602 148.071 171.542 149.521 174.822 149.521H174.832Z" fill="#B3B3B0"/>
<path opacity="0.7" d="M170.181 132.8C170.541 132.55 170.901 132.29 171.261 132.04C172.061 131.47 172.961 130.88 173.931 130.99C174.361 131.04 174.821 131.29 174.891 131.72C174.931 131.97 174.831 132.21 174.711 132.43C174.331 133.12 173.691 133.66 172.951 133.93C172.701 134.02 172.441 134.08 172.201 134.19C171.901 134.33 171.641 134.55 171.371 134.74C170.771 135.17 169.171 136.23 168.611 135.27C168.041 134.3 169.541 133.26 170.191 132.8H170.181Z" fill="white"/>
</g>
<defs>
<clipPath id="clip0_1792_8826">
<rect width="209.09" height="153.15" fill="white"/>
</clipPath>
</defs>
</svg>
