<svg width="211" height="167" viewBox="0 0 211 167" fill="none" xmlns="http://www.w3.org/2000/svg">
<g clip-path="url(#clip0_1792_8882)">
<path opacity="0.1" d="M169.36 51.4806C167.6 48.0406 165.56 44.7606 163.29 41.6706C150.32 24.0606 129.45 12.6406 105.91 12.6406C66.5697 12.6406 34.6797 44.5306 34.6797 83.8606C34.6797 91.6306 35.9297 99.1106 38.2297 106.111C39.0797 108.691 40.0697 111.191 41.1897 113.631C52.4597 138.101 77.1997 155.081 105.9 155.081C145.24 155.081 177.12 123.191 177.12 83.8506C177.12 72.1906 174.32 61.1806 169.35 51.4606L169.36 51.4806Z" fill="white"/>
<path d="M163.251 54.6C161.661 51.49 159.821 48.53 157.761 45.74C156.011 43.36 154.091 41.11 152.041 39C150.091 36.99 148.011 35.12 145.811 33.38C134.841 24.7 120.981 19.5 105.911 19.5C70.3608 19.5 41.5508 48.32 41.5508 83.86C41.5508 90.88 42.6808 97.64 44.7608 103.97C45.5208 106.3 46.4208 108.56 47.4408 110.77C48.7008 113.51 50.1608 116.15 51.7808 118.67C53.9308 122.01 56.3808 125.14 59.1008 128.01C70.8308 140.45 87.4708 148.22 105.921 148.22C141.471 148.22 170.281 119.4 170.281 83.86C170.281 73.32 167.751 63.37 163.261 54.59L163.251 54.6Z" fill="#CED2EE"/>
<path opacity="0.2" d="M53.7783 121.939C61.0983 131.329 75.2283 128.329 86.0083 133.369C84.6583 131.469 84.2983 131.169 82.9483 129.259C88.8883 129.339 94.0683 128.919 99.6683 130.909C96.9183 129.259 95.1083 128.779 92.8083 126.549C103.818 129.999 114.578 130.379 126.118 130.569C124.648 130.589 123.958 131.119 123.398 129.769C124.688 129.479 125.238 127.699 126.538 127.409C118.308 123.869 110.588 122.359 101.968 119.929C107.158 118.609 110.978 115.639 116.168 114.309C102.318 110.699 89.8483 108.739 75.9983 105.129C78.1083 105.619 79.7383 107.689 79.7283 109.849C67.8183 108.729 57.1983 107.889 45.4883 105.459C45.4883 105.459 48.5683 115.259 53.7783 121.939Z" fill="#2F2E2E"/>
<path d="M53.0417 120.451C60.3617 129.841 75.4817 128.431 86.2717 133.481C84.9217 131.581 83.5717 129.681 82.2117 127.781C88.1517 127.861 94.0717 128.921 99.6717 130.911C96.9217 129.261 94.3717 127.301 92.0717 125.071C103.082 128.521 114.592 130.381 126.122 130.571C124.652 130.591 123.222 129.641 122.662 128.291C123.952 128.001 125.242 127.711 126.542 127.411C118.312 123.871 109.852 120.871 101.232 118.441C106.422 117.121 111.612 115.791 116.812 114.471C102.962 110.861 89.1217 107.251 75.2717 103.641C77.3817 104.131 79.0117 106.201 79.0017 108.361C67.0917 107.241 56.4717 106.401 44.7617 103.971C44.7617 103.971 47.8417 113.771 53.0517 120.451H53.0417Z" fill="#9595CC"/>
<path opacity="0.2" d="M132.801 26.6584C136.551 28.3384 138.661 30.9484 141.461 33.9584C140.421 33.8684 139.331 35.2784 138.381 35.7184C137.431 36.1584 136.731 37.3084 137.151 38.2584C137.441 38.9084 138.131 39.2684 138.631 39.7584C139.131 40.2484 139.431 41.1784 138.881 41.6284C133.511 39.5684 127.821 38.3684 122.081 38.0884C121.361 38.0484 120.591 38.0384 119.961 38.4084C119.331 38.7784 118.961 39.6584 119.381 40.2484C116.101 40.2284 112.831 40.2684 109.561 40.3884C110.031 41.2084 110.501 40.5484 110.971 41.3784C106.391 39.8384 101.751 39.9384 97.0708 38.7184C95.2808 38.2484 93.4008 37.8084 91.6108 38.2684C91.6108 38.6184 91.8008 38.9684 92.1008 39.1584C89.6008 37.3484 87.1008 35.5484 84.6008 33.7384C85.7308 33.1984 86.7708 32.4684 87.6608 31.5884C84.2808 29.7484 80.6008 26.9784 76.8008 26.3184C76.8008 26.3184 102.401 13.0384 132.811 26.6584H132.801Z" fill="#2F2E2E"/>
<path d="M132.801 25.1785C136.551 26.8585 138.661 30.9485 141.461 33.9585C140.421 33.8685 139.331 33.7985 138.381 34.2285C137.431 34.6685 136.731 35.8185 137.151 36.7685C137.441 37.4185 138.131 37.7785 138.631 38.2685C139.131 38.7585 139.431 39.6885 138.881 40.1385C133.511 38.0785 127.821 36.8785 122.081 36.5985C121.361 36.5585 120.591 36.5485 119.961 36.9185C119.331 37.2885 118.961 38.1685 119.381 38.7585C116.101 38.7385 112.831 38.7785 109.561 38.8985C110.031 39.7185 110.501 40.5485 110.971 41.3685C106.391 39.8285 101.751 38.4385 97.0708 37.2185C95.2808 36.7485 93.4008 36.3085 91.6108 36.7685C91.6108 37.1185 91.8008 37.4685 92.1008 37.6585C89.6008 35.8485 87.1008 34.0485 84.6008 32.2385C85.7308 31.6985 86.7708 30.9685 87.6608 30.0885C84.2808 28.2485 80.6008 26.9585 76.8008 26.2985C76.8008 26.2985 102.401 11.5285 132.811 25.1585L132.801 25.1785Z" fill="#9595CC"/>
<path opacity="0.6" d="M163.251 54.6C161.661 51.49 159.821 48.53 157.761 45.74C156.011 43.36 154.091 41.11 152.041 39C153.211 40.81 154.301 42.67 155.291 44.59C159.781 53.37 162.311 63.32 162.311 73.86C162.311 109.41 133.491 138.22 97.9512 138.22C79.8312 138.22 63.4712 130.72 51.7812 118.67C63.2312 136.45 83.2013 148.22 105.921 148.22C141.471 148.22 170.281 119.4 170.281 83.86C170.281 73.32 167.751 63.37 163.261 54.59L163.251 54.6Z" fill="#A1A5C4"/>
<path opacity="0.2" d="M163.812 111.901C167.792 103.611 148.212 101.501 140.162 97.0811C141.342 99.1211 142.152 102.431 143.982 103.931C140.202 102.121 137.152 98.8211 133.372 97.0111C135.232 99.4811 136.602 103.231 138.932 105.251C131.392 100.661 124.072 95.4311 115.702 92.6311C118.952 94.9311 121.452 98.7211 124.702 101.031C109.862 95.8411 95.2917 90.5311 79.7617 88.1211C86.9217 91.4211 93.3317 96.1911 100.492 99.4911C99.2317 99.4911 97.9617 99.4911 96.7017 99.4911C107.552 103.881 118.402 108.271 129.252 112.661C128.822 113.041 128.302 113.331 127.742 113.481C127.902 114.361 128.382 115.181 129.082 115.741C128.502 116.241 127.652 116.421 126.922 116.181C135.632 120.271 144.352 124.371 153.062 128.461C153.062 128.461 158.072 123.881 163.822 111.911L163.812 111.901Z" fill="#2F2E2E"/>
<path d="M164.562 110.422C168.542 102.132 148.222 101.512 140.172 97.0816C141.352 99.1216 142.912 100.952 144.732 102.442C140.952 100.632 137.162 98.8216 133.382 97.0016C135.242 99.4716 137.352 101.732 139.692 103.762C132.152 99.1716 124.092 95.4216 115.712 92.6216C118.962 94.9216 122.202 97.2316 125.452 99.5316C110.612 94.3416 95.3017 90.5116 79.7617 88.1016C86.9217 91.4016 94.0717 94.6916 101.232 97.9916C99.9717 97.9916 98.7017 97.9916 97.4417 97.9916C108.292 102.382 119.142 106.772 129.992 111.162C129.562 111.552 129.042 111.832 128.482 111.982C128.642 112.862 129.122 113.682 129.822 114.242C129.242 114.742 128.392 114.922 127.662 114.682C136.372 118.772 145.092 122.872 153.802 126.962C153.802 126.962 158.812 122.382 164.562 110.412V110.422Z" fill="#9595CC"/>
<path opacity="0.2" d="M63.7105 37.0087C67.1505 34.6387 71.2405 39.1587 75.0505 40.8787C71.0105 41.2487 66.9205 42.7087 62.8805 42.2887C74.8905 47.6887 86.8105 53.2787 98.6505 59.0587C98.1505 60.7087 97.1505 62.2087 95.8205 63.3087C98.4505 64.3087 101.07 65.2987 103.69 66.2987C105.26 66.8887 107.17 68.4087 106.25 69.8087C113.7 71.5987 121.46 72.1087 129.08 71.3087C127.09 69.4387 125.1 67.5687 123.11 65.6887C122.75 65.3487 122.37 64.9687 122.3 64.4787C122.16 63.4087 123.49 62.8187 124.55 62.5987C126.65 62.1587 128.75 61.7087 130.85 61.2687C129.98 59.1087 128.73 57.1087 127.18 55.3687C131.41 55.4787 135.64 55.5887 139.87 55.6987C139.46 54.8187 139.05 53.9487 138.64 53.0687C146.35 54.0087 154.66 54.5887 162.43 54.5287C166.18 60.5687 167.93 66.5587 167.93 66.5587C162.64 64.9587 157.83 64.9787 152.55 63.3787C149.5 62.4487 146.34 61.5187 143.17 61.8187C143.78 63.1887 144.39 63.0787 144.99 64.4487C141.91 63.3387 138.59 64.3987 135.33 64.6987C137.17 71.5887 140.47 76.6087 144.96 82.1587C136.65 79.6387 128.05 79.5587 119.39 78.9987C119.9 80.4887 120.86 80.3387 122.12 81.2987C114.31 78.6387 106.3 78.0487 98.1805 76.5587C98.8905 77.3887 99.4805 76.8487 99.9105 77.8587C95.7605 77.0487 92.1605 78.2687 87.9405 78.4987C87.7305 77.9887 88.1505 79.0087 87.9405 78.4987C88.1905 78.5887 59.3405 69.2287 44.2305 66.0387C44.2305 66.0387 50.4205 46.2087 63.7405 37.0187L63.7105 37.0087Z" fill="#2F2E2E"/>
<path d="M63.7105 35.5186C67.1505 33.1486 71.2405 39.1586 75.0505 40.8686C71.0105 41.2386 66.9205 41.2186 62.8805 40.7986C74.8905 46.1986 86.8105 51.7886 98.6505 57.5686C98.1505 59.2186 97.1505 60.7186 95.8205 61.8186C98.4505 62.8186 101.07 63.8086 103.69 64.8086C105.26 65.3986 107.17 66.9186 106.25 68.3186C113.7 70.1086 121.46 70.6186 129.08 69.8186C127.09 67.9486 125.1 66.0786 123.11 64.1986C122.75 63.8586 122.37 63.4786 122.3 62.9886C122.16 61.9186 123.49 61.3286 124.55 61.1086C126.65 60.6686 128.75 60.2186 130.85 59.7786C129.98 57.6186 128.73 55.6186 127.18 53.8786C131.41 53.9886 135.64 54.0986 139.87 54.2086C139.46 53.3286 139.05 52.4586 138.64 51.5786C146.35 52.5186 154.66 53.0986 162.43 53.0386C166.18 59.0786 167.93 66.5486 167.93 66.5486C162.64 64.9486 157.83 63.4886 152.55 61.8886C149.5 60.9586 146.34 60.0286 143.17 60.3286C143.78 61.6986 144.39 63.0686 144.99 64.4386C141.91 63.3286 138.59 62.8986 135.33 63.2086C137.17 70.0986 140.47 76.5986 144.96 82.1586C136.65 79.6386 128.05 78.0786 119.39 77.5186C119.9 79.0086 120.86 80.3486 122.12 81.2986C114.31 78.6386 106.3 76.5586 98.1805 75.0786C98.8905 75.9086 99.4805 76.8486 99.9105 77.8586C95.7605 77.0486 91.5205 76.7486 87.3005 76.9786C87.5105 77.4886 87.7305 77.9886 87.9405 78.4986C73.9005 72.3686 59.2205 67.6886 44.2305 64.5486C44.2305 64.5486 50.4205 44.7186 63.7405 35.5286L63.7105 35.5186Z" fill="#9595CC"/>
<path opacity="0.7" d="M70.7786 39.6607C72.9086 38.1507 75.0386 36.6407 77.1786 35.1307C81.9286 31.7707 87.2786 28.2407 93.0586 28.9107C95.5986 29.2007 98.3286 30.7007 98.7586 33.2207C99.0086 34.6807 98.4286 36.1607 97.7086 37.4507C95.4386 41.5507 91.6386 44.7807 87.2186 46.3607C85.7386 46.8907 84.1986 47.2407 82.7686 47.9007C80.9686 48.7407 79.4486 50.0407 77.8386 51.1907C74.2786 53.7507 64.7886 60.0607 61.4186 54.3107C58.0486 48.5407 66.9586 42.3507 70.7786 39.6407V39.6607Z" fill="white"/>
<path opacity="0.1" d="M183.439 10.2416C183.129 9.63156 182.769 9.05156 182.359 8.50156C180.059 5.38156 176.349 3.35156 172.179 3.35156C165.199 3.35156 159.539 9.01156 159.539 15.9916C159.539 17.3716 159.759 18.7016 160.169 19.9416C160.319 20.4016 160.499 20.8416 160.699 21.2716C162.699 25.6116 167.089 28.6316 172.189 28.6316C179.169 28.6316 184.829 22.9716 184.829 15.9916C184.829 13.9216 184.329 11.9716 183.449 10.2416H183.439Z" fill="white"/>
<path d="M181.819 11.0281C181.549 10.4981 181.239 9.99812 180.889 9.52812C180.709 9.28812 180.519 9.04812 180.329 8.82812C180.389 8.92813 180.439 9.02813 180.489 9.12813C181.249 10.6181 181.679 12.2981 181.679 14.0881C181.679 20.1081 176.799 24.9881 170.779 24.9881C167.499 24.9881 164.559 23.5381 162.559 21.2481C164.419 24.6081 167.999 26.8881 172.109 26.8881C178.129 26.8881 183.009 22.0081 183.009 15.9881C183.009 14.1981 182.579 12.5181 181.819 11.0281Z" fill="#858583"/>
<path d="M170.781 24.9898C176.801 24.9898 181.681 20.1098 181.681 14.0898C181.681 12.2998 181.251 10.6198 180.491 9.12984C180.441 9.02984 180.381 8.92984 180.331 8.82984C178.331 6.53984 175.391 5.08984 172.111 5.08984C166.091 5.08984 161.211 9.96984 161.211 15.9898C161.211 17.1798 161.401 18.3298 161.751 19.3998C161.881 19.7898 162.031 20.1798 162.201 20.5498C162.311 20.7898 162.431 21.0198 162.551 21.2498C164.551 23.5398 167.491 24.9898 170.771 24.9898H170.781Z" fill="#B3B3B0"/>
<path opacity="0.7" d="M166.13 8.28037L167.21 7.52037C168.01 6.95037 168.91 6.36037 169.88 6.47037C170.31 6.52037 170.77 6.77037 170.84 7.20037C170.88 7.45037 170.78 7.69037 170.66 7.91037C170.28 8.60037 169.64 9.14037 168.9 9.41037C168.65 9.50037 168.39 9.56037 168.15 9.67037C167.85 9.81037 167.59 10.0304 167.32 10.2204C166.72 10.6504 165.12 11.7104 164.56 10.7504C163.99 9.78037 165.49 8.74037 166.14 8.28037H166.13Z" fill="white"/>
<path opacity="0.1" d="M208.709 70.8587C208.399 70.2487 208.039 69.6688 207.629 69.1188C205.329 65.9988 201.619 63.9688 197.449 63.9688C190.469 63.9688 184.809 69.6287 184.809 76.6087C184.809 77.9887 185.029 79.3187 185.439 80.5587C185.589 81.0187 185.769 81.4587 185.969 81.8887C187.969 86.2287 192.359 89.2487 197.459 89.2487C204.439 89.2487 210.099 83.5887 210.099 76.6087C210.099 74.5387 209.599 72.5887 208.719 70.8587H208.709Z" fill="white"/>
<path d="M207.08 71.6492C206.81 71.1192 206.5 70.6192 206.15 70.1492C205.97 69.9092 205.78 69.6692 205.59 69.4492C205.65 69.5492 205.7 69.6492 205.75 69.7492C206.51 71.2392 206.94 72.9192 206.94 74.7092C206.94 80.7292 202.06 85.6092 196.04 85.6092C192.76 85.6092 189.82 84.1592 187.82 81.8692C189.68 85.2392 193.26 87.5092 197.37 87.5092C203.39 87.5092 208.27 82.6292 208.27 76.6092C208.27 74.8192 207.84 73.1392 207.08 71.6492Z" fill="#858583"/>
<path d="M196.039 85.6109C202.059 85.6109 206.939 80.7309 206.939 74.7109C206.939 72.9209 206.509 71.2409 205.749 69.7509C205.699 69.6509 205.639 69.5509 205.589 69.4509C203.589 67.1609 200.649 65.7109 197.369 65.7109C191.349 65.7109 186.469 70.5909 186.469 76.6109C186.469 77.8009 186.659 78.9509 187.009 80.0209C187.139 80.4109 187.289 80.8009 187.459 81.1709C187.569 81.4109 187.689 81.6409 187.809 81.8709C189.809 84.1609 192.749 85.6109 196.029 85.6109H196.039Z" fill="#B3B3B0"/>
<path opacity="0.7" d="M191.388 68.9015C191.748 68.6515 192.108 68.3915 192.468 68.1415C193.268 67.5715 194.168 66.9815 195.138 67.0915C195.568 67.1415 196.028 67.3915 196.098 67.8215C196.138 68.0715 196.038 68.3115 195.918 68.5315C195.538 69.2215 194.898 69.7615 194.158 70.0315C193.908 70.1215 193.648 70.1815 193.408 70.2915C193.108 70.4315 192.848 70.6515 192.578 70.8415C191.978 71.2715 190.378 72.3315 189.818 71.3715C189.248 70.4015 190.748 69.3615 191.398 68.9015H191.388Z" fill="white"/>
<path opacity="0.1" d="M59.7711 6.89C59.4611 6.28 59.1011 5.7 58.6911 5.15C56.3911 2.03 52.6811 0 48.5111 0C41.5311 0 35.8711 5.66 35.8711 12.64C35.8711 14.02 36.0911 15.35 36.5011 16.59C36.6511 17.05 36.8311 17.49 37.0311 17.92C39.0311 22.26 43.4211 25.28 48.5211 25.28C55.5011 25.28 61.1611 19.62 61.1611 12.64C61.1611 10.57 60.6611 8.62 59.7811 6.89H59.7711Z" fill="white"/>
<path d="M58.1389 7.68047C57.8689 7.15047 57.5589 6.65047 57.2089 6.18047C57.0289 5.94047 56.8389 5.70047 56.6489 5.48047C56.7089 5.58047 56.7589 5.68047 56.8089 5.78047C57.5689 7.27047 57.9989 8.95047 57.9989 10.7405C57.9989 16.7605 53.1189 21.6405 47.0989 21.6405C43.8189 21.6405 40.8789 20.1905 38.8789 17.9005C40.7389 21.2705 44.3189 23.5405 48.4289 23.5405C54.4489 23.5405 59.3289 18.6605 59.3289 12.6405C59.3289 10.8505 58.8989 9.17047 58.1389 7.68047Z" fill="#858583"/>
<path d="M47.1012 21.65C53.1213 21.65 58.0013 16.77 58.0013 10.75C58.0013 8.96 57.5713 7.28 56.8113 5.79C56.7613 5.69 56.7013 5.59 56.6513 5.49C54.6513 3.2 51.7113 1.75 48.4313 1.75C42.4113 1.75 37.5312 6.63 37.5312 12.65C37.5312 13.84 37.7213 14.99 38.0713 16.06C38.2013 16.45 38.3513 16.84 38.5213 17.21C38.6313 17.45 38.7513 17.68 38.8713 17.91C40.8713 20.2 43.8113 21.65 47.0913 21.65H47.1012Z" fill="#B3B3B0"/>
<path opacity="0.7" d="M42.4506 4.92881C42.8106 4.67881 43.1706 4.41881 43.5306 4.16881C44.3306 3.59881 45.2306 3.00881 46.2006 3.11881C46.6306 3.16881 47.0906 3.41881 47.1606 3.84881C47.2006 4.09881 47.1006 4.33881 46.9806 4.55881C46.6006 5.24881 45.9606 5.78881 45.2206 6.05881C44.9706 6.14881 44.7106 6.20881 44.4706 6.31881C44.1706 6.45881 43.9106 6.67881 43.6406 6.86881C43.0406 7.29881 41.4406 8.35881 40.8806 7.39881C40.3106 6.42881 41.8106 5.38881 42.4606 4.92881H42.4506Z" fill="white"/>
<path opacity="0.1" d="M23.9 90.0619C23.59 89.4519 23.23 88.8719 22.82 88.3219C20.52 85.2019 16.81 83.1719 12.64 83.1719C5.66 83.1719 0 88.8319 0 95.8119C0 97.1919 0.22 98.5219 0.63 99.7619C0.78 100.222 0.96 100.662 1.16 101.092C3.16 105.432 7.55 108.452 12.65 108.452C19.63 108.452 25.29 102.792 25.29 95.8119C25.29 93.7419 24.79 91.7919 23.91 90.0619H23.9Z" fill="white"/>
<path d="M22.2795 90.8484C22.0095 90.3184 21.6995 89.8184 21.3495 89.3484C21.1695 89.1084 20.9795 88.8684 20.7895 88.6484C20.8495 88.7484 20.8995 88.8484 20.9495 88.9484C21.7095 90.4384 22.1395 92.1184 22.1395 93.9084C22.1395 99.9284 17.2595 104.808 11.2395 104.808C7.95953 104.808 5.01953 103.358 3.01953 101.068C4.87953 104.428 8.45953 106.708 12.5695 106.708C18.5895 106.708 23.4695 101.828 23.4695 95.8084C23.4695 94.0184 23.0395 92.3384 22.2795 90.8484Z" fill="#858583"/>
<path d="M11.2419 104.81C17.2619 104.81 22.1419 99.9302 22.1419 93.9102C22.1419 92.1202 21.7119 90.4401 20.9519 88.9501C20.9019 88.8501 20.8419 88.7502 20.7919 88.6502C18.7919 86.3602 15.8519 84.9102 12.5719 84.9102C6.55187 84.9102 1.67188 89.7902 1.67188 95.8102C1.67188 97.0002 1.86188 98.1502 2.21188 99.2202C2.34188 99.6102 2.49188 100 2.66188 100.37C2.77188 100.61 2.89188 100.84 3.01188 101.07C5.01188 103.36 7.95187 104.81 11.2319 104.81H11.2419Z" fill="#B3B3B0"/>
<path opacity="0.7" d="M6.59126 88.1007C6.95126 87.8507 7.31126 87.5907 7.67126 87.3407C8.47126 86.7707 9.37126 86.1807 10.3413 86.2907C10.7713 86.3407 11.2313 86.5907 11.3013 87.0207C11.3413 87.2707 11.2413 87.5107 11.1213 87.7307C10.7413 88.4207 10.1013 88.9607 9.36126 89.2307C9.11126 89.3207 8.85126 89.3807 8.61126 89.4907C8.31126 89.6307 8.05126 89.8507 7.78126 90.0407C7.18126 90.4707 5.58126 91.5307 5.02126 90.5607C4.45126 89.5907 5.95126 88.5507 6.60126 88.0907L6.59126 88.1007Z" fill="white"/>
<path opacity="0.1" d="M52.2086 148.601C51.8986 147.991 51.5386 147.411 51.1286 146.861C48.8286 143.741 45.1186 141.711 40.9486 141.711C33.9686 141.711 28.3086 147.371 28.3086 154.351C28.3086 155.731 28.5286 157.061 28.9386 158.301C29.0886 158.761 29.2686 159.201 29.4686 159.631C31.4686 163.971 35.8586 166.991 40.9586 166.991C47.9386 166.991 53.5986 161.331 53.5986 154.351C53.5986 152.281 53.0986 150.331 52.2186 148.601H52.2086Z" fill="white"/>
<path d="M50.5803 149.391C50.3103 148.861 50.0003 148.361 49.6503 147.891C49.4703 147.651 49.2803 147.411 49.0903 147.191C49.1503 147.291 49.2003 147.391 49.2503 147.491C50.0103 148.981 50.4403 150.661 50.4403 152.451C50.4403 158.471 45.5603 163.351 39.5403 163.351C36.2603 163.351 33.3203 161.901 31.3203 159.611C33.1803 162.971 36.7603 165.251 40.8703 165.251C46.8903 165.251 51.7703 160.371 51.7703 154.351C51.7703 152.561 51.3403 150.881 50.5803 149.391Z" fill="#858583"/>
<path d="M39.5388 163.349C45.5588 163.349 50.4387 158.469 50.4387 152.449C50.4387 150.659 50.0088 148.979 49.2488 147.489C49.1988 147.389 49.1388 147.289 49.0888 147.189C47.0888 144.899 44.1487 143.449 40.8687 143.449C34.8487 143.449 29.9688 148.329 29.9688 154.349C29.9688 155.539 30.1588 156.689 30.5088 157.759C30.6388 158.149 30.7887 158.539 30.9587 158.909C31.0687 159.149 31.1888 159.379 31.3088 159.609C33.3088 161.899 36.2487 163.349 39.5287 163.349H39.5388Z" fill="#B3B3B0"/>
<path opacity="0.7" d="M34.8881 146.64C35.2481 146.39 35.6081 146.13 35.9681 145.88C36.7681 145.31 37.6681 144.72 38.6381 144.83C39.0681 144.88 39.5281 145.13 39.5981 145.56C39.6381 145.81 39.5381 146.05 39.4181 146.27C39.0381 146.96 38.3981 147.5 37.6581 147.77C37.4081 147.86 37.1481 147.92 36.9081 148.03C36.6081 148.17 36.3481 148.39 36.0781 148.58C35.4781 149.01 33.8781 150.07 33.3181 149.1C32.7481 148.13 34.2481 147.09 34.8981 146.63L34.8881 146.64Z" fill="white"/>
</g>
<defs>
<clipPath id="clip0_1792_8882">
<rect width="210.09" height="166.99" fill="white"/>
</clipPath>
</defs>
</svg>
