<svg width="210" height="142" viewBox="0 0 210 142" fill="none" xmlns="http://www.w3.org/2000/svg">
<g clip-path="url(#clip0_1_2)">
<path opacity="0.1" d="M172.68 38.84C170.92 35.4 168.88 32.12 166.61 29.03C153.64 11.43 132.77 0 109.23 0C69.89 0 38 31.89 38 71.23C38 79 39.25 86.48 41.55 93.48C42.4 96.06 43.39 98.56 44.51 101C55.78 125.47 80.52 142.45 109.22 142.45C148.56 142.45 180.45 110.56 180.45 71.22C180.45 59.56 177.65 48.55 172.68 38.83V38.84Z" fill="white"/>
<path d="M166.57 41.96C164.98 38.85 163.14 35.89 161.08 33.1C159.33 30.72 157.41 28.47 155.36 26.36C153.41 24.35 151.33 22.48 149.13 20.74C138.16 12.06 124.3 6.86 109.23 6.86C73.68 6.86 44.86 35.68 44.86 71.23C44.86 78.25 45.99 85.01 48.07 91.34C48.83 93.67 49.73 95.93 50.75 98.14C52.01 100.88 53.47 103.52 55.09 106.04C57.24 109.38 59.69 112.51 62.41 115.38C74.14 127.82 90.78 135.59 109.23 135.59C144.78 135.59 173.59 106.77 173.59 71.23C173.59 60.69 171.06 50.74 166.57 41.96Z" fill="url(#paint0_linear_1_2)"/>
<path d="M132.25 21.58C127.97 23.63 129.28 35.12 124.47 34.75C119.65 34.38 99.26 25.86 97.04 34.75C94.82 43.64 107.05 50.69 101.86 52.91C96.67 55.13 114.46 74.09 126.33 69.62C138.19 65.14 140.79 75.8 143.75 79.37C146.72 82.94 157.09 79.55 154.13 73.46C151.16 67.37 144.84 46.01 151.91 43.15C158.98 40.28 152.28 24.66 146.35 27.11C140.42 29.56 141.16 17.33 132.26 21.59L132.25 21.58Z" fill="#879E95"/>
<path d="M49.03 73.79C49.17 74.1 49.39 74.45 49.73 74.47C50.07 74.49 50.32 74.18 50.52 73.92C52.7 71.12 56.32 69.94 59.71 68.92C60.99 68.53 62.36 68.14 63.66 68.48C64.96 68.82 66.08 70.19 65.65 71.46C65.48 71.97 65.09 72.37 64.77 72.79C62.3 76.01 63.09 80.64 64.62 84.4C66.15 88.16 68.33 91.83 68.34 95.89C70.36 95.08 70.19 92.21 69.79 90.07C68.74 84.39 68.68 78.53 69.63 72.83C69.82 71.66 70.08 70.45 70.8 69.51C72.54 67.22 76.26 67.53 78.59 69.23C80.92 70.93 82.31 73.58 84.04 75.88C88.62 81.98 95.6 85.73 102.35 89.3C104.66 90.52 107.02 91.76 109.6 92.2C111.41 92.51 113.25 92.41 115.08 92.32C120.18 92.05 125.3 91.78 130.29 90.71C132.64 90.21 134.96 89.53 137.35 89.28C142.23 88.77 147.29 90.16 151.24 93.08C153.75 94.94 155.82 97.38 158.51 98.97C159.11 99.32 159.78 99.64 160.48 99.57C162.14 99.4 162.78 97.28 162.62 95.63C162.26 91.76 159.65 88.18 156.07 86.67C152.05 84.97 147.32 85.81 143.28 84.17C139.79 82.76 137.26 79.69 134.06 77.71C128.66 74.38 121.29 74.58 116.07 78.19C114.57 79.23 113.25 80.51 111.68 81.43C110.11 82.35 108.16 82.87 106.46 82.21C106.48 78.94 109.39 75.97 108.65 72.78C108.36 71.51 107.52 70.44 106.64 69.48C98.52 60.62 85.93 57.64 75.83 51.13C73.87 49.87 71.89 48.43 69.57 48.18C65.97 47.8 62.81 50.36 60.05 52.7C58.21 54.26 56.13 55.92 53.75 56.54C50.85 57.29 50.18 56.02 48.81 59.09C46.78 63.67 46.94 69.32 49.04 73.84L49.03 73.79Z" fill="#879E95"/>
<path d="M94.37 113.43C95.48 116.36 94.2 120.01 91.5 121.6C90.51 122.18 89.18 122.84 89.33 123.97C89.43 124.73 90.18 125.2 90.86 125.54C96.93 128.54 103.82 129.36 110.58 129.9C119.26 130.59 128.46 130.8 136.12 126.66C138.27 125.5 140.24 124.02 142.2 122.55C148.13 118.09 154.27 113.39 157.57 106.75C157.89 106.11 158.18 105.44 158.2 104.72C158.24 103.19 157.06 101.94 155.93 100.9C152.02 97.31 147.48 93.89 142.19 93.46C140.2 93.3 137.95 93.71 136.8 95.35C136.02 96.46 135.93 97.89 135.62 99.21C134.92 102.28 132.91 105.02 130.2 106.62C126.6 108.75 122.17 108.8 118.19 110.09C116.86 110.52 115.54 111.1 114.15 111.21C112.83 111.31 111.53 111 110.25 110.68C105.52 109.52 100.98 108.23 96.38 106.69C90.91 104.86 93.27 110.52 94.36 113.41L94.37 113.43Z" fill="#879E95"/>
<path d="M132.25 20.84C127.97 22.89 129.28 34.38 124.47 34.01C119.65 33.64 99.26 25.12 97.04 34.01C94.82 42.9 107.05 49.95 101.86 52.17C96.67 54.39 114.46 73.35 126.33 68.88C138.19 64.4 140.79 75.06 143.75 78.63C146.72 82.2 157.09 78.81 154.13 72.72C151.16 66.63 144.84 45.27 151.91 42.41C158.98 39.54 152.28 23.92 146.35 26.37C140.42 28.82 141.16 16.59 132.26 20.85L132.25 20.84Z" fill="#ADC8BE"/>
<path d="M125.84 25.44C125.86 26.38 125.7 27.36 125.13 28.11C124.04 29.54 121.93 29.59 120.16 29.31C113.63 28.27 107.69 24.55 101.1 24.02C98.81 23.84 96.27 24.16 94.7 25.84C93.57 27.06 93.16 28.77 92.94 30.42C92.38 34.63 92.81 38.97 94.18 42.99C95.16 45.86 96.18 49.89 93.45 51.21C91.99 51.92 90.25 51.26 88.84 50.45C84.24 47.8 80.56 43.5 75.51 41.89C70.62 40.33 64.91 41.75 61.32 45.42C59.9 46.87 58.3 48.83 56.32 48.37C54.53 46.72 56.02 43.63 58.05 42.28C60.08 40.94 62.68 40.2 63.98 38.15C64.69 37.03 64.9 35.68 65.3 34.41C66.52 30.58 69.76 27.46 73.63 26.37C76.37 25.6 80.08 25.13 80.55 22.33C80.7 21.41 80.41 20.45 80.6 19.54C80.98 17.79 82.93 16.93 84.63 16.35C87.85 15.25 91.06 14.15 94.28 13.04C97.71 11.87 101.2 10.68 104.82 10.52C112.02 10.21 125.68 17.19 125.83 25.44H125.84Z" fill="#ECECD9"/>
<path d="M49.03 73.05C49.17 73.36 49.39 73.71 49.73 73.73C50.07 73.75 50.32 73.44 50.52 73.18C52.7 70.38 56.32 69.2 59.71 68.18C60.99 67.79 62.36 67.4 63.66 67.74C64.96 68.08 66.08 69.45 65.65 70.72C65.48 71.23 65.09 71.63 64.77 72.05C62.3 75.27 63.09 79.9 64.62 83.66C66.15 87.42 68.33 91.09 68.34 95.15C70.36 94.34 70.19 91.47 69.79 89.33C68.74 83.65 68.68 77.79 69.63 72.09C69.82 70.92 70.08 69.71 70.8 68.77C72.54 66.48 76.26 66.79 78.59 68.49C80.92 70.19 82.31 72.84 84.04 75.14C88.62 81.24 95.6 84.99 102.35 88.56C104.66 89.78 107.02 91.02 109.6 91.46C111.41 91.77 113.25 91.67 115.08 91.58C120.18 91.31 125.3 91.04 130.29 89.97C132.64 89.47 134.96 88.79 137.35 88.54C142.23 88.03 147.29 89.42 151.24 92.34C153.75 94.2 155.82 96.64 158.51 98.23C159.11 98.58 159.78 98.9 160.48 98.83C162.14 98.66 162.78 96.54 162.62 94.89C162.26 91.02 159.65 87.44 156.07 85.93C152.05 84.23 147.32 85.07 143.28 83.43C139.79 82.02 137.26 78.95 134.06 76.97C128.66 73.64 121.29 73.84 116.07 77.45C114.57 78.49 113.25 79.77 111.68 80.69C110.11 81.61 108.16 82.13 106.46 81.47C106.48 78.2 109.39 75.23 108.65 72.04C108.36 70.77 107.52 69.7 106.64 68.74C98.52 59.88 85.93 56.9 75.83 50.39C73.87 49.13 71.89 47.69 69.57 47.44C65.97 47.06 62.81 49.62 60.05 51.96C58.21 53.52 56.13 55.18 53.75 55.8C50.85 56.55 50.18 55.28 48.81 58.35C46.78 62.93 46.94 68.58 49.04 73.1L49.03 73.05Z" fill="#ADC8BE"/>
<path d="M58.49 74.57C58.52 74.2 58.55 73.79 58.33 73.48C58.07 73.11 57.57 73.02 57.11 73.01C54.66 72.95 52.39 74.2 50.26 75.41C49.41 75.89 48.54 76.4 47.97 77.19C46.96 78.6 47.16 80.52 47.59 82.2C48.7 86.61 51.01 90.61 53.29 94.55L60.16 106.42C61.55 108.82 63.15 111.4 65.77 112.32C68.18 113.16 70.81 112.37 73.36 112.43C77.87 112.54 81.83 115.28 85.49 117.92C87.53 114.78 83.69 110.76 84.32 107.07C84.89 103.75 88.72 102.15 92.05 101.7C100.71 100.52 109.58 103.04 118.21 101.7C119.77 101.46 121.71 100.55 121.46 98.99C121.35 98.25 120.74 97.69 120.11 97.28C116.39 94.79 111.51 95.25 107.09 94.49C101.54 93.53 96.53 90.54 92.18 86.97C87.82 83.4 84 79.24 79.84 75.44C78.75 74.44 77.47 73.41 75.99 73.49C74.61 73.57 73.45 74.66 72.89 75.92C72.33 77.18 72.26 78.6 72.23 79.99C72.14 84.22 72.36 88.45 72.89 92.65C72.99 93.46 73.11 94.29 72.98 95.1C71.95 101.78 64.26 97.85 62.99 93.63C61.08 87.28 57.96 81.44 58.48 74.58L58.49 74.57Z" fill="#ECECD9"/>
<path d="M94.37 112.69C95.48 115.62 94.2 119.27 91.5 120.86C90.51 121.44 89.18 122.1 89.33 123.23C89.43 123.99 90.18 124.46 90.86 124.8C96.93 127.8 103.82 128.62 110.58 129.16C119.26 129.85 128.46 130.06 136.12 125.92C138.27 124.76 140.24 123.28 142.2 121.81C148.13 117.35 154.27 112.65 157.57 106.01C157.89 105.37 158.18 104.7 158.2 103.98C158.24 102.45 157.06 101.2 155.93 100.16C152.02 96.57 147.48 93.15 142.19 92.72C140.2 92.56 137.95 92.97 136.8 94.61C136.02 95.72 135.93 97.15 135.62 98.47C134.92 101.54 132.91 104.28 130.2 105.88C126.6 108.01 122.17 108.06 118.19 109.35C116.86 109.78 115.54 110.36 114.15 110.47C112.83 110.57 111.53 110.26 110.25 109.94C105.52 108.78 100.98 107.49 96.38 105.95C90.91 104.12 93.27 109.78 94.36 112.67L94.37 112.69Z" fill="#ADC8BE"/>
<path d="M153.25 51.09C153.91 57.14 157.48 62.53 158.57 68.52C158.91 70.39 159.01 72.31 159.53 74.14C160.45 77.38 162.74 80.22 165.72 81.8C166.83 82.39 168.4 82.73 169.2 81.75C169.62 81.24 169.66 80.53 169.69 79.88C170.04 70.39 168.97 60.86 166.53 51.69C165.64 48.35 163.45 43.74 159.5 43.22C154.98 42.63 152.84 47.35 153.25 51.1V51.09Z" fill="#ECECD9"/>
<path opacity="0.5" d="M166.57 41.96C164.98 38.85 163.14 35.89 161.08 33.1C159.33 30.72 157.41 28.47 155.36 26.36C156.53 28.17 157.62 30.03 158.61 31.95C163.1 40.73 165.63 50.68 165.63 61.22C165.63 96.77 136.81 125.58 101.27 125.58C83.15 125.58 66.79 118.08 55.1 106.03C66.55 123.81 86.52 135.58 109.24 135.58C144.79 135.58 173.6 106.76 173.6 71.22C173.6 60.68 171.07 50.73 166.58 41.95L166.57 41.96Z" fill="#2F2E2E"/>
<path opacity="0.7" d="M72.38 30.91L78.78 26.38C83.53 23.02 88.88 19.49 94.66 20.16C97.2 20.45 99.93 21.95 100.36 24.47C100.61 25.93 100.03 27.41 99.31 28.7C97.04 32.8 93.24 36.03 88.82 37.61C87.34 38.14 85.8 38.49 84.37 39.15C82.57 39.99 81.05 41.29 79.44 42.44C75.88 45 66.39 51.31 63.02 45.56C59.65 39.79 68.56 33.6 72.38 30.89V30.91Z" fill="white"/>
</g>
<defs>
<linearGradient id="paint0_linear_1_2" x1="63.71" y1="25.71" x2="191.05" y2="153.05" gradientUnits="userSpaceOnUse">
<stop stop-color="#D6EBE6"/>
<stop offset="0.27" stop-color="#CEE2DD"/>
<stop offset="0.71" stop-color="#B9CBC6"/>
<stop offset="1" stop-color="#A8B8B4"/>
</linearGradient>
<clipPath id="clip0_1_2">
<rect width="210" height="142" fill="white"/>
</clipPath>
</defs>
</svg>
