<svg width="85" height="148" viewBox="0 0 85 148" fill="none" xmlns="http://www.w3.org/2000/svg">
<path d="M19.707 75.2969C20.021 75.3516 20.4325 75.4273 20.9229 75.5283C22.1152 75.7739 23.7716 76.1651 25.624 76.748C29.3425 77.9182 33.7937 79.8424 36.8945 82.8584C39.9793 85.8589 41.1704 89.402 41.5889 92.209C41.798 93.6121 41.8132 94.8267 41.7764 95.6885C41.758 96.1174 41.7266 96.4585 41.7002 96.6904C41.4691 96.7232 41.1292 96.7637 40.7012 96.7939C39.8407 96.8547 38.6262 96.8733 37.2178 96.7031C34.4002 96.3626 30.8257 95.2699 27.7412 92.2695C24.6404 89.2534 22.5939 84.8567 21.3213 81.1719C20.6874 79.3364 20.2502 77.6919 19.9717 76.5068C19.8571 76.0191 19.7704 75.6093 19.707 75.2969Z" fill="#364F3A" stroke="#242F26"/>
<path d="M19.707 75.2969C20.021 75.3516 20.4325 75.4273 20.9229 75.5283C22.1152 75.7739 23.7716 76.1651 25.624 76.748C29.3425 77.9182 33.7937 79.8424 36.8945 82.8584C39.9793 85.8589 41.1704 89.402 41.5889 92.209C41.798 93.6121 41.8132 94.8267 41.7764 95.6885C41.758 96.1174 41.7266 96.4585 41.7002 96.6904C41.4691 96.7232 41.1292 96.7637 40.7012 96.7939C39.8407 96.8547 38.6262 96.8733 37.2178 96.7031C34.4002 96.3626 30.8257 95.2699 27.7412 92.2695C24.6404 89.2534 22.5939 84.8567 21.3213 81.1719C20.6874 79.3364 20.2502 77.6919 19.9717 76.5068C19.8571 76.0191 19.7704 75.6093 19.707 75.2969Z" fill="#364F3A" stroke="#242F26"/>
<path d="M19.7051 75.2969C20.019 75.3515 20.4305 75.4273 20.9209 75.5283C22.1132 75.7739 23.7697 76.1653 25.6221 76.748C28.5343 77.6643 31.8957 79.0436 34.7061 81.0469C32.2802 79.8005 29.7096 78.8001 27.4678 78.042C25.6449 77.4256 24.0281 76.9648 22.8672 76.6582C22.2868 76.5049 21.8197 76.3902 21.4971 76.3135C21.3357 76.2751 21.2103 76.2459 21.125 76.2266C21.0823 76.2169 21.0495 76.21 21.0273 76.2051C21.0163 76.2026 21.0077 76.2005 21.002 76.1992C20.9991 76.1986 20.9967 76.1986 20.9951 76.1982L20.9932 76.1973L20.1865 76.0234L20.4053 76.8184V76.8213C20.4057 76.8228 20.4065 76.8253 20.4072 76.8281C20.4088 76.8338 20.4111 76.8419 20.4141 76.8525C20.4201 76.8743 20.4295 76.9065 20.4414 76.9482C20.4652 77.0317 20.5001 77.1547 20.5469 77.3125C20.6405 77.6285 20.7807 78.0859 20.9639 78.6543C21.3303 79.7911 21.8726 81.3737 22.5791 83.1582C23.4329 85.3148 24.5334 87.7802 25.8555 90.1162C23.7818 87.3658 22.314 84.0515 21.3193 81.1719C20.6854 79.3364 20.2483 77.6919 19.9697 76.5068C19.8551 76.0191 19.7685 75.6093 19.7051 75.2969Z" fill="#364F3A" stroke="#242F26"/>
<path d="M37.2435 82.5001C43.6128 88.6954 42.1465 97.1241 42.1465 97.1241C42.1465 97.1241 33.7611 98.8233 27.3923 92.628C21.0229 86.4327 19.082 74.6895 19.082 74.6895C19.082 74.6895 30.8741 76.3048 37.2435 82.5001Z" stroke="#242F26" stroke-width="2" stroke-miterlimit="10" stroke-linecap="round" stroke-linejoin="round"/>
<path d="M19.498 75.0957L42.1449 97.1233" stroke="#242F26" stroke-width="2" stroke-miterlimit="10" stroke-linecap="round" stroke-linejoin="round"/>
<path d="M28.7695 93.8267L36.465 91.5996" stroke="#242F26" stroke-width="2" stroke-miterlimit="10" stroke-linecap="round" stroke-linejoin="round"/>
<path d="M23.2031 86.8365L29.6495 84.9707" stroke="#242F26" stroke-width="2" stroke-miterlimit="10" stroke-linecap="round" stroke-linejoin="round"/>
<path d="M35.0084 80.6484L33.1758 88.1648" stroke="#242F26" stroke-width="2" stroke-miterlimit="10" stroke-linecap="round" stroke-linejoin="round"/>
<path d="M28.1455 77.0918L26.9277 82.0869" stroke="#242F26" stroke-width="2" stroke-miterlimit="10" stroke-linecap="round" stroke-linejoin="round"/>
<path d="M40.0889 108.377L39.543 111.385L36.1064 106.743L40.0889 108.377Z" fill="#5B5340" stroke="#5B5340"/>
<path d="M40.6543 108.069L34.6387 105.602L39.8285 112.611L40.6543 108.069Z" fill="#5B5340" stroke="#5B5340" stroke-width="2" stroke-miterlimit="10" stroke-linecap="round" stroke-linejoin="round"/>
<path d="M41.8542 58.1C48.5748 60.0822 60.1959 61.9023 60.4758 74.3637C60.4758 74.3637 65.2361 66.523 59.6356 60.3621C59.6356 60.3621 60.4758 52.5214 49.2748 51.961C38.0738 51.4007 41.8542 58.1 41.8542 58.1Z" fill="#364F3A"/>
<path d="M59.6349 60.363C59.6349 60.363 60.0375 56.5607 56.5 54.0625C57.9951 56.237 57.7566 58.4847 57.7566 58.4847C61.3191 62.4035 60.6886 66.9985 59.7589 69.8266C60.1802 71.1608 60.4369 72.6597 60.4751 74.364C60.4751 74.364 65.2354 66.5239 59.6349 60.363Z" fill="#364F3A"/>
<path d="M41.8542 58.1C48.5748 60.0822 60.1959 61.9023 60.4758 74.3637C60.4758 74.3637 65.2361 66.523 59.6356 60.3621C59.6356 60.3621 60.4758 52.5214 49.2748 51.961C38.0738 51.4007 41.8542 58.1 41.8542 58.1Z" stroke="#242F26" stroke-width="2" stroke-miterlimit="10" stroke-linecap="round" stroke-linejoin="round"/>
<path d="M41.8535 58.1003C41.8535 58.1003 52.2143 53.9217 59.6355 60.3625" stroke="#242F26" stroke-width="2" stroke-miterlimit="10" stroke-linecap="round" stroke-linejoin="round"/>
<path d="M38.5829 56.848C31.8623 58.8302 20.2412 60.6503 19.9613 73.1117C19.9613 73.1117 15.201 65.271 20.8015 59.1101C20.8015 59.1101 19.9613 51.2694 31.1623 50.709C42.3634 50.1493 38.5829 56.848 38.5829 56.848Z" fill="#364F3A"/>
<path d="M20.8015 59.111C20.8015 59.111 20.3989 55.3087 23.9364 52.8105C22.4413 54.985 22.6799 57.2327 22.6799 57.2327C19.1173 61.1515 19.7478 65.7465 20.6776 68.5746C20.2562 69.9088 19.9995 71.4077 19.9613 73.112C19.9613 73.112 15.201 65.2719 20.8015 59.111Z" fill="#364F3A"/>
<path d="M38.5829 56.848C31.8623 58.8302 20.2412 60.6503 19.9613 73.1117C19.9613 73.1117 15.201 65.271 20.8015 59.1101C20.8015 59.1101 19.9613 51.2694 31.1623 50.709C42.3634 50.1493 38.5829 56.848 38.5829 56.848Z" stroke="#242F26" stroke-width="2" stroke-miterlimit="10" stroke-linecap="round" stroke-linejoin="round"/>
<path d="M38.5847 56.8484C38.5847 56.8484 28.224 52.6698 20.8027 59.1105" stroke="#242F26" stroke-width="2" stroke-miterlimit="10" stroke-linecap="round" stroke-linejoin="round"/>
<path d="M43.1084 50.2441V115.5H39.9434V50.2441H43.1084Z" fill="#364F3A" stroke="#364F3A"/>
<path d="M43.6088 49.7441H39.4434V116H43.6088V49.7441Z" fill="#364F3A" stroke="#364F3A" stroke-width="2" stroke-miterlimit="10" stroke-linecap="round" stroke-linejoin="round"/>
<path d="M59.9261 103.446C51.8625 109.838 42.2524 107.08 42.2524 107.08C42.2524 107.08 41.4015 97.3805 49.4645 90.9892C57.5281 84.598 71.4527 83.9355 71.4527 83.9355C71.4527 83.9355 67.9897 97.055 59.9261 103.446Z" fill="#364F3A"/>
<path d="M59.9261 103.446C51.8625 109.838 42.2524 107.08 42.2524 107.08C42.2524 107.08 41.4015 97.3805 49.4645 90.9892C57.5281 84.598 71.4527 83.9355 71.4527 83.9355C71.4527 83.9355 67.9897 97.055 59.9261 103.446Z" fill="#364F3A"/>
<path d="M49.4642 90.9892C48.7599 91.5471 48.1275 92.1319 47.5527 92.7317C55.7153 87.6934 68.886 85.7168 68.886 85.7168C68.886 85.7168 64.5634 98.0611 57.926 104.829C58.5985 104.422 59.2672 103.968 59.9258 103.446C67.9894 97.055 71.4524 83.9355 71.4524 83.9355C71.4524 83.9355 57.5278 84.598 49.4642 90.9892Z" fill="#364F3A"/>
<path d="M59.9261 103.446C51.8625 109.838 42.2524 107.08 42.2524 107.08C42.2524 107.08 41.4015 97.3805 49.4645 90.9892C57.5281 84.598 71.4527 83.9355 71.4527 83.9355C71.4527 83.9355 67.9897 97.055 59.9261 103.446Z" stroke="#242F26" stroke-width="2" stroke-miterlimit="10" stroke-linecap="round" stroke-linejoin="round"/>
<path d="M70.9232 84.3555L42.252 107.081" stroke="#242F26" stroke-width="2" stroke-miterlimit="10" stroke-linecap="round" stroke-linejoin="round"/>
<path d="M47.8848 92.3926L49.4425 101.382" stroke="#242F26" stroke-width="2" stroke-miterlimit="10" stroke-linecap="round" stroke-linejoin="round"/>
<path d="M54.1108 106.597L46.6914 103.811" stroke="#242F26" stroke-width="2" stroke-miterlimit="10" stroke-linecap="round" stroke-linejoin="round"/>
<path d="M56.7656 87.0117L58.0704 94.5419" stroke="#242F26" stroke-width="2" stroke-miterlimit="10" stroke-linecap="round" stroke-linejoin="round"/>
<path d="M62.3802 101.162L53.8809 98.1094" stroke="#242F26" stroke-width="2" stroke-miterlimit="10" stroke-linecap="round" stroke-linejoin="round"/>
<path d="M65.4688 84.6777L65.9803 88.2741" stroke="#242F26" stroke-width="2" stroke-miterlimit="10" stroke-linecap="round" stroke-linejoin="round"/>
<path d="M67.4391 93.8698L61.791 91.8418" stroke="#242F26" stroke-width="2" stroke-miterlimit="10" stroke-linecap="round" stroke-linejoin="round"/>
<path d="M32.7248 55.581C30.2485 56.6729 25.4451 59.4271 25.42 65.181C25.3906 71.9636 31.368 75.4072 31.368 75.4072C31.368 75.4072 29.8028 65.9111 32.7248 64.5549C35.6468 63.1982 42.7425 61.529 43.264 54.7458C43.264 54.7458 38.1613 53.1843 32.7248 55.581Z" fill="#364F3A"/>
<path d="M26.0455 67.0593C26.0706 61.3048 30.874 58.5505 33.3503 57.4592C37.4074 55.6705 41.2761 56.0868 42.9798 56.413C43.1194 55.894 43.2183 55.3405 43.264 54.7463C43.264 54.7463 38.1613 53.1842 32.7248 55.5809C30.2485 56.6729 25.4451 59.4271 25.42 65.181C25.4125 66.8953 25.7901 68.3942 26.3567 69.6802C26.1613 68.8688 26.0417 67.9997 26.0455 67.0593Z" fill="#364F3A"/>
<path d="M32.7248 55.5812C30.2485 56.6731 25.4451 59.4273 25.42 65.1811C25.3906 71.9637 31.368 75.4072 31.368 75.4072C31.368 75.4072 29.8028 65.9112 32.7248 64.555C35.6468 63.1983 42.7425 61.5291 43.264 54.746C43.264 54.746 38.1613 53.1845 32.7248 55.5812Z" stroke="#242F26" stroke-width="2" stroke-miterlimit="10" stroke-linecap="round" stroke-linejoin="round"/>
<path d="M28.8633 67.8937C28.8633 67.8937 30.8067 65.3442 32.7245 64.5547" stroke="#242F26" stroke-width="2" stroke-miterlimit="10" stroke-linecap="round" stroke-linejoin="round"/>
<path d="M42.2726 54.6718C41.4843 59.7264 41.6302 61.4569 44.802 67.507C47.9739 73.5564 47.0673 76.3826 47.0673 76.3826C47.0673 76.3826 57.8012 64.5918 48.1423 55.4069C46.8269 54.1559 42.2726 54.6718 42.2726 54.6718Z" fill="#364F3A"/>
<path d="M50.2259 57.875C52.8549 64.1649 48.8923 70.6006 46.957 73.1989C47.3922 75.3452 47.0678 76.3827 47.0678 76.3827C47.0678 76.3827 55.993 66.5703 50.2259 57.875Z" fill="#364F3A"/>
<path d="M42.2726 54.6718C41.4843 59.7264 41.6302 61.4569 44.802 67.507C47.9739 73.5564 47.0673 76.3826 47.0673 76.3826C47.0673 76.3826 57.8012 64.5918 48.1423 55.4069C46.8269 54.1559 42.2726 54.6718 42.2726 54.6718Z" stroke="#242F26" stroke-width="2" stroke-miterlimit="10" stroke-linecap="round" stroke-linejoin="round"/>
<path d="M41.5254 81.1452L47.541 78.6777L42.3519 85.687L41.5254 81.1452Z" fill="#5B5340"/>
<path d="M41.5254 81.1452L47.541 78.6777L42.3519 85.687L41.5254 81.1452Z" fill="#5B5340" stroke="#5B5340" stroke-width="2" stroke-miterlimit="10" stroke-linecap="round" stroke-linejoin="round"/>
<path d="M18.3999 31.2949C18.2227 32.2078 18.1595 60.2341 44.5373 58.1354C44.5373 58.1354 50.3632 52.8079 48.8468 47.0509C47.3304 41.2938 45.2116 39.8049 42.4912 37.6599C39.7702 35.5149 18.3999 31.2949 18.3999 31.2949Z" fill="#2A31EE"/>
<path d="M18.3999 31.2949C18.2227 32.2078 18.1595 60.2341 44.5373 58.1354C44.5373 58.1354 50.3632 52.8079 48.8468 47.0509C47.3304 41.2938 45.2116 39.8049 42.4912 37.6599C39.7702 35.5149 18.3999 31.2949 18.3999 31.2949Z" stroke="#0F29CF" stroke-width="2" stroke-miterlimit="10" stroke-linecap="round" stroke-linejoin="round"/>
<path d="M42.3444 47.392C34.3371 40.2656 21.162 30.6386 27.4938 26.3999C33.8262 22.1605 50.4067 22.8148 55.1845 21.3522C59.9617 19.8897 62.4304 19.5059 62.4304 19.5059C62.4304 19.5059 67.5946 25.6617 57.8261 37.1126C48.0569 48.5628 42.3444 47.392 42.3444 47.392Z" fill="#2A31EE"/>
<path d="M40.5407 58.4465C40.5407 58.4465 36.2231 55.3535 41.4986 49.2196C46.7736 43.0856 61.38 32.2822 66.1133 30.377C66.1133 30.377 66.0789 43.1025 61.3355 49.6416C52.4448 61.8988 40.5407 58.4465 40.5407 58.4465Z" fill="#2A31EE"/>
<path d="M40.5407 58.4465C40.5407 58.4465 36.2231 55.3535 41.4986 49.2196C46.7736 43.0856 61.38 32.2822 66.1133 30.377C66.1133 30.377 66.0789 43.1025 61.3355 49.6416C52.4448 61.8988 40.5407 58.4465 40.5407 58.4465Z" stroke="#0F29CF" stroke-width="2" stroke-miterlimit="10" stroke-linecap="round" stroke-linejoin="round"/>
<path d="M58.0905 14.7654C57.4205 18.2554 60.7552 23.1233 57.9696 29.0413C55.1841 34.9592 44.6142 44.0728 41.498 49.2188C41.498 49.2188 49.8434 41.4914 56.9203 38.8148C63.9971 36.1382 72.5372 30.3605 69.4668 24.1326C69.4668 24.1326 73.2466 17.7457 70.3565 12.7638C66.8547 6.7275 58.7084 11.5466 58.0905 14.7654Z" fill="#2A31EE"/>
<path d="M70.3565 12.7644C69.1919 10.7572 67.5134 9.95511 65.769 9.89062C66.6587 10.3433 67.4664 11.0865 68.115 12.2041C71.0051 17.186 67.2253 23.5729 67.2253 23.5729C70.2964 29.8008 61.7563 35.5785 54.6788 38.2551C52.1337 39.218 49.4264 40.834 47.0003 42.5088C44.678 45.0345 42.6113 47.3812 41.498 49.22C41.498 49.22 49.8434 41.4927 56.9203 38.8161C63.9971 36.1395 72.5372 30.3618 69.4668 24.1339C69.4668 24.1339 73.2466 17.7457 70.3565 12.7644Z" fill="#2A31EE"/>
<path d="M58.0905 14.7654C57.4205 18.2554 60.7552 23.1233 57.9696 29.0413C55.1841 34.9592 44.6142 44.0728 41.498 49.2188C41.498 49.2188 49.8434 41.4914 56.9203 38.8148C63.9971 36.1382 72.5372 30.3605 69.4668 24.1326C69.4668 24.1326 73.2466 17.7457 70.3565 12.7638C66.8547 6.7275 58.7084 11.5466 58.0905 14.7654Z" stroke="#0F29CF" stroke-width="2" stroke-miterlimit="10" stroke-linecap="round" stroke-linejoin="round"/>
<path d="M62.8185 16.2136C62.8185 16.2136 67.5243 11.3456 64.1915 6.66546C60.8588 1.98532 53.1652 4.72391 53.1652 4.72391C53.1652 4.72391 52.2166 1.50635 45.9944 1.0543C39.7722 0.602257 33.302 3.03906 29.916 5.88408C29.916 5.88408 48.4675 8.77418 52.5266 10.8754C56.5868 12.976 62.8185 16.2136 62.8185 16.2136Z" fill="#2A31EE"/>
<path d="M64.1915 6.66546C60.8588 1.98532 53.1652 4.72391 53.1652 4.72391C53.1652 4.72391 52.2166 1.50635 45.9944 1.0543C39.7722 0.602257 33.302 3.03906 29.916 5.88408C29.916 5.88408 30.1383 5.91914 30.5215 5.9805C34.1147 3.8868 39.2938 2.37038 44.3139 2.7354C50.5362 3.18745 51.4841 6.405 51.4841 6.405C51.4841 6.405 59.1777 3.66642 62.5104 8.34655C64.5691 11.2379 63.5598 14.1994 62.4879 16.042C62.6989 16.1516 62.8185 16.2136 62.8185 16.2136C62.8185 16.2136 67.5243 11.3456 64.1915 6.66546Z" fill="#2A31EE"/>
<path d="M62.8185 16.2136C62.8185 16.2136 67.5243 11.3456 64.1915 6.66546C60.8588 1.98532 53.1652 4.72391 53.1652 4.72391C53.1652 4.72391 52.2166 1.50635 45.9944 1.0543C39.7722 0.602257 33.302 3.03906 29.916 5.88408C29.916 5.88408 48.4675 8.77418 52.5266 10.8754C56.5868 12.976 62.8185 16.2136 62.8185 16.2136Z" stroke="#0F29CF" stroke-width="2" stroke-miterlimit="10" stroke-linecap="round" stroke-linejoin="round"/>
<path d="M55.8895 18.4181C56.192 18.4669 54.951 12.0074 51.2595 8.56883C47.568 5.13027 39.8894 4.2318 32.4219 7.67538C32.4219 7.67538 38.8945 12.1426 43.3731 13.778C47.8522 15.4134 55.8895 18.4181 55.8895 18.4181Z" fill="#DDDDDD"/>
<path d="M55.8895 18.4181C56.192 18.4669 54.951 12.0074 51.2595 8.56883C47.568 5.13027 39.8894 4.2318 32.4219 7.67538C32.4219 7.67538 38.8945 12.1426 43.3731 13.778C47.8522 15.4134 55.8895 18.4181 55.8895 18.4181Z" stroke="#8C8C8C" stroke-width="2" stroke-miterlimit="10" stroke-linecap="round" stroke-linejoin="round"/>
<path d="M17.4548 24.001L15.6979 13.2132C15.6979 13.2132 12.3815 7.43052 21.7342 6.43313C21.7342 6.43313 27.4074 1.38986 34.498 5.15713C41.5887 8.92441 41.3326 11.7387 41.3326 11.7387C41.3326 11.7387 39.4737 16.4752 36.0213 21.2975C32.569 26.1204 25.9341 30.5419 25.9341 30.5419L17.4548 24.001Z" fill="#DDDDDD"/>
<path d="M16.8189 16.0144C16.8189 16.0144 13.5018 10.2317 22.8551 9.23433C22.8551 9.23433 28.5283 4.19105 35.6189 7.95833C38.5792 9.5311 40.2559 10.9367 41.2082 12.0418C41.2877 11.8521 41.3328 11.7387 41.3328 11.7387C41.3328 11.7387 41.5888 8.92441 34.4982 5.15713C27.4076 1.38986 21.7344 6.43313 21.7344 6.43313C12.381 7.43115 15.6981 13.2132 15.6981 13.2132L17.455 24.001L18.2151 24.5871L16.8189 16.0144Z" fill="#DDDDDD"/>
<path d="M17.4548 24.001L15.6979 13.2132C15.6979 13.2132 12.3815 7.43052 21.7342 6.43313C21.7342 6.43313 27.4074 1.38986 34.498 5.15713C41.5886 8.92441 41.3326 11.7387 41.3326 11.7387C41.3326 11.7387 39.4737 16.4752 36.0213 21.2975C32.569 26.1204 25.9341 30.5419 25.9341 30.5419L17.4548 24.001Z" stroke="#8C8C8C" stroke-width="2" stroke-miterlimit="10" stroke-linecap="round" stroke-linejoin="round"/>
<path d="M46.2498 44.8037C46.2498 44.8037 46.4539 36.0995 38.1311 33.4405C29.8083 30.7808 22.62 26.934 21.1668 21.3498C19.7136 15.7655 17.9674 14.4181 15.6984 13.2129C15.6984 13.2129 12.9153 15.8187 15.6182 20.472C15.6182 20.472 10.1492 23.9725 15.0197 30.603C19.8901 37.2334 32.3014 37.5477 37.5019 38.7849C44.6545 40.4873 46.2498 44.8037 46.2498 44.8037Z" fill="#2A31EE"/>
<path d="M18.3655 17.9884C18.8977 20.0339 20.1975 21.8596 22.0388 23.4787C21.6556 22.7987 21.3595 22.09 21.1673 21.3506C19.9927 16.8388 18.6272 15.0933 16.9492 13.9531C17.4526 14.9837 17.9228 16.2879 18.3655 17.9884Z" fill="#2A31EE"/>
<path d="M46.2148 44.7188C46.2382 44.7724 46.2502 44.804 46.2502 44.804C46.2502 44.804 46.2502 44.7889 46.2508 44.7655C46.2382 44.7503 46.2262 44.7345 46.2148 44.7188Z" fill="#2A31EE"/>
<path d="M34.701 35.4238C30.091 34.3269 19.8173 33.9512 14.1504 29.2617C14.3952 29.6944 14.6801 30.1408 15.0201 30.6041C19.8905 37.2345 32.3018 37.5488 37.5022 38.786C40.3147 39.4553 42.265 40.5285 43.5999 41.5847C41.1305 38.8925 37.9706 36.2015 34.701 35.4238Z" fill="#2A31EE"/>
<path d="M46.2498 44.8037C46.2498 44.8037 46.4539 36.0995 38.1311 33.4405C29.8083 30.7808 22.62 26.934 21.1668 21.3498C19.7136 15.7655 17.9674 14.4181 15.6984 13.2129C15.6984 13.2129 12.9153 15.8187 15.6182 20.472C15.6182 20.472 10.1492 23.9725 15.0197 30.603C19.8901 37.2334 32.3014 37.5477 37.5019 38.7849C44.6545 40.4873 46.2498 44.8037 46.2498 44.8037Z" stroke="#0F29CF" stroke-width="2" stroke-miterlimit="10" stroke-linecap="round" stroke-linejoin="round"/>
<path d="M50.3208 17.4628C50.3208 17.4628 50.23 14.8651 46.0959 11.9656C41.9617 9.06673 35.9899 11.1229 35.129 12.3594C35.129 12.3594 29.9542 10.7416 28.2155 13.0506C26.4768 15.3597 36.0669 19.0556 41.5359 19.1358C47.005 19.2159 50.3208 17.4628 50.3208 17.4628Z" fill="white"/>
<path d="M50.3208 17.4628C50.3208 17.4628 50.23 14.8651 46.0959 11.9656C41.9617 9.06673 35.9899 11.1229 35.129 12.3594C35.129 12.3594 29.9542 10.7416 28.2155 13.0506C26.4768 15.3597 36.0669 19.0556 41.5359 19.1358C47.005 19.2159 50.3208 17.4628 50.3208 17.4628Z" stroke="#8C8C8C" stroke-width="2" stroke-miterlimit="10" stroke-linecap="round" stroke-linejoin="round"/>
<path d="M39.9574 17.681C39.9574 17.681 32.1955 16.7832 29.7393 12.0467C29.7393 12.0467 27.8322 9.22482 24.5796 9.81837C21.327 10.4119 22.901 15.4157 25.9783 15.7501C25.9783 15.7501 25.5714 22.425 40.3606 21.7106L39.9574 17.681Z" fill="white"/>
<path d="M28.7802 15.1896C26.1649 14.9053 24.6472 11.2564 26.2438 9.8007C25.7373 9.71617 25.1819 9.70803 24.5796 9.8176C21.327 10.4112 22.901 15.415 25.9783 15.7493C25.9783 15.7493 25.5714 22.4242 40.3606 21.7098L40.3093 21.1933C28.4345 20.9685 28.7802 15.1896 28.7802 15.1896Z" fill="white"/>
<path d="M39.9574 17.681C39.9574 17.681 32.1955 16.7832 29.7393 12.0467C29.7393 12.0467 27.8322 9.22482 24.5796 9.81837C21.327 10.4119 22.901 15.4157 25.9783 15.7501C25.9783 15.7501 25.5714 22.425 40.3606 21.7106L39.9574 17.681Z" stroke="#8C8C8C" stroke-width="2" stroke-miterlimit="10" stroke-linecap="round" stroke-linejoin="round"/>
<path d="M55.9971 16.9312C55.9971 16.9312 46.3557 12.7225 36.373 16.744C36.373 16.744 37.1313 21.6457 42.8338 22.2725C48.5364 22.8992 56.4166 21.1323 56.4166 21.1323C56.4166 21.1323 58.0714 19.7705 55.9971 16.9312Z" fill="white"/>
<path d="M39.7352 18.425C46.3776 15.7491 52.8647 16.717 56.4648 17.6643C56.3339 17.4308 56.1855 17.1891 55.9971 16.9312C55.9971 16.9312 46.3557 12.7225 36.373 16.744C36.373 16.744 37.0442 21.0685 41.8534 22.1128C40.0652 20.4912 39.7352 18.425 39.7352 18.425Z" fill="white"/>
<path d="M55.9971 16.9309C55.9971 16.9309 46.0013 12.7579 36.373 16.7437C36.373 16.7437 37.1313 21.6455 42.8338 22.2722C48.5364 22.899 56.4166 21.1321 56.4166 21.1321C56.4166 21.1321 58.0714 19.7703 55.9971 16.9309Z" stroke="#8C8C8C" stroke-width="2" stroke-miterlimit="10" stroke-linecap="round" stroke-linejoin="round"/>
<path d="M28.1172 29.1301C28.1591 28.7156 32.6921 20.9857 40.7752 21.7151C48.8582 22.4451 55.2576 19.5588 55.7334 15.6081C56.0002 13.3948 54.614 11.9241 54.614 11.9241C54.614 11.9241 60.9044 10.5779 63.4752 16.2667C66.0466 21.9555 60.0999 27.5736 54.0223 25.2081C54.0223 25.2081 49.7178 30.5595 44.1361 28.1439C38.555 25.7291 28.1172 29.1301 28.1172 29.1301Z" fill="#DDDDDD"/>
<path d="M63.4754 16.2667C62.0166 13.0385 59.3606 12.0768 57.3358 11.8477C58.8065 12.4481 60.2779 13.5901 61.2346 15.7063C63.806 21.3958 58.5717 25.7052 52.4941 23.3398C52.4941 23.3398 48.9485 27.2549 44.2715 28.1965C49.7875 30.468 54.0231 25.2075 54.0231 25.2075C60.1001 27.5735 66.0468 21.9555 63.4754 16.2667Z" fill="#DDDDDD"/>
<path d="M28.1172 29.1301C28.1591 28.7156 32.6921 20.9857 40.7752 21.7151C48.8582 22.4451 54.9827 19.5162 55.7334 15.6081C56.1129 13.6308 54.614 11.9241 54.614 11.9241C54.614 11.9241 60.9044 10.5779 63.4752 16.2667C66.0466 21.9555 60.0999 27.5736 54.0223 25.2081C54.0223 25.2081 49.7178 30.5595 44.1361 28.1439C38.555 25.7291 28.1172 29.1301 28.1172 29.1301Z" stroke="#8C8C8C" stroke-width="2" stroke-miterlimit="10" stroke-linecap="round" stroke-linejoin="round"/>
<path d="M0 123.637H16.7661V147.746H0L3.11927 135.472L0 123.637Z" fill="#5B5340"/>
<path d="M85 123.637H68.2339V147.746H85L81.8807 135.472L85 123.637Z" fill="#5B5340"/>
<rect x="8.70898" y="117.062" width="67.5841" height="24.1097" fill="#BFB39A"/>
<path d="M24.9037 135.062C24.9037 134.497 24.989 133.996 25.1597 133.558C25.341 133.121 25.581 132.721 25.8797 132.358C26.1784 131.985 26.5144 131.628 26.8877 131.286C27.2717 130.934 27.661 130.566 28.0557 130.182C28.749 129.521 29.2504 128.908 29.5597 128.342C29.869 127.777 30.0237 127.233 30.0237 126.71C30.0237 126.305 29.965 125.916 29.8477 125.542C29.741 125.158 29.5437 124.844 29.2557 124.598C28.9677 124.353 28.5677 124.23 28.0557 124.23C27.6184 124.23 27.229 124.342 26.8877 124.566C26.5464 124.78 26.317 125.046 26.1997 125.366C26.3064 125.473 26.381 125.59 26.4237 125.718C26.4664 125.836 26.4877 125.953 26.4877 126.07C26.4877 126.166 26.461 126.273 26.4077 126.39C26.365 126.508 26.285 126.609 26.1677 126.694C26.0504 126.78 25.8957 126.822 25.7037 126.822C25.469 126.812 25.2877 126.721 25.1597 126.55C25.0317 126.38 24.9677 126.177 24.9677 125.942C24.9677 125.718 25.037 125.473 25.1757 125.206C25.3144 124.929 25.5224 124.673 25.7997 124.438C26.0877 124.193 26.4397 123.996 26.8557 123.846C27.2717 123.686 27.757 123.606 28.3117 123.606C28.7384 123.606 29.149 123.66 29.5437 123.766C29.949 123.862 30.3117 124.022 30.6317 124.246C30.9517 124.47 31.2024 124.769 31.3837 125.142C31.5757 125.505 31.6717 125.958 31.6717 126.502C31.6717 126.769 31.613 127.057 31.4957 127.366C31.389 127.676 31.2077 128.012 30.9517 128.374C30.7064 128.726 30.3864 129.105 29.9917 129.51C29.597 129.905 29.1117 130.337 28.5357 130.806C27.8104 131.404 27.213 131.969 26.7437 132.502C26.285 133.025 26.0184 133.473 25.9437 133.846L28.7757 133.926C29.2984 133.937 29.757 133.937 30.1517 133.926C30.557 133.916 30.8717 133.836 31.0957 133.686C31.3304 133.526 31.4477 133.238 31.4477 132.822H31.9277L31.8317 135.062H24.9037ZM38.8575 135.319C38.0468 135.319 37.3748 135.148 36.8415 134.806C36.3081 134.454 35.8921 133.996 35.5935 133.43C35.2948 132.854 35.0815 132.225 34.9535 131.542C34.8361 130.86 34.7775 130.182 34.7775 129.51C34.7775 128.838 34.8521 128.156 35.0015 127.462C35.1615 126.769 35.4068 126.134 35.7375 125.558C36.0681 124.972 36.4948 124.502 37.0175 124.15C37.5401 123.788 38.1748 123.606 38.9215 123.606C39.7001 123.606 40.3455 123.782 40.8575 124.134C41.3801 124.486 41.7908 124.95 42.0895 125.526C42.3988 126.092 42.6175 126.716 42.7455 127.398C42.8735 128.081 42.9375 128.758 42.9375 129.43C42.9375 130.092 42.8628 130.769 42.7135 131.462C42.5641 132.156 42.3295 132.796 42.0095 133.382C41.6895 133.958 41.2681 134.428 40.7455 134.79C40.2335 135.143 39.6041 135.319 38.8575 135.319ZM38.9535 134.694C39.4121 134.694 39.7908 134.55 40.0895 134.262C40.3881 133.974 40.6228 133.59 40.7935 133.11C40.9748 132.63 41.1028 132.102 41.1775 131.526C41.2521 130.94 41.2895 130.353 41.2895 129.766C41.2895 129.116 41.2521 128.465 41.1775 127.814C41.1028 127.164 40.9748 126.567 40.7935 126.023C40.6121 125.478 40.3668 125.041 40.0575 124.71C39.7481 124.38 39.3588 124.214 38.8895 124.214C38.4308 124.214 38.0415 124.358 37.7215 124.646C37.4121 124.934 37.1615 125.318 36.9695 125.798C36.7775 126.278 36.6388 126.812 36.5535 127.398C36.4681 127.985 36.4255 128.577 36.4255 129.174C36.4255 129.622 36.4468 130.097 36.4895 130.598C36.5321 131.1 36.6068 131.596 36.7135 132.086C36.8308 132.566 36.9855 133.004 37.1775 133.398C37.3695 133.793 37.6095 134.108 37.8975 134.342C38.1855 134.577 38.5375 134.694 38.9535 134.694ZM46.123 135.062V134.535C46.4963 134.513 46.779 134.428 46.971 134.278C47.1736 134.129 47.3123 133.921 47.387 133.654C47.4723 133.388 47.515 133.073 47.515 132.711L47.467 125.158L45.547 126.39L45.227 125.926L48.347 123.606H48.891L48.907 133.318C48.907 133.521 48.9016 133.718 48.891 133.91C48.891 134.102 48.8803 134.273 48.859 134.422C49.083 134.412 49.307 134.401 49.531 134.39C49.755 134.38 49.979 134.369 50.203 134.358V135.062H46.123ZM56.6071 135.319C55.6577 135.319 54.9004 135.095 54.3351 134.646C53.7804 134.198 53.3804 133.564 53.1351 132.742C52.9004 131.91 52.7831 130.929 52.7831 129.798C52.7831 129.414 52.8151 128.961 52.8791 128.438C52.9537 127.905 53.0817 127.361 53.2631 126.806C53.4444 126.241 53.6951 125.718 54.0151 125.238C54.3457 124.748 54.7671 124.353 55.2791 124.054C55.7911 123.756 56.4097 123.606 57.1351 123.606C57.7751 123.606 58.3031 123.724 58.7191 123.958C59.1351 124.182 59.4444 124.454 59.6471 124.774C59.8604 125.084 59.9671 125.372 59.9671 125.638C59.9671 125.862 59.9084 126.054 59.7911 126.214C59.6844 126.364 59.5137 126.449 59.2791 126.47C59.0124 126.481 58.8257 126.406 58.7191 126.247C58.6124 126.086 58.5591 125.937 58.5591 125.798C58.5591 125.692 58.5751 125.58 58.6071 125.462C58.6391 125.345 58.6871 125.233 58.7511 125.126C58.6977 124.934 58.5271 124.732 58.2391 124.518C57.9617 124.305 57.6044 124.198 57.1671 124.198C56.6764 124.198 56.2604 124.326 55.9191 124.582C55.5884 124.838 55.3164 125.174 55.1031 125.59C54.9004 126.006 54.7404 126.454 54.6231 126.934C54.5057 127.404 54.4204 127.857 54.3671 128.294C54.3244 128.732 54.2977 129.105 54.2871 129.414C54.4684 129.18 54.6871 128.961 54.9431 128.758C55.1991 128.556 55.4977 128.39 55.8391 128.262C56.1804 128.134 56.5591 128.07 56.9751 128.07C57.6151 128.07 58.1484 128.182 58.5751 128.406C59.0124 128.62 59.3591 128.902 59.6151 129.254C59.8817 129.606 60.0684 129.996 60.1751 130.422C60.2924 130.838 60.3511 131.249 60.3511 131.654C60.3511 132.316 60.1857 132.929 59.8551 133.494C59.5351 134.049 59.0924 134.492 58.5271 134.822C57.9617 135.153 57.3217 135.319 56.6071 135.319ZM56.6391 134.694C57.1404 134.694 57.5457 134.572 57.8551 134.326C58.1644 134.07 58.3884 133.74 58.5271 133.334C58.6657 132.918 58.7351 132.476 58.7351 132.006C58.7351 131.708 58.7084 131.377 58.6551 131.014C58.6017 130.641 58.5004 130.289 58.3511 129.958C58.2124 129.617 58.0044 129.34 57.7271 129.126C57.4497 128.902 57.0871 128.79 56.6391 128.79C56.3084 128.79 55.9831 128.876 55.6631 129.046C55.3431 129.206 55.0604 129.42 54.8151 129.686C54.5804 129.953 54.4097 130.241 54.3031 130.55C54.3351 131.062 54.3937 131.564 54.4791 132.054C54.5751 132.545 54.7084 132.988 54.8791 133.382C55.0604 133.777 55.2951 134.097 55.5831 134.342C55.8711 134.577 56.2231 134.694 56.6391 134.694Z" fill="black"/>
</svg>
