<svg width="137" height="237" viewBox="0 0 137 237" fill="none" xmlns="http://www.w3.org/2000/svg">
<path d="M0 198.014H26.8322V236.598H0L4.99204 216.955L0 198.014Z" fill="#5B5340"/>
<path d="M136.033 198.016H109.201V236.6H136.033L131.041 216.957L136.033 198.016Z" fill="#5B5340"/>
<rect x="13.9375" y="187.492" width="108.161" height="38.5848" fill="#BFB39A"/>
<path d="M40.5297 216.492C40.5297 215.609 40.663 214.826 40.9297 214.142C41.213 213.459 41.588 212.834 42.0547 212.267C42.5213 211.684 43.0463 211.126 43.6297 210.592C44.2297 210.042 44.838 209.467 45.4547 208.867C46.538 207.834 47.3213 206.876 47.8047 205.992C48.288 205.109 48.5297 204.259 48.5297 203.442C48.5297 202.809 48.438 202.201 48.2547 201.617C48.088 201.017 47.7797 200.526 47.3297 200.142C46.8797 199.759 46.2547 199.567 45.4547 199.567C44.7713 199.567 44.163 199.742 43.6297 200.092C43.0963 200.426 42.738 200.842 42.5547 201.342C42.7213 201.509 42.838 201.692 42.9047 201.892C42.9713 202.076 43.0047 202.259 43.0047 202.442C43.0047 202.592 42.963 202.759 42.8797 202.942C42.813 203.126 42.688 203.284 42.5047 203.417C42.3213 203.551 42.0797 203.617 41.7797 203.617C41.413 203.601 41.1297 203.459 40.9297 203.192C40.7297 202.926 40.6297 202.609 40.6297 202.242C40.6297 201.892 40.738 201.509 40.9547 201.092C41.1713 200.659 41.4963 200.259 41.9297 199.892C42.3797 199.509 42.9297 199.201 43.5797 198.967C44.2297 198.717 44.988 198.592 45.8547 198.592C46.5213 198.592 47.163 198.676 47.7797 198.842C48.413 198.992 48.9797 199.242 49.4797 199.592C49.9797 199.942 50.3713 200.409 50.6547 200.992C50.9547 201.559 51.1047 202.267 51.1047 203.117C51.1047 203.534 51.013 203.984 50.8297 204.467C50.663 204.951 50.3797 205.476 49.9797 206.042C49.5963 206.592 49.0963 207.184 48.4797 207.817C47.863 208.434 47.1047 209.109 46.2047 209.842C45.0713 210.776 44.138 211.659 43.4047 212.492C42.688 213.309 42.2713 214.009 42.1547 214.592L46.5797 214.717C47.3963 214.734 48.113 214.734 48.7297 214.717C49.363 214.701 49.8547 214.576 50.2047 214.342C50.5713 214.092 50.7547 213.642 50.7547 212.992H51.5047L51.3547 216.492H40.5297ZM62.3324 216.892C61.0657 216.892 60.0157 216.626 59.1824 216.092C58.3491 215.542 57.6991 214.826 57.2324 213.942C56.7657 213.042 56.4324 212.059 56.2324 210.992C56.0491 209.926 55.9574 208.867 55.9574 207.817C55.9574 206.767 56.0741 205.701 56.3074 204.617C56.5574 203.534 56.9407 202.542 57.4574 201.642C57.9741 200.726 58.6407 199.992 59.4574 199.442C60.2741 198.876 61.2657 198.592 62.4324 198.592C63.6491 198.592 64.6574 198.867 65.4574 199.417C66.2741 199.967 66.9157 200.692 67.3824 201.592C67.8657 202.476 68.2074 203.451 68.4074 204.517C68.6074 205.584 68.7074 206.642 68.7074 207.692C68.7074 208.726 68.5907 209.784 68.3574 210.867C68.1241 211.951 67.7574 212.951 67.2574 213.867C66.7574 214.767 66.0991 215.501 65.2824 216.067C64.4824 216.617 63.4991 216.892 62.3324 216.892ZM62.4824 215.917C63.1991 215.917 63.7907 215.692 64.2574 215.242C64.7241 214.792 65.0907 214.192 65.3574 213.442C65.6407 212.692 65.8407 211.867 65.9574 210.967C66.0741 210.051 66.1324 209.134 66.1324 208.217C66.1324 207.201 66.0741 206.184 65.9574 205.167C65.8407 204.151 65.6407 203.217 65.3574 202.367C65.0741 201.517 64.6907 200.834 64.2074 200.317C63.7241 199.801 63.1157 199.542 62.3824 199.542C61.6657 199.542 61.0574 199.767 60.5574 200.217C60.0741 200.667 59.6824 201.267 59.3824 202.017C59.0824 202.767 58.8657 203.601 58.7324 204.517C58.5991 205.434 58.5324 206.359 58.5324 207.292C58.5324 207.992 58.5657 208.734 58.6324 209.517C58.6991 210.301 58.8157 211.076 58.9824 211.842C59.1657 212.592 59.4074 213.276 59.7074 213.892C60.0074 214.509 60.3824 215.001 60.8324 215.367C61.2824 215.734 61.8324 215.917 62.4824 215.917ZM73.6847 216.492V215.667C74.2681 215.634 74.7097 215.501 75.0097 215.267C75.3264 215.034 75.5431 214.709 75.6597 214.292C75.7931 213.876 75.8597 213.384 75.8597 212.817L75.7847 201.017L72.7847 202.942L72.2847 202.217L77.1597 198.592H78.0097L78.0347 213.767C78.0347 214.084 78.0264 214.392 78.0097 214.692C78.0097 214.992 77.9931 215.259 77.9597 215.492C78.3097 215.476 78.6597 215.459 79.0097 215.442C79.3597 215.426 79.7097 215.409 80.0597 215.392V216.492H73.6847ZM90.0662 216.892C88.5828 216.892 87.3995 216.542 86.5162 215.842C85.6495 215.142 85.0245 214.151 84.6412 212.867C84.2745 211.567 84.0912 210.034 84.0912 208.267C84.0912 207.667 84.1412 206.959 84.2412 206.142C84.3578 205.309 84.5578 204.459 84.8412 203.592C85.1245 202.709 85.5162 201.892 86.0162 201.142C86.5328 200.376 87.1912 199.759 87.9912 199.292C88.7912 198.826 89.7578 198.592 90.8912 198.592C91.8912 198.592 92.7162 198.776 93.3662 199.142C94.0162 199.492 94.4995 199.917 94.8162 200.417C95.1495 200.901 95.3162 201.351 95.3162 201.767C95.3162 202.117 95.2245 202.417 95.0412 202.667C94.8745 202.901 94.6078 203.034 94.2412 203.067C93.8245 203.084 93.5328 202.967 93.3662 202.717C93.1995 202.467 93.1162 202.234 93.1162 202.017C93.1162 201.851 93.1412 201.676 93.1912 201.492C93.2412 201.309 93.3162 201.134 93.4162 200.967C93.3328 200.667 93.0662 200.351 92.6162 200.017C92.1828 199.684 91.6245 199.517 90.9412 199.517C90.1745 199.517 89.5245 199.717 88.9912 200.117C88.4745 200.517 88.0495 201.042 87.7162 201.692C87.3995 202.342 87.1495 203.042 86.9662 203.792C86.7828 204.526 86.6495 205.234 86.5662 205.917C86.4995 206.601 86.4578 207.184 86.4412 207.667C86.7245 207.301 87.0662 206.959 87.4662 206.642C87.8662 206.326 88.3328 206.067 88.8662 205.867C89.3995 205.667 89.9912 205.567 90.6412 205.567C91.6412 205.567 92.4745 205.742 93.1412 206.092C93.8245 206.426 94.3662 206.867 94.7662 207.417C95.1828 207.967 95.4745 208.576 95.6412 209.242C95.8245 209.892 95.9162 210.534 95.9162 211.167C95.9162 212.201 95.6578 213.159 95.1412 214.042C94.6412 214.909 93.9495 215.601 93.0662 216.117C92.1828 216.634 91.1828 216.892 90.0662 216.892ZM90.1162 215.917C90.8995 215.917 91.5328 215.726 92.0162 215.342C92.4995 214.942 92.8495 214.426 93.0662 213.792C93.2828 213.142 93.3912 212.451 93.3912 211.717C93.3912 211.251 93.3495 210.734 93.2662 210.167C93.1828 209.584 93.0245 209.034 92.7912 208.517C92.5745 207.984 92.2495 207.551 91.8162 207.217C91.3828 206.867 90.8162 206.692 90.1162 206.692C89.5995 206.692 89.0912 206.826 88.5912 207.092C88.0912 207.342 87.6495 207.676 87.2662 208.092C86.8995 208.509 86.6328 208.959 86.4662 209.442C86.5162 210.242 86.6078 211.026 86.7412 211.792C86.8912 212.559 87.0995 213.251 87.3662 213.867C87.6495 214.484 88.0162 214.984 88.4662 215.367C88.9162 215.734 89.4662 215.917 90.1162 215.917Z" fill="black"/>
<path d="M31.2871 119.555C31.8176 119.644 32.5883 119.783 33.5459 119.98C35.4617 120.375 38.1224 121.004 41.0986 121.94C47.0652 123.818 54.243 126.914 59.2559 131.79C64.2527 136.65 66.1791 142.389 66.8555 146.926C67.1936 149.194 67.2188 151.157 67.1592 152.552C67.1294 153.248 67.0782 153.802 67.0352 154.18C67.0257 154.263 67.0143 154.338 67.0059 154.403C66.9406 154.414 66.8667 154.427 66.7842 154.438C66.4079 154.492 65.8558 154.558 65.1602 154.607C63.768 154.706 61.8042 154.735 59.5273 154.46C54.9732 153.91 49.1838 152.142 44.1875 147.282C39.1746 142.406 35.8808 135.317 33.8389 129.404C32.8203 126.455 32.1184 123.812 31.6709 121.908C31.4472 120.956 31.2864 120.19 31.1826 119.662C31.1738 119.617 31.1662 119.574 31.1582 119.533C31.1994 119.54 31.2424 119.547 31.2871 119.555Z" fill="#364F3A" stroke="#242F26"/>
<path d="M31.2871 119.555C31.8176 119.644 32.5883 119.783 33.5459 119.98C35.4617 120.375 38.1224 121.004 41.0986 121.94C47.0652 123.818 54.243 126.914 59.2559 131.79C64.2527 136.65 66.1791 142.389 66.8555 146.926C67.1936 149.194 67.2188 151.157 67.1592 152.552C67.1294 153.248 67.0782 153.802 67.0352 154.18C67.0257 154.263 67.0143 154.338 67.0059 154.403C66.9406 154.414 66.8667 154.427 66.7842 154.438C66.4079 154.492 65.8558 154.558 65.1602 154.607C63.768 154.706 61.8042 154.735 59.5273 154.46C54.9732 153.91 49.1838 152.142 44.1875 147.282C39.1746 142.406 35.8808 135.317 33.8389 129.404C32.8204 126.455 32.1184 123.813 31.6709 121.909C31.4472 120.957 31.2864 120.19 31.1826 119.662C31.1738 119.617 31.1662 119.574 31.1582 119.533C31.1994 119.54 31.2424 119.547 31.2871 119.555Z" fill="#364F3A" stroke="#242F26"/>
<path d="M31.2852 119.555C31.8156 119.644 32.5864 119.783 33.5439 119.98C35.4599 120.375 38.1211 121.004 41.0977 121.94C46.7677 123.724 53.53 126.61 58.4902 131.076C53.8131 128.282 48.4209 126.122 43.8643 124.581C40.9547 123.597 38.3744 122.862 36.5215 122.373C35.5949 122.128 34.8492 121.945 34.335 121.822C34.0781 121.761 33.8786 121.715 33.7432 121.685C33.6756 121.669 33.6239 121.658 33.5889 121.65C33.5714 121.647 33.5579 121.644 33.5488 121.642C33.5443 121.641 33.5405 121.64 33.5381 121.64L33.5361 121.639H33.5352H33.5342L32.7285 121.464L32.9473 122.26V122.261C32.9474 122.261 32.948 122.263 32.9482 122.264C32.9489 122.266 32.9491 122.269 32.9502 122.273C32.9526 122.282 32.9571 122.295 32.9619 122.312C32.9715 122.347 32.985 122.398 33.0039 122.464C33.0417 122.597 33.0983 122.792 33.1729 123.044C33.322 123.548 33.5445 124.277 33.8369 125.185C34.4218 126.999 35.2882 129.525 36.416 132.374C38.1797 136.829 40.5925 142.097 43.5771 146.667C38.9057 141.823 35.796 135.073 33.8379 129.404C32.8191 126.455 32.1166 123.812 31.6689 121.908C31.4452 120.956 31.2845 120.19 31.1807 119.662C31.1719 119.617 31.1642 119.574 31.1562 119.533C31.1975 119.54 31.2405 119.547 31.2852 119.555Z" fill="#364F3A" stroke="#242F26"/>
<path d="M59.6044 131.432C69.7979 141.347 67.4511 154.836 67.4511 154.836C67.4511 154.836 54.0312 157.555 43.8387 147.64C33.6453 137.725 30.5391 118.932 30.5391 118.932C30.5391 118.932 49.4109 121.517 59.6044 131.432Z" stroke="#242F26" stroke-width="2" stroke-miterlimit="10" stroke-linecap="round" stroke-linejoin="round"/>
<path d="M31.2051 119.582L67.4488 154.835" stroke="#242F26" stroke-width="2" stroke-miterlimit="10" stroke-linecap="round" stroke-linejoin="round"/>
<path d="M46.043 149.558L58.3587 145.994" stroke="#242F26" stroke-width="2" stroke-miterlimit="10" stroke-linecap="round" stroke-linejoin="round"/>
<path d="M37.1348 138.373L47.4515 135.387" stroke="#242F26" stroke-width="2" stroke-miterlimit="10" stroke-linecap="round" stroke-linejoin="round"/>
<path d="M56.0286 128.469L53.0957 140.498" stroke="#242F26" stroke-width="2" stroke-miterlimit="10" stroke-linecap="round" stroke-linejoin="round"/>
<path d="M45.0446 122.777L43.0957 130.771" stroke="#242F26" stroke-width="2" stroke-miterlimit="10" stroke-linecap="round" stroke-linejoin="round"/>
<path d="M64.498 172.659L63.4551 178.394L56.9033 169.545L64.498 172.659Z" fill="#5B5340" stroke="#5B5340"/>
<path d="M65.0629 172.351L55.4355 168.402L63.7412 179.62L65.0629 172.351Z" fill="#5B5340" stroke="#5B5340" stroke-width="2" stroke-miterlimit="10" stroke-linecap="round" stroke-linejoin="round"/>
<path d="M66.9845 92.3819C77.7401 95.5543 96.3384 98.4671 96.7863 118.41C96.7863 118.41 104.405 105.862 95.4416 96.0022C95.4416 96.0022 96.7863 83.454 78.8603 82.5572C60.9344 81.6604 66.9845 92.3819 66.9845 92.3819Z" fill="#364F3A"/>
<path d="M95.4389 96.0032C95.4389 96.0032 96.0832 89.9179 90.4219 85.9199C92.8147 89.3999 92.4329 92.9971 92.4329 92.9971C98.1343 99.2687 97.1253 106.622 95.6373 111.149C96.3117 113.284 96.7225 115.683 96.7836 118.41C96.7836 118.41 104.402 105.863 95.4389 96.0032Z" fill="#364F3A"/>
<path d="M66.9845 92.3819C77.7401 95.5543 96.3384 98.4671 96.7863 118.41C96.7863 118.41 104.405 105.862 95.4416 96.0022C95.4416 96.0022 96.7863 83.454 78.8603 82.5572C60.9344 81.6604 66.9845 92.3819 66.9845 92.3819Z" stroke="#242F26" stroke-width="2" stroke-miterlimit="10" stroke-linecap="round" stroke-linejoin="round"/>
<path d="M66.9824 92.383C66.9824 92.383 83.5637 85.6955 95.4406 96.0032" stroke="#242F26" stroke-width="2" stroke-miterlimit="10" stroke-linecap="round" stroke-linejoin="round"/>
<path d="M61.7477 90.3779C50.9921 93.5503 32.3937 96.4631 31.9458 116.406C31.9458 116.406 24.3276 103.858 33.2906 93.9982C33.2906 93.9982 31.9459 81.45 49.8718 80.5532C67.7978 79.6574 61.7477 90.3779 61.7477 90.3779Z" fill="#364F3A"/>
<path d="M33.2906 94.0012C33.2906 94.0012 32.6463 87.916 38.3076 83.918C35.9148 87.398 36.2966 90.9952 36.2966 90.9952C30.5951 97.2668 31.6042 104.621 33.0922 109.147C32.4178 111.282 32.007 113.681 31.9458 116.408C31.9458 116.408 24.3276 103.861 33.2906 94.0012Z" fill="#364F3A"/>
<path d="M61.7477 90.3779C50.9921 93.5503 32.3937 96.4631 31.9458 116.406C31.9458 116.406 24.3276 103.858 33.2906 93.9982C33.2906 93.9982 31.9459 81.45 49.8718 80.5532C67.7978 79.6574 61.7477 90.3779 61.7477 90.3779Z" stroke="#242F26" stroke-width="2" stroke-miterlimit="10" stroke-linecap="round" stroke-linejoin="round"/>
<path d="M61.7511 90.379C61.7511 90.379 45.1698 83.6916 33.293 93.9993" stroke="#242F26" stroke-width="2" stroke-miterlimit="10" stroke-linecap="round" stroke-linejoin="round"/>
<path d="M69.291 79.5098V184.545H63.625V79.5098H69.291Z" fill="#364F3A" stroke="#364F3A"/>
<path d="M69.7914 79.0098H63.125V185.045H69.7914V79.0098Z" fill="#364F3A" stroke="#364F3A" stroke-width="2" stroke-miterlimit="10" stroke-linecap="round" stroke-linejoin="round"/>
<path d="M95.9062 164.953C83.0013 175.182 67.6214 170.769 67.6214 170.769C67.6214 170.769 66.2597 155.246 79.1636 145.017C92.0685 134.789 114.353 133.729 114.353 133.729C114.353 133.729 108.811 154.725 95.9062 164.953Z" fill="#364F3A"/>
<path d="M95.9062 164.953C83.0013 175.182 67.6214 170.769 67.6214 170.769C67.6214 170.769 66.2597 155.246 79.1636 145.017C92.0685 134.789 114.353 133.729 114.353 133.729C114.353 133.729 108.811 154.725 95.9062 164.953Z" fill="#364F3A"/>
<path d="M79.1627 145.017C78.0354 145.91 77.0234 146.846 76.1035 147.806C89.1667 139.743 110.245 136.579 110.245 136.579C110.245 136.579 103.327 156.335 92.7048 167.166C93.781 166.515 94.8511 165.788 95.9053 164.953C108.81 154.725 114.352 133.729 114.352 133.729C114.352 133.729 92.0676 134.789 79.1627 145.017Z" fill="#364F3A"/>
<path d="M95.9062 164.953C83.0013 175.182 67.6214 170.769 67.6214 170.769C67.6214 170.769 66.2597 155.246 79.1636 145.017C92.0685 134.789 114.353 133.729 114.353 133.729C114.353 133.729 108.811 154.725 95.9062 164.953Z" stroke="#242F26" stroke-width="2" stroke-miterlimit="10" stroke-linecap="round" stroke-linejoin="round"/>
<path d="M113.506 134.4L67.6211 170.769" stroke="#242F26" stroke-width="2" stroke-miterlimit="10" stroke-linecap="round" stroke-linejoin="round"/>
<path d="M76.6348 147.264L79.1278 161.651" stroke="#242F26" stroke-width="2" stroke-miterlimit="10" stroke-linecap="round" stroke-linejoin="round"/>
<path d="M86.5985 169.996L74.7246 165.537" stroke="#242F26" stroke-width="2" stroke-miterlimit="10" stroke-linecap="round" stroke-linejoin="round"/>
<path d="M90.8477 138.652L92.9359 150.704" stroke="#242F26" stroke-width="2" stroke-miterlimit="10" stroke-linecap="round" stroke-linejoin="round"/>
<path d="M99.8328 161.297L86.2305 156.412" stroke="#242F26" stroke-width="2" stroke-miterlimit="10" stroke-linecap="round" stroke-linejoin="round"/>
<path d="M104.775 134.916L105.594 140.672" stroke="#242F26" stroke-width="2" stroke-miterlimit="10" stroke-linecap="round" stroke-linejoin="round"/>
<path d="M107.93 149.628L98.8906 146.383" stroke="#242F26" stroke-width="2" stroke-miterlimit="10" stroke-linecap="round" stroke-linejoin="round"/>
<path d="M52.3723 88.3512C48.4093 90.0987 40.7219 94.5065 40.6818 103.715C40.6347 114.57 50.2009 120.081 50.2009 120.081C50.2009 120.081 47.6959 104.883 52.3723 102.713C57.0487 100.542 68.4045 97.8703 69.2391 87.0145C69.2391 87.0145 61.0727 84.5155 52.3723 88.3512Z" fill="#364F3A"/>
<path d="M41.6828 106.721C41.7229 97.5115 49.4103 93.1036 53.3733 91.3571C59.8663 88.4944 66.0578 89.1607 68.7842 89.6828C69.0077 88.8521 69.166 87.9663 69.2391 87.0154C69.2391 87.0154 61.0727 84.5154 52.3723 88.3511C48.4093 90.0986 40.7219 94.5065 40.6818 103.715C40.6698 106.458 41.274 108.857 42.1808 110.915C41.8682 109.617 41.6768 108.226 41.6828 106.721Z" fill="#364F3A"/>
<path d="M52.3723 88.3515C48.4093 90.099 40.7219 94.5068 40.6818 103.715C40.6347 114.57 50.2009 120.081 50.2009 120.081C50.2009 120.081 47.6959 104.884 52.3723 102.713C57.0487 100.542 68.4045 97.8705 69.2391 87.0148C69.2391 87.0148 61.0727 84.5158 52.3723 88.3515Z" stroke="#242F26" stroke-width="2" stroke-miterlimit="10" stroke-linecap="round" stroke-linejoin="round"/>
<path d="M46.1934 108.057C46.1934 108.057 49.3036 103.976 52.3728 102.713" stroke="#242F26" stroke-width="2" stroke-miterlimit="10" stroke-linecap="round" stroke-linejoin="round"/>
<path d="M67.6523 86.8953C66.3908 94.9845 66.6242 97.7541 71.7004 107.436C76.7766 117.118 75.3257 121.641 75.3257 121.641C75.3257 121.641 92.5042 102.771 77.0462 88.0716C74.9409 86.0696 67.6523 86.8953 67.6523 86.8953Z" fill="#364F3A"/>
<path d="M80.3819 92.0215C84.5893 102.088 78.2476 112.387 75.1504 116.546C75.8468 119.981 75.3277 121.641 75.3277 121.641C75.3277 121.641 89.6114 105.937 80.3819 92.0215Z" fill="#364F3A"/>
<path d="M67.6523 86.8953C66.3908 94.9845 66.6242 97.7541 71.7004 107.436C76.7766 117.118 75.3257 121.641 75.3257 121.641C75.3257 121.641 92.5042 102.771 77.0462 88.0716C74.9409 86.0696 67.6523 86.8953 67.6523 86.8953Z" stroke="#242F26" stroke-width="2" stroke-miterlimit="10" stroke-linecap="round" stroke-linejoin="round"/>
<path d="M66.457 129.263L76.0844 125.314L67.7797 136.532L66.457 129.263Z" fill="#5B5340"/>
<path d="M66.457 129.263L76.0844 125.314L67.7797 136.532L66.457 129.263Z" fill="#5B5340" stroke="#5B5340" stroke-width="2" stroke-miterlimit="10" stroke-linecap="round" stroke-linejoin="round"/>
<path d="M29.4473 49.4844C29.1638 50.9453 29.0626 95.7984 71.2773 92.4396C71.2773 92.4396 80.601 83.9135 78.1741 74.7C75.7473 65.4865 72.3565 63.1037 68.0027 59.6708C63.648 56.2379 29.4473 49.4844 29.4473 49.4844Z" fill="white"/>
<path d="M29.4473 49.4844C29.1638 50.9453 29.0626 95.7984 71.2773 92.4396C71.2773 92.4396 80.601 83.9135 78.1741 74.7C75.7473 65.4865 72.3565 63.1037 68.0027 59.6708C63.648 56.2379 29.4473 49.4844 29.4473 49.4844Z" stroke="#D0D9EE" stroke-width="2" stroke-miterlimit="10" stroke-linecap="round" stroke-linejoin="round"/>
<path d="M67.7675 75.2458C54.9528 63.8409 33.8675 48.434 44.0008 41.6503C54.1352 34.8657 80.6705 35.9128 88.3168 33.5721C95.9622 31.2314 99.9131 30.6172 99.9131 30.6172C99.9131 30.6172 108.178 40.469 92.5443 58.7948C76.9099 77.1195 67.7675 75.2458 67.7675 75.2458Z" fill="white"/>
<path d="M64.8814 92.9359C64.8814 92.9359 57.9715 87.9859 66.4145 78.1692C74.8564 68.3525 98.2324 51.0628 105.808 48.0137C105.808 48.0137 105.752 68.3796 98.1612 78.8446C83.9326 98.4609 64.8814 92.9359 64.8814 92.9359Z" fill="white"/>
<path d="M64.8814 92.9359C64.8814 92.9359 57.9715 87.9859 66.4145 78.1692C74.8564 68.3525 98.2324 51.0628 105.808 48.0137C105.808 48.0137 105.752 68.3796 98.1612 78.8446C83.9326 98.4609 64.8814 92.9359 64.8814 92.9359Z" stroke="#D0D9EE" stroke-width="2" stroke-miterlimit="10" stroke-linecap="round" stroke-linejoin="round"/>
<path d="M92.9684 23.0301C91.8962 28.6153 97.2329 36.406 92.775 45.877C88.317 55.348 71.4011 69.9333 66.4141 78.1688C66.4141 78.1688 79.7699 65.802 91.0956 61.5184C102.421 57.2348 116.089 47.9882 111.175 38.0212C111.175 38.0212 117.224 27.7997 112.599 19.8267C106.995 10.1663 93.9574 17.8788 92.9684 23.0301Z" fill="white"/>
<path d="M112.599 19.8277C110.735 16.6153 108.049 15.3317 105.257 15.2285C106.681 15.953 107.973 17.1424 109.012 18.9309C113.637 26.904 107.588 37.1255 107.588 37.1255C112.503 47.0925 98.8352 56.339 87.5084 60.6226C83.4352 62.1637 79.1025 64.7499 75.2197 67.4303C71.5033 71.4724 68.1956 75.228 66.4141 78.1709C66.4141 78.1709 79.7699 65.804 91.0956 61.5204C102.421 57.2368 116.089 47.9903 111.175 38.0233C111.175 38.0233 117.224 27.7997 112.599 19.8277Z" fill="white"/>
<path d="M92.9684 23.0301C91.8962 28.6153 97.2329 36.406 92.775 45.877C88.317 55.348 71.4011 69.9333 66.4141 78.1688C66.4141 78.1688 79.7699 65.802 91.0956 61.5184C102.421 57.2348 116.089 47.9882 111.175 38.0212C111.175 38.0212 117.224 27.7997 112.599 19.8267C106.995 10.1663 93.9574 17.8788 92.9684 23.0301Z" stroke="#D0D9EE" stroke-width="2" stroke-miterlimit="10" stroke-linecap="round" stroke-linejoin="round"/>
<path d="M100.534 25.3476C100.534 25.3476 108.065 17.557 102.731 10.0669C97.3974 2.5769 85.0846 6.9597 85.0846 6.9597C85.0846 6.9597 83.5666 1.81036 73.6086 1.08691C63.6506 0.363456 53.2958 4.26329 47.877 8.81643C47.877 8.81643 77.5666 13.4417 84.0626 16.8045C90.5607 20.1662 100.534 25.3476 100.534 25.3476Z" fill="white"/>
<path d="M102.731 10.0669C97.3974 2.5769 85.0846 6.9597 85.0846 6.9597C85.0846 6.9597 83.5666 1.81036 73.6086 1.08691C63.6506 0.363456 53.2958 4.26329 47.877 8.81643C47.877 8.81643 48.2327 8.87254 48.8459 8.97074C54.5965 5.62001 62.8851 3.19314 70.9192 3.77731C80.8772 4.50076 82.3942 9.6501 82.3942 9.6501C82.3942 9.6501 94.707 5.2673 100.041 12.7573C103.335 17.3846 101.72 22.1241 100.005 25.0731C100.342 25.2484 100.534 25.3476 100.534 25.3476C100.534 25.3476 108.065 17.557 102.731 10.0669Z" fill="white"/>
<path d="M100.534 25.3476C100.534 25.3476 108.065 17.557 102.731 10.0669C97.3974 2.5769 85.0846 6.9597 85.0846 6.9597C85.0846 6.9597 83.5666 1.81036 73.6086 1.08691C63.6506 0.363456 53.2958 4.26329 47.877 8.81643C47.877 8.81643 77.5666 13.4417 84.0626 16.8045C90.5607 20.1662 100.534 25.3476 100.534 25.3476Z" stroke="#D0D9EE" stroke-width="2" stroke-miterlimit="10" stroke-linecap="round" stroke-linejoin="round"/>
<path d="M89.4461 28.8763C89.93 28.9545 87.9441 18.6167 82.0362 13.1137C76.1283 7.61062 63.8397 6.17274 51.8887 11.6838C51.8887 11.6838 62.2475 18.8332 69.4149 21.4504C76.5832 24.0677 89.4461 28.8763 89.4461 28.8763Z" fill="#FC6F6F"/>
<path d="M89.4461 28.8763C89.93 28.9545 87.9441 18.6167 82.0362 13.1137C76.1283 7.61062 63.8397 6.17274 51.8887 11.6838C51.8887 11.6838 62.2475 18.8332 69.4149 21.4504C76.5832 24.0677 89.4461 28.8763 89.4461 28.8763Z" stroke="#FF5252" stroke-width="2" stroke-miterlimit="10" stroke-linecap="round" stroke-linejoin="round"/>
<path d="M27.9344 37.8099L25.1228 20.5452C25.1228 20.5452 19.8151 11.2906 34.7832 9.69444C34.7832 9.69444 43.8624 1.62324 55.2102 7.65235C66.558 13.6814 66.1481 18.1855 66.1481 18.1855C66.1481 18.1855 63.1732 25.7657 57.6481 33.4832C52.123 41.2017 41.5047 48.2779 41.5047 48.2779L27.9344 37.8099Z" fill="#FC6F6F"/>
<path d="M26.9167 25.0282C26.9167 25.0282 21.608 15.7736 36.5771 14.1774C36.5771 14.1774 45.6563 6.10624 57.0041 12.1353C61.7416 14.6524 64.425 16.9019 65.9491 18.6705C66.0763 18.3669 66.1484 18.1855 66.1484 18.1855C66.1484 18.1855 66.5583 13.6814 55.2105 7.65235C43.8627 1.62324 34.7835 9.69444 34.7835 9.69444C19.8144 11.2916 25.1231 20.5452 25.1231 20.5452L27.9347 37.8099L29.1512 38.7478L26.9167 25.0282Z" fill="#FC6F6F"/>
<path d="M27.9344 37.8099L25.1228 20.5452C25.1228 20.5452 19.8151 11.2906 34.7832 9.69444C34.7832 9.69444 43.8624 1.62324 55.2102 7.65235C66.558 13.6814 66.1481 18.1855 66.1481 18.1855C66.1481 18.1855 63.1732 25.7657 57.6481 33.4832C52.123 41.2017 41.5047 48.2779 41.5047 48.2779L27.9344 37.8099Z" stroke="#FF5252" stroke-width="2" stroke-miterlimit="10" stroke-linecap="round" stroke-linejoin="round"/>
<path d="M74.0192 71.1024C74.0192 71.1024 74.3459 57.1725 61.0261 52.9169C47.7064 48.6604 36.2023 42.504 33.8766 33.5671C31.551 24.6301 28.7564 22.4738 25.1251 20.5449C25.1251 20.5449 20.6711 24.7153 24.9968 32.1622C24.9968 32.1622 16.2443 37.7645 24.0389 48.3758C31.8336 58.9871 51.6964 59.4901 60.0191 61.4701C71.4661 64.1946 74.0192 71.1024 74.0192 71.1024Z" fill="white"/>
<path d="M29.3915 28.1884C30.2433 31.462 32.3234 34.3839 35.2703 36.9751C34.6571 35.8869 34.1832 34.7526 33.8756 33.5692C31.9958 26.3487 29.8104 23.5551 27.125 21.7305C27.9306 23.3798 28.6831 25.467 29.3915 28.1884Z" fill="white"/>
<path d="M73.9629 70.9668C74.0002 71.0526 74.0194 71.1031 74.0194 71.1031C74.0194 71.1031 74.0194 71.0788 74.0204 71.0415C74.0002 71.0173 73.9811 70.992 73.9629 70.9668Z" fill="white"/>
<path d="M55.5355 56.0923C48.1577 54.3367 31.7157 53.7355 22.6465 46.2305C23.0383 46.9229 23.4942 47.6373 24.0383 48.3788C31.8329 58.9901 51.6958 59.4931 60.0185 61.4731C64.5195 62.5442 67.6408 64.2617 69.7771 65.9521C65.8252 61.6434 60.768 57.3368 55.5355 56.0923Z" fill="white"/>
<path d="M74.0192 71.1024C74.0192 71.1024 74.3459 57.1724 61.0261 52.9169C47.7064 48.6604 36.2023 42.504 33.8766 33.5671C31.551 24.6301 28.7564 22.4738 25.1251 20.5449C25.1251 20.5449 20.6711 24.7153 24.9968 32.1622C24.9968 32.1622 16.2443 37.7645 24.0389 48.3758C31.8336 58.9871 51.6964 59.4901 60.0191 61.4701C71.4661 64.1946 74.0192 71.1024 74.0192 71.1024Z" stroke="#D0D9EE" stroke-width="2" stroke-miterlimit="10" stroke-linecap="round" stroke-linejoin="round"/>
<path d="M80.5337 27.3463C80.5337 27.3463 80.3884 23.189 73.7721 18.5487C67.1558 13.9093 57.5986 17.1999 56.2209 19.1789C56.2209 19.1789 47.9393 16.5897 45.1567 20.2851C42.3741 23.9806 57.7219 29.8954 66.4745 30.0237C75.227 30.1519 80.5337 27.3463 80.5337 27.3463Z" fill="#03A9B5"/>
<path d="M80.5337 27.3463C80.5337 27.3463 80.3884 23.189 73.7721 18.5487C67.1558 13.9093 57.5986 17.1999 56.2209 19.1789C56.2209 19.1789 47.9393 16.5897 45.1567 20.2851C42.3741 23.9806 57.7219 29.8954 66.4745 30.0237C75.227 30.1519 80.5337 27.3463 80.5337 27.3463Z" stroke="#FF5252" stroke-width="2" stroke-miterlimit="10" stroke-linecap="round" stroke-linejoin="round"/>
<path d="M63.9486 27.697C63.9486 27.697 51.5267 26.2601 47.5958 18.6799C47.5958 18.6799 44.5437 14.1638 39.3382 15.1137C34.1328 16.0636 36.6518 24.0717 41.5767 24.6068C41.5767 24.6068 40.9254 35.2892 64.5939 34.1459L63.9486 27.697Z" fill="#03A9B5"/>
<path d="M46.0607 23.7097C41.8753 23.2548 39.4465 17.4151 42.0016 15.0854C41.191 14.9502 40.3022 14.9371 39.3382 15.1125C34.1328 16.0624 36.6518 24.0705 41.5767 24.6055C41.5767 24.6055 40.9254 35.288 64.5939 34.1447L64.5118 33.318C45.5076 32.9583 46.0607 23.7097 46.0607 23.7097Z" fill="#03A9B5"/>
<path d="M63.9486 27.697C63.9486 27.697 51.5267 26.2601 47.5958 18.6799C47.5958 18.6799 44.5437 14.1638 39.3382 15.1137C34.1328 16.0636 36.6518 24.0717 41.5767 24.6068C41.5767 24.6068 40.9254 35.2892 64.5939 34.1459L63.9486 27.697Z" stroke="#FF5252" stroke-width="2" stroke-miterlimit="10" stroke-linecap="round" stroke-linejoin="round"/>
<path d="M89.617 26.4965C89.617 26.4965 74.187 19.7609 58.2109 26.1969C58.2109 26.1969 59.4244 34.0416 68.5507 35.0446C77.677 36.0476 90.2883 33.22 90.2883 33.22C90.2883 33.22 92.9367 31.0406 89.617 26.4965Z" fill="#03A9B5"/>
<path d="M63.5918 28.8873C74.2221 24.6047 84.604 26.1538 90.3655 27.6698C90.1561 27.2961 89.9186 26.9093 89.617 26.4965C89.617 26.4965 74.187 19.7609 58.2109 26.1969C58.2109 26.1969 59.2851 33.1178 66.9816 34.7891C64.1198 32.1939 63.5918 28.8873 63.5918 28.8873Z" fill="#03A9B5"/>
<path d="M89.617 26.4965C89.617 26.4965 73.6199 19.8181 58.2109 26.1969C58.2109 26.1969 59.4244 34.0416 68.5507 35.0446C77.677 36.0477 90.2883 33.22 90.2883 33.22C90.2883 33.22 92.9367 31.0406 89.617 26.4965Z" stroke="#FF5252" stroke-width="2" stroke-miterlimit="10" stroke-linecap="round" stroke-linejoin="round"/>
<path d="M45 46.0183C45.0671 45.355 52.3217 32.9842 65.2577 34.1515C78.1936 35.3199 88.4352 30.7006 89.1967 24.3779C89.6236 20.8358 87.4051 18.4821 87.4051 18.4821C87.4051 18.4821 97.4723 16.3277 101.587 25.432C105.702 34.5363 96.1848 43.5273 86.4582 39.7417C86.4582 39.7417 79.5694 48.3059 70.6365 44.4402C61.7045 40.5754 45 46.0183 45 46.0183Z" fill="#FC6F6F"/>
<path d="M101.585 25.4335C99.2506 20.2672 95 18.7281 91.7595 18.3613C94.1133 19.3223 96.468 21.1499 97.9991 24.5367C102.114 33.642 93.7375 40.5388 84.011 36.7532C84.011 36.7532 78.3366 43.0188 70.8516 44.5259C79.6793 48.1612 86.4579 39.7423 86.4579 39.7423C96.1834 43.5289 105.701 34.5378 101.585 25.4335Z" fill="#FC6F6F"/>
<path d="M45 46.0183C45.0671 45.355 52.3217 32.9842 65.2577 34.1515C78.1936 35.3199 87.9953 30.6325 89.1967 24.3779C89.8039 21.2135 87.4051 18.4821 87.4051 18.4821C87.4051 18.4821 97.4723 16.3277 101.587 25.432C105.702 34.5363 96.1848 43.5273 86.4582 39.7417C86.4582 39.7417 79.5694 48.3059 70.6365 44.4402C61.7045 40.5754 45 46.0183 45 46.0183Z" stroke="#FF5252" stroke-width="2" stroke-miterlimit="10" stroke-linecap="round" stroke-linejoin="round"/>
</svg>
