<svg width="137" height="235" viewBox="0 0 137 235" fill="none" xmlns="http://www.w3.org/2000/svg">
<path d="M31.2871 119.555C31.8176 119.644 32.5883 119.783 33.5459 119.98C35.4617 120.375 38.1224 121.004 41.0986 121.94C47.0652 123.818 54.243 126.914 59.2559 131.79C64.2527 136.65 66.1791 142.389 66.8555 146.926C67.1936 149.194 67.2188 151.157 67.1592 152.552C67.1294 153.248 67.0782 153.802 67.0352 154.18C67.0257 154.263 67.0143 154.338 67.0059 154.403C66.9406 154.414 66.8667 154.427 66.7842 154.438C66.4079 154.492 65.8558 154.558 65.1602 154.607C63.768 154.706 61.8042 154.735 59.5273 154.46C54.9732 153.91 49.1838 152.142 44.1875 147.282C39.1746 142.406 35.8808 135.317 33.8389 129.404C32.8203 126.455 32.1184 123.812 31.6709 121.908C31.4472 120.956 31.2864 120.19 31.1826 119.662C31.1738 119.617 31.1662 119.574 31.1582 119.533C31.1994 119.54 31.2424 119.547 31.2871 119.555Z" fill="#364F3A" stroke="#242F26"/>
<path d="M31.2871 119.555C31.8176 119.644 32.5883 119.783 33.5459 119.98C35.4617 120.375 38.1224 121.004 41.0986 121.94C47.0652 123.818 54.243 126.914 59.2559 131.79C64.2527 136.65 66.1791 142.389 66.8555 146.926C67.1936 149.194 67.2188 151.157 67.1592 152.552C67.1294 153.248 67.0782 153.802 67.0352 154.18C67.0257 154.263 67.0143 154.338 67.0059 154.403C66.9406 154.414 66.8667 154.427 66.7842 154.438C66.4079 154.492 65.8558 154.558 65.1602 154.607C63.768 154.706 61.8042 154.735 59.5273 154.46C54.9732 153.91 49.1838 152.142 44.1875 147.282C39.1746 142.406 35.8808 135.317 33.8389 129.404C32.8204 126.455 32.1184 123.813 31.6709 121.909C31.4472 120.957 31.2864 120.19 31.1826 119.662C31.1738 119.617 31.1662 119.574 31.1582 119.533C31.1994 119.54 31.2424 119.547 31.2871 119.555Z" fill="#364F3A" stroke="#242F26"/>
<path d="M31.2832 119.555C31.8137 119.644 32.5844 119.783 33.542 119.98C35.4579 120.375 38.1191 121.004 41.0957 121.94C46.7658 123.724 53.5281 126.61 58.4883 131.076C53.8111 128.282 48.419 126.122 43.8623 124.581C40.9527 123.597 38.3724 122.862 36.5195 122.373C35.5929 122.128 34.8473 121.945 34.333 121.822C34.0761 121.761 33.8766 121.715 33.7412 121.685C33.6737 121.669 33.6219 121.658 33.5869 121.65C33.5694 121.647 33.5559 121.644 33.5469 121.642C33.5424 121.641 33.5385 121.64 33.5361 121.64L33.5342 121.639H33.5332H33.5322L32.7266 121.464L32.9453 122.26V122.261C32.9455 122.261 32.946 122.263 32.9463 122.264C32.9469 122.266 32.9471 122.269 32.9482 122.273C32.9507 122.282 32.9552 122.295 32.96 122.312C32.9696 122.347 32.9831 122.398 33.002 122.464C33.0398 122.597 33.0963 122.792 33.1709 123.044C33.3201 123.548 33.5425 124.277 33.835 125.185C34.4198 126.999 35.2863 129.525 36.4141 132.374C38.1778 136.829 40.5906 142.097 43.5752 146.667C38.9038 141.823 35.7941 135.073 33.8359 129.404C32.8172 126.455 32.1146 123.812 31.667 121.908C31.4433 120.956 31.2825 120.19 31.1787 119.662C31.1699 119.617 31.1623 119.574 31.1543 119.533C31.1955 119.54 31.2385 119.547 31.2832 119.555Z" fill="#364F3A" stroke="#242F26"/>
<path d="M59.6044 131.432C69.7979 141.347 67.4511 154.836 67.4511 154.836C67.4511 154.836 54.0312 157.555 43.8387 147.64C33.6453 137.725 30.5391 118.932 30.5391 118.932C30.5391 118.932 49.4109 121.517 59.6044 131.432Z" stroke="#242F26" stroke-width="2" stroke-miterlimit="10" stroke-linecap="round" stroke-linejoin="round"/>
<path d="M31.2051 119.582L67.4488 154.835" stroke="#242F26" stroke-width="2" stroke-miterlimit="10" stroke-linecap="round" stroke-linejoin="round"/>
<path d="M46.043 149.558L58.3587 145.994" stroke="#242F26" stroke-width="2" stroke-miterlimit="10" stroke-linecap="round" stroke-linejoin="round"/>
<path d="M37.1348 138.371L47.4515 135.385" stroke="#242F26" stroke-width="2" stroke-miterlimit="10" stroke-linecap="round" stroke-linejoin="round"/>
<path d="M56.0266 128.469L53.0938 140.498" stroke="#242F26" stroke-width="2" stroke-miterlimit="10" stroke-linecap="round" stroke-linejoin="round"/>
<path d="M45.0427 122.775L43.0938 130.769" stroke="#242F26" stroke-width="2" stroke-miterlimit="10" stroke-linecap="round" stroke-linejoin="round"/>
<path d="M64.498 172.659L63.4551 178.394L56.9033 169.545L64.498 172.659Z" fill="#5B5340" stroke="#5B5340"/>
<path d="M65.0629 172.351L55.4355 168.402L63.7412 179.62L65.0629 172.351Z" fill="#5B5340" stroke="#5B5340" stroke-width="2" stroke-miterlimit="10" stroke-linecap="round" stroke-linejoin="round"/>
<path d="M66.9826 92.3819C77.7381 95.5543 96.3365 98.4671 96.7844 118.41C96.7844 118.41 104.403 105.862 95.4397 96.0022C95.4397 96.0022 96.7844 83.454 78.8584 82.5572C60.9324 81.6604 66.9826 92.3819 66.9826 92.3819Z" fill="#364F3A"/>
<path d="M95.4389 96.0032C95.4389 96.0032 96.0832 89.9179 90.4219 85.9199C92.8147 89.3999 92.4329 92.9971 92.4329 92.9971C98.1343 99.2687 97.1253 106.622 95.6373 111.149C96.3117 113.284 96.7225 115.683 96.7836 118.41C96.7836 118.41 104.402 105.863 95.4389 96.0032Z" fill="#364F3A"/>
<path d="M66.9826 92.3819C77.7381 95.5543 96.3365 98.4671 96.7844 118.41C96.7844 118.41 104.403 105.862 95.4397 96.0022C95.4397 96.0022 96.7844 83.454 78.8584 82.5572C60.9324 81.6604 66.9826 92.3819 66.9826 92.3819Z" stroke="#242F26" stroke-width="2" stroke-miterlimit="10" stroke-linecap="round" stroke-linejoin="round"/>
<path d="M66.9824 92.383C66.9824 92.383 83.5637 85.6955 95.4406 96.0032" stroke="#242F26" stroke-width="2" stroke-miterlimit="10" stroke-linecap="round" stroke-linejoin="round"/>
<path d="M61.7477 90.3779C50.9921 93.5503 32.3937 96.4631 31.9458 116.406C31.9458 116.406 24.3276 103.858 33.2906 93.9982C33.2906 93.9982 31.9459 81.45 49.8718 80.5532C67.7978 79.6574 61.7477 90.3779 61.7477 90.3779Z" fill="#364F3A"/>
<path d="M33.2906 93.9992C33.2906 93.9992 32.6463 87.914 38.3076 83.916C35.9148 87.396 36.2966 90.9932 36.2966 90.9932C30.5951 97.2648 31.6042 104.619 33.0922 109.145C32.4178 111.28 32.007 113.679 31.9458 116.406C31.9458 116.406 24.3276 103.859 33.2906 93.9992Z" fill="#364F3A"/>
<path d="M61.7477 90.3779C50.9921 93.5503 32.3937 96.4631 31.9458 116.406C31.9458 116.406 24.3276 103.858 33.2906 93.9982C33.2906 93.9982 31.9459 81.45 49.8718 80.5532C67.7978 79.6574 61.7477 90.3779 61.7477 90.3779Z" stroke="#242F26" stroke-width="2" stroke-miterlimit="10" stroke-linecap="round" stroke-linejoin="round"/>
<path d="M61.7511 90.379C61.7511 90.379 45.1698 83.6916 33.293 93.9993" stroke="#242F26" stroke-width="2" stroke-miterlimit="10" stroke-linecap="round" stroke-linejoin="round"/>
<path d="M69.291 79.5098V184.545H63.625V79.5098H69.291Z" fill="#364F3A" stroke="#364F3A"/>
<path d="M69.7914 79.0098H63.125V185.045H69.7914V79.0098Z" fill="#364F3A" stroke="#364F3A" stroke-width="2" stroke-miterlimit="10" stroke-linecap="round" stroke-linejoin="round"/>
<path d="M95.9043 164.953C82.9994 175.182 67.6195 170.769 67.6195 170.769C67.6195 170.769 66.2578 155.246 79.1617 145.017C92.0666 134.789 114.351 133.729 114.351 133.729C114.351 133.729 108.809 154.725 95.9043 164.953Z" fill="#364F3A"/>
<path d="M95.9043 164.953C82.9994 175.182 67.6195 170.769 67.6195 170.769C67.6195 170.769 66.2578 155.246 79.1617 145.017C92.0666 134.789 114.351 133.729 114.351 133.729C114.351 133.729 108.809 154.725 95.9043 164.953Z" fill="#364F3A"/>
<path d="M79.1627 145.017C78.0354 145.91 77.0234 146.846 76.1035 147.806C89.1667 139.743 110.245 136.579 110.245 136.579C110.245 136.579 103.327 156.335 92.7048 167.166C93.781 166.515 94.8511 165.788 95.9053 164.953C108.81 154.725 114.352 133.729 114.352 133.729C114.352 133.729 92.0676 134.789 79.1627 145.017Z" fill="#364F3A"/>
<path d="M95.9043 164.953C82.9994 175.182 67.6195 170.769 67.6195 170.769C67.6195 170.769 66.2578 155.246 79.1617 145.017C92.0666 134.789 114.351 133.729 114.351 133.729C114.351 133.729 108.809 154.725 95.9043 164.953Z" stroke="#242F26" stroke-width="2" stroke-miterlimit="10" stroke-linecap="round" stroke-linejoin="round"/>
<path d="M113.504 134.4L67.6191 170.769" stroke="#242F26" stroke-width="2" stroke-miterlimit="10" stroke-linecap="round" stroke-linejoin="round"/>
<path d="M76.6348 147.264L79.1278 161.651" stroke="#242F26" stroke-width="2" stroke-miterlimit="10" stroke-linecap="round" stroke-linejoin="round"/>
<path d="M86.5985 169.996L74.7246 165.537" stroke="#242F26" stroke-width="2" stroke-miterlimit="10" stroke-linecap="round" stroke-linejoin="round"/>
<path d="M90.8477 138.652L92.9359 150.704" stroke="#242F26" stroke-width="2" stroke-miterlimit="10" stroke-linecap="round" stroke-linejoin="round"/>
<path d="M99.8328 161.297L86.2305 156.412" stroke="#242F26" stroke-width="2" stroke-miterlimit="10" stroke-linecap="round" stroke-linejoin="round"/>
<path d="M104.775 134.916L105.594 140.672" stroke="#242F26" stroke-width="2" stroke-miterlimit="10" stroke-linecap="round" stroke-linejoin="round"/>
<path d="M107.928 149.628L98.8887 146.383" stroke="#242F26" stroke-width="2" stroke-miterlimit="10" stroke-linecap="round" stroke-linejoin="round"/>
<path d="M52.3723 88.3512C48.4093 90.0987 40.7219 94.5065 40.6818 103.715C40.6347 114.57 50.2009 120.081 50.2009 120.081C50.2009 120.081 47.6959 104.883 52.3723 102.713C57.0487 100.542 68.4045 97.8703 69.2391 87.0145C69.2391 87.0145 61.0727 84.5155 52.3723 88.3512Z" fill="#364F3A"/>
<path d="M41.6828 106.721C41.7229 97.5115 49.4103 93.1036 53.3733 91.3571C59.8663 88.4944 66.0578 89.1607 68.7842 89.6828C69.0077 88.8521 69.166 87.9663 69.2391 87.0154C69.2391 87.0154 61.0727 84.5154 52.3723 88.3511C48.4093 90.0986 40.7219 94.5065 40.6818 103.715C40.6698 106.458 41.274 108.857 42.1808 110.915C41.8682 109.617 41.6768 108.226 41.6828 106.721Z" fill="#364F3A"/>
<path d="M52.3723 88.3515C48.4093 90.099 40.7219 94.5068 40.6818 103.715C40.6347 114.57 50.2009 120.081 50.2009 120.081C50.2009 120.081 47.6959 104.884 52.3723 102.713C57.0487 100.542 68.4045 97.8705 69.2391 87.0148C69.2391 87.0148 61.0727 84.5158 52.3723 88.3515Z" stroke="#242F26" stroke-width="2" stroke-miterlimit="10" stroke-linecap="round" stroke-linejoin="round"/>
<path d="M46.1914 108.055C46.1914 108.055 49.3016 103.974 52.3708 102.711" stroke="#242F26" stroke-width="2" stroke-miterlimit="10" stroke-linecap="round" stroke-linejoin="round"/>
<path d="M67.6523 86.8953C66.3908 94.9845 66.6242 97.7541 71.7004 107.436C76.7766 117.118 75.3257 121.641 75.3257 121.641C75.3257 121.641 92.5042 102.771 77.0462 88.0716C74.9409 86.0696 67.6523 86.8953 67.6523 86.8953Z" fill="#364F3A"/>
<path d="M80.3799 92.0215C84.5874 102.088 78.2457 112.387 75.1484 116.546C75.8448 119.981 75.3258 121.641 75.3258 121.641C75.3258 121.641 89.6094 105.937 80.3799 92.0215Z" fill="#364F3A"/>
<path d="M67.6523 86.8953C66.3908 94.9845 66.6242 97.7541 71.7004 107.436C76.7766 117.118 75.3257 121.641 75.3257 121.641C75.3257 121.641 92.5042 102.771 77.0462 88.0716C74.9409 86.0696 67.6523 86.8953 67.6523 86.8953Z" stroke="#242F26" stroke-width="2" stroke-miterlimit="10" stroke-linecap="round" stroke-linejoin="round"/>
<path d="M66.457 129.263L76.0844 125.314L67.7797 136.532L66.457 129.263Z" fill="#5B5340"/>
<path d="M66.457 129.263L76.0844 125.314L67.7797 136.532L66.457 129.263Z" fill="#5B5340" stroke="#5B5340" stroke-width="2" stroke-miterlimit="10" stroke-linecap="round" stroke-linejoin="round"/>
<path d="M29.4473 49.4824C29.1638 50.9434 29.0626 95.7964 71.2773 92.4377C71.2773 92.4377 80.601 83.9116 78.1741 74.6981C75.7473 65.4846 72.3565 63.1018 68.0027 59.6689C63.648 56.236 29.4473 49.4824 29.4473 49.4824Z" fill="white"/>
<path d="M29.4473 49.4824C29.1638 50.9434 29.0626 95.7964 71.2773 92.4377C71.2773 92.4377 80.601 83.9116 78.1741 74.6981C75.7473 65.4846 72.3565 63.1018 68.0027 59.6689C63.648 56.236 29.4473 49.4824 29.4473 49.4824Z" stroke="#F1ECE7" stroke-width="2" stroke-miterlimit="10" stroke-linecap="round" stroke-linejoin="round"/>
<path d="M67.7675 75.2458C54.9528 63.8409 33.8675 48.434 44.0008 41.6503C54.1352 34.8657 80.6705 35.9128 88.3168 33.5721C95.9622 31.2314 99.9131 30.6172 99.9131 30.6172C99.9131 30.6172 108.178 40.469 92.5443 58.7948C76.9099 77.1195 67.7675 75.2458 67.7675 75.2458Z" fill="white"/>
<path d="M64.8814 92.9359C64.8814 92.9359 57.9715 87.9859 66.4145 78.1692C74.8564 68.3525 98.2324 51.0628 105.808 48.0137C105.808 48.0137 105.752 68.3796 98.1612 78.8446C83.9326 98.4609 64.8814 92.9359 64.8814 92.9359Z" fill="white"/>
<path d="M64.8814 92.9359C64.8814 92.9359 57.9715 87.9859 66.4145 78.1692C74.8564 68.3525 98.2324 51.0628 105.808 48.0137C105.808 48.0137 105.752 68.3796 98.1612 78.8446C83.9326 98.4609 64.8814 92.9359 64.8814 92.9359Z" stroke="#F1ECE7" stroke-width="2" stroke-miterlimit="10" stroke-linecap="round" stroke-linejoin="round"/>
<path d="M92.9664 23.0301C91.8943 28.6153 97.231 36.406 92.773 45.877C88.3151 55.348 71.3991 69.9333 66.4121 78.1688C66.4121 78.1688 79.7679 65.802 91.0936 61.5184C102.419 57.2348 116.087 47.9882 111.173 38.0212C111.173 38.0212 117.222 27.7997 112.597 19.8267C106.993 10.1663 93.9554 17.8788 92.9664 23.0301Z" fill="white"/>
<path d="M112.597 19.8277C110.733 16.6153 108.047 15.3317 105.255 15.2285C106.679 15.953 107.972 17.1424 109.01 18.9309C113.635 26.904 107.586 37.1255 107.586 37.1255C112.501 47.0925 98.8332 56.339 87.5065 60.6226C83.4333 62.1637 79.1006 64.7499 75.2178 67.4303C71.5013 71.4724 68.1937 75.228 66.4121 78.1709C66.4121 78.1709 79.7679 65.804 91.0936 61.5204C102.419 57.2368 116.087 47.9903 111.173 38.0233C111.173 38.0233 117.222 27.7997 112.597 19.8277Z" fill="white"/>
<path d="M92.9664 23.0301C91.8943 28.6153 97.231 36.406 92.773 45.877C88.3151 55.348 71.3991 69.9333 66.4121 78.1688C66.4121 78.1688 79.7679 65.802 91.0936 61.5184C102.419 57.2348 116.087 47.9882 111.173 38.0212C111.173 38.0212 117.222 27.7997 112.597 19.8267C106.993 10.1663 93.9554 17.8788 92.9664 23.0301Z" stroke="#F1ECE7" stroke-width="2" stroke-miterlimit="10" stroke-linecap="round" stroke-linejoin="round"/>
<path d="M100.534 25.3476C100.534 25.3476 108.065 17.557 102.731 10.0669C97.3974 2.5769 85.0846 6.9597 85.0846 6.9597C85.0846 6.9597 83.5666 1.81036 73.6086 1.08691C63.6506 0.363456 53.2958 4.26329 47.877 8.81643C47.877 8.81643 77.5666 13.4417 84.0626 16.8045C90.5607 20.1662 100.534 25.3476 100.534 25.3476Z" fill="white"/>
<path d="M102.731 10.0669C97.3974 2.5769 85.0846 6.9597 85.0846 6.9597C85.0846 6.9597 83.5666 1.81036 73.6086 1.08691C63.6506 0.363456 53.2958 4.26329 47.877 8.81643C47.877 8.81643 48.2327 8.87254 48.8459 8.97074C54.5965 5.62001 62.8851 3.19314 70.9192 3.77731C80.8772 4.50076 82.3942 9.6501 82.3942 9.6501C82.3942 9.6501 94.707 5.2673 100.041 12.7573C103.335 17.3846 101.72 22.1241 100.005 25.0731C100.342 25.2484 100.534 25.3476 100.534 25.3476C100.534 25.3476 108.065 17.557 102.731 10.0669Z" fill="white"/>
<path d="M100.534 25.3476C100.534 25.3476 108.065 17.557 102.731 10.0669C97.3974 2.5769 85.0846 6.9597 85.0846 6.9597C85.0846 6.9597 83.5666 1.81036 73.6086 1.08691C63.6506 0.363456 53.2958 4.26329 47.877 8.81643C47.877 8.81643 77.5666 13.4417 84.0626 16.8045C90.5607 20.1662 100.534 25.3476 100.534 25.3476Z" stroke="#F1ECE7" stroke-width="2" stroke-miterlimit="10" stroke-linecap="round" stroke-linejoin="round"/>
<path d="M89.4441 28.8763C89.9281 28.9545 87.9421 18.6167 82.0343 13.1137C76.1264 7.61062 63.8377 6.17274 51.8867 11.6838C51.8867 11.6838 62.2455 18.8332 69.4129 21.4504C76.5813 24.0677 89.4441 28.8763 89.4441 28.8763Z" fill="#E3C148"/>
<path d="M89.4441 28.8763C89.9281 28.9545 87.9421 18.6167 82.0342 13.1137C76.1264 7.61062 63.8377 6.17274 51.8867 11.6838C51.8867 11.6838 62.2455 18.8332 69.4129 21.4504C76.5813 24.0677 89.4441 28.8763 89.4441 28.8763Z" stroke="#937D2E" stroke-width="2" stroke-miterlimit="10" stroke-linecap="round" stroke-linejoin="round"/>
<path d="M27.9344 37.8099L25.1228 20.5452C25.1228 20.5452 19.8151 11.2906 34.7832 9.69444C34.7832 9.69444 43.8624 1.62324 55.2102 7.65235C66.558 13.6814 66.1481 18.1855 66.1481 18.1855C66.1481 18.1855 63.1732 25.7657 57.6481 33.4832C52.123 41.2017 41.5047 48.2779 41.5047 48.2779L27.9344 37.8099Z" fill="#E3C148"/>
<path d="M26.9167 25.0282C26.9167 25.0282 21.608 15.7736 36.5771 14.1774C36.5771 14.1774 45.6563 6.10624 57.0041 12.1353C61.7416 14.6524 64.425 16.9019 65.9491 18.6705C66.0763 18.3669 66.1484 18.1855 66.1484 18.1855C66.1484 18.1855 66.5583 13.6814 55.2105 7.65235C43.8627 1.62324 34.7835 9.69444 34.7835 9.69444C19.8144 11.2916 25.1231 20.5452 25.1231 20.5452L27.9347 37.8099L29.1512 38.7478L26.9167 25.0282Z" fill="#E3C148"/>
<path d="M27.9344 37.8099L25.1228 20.5452C25.1228 20.5452 19.8151 11.2906 34.7832 9.69444C34.7832 9.69444 43.8624 1.62324 55.2102 7.65235C66.558 13.6814 66.1481 18.1855 66.1481 18.1855C66.1481 18.1855 63.1732 25.7657 57.6481 33.4832C52.123 41.2017 41.5047 48.2779 41.5047 48.2779L27.9344 37.8099Z" stroke="#937D2E" stroke-width="2" stroke-miterlimit="10" stroke-linecap="round" stroke-linejoin="round"/>
<path d="M74.0173 71.1024C74.0173 71.1024 74.3439 57.1725 61.0242 52.9169C47.7045 48.6604 36.2004 42.504 33.8747 33.5671C31.549 24.6301 28.7544 22.4738 25.1231 20.5449C25.1231 20.5449 20.6692 24.7153 24.9949 32.1622C24.9949 32.1622 16.2423 37.7645 24.0369 48.3758C31.8316 58.9871 51.6945 59.4901 60.0172 61.4701C71.4641 64.1946 74.0173 71.1024 74.0173 71.1024Z" fill="white"/>
<path d="M29.3915 28.1884C30.2433 31.462 32.3234 34.3839 35.2703 36.9751C34.6571 35.8869 34.1832 34.7526 33.8756 33.5692C31.9958 26.3487 29.8104 23.5551 27.125 21.7305C27.9306 23.3798 28.6831 25.467 29.3915 28.1884Z" fill="white"/>
<path d="M73.9609 70.9668C73.9983 71.0526 74.0175 71.1031 74.0175 71.1031C74.0175 71.1031 74.0175 71.0788 74.0185 71.0415C73.9983 71.0173 73.9791 70.992 73.9609 70.9668Z" fill="white"/>
<path d="M55.5355 56.0903C48.1577 54.3348 31.7157 53.7336 22.6465 46.2285C23.0383 46.9209 23.4942 47.6353 24.0383 48.3768C31.8329 58.9881 51.6958 59.4911 60.0185 61.4711C64.5195 62.5423 67.6408 64.2597 69.7771 65.9501C65.8252 61.6415 60.768 57.3348 55.5355 56.0903Z" fill="white"/>
<path d="M74.0173 71.1024C74.0173 71.1024 74.3439 57.1724 61.0242 52.9169C47.7045 48.6604 36.2004 42.504 33.8747 33.5671C31.549 24.6301 28.7544 22.4738 25.1231 20.5449C25.1231 20.5449 20.6692 24.7153 24.9949 32.1622C24.9949 32.1622 16.2423 37.7645 24.0369 48.3758C31.8316 58.9871 51.6945 59.4901 60.0172 61.4701C71.4642 64.1946 74.0173 71.1024 74.0173 71.1024Z" stroke="#F1ECE7" stroke-width="2" stroke-miterlimit="10" stroke-linecap="round" stroke-linejoin="round"/>
<path d="M80.5317 27.3463C80.5317 27.3463 80.3865 23.189 73.7702 18.5487C67.1539 13.9093 57.5967 17.1999 56.2189 19.1789C56.2189 19.1789 47.9373 16.5897 45.1547 20.2851C42.3721 23.9806 57.7199 29.8954 66.4725 30.0237C75.2251 30.1519 80.5317 27.3463 80.5317 27.3463Z" fill="#FCFC01"/>
<path d="M80.5317 27.3463C80.5317 27.3463 80.3865 23.189 73.7702 18.5487C67.1539 13.9093 57.5967 17.1999 56.2189 19.1789C56.2189 19.1789 47.9373 16.5897 45.1547 20.2851C42.3721 23.9806 57.7199 29.8954 66.4725 30.0237C75.2251 30.1519 80.5317 27.3463 80.5317 27.3463Z" stroke="#937D2E" stroke-width="2" stroke-miterlimit="10" stroke-linecap="round" stroke-linejoin="round"/>
<path d="M63.9467 27.695C63.9467 27.695 51.5247 26.2581 47.5938 18.6779C47.5938 18.6779 44.5417 14.1619 39.3363 15.1118C34.1308 16.0617 36.6499 24.0697 41.5748 24.6048C41.5748 24.6048 40.9235 35.2873 64.592 34.144L63.9467 27.695Z" fill="#FCFC01"/>
<path d="M46.0588 23.7078C41.8734 23.2529 39.4445 17.4132 41.9996 15.0835C41.189 14.9482 40.3002 14.9352 39.3363 15.1105C34.1308 16.0604 36.6499 24.0685 41.5748 24.6036C41.5748 24.6036 40.9235 35.286 64.592 34.1427L64.5098 33.3161C45.5057 32.9564 46.0588 23.7078 46.0588 23.7078Z" fill="#FCFC01"/>
<path d="M63.9467 27.695C63.9467 27.695 51.5247 26.2581 47.5938 18.6779C47.5938 18.6779 44.5417 14.1619 39.3363 15.1118C34.1308 16.0617 36.6499 24.0697 41.5748 24.6048C41.5748 24.6048 40.9235 35.2873 64.592 34.144L63.9467 27.695Z" stroke="#937D2E" stroke-width="2" stroke-miterlimit="10" stroke-linecap="round" stroke-linejoin="round"/>
<path d="M89.617 26.4965C89.617 26.4965 74.187 19.7609 58.2109 26.1969C58.2109 26.1969 59.4244 34.0416 68.5507 35.0446C77.677 36.0476 90.2883 33.22 90.2883 33.22C90.2883 33.22 92.9367 31.0406 89.617 26.4965Z" fill="#FCFC01"/>
<path d="M63.5918 28.8873C74.2221 24.6047 84.604 26.1538 90.3655 27.6698C90.1561 27.2961 89.9186 26.9093 89.617 26.4965C89.617 26.4965 74.187 19.7609 58.2109 26.1969C58.2109 26.1969 59.2851 33.1178 66.9816 34.7891C64.1198 32.1939 63.5918 28.8873 63.5918 28.8873Z" fill="#FCFC01"/>
<path d="M89.617 26.4945C89.617 26.4945 73.6199 19.8161 58.2109 26.1949C58.2109 26.1949 59.4244 34.0397 68.5507 35.0427C77.677 36.0457 90.2883 33.218 90.2883 33.218C90.2883 33.218 92.9367 31.0387 89.617 26.4945Z" stroke="#937D2E" stroke-width="2" stroke-miterlimit="10" stroke-linecap="round" stroke-linejoin="round"/>
<path d="M44.998 46.0183C45.0652 45.355 52.3198 32.9842 65.2557 34.1515C78.1917 35.3199 88.4332 30.7006 89.1948 24.3779C89.6216 20.8358 87.4032 18.4821 87.4032 18.4821C87.4032 18.4821 97.4704 16.3277 101.585 25.432C105.7 34.5363 96.1828 43.5273 86.4563 39.7417C86.4563 39.7417 79.5674 48.3059 70.6345 44.4402C61.7026 40.5754 44.998 46.0183 44.998 46.0183Z" fill="#E3C148"/>
<path d="M101.585 25.4316C99.2506 20.2652 95 18.7261 91.7595 18.3594C94.1133 19.3203 96.468 21.148 97.9991 24.5348C102.114 33.64 93.7375 40.5369 84.011 36.7513C84.011 36.7513 78.3366 43.0169 70.8516 44.5239C79.6793 48.1592 86.4579 39.7403 86.4579 39.7403C96.1834 43.5269 105.701 34.5359 101.585 25.4316Z" fill="#E3C148"/>
<path d="M44.998 46.0183C45.0652 45.355 52.3198 32.9842 65.2557 34.1515C78.1917 35.3199 87.9934 30.6325 89.1948 24.3779C89.802 21.2135 87.4032 18.4821 87.4032 18.4821C87.4032 18.4821 97.4704 16.3277 101.585 25.432C105.7 34.5363 96.1828 43.5273 86.4563 39.7417C86.4563 39.7417 79.5674 48.3059 70.6345 44.4402C61.7026 40.5754 44.998 46.0183 44.998 46.0183Z" stroke="#937D2E" stroke-width="2" stroke-miterlimit="10" stroke-linecap="round" stroke-linejoin="round"/>
<path d="M0 195.465H26.8322V234.05H0L4.99204 214.406L0 195.465Z" fill="#5B5340"/>
<path d="M136.033 195.465H109.201V234.05H136.033L131.041 214.406L136.033 195.465Z" fill="#5B5340"/>
<rect x="13.9375" y="184.943" width="108.161" height="38.5848" fill="#BFB39A"/>
<path d="M40.5277 213.943C40.5277 213.06 40.661 212.277 40.9277 211.593C41.211 210.91 41.586 210.285 42.0527 209.718C42.5194 209.135 43.0444 208.577 43.6277 208.043C44.2277 207.493 44.836 206.918 45.4527 206.318C46.536 205.285 47.3194 204.327 47.8027 203.443C48.286 202.56 48.5277 201.71 48.5277 200.893C48.5277 200.26 48.436 199.652 48.2527 199.068C48.086 198.468 47.7777 197.977 47.3277 197.593C46.8777 197.21 46.2527 197.018 45.4527 197.018C44.7694 197.018 44.161 197.193 43.6277 197.543C43.0944 197.877 42.736 198.293 42.5527 198.793C42.7194 198.96 42.836 199.143 42.9027 199.343C42.9694 199.527 43.0027 199.71 43.0027 199.893C43.0027 200.043 42.961 200.21 42.8777 200.393C42.811 200.577 42.686 200.735 42.5027 200.868C42.3194 201.002 42.0777 201.068 41.7777 201.068C41.411 201.052 41.1277 200.91 40.9277 200.643C40.7277 200.377 40.6277 200.06 40.6277 199.693C40.6277 199.343 40.736 198.96 40.9527 198.543C41.1694 198.11 41.4944 197.71 41.9277 197.343C42.3777 196.96 42.9277 196.652 43.5777 196.418C44.2277 196.168 44.986 196.043 45.8527 196.043C46.5194 196.043 47.161 196.127 47.7777 196.293C48.411 196.443 48.9777 196.693 49.4777 197.043C49.9777 197.393 50.3694 197.86 50.6527 198.443C50.9527 199.01 51.1027 199.718 51.1027 200.568C51.1027 200.985 51.011 201.435 50.8277 201.918C50.661 202.402 50.3777 202.927 49.9777 203.493C49.5944 204.043 49.0944 204.635 48.4777 205.268C47.861 205.885 47.1027 206.56 46.2027 207.293C45.0694 208.227 44.136 209.11 43.4027 209.943C42.686 210.76 42.2694 211.46 42.1527 212.043L46.5777 212.168C47.3944 212.185 48.111 212.185 48.7277 212.168C49.361 212.152 49.8527 212.027 50.2027 211.793C50.5694 211.543 50.7527 211.093 50.7527 210.443H51.5027L51.3527 213.943H40.5277ZM62.3304 214.343C61.0638 214.343 60.0138 214.077 59.1804 213.543C58.3471 212.993 57.6971 212.277 57.2304 211.393C56.7638 210.493 56.4304 209.51 56.2304 208.443C56.0471 207.377 55.9554 206.318 55.9554 205.268C55.9554 204.218 56.0721 203.152 56.3054 202.068C56.5554 200.985 56.9388 199.993 57.4554 199.093C57.9721 198.177 58.6388 197.443 59.4554 196.893C60.2721 196.327 61.2638 196.043 62.4304 196.043C63.6471 196.043 64.6554 196.318 65.4554 196.868C66.2721 197.418 66.9138 198.143 67.3804 199.043C67.8638 199.927 68.2054 200.902 68.4054 201.968C68.6054 203.035 68.7054 204.093 68.7054 205.143C68.7054 206.177 68.5888 207.235 68.3554 208.318C68.1221 209.402 67.7554 210.402 67.2554 211.318C66.7554 212.218 66.0971 212.952 65.2804 213.518C64.4804 214.068 63.4971 214.343 62.3304 214.343ZM62.4804 213.368C63.1971 213.368 63.7888 213.143 64.2554 212.693C64.7221 212.243 65.0888 211.643 65.3554 210.893C65.6388 210.143 65.8388 209.318 65.9554 208.418C66.0721 207.502 66.1304 206.585 66.1304 205.668C66.1304 204.652 66.0721 203.635 65.9554 202.618C65.8388 201.602 65.6388 200.668 65.3554 199.818C65.0721 198.968 64.6888 198.285 64.2054 197.768C63.7221 197.252 63.1138 196.993 62.3804 196.993C61.6638 196.993 61.0554 197.218 60.5554 197.668C60.0721 198.118 59.6804 198.718 59.3804 199.468C59.0804 200.218 58.8638 201.052 58.7304 201.968C58.5971 202.885 58.5304 203.81 58.5304 204.743C58.5304 205.443 58.5638 206.185 58.6304 206.968C58.6971 207.752 58.8138 208.527 58.9804 209.293C59.1638 210.043 59.4054 210.727 59.7054 211.343C60.0054 211.96 60.3804 212.452 60.8304 212.818C61.2804 213.185 61.8304 213.368 62.4804 213.368ZM73.6828 213.943V213.118C74.2661 213.085 74.7078 212.952 75.0078 212.718C75.3244 212.485 75.5411 212.16 75.6578 211.743C75.7911 211.327 75.8578 210.835 75.8578 210.268L75.7828 198.468L72.7828 200.393L72.2828 199.668L77.1578 196.043H78.0078L78.0328 211.218C78.0328 211.535 78.0244 211.843 78.0078 212.143C78.0078 212.443 77.9911 212.71 77.9578 212.943C78.3078 212.927 78.6578 212.91 79.0078 212.893C79.3578 212.877 79.7078 212.86 80.0578 212.843V213.943H73.6828ZM90.0642 214.343C88.5809 214.343 87.3976 213.993 86.5142 213.293C85.6476 212.593 85.0226 211.602 84.6392 210.318C84.2726 209.018 84.0892 207.485 84.0892 205.718C84.0892 205.118 84.1392 204.41 84.2392 203.593C84.3559 202.76 84.5559 201.91 84.8392 201.043C85.1226 200.16 85.5142 199.343 86.0142 198.593C86.5309 197.827 87.1892 197.21 87.9892 196.743C88.7892 196.277 89.7559 196.043 90.8892 196.043C91.8892 196.043 92.7142 196.227 93.3642 196.593C94.0142 196.943 94.4976 197.368 94.8142 197.868C95.1476 198.352 95.3142 198.802 95.3142 199.218C95.3142 199.568 95.2226 199.868 95.0392 200.118C94.8726 200.352 94.6059 200.485 94.2392 200.518C93.8226 200.535 93.5309 200.418 93.3642 200.168C93.1976 199.918 93.1142 199.685 93.1142 199.468C93.1142 199.302 93.1392 199.127 93.1892 198.943C93.2392 198.76 93.3142 198.585 93.4142 198.418C93.3309 198.118 93.0642 197.802 92.6142 197.468C92.1809 197.135 91.6226 196.968 90.9392 196.968C90.1726 196.968 89.5226 197.168 88.9892 197.568C88.4726 197.968 88.0476 198.493 87.7142 199.143C87.3976 199.793 87.1476 200.493 86.9642 201.243C86.7809 201.977 86.6476 202.685 86.5642 203.368C86.4976 204.052 86.4559 204.635 86.4392 205.118C86.7226 204.752 87.0642 204.41 87.4642 204.093C87.8642 203.777 88.3309 203.518 88.8642 203.318C89.3976 203.118 89.9892 203.018 90.6392 203.018C91.6392 203.018 92.4726 203.193 93.1392 203.543C93.8226 203.877 94.3642 204.318 94.7642 204.868C95.1809 205.418 95.4726 206.027 95.6392 206.693C95.8226 207.343 95.9142 207.985 95.9142 208.618C95.9142 209.652 95.6559 210.61 95.1392 211.493C94.6392 212.36 93.9476 213.052 93.0642 213.568C92.1809 214.085 91.1809 214.343 90.0642 214.343ZM90.1142 213.368C90.8976 213.368 91.5309 213.177 92.0142 212.793C92.4976 212.393 92.8476 211.877 93.0642 211.243C93.2809 210.593 93.3892 209.902 93.3892 209.168C93.3892 208.702 93.3476 208.185 93.2642 207.618C93.1809 207.035 93.0226 206.485 92.7892 205.968C92.5726 205.435 92.2476 205.002 91.8142 204.668C91.3809 204.318 90.8142 204.143 90.1142 204.143C89.5976 204.143 89.0892 204.277 88.5892 204.543C88.0892 204.793 87.6476 205.127 87.2642 205.543C86.8976 205.96 86.6309 206.41 86.4642 206.893C86.5142 207.693 86.6059 208.477 86.7392 209.243C86.8892 210.01 87.0976 210.702 87.3642 211.318C87.6476 211.935 88.0142 212.435 88.4642 212.818C88.9142 213.185 89.4642 213.368 90.1142 213.368Z" fill="black"/>
</svg>
