<svg width="137" height="236" viewBox="0 0 137 236" fill="none" xmlns="http://www.w3.org/2000/svg">
<path d="M31.2871 119.555C31.8176 119.644 32.5883 119.783 33.5459 119.98C35.4617 120.375 38.1224 121.004 41.0986 121.94C47.0652 123.818 54.243 126.914 59.2559 131.79C64.2527 136.65 66.1791 142.389 66.8555 146.926C67.1936 149.194 67.2188 151.157 67.1592 152.552C67.1294 153.248 67.0782 153.802 67.0352 154.18C67.0257 154.263 67.0143 154.338 67.0059 154.403C66.9406 154.414 66.8667 154.427 66.7842 154.438C66.4079 154.492 65.8558 154.558 65.1602 154.607C63.768 154.706 61.8042 154.735 59.5273 154.46C54.9732 153.91 49.1838 152.142 44.1875 147.282C39.1746 142.406 35.8808 135.317 33.8389 129.404C32.8203 126.455 32.1184 123.812 31.6709 121.908C31.4472 120.956 31.2864 120.19 31.1826 119.662C31.1738 119.617 31.1662 119.574 31.1582 119.533C31.1994 119.54 31.2424 119.547 31.2871 119.555Z" fill="#364F3A" stroke="#242F26"/>
<path d="M31.2871 119.555C31.8176 119.644 32.5883 119.783 33.5459 119.98C35.4617 120.375 38.1224 121.004 41.0986 121.94C47.0652 123.818 54.243 126.914 59.2559 131.79C64.2527 136.65 66.1791 142.389 66.8555 146.926C67.1936 149.194 67.2188 151.157 67.1592 152.552C67.1294 153.248 67.0782 153.802 67.0352 154.18C67.0257 154.263 67.0143 154.338 67.0059 154.403C66.9406 154.414 66.8667 154.427 66.7842 154.438C66.4079 154.492 65.8558 154.558 65.1602 154.607C63.768 154.706 61.8042 154.735 59.5273 154.46C54.9732 153.91 49.1838 152.142 44.1875 147.282C39.1746 142.406 35.8808 135.317 33.8389 129.404C32.8204 126.455 32.1184 123.813 31.6709 121.909C31.4472 120.957 31.2864 120.19 31.1826 119.662C31.1738 119.617 31.1662 119.574 31.1582 119.533C31.1994 119.54 31.2424 119.547 31.2871 119.555Z" fill="#364F3A" stroke="#242F26"/>
<path d="M31.2832 119.555C31.8137 119.644 32.5844 119.783 33.542 119.98C35.4579 120.375 38.1191 121.004 41.0957 121.94C46.7658 123.724 53.5281 126.61 58.4883 131.076C53.8111 128.282 48.419 126.122 43.8623 124.581C40.9527 123.597 38.3724 122.862 36.5195 122.373C35.5929 122.128 34.8473 121.945 34.333 121.822C34.0761 121.761 33.8766 121.715 33.7412 121.685C33.6737 121.669 33.6219 121.658 33.5869 121.65C33.5694 121.647 33.5559 121.644 33.5469 121.642C33.5424 121.641 33.5385 121.64 33.5361 121.64L33.5342 121.639H33.5332H33.5322L32.7266 121.464L32.9453 122.26V122.261C32.9455 122.261 32.946 122.263 32.9463 122.264C32.9469 122.266 32.9471 122.269 32.9482 122.273C32.9507 122.282 32.9552 122.295 32.96 122.312C32.9696 122.347 32.9831 122.398 33.002 122.464C33.0398 122.597 33.0963 122.792 33.1709 123.044C33.3201 123.548 33.5425 124.277 33.835 125.185C34.4198 126.999 35.2863 129.525 36.4141 132.374C38.1778 136.829 40.5906 142.097 43.5752 146.667C38.9038 141.823 35.7941 135.073 33.8359 129.404C32.8172 126.455 32.1146 123.812 31.667 121.908C31.4433 120.956 31.2825 120.19 31.1787 119.662C31.1699 119.617 31.1623 119.574 31.1543 119.533C31.1955 119.54 31.2385 119.547 31.2832 119.555Z" fill="#364F3A" stroke="#242F26"/>
<path d="M59.6044 131.432C69.7979 141.347 67.4511 154.836 67.4511 154.836C67.4511 154.836 54.0312 157.555 43.8387 147.64C33.6453 137.725 30.5391 118.932 30.5391 118.932C30.5391 118.932 49.4109 121.517 59.6044 131.432Z" stroke="#242F26" stroke-width="2" stroke-miterlimit="10" stroke-linecap="round" stroke-linejoin="round"/>
<path d="M31.2051 119.582L67.4488 154.835" stroke="#242F26" stroke-width="2" stroke-miterlimit="10" stroke-linecap="round" stroke-linejoin="round"/>
<path d="M46.043 149.558L58.3587 145.994" stroke="#242F26" stroke-width="2" stroke-miterlimit="10" stroke-linecap="round" stroke-linejoin="round"/>
<path d="M37.1348 138.373L47.4515 135.387" stroke="#242F26" stroke-width="2" stroke-miterlimit="10" stroke-linecap="round" stroke-linejoin="round"/>
<path d="M56.0266 128.469L53.0938 140.498" stroke="#242F26" stroke-width="2" stroke-miterlimit="10" stroke-linecap="round" stroke-linejoin="round"/>
<path d="M45.0446 122.777L43.0957 130.771" stroke="#242F26" stroke-width="2" stroke-miterlimit="10" stroke-linecap="round" stroke-linejoin="round"/>
<path d="M64.498 172.659L63.4551 178.394L56.9033 169.545L64.498 172.659Z" fill="#5B5340" stroke="#5B5340"/>
<path d="M65.0629 172.351L55.4355 168.402L63.7412 179.62L65.0629 172.351Z" fill="#5B5340" stroke="#5B5340" stroke-width="2" stroke-miterlimit="10" stroke-linecap="round" stroke-linejoin="round"/>
<path d="M66.9826 92.3819C77.7381 95.5543 96.3365 98.4671 96.7844 118.41C96.7844 118.41 104.403 105.862 95.4397 96.0022C95.4397 96.0022 96.7844 83.454 78.8584 82.5572C60.9324 81.6604 66.9826 92.3819 66.9826 92.3819Z" fill="#364F3A"/>
<path d="M95.4389 96.0032C95.4389 96.0032 96.0832 89.9179 90.4219 85.9199C92.8147 89.3999 92.4329 92.9971 92.4329 92.9971C98.1343 99.2687 97.1253 106.622 95.6373 111.149C96.3117 113.284 96.7225 115.683 96.7836 118.41C96.7836 118.41 104.402 105.863 95.4389 96.0032Z" fill="#364F3A"/>
<path d="M66.9826 92.3819C77.7381 95.5543 96.3365 98.4671 96.7844 118.41C96.7844 118.41 104.403 105.862 95.4397 96.0022C95.4397 96.0022 96.7844 83.454 78.8584 82.5572C60.9324 81.6604 66.9826 92.3819 66.9826 92.3819Z" stroke="#242F26" stroke-width="2" stroke-miterlimit="10" stroke-linecap="round" stroke-linejoin="round"/>
<path d="M66.9824 92.383C66.9824 92.383 83.5637 85.6955 95.4406 96.0032" stroke="#242F26" stroke-width="2" stroke-miterlimit="10" stroke-linecap="round" stroke-linejoin="round"/>
<path d="M61.7477 90.3779C50.9921 93.5503 32.3937 96.4631 31.9458 116.406C31.9458 116.406 24.3276 103.858 33.2906 93.9982C33.2906 93.9982 31.9459 81.45 49.8718 80.5532C67.7978 79.6574 61.7477 90.3779 61.7477 90.3779Z" fill="#364F3A"/>
<path d="M33.2906 94.0012C33.2906 94.0012 32.6463 87.916 38.3076 83.918C35.9148 87.398 36.2966 90.9952 36.2966 90.9952C30.5951 97.2668 31.6042 104.621 33.0922 109.147C32.4178 111.282 32.007 113.681 31.9458 116.408C31.9458 116.408 24.3276 103.861 33.2906 94.0012Z" fill="#364F3A"/>
<path d="M61.7477 90.3779C50.9921 93.5503 32.3937 96.4631 31.9458 116.406C31.9458 116.406 24.3276 103.858 33.2906 93.9982C33.2906 93.9982 31.9459 81.45 49.8718 80.5532C67.7978 79.6574 61.7477 90.3779 61.7477 90.3779Z" stroke="#242F26" stroke-width="2" stroke-miterlimit="10" stroke-linecap="round" stroke-linejoin="round"/>
<path d="M61.7511 90.379C61.7511 90.379 45.1698 83.6916 33.293 93.9993" stroke="#242F26" stroke-width="2" stroke-miterlimit="10" stroke-linecap="round" stroke-linejoin="round"/>
<path d="M69.291 79.5098V184.545H63.625V79.5098H69.291Z" fill="#364F3A" stroke="#364F3A"/>
<path d="M69.7914 79.0098H63.125V185.045H69.7914V79.0098Z" fill="#364F3A" stroke="#364F3A" stroke-width="2" stroke-miterlimit="10" stroke-linecap="round" stroke-linejoin="round"/>
<path d="M95.9043 164.953C82.9994 175.182 67.6195 170.769 67.6195 170.769C67.6195 170.769 66.2578 155.246 79.1617 145.017C92.0666 134.789 114.351 133.729 114.351 133.729C114.351 133.729 108.809 154.725 95.9043 164.953Z" fill="#364F3A"/>
<path d="M95.9043 164.953C82.9994 175.182 67.6195 170.769 67.6195 170.769C67.6195 170.769 66.2578 155.246 79.1617 145.017C92.0666 134.789 114.351 133.729 114.351 133.729C114.351 133.729 108.809 154.725 95.9043 164.953Z" fill="#364F3A"/>
<path d="M79.1627 145.017C78.0354 145.91 77.0234 146.846 76.1035 147.806C89.1667 139.743 110.245 136.579 110.245 136.579C110.245 136.579 103.327 156.335 92.7048 167.166C93.781 166.515 94.8511 165.788 95.9053 164.953C108.81 154.725 114.352 133.729 114.352 133.729C114.352 133.729 92.0676 134.789 79.1627 145.017Z" fill="#364F3A"/>
<path d="M95.9043 164.953C82.9994 175.182 67.6195 170.769 67.6195 170.769C67.6195 170.769 66.2578 155.246 79.1617 145.017C92.0666 134.789 114.351 133.729 114.351 133.729C114.351 133.729 108.809 154.725 95.9043 164.953Z" stroke="#242F26" stroke-width="2" stroke-miterlimit="10" stroke-linecap="round" stroke-linejoin="round"/>
<path d="M113.504 134.4L67.6191 170.769" stroke="#242F26" stroke-width="2" stroke-miterlimit="10" stroke-linecap="round" stroke-linejoin="round"/>
<path d="M76.6348 147.264L79.1278 161.651" stroke="#242F26" stroke-width="2" stroke-miterlimit="10" stroke-linecap="round" stroke-linejoin="round"/>
<path d="M86.5985 169.996L74.7246 165.537" stroke="#242F26" stroke-width="2" stroke-miterlimit="10" stroke-linecap="round" stroke-linejoin="round"/>
<path d="M90.8477 138.652L92.9359 150.704" stroke="#242F26" stroke-width="2" stroke-miterlimit="10" stroke-linecap="round" stroke-linejoin="round"/>
<path d="M99.8328 161.297L86.2305 156.412" stroke="#242F26" stroke-width="2" stroke-miterlimit="10" stroke-linecap="round" stroke-linejoin="round"/>
<path d="M104.775 134.916L105.594 140.672" stroke="#242F26" stroke-width="2" stroke-miterlimit="10" stroke-linecap="round" stroke-linejoin="round"/>
<path d="M107.928 149.628L98.8887 146.383" stroke="#242F26" stroke-width="2" stroke-miterlimit="10" stroke-linecap="round" stroke-linejoin="round"/>
<path d="M52.3723 88.3512C48.4093 90.0987 40.7219 94.5065 40.6818 103.715C40.6347 114.57 50.2009 120.081 50.2009 120.081C50.2009 120.081 47.6959 104.883 52.3723 102.713C57.0487 100.542 68.4045 97.8703 69.2391 87.0145C69.2391 87.0145 61.0727 84.5155 52.3723 88.3512Z" fill="#364F3A"/>
<path d="M41.6828 106.721C41.7229 97.5115 49.4103 93.1036 53.3733 91.3571C59.8663 88.4944 66.0578 89.1607 68.7842 89.6828C69.0077 88.8521 69.166 87.9663 69.2391 87.0154C69.2391 87.0154 61.0727 84.5154 52.3723 88.3511C48.4093 90.0986 40.7219 94.5065 40.6818 103.715C40.6698 106.458 41.274 108.857 42.1808 110.915C41.8682 109.617 41.6768 108.226 41.6828 106.721Z" fill="#364F3A"/>
<path d="M52.3723 88.3515C48.4093 90.099 40.7219 94.5068 40.6818 103.715C40.6347 114.57 50.2009 120.081 50.2009 120.081C50.2009 120.081 47.6959 104.884 52.3723 102.713C57.0487 100.542 68.4045 97.8705 69.2391 87.0148C69.2391 87.0148 61.0727 84.5158 52.3723 88.3515Z" stroke="#242F26" stroke-width="2" stroke-miterlimit="10" stroke-linecap="round" stroke-linejoin="round"/>
<path d="M46.1934 108.057C46.1934 108.057 49.3036 103.976 52.3728 102.713" stroke="#242F26" stroke-width="2" stroke-miterlimit="10" stroke-linecap="round" stroke-linejoin="round"/>
<path d="M67.6523 86.8953C66.3908 94.9845 66.6242 97.7541 71.7004 107.436C76.7766 117.118 75.3257 121.641 75.3257 121.641C75.3257 121.641 92.5042 102.771 77.0462 88.0716C74.9409 86.0696 67.6523 86.8953 67.6523 86.8953Z" fill="#364F3A"/>
<path d="M80.3819 92.0215C84.5893 102.088 78.2476 112.387 75.1504 116.546C75.8468 119.981 75.3277 121.641 75.3277 121.641C75.3277 121.641 89.6114 105.937 80.3819 92.0215Z" fill="#364F3A"/>
<path d="M67.6523 86.8953C66.3908 94.9845 66.6242 97.7541 71.7004 107.436C76.7766 117.118 75.3257 121.641 75.3257 121.641C75.3257 121.641 92.5042 102.771 77.0462 88.0716C74.9409 86.0696 67.6523 86.8953 67.6523 86.8953Z" stroke="#242F26" stroke-width="2" stroke-miterlimit="10" stroke-linecap="round" stroke-linejoin="round"/>
<path d="M66.457 129.263L76.0844 125.314L67.7797 136.532L66.457 129.263Z" fill="#5B5340"/>
<path d="M66.457 129.263L76.0844 125.314L67.7797 136.532L66.457 129.263Z" fill="#5B5340" stroke="#5B5340" stroke-width="2" stroke-miterlimit="10" stroke-linecap="round" stroke-linejoin="round"/>
<path d="M29.4473 49.4844C29.1638 50.9453 29.0626 95.7984 71.2773 92.4396C71.2773 92.4396 80.601 83.9135 78.1741 74.7C75.7473 65.4865 72.3565 63.1037 68.0027 59.6708C63.648 56.2379 29.4473 49.4844 29.4473 49.4844Z" fill="#2A31EE"/>
<path d="M29.4473 49.4844C29.1638 50.9453 29.0626 95.7984 71.2773 92.4396C71.2773 92.4396 80.601 83.9135 78.1741 74.7C75.7473 65.4865 72.3565 63.1037 68.0027 59.6708C63.648 56.2379 29.4473 49.4844 29.4473 49.4844Z" stroke="#0F29CF" stroke-width="2" stroke-miterlimit="10" stroke-linecap="round" stroke-linejoin="round"/>
<path d="M67.7675 75.2458C54.9528 63.8409 33.8675 48.434 44.0008 41.6503C54.1352 34.8657 80.6705 35.9128 88.3168 33.5721C95.9622 31.2314 99.9131 30.6172 99.9131 30.6172C99.9131 30.6172 108.178 40.469 92.5443 58.7948C76.9099 77.1195 67.7675 75.2458 67.7675 75.2458Z" fill="#2A31EE"/>
<path d="M64.8814 92.9359C64.8814 92.9359 57.9715 87.9859 66.4145 78.1692C74.8564 68.3525 98.2324 51.0628 105.808 48.0137C105.808 48.0137 105.752 68.3796 98.1612 78.8446C83.9326 98.4609 64.8814 92.9359 64.8814 92.9359Z" fill="#2A31EE"/>
<path d="M64.8814 92.9359C64.8814 92.9359 57.9715 87.9859 66.4145 78.1692C74.8564 68.3525 98.2324 51.0628 105.808 48.0137C105.808 48.0137 105.752 68.3796 98.1612 78.8446C83.9326 98.4609 64.8814 92.9359 64.8814 92.9359Z" stroke="#0F29CF" stroke-width="2" stroke-miterlimit="10" stroke-linecap="round" stroke-linejoin="round"/>
<path d="M92.9664 23.0301C91.8943 28.6153 97.231 36.406 92.773 45.877C88.3151 55.348 71.3991 69.9333 66.4121 78.1688C66.4121 78.1688 79.7679 65.802 91.0936 61.5184C102.419 57.2348 116.087 47.9882 111.173 38.0212C111.173 38.0212 117.222 27.7997 112.597 19.8267C106.993 10.1663 93.9554 17.8788 92.9664 23.0301Z" fill="#2A31EE"/>
<path d="M112.597 19.8277C110.733 16.6153 108.047 15.3317 105.255 15.2285C106.679 15.953 107.972 17.1424 109.01 18.9309C113.635 26.904 107.586 37.1255 107.586 37.1255C112.501 47.0925 98.8332 56.339 87.5065 60.6226C83.4333 62.1637 79.1006 64.7499 75.2178 67.4303C71.5013 71.4724 68.1937 75.228 66.4121 78.1709C66.4121 78.1709 79.7679 65.804 91.0936 61.5204C102.419 57.2368 116.087 47.9903 111.173 38.0233C111.173 38.0233 117.222 27.7997 112.597 19.8277Z" fill="#2A31EE"/>
<path d="M92.9664 23.0301C91.8943 28.6153 97.231 36.406 92.773 45.877C88.3151 55.348 71.3991 69.9333 66.4121 78.1688C66.4121 78.1688 79.7679 65.802 91.0936 61.5184C102.419 57.2348 116.087 47.9882 111.173 38.0212C111.173 38.0212 117.222 27.7997 112.597 19.8267C106.993 10.1663 93.9554 17.8788 92.9664 23.0301Z" stroke="#0F29CF" stroke-width="2" stroke-miterlimit="10" stroke-linecap="round" stroke-linejoin="round"/>
<path d="M100.534 25.3476C100.534 25.3476 108.065 17.557 102.731 10.0669C97.3974 2.5769 85.0846 6.9597 85.0846 6.9597C85.0846 6.9597 83.5666 1.81036 73.6086 1.08691C63.6506 0.363456 53.2958 4.26329 47.877 8.81643C47.877 8.81643 77.5666 13.4417 84.0626 16.8045C90.5607 20.1662 100.534 25.3476 100.534 25.3476Z" fill="#2A31EE"/>
<path d="M102.731 10.0669C97.3974 2.5769 85.0846 6.9597 85.0846 6.9597C85.0846 6.9597 83.5666 1.81036 73.6086 1.08691C63.6506 0.363456 53.2958 4.26329 47.877 8.81643C47.877 8.81643 48.2327 8.87254 48.8459 8.97074C54.5965 5.62001 62.8851 3.19314 70.9192 3.77731C80.8772 4.50076 82.3942 9.6501 82.3942 9.6501C82.3942 9.6501 94.707 5.2673 100.041 12.7573C103.335 17.3846 101.72 22.1241 100.005 25.0731C100.342 25.2484 100.534 25.3476 100.534 25.3476C100.534 25.3476 108.065 17.557 102.731 10.0669Z" fill="#2A31EE"/>
<path d="M100.534 25.3476C100.534 25.3476 108.065 17.557 102.731 10.0669C97.3974 2.5769 85.0846 6.9597 85.0846 6.9597C85.0846 6.9597 83.5666 1.81036 73.6086 1.08691C63.6506 0.363456 53.2958 4.26329 47.877 8.81643C47.877 8.81643 77.5666 13.4417 84.0626 16.8045C90.5607 20.1662 100.534 25.3476 100.534 25.3476Z" stroke="#0F29CF" stroke-width="2" stroke-miterlimit="10" stroke-linecap="round" stroke-linejoin="round"/>
<path d="M89.4441 28.8763C89.9281 28.9545 87.9421 18.6167 82.0343 13.1137C76.1264 7.61062 63.8377 6.17274 51.8867 11.6838C51.8867 11.6838 62.2455 18.8332 69.4129 21.4504C76.5813 24.0677 89.4441 28.8763 89.4441 28.8763Z" fill="#DDDDDD"/>
<path d="M89.4441 28.8763C89.9281 28.9545 87.9421 18.6167 82.0342 13.1137C76.1264 7.61062 63.8377 6.17274 51.8867 11.6838C51.8867 11.6838 62.2455 18.8332 69.4129 21.4504C76.5813 24.0677 89.4441 28.8763 89.4441 28.8763Z" stroke="#8C8C8C" stroke-width="2" stroke-miterlimit="10" stroke-linecap="round" stroke-linejoin="round"/>
<path d="M27.9344 37.8099L25.1228 20.5452C25.1228 20.5452 19.8151 11.2906 34.7832 9.69444C34.7832 9.69444 43.8624 1.62324 55.2102 7.65235C66.558 13.6814 66.1481 18.1855 66.1481 18.1855C66.1481 18.1855 63.1732 25.7657 57.6481 33.4832C52.123 41.2017 41.5047 48.2779 41.5047 48.2779L27.9344 37.8099Z" fill="#DDDDDD"/>
<path d="M26.9167 25.0282C26.9167 25.0282 21.608 15.7736 36.5771 14.1774C36.5771 14.1774 45.6563 6.10624 57.0041 12.1353C61.7416 14.6524 64.425 16.9019 65.9491 18.6705C66.0763 18.3669 66.1484 18.1855 66.1484 18.1855C66.1484 18.1855 66.5583 13.6814 55.2105 7.65235C43.8627 1.62324 34.7835 9.69444 34.7835 9.69444C19.8144 11.2916 25.1231 20.5452 25.1231 20.5452L27.9347 37.8099L29.1512 38.7478L26.9167 25.0282Z" fill="#DDDDDD"/>
<path d="M27.9344 37.8099L25.1228 20.5452C25.1228 20.5452 19.8151 11.2906 34.7832 9.69444C34.7832 9.69444 43.8624 1.62324 55.2102 7.65235C66.558 13.6814 66.1481 18.1855 66.1481 18.1855C66.1481 18.1855 63.1732 25.7657 57.6481 33.4832C52.123 41.2017 41.5047 48.2779 41.5047 48.2779L27.9344 37.8099Z" stroke="#8C8C8C" stroke-width="2" stroke-miterlimit="10" stroke-linecap="round" stroke-linejoin="round"/>
<path d="M74.0173 71.1024C74.0173 71.1024 74.3439 57.1725 61.0242 52.9169C47.7045 48.6604 36.2004 42.504 33.8747 33.5671C31.549 24.6301 28.7544 22.4738 25.1231 20.5449C25.1231 20.5449 20.6692 24.7153 24.9949 32.1622C24.9949 32.1622 16.2423 37.7645 24.0369 48.3758C31.8316 58.9871 51.6945 59.4901 60.0172 61.4701C71.4641 64.1946 74.0173 71.1024 74.0173 71.1024Z" fill="#2A31EE"/>
<path d="M29.3915 28.1884C30.2433 31.462 32.3234 34.3839 35.2703 36.9751C34.6571 35.8869 34.1832 34.7526 33.8756 33.5692C31.9958 26.3487 29.8104 23.5551 27.125 21.7305C27.9306 23.3798 28.6831 25.467 29.3915 28.1884Z" fill="#2A31EE"/>
<path d="M73.9609 70.9668C73.9983 71.0526 74.0175 71.1031 74.0175 71.1031C74.0175 71.1031 74.0175 71.0788 74.0185 71.0415C73.9983 71.0173 73.9791 70.992 73.9609 70.9668Z" fill="#2A31EE"/>
<path d="M55.5355 56.0923C48.1577 54.3367 31.7157 53.7355 22.6465 46.2305C23.0383 46.9229 23.4942 47.6373 24.0383 48.3788C31.8329 58.9901 51.6958 59.4931 60.0185 61.4731C64.5195 62.5442 67.6408 64.2617 69.7771 65.9521C65.8252 61.6434 60.768 57.3368 55.5355 56.0923Z" fill="#2A31EE"/>
<path d="M74.0173 71.1024C74.0173 71.1024 74.3439 57.1724 61.0242 52.9169C47.7045 48.6604 36.2004 42.504 33.8747 33.5671C31.549 24.6301 28.7544 22.4738 25.1231 20.5449C25.1231 20.5449 20.6692 24.7153 24.9949 32.1622C24.9949 32.1622 16.2423 37.7645 24.0369 48.3758C31.8316 58.9871 51.6945 59.4901 60.0172 61.4701C71.4642 64.1946 74.0173 71.1024 74.0173 71.1024Z" stroke="#0F29CF" stroke-width="2" stroke-miterlimit="10" stroke-linecap="round" stroke-linejoin="round"/>
<path d="M80.5337 27.3463C80.5337 27.3463 80.3884 23.189 73.7721 18.5487C67.1558 13.9093 57.5986 17.1999 56.2209 19.1789C56.2209 19.1789 47.9393 16.5897 45.1567 20.2851C42.3741 23.9806 57.7219 29.8954 66.4745 30.0237C75.227 30.1519 80.5337 27.3463 80.5337 27.3463Z" fill="white"/>
<path d="M80.5337 27.3463C80.5337 27.3463 80.3884 23.189 73.7721 18.5487C67.1558 13.9093 57.5986 17.1999 56.2209 19.1789C56.2209 19.1789 47.9393 16.5897 45.1567 20.2851C42.3741 23.9806 57.7219 29.8954 66.4745 30.0237C75.227 30.1519 80.5337 27.3463 80.5337 27.3463Z" stroke="#8C8C8C" stroke-width="2" stroke-miterlimit="10" stroke-linecap="round" stroke-linejoin="round"/>
<path d="M63.9467 27.697C63.9467 27.697 51.5247 26.2601 47.5938 18.6799C47.5938 18.6799 44.5417 14.1638 39.3363 15.1137C34.1308 16.0636 36.6499 24.0717 41.5748 24.6068C41.5748 24.6068 40.9235 35.2892 64.592 34.1459L63.9467 27.697Z" fill="white"/>
<path d="M46.0588 23.7097C41.8734 23.2548 39.4445 17.4151 41.9996 15.0854C41.189 14.9502 40.3002 14.9371 39.3363 15.1125C34.1308 16.0624 36.6499 24.0705 41.5748 24.6055C41.5748 24.6055 40.9235 35.288 64.592 34.1447L64.5098 33.318C45.5057 32.9583 46.0588 23.7097 46.0588 23.7097Z" fill="white"/>
<path d="M63.9467 27.697C63.9467 27.697 51.5247 26.2601 47.5938 18.6799C47.5938 18.6799 44.5417 14.1638 39.3363 15.1137C34.1308 16.0636 36.6499 24.0717 41.5748 24.6068C41.5748 24.6068 40.9235 35.2892 64.592 34.1459L63.9467 27.697Z" stroke="#8C8C8C" stroke-width="2" stroke-miterlimit="10" stroke-linecap="round" stroke-linejoin="round"/>
<path d="M89.617 26.4965C89.617 26.4965 74.187 19.7609 58.2109 26.1969C58.2109 26.1969 59.4244 34.0416 68.5507 35.0446C77.677 36.0476 90.2883 33.22 90.2883 33.22C90.2883 33.22 92.9367 31.0406 89.617 26.4965Z" fill="white"/>
<path d="M63.5918 28.8873C74.2221 24.6047 84.604 26.1538 90.3655 27.6698C90.1561 27.2961 89.9186 26.9093 89.617 26.4965C89.617 26.4965 74.187 19.7609 58.2109 26.1969C58.2109 26.1969 59.2851 33.1178 66.9816 34.7891C64.1198 32.1939 63.5918 28.8873 63.5918 28.8873Z" fill="white"/>
<path d="M89.617 26.4965C89.617 26.4965 73.6199 19.8181 58.2109 26.1969C58.2109 26.1969 59.4244 34.0416 68.5507 35.0446C77.677 36.0477 90.2883 33.22 90.2883 33.22C90.2883 33.22 92.9367 31.0406 89.617 26.4965Z" stroke="#8C8C8C" stroke-width="2" stroke-miterlimit="10" stroke-linecap="round" stroke-linejoin="round"/>
<path d="M44.998 46.0183C45.0652 45.355 52.3198 32.9842 65.2557 34.1515C78.1917 35.3199 88.4332 30.7006 89.1948 24.3779C89.6216 20.8358 87.4032 18.4821 87.4032 18.4821C87.4032 18.4821 97.4704 16.3277 101.585 25.432C105.7 34.5363 96.1828 43.5273 86.4563 39.7417C86.4563 39.7417 79.5674 48.3059 70.6345 44.4402C61.7026 40.5754 44.998 46.0183 44.998 46.0183Z" fill="#DDDDDD"/>
<path d="M101.585 25.4335C99.2506 20.2672 95 18.7281 91.7595 18.3613C94.1133 19.3223 96.468 21.1499 97.9991 24.5367C102.114 33.642 93.7375 40.5388 84.011 36.7532C84.011 36.7532 78.3366 43.0188 70.8516 44.5259C79.6793 48.1612 86.4579 39.7423 86.4579 39.7423C96.1834 43.5289 105.701 34.5378 101.585 25.4335Z" fill="#DDDDDD"/>
<path d="M44.998 46.0183C45.0652 45.355 52.3198 32.9842 65.2557 34.1515C78.1917 35.3199 87.9934 30.6325 89.1948 24.3779C89.802 21.2135 87.4032 18.4821 87.4032 18.4821C87.4032 18.4821 97.4704 16.3277 101.585 25.432C105.7 34.5363 96.1828 43.5273 86.4563 39.7417C86.4563 39.7417 79.5674 48.3059 70.6345 44.4402C61.7026 40.5754 44.998 46.0183 44.998 46.0183Z" stroke="#8C8C8C" stroke-width="2" stroke-miterlimit="10" stroke-linecap="round" stroke-linejoin="round"/>
<path d="M0 197.266H26.8322V235.85H0L4.99204 216.207L0 197.266Z" fill="#5B5340"/>
<path d="M136.033 197.266H109.201V235.85H136.033L131.041 216.207L136.033 197.266Z" fill="#5B5340"/>
<rect x="13.9375" y="186.744" width="108.161" height="38.5848" fill="#BFB39A"/>
<path d="M41.9925 215.744C41.9925 214.861 42.1259 214.077 42.3925 213.394C42.6759 212.711 43.0509 212.086 43.5175 211.519C43.9842 210.936 44.5092 210.377 45.0925 209.844C45.6925 209.294 46.3009 208.719 46.9175 208.119C48.0009 207.086 48.7842 206.127 49.2675 205.244C49.7509 204.361 49.9925 203.511 49.9925 202.694C49.9925 202.061 49.9009 201.452 49.7175 200.869C49.5509 200.269 49.2425 199.777 48.7925 199.394C48.3425 199.011 47.7175 198.819 46.9175 198.819C46.2342 198.819 45.6259 198.994 45.0925 199.344C44.5592 199.677 44.2009 200.094 44.0175 200.594C44.1842 200.761 44.3009 200.944 44.3675 201.144C44.4342 201.327 44.4675 201.511 44.4675 201.694C44.4675 201.844 44.4259 202.011 44.3425 202.194C44.2759 202.377 44.1509 202.536 43.9675 202.669C43.7842 202.802 43.5425 202.869 43.2425 202.869C42.8759 202.852 42.5925 202.711 42.3925 202.444C42.1925 202.177 42.0925 201.861 42.0925 201.494C42.0925 201.144 42.2009 200.761 42.4175 200.344C42.6342 199.911 42.9592 199.511 43.3925 199.144C43.8425 198.761 44.3925 198.452 45.0425 198.219C45.6925 197.969 46.4509 197.844 47.3175 197.844C47.9842 197.844 48.6259 197.927 49.2425 198.094C49.8759 198.244 50.4425 198.494 50.9425 198.844C51.4425 199.194 51.8342 199.661 52.1175 200.244C52.4175 200.811 52.5675 201.519 52.5675 202.369C52.5675 202.786 52.4759 203.236 52.2925 203.719C52.1259 204.202 51.8425 204.727 51.4425 205.294C51.0592 205.844 50.5592 206.436 49.9425 207.069C49.3259 207.686 48.5675 208.361 47.6675 209.094C46.5342 210.027 45.6009 210.911 44.8675 211.744C44.1509 212.561 43.7342 213.261 43.6175 213.844L48.0425 213.969C48.8592 213.986 49.5759 213.986 50.1925 213.969C50.8259 213.952 51.3175 213.827 51.6675 213.594C52.0342 213.344 52.2175 212.894 52.2175 212.244H52.9675L52.8175 215.744H41.9925ZM63.7953 216.144C62.5286 216.144 61.4786 215.877 60.6453 215.344C59.8119 214.794 59.1619 214.077 58.6953 213.194C58.2286 212.294 57.8953 211.311 57.6953 210.244C57.5119 209.177 57.4203 208.119 57.4203 207.069C57.4203 206.019 57.5369 204.952 57.7703 203.869C58.0203 202.786 58.4036 201.794 58.9203 200.894C59.4369 199.977 60.1036 199.244 60.9203 198.694C61.7369 198.127 62.7286 197.844 63.8953 197.844C65.1119 197.844 66.1203 198.119 66.9203 198.669C67.7369 199.219 68.3786 199.944 68.8453 200.844C69.3286 201.727 69.6703 202.702 69.8703 203.769C70.0703 204.836 70.1703 205.894 70.1703 206.944C70.1703 207.977 70.0536 209.036 69.8203 210.119C69.587 211.202 69.2203 212.202 68.7203 213.119C68.2203 214.019 67.5619 214.752 66.7453 215.319C65.9453 215.869 64.9619 216.144 63.7953 216.144ZM63.9453 215.169C64.6619 215.169 65.2536 214.944 65.7203 214.494C66.1869 214.044 66.5536 213.444 66.8203 212.694C67.1036 211.944 67.3036 211.119 67.4203 210.219C67.537 209.302 67.5953 208.386 67.5953 207.469C67.5953 206.452 67.537 205.436 67.4203 204.419C67.3036 203.402 67.1036 202.469 66.8203 201.619C66.5369 200.769 66.1536 200.086 65.6703 199.569C65.1869 199.052 64.5786 198.794 63.8453 198.794C63.1286 198.794 62.5203 199.019 62.0203 199.469C61.5369 199.919 61.1453 200.519 60.8453 201.269C60.5453 202.019 60.3286 202.852 60.1953 203.769C60.0619 204.686 59.9953 205.611 59.9953 206.544C59.9953 207.244 60.0286 207.986 60.0953 208.769C60.1619 209.552 60.2786 210.327 60.4453 211.094C60.6286 211.844 60.8703 212.527 61.1703 213.144C61.4703 213.761 61.8453 214.252 62.2953 214.619C62.7453 214.986 63.2953 215.169 63.9453 215.169ZM75.1476 215.744V214.919C75.731 214.886 76.1726 214.752 76.4726 214.519C76.7893 214.286 77.006 213.961 77.1226 213.544C77.256 213.127 77.3226 212.636 77.3226 212.069L77.2476 200.269L74.2476 202.194L73.7476 201.469L78.6226 197.844H79.4726L79.4976 213.019C79.4976 213.336 79.4893 213.644 79.4726 213.944C79.4726 214.244 79.456 214.511 79.4226 214.744C79.7726 214.727 80.1226 214.711 80.4726 214.694C80.8226 214.677 81.1726 214.661 81.5226 214.644V215.744H75.1476ZM89.0291 216.144C88.7124 216.111 88.4874 215.994 88.3541 215.794C88.2207 215.594 88.1541 215.344 88.1541 215.044C88.1541 214.677 88.2457 214.202 88.4291 213.619C88.6291 213.036 88.8624 212.419 89.1291 211.769C89.3957 211.102 89.6374 210.494 89.8541 209.944C90.1707 209.161 90.5457 208.211 90.9791 207.094C91.4124 205.977 91.8874 204.802 92.4041 203.569C92.9374 202.319 93.4791 201.119 94.0291 199.969L87.4291 199.994C86.7624 200.011 86.2374 200.169 85.8541 200.469C85.4874 200.769 85.3041 201.261 85.3041 201.944H84.7041V198.244H95.1791V199.944C94.5791 201.194 94.0541 202.386 93.6041 203.519C93.1707 204.652 92.7791 205.794 92.4291 206.944C92.0791 208.077 91.7457 209.269 91.4291 210.519C91.1124 211.769 90.7707 213.136 90.4041 214.619C90.3041 215.019 90.1457 215.377 89.9291 215.694C89.7291 216.011 89.4291 216.161 89.0291 216.144Z" fill="black"/>
</svg>
