<svg width="85" height="147" viewBox="0 0 85 147" fill="none" xmlns="http://www.w3.org/2000/svg">
<path d="M19.707 75.2969C20.021 75.3516 20.4325 75.4273 20.9229 75.5283C22.1152 75.7739 23.7716 76.1651 25.624 76.748C29.3425 77.9182 33.7937 79.8424 36.8945 82.8584C39.9793 85.8589 41.1704 89.402 41.5889 92.209C41.798 93.6121 41.8132 94.8267 41.7764 95.6885C41.758 96.1174 41.7266 96.4585 41.7002 96.6904C41.4691 96.7232 41.1292 96.7637 40.7012 96.7939C39.8407 96.8547 38.6262 96.8733 37.2178 96.7031C34.4002 96.3626 30.8257 95.2699 27.7412 92.2695C24.6404 89.2534 22.5939 84.8567 21.3213 81.1719C20.6874 79.3364 20.2502 77.6919 19.9717 76.5068C19.8571 76.0191 19.7704 75.6093 19.707 75.2969Z" fill="#364F3A" stroke="#242F26"/>
<path d="M19.707 75.2969C20.021 75.3516 20.4325 75.4273 20.9229 75.5283C22.1152 75.7739 23.7716 76.1651 25.624 76.748C29.3425 77.9182 33.7937 79.8424 36.8945 82.8584C39.9793 85.8589 41.1704 89.402 41.5889 92.209C41.798 93.6121 41.8132 94.8267 41.7764 95.6885C41.758 96.1174 41.7266 96.4585 41.7002 96.6904C41.4691 96.7232 41.1292 96.7637 40.7012 96.7939C39.8407 96.8547 38.6262 96.8733 37.2178 96.7031C34.4002 96.3626 30.8257 95.2699 27.7412 92.2695C24.6404 89.2534 22.5939 84.8567 21.3213 81.1719C20.6874 79.3364 20.2502 77.6919 19.9717 76.5068C19.8571 76.0191 19.7704 75.6093 19.707 75.2969Z" fill="#364F3A" stroke="#242F26"/>
<path d="M19.7051 75.2969C20.019 75.3515 20.4305 75.4273 20.9209 75.5283C22.1132 75.7739 23.7697 76.1653 25.6221 76.748C28.5343 77.6643 31.8957 79.0436 34.7061 81.0469C32.2802 79.8005 29.7096 78.8001 27.4678 78.042C25.6449 77.4256 24.0281 76.9648 22.8672 76.6582C22.2868 76.5049 21.8197 76.3902 21.4971 76.3135C21.3357 76.2751 21.2103 76.2459 21.125 76.2266C21.0823 76.2169 21.0495 76.21 21.0273 76.2051C21.0163 76.2026 21.0077 76.2005 21.002 76.1992C20.9991 76.1986 20.9967 76.1986 20.9951 76.1982L20.9932 76.1973L20.1865 76.0234L20.4053 76.8184V76.8213C20.4057 76.8228 20.4065 76.8253 20.4072 76.8281C20.4088 76.8338 20.4111 76.8419 20.4141 76.8525C20.4201 76.8743 20.4295 76.9065 20.4414 76.9482C20.4652 77.0317 20.5001 77.1547 20.5469 77.3125C20.6405 77.6285 20.7807 78.0859 20.9639 78.6543C21.3303 79.7911 21.8726 81.3737 22.5791 83.1582C23.4329 85.3148 24.5334 87.7802 25.8555 90.1162C23.7818 87.3658 22.314 84.0515 21.3193 81.1719C20.6854 79.3364 20.2483 77.6919 19.9697 76.5068C19.8551 76.0191 19.7685 75.6093 19.7051 75.2969Z" fill="#364F3A" stroke="#242F26"/>
<path d="M37.2435 82.5001C43.6128 88.6954 42.1465 97.1241 42.1465 97.1241C42.1465 97.1241 33.7611 98.8233 27.3923 92.628C21.0229 86.4327 19.082 74.6895 19.082 74.6895C19.082 74.6895 30.8741 76.3048 37.2435 82.5001Z" stroke="#242F26" stroke-width="2" stroke-miterlimit="10" stroke-linecap="round" stroke-linejoin="round"/>
<path d="M19.498 75.0957L42.1449 97.1233" stroke="#242F26" stroke-width="2" stroke-miterlimit="10" stroke-linecap="round" stroke-linejoin="round"/>
<path d="M28.7695 93.8267L36.465 91.5996" stroke="#242F26" stroke-width="2" stroke-miterlimit="10" stroke-linecap="round" stroke-linejoin="round"/>
<path d="M23.2031 86.8365L29.6495 84.9707" stroke="#242F26" stroke-width="2" stroke-miterlimit="10" stroke-linecap="round" stroke-linejoin="round"/>
<path d="M35.0084 80.6484L33.1758 88.1648" stroke="#242F26" stroke-width="2" stroke-miterlimit="10" stroke-linecap="round" stroke-linejoin="round"/>
<path d="M28.1455 77.0918L26.9277 82.0869" stroke="#242F26" stroke-width="2" stroke-miterlimit="10" stroke-linecap="round" stroke-linejoin="round"/>
<path d="M40.0889 108.377L39.543 111.385L36.1064 106.743L40.0889 108.377Z" fill="#5B5340" stroke="#5B5340"/>
<path d="M40.6543 108.069L34.6387 105.602L39.8285 112.611L40.6543 108.069Z" fill="#5B5340" stroke="#5B5340" stroke-width="2" stroke-miterlimit="10" stroke-linecap="round" stroke-linejoin="round"/>
<path d="M41.8542 58.1C48.5748 60.0822 60.1959 61.9023 60.4758 74.3637C60.4758 74.3637 65.2361 66.523 59.6356 60.3621C59.6356 60.3621 60.4758 52.5214 49.2748 51.961C38.0738 51.4007 41.8542 58.1 41.8542 58.1Z" fill="#364F3A"/>
<path d="M59.6349 60.363C59.6349 60.363 60.0375 56.5607 56.5 54.0625C57.9951 56.237 57.7566 58.4847 57.7566 58.4847C61.3191 62.4035 60.6886 66.9985 59.7589 69.8266C60.1802 71.1608 60.4369 72.6597 60.4751 74.364C60.4751 74.364 65.2354 66.5239 59.6349 60.363Z" fill="#364F3A"/>
<path d="M41.8542 58.1C48.5748 60.0822 60.1959 61.9023 60.4758 74.3637C60.4758 74.3637 65.2361 66.523 59.6356 60.3621C59.6356 60.3621 60.4758 52.5214 49.2748 51.961C38.0738 51.4007 41.8542 58.1 41.8542 58.1Z" stroke="#242F26" stroke-width="2" stroke-miterlimit="10" stroke-linecap="round" stroke-linejoin="round"/>
<path d="M41.8535 58.1003C41.8535 58.1003 52.2143 53.9217 59.6355 60.3625" stroke="#242F26" stroke-width="2" stroke-miterlimit="10" stroke-linecap="round" stroke-linejoin="round"/>
<path d="M38.5829 56.848C31.8623 58.8302 20.2412 60.6503 19.9613 73.1117C19.9613 73.1117 15.201 65.271 20.8015 59.1101C20.8015 59.1101 19.9613 51.2694 31.1623 50.709C42.3634 50.1493 38.5829 56.848 38.5829 56.848Z" fill="#364F3A"/>
<path d="M20.8015 59.111C20.8015 59.111 20.3989 55.3087 23.9364 52.8105C22.4413 54.985 22.6799 57.2327 22.6799 57.2327C19.1173 61.1515 19.7478 65.7465 20.6776 68.5746C20.2562 69.9088 19.9995 71.4077 19.9613 73.112C19.9613 73.112 15.201 65.2719 20.8015 59.111Z" fill="#364F3A"/>
<path d="M38.5829 56.848C31.8623 58.8302 20.2412 60.6503 19.9613 73.1117C19.9613 73.1117 15.201 65.271 20.8015 59.1101C20.8015 59.1101 19.9613 51.2694 31.1623 50.709C42.3634 50.1493 38.5829 56.848 38.5829 56.848Z" stroke="#242F26" stroke-width="2" stroke-miterlimit="10" stroke-linecap="round" stroke-linejoin="round"/>
<path d="M38.5847 56.8484C38.5847 56.8484 28.224 52.6698 20.8027 59.1105" stroke="#242F26" stroke-width="2" stroke-miterlimit="10" stroke-linecap="round" stroke-linejoin="round"/>
<path d="M43.1084 50.2441V115.5H39.9434V50.2441H43.1084Z" fill="#364F3A" stroke="#364F3A"/>
<path d="M43.6088 49.7441H39.4434V116H43.6088V49.7441Z" fill="#364F3A" stroke="#364F3A" stroke-width="2" stroke-miterlimit="10" stroke-linecap="round" stroke-linejoin="round"/>
<path d="M59.9261 103.446C51.8625 109.838 42.2524 107.08 42.2524 107.08C42.2524 107.08 41.4015 97.3805 49.4645 90.9892C57.5281 84.598 71.4527 83.9355 71.4527 83.9355C71.4527 83.9355 67.9897 97.055 59.9261 103.446Z" fill="#364F3A"/>
<path d="M59.9261 103.446C51.8625 109.838 42.2524 107.08 42.2524 107.08C42.2524 107.08 41.4015 97.3805 49.4645 90.9892C57.5281 84.598 71.4527 83.9355 71.4527 83.9355C71.4527 83.9355 67.9897 97.055 59.9261 103.446Z" fill="#364F3A"/>
<path d="M49.4642 90.9892C48.7599 91.5471 48.1275 92.1319 47.5527 92.7317C55.7153 87.6934 68.886 85.7168 68.886 85.7168C68.886 85.7168 64.5634 98.0611 57.926 104.829C58.5985 104.422 59.2672 103.968 59.9258 103.446C67.9894 97.055 71.4524 83.9355 71.4524 83.9355C71.4524 83.9355 57.5278 84.598 49.4642 90.9892Z" fill="#364F3A"/>
<path d="M59.9261 103.446C51.8625 109.838 42.2524 107.08 42.2524 107.08C42.2524 107.08 41.4015 97.3805 49.4645 90.9892C57.5281 84.598 71.4527 83.9355 71.4527 83.9355C71.4527 83.9355 67.9897 97.055 59.9261 103.446Z" stroke="#242F26" stroke-width="2" stroke-miterlimit="10" stroke-linecap="round" stroke-linejoin="round"/>
<path d="M70.9232 84.3555L42.252 107.081" stroke="#242F26" stroke-width="2" stroke-miterlimit="10" stroke-linecap="round" stroke-linejoin="round"/>
<path d="M47.8848 92.3926L49.4425 101.382" stroke="#242F26" stroke-width="2" stroke-miterlimit="10" stroke-linecap="round" stroke-linejoin="round"/>
<path d="M54.1108 106.597L46.6914 103.811" stroke="#242F26" stroke-width="2" stroke-miterlimit="10" stroke-linecap="round" stroke-linejoin="round"/>
<path d="M56.7656 87.0117L58.0704 94.5419" stroke="#242F26" stroke-width="2" stroke-miterlimit="10" stroke-linecap="round" stroke-linejoin="round"/>
<path d="M62.3802 101.162L53.8809 98.1094" stroke="#242F26" stroke-width="2" stroke-miterlimit="10" stroke-linecap="round" stroke-linejoin="round"/>
<path d="M65.4688 84.6777L65.9803 88.2741" stroke="#242F26" stroke-width="2" stroke-miterlimit="10" stroke-linecap="round" stroke-linejoin="round"/>
<path d="M67.4391 93.8698L61.791 91.8418" stroke="#242F26" stroke-width="2" stroke-miterlimit="10" stroke-linecap="round" stroke-linejoin="round"/>
<path d="M32.7248 55.581C30.2485 56.6729 25.4451 59.4271 25.42 65.181C25.3906 71.9636 31.368 75.4072 31.368 75.4072C31.368 75.4072 29.8028 65.9111 32.7248 64.5549C35.6468 63.1982 42.7425 61.529 43.264 54.7458C43.264 54.7458 38.1613 53.1843 32.7248 55.581Z" fill="#364F3A"/>
<path d="M26.0455 67.0593C26.0706 61.3048 30.874 58.5505 33.3503 57.4592C37.4074 55.6705 41.2761 56.0868 42.9798 56.413C43.1194 55.894 43.2183 55.3405 43.264 54.7463C43.264 54.7463 38.1613 53.1842 32.7248 55.5809C30.2485 56.6729 25.4451 59.4271 25.42 65.181C25.4125 66.8953 25.7901 68.3942 26.3567 69.6802C26.1613 68.8688 26.0417 67.9997 26.0455 67.0593Z" fill="#364F3A"/>
<path d="M32.7248 55.5812C30.2485 56.6731 25.4451 59.4273 25.42 65.1811C25.3906 71.9637 31.368 75.4072 31.368 75.4072C31.368 75.4072 29.8028 65.9112 32.7248 64.555C35.6468 63.1983 42.7425 61.5291 43.264 54.746C43.264 54.746 38.1613 53.1845 32.7248 55.5812Z" stroke="#242F26" stroke-width="2" stroke-miterlimit="10" stroke-linecap="round" stroke-linejoin="round"/>
<path d="M28.8633 67.8937C28.8633 67.8937 30.8067 65.3442 32.7245 64.5547" stroke="#242F26" stroke-width="2" stroke-miterlimit="10" stroke-linecap="round" stroke-linejoin="round"/>
<path d="M42.2726 54.6718C41.4843 59.7264 41.6302 61.4569 44.802 67.507C47.9739 73.5564 47.0673 76.3826 47.0673 76.3826C47.0673 76.3826 57.8012 64.5918 48.1423 55.4069C46.8269 54.1559 42.2726 54.6718 42.2726 54.6718Z" fill="#364F3A"/>
<path d="M50.2259 57.875C52.8549 64.1649 48.8923 70.6006 46.957 73.1989C47.3922 75.3452 47.0678 76.3827 47.0678 76.3827C47.0678 76.3827 55.993 66.5703 50.2259 57.875Z" fill="#364F3A"/>
<path d="M42.2726 54.6718C41.4843 59.7264 41.6302 61.4569 44.802 67.507C47.9739 73.5564 47.0673 76.3826 47.0673 76.3826C47.0673 76.3826 57.8012 64.5918 48.1423 55.4069C46.8269 54.1559 42.2726 54.6718 42.2726 54.6718Z" stroke="#242F26" stroke-width="2" stroke-miterlimit="10" stroke-linecap="round" stroke-linejoin="round"/>
<path d="M41.5254 81.1452L47.541 78.6777L42.3519 85.687L41.5254 81.1452Z" fill="#5B5340"/>
<path d="M41.5254 81.1452L47.541 78.6777L42.3519 85.687L41.5254 81.1452Z" fill="#5B5340" stroke="#5B5340" stroke-width="2" stroke-miterlimit="10" stroke-linecap="round" stroke-linejoin="round"/>
<path d="M18.3999 31.2949C18.2227 32.2078 18.1595 60.2341 44.5373 58.1354C44.5373 58.1354 50.3632 52.8079 48.8468 47.0509C47.3304 41.2938 45.2116 39.8049 42.4912 37.6599C39.7702 35.5149 18.3999 31.2949 18.3999 31.2949Z" fill="white"/>
<path d="M18.3999 31.2949C18.2227 32.2078 18.1595 60.2341 44.5373 58.1354C44.5373 58.1354 50.3632 52.8079 48.8468 47.0509C47.3304 41.2938 45.2116 39.8049 42.4912 37.6599C39.7702 35.5149 18.3999 31.2949 18.3999 31.2949Z" stroke="#F1ECE7" stroke-width="2" stroke-miterlimit="10" stroke-linecap="round" stroke-linejoin="round"/>
<path d="M42.3444 47.392C34.3371 40.2656 21.162 30.6386 27.4938 26.3999C33.8262 22.1605 50.4067 22.8148 55.1845 21.3522C59.9617 19.8897 62.4304 19.5059 62.4304 19.5059C62.4304 19.5059 67.5946 25.6617 57.8261 37.1126C48.0569 48.5628 42.3444 47.392 42.3444 47.392Z" fill="white"/>
<path d="M40.5407 58.4465C40.5407 58.4465 36.2231 55.3535 41.4986 49.2196C46.7736 43.0856 61.38 32.2822 66.1133 30.377C66.1133 30.377 66.0789 43.1025 61.3355 49.6416C52.4448 61.8988 40.5407 58.4465 40.5407 58.4465Z" fill="white"/>
<path d="M40.5407 58.4465C40.5407 58.4465 36.2231 55.3535 41.4986 49.2196C46.7736 43.0856 61.38 32.2822 66.1133 30.377C66.1133 30.377 66.0789 43.1025 61.3355 49.6416C52.4448 61.8988 40.5407 58.4465 40.5407 58.4465Z" stroke="#F1ECE7" stroke-width="2" stroke-miterlimit="10" stroke-linecap="round" stroke-linejoin="round"/>
<path d="M58.0905 14.7654C57.4205 18.2554 60.7552 23.1233 57.9696 29.0413C55.1841 34.9592 44.6142 44.0728 41.498 49.2188C41.498 49.2188 49.8434 41.4914 56.9203 38.8148C63.9971 36.1382 72.5372 30.3605 69.4668 24.1326C69.4668 24.1326 73.2466 17.7457 70.3565 12.7638C66.8547 6.7275 58.7084 11.5466 58.0905 14.7654Z" fill="white"/>
<path d="M70.3565 12.7644C69.1919 10.7572 67.5134 9.95511 65.769 9.89062C66.6587 10.3433 67.4664 11.0865 68.115 12.2041C71.0051 17.186 67.2253 23.5729 67.2253 23.5729C70.2964 29.8008 61.7563 35.5785 54.6788 38.2551C52.1337 39.218 49.4264 40.834 47.0003 42.5088C44.678 45.0345 42.6113 47.3812 41.498 49.22C41.498 49.22 49.8434 41.4927 56.9203 38.8161C63.9971 36.1395 72.5372 30.3618 69.4668 24.1339C69.4668 24.1339 73.2466 17.7457 70.3565 12.7644Z" fill="white"/>
<path d="M58.0905 14.7654C57.4205 18.2554 60.7552 23.1233 57.9696 29.0413C55.1841 34.9592 44.6142 44.0728 41.498 49.2188C41.498 49.2188 49.8434 41.4914 56.9203 38.8148C63.9971 36.1382 72.5372 30.3605 69.4668 24.1326C69.4668 24.1326 73.2466 17.7457 70.3565 12.7638C66.8547 6.7275 58.7084 11.5466 58.0905 14.7654Z" stroke="#F1ECE7" stroke-width="2" stroke-miterlimit="10" stroke-linecap="round" stroke-linejoin="round"/>
<path d="M62.8185 16.2136C62.8185 16.2136 67.5243 11.3456 64.1915 6.66546C60.8588 1.98532 53.1652 4.72391 53.1652 4.72391C53.1652 4.72391 52.2166 1.50635 45.9944 1.0543C39.7722 0.602257 33.302 3.03906 29.916 5.88408C29.916 5.88408 48.4675 8.77418 52.5266 10.8754C56.5868 12.976 62.8185 16.2136 62.8185 16.2136Z" fill="white"/>
<path d="M64.1915 6.66546C60.8588 1.98532 53.1652 4.72391 53.1652 4.72391C53.1652 4.72391 52.2166 1.50635 45.9944 1.0543C39.7722 0.602257 33.302 3.03906 29.916 5.88408C29.916 5.88408 30.1383 5.91914 30.5215 5.9805C34.1147 3.8868 39.2938 2.37038 44.3139 2.7354C50.5362 3.18745 51.4841 6.405 51.4841 6.405C51.4841 6.405 59.1777 3.66642 62.5104 8.34655C64.5691 11.2379 63.5598 14.1994 62.4879 16.042C62.6989 16.1516 62.8185 16.2136 62.8185 16.2136C62.8185 16.2136 67.5243 11.3456 64.1915 6.66546Z" fill="white"/>
<path d="M62.8185 16.2136C62.8185 16.2136 67.5243 11.3456 64.1915 6.66546C60.8588 1.98532 53.1652 4.72391 53.1652 4.72391C53.1652 4.72391 52.2166 1.50635 45.9944 1.0543C39.7722 0.602257 33.302 3.03906 29.916 5.88408C29.916 5.88408 48.4675 8.77418 52.5266 10.8754C56.5868 12.976 62.8185 16.2136 62.8185 16.2136Z" stroke="#F1ECE7" stroke-width="2" stroke-miterlimit="10" stroke-linecap="round" stroke-linejoin="round"/>
<path d="M55.8895 18.4181C56.192 18.4669 54.951 12.0074 51.2595 8.56883C47.568 5.13027 39.8894 4.2318 32.4219 7.67538C32.4219 7.67538 38.8945 12.1426 43.3731 13.778C47.8522 15.4134 55.8895 18.4181 55.8895 18.4181Z" fill="#E3C148"/>
<path d="M55.8895 18.4181C56.192 18.4669 54.951 12.0074 51.2595 8.56883C47.568 5.13027 39.8894 4.2318 32.4219 7.67538C32.4219 7.67538 38.8945 12.1426 43.3731 13.778C47.8522 15.4134 55.8895 18.4181 55.8895 18.4181Z" stroke="#937D2E" stroke-width="2" stroke-miterlimit="10" stroke-linecap="round" stroke-linejoin="round"/>
<path d="M17.4548 24.001L15.6979 13.2132C15.6979 13.2132 12.3815 7.43052 21.7342 6.43313C21.7342 6.43313 27.4074 1.38986 34.498 5.15713C41.5887 8.92441 41.3326 11.7387 41.3326 11.7387C41.3326 11.7387 39.4737 16.4752 36.0213 21.2975C32.569 26.1204 25.9341 30.5419 25.9341 30.5419L17.4548 24.001Z" fill="#E3C148"/>
<path d="M16.8189 16.0144C16.8189 16.0144 13.5018 10.2317 22.8551 9.23433C22.8551 9.23433 28.5283 4.19105 35.6189 7.95833C38.5792 9.5311 40.2559 10.9367 41.2082 12.0418C41.2877 11.8521 41.3328 11.7387 41.3328 11.7387C41.3328 11.7387 41.5888 8.92441 34.4982 5.15713C27.4076 1.38986 21.7344 6.43313 21.7344 6.43313C12.381 7.43115 15.6981 13.2132 15.6981 13.2132L17.455 24.001L18.2151 24.5871L16.8189 16.0144Z" fill="#E3C148"/>
<path d="M17.4548 24.001L15.6979 13.2132C15.6979 13.2132 12.3815 7.43052 21.7342 6.43313C21.7342 6.43313 27.4074 1.38986 34.498 5.15713C41.5886 8.92441 41.3326 11.7387 41.3326 11.7387C41.3326 11.7387 39.4737 16.4752 36.0213 21.2975C32.569 26.1204 25.9341 30.5419 25.9341 30.5419L17.4548 24.001Z" stroke="#937D2E" stroke-width="2" stroke-miterlimit="10" stroke-linecap="round" stroke-linejoin="round"/>
<path d="M46.2498 44.8037C46.2498 44.8037 46.4539 36.0995 38.1311 33.4405C29.8083 30.7808 22.62 26.934 21.1668 21.3498C19.7136 15.7655 17.9674 14.4181 15.6984 13.2129C15.6984 13.2129 12.9153 15.8187 15.6182 20.472C15.6182 20.472 10.1492 23.9725 15.0197 30.603C19.8901 37.2334 32.3014 37.5477 37.5019 38.7849C44.6545 40.4873 46.2498 44.8037 46.2498 44.8037Z" fill="white"/>
<path d="M18.3655 17.9884C18.8977 20.0339 20.1975 21.8596 22.0388 23.4787C21.6556 22.7987 21.3595 22.09 21.1673 21.3506C19.9927 16.8388 18.6272 15.0933 16.9492 13.9531C17.4526 14.9837 17.9228 16.2879 18.3655 17.9884Z" fill="white"/>
<path d="M46.2148 44.7188C46.2382 44.7724 46.2502 44.804 46.2502 44.804C46.2502 44.804 46.2502 44.7889 46.2508 44.7655C46.2382 44.7503 46.2262 44.7345 46.2148 44.7188Z" fill="white"/>
<path d="M34.701 35.4238C30.091 34.3269 19.8173 33.9512 14.1504 29.2617C14.3952 29.6944 14.6801 30.1408 15.0201 30.6041C19.8905 37.2345 32.3018 37.5488 37.5022 38.786C40.3147 39.4553 42.265 40.5285 43.5999 41.5847C41.1305 38.8925 37.9706 36.2015 34.701 35.4238Z" fill="white"/>
<path d="M46.2498 44.8037C46.2498 44.8037 46.4539 36.0995 38.1311 33.4405C29.8083 30.7808 22.62 26.934 21.1668 21.3498C19.7136 15.7655 17.9674 14.4181 15.6984 13.2129C15.6984 13.2129 12.9153 15.8187 15.6182 20.472C15.6182 20.472 10.1492 23.9725 15.0197 30.603C19.8901 37.2334 32.3014 37.5477 37.5019 38.7849C44.6545 40.4873 46.2498 44.8037 46.2498 44.8037Z" stroke="#F1ECE7" stroke-width="2" stroke-miterlimit="10" stroke-linecap="round" stroke-linejoin="round"/>
<path d="M50.3208 17.4628C50.3208 17.4628 50.23 14.8651 46.0959 11.9656C41.9617 9.06673 35.9899 11.1229 35.129 12.3594C35.129 12.3594 29.9542 10.7416 28.2155 13.0506C26.4768 15.3597 36.0669 19.0556 41.5359 19.1358C47.005 19.2159 50.3208 17.4628 50.3208 17.4628Z" fill="#FCFC01"/>
<path d="M50.3208 17.4628C50.3208 17.4628 50.23 14.8651 46.0959 11.9656C41.9617 9.06673 35.9899 11.1229 35.129 12.3594C35.129 12.3594 29.9542 10.7416 28.2155 13.0506C26.4768 15.3597 36.0669 19.0556 41.5359 19.1358C47.005 19.2159 50.3208 17.4628 50.3208 17.4628Z" stroke="#937D2E" stroke-width="2" stroke-miterlimit="10" stroke-linecap="round" stroke-linejoin="round"/>
<path d="M39.9574 17.681C39.9574 17.681 32.1955 16.7832 29.7393 12.0467C29.7393 12.0467 27.8322 9.22482 24.5796 9.81837C21.327 10.4119 22.901 15.4157 25.9783 15.7501C25.9783 15.7501 25.5714 22.425 40.3606 21.7106L39.9574 17.681Z" fill="#FCFC01"/>
<path d="M28.7802 15.1896C26.1649 14.9053 24.6472 11.2564 26.2438 9.8007C25.7373 9.71617 25.1819 9.70803 24.5796 9.8176C21.327 10.4112 22.901 15.415 25.9783 15.7493C25.9783 15.7493 25.5714 22.4242 40.3606 21.7098L40.3093 21.1933C28.4345 20.9685 28.7802 15.1896 28.7802 15.1896Z" fill="#FCFC01"/>
<path d="M39.9574 17.681C39.9574 17.681 32.1955 16.7832 29.7393 12.0467C29.7393 12.0467 27.8322 9.22482 24.5796 9.81837C21.327 10.4119 22.901 15.4157 25.9783 15.7501C25.9783 15.7501 25.5714 22.425 40.3606 21.7106L39.9574 17.681Z" stroke="#937D2E" stroke-width="2" stroke-miterlimit="10" stroke-linecap="round" stroke-linejoin="round"/>
<path d="M55.9971 16.9312C55.9971 16.9312 46.3557 12.7225 36.373 16.744C36.373 16.744 37.1313 21.6457 42.8338 22.2725C48.5364 22.8992 56.4166 21.1323 56.4166 21.1323C56.4166 21.1323 58.0714 19.7705 55.9971 16.9312Z" fill="#FCFC01"/>
<path d="M39.7352 18.425C46.3776 15.7491 52.8647 16.717 56.4648 17.6643C56.3339 17.4308 56.1855 17.1891 55.9971 16.9312C55.9971 16.9312 46.3557 12.7225 36.373 16.744C36.373 16.744 37.0442 21.0685 41.8534 22.1128C40.0652 20.4912 39.7352 18.425 39.7352 18.425Z" fill="#FCFC01"/>
<path d="M55.9971 16.9309C55.9971 16.9309 46.0013 12.7579 36.373 16.7437C36.373 16.7437 37.1313 21.6455 42.8338 22.2722C48.5364 22.899 56.4166 21.1321 56.4166 21.1321C56.4166 21.1321 58.0714 19.7703 55.9971 16.9309Z" stroke="#937D2E" stroke-width="2" stroke-miterlimit="10" stroke-linecap="round" stroke-linejoin="round"/>
<path d="M28.1172 29.1301C28.1591 28.7156 32.6921 20.9857 40.7752 21.7151C48.8582 22.4451 55.2576 19.5588 55.7334 15.6081C56.0002 13.3948 54.614 11.9241 54.614 11.9241C54.614 11.9241 60.9044 10.5779 63.4752 16.2667C66.0466 21.9555 60.0999 27.5736 54.0223 25.2081C54.0223 25.2081 49.7178 30.5595 44.1361 28.1439C38.555 25.7291 28.1172 29.1301 28.1172 29.1301Z" fill="#E3C148"/>
<path d="M63.4754 16.2667C62.0166 13.0385 59.3606 12.0768 57.3358 11.8477C58.8065 12.4481 60.2779 13.5901 61.2346 15.7063C63.806 21.3958 58.5717 25.7052 52.4941 23.3398C52.4941 23.3398 48.9485 27.2549 44.2715 28.1965C49.7875 30.468 54.0231 25.2075 54.0231 25.2075C60.1001 27.5735 66.0468 21.9555 63.4754 16.2667Z" fill="#E3C148"/>
<path d="M28.1172 29.1301C28.1591 28.7156 32.6921 20.9857 40.7752 21.7151C48.8582 22.4451 54.9827 19.5162 55.7334 15.6081C56.1129 13.6308 54.614 11.9241 54.614 11.9241C54.614 11.9241 60.9044 10.5779 63.4752 16.2667C66.0466 21.9555 60.0999 27.5736 54.0223 25.2081C54.0223 25.2081 49.7178 30.5595 44.1361 28.1439C38.555 25.7291 28.1172 29.1301 28.1172 29.1301Z" stroke="#937D2E" stroke-width="2" stroke-miterlimit="10" stroke-linecap="round" stroke-linejoin="round"/>
<path d="M0 122.51H16.7661V146.619H0L3.11927 134.345L0 122.51Z" fill="#5B5340"/>
<path d="M85 122.51H68.2339V146.619H85L81.8807 134.345L85 122.51Z" fill="#5B5340"/>
<rect x="8.70898" y="115.936" width="67.5841" height="24.1097" fill="#BFB39A"/>
<path d="M25.8412 133.936C25.8412 133.37 25.9265 132.869 26.0972 132.432C26.2785 131.994 26.5185 131.594 26.8172 131.232C27.1159 130.858 27.4519 130.501 27.8252 130.16C28.2092 129.808 28.5985 129.44 28.9932 129.056C29.6865 128.394 30.1879 127.781 30.4972 127.216C30.8065 126.65 30.9612 126.106 30.9612 125.584C30.9612 125.178 30.9025 124.789 30.7852 124.416C30.6785 124.032 30.4812 123.717 30.1932 123.472C29.9052 123.226 29.5052 123.104 28.9932 123.104C28.5559 123.104 28.1665 123.216 27.8252 123.44C27.4839 123.653 27.2545 123.92 27.1372 124.24C27.2439 124.346 27.3185 124.464 27.3612 124.592C27.4039 124.709 27.4252 124.826 27.4252 124.944C27.4252 125.04 27.3985 125.146 27.3452 125.264C27.3025 125.381 27.2225 125.482 27.1052 125.568C26.9879 125.653 26.8332 125.696 26.6412 125.696C26.4065 125.685 26.2252 125.594 26.0972 125.424C25.9692 125.253 25.9052 125.05 25.9052 124.816C25.9052 124.592 25.9745 124.346 26.1132 124.08C26.2519 123.802 26.4599 123.546 26.7372 123.312C27.0252 123.066 27.3772 122.869 27.7932 122.72C28.2092 122.56 28.6945 122.48 29.2492 122.48C29.6759 122.48 30.0865 122.533 30.4812 122.64C30.8865 122.736 31.2492 122.896 31.5692 123.12C31.8892 123.344 32.1399 123.642 32.3212 124.016C32.5132 124.378 32.6092 124.832 32.6092 125.376C32.6092 125.642 32.5505 125.93 32.4332 126.24C32.3265 126.549 32.1452 126.885 31.8892 127.248C31.6439 127.6 31.3239 127.978 30.9292 128.384C30.5345 128.778 30.0492 129.21 29.4732 129.68C28.7479 130.277 28.1505 130.842 27.6812 131.376C27.2225 131.898 26.9559 132.346 26.8812 132.72L29.7132 132.8C30.2359 132.81 30.6945 132.81 31.0892 132.8C31.4945 132.789 31.8092 132.709 32.0332 132.56C32.2679 132.4 32.3852 132.112 32.3852 131.696H32.8652L32.7692 133.936H25.8412ZM39.795 134.192C38.9843 134.192 38.3123 134.021 37.779 133.68C37.2456 133.328 36.8296 132.869 36.531 132.304C36.2323 131.728 36.019 131.098 35.891 130.416C35.7736 129.733 35.715 129.056 35.715 128.384C35.715 127.712 35.7896 127.029 35.939 126.336C36.099 125.642 36.3443 125.008 36.675 124.432C37.0056 123.845 37.4323 123.376 37.955 123.024C38.4776 122.661 39.1123 122.48 39.859 122.48C40.6376 122.48 41.283 122.656 41.795 123.008C42.3176 123.36 42.7283 123.824 43.027 124.4C43.3363 124.965 43.555 125.589 43.683 126.272C43.811 126.954 43.875 127.632 43.875 128.304C43.875 128.965 43.8003 129.642 43.651 130.336C43.5016 131.029 43.267 131.669 42.947 132.256C42.627 132.832 42.2056 133.301 41.683 133.664C41.171 134.016 40.5416 134.192 39.795 134.192ZM39.891 133.568C40.3496 133.568 40.7283 133.424 41.027 133.136C41.3256 132.848 41.5603 132.464 41.731 131.984C41.9123 131.504 42.0403 130.976 42.115 130.4C42.1896 129.813 42.227 129.226 42.227 128.64C42.227 127.989 42.1896 127.338 42.115 126.688C42.0403 126.037 41.9123 125.44 41.731 124.896C41.5496 124.352 41.3043 123.914 40.995 123.584C40.6856 123.253 40.2963 123.088 39.827 123.088C39.3683 123.088 38.979 123.232 38.659 123.52C38.3496 123.808 38.099 124.192 37.907 124.672C37.715 125.152 37.5763 125.685 37.491 126.272C37.4056 126.858 37.363 127.45 37.363 128.048C37.363 128.496 37.3843 128.97 37.427 129.472C37.4696 129.973 37.5443 130.469 37.651 130.96C37.7683 131.44 37.923 131.877 38.115 132.272C38.307 132.666 38.547 132.981 38.835 133.216C39.123 133.45 39.475 133.568 39.891 133.568ZM47.0605 133.936V133.408C47.4338 133.386 47.7165 133.301 47.9085 133.152C48.1111 133.002 48.2498 132.794 48.3245 132.528C48.4098 132.261 48.4525 131.946 48.4525 131.584L48.4045 124.032L46.4845 125.264L46.1645 124.8L49.2845 122.48H49.8285L49.8445 132.192C49.8445 132.394 49.8391 132.592 49.8285 132.784C49.8285 132.976 49.8178 133.146 49.7965 133.296C50.0205 133.285 50.2445 133.274 50.4685 133.264C50.6925 133.253 50.9165 133.242 51.1405 133.232V133.936H47.0605ZM55.9446 134.192C55.7419 134.17 55.5979 134.096 55.5126 133.968C55.4272 133.84 55.3846 133.68 55.3846 133.488C55.3846 133.253 55.4432 132.949 55.5606 132.576C55.6886 132.202 55.8379 131.808 56.0086 131.392C56.1792 130.965 56.3339 130.576 56.4726 130.224C56.6752 129.722 56.9152 129.114 57.1926 128.4C57.4699 127.685 57.7739 126.933 58.1046 126.144C58.4459 125.344 58.7926 124.576 59.1446 123.84L54.9206 123.856C54.4939 123.866 54.1579 123.968 53.9126 124.16C53.6779 124.352 53.5606 124.666 53.5606 125.104H53.1766V122.736H59.8806V123.824C59.4966 124.624 59.1606 125.386 58.8726 126.112C58.5952 126.837 58.3446 127.568 58.1206 128.304C57.8966 129.029 57.6832 129.792 57.4806 130.592C57.2779 131.392 57.0592 132.266 56.8246 133.216C56.7606 133.472 56.6592 133.701 56.5206 133.904C56.3926 134.106 56.2006 134.202 55.9446 134.192Z" fill="black"/>
</svg>
