<svg width="85" height="149" viewBox="0 0 85 149" fill="none" xmlns="http://www.w3.org/2000/svg">
<path d="M19.707 75.2969C20.021 75.3516 20.4325 75.4273 20.9229 75.5283C22.1152 75.7739 23.7716 76.1651 25.624 76.748C29.3425 77.9182 33.7937 79.8424 36.8945 82.8584C39.9793 85.8589 41.1704 89.402 41.5889 92.209C41.798 93.6121 41.8132 94.8267 41.7764 95.6885C41.758 96.1174 41.7266 96.4585 41.7002 96.6904C41.4691 96.7232 41.1292 96.7637 40.7012 96.7939C39.8407 96.8547 38.6262 96.8733 37.2178 96.7031C34.4002 96.3626 30.8257 95.2699 27.7412 92.2695C24.6404 89.2534 22.5939 84.8567 21.3213 81.1719C20.6874 79.3364 20.2502 77.6919 19.9717 76.5068C19.8571 76.0191 19.7704 75.6093 19.707 75.2969Z" fill="#364F3A" stroke="#242F26"/>
<path d="M19.707 75.2969C20.021 75.3516 20.4325 75.4273 20.9229 75.5283C22.1152 75.7739 23.7716 76.1651 25.624 76.748C29.3425 77.9182 33.7937 79.8424 36.8945 82.8584C39.9793 85.8589 41.1704 89.402 41.5889 92.209C41.798 93.6121 41.8132 94.8267 41.7764 95.6885C41.758 96.1174 41.7266 96.4585 41.7002 96.6904C41.4691 96.7232 41.1292 96.7637 40.7012 96.7939C39.8407 96.8547 38.6262 96.8733 37.2178 96.7031C34.4002 96.3626 30.8257 95.2699 27.7412 92.2695C24.6404 89.2534 22.5939 84.8567 21.3213 81.1719C20.6874 79.3364 20.2502 77.6919 19.9717 76.5068C19.8571 76.0191 19.7704 75.6093 19.707 75.2969Z" fill="#364F3A" stroke="#242F26"/>
<path d="M19.7051 75.2969C20.019 75.3515 20.4305 75.4273 20.9209 75.5283C22.1132 75.7739 23.7697 76.1653 25.6221 76.748C28.5343 77.6643 31.8957 79.0436 34.7061 81.0469C32.2802 79.8005 29.7096 78.8001 27.4678 78.042C25.6449 77.4256 24.0281 76.9648 22.8672 76.6582C22.2868 76.5049 21.8197 76.3902 21.4971 76.3135C21.3357 76.2751 21.2103 76.2459 21.125 76.2266C21.0823 76.2169 21.0495 76.21 21.0273 76.2051C21.0163 76.2026 21.0077 76.2005 21.002 76.1992C20.9991 76.1986 20.9967 76.1986 20.9951 76.1982L20.9932 76.1973L20.1865 76.0234L20.4053 76.8184V76.8213C20.4057 76.8228 20.4065 76.8253 20.4072 76.8281C20.4088 76.8338 20.4111 76.8419 20.4141 76.8525C20.4201 76.8743 20.4295 76.9065 20.4414 76.9482C20.4652 77.0317 20.5001 77.1547 20.5469 77.3125C20.6405 77.6285 20.7807 78.0859 20.9639 78.6543C21.3303 79.7911 21.8726 81.3737 22.5791 83.1582C23.4329 85.3148 24.5334 87.7802 25.8555 90.1162C23.7818 87.3658 22.314 84.0515 21.3193 81.1719C20.6854 79.3364 20.2483 77.6919 19.9697 76.5068C19.8551 76.0191 19.7685 75.6093 19.7051 75.2969Z" fill="#364F3A" stroke="#242F26"/>
<path d="M37.2435 82.5001C43.6128 88.6954 42.1465 97.1241 42.1465 97.1241C42.1465 97.1241 33.7611 98.8233 27.3923 92.628C21.0229 86.4327 19.082 74.6895 19.082 74.6895C19.082 74.6895 30.8741 76.3048 37.2435 82.5001Z" stroke="#242F26" stroke-width="2" stroke-miterlimit="10" stroke-linecap="round" stroke-linejoin="round"/>
<path d="M19.498 75.0957L42.1449 97.1233" stroke="#242F26" stroke-width="2" stroke-miterlimit="10" stroke-linecap="round" stroke-linejoin="round"/>
<path d="M28.7695 93.8267L36.465 91.5996" stroke="#242F26" stroke-width="2" stroke-miterlimit="10" stroke-linecap="round" stroke-linejoin="round"/>
<path d="M23.2031 86.8365L29.6495 84.9707" stroke="#242F26" stroke-width="2" stroke-miterlimit="10" stroke-linecap="round" stroke-linejoin="round"/>
<path d="M35.0084 80.6484L33.1758 88.1648" stroke="#242F26" stroke-width="2" stroke-miterlimit="10" stroke-linecap="round" stroke-linejoin="round"/>
<path d="M28.1455 77.0918L26.9277 82.0869" stroke="#242F26" stroke-width="2" stroke-miterlimit="10" stroke-linecap="round" stroke-linejoin="round"/>
<path d="M40.0889 108.377L39.543 111.385L36.1064 106.743L40.0889 108.377Z" fill="#5B5340" stroke="#5B5340"/>
<path d="M40.6543 108.069L34.6387 105.602L39.8285 112.611L40.6543 108.069Z" fill="#5B5340" stroke="#5B5340" stroke-width="2" stroke-miterlimit="10" stroke-linecap="round" stroke-linejoin="round"/>
<path d="M41.8542 58.1C48.5748 60.0822 60.1959 61.9023 60.4758 74.3637C60.4758 74.3637 65.2361 66.523 59.6356 60.3621C59.6356 60.3621 60.4758 52.5214 49.2748 51.961C38.0738 51.4007 41.8542 58.1 41.8542 58.1Z" fill="#364F3A"/>
<path d="M59.6349 60.363C59.6349 60.363 60.0375 56.5607 56.5 54.0625C57.9951 56.237 57.7566 58.4847 57.7566 58.4847C61.3191 62.4035 60.6886 66.9985 59.7589 69.8266C60.1802 71.1608 60.4369 72.6597 60.4751 74.364C60.4751 74.364 65.2354 66.5239 59.6349 60.363Z" fill="#364F3A"/>
<path d="M41.8542 58.1C48.5748 60.0822 60.1959 61.9023 60.4758 74.3637C60.4758 74.3637 65.2361 66.523 59.6356 60.3621C59.6356 60.3621 60.4758 52.5214 49.2748 51.961C38.0738 51.4007 41.8542 58.1 41.8542 58.1Z" stroke="#242F26" stroke-width="2" stroke-miterlimit="10" stroke-linecap="round" stroke-linejoin="round"/>
<path d="M41.8535 58.1003C41.8535 58.1003 52.2143 53.9217 59.6355 60.3625" stroke="#242F26" stroke-width="2" stroke-miterlimit="10" stroke-linecap="round" stroke-linejoin="round"/>
<path d="M38.5829 56.848C31.8623 58.8302 20.2412 60.6503 19.9613 73.1117C19.9613 73.1117 15.201 65.271 20.8015 59.1101C20.8015 59.1101 19.9613 51.2694 31.1623 50.709C42.3634 50.1493 38.5829 56.848 38.5829 56.848Z" fill="#364F3A"/>
<path d="M20.8015 59.111C20.8015 59.111 20.3989 55.3087 23.9364 52.8105C22.4413 54.985 22.6799 57.2327 22.6799 57.2327C19.1173 61.1515 19.7478 65.7465 20.6776 68.5746C20.2562 69.9088 19.9995 71.4077 19.9613 73.112C19.9613 73.112 15.201 65.2719 20.8015 59.111Z" fill="#364F3A"/>
<path d="M38.5829 56.848C31.8623 58.8302 20.2412 60.6503 19.9613 73.1117C19.9613 73.1117 15.201 65.271 20.8015 59.1101C20.8015 59.1101 19.9613 51.2694 31.1623 50.709C42.3634 50.1493 38.5829 56.848 38.5829 56.848Z" stroke="#242F26" stroke-width="2" stroke-miterlimit="10" stroke-linecap="round" stroke-linejoin="round"/>
<path d="M38.5847 56.8484C38.5847 56.8484 28.224 52.6698 20.8027 59.1105" stroke="#242F26" stroke-width="2" stroke-miterlimit="10" stroke-linecap="round" stroke-linejoin="round"/>
<path d="M43.1084 50.2441V115.5H39.9434V50.2441H43.1084Z" fill="#364F3A" stroke="#364F3A"/>
<path d="M43.6088 49.7441H39.4434V116H43.6088V49.7441Z" fill="#364F3A" stroke="#364F3A" stroke-width="2" stroke-miterlimit="10" stroke-linecap="round" stroke-linejoin="round"/>
<path d="M59.9261 103.446C51.8625 109.838 42.2524 107.08 42.2524 107.08C42.2524 107.08 41.4015 97.3805 49.4645 90.9892C57.5281 84.598 71.4527 83.9355 71.4527 83.9355C71.4527 83.9355 67.9897 97.055 59.9261 103.446Z" fill="#364F3A"/>
<path d="M59.9261 103.446C51.8625 109.838 42.2524 107.08 42.2524 107.08C42.2524 107.08 41.4015 97.3805 49.4645 90.9892C57.5281 84.598 71.4527 83.9355 71.4527 83.9355C71.4527 83.9355 67.9897 97.055 59.9261 103.446Z" fill="#364F3A"/>
<path d="M49.4642 90.9892C48.7599 91.5471 48.1275 92.1319 47.5527 92.7317C55.7153 87.6934 68.886 85.7168 68.886 85.7168C68.886 85.7168 64.5634 98.0611 57.926 104.829C58.5985 104.422 59.2672 103.968 59.9258 103.446C67.9894 97.055 71.4524 83.9355 71.4524 83.9355C71.4524 83.9355 57.5278 84.598 49.4642 90.9892Z" fill="#364F3A"/>
<path d="M59.9261 103.446C51.8625 109.838 42.2524 107.08 42.2524 107.08C42.2524 107.08 41.4015 97.3805 49.4645 90.9892C57.5281 84.598 71.4527 83.9355 71.4527 83.9355C71.4527 83.9355 67.9897 97.055 59.9261 103.446Z" stroke="#242F26" stroke-width="2" stroke-miterlimit="10" stroke-linecap="round" stroke-linejoin="round"/>
<path d="M70.9232 84.3555L42.252 107.081" stroke="#242F26" stroke-width="2" stroke-miterlimit="10" stroke-linecap="round" stroke-linejoin="round"/>
<path d="M47.8848 92.3926L49.4425 101.382" stroke="#242F26" stroke-width="2" stroke-miterlimit="10" stroke-linecap="round" stroke-linejoin="round"/>
<path d="M54.1108 106.597L46.6914 103.811" stroke="#242F26" stroke-width="2" stroke-miterlimit="10" stroke-linecap="round" stroke-linejoin="round"/>
<path d="M56.7656 87.0117L58.0704 94.5419" stroke="#242F26" stroke-width="2" stroke-miterlimit="10" stroke-linecap="round" stroke-linejoin="round"/>
<path d="M62.3802 101.162L53.8809 98.1094" stroke="#242F26" stroke-width="2" stroke-miterlimit="10" stroke-linecap="round" stroke-linejoin="round"/>
<path d="M65.4688 84.6777L65.9803 88.2741" stroke="#242F26" stroke-width="2" stroke-miterlimit="10" stroke-linecap="round" stroke-linejoin="round"/>
<path d="M67.4391 93.8698L61.791 91.8418" stroke="#242F26" stroke-width="2" stroke-miterlimit="10" stroke-linecap="round" stroke-linejoin="round"/>
<path d="M32.7248 55.581C30.2485 56.6729 25.4451 59.4271 25.42 65.181C25.3906 71.9636 31.368 75.4072 31.368 75.4072C31.368 75.4072 29.8028 65.9111 32.7248 64.5549C35.6468 63.1982 42.7425 61.529 43.264 54.7458C43.264 54.7458 38.1613 53.1843 32.7248 55.581Z" fill="#364F3A"/>
<path d="M26.0455 67.0593C26.0706 61.3048 30.874 58.5505 33.3503 57.4592C37.4074 55.6705 41.2761 56.0868 42.9798 56.413C43.1194 55.894 43.2183 55.3405 43.264 54.7463C43.264 54.7463 38.1613 53.1842 32.7248 55.5809C30.2485 56.6729 25.4451 59.4271 25.42 65.181C25.4125 66.8953 25.7901 68.3942 26.3567 69.6802C26.1613 68.8688 26.0417 67.9997 26.0455 67.0593Z" fill="#364F3A"/>
<path d="M32.7248 55.5812C30.2485 56.6731 25.4451 59.4273 25.42 65.1811C25.3906 71.9637 31.368 75.4072 31.368 75.4072C31.368 75.4072 29.8028 65.9112 32.7248 64.555C35.6468 63.1983 42.7425 61.5291 43.264 54.746C43.264 54.746 38.1613 53.1845 32.7248 55.5812Z" stroke="#242F26" stroke-width="2" stroke-miterlimit="10" stroke-linecap="round" stroke-linejoin="round"/>
<path d="M28.8633 67.8937C28.8633 67.8937 30.8067 65.3442 32.7245 64.5547" stroke="#242F26" stroke-width="2" stroke-miterlimit="10" stroke-linecap="round" stroke-linejoin="round"/>
<path d="M42.2726 54.6718C41.4843 59.7264 41.6302 61.4569 44.802 67.507C47.9739 73.5564 47.0673 76.3826 47.0673 76.3826C47.0673 76.3826 57.8012 64.5918 48.1423 55.4069C46.8269 54.1559 42.2726 54.6718 42.2726 54.6718Z" fill="#364F3A"/>
<path d="M50.2259 57.875C52.8549 64.1649 48.8923 70.6006 46.957 73.1989C47.3922 75.3452 47.0678 76.3827 47.0678 76.3827C47.0678 76.3827 55.993 66.5703 50.2259 57.875Z" fill="#364F3A"/>
<path d="M42.2726 54.6718C41.4843 59.7264 41.6302 61.4569 44.802 67.507C47.9739 73.5564 47.0673 76.3826 47.0673 76.3826C47.0673 76.3826 57.8012 64.5918 48.1423 55.4069C46.8269 54.1559 42.2726 54.6718 42.2726 54.6718Z" stroke="#242F26" stroke-width="2" stroke-miterlimit="10" stroke-linecap="round" stroke-linejoin="round"/>
<path d="M41.5254 81.1452L47.541 78.6777L42.3519 85.687L41.5254 81.1452Z" fill="#5B5340"/>
<path d="M41.5254 81.1452L47.541 78.6777L42.3519 85.687L41.5254 81.1452Z" fill="#5B5340" stroke="#5B5340" stroke-width="2" stroke-miterlimit="10" stroke-linecap="round" stroke-linejoin="round"/>
<path d="M18.3999 31.2949C18.2227 32.2078 18.1595 60.2341 44.5373 58.1354C44.5373 58.1354 50.3632 52.8079 48.8468 47.0509C47.3304 41.2938 45.2116 39.8049 42.4912 37.6599C39.7702 35.5149 18.3999 31.2949 18.3999 31.2949Z" fill="#E22B57"/>
<path d="M18.3999 31.2949C18.2227 32.2078 18.1595 60.2341 44.5373 58.1354C44.5373 58.1354 50.3632 52.8079 48.8468 47.0509C47.3304 41.2938 45.2116 39.8049 42.4912 37.6599C39.7702 35.5149 18.3999 31.2949 18.3999 31.2949Z" stroke="#202326" stroke-width="2" stroke-miterlimit="10" stroke-linecap="round" stroke-linejoin="round"/>
<path d="M42.3444 47.392C34.3371 40.2656 21.162 30.6386 27.4938 26.3999C33.8262 22.1605 50.4067 22.8148 55.1845 21.3522C59.9617 19.8897 62.4304 19.5059 62.4304 19.5059C62.4304 19.5059 67.5946 25.6617 57.8261 37.1126C48.0569 48.5628 42.3444 47.392 42.3444 47.392Z" fill="#E22B57"/>
<path d="M40.5407 58.4465C40.5407 58.4465 36.2231 55.3535 41.4986 49.2196C46.7736 43.0856 61.38 32.2822 66.1133 30.377C66.1133 30.377 66.0789 43.1025 61.3355 49.6416C52.4448 61.8988 40.5407 58.4465 40.5407 58.4465Z" fill="#E22B57"/>
<path d="M40.5407 58.4465C40.5407 58.4465 36.2231 55.3535 41.4986 49.2196C46.7736 43.0856 61.38 32.2822 66.1133 30.377C66.1133 30.377 66.0789 43.1025 61.3355 49.6416C52.4448 61.8988 40.5407 58.4465 40.5407 58.4465Z" stroke="#202326" stroke-width="2" stroke-miterlimit="10" stroke-linecap="round" stroke-linejoin="round"/>
<path d="M58.0905 14.7654C57.4205 18.2554 60.7552 23.1233 57.9696 29.0413C55.1841 34.9592 44.6142 44.0728 41.498 49.2188C41.498 49.2188 49.8434 41.4914 56.9203 38.8148C63.9971 36.1382 72.5372 30.3605 69.4668 24.1326C69.4668 24.1326 73.2466 17.7457 70.3565 12.7638C66.8547 6.7275 58.7084 11.5466 58.0905 14.7654Z" fill="#E22B57"/>
<path d="M70.3565 12.7644C69.1919 10.7572 67.5134 9.95511 65.769 9.89062C66.6587 10.3433 67.4664 11.0865 68.115 12.2041C71.0051 17.186 67.2253 23.5729 67.2253 23.5729C70.2964 29.8008 61.7563 35.5785 54.6788 38.2551C52.1337 39.218 49.4264 40.834 47.0003 42.5088C44.678 45.0345 42.6113 47.3812 41.498 49.22C41.498 49.22 49.8434 41.4927 56.9203 38.8161C63.9971 36.1395 72.5372 30.3618 69.4668 24.1339C69.4668 24.1339 73.2466 17.7457 70.3565 12.7644Z" fill="#E22B57"/>
<path d="M58.0905 14.7654C57.4205 18.2554 60.7552 23.1233 57.9696 29.0413C55.1841 34.9592 44.6142 44.0728 41.498 49.2188C41.498 49.2188 49.8434 41.4914 56.9203 38.8148C63.9971 36.1382 72.5372 30.3605 69.4668 24.1326C69.4668 24.1326 73.2466 17.7457 70.3565 12.7638C66.8547 6.7275 58.7084 11.5466 58.0905 14.7654Z" stroke="#202326" stroke-width="2" stroke-miterlimit="10" stroke-linecap="round" stroke-linejoin="round"/>
<path d="M62.8185 16.2136C62.8185 16.2136 67.5243 11.3456 64.1915 6.66546C60.8588 1.98532 53.1652 4.72391 53.1652 4.72391C53.1652 4.72391 52.2166 1.50635 45.9944 1.0543C39.7722 0.602257 33.302 3.03906 29.916 5.88408C29.916 5.88408 48.4675 8.77418 52.5266 10.8754C56.5868 12.976 62.8185 16.2136 62.8185 16.2136Z" fill="#E22B57"/>
<path d="M64.1915 6.66546C60.8588 1.98532 53.1652 4.72391 53.1652 4.72391C53.1652 4.72391 52.2166 1.50635 45.9944 1.0543C39.7722 0.602257 33.302 3.03906 29.916 5.88408C29.916 5.88408 30.1383 5.91914 30.5215 5.9805C34.1147 3.8868 39.2938 2.37038 44.3139 2.7354C50.5362 3.18745 51.4841 6.405 51.4841 6.405C51.4841 6.405 59.1777 3.66642 62.5104 8.34655C64.5691 11.2379 63.5598 14.1994 62.4879 16.042C62.6989 16.1516 62.8185 16.2136 62.8185 16.2136C62.8185 16.2136 67.5243 11.3456 64.1915 6.66546Z" fill="#E22B57"/>
<path d="M62.8185 16.2136C62.8185 16.2136 67.5243 11.3456 64.1915 6.66546C60.8588 1.98532 53.1652 4.72391 53.1652 4.72391C53.1652 4.72391 52.2166 1.50635 45.9944 1.0543C39.7722 0.602257 33.302 3.03906 29.916 5.88408C29.916 5.88408 48.4675 8.77418 52.5266 10.8754C56.5868 12.976 62.8185 16.2136 62.8185 16.2136Z" stroke="#202326" stroke-width="2" stroke-miterlimit="10" stroke-linecap="round" stroke-linejoin="round"/>
<path d="M55.8895 18.4181C56.192 18.4669 54.951 12.0074 51.2595 8.56883C47.568 5.13027 39.8894 4.2318 32.4219 7.67538C32.4219 7.67538 38.8945 12.1426 43.3731 13.778C47.8522 15.4134 55.8895 18.4181 55.8895 18.4181Z" fill="#2C3033"/>
<path d="M55.8895 18.4181C56.192 18.4669 54.951 12.0074 51.2595 8.56883C47.568 5.13027 39.8894 4.2318 32.4219 7.67538C32.4219 7.67538 38.8945 12.1426 43.3731 13.778C47.8522 15.4134 55.8895 18.4181 55.8895 18.4181Z" stroke="#202326" stroke-width="2" stroke-miterlimit="10" stroke-linecap="round" stroke-linejoin="round"/>
<path d="M17.4548 24.001L15.6979 13.2132C15.6979 13.2132 12.3815 7.43052 21.7342 6.43313C21.7342 6.43313 27.4074 1.38986 34.498 5.15713C41.5887 8.92441 41.3326 11.7387 41.3326 11.7387C41.3326 11.7387 39.4737 16.4752 36.0213 21.2975C32.569 26.1204 25.9341 30.5419 25.9341 30.5419L17.4548 24.001Z" fill="#2C3033"/>
<path d="M16.8189 16.0144C16.8189 16.0144 13.5018 10.2317 22.8551 9.23433C22.8551 9.23433 28.5283 4.19105 35.6189 7.95833C38.5792 9.5311 40.2559 10.9367 41.2082 12.0418C41.2877 11.8521 41.3328 11.7387 41.3328 11.7387C41.3328 11.7387 41.5888 8.92441 34.4982 5.15713C27.4076 1.38986 21.7344 6.43313 21.7344 6.43313C12.381 7.43115 15.6981 13.2132 15.6981 13.2132L17.455 24.001L18.2151 24.5871L16.8189 16.0144Z" fill="#2C3033"/>
<path d="M17.4548 24.001L15.6979 13.2132C15.6979 13.2132 12.3815 7.43052 21.7342 6.43313C21.7342 6.43313 27.4074 1.38986 34.498 5.15713C41.5886 8.92441 41.3326 11.7387 41.3326 11.7387C41.3326 11.7387 39.4737 16.4752 36.0213 21.2975C32.569 26.1204 25.9341 30.5419 25.9341 30.5419L17.4548 24.001Z" stroke="#202326" stroke-width="2" stroke-miterlimit="10" stroke-linecap="round" stroke-linejoin="round"/>
<path d="M46.2498 44.8037C46.2498 44.8037 46.4539 36.0995 38.1311 33.4405C29.8083 30.7808 22.62 26.934 21.1668 21.3498C19.7136 15.7655 17.9674 14.4181 15.6984 13.2129C15.6984 13.2129 12.9153 15.8187 15.6182 20.472C15.6182 20.472 10.1492 23.9725 15.0197 30.603C19.8901 37.2334 32.3014 37.5477 37.5019 38.7849C44.6545 40.4873 46.2498 44.8037 46.2498 44.8037Z" fill="#E22B57"/>
<path d="M18.3655 17.9884C18.8977 20.0339 20.1975 21.8596 22.0388 23.4787C21.6556 22.7987 21.3595 22.09 21.1673 21.3506C19.9927 16.8388 18.6272 15.0933 16.9492 13.9531C17.4526 14.9837 17.9228 16.2879 18.3655 17.9884Z" fill="#E22B57"/>
<path d="M46.2148 44.7188C46.2382 44.7724 46.2502 44.804 46.2502 44.804C46.2502 44.804 46.2502 44.7889 46.2508 44.7655C46.2382 44.7503 46.2262 44.7345 46.2148 44.7188Z" fill="#E22B57"/>
<path d="M34.701 35.4238C30.091 34.3269 19.8173 33.9512 14.1504 29.2617C14.3952 29.6944 14.6801 30.1408 15.0201 30.6041C19.8905 37.2345 32.3018 37.5488 37.5022 38.786C40.3147 39.4553 42.265 40.5285 43.5999 41.5847C41.1305 38.8925 37.9706 36.2015 34.701 35.4238Z" fill="#E22B57"/>
<path d="M46.2498 44.8037C46.2498 44.8037 46.4539 36.0995 38.1311 33.4405C29.8083 30.7808 22.62 26.934 21.1668 21.3498C19.7136 15.7655 17.9674 14.4181 15.6984 13.2129C15.6984 13.2129 12.9153 15.8187 15.6182 20.472C15.6182 20.472 10.1492 23.9725 15.0197 30.603C19.8901 37.2334 32.3014 37.5477 37.5019 38.7849C44.6545 40.4873 46.2498 44.8037 46.2498 44.8037Z" stroke="#202326" stroke-width="2" stroke-miterlimit="10" stroke-linecap="round" stroke-linejoin="round"/>
<path d="M50.3208 17.4628C50.3208 17.4628 50.23 14.8651 46.0959 11.9656C41.9617 9.06673 35.9899 11.1229 35.129 12.3594C35.129 12.3594 29.9542 10.7416 28.2155 13.0506C26.4768 15.3597 36.0669 19.0556 41.5359 19.1358C47.005 19.2159 50.3208 17.4628 50.3208 17.4628Z" fill="white"/>
<path d="M50.3208 17.4628C50.3208 17.4628 50.23 14.8651 46.0959 11.9656C41.9617 9.06673 35.9899 11.1229 35.129 12.3594C35.129 12.3594 29.9542 10.7416 28.2155 13.0506C26.4768 15.3597 36.0669 19.0556 41.5359 19.1358C47.005 19.2159 50.3208 17.4628 50.3208 17.4628Z" stroke="#202326" stroke-width="2" stroke-miterlimit="10" stroke-linecap="round" stroke-linejoin="round"/>
<path d="M39.9574 17.681C39.9574 17.681 32.1955 16.7832 29.7393 12.0467C29.7393 12.0467 27.8322 9.22482 24.5796 9.81837C21.327 10.4119 22.901 15.4157 25.9783 15.7501C25.9783 15.7501 25.5714 22.425 40.3606 21.7106L39.9574 17.681Z" fill="white"/>
<path d="M28.7802 15.1896C26.1649 14.9053 24.6472 11.2564 26.2438 9.8007C25.7373 9.71617 25.1819 9.70803 24.5796 9.8176C21.327 10.4112 22.901 15.415 25.9783 15.7493C25.9783 15.7493 25.5714 22.4242 40.3606 21.7098L40.3093 21.1933C28.4345 20.9685 28.7802 15.1896 28.7802 15.1896Z" fill="white"/>
<path d="M39.9574 17.681C39.9574 17.681 32.1955 16.7832 29.7393 12.0467C29.7393 12.0467 27.8322 9.22482 24.5796 9.81837C21.327 10.4119 22.901 15.4157 25.9783 15.7501C25.9783 15.7501 25.5714 22.425 40.3606 21.7106L39.9574 17.681Z" stroke="#202326" stroke-width="2" stroke-miterlimit="10" stroke-linecap="round" stroke-linejoin="round"/>
<path d="M55.9971 16.9312C55.9971 16.9312 46.3557 12.7225 36.373 16.744C36.373 16.744 37.1313 21.6457 42.8338 22.2725C48.5364 22.8992 56.4166 21.1323 56.4166 21.1323C56.4166 21.1323 58.0714 19.7705 55.9971 16.9312Z" fill="white"/>
<path d="M39.7352 18.425C46.3776 15.7491 52.8647 16.717 56.4648 17.6643C56.3339 17.4308 56.1855 17.1891 55.9971 16.9312C55.9971 16.9312 46.3557 12.7225 36.373 16.744C36.373 16.744 37.0442 21.0685 41.8534 22.1128C40.0652 20.4912 39.7352 18.425 39.7352 18.425Z" fill="white"/>
<path d="M55.9971 16.9309C55.9971 16.9309 46.0013 12.7579 36.373 16.7437C36.373 16.7437 37.1313 21.6455 42.8338 22.2722C48.5364 22.899 56.4166 21.1321 56.4166 21.1321C56.4166 21.1321 58.0714 19.7703 55.9971 16.9309Z" stroke="#202326" stroke-width="2" stroke-miterlimit="10" stroke-linecap="round" stroke-linejoin="round"/>
<path d="M28.1172 29.1301C28.1591 28.7156 32.6921 20.9857 40.7752 21.7151C48.8582 22.4451 55.2576 19.5588 55.7334 15.6081C56.0002 13.3948 54.614 11.9241 54.614 11.9241C54.614 11.9241 60.9044 10.5779 63.4752 16.2667C66.0466 21.9555 60.0999 27.5736 54.0223 25.2081C54.0223 25.2081 49.7178 30.5595 44.1361 28.1439C38.555 25.7291 28.1172 29.1301 28.1172 29.1301Z" fill="#2C3033"/>
<path d="M63.4754 16.2667C62.0166 13.0385 59.3606 12.0768 57.3358 11.8477C58.8065 12.4481 60.2779 13.5901 61.2346 15.7063C63.806 21.3958 58.5717 25.7052 52.4941 23.3398C52.4941 23.3398 48.9485 27.2549 44.2715 28.1965C49.7875 30.468 54.0231 25.2075 54.0231 25.2075C60.1001 27.5735 66.0468 21.9555 63.4754 16.2667Z" fill="#2C3033"/>
<path d="M28.1172 29.1301C28.1591 28.7156 32.6921 20.9857 40.7752 21.7151C48.8582 22.4451 54.9827 19.5162 55.7334 15.6081C56.1129 13.6308 54.614 11.9241 54.614 11.9241C54.614 11.9241 60.9044 10.5779 63.4752 16.2667C66.0466 21.9555 60.0999 27.5736 54.0223 25.2081C54.0223 25.2081 49.7178 30.5595 44.1361 28.1439C38.555 25.7291 28.1172 29.1301 28.1172 29.1301Z" stroke="#202326" stroke-width="2" stroke-miterlimit="10" stroke-linecap="round" stroke-linejoin="round"/>
<path d="M0 124.016H16.7661V148.125H0L3.11927 135.851L0 124.016Z" fill="#5B5340"/>
<path d="M85 124.016H68.2339V148.125H85L81.8807 135.851L85 124.016Z" fill="#5B5340"/>
<rect x="8.70898" y="117.441" width="67.5841" height="24.1097" fill="#BFB39A"/>
<path d="M25.0365 135.441C25.0365 134.876 25.1218 134.375 25.2925 133.937C25.4738 133.5 25.7138 133.1 26.0125 132.737C26.3112 132.364 26.6472 132.007 27.0205 131.665C27.4045 131.313 27.7938 130.945 28.1885 130.561C28.8818 129.9 29.3832 129.287 29.6925 128.721C30.0018 128.156 30.1565 127.612 30.1565 127.089C30.1565 126.684 30.0978 126.295 29.9805 125.921C29.8738 125.537 29.6765 125.223 29.3885 124.977C29.1005 124.732 28.7005 124.609 28.1885 124.609C27.7512 124.609 27.3618 124.721 27.0205 124.945C26.6792 125.159 26.4498 125.425 26.3325 125.745C26.4392 125.852 26.5138 125.969 26.5565 126.097C26.5992 126.215 26.6205 126.332 26.6205 126.449C26.6205 126.545 26.5938 126.652 26.5405 126.769C26.4978 126.887 26.4178 126.988 26.3005 127.073C26.1832 127.159 26.0285 127.201 25.8365 127.201C25.6018 127.191 25.4205 127.1 25.2925 126.929C25.1645 126.759 25.1005 126.556 25.1005 126.321C25.1005 126.097 25.1698 125.852 25.3085 125.585C25.4472 125.308 25.6552 125.052 25.9325 124.817C26.2205 124.572 26.5725 124.375 26.9885 124.225C27.4045 124.065 27.8898 123.985 28.4445 123.985C28.8712 123.985 29.2818 124.039 29.6765 124.145C30.0818 124.241 30.4445 124.401 30.7645 124.625C31.0845 124.849 31.3352 125.148 31.5165 125.521C31.7085 125.884 31.8045 126.337 31.8045 126.881C31.8045 127.148 31.7458 127.436 31.6285 127.745C31.5218 128.055 31.3405 128.391 31.0845 128.753C30.8392 129.105 30.5192 129.484 30.1245 129.889C29.7298 130.284 29.2445 130.716 28.6685 131.185C27.9432 131.783 27.3458 132.348 26.8765 132.881C26.4178 133.404 26.1512 133.852 26.0765 134.225L28.9085 134.305C29.4312 134.316 29.8898 134.316 30.2845 134.305C30.6898 134.295 31.0045 134.215 31.2285 134.065C31.4632 133.905 31.5805 133.617 31.5805 133.201H32.0605L31.9645 135.441H25.0365ZM38.9903 135.697C38.1796 135.697 37.5076 135.527 36.9743 135.185C36.4409 134.833 36.0249 134.375 35.7263 133.809C35.4276 133.233 35.2143 132.604 35.0863 131.921C34.9689 131.239 34.9103 130.561 34.9103 129.889C34.9103 129.217 34.9849 128.535 35.1343 127.841C35.2943 127.148 35.5396 126.513 35.8703 125.937C36.2009 125.351 36.6276 124.881 37.1503 124.529C37.6729 124.167 38.3076 123.985 39.0543 123.985C39.8329 123.985 40.4783 124.161 40.9903 124.513C41.5129 124.865 41.9236 125.329 42.2223 125.905C42.5316 126.471 42.7503 127.095 42.8783 127.777C43.0063 128.46 43.0703 129.137 43.0703 129.809C43.0703 130.471 42.9956 131.148 42.8463 131.841C42.6969 132.535 42.4623 133.175 42.1423 133.761C41.8223 134.337 41.4009 134.807 40.8783 135.169C40.3663 135.521 39.7369 135.697 38.9903 135.697ZM39.0863 135.073C39.5449 135.073 39.9236 134.929 40.2223 134.641C40.5209 134.353 40.7556 133.969 40.9263 133.489C41.1076 133.009 41.2356 132.481 41.3103 131.905C41.3849 131.319 41.4223 130.732 41.4223 130.145C41.4223 129.495 41.3849 128.844 41.3103 128.193C41.2356 127.543 41.1076 126.945 40.9263 126.401C40.7449 125.857 40.4996 125.42 40.1903 125.089C39.8809 124.759 39.4916 124.593 39.0223 124.593C38.5636 124.593 38.1743 124.737 37.8543 125.025C37.5449 125.313 37.2943 125.697 37.1023 126.177C36.9103 126.657 36.7716 127.191 36.6863 127.777C36.6009 128.364 36.5583 128.956 36.5583 129.553C36.5583 130.001 36.5796 130.476 36.6223 130.977C36.6649 131.479 36.7396 131.975 36.8463 132.465C36.9636 132.945 37.1183 133.383 37.3103 133.777C37.5023 134.172 37.7423 134.487 38.0303 134.721C38.3183 134.956 38.6703 135.073 39.0863 135.073ZM46.2558 135.441V134.913C46.6291 134.892 46.9118 134.807 47.1038 134.657C47.3064 134.508 47.4451 134.3 47.5198 134.033C47.6051 133.767 47.6478 133.452 47.6478 133.089L47.5998 125.537L45.6798 126.769L45.3598 126.305L48.4798 123.985H49.0238L49.0398 133.697C49.0398 133.9 49.0344 134.097 49.0238 134.289C49.0238 134.481 49.0131 134.652 48.9918 134.801C49.2158 134.791 49.4398 134.78 49.6638 134.769C49.8878 134.759 50.1118 134.748 50.3358 134.737V135.441H46.2558ZM56.4359 135.697C56.0626 135.697 55.6732 135.649 55.2679 135.553C54.8626 135.468 54.4839 135.324 54.1319 135.121C53.7906 134.919 53.5079 134.647 53.2839 134.305C53.0706 133.964 52.9639 133.543 52.9639 133.041C52.9639 132.561 53.0812 132.124 53.3159 131.729C53.5506 131.324 53.8492 130.961 54.2119 130.641C54.5852 130.311 54.9799 130.017 55.3959 129.761C54.5852 129.271 54.0146 128.785 53.6839 128.305C53.3532 127.815 53.1879 127.34 53.1879 126.881C53.1879 126.38 53.2839 125.948 53.4759 125.585C53.6786 125.212 53.9452 124.908 54.2759 124.673C54.6066 124.439 54.9692 124.268 55.3639 124.161C55.7692 124.044 56.1746 123.985 56.5799 123.985C57.1239 123.985 57.6306 124.087 58.0999 124.289C58.5799 124.481 58.9639 124.769 59.2519 125.153C59.5506 125.537 59.6999 126.007 59.6999 126.561C59.6999 126.977 59.5986 127.361 59.3959 127.713C59.2039 128.065 58.9426 128.38 58.6119 128.657C58.2919 128.924 57.9346 129.159 57.5399 129.361C58.0199 129.639 58.4626 129.959 58.8679 130.321C59.2732 130.673 59.5986 131.057 59.8439 131.473C60.0892 131.889 60.2119 132.327 60.2119 132.785C60.2119 133.457 60.0359 134.012 59.6839 134.449C59.3319 134.876 58.8679 135.191 58.2919 135.393C57.7159 135.596 57.0972 135.697 56.4359 135.697ZM56.4679 135.057C57.1612 135.068 57.6946 134.897 58.0679 134.545C58.4519 134.193 58.6439 133.708 58.6439 133.089C58.6439 132.535 58.4466 131.996 58.0519 131.473C57.6679 130.94 56.9852 130.465 56.0039 130.049C55.4172 130.476 54.9906 130.935 54.7239 131.425C54.4679 131.916 54.3292 132.359 54.3079 132.753C54.2652 133.436 54.4412 133.991 54.8359 134.417C55.2412 134.833 55.7852 135.047 56.4679 135.057ZM56.9799 129.041C57.4492 128.721 57.8066 128.359 58.0519 127.953C58.3079 127.548 58.4412 127.148 58.4519 126.753C58.4732 126.06 58.3132 125.532 57.9719 125.169C57.6306 124.807 57.1772 124.62 56.6119 124.609C56.1959 124.599 55.8439 124.689 55.5559 124.881C55.2679 125.063 55.0492 125.303 54.8999 125.601C54.7506 125.889 54.6759 126.199 54.6759 126.529C54.6759 127.116 54.8946 127.628 55.3319 128.065C55.7799 128.492 56.3292 128.817 56.9799 129.041Z" fill="black"/>
</svg>
