<svg width="85" height="149" viewBox="0 0 85 149" fill="none" xmlns="http://www.w3.org/2000/svg">
<path d="M0 124.062H16.7661V148.172H0L3.11927 135.898L0 124.062Z" fill="#5B5340"/>
<path d="M85 124.062H68.2339V148.172H85L81.8807 135.898L85 124.062Z" fill="#5B5340"/>
<rect x="8.70898" y="117.488" width="67.5841" height="24.1097" fill="#BFB39A"/>
<path d="M24.9037 135.488C24.9037 134.923 24.989 134.422 25.1597 133.984C25.341 133.547 25.581 133.147 25.8797 132.784C26.1784 132.411 26.5144 132.054 26.8877 131.712C27.2717 131.36 27.661 130.992 28.0557 130.608C28.749 129.947 29.2504 129.334 29.5597 128.768C29.869 128.203 30.0237 127.659 30.0237 127.136C30.0237 126.731 29.965 126.342 29.8477 125.968C29.741 125.584 29.5437 125.27 29.2557 125.024C28.9677 124.779 28.5677 124.656 28.0557 124.656C27.6184 124.656 27.229 124.768 26.8877 124.992C26.5464 125.206 26.317 125.472 26.1997 125.792C26.3064 125.899 26.381 126.016 26.4237 126.144C26.4664 126.262 26.4877 126.379 26.4877 126.496C26.4877 126.592 26.461 126.699 26.4077 126.816C26.365 126.934 26.285 127.035 26.1677 127.12C26.0504 127.206 25.8957 127.248 25.7037 127.248C25.469 127.238 25.2877 127.147 25.1597 126.976C25.0317 126.806 24.9677 126.603 24.9677 126.368C24.9677 126.144 25.037 125.899 25.1757 125.632C25.3144 125.355 25.5224 125.099 25.7997 124.864C26.0877 124.619 26.4397 124.422 26.8557 124.272C27.2717 124.112 27.757 124.032 28.3117 124.032C28.7384 124.032 29.149 124.086 29.5437 124.192C29.949 124.288 30.3117 124.448 30.6317 124.672C30.9517 124.896 31.2024 125.195 31.3837 125.568C31.5757 125.931 31.6717 126.384 31.6717 126.928C31.6717 127.195 31.613 127.483 31.4957 127.792C31.389 128.102 31.2077 128.438 30.9517 128.8C30.7064 129.152 30.3864 129.531 29.9917 129.936C29.597 130.331 29.1117 130.763 28.5357 131.232C27.8104 131.83 27.213 132.395 26.7437 132.928C26.285 133.451 26.0184 133.899 25.9437 134.272L28.7757 134.352C29.2984 134.363 29.757 134.363 30.1517 134.352C30.557 134.342 30.8717 134.262 31.0957 134.112C31.3304 133.952 31.4477 133.664 31.4477 133.248H31.9277L31.8317 135.488H24.9037ZM38.8575 135.744C38.0468 135.744 37.3748 135.574 36.8415 135.232C36.3081 134.88 35.8921 134.422 35.5935 133.856C35.2948 133.28 35.0815 132.651 34.9535 131.968C34.8361 131.286 34.7775 130.608 34.7775 129.936C34.7775 129.264 34.8521 128.582 35.0015 127.888C35.1615 127.195 35.4068 126.56 35.7375 125.984C36.0681 125.398 36.4948 124.928 37.0175 124.576C37.5401 124.214 38.1748 124.032 38.9215 124.032C39.7001 124.032 40.3455 124.208 40.8575 124.56C41.3801 124.912 41.7908 125.376 42.0895 125.952C42.3988 126.518 42.6175 127.142 42.7455 127.824C42.8735 128.507 42.9375 129.184 42.9375 129.856C42.9375 130.518 42.8628 131.195 42.7135 131.888C42.5641 132.582 42.3295 133.222 42.0095 133.808C41.6895 134.384 41.2681 134.854 40.7455 135.216C40.2335 135.568 39.6041 135.744 38.8575 135.744ZM38.9535 135.12C39.4121 135.12 39.7908 134.976 40.0895 134.688C40.3881 134.4 40.6228 134.016 40.7935 133.536C40.9748 133.056 41.1028 132.528 41.1775 131.952C41.2521 131.366 41.2895 130.779 41.2895 130.192C41.2895 129.542 41.2521 128.891 41.1775 128.24C41.1028 127.59 40.9748 126.992 40.7935 126.448C40.6121 125.904 40.3668 125.467 40.0575 125.136C39.7481 124.806 39.3588 124.64 38.8895 124.64C38.4308 124.64 38.0415 124.784 37.7215 125.072C37.4121 125.36 37.1615 125.744 36.9695 126.224C36.7775 126.704 36.6388 127.238 36.5535 127.824C36.4681 128.411 36.4255 129.003 36.4255 129.6C36.4255 130.048 36.4468 130.523 36.4895 131.024C36.5321 131.526 36.6068 132.022 36.7135 132.512C36.8308 132.992 36.9855 133.43 37.1775 133.824C37.3695 134.219 37.6095 134.534 37.8975 134.768C38.1855 135.003 38.5375 135.12 38.9535 135.12ZM46.123 135.488V134.96C46.4963 134.939 46.779 134.854 46.971 134.704C47.1736 134.555 47.3123 134.347 47.387 134.08C47.4723 133.814 47.515 133.499 47.515 133.136L47.467 125.584L45.547 126.816L45.227 126.352L48.347 124.032H48.891L48.907 133.744C48.907 133.947 48.9016 134.144 48.891 134.336C48.891 134.528 48.8803 134.699 48.859 134.848C49.083 134.838 49.307 134.827 49.531 134.816C49.755 134.806 49.979 134.795 50.203 134.784V135.488H46.123ZM55.9991 135.744C55.3057 135.744 54.7404 135.643 54.3031 135.44C53.8764 135.227 53.5671 134.966 53.3751 134.656C53.1831 134.347 53.0871 134.054 53.0871 133.776C53.0871 133.542 53.1457 133.344 53.2631 133.184C53.3804 133.024 53.5564 132.939 53.7911 132.928C54.0471 132.918 54.2284 132.998 54.3351 133.168C54.4524 133.328 54.5111 133.478 54.5111 133.616C54.5111 133.723 54.4897 133.835 54.4471 133.952C54.4151 134.059 54.3617 134.166 54.2871 134.272C54.3617 134.507 54.5217 134.71 54.7671 134.88C55.0231 135.051 55.4071 135.136 55.9191 135.136C56.4097 135.136 56.8204 135.019 57.1511 134.784C57.4817 134.55 57.7484 134.24 57.9511 133.856C58.1537 133.462 58.3084 133.035 58.4151 132.576C58.5217 132.107 58.5911 131.643 58.6231 131.184C58.6657 130.726 58.6871 130.315 58.6871 129.952C58.4204 130.315 58.0631 130.63 57.6151 130.896C57.1671 131.163 56.6284 131.296 55.9991 131.296C55.3591 131.296 54.8204 131.19 54.3831 130.976C53.9564 130.752 53.6151 130.464 53.3591 130.112C53.1137 129.76 52.9324 129.376 52.8151 128.96C52.7084 128.544 52.6551 128.134 52.6551 127.728C52.6551 127.035 52.8097 126.411 53.1191 125.856C53.4284 125.291 53.8657 124.848 54.4311 124.528C54.9964 124.198 55.6631 124.032 56.4311 124.032C57.1884 124.032 57.8071 124.176 58.2871 124.464C58.7777 124.752 59.1617 125.158 59.4391 125.68C59.7164 126.192 59.9084 126.795 60.0151 127.488C60.1324 128.182 60.1911 128.934 60.1911 129.744C60.1911 130.214 60.1591 130.72 60.0951 131.264C60.0417 131.798 59.9297 132.331 59.7591 132.864C59.5991 133.387 59.3644 133.867 59.0551 134.304C58.7457 134.731 58.3404 135.078 57.8391 135.344C57.3377 135.611 56.7244 135.744 55.9991 135.744ZM56.3351 130.576C56.6764 130.576 57.0017 130.496 57.3111 130.336C57.6311 130.166 57.9137 129.947 58.1591 129.68C58.4044 129.414 58.5751 129.126 58.6711 128.816C58.6391 128.315 58.5804 127.819 58.4951 127.328C58.4097 126.838 58.2764 126.39 58.0951 125.984C57.9244 125.579 57.6951 125.254 57.4071 125.008C57.1191 124.763 56.7564 124.64 56.3191 124.64C55.8604 124.64 55.4764 124.774 55.1671 125.04C54.8577 125.296 54.6231 125.632 54.4631 126.048C54.3137 126.464 54.2391 126.907 54.2391 127.376C54.2391 127.675 54.2657 128.011 54.3191 128.384C54.3724 128.747 54.4684 129.099 54.6071 129.44C54.7564 129.771 54.9697 130.043 55.2471 130.256C55.5244 130.47 55.8871 130.576 56.3351 130.576Z" fill="black"/>
<path d="M19.6934 75.2969C20.0073 75.3516 20.4188 75.4273 20.9092 75.5283C22.1015 75.7739 23.758 76.1651 25.6104 76.748C29.3288 77.9182 33.78 79.8424 36.8809 82.8584C39.9656 85.8589 41.1567 89.402 41.5752 92.209C41.7844 93.6121 41.7995 94.8267 41.7627 95.6885C41.7443 96.1174 41.7129 96.4585 41.6865 96.6904C41.4554 96.7232 41.1155 96.7637 40.6875 96.7939C39.827 96.8547 38.6125 96.8733 37.2041 96.7031C34.3865 96.3626 30.812 95.2699 27.7275 92.2695C24.6267 89.2534 22.5803 84.8567 21.3076 81.1719C20.6737 79.3364 20.2365 77.6919 19.958 76.5068C19.8434 76.0191 19.7567 75.6093 19.6934 75.2969Z" fill="#364F3A" stroke="#242F26"/>
<path d="M19.6934 75.2969C20.0073 75.3516 20.4188 75.4273 20.9092 75.5283C22.1015 75.7739 23.758 76.1651 25.6104 76.748C29.3288 77.9182 33.78 79.8424 36.8809 82.8584C39.9656 85.8589 41.1567 89.402 41.5752 92.209C41.7844 93.6121 41.7995 94.8267 41.7627 95.6885C41.7443 96.1174 41.7129 96.4585 41.6865 96.6904C41.4554 96.7232 41.1155 96.7637 40.6875 96.7939C39.827 96.8547 38.6125 96.8733 37.2041 96.7031C34.3865 96.3626 30.812 95.2699 27.7275 92.2695C24.6267 89.2534 22.5803 84.8567 21.3076 81.1719C20.6737 79.3364 20.2365 77.6919 19.958 76.5068C19.8434 76.0191 19.7567 75.6093 19.6934 75.2969Z" fill="#364F3A" stroke="#242F26"/>
<path d="M19.6914 75.2969C20.0053 75.3515 20.4169 75.4273 20.9072 75.5283C22.0996 75.7739 23.756 76.1653 25.6084 76.748C28.5206 77.6643 31.882 79.0436 34.6924 81.0469C32.2665 79.8005 29.6959 78.8001 27.4541 78.042C25.6312 77.4256 24.0145 76.9648 22.8535 76.6582C22.2731 76.5049 21.806 76.3902 21.4834 76.3135C21.3221 76.2751 21.1966 76.2459 21.1113 76.2266C21.0687 76.2169 21.0359 76.21 21.0137 76.2051C21.0026 76.2026 20.9941 76.2005 20.9883 76.1992C20.9854 76.1986 20.983 76.1986 20.9814 76.1982L20.9795 76.1973L20.1729 76.0234L20.3916 76.8184V76.8213C20.392 76.8228 20.3928 76.8253 20.3936 76.8281C20.3951 76.8338 20.3974 76.8419 20.4004 76.8525C20.4065 76.8743 20.4158 76.9065 20.4277 76.9482C20.4515 77.0317 20.4865 77.1547 20.5332 77.3125C20.6268 77.6285 20.767 78.0859 20.9502 78.6543C21.3166 79.7911 21.859 81.3737 22.5654 83.1582C23.4192 85.3148 24.5197 87.7802 25.8418 90.1162C23.7682 87.3658 22.3003 84.0515 21.3057 81.1719C20.6717 79.3364 20.2346 77.6919 19.9561 76.5068C19.8414 76.0191 19.7548 75.6093 19.6914 75.2969Z" fill="#364F3A" stroke="#242F26"/>
<path d="M37.2298 82.5001C43.5992 88.6954 42.1328 97.1241 42.1328 97.1241C42.1328 97.1241 33.7474 98.8233 27.3786 92.628C21.0093 86.4327 19.0684 74.6895 19.0684 74.6895C19.0684 74.6895 30.8604 76.3048 37.2298 82.5001Z" stroke="#242F26" stroke-width="2" stroke-miterlimit="10" stroke-linecap="round" stroke-linejoin="round"/>
<path d="M19.4844 75.0957L42.1312 97.1233" stroke="#242F26" stroke-width="2" stroke-miterlimit="10" stroke-linecap="round" stroke-linejoin="round"/>
<path d="M28.7559 93.8267L36.4513 91.5996" stroke="#242F26" stroke-width="2" stroke-miterlimit="10" stroke-linecap="round" stroke-linejoin="round"/>
<path d="M23.1895 86.8365L29.6358 84.9707" stroke="#242F26" stroke-width="2" stroke-miterlimit="10" stroke-linecap="round" stroke-linejoin="round"/>
<path d="M34.9947 80.6484L33.1621 88.1648" stroke="#242F26" stroke-width="2" stroke-miterlimit="10" stroke-linecap="round" stroke-linejoin="round"/>
<path d="M28.1318 77.0918L26.9141 82.0869" stroke="#242F26" stroke-width="2" stroke-miterlimit="10" stroke-linecap="round" stroke-linejoin="round"/>
<path d="M40.0752 108.377L39.5293 111.385L36.0928 106.743L40.0752 108.377Z" fill="#5B5340" stroke="#5B5340"/>
<path d="M40.6406 108.069L34.625 105.602L39.8148 112.611L40.6406 108.069Z" fill="#5B5340" stroke="#5B5340" stroke-width="2" stroke-miterlimit="10" stroke-linecap="round" stroke-linejoin="round"/>
<path d="M41.8405 58.1C48.5611 60.0822 60.1823 61.9023 60.4621 74.3637C60.4621 74.3637 65.2224 66.523 59.6219 60.3621C59.6219 60.3621 60.4621 52.5214 49.2611 51.961C38.0601 51.4007 41.8405 58.1 41.8405 58.1Z" fill="#364F3A"/>
<path d="M59.6212 60.363C59.6212 60.363 60.0238 56.5607 56.4863 54.0625C57.9815 56.237 57.7429 58.4847 57.7429 58.4847C61.3055 62.4035 60.675 66.9985 59.7452 69.8266C60.1666 71.1608 60.4233 72.6597 60.4615 74.364C60.4615 74.364 65.2217 66.5239 59.6212 60.363Z" fill="#364F3A"/>
<path d="M41.8405 58.1C48.5611 60.0822 60.1823 61.9023 60.4621 74.3637C60.4621 74.3637 65.2224 66.523 59.6219 60.3621C59.6219 60.3621 60.4621 52.5214 49.2611 51.961C38.0601 51.4007 41.8405 58.1 41.8405 58.1Z" stroke="#242F26" stroke-width="2" stroke-miterlimit="10" stroke-linecap="round" stroke-linejoin="round"/>
<path d="M41.8398 58.1003C41.8398 58.1003 52.2006 53.9217 59.6219 60.3625" stroke="#242F26" stroke-width="2" stroke-miterlimit="10" stroke-linecap="round" stroke-linejoin="round"/>
<path d="M38.5693 56.848C31.8486 58.8302 20.2275 60.6503 19.9476 73.1117C19.9476 73.1117 15.1874 65.271 20.7879 59.1101C20.7879 59.1101 19.9476 51.2694 31.1487 50.709C42.3497 50.1493 38.5693 56.848 38.5693 56.848Z" fill="#364F3A"/>
<path d="M20.7879 59.111C20.7879 59.111 20.3853 55.3087 23.9228 52.8105C22.4276 54.985 22.6662 57.2327 22.6662 57.2327C19.1036 61.1515 19.7341 65.7465 20.6639 68.5746C20.2425 69.9088 19.9858 71.4077 19.9476 73.112C19.9476 73.112 15.1874 65.2719 20.7879 59.111Z" fill="#364F3A"/>
<path d="M38.5693 56.848C31.8486 58.8302 20.2275 60.6503 19.9476 73.1117C19.9476 73.1117 15.1874 65.271 20.7879 59.1101C20.7879 59.1101 19.9476 51.2694 31.1487 50.709C42.3497 50.1493 38.5693 56.848 38.5693 56.848Z" stroke="#242F26" stroke-width="2" stroke-miterlimit="10" stroke-linecap="round" stroke-linejoin="round"/>
<path d="M38.5711 56.8484C38.5711 56.8484 28.2103 52.6698 20.7891 59.1105" stroke="#242F26" stroke-width="2" stroke-miterlimit="10" stroke-linecap="round" stroke-linejoin="round"/>
<path d="M43.0947 50.2441V115.5H39.9297V50.2441H43.0947Z" fill="#364F3A" stroke="#364F3A"/>
<path d="M43.5952 49.7441H39.4297V116H43.5952V49.7441Z" fill="#364F3A" stroke="#364F3A" stroke-width="2" stroke-miterlimit="10" stroke-linecap="round" stroke-linejoin="round"/>
<path d="M59.9124 103.446C51.8488 109.838 42.2387 107.08 42.2387 107.08C42.2387 107.08 41.3879 97.3805 49.4508 90.9892C57.5145 84.598 71.439 83.9355 71.439 83.9355C71.439 83.9355 67.976 97.055 59.9124 103.446Z" fill="#364F3A"/>
<path d="M59.9124 103.446C51.8488 109.838 42.2387 107.08 42.2387 107.08C42.2387 107.08 41.3879 97.3805 49.4508 90.9892C57.5145 84.598 71.439 83.9355 71.439 83.9355C71.439 83.9355 67.976 97.055 59.9124 103.446Z" fill="#364F3A"/>
<path d="M49.4506 90.9892C48.7462 91.5471 48.1138 92.1319 47.5391 92.7317C55.7016 87.6934 68.8723 85.7168 68.8723 85.7168C68.8723 85.7168 64.5497 98.0611 57.9124 104.829C58.5848 104.422 59.2535 103.968 59.9121 103.446C67.9758 97.055 71.4387 83.9355 71.4387 83.9355C71.4387 83.9355 57.5142 84.598 49.4506 90.9892Z" fill="#364F3A"/>
<path d="M59.9124 103.446C51.8488 109.838 42.2387 107.08 42.2387 107.08C42.2387 107.08 41.3879 97.3805 49.4508 90.9892C57.5145 84.598 71.439 83.9355 71.439 83.9355C71.439 83.9355 67.976 97.055 59.9124 103.446Z" stroke="#242F26" stroke-width="2" stroke-miterlimit="10" stroke-linecap="round" stroke-linejoin="round"/>
<path d="M70.9095 84.3555L42.2383 107.081" stroke="#242F26" stroke-width="2" stroke-miterlimit="10" stroke-linecap="round" stroke-linejoin="round"/>
<path d="M47.8711 92.3926L49.4288 101.382" stroke="#242F26" stroke-width="2" stroke-miterlimit="10" stroke-linecap="round" stroke-linejoin="round"/>
<path d="M54.0971 106.597L46.6777 103.811" stroke="#242F26" stroke-width="2" stroke-miterlimit="10" stroke-linecap="round" stroke-linejoin="round"/>
<path d="M56.752 87.0117L58.0568 94.5419" stroke="#242F26" stroke-width="2" stroke-miterlimit="10" stroke-linecap="round" stroke-linejoin="round"/>
<path d="M62.3666 101.162L53.8672 98.1094" stroke="#242F26" stroke-width="2" stroke-miterlimit="10" stroke-linecap="round" stroke-linejoin="round"/>
<path d="M65.4551 84.6777L65.9666 88.2741" stroke="#242F26" stroke-width="2" stroke-miterlimit="10" stroke-linecap="round" stroke-linejoin="round"/>
<path d="M67.4254 93.8698L61.7773 91.8418" stroke="#242F26" stroke-width="2" stroke-miterlimit="10" stroke-linecap="round" stroke-linejoin="round"/>
<path d="M32.7111 55.581C30.2349 56.6729 25.4314 59.4271 25.4064 65.181C25.3769 71.9636 31.3544 75.4072 31.3544 75.4072C31.3544 75.4072 29.7891 65.9111 32.7111 64.5549C35.6332 63.1982 42.7288 61.529 43.2504 54.7458C43.2504 54.7458 38.1476 53.1843 32.7111 55.581Z" fill="#364F3A"/>
<path d="M26.0318 67.0593C26.0569 61.3048 30.8604 58.5505 33.3366 57.4592C37.3938 55.6705 41.2625 56.0868 42.9661 56.413C43.1057 55.894 43.2047 55.3405 43.2504 54.7463C43.2504 54.7463 38.1476 53.1842 32.7111 55.5809C30.2349 56.6729 25.4314 59.4271 25.4064 65.181C25.3988 66.8953 25.7764 68.3942 26.343 69.6802C26.1477 68.8688 26.0281 67.9997 26.0318 67.0593Z" fill="#364F3A"/>
<path d="M32.7111 55.5812C30.2349 56.6731 25.4314 59.4273 25.4064 65.1811C25.3769 71.9637 31.3544 75.4072 31.3544 75.4072C31.3544 75.4072 29.7891 65.9112 32.7111 64.555C35.6332 63.1983 42.7288 61.5291 43.2504 54.746C43.2504 54.746 38.1476 53.1845 32.7111 55.5812Z" stroke="#242F26" stroke-width="2" stroke-miterlimit="10" stroke-linecap="round" stroke-linejoin="round"/>
<path d="M28.8496 67.8937C28.8496 67.8937 30.793 65.3442 32.7108 64.5547" stroke="#242F26" stroke-width="2" stroke-miterlimit="10" stroke-linecap="round" stroke-linejoin="round"/>
<path d="M42.2589 54.6718C41.4706 59.7264 41.6165 61.4569 44.7884 67.507C47.9602 73.5564 47.0536 76.3826 47.0536 76.3826C47.0536 76.3826 57.7876 64.5918 48.1286 55.4069C46.8132 54.1559 42.2589 54.6718 42.2589 54.6718Z" fill="#364F3A"/>
<path d="M50.2122 57.875C52.8413 64.1649 48.8787 70.6006 46.9434 73.1989C47.3785 75.3452 47.0542 76.3827 47.0542 76.3827C47.0542 76.3827 55.9793 66.5703 50.2122 57.875Z" fill="#364F3A"/>
<path d="M42.2589 54.6718C41.4706 59.7264 41.6165 61.4569 44.7884 67.507C47.9602 73.5564 47.0536 76.3826 47.0536 76.3826C47.0536 76.3826 57.7876 64.5918 48.1286 55.4069C46.8132 54.1559 42.2589 54.6718 42.2589 54.6718Z" stroke="#242F26" stroke-width="2" stroke-miterlimit="10" stroke-linecap="round" stroke-linejoin="round"/>
<path d="M41.5117 81.1452L47.5273 78.6777L42.3382 85.687L41.5117 81.1452Z" fill="#5B5340"/>
<path d="M41.5117 81.1452L47.5273 78.6777L42.3382 85.687L41.5117 81.1452Z" fill="#5B5340" stroke="#5B5340" stroke-width="2" stroke-miterlimit="10" stroke-linecap="round" stroke-linejoin="round"/>
<path d="M18.3863 31.2949C18.2091 32.2078 18.1458 60.2341 44.5237 58.1354C44.5237 58.1354 50.3496 52.8079 48.8331 47.0509C47.3167 41.2938 45.198 39.8049 42.4775 37.6599C39.7565 35.5149 18.3863 31.2949 18.3863 31.2949Z" fill="#7D7A75"/>
<path d="M18.3863 31.2949C18.2091 32.2078 18.1458 60.2341 44.5237 58.1354C44.5237 58.1354 50.3496 52.8079 48.8331 47.0509C47.3167 41.2938 45.198 39.8049 42.4775 37.6599C39.7565 35.5149 18.3863 31.2949 18.3863 31.2949Z" stroke="#4A4133" stroke-width="2" stroke-miterlimit="10" stroke-linecap="round" stroke-linejoin="round"/>
<path d="M42.3307 47.392C34.3234 40.2656 21.1483 30.6386 27.4801 26.3999C33.8125 22.1605 50.3931 22.8148 55.1709 21.3522C59.948 19.8897 62.4168 19.5059 62.4168 19.5059C62.4168 19.5059 67.5809 25.6617 57.8124 37.1126C48.0433 48.5628 42.3307 47.392 42.3307 47.392Z" fill="#7D7A75"/>
<path d="M40.527 58.4465C40.527 58.4465 36.2094 55.3535 41.485 49.2196C46.7599 43.0856 61.3663 32.2822 66.0997 30.377C66.0997 30.377 66.0652 43.1025 61.3219 49.6416C52.4312 61.8988 40.527 58.4465 40.527 58.4465Z" fill="#7D7A75"/>
<path d="M40.527 58.4465C40.527 58.4465 36.2094 55.3535 41.485 49.2196C46.7599 43.0856 61.3663 32.2822 66.0997 30.377C66.0997 30.377 66.0652 43.1025 61.3219 49.6416C52.4312 61.8988 40.527 58.4465 40.527 58.4465Z" stroke="#4A4133" stroke-width="2" stroke-miterlimit="10" stroke-linecap="round" stroke-linejoin="round"/>
<path d="M58.0768 14.7654C57.4069 18.2554 60.7415 23.1233 57.956 29.0413C55.1704 34.9592 44.6005 44.0728 41.4844 49.2188C41.4844 49.2188 49.8297 41.4914 56.9066 38.8148C63.9835 36.1382 72.5235 30.3605 69.4531 24.1326C69.4531 24.1326 73.2329 17.7457 70.3428 12.7638C66.841 6.7275 58.6948 11.5466 58.0768 14.7654Z" fill="#7D7A75"/>
<path d="M70.3428 12.7644C69.1783 10.7572 67.4997 9.95511 65.7554 9.89062C66.645 10.3433 67.4527 11.0865 68.1014 12.2041C70.9915 17.186 67.2117 23.5729 67.2117 23.5729C70.2827 29.8008 61.7426 35.5785 54.6651 38.2551C52.12 39.218 49.4127 40.834 46.9866 42.5088C44.6644 45.0345 42.5976 47.3812 41.4844 49.22C41.4844 49.22 49.8297 41.4927 56.9066 38.8161C63.9835 36.1395 72.5235 30.3618 69.4531 24.1339C69.4531 24.1339 73.2329 17.7457 70.3428 12.7644Z" fill="#7D7A75"/>
<path d="M58.0768 14.7654C57.4069 18.2554 60.7415 23.1233 57.956 29.0413C55.1704 34.9592 44.6005 44.0728 41.4844 49.2188C41.4844 49.2188 49.8297 41.4914 56.9066 38.8148C63.9835 36.1382 72.5235 30.3605 69.4531 24.1326C69.4531 24.1326 73.2329 17.7457 70.3428 12.7638C66.841 6.7275 58.6948 11.5466 58.0768 14.7654Z" stroke="#4A4133" stroke-width="2" stroke-miterlimit="10" stroke-linecap="round" stroke-linejoin="round"/>
<path d="M62.8048 16.2136C62.8048 16.2136 67.5106 11.3456 64.1778 6.66546C60.8451 1.98532 53.1515 4.72391 53.1515 4.72391C53.1515 4.72391 52.203 1.50635 45.9807 1.0543C39.7585 0.602257 33.2883 3.03906 29.9023 5.88408C29.9023 5.88408 48.4538 8.77418 52.5129 10.8754C56.5732 12.976 62.8048 16.2136 62.8048 16.2136Z" fill="#7D7A75"/>
<path d="M64.1778 6.66546C60.8451 1.98532 53.1515 4.72391 53.1515 4.72391C53.1515 4.72391 52.203 1.50635 45.9807 1.0543C39.7585 0.602257 33.2883 3.03906 29.9023 5.88408C29.9023 5.88408 30.1246 5.91914 30.5078 5.9805C34.101 3.8868 39.2801 2.37038 44.3003 2.7354C50.5225 3.18745 51.4704 6.405 51.4704 6.405C51.4704 6.405 59.164 3.66642 62.4967 8.34655C64.5554 11.2379 63.5461 14.1994 62.4742 16.042C62.6852 16.1516 62.8048 16.2136 62.8048 16.2136C62.8048 16.2136 67.5106 11.3456 64.1778 6.66546Z" fill="#7D7A75"/>
<path d="M62.8048 16.2136C62.8048 16.2136 67.5106 11.3456 64.1778 6.66546C60.8451 1.98532 53.1515 4.72391 53.1515 4.72391C53.1515 4.72391 52.203 1.50635 45.9807 1.0543C39.7585 0.602257 33.2883 3.03906 29.9023 5.88408C29.9023 5.88408 48.4538 8.77418 52.5129 10.8754C56.5732 12.976 62.8048 16.2136 62.8048 16.2136Z" stroke="#4A4133" stroke-width="2" stroke-miterlimit="10" stroke-linecap="round" stroke-linejoin="round"/>
<path d="M55.8759 18.4181C56.1783 18.4669 54.9374 12.0074 51.2458 8.56883C47.5543 5.13027 39.8758 4.2318 32.4082 7.67538C32.4082 7.67538 38.8809 12.1426 43.3594 13.778C47.8386 15.4134 55.8759 18.4181 55.8759 18.4181Z" fill="#EAEAEA"/>
<path d="M55.8759 18.4181C56.1783 18.4669 54.9374 12.0074 51.2458 8.56883C47.5543 5.13027 39.8758 4.2318 32.4082 7.67538C32.4082 7.67538 38.8809 12.1426 43.3594 13.778C47.8386 15.4134 55.8759 18.4181 55.8759 18.4181Z" stroke="#683E2E" stroke-width="2" stroke-miterlimit="10" stroke-linecap="round" stroke-linejoin="round"/>
<path d="M17.4411 24.001L15.6843 13.2132C15.6843 13.2132 12.3678 7.43052 21.7205 6.43313C21.7205 6.43313 27.3937 1.38986 34.4843 5.15713C41.575 8.92441 41.3189 11.7387 41.3189 11.7387C41.3189 11.7387 39.46 16.4752 36.0076 21.2975C32.5553 26.1204 25.9205 30.5419 25.9205 30.5419L17.4411 24.001Z" fill="#EAEAEA"/>
<path d="M16.8052 16.0144C16.8052 16.0144 13.4881 10.2317 22.8415 9.23433C22.8415 9.23433 28.5146 4.19105 35.6053 7.95833C38.5655 9.5311 40.2422 10.9367 41.1945 12.0418C41.274 11.8521 41.3191 11.7387 41.3191 11.7387C41.3191 11.7387 41.5752 8.92441 34.4845 5.15713C27.3939 1.38986 21.7207 6.43313 21.7207 6.43313C12.3674 7.43115 15.6845 13.2132 15.6845 13.2132L17.4413 24.001L18.2014 24.5871L16.8052 16.0144Z" fill="#EAEAEA"/>
<path d="M17.4411 24.001L15.6843 13.2132C15.6843 13.2132 12.3678 7.43052 21.7205 6.43313C21.7205 6.43313 27.3937 1.38986 34.4843 5.15713C41.575 8.92441 41.3189 11.7387 41.3189 11.7387C41.3189 11.7387 39.46 16.4752 36.0076 21.2975C32.5553 26.1204 25.9205 30.5419 25.9205 30.5419L17.4411 24.001Z" stroke="#683E2E" stroke-width="2" stroke-miterlimit="10" stroke-linecap="round" stroke-linejoin="round"/>
<path d="M46.2361 44.8037C46.2361 44.8037 46.4402 36.0995 38.1174 33.4405C29.7946 30.7808 22.6063 26.934 21.1531 21.3498C19.6999 15.7655 17.9537 14.4181 15.6847 13.2129C15.6847 13.2129 12.9017 15.8187 15.6046 20.472C15.6046 20.472 10.1355 23.9725 15.006 30.603C19.8765 37.2334 32.2877 37.5477 37.4882 38.7849C44.6408 40.4873 46.2361 44.8037 46.2361 44.8037Z" fill="#7D7A75"/>
<path d="M18.3518 17.9884C18.884 20.0339 20.1838 21.8596 22.0252 23.4787C21.642 22.7987 21.3458 22.09 21.1536 21.3506C19.979 16.8388 18.6135 15.0933 16.9355 13.9531C17.4389 14.9837 17.9091 16.2879 18.3518 17.9884Z" fill="#7D7A75"/>
<path d="M46.2012 44.7188C46.2245 44.7724 46.2365 44.804 46.2365 44.804C46.2365 44.804 46.2365 44.7889 46.2372 44.7655C46.2245 44.7503 46.2125 44.7345 46.2012 44.7188Z" fill="#7D7A75"/>
<path d="M34.6874 35.4238C30.0774 34.3269 19.8036 33.9512 14.1367 29.2617C14.3815 29.6944 14.6664 30.1408 15.0064 30.6041C19.8769 37.2345 32.2881 37.5488 37.4886 38.786C40.301 39.4553 42.2514 40.5285 43.5862 41.5847C41.1169 38.8925 37.9569 36.2015 34.6874 35.4238Z" fill="#7D7A75"/>
<path d="M46.2361 44.8037C46.2361 44.8037 46.4402 36.0995 38.1174 33.4405C29.7946 30.7808 22.6063 26.934 21.1531 21.3498C19.6999 15.7655 17.9537 14.4181 15.6847 13.2129C15.6847 13.2129 12.9017 15.8187 15.6046 20.472C15.6046 20.472 10.1355 23.9725 15.006 30.603C19.8765 37.2334 32.2877 37.5477 37.4882 38.7849C44.6408 40.4873 46.2361 44.8037 46.2361 44.8037Z" stroke="#4A4133" stroke-width="2" stroke-miterlimit="10" stroke-linecap="round" stroke-linejoin="round"/>
<path d="M50.3071 17.4628C50.3071 17.4628 50.2164 14.8651 46.0822 11.9656C41.948 9.06673 35.9762 11.1229 35.1153 12.3594C35.1153 12.3594 29.9406 10.7416 28.2019 13.0506C26.4632 15.3597 36.0532 19.0556 41.5223 19.1358C46.9913 19.2159 50.3071 17.4628 50.3071 17.4628Z" fill="#8E5737"/>
<path d="M50.3071 17.4628C50.3071 17.4628 50.2164 14.8651 46.0822 11.9656C41.948 9.06673 35.9762 11.1229 35.1153 12.3594C35.1153 12.3594 29.9406 10.7416 28.2019 13.0506C26.4632 15.3597 36.0532 19.0556 41.5223 19.1358C46.9913 19.2159 50.3071 17.4628 50.3071 17.4628Z" stroke="#683E2E" stroke-width="2" stroke-miterlimit="10" stroke-linecap="round" stroke-linejoin="round"/>
<path d="M39.9437 17.681C39.9437 17.681 32.1819 16.7832 29.7257 12.0467C29.7257 12.0467 27.8186 9.22482 24.5659 9.81837C21.3133 10.4119 22.8874 15.4157 25.9647 15.7501C25.9647 15.7501 25.5577 22.425 40.3469 21.7106L39.9437 17.681Z" fill="#8E5737"/>
<path d="M28.7665 15.1896C26.1512 14.9053 24.6336 11.2564 26.2301 9.8007C25.7236 9.71617 25.1682 9.70803 24.5659 9.8176C21.3133 10.4112 22.8874 15.415 25.9647 15.7493C25.9647 15.7493 25.5577 22.4242 40.3469 21.7098L40.2956 21.1933C28.4209 20.9685 28.7665 15.1896 28.7665 15.1896Z" fill="#8E5737"/>
<path d="M39.9437 17.681C39.9437 17.681 32.1819 16.7832 29.7257 12.0467C29.7257 12.0467 27.8186 9.22482 24.5659 9.81837C21.3133 10.4119 22.8874 15.4157 25.9647 15.7501C25.9647 15.7501 25.5577 22.425 40.3469 21.7106L39.9437 17.681Z" stroke="#683E2E" stroke-width="2" stroke-miterlimit="10" stroke-linecap="round" stroke-linejoin="round"/>
<path d="M55.9834 16.9312C55.9834 16.9312 46.342 12.7225 36.3594 16.744C36.3594 16.744 37.1176 21.6457 42.8202 22.2725C48.5227 22.8992 56.4029 21.1323 56.4029 21.1323C56.4029 21.1323 58.0577 19.7705 55.9834 16.9312Z" fill="#8E5737"/>
<path d="M39.7216 18.425C46.3639 15.7491 52.851 16.717 56.4511 17.6643C56.3203 17.4308 56.1719 17.1891 55.9834 16.9312C55.9834 16.9312 46.342 12.7225 36.3594 16.744C36.3594 16.744 37.0306 21.0685 41.8397 22.1128C40.0515 20.4912 39.7216 18.425 39.7216 18.425Z" fill="#8E5737"/>
<path d="M55.9834 16.9309C55.9834 16.9309 45.9876 12.7579 36.3594 16.7437C36.3594 16.7437 37.1176 21.6455 42.8202 22.2722C48.5227 22.899 56.4029 21.1321 56.4029 21.1321C56.4029 21.1321 58.0577 19.7703 55.9834 16.9309Z" stroke="#683E2E" stroke-width="2" stroke-miterlimit="10" stroke-linecap="round" stroke-linejoin="round"/>
<path d="M28.1035 29.1301C28.1455 28.7156 32.6785 20.9857 40.7615 21.7151C48.8445 22.4451 55.2439 19.5588 55.7198 15.6081C55.9865 13.3948 54.6003 11.9241 54.6003 11.9241C54.6003 11.9241 60.8908 10.5779 63.4615 16.2667C66.033 21.9555 60.0862 27.5736 54.0086 25.2081C54.0086 25.2081 49.7041 30.5595 44.1224 28.1439C38.5413 25.7291 28.1035 29.1301 28.1035 29.1301Z" fill="#EAEAEA"/>
<path d="M63.4617 16.2667C62.0029 13.0385 59.3469 12.0768 57.3221 11.8477C58.7928 12.4481 60.2642 13.5901 61.2209 15.7063C63.7923 21.3958 58.5581 25.7052 52.4804 23.3398C52.4804 23.3398 48.9348 27.2549 44.2578 28.1965C49.7738 30.468 54.0094 25.2075 54.0094 25.2075C60.0864 27.5735 66.0331 21.9555 63.4617 16.2667Z" fill="#EAEAEA"/>
<path d="M28.1035 29.1301C28.1455 28.7156 32.6785 20.9857 40.7615 21.7151C48.8445 22.4451 54.9691 19.5162 55.7198 15.6081C56.0992 13.6308 54.6003 11.9241 54.6003 11.9241C54.6003 11.9241 60.8908 10.5779 63.4615 16.2667C66.033 21.9555 60.0862 27.5736 54.0086 25.2081C54.0086 25.2081 49.7041 30.5595 44.1224 28.1439C38.5413 25.7291 28.1035 29.1301 28.1035 29.1301Z" stroke="#683E2E" stroke-width="2" stroke-miterlimit="10" stroke-linecap="round" stroke-linejoin="round"/>
</svg>
