<svg width="85" height="148" viewBox="0 0 85 148" fill="none" xmlns="http://www.w3.org/2000/svg">
<g opacity="0.5">
<path d="M20.6934 75.2969C21.0073 75.3516 21.4188 75.4273 21.9092 75.5283C23.1015 75.7739 24.758 76.1651 26.6104 76.748C30.3288 77.9182 34.78 79.8424 37.8809 82.8584C40.9656 85.8589 42.1567 89.402 42.5752 92.209C42.7844 93.6121 42.7995 94.8267 42.7627 95.6885C42.7443 96.1174 42.7129 96.4585 42.6865 96.6904C42.4554 96.7232 42.1155 96.7637 41.6875 96.7939C40.827 96.8547 39.6125 96.8733 38.2041 96.7031C35.3865 96.3626 31.812 95.2699 28.7275 92.2695C25.6267 89.2534 23.5803 84.8567 22.3076 81.1719C21.6737 79.3364 21.2365 77.6919 20.958 76.5068C20.8434 76.0191 20.7567 75.6093 20.6934 75.2969Z" fill="#364F3A" stroke="#242F26"/>
<path d="M20.6934 75.2969C21.0073 75.3516 21.4188 75.4273 21.9092 75.5283C23.1015 75.7739 24.758 76.1651 26.6104 76.748C30.3288 77.9182 34.78 79.8424 37.8809 82.8584C40.9656 85.8589 42.1567 89.402 42.5752 92.209C42.7844 93.6121 42.7995 94.8267 42.7627 95.6885C42.7443 96.1174 42.7129 96.4585 42.6865 96.6904C42.4554 96.7232 42.1155 96.7637 41.6875 96.7939C40.827 96.8547 39.6125 96.8733 38.2041 96.7031C35.3865 96.3626 31.812 95.2699 28.7275 92.2695C25.6267 89.2534 23.5803 84.8567 22.3076 81.1719C21.6737 79.3364 21.2365 77.6919 20.958 76.5068C20.8434 76.0191 20.7567 75.6093 20.6934 75.2969Z" fill="#364F3A" stroke="#242F26"/>
<path d="M20.6914 75.2969C21.0053 75.3515 21.4169 75.4273 21.9072 75.5283C23.0996 75.7739 24.756 76.1653 26.6084 76.748C29.5206 77.6643 32.882 79.0436 35.6924 81.0469C33.2665 79.8005 30.6959 78.8001 28.4541 78.042C26.6312 77.4256 25.0145 76.9648 23.8535 76.6582C23.2731 76.5049 22.806 76.3902 22.4834 76.3135C22.3221 76.2751 22.1966 76.2459 22.1113 76.2266C22.0687 76.2169 22.0359 76.21 22.0137 76.2051C22.0026 76.2026 21.9941 76.2005 21.9883 76.1992C21.9854 76.1986 21.983 76.1986 21.9814 76.1982L21.9795 76.1973L21.1729 76.0234L21.3916 76.8184V76.8213C21.392 76.8228 21.3928 76.8253 21.3936 76.8281C21.3951 76.8338 21.3974 76.8419 21.4004 76.8525C21.4065 76.8743 21.4158 76.9065 21.4277 76.9482C21.4515 77.0317 21.4865 77.1547 21.5332 77.3125C21.6268 77.6285 21.767 78.0859 21.9502 78.6543C22.3166 79.7911 22.859 81.3737 23.5654 83.1582C24.4192 85.3148 25.5197 87.7802 26.8418 90.1162C24.7682 87.3658 23.3003 84.0515 22.3057 81.1719C21.6717 79.3364 21.2346 77.6919 20.9561 76.5068C20.8414 76.0191 20.7548 75.6093 20.6914 75.2969Z" fill="#364F3A" stroke="#242F26"/>
<path d="M38.2298 82.5001C44.5992 88.6954 43.1328 97.1241 43.1328 97.1241C43.1328 97.1241 34.7474 98.8233 28.3786 92.628C22.0093 86.4327 20.0684 74.6895 20.0684 74.6895C20.0684 74.6895 31.8604 76.3048 38.2298 82.5001Z" stroke="#242F26" stroke-width="2" stroke-miterlimit="10" stroke-linecap="round" stroke-linejoin="round"/>
<path d="M20.4844 75.0957L43.1312 97.1233" stroke="#242F26" stroke-width="2" stroke-miterlimit="10" stroke-linecap="round" stroke-linejoin="round"/>
<path d="M29.7559 93.8267L37.4513 91.5996" stroke="#242F26" stroke-width="2" stroke-miterlimit="10" stroke-linecap="round" stroke-linejoin="round"/>
<path d="M24.1895 86.8365L30.6358 84.9707" stroke="#242F26" stroke-width="2" stroke-miterlimit="10" stroke-linecap="round" stroke-linejoin="round"/>
<path d="M35.9947 80.6484L34.1621 88.1648" stroke="#242F26" stroke-width="2" stroke-miterlimit="10" stroke-linecap="round" stroke-linejoin="round"/>
<path d="M29.1318 77.0918L27.9141 82.0869" stroke="#242F26" stroke-width="2" stroke-miterlimit="10" stroke-linecap="round" stroke-linejoin="round"/>
<path d="M41.0752 108.377L40.5293 111.385L37.0928 106.743L41.0752 108.377Z" fill="#5B5340" stroke="#5B5340"/>
<path d="M41.6406 108.069L35.625 105.602L40.8148 112.611L41.6406 108.069Z" fill="#5B5340" stroke="#5B5340" stroke-width="2" stroke-miterlimit="10" stroke-linecap="round" stroke-linejoin="round"/>
<path d="M42.8405 58.1C49.5611 60.0822 61.1823 61.9023 61.4621 74.3637C61.4621 74.3637 66.2224 66.523 60.6219 60.3621C60.6219 60.3621 61.4621 52.5214 50.2611 51.961C39.0601 51.4007 42.8405 58.1 42.8405 58.1Z" fill="#364F3A"/>
<path d="M60.6212 60.363C60.6212 60.363 61.0238 56.5607 57.4863 54.0625C58.9815 56.237 58.7429 58.4847 58.7429 58.4847C62.3055 62.4035 61.675 66.9985 60.7452 69.8266C61.1666 71.1608 61.4233 72.6597 61.4615 74.364C61.4615 74.364 66.2217 66.5239 60.6212 60.363Z" fill="#364F3A"/>
<path d="M42.8405 58.1C49.5611 60.0822 61.1823 61.9023 61.4621 74.3637C61.4621 74.3637 66.2224 66.523 60.6219 60.3621C60.6219 60.3621 61.4621 52.5214 50.2611 51.961C39.0601 51.4007 42.8405 58.1 42.8405 58.1Z" stroke="#242F26" stroke-width="2" stroke-miterlimit="10" stroke-linecap="round" stroke-linejoin="round"/>
<path d="M42.8398 58.1003C42.8398 58.1003 53.2006 53.9217 60.6219 60.3625" stroke="#242F26" stroke-width="2" stroke-miterlimit="10" stroke-linecap="round" stroke-linejoin="round"/>
<path d="M39.5693 56.848C32.8486 58.8302 21.2275 60.6503 20.9476 73.1117C20.9476 73.1117 16.1874 65.271 21.7879 59.1101C21.7879 59.1101 20.9476 51.2694 32.1487 50.709C43.3497 50.1493 39.5693 56.848 39.5693 56.848Z" fill="#364F3A"/>
<path d="M21.7879 59.111C21.7879 59.111 21.3853 55.3087 24.9228 52.8105C23.4276 54.985 23.6662 57.2327 23.6662 57.2327C20.1036 61.1515 20.7341 65.7465 21.6639 68.5746C21.2425 69.9088 20.9858 71.4077 20.9476 73.112C20.9476 73.112 16.1874 65.2719 21.7879 59.111Z" fill="#364F3A"/>
<path d="M39.5693 56.848C32.8486 58.8302 21.2275 60.6503 20.9476 73.1117C20.9476 73.1117 16.1874 65.271 21.7879 59.1101C21.7879 59.1101 20.9476 51.2694 32.1487 50.709C43.3497 50.1493 39.5693 56.848 39.5693 56.848Z" stroke="#242F26" stroke-width="2" stroke-miterlimit="10" stroke-linecap="round" stroke-linejoin="round"/>
<path d="M39.5711 56.8484C39.5711 56.8484 29.2103 52.6698 21.7891 59.1105" stroke="#242F26" stroke-width="2" stroke-miterlimit="10" stroke-linecap="round" stroke-linejoin="round"/>
<path d="M44.0947 50.2441V115.5H40.9297V50.2441H44.0947Z" fill="#364F3A" stroke="#364F3A"/>
<path d="M44.5952 49.7441H40.4297V116H44.5952V49.7441Z" fill="#364F3A" stroke="#364F3A" stroke-width="2" stroke-miterlimit="10" stroke-linecap="round" stroke-linejoin="round"/>
<path d="M60.9124 103.446C52.8488 109.838 43.2387 107.08 43.2387 107.08C43.2387 107.08 42.3879 97.3805 50.4508 90.9892C58.5145 84.598 72.439 83.9355 72.439 83.9355C72.439 83.9355 68.976 97.055 60.9124 103.446Z" fill="#364F3A"/>
<path d="M60.9124 103.446C52.8488 109.838 43.2387 107.08 43.2387 107.08C43.2387 107.08 42.3879 97.3805 50.4508 90.9892C58.5145 84.598 72.439 83.9355 72.439 83.9355C72.439 83.9355 68.976 97.055 60.9124 103.446Z" fill="#364F3A"/>
<path d="M50.4506 90.9892C49.7462 91.5471 49.1138 92.1319 48.5391 92.7317C56.7016 87.6934 69.8723 85.7168 69.8723 85.7168C69.8723 85.7168 65.5497 98.0611 58.9124 104.829C59.5848 104.422 60.2535 103.968 60.9121 103.446C68.9758 97.055 72.4387 83.9355 72.4387 83.9355C72.4387 83.9355 58.5142 84.598 50.4506 90.9892Z" fill="#364F3A"/>
<path d="M60.9124 103.446C52.8488 109.838 43.2387 107.08 43.2387 107.08C43.2387 107.08 42.3879 97.3805 50.4508 90.9892C58.5145 84.598 72.439 83.9355 72.439 83.9355C72.439 83.9355 68.976 97.055 60.9124 103.446Z" stroke="#242F26" stroke-width="2" stroke-miterlimit="10" stroke-linecap="round" stroke-linejoin="round"/>
<path d="M71.9095 84.3555L43.2383 107.081" stroke="#242F26" stroke-width="2" stroke-miterlimit="10" stroke-linecap="round" stroke-linejoin="round"/>
<path d="M48.8711 92.3926L50.4288 101.382" stroke="#242F26" stroke-width="2" stroke-miterlimit="10" stroke-linecap="round" stroke-linejoin="round"/>
<path d="M55.0971 106.597L47.6777 103.811" stroke="#242F26" stroke-width="2" stroke-miterlimit="10" stroke-linecap="round" stroke-linejoin="round"/>
<path d="M57.752 87.0117L59.0568 94.5419" stroke="#242F26" stroke-width="2" stroke-miterlimit="10" stroke-linecap="round" stroke-linejoin="round"/>
<path d="M63.3666 101.162L54.8672 98.1094" stroke="#242F26" stroke-width="2" stroke-miterlimit="10" stroke-linecap="round" stroke-linejoin="round"/>
<path d="M66.4551 84.6777L66.9666 88.2741" stroke="#242F26" stroke-width="2" stroke-miterlimit="10" stroke-linecap="round" stroke-linejoin="round"/>
<path d="M68.4254 93.8698L62.7773 91.8418" stroke="#242F26" stroke-width="2" stroke-miterlimit="10" stroke-linecap="round" stroke-linejoin="round"/>
<path d="M33.7111 55.581C31.2349 56.6729 26.4314 59.4271 26.4064 65.181C26.3769 71.9636 32.3544 75.4072 32.3544 75.4072C32.3544 75.4072 30.7891 65.9111 33.7111 64.5549C36.6332 63.1982 43.7288 61.529 44.2504 54.7458C44.2504 54.7458 39.1476 53.1843 33.7111 55.581Z" fill="#364F3A"/>
<path d="M27.0318 67.0593C27.0569 61.3048 31.8604 58.5505 34.3366 57.4592C38.3938 55.6705 42.2625 56.0868 43.9661 56.413C44.1057 55.894 44.2047 55.3405 44.2504 54.7463C44.2504 54.7463 39.1476 53.1842 33.7111 55.5809C31.2349 56.6729 26.4314 59.4271 26.4064 65.181C26.3988 66.8953 26.7764 68.3942 27.343 69.6802C27.1477 68.8688 27.0281 67.9997 27.0318 67.0593Z" fill="#364F3A"/>
<path d="M33.7111 55.5812C31.2349 56.6731 26.4314 59.4273 26.4064 65.1811C26.3769 71.9637 32.3544 75.4072 32.3544 75.4072C32.3544 75.4072 30.7891 65.9112 33.7111 64.555C36.6332 63.1983 43.7288 61.5291 44.2504 54.746C44.2504 54.746 39.1476 53.1845 33.7111 55.5812Z" stroke="#242F26" stroke-width="2" stroke-miterlimit="10" stroke-linecap="round" stroke-linejoin="round"/>
<path d="M29.8496 67.8937C29.8496 67.8937 31.793 65.3442 33.7108 64.5547" stroke="#242F26" stroke-width="2" stroke-miterlimit="10" stroke-linecap="round" stroke-linejoin="round"/>
<path d="M43.2589 54.6718C42.4706 59.7264 42.6165 61.4569 45.7884 67.507C48.9602 73.5564 48.0536 76.3826 48.0536 76.3826C48.0536 76.3826 58.7876 64.5918 49.1286 55.4069C47.8132 54.1559 43.2589 54.6718 43.2589 54.6718Z" fill="#364F3A"/>
<path d="M51.2122 57.875C53.8413 64.1649 49.8787 70.6006 47.9434 73.1989C48.3785 75.3452 48.0542 76.3827 48.0542 76.3827C48.0542 76.3827 56.9793 66.5703 51.2122 57.875Z" fill="#364F3A"/>
<path d="M43.2589 54.6718C42.4706 59.7264 42.6165 61.4569 45.7884 67.507C48.9602 73.5564 48.0536 76.3826 48.0536 76.3826C48.0536 76.3826 58.7876 64.5918 49.1286 55.4069C47.8132 54.1559 43.2589 54.6718 43.2589 54.6718Z" stroke="#242F26" stroke-width="2" stroke-miterlimit="10" stroke-linecap="round" stroke-linejoin="round"/>
<path d="M42.5117 81.1452L48.5273 78.6777L43.3382 85.687L42.5117 81.1452Z" fill="#5B5340"/>
<path d="M42.5117 81.1452L48.5273 78.6777L43.3382 85.687L42.5117 81.1452Z" fill="#5B5340" stroke="#5B5340" stroke-width="2" stroke-miterlimit="10" stroke-linecap="round" stroke-linejoin="round"/>
<path d="M19.3863 31.2949C19.2091 32.2078 19.1458 60.2341 45.5237 58.1354C45.5237 58.1354 51.3496 52.8079 49.8331 47.0509C48.3167 41.2938 46.198 39.8049 43.4775 37.6599C40.7565 35.5149 19.3863 31.2949 19.3863 31.2949Z" fill="#D9D9D9"/>
<path d="M19.3863 31.2949C19.2091 32.2078 19.1458 60.2341 45.5237 58.1354C45.5237 58.1354 51.3496 52.8079 49.8331 47.0509C48.3167 41.2938 46.198 39.8049 43.4775 37.6599C40.7565 35.5149 19.3863 31.2949 19.3863 31.2949Z" stroke="#7F5829" stroke-width="2" stroke-miterlimit="10" stroke-linecap="round" stroke-linejoin="round"/>
<path d="M43.3307 47.392C35.3234 40.2656 22.1483 30.6386 28.4801 26.3999C34.8125 22.1605 51.3931 22.8148 56.1709 21.3522C60.948 19.8897 63.4168 19.5059 63.4168 19.5059C63.4168 19.5059 68.5809 25.6617 58.8124 37.1126C49.0433 48.5628 43.3307 47.392 43.3307 47.392Z" fill="#D9D9D9"/>
<path d="M41.527 58.4465C41.527 58.4465 37.2094 55.3535 42.485 49.2196C47.7599 43.0856 62.3663 32.2822 67.0997 30.377C67.0997 30.377 67.0652 43.1025 62.3219 49.6416C53.4312 61.8988 41.527 58.4465 41.527 58.4465Z" fill="#D9D9D9"/>
<path d="M41.527 58.4465C41.527 58.4465 37.2094 55.3535 42.485 49.2196C47.7599 43.0856 62.3663 32.2822 67.0997 30.377C67.0997 30.377 67.0652 43.1025 62.3219 49.6416C53.4312 61.8988 41.527 58.4465 41.527 58.4465Z" stroke="#7F5829" stroke-width="2" stroke-miterlimit="10" stroke-linecap="round" stroke-linejoin="round"/>
<path d="M59.0768 14.7654C58.4069 18.2554 61.7415 23.1233 58.956 29.0413C56.1704 34.9592 45.6005 44.0728 42.4844 49.2188C42.4844 49.2188 50.8297 41.4914 57.9066 38.8148C64.9835 36.1382 73.5235 30.3605 70.4531 24.1326C70.4531 24.1326 74.2329 17.7457 71.3428 12.7638C67.841 6.7275 59.6948 11.5466 59.0768 14.7654Z" fill="#D9D9D9"/>
<path d="M71.3428 12.7644C70.1783 10.7572 68.4997 9.95511 66.7554 9.89062C67.645 10.3433 68.4527 11.0865 69.1014 12.2041C71.9915 17.186 68.2117 23.5729 68.2117 23.5729C71.2827 29.8008 62.7426 35.5785 55.6651 38.2551C53.12 39.218 50.4127 40.834 47.9866 42.5088C45.6644 45.0345 43.5976 47.3812 42.4844 49.22C42.4844 49.22 50.8297 41.4927 57.9066 38.8161C64.9835 36.1395 73.5235 30.3618 70.4531 24.1339C70.4531 24.1339 74.2329 17.7457 71.3428 12.7644Z" fill="#D9D9D9"/>
<path d="M59.0768 14.7654C58.4069 18.2554 61.7415 23.1233 58.956 29.0413C56.1704 34.9592 45.6005 44.0728 42.4844 49.2188C42.4844 49.2188 50.8297 41.4914 57.9066 38.8148C64.9835 36.1382 73.5235 30.3605 70.4531 24.1326C70.4531 24.1326 74.2329 17.7457 71.3428 12.7638C67.841 6.7275 59.6948 11.5466 59.0768 14.7654Z" stroke="#7F5829" stroke-width="2" stroke-miterlimit="10" stroke-linecap="round" stroke-linejoin="round"/>
<path d="M63.8048 16.2136C63.8048 16.2136 68.5106 11.3456 65.1778 6.66546C61.8451 1.98532 54.1515 4.72391 54.1515 4.72391C54.1515 4.72391 53.203 1.50635 46.9807 1.0543C40.7585 0.602257 34.2883 3.03906 30.9023 5.88408C30.9023 5.88408 49.4538 8.77418 53.5129 10.8754C57.5732 12.976 63.8048 16.2136 63.8048 16.2136Z" fill="#D9D9D9"/>
<path d="M65.1778 6.66546C61.8451 1.98532 54.1515 4.72391 54.1515 4.72391C54.1515 4.72391 53.203 1.50635 46.9807 1.0543C40.7585 0.602257 34.2883 3.03906 30.9023 5.88408C30.9023 5.88408 31.1246 5.91914 31.5078 5.9805C35.101 3.8868 40.2801 2.37038 45.3003 2.7354C51.5225 3.18745 52.4704 6.405 52.4704 6.405C52.4704 6.405 60.164 3.66642 63.4967 8.34655C65.5554 11.2379 64.5461 14.1994 63.4742 16.042C63.6852 16.1516 63.8048 16.2136 63.8048 16.2136C63.8048 16.2136 68.5106 11.3456 65.1778 6.66546Z" fill="#D9D9D9"/>
<path d="M63.8048 16.2136C63.8048 16.2136 68.5106 11.3456 65.1778 6.66546C61.8451 1.98532 54.1515 4.72391 54.1515 4.72391C54.1515 4.72391 53.203 1.50635 46.9807 1.0543C40.7585 0.602257 34.2883 3.03906 30.9023 5.88408C30.9023 5.88408 49.4538 8.77418 53.5129 10.8754C57.5732 12.976 63.8048 16.2136 63.8048 16.2136Z" stroke="#7F5829" stroke-width="2" stroke-miterlimit="10" stroke-linecap="round" stroke-linejoin="round"/>
<path d="M56.8759 18.4181C57.1783 18.4669 55.9374 12.0074 52.2458 8.56883C48.5543 5.13027 40.8758 4.2318 33.4082 7.67538C33.4082 7.67538 39.8809 12.1426 44.3594 13.778C48.8386 15.4134 56.8759 18.4181 56.8759 18.4181Z" fill="#B3B3B3"/>
<path d="M56.8759 18.4181C57.1783 18.4669 55.9374 12.0074 52.2458 8.56883C48.5543 5.13027 40.8758 4.2318 33.4082 7.67538C33.4082 7.67538 39.8809 12.1426 44.3594 13.778C48.8386 15.4134 56.8759 18.4181 56.8759 18.4181Z" stroke="#937D2E" stroke-width="2" stroke-miterlimit="10" stroke-linecap="round" stroke-linejoin="round"/>
<path d="M18.4411 24.001L16.6843 13.2132C16.6843 13.2132 13.3678 7.43052 22.7205 6.43313C22.7205 6.43313 28.3937 1.38986 35.4843 5.15713C42.575 8.92441 42.3189 11.7387 42.3189 11.7387C42.3189 11.7387 40.46 16.4752 37.0076 21.2975C33.5553 26.1204 26.9205 30.5419 26.9205 30.5419L18.4411 24.001Z" fill="#B3B3B3"/>
<path d="M17.8052 16.0144C17.8052 16.0144 14.4881 10.2317 23.8415 9.23433C23.8415 9.23433 29.5146 4.19105 36.6053 7.95833C39.5655 9.53111 41.2422 10.9367 42.1945 12.0418C42.274 11.8521 42.3191 11.7387 42.3191 11.7387C42.3191 11.7387 42.5752 8.92441 35.4845 5.15713C28.3939 1.38986 22.7207 6.43313 22.7207 6.43313C13.3674 7.43115 16.6845 13.2132 16.6845 13.2132L18.4413 24.001L19.2014 24.5871L17.8052 16.0144Z" fill="#B3B3B3"/>
<path d="M18.4411 24.001L16.6843 13.2132C16.6843 13.2132 13.3678 7.43052 22.7205 6.43313C22.7205 6.43313 28.3937 1.38986 35.4843 5.15713C42.575 8.92441 42.3189 11.7387 42.3189 11.7387C42.3189 11.7387 40.46 16.4752 37.0076 21.2975C33.5553 26.1204 26.9205 30.5419 26.9205 30.5419L18.4411 24.001Z" stroke="#937D2E" stroke-width="2" stroke-miterlimit="10" stroke-linecap="round" stroke-linejoin="round"/>
<path d="M47.2361 44.8037C47.2361 44.8037 47.4402 36.0995 39.1174 33.4405C30.7946 30.7808 23.6063 26.934 22.1531 21.3498C20.6999 15.7655 18.9537 14.4181 16.6847 13.2129C16.6847 13.2129 13.9017 15.8187 16.6046 20.472C16.6046 20.472 11.1355 23.9725 16.006 30.603C20.8765 37.2334 33.2877 37.5477 38.4882 38.7849C45.6408 40.4873 47.2361 44.8037 47.2361 44.8037Z" fill="#D9D9D9"/>
<path d="M19.3518 17.9884C19.884 20.0339 21.1838 21.8596 23.0252 23.4787C22.642 22.7987 22.3458 22.09 22.1536 21.3506C20.979 16.8388 19.6135 15.0933 17.9355 13.9531C18.4389 14.9837 18.9091 16.2879 19.3518 17.9884Z" fill="#D9D9D9"/>
<path d="M47.2012 44.7188C47.2245 44.7724 47.2365 44.804 47.2365 44.804C47.2365 44.804 47.2365 44.7889 47.2372 44.7655C47.2245 44.7503 47.2125 44.7345 47.2012 44.7188Z" fill="#E39D48"/>
<path d="M35.6874 35.4238C31.0774 34.3269 20.8036 33.9512 15.1367 29.2617C15.3815 29.6944 15.6664 30.1408 16.0064 30.6041C20.8769 37.2345 33.2881 37.5488 38.4886 38.786C41.301 39.4553 43.2514 40.5285 44.5862 41.5847C42.1169 38.8925 38.9569 36.2015 35.6874 35.4238Z" fill="#D9D9D9"/>
<path d="M47.2361 44.8037C47.2361 44.8037 47.4402 36.0995 39.1174 33.4405C30.7946 30.7808 23.6063 26.934 22.1531 21.3498C20.6999 15.7655 18.9537 14.4181 16.6847 13.2129C16.6847 13.2129 13.9017 15.8187 16.6046 20.472C16.6046 20.472 11.1355 23.9725 16.006 30.603C20.8765 37.2334 33.2877 37.5477 38.4882 38.7849C45.6408 40.4873 47.2361 44.8037 47.2361 44.8037Z" stroke="#7F5829" stroke-width="2" stroke-miterlimit="10" stroke-linecap="round" stroke-linejoin="round"/>
<path d="M51.3071 17.4628C51.3071 17.4628 51.2164 14.8651 47.0822 11.9656C42.948 9.06673 36.9762 11.1229 36.1153 12.3594C36.1153 12.3594 30.9406 10.7416 29.2019 13.0506C27.4632 15.3597 37.0532 19.0556 42.5223 19.1358C47.9913 19.2159 51.3071 17.4628 51.3071 17.4628Z" fill="#544C4D"/>
<path d="M51.3071 17.4628C51.3071 17.4628 51.2164 14.8651 47.0822 11.9656C42.948 9.06673 36.9762 11.1229 36.1153 12.3594C36.1153 12.3594 30.9406 10.7416 29.2019 13.0506C27.4632 15.3597 37.0532 19.0556 42.5223 19.1358C47.9913 19.2159 51.3071 17.4628 51.3071 17.4628Z" stroke="#937D2E" stroke-width="2" stroke-miterlimit="10" stroke-linecap="round" stroke-linejoin="round"/>
<path d="M40.9437 17.681C40.9437 17.681 33.1819 16.7832 30.7257 12.0467C30.7257 12.0467 28.8186 9.22482 25.5659 9.81837C22.3133 10.4119 23.8874 15.4157 26.9647 15.7501C26.9647 15.7501 26.5577 22.425 41.3469 21.7106L40.9437 17.681Z" fill="#544C4D"/>
<path d="M29.7665 15.1896C27.1512 14.9053 25.6336 11.2564 27.2301 9.8007C26.7236 9.71617 26.1682 9.70803 25.5659 9.8176C22.3133 10.4112 23.8874 15.415 26.9647 15.7493C26.9647 15.7493 26.5577 22.4242 41.3469 21.7098L41.2956 21.1933C29.4209 20.9685 29.7665 15.1896 29.7665 15.1896Z" fill="#544C4D"/>
<path d="M40.9437 17.681C40.9437 17.681 33.1819 16.7832 30.7257 12.0467C30.7257 12.0467 28.8186 9.22482 25.5659 9.81837C22.3133 10.4119 23.8874 15.4157 26.9647 15.7501C26.9647 15.7501 26.5577 22.425 41.3469 21.7106L40.9437 17.681Z" fill="#544C4D" stroke="#937D2E" stroke-width="2" stroke-miterlimit="10" stroke-linecap="round" stroke-linejoin="round"/>
<path d="M56.9834 16.9312C56.9834 16.9312 47.342 12.7225 37.3594 16.744C37.3594 16.744 38.1176 21.6457 43.8202 22.2725C49.5227 22.8992 57.4029 21.1323 57.4029 21.1323C57.4029 21.1323 59.0577 19.7705 56.9834 16.9312Z" fill="#544C4D"/>
<path d="M40.7216 18.425C47.3639 15.7491 53.851 16.717 57.4511 17.6643C57.3203 17.4308 57.1719 17.1891 56.9834 16.9312C56.9834 16.9312 47.342 12.7225 37.3594 16.744C37.3594 16.744 38.0306 21.0685 42.8397 22.1128C41.0515 20.4912 40.7216 18.425 40.7216 18.425Z" fill="#544C4D"/>
<path d="M56.9834 16.9309C56.9834 16.9309 46.9876 12.7579 37.3594 16.7437C37.3594 16.7437 38.1176 21.6455 43.8202 22.2722C49.5227 22.899 57.4029 21.1321 57.4029 21.1321C57.4029 21.1321 59.0577 19.7703 56.9834 16.9309Z" stroke="#937D2E" stroke-width="2" stroke-miterlimit="10" stroke-linecap="round" stroke-linejoin="round"/>
<path d="M29.1035 29.1301C29.1455 28.7156 33.6785 20.9857 41.7615 21.7151C49.8445 22.4451 56.2439 19.5588 56.7198 15.6081C56.9865 13.3948 55.6003 11.9241 55.6003 11.9241C55.6003 11.9241 61.8908 10.5779 64.4615 16.2667C67.033 21.9555 61.0862 27.5736 55.0086 25.2081C55.0086 25.2081 50.7041 30.5595 45.1224 28.1439C39.5413 25.7291 29.1035 29.1301 29.1035 29.1301Z" fill="#B3B3B3"/>
<path d="M64.4617 16.2667C63.0029 13.0385 60.3469 12.0768 58.3221 11.8477C59.7928 12.4481 61.2642 13.5901 62.2209 15.7063C64.7923 21.3958 59.5581 25.7052 53.4804 23.3398C53.4804 23.3398 49.9348 27.2549 45.2578 28.1965C50.7738 30.468 55.0094 25.2075 55.0094 25.2075C61.0864 27.5735 67.0331 21.9555 64.4617 16.2667Z" fill="#B3B3B3"/>
<path d="M29.1035 29.1301C29.1455 28.7156 33.6785 20.9857 41.7615 21.7151C49.8445 22.4451 55.9691 19.5162 56.7198 15.6081C57.0992 13.6308 55.6003 11.9241 55.6003 11.9241C55.6003 11.9241 61.8908 10.5779 64.4615 16.2667C67.033 21.9555 61.0862 27.5736 55.0086 25.2081C55.0086 25.2081 50.7041 30.5595 45.1224 28.1439C39.5413 25.7291 29.1035 29.1301 29.1035 29.1301Z" fill="#B3B3B3" stroke="#937D2E" stroke-width="2" stroke-miterlimit="10" stroke-linecap="round" stroke-linejoin="round"/>
<path d="M0 123.541H16.7661V147.651H0L3.11927 135.377L0 123.541Z" fill="#5B5340"/>
<path d="M85 123.543H68.2339V147.653H85L81.8807 135.379L85 123.543Z" fill="#5B5340"/>
<rect x="8.70898" y="116.967" width="67.5841" height="24.1097" fill="#BFB39A"/>
<path d="M23.2318 134.967C23.2318 134.401 23.3172 133.9 23.4878 133.463C23.6692 133.025 23.9092 132.625 24.2078 132.263C24.5065 131.889 24.8425 131.532 25.2158 131.191C25.5998 130.839 25.9892 130.471 26.3838 130.087C27.0772 129.425 27.5785 128.812 27.8878 128.247C28.1972 127.681 28.3518 127.137 28.3518 126.615C28.3518 126.209 28.2932 125.82 28.1758 125.447C28.0692 125.063 27.8718 124.748 27.5838 124.503C27.2958 124.257 26.8958 124.135 26.3838 124.135C25.9465 124.135 25.5572 124.247 25.2158 124.471C24.8745 124.684 24.6452 124.951 24.5278 125.271C24.6345 125.377 24.7092 125.495 24.7518 125.623C24.7945 125.74 24.8158 125.857 24.8158 125.975C24.8158 126.071 24.7892 126.177 24.7358 126.295C24.6932 126.412 24.6132 126.513 24.4958 126.599C24.3785 126.684 24.2238 126.727 24.0318 126.727C23.7972 126.716 23.6158 126.625 23.4878 126.455C23.3598 126.284 23.2958 126.081 23.2958 125.847C23.2958 125.623 23.3652 125.377 23.5038 125.111C23.6425 124.833 23.8505 124.577 24.1278 124.343C24.4158 124.097 24.7678 123.9 25.1838 123.751C25.5998 123.591 26.0852 123.511 26.6398 123.511C27.0665 123.511 27.4772 123.564 27.8718 123.671C28.2772 123.767 28.6398 123.927 28.9598 124.151C29.2798 124.375 29.5305 124.673 29.7118 125.047C29.9038 125.409 29.9998 125.863 29.9998 126.407C29.9998 126.673 29.9412 126.961 29.8238 127.271C29.7172 127.58 29.5358 127.916 29.2798 128.279C29.0345 128.631 28.7145 129.009 28.3198 129.415C27.9252 129.809 27.4398 130.241 26.8638 130.711C26.1385 131.308 25.5412 131.873 25.0718 132.407C24.6132 132.929 24.3465 133.377 24.2718 133.751L27.1038 133.831C27.6265 133.841 28.0852 133.841 28.4798 133.831C28.8852 133.82 29.1998 133.74 29.4238 133.591C29.6585 133.431 29.7758 133.143 29.7758 132.727H30.2558L30.1598 134.967H23.2318ZM37.1856 135.223C36.3749 135.223 35.7029 135.052 35.1696 134.711C34.6362 134.359 34.2202 133.9 33.9216 133.335C33.6229 132.759 33.4096 132.129 33.2816 131.447C33.1642 130.764 33.1056 130.087 33.1056 129.415C33.1056 128.743 33.1802 128.06 33.3296 127.367C33.4896 126.673 33.7349 126.039 34.0656 125.463C34.3962 124.876 34.8229 124.407 35.3456 124.055C35.8682 123.692 36.5029 123.511 37.2496 123.511C38.0282 123.511 38.6736 123.687 39.1856 124.039C39.7082 124.391 40.1189 124.855 40.4176 125.431C40.7269 125.996 40.9456 126.62 41.0736 127.303C41.2016 127.985 41.2656 128.663 41.2656 129.335C41.2656 129.996 41.1909 130.673 41.0416 131.367C40.8922 132.06 40.6576 132.7 40.3376 133.287C40.0176 133.863 39.5962 134.332 39.0736 134.695C38.5616 135.047 37.9322 135.223 37.1856 135.223ZM37.2816 134.599C37.7402 134.599 38.1189 134.455 38.4176 134.167C38.7162 133.879 38.9509 133.495 39.1216 133.015C39.3029 132.535 39.4309 132.007 39.5056 131.431C39.5802 130.844 39.6176 130.257 39.6176 129.671C39.6176 129.02 39.5802 128.369 39.5056 127.719C39.4309 127.068 39.3029 126.471 39.1216 125.927C38.9402 125.383 38.6949 124.945 38.3856 124.615C38.0762 124.284 37.6869 124.119 37.2176 124.119C36.7589 124.119 36.3696 124.263 36.0496 124.551C35.7402 124.839 35.4896 125.223 35.2976 125.703C35.1056 126.183 34.9669 126.716 34.8816 127.303C34.7962 127.889 34.7536 128.481 34.7536 129.079C34.7536 129.527 34.7749 130.001 34.8176 130.503C34.8602 131.004 34.9349 131.5 35.0416 131.991C35.1589 132.471 35.3136 132.908 35.5056 133.303C35.6976 133.697 35.9376 134.012 36.2256 134.247C36.5136 134.481 36.8656 134.599 37.2816 134.599ZM43.8937 134.967C43.8937 134.401 43.979 133.9 44.1497 133.463C44.331 133.025 44.571 132.625 44.8697 132.263C45.1684 131.889 45.5044 131.532 45.8777 131.191C46.2617 130.839 46.651 130.471 47.0457 130.087C47.739 129.425 48.2404 128.812 48.5497 128.247C48.859 127.681 49.0137 127.137 49.0137 126.615C49.0137 126.209 48.955 125.82 48.8377 125.447C48.731 125.063 48.5337 124.748 48.2457 124.503C47.9577 124.257 47.5577 124.135 47.0457 124.135C46.6084 124.135 46.219 124.247 45.8777 124.471C45.5364 124.684 45.307 124.951 45.1897 125.271C45.2964 125.377 45.371 125.495 45.4137 125.623C45.4564 125.74 45.4777 125.857 45.4777 125.975C45.4777 126.071 45.451 126.177 45.3977 126.295C45.355 126.412 45.275 126.513 45.1577 126.599C45.0404 126.684 44.8857 126.727 44.6937 126.727C44.459 126.716 44.2777 126.625 44.1497 126.455C44.0217 126.284 43.9577 126.081 43.9577 125.847C43.9577 125.623 44.027 125.377 44.1657 125.111C44.3044 124.833 44.5124 124.577 44.7897 124.343C45.0777 124.097 45.4297 123.9 45.8457 123.751C46.2617 123.591 46.747 123.511 47.3017 123.511C47.7284 123.511 48.139 123.564 48.5337 123.671C48.939 123.767 49.3017 123.927 49.6217 124.151C49.9417 124.375 50.1924 124.673 50.3737 125.047C50.5657 125.409 50.6617 125.863 50.6617 126.407C50.6617 126.673 50.603 126.961 50.4857 127.271C50.379 127.58 50.1977 127.916 49.9417 128.279C49.6964 128.631 49.3764 129.009 48.9817 129.415C48.587 129.809 48.1017 130.241 47.5257 130.711C46.8004 131.308 46.203 131.873 45.7337 132.407C45.275 132.929 45.0084 133.377 44.9337 133.751L47.7657 133.831C48.2884 133.841 48.747 133.841 49.1417 133.831C49.547 133.82 49.8617 133.74 50.0857 133.591C50.3204 133.431 50.4377 133.143 50.4377 132.727H50.9177L50.8217 134.967H43.8937ZM57.8475 135.223C57.0368 135.223 56.3648 135.052 55.8315 134.711C55.2981 134.359 54.8821 133.9 54.5835 133.335C54.2848 132.759 54.0715 132.129 53.9435 131.447C53.8261 130.764 53.7675 130.087 53.7675 129.415C53.7675 128.743 53.8421 128.06 53.9915 127.367C54.1515 126.673 54.3968 126.039 54.7275 125.463C55.0581 124.876 55.4848 124.407 56.0075 124.055C56.5301 123.692 57.1648 123.511 57.9115 123.511C58.6901 123.511 59.3355 123.687 59.8475 124.039C60.3701 124.391 60.7808 124.855 61.0795 125.431C61.3888 125.996 61.6075 126.62 61.7355 127.303C61.8635 127.985 61.9275 128.663 61.9275 129.335C61.9275 129.996 61.8528 130.673 61.7035 131.367C61.5541 132.06 61.3195 132.7 60.9995 133.287C60.6795 133.863 60.2581 134.332 59.7355 134.695C59.2235 135.047 58.5941 135.223 57.8475 135.223ZM57.9435 134.599C58.4021 134.599 58.7808 134.455 59.0795 134.167C59.3781 133.879 59.6128 133.495 59.7835 133.015C59.9648 132.535 60.0928 132.007 60.1675 131.431C60.2421 130.844 60.2795 130.257 60.2795 129.671C60.2795 129.02 60.2421 128.369 60.1675 127.719C60.0928 127.068 59.9648 126.471 59.7835 125.927C59.6021 125.383 59.3568 124.945 59.0475 124.615C58.7381 124.284 58.3488 124.119 57.8795 124.119C57.4208 124.119 57.0315 124.263 56.7115 124.551C56.4021 124.839 56.1515 125.223 55.9595 125.703C55.7675 126.183 55.6288 126.716 55.5435 127.303C55.4581 127.889 55.4155 128.481 55.4155 129.079C55.4155 129.527 55.4368 130.001 55.4795 130.503C55.5221 131.004 55.5968 131.5 55.7035 131.991C55.8208 132.471 55.9755 132.908 56.1675 133.303C56.3595 133.697 56.5995 134.012 56.8875 134.247C57.1755 134.481 57.5275 134.599 57.9435 134.599Z" fill="black"/>
</g>
</svg>
