<svg width="85" height="148" viewBox="0 0 85 148" fill="none" xmlns="http://www.w3.org/2000/svg">
<path d="M20.6934 75.2969C21.0073 75.3516 21.4188 75.4273 21.9092 75.5283C23.1015 75.7739 24.758 76.1651 26.6104 76.748C30.3288 77.9182 34.78 79.8424 37.8809 82.8584C40.9656 85.8589 42.1567 89.402 42.5752 92.209C42.7844 93.6121 42.7995 94.8267 42.7627 95.6885C42.7443 96.1174 42.7129 96.4585 42.6865 96.6904C42.4554 96.7232 42.1155 96.7637 41.6875 96.7939C40.827 96.8547 39.6125 96.8733 38.2041 96.7031C35.3865 96.3626 31.812 95.2699 28.7275 92.2695C25.6267 89.2534 23.5803 84.8567 22.3076 81.1719C21.6737 79.3364 21.2365 77.6919 20.958 76.5068C20.8434 76.0191 20.7567 75.6093 20.6934 75.2969Z" fill="#364F3A" stroke="#242F26"/>
<path d="M20.6934 75.2969C21.0073 75.3516 21.4188 75.4273 21.9092 75.5283C23.1015 75.7739 24.758 76.1651 26.6104 76.748C30.3288 77.9182 34.78 79.8424 37.8809 82.8584C40.9656 85.8589 42.1567 89.402 42.5752 92.209C42.7844 93.6121 42.7995 94.8267 42.7627 95.6885C42.7443 96.1174 42.7129 96.4585 42.6865 96.6904C42.4554 96.7232 42.1155 96.7637 41.6875 96.7939C40.827 96.8547 39.6125 96.8733 38.2041 96.7031C35.3865 96.3626 31.812 95.2699 28.7275 92.2695C25.6267 89.2534 23.5803 84.8567 22.3076 81.1719C21.6737 79.3364 21.2365 77.6919 20.958 76.5068C20.8434 76.0191 20.7567 75.6093 20.6934 75.2969Z" fill="#364F3A" stroke="#242F26"/>
<path d="M20.6914 75.2969C21.0053 75.3515 21.4169 75.4273 21.9072 75.5283C23.0996 75.7739 24.756 76.1653 26.6084 76.748C29.5206 77.6643 32.882 79.0436 35.6924 81.0469C33.2665 79.8005 30.6959 78.8001 28.4541 78.042C26.6312 77.4256 25.0145 76.9648 23.8535 76.6582C23.2731 76.5049 22.806 76.3902 22.4834 76.3135C22.3221 76.2751 22.1966 76.2459 22.1113 76.2266C22.0687 76.2169 22.0359 76.21 22.0137 76.2051C22.0026 76.2026 21.9941 76.2005 21.9883 76.1992C21.9854 76.1986 21.983 76.1986 21.9814 76.1982L21.9795 76.1973L21.1729 76.0234L21.3916 76.8184V76.8213C21.392 76.8228 21.3928 76.8253 21.3936 76.8281C21.3951 76.8338 21.3974 76.8419 21.4004 76.8525C21.4065 76.8743 21.4158 76.9065 21.4277 76.9482C21.4515 77.0317 21.4865 77.1547 21.5332 77.3125C21.6268 77.6285 21.767 78.0859 21.9502 78.6543C22.3166 79.7911 22.859 81.3737 23.5654 83.1582C24.4192 85.3148 25.5197 87.7802 26.8418 90.1162C24.7682 87.3658 23.3003 84.0515 22.3057 81.1719C21.6717 79.3364 21.2346 77.6919 20.9561 76.5068C20.8414 76.0191 20.7548 75.6093 20.6914 75.2969Z" fill="#364F3A" stroke="#242F26"/>
<path d="M38.2298 82.5001C44.5992 88.6954 43.1328 97.1241 43.1328 97.1241C43.1328 97.1241 34.7474 98.8233 28.3786 92.628C22.0093 86.4327 20.0684 74.6895 20.0684 74.6895C20.0684 74.6895 31.8604 76.3048 38.2298 82.5001Z" stroke="#242F26" stroke-width="2" stroke-miterlimit="10" stroke-linecap="round" stroke-linejoin="round"/>
<path d="M20.4844 75.0957L43.1312 97.1233" stroke="#242F26" stroke-width="2" stroke-miterlimit="10" stroke-linecap="round" stroke-linejoin="round"/>
<path d="M29.7559 93.8267L37.4513 91.5996" stroke="#242F26" stroke-width="2" stroke-miterlimit="10" stroke-linecap="round" stroke-linejoin="round"/>
<path d="M24.1895 86.8365L30.6358 84.9707" stroke="#242F26" stroke-width="2" stroke-miterlimit="10" stroke-linecap="round" stroke-linejoin="round"/>
<path d="M35.9947 80.6484L34.1621 88.1648" stroke="#242F26" stroke-width="2" stroke-miterlimit="10" stroke-linecap="round" stroke-linejoin="round"/>
<path d="M29.1318 77.0918L27.9141 82.0869" stroke="#242F26" stroke-width="2" stroke-miterlimit="10" stroke-linecap="round" stroke-linejoin="round"/>
<path d="M41.0752 108.377L40.5293 111.385L37.0928 106.743L41.0752 108.377Z" fill="#5B5340" stroke="#5B5340"/>
<path d="M41.6406 108.069L35.625 105.602L40.8148 112.611L41.6406 108.069Z" fill="#5B5340" stroke="#5B5340" stroke-width="2" stroke-miterlimit="10" stroke-linecap="round" stroke-linejoin="round"/>
<path d="M42.8405 58.1C49.5611 60.0822 61.1823 61.9023 61.4621 74.3637C61.4621 74.3637 66.2224 66.523 60.6219 60.3621C60.6219 60.3621 61.4621 52.5214 50.2611 51.961C39.0601 51.4007 42.8405 58.1 42.8405 58.1Z" fill="#364F3A"/>
<path d="M60.6212 60.363C60.6212 60.363 61.0238 56.5607 57.4863 54.0625C58.9815 56.237 58.7429 58.4847 58.7429 58.4847C62.3055 62.4035 61.675 66.9985 60.7452 69.8266C61.1666 71.1608 61.4233 72.6597 61.4615 74.364C61.4615 74.364 66.2217 66.5239 60.6212 60.363Z" fill="#364F3A"/>
<path d="M42.8405 58.1C49.5611 60.0822 61.1823 61.9023 61.4621 74.3637C61.4621 74.3637 66.2224 66.523 60.6219 60.3621C60.6219 60.3621 61.4621 52.5214 50.2611 51.961C39.0601 51.4007 42.8405 58.1 42.8405 58.1Z" stroke="#242F26" stroke-width="2" stroke-miterlimit="10" stroke-linecap="round" stroke-linejoin="round"/>
<path d="M42.8398 58.1003C42.8398 58.1003 53.2006 53.9217 60.6219 60.3625" stroke="#242F26" stroke-width="2" stroke-miterlimit="10" stroke-linecap="round" stroke-linejoin="round"/>
<path d="M39.5693 56.848C32.8486 58.8302 21.2275 60.6503 20.9476 73.1117C20.9476 73.1117 16.1874 65.271 21.7879 59.1101C21.7879 59.1101 20.9476 51.2694 32.1487 50.709C43.3497 50.1493 39.5693 56.848 39.5693 56.848Z" fill="#364F3A"/>
<path d="M21.7879 59.111C21.7879 59.111 21.3853 55.3087 24.9228 52.8105C23.4276 54.985 23.6662 57.2327 23.6662 57.2327C20.1036 61.1515 20.7341 65.7465 21.6639 68.5746C21.2425 69.9088 20.9858 71.4077 20.9476 73.112C20.9476 73.112 16.1874 65.2719 21.7879 59.111Z" fill="#364F3A"/>
<path d="M39.5693 56.848C32.8486 58.8302 21.2275 60.6503 20.9476 73.1117C20.9476 73.1117 16.1874 65.271 21.7879 59.1101C21.7879 59.1101 20.9476 51.2694 32.1487 50.709C43.3497 50.1493 39.5693 56.848 39.5693 56.848Z" stroke="#242F26" stroke-width="2" stroke-miterlimit="10" stroke-linecap="round" stroke-linejoin="round"/>
<path d="M39.5711 56.8484C39.5711 56.8484 29.2103 52.6698 21.7891 59.1105" stroke="#242F26" stroke-width="2" stroke-miterlimit="10" stroke-linecap="round" stroke-linejoin="round"/>
<path d="M44.0947 50.2441V115.5H40.9297V50.2441H44.0947Z" fill="#364F3A" stroke="#364F3A"/>
<path d="M44.5952 49.7441H40.4297V116H44.5952V49.7441Z" fill="#364F3A" stroke="#364F3A" stroke-width="2" stroke-miterlimit="10" stroke-linecap="round" stroke-linejoin="round"/>
<path d="M60.9124 103.446C52.8488 109.838 43.2387 107.08 43.2387 107.08C43.2387 107.08 42.3879 97.3805 50.4508 90.9892C58.5145 84.598 72.439 83.9355 72.439 83.9355C72.439 83.9355 68.976 97.055 60.9124 103.446Z" fill="#364F3A"/>
<path d="M60.9124 103.446C52.8488 109.838 43.2387 107.08 43.2387 107.08C43.2387 107.08 42.3879 97.3805 50.4508 90.9892C58.5145 84.598 72.439 83.9355 72.439 83.9355C72.439 83.9355 68.976 97.055 60.9124 103.446Z" fill="#364F3A"/>
<path d="M50.4506 90.9892C49.7462 91.5471 49.1138 92.1319 48.5391 92.7317C56.7016 87.6934 69.8723 85.7168 69.8723 85.7168C69.8723 85.7168 65.5497 98.0611 58.9124 104.829C59.5848 104.422 60.2535 103.968 60.9121 103.446C68.9758 97.055 72.4387 83.9355 72.4387 83.9355C72.4387 83.9355 58.5142 84.598 50.4506 90.9892Z" fill="#364F3A"/>
<path d="M60.9124 103.446C52.8488 109.838 43.2387 107.08 43.2387 107.08C43.2387 107.08 42.3879 97.3805 50.4508 90.9892C58.5145 84.598 72.439 83.9355 72.439 83.9355C72.439 83.9355 68.976 97.055 60.9124 103.446Z" stroke="#242F26" stroke-width="2" stroke-miterlimit="10" stroke-linecap="round" stroke-linejoin="round"/>
<path d="M71.9095 84.3555L43.2383 107.081" stroke="#242F26" stroke-width="2" stroke-miterlimit="10" stroke-linecap="round" stroke-linejoin="round"/>
<path d="M48.8711 92.3926L50.4288 101.382" stroke="#242F26" stroke-width="2" stroke-miterlimit="10" stroke-linecap="round" stroke-linejoin="round"/>
<path d="M55.0971 106.597L47.6777 103.811" stroke="#242F26" stroke-width="2" stroke-miterlimit="10" stroke-linecap="round" stroke-linejoin="round"/>
<path d="M57.752 87.0117L59.0568 94.5419" stroke="#242F26" stroke-width="2" stroke-miterlimit="10" stroke-linecap="round" stroke-linejoin="round"/>
<path d="M63.3666 101.162L54.8672 98.1094" stroke="#242F26" stroke-width="2" stroke-miterlimit="10" stroke-linecap="round" stroke-linejoin="round"/>
<path d="M66.4551 84.6777L66.9666 88.2741" stroke="#242F26" stroke-width="2" stroke-miterlimit="10" stroke-linecap="round" stroke-linejoin="round"/>
<path d="M68.4254 93.8698L62.7773 91.8418" stroke="#242F26" stroke-width="2" stroke-miterlimit="10" stroke-linecap="round" stroke-linejoin="round"/>
<path d="M33.7111 55.581C31.2349 56.6729 26.4314 59.4271 26.4064 65.181C26.3769 71.9636 32.3544 75.4072 32.3544 75.4072C32.3544 75.4072 30.7891 65.9111 33.7111 64.5549C36.6332 63.1982 43.7288 61.529 44.2504 54.7458C44.2504 54.7458 39.1476 53.1843 33.7111 55.581Z" fill="#364F3A"/>
<path d="M27.0318 67.0593C27.0569 61.3048 31.8604 58.5505 34.3366 57.4592C38.3938 55.6705 42.2625 56.0868 43.9661 56.413C44.1057 55.894 44.2047 55.3405 44.2504 54.7463C44.2504 54.7463 39.1476 53.1842 33.7111 55.5809C31.2349 56.6729 26.4314 59.4271 26.4064 65.181C26.3988 66.8953 26.7764 68.3942 27.343 69.6802C27.1477 68.8688 27.0281 67.9997 27.0318 67.0593Z" fill="#364F3A"/>
<path d="M33.7111 55.5812C31.2349 56.6731 26.4314 59.4273 26.4064 65.1811C26.3769 71.9637 32.3544 75.4072 32.3544 75.4072C32.3544 75.4072 30.7891 65.9112 33.7111 64.555C36.6332 63.1983 43.7288 61.5291 44.2504 54.746C44.2504 54.746 39.1476 53.1845 33.7111 55.5812Z" stroke="#242F26" stroke-width="2" stroke-miterlimit="10" stroke-linecap="round" stroke-linejoin="round"/>
<path d="M29.8496 67.8937C29.8496 67.8937 31.793 65.3442 33.7108 64.5547" stroke="#242F26" stroke-width="2" stroke-miterlimit="10" stroke-linecap="round" stroke-linejoin="round"/>
<path d="M43.2589 54.6718C42.4706 59.7264 42.6165 61.4569 45.7884 67.507C48.9602 73.5564 48.0536 76.3826 48.0536 76.3826C48.0536 76.3826 58.7876 64.5918 49.1286 55.4069C47.8132 54.1559 43.2589 54.6718 43.2589 54.6718Z" fill="#364F3A"/>
<path d="M51.2122 57.875C53.8413 64.1649 49.8787 70.6006 47.9434 73.1989C48.3785 75.3452 48.0542 76.3827 48.0542 76.3827C48.0542 76.3827 56.9793 66.5703 51.2122 57.875Z" fill="#364F3A"/>
<path d="M43.2589 54.6718C42.4706 59.7264 42.6165 61.4569 45.7884 67.507C48.9602 73.5564 48.0536 76.3826 48.0536 76.3826C48.0536 76.3826 58.7876 64.5918 49.1286 55.4069C47.8132 54.1559 43.2589 54.6718 43.2589 54.6718Z" stroke="#242F26" stroke-width="2" stroke-miterlimit="10" stroke-linecap="round" stroke-linejoin="round"/>
<path d="M42.5117 81.1452L48.5273 78.6777L43.3382 85.687L42.5117 81.1452Z" fill="#5B5340"/>
<path d="M42.5117 81.1452L48.5273 78.6777L43.3382 85.687L42.5117 81.1452Z" fill="#5B5340" stroke="#5B5340" stroke-width="2" stroke-miterlimit="10" stroke-linecap="round" stroke-linejoin="round"/>
<path d="M19.3863 31.2949C19.2091 32.2078 19.1458 60.2341 45.5237 58.1354C45.5237 58.1354 51.3496 52.8079 49.8331 47.0509C48.3167 41.2938 46.198 39.8049 43.4775 37.6599C40.7565 35.5149 19.3863 31.2949 19.3863 31.2949Z" fill="#1F2424"/>
<path d="M19.3863 31.2949C19.2091 32.2078 19.1458 60.2341 45.5237 58.1354C45.5237 58.1354 51.3496 52.8079 49.8331 47.0509C48.3167 41.2938 46.198 39.8049 43.4775 37.6599C40.7565 35.5149 19.3863 31.2949 19.3863 31.2949Z" stroke="#181C19" stroke-width="2" stroke-miterlimit="10" stroke-linecap="round" stroke-linejoin="round"/>
<path d="M43.3307 47.392C35.3234 40.2656 22.1483 30.6386 28.4801 26.3999C34.8125 22.1605 51.3931 22.8148 56.1709 21.3522C60.948 19.8897 63.4168 19.5059 63.4168 19.5059C63.4168 19.5059 68.5809 25.6617 58.8124 37.1126C49.0433 48.5628 43.3307 47.392 43.3307 47.392Z" fill="#1F2424"/>
<path d="M41.527 58.4465C41.527 58.4465 37.2094 55.3535 42.485 49.2196C47.7599 43.0856 62.3663 32.2822 67.0997 30.377C67.0997 30.377 67.0652 43.1025 62.3219 49.6416C53.4312 61.8988 41.527 58.4465 41.527 58.4465Z" fill="#1F2424"/>
<path d="M41.527 58.4465C41.527 58.4465 37.2094 55.3535 42.485 49.2196C47.7599 43.0856 62.3663 32.2822 67.0997 30.377C67.0997 30.377 67.0652 43.1025 62.3219 49.6416C53.4312 61.8988 41.527 58.4465 41.527 58.4465Z" stroke="#181C19" stroke-width="2" stroke-miterlimit="10" stroke-linecap="round" stroke-linejoin="round"/>
<path d="M59.0768 14.7654C58.4069 18.2554 61.7415 23.1233 58.956 29.0413C56.1704 34.9592 45.6005 44.0728 42.4844 49.2188C42.4844 49.2188 50.8297 41.4914 57.9066 38.8148C64.9835 36.1382 73.5235 30.3605 70.4531 24.1326C70.4531 24.1326 74.2329 17.7457 71.3428 12.7638C67.841 6.7275 59.6948 11.5466 59.0768 14.7654Z" fill="#1F2424"/>
<path d="M71.3428 12.7644C70.1783 10.7572 68.4997 9.95511 66.7554 9.89062C67.645 10.3433 68.4527 11.0865 69.1014 12.2041C71.9915 17.186 68.2117 23.5729 68.2117 23.5729C71.2827 29.8008 62.7426 35.5785 55.6651 38.2551C53.12 39.218 50.4127 40.834 47.9866 42.5088C45.6644 45.0345 43.5976 47.3812 42.4844 49.22C42.4844 49.22 50.8297 41.4927 57.9066 38.8161C64.9835 36.1395 73.5235 30.3618 70.4531 24.1339C70.4531 24.1339 74.2329 17.7457 71.3428 12.7644Z" fill="#1F2424"/>
<path d="M59.0768 14.7654C58.4069 18.2554 61.7415 23.1233 58.956 29.0413C56.1704 34.9592 45.6005 44.0728 42.4844 49.2188C42.4844 49.2188 50.8297 41.4914 57.9066 38.8148C64.9835 36.1382 73.5235 30.3605 70.4531 24.1326C70.4531 24.1326 74.2329 17.7457 71.3428 12.7638C67.841 6.7275 59.6948 11.5466 59.0768 14.7654Z" stroke="#181C19" stroke-width="2" stroke-miterlimit="10" stroke-linecap="round" stroke-linejoin="round"/>
<path d="M63.8048 16.2136C63.8048 16.2136 68.5106 11.3456 65.1778 6.66546C61.8451 1.98532 54.1515 4.72391 54.1515 4.72391C54.1515 4.72391 53.203 1.50635 46.9807 1.0543C40.7585 0.602257 34.2883 3.03906 30.9023 5.88408C30.9023 5.88408 49.4538 8.77418 53.5129 10.8754C57.5732 12.976 63.8048 16.2136 63.8048 16.2136Z" fill="#1F2424"/>
<path d="M65.1778 6.66546C61.8451 1.98532 54.1515 4.72391 54.1515 4.72391C54.1515 4.72391 53.203 1.50635 46.9807 1.0543C40.7585 0.602257 34.2883 3.03906 30.9023 5.88408C30.9023 5.88408 31.1246 5.91914 31.5078 5.9805C35.101 3.8868 40.2801 2.37038 45.3003 2.7354C51.5225 3.18745 52.4704 6.405 52.4704 6.405C52.4704 6.405 60.164 3.66642 63.4967 8.34655C65.5554 11.2379 64.5461 14.1994 63.4742 16.042C63.6852 16.1516 63.8048 16.2136 63.8048 16.2136C63.8048 16.2136 68.5106 11.3456 65.1778 6.66546Z" fill="#1F2424"/>
<path d="M63.8048 16.2136C63.8048 16.2136 68.5106 11.3456 65.1778 6.66546C61.8451 1.98532 54.1515 4.72391 54.1515 4.72391C54.1515 4.72391 53.203 1.50635 46.9807 1.0543C40.7585 0.602257 34.2883 3.03906 30.9023 5.88408C30.9023 5.88408 49.4538 8.77418 53.5129 10.8754C57.5732 12.976 63.8048 16.2136 63.8048 16.2136Z" stroke="#181C19" stroke-width="2" stroke-miterlimit="10" stroke-linecap="round" stroke-linejoin="round"/>
<path d="M56.8759 18.4181C57.1783 18.4669 55.9374 12.0074 52.2458 8.56883C48.5543 5.13027 40.8758 4.2318 33.4082 7.67538C33.4082 7.67538 39.8809 12.1426 44.3594 13.778C48.8386 15.4134 56.8759 18.4181 56.8759 18.4181Z" fill="#272F44"/>
<path d="M56.8759 18.4181C57.1783 18.4669 55.9374 12.0074 52.2458 8.56883C48.5543 5.13027 40.8758 4.2318 33.4082 7.67538C33.4082 7.67538 39.8809 12.1426 44.3594 13.778C48.8386 15.4134 56.8759 18.4181 56.8759 18.4181Z" stroke="#1D2225" stroke-width="2" stroke-miterlimit="10" stroke-linecap="round" stroke-linejoin="round"/>
<path d="M18.4411 24.001L16.6843 13.2132C16.6843 13.2132 13.3678 7.43052 22.7205 6.43313C22.7205 6.43313 28.3937 1.38986 35.4843 5.15713C42.575 8.92441 42.3189 11.7387 42.3189 11.7387C42.3189 11.7387 40.46 16.4752 37.0076 21.2975C33.5553 26.1204 26.9205 30.5419 26.9205 30.5419L18.4411 24.001Z" fill="#272F44"/>
<path d="M17.8052 16.0144C17.8052 16.0144 14.4881 10.2317 23.8415 9.23433C23.8415 9.23433 29.5146 4.19105 36.6053 7.95833C39.5655 9.5311 41.2422 10.9367 42.1945 12.0418C42.274 11.8521 42.3191 11.7387 42.3191 11.7387C42.3191 11.7387 42.5752 8.92441 35.4845 5.15713C28.3939 1.38986 22.7207 6.43313 22.7207 6.43313C13.3674 7.43115 16.6845 13.2132 16.6845 13.2132L18.4413 24.001L19.2014 24.5871L17.8052 16.0144Z" fill="#272F44"/>
<path d="M18.4411 24.001L16.6843 13.2132C16.6843 13.2132 13.3678 7.43052 22.7205 6.43313C22.7205 6.43313 28.3937 1.38986 35.4843 5.15713C42.575 8.92441 42.3189 11.7387 42.3189 11.7387C42.3189 11.7387 40.46 16.4752 37.0076 21.2975C33.5553 26.1204 26.9205 30.5419 26.9205 30.5419L18.4411 24.001Z" stroke="#1D2225" stroke-width="2" stroke-miterlimit="10" stroke-linecap="round" stroke-linejoin="round"/>
<path d="M47.2361 44.8037C47.2361 44.8037 47.4402 36.0995 39.1174 33.4405C30.7946 30.7808 23.6063 26.934 22.1531 21.3498C20.6999 15.7655 18.9537 14.4181 16.6847 13.2129C16.6847 13.2129 13.9017 15.8187 16.6046 20.472C16.6046 20.472 11.1355 23.9725 16.006 30.603C20.8765 37.2334 33.2877 37.5477 38.4882 38.7849C45.6408 40.4873 47.2361 44.8037 47.2361 44.8037Z" fill="#1F2424"/>
<path d="M19.3518 17.9884C19.884 20.0339 21.1838 21.8596 23.0252 23.4787C22.642 22.7987 22.3458 22.09 22.1536 21.3506C20.979 16.8388 19.6135 15.0933 17.9355 13.9531C18.4389 14.9837 18.9091 16.2879 19.3518 17.9884Z" fill="#1F2424"/>
<path d="M47.2012 44.7188C47.2245 44.7724 47.2365 44.804 47.2365 44.804C47.2365 44.804 47.2365 44.7889 47.2372 44.7655C47.2245 44.7503 47.2125 44.7345 47.2012 44.7188Z" fill="#1F2424"/>
<path d="M35.6874 35.4238C31.0774 34.3269 20.8036 33.9512 15.1367 29.2617C15.3815 29.6944 15.6664 30.1408 16.0064 30.6041C20.8769 37.2345 33.2881 37.5488 38.4886 38.786C41.301 39.4553 43.2514 40.5285 44.5862 41.5847C42.1169 38.8925 38.9569 36.2015 35.6874 35.4238Z" fill="#1F2424"/>
<path d="M47.2361 44.8037C47.2361 44.8037 47.4402 36.0995 39.1174 33.4405C30.7946 30.7808 23.6063 26.934 22.1531 21.3498C20.6999 15.7655 18.9537 14.4181 16.6847 13.2129C16.6847 13.2129 13.9017 15.8187 16.6046 20.472C16.6046 20.472 11.1355 23.9725 16.006 30.603C20.8765 37.2334 33.2877 37.5477 38.4882 38.7849C45.6408 40.4873 47.2361 44.8037 47.2361 44.8037Z" stroke="#181C19" stroke-width="2" stroke-miterlimit="10" stroke-linecap="round" stroke-linejoin="round"/>
<path d="M51.3071 17.4628C51.3071 17.4628 51.2164 14.8651 47.0822 11.9656C42.948 9.06673 36.9762 11.1229 36.1153 12.3594C36.1153 12.3594 30.9406 10.7416 29.2019 13.0506C27.4632 15.3597 37.0532 19.0556 42.5223 19.1358C47.9913 19.2159 51.3071 17.4628 51.3071 17.4628Z" fill="#405182"/>
<path d="M51.3071 17.4628C51.3071 17.4628 51.2164 14.8651 47.0822 11.9656C42.948 9.06673 36.9762 11.1229 36.1153 12.3594C36.1153 12.3594 30.9406 10.7416 29.2019 13.0506C27.4632 15.3597 37.0532 19.0556 42.5223 19.1358C47.9913 19.2159 51.3071 17.4628 51.3071 17.4628Z" stroke="#1D2225" stroke-width="2" stroke-miterlimit="10" stroke-linecap="round" stroke-linejoin="round"/>
<path d="M40.9437 17.681C40.9437 17.681 33.1819 16.7832 30.7257 12.0467C30.7257 12.0467 28.8186 9.22482 25.5659 9.81837C22.3133 10.4119 23.8874 15.4157 26.9647 15.7501C26.9647 15.7501 26.5577 22.425 41.3469 21.7106L40.9437 17.681Z" fill="#405182"/>
<path d="M29.7665 15.1896C27.1512 14.9053 25.6336 11.2564 27.2301 9.8007C26.7236 9.71617 26.1682 9.70803 25.5659 9.8176C22.3133 10.4112 23.8874 15.415 26.9647 15.7493C26.9647 15.7493 26.5577 22.4242 41.3469 21.7098L41.2956 21.1933C29.4209 20.9685 29.7665 15.1896 29.7665 15.1896Z" fill="#405182"/>
<path d="M40.9437 17.681C40.9437 17.681 33.1819 16.7832 30.7257 12.0467C30.7257 12.0467 28.8186 9.22482 25.5659 9.81837C22.3133 10.4119 23.8874 15.4157 26.9647 15.7501C26.9647 15.7501 26.5577 22.425 41.3469 21.7106L40.9437 17.681Z" stroke="#1D2225" stroke-width="2" stroke-miterlimit="10" stroke-linecap="round" stroke-linejoin="round"/>
<path d="M56.9834 16.9312C56.9834 16.9312 47.342 12.7225 37.3594 16.744C37.3594 16.744 38.1176 21.6457 43.8202 22.2725C49.5227 22.8992 57.4029 21.1323 57.4029 21.1323C57.4029 21.1323 59.0577 19.7705 56.9834 16.9312Z" fill="#405182"/>
<path d="M40.7216 18.425C47.3639 15.7491 53.851 16.717 57.4511 17.6643C57.3203 17.4308 57.1719 17.1891 56.9834 16.9312C56.9834 16.9312 47.342 12.7225 37.3594 16.744C37.3594 16.744 38.0306 21.0685 42.8397 22.1128C41.0515 20.4912 40.7216 18.425 40.7216 18.425Z" fill="#405182"/>
<path d="M56.9834 16.9309C56.9834 16.9309 46.9876 12.7579 37.3594 16.7437C37.3594 16.7437 38.1176 21.6455 43.8202 22.2722C49.5227 22.899 57.4029 21.1321 57.4029 21.1321C57.4029 21.1321 59.0577 19.7703 56.9834 16.9309Z" stroke="#1D2225" stroke-width="2" stroke-miterlimit="10" stroke-linecap="round" stroke-linejoin="round"/>
<path d="M29.1035 29.1301C29.1455 28.7156 33.6785 20.9857 41.7615 21.7151C49.8445 22.4451 56.2439 19.5588 56.7198 15.6081C56.9865 13.3948 55.6003 11.9241 55.6003 11.9241C55.6003 11.9241 61.8908 10.5779 64.4615 16.2667C67.033 21.9555 61.0862 27.5736 55.0086 25.2081C55.0086 25.2081 50.7041 30.5595 45.1224 28.1439C39.5413 25.7291 29.1035 29.1301 29.1035 29.1301Z" fill="#272F44"/>
<path d="M64.4617 16.2667C63.0029 13.0385 60.3469 12.0768 58.3221 11.8477C59.7928 12.4481 61.2642 13.5901 62.2209 15.7063C64.7923 21.3958 59.5581 25.7052 53.4804 23.3398C53.4804 23.3398 49.9348 27.2549 45.2578 28.1965C50.7738 30.468 55.0094 25.2075 55.0094 25.2075C61.0864 27.5735 67.0331 21.9555 64.4617 16.2667Z" fill="#272F44"/>
<path d="M29.1035 29.1301C29.1455 28.7156 33.6785 20.9857 41.7615 21.7151C49.8445 22.4451 55.9691 19.5162 56.7198 15.6081C57.0992 13.6308 55.6003 11.9241 55.6003 11.9241C55.6003 11.9241 61.8908 10.5779 64.4615 16.2667C67.033 21.9555 61.0862 27.5736 55.0086 25.2081C55.0086 25.2081 50.7041 30.5595 45.1224 28.1439C39.5413 25.7291 29.1035 29.1301 29.1035 29.1301Z" stroke="#1D2225" stroke-width="2" stroke-miterlimit="10" stroke-linecap="round" stroke-linejoin="round"/>
<path d="M0 123.803H16.7661V147.912H0L3.11927 135.638L0 123.803Z" fill="#5B5340"/>
<path d="M85 123.805H68.2339V147.914H85L81.8807 135.64L85 123.805Z" fill="#5B5340"/>
<rect x="8.70898" y="117.229" width="67.5841" height="24.1097" fill="#BFB39A"/>
<path d="M25.2865 135.229C25.2865 134.663 25.3718 134.162 25.5425 133.725C25.7238 133.287 25.9638 132.887 26.2625 132.525C26.5612 132.151 26.8972 131.794 27.2705 131.453C27.6545 131.101 28.0438 130.733 28.4385 130.349C29.1318 129.687 29.6332 129.074 29.9425 128.509C30.2518 127.943 30.4065 127.399 30.4065 126.877C30.4065 126.471 30.3478 126.082 30.2305 125.709C30.1238 125.325 29.9265 125.01 29.6385 124.765C29.3505 124.519 28.9505 124.397 28.4385 124.397C28.0012 124.397 27.6118 124.509 27.2705 124.733C26.9292 124.946 26.6998 125.213 26.5825 125.533C26.6892 125.639 26.7638 125.757 26.8065 125.885C26.8492 126.002 26.8705 126.119 26.8705 126.237C26.8705 126.333 26.8438 126.439 26.7905 126.557C26.7478 126.674 26.6678 126.775 26.5505 126.861C26.4332 126.946 26.2785 126.989 26.0865 126.989C25.8518 126.978 25.6705 126.887 25.5425 126.717C25.4145 126.546 25.3505 126.343 25.3505 126.109C25.3505 125.885 25.4198 125.639 25.5585 125.373C25.6972 125.095 25.9052 124.839 26.1825 124.605C26.4705 124.359 26.8225 124.162 27.2385 124.013C27.6545 123.853 28.1398 123.773 28.6945 123.773C29.1212 123.773 29.5318 123.826 29.9265 123.933C30.3318 124.029 30.6945 124.189 31.0145 124.413C31.3345 124.637 31.5852 124.935 31.7665 125.309C31.9585 125.671 32.0545 126.125 32.0545 126.669C32.0545 126.935 31.9958 127.223 31.8785 127.533C31.7718 127.842 31.5905 128.178 31.3345 128.541C31.0892 128.893 30.7692 129.271 30.3745 129.677C29.9798 130.071 29.4945 130.503 28.9185 130.973C28.1932 131.57 27.5958 132.135 27.1265 132.669C26.6678 133.191 26.4012 133.639 26.3265 134.013L29.1585 134.093C29.6812 134.103 30.1398 134.103 30.5345 134.093C30.9398 134.082 31.2545 134.002 31.4785 133.853C31.7132 133.693 31.8305 133.405 31.8305 132.989H32.3105L32.2145 135.229H25.2865ZM39.2403 135.485C38.4296 135.485 37.7576 135.314 37.2243 134.973C36.6909 134.621 36.2749 134.162 35.9763 133.597C35.6776 133.021 35.4643 132.391 35.3363 131.709C35.2189 131.026 35.1603 130.349 35.1603 129.677C35.1603 129.005 35.2349 128.322 35.3843 127.629C35.5443 126.935 35.7896 126.301 36.1203 125.725C36.4509 125.138 36.8776 124.669 37.4003 124.317C37.9229 123.954 38.5576 123.773 39.3043 123.773C40.0829 123.773 40.7283 123.949 41.2403 124.301C41.7629 124.653 42.1736 125.117 42.4723 125.693C42.7816 126.258 43.0003 126.882 43.1283 127.565C43.2563 128.247 43.3203 128.925 43.3203 129.597C43.3203 130.258 43.2456 130.935 43.0963 131.629C42.9469 132.322 42.7123 132.962 42.3923 133.549C42.0723 134.125 41.6509 134.594 41.1283 134.957C40.6163 135.309 39.9869 135.485 39.2403 135.485ZM39.3363 134.861C39.7949 134.861 40.1736 134.717 40.4723 134.429C40.7709 134.141 41.0056 133.757 41.1763 133.277C41.3576 132.797 41.4856 132.269 41.5603 131.693C41.6349 131.106 41.6723 130.519 41.6723 129.933C41.6723 129.282 41.6349 128.631 41.5603 127.981C41.4856 127.33 41.3576 126.733 41.1763 126.189C40.9949 125.645 40.7496 125.207 40.4403 124.877C40.1309 124.546 39.7416 124.381 39.2723 124.381C38.8136 124.381 38.4243 124.525 38.1043 124.813C37.7949 125.101 37.5443 125.485 37.3523 125.965C37.1603 126.445 37.0216 126.978 36.9363 127.565C36.8509 128.151 36.8083 128.743 36.8083 129.341C36.8083 129.789 36.8296 130.263 36.8723 130.765C36.9149 131.266 36.9896 131.762 37.0963 132.253C37.2136 132.733 37.3683 133.17 37.5603 133.565C37.7523 133.959 37.9923 134.274 38.2803 134.509C38.5683 134.743 38.9203 134.861 39.3363 134.861ZM45.9484 135.229C45.9484 134.663 46.0337 134.162 46.2044 133.725C46.3857 133.287 46.6257 132.887 46.9244 132.525C47.2231 132.151 47.5591 131.794 47.9324 131.453C48.3164 131.101 48.7057 130.733 49.1004 130.349C49.7937 129.687 50.2951 129.074 50.6044 128.509C50.9137 127.943 51.0684 127.399 51.0684 126.877C51.0684 126.471 51.0097 126.082 50.8924 125.709C50.7857 125.325 50.5884 125.01 50.3004 124.765C50.0124 124.519 49.6124 124.397 49.1004 124.397C48.6631 124.397 48.2737 124.509 47.9324 124.733C47.5911 124.946 47.3617 125.213 47.2444 125.533C47.3511 125.639 47.4257 125.757 47.4684 125.885C47.5111 126.002 47.5324 126.119 47.5324 126.237C47.5324 126.333 47.5057 126.439 47.4524 126.557C47.4097 126.674 47.3297 126.775 47.2124 126.861C47.0951 126.946 46.9404 126.989 46.7484 126.989C46.5137 126.978 46.3324 126.887 46.2044 126.717C46.0764 126.546 46.0124 126.343 46.0124 126.109C46.0124 125.885 46.0817 125.639 46.2204 125.373C46.3591 125.095 46.5671 124.839 46.8444 124.605C47.1324 124.359 47.4844 124.162 47.9004 124.013C48.3164 123.853 48.8017 123.773 49.3564 123.773C49.7831 123.773 50.1937 123.826 50.5884 123.933C50.9937 124.029 51.3564 124.189 51.6764 124.413C51.9964 124.637 52.2471 124.935 52.4284 125.309C52.6204 125.671 52.7164 126.125 52.7164 126.669C52.7164 126.935 52.6577 127.223 52.5404 127.533C52.4337 127.842 52.2524 128.178 51.9964 128.541C51.7511 128.893 51.4311 129.271 51.0364 129.677C50.6417 130.071 50.1564 130.503 49.5804 130.973C48.8551 131.57 48.2577 132.135 47.7884 132.669C47.3297 133.191 47.0631 133.639 46.9884 134.013L49.8204 134.093C50.3431 134.103 50.8017 134.103 51.1964 134.093C51.6017 134.082 51.9164 134.002 52.1404 133.853C52.3751 133.693 52.4924 133.405 52.4924 132.989H52.9724L52.8764 135.229H45.9484ZM56.1101 135.229V134.701C56.4835 134.679 56.7661 134.594 56.9581 134.445C57.1608 134.295 57.2995 134.087 57.3741 133.821C57.4595 133.554 57.5021 133.239 57.5021 132.877L57.4541 125.325L55.5341 126.557L55.2141 126.093L58.3341 123.773H58.8781L58.8941 133.485C58.8941 133.687 58.8888 133.885 58.8781 134.077C58.8781 134.269 58.8675 134.439 58.8461 134.589C59.0701 134.578 59.2941 134.567 59.5181 134.557C59.7421 134.546 59.9661 134.535 60.1901 134.525V135.229H56.1101Z" fill="black"/>
</svg>
