<svg width="85" height="148" viewBox="0 0 85 148" fill="none" xmlns="http://www.w3.org/2000/svg">
<path d="M19.7832 75.2969C20.0971 75.3516 20.5087 75.4273 20.999 75.5283C22.1914 75.7739 23.8478 76.1651 25.7002 76.748C29.4187 77.9182 33.8699 79.8424 36.9707 82.8584C40.0555 85.8589 41.2466 89.402 41.665 92.209C41.8742 93.6121 41.8894 94.8267 41.8525 95.6885C41.8342 96.1174 41.8028 96.4585 41.7764 96.6904C41.5452 96.7232 41.2053 96.7637 40.7773 96.7939C39.9169 96.8547 38.7024 96.8733 37.2939 96.7031C34.4763 96.3626 30.9018 95.2699 27.8174 92.2695C24.7165 89.2534 22.6701 84.8567 21.3975 81.1719C20.7636 79.3364 20.3264 77.6919 20.0479 76.5068C19.9332 76.0191 19.8466 75.6093 19.7832 75.2969Z" fill="#364F3A" stroke="#242F26"/>
<path d="M19.7832 75.2969C20.0971 75.3516 20.5087 75.4273 20.999 75.5283C22.1914 75.7739 23.8478 76.1651 25.7002 76.748C29.4187 77.9182 33.8699 79.8424 36.9707 82.8584C40.0555 85.8589 41.2466 89.402 41.665 92.209C41.8742 93.6121 41.8894 94.8267 41.8525 95.6885C41.8342 96.1174 41.8028 96.4585 41.7764 96.6904C41.5452 96.7232 41.2053 96.7637 40.7773 96.7939C39.9169 96.8547 38.7024 96.8733 37.2939 96.7031C34.4763 96.3626 30.9018 95.2699 27.8174 92.2695C24.7165 89.2534 22.6701 84.8567 21.3975 81.1719C20.7636 79.3364 20.3264 77.6919 20.0479 76.5068C19.9332 76.0191 19.8466 75.6093 19.7832 75.2969Z" fill="#364F3A" stroke="#242F26"/>
<path d="M19.7812 75.2969C20.0952 75.3515 20.5067 75.4273 20.9971 75.5283C22.1894 75.7739 23.8459 76.1653 25.6982 76.748C28.6104 77.6643 31.9719 79.0436 34.7822 81.0469C32.3563 79.8005 29.7858 78.8001 27.5439 78.042C25.721 77.4256 24.1043 76.9648 22.9434 76.6582C22.363 76.5049 21.8959 76.3902 21.5732 76.3135C21.4119 76.2751 21.2865 76.2459 21.2012 76.2266C21.1585 76.2169 21.1257 76.21 21.1035 76.2051C21.0924 76.2026 21.0839 76.2005 21.0781 76.1992C21.0753 76.1986 21.0728 76.1986 21.0713 76.1982L21.0693 76.1973L20.2627 76.0234L20.4814 76.8184V76.8213C20.4819 76.8228 20.4826 76.8253 20.4834 76.8281C20.485 76.8338 20.4873 76.8419 20.4902 76.8525C20.4963 76.8743 20.5057 76.9065 20.5176 76.9482C20.5414 77.0317 20.5763 77.1547 20.623 77.3125C20.7166 77.6285 20.8568 78.0859 21.04 78.6543C21.4064 79.7911 21.9488 81.3737 22.6553 83.1582C23.5091 85.3148 24.6096 87.7802 25.9316 90.1162C23.858 87.3658 22.3902 84.0515 21.3955 81.1719C20.7615 79.3364 20.3245 77.6919 20.0459 76.5068C19.9312 76.0191 19.8446 75.6093 19.7812 75.2969Z" fill="#364F3A" stroke="#242F26"/>
<path d="M37.3196 82.5001C43.689 88.6954 42.2227 97.1241 42.2227 97.1241C42.2227 97.1241 33.8372 98.8233 27.4685 92.628C21.0991 86.4327 19.1582 74.6895 19.1582 74.6895C19.1582 74.6895 30.9503 76.3048 37.3196 82.5001Z" stroke="#242F26" stroke-width="2" stroke-miterlimit="10" stroke-linecap="round" stroke-linejoin="round"/>
<path d="M19.5742 75.0957L42.2211 97.1233" stroke="#242F26" stroke-width="2" stroke-miterlimit="10" stroke-linecap="round" stroke-linejoin="round"/>
<path d="M28.8457 93.8267L36.5412 91.5996" stroke="#242F26" stroke-width="2" stroke-miterlimit="10" stroke-linecap="round" stroke-linejoin="round"/>
<path d="M23.2793 86.8365L29.7257 84.9707" stroke="#242F26" stroke-width="2" stroke-miterlimit="10" stroke-linecap="round" stroke-linejoin="round"/>
<path d="M35.0846 80.6484L33.252 88.1648" stroke="#242F26" stroke-width="2" stroke-miterlimit="10" stroke-linecap="round" stroke-linejoin="round"/>
<path d="M28.2217 77.0928L27.0039 82.0878" stroke="#242F26" stroke-width="2" stroke-miterlimit="10" stroke-linecap="round" stroke-linejoin="round"/>
<path d="M40.165 108.378L39.6191 111.386L36.1826 106.744L40.165 108.378Z" fill="#5B5340" stroke="#5B5340"/>
<path d="M40.7305 108.07L34.7148 105.603L39.9046 112.612L40.7305 108.07Z" fill="#5B5340" stroke="#5B5340" stroke-width="2" stroke-miterlimit="10" stroke-linecap="round" stroke-linejoin="round"/>
<path d="M41.9304 58.101C48.651 60.0832 60.2721 61.9033 60.552 74.3647C60.552 74.3647 65.3122 66.524 59.7117 60.3631C59.7117 60.3631 60.552 52.5224 49.3509 51.962C38.1499 51.4016 41.9304 58.101 41.9304 58.101Z" fill="#364F3A"/>
<path d="M59.7111 60.363C59.7111 60.363 60.1137 56.5607 56.5762 54.0625C58.0713 56.237 57.8328 58.4847 57.8328 58.4847C61.3953 62.4035 60.7648 66.9985 59.835 69.8266C60.2564 71.1608 60.5131 72.6597 60.5513 74.364C60.5513 74.364 65.3116 66.5239 59.7111 60.363Z" fill="#364F3A"/>
<path d="M41.9304 58.101C48.651 60.0832 60.2721 61.9033 60.552 74.3647C60.552 74.3647 65.3122 66.524 59.7117 60.3631C59.7117 60.3631 60.552 52.5224 49.3509 51.962C38.1499 51.4016 41.9304 58.101 41.9304 58.101Z" stroke="#242F26" stroke-width="2" stroke-miterlimit="10" stroke-linecap="round" stroke-linejoin="round"/>
<path d="M41.9297 58.1013C41.9297 58.1013 52.2905 53.9227 59.7117 60.3634" stroke="#242F26" stroke-width="2" stroke-miterlimit="10" stroke-linecap="round" stroke-linejoin="round"/>
<path d="M38.6591 56.8489C31.9385 58.8312 20.3173 60.6513 20.0375 73.1127C20.0375 73.1127 15.2772 65.2719 20.8777 59.1111C20.8777 59.1111 20.0375 51.2703 31.2385 50.71C42.4395 50.1502 38.6591 56.8489 38.6591 56.8489Z" fill="#364F3A"/>
<path d="M20.8777 59.111C20.8777 59.111 20.4751 55.3087 24.0126 52.8105C22.5175 54.985 22.756 57.2327 22.756 57.2327C19.1935 61.1515 19.824 65.7465 20.7537 68.5746C20.3324 69.9088 20.0757 71.4077 20.0375 73.112C20.0375 73.112 15.2772 65.2719 20.8777 59.111Z" fill="#364F3A"/>
<path d="M38.6591 56.8489C31.9385 58.8312 20.3173 60.6513 20.0375 73.1127C20.0375 73.1127 15.2772 65.2719 20.8777 59.1111C20.8777 59.1111 20.0375 51.2703 31.2385 50.71C42.4395 50.1502 38.6591 56.8489 38.6591 56.8489Z" stroke="#242F26" stroke-width="2" stroke-miterlimit="10" stroke-linecap="round" stroke-linejoin="round"/>
<path d="M38.6609 56.8494C38.6609 56.8494 28.3001 52.6707 20.8789 59.1115" stroke="#242F26" stroke-width="2" stroke-miterlimit="10" stroke-linecap="round" stroke-linejoin="round"/>
<path d="M43.1846 50.2451V115.501H40.0195V50.2451H43.1846Z" fill="#364F3A" stroke="#364F3A"/>
<path d="M43.685 49.7451H39.5195V116.001H43.685V49.7451Z" fill="#364F3A" stroke="#364F3A" stroke-width="2" stroke-miterlimit="10" stroke-linecap="round" stroke-linejoin="round"/>
<path d="M60.0023 103.446C51.9387 109.838 42.3286 107.08 42.3286 107.08C42.3286 107.08 41.4777 97.3805 49.5407 90.9892C57.6043 84.598 71.5289 83.9355 71.5289 83.9355C71.5289 83.9355 68.0659 97.055 60.0023 103.446Z" fill="#364F3A"/>
<path d="M60.0023 103.446C51.9387 109.838 42.3286 107.08 42.3286 107.08C42.3286 107.08 41.4777 97.3805 49.5407 90.9892C57.6043 84.598 71.5289 83.9355 71.5289 83.9355C71.5289 83.9355 68.0659 97.055 60.0023 103.446Z" fill="#364F3A"/>
<path d="M49.5404 90.9892C48.836 91.5471 48.2037 92.1319 47.6289 92.7317C55.7914 87.6934 68.9622 85.7168 68.9622 85.7168C68.9622 85.7168 64.6396 98.0611 58.0022 104.829C58.6746 104.422 59.3433 103.968 60.002 103.446C68.0656 97.055 71.5286 83.9355 71.5286 83.9355C71.5286 83.9355 57.604 84.598 49.5404 90.9892Z" fill="#364F3A"/>
<path d="M60.0023 103.446C51.9387 109.838 42.3286 107.08 42.3286 107.08C42.3286 107.08 41.4777 97.3805 49.5407 90.9892C57.6043 84.598 71.5289 83.9355 71.5289 83.9355C71.5289 83.9355 68.0659 97.055 60.0023 103.446Z" stroke="#242F26" stroke-width="2" stroke-miterlimit="10" stroke-linecap="round" stroke-linejoin="round"/>
<path d="M70.9994 84.3555L42.3281 107.081" stroke="#242F26" stroke-width="2" stroke-miterlimit="10" stroke-linecap="round" stroke-linejoin="round"/>
<path d="M47.9609 92.3916L49.5187 101.381" stroke="#242F26" stroke-width="2" stroke-miterlimit="10" stroke-linecap="round" stroke-linejoin="round"/>
<path d="M54.1869 106.596L46.7676 103.81" stroke="#242F26" stroke-width="2" stroke-miterlimit="10" stroke-linecap="round" stroke-linejoin="round"/>
<path d="M56.8418 87.0127L58.1466 94.5429" stroke="#242F26" stroke-width="2" stroke-miterlimit="10" stroke-linecap="round" stroke-linejoin="round"/>
<path d="M62.4564 101.163L53.957 98.1104" stroke="#242F26" stroke-width="2" stroke-miterlimit="10" stroke-linecap="round" stroke-linejoin="round"/>
<path d="M65.5449 84.6768L66.0565 88.2731" stroke="#242F26" stroke-width="2" stroke-miterlimit="10" stroke-linecap="round" stroke-linejoin="round"/>
<path d="M67.5153 93.8698L61.8672 91.8418" stroke="#242F26" stroke-width="2" stroke-miterlimit="10" stroke-linecap="round" stroke-linejoin="round"/>
<path d="M32.801 55.582C30.3247 56.6739 25.5212 59.4281 25.4962 65.182C25.4668 71.9646 31.4442 75.4082 31.4442 75.4082C31.4442 75.4082 29.8789 65.9121 32.801 64.5559C35.723 63.1992 42.8187 61.53 43.3402 54.7467C43.3402 54.7467 38.2374 53.1852 32.801 55.582Z" fill="#364F3A"/>
<path d="M26.1217 67.0603C26.1467 61.3058 30.9502 58.5515 33.4264 57.4602C37.4836 55.6714 41.3523 56.0878 43.0559 56.414C43.1956 55.895 43.2945 55.3415 43.3402 54.7473C43.3402 54.7473 38.2374 53.1852 32.801 55.5819C30.3247 56.6738 25.5212 59.4281 25.4962 65.182C25.4887 66.8962 25.8662 68.3951 26.4329 69.6812C26.2375 68.8697 26.1179 68.0007 26.1217 67.0603Z" fill="#364F3A"/>
<path d="M32.801 55.5821C30.3247 56.6741 25.5212 59.4283 25.4962 65.1821C25.4668 71.9647 31.4442 75.4082 31.4442 75.4082C31.4442 75.4082 29.8789 65.9122 32.801 64.556C35.723 63.1993 42.8187 61.5301 43.3402 54.7469C43.3402 54.7469 38.2374 53.1854 32.801 55.5821Z" stroke="#242F26" stroke-width="2" stroke-miterlimit="10" stroke-linecap="round" stroke-linejoin="round"/>
<path d="M28.9395 67.8947C28.9395 67.8947 30.8829 65.3452 32.8006 64.5557" stroke="#242F26" stroke-width="2" stroke-miterlimit="10" stroke-linecap="round" stroke-linejoin="round"/>
<path d="M42.3488 54.6738C41.5605 59.7283 41.7064 61.4589 44.8782 67.5089C48.0501 73.5583 47.1435 76.3846 47.1435 76.3846C47.1435 76.3846 57.8774 64.5938 48.2185 55.4088C46.903 54.1579 42.3488 54.6738 42.3488 54.6738Z" fill="#364F3A"/>
<path d="M50.3021 57.877C52.9311 64.1668 48.9685 70.6025 47.0332 73.2009C47.4683 75.3472 47.144 76.3846 47.144 76.3846C47.144 76.3846 56.0691 66.5723 50.3021 57.877Z" fill="#364F3A"/>
<path d="M42.3488 54.6738C41.5605 59.7283 41.7064 61.4589 44.8782 67.5089C48.0501 73.5583 47.1435 76.3846 47.1435 76.3846C47.1435 76.3846 57.8774 64.5938 48.2185 55.4088C46.903 54.1579 42.3488 54.6738 42.3488 54.6738Z" stroke="#242F26" stroke-width="2" stroke-miterlimit="10" stroke-linecap="round" stroke-linejoin="round"/>
<path d="M41.6016 81.1472L47.6172 78.6797L42.428 85.6889L41.6016 81.1472Z" fill="#5B5340"/>
<path d="M41.6016 81.1472L47.6172 78.6797L42.428 85.6889L41.6016 81.1472Z" fill="#5B5340" stroke="#5B5340" stroke-width="2" stroke-miterlimit="10" stroke-linecap="round" stroke-linejoin="round"/>
<path d="M18.4761 31.2949C18.2989 32.2078 18.2357 60.2341 44.6135 58.1354C44.6135 58.1354 50.4394 52.8079 48.923 47.0509C47.4065 41.2938 45.2878 39.8049 42.5674 37.6599C39.8463 35.5149 18.4761 31.2949 18.4761 31.2949Z" fill="#34256B"/>
<path d="M18.4761 31.2949C18.2989 32.2078 18.2357 60.2341 44.6135 58.1354C44.6135 58.1354 50.4394 52.8079 48.923 47.0509C47.4065 41.2938 45.2878 39.8049 42.5674 37.6599C39.8463 35.5149 18.4761 31.2949 18.4761 31.2949Z" stroke="#1F143A" stroke-width="2" stroke-miterlimit="10" stroke-linecap="round" stroke-linejoin="round"/>
<path d="M42.4205 47.392C34.4133 40.2656 21.2381 30.6386 27.5699 26.3999C33.9024 22.1605 50.4829 22.8148 55.2607 21.3522C60.0379 19.8897 62.5066 19.5059 62.5066 19.5059C62.5066 19.5059 67.6707 25.6617 57.9022 37.1126C48.1331 48.5628 42.4205 47.392 42.4205 47.392Z" fill="#34256B"/>
<path d="M40.6169 58.4455C40.6169 58.4455 36.2993 55.3526 41.5748 49.2186C46.8498 43.0847 61.4562 32.2812 66.1895 30.376C66.1895 30.376 66.1551 43.1016 61.4117 49.6406C52.521 61.8979 40.6169 58.4455 40.6169 58.4455Z" fill="#34256B"/>
<path d="M40.6169 58.4455C40.6169 58.4455 36.2993 55.3526 41.5748 49.2186C46.8498 43.0847 61.4562 32.2812 66.1895 30.376C66.1895 30.376 66.1551 43.1016 61.4117 49.6406C52.521 61.8979 40.6169 58.4455 40.6169 58.4455Z" stroke="#1F143A" stroke-width="2" stroke-miterlimit="10" stroke-linecap="round" stroke-linejoin="round"/>
<path d="M58.1666 14.7654C57.4967 18.2554 60.8313 23.1233 58.0458 29.0413C55.2603 34.9592 44.6903 44.0728 41.5742 49.2188C41.5742 49.2188 49.9196 41.4914 56.9964 38.8148C64.0733 36.1382 72.6134 30.3605 69.543 24.1326C69.543 24.1326 73.3228 17.7457 70.4327 12.7638C66.9309 6.7275 58.7846 11.5466 58.1666 14.7654Z" fill="#34256B"/>
<path d="M70.4327 12.7635C69.2681 10.7562 67.5895 9.95414 65.8452 9.88965C66.7349 10.3423 67.5426 11.0855 68.1912 12.2031C71.0813 17.185 67.3015 23.5719 67.3015 23.5719C70.3726 29.7998 61.8325 35.5775 54.755 38.2541C52.2099 39.217 49.5026 40.833 47.0764 42.5078C44.7542 45.0336 42.6874 47.3802 41.5742 49.2191C41.5742 49.2191 49.9196 41.4917 56.9964 38.8151C64.0733 36.1385 72.6134 30.3608 69.543 24.1329C69.543 24.1329 73.3228 17.7448 70.4327 12.7635Z" fill="#34256B"/>
<path d="M58.1666 14.7654C57.4967 18.2554 60.8313 23.1233 58.0458 29.0413C55.2603 34.9592 44.6903 44.0728 41.5742 49.2188C41.5742 49.2188 49.9196 41.4914 56.9964 38.8148C64.0733 36.1382 72.6134 30.3605 69.543 24.1326C69.543 24.1326 73.3228 17.7457 70.4327 12.7638C66.9309 6.7275 58.7846 11.5466 58.1666 14.7654Z" stroke="#1F143A" stroke-width="2" stroke-miterlimit="10" stroke-linecap="round" stroke-linejoin="round"/>
<path d="M62.8946 16.2136C62.8946 16.2136 67.6004 11.3456 64.2677 6.66546C60.9349 1.98532 53.2413 4.72391 53.2413 4.72391C53.2413 4.72391 52.2928 1.50635 46.0706 1.0543C39.8483 0.602257 33.3782 3.03906 29.9922 5.88408C29.9922 5.88408 48.5437 8.77418 52.6027 10.8754C56.663 12.976 62.8946 16.2136 62.8946 16.2136Z" fill="#34256B"/>
<path d="M64.2677 6.66546C60.9349 1.98532 53.2413 4.72391 53.2413 4.72391C53.2413 4.72391 52.2928 1.50635 46.0706 1.0543C39.8483 0.602257 33.3782 3.03906 29.9922 5.88408C29.9922 5.88408 30.2145 5.91914 30.5976 5.9805C34.1909 3.8868 39.37 2.37038 44.3901 2.7354C50.6123 3.18745 51.5603 6.405 51.5603 6.405C51.5603 6.405 59.2538 3.66642 62.5866 8.34655C64.6452 11.2379 63.636 14.1994 62.5641 16.042C62.7751 16.1516 62.8946 16.2136 62.8946 16.2136C62.8946 16.2136 67.6004 11.3456 64.2677 6.66546Z" fill="#34256B"/>
<path d="M62.8946 16.2136C62.8946 16.2136 67.6004 11.3456 64.2677 6.66546C60.9349 1.98532 53.2413 4.72391 53.2413 4.72391C53.2413 4.72391 52.2928 1.50635 46.0706 1.0543C39.8483 0.602257 33.3782 3.03906 29.9922 5.88408C29.9922 5.88408 48.5437 8.77418 52.6027 10.8754C56.663 12.976 62.8946 16.2136 62.8946 16.2136Z" stroke="#1F143A" stroke-width="2" stroke-miterlimit="10" stroke-linecap="round" stroke-linejoin="round"/>
<path d="M55.9657 18.4181C56.2681 18.4669 55.0272 12.0074 51.3357 8.56883C47.6442 5.13027 39.9656 4.2318 32.498 7.67538C32.498 7.67538 38.9707 12.1426 43.4493 13.778C47.9284 15.4134 55.9657 18.4181 55.9657 18.4181Z" fill="#6358B1"/>
<path d="M55.9657 18.4181C56.2681 18.4669 55.0272 12.0074 51.3357 8.56883C47.6442 5.13027 39.9656 4.2318 32.498 7.67538C32.498 7.67538 38.9707 12.1426 43.4493 13.778C47.9284 15.4134 55.9657 18.4181 55.9657 18.4181Z" stroke="#402E85" stroke-width="2" stroke-miterlimit="10" stroke-linecap="round" stroke-linejoin="round"/>
<path d="M17.531 24.002L15.7741 13.2142C15.7741 13.2142 12.4576 7.4315 21.8104 6.43411C21.8104 6.43411 27.4835 1.39083 34.5742 5.15811C41.6648 8.92538 41.4087 11.7397 41.4087 11.7397C41.4087 11.7397 39.5498 16.4762 36.0975 21.2985C32.6451 26.1214 26.0103 30.5429 26.0103 30.5429L17.531 24.002Z" fill="#6358B1"/>
<path d="M16.895 16.0154C16.895 16.0154 13.5779 10.2327 22.9313 9.2353C22.9313 9.2353 28.6045 4.19203 35.6951 7.95931C38.6553 9.53208 40.332 10.9377 41.2843 12.0428C41.3639 11.8531 41.4089 11.7397 41.4089 11.7397C41.4089 11.7397 41.665 8.92538 34.5744 5.15811C27.4837 1.39083 21.8106 6.43411 21.8106 6.43411C12.4572 7.43212 15.7743 13.2142 15.7743 13.2142L17.5312 24.002L18.2912 24.588L16.895 16.0154Z" fill="#6358B1"/>
<path d="M17.531 24.002L15.7741 13.2142C15.7741 13.2142 12.4576 7.4315 21.8104 6.43411C21.8104 6.43411 27.4835 1.39083 34.5742 5.15811C41.6648 8.92538 41.4087 11.7397 41.4087 11.7397C41.4087 11.7397 39.5498 16.4762 36.0975 21.2985C32.6451 26.1214 26.0103 30.5429 26.0103 30.5429L17.531 24.002Z" stroke="#402E85" stroke-width="2" stroke-miterlimit="10" stroke-linecap="round" stroke-linejoin="round"/>
<path d="M46.326 44.8046C46.326 44.8046 46.5301 36.1005 38.2073 33.4414C29.8844 30.7817 22.6961 26.935 21.2429 21.3507C19.7898 15.7665 18.0435 14.4191 15.7745 13.2139C15.7745 13.2139 12.9915 15.8197 15.6944 20.4729C15.6944 20.4729 10.2254 23.9735 15.0958 30.6039C19.9663 37.2344 32.3776 37.5487 37.578 38.7859C44.7306 40.4883 46.326 44.8046 46.326 44.8046Z" fill="#34256B"/>
<path d="M18.4416 17.9884C18.9738 20.0339 20.2736 21.8596 22.115 23.4787C21.7318 22.7987 21.4357 22.09 21.2435 21.3506C20.0689 16.8388 18.7034 15.0933 17.0254 13.9531C17.5288 14.9837 17.999 16.2879 18.4416 17.9884Z" fill="#34256B"/>
<path d="M46.291 44.7197C46.3144 44.7734 46.3264 44.805 46.3264 44.805C46.3264 44.805 46.3264 44.7898 46.327 44.7665C46.3144 44.7513 46.3024 44.7355 46.291 44.7197Z" fill="#34256B"/>
<path d="M34.7772 35.4238C30.1672 34.3269 19.8934 33.9512 14.2266 29.2617C14.4714 29.6944 14.7563 30.1408 15.0962 30.6041C19.9667 37.2345 32.378 37.5488 37.5784 38.786C40.3909 39.4553 42.3412 40.5285 43.6761 41.5847C41.2067 38.8925 38.0467 36.2015 34.7772 35.4238Z" fill="#34256B"/>
<path d="M46.326 44.8046C46.326 44.8046 46.5301 36.1005 38.2073 33.4414C29.8844 30.7817 22.6961 26.935 21.2429 21.3507C19.7898 15.7665 18.0435 14.4191 15.7745 13.2139C15.7745 13.2139 12.9915 15.8197 15.6944 20.4729C15.6944 20.4729 10.2254 23.9735 15.0958 30.6039C19.9663 37.2344 32.3776 37.5487 37.578 38.7859C44.7306 40.4883 46.326 44.8046 46.326 44.8046Z" stroke="#1F143A" stroke-width="2" stroke-miterlimit="10" stroke-linecap="round" stroke-linejoin="round"/>
<path d="M50.397 17.4628C50.397 17.4628 50.3062 14.8651 46.172 11.9656C42.0379 9.06673 36.0661 11.1229 35.2052 12.3594C35.2052 12.3594 30.0304 10.7416 28.2917 13.0506C26.553 15.3597 36.1431 19.0556 41.6121 19.1358C47.0811 19.2159 50.397 17.4628 50.397 17.4628Z" fill="#6F66BF"/>
<path d="M50.397 17.4628C50.397 17.4628 50.3062 14.8651 46.172 11.9656C42.0379 9.06673 36.0661 11.1229 35.2052 12.3594C35.2052 12.3594 30.0304 10.7416 28.2917 13.0506C26.553 15.3597 36.1431 19.0556 41.6121 19.1358C47.0811 19.2159 50.397 17.4628 50.397 17.4628Z" stroke="#402E85" stroke-width="2" stroke-miterlimit="10" stroke-linecap="round" stroke-linejoin="round"/>
<path d="M40.0336 17.682C40.0336 17.682 32.2717 16.7841 29.8155 12.0476C29.8155 12.0476 27.9084 9.22579 24.6558 9.81934C21.4032 10.4129 22.9772 15.4167 26.0545 15.7511C26.0545 15.7511 25.6475 22.426 40.4368 21.7116L40.0336 17.682Z" fill="#6F66BF"/>
<path d="M28.8563 15.1915C26.2411 14.9073 24.7234 11.2583 26.32 9.80265C25.8135 9.71813 25.2581 9.70999 24.6558 9.81956C21.4032 10.4131 22.9772 15.4169 26.0545 15.7513C26.0545 15.7513 25.6475 22.4262 40.4368 21.7118L40.3854 21.1953C28.5107 20.9705 28.8563 15.1915 28.8563 15.1915Z" fill="#6F66BF"/>
<path d="M40.0336 17.682C40.0336 17.682 32.2717 16.7841 29.8155 12.0476C29.8155 12.0476 27.9084 9.22579 24.6558 9.81934C21.4032 10.4129 22.9772 15.4167 26.0545 15.7511C26.0545 15.7511 25.6475 22.426 40.4368 21.7116L40.0336 17.682Z" stroke="#402E85" stroke-width="2" stroke-miterlimit="10" stroke-linecap="round" stroke-linejoin="round"/>
<path d="M56.0732 16.9302C56.0732 16.9302 46.4318 12.7215 36.4492 16.743C36.4492 16.743 37.2074 21.6448 42.91 22.2715C48.6126 22.8982 56.4927 21.1313 56.4927 21.1313C56.4927 21.1313 58.1475 19.7696 56.0732 16.9302Z" fill="#6F66BF"/>
<path d="M39.8114 18.4241C46.4538 15.7481 52.9408 16.7161 56.541 17.6634C56.4101 17.4298 56.2617 17.1881 56.0732 16.9302C56.0732 16.9302 46.4318 12.7215 36.4492 16.743C36.4492 16.743 37.1204 21.0675 41.9295 22.1118C40.1414 20.4902 39.8114 18.4241 39.8114 18.4241Z" fill="#6F66BF"/>
<path d="M56.0732 16.93C56.0732 16.93 46.0775 12.757 36.4492 16.7428C36.4492 16.7428 37.2074 21.6445 42.91 22.2713C48.6126 22.898 56.4927 21.1311 56.4927 21.1311C56.4927 21.1311 58.1475 19.7693 56.0732 16.93Z" stroke="#402E85" stroke-width="2" stroke-miterlimit="10" stroke-linecap="round" stroke-linejoin="round"/>
<path d="M28.1934 29.1301C28.2353 28.7156 32.7683 20.9857 40.8513 21.7151C48.9344 22.4451 55.3338 19.5588 55.8096 15.6081C56.0763 13.3948 54.6901 11.9241 54.6901 11.9241C54.6901 11.9241 60.9806 10.5779 63.5514 16.2667C66.1228 21.9555 60.1761 27.5736 54.0985 25.2081C54.0985 25.2081 49.794 30.5595 44.2123 28.1439C38.6312 25.7291 28.1934 29.1301 28.1934 29.1301Z" fill="#6358B1"/>
<path d="M63.5516 16.2667C62.0927 13.0385 59.4368 12.0768 57.412 11.8477C58.8827 12.4481 60.354 13.5901 61.3107 15.7063C63.8821 21.3958 58.6479 25.7052 52.5703 23.3398C52.5703 23.3398 49.0247 27.2549 44.3477 28.1965C49.8636 30.468 54.0993 25.2075 54.0993 25.2075C60.1762 27.5735 66.123 21.9555 63.5516 16.2667Z" fill="#6358B1"/>
<path d="M28.1934 29.1301C28.2353 28.7156 32.7683 20.9857 40.8513 21.7151C48.9344 22.4451 55.0589 19.5162 55.8096 15.6081C56.189 13.6308 54.6901 11.9241 54.6901 11.9241C54.6901 11.9241 60.9806 10.5779 63.5514 16.2667C66.1228 21.9555 60.1761 27.5736 54.0985 25.2081C54.0985 25.2081 49.794 30.5595 44.2123 28.1439C38.6312 25.7291 28.1934 29.1301 28.1934 29.1301Z" stroke="#402E85" stroke-width="2" stroke-miterlimit="10" stroke-linecap="round" stroke-linejoin="round"/>
<path d="M0 123.629H16.7661V147.739H0L3.11927 135.465L0 123.629Z" fill="#5B5340"/>
<path d="M85 123.629H68.2339V147.739H85L81.8807 135.465L85 123.629Z" fill="#5B5340"/>
<rect x="8.70898" y="117.055" width="67.5841" height="24.1097" fill="#BFB39A"/>
<path d="M23.9037 135.055C23.9037 134.489 23.989 133.988 24.1597 133.551C24.341 133.113 24.581 132.713 24.8797 132.351C25.1784 131.977 25.5144 131.62 25.8877 131.279C26.2717 130.927 26.661 130.559 27.0557 130.175C27.749 129.513 28.2504 128.9 28.5597 128.335C28.869 127.769 29.0237 127.225 29.0237 126.703C29.0237 126.297 28.965 125.908 28.8477 125.535C28.741 125.151 28.5437 124.836 28.2557 124.591C27.9677 124.345 27.5677 124.223 27.0557 124.223C26.6184 124.223 26.229 124.335 25.8877 124.559C25.5464 124.772 25.317 125.039 25.1997 125.359C25.3064 125.465 25.381 125.583 25.4237 125.711C25.4664 125.828 25.4877 125.945 25.4877 126.063C25.4877 126.159 25.461 126.265 25.4077 126.383C25.365 126.5 25.285 126.601 25.1677 126.687C25.0504 126.772 24.8957 126.815 24.7037 126.815C24.469 126.804 24.2877 126.713 24.1597 126.543C24.0317 126.372 23.9677 126.169 23.9677 125.935C23.9677 125.711 24.037 125.465 24.1757 125.199C24.3144 124.921 24.5224 124.665 24.7997 124.431C25.0877 124.185 25.4397 123.988 25.8557 123.839C26.2717 123.679 26.757 123.599 27.3117 123.599C27.7384 123.599 28.149 123.652 28.5437 123.759C28.949 123.855 29.3117 124.015 29.6317 124.239C29.9517 124.463 30.2024 124.761 30.3837 125.135C30.5757 125.497 30.6717 125.951 30.6717 126.495C30.6717 126.761 30.613 127.049 30.4957 127.359C30.389 127.668 30.2077 128.004 29.9517 128.367C29.7064 128.719 29.3864 129.097 28.9917 129.503C28.597 129.897 28.1117 130.329 27.5357 130.799C26.8104 131.396 26.213 131.961 25.7437 132.495C25.285 133.017 25.0184 133.465 24.9437 133.839L27.7757 133.919C28.2984 133.929 28.757 133.929 29.1517 133.919C29.557 133.908 29.8717 133.828 30.0957 133.679C30.3304 133.519 30.4477 133.231 30.4477 132.815H30.9277L30.8317 135.055H23.9037ZM37.8575 135.311C37.0468 135.311 36.3748 135.14 35.8415 134.799C35.3081 134.447 34.8921 133.988 34.5935 133.423C34.2948 132.847 34.0815 132.217 33.9535 131.535C33.8361 130.852 33.7775 130.175 33.7775 129.503C33.7775 128.831 33.8521 128.148 34.0015 127.455C34.1615 126.761 34.4068 126.127 34.7375 125.551C35.0681 124.964 35.4948 124.495 36.0175 124.143C36.5401 123.78 37.1748 123.599 37.9215 123.599C38.7001 123.599 39.3455 123.775 39.8575 124.127C40.3801 124.479 40.7908 124.943 41.0895 125.519C41.3988 126.084 41.6175 126.708 41.7455 127.391C41.8735 128.073 41.9375 128.751 41.9375 129.423C41.9375 130.084 41.8628 130.761 41.7135 131.455C41.5641 132.148 41.3295 132.788 41.0095 133.375C40.6895 133.951 40.2681 134.42 39.7455 134.783C39.2335 135.135 38.6041 135.311 37.8575 135.311ZM37.9535 134.687C38.4121 134.687 38.7908 134.543 39.0895 134.255C39.3881 133.967 39.6228 133.583 39.7935 133.103C39.9748 132.623 40.1028 132.095 40.1775 131.519C40.2521 130.932 40.2895 130.345 40.2895 129.759C40.2895 129.108 40.2521 128.457 40.1775 127.807C40.1028 127.156 39.9748 126.559 39.7935 126.015C39.6121 125.471 39.3668 125.033 39.0575 124.703C38.7481 124.372 38.3588 124.207 37.8895 124.207C37.4308 124.207 37.0415 124.351 36.7215 124.639C36.4121 124.927 36.1615 125.311 35.9695 125.791C35.7775 126.271 35.6388 126.804 35.5535 127.391C35.4681 127.977 35.4255 128.569 35.4255 129.167C35.4255 129.615 35.4468 130.089 35.4895 130.591C35.5321 131.092 35.6068 131.588 35.7135 132.079C35.8308 132.559 35.9855 132.996 36.1775 133.391C36.3695 133.785 36.6095 134.1 36.8975 134.335C37.1855 134.569 37.5375 134.687 37.9535 134.687ZM44.5656 135.055C44.5656 134.489 44.6509 133.988 44.8216 133.551C45.0029 133.113 45.2429 132.713 45.5416 132.351C45.8402 131.977 46.1762 131.62 46.5496 131.279C46.9336 130.927 47.3229 130.559 47.7176 130.175C48.4109 129.513 48.9122 128.9 49.2216 128.335C49.5309 127.769 49.6856 127.225 49.6856 126.703C49.6856 126.297 49.6269 125.908 49.5096 125.535C49.4029 125.151 49.2056 124.836 48.9176 124.591C48.6296 124.345 48.2296 124.223 47.7176 124.223C47.2802 124.223 46.8909 124.335 46.5496 124.559C46.2082 124.772 45.9789 125.039 45.8616 125.359C45.9682 125.465 46.0429 125.583 46.0856 125.711C46.1282 125.828 46.1496 125.945 46.1496 126.063C46.1496 126.159 46.1229 126.265 46.0696 126.383C46.0269 126.5 45.9469 126.601 45.8296 126.687C45.7122 126.772 45.5576 126.815 45.3656 126.815C45.1309 126.804 44.9496 126.713 44.8216 126.543C44.6936 126.372 44.6296 126.169 44.6296 125.935C44.6296 125.711 44.6989 125.465 44.8376 125.199C44.9762 124.921 45.1842 124.665 45.4616 124.431C45.7496 124.185 46.1016 123.988 46.5176 123.839C46.9336 123.679 47.4189 123.599 47.9736 123.599C48.4002 123.599 48.8109 123.652 49.2056 123.759C49.6109 123.855 49.9736 124.015 50.2936 124.239C50.6136 124.463 50.8642 124.761 51.0456 125.135C51.2376 125.497 51.3336 125.951 51.3336 126.495C51.3336 126.761 51.2749 127.049 51.1576 127.359C51.0509 127.668 50.8696 128.004 50.6136 128.367C50.3682 128.719 50.0482 129.097 49.6536 129.503C49.2589 129.897 48.7736 130.329 48.1976 130.799C47.4722 131.396 46.8749 131.961 46.4056 132.495C45.9469 133.017 45.6802 133.465 45.6056 133.839L48.4376 133.919C48.9602 133.929 49.4189 133.929 49.8136 133.919C50.2189 133.908 50.5336 133.828 50.7576 133.679C50.9922 133.519 51.1096 133.231 51.1096 132.815H51.5896L51.4936 135.055H44.5656ZM54.2793 135.055C54.2793 134.489 54.3647 133.988 54.5353 133.551C54.7167 133.113 54.9567 132.713 55.2553 132.351C55.554 131.977 55.89 131.62 56.2633 131.279C56.6473 130.927 57.0367 130.559 57.4313 130.175C58.1247 129.513 58.626 128.9 58.9353 128.335C59.2447 127.769 59.3993 127.225 59.3993 126.703C59.3993 126.297 59.3407 125.908 59.2233 125.535C59.1167 125.151 58.9193 124.836 58.6313 124.591C58.3433 124.345 57.9433 124.223 57.4313 124.223C56.994 124.223 56.6047 124.335 56.2633 124.559C55.922 124.772 55.6927 125.039 55.5753 125.359C55.682 125.465 55.7567 125.583 55.7993 125.711C55.842 125.828 55.8633 125.945 55.8633 126.063C55.8633 126.159 55.8367 126.265 55.7833 126.383C55.7407 126.5 55.6607 126.601 55.5433 126.687C55.426 126.772 55.2713 126.815 55.0793 126.815C54.8447 126.804 54.6633 126.713 54.5353 126.543C54.4073 126.372 54.3433 126.169 54.3433 125.935C54.3433 125.711 54.4127 125.465 54.5513 125.199C54.69 124.921 54.898 124.665 55.1753 124.431C55.4633 124.185 55.8153 123.988 56.2313 123.839C56.6473 123.679 57.1327 123.599 57.6873 123.599C58.114 123.599 58.5247 123.652 58.9193 123.759C59.3247 123.855 59.6873 124.015 60.0073 124.239C60.3273 124.463 60.578 124.761 60.7593 125.135C60.9513 125.497 61.0473 125.951 61.0473 126.495C61.0473 126.761 60.9887 127.049 60.8713 127.359C60.7647 127.668 60.5833 128.004 60.3273 128.367C60.082 128.719 59.762 129.097 59.3673 129.503C58.9727 129.897 58.4873 130.329 57.9113 130.799C57.186 131.396 56.5887 131.961 56.1193 132.495C55.6607 133.017 55.394 133.465 55.3193 133.839L58.1513 133.919C58.674 133.929 59.1327 133.929 59.5273 133.919C59.9327 133.908 60.2473 133.828 60.4713 133.679C60.706 133.519 60.8233 133.231 60.8233 132.815H61.3033L61.2073 135.055H54.2793Z" fill="black"/>
</svg>
