<svg width="86" height="148" viewBox="0 0 86 148" fill="none" xmlns="http://www.w3.org/2000/svg">
<path d="M20.6035 75.2969C20.9174 75.3516 21.329 75.4273 21.8193 75.5283C23.0117 75.7739 24.6681 76.1651 26.5205 76.748C30.239 77.9182 34.6902 79.8424 37.791 82.8584C40.8758 85.8589 42.0669 89.402 42.4854 92.209C42.6945 93.6121 42.7097 94.8267 42.6729 95.6885C42.6545 96.1174 42.6231 96.4585 42.5967 96.6904C42.3655 96.7232 42.0257 96.7637 41.5977 96.7939C40.7372 96.8547 39.5227 96.8733 38.1143 96.7031C35.2967 96.3626 31.7221 95.2699 28.6377 92.2695C25.5368 89.2534 23.4904 84.8567 22.2178 81.1719C21.5839 79.3364 21.1467 77.6919 20.8682 76.5068C20.7535 76.0191 20.6669 75.6093 20.6035 75.2969Z" fill="#364F3A" stroke="#242F26"/>
<path d="M20.6035 75.2969C20.9174 75.3516 21.329 75.4273 21.8193 75.5283C23.0117 75.7739 24.6681 76.1651 26.5205 76.748C30.239 77.9182 34.6902 79.8424 37.791 82.8584C40.8758 85.8589 42.0669 89.402 42.4854 92.209C42.6945 93.6121 42.7097 94.8267 42.6729 95.6885C42.6545 96.1174 42.6231 96.4585 42.5967 96.6904C42.3655 96.7232 42.0257 96.7637 41.5977 96.7939C40.7372 96.8547 39.5227 96.8733 38.1143 96.7031C35.2967 96.3626 31.7221 95.2699 28.6377 92.2695C25.5368 89.2534 23.4904 84.8567 22.2178 81.1719C21.5839 79.3364 21.1467 77.6919 20.8682 76.5068C20.7535 76.0191 20.6669 75.6093 20.6035 75.2969Z" fill="#364F3A" stroke="#242F26"/>
<path d="M20.6016 75.2969C20.9155 75.3515 21.327 75.4273 21.8174 75.5283C23.0097 75.7739 24.6662 76.1653 26.5186 76.748C29.4307 77.6643 32.7922 79.0436 35.6025 81.0469C33.1767 79.8005 30.6061 78.8001 28.3643 78.042C26.5414 77.4256 24.9246 76.9648 23.7637 76.6582C23.1833 76.5049 22.7162 76.3902 22.3936 76.3135C22.2322 76.2751 22.1068 76.2459 22.0215 76.2266C21.9788 76.2169 21.946 76.21 21.9238 76.2051C21.9127 76.2026 21.9042 76.2005 21.8984 76.1992C21.8956 76.1986 21.8931 76.1986 21.8916 76.1982L21.8896 76.1973L21.083 76.0234L21.3018 76.8184V76.8213C21.3022 76.8228 21.3029 76.8253 21.3037 76.8281C21.3053 76.8338 21.3076 76.8419 21.3105 76.8525C21.3166 76.8743 21.326 76.9065 21.3379 76.9482C21.3617 77.0317 21.3966 77.1547 21.4434 77.3125C21.537 77.6285 21.6771 78.0859 21.8604 78.6543C22.2268 79.7911 22.7691 81.3737 23.4756 83.1582C24.3294 85.3148 25.4299 87.7802 26.752 90.1162C24.6783 87.3658 23.2105 84.0515 22.2158 81.1719C21.5819 79.3364 21.1448 77.6919 20.8662 76.5068C20.7516 76.0191 20.6649 75.6093 20.6016 75.2969Z" fill="#364F3A" stroke="#242F26"/>
<path d="M38.1399 82.5001C44.5093 88.6954 43.043 97.1241 43.043 97.1241C43.043 97.1241 34.6575 98.8233 28.2888 92.628C21.9194 86.4327 19.9785 74.6895 19.9785 74.6895C19.9785 74.6895 31.7706 76.3048 38.1399 82.5001Z" stroke="#242F26" stroke-width="2" stroke-miterlimit="10" stroke-linecap="round" stroke-linejoin="round"/>
<path d="M20.3945 75.0957L43.0414 97.1233" stroke="#242F26" stroke-width="2" stroke-miterlimit="10" stroke-linecap="round" stroke-linejoin="round"/>
<path d="M29.666 93.8267L37.3615 91.5996" stroke="#242F26" stroke-width="2" stroke-miterlimit="10" stroke-linecap="round" stroke-linejoin="round"/>
<path d="M24.0996 86.8365L30.546 84.9707" stroke="#242F26" stroke-width="2" stroke-miterlimit="10" stroke-linecap="round" stroke-linejoin="round"/>
<path d="M35.9049 80.6484L34.0723 88.1648" stroke="#242F26" stroke-width="2" stroke-miterlimit="10" stroke-linecap="round" stroke-linejoin="round"/>
<path d="M29.042 77.0928L27.8242 82.0878" stroke="#242F26" stroke-width="2" stroke-miterlimit="10" stroke-linecap="round" stroke-linejoin="round"/>
<path d="M40.9854 108.378L40.4395 111.386L37.0029 106.744L40.9854 108.378Z" fill="#5B5340" stroke="#5B5340"/>
<path d="M41.5508 108.07L35.5352 105.603L40.7249 112.612L41.5508 108.07Z" fill="#5B5340" stroke="#5B5340" stroke-width="2" stroke-miterlimit="10" stroke-linecap="round" stroke-linejoin="round"/>
<path d="M42.7507 58.101C49.4713 60.0832 61.0924 61.9033 61.3723 74.3647C61.3723 74.3647 66.1326 66.524 60.532 60.3631C60.532 60.3631 61.3723 52.5224 50.1713 51.962C38.9702 51.4016 42.7507 58.101 42.7507 58.101Z" fill="#364F3A"/>
<path d="M60.5314 60.363C60.5314 60.363 60.934 56.5607 57.3965 54.0625C58.8916 56.237 58.6531 58.4847 58.6531 58.4847C62.2156 62.4035 61.5851 66.9985 60.6554 69.8266C61.0767 71.1608 61.3334 72.6597 61.3716 74.364C61.3716 74.364 66.1319 66.5239 60.5314 60.363Z" fill="#364F3A"/>
<path d="M42.7507 58.101C49.4713 60.0832 61.0924 61.9033 61.3723 74.3647C61.3723 74.3647 66.1326 66.524 60.532 60.3631C60.532 60.3631 61.3723 52.5224 50.1713 51.962C38.9702 51.4016 42.7507 58.101 42.7507 58.101Z" stroke="#242F26" stroke-width="2" stroke-miterlimit="10" stroke-linecap="round" stroke-linejoin="round"/>
<path d="M42.75 58.1013C42.75 58.1013 53.1108 53.9227 60.532 60.3634" stroke="#242F26" stroke-width="2" stroke-miterlimit="10" stroke-linecap="round" stroke-linejoin="round"/>
<path d="M39.4794 56.8489C32.7588 58.8312 21.1377 60.6513 20.8578 73.1127C20.8578 73.1127 16.0975 65.2719 21.698 59.1111C21.698 59.1111 20.8578 51.2703 32.0588 50.71C43.2598 50.1502 39.4794 56.8489 39.4794 56.8489Z" fill="#364F3A"/>
<path d="M21.698 59.111C21.698 59.111 21.2954 55.3087 24.8329 52.8105C23.3378 54.985 23.5763 57.2327 23.5763 57.2327C20.0138 61.1515 20.6443 65.7465 21.5741 68.5746C21.1527 69.9088 20.896 71.4077 20.8578 73.112C20.8578 73.112 16.0975 65.2719 21.698 59.111Z" fill="#364F3A"/>
<path d="M39.4794 56.8489C32.7588 58.8312 21.1377 60.6513 20.8578 73.1127C20.8578 73.1127 16.0975 65.2719 21.698 59.1111C21.698 59.1111 20.8578 51.2703 32.0588 50.71C43.2598 50.1502 39.4794 56.8489 39.4794 56.8489Z" stroke="#242F26" stroke-width="2" stroke-miterlimit="10" stroke-linecap="round" stroke-linejoin="round"/>
<path d="M39.4812 56.8494C39.4812 56.8494 29.1204 52.6707 21.6992 59.1115" stroke="#242F26" stroke-width="2" stroke-miterlimit="10" stroke-linecap="round" stroke-linejoin="round"/>
<path d="M44.0049 50.2451V115.501H40.8398V50.2451H44.0049Z" fill="#364F3A" stroke="#364F3A"/>
<path d="M44.5053 49.7451H40.3398V116.001H44.5053V49.7451Z" fill="#364F3A" stroke="#364F3A" stroke-width="2" stroke-miterlimit="10" stroke-linecap="round" stroke-linejoin="round"/>
<path d="M60.8226 103.446C52.759 109.838 43.1489 107.08 43.1489 107.08C43.1489 107.08 42.298 97.3805 50.361 90.9892C58.4246 84.598 72.3492 83.9355 72.3492 83.9355C72.3492 83.9355 68.8862 97.055 60.8226 103.446Z" fill="#364F3A"/>
<path d="M60.8226 103.446C52.759 109.838 43.1489 107.08 43.1489 107.08C43.1489 107.08 42.298 97.3805 50.361 90.9892C58.4246 84.598 72.3492 83.9355 72.3492 83.9355C72.3492 83.9355 68.8862 97.055 60.8226 103.446Z" fill="#364F3A"/>
<path d="M50.3607 90.9892C49.6564 91.5471 49.024 92.1319 48.4492 92.7317C56.6118 87.6934 69.7825 85.7168 69.7825 85.7168C69.7825 85.7168 65.4599 98.0611 58.8225 104.829C59.495 104.422 60.1636 103.968 60.8223 103.446C68.8859 97.055 72.3489 83.9355 72.3489 83.9355C72.3489 83.9355 58.4243 84.598 50.3607 90.9892Z" fill="#364F3A"/>
<path d="M60.8226 103.446C52.759 109.838 43.1489 107.08 43.1489 107.08C43.1489 107.08 42.298 97.3805 50.361 90.9892C58.4246 84.598 72.3492 83.9355 72.3492 83.9355C72.3492 83.9355 68.8862 97.055 60.8226 103.446Z" stroke="#242F26" stroke-width="2" stroke-miterlimit="10" stroke-linecap="round" stroke-linejoin="round"/>
<path d="M71.8197 84.3555L43.1484 107.081" stroke="#242F26" stroke-width="2" stroke-miterlimit="10" stroke-linecap="round" stroke-linejoin="round"/>
<path d="M48.7812 92.3916L50.339 101.381" stroke="#242F26" stroke-width="2" stroke-miterlimit="10" stroke-linecap="round" stroke-linejoin="round"/>
<path d="M55.0072 106.596L47.5879 103.81" stroke="#242F26" stroke-width="2" stroke-miterlimit="10" stroke-linecap="round" stroke-linejoin="round"/>
<path d="M57.6621 87.0127L58.9669 94.5429" stroke="#242F26" stroke-width="2" stroke-miterlimit="10" stroke-linecap="round" stroke-linejoin="round"/>
<path d="M63.2767 101.163L54.7773 98.1104" stroke="#242F26" stroke-width="2" stroke-miterlimit="10" stroke-linecap="round" stroke-linejoin="round"/>
<path d="M66.3652 84.6768L66.8768 88.2731" stroke="#242F26" stroke-width="2" stroke-miterlimit="10" stroke-linecap="round" stroke-linejoin="round"/>
<path d="M68.3356 93.8698L62.6875 91.8418" stroke="#242F26" stroke-width="2" stroke-miterlimit="10" stroke-linecap="round" stroke-linejoin="round"/>
<path d="M33.6213 55.582C31.145 56.6739 26.3416 59.4281 26.3165 65.182C26.2871 71.9646 32.2645 75.4082 32.2645 75.4082C32.2645 75.4082 30.6992 65.9121 33.6213 64.5559C36.5433 63.1992 43.639 61.53 44.1605 54.7467C44.1605 54.7467 39.0577 53.1852 33.6213 55.582Z" fill="#364F3A"/>
<path d="M26.942 67.0603C26.967 61.3058 31.7705 58.5515 34.2468 57.4602C38.3039 55.6714 42.1726 56.0878 43.8763 56.414C44.0159 55.895 44.1148 55.3415 44.1605 54.7473C44.1605 54.7473 39.0578 53.1852 33.6213 55.5819C31.145 56.6738 26.3416 59.4281 26.3165 65.182C26.309 66.8962 26.6865 68.3951 27.2532 69.6812C27.0578 68.8697 26.9382 68.0007 26.942 67.0603Z" fill="#364F3A"/>
<path d="M33.6213 55.5821C31.145 56.6741 26.3416 59.4283 26.3165 65.1821C26.2871 71.9647 32.2645 75.4082 32.2645 75.4082C32.2645 75.4082 30.6992 65.9122 33.6213 64.556C36.5433 63.1993 43.639 61.5301 44.1605 54.7469C44.1605 54.7469 39.0577 53.1854 33.6213 55.5821Z" stroke="#242F26" stroke-width="2" stroke-miterlimit="10" stroke-linecap="round" stroke-linejoin="round"/>
<path d="M29.7598 67.8947C29.7598 67.8947 31.7032 65.3452 33.621 64.5557" stroke="#242F26" stroke-width="2" stroke-miterlimit="10" stroke-linecap="round" stroke-linejoin="round"/>
<path d="M43.1691 54.6738C42.3808 59.7283 42.5267 61.4589 45.6985 67.5089C48.8704 73.5583 47.9638 76.3846 47.9638 76.3846C47.9638 76.3846 58.6977 64.5938 49.0388 55.4088C47.7234 54.1579 43.1691 54.6738 43.1691 54.6738Z" fill="#364F3A"/>
<path d="M51.1224 57.877C53.7514 64.1668 49.7888 70.6025 47.8535 73.2009C48.2887 75.3472 47.9643 76.3846 47.9643 76.3846C47.9643 76.3846 56.8895 66.5723 51.1224 57.877Z" fill="#364F3A"/>
<path d="M43.1691 54.6738C42.3808 59.7283 42.5267 61.4589 45.6985 67.5089C48.8704 73.5583 47.9638 76.3846 47.9638 76.3846C47.9638 76.3846 58.6977 64.5938 49.0388 55.4088C47.7234 54.1579 43.1691 54.6738 43.1691 54.6738Z" stroke="#242F26" stroke-width="2" stroke-miterlimit="10" stroke-linecap="round" stroke-linejoin="round"/>
<path d="M42.4219 81.1472L48.4375 78.6797L43.2483 85.6889L42.4219 81.1472Z" fill="#5B5340"/>
<path d="M42.4219 81.1472L48.4375 78.6797L43.2483 85.6889L42.4219 81.1472Z" fill="#5B5340" stroke="#5B5340" stroke-width="2" stroke-miterlimit="10" stroke-linecap="round" stroke-linejoin="round"/>
<path d="M19.2964 31.2949C19.1192 32.2078 19.056 60.2341 45.4338 58.1354C45.4338 58.1354 51.2597 52.8079 49.7433 47.0509C48.2269 41.2938 46.1081 39.8049 43.3877 37.6599C40.6666 35.5149 19.2964 31.2949 19.2964 31.2949Z" fill="#AE8555"/>
<path d="M19.2964 31.2949C19.1192 32.2078 19.056 60.2341 45.4338 58.1354C45.4338 58.1354 51.2597 52.8079 49.7433 47.0509C48.2269 41.2938 46.1081 39.8049 43.3877 37.6599C40.6666 35.5149 19.2964 31.2949 19.2964 31.2949Z" stroke="#E0E0E0" stroke-width="2" stroke-miterlimit="10" stroke-linecap="round" stroke-linejoin="round"/>
<path d="M43.2408 47.392C35.2336 40.2656 22.0584 30.6386 28.3902 26.3999C34.7227 22.1605 51.3032 22.8148 56.081 21.3522C60.8582 19.8897 63.3269 19.5059 63.3269 19.5059C63.3269 19.5059 68.491 25.6617 58.7226 37.1126C48.9534 48.5628 43.2408 47.392 43.2408 47.392Z" fill="#AE8555"/>
<path d="M41.4372 58.4455C41.4372 58.4455 37.1196 55.3526 42.3951 49.2186C47.6701 43.0847 62.2765 32.2812 67.0098 30.376C67.0098 30.376 66.9754 43.1016 62.232 49.6406C53.3413 61.8979 41.4372 58.4455 41.4372 58.4455Z" fill="#AE8555"/>
<path d="M41.4372 58.4455C41.4372 58.4455 37.1196 55.3526 42.3951 49.2186C47.6701 43.0847 62.2765 32.2812 67.0098 30.376C67.0098 30.376 66.9754 43.1016 62.232 49.6406C53.3413 61.8979 41.4372 58.4455 41.4372 58.4455Z" stroke="#E0E0E0" stroke-width="2" stroke-miterlimit="10" stroke-linecap="round" stroke-linejoin="round"/>
<path d="M58.9869 14.7654C58.317 18.2554 61.6517 23.1233 58.8661 29.0413C56.0806 34.9592 45.5107 44.0728 42.3945 49.2188C42.3945 49.2188 50.7399 41.4914 57.8167 38.8148C64.8936 36.1382 73.4337 30.3605 70.3633 24.1326C70.3633 24.1326 74.1431 17.7457 71.253 12.7638C67.7512 6.7275 59.6049 11.5466 58.9869 14.7654Z" fill="#AE8555"/>
<path d="M71.253 12.7635C70.0884 10.7562 68.4098 9.95414 66.6655 9.88965C67.5552 10.3423 68.3629 11.0855 69.0115 12.2031C71.9016 17.185 68.1218 23.5719 68.1218 23.5719C71.1929 29.7998 62.6528 35.5775 55.5753 38.2541C53.0302 39.217 50.3229 40.833 47.8967 42.5078C45.5745 45.0336 43.5077 47.3802 42.3945 49.2191C42.3945 49.2191 50.7399 41.4917 57.8167 38.8151C64.8936 36.1385 73.4337 30.3608 70.3633 24.1329C70.3633 24.1329 74.1431 17.7448 71.253 12.7635Z" fill="#AE8555"/>
<path d="M58.9869 14.7654C58.317 18.2554 61.6517 23.1233 58.8661 29.0413C56.0806 34.9592 45.5107 44.0728 42.3945 49.2188C42.3945 49.2188 50.7399 41.4914 57.8167 38.8148C64.8936 36.1382 73.4337 30.3605 70.3633 24.1326C70.3633 24.1326 74.1431 17.7457 71.253 12.7638C67.7512 6.7275 59.6049 11.5466 58.9869 14.7654Z" stroke="#E0E0E0" stroke-width="2" stroke-miterlimit="10" stroke-linecap="round" stroke-linejoin="round"/>
<path d="M63.715 16.2136C63.715 16.2136 68.4208 11.3456 65.088 6.66546C61.7552 1.98532 54.0617 4.72391 54.0617 4.72391C54.0617 4.72391 53.1131 1.50635 46.8909 1.0543C40.6686 0.602257 34.1985 3.03906 30.8125 5.88408C30.8125 5.88408 49.364 8.77418 53.423 10.8754C57.4833 12.976 63.715 16.2136 63.715 16.2136Z" fill="#AE8555"/>
<path d="M65.088 6.66546C61.7552 1.98532 54.0617 4.72391 54.0617 4.72391C54.0617 4.72391 53.1131 1.50635 46.8909 1.0543C40.6686 0.602257 34.1985 3.03906 30.8125 5.88408C30.8125 5.88408 31.0348 5.91914 31.418 5.9805C35.0112 3.8868 40.1903 2.37038 45.2104 2.7354C51.4326 3.18745 52.3806 6.405 52.3806 6.405C52.3806 6.405 60.0741 3.66642 63.4069 8.34655C65.4655 11.2379 64.4563 14.1994 63.3844 16.042C63.5954 16.1516 63.715 16.2136 63.715 16.2136C63.715 16.2136 68.4208 11.3456 65.088 6.66546Z" fill="#AE8555"/>
<path d="M63.715 16.2136C63.715 16.2136 68.4208 11.3456 65.088 6.66546C61.7552 1.98532 54.0617 4.72391 54.0617 4.72391C54.0617 4.72391 53.1131 1.50635 46.8909 1.0543C40.6686 0.602257 34.1985 3.03906 30.8125 5.88408C30.8125 5.88408 49.364 8.77418 53.423 10.8754C57.4833 12.976 63.715 16.2136 63.715 16.2136Z" stroke="#E0E0E0" stroke-width="2" stroke-miterlimit="10" stroke-linecap="round" stroke-linejoin="round"/>
<path d="M56.786 18.4181C57.0884 18.4669 55.8475 12.0074 52.156 8.56883C48.4645 5.13027 40.7859 4.2318 33.3184 7.67538C33.3184 7.67538 39.791 12.1426 44.2696 13.778C48.7487 15.4134 56.786 18.4181 56.786 18.4181Z" fill="#E18282"/>
<path d="M56.786 18.4181C57.0884 18.4669 55.8475 12.0074 52.156 8.56883C48.4645 5.13027 40.7859 4.2318 33.3184 7.67538C33.3184 7.67538 39.791 12.1426 44.2696 13.778C48.7487 15.4134 56.786 18.4181 56.786 18.4181Z" stroke="#E0E0E0" stroke-width="2" stroke-miterlimit="10" stroke-linecap="round" stroke-linejoin="round"/>
<path d="M18.3513 24.002L16.5944 13.2142C16.5944 13.2142 13.2779 7.4315 22.6307 6.43411C22.6307 6.43411 28.3039 1.39083 35.3945 5.15811C42.4851 8.92538 42.229 11.7397 42.229 11.7397C42.229 11.7397 40.3701 16.4762 36.9178 21.2985C33.4655 26.1214 26.8306 30.5429 26.8306 30.5429L18.3513 24.002Z" fill="#E18282"/>
<path d="M17.7154 16.0154C17.7154 16.0154 14.3982 10.2327 23.7516 9.2353C23.7516 9.2353 29.4248 4.19203 36.5154 7.95931C39.4756 9.53208 41.1524 10.9377 42.1047 12.0428C42.1842 11.8531 42.2292 11.7397 42.2292 11.7397C42.2292 11.7397 42.4853 8.92538 35.3947 5.15811C28.304 1.39083 22.6309 6.43411 22.6309 6.43411C13.2775 7.43212 16.5946 13.2142 16.5946 13.2142L18.3515 24.002L19.1116 24.588L17.7154 16.0154Z" fill="#E18282"/>
<path d="M18.3513 24.002L16.5944 13.2142C16.5944 13.2142 13.2779 7.4315 22.6307 6.43411C22.6307 6.43411 28.3039 1.39083 35.3945 5.15811C42.4851 8.92538 42.229 11.7397 42.229 11.7397C42.229 11.7397 40.3701 16.4762 36.9178 21.2985C33.4655 26.1214 26.8306 30.5429 26.8306 30.5429L18.3513 24.002Z" stroke="#E0E0E0" stroke-width="2" stroke-miterlimit="10" stroke-linecap="round" stroke-linejoin="round"/>
<path d="M47.1463 44.8046C47.1463 44.8046 47.3504 36.1005 39.0276 33.4414C30.7048 30.7817 23.5164 26.935 22.0633 21.3507C20.6101 15.7665 18.8639 14.4191 16.5948 13.2139C16.5948 13.2139 13.8118 15.8197 16.5147 20.4729C16.5147 20.4729 11.0457 23.9735 15.9162 30.6039C20.7866 37.2344 33.1979 37.5487 38.3983 38.7859C45.551 40.4883 47.1463 44.8046 47.1463 44.8046Z" fill="#AE8555"/>
<path d="M19.2619 17.9884C19.7941 20.0339 21.0939 21.8596 22.9353 23.4787C22.5521 22.7987 22.256 22.09 22.0638 21.3506C20.8892 16.8388 19.5237 15.0933 17.8457 13.9531C18.3491 14.9837 18.8193 16.2879 19.2619 17.9884Z" fill="#AE8555"/>
<path d="M47.1113 44.7197C47.1347 44.7734 47.1467 44.805 47.1467 44.805C47.1467 44.805 47.1467 44.7898 47.1473 44.7665C47.1347 44.7513 47.1227 44.7355 47.1113 44.7197Z" fill="#AE8555"/>
<path d="M35.5975 35.4238C30.9875 34.3269 20.7138 33.9512 15.0469 29.2617C15.2917 29.6944 15.5766 30.1408 15.9165 30.6041C20.787 37.2345 33.1983 37.5488 38.3987 38.786C41.2112 39.4553 43.1615 40.5285 44.4964 41.5847C42.027 38.8925 38.867 36.2015 35.5975 35.4238Z" fill="#AE8555"/>
<path d="M47.1463 44.8046C47.1463 44.8046 47.3504 36.1005 39.0276 33.4414C30.7048 30.7817 23.5164 26.935 22.0633 21.3507C20.6101 15.7665 18.8639 14.4191 16.5948 13.2139C16.5948 13.2139 13.8118 15.8197 16.5147 20.4729C16.5147 20.4729 11.0457 23.9735 15.9162 30.6039C20.7866 37.2344 33.1979 37.5487 38.3983 38.7859C45.551 40.4883 47.1463 44.8046 47.1463 44.8046Z" stroke="#E0E0E0" stroke-width="2" stroke-miterlimit="10" stroke-linecap="round" stroke-linejoin="round"/>
<path d="M51.2173 17.4628C51.2173 17.4628 51.1265 14.8651 46.9923 11.9656C42.8582 9.06673 36.8864 11.1229 36.0255 12.3594C36.0255 12.3594 30.8507 10.7416 29.112 13.0506C27.3733 15.3597 36.9634 19.0556 42.4324 19.1358C47.9014 19.2159 51.2173 17.4628 51.2173 17.4628Z" fill="#F1BA88"/>
<path d="M51.2173 17.4628C51.2173 17.4628 51.1265 14.8651 46.9923 11.9656C42.8582 9.06673 36.8864 11.1229 36.0255 12.3594C36.0255 12.3594 30.8507 10.7416 29.112 13.0506C27.3733 15.3597 36.9634 19.0556 42.4324 19.1358C47.9014 19.2159 51.2173 17.4628 51.2173 17.4628Z" stroke="#E0E0E0" stroke-width="2" stroke-miterlimit="10" stroke-linecap="round" stroke-linejoin="round"/>
<path d="M40.8539 17.682C40.8539 17.682 33.092 16.7841 30.6358 12.0476C30.6358 12.0476 28.7287 9.22579 25.4761 9.81934C22.2235 10.4129 23.7975 15.4167 26.8748 15.7511C26.8748 15.7511 26.4679 22.426 41.2571 21.7116L40.8539 17.682Z" fill="#F1BA88"/>
<path d="M29.6766 15.1915C27.0614 14.9073 25.5437 11.2583 27.1403 9.80265C26.6338 9.71813 26.0784 9.70999 25.4761 9.81956C22.2235 10.4131 23.7975 15.4169 26.8748 15.7513C26.8748 15.7513 26.4679 22.4262 41.2571 21.7118L41.2057 21.1953C29.331 20.9705 29.6766 15.1915 29.6766 15.1915Z" fill="#F1BA88"/>
<path d="M40.8539 17.682C40.8539 17.682 33.092 16.7841 30.6358 12.0476C30.6358 12.0476 28.7287 9.22579 25.4761 9.81934C22.2235 10.4129 23.7975 15.4167 26.8748 15.7511C26.8748 15.7511 26.4679 22.426 41.2571 21.7116L40.8539 17.682Z" stroke="#E0E0E0" stroke-width="2" stroke-miterlimit="10" stroke-linecap="round" stroke-linejoin="round"/>
<path d="M56.8936 16.9302C56.8936 16.9302 47.2522 12.7215 37.2695 16.743C37.2695 16.743 38.0277 21.6448 43.7303 22.2715C49.4329 22.8982 57.313 21.1313 57.313 21.1313C57.313 21.1313 58.9678 19.7696 56.8936 16.9302Z" fill="#F1BA88"/>
<path d="M40.6317 18.4241C47.2741 15.7481 53.7612 16.7161 57.3613 17.6634C57.2304 17.4298 57.082 17.1881 56.8936 16.9302C56.8936 16.9302 47.2522 12.7215 37.2695 16.743C37.2695 16.743 37.9407 21.0675 42.7498 22.1118C40.9617 20.4902 40.6317 18.4241 40.6317 18.4241Z" fill="#F1BA88"/>
<path d="M56.8936 16.93C56.8936 16.93 46.8978 12.757 37.2695 16.7428C37.2695 16.7428 38.0277 21.6445 43.7303 22.2713C49.4329 22.898 57.313 21.1311 57.313 21.1311C57.313 21.1311 58.9678 19.7693 56.8936 16.93Z" stroke="#E0E0E0" stroke-width="2" stroke-miterlimit="10" stroke-linecap="round" stroke-linejoin="round"/>
<path d="M29.0137 29.1301C29.0556 28.7156 33.5886 20.9857 41.6716 21.7151C49.7547 22.4451 56.1541 19.5588 56.6299 15.6081C56.8966 13.3948 55.5104 11.9241 55.5104 11.9241C55.5104 11.9241 61.8009 10.5779 64.3717 16.2667C66.9431 21.9555 60.9964 27.5736 54.9188 25.2081C54.9188 25.2081 50.6143 30.5595 45.0326 28.1439C39.4515 25.7291 29.0137 29.1301 29.0137 29.1301Z" fill="#E18282"/>
<path d="M64.3719 16.2667C62.913 13.0385 60.2571 12.0768 58.2323 11.8477C59.703 12.4481 61.1744 13.5901 62.131 15.7063C64.7025 21.3958 59.4682 25.7052 53.3906 23.3398C53.3906 23.3398 49.845 27.2549 45.168 28.1965C50.684 30.468 54.9196 25.2075 54.9196 25.2075C60.9965 27.5735 66.9433 21.9555 64.3719 16.2667Z" fill="#E18282"/>
<path d="M29.0137 29.1301C29.0556 28.7156 33.5886 20.9857 41.6716 21.7151C49.7547 22.4451 55.8792 19.5162 56.6299 15.6081C57.0093 13.6308 55.5104 11.9241 55.5104 11.9241C55.5104 11.9241 61.8009 10.5779 64.3717 16.2667C66.9431 21.9555 60.9964 27.5736 54.9188 25.2081C54.9188 25.2081 50.6143 30.5595 45.0326 28.1439C39.4515 25.7291 29.0137 29.1301 29.0137 29.1301Z" stroke="#E0E0E0" stroke-width="2" stroke-miterlimit="10" stroke-linecap="round" stroke-linejoin="round"/>
<path d="M0 123.629H16.9278V147.739H0L3.14936 135.465L0 123.629Z" fill="#5B5340"/>
<path d="M85.8203 123.629H68.8925V147.739H85.8203L82.671 135.465L85.8203 123.629Z" fill="#5B5340"/>
<rect x="8.79102" y="117.055" width="68.2361" height="24.1097" fill="#BFB39A"/>
<path d="M24.2779 135.055C24.2779 134.489 24.3632 133.988 24.5339 133.551C24.7152 133.113 24.9552 132.713 25.2539 132.351C25.5525 131.977 25.8885 131.62 26.2619 131.279C26.6459 130.927 27.0352 130.559 27.4299 130.175C28.1232 129.513 28.6245 128.9 28.9339 128.335C29.2432 127.769 29.3979 127.225 29.3979 126.703C29.3979 126.297 29.3392 125.908 29.2219 125.535C29.1152 125.151 28.9179 124.836 28.6299 124.591C28.3419 124.345 27.9419 124.223 27.4299 124.223C26.9925 124.223 26.6032 124.335 26.2619 124.559C25.9205 124.772 25.6912 125.039 25.5739 125.359C25.6805 125.465 25.7552 125.583 25.7979 125.711C25.8405 125.828 25.8619 125.945 25.8619 126.063C25.8619 126.159 25.8352 126.265 25.7819 126.383C25.7392 126.5 25.6592 126.601 25.5419 126.687C25.4245 126.772 25.2699 126.815 25.0779 126.815C24.8432 126.804 24.6619 126.713 24.5339 126.543C24.4059 126.372 24.3419 126.169 24.3419 125.935C24.3419 125.711 24.4112 125.465 24.5499 125.199C24.6885 124.921 24.8965 124.665 25.1739 124.431C25.4619 124.185 25.8139 123.988 26.2299 123.839C26.6459 123.679 27.1312 123.599 27.6859 123.599C28.1125 123.599 28.5232 123.652 28.9179 123.759C29.3232 123.855 29.6859 124.015 30.0059 124.239C30.3259 124.463 30.5765 124.761 30.7579 125.135C30.9499 125.497 31.0459 125.951 31.0459 126.495C31.0459 126.761 30.9872 127.049 30.8699 127.359C30.7632 127.668 30.5819 128.004 30.3259 128.367C30.0805 128.719 29.7605 129.097 29.3659 129.503C28.9712 129.897 28.4859 130.329 27.9099 130.799C27.1845 131.396 26.5872 131.961 26.1179 132.495C25.6592 133.017 25.3925 133.465 25.3179 133.839L28.1499 133.919C28.6725 133.929 29.1312 133.929 29.5259 133.919C29.9312 133.908 30.2459 133.828 30.4699 133.679C30.7045 133.519 30.8219 133.231 30.8219 132.815H31.3019L31.2059 135.055H24.2779ZM38.2316 135.311C37.4209 135.311 36.7489 135.14 36.2156 134.799C35.6823 134.447 35.2663 133.988 34.9676 133.423C34.6689 132.847 34.4556 132.217 34.3276 131.535C34.2103 130.852 34.1516 130.175 34.1516 129.503C34.1516 128.831 34.2263 128.148 34.3756 127.455C34.5356 126.761 34.7809 126.127 35.1116 125.551C35.4423 124.964 35.8689 124.495 36.3916 124.143C36.9143 123.78 37.5489 123.599 38.2956 123.599C39.0743 123.599 39.7196 123.775 40.2316 124.127C40.7543 124.479 41.1649 124.943 41.4636 125.519C41.773 126.084 41.9916 126.708 42.1196 127.391C42.2476 128.073 42.3116 128.751 42.3116 129.423C42.3116 130.084 42.237 130.761 42.0876 131.455C41.9383 132.148 41.7036 132.788 41.3836 133.375C41.0636 133.951 40.6423 134.42 40.1196 134.783C39.6076 135.135 38.9783 135.311 38.2316 135.311ZM38.3276 134.687C38.7863 134.687 39.1649 134.543 39.4636 134.255C39.7623 133.967 39.9969 133.583 40.1676 133.103C40.3489 132.623 40.477 132.095 40.5516 131.519C40.6263 130.932 40.6636 130.345 40.6636 129.759C40.6636 129.108 40.6263 128.457 40.5516 127.807C40.477 127.156 40.3489 126.559 40.1676 126.015C39.9863 125.471 39.7409 125.033 39.4316 124.703C39.1223 124.372 38.7329 124.207 38.2636 124.207C37.8049 124.207 37.4156 124.351 37.0956 124.639C36.7863 124.927 36.5356 125.311 36.3436 125.791C36.1516 126.271 36.0129 126.804 35.9276 127.391C35.8423 127.977 35.7996 128.569 35.7996 129.167C35.7996 129.615 35.8209 130.089 35.8636 130.591C35.9063 131.092 35.9809 131.588 36.0876 132.079C36.2049 132.559 36.3596 132.996 36.5516 133.391C36.7436 133.785 36.9836 134.1 37.2716 134.335C37.5596 134.569 37.9116 134.687 38.3276 134.687ZM44.9397 135.055C44.9397 134.489 45.0251 133.988 45.1957 133.551C45.3771 133.113 45.6171 132.713 45.9157 132.351C46.2144 131.977 46.5504 131.62 46.9237 131.279C47.3077 130.927 47.6971 130.559 48.0917 130.175C48.7851 129.513 49.2864 128.9 49.5957 128.335C49.9051 127.769 50.0597 127.225 50.0597 126.703C50.0597 126.297 50.0011 125.908 49.8837 125.535C49.7771 125.151 49.5797 124.836 49.2917 124.591C49.0037 124.345 48.6037 124.223 48.0917 124.223C47.6544 124.223 47.2651 124.335 46.9237 124.559C46.5824 124.772 46.3531 125.039 46.2357 125.359C46.3424 125.465 46.4171 125.583 46.4597 125.711C46.5024 125.828 46.5237 125.945 46.5237 126.063C46.5237 126.159 46.4971 126.265 46.4437 126.383C46.4011 126.5 46.3211 126.601 46.2037 126.687C46.0864 126.772 45.9317 126.815 45.7397 126.815C45.5051 126.804 45.3237 126.713 45.1957 126.543C45.0677 126.372 45.0037 126.169 45.0037 125.935C45.0037 125.711 45.0731 125.465 45.2117 125.199C45.3504 124.921 45.5584 124.665 45.8357 124.431C46.1237 124.185 46.4757 123.988 46.8917 123.839C47.3077 123.679 47.7931 123.599 48.3477 123.599C48.7744 123.599 49.1851 123.652 49.5797 123.759C49.9851 123.855 50.3477 124.015 50.6677 124.239C50.9877 124.463 51.2384 124.761 51.4197 125.135C51.6117 125.497 51.7077 125.951 51.7077 126.495C51.7077 126.761 51.6491 127.049 51.5317 127.359C51.4251 127.668 51.2437 128.004 50.9877 128.367C50.7424 128.719 50.4224 129.097 50.0277 129.503C49.6331 129.897 49.1477 130.329 48.5717 130.799C47.8464 131.396 47.2491 131.961 46.7797 132.495C46.3211 133.017 46.0544 133.465 45.9797 133.839L48.8117 133.919C49.3344 133.929 49.7931 133.929 50.1877 133.919C50.5931 133.908 50.9077 133.828 51.1317 133.679C51.3664 133.519 51.4837 133.231 51.4837 132.815H51.9637L51.8677 135.055H44.9397ZM57.7631 135.311C56.9951 135.311 56.3605 135.199 55.8591 134.975C55.3578 134.74 54.9845 134.452 54.7391 134.111C54.5045 133.769 54.3871 133.444 54.3871 133.135C54.3871 132.889 54.4511 132.687 54.5791 132.527C54.7071 132.356 54.8885 132.265 55.1231 132.255C55.3151 132.244 55.4645 132.281 55.5711 132.367C55.6885 132.441 55.7685 132.537 55.8111 132.655C55.8538 132.772 55.8751 132.879 55.8751 132.975C55.8751 133.081 55.8591 133.188 55.8271 133.295C55.7951 133.401 55.7525 133.508 55.6991 133.615C55.8058 133.977 56.0458 134.239 56.4191 134.399C56.8031 134.559 57.2138 134.639 57.6511 134.639C58.4085 134.639 59.0111 134.431 59.4591 134.015C59.9178 133.599 60.1471 132.996 60.1471 132.207C60.1471 131.737 60.0725 131.295 59.9231 130.879C59.7738 130.452 59.4965 130.105 59.0911 129.839C58.6858 129.572 58.0938 129.449 57.3151 129.471C57.2298 129.471 57.1391 129.476 57.0431 129.487C56.9471 129.487 56.8405 129.492 56.7231 129.503V128.783C56.8405 128.783 56.9525 128.783 57.0591 128.783C57.1658 128.783 57.2725 128.783 57.3791 128.783C57.9445 128.783 58.3871 128.655 58.7071 128.399C59.0271 128.143 59.2565 127.839 59.3951 127.487C59.5338 127.135 59.6031 126.809 59.6031 126.511C59.6031 126.073 59.5445 125.684 59.4271 125.343C59.3205 124.991 59.1285 124.719 58.8511 124.527C58.5738 124.324 58.1898 124.223 57.6991 124.223C57.2191 124.223 56.8085 124.351 56.4671 124.607C56.1258 124.852 55.9125 125.108 55.8271 125.375C55.9231 125.481 55.9871 125.588 56.0191 125.695C56.0618 125.801 56.0831 125.913 56.0831 126.031C56.0831 126.116 56.0565 126.217 56.0031 126.335C55.9605 126.441 55.8858 126.532 55.7791 126.607C55.6725 126.681 55.5285 126.719 55.3471 126.719C55.1231 126.719 54.9525 126.639 54.8351 126.479C54.7178 126.319 54.6591 126.127 54.6591 125.903C54.6591 125.604 54.7765 125.279 55.0111 124.927C55.2458 124.564 55.6031 124.255 56.0831 123.999C56.5738 123.732 57.1871 123.599 57.9231 123.599C58.4991 123.599 59.0325 123.689 59.5231 123.871C60.0138 124.052 60.4085 124.351 60.7071 124.767C61.0058 125.172 61.1551 125.711 61.1551 126.383C61.1551 126.713 61.0698 127.049 60.8991 127.391C60.7391 127.721 60.4671 128.031 60.0831 128.319C59.7098 128.607 59.1925 128.852 58.5311 129.055C59.5445 129.161 60.3391 129.487 60.9151 130.031C61.5018 130.575 61.7951 131.263 61.7951 132.095C61.7951 132.82 61.6031 133.423 61.2191 133.903C60.8458 134.372 60.3498 134.724 59.7311 134.959C59.1231 135.193 58.4671 135.311 57.7631 135.311Z" fill="black"/>
</svg>
