<svg width="86" height="148" viewBox="0 0 86 148" fill="none" xmlns="http://www.w3.org/2000/svg">
<path d="M20.873 75.2969C21.187 75.3516 21.5985 75.4273 22.0889 75.5283C23.2812 75.7739 24.9377 76.1651 26.79 76.748C30.5085 77.9182 34.9597 79.8424 38.0605 82.8584C41.1453 85.8589 42.3364 89.402 42.7549 92.209C42.9641 93.6121 42.9792 94.8267 42.9424 95.6885C42.924 96.1174 42.8926 96.4585 42.8662 96.6904C42.6351 96.7232 42.2952 96.7637 41.8672 96.7939C41.0067 96.8547 39.7922 96.8733 38.3838 96.7031C35.5662 96.3626 31.9917 95.2699 28.9072 92.2695C25.8064 89.2534 23.7599 84.8567 22.4873 81.1719C21.8534 79.3364 21.4162 77.6919 21.1377 76.5068C21.0231 76.0191 20.9364 75.6093 20.873 75.2969Z" fill="#364F3A" stroke="#242F26"/>
<path d="M20.873 75.2969C21.187 75.3516 21.5985 75.4273 22.0889 75.5283C23.2812 75.7739 24.9377 76.1651 26.79 76.748C30.5085 77.9182 34.9597 79.8424 38.0605 82.8584C41.1453 85.8589 42.3364 89.402 42.7549 92.209C42.9641 93.6121 42.9792 94.8267 42.9424 95.6885C42.924 96.1174 42.8926 96.4585 42.8662 96.6904C42.6351 96.7232 42.2952 96.7637 41.8672 96.7939C41.0067 96.8547 39.7922 96.8733 38.3838 96.7031C35.5662 96.3626 31.9917 95.2699 28.9072 92.2695C25.8064 89.2534 23.7599 84.8567 22.4873 81.1719C21.8534 79.3364 21.4162 77.6919 21.1377 76.5068C21.0231 76.0191 20.9364 75.6093 20.873 75.2969Z" fill="#364F3A" stroke="#242F26"/>
<path d="M20.8711 75.2969C21.185 75.3515 21.5966 75.4273 22.0869 75.5283C23.2793 75.7739 24.9357 76.1653 26.7881 76.748C29.7003 77.6643 33.0617 79.0436 35.8721 81.0469C33.4462 79.8005 30.8756 78.8001 28.6338 78.042C26.8109 77.4256 25.1941 76.9648 24.0332 76.6582C23.4528 76.5049 22.9857 76.3902 22.6631 76.3135C22.5017 76.2751 22.3763 76.2459 22.291 76.2266C22.2484 76.2169 22.2156 76.21 22.1934 76.2051C22.1823 76.2026 22.1738 76.2005 22.168 76.1992C22.1651 76.1986 22.1627 76.1986 22.1611 76.1982L22.1592 76.1973L21.3525 76.0234L21.5713 76.8184V76.8213C21.5717 76.8228 21.5725 76.8253 21.5732 76.8281C21.5748 76.8338 21.5771 76.8419 21.5801 76.8525C21.5862 76.8743 21.5955 76.9065 21.6074 76.9482C21.6312 77.0317 21.6661 77.1547 21.7129 77.3125C21.8065 77.6285 21.9467 78.0859 22.1299 78.6543C22.4963 79.7911 23.0387 81.3737 23.7451 83.1582C24.5989 85.3148 25.6994 87.7802 27.0215 90.1162C24.9479 87.3658 23.48 84.0515 22.4854 81.1719C21.8514 79.3364 21.4143 77.6919 21.1357 76.5068C21.0211 76.0191 20.9345 75.6093 20.8711 75.2969Z" fill="#364F3A" stroke="#242F26"/>
<path d="M38.4095 82.5001C44.7788 88.6954 43.3125 97.1241 43.3125 97.1241C43.3125 97.1241 34.9271 98.8233 28.5583 92.628C22.189 86.4327 20.248 74.6895 20.248 74.6895C20.248 74.6895 32.0401 76.3048 38.4095 82.5001Z" stroke="#242F26" stroke-width="2" stroke-miterlimit="10" stroke-linecap="round" stroke-linejoin="round"/>
<path d="M20.6641 75.0957L43.3109 97.1233" stroke="#242F26" stroke-width="2" stroke-miterlimit="10" stroke-linecap="round" stroke-linejoin="round"/>
<path d="M29.9355 93.8267L37.631 91.5996" stroke="#242F26" stroke-width="2" stroke-miterlimit="10" stroke-linecap="round" stroke-linejoin="round"/>
<path d="M24.3691 86.8365L30.8155 84.9707" stroke="#242F26" stroke-width="2" stroke-miterlimit="10" stroke-linecap="round" stroke-linejoin="round"/>
<path d="M36.1744 80.6484L34.3418 88.1648" stroke="#242F26" stroke-width="2" stroke-miterlimit="10" stroke-linecap="round" stroke-linejoin="round"/>
<path d="M29.3115 77.0928L28.0938 82.0878" stroke="#242F26" stroke-width="2" stroke-miterlimit="10" stroke-linecap="round" stroke-linejoin="round"/>
<path d="M41.2549 108.378L40.709 111.386L37.2725 106.744L41.2549 108.378Z" fill="#5B5340" stroke="#5B5340"/>
<path d="M41.8203 108.07L35.8047 105.603L40.9945 112.612L41.8203 108.07Z" fill="#5B5340" stroke="#5B5340" stroke-width="2" stroke-miterlimit="10" stroke-linecap="round" stroke-linejoin="round"/>
<path d="M43.0202 58.101C49.7408 60.0832 61.362 61.9033 61.6418 74.3647C61.6418 74.3647 66.4021 66.524 60.8016 60.3631C60.8016 60.3631 61.6418 52.5224 50.4408 51.962C39.2398 51.4016 43.0202 58.101 43.0202 58.101Z" fill="#364F3A"/>
<path d="M60.8009 60.363C60.8009 60.363 61.2035 56.5607 57.666 54.0625C59.1612 56.237 58.9226 58.4847 58.9226 58.4847C62.4851 62.4035 61.8547 66.9985 60.9249 69.8266C61.3463 71.1608 61.603 72.6597 61.6412 74.364C61.6412 74.364 66.4014 66.5239 60.8009 60.363Z" fill="#364F3A"/>
<path d="M43.0202 58.101C49.7408 60.0832 61.3619 61.9033 61.6418 74.3647C61.6418 74.3647 66.4021 66.524 60.8016 60.3631C60.8016 60.3631 61.6418 52.5224 50.4408 51.962C39.2398 51.4016 43.0202 58.101 43.0202 58.101Z" stroke="#242F26" stroke-width="2" stroke-miterlimit="10" stroke-linecap="round" stroke-linejoin="round"/>
<path d="M43.0195 58.1013C43.0195 58.1013 53.3803 53.9227 60.8015 60.3634" stroke="#242F26" stroke-width="2" stroke-miterlimit="10" stroke-linecap="round" stroke-linejoin="round"/>
<path d="M39.7489 56.8489C33.0283 58.8312 21.4072 60.6513 21.1273 73.1127C21.1273 73.1127 16.367 65.2719 21.9676 59.1111C21.9676 59.1111 21.1273 51.2703 32.3283 50.71C43.5294 50.1502 39.7489 56.8489 39.7489 56.8489Z" fill="#364F3A"/>
<path d="M21.9676 59.111C21.9676 59.111 21.565 55.3087 25.1025 52.8105C23.6073 54.985 23.8459 57.2327 23.8459 57.2327C20.2833 61.1515 20.9138 65.7465 21.8436 68.5746C21.4222 69.9088 21.1655 71.4077 21.1273 73.112C21.1273 73.112 16.367 65.2719 21.9676 59.111Z" fill="#364F3A"/>
<path d="M39.7489 56.8489C33.0283 58.8312 21.4072 60.6513 21.1273 73.1127C21.1273 73.1127 16.367 65.2719 21.9676 59.1111C21.9676 59.1111 21.1273 51.2703 32.3283 50.71C43.5294 50.1502 39.7489 56.8489 39.7489 56.8489Z" stroke="#242F26" stroke-width="2" stroke-miterlimit="10" stroke-linecap="round" stroke-linejoin="round"/>
<path d="M39.7508 56.8494C39.7508 56.8494 29.39 52.6707 21.9688 59.1115" stroke="#242F26" stroke-width="2" stroke-miterlimit="10" stroke-linecap="round" stroke-linejoin="round"/>
<path d="M44.2744 50.2451V115.501H41.1094V50.2451H44.2744Z" fill="#364F3A" stroke="#364F3A"/>
<path d="M44.7748 49.7451H40.6094V116.001H44.7748V49.7451Z" fill="#364F3A" stroke="#364F3A" stroke-width="2" stroke-miterlimit="10" stroke-linecap="round" stroke-linejoin="round"/>
<path d="M61.0921 103.446C53.0285 109.838 43.4184 107.08 43.4184 107.08C43.4184 107.08 42.5676 97.3805 50.6305 90.9892C58.6941 84.598 72.6187 83.9355 72.6187 83.9355C72.6187 83.9355 69.1557 97.055 61.0921 103.446Z" fill="#364F3A"/>
<path d="M61.0921 103.446C53.0285 109.838 43.4184 107.08 43.4184 107.08C43.4184 107.08 42.5676 97.3805 50.6305 90.9892C58.6941 84.598 72.6187 83.9355 72.6187 83.9355C72.6187 83.9355 69.1557 97.055 61.0921 103.446Z" fill="#364F3A"/>
<path d="M50.6303 90.9892C49.9259 91.5471 49.2935 92.1319 48.7188 92.7317C56.8813 87.6934 70.052 85.7168 70.052 85.7168C70.052 85.7168 65.7294 98.0611 59.0921 104.829C59.7645 104.422 60.4332 103.968 61.0918 103.446C69.1554 97.055 72.6184 83.9355 72.6184 83.9355C72.6184 83.9355 58.6939 84.598 50.6303 90.9892Z" fill="#364F3A"/>
<path d="M61.0921 103.446C53.0285 109.838 43.4184 107.08 43.4184 107.08C43.4184 107.08 42.5676 97.3805 50.6305 90.9892C58.6941 84.598 72.6187 83.9355 72.6187 83.9355C72.6187 83.9355 69.1557 97.055 61.0921 103.446Z" stroke="#242F26" stroke-width="2" stroke-miterlimit="10" stroke-linecap="round" stroke-linejoin="round"/>
<path d="M72.0892 84.3555L43.418 107.081" stroke="#242F26" stroke-width="2" stroke-miterlimit="10" stroke-linecap="round" stroke-linejoin="round"/>
<path d="M49.0508 92.3916L50.6085 101.381" stroke="#242F26" stroke-width="2" stroke-miterlimit="10" stroke-linecap="round" stroke-linejoin="round"/>
<path d="M55.2768 106.596L47.8574 103.81" stroke="#242F26" stroke-width="2" stroke-miterlimit="10" stroke-linecap="round" stroke-linejoin="round"/>
<path d="M57.9316 87.0127L59.2365 94.5429" stroke="#242F26" stroke-width="2" stroke-miterlimit="10" stroke-linecap="round" stroke-linejoin="round"/>
<path d="M63.5463 101.163L55.0469 98.1104" stroke="#242F26" stroke-width="2" stroke-miterlimit="10" stroke-linecap="round" stroke-linejoin="round"/>
<path d="M66.6348 84.6768L67.1463 88.2731" stroke="#242F26" stroke-width="2" stroke-miterlimit="10" stroke-linecap="round" stroke-linejoin="round"/>
<path d="M68.6051 93.8698L62.957 91.8418" stroke="#242F26" stroke-width="2" stroke-miterlimit="10" stroke-linecap="round" stroke-linejoin="round"/>
<path d="M33.8908 55.582C31.4146 56.6739 26.6111 59.4281 26.586 65.182C26.5566 71.9646 32.534 75.4082 32.534 75.4082C32.534 75.4082 30.9688 65.9121 33.8908 64.5559C36.8128 63.1992 43.9085 61.53 44.43 54.7467C44.43 54.7467 39.3273 53.1852 33.8908 55.582Z" fill="#364F3A"/>
<path d="M27.2115 67.0603C27.2366 61.3058 32.04 58.5515 34.5163 57.4602C38.5734 55.6714 42.4422 56.0878 44.1458 56.414C44.2854 55.895 44.3843 55.3415 44.43 54.7473C44.43 54.7473 39.3273 53.1852 33.8908 55.5819C31.4146 56.6738 26.6111 59.4281 26.586 65.182C26.5785 66.8962 26.9561 68.3951 27.5227 69.6812C27.3274 68.8697 27.2078 68.0007 27.2115 67.0603Z" fill="#364F3A"/>
<path d="M33.8908 55.5821C31.4146 56.6741 26.6111 59.4283 26.586 65.1821C26.5566 71.9647 32.534 75.4082 32.534 75.4082C32.534 75.4082 30.9688 65.9122 33.8908 64.556C36.8128 63.1993 43.9085 61.5301 44.43 54.7469C44.43 54.7469 39.3273 53.1854 33.8908 55.5821Z" stroke="#242F26" stroke-width="2" stroke-miterlimit="10" stroke-linecap="round" stroke-linejoin="round"/>
<path d="M30.0293 67.8947C30.0293 67.8947 31.9727 65.3452 33.8905 64.5557" stroke="#242F26" stroke-width="2" stroke-miterlimit="10" stroke-linecap="round" stroke-linejoin="round"/>
<path d="M43.4386 54.6738C42.6503 59.7283 42.7962 61.4589 45.9681 67.5089C49.1399 73.5583 48.2333 76.3846 48.2333 76.3846C48.2333 76.3846 58.9673 64.5938 49.3083 55.4088C47.9929 54.1579 43.4386 54.6738 43.4386 54.6738Z" fill="#364F3A"/>
<path d="M51.3919 57.877C54.0209 64.1668 50.0583 70.6025 48.123 73.2009C48.5582 75.3472 48.2338 76.3846 48.2338 76.3846C48.2338 76.3846 57.159 66.5723 51.3919 57.877Z" fill="#364F3A"/>
<path d="M43.4386 54.6738C42.6503 59.7283 42.7962 61.4589 45.9681 67.5089C49.1399 73.5583 48.2333 76.3846 48.2333 76.3846C48.2333 76.3846 58.9673 64.5938 49.3083 55.4088C47.9929 54.1579 43.4386 54.6738 43.4386 54.6738Z" stroke="#242F26" stroke-width="2" stroke-miterlimit="10" stroke-linecap="round" stroke-linejoin="round"/>
<path d="M42.6914 81.1472L48.707 78.6797L43.5179 85.6889L42.6914 81.1472Z" fill="#5B5340"/>
<path d="M42.6914 81.1472L48.707 78.6797L43.5179 85.6889L42.6914 81.1472Z" fill="#5B5340" stroke="#5B5340" stroke-width="2" stroke-miterlimit="10" stroke-linecap="round" stroke-linejoin="round"/>
<path d="M19.566 31.2949C19.3888 32.2078 19.3255 60.2341 45.7033 58.1354C45.7033 58.1354 51.5292 52.8079 50.0128 47.0509C48.4964 41.2938 46.3777 39.8049 43.6572 37.6599C40.9362 35.5149 19.566 31.2949 19.566 31.2949Z" fill="#7F27A2"/>
<path d="M19.566 31.2949C19.3888 32.2078 19.3255 60.2341 45.7033 58.1354C45.7033 58.1354 51.5292 52.8079 50.0128 47.0509C48.4964 41.2938 46.3776 39.8049 43.6572 37.6599C40.9362 35.5149 19.566 31.2949 19.566 31.2949Z" stroke="#491076" stroke-width="2" stroke-miterlimit="10" stroke-linecap="round" stroke-linejoin="round"/>
<path d="M43.5104 47.392C35.5031 40.2656 22.328 30.6386 28.6598 26.3999C34.9922 22.1605 51.5727 22.8148 56.3505 21.3522C61.1277 19.8897 63.5965 19.5059 63.5965 19.5059C63.5965 19.5059 68.7606 25.6617 58.9921 37.1126C49.223 48.5628 43.5104 47.392 43.5104 47.392Z" fill="#7F27A2"/>
<path d="M41.7067 58.4455C41.7067 58.4455 37.3891 55.3526 42.6647 49.2186C47.9396 43.0847 62.546 32.2812 67.2794 30.376C67.2794 30.376 67.2449 43.1016 62.5015 49.6406C53.6108 61.8979 41.7067 58.4455 41.7067 58.4455Z" fill="#7F27A2"/>
<path d="M41.7067 58.4455C41.7067 58.4455 37.3891 55.3526 42.6647 49.2186C47.9396 43.0847 62.546 32.2812 67.2794 30.376C67.2794 30.376 67.2449 43.1016 62.5015 49.6406C53.6108 61.8979 41.7067 58.4455 41.7067 58.4455Z" stroke="#491076" stroke-width="2" stroke-miterlimit="10" stroke-linecap="round" stroke-linejoin="round"/>
<path d="M59.2565 14.7654C58.5865 18.2554 61.9212 23.1233 59.1356 29.0413C56.3501 34.9592 45.7802 44.0728 42.6641 49.2188C42.6641 49.2188 51.0094 41.4914 58.0863 38.8148C65.1631 36.1382 73.7032 30.3605 70.6328 24.1326C70.6328 24.1326 74.4126 17.7457 71.5225 12.7638C68.0207 6.7275 59.8744 11.5466 59.2565 14.7654Z" fill="#7F27A2"/>
<path d="M71.5225 12.7635C70.358 10.7562 68.6794 9.95414 66.935 9.88965C67.8247 10.3423 68.6324 11.0855 69.281 12.2031C72.1711 17.185 68.3914 23.5719 68.3914 23.5719C71.4624 29.7998 62.9223 35.5775 55.8448 38.2541C53.2997 39.217 50.5924 40.833 48.1663 42.5078C45.844 45.0336 43.7773 47.3802 42.6641 49.2191C42.6641 49.2191 51.0094 41.4917 58.0863 38.8151C65.1631 36.1385 73.7032 30.3608 70.6328 24.1329C70.6328 24.1329 74.4126 17.7448 71.5225 12.7635Z" fill="#7F27A2"/>
<path d="M59.2565 14.7654C58.5865 18.2554 61.9212 23.1233 59.1356 29.0413C56.3501 34.9592 45.7802 44.0728 42.6641 49.2188C42.6641 49.2188 51.0094 41.4914 58.0863 38.8148C65.1631 36.1382 73.7032 30.3605 70.6328 24.1326C70.6328 24.1326 74.4126 17.7457 71.5225 12.7638C68.0207 6.7275 59.8744 11.5466 59.2565 14.7654Z" stroke="#491076" stroke-width="2" stroke-miterlimit="10" stroke-linecap="round" stroke-linejoin="round"/>
<path d="M63.9845 16.2136C63.9845 16.2136 68.6903 11.3456 65.3575 6.66546C62.0248 1.98532 54.3312 4.72391 54.3312 4.72391C54.3312 4.72391 53.3826 1.50635 47.1604 1.0543C40.9382 0.602257 34.468 3.03906 31.082 5.88408C31.082 5.88408 49.6335 8.77418 53.6926 10.8754C57.7529 12.976 63.9845 16.2136 63.9845 16.2136Z" fill="#7F27A2"/>
<path d="M65.3575 6.66546C62.0248 1.98532 54.3312 4.72391 54.3312 4.72391C54.3312 4.72391 53.3826 1.50635 47.1604 1.0543C40.9382 0.602257 34.468 3.03906 31.082 5.88408C31.082 5.88408 31.3043 5.91914 31.6875 5.9805C35.2807 3.8868 40.4598 2.37038 45.4799 2.7354C51.7022 3.18745 52.6501 6.405 52.6501 6.405C52.6501 6.405 60.3437 3.66642 63.6764 8.34655C65.7351 11.2379 64.7258 14.1994 63.6539 16.042C63.8649 16.1516 63.9845 16.2136 63.9845 16.2136C63.9845 16.2136 68.6903 11.3456 65.3575 6.66546Z" fill="#7F27A2"/>
<path d="M63.9845 16.2136C63.9845 16.2136 68.6903 11.3456 65.3575 6.66546C62.0248 1.98532 54.3312 4.72391 54.3312 4.72391C54.3312 4.72391 53.3826 1.50635 47.1604 1.0543C40.9382 0.602257 34.468 3.03906 31.082 5.88408C31.082 5.88408 49.6335 8.77418 53.6926 10.8754C57.7529 12.976 63.9845 16.2136 63.9845 16.2136Z" stroke="#491076" stroke-width="2" stroke-miterlimit="10" stroke-linecap="round" stroke-linejoin="round"/>
<path d="M57.0556 18.4181C57.358 18.4669 56.117 12.0074 52.4255 8.56883C48.734 5.13027 41.0554 4.2318 33.5879 7.67538C33.5879 7.67538 40.0606 12.1426 44.5391 13.778C49.0183 15.4134 57.0556 18.4181 57.0556 18.4181Z" fill="#E85D5B"/>
<path d="M57.0556 18.4181C57.358 18.4669 56.117 12.0074 52.4255 8.56883C48.734 5.13027 41.0554 4.2318 33.5879 7.67538C33.5879 7.67538 40.0606 12.1426 44.5391 13.778C49.0183 15.4134 57.0556 18.4181 57.0556 18.4181Z" stroke="#E23532" stroke-width="2" stroke-miterlimit="10" stroke-linecap="round" stroke-linejoin="round"/>
<path d="M18.6208 24.002L16.864 13.2142C16.864 13.2142 13.5475 7.4315 22.9002 6.43411C22.9002 6.43411 28.5734 1.39083 35.664 5.15811C42.7547 8.92538 42.4986 11.7397 42.4986 11.7397C42.4986 11.7397 40.6397 16.4762 37.1873 21.2985C33.735 26.1214 27.1002 30.5429 27.1002 30.5429L18.6208 24.002Z" fill="#E85D5B"/>
<path d="M17.9849 16.0154C17.9849 16.0154 14.6678 10.2327 24.0212 9.2353C24.0212 9.2353 29.6943 4.19203 36.7849 7.95931C39.7452 9.53208 41.4219 10.9377 42.3742 12.0428C42.4537 11.8531 42.4988 11.7397 42.4988 11.7397C42.4988 11.7397 42.7549 8.92538 35.6642 5.15811C28.5736 1.39083 22.9004 6.43411 22.9004 6.43411C13.547 7.43212 16.8641 13.2142 16.8641 13.2142L18.621 24.002L19.3811 24.588L17.9849 16.0154Z" fill="#E85D5B"/>
<path d="M18.6208 24.002L16.864 13.2142C16.864 13.2142 13.5475 7.4315 22.9002 6.43411C22.9002 6.43411 28.5734 1.39083 35.664 5.15811C42.7547 8.92538 42.4986 11.7397 42.4986 11.7397C42.4986 11.7397 40.6397 16.4762 37.1873 21.2985C33.735 26.1214 27.1002 30.5429 27.1002 30.5429L18.6208 24.002Z" stroke="#E23532" stroke-width="2" stroke-miterlimit="10" stroke-linecap="round" stroke-linejoin="round"/>
<path d="M47.4158 44.8046C47.4158 44.8046 47.6199 36.1005 39.2971 33.4414C30.9743 30.7817 23.786 26.935 22.3328 21.3507C20.8796 15.7665 19.1334 14.4191 16.8644 13.2139C16.8644 13.2139 14.0813 15.8197 16.7842 20.4729C16.7842 20.4729 11.3152 23.9735 16.1857 30.6039C21.0562 37.2344 33.4674 37.5487 38.6679 38.7859C45.8205 40.4883 47.4158 44.8046 47.4158 44.8046Z" fill="#7F27A2"/>
<path d="M19.5315 17.9884C20.0637 20.0339 21.3635 21.8596 23.2048 23.4787C22.8217 22.7987 22.5255 22.09 22.3333 21.3506C21.1587 16.8388 19.7932 15.0933 18.1152 13.9531C18.6186 14.9837 19.0888 16.2879 19.5315 17.9884Z" fill="#7F27A2"/>
<path d="M47.3809 44.7197C47.4042 44.7734 47.4162 44.805 47.4162 44.805C47.4162 44.805 47.4162 44.7898 47.4169 44.7665C47.4042 44.7513 47.3922 44.7355 47.3809 44.7197Z" fill="#7F27A2"/>
<path d="M35.8671 35.4238C31.257 34.3269 20.9833 33.9512 15.3164 29.2617C15.5612 29.6944 15.8461 30.1408 16.1861 30.6041C21.0565 37.2345 33.4678 37.5488 38.6682 38.786C41.4807 39.4553 43.431 40.5285 44.7659 41.5847C42.2965 38.8925 39.1366 36.2015 35.8671 35.4238Z" fill="#7F27A2"/>
<path d="M47.4158 44.8046C47.4158 44.8046 47.6199 36.1005 39.2971 33.4414C30.9743 30.7817 23.786 26.935 22.3328 21.3507C20.8796 15.7665 19.1334 14.4191 16.8644 13.2139C16.8644 13.2139 14.0813 15.8197 16.7842 20.4729C16.7842 20.4729 11.3152 23.9735 16.1857 30.6039C21.0562 37.2344 33.4674 37.5487 38.6679 38.7859C45.8205 40.4883 47.4158 44.8046 47.4158 44.8046Z" stroke="#491076" stroke-width="2" stroke-miterlimit="10" stroke-linecap="round" stroke-linejoin="round"/>
<path d="M51.4868 17.4628C51.4868 17.4628 51.3961 14.8651 47.2619 11.9656C43.1277 9.06673 37.1559 11.1229 36.295 12.3594C36.295 12.3594 31.1203 10.7416 29.3816 13.0506C27.6429 15.3597 37.2329 19.0556 42.7019 19.1358C48.171 19.2159 51.4868 17.4628 51.4868 17.4628Z" fill="#FD7D7B"/>
<path d="M51.4868 17.4628C51.4868 17.4628 51.3961 14.8651 47.2619 11.9656C43.1277 9.06673 37.1559 11.1229 36.295 12.3594C36.295 12.3594 31.1203 10.7416 29.3816 13.0506C27.6429 15.3597 37.2329 19.0556 42.7019 19.1358C48.171 19.2159 51.4868 17.4628 51.4868 17.4628Z" stroke="#E23532" stroke-width="2" stroke-miterlimit="10" stroke-linecap="round" stroke-linejoin="round"/>
<path d="M41.1234 17.682C41.1234 17.682 33.3616 16.7841 30.9054 12.0476C30.9054 12.0476 28.9982 9.22579 25.7456 9.81934C22.493 10.4129 24.067 15.4167 27.1443 15.7511C27.1443 15.7511 26.7374 22.426 41.5266 21.7116L41.1234 17.682Z" fill="#FD7D7B"/>
<path d="M29.9462 15.1915C27.3309 14.9073 25.8133 11.2583 27.4098 9.80265C26.9033 9.71813 26.3479 9.70999 25.7456 9.81956C22.493 10.4131 24.067 15.4169 27.1443 15.7513C27.1443 15.7513 26.7374 22.4262 41.5266 21.7118L41.4753 21.1953C29.6006 20.9705 29.9462 15.1915 29.9462 15.1915Z" fill="#FD7D7B"/>
<path d="M41.1234 17.682C41.1234 17.682 33.3616 16.7841 30.9054 12.0476C30.9054 12.0476 28.9982 9.22579 25.7456 9.81934C22.493 10.4129 24.067 15.4167 27.1443 15.7511C27.1443 15.7511 26.7374 22.426 41.5266 21.7116L41.1234 17.682Z" stroke="#E23532" stroke-width="2" stroke-miterlimit="10" stroke-linecap="round" stroke-linejoin="round"/>
<path d="M57.1631 16.9302C57.1631 16.9302 47.5217 12.7215 37.5391 16.743C37.5391 16.743 38.2973 21.6448 43.9998 22.2715C49.7024 22.8982 57.5826 21.1313 57.5826 21.1313C57.5826 21.1313 59.2374 19.7696 57.1631 16.9302Z" fill="#FD7D7B"/>
<path d="M40.9013 18.4241C47.5436 15.7481 54.0307 16.7161 57.6308 17.6634C57.4999 17.4298 57.3515 17.1881 57.1631 16.9302C57.1631 16.9302 47.5217 12.7215 37.5391 16.743C37.5391 16.743 38.2103 21.0675 43.0194 22.1118C41.2312 20.4902 40.9013 18.4241 40.9013 18.4241Z" fill="#FD7D7B"/>
<path d="M57.1631 16.93C57.1631 16.93 47.1673 12.757 37.5391 16.7428C37.5391 16.7428 38.2973 21.6445 43.9998 22.2713C49.7024 22.898 57.5826 21.1311 57.5826 21.1311C57.5826 21.1311 59.2374 19.7693 57.1631 16.93Z" stroke="#E23532" stroke-width="2" stroke-miterlimit="10" stroke-linecap="round" stroke-linejoin="round"/>
<path d="M29.2832 29.1301C29.3252 28.7156 33.8582 20.9857 41.9412 21.7151C50.0242 22.4451 56.4236 19.5588 56.8994 15.6081C57.1662 13.3948 55.78 11.9241 55.78 11.9241C55.78 11.9241 62.0704 10.5779 64.6412 16.2667C67.2126 21.9555 61.2659 27.5736 55.1883 25.2081C55.1883 25.2081 50.8838 30.5595 45.3021 28.1439C39.721 25.7291 29.2832 29.1301 29.2832 29.1301Z" fill="#E85D5B"/>
<path d="M64.6414 16.2667C63.1826 13.0385 60.5266 12.0768 58.5018 11.8477C59.9725 12.4481 61.4439 13.5901 62.4006 15.7063C64.972 21.3958 59.7377 25.7052 53.6601 23.3398C53.6601 23.3398 50.1145 27.2549 45.4375 28.1965C50.9535 30.468 55.1891 25.2075 55.1891 25.2075C61.2661 27.5735 67.2128 21.9555 64.6414 16.2667Z" fill="#E85D5B"/>
<path d="M29.2832 29.1301C29.3252 28.7156 33.8582 20.9857 41.9412 21.7151C50.0242 22.4451 56.1487 19.5162 56.8994 15.6081C57.2789 13.6308 55.78 11.9241 55.78 11.9241C55.78 11.9241 62.0704 10.5779 64.6412 16.2667C67.2126 21.9555 61.2659 27.5736 55.1883 25.2081C55.1883 25.2081 50.8838 30.5595 45.3021 28.1439C39.721 25.7291 29.2832 29.1301 29.2832 29.1301Z" stroke="#E23532" stroke-width="2" stroke-miterlimit="10" stroke-linecap="round" stroke-linejoin="round"/>
<path d="M0 123.26H16.9273V147.369H0L3.14926 135.095L0 123.26Z" fill="#5B5340"/>
<path d="M85.8184 123.26H68.8911V147.369H85.8184L82.6691 135.095L85.8184 123.26Z" fill="#5B5340"/>
<rect x="8.79297" y="116.685" width="68.234" height="24.1097" fill="#BFB39A"/>
<path d="M24.4568 134.685C24.4568 134.119 24.5421 133.618 24.7128 133.181C24.8941 132.743 25.1341 132.343 25.4328 131.981C25.7314 131.607 26.0674 131.25 26.4408 130.909C26.8248 130.557 27.2141 130.189 27.6088 129.805C28.3021 129.143 28.8034 128.53 29.1128 127.965C29.4221 127.399 29.5768 126.855 29.5768 126.333C29.5768 125.927 29.5181 125.538 29.4008 125.165C29.2941 124.781 29.0968 124.466 28.8088 124.221C28.5208 123.975 28.1208 123.853 27.6088 123.853C27.1714 123.853 26.7821 123.965 26.4408 124.189C26.0994 124.402 25.8701 124.669 25.7528 124.989C25.8594 125.095 25.9341 125.213 25.9768 125.341C26.0194 125.458 26.0408 125.575 26.0408 125.693C26.0408 125.789 26.0141 125.895 25.9608 126.013C25.9181 126.13 25.8381 126.231 25.7208 126.317C25.6034 126.402 25.4488 126.445 25.2568 126.445C25.0221 126.434 24.8408 126.343 24.7128 126.173C24.5848 126.002 24.5208 125.799 24.5208 125.565C24.5208 125.341 24.5901 125.095 24.7288 124.829C24.8674 124.551 25.0754 124.295 25.3528 124.061C25.6408 123.815 25.9928 123.618 26.4088 123.469C26.8248 123.309 27.3101 123.229 27.8648 123.229C28.2914 123.229 28.7021 123.282 29.0968 123.389C29.5021 123.485 29.8648 123.645 30.1848 123.869C30.5048 124.093 30.7554 124.391 30.9368 124.765C31.1288 125.127 31.2248 125.581 31.2248 126.125C31.2248 126.391 31.1661 126.679 31.0488 126.989C30.9421 127.298 30.7608 127.634 30.5048 127.997C30.2594 128.349 29.9394 128.727 29.5448 129.133C29.1501 129.527 28.6648 129.959 28.0888 130.429C27.3634 131.026 26.7661 131.591 26.2968 132.125C25.8381 132.647 25.5714 133.095 25.4968 133.469L28.3288 133.549C28.8514 133.559 29.3101 133.559 29.7048 133.549C30.1101 133.538 30.4248 133.458 30.6488 133.309C30.8834 133.149 31.0008 132.861 31.0008 132.445H31.4808L31.3848 134.685H24.4568ZM38.4105 134.941C37.5999 134.941 36.9279 134.77 36.3945 134.429C35.8612 134.077 35.4452 133.618 35.1465 133.053C34.8479 132.477 34.6345 131.847 34.5065 131.165C34.3892 130.482 34.3305 129.805 34.3305 129.133C34.3305 128.461 34.4052 127.778 34.5545 127.085C34.7145 126.391 34.9599 125.757 35.2905 125.181C35.6212 124.594 36.0479 124.125 36.5705 123.773C37.0932 123.41 37.7279 123.229 38.4745 123.229C39.2532 123.229 39.8985 123.405 40.4105 123.757C40.9332 124.109 41.3439 124.573 41.6425 125.149C41.9519 125.714 42.1705 126.338 42.2985 127.021C42.4265 127.703 42.4905 128.381 42.4905 129.053C42.4905 129.714 42.4159 130.391 42.2665 131.085C42.1172 131.778 41.8825 132.418 41.5625 133.005C41.2425 133.581 40.8212 134.05 40.2985 134.413C39.7865 134.765 39.1572 134.941 38.4105 134.941ZM38.5065 134.317C38.9652 134.317 39.3439 134.173 39.6425 133.885C39.9412 133.597 40.1759 133.213 40.3465 132.733C40.5279 132.253 40.6559 131.725 40.7305 131.149C40.8052 130.562 40.8425 129.975 40.8425 129.389C40.8425 128.738 40.8052 128.087 40.7305 127.437C40.6559 126.786 40.5279 126.189 40.3465 125.645C40.1652 125.101 39.9199 124.663 39.6105 124.333C39.3012 124.002 38.9119 123.837 38.4425 123.837C37.9839 123.837 37.5945 123.981 37.2745 124.269C36.9652 124.557 36.7145 124.941 36.5225 125.421C36.3305 125.901 36.1919 126.434 36.1065 127.021C36.0212 127.607 35.9785 128.199 35.9785 128.797C35.9785 129.245 35.9999 129.719 36.0425 130.221C36.0852 130.722 36.1599 131.218 36.2665 131.709C36.3839 132.189 36.5385 132.626 36.7305 133.021C36.9225 133.415 37.1625 133.73 37.4505 133.965C37.7385 134.199 38.0905 134.317 38.5065 134.317ZM45.1186 134.685C45.1186 134.119 45.204 133.618 45.3746 133.181C45.556 132.743 45.796 132.343 46.0946 131.981C46.3933 131.607 46.7293 131.25 47.1026 130.909C47.4866 130.557 47.876 130.189 48.2706 129.805C48.964 129.143 49.4653 128.53 49.7746 127.965C50.084 127.399 50.2386 126.855 50.2386 126.333C50.2386 125.927 50.18 125.538 50.0626 125.165C49.956 124.781 49.7586 124.466 49.4706 124.221C49.1826 123.975 48.7826 123.853 48.2706 123.853C47.8333 123.853 47.444 123.965 47.1026 124.189C46.7613 124.402 46.532 124.669 46.4146 124.989C46.5213 125.095 46.596 125.213 46.6386 125.341C46.6813 125.458 46.7026 125.575 46.7026 125.693C46.7026 125.789 46.676 125.895 46.6226 126.013C46.58 126.13 46.5 126.231 46.3826 126.317C46.2653 126.402 46.1106 126.445 45.9186 126.445C45.684 126.434 45.5026 126.343 45.3746 126.173C45.2466 126.002 45.1826 125.799 45.1826 125.565C45.1826 125.341 45.252 125.095 45.3906 124.829C45.5293 124.551 45.7373 124.295 46.0146 124.061C46.3026 123.815 46.6546 123.618 47.0706 123.469C47.4866 123.309 47.972 123.229 48.5266 123.229C48.9533 123.229 49.364 123.282 49.7586 123.389C50.164 123.485 50.5266 123.645 50.8466 123.869C51.1666 124.093 51.4173 124.391 51.5986 124.765C51.7906 125.127 51.8866 125.581 51.8866 126.125C51.8866 126.391 51.828 126.679 51.7106 126.989C51.604 127.298 51.4226 127.634 51.1666 127.997C50.9213 128.349 50.6013 128.727 50.2066 129.133C49.812 129.527 49.3266 129.959 48.7506 130.429C48.0253 131.026 47.428 131.591 46.9586 132.125C46.5 132.647 46.2333 133.095 46.1586 133.469L48.9906 133.549C49.5133 133.559 49.972 133.559 50.3666 133.549C50.772 133.538 51.0866 133.458 51.3106 133.309C51.5453 133.149 51.6626 132.861 51.6626 132.445H52.1426L52.0466 134.685H45.1186ZM60.249 132.941C60.249 133.154 60.2437 133.357 60.233 133.549C60.233 133.741 60.217 133.917 60.185 134.077C60.3984 134.066 60.6064 134.061 60.809 134.061C61.0117 134.05 61.2144 134.039 61.417 134.029V134.685H57.401V134.157H57.513C57.8757 134.125 58.1477 134.023 58.329 133.853C58.5104 133.682 58.633 133.453 58.697 133.165C58.761 132.877 58.793 132.535 58.793 132.141V131.597H53.929V130.813L59.721 123.229H60.249V130.637L61.865 130.653V131.597H60.249V132.941ZM58.761 125.501L54.985 130.557L58.793 130.605V125.501H58.761Z" fill="black"/>
</svg>
