<svg width="86" height="148" viewBox="0 0 86 148" fill="none" xmlns="http://www.w3.org/2000/svg">
<path d="M20.6934 75.2969C21.0073 75.3516 21.4188 75.4273 21.9092 75.5283C23.1015 75.7739 24.758 76.1651 26.6104 76.748C30.3288 77.9182 34.78 79.8424 37.8809 82.8584C40.9656 85.8589 42.1567 89.402 42.5752 92.209C42.7844 93.6121 42.7995 94.8267 42.7627 95.6885C42.7443 96.1174 42.7129 96.4585 42.6865 96.6904C42.4554 96.7232 42.1155 96.7637 41.6875 96.7939C40.827 96.8547 39.6125 96.8733 38.2041 96.7031C35.3865 96.3626 31.812 95.2699 28.7275 92.2695C25.6267 89.2534 23.5803 84.8567 22.3076 81.1719C21.6737 79.3364 21.2365 77.6919 20.958 76.5068C20.8434 76.0191 20.7567 75.6093 20.6934 75.2969Z" fill="#364F3A" stroke="#242F26"/>
<path d="M20.6934 75.2969C21.0073 75.3516 21.4188 75.4273 21.9092 75.5283C23.1015 75.7739 24.758 76.1651 26.6104 76.748C30.3288 77.9182 34.78 79.8424 37.8809 82.8584C40.9656 85.8589 42.1567 89.402 42.5752 92.209C42.7844 93.6121 42.7995 94.8267 42.7627 95.6885C42.7443 96.1174 42.7129 96.4585 42.6865 96.6904C42.4554 96.7232 42.1155 96.7637 41.6875 96.7939C40.827 96.8547 39.6125 96.8733 38.2041 96.7031C35.3865 96.3626 31.812 95.2699 28.7275 92.2695C25.6267 89.2534 23.5803 84.8567 22.3076 81.1719C21.6737 79.3364 21.2365 77.6919 20.958 76.5068C20.8434 76.0191 20.7567 75.6093 20.6934 75.2969Z" fill="#364F3A" stroke="#242F26"/>
<path d="M20.6914 75.2969C21.0053 75.3515 21.4169 75.4273 21.9072 75.5283C23.0996 75.7739 24.756 76.1653 26.6084 76.748C29.5206 77.6643 32.882 79.0436 35.6924 81.0469C33.2665 79.8005 30.6959 78.8001 28.4541 78.042C26.6312 77.4256 25.0145 76.9648 23.8535 76.6582C23.2731 76.5049 22.806 76.3902 22.4834 76.3135C22.3221 76.2751 22.1966 76.2459 22.1113 76.2266C22.0687 76.2169 22.0359 76.21 22.0137 76.2051C22.0026 76.2026 21.9941 76.2005 21.9883 76.1992C21.9854 76.1986 21.983 76.1986 21.9814 76.1982L21.9795 76.1973L21.1729 76.0234L21.3916 76.8184V76.8213C21.392 76.8228 21.3928 76.8253 21.3936 76.8281C21.3951 76.8338 21.3974 76.8419 21.4004 76.8525C21.4065 76.8743 21.4158 76.9065 21.4277 76.9482C21.4515 77.0317 21.4865 77.1547 21.5332 77.3125C21.6268 77.6285 21.767 78.0859 21.9502 78.6543C22.3166 79.7911 22.859 81.3737 23.5654 83.1582C24.4192 85.3148 25.5197 87.7802 26.8418 90.1162C24.7682 87.3658 23.3003 84.0515 22.3057 81.1719C21.6717 79.3364 21.2346 77.6919 20.9561 76.5068C20.8414 76.0191 20.7548 75.6093 20.6914 75.2969Z" fill="#364F3A" stroke="#242F26"/>
<path d="M38.2298 82.5001C44.5992 88.6954 43.1328 97.1241 43.1328 97.1241C43.1328 97.1241 34.7474 98.8233 28.3786 92.628C22.0093 86.4327 20.0684 74.6895 20.0684 74.6895C20.0684 74.6895 31.8604 76.3048 38.2298 82.5001Z" stroke="#242F26" stroke-width="2" stroke-miterlimit="10" stroke-linecap="round" stroke-linejoin="round"/>
<path d="M20.4844 75.0957L43.1312 97.1233" stroke="#242F26" stroke-width="2" stroke-miterlimit="10" stroke-linecap="round" stroke-linejoin="round"/>
<path d="M29.7559 93.8267L37.4513 91.5996" stroke="#242F26" stroke-width="2" stroke-miterlimit="10" stroke-linecap="round" stroke-linejoin="round"/>
<path d="M24.1895 86.8365L30.6358 84.9707" stroke="#242F26" stroke-width="2" stroke-miterlimit="10" stroke-linecap="round" stroke-linejoin="round"/>
<path d="M35.9947 80.6484L34.1621 88.1648" stroke="#242F26" stroke-width="2" stroke-miterlimit="10" stroke-linecap="round" stroke-linejoin="round"/>
<path d="M29.1318 77.0928L27.9141 82.0878" stroke="#242F26" stroke-width="2" stroke-miterlimit="10" stroke-linecap="round" stroke-linejoin="round"/>
<path d="M41.0752 108.378L40.5293 111.386L37.0928 106.744L41.0752 108.378Z" fill="#5B5340" stroke="#5B5340"/>
<path d="M41.6406 108.07L35.625 105.603L40.8148 112.612L41.6406 108.07Z" fill="#5B5340" stroke="#5B5340" stroke-width="2" stroke-miterlimit="10" stroke-linecap="round" stroke-linejoin="round"/>
<path d="M42.8405 58.101C49.5611 60.0832 61.1823 61.9033 61.4621 74.3647C61.4621 74.3647 66.2224 66.524 60.6219 60.3631C60.6219 60.3631 61.4621 52.5224 50.2611 51.962C39.0601 51.4016 42.8405 58.101 42.8405 58.101Z" fill="#364F3A"/>
<path d="M60.6212 60.363C60.6212 60.363 61.0238 56.5607 57.4863 54.0625C58.9815 56.237 58.7429 58.4847 58.7429 58.4847C62.3055 62.4035 61.675 66.9985 60.7452 69.8266C61.1666 71.1608 61.4233 72.6597 61.4615 74.364C61.4615 74.364 66.2217 66.5239 60.6212 60.363Z" fill="#364F3A"/>
<path d="M42.8405 58.101C49.5611 60.0832 61.1823 61.9033 61.4621 74.3647C61.4621 74.3647 66.2224 66.524 60.6219 60.3631C60.6219 60.3631 61.4621 52.5224 50.2611 51.962C39.0601 51.4016 42.8405 58.101 42.8405 58.101Z" stroke="#242F26" stroke-width="2" stroke-miterlimit="10" stroke-linecap="round" stroke-linejoin="round"/>
<path d="M42.8398 58.1013C42.8398 58.1013 53.2006 53.9227 60.6219 60.3634" stroke="#242F26" stroke-width="2" stroke-miterlimit="10" stroke-linecap="round" stroke-linejoin="round"/>
<path d="M39.5693 56.8489C32.8486 58.8312 21.2275 60.6513 20.9476 73.1127C20.9476 73.1127 16.1874 65.2719 21.7879 59.1111C21.7879 59.1111 20.9476 51.2703 32.1487 50.71C43.3497 50.1502 39.5693 56.8489 39.5693 56.8489Z" fill="#364F3A"/>
<path d="M21.7879 59.111C21.7879 59.111 21.3853 55.3087 24.9228 52.8105C23.4276 54.985 23.6662 57.2327 23.6662 57.2327C20.1036 61.1515 20.7341 65.7465 21.6639 68.5746C21.2425 69.9088 20.9858 71.4077 20.9476 73.112C20.9476 73.112 16.1874 65.2719 21.7879 59.111Z" fill="#364F3A"/>
<path d="M39.5693 56.8489C32.8486 58.8312 21.2275 60.6513 20.9476 73.1127C20.9476 73.1127 16.1874 65.2719 21.7879 59.1111C21.7879 59.1111 20.9476 51.2703 32.1487 50.71C43.3497 50.1502 39.5693 56.8489 39.5693 56.8489Z" stroke="#242F26" stroke-width="2" stroke-miterlimit="10" stroke-linecap="round" stroke-linejoin="round"/>
<path d="M39.5711 56.8494C39.5711 56.8494 29.2103 52.6707 21.7891 59.1115" stroke="#242F26" stroke-width="2" stroke-miterlimit="10" stroke-linecap="round" stroke-linejoin="round"/>
<path d="M44.0947 50.2451V115.501H40.9297V50.2451H44.0947Z" fill="#364F3A" stroke="#364F3A"/>
<path d="M44.5952 49.7451H40.4297V116.001H44.5952V49.7451Z" fill="#364F3A" stroke="#364F3A" stroke-width="2" stroke-miterlimit="10" stroke-linecap="round" stroke-linejoin="round"/>
<path d="M60.9124 103.446C52.8488 109.838 43.2387 107.08 43.2387 107.08C43.2387 107.08 42.3879 97.3805 50.4508 90.9892C58.5145 84.598 72.439 83.9355 72.439 83.9355C72.439 83.9355 68.976 97.055 60.9124 103.446Z" fill="#364F3A"/>
<path d="M60.9124 103.446C52.8488 109.838 43.2387 107.08 43.2387 107.08C43.2387 107.08 42.3879 97.3805 50.4508 90.9892C58.5145 84.598 72.439 83.9355 72.439 83.9355C72.439 83.9355 68.976 97.055 60.9124 103.446Z" fill="#364F3A"/>
<path d="M50.4506 90.9892C49.7462 91.5471 49.1138 92.1319 48.5391 92.7317C56.7016 87.6934 69.8723 85.7168 69.8723 85.7168C69.8723 85.7168 65.5497 98.0611 58.9124 104.829C59.5848 104.422 60.2535 103.968 60.9121 103.446C68.9758 97.055 72.4387 83.9355 72.4387 83.9355C72.4387 83.9355 58.5142 84.598 50.4506 90.9892Z" fill="#364F3A"/>
<path d="M60.9124 103.446C52.8488 109.838 43.2387 107.08 43.2387 107.08C43.2387 107.08 42.3879 97.3805 50.4508 90.9892C58.5145 84.598 72.439 83.9355 72.439 83.9355C72.439 83.9355 68.976 97.055 60.9124 103.446Z" stroke="#242F26" stroke-width="2" stroke-miterlimit="10" stroke-linecap="round" stroke-linejoin="round"/>
<path d="M71.9095 84.3555L43.2383 107.081" stroke="#242F26" stroke-width="2" stroke-miterlimit="10" stroke-linecap="round" stroke-linejoin="round"/>
<path d="M48.8711 92.3916L50.4288 101.381" stroke="#242F26" stroke-width="2" stroke-miterlimit="10" stroke-linecap="round" stroke-linejoin="round"/>
<path d="M55.0971 106.596L47.6777 103.81" stroke="#242F26" stroke-width="2" stroke-miterlimit="10" stroke-linecap="round" stroke-linejoin="round"/>
<path d="M57.752 87.0127L59.0568 94.5429" stroke="#242F26" stroke-width="2" stroke-miterlimit="10" stroke-linecap="round" stroke-linejoin="round"/>
<path d="M63.3666 101.163L54.8672 98.1104" stroke="#242F26" stroke-width="2" stroke-miterlimit="10" stroke-linecap="round" stroke-linejoin="round"/>
<path d="M66.4551 84.6768L66.9666 88.2731" stroke="#242F26" stroke-width="2" stroke-miterlimit="10" stroke-linecap="round" stroke-linejoin="round"/>
<path d="M68.4254 93.8698L62.7773 91.8418" stroke="#242F26" stroke-width="2" stroke-miterlimit="10" stroke-linecap="round" stroke-linejoin="round"/>
<path d="M33.7111 55.582C31.2349 56.6739 26.4314 59.4281 26.4064 65.182C26.3769 71.9646 32.3544 75.4082 32.3544 75.4082C32.3544 75.4082 30.7891 65.9121 33.7111 64.5559C36.6332 63.1992 43.7288 61.53 44.2504 54.7467C44.2504 54.7467 39.1476 53.1852 33.7111 55.582Z" fill="#364F3A"/>
<path d="M27.0318 67.0603C27.0569 61.3058 31.8604 58.5515 34.3366 57.4602C38.3938 55.6714 42.2625 56.0878 43.9661 56.414C44.1057 55.895 44.2047 55.3415 44.2504 54.7473C44.2504 54.7473 39.1476 53.1852 33.7111 55.5819C31.2349 56.6738 26.4314 59.4281 26.4064 65.182C26.3988 66.8962 26.7764 68.3951 27.343 69.6812C27.1477 68.8697 27.0281 68.0007 27.0318 67.0603Z" fill="#364F3A"/>
<path d="M33.7111 55.5821C31.2349 56.6741 26.4314 59.4283 26.4064 65.1821C26.3769 71.9647 32.3544 75.4082 32.3544 75.4082C32.3544 75.4082 30.7891 65.9122 33.7111 64.556C36.6332 63.1993 43.7288 61.5301 44.2504 54.7469C44.2504 54.7469 39.1476 53.1854 33.7111 55.5821Z" stroke="#242F26" stroke-width="2" stroke-miterlimit="10" stroke-linecap="round" stroke-linejoin="round"/>
<path d="M29.8496 67.8947C29.8496 67.8947 31.793 65.3452 33.7108 64.5557" stroke="#242F26" stroke-width="2" stroke-miterlimit="10" stroke-linecap="round" stroke-linejoin="round"/>
<path d="M43.2589 54.6738C42.4706 59.7283 42.6165 61.4589 45.7884 67.5089C48.9602 73.5583 48.0536 76.3846 48.0536 76.3846C48.0536 76.3846 58.7876 64.5938 49.1286 55.4088C47.8132 54.1579 43.2589 54.6738 43.2589 54.6738Z" fill="#364F3A"/>
<path d="M51.2122 57.877C53.8413 64.1668 49.8787 70.6025 47.9434 73.2009C48.3785 75.3472 48.0542 76.3846 48.0542 76.3846C48.0542 76.3846 56.9793 66.5723 51.2122 57.877Z" fill="#364F3A"/>
<path d="M43.2589 54.6738C42.4706 59.7283 42.6165 61.4589 45.7884 67.5089C48.9602 73.5583 48.0536 76.3846 48.0536 76.3846C48.0536 76.3846 58.7876 64.5938 49.1286 55.4088C47.8132 54.1579 43.2589 54.6738 43.2589 54.6738Z" stroke="#242F26" stroke-width="2" stroke-miterlimit="10" stroke-linecap="round" stroke-linejoin="round"/>
<path d="M42.5117 81.1472L48.5273 78.6797L43.3382 85.6889L42.5117 81.1472Z" fill="#5B5340"/>
<path d="M42.5117 81.1472L48.5273 78.6797L43.3382 85.6889L42.5117 81.1472Z" fill="#5B5340" stroke="#5B5340" stroke-width="2" stroke-miterlimit="10" stroke-linecap="round" stroke-linejoin="round"/>
<path d="M19.3863 31.2949C19.2091 32.2078 19.1458 60.2341 45.5237 58.1354C45.5237 58.1354 51.3496 52.8079 49.8331 47.0509C48.3167 41.2938 46.198 39.8049 43.4775 37.6599C40.7565 35.5149 19.3863 31.2949 19.3863 31.2949Z" fill="#0060BF"/>
<path d="M19.3863 31.2949C19.2091 32.2078 19.1458 60.2341 45.5237 58.1354C45.5237 58.1354 51.3496 52.8079 49.8331 47.0509C48.3167 41.2938 46.198 39.8049 43.4775 37.6599C40.7565 35.5149 19.3863 31.2949 19.3863 31.2949Z" stroke="#1C2B3D" stroke-width="2" stroke-miterlimit="10" stroke-linecap="round" stroke-linejoin="round"/>
<path d="M43.3307 47.392C35.3234 40.2656 22.1483 30.6386 28.4801 26.3999C34.8125 22.1605 51.3931 22.8148 56.1709 21.3522C60.948 19.8897 63.4168 19.5059 63.4168 19.5059C63.4168 19.5059 68.5809 25.6617 58.8124 37.1126C49.0433 48.5628 43.3307 47.392 43.3307 47.392Z" fill="#0060BF"/>
<path d="M41.527 58.4455C41.527 58.4455 37.2094 55.3526 42.485 49.2186C47.7599 43.0847 62.3663 32.2812 67.0997 30.376C67.0997 30.376 67.0652 43.1016 62.3219 49.6406C53.4312 61.8979 41.527 58.4455 41.527 58.4455Z" fill="#0060BF"/>
<path d="M41.527 58.4455C41.527 58.4455 37.2094 55.3526 42.485 49.2186C47.7599 43.0847 62.3663 32.2812 67.0997 30.376C67.0997 30.376 67.0652 43.1016 62.3219 49.6406C53.4312 61.8979 41.527 58.4455 41.527 58.4455Z" stroke="#1C2B3D" stroke-width="2" stroke-miterlimit="10" stroke-linecap="round" stroke-linejoin="round"/>
<path d="M59.0768 14.7654C58.4069 18.2554 61.7415 23.1233 58.956 29.0413C56.1704 34.9592 45.6005 44.0728 42.4844 49.2188C42.4844 49.2188 50.8297 41.4914 57.9066 38.8148C64.9835 36.1382 73.5235 30.3605 70.4531 24.1326C70.4531 24.1326 74.2329 17.7457 71.3428 12.7638C67.841 6.7275 59.6948 11.5466 59.0768 14.7654Z" fill="#0060BF"/>
<path d="M71.3428 12.7635C70.1783 10.7562 68.4997 9.95414 66.7554 9.88965C67.645 10.3423 68.4527 11.0855 69.1014 12.2031C71.9915 17.185 68.2117 23.5719 68.2117 23.5719C71.2827 29.7998 62.7426 35.5775 55.6651 38.2541C53.12 39.217 50.4127 40.833 47.9866 42.5078C45.6644 45.0336 43.5976 47.3802 42.4844 49.2191C42.4844 49.2191 50.8297 41.4917 57.9066 38.8151C64.9835 36.1385 73.5235 30.3608 70.4531 24.1329C70.4531 24.1329 74.2329 17.7448 71.3428 12.7635Z" fill="#0060BF"/>
<path d="M59.0768 14.7654C58.4069 18.2554 61.7415 23.1233 58.956 29.0413C56.1704 34.9592 45.6005 44.0728 42.4844 49.2188C42.4844 49.2188 50.8297 41.4914 57.9066 38.8148C64.9835 36.1382 73.5235 30.3605 70.4531 24.1326C70.4531 24.1326 74.2329 17.7457 71.3428 12.7638C67.841 6.7275 59.6948 11.5466 59.0768 14.7654Z" stroke="#1C2B3D" stroke-width="2" stroke-miterlimit="10" stroke-linecap="round" stroke-linejoin="round"/>
<path d="M63.8048 16.2136C63.8048 16.2136 68.5106 11.3456 65.1778 6.66546C61.8451 1.98532 54.1515 4.72391 54.1515 4.72391C54.1515 4.72391 53.203 1.50635 46.9807 1.0543C40.7585 0.602257 34.2883 3.03906 30.9023 5.88408C30.9023 5.88408 49.4538 8.77418 53.5129 10.8754C57.5732 12.976 63.8048 16.2136 63.8048 16.2136Z" fill="#0060BF"/>
<path d="M65.1778 6.66546C61.8451 1.98532 54.1515 4.72391 54.1515 4.72391C54.1515 4.72391 53.203 1.50635 46.9807 1.0543C40.7585 0.602257 34.2883 3.03906 30.9023 5.88408C30.9023 5.88408 31.1246 5.91914 31.5078 5.9805C35.101 3.8868 40.2801 2.37038 45.3003 2.7354C51.5225 3.18745 52.4704 6.405 52.4704 6.405C52.4704 6.405 60.164 3.66642 63.4967 8.34655C65.5554 11.2379 64.5461 14.1994 63.4742 16.042C63.6852 16.1516 63.8048 16.2136 63.8048 16.2136C63.8048 16.2136 68.5106 11.3456 65.1778 6.66546Z" fill="#0060BF"/>
<path d="M63.8048 16.2136C63.8048 16.2136 68.5106 11.3456 65.1778 6.66546C61.8451 1.98532 54.1515 4.72391 54.1515 4.72391C54.1515 4.72391 53.203 1.50635 46.9807 1.0543C40.7585 0.602257 34.2883 3.03906 30.9023 5.88408C30.9023 5.88408 49.4538 8.77418 53.5129 10.8754C57.5732 12.976 63.8048 16.2136 63.8048 16.2136Z" stroke="#1C2B3D" stroke-width="2" stroke-miterlimit="10" stroke-linecap="round" stroke-linejoin="round"/>
<path d="M56.8759 18.4181C57.1783 18.4669 55.9374 12.0074 52.2458 8.56883C48.5543 5.13027 40.8758 4.2318 33.4082 7.67538C33.4082 7.67538 39.8809 12.1426 44.3594 13.778C48.8386 15.4134 56.8759 18.4181 56.8759 18.4181Z" fill="#231F20"/>
<path d="M56.8759 18.4181C57.1783 18.4669 55.9374 12.0074 52.2458 8.56883C48.5543 5.13027 40.8758 4.2318 33.4082 7.67538C33.4082 7.67538 39.8809 12.1426 44.3594 13.778C48.8386 15.4134 56.8759 18.4181 56.8759 18.4181Z" stroke="#231F20" stroke-width="2" stroke-miterlimit="10" stroke-linecap="round" stroke-linejoin="round"/>
<path d="M18.4411 24.002L16.6843 13.2142C16.6843 13.2142 13.3678 7.4315 22.7205 6.43411C22.7205 6.43411 28.3937 1.39083 35.4843 5.15811C42.575 8.92538 42.3189 11.7397 42.3189 11.7397C42.3189 11.7397 40.46 16.4762 37.0076 21.2985C33.5553 26.1214 26.9205 30.5429 26.9205 30.5429L18.4411 24.002Z" fill="#231F20"/>
<path d="M17.8052 16.0154C17.8052 16.0154 14.4881 10.2327 23.8415 9.2353C23.8415 9.2353 29.5146 4.19203 36.6053 7.95931C39.5655 9.53208 41.2422 10.9377 42.1945 12.0428C42.274 11.8531 42.3191 11.7397 42.3191 11.7397C42.3191 11.7397 42.5752 8.92538 35.4845 5.15811C28.3939 1.39083 22.7207 6.43411 22.7207 6.43411C13.3674 7.43212 16.6845 13.2142 16.6845 13.2142L18.4413 24.002L19.2014 24.588L17.8052 16.0154Z" fill="#231F20"/>
<path d="M18.4411 24.002L16.6843 13.2142C16.6843 13.2142 13.3678 7.4315 22.7205 6.43411C22.7205 6.43411 28.3937 1.39083 35.4843 5.15811C42.575 8.92538 42.3189 11.7397 42.3189 11.7397C42.3189 11.7397 40.46 16.4762 37.0076 21.2985C33.5553 26.1214 26.9205 30.5429 26.9205 30.5429L18.4411 24.002Z" stroke="#231F20" stroke-width="2" stroke-miterlimit="10" stroke-linecap="round" stroke-linejoin="round"/>
<path d="M47.2361 44.8046C47.2361 44.8046 47.4402 36.1005 39.1174 33.4414C30.7946 30.7817 23.6063 26.935 22.1531 21.3507C20.6999 15.7665 18.9537 14.4191 16.6847 13.2139C16.6847 13.2139 13.9017 15.8197 16.6046 20.4729C16.6046 20.4729 11.1355 23.9735 16.006 30.6039C20.8765 37.2344 33.2877 37.5487 38.4882 38.7859C45.6408 40.4883 47.2361 44.8046 47.2361 44.8046Z" fill="#0060BF"/>
<path d="M19.3518 17.9884C19.884 20.0339 21.1838 21.8596 23.0252 23.4787C22.642 22.7987 22.3458 22.09 22.1536 21.3506C20.979 16.8388 19.6135 15.0933 17.9355 13.9531C18.4389 14.9837 18.9091 16.2879 19.3518 17.9884Z" fill="#0060BF"/>
<path d="M47.2012 44.7197C47.2245 44.7734 47.2365 44.805 47.2365 44.805C47.2365 44.805 47.2365 44.7898 47.2372 44.7665C47.2245 44.7513 47.2125 44.7355 47.2012 44.7197Z" fill="#0060BF"/>
<path d="M35.6874 35.4238C31.0774 34.3269 20.8036 33.9512 15.1367 29.2617C15.3815 29.6944 15.6664 30.1408 16.0064 30.6041C20.8769 37.2345 33.2881 37.5488 38.4886 38.786C41.301 39.4553 43.2514 40.5285 44.5862 41.5847C42.1169 38.8925 38.9569 36.2015 35.6874 35.4238Z" fill="#0060BF"/>
<path d="M47.2361 44.8046C47.2361 44.8046 47.4402 36.1005 39.1174 33.4414C30.7946 30.7817 23.6063 26.935 22.1531 21.3507C20.6999 15.7665 18.9537 14.4191 16.6847 13.2139C16.6847 13.2139 13.9017 15.8197 16.6046 20.4729C16.6046 20.4729 11.1355 23.9735 16.006 30.6039C20.8765 37.2344 33.2877 37.5487 38.4882 38.7859C45.6408 40.4883 47.2361 44.8046 47.2361 44.8046Z" stroke="#1C2B3D" stroke-width="2" stroke-miterlimit="10" stroke-linecap="round" stroke-linejoin="round"/>
<path d="M51.3071 17.4628C51.3071 17.4628 51.2164 14.8651 47.0822 11.9656C42.948 9.06673 36.9762 11.1229 36.1153 12.3594C36.1153 12.3594 30.9406 10.7416 29.2019 13.0506C27.4632 15.3597 37.0532 19.0556 42.5223 19.1358C47.9913 19.2159 51.3071 17.4628 51.3071 17.4628Z" fill="#FCFC01"/>
<path d="M51.3071 17.4628C51.3071 17.4628 51.2164 14.8651 47.0822 11.9656C42.948 9.06673 36.9762 11.1229 36.1153 12.3594C36.1153 12.3594 30.9406 10.7416 29.2019 13.0506C27.4632 15.3597 37.0532 19.0556 42.5223 19.1358C47.9913 19.2159 51.3071 17.4628 51.3071 17.4628Z" stroke="#231F20" stroke-width="2" stroke-miterlimit="10" stroke-linecap="round" stroke-linejoin="round"/>
<path d="M40.9437 17.682C40.9437 17.682 33.1819 16.7841 30.7257 12.0476C30.7257 12.0476 28.8186 9.22579 25.5659 9.81934C22.3133 10.4129 23.8874 15.4167 26.9647 15.7511C26.9647 15.7511 26.5577 22.426 41.3469 21.7116L40.9437 17.682Z" fill="#FCFC01"/>
<path d="M29.7665 15.1915C27.1512 14.9073 25.6336 11.2583 27.2301 9.80265C26.7236 9.71813 26.1682 9.70999 25.5659 9.81956C22.3133 10.4131 23.8874 15.4169 26.9647 15.7513C26.9647 15.7513 26.5577 22.4262 41.3469 21.7118L41.2956 21.1953C29.4209 20.9705 29.7665 15.1915 29.7665 15.1915Z" fill="#FCFC01"/>
<path d="M40.9437 17.682C40.9437 17.682 33.1819 16.7841 30.7257 12.0476C30.7257 12.0476 28.8186 9.22579 25.5659 9.81934C22.3133 10.4129 23.8874 15.4167 26.9647 15.7511C26.9647 15.7511 26.5577 22.426 41.3469 21.7116L40.9437 17.682Z" stroke="#231F20" stroke-width="2" stroke-miterlimit="10" stroke-linecap="round" stroke-linejoin="round"/>
<path d="M56.9834 16.9302C56.9834 16.9302 47.342 12.7215 37.3594 16.743C37.3594 16.743 38.1176 21.6448 43.8202 22.2715C49.5227 22.8982 57.4029 21.1313 57.4029 21.1313C57.4029 21.1313 59.0577 19.7696 56.9834 16.9302Z" fill="#FCFC01"/>
<path d="M40.7216 18.4241C47.3639 15.7481 53.851 16.7161 57.4511 17.6634C57.3203 17.4298 57.1719 17.1881 56.9834 16.9302C56.9834 16.9302 47.342 12.7215 37.3594 16.743C37.3594 16.743 38.0306 21.0675 42.8397 22.1118C41.0515 20.4902 40.7216 18.4241 40.7216 18.4241Z" fill="#FCFC01"/>
<path d="M56.9834 16.93C56.9834 16.93 46.9876 12.757 37.3594 16.7428C37.3594 16.7428 38.1176 21.6445 43.8202 22.2713C49.5227 22.898 57.4029 21.1311 57.4029 21.1311C57.4029 21.1311 59.0577 19.7693 56.9834 16.93Z" stroke="#231F20" stroke-width="2" stroke-miterlimit="10" stroke-linecap="round" stroke-linejoin="round"/>
<path d="M29.1035 29.1301C29.1455 28.7156 33.6785 20.9857 41.7615 21.7151C49.8445 22.4451 56.2439 19.5588 56.7198 15.6081C56.9865 13.3948 55.6003 11.9241 55.6003 11.9241C55.6003 11.9241 61.8908 10.5779 64.4615 16.2667C67.033 21.9555 61.0862 27.5736 55.0086 25.2081C55.0086 25.2081 50.7041 30.5595 45.1224 28.1439C39.5413 25.7291 29.1035 29.1301 29.1035 29.1301Z" fill="#231F20"/>
<path d="M64.4617 16.2667C63.0029 13.0385 60.3469 12.0768 58.3221 11.8477C59.7928 12.4481 61.2642 13.5901 62.2209 15.7063C64.7923 21.3958 59.5581 25.7052 53.4804 23.3398C53.4804 23.3398 49.9348 27.2549 45.2578 28.1965C50.7738 30.468 55.0094 25.2075 55.0094 25.2075C61.0864 27.5735 67.0331 21.9555 64.4617 16.2667Z" fill="#231F20"/>
<path d="M29.1035 29.1301C29.1455 28.7156 33.6785 20.9857 41.7615 21.7151C49.8445 22.4451 55.9691 19.5162 56.7198 15.6081C57.0992 13.6308 55.6003 11.9241 55.6003 11.9241C55.6003 11.9241 61.8908 10.5779 64.4615 16.2667C67.033 21.9555 61.0862 27.5736 55.0086 25.2081C55.0086 25.2081 50.7041 30.5595 45.1224 28.1439C39.5413 25.7291 29.1035 29.1301 29.1035 29.1301Z" stroke="#231F20" stroke-width="2" stroke-miterlimit="10" stroke-linecap="round" stroke-linejoin="round"/>
<path d="M0 123.26H16.9278V147.369H0L3.14936 135.095L0 123.26Z" fill="#5B5340"/>
<path d="M85.8203 123.26H68.8925V147.369H85.8203L82.671 135.095L85.8203 123.26Z" fill="#5B5340"/>
<rect x="8.79102" y="116.685" width="68.2361" height="24.1097" fill="#BFB39A"/>
<path d="M24.2544 134.685C24.2544 134.119 24.3398 133.618 24.5104 133.181C24.6918 132.743 24.9318 132.343 25.2304 131.981C25.5291 131.607 25.8651 131.25 26.2384 130.909C26.6224 130.557 27.0118 130.189 27.4064 129.805C28.0998 129.143 28.6011 128.53 28.9104 127.965C29.2198 127.399 29.3744 126.855 29.3744 126.333C29.3744 125.927 29.3158 125.538 29.1984 125.165C29.0918 124.781 28.8944 124.466 28.6064 124.221C28.3184 123.975 27.9184 123.853 27.4064 123.853C26.9691 123.853 26.5798 123.965 26.2384 124.189C25.8971 124.402 25.6678 124.669 25.5504 124.989C25.6571 125.095 25.7318 125.213 25.7744 125.341C25.8171 125.458 25.8384 125.575 25.8384 125.693C25.8384 125.789 25.8118 125.895 25.7584 126.013C25.7158 126.13 25.6358 126.231 25.5184 126.317C25.4011 126.402 25.2464 126.445 25.0544 126.445C24.8198 126.434 24.6384 126.343 24.5104 126.173C24.3824 126.002 24.3184 125.799 24.3184 125.565C24.3184 125.341 24.3878 125.095 24.5264 124.829C24.6651 124.551 24.8731 124.295 25.1504 124.061C25.4384 123.815 25.7904 123.618 26.2064 123.469C26.6224 123.309 27.1078 123.229 27.6624 123.229C28.0891 123.229 28.4998 123.282 28.8944 123.389C29.2998 123.485 29.6624 123.645 29.9824 123.869C30.3024 124.093 30.5531 124.391 30.7344 124.765C30.9264 125.127 31.0224 125.581 31.0224 126.125C31.0224 126.391 30.9638 126.679 30.8464 126.989C30.7398 127.298 30.5584 127.634 30.3024 127.997C30.0571 128.349 29.7371 128.727 29.3424 129.133C28.9478 129.527 28.4624 129.959 27.8864 130.429C27.1611 131.026 26.5638 131.591 26.0944 132.125C25.6358 132.647 25.3691 133.095 25.2944 133.469L28.1264 133.549C28.6491 133.559 29.1078 133.559 29.5024 133.549C29.9078 133.538 30.2224 133.458 30.4464 133.309C30.6811 133.149 30.7984 132.861 30.7984 132.445H31.2784L31.1824 134.685H24.2544ZM38.2082 134.941C37.3975 134.941 36.7255 134.77 36.1922 134.429C35.6588 134.077 35.2428 133.618 34.9442 133.053C34.6455 132.477 34.4322 131.847 34.3042 131.165C34.1868 130.482 34.1282 129.805 34.1282 129.133C34.1282 128.461 34.2028 127.778 34.3522 127.085C34.5122 126.391 34.7575 125.757 35.0882 125.181C35.4188 124.594 35.8455 124.125 36.3682 123.773C36.8908 123.41 37.5255 123.229 38.2722 123.229C39.0508 123.229 39.6962 123.405 40.2082 123.757C40.7308 124.109 41.1415 124.573 41.4402 125.149C41.7495 125.714 41.9682 126.338 42.0962 127.021C42.2242 127.703 42.2882 128.381 42.2882 129.053C42.2882 129.714 42.2135 130.391 42.0642 131.085C41.9148 131.778 41.6802 132.418 41.3602 133.005C41.0402 133.581 40.6188 134.05 40.0962 134.413C39.5842 134.765 38.9548 134.941 38.2082 134.941ZM38.3042 134.317C38.7628 134.317 39.1415 134.173 39.4402 133.885C39.7388 133.597 39.9735 133.213 40.1442 132.733C40.3255 132.253 40.4535 131.725 40.5282 131.149C40.6028 130.562 40.6402 129.975 40.6402 129.389C40.6402 128.738 40.6028 128.087 40.5282 127.437C40.4535 126.786 40.3255 126.189 40.1442 125.645C39.9628 125.101 39.7175 124.663 39.4082 124.333C39.0988 124.002 38.7095 123.837 38.2402 123.837C37.7815 123.837 37.3922 123.981 37.0722 124.269C36.7628 124.557 36.5122 124.941 36.3202 125.421C36.1282 125.901 35.9895 126.434 35.9042 127.021C35.8188 127.607 35.7762 128.199 35.7762 128.797C35.7762 129.245 35.7975 129.719 35.8402 130.221C35.8828 130.722 35.9575 131.218 36.0642 131.709C36.1815 132.189 36.3362 132.626 36.5282 133.021C36.7202 133.415 36.9602 133.73 37.2482 133.965C37.5362 134.199 37.8882 134.317 38.3042 134.317ZM44.9163 134.685C44.9163 134.119 45.0016 133.618 45.1723 133.181C45.3536 132.743 45.5936 132.343 45.8923 131.981C46.191 131.607 46.527 131.25 46.9003 130.909C47.2843 130.557 47.6736 130.189 48.0683 129.805C48.7616 129.143 49.263 128.53 49.5723 127.965C49.8816 127.399 50.0363 126.855 50.0363 126.333C50.0363 125.927 49.9776 125.538 49.8603 125.165C49.7536 124.781 49.5563 124.466 49.2683 124.221C48.9803 123.975 48.5803 123.853 48.0683 123.853C47.631 123.853 47.2416 123.965 46.9003 124.189C46.559 124.402 46.3296 124.669 46.2123 124.989C46.319 125.095 46.3936 125.213 46.4363 125.341C46.479 125.458 46.5003 125.575 46.5003 125.693C46.5003 125.789 46.4736 125.895 46.4203 126.013C46.3776 126.13 46.2976 126.231 46.1803 126.317C46.063 126.402 45.9083 126.445 45.7163 126.445C45.4816 126.434 45.3003 126.343 45.1723 126.173C45.0443 126.002 44.9803 125.799 44.9803 125.565C44.9803 125.341 45.0496 125.095 45.1883 124.829C45.327 124.551 45.535 124.295 45.8123 124.061C46.1003 123.815 46.4523 123.618 46.8683 123.469C47.2843 123.309 47.7696 123.229 48.3243 123.229C48.751 123.229 49.1616 123.282 49.5563 123.389C49.9616 123.485 50.3243 123.645 50.6443 123.869C50.9643 124.093 51.215 124.391 51.3963 124.765C51.5883 125.127 51.6843 125.581 51.6843 126.125C51.6843 126.391 51.6256 126.679 51.5083 126.989C51.4016 127.298 51.2203 127.634 50.9643 127.997C50.719 128.349 50.399 128.727 50.0043 129.133C49.6096 129.527 49.1243 129.959 48.5483 130.429C47.823 131.026 47.2256 131.591 46.7563 132.125C46.2976 132.647 46.031 133.095 45.9563 133.469L48.7883 133.549C49.311 133.559 49.7696 133.559 50.1643 133.549C50.5696 133.538 50.8843 133.458 51.1083 133.309C51.343 133.149 51.4603 132.861 51.4603 132.445H51.9403L51.8443 134.685H44.9163ZM57.9581 134.941C57.2754 134.941 56.6941 134.829 56.2141 134.605C55.7341 134.37 55.3661 134.082 55.1101 133.741C54.8541 133.399 54.7261 133.074 54.7261 132.765C54.7261 132.519 54.7901 132.317 54.9181 132.157C55.0461 131.986 55.2274 131.895 55.4621 131.885C55.6541 131.874 55.8034 131.911 55.9101 131.997C56.0274 132.071 56.1074 132.167 56.1501 132.285C56.1927 132.402 56.2141 132.509 56.2141 132.605C56.2141 132.711 56.1981 132.818 56.1661 132.925C56.1341 133.031 56.0914 133.133 56.0381 133.229C56.0807 133.485 56.2141 133.698 56.4381 133.869C56.6621 134.029 56.9181 134.146 57.2061 134.221C57.5047 134.295 57.7767 134.327 58.0221 134.317C58.5447 134.295 58.9661 134.157 59.2861 133.901C59.6061 133.634 59.8407 133.298 59.9901 132.893C60.1501 132.487 60.2301 132.061 60.2301 131.613C60.2301 131.314 60.2034 130.983 60.1501 130.621C60.1074 130.258 60.0007 129.917 59.8301 129.597C59.6701 129.266 59.4247 128.994 59.0941 128.781C58.7634 128.567 58.3154 128.461 57.7501 128.461C57.5687 128.461 57.3447 128.482 57.0781 128.525C56.8221 128.567 56.5607 128.631 56.2941 128.717C56.0381 128.802 55.8194 128.903 55.6381 129.021L55.1901 128.605L55.1581 123.485H59.3021C59.9101 123.485 60.3261 123.405 60.5501 123.245C60.7847 123.074 60.9021 122.807 60.9021 122.445H61.3341L61.2381 124.557L55.8941 124.669V128.189C56.1501 128.082 56.4807 127.981 56.8861 127.885C57.3021 127.789 57.7447 127.741 58.2141 127.741C58.8754 127.741 59.4354 127.847 59.8941 128.061C60.3634 128.263 60.7421 128.541 61.0301 128.893C61.3287 129.234 61.5474 129.618 61.6861 130.045C61.8247 130.461 61.8941 130.887 61.8941 131.325C61.8941 132.114 61.7074 132.781 61.3341 133.325C60.9714 133.858 60.4914 134.263 59.8941 134.541C59.2967 134.807 58.6514 134.941 57.9581 134.941Z" fill="black"/>
</svg>
