<svg width="172" height="91" viewBox="0 0 172 91" fill="none" xmlns="http://www.w3.org/2000/svg">
<path d="M5.12889 45.202C6.49499 46.3536 8.22778 47.7954 10.264 49.4456C15.6306 53.795 23.088 59.5888 31.4585 65.3781C39.8374 71.1732 49.0838 76.9298 58.0334 81.229C67.0397 85.5555 75.489 88.2791 82.3459 88.2805L82.3536 88.2799C108.526 88.37 129.992 72.1356 134.1 51.6617L134.5 49.6654L136.537 49.6536C141.982 49.6215 148.89 50.8778 154.301 52.0906C157.036 52.7035 159.443 53.3188 161.166 53.78C161.605 53.8974 161.998 54.0075 162.343 54.1027L166.74 48.7136C129.896 42.4147 99.5878 42.1051 60.9035 48.4979L59.6329 43.685L60.4952 46.0308C59.633 43.6846 59.6336 43.6839 59.6343 43.6836L59.6447 43.6803C59.6515 43.6778 59.6613 43.6743 59.6738 43.6697C59.6993 43.6604 59.7372 43.6467 59.7856 43.6291C59.8825 43.5941 60.025 43.5424 60.2104 43.4763C60.582 43.3441 61.1271 43.1525 61.8283 42.9117C63.2309 42.4299 65.2597 41.7516 67.7765 40.961C72.8076 39.3807 79.8028 37.3467 87.6568 35.5359C101.698 32.2985 118.92 29.6647 132.552 31.9175C126.233 15.0267 107.625 2.57861 84.7025 2.4996C77.0419 2.47323 69.2138 5.23204 61.1006 9.82345C52.9881 14.4145 44.7729 20.7294 36.3492 27.6067C27.2051 35.1489 18.3022 39.8686 11.6706 42.706C9.11861 43.7978 6.89931 44.6116 5.12889 45.202Z" fill="#364F3A" stroke="#263328" stroke-width="5"/>
</svg>
