<svg width="180" height="99" viewBox="0 0 180 99" fill="none" xmlns="http://www.w3.org/2000/svg">
<g filter="url(#filter0_d_1649_148)">
<path d="M93.028 90.7804C122.724 90.7743 175.374 44.0936 175.374 44.0936C175.374 44.0936 158.464 40.405 140.605 25.6712C123.731 11.8948 107.19 -0.0574376 90.6622 -0.000538966C65.1011 0.0874548 44.2365 15.0506 39.1674 35.2434C66.1868 28.1371 114.878 46.0312 114.878 46.0312C74.4436 39.3492 43.0328 39.9377 3.99924 46.9893L12.1288 56.953C12.1288 56.953 28.5369 52.0928 38.8214 52.1535C43.2128 74.043 65.9294 90.8737 93.028 90.7804Z" fill="#364F3A"/>
<path d="M170.244 45.202C168.878 46.3536 167.145 47.7954 165.109 49.4456C159.742 53.795 152.285 59.5888 143.915 65.3781C135.536 71.1732 126.289 76.9298 117.34 81.229C108.333 85.5555 99.884 88.2791 93.0271 88.2805L93.0195 88.2799C66.8469 88.37 45.3807 72.1356 41.2732 51.6617L40.8726 49.6654L38.8358 49.6536C33.3912 49.6215 26.4831 50.8778 21.0716 52.0906C18.3368 52.7035 15.9304 53.3188 14.2068 53.78C13.7685 53.8974 13.3747 54.0075 13.0298 54.1027L8.63273 48.7136C45.4768 42.4147 75.7853 42.1051 114.47 48.4979L115.74 43.685L114.878 46.0308C115.74 43.6846 115.739 43.6839 115.739 43.6836L115.728 43.6803C115.722 43.6778 115.712 43.6743 115.699 43.6697C115.674 43.6604 115.636 43.6467 115.587 43.6291C115.491 43.5941 115.348 43.5424 115.163 43.4763C114.791 43.3441 114.246 43.1525 113.545 42.9117C112.142 42.4299 110.113 41.7516 107.597 40.961C102.565 39.3807 95.5702 37.3467 87.7163 35.5359C73.6746 32.2985 56.453 29.6647 42.8212 31.9175C49.1396 15.0267 67.7476 2.57861 90.6705 2.4996C98.3311 2.47323 106.159 5.23204 114.272 9.82345C122.385 14.4145 130.6 20.7294 139.024 27.6067C148.168 35.1489 157.071 39.8686 163.702 42.706C166.254 43.7978 168.474 44.6116 170.244 45.202Z" stroke="#263328" stroke-width="5"/>
</g>
<defs>
<filter id="filter0_d_1649_148" x="0" y="0" width="179.373" height="98.7812" filterUnits="userSpaceOnUse" color-interpolation-filters="sRGB">
<feFlood flood-opacity="0" result="BackgroundImageFix"/>
<feColorMatrix in="SourceAlpha" type="matrix" values="0 0 0 0 0 0 0 0 0 0 0 0 0 0 0 0 0 0 127 0" result="hardAlpha"/>
<feOffset dy="4"/>
<feGaussianBlur stdDeviation="2"/>
<feComposite in2="hardAlpha" operator="out"/>
<feColorMatrix type="matrix" values="0 0 0 0 0 0 0 0 0 0 0 0 0 0 0 0 0 0 0.25 0"/>
<feBlend mode="normal" in2="BackgroundImageFix" result="effect1_dropShadow_1649_148"/>
<feBlend mode="normal" in="SourceGraphic" in2="effect1_dropShadow_1649_148" result="shape"/>
</filter>
</defs>
</svg>
