<svg width="140" height="366" viewBox="0 0 140 366" fill="none" xmlns="http://www.w3.org/2000/svg">
<g clip-path="url(#clip0_1253_283)">
<path d="M98.5978 6.72073C93.9454 5.96433 92.3171 7.161 90.1607 8.04049C92.8847 10.1866 94.19 12.7591 93.6388 16.3439C92.9337 20.9079 91.6221 25.636 90.6388 28.6039C91.6867 29.6154 91.9209 31.1253 89.9116 31.2613C89.733 32.2626 89.711 33.2735 88.8677 34.2456C89.7624 35.4214 90.2534 36.2267 90.224 36.5373C87.607 41.5789 87.2046 47.6849 86.0985 52.6725C85.1024 57.1786 83.5258 61.5588 82.7805 66.1109C82.5064 67.7642 82.3889 69.4273 82.3124 71.0971C69.6797 69.1746 57.2055 67.8983 45.9152 69.7793L54.6949 75.5277C61.5421 70.7271 72.1578 72.1849 82.2092 73.8716C82.1738 74.9645 82.1453 76.048 82.0739 77.1351C80.9942 79.3672 79.8377 81.4553 78.5802 83.3221L39.9313 331.677C37.8006 345.366 39.9704 351.764 41.3669 358.93C44.9617 352.576 49.026 347.191 51.3416 333.532L93.3591 85.7248C92.7586 83.5508 92.3231 81.2038 92.0078 78.7344C92.2888 77.6867 92.599 76.6542 92.9108 75.6115C102.989 77.1975 113.521 79.1725 118.499 85.901L128.637 83.2282C118.514 77.8658 106.293 75.1273 93.6919 72.9471C94.1534 71.34 94.5645 69.7194 94.8326 68.0703C95.5626 63.5157 95.2888 58.8452 95.9374 54.2721C96.7851 48.2805 97.4827 43.1792 97.141 37.6619C97.1213 37.6534 97.1119 37.6466 97.0922 37.6382C97.1849 37.3273 97.904 36.7293 99.102 35.9095C98.6102 34.7204 98.9095 33.7545 99.0573 32.7482C97.1946 31.9828 97.8951 30.6247 99.2094 29.9973C99.217 26.8708 99.4707 21.9706 100.248 17.4184C100.861 13.8436 102.914 11.8171 106.177 10.6445C104.41 9.12712 103.245 7.47629 98.5978 6.72073Z" fill="#5B5340"/>
</g>
<defs>
<clipPath id="clip0_1253_283">
<rect width="83.808" height="356.819" fill="white" transform="translate(57.26) rotate(9.23439)"/>
</clipPath>
</defs>
</svg>
