<svg width="248" height="63" viewBox="0 0 248 63" fill="none" xmlns="http://www.w3.org/2000/svg">
<path d="M192.026 1.38073L185.297 7.91166L178.537 1.3685L176.823 0.684256L132.512 0.702583L130.578 1.4968L124.403 7.47789L117.372 0.678145L115.652 2.85196e-06L71.5736 0.0488791H71.2586L69.5511 0.751459L62.6332 7.44735L56.087 1.08747L54.4489 0.391003L9.96108 0.439879L8.31035 1.11191L0.793862 8.40652L0.0882069 10.0683L0 53.0356L0.812764 54.9112L8.17174 62.0347L10.0493 62.7801L32.6051 62.7434L36.253 62.7312C36.1522 62.6701 36.0577 62.5907 35.9695 62.5112C35.2513 61.8148 35.2576 60.6845 35.9695 59.982C36.6878 59.2855 37.8597 59.2794 38.5779 59.9759C39.2962 60.6723 39.2962 61.8026 38.5779 62.5051C38.4897 62.5907 38.3952 62.664 38.2944 62.7312L41.955 62.719L54.2787 62.7067L56.0555 61.9797L62.9293 55.3022L69.3621 61.5337L71.2964 62.3219L115.608 62.2363L117.321 61.5521L123.603 55.4732L130.628 62.2791L132.342 62.9817L176.729 62.9328L178.449 62.2485L185.184 55.7298L191.926 62.273L193.702 63H206.026H209.68C209.58 62.9328 209.485 62.8595 209.391 62.774C208.672 62.0775 208.679 60.9472 209.397 60.2447C210.115 59.5482 211.287 59.5421 212.005 60.2386C212.724 60.935 212.717 62.0653 211.999 62.7678C211.904 62.8595 211.804 62.9328 211.703 63H215.376L237.938 62.9878L239.816 62.2424L247.168 55.1067L247.987 53.2311L248 10.2638L247.301 8.60202L239.803 1.31963L238.152 0.647596L193.665 0.696473L192.033 1.39294L192.026 1.38073ZM54.3039 59.4504L53.655 59.7131L41.9487 59.7254C41.7156 59.0411 41.3186 58.3996 40.7579 57.862C38.8425 56.0048 35.7175 56.0048 33.7958 57.8681C33.2288 58.418 32.8319 59.0594 32.5987 59.7498L10.6415 59.7865L9.89807 59.4932L3.42747 53.2128L3.08724 52.4369L3.16915 10.667L3.40857 10.0988L10.0682 3.63509L10.5848 3.42126L53.7999 3.37239L54.3102 3.58621L60.951 10.0377L61.3227 10.8197L61.3101 21.6394C60.5918 21.8655 59.924 22.2565 59.3506 22.8063C57.429 24.6697 57.429 27.6939 59.3506 29.5572C59.9114 30.101 60.5729 30.4858 61.2849 30.7119L61.2471 52.3086L60.9006 53.0295L54.2913 59.4443L54.3039 59.4504ZM64.1516 24.9202C64.8699 25.6167 64.8636 26.7469 64.1516 27.4434C63.4334 28.1398 62.2615 28.1459 61.5432 27.4495C60.825 26.753 60.825 25.6228 61.5432 24.9202C62.2615 24.2237 63.4334 24.2237 64.1516 24.9202ZM115.589 59.0167L115.003 59.2488L71.9201 59.3283L71.12 59.0045L64.6431 52.7301L64.3406 52.0092L64.3784 30.718C65.0904 30.492 65.7582 30.1071 66.3253 29.5572C68.2406 27.6939 68.2469 24.6636 66.3253 22.8063C65.7645 22.2626 65.1093 21.8838 64.4099 21.6578L64.4225 10.3004L64.6935 9.67116L71.309 3.26242L71.8949 3.02415L115.053 2.97528L115.639 3.20743L122.293 9.65284L122.513 10.1477L122.582 10.1355L122.45 10.4471L122.437 32.3187C121.726 32.5447 121.064 32.9296 120.497 33.4794C118.575 35.3428 118.575 38.3731 120.491 40.2303C121.051 40.7741 121.719 41.1651 122.431 41.3911V52.1436L122.242 52.5652L115.576 59.0228L115.589 59.0167ZM125.285 35.5811C126.004 36.2775 125.997 37.4078 125.279 38.1104C124.561 38.8068 123.395 38.8068 122.677 38.1104C121.959 37.4139 121.959 36.2837 122.677 35.5872C123.395 34.8907 124.567 34.8846 125.285 35.5811ZM176.716 59.707L176.124 59.9392L132.966 59.982L132.38 59.7437L125.783 53.3533L125.512 52.724V41.3728C126.224 41.1467 126.892 40.7618 127.453 40.212C129.368 38.3486 129.374 35.3245 127.453 33.4611C126.892 32.9174 126.224 32.5264 125.512 32.3064L125.531 11.0213L125.833 10.3004L132.329 4.00776L133.129 3.67786L176.212 3.65952L176.792 3.89168L183.439 10.3249L183.653 10.8258L183.609 52.7362L183.382 53.2311L176.71 59.6887L176.716 59.707ZM238.045 3.83059L244.68 10.276L244.919 10.8381L244.906 52.614L244.566 53.396L238.077 59.6948L237.333 59.9942L215.389 60.0064C215.156 59.316 214.759 58.6684 214.198 58.1247C212.283 56.2675 209.157 56.2675 207.236 58.1308C206.675 58.6746 206.272 59.3221 206.039 60.0064H194.332L193.683 59.7437L187.099 53.3472L186.854 52.7851L186.904 10.9358L187.144 10.3676L193.803 3.89168L194.32 3.67786L237.541 3.62898L238.058 3.8367L238.045 3.83059Z" fill="#080808"/>
<path d="M12.8601 13.961C10.9385 15.8243 10.9322 18.8546 12.8538 20.7118C13.4146 21.2556 14.0824 21.6466 14.7944 21.8665L14.7818 32.5641C14.0698 32.7901 13.402 33.175 12.8412 33.7248C10.9259 35.5882 10.9196 38.6123 12.8412 40.4757C14.7566 42.333 17.8816 42.333 19.8033 40.4757C21.7249 38.6123 21.7249 35.5821 19.8033 33.7248C19.2425 33.1811 18.5747 32.7901 17.869 32.5702L17.8816 21.8726C18.5936 21.6466 19.2551 21.2617 19.8222 20.7118C21.7438 18.8485 21.7501 15.8243 19.8285 13.961C17.9068 12.0976 14.7881 12.1037 12.8664 13.961H12.8601ZM17.617 35.8326C18.3353 36.529 18.3353 37.6593 17.617 38.3558C16.8987 39.0522 15.7268 39.0583 15.0086 38.3619C14.2903 37.6654 14.2966 36.5352 15.0086 35.8326C15.7268 35.1361 16.8987 35.1361 17.617 35.8326ZM17.6422 16.0687C18.3605 16.7652 18.3542 17.8954 17.6359 18.598C16.9176 19.2945 15.752 19.2945 15.0275 18.598C14.3092 17.9015 14.3155 16.7713 15.0338 16.0748C15.752 15.3784 16.9239 15.3722 17.6422 16.0687Z" fill="#080808"/>
<path d="M230.737 14.1206C228.815 15.984 228.815 19.0143 230.737 20.8715C231.297 21.4152 231.965 21.8062 232.671 22.0262L232.658 32.7237C231.946 32.9498 231.285 33.3347 230.718 33.8845C228.796 35.7479 228.79 38.772 230.712 40.6354C232.627 42.4926 235.752 42.4926 237.674 40.6354C239.595 38.772 239.602 35.7418 237.68 33.8845C237.119 33.3408 236.451 32.9498 235.739 32.7298L235.752 22.0323C236.464 21.8062 237.132 21.4214 237.692 20.8715C239.608 19.0082 239.614 15.984 237.692 14.1206C235.777 12.2634 232.652 12.2634 230.73 14.1206H230.737ZM235.494 35.9922C236.212 36.6887 236.212 37.819 235.494 38.5154C234.775 39.2119 233.603 39.218 232.885 38.5215C232.167 37.8251 232.173 36.6948 232.891 35.9922C233.61 35.2958 234.775 35.2958 235.494 35.9922ZM235.519 16.2284C236.237 16.9248 236.231 18.0551 235.512 18.7577C234.794 19.4541 233.629 19.4541 232.91 18.7577C232.192 18.0612 232.192 16.931 232.91 16.2345C233.629 15.538 234.801 15.5319 235.519 16.2284Z" fill="#080808"/>
<path d="M97.7393 13.6233C95.8177 15.4806 95.8114 18.5108 97.733 20.3742C99.6484 22.2315 102.773 22.2315 104.695 20.3681C105.268 19.8122 105.672 19.1523 105.898 18.4498H110.095V22.262C109.294 22.4697 108.532 22.8852 107.902 23.4961C105.987 25.3534 105.98 28.3836 107.902 30.247C109.817 32.1042 112.942 32.1042 114.864 30.2409C116.786 28.3836 116.786 25.3534 114.87 23.49C114.373 23.0074 113.799 22.653 113.182 22.4209V15.4684H105.886C105.653 14.7902 105.262 14.161 104.708 13.6233C102.792 11.7661 99.6673 11.7661 97.7456 13.6294L97.7393 13.6233ZM112.684 25.5977C113.402 26.2942 113.402 27.4244 112.684 28.127C111.966 28.8296 110.794 28.8296 110.076 28.1331C109.357 27.4367 109.364 26.3064 110.082 25.6038C110.8 24.9013 111.966 24.9013 112.684 25.5977ZM102.521 15.7311C103.24 16.4275 103.233 17.5578 102.515 18.2604C101.797 18.9629 100.625 18.9629 99.9067 18.2665C99.1884 17.57 99.1947 16.4398 99.913 15.7372C100.631 15.0407 101.797 15.0346 102.521 15.7311Z" fill="#080808"/>
<path d="M166.401 33.7355C164.486 35.5928 164.486 38.623 166.401 40.4864C166.975 41.0424 167.655 41.4334 168.38 41.6533V45.7221H164.454C164.234 44.9463 163.812 44.207 163.182 43.5961C161.26 41.7327 158.141 41.7327 156.22 43.5961C154.304 45.4533 154.304 48.4836 156.22 50.347C158.141 52.2042 161.266 52.2103 163.182 50.347C163.673 49.8704 164.045 49.3084 164.284 48.7157H171.461V41.6411C172.154 41.415 172.809 41.0363 173.363 40.4986C175.279 38.6414 175.279 35.6111 173.363 33.7478C171.442 31.8905 168.323 31.8844 166.401 33.7478V33.7355ZM158.406 48.227C157.688 47.5305 157.688 46.3942 158.406 45.6977C159.124 45.0012 160.29 45.0012 161.014 45.6977C161.739 46.3942 161.733 47.5305 161.014 48.227C160.296 48.9235 159.131 48.9174 158.406 48.227ZM171.19 35.8494C171.908 36.5459 171.908 37.6761 171.19 38.3726C170.471 39.069 169.306 39.069 168.588 38.3726C167.869 37.6761 167.863 36.5397 168.581 35.8433C169.3 35.1468 170.465 35.1529 171.19 35.8494Z" fill="#080808"/>
</svg>
