<svg width="177" height="255" viewBox="0 0 177 255" fill="none" xmlns="http://www.w3.org/2000/svg">
<path d="M16.9108 169.437H73.9308C79.1308 164.407 82.4208 161.237 87.0108 156.807C92.3108 161.917 95.6508 165.147 100.811 170.137C95.6808 175.117 92.3208 178.377 86.7608 183.777V238.817C92.9208 244.797 96.3808 248.147 102.531 254.127H159.221C165.381 248.147 168.831 244.787 174.991 238.817V207.607C174.691 207.667 174.371 207.707 174.021 207.707C171.271 207.707 169.981 205.517 170.141 203.457C169.991 201.397 171.271 199.197 174.021 199.197C174.371 199.197 174.691 199.237 174.991 199.297V183.767C169.341 178.287 165.971 175.007 160.691 169.887C165.951 164.807 169.331 161.537 174.991 156.077V101.037C169.081 95.3368 165.651 92.0268 159.971 86.5368C165.391 81.2468 168.771 77.9568 174.481 72.3668V17.3168C168.351 11.3368 164.921 7.98684 158.791 2.00684H102.431C96.3008 7.98684 92.8708 11.3468 86.7408 17.3168V72.3568C92.4708 77.9468 95.8308 81.2368 101.251 86.5268C96.5208 91.0968 93.3508 94.1568 89.0008 98.3468C83.2608 92.8168 79.8208 89.4968 73.8908 83.7568H16.9108C10.7208 89.7368 7.25078 93.0968 1.05078 99.0668V154.107C7.25078 160.087 10.7208 163.437 16.9108 169.417V169.437ZM153.461 33.7068C158.661 33.7068 158.651 41.5368 153.461 41.5368C148.271 41.5368 148.271 33.7068 153.461 33.7068ZM139.811 236.757C134.611 236.757 134.621 228.927 139.811 228.927C145.001 228.927 145.001 236.757 139.811 236.757ZM138.771 19.7668C143.971 19.7668 143.961 27.5968 138.771 27.5968C133.581 27.5968 133.581 19.7668 138.771 19.7668ZM138.081 82.3868C143.281 82.3868 143.271 90.2168 138.081 90.2168C132.891 90.2168 132.891 82.3868 138.081 82.3868ZM125.641 99.5068C130.841 99.5068 130.831 107.337 125.641 107.337C120.451 107.337 120.451 99.5068 125.641 99.5068ZM124.251 165.297C129.451 165.297 129.441 173.127 124.251 173.127C119.061 173.127 119.061 165.297 124.251 165.297ZM111.291 236.587C106.091 236.587 106.101 228.757 111.291 228.757C116.481 228.757 116.481 236.587 111.291 236.587ZM111.111 112.937C116.311 112.937 116.301 120.767 111.111 120.767C105.921 120.767 105.921 112.937 111.111 112.937ZM88.9808 130.057C94.1808 130.057 94.1708 137.887 88.9808 137.887C83.7908 137.887 83.7908 130.057 88.9808 130.057ZM54.0608 97.4968C59.2608 97.4968 59.2508 105.327 54.0608 105.327C48.8708 105.327 48.8708 97.4968 54.0608 97.4968ZM25.1908 97.6568C30.3908 97.6568 30.3808 105.487 25.1908 105.487C20.0008 105.487 20.0008 97.6568 25.1908 97.6568Z" fill="#78CDD3"/>
<path d="M145.98 20.4274L148.01 19.6174L148.64 20.3574L146.61 21.1774L147.8 22.5774L149.83 21.7674L151.05 23.2074L146.29 23.6474L144.7 19.9874L144.73 23.7874L141.96 24.0374L143.99 25.9474L141.63 28.9274L145.13 27.0274L148.61 30.3074L146.76 30.6874L145.66 28.7974L143.86 29.1674L144.96 31.0574L144.01 31.2574L142.91 29.3674L141.11 29.7374L142.21 31.6274L140.93 31.8874L141.35 34.1474L142.63 33.8874L142.28 36.0774L144.08 35.7074L144.43 33.5174L145.38 33.3274L145.03 35.5174L146.83 35.1474L147.18 32.9574L149.03 32.5774L146.97 36.9974L143.05 36.6074L146.3 38.4374L145.1 41.0074L147.76 40.1474L149.08 43.6874L149.25 39.6674L153.82 38.1974L153.2 40.0074L151.03 40.0574L150.42 41.8274L152.59 41.7774L152.27 42.7074L150.1 42.7574L149.49 44.5274L151.66 44.4774L151.23 45.7274L153.37 46.4674L153.8 45.2174L155.48 46.5874L156.09 44.8174L154.41 43.4474L154.73 42.5174L156.41 43.8874L157.02 42.1174L155.34 40.7474L155.96 38.9374L158.66 42.9174L156.32 46.1874L159.54 44.2174L161.11 46.5374L161.75 43.7674L165.44 44.3274L162.11 42.2174L163.2 37.4674L164.43 38.9074L163.36 40.8474L164.55 42.2474L165.62 40.3074L166.25 41.0474L165.18 42.9874L166.37 44.3874L167.44 42.4474L168.29 43.4374L170.01 41.9074L169.16 40.9174L171.19 40.1074L170 38.7074L167.97 39.5174L167.34 38.7774L169.37 37.9674L168.18 36.5674L166.15 37.3774L164.93 35.9374L169.69 35.4974L171.28 39.1574L171.25 35.3574L174.02 35.1074L171.99 33.1974L174.35 30.2174L170.85 32.1174L167.37 28.8374L169.22 28.4574L170.32 30.3474L172.12 29.9774L171.02 28.0874L171.97 27.8974L173.07 29.7874L174.87 29.4174L173.77 27.5274L175.05 27.2674L174.63 24.9974L173.35 25.2574L173.7 23.0674L171.9 23.4374L171.55 25.6274L170.6 25.8174L170.95 23.6274L169.15 23.9974L168.8 26.1874L166.95 26.5674L169.01 22.1574L172.94 22.5374L169.69 20.7074L170.89 18.1374L168.23 18.9974L166.91 15.4674L166.74 19.4874L162.17 20.9574L162.79 19.1474L164.96 19.0974L165.57 17.3274L163.4 17.3774L163.72 16.4474L165.89 16.3974L166.5 14.6274L164.33 14.6774L164.76 13.4174L162.62 12.6774L162.19 13.9374L160.51 12.5674L159.9 14.3374L161.58 15.7074L161.26 16.6374L159.58 15.2674L158.97 17.0374L160.65 18.4074L160.03 20.2174L157.33 16.2474L159.67 12.9774L156.45 14.9474L154.88 12.6374L154.24 15.4074L150.55 14.8474L153.88 16.9674L152.79 21.7174L151.56 20.2774L152.63 18.3374L151.44 16.9374L150.37 18.8774L149.74 18.1374L150.81 16.1974L149.62 14.7974L148.55 16.7374L147.7 15.7474L145.98 17.2774L146.83 18.2674L144.8 19.0774L145.99 20.4774L145.98 20.4274ZM168.7 33.2374L163.08 33.7574L160.12 30.2774L164.59 29.3574L168.7 33.2274V33.2374ZM161.22 23.6274L166.62 21.8874L164.18 27.0974L159.71 28.0174L161.22 23.6274ZM158.4 31.8074L161.36 35.2874L160.07 40.8974L156.88 36.2074L158.39 31.8174L158.4 31.8074ZM154.75 35.4674L149.35 37.2074L151.79 31.9974L156.26 31.0774L154.75 35.4674ZM159.08 22.8974L157.57 27.2874L154.61 23.8074L155.9 18.1974L159.09 22.8874L159.08 22.8974ZM152.88 25.3374L155.84 28.8174L151.37 29.7374L147.26 25.8674L152.88 25.3474V25.3374Z" fill="#BFFFFD"/>
<path d="M130.91 31.1875L128.13 33.0275L126.97 32.1175L129.75 30.2775L127.54 28.5575L124.76 30.3975L122.49 28.6275L129.46 26.5075L132.96 31.4775L131.75 25.8075L135.81 24.5775L132.2 22.3575L134.81 17.1875L130.17 21.1075L123.97 17.2875L126.61 16.1575L128.83 18.6375L131.4 17.5375L129.18 15.0475L130.54 14.4675L132.76 16.9475L135.33 15.8475L133.11 13.3575L134.94 12.5775L133.62 9.32754L131.79 10.1075L131.63 6.73754L129.06 7.83754L129.22 11.2075L127.86 11.7875L127.7 8.41754L125.13 9.51754L125.29 12.8875L122.64 14.0175L124.36 6.79754L130.33 6.15754L124.92 4.42754L125.21 3.22754C124.66 3.37754 124.09 3.47754 123.5 3.52754C122.18 3.64754 120.85 3.73754 119.52 3.83754L113.75 7.09754L114.12 4.19754L114.22 4.17754C113.02 4.24754 111.82 4.30754 110.62 4.35754L110.32 6.65754L108.08 4.47754C106.12 4.56754 104.16 4.64754 102.21 4.71754C101.65 4.73754 100.88 4.66754 100.13 4.63754L99.9901 11.0875L97.7201 9.31754L98.7301 6.09754L97.9101 5.45754C97.8501 5.54754 97.7801 5.64754 97.7001 5.76754C96.5501 7.41754 94.8601 8.91754 93.0901 10.1575L93.4201 10.4075L90.6401 12.2475L92.8501 13.9675L95.6301 12.1275L97.9001 13.8975L90.9301 16.0175L88.5401 12.6275C88.2901 12.6975 88.0501 12.7575 87.8101 12.8075L88.6401 16.7175L84.5801 17.9475L88.1901 20.1675L85.5801 25.3375L90.2201 21.4175L96.4201 25.2375L93.7801 26.3675L91.5601 23.8775L88.9901 24.9875L91.2101 27.4675L89.8501 28.0575L87.6201 25.5675L85.0501 26.6775L87.2701 29.1675L85.4401 29.9475L86.7601 33.1975L88.5901 32.4175L88.7401 35.7875L91.3101 34.6775L91.1601 31.3075L92.5201 30.7275L92.6701 34.0975L95.2401 32.9875L95.0901 29.6175L97.7401 28.4875L96.0201 35.7175L90.0501 36.3475L95.4601 38.0775L94.4601 42.2875L98.1701 40.1875L101.23 45.0575L100.25 39.0075L106.62 35.3975L106.25 38.2975L103.02 39.0375L102.66 41.8675L105.89 41.1275L105.7 42.6175L102.47 43.3575L102.11 46.1875L105.34 45.4475L105.08 47.4475L108.5 47.8875L108.76 45.8775L111.69 47.4075L112.05 44.5775L109.12 43.0475L109.31 41.5575L112.24 43.0875L112.6 40.2575L109.67 38.7275L110.04 35.8275L115.29 40.9275L112.81 46.5275L117.01 42.5975L120.07 45.5675L120.17 41.2375L125.84 40.9375L120.22 38.8075L120.39 31.3775L122.66 33.1475L121.65 36.3675L123.86 38.0875L124.87 34.8675L126.04 35.7775L125.03 38.9975L127.24 40.7175L128.25 37.4975L129.82 38.7175L131.92 35.9075L130.35 34.6875L133.13 32.8475L130.92 31.1275L130.91 31.1875ZM93.0501 19.0775L101.28 16.5675L106.77 20.8475L100.38 23.5975L93.0601 19.0875L93.0501 19.0775ZM107.18 31.1075L99.6601 35.3575L101.69 26.8275L108.08 24.0775L107.18 31.0975V31.1075ZM108.87 18.0275L103.38 13.7475L103.57 4.97754L109.77 10.9975L108.87 18.0175V18.0275ZM113.19 11.4575L120.71 7.19754L118.68 15.7275L112.29 18.4675L113.19 11.4475V11.4575ZM116.8 37.5675L110.6 31.5475L111.5 24.5275L116.99 28.8075L116.8 37.5675ZM119.09 25.9975L113.6 21.7175L119.99 18.9675L127.31 23.4775L119.08 25.9875L119.09 25.9975Z" fill="#BFFFFD"/>
<path d="M98.9993 64.0374L97.6093 65.1874L96.9293 64.7974L98.3193 63.6474L97.0193 62.9074L95.6293 64.0574L94.2993 63.2974L97.9293 61.7074L100.129 64.0474L99.1193 61.1874L101.239 60.2574L99.1493 59.3574L100.229 56.4874L97.9693 58.8474L94.3793 57.2974L95.7393 56.5174L97.0893 57.6574L98.4093 56.8974L97.0593 55.7574L97.7593 55.3574L99.1093 56.4974L100.429 55.7374L99.0793 54.5974L100.019 54.0574L99.1093 52.4574L98.1693 52.9974L97.8793 51.2574L96.5593 52.0174L96.8493 53.7574L96.1493 54.1574L95.8593 52.4174L94.5393 53.1774L94.8293 54.9174L93.4693 55.6974L93.9493 51.8174L97.1293 51.0674L94.0993 50.5474L94.3793 48.2874L92.5093 49.6374L90.5493 47.3174L91.4493 50.3974L88.2793 52.6874C88.3293 53.4074 88.3693 54.1374 88.4193 54.8574L91.9993 52.2674L91.4293 56.8474L88.6393 58.4474C88.7193 59.7574 88.7993 61.0674 88.8793 62.3774L91.3393 63.7774L91.7793 68.3474L89.0793 66.3874C89.1193 67.1874 89.1593 67.9874 89.1893 68.7874L91.1793 70.2374L90.1893 73.3274L92.2093 70.9874L94.0393 72.3174L93.8193 70.0574L96.8593 69.4974L93.6993 68.7874L93.3293 64.9174L94.6593 65.6774L94.3193 67.4274L95.6193 68.1674L95.9593 66.4174L96.6493 66.8074L96.3093 68.5574L97.6093 69.2974L97.9493 67.5474L98.8693 68.0774L99.8293 66.4674L98.9093 65.9374L100.289 64.7874L98.9893 64.0474L98.9993 64.0374ZM92.2993 62.1574L89.0693 60.3174L92.3493 58.4374L96.5893 60.2674L92.2993 62.1474V62.1574Z" fill="#BFFFFD"/>
<path d="M87.9202 46.3374C88.0202 48.2774 88.1302 50.2174 88.2502 52.1474V51.1774L89.9602 50.5674L89.9802 49.0774L88.2802 49.6874V48.8974L89.9902 48.2874L90.0102 46.7974L88.3102 47.4074V46.3474H87.9102L87.9202 46.3374Z" fill="#BFFFFD"/>
<path d="M113.66 61.1576L116.19 60.1476L116.98 61.0676L114.45 62.0876L115.94 63.8276L118.47 62.8176L120 64.6076L114.06 65.1576L112.08 60.5976L112.11 65.3376L108.65 65.6576L111.18 68.0376L108.23 71.7576L112.6 69.3776L116.94 73.4676L114.63 73.9376L113.26 71.5776L111.01 72.0376L112.38 74.3976L111.19 74.6476L109.82 72.2876L107.57 72.7476L108.94 75.1076L107.35 75.4376L107.87 78.2576L109.46 77.9276L109.03 80.6576L111.28 80.1976L111.71 77.4676L112.89 77.2276L112.46 79.9576L114.71 79.4976L115.14 76.7676L117.45 76.2976L114.87 81.8076L109.97 81.3276L114.02 83.6076L112.52 86.8176L115.84 85.7476L117.49 90.1576L117.71 85.1476L123.42 83.3076L122.64 85.5676L119.93 85.6276L119.17 87.8376L121.88 87.7776L121.48 88.9476L118.77 89.0076L118.01 91.2176L120.72 91.1576L120.18 92.7176L122.85 93.6376L123.39 92.0676L125.49 93.7876L126.25 91.5776L124.15 89.8676L124.55 88.6976L126.65 90.4076L127.41 88.1976L125.31 86.4876L126.09 84.2276L129.45 89.1876L126.54 93.2676L130.56 90.8076L132.52 93.6976L133.31 90.2376L137.91 90.9376L133.76 88.2976L135.12 82.3676L136.65 84.1576L135.31 86.5776L136.8 88.3276L138.14 85.9076L138.92 86.8276L137.58 89.2476L139.07 90.9976L140.41 88.5776L141.47 89.8176L143.62 87.9176L142.56 86.6776L145.09 85.6576L143.6 83.9076L141.06 84.9276L140.28 84.0076L142.81 82.9976L141.32 81.2476L138.79 82.2676L137.26 80.4776L143.2 79.9276L145.18 84.4876L145.15 79.7476L148.61 79.4276L146.08 77.0476L149.03 73.3276L144.66 75.7076L140.32 71.6176L142.63 71.1476L144 73.5076L146.25 73.0476L144.88 70.6876L146.07 70.4476L147.44 72.8076L149.69 72.3476L148.32 69.9876L149.91 69.6576L149.39 66.8276L147.79 67.1576L148.22 64.4276L145.97 64.8876L145.54 67.6176L144.36 67.8576L144.79 65.1276L142.54 65.5876L142.11 68.3176L139.8 68.7876L142.37 63.2776L147.27 63.7576L143.22 61.4776L144.72 58.2676L141.4 59.3376L139.75 54.9276L139.53 59.9376L133.83 61.7676L134.61 59.5076L137.32 59.4476L138.08 57.2376L135.37 57.2976L135.77 56.1276L138.48 56.0676L139.24 53.8576L136.53 53.9176L137.07 52.3476L134.4 51.4276L133.86 52.9976L131.76 51.2876L131 53.4976L133.1 55.2176L132.7 56.3876L130.6 54.6676L129.84 56.8776L131.94 58.5976L131.16 60.8576L127.79 55.8976L130.7 51.8176L126.68 54.2776L124.72 51.3876L123.93 54.8376L119.33 54.1376L123.48 56.7776L122.12 62.6976L120.59 60.9076L121.93 58.4876L120.44 56.7476L119.1 59.1676L118.32 58.2476L119.66 55.8276L118.17 54.0876L116.83 56.5076L115.77 55.2676L113.62 57.1776L114.68 58.4176L112.15 59.4376L113.64 61.1776L113.66 61.1576ZM142.02 77.1476L135.01 77.7976L131.32 73.4576L136.9 72.3176L142.03 77.1476H142.02ZM132.68 65.1576L139.42 62.9876L136.38 69.4876L130.8 70.6276L132.69 65.1476L132.68 65.1576ZM129.16 75.3676L132.85 79.7076L131.24 86.7076L127.27 80.8576L129.16 75.3776V75.3676ZM124.61 79.9276L117.87 82.0976L120.91 75.5976L126.49 74.4576L124.6 79.9376L124.61 79.9276ZM130.01 64.2376L128.12 69.7176L124.43 65.3776L126.04 58.3776L130.01 64.2376ZM122.28 67.2876L125.97 71.6276L120.39 72.7676L115.26 67.9376L122.27 67.2876H122.28Z" fill="#BFFFFD"/>
<path d="M143.429 2.67746C142.919 2.67746 142.399 2.69746 141.889 2.73746C141.619 2.75746 141.359 2.75746 141.099 2.73746L140.549 3.52746L141.989 4.55746L142.559 3.72746L143.539 5.12746L144.339 3.95746L143.429 2.64746V2.67746Z" fill="#BFFFFD"/>
<path d="M149.54 3.04736C148.53 2.96736 147.52 2.87736 146.51 2.79736L146.63 3.15736L144.24 5.03736L147.02 4.31736L147.73 6.38736L148.75 4.48736L151.37 5.74736L149.32 3.41736L149.53 3.02736L149.54 3.04736Z" fill="#BFFFFD"/>
<path d="M156.019 2.94727C155.399 3.03727 154.779 3.10727 154.149 3.13727C153.589 3.16727 153.029 3.17727 152.469 3.17727L152.619 3.50727L151.439 4.69727L152.049 6.00727L153.229 4.81727L153.659 5.74727L155.239 5.01727L154.809 4.08727L156.479 3.94727L156.009 2.94727H156.019Z" fill="#BFFFFD"/>
<path d="M55.5496 86.1373L53.8196 85.6772C52.8396 85.7872 51.8496 85.8973 50.8696 85.9873L49.3496 86.7172L49.5196 88.5472L51.4396 87.6273L51.5596 88.9272L53.7696 88.7172L53.6496 87.4173L55.7096 87.9672L55.5396 86.1373H55.5496Z" fill="#BFFFFD"/>
<path d="M96.5597 88.9674L98.7997 89.5374L100.1 87.6474L97.5097 86.9874L98.1997 85.9874L100.79 86.6474L102.09 84.7574L99.4997 84.0974L100.43 82.7474L98.1397 81.1674L97.2097 82.5174L95.6697 80.3374L94.9297 81.4074C96.8997 83.4574 97.3197 86.3674 96.5397 88.9674H96.5597Z" fill="#BFFFFD"/>
<path d="M108.309 99.7276L106.709 99.6176L107.839 97.1476L105.589 96.9876L104.459 99.4676L103.269 99.3876L104.399 96.9176L102.149 96.7576L101.019 99.2376L98.6991 99.0776L102.599 94.5376L107.119 96.2876L103.879 93.0476L106.149 90.3976L102.709 90.5376L102.309 85.9176L100.779 90.6176L95.7891 90.8176C95.4691 91.3976 95.0791 91.9476 94.6391 92.4276C94.1391 92.9776 93.5691 93.4076 92.9691 93.7576L99.8491 93.4876L95.2391 98.8576L89.6391 98.4676L92.8191 93.8476C91.5991 94.5076 90.2191 94.7776 88.8391 94.7176L87.3391 96.8876L86.0591 94.1276C85.0491 93.7376 84.1091 93.1676 83.2991 92.4376C82.8591 92.0376 82.0591 91.5476 81.6391 91.0476C81.4691 90.9476 81.3091 90.8376 81.1391 90.7376C80.5891 90.3976 80.0591 90.0176 79.5391 89.6276L75.1791 88.8376L74.7891 86.0176C74.5791 85.7176 74.3791 85.4076 74.2091 85.0776L73.2791 88.4876L69.9091 87.8776L71.6791 90.8076L67.8991 93.5576L72.6791 92.4576L75.7191 97.4876L73.4091 97.3276L72.7291 94.7276L70.4791 94.5676L71.1591 97.1676L69.9691 97.0876L69.2891 94.4776L67.0391 94.3176L67.7191 96.9176L66.1191 96.8076L65.8691 99.6276L67.4691 99.7376L66.3391 102.218L68.5891 102.378L69.7191 99.8976L70.9091 99.9776L69.7791 102.458L72.0291 102.618L73.1591 100.138L75.4791 100.298L71.5791 104.848L67.0591 103.098L70.2991 106.338L68.0191 108.988L71.4591 108.848L71.8591 113.468L73.3891 108.768L79.2891 108.538L77.9491 110.478L75.3591 109.818L74.0491 111.718L76.6391 112.378L75.9491 113.378L73.3591 112.718L72.0591 114.608L74.6491 115.268L73.7191 116.608L76.0091 118.188L76.9291 116.848L78.4691 119.028L79.7691 117.138L78.2291 114.958L78.9191 113.958L80.4591 116.138L81.7691 114.238L80.2291 112.058L81.5691 110.118L83.4491 115.718L79.6091 118.818L84.0691 117.548L85.1591 120.808L86.8291 117.738L91.0091 119.618L87.7691 116.018L90.6291 110.758L91.6091 112.868L89.6991 114.808L90.6491 116.858L92.5591 114.918L93.0591 115.998L91.1491 117.938L92.0991 119.988L94.0091 118.048L94.6791 119.498L97.2191 118.258L96.5491 116.798L99.2191 116.508L98.2691 114.458L95.5891 114.748L95.0891 113.668L97.7591 113.378L96.8091 111.328L94.1391 111.618L93.1691 109.518L98.9491 110.568L99.6191 115.418L100.839 110.908L104.209 111.518L102.439 108.588L106.219 105.838L101.439 106.938L98.3991 101.908L100.709 102.068L101.389 104.668L103.639 104.828L102.959 102.228L104.149 102.318L104.829 104.918L107.079 105.078L106.399 102.478L107.999 102.588L108.249 99.7676L108.309 99.7276ZM75.6191 91.7576L82.4491 92.9976L84.8091 98.0876L79.2091 97.6976L75.6191 91.7576ZM81.3091 105.608L74.3491 105.878L78.9591 100.518L84.5591 100.908L81.3191 105.608H81.3091ZM85.8291 113.788L83.6091 107.178L86.8491 102.478L89.2091 107.568L85.8391 113.778L85.8291 113.788ZM98.5691 107.578L91.7391 106.338L89.3791 101.248L94.9791 101.638L98.5691 107.578Z" fill="#BFFFFD"/>
<path d="M172.179 70.0574C172.179 69.7774 172.199 69.4874 172.199 69.2074L171.949 69.6674L170.589 65.6274L172.489 62.8674C172.569 61.5874 172.659 60.2974 172.739 59.0174L171.429 56.1974L173.029 53.2374C173.059 52.2174 173.079 51.1974 173.079 50.1774C173.079 49.9574 173.099 49.7474 173.109 49.5374L172.859 49.9974L170.299 48.8474L172.279 51.0474L170.529 54.2674L169.929 52.9774L171.099 51.7874L170.519 50.5374L169.349 51.7274L169.039 51.0674L170.209 49.8774L169.629 48.6274L168.459 49.8174L168.049 48.9274L166.489 49.6874L166.899 50.5774L165.259 50.7574L165.839 52.0074L167.469 51.8274L167.779 52.4874L166.139 52.6674L166.719 53.9174L168.349 53.7374L168.949 55.0274L165.409 54.3874L164.999 51.4174L164.249 54.1774L162.189 53.7974L163.269 55.5874L160.959 57.2674L163.879 56.5974L165.739 59.6774L164.329 59.5774L163.919 57.9874L162.539 57.8874L162.949 59.4774L162.219 59.4274L161.799 57.8374L160.419 57.7374L160.829 59.3274L159.849 59.2574L159.699 60.9774L160.679 61.0474L159.989 62.5674L161.369 62.6674L162.059 61.1474L162.789 61.1974L162.099 62.7174L163.479 62.8174L164.169 61.2974L165.589 61.3974L163.199 64.1774L160.439 63.1074L162.419 65.0874L161.029 66.7074L163.129 66.6274L163.379 69.4574L164.319 66.5874L167.929 66.4474L167.109 67.6374L165.529 67.2374L164.729 68.3974L166.309 68.7974L165.889 69.4074L164.309 69.0074L163.509 70.1674L165.089 70.5774L164.519 71.3974L165.919 72.3674L166.489 71.5474L167.429 72.8874L168.229 71.7274L167.289 70.3874L167.709 69.7774L168.649 71.1174L169.449 69.9574L168.509 68.6274L169.329 67.4374L170.479 70.8574L168.129 72.7574L170.859 71.9774L171.529 73.9674L172.419 72.3274C172.239 71.6374 172.139 70.8974 172.149 70.0774L172.179 70.0574ZM165.699 56.1874L169.879 56.9474L171.319 60.0574L167.899 59.8174L165.709 56.1874H165.699ZM169.189 64.6674L164.929 64.8374L167.749 61.5574L171.169 61.7974L169.189 64.6774V64.6674Z" fill="#BFFFFD"/>
<path d="M117.16 110.297L120.34 109.447L121.15 110.667L117.96 111.517L119.49 113.827L122.67 112.977L124.24 115.347L117.03 115.147L115.31 109.387L114.66 115.087L110.46 114.967L113.15 118.187L109.08 122.217L114.67 119.997L119.29 125.537L116.46 125.767L115.16 122.737L112.4 122.967L113.7 125.997L112.24 126.117L110.93 123.087L108.17 123.317L109.47 126.347L107.51 126.507L107.73 129.967L109.69 129.807L108.77 133.017L111.53 132.787L112.45 129.577L113.91 129.457L112.99 132.667L115.75 132.437L116.67 129.227L119.51 128.997L115.62 135.237L109.82 133.957L114.35 137.277L112.08 140.917L116.22 140.107L117.56 145.637L118.54 139.657L125.65 138.277L124.39 140.877L121.13 140.557L119.9 143.097L123.16 143.417L122.51 144.757L119.25 144.437L118.02 146.977L121.28 147.297L120.41 149.097L123.48 150.587L124.35 148.787L126.62 151.147L127.85 148.607L125.58 146.247L126.23 144.907L128.5 147.267L129.73 144.727L127.46 142.367L128.72 139.767L132.04 146.207L127.95 150.687L133.13 148.317L135.06 152.067L136.51 148.037L141.92 149.537L137.32 145.777L139.81 138.867L141.39 141.237L139.43 143.947L140.96 146.257L142.92 143.547L143.73 144.767L141.77 147.477L143.3 149.787L145.26 147.077L146.35 148.717L149.2 146.747L148.11 145.107L151.3 144.257L149.77 141.947L146.58 142.797L145.77 141.577L148.95 140.727L147.42 138.417L144.23 139.267L142.66 136.897L149.87 137.097L151.59 142.857L152.24 137.157L156.44 137.277L153.75 134.057L157.82 130.027L152.23 132.247L147.61 126.707L150.44 126.477L151.74 129.507L154.5 129.277L153.2 126.247L154.66 126.127L155.96 129.157L158.72 128.937L157.42 125.907L159.38 125.747L159.16 122.277L157.2 122.437L158.11 119.227L155.35 119.447L154.44 122.657L152.98 122.777L153.89 119.567L151.13 119.787L150.22 122.997L147.38 123.227L151.26 116.997L157.07 118.277L152.54 114.957L154.8 111.327L150.66 112.127L149.31 106.597L148.33 112.577L141.22 113.947L142.48 111.347L145.74 111.667L146.97 109.127L143.71 108.807L144.36 107.467L147.62 107.787L148.85 105.247L145.59 104.927L146.46 103.127L143.39 101.637L142.52 103.437L140.25 101.077L139.02 103.617L141.29 105.977L140.64 107.317L138.37 104.957L137.14 107.497L139.41 109.857L138.15 112.457L134.83 106.027L138.92 101.547L133.75 103.917L131.82 100.167L130.37 104.197L124.96 102.697L129.56 106.467L127.07 113.377L125.49 111.007L127.45 108.297L125.92 105.987L123.97 108.697L123.16 107.477L125.12 104.767L123.59 102.457L121.64 105.167L120.55 103.527L117.69 105.507L118.78 107.147L115.59 107.997L117.12 110.307L117.16 110.297ZM148.86 133.577L140.35 133.347L136.55 127.607L143.41 127.037L148.86 133.577ZM139.39 117.847L147.78 116.217L143.19 123.577L136.33 124.137L139.38 117.837L139.39 117.847ZM133.7 129.577L137.5 135.317L134.56 143.477L130.64 135.877L133.7 129.577ZM127.58 134.397L119.19 136.017L123.78 128.657L130.64 128.087L127.58 134.387V134.397ZM136.32 116.357L133.27 122.657L129.47 116.917L132.41 108.757L136.33 116.357H136.32ZM126.61 118.897L130.41 124.637L123.55 125.207L118.1 118.667L126.61 118.897Z" fill="#BFFFFD"/>
<path d="M164.288 85.5474L160.648 86.3274L164.228 87.0674C164.198 86.5674 164.218 86.0574 164.288 85.5474Z" fill="#BFFFFD"/>
<path d="M173.849 112.927C173.869 112.137 173.899 111.347 173.909 110.567C173.909 110.127 173.909 109.667 173.899 109.217L169.169 112.987L169.709 105.827L173.789 103.247C173.739 101.317 173.719 99.3675 173.749 97.4375L169.379 95.0375L169.079 92.8175C168.859 92.6875 168.589 92.6175 168.259 92.6075C167.339 92.2175 166.589 91.7075 165.999 91.1175L166.299 93.3275L164.229 92.1975L164.629 89.4575L162.619 88.3575L162.219 91.0875L161.159 90.5075L161.559 87.7675L159.549 86.6675L159.149 89.3975L157.719 88.6175L156.379 91.1675L157.809 91.9475L155.799 93.7975L157.809 94.8975L159.819 93.0575L160.879 93.6375L158.869 95.4875L160.879 96.5875L162.889 94.7475L164.949 95.8875L159.589 98.5075L156.119 94.9375L157.829 99.3675L154.709 100.887L157.919 102.217L156.479 106.737L159.729 102.967L165.239 105.257L163.249 106.517L161.129 104.797L159.189 106.027L161.309 107.747L160.289 108.397L158.169 106.677L156.229 107.907L158.349 109.627L156.969 110.497L158.459 112.957L159.839 112.087L160.399 114.797L162.339 113.567L161.779 110.857L162.799 110.207L163.359 112.917L165.299 111.687L164.739 108.977L166.729 107.717L166.269 113.787L161.519 115.067L166.119 115.767L165.849 119.307L168.579 117.127L171.689 120.667L170.119 115.907L173.849 112.937V112.927ZM168.219 103.387L161.709 100.687L168.039 97.5975L173.029 100.347L168.219 103.397V103.387Z" fill="#BFFFFD"/>
<path d="M52.8397 115.478L51.5897 115.158L51.5497 114.588L52.7997 114.908L52.7197 113.828L51.4697 113.508L51.3897 112.398L53.8197 113.858L53.2997 116.158L54.6197 114.338L56.0297 115.188L55.7297 113.568L57.8997 112.978L55.5597 112.658L55.0497 109.878L56.0597 110.348L55.9197 111.638L56.9097 112.088L57.0497 110.798L57.5697 111.038L57.4297 112.328L58.4197 112.778L58.5597 111.488L59.2597 111.808L59.8497 110.578L59.1497 110.258L60.0797 109.338L59.0897 108.888L58.1597 109.808L57.6397 109.568L58.5697 108.648L57.5797 108.198L56.6497 109.118L55.6297 108.648L58.1597 107.268L59.8997 108.828L58.9897 106.818L60.4697 106.008L58.8997 105.488L59.5097 103.338L58.0197 105.188L55.3197 104.288L56.2497 103.638L57.2997 104.378L58.2097 103.748L57.1597 103.008L57.6397 102.678L58.6897 103.418L59.5997 102.788L58.5497 102.048L59.1997 101.598L58.4397 100.498L57.7897 100.948L57.4697 99.6975L56.5597 100.328L56.8797 101.578L56.3997 101.908L56.0797 100.658L55.1697 101.288L55.4897 102.528L54.5597 103.178L54.6697 100.338L56.9297 99.5975L54.6997 99.4075L54.7597 97.7475L53.4897 98.8475L51.9297 97.2875L52.7797 99.4575L50.5997 101.338L50.5197 100.228L51.7097 99.6775L51.6297 98.5875L50.4397 99.1375L50.3997 98.5675L51.5897 98.0175L51.5097 96.9275L50.3197 97.4775L50.2597 96.7075L48.8997 96.8275L48.9597 97.5975L47.7097 97.2775L47.7897 98.3675L49.0497 98.6875L49.0897 99.2575L47.8397 98.9375L47.9197 100.028L49.1697 100.348L49.2497 101.458L46.8197 99.9975L47.3397 97.6975L46.0197 99.5175L44.6097 98.6675L44.9097 100.288L42.7397 100.878L45.0797 101.198L45.5897 103.978L44.5797 103.508L44.7197 102.218L43.7297 101.758L43.5897 103.048L43.0697 102.808L43.2097 101.518L42.2197 101.058L42.0797 102.348L41.3797 102.028L40.7897 103.258L41.4897 103.578L40.5597 104.498L41.5497 104.958L42.4797 104.038L42.9997 104.278L42.0697 105.198L43.0597 105.658L43.9897 104.738L45.0097 105.208L42.4797 106.588L40.7397 105.028L41.6497 107.038L40.1797 107.848L41.7497 108.368L41.1397 110.518L42.6297 108.668L45.3297 109.568L44.3997 110.218L43.3497 109.478L42.4397 110.108L43.4897 110.848L43.0097 111.178L41.9597 110.438L41.0497 111.068L42.0997 111.808L41.4497 112.258L42.2097 113.358L42.8597 112.908L43.1797 114.158L44.0897 113.528L43.7697 112.278L44.2497 111.948L44.5697 113.198L45.4797 112.568L45.1597 111.318L46.0897 110.668L45.9897 113.508L43.7297 114.248L45.9597 114.438L45.8997 116.088L47.1697 114.988L48.7297 116.548L47.8797 114.368L50.0597 112.488L50.1397 113.598L48.9497 114.148L49.0297 115.228L50.2197 114.678L50.2597 115.248L49.0697 115.798L49.1497 116.878L50.3397 116.328L50.3997 117.098L51.7597 116.968L51.6997 116.198L52.9497 116.518L52.8697 115.438L52.8397 115.478ZM46.4797 101.408L49.3397 103.128L49.5297 105.818L47.0797 104.688L46.4797 101.398V101.408ZM46.6897 108.618L43.5097 107.558L46.4997 105.928L48.9497 107.058L46.6897 108.618ZM50.8997 105.698L50.7097 103.008L53.2897 100.788L53.1697 104.138L50.9097 105.708L50.8997 105.698ZM53.9197 105.238L57.0997 106.298L54.1097 107.928L51.6597 106.798L53.9197 105.228V105.238ZM47.4497 109.718L49.7097 108.158L49.8997 110.848L47.3197 113.068L47.4397 109.718H47.4497ZM51.2597 110.718L51.0697 108.028L53.5197 109.158L54.1197 112.448L51.2597 110.728V110.718Z" fill="#BFFFFD"/>
<path d="M106.258 159.397L102.928 158.447L100.438 161.797L98.6884 161.297L101.178 157.947L97.8484 156.997L95.3584 160.347L91.9384 159.367L99.2384 153.797L105.458 157.867L101.628 151.977L105.888 148.727L100.688 147.837L101.558 140.777L97.7684 147.337L88.8484 145.807L91.4784 143.317L95.1484 145.137L97.7084 142.707L94.0384 140.887L95.3884 139.607L99.0584 141.427L101.618 139.007L97.9484 137.187L99.7684 135.467L96.8384 132.367L95.0184 134.087L93.4084 130.327L90.8484 132.747L92.4584 136.507L91.1084 137.787L89.4984 134.027L86.9384 136.457L88.5484 140.217L85.9184 142.707L84.8784 133.717L91.6384 130.287L84.5384 130.767L83.9384 125.527L80.4584 129.597L74.7884 125.447L78.5084 131.877L72.5384 138.857L71.7484 135.387L75.2384 133.087L74.4684 129.707L70.9784 132.007L70.5684 130.227L74.0584 127.927L73.2884 124.547L69.7984 126.847L69.2484 124.447L65.0384 125.497L65.5884 127.897L61.4884 127.487L62.2584 130.867L66.3684 131.277L66.7684 133.057L62.6684 132.647L63.4384 136.027L67.5384 136.437L68.3284 139.907L59.9884 136.487L60.5284 128.997L57.2584 135.367L52.3984 133.377L54.1184 138.337L47.5684 141.257L55.0784 141.137L58.0284 149.647L54.6084 148.667L54.4184 144.547L51.0884 143.587L51.2684 147.707L49.5084 147.197L49.3184 143.077L45.9884 142.117L46.1684 146.237L43.8084 145.557L42.5284 149.707L44.8884 150.387L42.3984 153.737L45.7284 154.697L48.2184 151.347L49.9784 151.857L47.4884 155.207L50.8184 156.167L53.3084 152.817L56.7284 153.797L49.4284 159.367L43.2084 155.307L47.0384 161.197L42.7884 164.447L47.9884 165.337L47.6084 168.427C48.2584 168.177 48.9484 168.007 49.6884 167.957L50.9184 165.837L59.8384 167.367L58.0884 169.017C61.0084 169.207 63.9784 169.107 66.9484 168.927L66.6984 166.737L73.0484 160.727L74.8184 168.477C75.6184 168.457 76.3884 168.577 77.1184 168.817C77.6784 168.117 78.2784 167.437 78.8784 166.767L77.2684 159.687L84.1384 161.657C89.9484 157.647 97.2984 163.377 96.6584 169.317L97.5784 169.577L97.3884 165.457L99.1484 165.957L99.3384 170.077L102.668 171.027L102.488 166.907L104.848 167.587L106.128 163.437L103.768 162.757L106.258 159.407V159.397ZM63.7684 163.627L53.2284 161.817L61.8484 155.237L70.1184 157.607L63.7584 163.617L63.7684 163.627ZM63.1384 151.097L59.6484 141.047L69.4884 145.077L71.3984 153.467L63.1284 151.097H63.1384ZM75.6184 152.417L73.7084 144.027L80.7484 135.787L81.9784 146.407L75.6184 152.427V152.417ZM86.8184 157.887L78.5484 155.517L84.9084 149.497L95.4384 151.307L86.8184 157.887Z" fill="#BFFFFD"/>
<path d="M95.7799 171.978C95.4099 172.638 94.9199 173.278 94.2899 173.888C92.0299 176.078 89.7899 178.178 88.3999 180.918L88.1699 184.148L91.4399 177.778L96.2999 179.768L94.5799 174.808L101.12 171.888L95.7799 171.978Z" fill="#BFFFFD"/>
<path d="M39.1494 132.407L41.8794 132.187L40.5894 129.187L42.5294 129.027L42.3194 125.597L40.3794 125.757L41.2794 122.577L38.5494 122.797L37.6394 125.977L36.1994 126.097L37.0993 122.917L34.3694 123.137L33.4594 126.317L30.6494 126.547L34.4994 120.377L40.2494 121.647L35.7593 118.357L37.9994 114.757L33.8994 115.547L32.5694 110.077L31.5894 115.997L24.5494 117.357L25.7994 114.777L29.0294 115.097L30.2494 112.587L27.0194 112.267L27.6594 110.937L30.8894 111.257L32.1094 108.747L28.8794 108.427L29.7494 106.637L26.7094 105.167L25.8394 106.957L23.5894 104.617L22.3694 107.127L24.6194 109.467L23.9794 110.797L21.7294 108.457L20.5094 110.967L22.7594 113.307L21.5094 115.887L18.2194 109.517L22.2694 105.087L17.1494 107.427L15.2294 103.717L13.7894 107.707L8.42935 106.217L12.9894 109.947L10.5294 116.787L8.96935 114.437L10.9094 111.757L9.38935 109.477L7.44935 112.157L6.64935 110.957L8.58935 108.277L7.06935 105.997L5.12935 108.677L4.04935 107.057L3.31935 107.557C3.71935 108.507 3.94935 109.607 3.92935 110.867C3.91935 111.577 3.88935 112.277 3.85935 112.977L4.61935 114.127L3.77935 114.347C3.71935 115.267 3.64935 116.177 3.56935 117.097L6.12935 116.417L7.68935 118.767L3.41935 118.647C3.29935 119.797 3.16935 120.937 3.02935 122.077L10.0194 122.267L13.7894 127.947L6.99935 128.507L2.84935 123.537C2.64935 125.087 2.44935 126.637 2.24935 128.187L2.79935 128.847L2.14935 128.897C2.00935 129.997 1.86935 131.107 1.74935 132.217C1.74935 132.267 1.74935 132.327 1.73935 132.377L3.01935 132.277L1.53935 134.657C1.22935 138.787 1.27935 142.907 1.37935 147.037L2.06935 142.837L9.10935 141.467L7.85935 144.047L4.62935 143.727L3.40935 146.247L6.63935 146.567L5.99935 147.897L2.76935 147.577L1.54935 150.087L4.77935 150.407L3.91935 152.187L6.95935 153.657L7.81935 151.877L10.0694 154.217L11.2894 151.707L9.03935 149.367L9.67935 148.037L11.9294 150.377L13.1494 147.857L10.8994 145.517L12.1494 142.937L15.4394 149.307L11.3894 153.737L16.5094 151.387L18.4194 155.097L19.8594 151.107L25.2194 152.597L20.6594 148.867L23.1294 142.017L24.6894 144.367L22.7494 147.047L24.2694 149.337L26.2094 146.657L27.0094 147.867L25.0694 150.547L26.5894 152.837L28.5294 150.157L29.6094 151.777L32.4394 149.827L31.3594 148.207L34.5194 147.367L32.9994 145.077L29.8394 145.917L29.0394 144.707L32.1894 143.867L30.6694 141.577L27.5094 142.417L25.9494 140.067L33.0894 140.267L34.7894 145.967L35.4294 140.327L39.5894 140.447L36.9193 137.257L40.9494 133.267L35.4193 135.467L30.8494 129.987L33.6594 129.757L34.9494 132.757L37.6794 132.537L36.3894 129.537L37.8394 129.417L39.1294 132.417L39.1494 132.407ZM22.6894 121.217L30.9994 119.607L26.4594 126.897L19.6694 127.457L22.6894 121.217ZM12.8694 120.297L15.7794 112.217L19.6594 119.747L16.6394 125.987L12.8694 120.307V120.297ZM10.9894 137.607L2.67935 139.217L7.22935 131.927L14.0194 131.367L10.9894 137.607ZM17.9094 146.597L14.0294 139.077L17.0594 132.837L20.8294 138.517L17.9194 146.597H17.9094ZM32.0694 136.797L23.6494 136.567L19.8794 130.887L26.6694 130.327L32.0694 136.797Z" fill="#BFFFFD"/>
<path d="M119.75 215.337L117.18 215.437L116.77 214.367L119.35 214.267L118.58 212.247L116.01 212.347L115.22 210.267L120.68 211.667L120.99 216.357L122.47 212.127L125.65 212.947L124.16 210.027L127.96 207.657L123.32 208.377L120.76 203.357L122.96 203.667L123.43 206.207L125.58 206.507L125.11 203.977L126.24 204.137L126.71 206.677L128.86 206.977L128.39 204.437L129.91 204.657L130.34 201.977L128.82 201.757L130.08 199.467L127.93 199.167L126.67 201.457L125.54 201.297L126.8 199.007L124.65 198.707L123.39 200.997L121.19 200.677L125.23 196.597L129.43 198.587L126.55 195.267L128.91 192.887L125.61 192.787L125.54 188.337L123.75 192.727L118.09 192.547L119.5 190.787L121.93 191.597L123.31 189.877L120.88 189.067L121.61 188.157L124.04 188.967L125.42 187.247L122.99 186.437L123.97 185.217L121.89 183.547L120.91 184.767L119.59 182.577L118.21 184.297L119.53 186.487L118.8 187.397L117.48 185.207L116.1 186.927L117.42 189.117L116.01 190.877L114.6 185.397L118.49 182.697L114.13 183.607L113.31 180.417L111.5 183.237L107.63 181.157L110.48 184.827L107.38 189.667L106.59 187.587L108.55 185.867L107.78 183.837L105.82 185.557L105.42 184.487L107.38 182.767L106.61 180.737L104.65 182.457L104.11 181.017L101.59 182.027L102.14 183.467L99.5595 183.567L100.33 185.597L102.91 185.497L103.31 186.567L100.74 186.667L101.51 188.697L104.09 188.597L104.88 190.677L99.4195 189.277L99.1095 184.587L97.6295 188.817L94.4495 187.997L95.9395 190.917L92.1395 193.287L96.7795 192.567L99.3395 197.587L97.1395 197.277L96.6695 194.747L94.5295 194.437L94.9995 196.977L93.8695 196.817L93.3995 194.287L91.2595 193.977L91.7295 196.517L90.2095 196.297L89.7695 198.977L91.2895 199.197L90.0395 201.487L92.1795 201.797L93.4295 199.507L94.5595 199.667L93.3095 201.957L95.4495 202.267L96.6995 199.977L98.8995 200.297L94.8595 204.377L90.6595 202.397L93.5395 205.717L91.1795 208.097L94.4695 208.207L94.5395 212.657L96.3295 208.267L101.99 208.447L100.58 210.207L98.1495 209.397L96.7695 211.117L99.1995 211.927L98.4695 212.837L96.0395 212.027L94.6595 213.747L97.0895 214.557L96.1095 215.777L98.1895 217.437L99.1695 216.217L100.49 218.407L101.87 216.687L100.55 214.497L101.28 213.587L102.6 215.777L103.98 214.057L102.66 211.867L104.07 210.107L105.49 215.587L101.6 218.287L105.95 217.377L106.77 220.567L108.57 217.747L112.44 219.827L109.59 216.157L112.69 211.327L113.48 213.407L111.52 215.127L112.29 217.147L114.25 215.427L114.65 216.497L112.69 218.227L113.46 220.247L115.42 218.527L115.97 219.967L118.49 218.957L117.94 217.517L120.52 217.417L119.75 215.397V215.337ZM99.6195 192.097L106.06 193.747L107.96 198.777L102.63 198.017L99.6095 192.087L99.6195 192.097ZM104.11 205.737L97.4295 205.527L102.2 200.717L107.53 201.477L104.11 205.747V205.737ZM110.49 197.777L108.59 192.747L112.24 187.037L113.91 193.507L110.49 197.777ZM115.99 195.167L122.67 195.387L117.9 200.197L112.57 199.437L115.99 195.167ZM106.19 207.397L109.61 203.127L111.51 208.157L107.86 213.867L106.19 207.397ZM114.04 207.147L112.14 202.117L117.47 202.877L120.49 208.807L114.05 207.157L114.04 207.147Z" fill="#BFFFFD"/>
<path d="M167.629 160.738L169.199 162.368C169.969 161.848 170.749 161.348 171.539 160.858L170.309 159.578L167.629 160.738Z" fill="#BFFFFD"/>
<path d="M167.639 146.697L170.509 144.787L171.779 145.707L168.909 147.617L171.309 149.367L174.179 147.457L174.379 147.597C174.319 146.717 174.259 145.857 174.209 145.037C174.159 144.147 174.089 143.257 174.019 142.357L173.889 142.807L172.619 141.887L173.559 138.567L171.159 136.817L170.219 140.137L168.509 138.897L166.389 141.797L168.099 143.037L165.229 144.947L167.629 146.697H167.639Z" fill="#BFFFFD"/>
<path d="M174.779 156.347L171.709 154.577L174.729 153.647C174.679 152.387 174.619 151.127 174.529 149.887L169.349 151.477L165.469 146.407L166.959 152.217L162.709 153.527L166.619 155.787L164.049 161.117L168.819 157.047L173.369 159.677C173.829 159.367 174.279 159.047 174.719 158.727C174.759 157.937 174.779 157.147 174.779 156.347Z" fill="#BFFFFD"/>
<path d="M166.749 164.168C167.159 163.828 167.589 163.518 168.009 163.208L166.219 161.348L163.539 162.508L165.929 164.988C166.169 164.698 166.439 164.418 166.749 164.168Z" fill="#BFFFFD"/>
<path d="M139.539 185.077L138.329 183.707L138.739 183.007L139.949 184.377L140.719 183.047L139.509 181.677L140.299 180.307L141.979 183.937L139.539 186.217L142.529 185.137L143.509 187.257L144.449 185.127L147.459 186.157L144.979 183.927L146.589 180.267L147.399 181.617L146.209 183.017L147.009 184.337L148.189 182.937L148.609 183.627L147.419 185.027L148.219 186.347L149.409 184.947L149.969 185.887L151.639 184.927L151.079 183.987L152.899 183.647L152.099 182.327L150.279 182.667L149.859 181.977L151.679 181.637L150.879 180.317L149.059 180.657L148.249 179.307L152.309 179.697L153.099 182.897L153.639 179.827L156.009 180.057L154.589 178.197L157.009 176.167L153.789 177.157L151.349 173.957H152.959L153.599 175.647H155.169L154.529 173.937H155.359L155.999 175.627H157.559L156.919 173.917H158.029L158.009 172.017H156.899L157.509 170.317H155.949L155.339 172.047H154.509L155.119 170.347H153.549L152.939 172.077H151.329L153.709 168.857L156.939 169.787L154.489 167.797L155.879 165.907L153.519 166.177L152.929 163.117L152.189 166.337L148.139 166.807L148.929 165.437L150.759 165.747L151.529 164.417L149.699 164.107L150.109 163.407L151.939 163.717L152.709 162.387L150.879 162.077L151.429 161.137L149.739 160.207L149.189 161.157L147.979 159.787L147.209 161.117L148.419 162.497L148.009 163.197L146.799 161.827L146.029 163.157L147.239 164.527L146.449 165.897L144.769 162.267L147.209 159.987L144.219 161.067L143.239 158.947L142.299 161.077L139.289 160.047L141.769 162.277L140.159 165.937L139.349 164.587L140.529 163.187L139.739 161.867L138.549 163.267L138.129 162.567L139.309 161.167L138.519 159.847L137.329 161.247L136.769 160.307L135.099 161.267L135.659 162.207L133.839 162.547L134.629 163.867L136.449 163.527L136.869 164.227L135.049 164.567L135.839 165.887L137.659 165.547L138.469 166.897L134.409 166.507L133.609 163.307L133.079 166.377L130.709 166.147L132.129 168.007L129.709 170.037L132.929 169.047L135.369 172.247H133.759L133.119 170.557H131.549L132.189 172.267H131.359L130.719 170.577H129.159L129.799 172.287H128.689L128.709 174.187H129.819L129.209 175.887H130.769L131.379 174.157H132.209L131.599 175.857H133.169L133.779 174.127H135.389L133.009 177.347L129.779 176.417L132.229 178.407L130.839 180.297L133.199 180.027L133.789 183.087L134.529 179.867L138.579 179.397L137.789 180.767L135.959 180.457L135.189 181.787L137.019 182.087L136.609 182.787L134.779 182.487L134.009 183.817L135.839 184.117L135.289 185.067L136.979 185.997L137.529 185.047L138.739 186.417L139.509 185.087L139.539 185.077ZM143.289 163.567L145.269 167.857L143.359 171.167L141.389 167.897L143.299 163.577L143.289 163.567ZM137.799 172.157L134.919 168.387L139.709 168.857L141.679 172.127L137.789 172.157H137.799ZM145.049 172.087L146.959 168.777L151.739 168.227L148.929 172.047L145.039 172.077L145.049 172.087ZM148.949 173.947L151.829 177.717L147.039 177.247L145.069 173.977L148.959 173.947H148.949ZM137.819 174.047L141.709 174.017L139.799 177.327L135.019 177.877L137.829 174.057L137.819 174.047ZM141.479 178.257L143.389 174.947L145.359 178.217L143.449 182.537L141.469 178.247L141.479 178.257Z" fill="#BFFFFD"/>
<path d="M31.3588 167.158L31.7988 166.258L28.7288 165.938L29.5588 164.248L26.6788 162.828L25.8488 164.518L23.7188 162.288L22.5488 164.668L24.3488 166.548C26.7288 166.538 29.0788 166.638 31.3588 167.148V167.158Z" fill="#BFFFFD"/>
<path d="M17.5691 164.928L15.7591 161.388L14.3791 165.178L9.86914 163.908C9.91914 163.938 9.96914 163.958 10.0191 163.988C10.9191 164.518 11.7991 165.178 12.4991 165.958C12.9291 166.448 13.2591 166.848 13.5191 167.238L13.5991 167.308V167.338C13.9991 167.948 14.2691 168.528 14.5991 169.288C15.5791 168.108 16.9291 167.208 18.6691 166.828L22.4591 162.708L17.5691 164.918V164.928Z" fill="#BFFFFD"/>
<path d="M30.4597 87.7277L31.1597 85.8777L29.6997 87.3977L27.3897 86.3977L28.2597 85.8977L29.1297 86.6277L29.9797 86.1377L29.3397 85.5977C28.0697 85.6277 26.8097 85.6377 25.5397 85.6477L25.4797 86.1077L23.3597 87.3177L23.3797 85.6777C22.9797 85.6777 22.5697 85.6877 22.1697 85.6877L22.1497 87.3177L20.0697 86.1277L20.0297 85.6877C18.7497 85.6877 17.4697 85.6877 16.1897 85.6877L15.5697 86.1977L16.4097 86.6777L17.2997 85.9377L18.1597 86.4277L15.8197 87.4577L14.3997 85.9477L15.0497 87.7977L13.6797 88.3977L15.0297 88.9777L14.3297 90.8277L15.7897 89.3077L18.0997 90.3077L17.2297 90.8077L16.3597 90.0777L15.5097 90.5677L16.3797 91.2977L15.9297 91.5577L15.0597 90.8277L14.2097 91.3177L15.0797 92.0477L14.4797 92.3977L15.0697 93.4277L15.6697 93.0777L15.8597 94.1977L16.7097 93.7077L16.5197 92.5877L16.9697 92.3277L17.1597 93.4477L18.0097 92.9577L17.8197 91.8377L18.6897 91.3377L18.3797 93.8377L16.3297 94.3177L18.2797 94.6577L18.0997 96.1177L19.3097 95.2477L20.5697 96.7477L19.9897 94.7577L22.0597 93.2577V94.2477L20.9497 94.6377V95.6077L22.0297 95.2177V95.7277L20.9297 96.1177V97.0877L22.0097 96.6977V97.3777H23.2097V96.6977L24.2997 97.0777V96.1077L23.2297 95.7277V95.2177L24.3197 95.5977V94.6377L23.2497 94.2577V93.2677L25.2997 94.7377L24.6597 96.7277L25.9597 95.2177L27.1397 96.0777L26.9997 94.6177L28.9597 94.2577L26.9197 93.7977L26.6797 91.2977L27.5397 91.7877L27.3197 92.9177L28.1597 93.3977L28.3797 92.2677L28.8197 92.5177L28.5997 93.6477L29.4397 94.1277L29.6597 92.9977L30.2497 93.3377L30.8697 92.2977L30.2697 91.9577L31.1597 91.2177L30.3197 90.7377L29.4297 91.4777L28.9897 91.2277L29.8797 90.4877L29.0397 90.0077L28.1497 90.7477L27.2897 90.2577L29.6297 89.2277L31.0497 90.7377L30.3997 88.8877L31.7597 88.2877L30.4097 87.7077L30.4597 87.7277ZM16.6997 88.3977L19.4697 87.1877L21.5497 88.3777L19.4297 89.5877L16.6997 88.4077V88.3977ZM22.0997 91.7977L19.6497 93.5677L20.0197 90.6177L22.1397 89.4077L22.1097 91.8077L22.0997 91.7977ZM23.3097 91.7877L23.3397 89.3877L25.4197 90.5777L25.6997 93.5277L23.2997 91.7877H23.3097ZM26.0497 89.5377L23.9697 88.3477L26.0897 87.1377L28.8197 88.3177L26.0497 89.5277V89.5377Z" fill="#BFFFFD"/>
<path d="M175.429 192.237L173.279 190.417L175.159 194.157C175.179 193.497 175.279 192.857 175.429 192.237Z" fill="#BFFFFD"/>
<path d="M174.12 228.887L173.9 227.607L174.1 227.677C174.06 226.067 173.99 224.467 173.87 222.867C173.77 221.477 173.65 220.127 173.61 218.767L172.54 219.617L170.96 210.377L172.1 209.237C170.98 207.607 170.65 205.607 170.96 203.687L169.98 204.667L169.33 200.847L173.28 198.717L172.65 194.997L168.69 197.127L168.36 195.157L172.31 193.027L171.68 189.307L167.72 191.437L167.27 188.797L162.59 189.497L163.04 192.137L158.57 191.277L159.2 194.997L163.67 195.857L164 197.817L159.53 196.957L160.16 200.677L164.63 201.537L165.28 205.367L156.36 200.837L157.41 192.807L153.44 199.357L148.24 196.717L149.82 202.247L142.48 204.727L150.71 205.357L153.42 214.847L149.74 213.447L149.79 208.987L146.2 207.617L146.15 212.077L144.25 211.357L144.3 206.897L140.71 205.527L140.66 209.987L138.11 209.017L136.46 213.357L139.01 214.327L136.07 217.687L139.66 219.057L142.6 215.697L144.5 216.417L141.56 219.777L145.15 221.147L148.09 217.787L151.77 219.187L143.43 224.457L136.87 219.437L140.7 226.177L135.84 229.247L141.48 230.737L140.09 238.267L144.66 231.577L154.34 234.137L151.31 236.557L147.4 234.217L144.45 236.567L148.36 238.897L146.8 240.137L142.89 237.807L139.94 240.157L143.85 242.487L141.75 244.157L144.77 247.797L146.87 246.127L148.41 250.357L151.36 248.007L149.83 243.787L151.39 242.537L152.93 246.757L155.88 244.407L154.35 240.187L157.38 237.767L157.97 247.577L150.35 250.597L158.16 250.797L158.27 252.577C159.47 251.727 161.03 251.237 162.94 251.317C163.2 251.327 163.48 251.357 163.78 251.387C165.46 249.557 166.56 247.447 168.34 245.587C169.99 243.867 172.13 242.707 174.04 241.307C174.09 237.177 174.2 233.027 174.14 228.887H174.12ZM166.28 211.077L167.86 220.327L158.95 216.927L155.74 205.727L166.28 211.087V211.077ZM147.44 227.497L157.29 221.267L166.2 224.667L158.86 230.507L147.43 227.487L147.44 227.497ZM162.58 245.737L161.89 234.157L169.23 228.317L170.81 237.557L162.58 245.737Z" fill="#BFFFFD"/>
<path d="M91.2888 247.707C94.5888 249.087 97.4188 252.677 100.929 253.407C101.179 253.457 101.429 253.497 101.669 253.537L96.9188 249.057L103.929 248.407L107.619 252.747L102.929 253.707C109.039 254.317 114.519 252.067 120.749 252.127C121.639 252.127 122.439 252.277 123.169 252.497L124.299 252.267L124.889 253.277C125.099 253.407 125.309 253.527 125.509 253.677C126.149 253.507 126.819 253.427 127.489 253.417L126.559 251.807L127.749 251.567L128.869 253.497C129.259 253.547 129.649 253.637 130.029 253.737L131.359 253.467L129.989 251.107L131.579 250.777L131.059 247.947L129.459 248.277L129.889 245.547L127.639 246.007L127.209 248.737L126.029 248.977L126.459 246.247L124.209 246.707L123.779 249.437L121.469 249.907L124.039 244.397L128.939 244.877L124.889 242.597L126.389 239.387L123.069 240.457L121.419 236.047L121.199 241.057L115.499 242.887L116.279 240.627L118.989 240.567L119.749 238.357L117.039 238.417L117.439 237.247L120.149 237.187L120.909 234.977L118.199 235.037L118.739 233.467L116.069 232.547L115.529 234.117L113.429 232.407L112.669 234.617L114.769 236.327L114.369 237.497L112.269 235.787L111.509 237.997L113.609 239.707L112.829 241.967L109.459 237.007L112.369 232.927L108.349 235.387L106.389 232.497L105.599 235.947L100.999 235.247L105.149 237.887L103.789 243.807L102.259 242.017L103.599 239.597L102.109 237.857L100.769 240.277L99.9888 239.357L101.329 236.937L99.8388 235.197L98.4988 237.617L97.4388 236.377L95.2888 238.287L96.3488 239.527L93.8188 240.547L95.3088 242.287L97.8388 241.277L98.6288 242.197L96.0988 243.217L97.5888 244.957L100.119 243.947L101.649 245.737L95.7088 246.287L93.7288 241.727L93.7588 246.467L90.2988 246.787L91.2888 247.717V247.707ZM114.329 246.267L121.069 244.097L118.029 250.597L112.449 251.737L114.339 246.257L114.329 246.267ZM107.679 239.497L111.649 245.357L109.759 250.837L106.069 246.497L107.679 239.497Z" fill="#BFFFFD"/>
<path d="M0.07 156.977L1.07 159.207L11.61 169.417L14.02 170.377L76.21 170.447L78.61 169.467L87.47 160.887L96.32 169.487L86.89 178.637L85.89 180.867L85.95 241.377L86.93 243.617L97.48 253.837L99.88 254.797L161.96 254.907L164.67 253.797L174.96 243.817L176.03 241.257L175.98 210.587L175.96 206.137C174.95 206.957 173.44 206.917 172.49 205.987C171.48 205.007 171.48 203.417 172.49 202.447C173.44 201.527 174.94 201.487 175.95 202.307L175.93 197.857L175.91 181.087L174.86 178.677L165.47 169.557L174.72 160.567L175.86 157.937L175.75 97.667L174.76 95.337L165.22 86.057L174.29 77.237L175.3 74.907L175.23 14.527L174.24 12.187L163.72 1.95699L161.42 0.986992L99.1 0.916992L96.79 1.85699L86.28 12.077L85.3 14.407L85.32 74.677L86.46 77.307L95.86 86.437L88.44 93.657L78.69 84.197L75.98 83.087L13.9 83.067L11.5 84.017L0.97 94.217L0 96.457L0.07 156.967V156.977ZM171.7 181.057L172.09 181.947V197.867C171.12 198.187 170.19 198.717 169.42 199.477C166.73 202.087 166.74 206.327 169.42 208.947C170.21 209.717 171.15 210.257 172.15 210.577L172.2 240.437L171.78 241.447L162.71 250.247L161.59 250.707L101.23 250.597L100.42 250.267L91.08 241.217L90.77 240.517L90.71 181.727L91.02 181.027L100.87 171.487L117.62 171.507C117.94 172.477 118.51 173.397 119.3 174.167C121.99 176.777 126.37 176.787 129.05 174.167C129.83 173.407 130.39 172.497 130.72 171.537L161.66 171.587L161.63 171.717L162.45 172.057L171.71 181.047L171.7 181.057ZM122.32 167.667C123.32 166.697 124.97 166.697 125.97 167.667C126.97 168.637 126.98 170.237 125.97 171.207C124.96 172.177 123.32 172.177 122.32 171.207C121.32 170.237 121.31 168.637 122.32 167.667ZM90.61 74.927L90.13 73.827L90.11 15.227L90.44 14.437L99.74 5.39699L100.46 5.10699L161 5.17699L161.72 5.47699L171.05 14.557L171.39 15.357L171.46 74.067L171.12 74.857L161.89 83.827L160.98 84.197H144.66V84.427C144.35 83.377 143.76 82.387 142.92 81.557C140.23 78.947 135.85 78.937 133.17 81.557C132.39 82.317 131.82 83.227 131.5 84.197L100.76 84.177L99.72 83.757L90.63 74.927H90.62H90.61ZM139.87 88.067C138.87 89.037 137.22 89.037 136.22 88.067C135.22 87.097 135.21 85.497 136.22 84.527C137.23 83.557 138.86 83.557 139.87 84.527C140.88 85.497 140.88 87.097 139.87 88.067ZM90.63 98.427L100.89 88.367L131.5 88.387C131.83 89.347 132.39 90.257 133.18 91.017C135.87 93.627 140.25 93.637 142.93 91.017C143.77 90.197 144.36 89.207 144.67 88.157V88.377H161.87L161.96 88.347L171.59 97.707L171.93 98.497L172.04 157.087L171.57 158.177L162.51 166.987L161.47 167.397L130.72 167.347C130.39 166.377 129.83 165.467 129.04 164.697C126.35 162.087 121.97 162.087 119.29 164.697C118.51 165.457 117.95 166.357 117.62 167.307L101.22 167.287L100.3 166.917L90.57 156.997L90.6 156.907V140.137C91.59 139.827 92.53 139.277 93.32 138.517C96.01 135.907 96.01 131.667 93.32 129.047C92.54 128.287 91.6 127.737 90.6 127.417L90.58 98.367L90.63 98.417V98.427ZM90.26 132.017C91.27 132.997 91.27 134.587 90.26 135.557C89.25 136.527 87.61 136.527 86.61 135.557C85.61 134.577 85.6 132.987 86.61 132.017C87.61 131.037 89.26 131.047 90.26 132.017ZM5.13 96.607L14.44 87.577L15.25 87.257L75.6 87.277L76.73 87.747L85.83 96.577L86.25 97.587L86.27 127.437C85.28 127.747 84.34 128.297 83.55 129.057C80.86 131.667 80.87 135.917 83.55 138.527C84.33 139.287 85.27 139.837 86.27 140.147V156.067L85.89 156.947L76.65 165.907L75.84 166.237L15.37 166.167L14.55 165.837L5.2 156.777L4.88 156.077L4.81 97.297L5.12 96.597H5.13V96.607Z" fill="#4AA5DC"/>
<path d="M106.49 237.447C109.18 240.057 113.56 240.057 116.24 237.447C117.02 236.687 117.59 235.777 117.91 234.807L133.37 234.827C133.7 235.787 134.26 236.697 135.05 237.467C137.74 240.077 142.12 240.077 144.8 237.467C147.49 234.857 147.48 230.607 144.8 227.997C142.11 225.387 137.73 225.387 135.05 227.997C134.27 228.757 133.7 229.667 133.38 230.637L117.93 230.617C117.6 229.657 117.04 228.747 116.25 227.977C113.56 225.367 109.18 225.367 106.5 227.977C103.82 230.587 103.82 234.837 106.5 237.447H106.49ZM138.08 230.967C139.08 229.997 140.73 229.997 141.73 230.967C142.73 231.937 142.74 233.537 141.73 234.507C140.72 235.477 139.08 235.477 138.08 234.507C137.08 233.537 137.07 231.937 138.08 230.967ZM109.53 230.937C110.53 229.967 112.18 229.967 113.18 230.937C114.19 231.917 114.19 233.507 113.18 234.477C112.18 235.447 110.53 235.447 109.53 234.477C108.53 233.507 108.52 231.907 109.53 230.937Z" fill="#4AA5DC"/>
<path d="M20.5 106.547C23.19 109.157 27.57 109.167 30.25 106.547C31.03 105.787 31.6 104.877 31.92 103.907L47.38 103.927C47.7 104.897 48.27 105.797 49.06 106.567C51.75 109.177 56.13 109.177 58.81 106.567C61.5 103.957 61.49 99.7172 58.81 97.0972C56.12 94.4872 51.74 94.4872 49.06 97.0972C48.28 97.8572 47.71 98.7672 47.39 99.7272L31.94 99.7072C31.61 98.7472 31.05 97.8372 30.26 97.0672C27.57 94.4572 23.19 94.4472 20.51 97.0672C17.83 99.6772 17.83 103.927 20.51 106.537H20.5V106.547ZM52.09 100.077C53.09 99.1072 54.74 99.1072 55.74 100.077C56.74 101.047 56.75 102.647 55.74 103.617C54.74 104.587 53.1 104.587 52.09 103.617C51.08 102.637 51.08 101.047 52.09 100.077ZM23.53 100.037C24.53 99.0672 26.17 99.0672 27.18 100.037C28.19 101.007 28.19 102.607 27.18 103.577C26.18 104.547 24.53 104.547 23.53 103.577C22.53 102.607 22.52 101.007 23.53 100.037Z" fill="#4AA5DC"/>
<path d="M106.5 121.977C109.19 124.587 113.57 124.587 116.25 121.977C118.94 119.367 118.94 115.127 116.25 112.507C115.45 111.727 114.49 111.177 113.48 110.867V105.167H118.99C119.29 106.267 119.89 107.297 120.76 108.157C123.45 110.767 127.83 110.767 130.51 108.157C133.19 105.557 133.19 101.307 130.51 98.687C127.82 96.077 123.44 96.077 120.76 98.687C120.06 99.367 119.55 100.137 119.22 100.977H109.17V110.907C108.2 111.227 107.28 111.767 106.51 112.517C103.82 115.117 103.83 119.367 106.51 121.987H106.5V121.977ZM123.8 101.647C124.8 100.677 126.45 100.677 127.45 101.647C128.46 102.627 128.46 104.217 127.45 105.187C126.45 106.157 124.81 106.157 123.8 105.187C122.79 104.217 122.79 102.617 123.8 101.647ZM109.55 115.477C110.55 114.507 112.2 114.507 113.2 115.477C114.2 116.447 114.21 118.047 113.2 119.017C112.19 119.987 110.55 119.987 109.55 119.017C108.55 118.047 108.54 116.447 109.55 115.477Z" fill="#4AA5DC"/>
<path d="M134.039 28.5771C136.729 31.1771 141.109 31.1771 143.789 28.5771C144.589 27.7971 145.159 26.8671 145.479 25.8871H151.359V31.2371C150.229 31.5271 149.169 32.1071 148.279 32.9671C145.589 35.5771 145.579 39.8271 148.279 42.4371C150.969 45.0371 155.349 45.0371 158.029 42.4371C160.719 39.8271 160.729 35.5771 158.029 32.9671C157.339 32.2971 156.539 31.7971 155.669 31.4771V21.7071H145.439C145.109 20.7671 144.559 19.8771 143.779 19.1271C141.089 16.5171 136.729 16.5271 134.029 19.1271C131.339 21.7371 131.339 25.9871 134.029 28.5971V28.5771H134.039ZM154.989 35.9071C155.989 36.8771 155.989 38.4771 154.989 39.4471C153.989 40.4171 152.339 40.4271 151.339 39.4471C150.339 38.4771 150.339 36.8871 151.339 35.9071C152.339 34.9271 153.989 34.9271 154.989 35.9071ZM137.099 22.0671C138.109 21.0871 139.749 21.0871 140.749 22.0671C141.749 23.0471 141.749 24.6371 140.749 25.6071C139.749 26.5771 138.099 26.5871 137.099 25.6071C136.099 24.6271 136.099 23.0371 137.099 22.0671Z" fill="#4AA5DC"/>
<rect x="96.0039" y="8.90723" width="70" height="27" rx="9" fill="#D9D9D9"/>
<path d="M99.1326 31.9072V29.3872L105.613 23.2672C106.125 22.8032 106.501 22.3872 106.741 22.0192C106.981 21.6512 107.141 21.3152 107.221 21.0112C107.317 20.7072 107.365 20.4272 107.365 20.1712C107.365 19.4992 107.133 18.9872 106.669 18.6352C106.221 18.2672 105.557 18.0832 104.677 18.0832C103.973 18.0832 103.317 18.2192 102.709 18.4912C102.117 18.7632 101.613 19.1872 101.197 19.7632L98.3646 17.9392C99.0046 16.9792 99.9006 16.2192 101.053 15.6592C102.205 15.0992 103.533 14.8192 105.037 14.8192C106.285 14.8192 107.373 15.0272 108.301 15.4432C109.245 15.8432 109.973 16.4112 110.485 17.1472C111.013 17.8832 111.277 18.7632 111.277 19.7872C111.277 20.3312 111.205 20.8752 111.061 21.4192C110.933 21.9472 110.661 22.5072 110.245 23.0992C109.845 23.6912 109.253 24.3552 108.469 25.0912L103.093 30.1552L102.349 28.7392H111.829V31.9072H99.1326ZM120.633 32.1952C119.257 32.1952 118.025 31.8592 116.937 31.1872C115.849 30.4992 114.993 29.5072 114.369 28.2112C113.745 26.9152 113.433 25.3472 113.433 23.5072C113.433 21.6672 113.745 20.0992 114.369 18.8032C114.993 17.5072 115.849 16.5232 116.937 15.8512C118.025 15.1632 119.257 14.8192 120.633 14.8192C122.025 14.8192 123.257 15.1632 124.329 15.8512C125.417 16.5232 126.273 17.5072 126.897 18.8032C127.521 20.0992 127.833 21.6672 127.833 23.5072C127.833 25.3472 127.521 26.9152 126.897 28.2112C126.273 29.5072 125.417 30.4992 124.329 31.1872C123.257 31.8592 122.025 32.1952 120.633 32.1952ZM120.633 28.9072C121.289 28.9072 121.857 28.7232 122.337 28.3552C122.833 27.9872 123.217 27.4032 123.489 26.6032C123.777 25.8032 123.921 24.7712 123.921 23.5072C123.921 22.2432 123.777 21.2112 123.489 20.4112C123.217 19.6112 122.833 19.0272 122.337 18.6592C121.857 18.2912 121.289 18.1072 120.633 18.1072C119.993 18.1072 119.425 18.2912 118.929 18.6592C118.449 19.0272 118.065 19.6112 117.777 20.4112C117.505 21.2112 117.369 22.2432 117.369 23.5072C117.369 24.7712 117.505 25.8032 117.777 26.6032C118.065 27.4032 118.449 27.9872 118.929 28.3552C119.425 28.7232 119.993 28.9072 120.633 28.9072ZM132.22 31.9072V16.5472L133.9 18.2272H128.86V15.1072H136.108V31.9072H132.22ZM141.715 31.9072L148.483 16.5952L149.491 18.2752H140.443L142.171 16.4512V21.0112H138.715V15.1072H152.179V17.6272L145.939 31.9072H141.715ZM154.923 31.9072L152.983 26.5272H154.453L156.063 31.1572H155.363L157.043 26.5272H158.363L159.993 31.1572H159.293L160.953 26.5272H162.333L160.383 31.9072H158.873L157.443 27.9372H157.903L156.423 31.9072H154.923Z" fill="#171B48"/>
</svg>
