<svg width="265" height="179" viewBox="0 0 265 179" fill="none" xmlns="http://www.w3.org/2000/svg">
<path d="M88.9361 167.212C88.6145 170.528 85.6537 172.947 82.3407 172.601L81.6812 172.532L75.2091 172.482L68.6872 172.631L62.2151 173.428L55.6933 173.478L49.1714 172.98L43.1327 172.933C42.8442 172.931 42.5558 172.95 42.2699 172.989L36.9714 173.717C36.4444 173.79 35.9101 173.792 35.3826 173.723L29.6556 172.98L23.1337 172.631L16.6118 172.383L10.0899 172.831C6.78734 172.721 4.22354 169.907 4.4144 166.608L4.36928 160.697C4.36618 160.291 4.32183 159.886 4.23691 159.489L3.0837 154.094C3.00847 153.742 2.96506 153.384 2.95399 153.024L2.79538 147.87C2.77952 147.354 2.83021 146.839 2.94621 146.336L4.11137 141.287C4.21349 140.845 4.26504 140.392 4.26504 139.938V134.1L4.01612 127.578L3.56357 121.65C3.53344 121.256 3.54243 120.859 3.59042 120.466L4.22004 115.311C4.28297 114.796 4.27878 114.275 4.2076 113.761L3.41869 108.064L3.36891 101.542L3.91755 95.5074C3.95 95.1506 3.94799 94.7914 3.91156 94.4349C3.57047 91.0973 6.23062 88.2155 9.58478 88.289L10.0899 88.3L16.1077 89.1795C16.4101 89.2237 16.7155 89.2447 17.0211 89.2424L23.0839 89.1961L29.556 88.7481L35.4899 87.8422C35.8809 87.7825 36.2769 87.7616 36.672 87.7799L42.5499 88.0511L49.0718 88.0014L55.5937 88.0511L62.1156 88.3L68.5877 88.2503L75.1095 88.1009L81.2181 88.0546C81.5264 88.0523 81.8344 88.0737 82.1393 88.1187L83.0434 88.2521C85.8027 88.6592 87.9176 90.914 88.1473 93.6936L88.2529 94.9709L88.6552 100.827C88.6856 101.269 88.6669 101.713 88.5996 102.151L87.7052 107.964L87.3825 114.003C87.3653 114.324 87.374 114.646 87.4084 114.966L88.0537 120.957L88.6014 127.479L88.7507 133.951L88.6128 139.974C88.6052 140.305 88.5701 140.636 88.508 140.961L87.4935 146.277C87.4026 146.753 87.3698 147.238 87.3957 147.722L87.7052 153.515L88.2031 160.036L88.9199 165.905C88.9729 166.339 88.9783 166.777 88.9361 167.212Z" fill="#329777" stroke="#FFFBDB" stroke-width="5"/>
<path d="M88.9361 167.212C88.6145 170.528 85.6537 172.947 82.3407 172.601L81.6812 172.532L75.2091 172.482L68.6872 172.631L62.2151 173.428L55.6933 173.478L49.1714 172.98L43.1327 172.933C42.8442 172.931 42.5558 172.95 42.2699 172.989L36.9714 173.717C36.4444 173.79 35.9101 173.792 35.3826 173.723L29.6556 172.98L23.1337 172.631L16.6118 172.383L10.0899 172.831C6.78734 172.721 4.22354 169.907 4.4144 166.608L4.36928 160.697C4.36618 160.291 4.32183 159.886 4.23691 159.489L3.0837 154.094C3.00847 153.742 2.96506 153.384 2.95399 153.024L2.79538 147.87C2.77952 147.354 2.83021 146.839 2.94621 146.336L4.11137 141.287C4.21349 140.845 4.26504 140.392 4.26504 139.938V134.1L4.01612 127.578L3.56357 121.65C3.53344 121.256 3.54243 120.859 3.59042 120.466L4.22004 115.311C4.28297 114.796 4.27878 114.275 4.2076 113.761L3.41869 108.064L3.36891 101.542L3.91755 95.5074C3.95 95.1506 3.94799 94.7914 3.91156 94.4349C3.57047 91.0973 6.23062 88.2155 9.58478 88.289L10.0899 88.3L16.1077 89.1795C16.4101 89.2237 16.7155 89.2447 17.0211 89.2424L23.0839 89.1961L29.556 88.7481L35.4899 87.8422C35.8809 87.7825 36.2769 87.7616 36.672 87.7799L42.5499 88.0511L49.0718 88.0014L55.5937 88.0511L62.1156 88.3L68.5877 88.2503L75.1095 88.1009L81.2181 88.0546C81.5264 88.0523 81.8344 88.0737 82.1393 88.1187L83.0434 88.2521C85.8027 88.6592 87.9176 90.914 88.1473 93.6936L88.2529 94.9709L88.6552 100.827C88.6856 101.269 88.6669 101.713 88.5996 102.151L87.7052 107.964L87.3825 114.003C87.3653 114.324 87.374 114.646 87.4084 114.966L88.0537 120.957L88.6014 127.479L88.7507 133.951L88.6128 139.974C88.6052 140.305 88.5701 140.636 88.508 140.961L87.4935 146.277C87.4026 146.753 87.3698 147.238 87.3957 147.722L87.7052 153.515L88.2031 160.036L88.9199 165.905C88.9729 166.339 88.9783 166.777 88.9361 167.212Z" fill="#329777" stroke="#FFFBDB" stroke-width="5" stroke-linecap="round" stroke-linejoin="round"/>
<path d="M175.475 169.273C175.154 172.588 172.193 175.007 168.88 174.661L168.22 174.592L161.748 174.543L155.226 174.692L148.754 175.489L142.232 175.538L135.71 175.04L129.672 174.994C129.383 174.992 129.095 175.01 128.809 175.05L123.51 175.778C122.984 175.85 122.449 175.852 121.922 175.784L116.195 175.04L109.673 174.692L103.151 174.443L96.629 174.891C93.3264 174.782 90.7626 171.967 90.9535 168.668L90.9083 162.758C90.9052 162.352 90.8609 161.947 90.776 161.549L89.6228 156.154C89.5475 155.802 89.5041 155.444 89.4931 155.085L89.3344 149.93C89.3186 149.415 89.3693 148.899 89.4853 148.396L90.6504 143.348C90.7526 142.905 90.8041 142.453 90.8041 141.999V136.16L90.5552 129.639L90.1026 123.711C90.0725 123.316 90.0815 122.92 90.1295 122.527L90.7591 117.372C90.822 116.857 90.8178 116.336 90.7467 115.822L89.9578 110.124L89.908 103.603L90.4566 97.568C90.4891 97.2111 90.4871 96.852 90.4506 96.4955C90.1095 93.1579 92.7697 90.2761 96.1238 90.3495L96.629 90.3606L102.647 91.2401C102.949 91.2843 103.255 91.3053 103.56 91.303L109.623 91.2567L116.095 90.8086L122.029 89.9027C122.42 89.8431 122.816 89.8222 123.211 89.8404L129.089 90.1117L135.611 90.0619L142.133 90.1117L148.655 90.3606L155.127 90.3108L161.649 90.1615L167.757 90.1152C168.065 90.1129 168.373 90.1343 168.678 90.1793L169.582 90.3127C172.342 90.7197 174.457 92.9745 174.686 95.7542L174.792 97.0314L175.194 102.888C175.225 103.33 175.206 103.774 175.139 104.212L174.244 110.025L173.922 116.064C173.904 116.385 173.913 116.707 173.948 117.026L174.593 123.018L175.14 129.539L175.29 136.011L175.152 142.034C175.144 142.366 175.109 142.696 175.047 143.022L174.033 148.338C173.942 148.813 173.909 149.299 173.935 149.782L174.244 155.576L174.742 162.097L175.459 167.966C175.512 168.4 175.517 168.838 175.475 169.273Z" fill="#329777" stroke="#FFFBDB" stroke-width="5" stroke-linecap="round" stroke-linejoin="round"/>
<path d="M174.446 82.7382C174.124 86.0537 171.163 88.4728 167.85 88.1267L167.191 88.0578L160.719 88.008L154.197 88.1573L147.725 88.9538L141.203 89.0036L134.681 88.5058L128.643 88.4594C128.354 88.4571 128.066 88.4757 127.78 88.515L122.481 89.243C121.954 89.3154 121.42 89.3174 120.892 89.249L115.165 88.5058L108.643 88.1573L102.122 87.9084L95.5997 88.3565C92.2971 88.2473 89.7333 85.4325 89.9242 82.1337L89.879 76.2231C89.8759 75.8168 89.8316 75.412 89.7467 75.0147L88.5935 69.6196C88.5182 69.2677 88.4748 68.9097 88.4638 68.55L88.3051 63.3956C88.2893 62.88 88.34 62.3645 88.456 61.8618L89.6211 56.8131C89.7233 56.3706 89.7748 55.918 89.7748 55.4639V49.6257L89.5259 43.1042L89.0733 37.1762C89.0432 36.7815 89.0522 36.3849 89.1002 35.992L89.7298 30.8373C89.7927 30.3221 89.7885 29.8009 89.7174 29.2869L88.9285 23.5895L88.8787 17.068L89.4273 11.0333C89.4598 10.6764 89.4578 10.3173 89.4213 9.9608C89.0802 6.62323 91.7404 3.74142 95.0945 3.81487L95.5997 3.82593L101.617 4.7054C101.92 4.7496 102.225 4.77062 102.531 4.76829L108.594 4.72201L115.066 4.27397L121 3.36808C121.391 3.30839 121.787 3.28751 122.182 3.30574L128.06 3.57701L134.582 3.52723L141.103 3.57701L147.625 3.82593L154.097 3.77614L160.619 3.6268L166.728 3.58052C167.036 3.57819 167.344 3.59961 167.649 3.6446L168.553 3.77798C171.312 4.18506 173.427 6.43986 173.657 9.21952L173.763 10.4968L174.165 16.3533C174.195 16.7953 174.177 17.2392 174.109 17.677L173.215 23.49L172.892 29.5291C172.875 29.8502 172.884 30.1721 172.918 30.4917L173.563 36.4832L174.111 43.0047L174.26 49.4764L174.123 55.4998C174.115 55.8313 174.08 56.1616 174.018 56.4872L173.003 61.8028C172.912 62.2788 172.88 62.764 172.905 63.2478L173.215 69.0409L173.713 75.5624L174.43 81.4313C174.483 81.8651 174.488 82.3033 174.446 82.7382Z" fill="#329777" stroke="#FFFBDB" stroke-width="5" stroke-linecap="round" stroke-linejoin="round"/>
<path d="M262.014 82.7382C261.693 86.0537 258.732 88.4728 255.419 88.1267L254.759 88.0578L248.287 88.008L241.765 88.1573L235.293 88.9538L228.771 89.0036L222.25 88.5058L216.211 88.4594C215.922 88.4571 215.634 88.4757 215.348 88.515L210.05 89.243C209.523 89.3154 208.988 89.3174 208.461 89.249L202.734 88.5058L196.212 88.1573L189.69 87.9084L183.168 88.3565C179.865 88.2473 177.302 85.4325 177.493 82.1337L177.447 76.2231C177.444 75.8168 177.4 75.412 177.315 75.0147L176.162 69.6196C176.087 69.2677 176.043 68.9097 176.032 68.55L175.874 63.3956C175.858 62.88 175.908 62.3645 176.024 61.8618L177.189 56.8131C177.292 56.3706 177.343 55.918 177.343 55.4639V49.6257L177.094 43.1042L176.642 37.1762C176.612 36.7815 176.621 36.3849 176.669 35.992L177.298 30.8373C177.361 30.3221 177.357 29.8009 177.286 29.2869L176.497 23.5895L176.447 17.068L176.996 11.0333C177.028 10.6764 177.026 10.3173 176.99 9.9608C176.649 6.62323 179.309 3.74142 182.663 3.81487L183.168 3.82593L189.186 4.7054C189.488 4.7496 189.794 4.77062 190.099 4.76829L196.162 4.72201L202.634 4.27397L208.568 3.36808C208.959 3.30839 209.355 3.28751 209.75 3.30574L215.628 3.57701L222.15 3.52723L228.672 3.57701L235.194 3.82593L241.666 3.77614L248.188 3.6268L254.296 3.58052C254.605 3.57819 254.912 3.59961 255.217 3.6446L256.122 3.77798C258.881 4.18506 260.996 6.43986 261.225 9.21952L261.331 10.4968L261.733 16.3533C261.764 16.7953 261.745 17.2392 261.678 17.677L260.783 23.49L260.461 29.5291C260.443 29.8502 260.452 30.1721 260.487 30.4917L261.132 36.4832L261.679 43.0047L261.829 49.4764L261.691 55.4998C261.683 55.8313 261.648 56.1616 261.586 56.4872L260.572 61.8028C260.481 62.2788 260.448 62.764 260.474 63.2478L260.783 69.0409L261.281 75.5624L261.998 81.4313C262.051 81.8651 262.056 82.3033 262.014 82.7382Z" fill="#329777" stroke="#FFFBDB" stroke-width="5" stroke-linecap="round" stroke-linejoin="round"/>
</svg>
