<svg width="171" height="259" viewBox="0 0 171 259" fill="none" xmlns="http://www.w3.org/2000/svg">
<path d="M169.921 100.384L168.951 98.1258L158.774 87.7612L156.449 86.7881L96.3785 86.7167L94.0617 87.7165L85.5114 96.4296L76.9699 87.6898L86.0885 78.3964L87.0501 76.1378L86.9889 14.6642L86.0447 12.3878L75.8596 2.00529L73.5428 1.02328L13.586 0.907227L10.972 2.03207L1.03163 12.1735L0 14.7714L0.0524556 45.9277L0.0699409 50.445C1.04911 49.6147 2.50039 49.6504 3.4271 50.5967C4.39753 51.5877 4.39753 53.2035 3.4271 54.1944C2.51787 55.1229 1.05786 55.1675 0.0786835 54.3373L0.0961687 58.8545L0.113654 75.8878L1.1278 78.3428L10.2026 87.6005L1.26768 96.7331L0.16611 99.4113L0.279763 160.635L1.24145 163.001L10.4562 172.428L1.68732 181.391L0.708151 183.757L0.778092 245.096L1.73104 247.471L11.8812 257.862L14.0931 258.853L74.2947 258.925L76.524 257.961L86.6742 247.578L87.6272 245.212L87.6097 183.989L86.5081 181.311L77.4333 172.035L84.5935 164.706L94.018 174.321L96.632 175.445L156.589 175.463L158.906 174.49L169.073 164.126L170.017 161.849L169.948 100.375L169.921 100.384ZM4.16148 75.9146L3.78555 75.013L3.76806 58.8366C4.72101 58.5153 5.61275 57.9707 6.36462 57.2029C8.96117 54.5515 8.95243 50.2396 6.36462 47.5882C5.60401 46.8115 4.69478 46.258 3.73309 45.9367L3.68064 15.6105L4.09154 14.5839L12.8516 5.62978L13.9357 5.16556L72.2314 5.28162L73.0182 5.61193L82.0406 14.8071L82.3379 15.5213L82.3991 75.2451L82.0931 75.9503L72.5899 85.6365L56.416 85.6186C56.1013 84.6277 55.568 83.6992 54.7987 82.9136C52.2021 80.2622 47.9794 80.2533 45.3829 82.9047C44.6223 83.6814 44.089 84.6009 43.7742 85.5829L13.8833 85.5294L13.9095 85.3954L13.1139 85.0562L4.17022 75.9235L4.16148 75.9146ZM51.8524 89.5199C50.882 90.5108 49.2996 90.5019 48.3291 89.5109C47.3587 88.52 47.35 86.9042 48.3204 85.9132C49.2908 84.9223 50.8732 84.9223 51.8437 85.9132C52.8141 86.9042 52.8228 88.52 51.8524 89.5109V89.5199ZM82.4865 183.73L82.9499 184.846L82.9673 244.373L82.6439 245.177L73.6565 254.363L72.9571 254.658L14.4778 254.586L13.7783 254.274L4.76472 245.052L4.44124 244.239L4.3713 184.605L4.70352 183.801L13.621 174.687L14.4952 174.312H30.2669V174.079C30.5729 175.151 31.1324 176.151 31.9542 176.99C34.5508 179.641 38.7822 179.65 41.3788 176.999C42.1394 176.222 42.6814 175.294 42.9874 174.312L72.686 174.329L73.6914 174.749L82.469 183.721L82.4865 183.73ZM34.9005 170.384C35.8709 169.393 37.4533 169.402 38.4238 170.393C39.3942 171.383 39.4029 172.999 38.4238 173.99C37.4446 174.981 35.8797 174.972 34.9005 173.981C33.9213 172.99 33.9213 171.375 34.8917 170.384H34.9005ZM82.469 159.849L72.5549 170.071L42.9874 170.053C42.6727 169.071 42.1306 168.152 41.37 167.375C38.7735 164.724 34.5508 164.715 31.9542 167.366C31.1324 168.205 30.5729 169.205 30.2757 170.268V170.044H13.6647L13.5773 170.08L4.28388 160.572L3.9604 159.769L3.84675 100.251L4.30136 99.1435L13.0615 90.1894L14.0669 89.7698L43.7655 89.8234C44.0802 90.8054 44.6223 91.7338 45.3829 92.5105C47.9794 95.1619 52.2021 95.1619 54.7987 92.5105C55.5505 91.7428 56.0926 90.8233 56.4073 89.8591L72.2489 89.877L73.1319 90.2519L82.5302 100.331L82.4952 100.42V117.453C81.5336 117.775 80.6331 118.319 79.8725 119.096C77.2759 121.748 77.2759 126.059 79.8725 128.711C80.6331 129.488 81.5423 130.041 82.4952 130.362L82.5127 159.876L82.4603 159.823L82.469 159.849ZM82.8187 125.729C81.8483 124.738 81.8483 123.122 82.8187 122.131C83.7892 121.14 85.3716 121.149 86.342 122.14C87.3124 123.131 87.3124 124.747 86.342 125.738C85.3716 126.729 83.7892 126.729 82.8187 125.738V125.729ZM165.043 161.706L156.047 170.875L155.26 171.205L96.973 171.187L95.8802 170.714L87.0939 161.751L86.683 160.724L86.6655 130.398C87.6272 130.077 88.5276 129.532 89.2882 128.755C91.8848 126.104 91.8761 121.792 89.2882 119.132C88.5276 118.355 87.6184 117.802 86.6655 117.489V101.313L87.0327 100.42L95.9589 91.3143L96.7457 90.975L155.146 91.0464L155.942 91.3767L164.973 100.581L165.279 101.295L165.349 161.01L165.052 161.724L165.043 161.706Z" fill="#B3B3B3" fill-opacity="0.38"/>
<path d="M67.1518 18.6459C64.5552 15.9944 60.3325 15.9944 57.736 18.6459C56.9754 19.4225 56.4333 20.342 56.1273 21.3241L41.195 21.2973C40.8802 20.3153 40.3382 19.3958 39.5776 18.6191C36.981 15.9677 32.7584 15.9677 30.1618 18.6101C27.5652 21.2616 27.574 25.5735 30.1705 28.2338C32.7671 30.8852 36.9898 30.8852 39.5863 28.2338C40.3469 27.4571 40.889 26.5287 41.195 25.5556L56.1186 25.5824C56.4333 26.5644 56.9666 27.4839 57.736 28.2606C60.3325 30.912 64.564 30.912 67.1605 28.2695C69.7483 25.6181 69.7483 21.3062 67.1518 18.6459ZM36.6313 25.2253C35.6609 26.2162 34.0785 26.2073 33.1081 25.2164C32.1376 24.2254 32.1289 22.6096 33.0993 21.6187C34.0697 20.6277 35.6522 20.6277 36.6226 21.6187C37.593 22.6096 37.6018 24.2254 36.6313 25.2164V25.2253ZM64.2055 25.2521C63.2351 26.243 61.6527 26.243 60.6822 25.2521C59.7118 24.2611 59.7031 22.6453 60.6735 21.6544C61.6439 20.6634 63.2263 20.6724 64.1968 21.6633C65.1672 22.6542 65.1672 24.2701 64.1968 25.261L64.2055 25.2521Z" fill="#B3B3B3" fill-opacity="0.38"/>
<path d="M150.206 151.609C147.61 148.958 143.387 148.949 140.791 151.6C140.03 152.377 139.488 153.296 139.182 154.279L124.25 154.261C123.935 153.279 123.402 152.359 122.632 151.574C120.036 148.922 115.813 148.922 113.216 151.574C110.62 154.225 110.629 158.537 113.225 161.188C115.822 163.84 120.044 163.84 122.641 161.188C123.402 160.412 123.944 159.492 124.25 158.51L139.173 158.528C139.488 159.51 140.021 160.429 140.791 161.206C143.387 163.858 147.619 163.866 150.215 161.215C152.803 158.564 152.803 154.252 150.206 151.6V151.609ZM119.686 158.18C118.716 159.171 117.133 159.171 116.163 158.18C115.192 157.189 115.184 155.573 116.163 154.582C117.133 153.591 118.707 153.6 119.686 154.582C120.656 155.573 120.665 157.189 119.695 158.18H119.686ZM147.26 158.215C146.29 159.206 144.716 159.197 143.737 158.207C142.758 157.216 142.758 155.6 143.728 154.609C144.699 153.618 146.281 153.627 147.251 154.618C148.222 155.609 148.222 157.225 147.251 158.215H147.26Z" fill="#B3B3B3" fill-opacity="0.38"/>
<path d="M67.1348 135.924C64.5383 133.273 60.3069 133.273 57.719 135.924C55.1225 138.576 55.1225 142.887 57.719 145.539C58.4971 146.333 59.4151 146.887 60.3943 147.208V153.002H55.07C54.7815 151.886 54.2045 150.842 53.3565 149.967C50.7599 147.315 46.5285 147.315 43.932 149.967C41.3441 152.609 41.3441 156.93 43.9407 159.582C46.5373 162.233 50.7599 162.233 53.3565 159.582C54.0297 158.894 54.528 158.109 54.8427 157.251H64.5558V147.164C65.5 146.842 66.383 146.298 67.1261 145.53C69.7226 142.887 69.7139 138.567 67.1261 135.915L67.1348 135.924ZM50.419 156.582C49.4485 157.573 47.8661 157.564 46.8957 156.582C45.9253 155.591 45.9253 153.975 46.8957 152.984C47.8661 151.993 49.4398 151.993 50.419 152.984C51.3981 153.975 51.3981 155.591 50.4277 156.582H50.419ZM64.1886 142.539C63.2181 143.53 61.6357 143.53 60.6653 142.539C59.6949 141.548 59.6949 139.932 60.6653 138.942C61.6357 137.951 63.2181 137.96 64.1886 138.95C65.159 139.941 65.159 141.557 64.1886 142.548V142.539Z" fill="#B3B3B3" fill-opacity="0.38"/>
<path d="M40.5308 230.804C37.9342 228.162 33.7116 228.162 31.1063 230.813C30.3282 231.608 29.7861 232.545 29.4714 233.545H23.7887V228.117C24.8815 227.822 25.9044 227.233 26.7612 226.358C29.3577 223.707 29.3665 219.386 26.7699 216.735C24.1734 214.092 19.9507 214.092 17.3541 216.744C14.7576 219.395 14.7488 223.707 17.3454 226.358C18.0098 227.037 18.7879 227.546 19.6272 227.876V237.794H29.5064C29.8211 238.758 30.3544 239.651 31.1063 240.419C33.7028 243.07 37.9255 243.061 40.522 240.419C43.1186 237.767 43.1186 233.447 40.5308 230.795V230.804ZM20.3004 223.359C19.33 222.368 19.3387 220.752 20.3091 219.761C21.2796 218.77 22.862 218.77 23.8324 219.761C24.8028 220.752 24.7941 222.359 23.8237 223.359C22.8532 224.359 21.2708 224.359 20.3004 223.368V223.359ZM37.5758 237.41C36.6054 238.401 35.0229 238.41 34.0525 237.419C33.0821 236.428 33.0908 234.812 34.0613 233.822C35.0317 232.831 36.6141 232.831 37.5845 233.822C38.555 234.812 38.555 236.428 37.5845 237.419L37.5758 237.41Z" fill="#B3B3B3" fill-opacity="0.38"/>
<path d="M8 16.9072C8 11.9367 12.0294 7.90723 17 7.90723H69C73.9706 7.90723 78 11.9367 78 16.9072V25.9072C78 30.8778 73.9706 34.9072 69 34.9072H17C12.0294 34.9072 8 30.8778 8 25.9072V16.9072Z" fill="#525571"/>
<path d="M13.3936 30.9072V28.3872L19.8736 22.2672C20.3856 21.8032 20.7616 21.3872 21.0016 21.0192C21.2416 20.6512 21.4016 20.3152 21.4816 20.0112C21.5776 19.7072 21.6256 19.4272 21.6256 19.1712C21.6256 18.4992 21.3936 17.9872 20.9296 17.6352C20.4816 17.2672 19.8176 17.0832 18.9376 17.0832C18.2336 17.0832 17.5776 17.2192 16.9696 17.4912C16.3776 17.7632 15.8736 18.1872 15.4576 18.7632L12.6256 16.9392C13.2656 15.9792 14.1616 15.2192 15.3136 14.6592C16.4656 14.0992 17.7936 13.8192 19.2976 13.8192C20.5456 13.8192 21.6336 14.0272 22.5616 14.4432C23.5056 14.8432 24.2336 15.4112 24.7456 16.1472C25.2736 16.8832 25.5376 17.7632 25.5376 18.7872C25.5376 19.3312 25.4656 19.8752 25.3216 20.4192C25.1936 20.9472 24.9216 21.5072 24.5056 22.0992C24.1056 22.6912 23.5136 23.3552 22.7296 24.0912L17.3536 29.1552L16.6096 27.7392H26.0896V30.9072H13.3936ZM34.8938 31.1952C33.5178 31.1952 32.2858 30.8592 31.1978 30.1872C30.1098 29.4992 29.2538 28.5072 28.6298 27.2112C28.0058 25.9152 27.6938 24.3472 27.6938 22.5072C27.6938 20.6672 28.0058 19.0992 28.6298 17.8032C29.2538 16.5072 30.1098 15.5232 31.1978 14.8512C32.2858 14.1632 33.5178 13.8192 34.8938 13.8192C36.2858 13.8192 37.5178 14.1632 38.5898 14.8512C39.6778 15.5232 40.5338 16.5072 41.1578 17.8032C41.7818 19.0992 42.0938 20.6672 42.0938 22.5072C42.0938 24.3472 41.7818 25.9152 41.1578 27.2112C40.5338 28.5072 39.6778 29.4992 38.5898 30.1872C37.5178 30.8592 36.2858 31.1952 34.8938 31.1952ZM34.8938 27.9072C35.5498 27.9072 36.1178 27.7232 36.5978 27.3552C37.0938 26.9872 37.4778 26.4032 37.7498 25.6032C38.0378 24.8032 38.1818 23.7712 38.1818 22.5072C38.1818 21.2432 38.0378 20.2112 37.7498 19.4112C37.4778 18.6112 37.0938 18.0272 36.5978 17.6592C36.1178 17.2912 35.5498 17.1072 34.8938 17.1072C34.2538 17.1072 33.6858 17.2912 33.1898 17.6592C32.7098 18.0272 32.3258 18.6112 32.0378 19.4112C31.7658 20.2112 31.6298 21.2432 31.6298 22.5072C31.6298 23.7712 31.7658 24.8032 32.0378 25.6032C32.3258 26.4032 32.7098 26.9872 33.1898 27.3552C33.6858 27.7232 34.2538 27.9072 34.8938 27.9072ZM43.7451 30.9072V28.3872L50.2251 22.2672C50.7371 21.8032 51.1131 21.3872 51.3531 21.0192C51.5931 20.6512 51.7531 20.3152 51.8331 20.0112C51.9291 19.7072 51.9771 19.4272 51.9771 19.1712C51.9771 18.4992 51.7451 17.9872 51.2811 17.6352C50.8331 17.2672 50.1691 17.0832 49.2891 17.0832C48.5851 17.0832 47.9291 17.2192 47.3211 17.4912C46.7291 17.7632 46.2251 18.1872 45.8091 18.7632L42.9771 16.9392C43.6171 15.9792 44.5131 15.2192 45.6651 14.6592C46.8171 14.0992 48.1451 13.8192 49.6491 13.8192C50.8971 13.8192 51.9851 14.0272 52.9131 14.4432C53.8571 14.8432 54.5851 15.4112 55.0971 16.1472C55.6251 16.8832 55.8891 17.7632 55.8891 18.7872C55.8891 19.3312 55.8171 19.8752 55.6731 20.4192C55.5451 20.9472 55.2731 21.5072 54.8571 22.0992C54.4571 22.6912 53.8651 23.3552 53.0811 24.0912L47.7051 29.1552L46.9611 27.7392H56.4411V30.9072H43.7451ZM65.2454 31.1952C63.8694 31.1952 62.6374 30.8592 61.5494 30.1872C60.4614 29.4992 59.6054 28.5072 58.9814 27.2112C58.3574 25.9152 58.0454 24.3472 58.0454 22.5072C58.0454 20.6672 58.3574 19.0992 58.9814 17.8032C59.6054 16.5072 60.4614 15.5232 61.5494 14.8512C62.6374 14.1632 63.8694 13.8192 65.2454 13.8192C66.6374 13.8192 67.8694 14.1632 68.9414 14.8512C70.0294 15.5232 70.8854 16.5072 71.5094 17.8032C72.1334 19.0992 72.4454 20.6672 72.4454 22.5072C72.4454 24.3472 72.1334 25.9152 71.5094 27.2112C70.8854 28.5072 70.0294 29.4992 68.9414 30.1872C67.8694 30.8592 66.6374 31.1952 65.2454 31.1952ZM65.2454 27.9072C65.9014 27.9072 66.4694 27.7232 66.9494 27.3552C67.4454 26.9872 67.8294 26.4032 68.1014 25.6032C68.3894 24.8032 68.5334 23.7712 68.5334 22.5072C68.5334 21.2432 68.3894 20.2112 68.1014 19.4112C67.8294 18.6112 67.4454 18.0272 66.9494 17.6592C66.4694 17.2912 65.9014 17.1072 65.2454 17.1072C64.6054 17.1072 64.0374 17.2912 63.5414 17.6592C63.0614 18.0272 62.6774 18.6112 62.3894 19.4112C62.1174 20.2112 61.9814 21.2432 61.9814 22.5072C61.9814 23.7712 62.1174 24.8032 62.3894 25.6032C62.6774 26.4032 63.0614 26.9872 63.5414 27.3552C64.0374 27.7232 64.6054 27.9072 65.2454 27.9072Z" fill="#171B48" fill-opacity="0.5"/>
</svg>
