<svg width="177" height="177" viewBox="0 0 177 177" fill="none" xmlns="http://www.w3.org/2000/svg">
<path fill-rule="evenodd" clip-rule="evenodd" d="M172.93 101.691L171.94 99.431L162.691 90.1686L162.69 90.17L158.463 92.3686L159.26 92.7102L168.42 101.881L168.73 102.591L168.8 162.138L168.5 162.848L168.48 162.838L159.36 171.979L158.57 172.309L99.42 172.289L98.32 171.829L89.4 162.888L88.98 161.858L88.96 131.615C89.93 131.295 90.85 130.745 91.62 129.975C94.25 127.334 94.25 123.034 91.62 120.383C90.84 119.603 89.93 119.053 88.96 118.743V102.621L89.33 101.731L98.39 92.6502L99.1864 92.2988L96.7557 91.3664L94.49 90.5L86.54 98.4809L78.35 90.27L87 82L84.1118 78.1106L84.11 78.1086V78.1072L83.81 78.8086L74.18 88.4598H58.38C58.1 87.2896 57.5 86.1695 56.59 85.2594C53.96 82.6191 49.66 82.6091 47.03 85.2594C46.13 86.1595 45.54 87.2596 45.26 88.4197L14.57 88.3697L14.6 88.2297L13.79 87.8897L4.71 78.7886L4.72 78.7786L4.34 77.8885L4.32 61.7567C5.29 61.4366 6.2 60.8966 6.96 60.1265C9.59 57.4862 9.59 53.1757 6.96 50.5254C6.18 49.7453 5.26 49.1852 4.28 48.8652L4.23 18.6217L4.65 17.6016L13.53 8.69054L14.63 8.23049L73.79 8.3405L74.59 8.67054L83.74 17.8416L84.04 18.5572L85.1982 16.3328L86.2286 14.3498L76.99 5.09013L74.64 4.12001L13.79 4L11.14 5.12013L1.05 15.2213L0 17.8116L0.06 51.6455V53.9158C0.15 53.7757 0.26 53.6457 0.38 53.5257C1.36 52.5456 2.97 52.5456 3.96 53.5257C4.95 54.5158 4.95 56.126 3.96 57.1061C2.98 58.0862 1.37 58.0862 0.39 57.1061C0.27 56.9861 0.16 56.8561 0.07 56.7161V61.7567L0.11 78.7386L1.13 81.1889L10.59 90.66L1.76 99.521L0.64 102.181L0.76 163.238L1.73 165.599L12.05 175.97L14.31 176.93L75.4 177L77.65 176.02L87.06 166.569L95.88 175.41L98.53 176.54L159.38 176.56L161.73 175.59L172.05 165.249L173 162.978L172.93 101.691ZM50.03 91.8501C51.02 92.8303 52.63 92.8303 53.61 91.8501L53.6 91.8401C54.6 90.86 54.59 89.2398 53.6 88.2597C52.61 87.2796 51.01 87.2796 50.03 88.2597C49.03 89.2398 49.04 90.87 50.03 91.8501ZM84.35 163.288L84.68 162.478L84.67 162.468H84.71L84.69 131.595C83.72 131.275 82.8 130.725 82.03 129.955C79.4 127.304 79.4 122.994 82.03 120.353C82.8 119.583 83.71 119.033 84.69 118.713V102.861L84.26 102.191L75.19 93.0803L74.3 92.7002L58.04 92.6802C57.72 93.4703 57.23 94.2004 56.6 94.8405C53.97 97.4908 49.67 97.4908 47.04 94.8405C46.4 94.1904 45.91 93.4503 45.58 92.6502L15.25 92.6002L14.23 93.0203L5.34 101.941L4.88 103.051L5 162.408L5.33 163.208L14.47 172.389L15.18 172.689L74.53 172.759L75.23 172.459L84.35 163.288ZM85.04 123.374C84.05 124.354 84.06 125.964 85.04 126.954V126.964C86.03 127.954 87.63 127.954 88.62 126.964C89.61 125.974 89.61 124.354 88.62 123.374C87.63 122.384 86.03 122.384 85.04 123.374Z" fill="white" fill-opacity="0.5"/>
<path fill-rule="evenodd" clip-rule="evenodd" d="M171.47 81.3489L172.44 78.9887L172.42 47.9351L171.3 15.2713L161.2 5.13013L158.62 4.07001L127.64 4.05001H122.6C122.74 4.14002 122.88 4.25003 123.01 4.38004C124 5.37016 124 6.99035 123.01 7.97046C122.02 8.95057 120.42 8.95057 119.43 7.97046C118.44 6.99035 118.43 5.37016 119.43 4.39005C119.55 4.27003 119.69 4.16002 119.83 4.06001H97.88L95.44 5.09013L86.23 14.3472L86.2286 14.3498L86.23 14.3512L85.1982 16.3328L84.04 18.5617L84.11 78.1072L84.1118 78.1106L87 82L94.49 90.4972L96.7557 91.3664L99.19 92.2972L99.1864 92.2988L99.19 92.3002L158.46 92.3702L158.463 92.3686L158.46 92.3672L162.69 90.1672L162.691 90.1686L171.47 81.3489ZM97.85 8.67054L88.8 17.7616L88.82 17.7816L88.48 18.5817L88.55 78.0386L88.88 78.8486L98.02 88.0397L98.19 88.1097L98.73 88.3497L158.08 88.4197L158.77 88.1197H158.79L167.9 78.9587L168.23 78.1586L168.21 18.8017L167.74 17.6916L158.83 8.74055L157.8 8.3205L127.66 8.3005C127.34 9.28061 126.79 10.2007 126.02 10.9708C123.39 13.6211 119.09 13.6111 116.46 10.9708C115.69 10.2007 115.14 9.28061 114.82 8.3005H98.74L97.85 8.67054Z" fill="#FCFC01" fill-opacity="0.5"/>
<path d="M69.13 21.6722C66.49 19.0219 62.2 19.0119 59.57 21.6722C58.8 22.4423 58.25 23.3624 57.93 24.3425L42.78 24.3225C42.46 23.3424 41.91 22.4223 41.14 21.6422C38.5 19.0019 34.21 18.9919 31.57 21.6422C28.93 24.2925 28.94 28.583 31.57 31.2333C34.2 33.8836 38.5 33.8836 41.13 31.2333C41.9 30.4632 42.45 29.5431 42.77 28.563L57.92 28.583C58.24 29.5631 58.79 30.4832 59.56 31.2533C62.2 33.9036 66.49 33.9136 69.13 31.2533C71.76 28.613 71.76 24.3025 69.13 21.6622V21.6722ZM38.16 28.2329C37.18 29.2131 35.57 29.2131 34.58 28.2329C33.59 27.2528 33.58 25.6226 34.58 24.6425C35.56 23.6624 37.16 23.6624 38.15 24.6425C39.14 25.6326 39.15 27.2428 38.15 28.2229L38.16 28.2329ZM66.14 28.263C65.16 29.2431 63.56 29.2431 62.57 28.263C61.58 27.2728 61.57 25.6626 62.57 24.6825C63.55 23.6924 65.16 23.7024 66.15 24.6825C67.14 25.6626 67.14 27.2928 66.15 28.273L66.14 28.263Z" fill="white" fill-opacity="0.5"/>
<path d="M69.6104 138.626C66.9704 135.975 62.6804 135.965 60.0504 138.626C57.4204 141.286 57.4204 145.577 60.0504 148.217C60.8404 149.007 61.7704 149.567 62.7704 149.877V155.668H57.3704C57.0704 154.558 56.4904 153.507 55.6204 152.637C52.9804 149.987 48.6904 149.977 46.0604 152.637C43.4304 155.278 43.4304 159.588 46.0604 162.228C48.7004 164.879 52.9904 164.889 55.6204 162.228C56.3004 161.548 56.8004 160.758 57.1304 159.908H66.9904V149.857C67.9404 149.527 68.8404 148.997 69.6004 148.227C72.2304 145.587 72.2304 141.276 69.6004 138.636L69.6104 138.626ZM52.6504 159.218C51.6704 160.198 50.0604 160.198 49.0704 159.218C48.0804 158.228 48.0804 156.618 49.0704 155.628C50.0604 154.648 51.6604 154.648 52.6504 155.628C53.6304 156.618 53.6404 158.228 52.6504 159.218ZM66.6304 145.217C65.6504 146.197 64.0404 146.197 63.0504 145.217C62.0704 144.226 62.0604 142.616 63.0504 141.626C64.0304 140.646 65.6404 140.646 66.6304 141.626C67.6204 142.616 67.6204 144.236 66.6304 145.217Z" fill="white" fill-opacity="0.5"/>
<path d="M153.909 152.767C151.269 150.117 146.989 150.117 144.349 152.767C143.579 153.537 143.039 154.457 142.719 155.437L127.569 155.417C127.249 154.437 126.699 153.517 125.929 152.747C123.289 150.097 118.999 150.087 116.359 152.747C113.729 155.387 113.729 159.698 116.359 162.338C118.999 164.988 123.289 164.998 125.919 162.338C126.689 161.568 127.239 160.648 127.559 159.668L142.709 159.688C143.029 160.668 143.569 161.588 144.349 162.368C146.989 165.018 151.279 165.018 153.919 162.368C156.549 159.728 156.539 155.427 153.919 152.777L153.909 152.767ZM122.939 159.328C121.959 160.318 120.349 160.318 119.359 159.328C118.369 158.338 118.369 156.727 119.359 155.737C120.339 154.757 121.939 154.757 122.929 155.737C123.919 156.727 123.929 158.348 122.929 159.328H122.939ZM150.929 159.358C149.949 160.338 148.349 160.338 147.359 159.358C146.369 158.378 146.359 156.747 147.359 155.767C148.339 154.777 149.949 154.777 150.939 155.767C151.929 156.747 151.929 158.368 150.939 159.358H150.929Z" fill="white" fill-opacity="0.5"/>
<g filter="url(#filter0_f_1575_5140)">
<path d="M125.641 64.6268C123.011 61.9864 118.711 61.9965 116.081 64.6268C115.291 65.4168 114.741 66.357 114.421 67.3571H108.651V61.9464C109.751 61.6464 110.801 61.0563 111.671 60.1862C114.311 57.5359 114.321 53.2354 111.671 50.5951C109.041 47.9548 104.741 47.9648 102.111 50.5951C99.4707 53.2454 99.4607 57.5459 102.111 60.1962C102.791 60.8763 103.571 61.3864 104.431 61.7064V71.5976H114.451C114.771 72.5577 115.311 73.4578 116.071 74.2179C118.701 76.8482 123.001 76.8482 125.631 74.2179C128.271 71.5676 128.281 67.2671 125.631 64.6268H125.641ZM105.121 53.6155C106.111 52.6254 107.721 52.6154 108.701 53.6155C109.681 54.6056 109.681 56.2158 108.701 57.2059C107.711 58.196 106.101 58.196 105.121 57.2059C104.141 56.2258 104.141 54.6156 105.121 53.6255V53.6155ZM122.641 71.2175C121.651 72.2076 120.041 72.2076 119.061 71.2175C118.081 70.2374 118.081 68.6272 119.061 67.6371C120.051 66.647 121.651 66.637 122.631 67.6371C123.621 68.6172 123.611 70.2374 122.631 71.2275L122.641 71.2175Z" fill="#FCFC01" fill-opacity="0.5"/>
</g>
<path d="M125.641 64.6268C123.011 61.9864 118.711 61.9965 116.081 64.6268C115.291 65.4168 114.741 66.357 114.421 67.3571H108.651V61.9464C109.751 61.6464 110.801 61.0563 111.671 60.1862C114.311 57.5359 114.321 53.2354 111.671 50.5951C109.041 47.9548 104.741 47.9648 102.111 50.5951C99.4707 53.2454 99.4607 57.5459 102.111 60.1962C102.791 60.8763 103.571 61.3864 104.431 61.7064V71.5976H114.451C114.771 72.5577 115.311 73.4578 116.071 74.2179C118.701 76.8482 123.001 76.8482 125.631 74.2179C128.271 71.5676 128.281 67.2671 125.631 64.6268H125.641ZM105.121 53.6155C106.111 52.6254 107.721 52.6154 108.701 53.6155C109.681 54.6056 109.681 56.2158 108.701 57.2059C107.711 58.196 106.101 58.196 105.121 57.2059C104.141 56.2258 104.141 54.6156 105.121 53.6255V53.6155ZM122.641 71.2175C121.651 72.2076 120.041 72.2076 119.061 71.2175C118.081 70.2374 118.081 68.6272 119.061 67.6371C120.051 66.647 121.651 66.637 122.631 67.6371C123.621 68.6172 123.611 70.2374 122.631 71.2275L122.641 71.2175Z" fill="#FCFC01" fill-opacity="0.5"/>
<g filter="url(#filter1_f_1575_5140)">
<path fill-rule="evenodd" clip-rule="evenodd" d="M171.469 81.3487L172.439 78.9885L172.419 47.9349L171.299 15.2711L161.199 5.12993L158.619 4.06981L127.639 4.0498H122.599C122.739 4.13982 122.879 4.24983 123.009 4.37984C123.999 5.36996 123.999 6.99014 123.009 7.97026C122.019 8.95037 120.419 8.95037 119.429 7.97026C118.439 6.99014 118.429 5.36996 119.429 4.38984C119.549 4.26983 119.689 4.15982 119.829 4.05981H97.8791L95.4391 5.08992L86.2291 14.347L86.2277 14.3496L86.2291 14.351L85.1973 16.3326L84.0391 18.5615L84.1091 78.107L84.1109 78.1104L86.9991 81.9998L94.4891 90.497L96.7548 91.3662L99.1891 92.297L99.1855 92.2986L99.1891 92.3L158.459 92.37L158.462 92.3684L158.459 92.367L162.689 90.167L162.69 90.1684L171.469 81.3487ZM97.8491 8.67034L88.7991 17.7614L88.8191 17.7814L88.4791 18.5815L88.5491 78.0384L88.8791 78.8484L98.0191 88.0395L98.1891 88.1095L98.7291 88.3495L158.079 88.4195L158.769 88.1195H158.789L167.899 78.9585L168.229 78.1584L168.209 18.8015L167.739 17.6914L158.829 8.74035L157.799 8.3203L127.659 8.3003C127.339 9.28041 126.789 10.2005 126.019 10.9706C123.389 13.6209 119.089 13.6109 116.459 10.9706C115.689 10.2005 115.139 9.28041 114.819 8.3003H98.7391L97.8491 8.67034Z" fill="#FCFC01" fill-opacity="0.5"/>
</g>
<defs>
<filter id="filter0_f_1575_5140" x="96.127" y="44.6187" width="35.4883" height="35.5718" filterUnits="userSpaceOnUse" color-interpolation-filters="sRGB">
<feFlood flood-opacity="0" result="BackgroundImageFix"/>
<feBlend mode="normal" in="SourceGraphic" in2="BackgroundImageFix" result="shape"/>
<feGaussianBlur stdDeviation="2" result="effect1_foregroundBlur_1575_5140"/>
</filter>
<filter id="filter1_f_1575_5140" x="80.0391" y="0.0498047" width="96.4004" height="96.3203" filterUnits="userSpaceOnUse" color-interpolation-filters="sRGB">
<feFlood flood-opacity="0" result="BackgroundImageFix"/>
<feBlend mode="normal" in="SourceGraphic" in2="BackgroundImageFix" result="shape"/>
<feGaussianBlur stdDeviation="2" result="effect1_foregroundBlur_1575_5140"/>
</filter>
</defs>
</svg>
