<svg width="260" height="175" viewBox="0 0 260 175" fill="none" xmlns="http://www.w3.org/2000/svg">
<path d="M243.09 3.04376H187.474C181.747 8.67462 178.406 11.968 172.924 17.3642C167.047 11.5422 163.671 8.19669 157.715 2.29646H126.491C127.079 4.31244 126.009 6.86718 123.264 6.86718C120.519 6.86718 119.457 4.31244 120.045 2.29646H102.1L87.5581 16.7038C82.0062 11.2033 78.6646 7.89255 72.8934 2.1748H17.2781L1.80653 17.5032V49.1333C1.99072 49.1073 2.1749 49.0812 2.37663 49.0812C6.90233 49.0812 6.89356 56.0329 2.37663 56.0329C2.1749 56.0329 1.99072 56.0068 1.80653 55.9807V72.6126L16.4186 87.0894C10.8316 92.7637 7.51629 96.1353 1.75391 101.983V157.71C7.71801 163.766 11.0684 167.164 17.0325 173.221H71.955C77.9191 167.164 81.2695 163.766 87.2336 157.71V101.983C81.6817 96.3439 78.3927 93.0157 73.1478 87.689L87.4353 73.5337L102.1 88.0627H157.715C163.513 82.3189 166.863 78.9994 172.468 73.4468C178.221 79.1037 181.589 82.4231 187.474 88.2104H243.09C249.133 82.2667 252.518 78.9299 258.561 72.9862V18.2679C252.518 12.3242 249.133 8.98744 243.09 3.04376ZM36.9597 27.1226C32.434 27.1226 32.4427 20.1709 36.9597 20.1709C41.4766 20.1709 41.4766 27.1226 36.9597 27.1226ZM50.7911 157.91C46.2654 157.91 46.2742 150.958 50.7911 150.958C55.3081 150.958 55.3081 157.91 50.7911 157.91ZM52.0015 91.1735C47.4758 91.1735 47.4846 84.2219 52.0015 84.2219C56.5184 84.2219 56.5184 91.1735 52.0015 91.1735ZM64.9296 144.206C60.4039 144.206 60.4127 137.254 64.9296 137.254C69.4465 137.254 69.4465 144.206 64.9296 144.206ZM64.9296 26.8272C60.4039 26.8272 60.4127 19.8755 64.9296 19.8755C69.4465 19.8755 69.4465 26.8272 64.9296 26.8272ZM108.529 55.72C104.003 55.72 104.012 48.7684 108.529 48.7684C113.046 48.7684 113.046 55.72 108.529 55.72ZM122.667 70.0231C118.142 70.0231 118.15 63.0714 122.667 63.0714C127.184 63.0714 127.184 70.0231 122.667 70.0231ZM172.88 42.0166C168.354 42.0166 168.363 35.0649 172.88 35.0649C177.397 35.0649 177.397 42.0166 172.88 42.0166ZM207.165 73.6032C202.639 73.6032 202.648 66.6515 207.165 66.6515C211.682 66.6515 211.682 73.6032 207.165 73.6032ZM235.433 74.1941C230.907 74.1941 230.916 67.2424 235.433 67.2424C239.95 67.2424 239.95 74.1941 235.433 74.1941Z" fill="white"/>
<path fill-rule="evenodd" clip-rule="evenodd" d="M187.474 3.04376H243.09C246.111 6.01571 248.469 8.33589 250.826 10.6561C253.183 12.9761 255.54 15.2962 258.561 18.2679V72.9862C255.54 75.9581 253.183 78.2782 250.826 80.5983C250.474 80.9442 250.123 81.2901 249.769 81.6381L241.379 73.2475V59.7675L257.999 43.1475H258.561V19.2679C255.558 16.3149 253.212 14.0053 250.87 11.6999L250.856 11.6865L250.825 11.6561L250.806 11.6369C248.455 9.3231 246.103 7.00752 243.089 4.04376H239.054L253.627 18.6171V32.0971L237.007 48.7171H223.527L206.907 32.0971V18.6171L221.481 4.04376H207.881L205.297 6.62723H191.817L189.234 4.04376H187.474C184.498 6.97007 182.165 9.26506 179.842 11.552L186.908 18.6171V32.0971L170.288 48.7171H156.807L140.188 32.0971V18.6171L155.508 3.29646H141.908L138.577 6.62723H125.931C125.371 7.36363 124.482 7.86718 123.263 7.86718C120.788 7.86718 119.682 5.78996 119.919 3.90357C120.113 5.45596 121.223 6.86718 123.264 6.86718C126.009 6.86718 127.079 4.31244 126.491 2.29646H157.715L172.924 17.3642C174.411 15.9004 175.74 14.5914 177.003 13.3485C180.394 10.0093 183.301 7.1472 187.474 3.04376ZM119.89 3.29646C119.899 2.95777 119.951 2.62017 120.045 2.29646H102.1L87.5581 16.7038L72.8934 2.1748H17.2781L1.80653 17.5032V18.5028L17.2776 3.1748H22.1898L6.74749 18.6171V32.0971L23.3675 48.7171H36.8475L53.4675 32.0971V18.6171L38.0252 3.1748H54.925L58.3774 6.62723H71.8574L74.107 4.37763L80.9386 11.146L73.4675 18.6171V32.0971L90.0875 48.7171H103.568L120.188 32.0971V18.6171L104.867 3.29646H119.89ZM1.80653 43.1475V49.1333C1.99072 49.1073 2.1749 49.0812 2.37663 49.0812C6.90233 49.0812 6.89356 56.0329 2.37663 56.0329C2.1749 56.0329 1.99072 56.0068 1.80653 55.9807V72.6126L11.8766 82.5895L21.2186 73.2475V59.7675L4.59857 43.1475H1.80653ZM15.92 87.5959C14.1797 89.3634 12.6563 90.9112 11.1963 92.3944C8.21813 95.4201 5.50429 98.1772 1.75391 101.983V102.983C5.49483 99.1863 8.20444 96.4335 11.1739 93.4167L11.182 93.4085L11.1958 93.3944C12.7936 91.7712 14.4674 90.0707 16.4181 88.0894L15.92 87.5959ZM1.75391 126.607V157.71C4.73596 160.738 7.06459 163.102 9.39323 165.465C9.54793 165.622 9.70263 165.779 9.85752 165.936L19.0865 156.707V143.227L2.46653 126.607H1.75391ZM16.6112 172.793C16.7502 172.934 16.8906 173.077 17.0325 173.221H38.71L34.1866 168.697H20.7066L16.6112 172.793ZM69.2933 173.221H55.5997L39.0865 156.707V143.227L55.7065 126.607H69.1865L85.8065 143.227V156.707L69.2933 173.221ZM87.2331 157.71C87.2333 157.71 87.2334 157.71 87.2336 157.71V101.983C84.3269 99.0308 82.0405 96.7118 79.7689 94.4079C77.8407 92.4521 75.9231 90.5073 73.646 88.195L73.1473 88.689C75.6247 91.205 77.6657 93.2752 79.7149 95.3536L79.7509 95.3901L79.7536 95.3929L79.7684 95.4079L79.8541 95.4948L73.2816 102.067V115.547L87.2331 129.499V157.71ZM87.5443 73.6417L87.4353 73.5337L73.1478 87.689C73.2058 87.7479 73.2635 87.8066 73.321 87.865L71.3186 89.8675H57.8386L55.3787 87.4076C55.2636 85.8224 54.2032 84.3183 52.1974 84.2263L41.2186 73.2475V59.7675L57.8386 43.1475H71.3186L87.9386 59.7675V73.2475L87.5443 73.6417ZM99.4602 85.4473L102.1 88.0627H105.997L103.382 85.4473H99.4602ZM122.754 88.0627H139.843L154.659 73.2475V59.7675L138.039 43.1475H124.559L107.939 59.7675V73.2475L122.754 88.0627ZM154.006 88.0627H157.715L160.355 85.4473H156.622L154.006 88.0627ZM189.622 88.2104H206.416L221.379 73.2475V59.7675L204.759 43.1475H191.279L174.659 59.7675V73.2475L189.622 88.2104ZM220.578 88.2104H239.585L236.822 85.4473H223.342L220.578 88.2104ZM48.6417 88.1983C48.4024 90.0856 49.5207 92.1735 52.001 92.1735C54.4759 92.1735 55.5948 90.0866 55.3576 88.1996C55.1606 89.7551 54.0419 91.1735 52.0015 91.1735C49.9566 91.1735 48.8375 89.7543 48.6417 88.1983ZM36.9597 27.1226C32.434 27.1226 32.4427 20.1709 36.9597 20.1709C41.4766 20.1709 41.4766 27.1226 36.9597 27.1226ZM50.7911 157.91C46.2654 157.91 46.2742 150.958 50.7911 150.958C55.3081 150.958 55.3081 157.91 50.7911 157.91ZM64.9296 144.206C60.4039 144.206 60.4127 137.254 64.9296 137.254C69.4465 137.254 69.4465 144.206 64.9296 144.206ZM61.5697 23.8519C61.7655 25.4079 62.8847 26.8272 64.9296 26.8272C66.97 26.8272 68.0887 25.4087 68.2857 23.8532C68.5229 25.7402 67.404 27.8272 64.9291 27.8272C62.4488 27.8272 61.3305 25.7392 61.5697 23.8519ZM105.169 52.7448C105.365 54.3008 106.484 55.72 108.529 55.72C110.569 55.72 111.688 54.3016 111.885 52.7461C112.122 54.6331 111.003 56.72 108.528 56.72C106.048 56.72 104.93 54.6321 105.169 52.7448ZM122.667 70.0231C118.142 70.0231 118.15 63.0714 122.667 63.0714C127.184 63.0714 127.184 70.0231 122.667 70.0231ZM172.88 42.0166C168.354 42.0166 168.363 35.0649 172.88 35.0649C177.397 35.0649 177.397 42.0166 172.88 42.0166ZM207.165 73.6032C202.639 73.6032 202.648 66.6515 207.165 66.6515C211.682 66.6515 211.682 73.6032 207.165 73.6032ZM232.073 71.2189C232.269 72.7748 233.388 74.1941 235.433 74.1941C237.473 74.1941 238.592 72.7756 238.789 71.2201C239.026 73.1071 237.907 75.1941 235.432 75.1941C232.952 75.1941 231.834 73.1062 232.073 71.2189ZM53.2816 115.547L36.6616 132.167H23.1816L6.56161 115.547V102.067L23.1816 85.4473H36.6616L53.2816 102.067V115.547Z" fill="#D9D9D9"/>
<path d="M52.7662 115.007L36.4598 131.627H23.2341L6.92773 115.007C6.92773 109.747 6.92773 106.797 6.92773 101.527L23.2341 84.9072H36.4598L52.7662 101.527V115.007Z" fill="#F48122"/>
<path d="M254.002 32.1876L237.282 48.9072H223.722L207.002 32.1876C207.002 26.8961 207.002 23.9284 207.002 18.6268L223.722 1.90723H237.282L254.002 18.6268V32.1876Z" fill="#ED1E79"/>
<path d="M120.002 32.1876L103.638 48.9072H90.3658L74.002 32.1876C74.002 26.8961 74.002 23.9284 74.002 18.6268L84.1531 8.25504L91.7246 13.4761L103.638 1.90723L120.002 18.6268V32.1876Z" fill="#FCFC01"/>
<path d="M87.8137 115.907V131.627H88.9881L72.6816 115.007C72.6816 109.747 72.6816 106.797 72.6816 101.527L81.7971 92.2168L87.8137 98.9068V101.527V106.407V115.907Z" fill="#97FF56"/>
<path d="M259.923 15.6876L258.923 13.437L248.451 3.08772L246.056 2.11448L184.284 2.04497L181.898 3.04427L172.68 12.1683L163.375 2.93999L160.761 1.87986L129.362 1.86249H124.257C124.406 1.95807 124.538 2.06235 124.669 2.19269C125.669 3.1833 125.669 4.79957 124.669 5.78149C123.669 6.7721 122.047 6.76341 121.047 5.7728C120.047 4.78219 120.038 3.17461 121.038 2.184C121.161 2.06235 121.293 1.94938 121.442 1.86249H116.346H99.1903L96.717 2.89655L87.3849 12.1596L78.0177 2.88786L75.6321 1.91462L13.965 1.79297L11.2724 2.91393L1.07198 13.0112L0.00195312 15.6007L0.0545776 46.7007L0.0721191 51.7407C0.168597 51.6017 0.273846 51.4713 0.396637 51.341C1.3965 50.3504 3.01909 50.3591 4.01895 51.341C5.01882 52.3229 5.02759 53.9479 4.02773 54.9298C3.02786 55.9117 1.40527 55.9204 0.405407 54.9298C0.282617 54.8081 0.177368 54.6778 0.0808898 54.5388L0.0984313 59.5874L0.115973 76.5755L1.15969 79.026L10.4918 88.263L1.30002 97.3784L0.168597 100.046L0.282617 161.143L1.26494 163.506L11.7197 173.882L14.0176 174.837L75.9303 174.907L78.2107 173.925L88.6303 163.576L89.6039 161.203L89.5337 100.428V99.994L88.5251 97.6391L79.1667 88.3586L87.4901 80.1296L96.8661 89.4361L99.1465 90.4267L161.059 90.505L163.348 89.5491L172.628 80.3468L181.837 89.4535L184.53 90.5832L246.197 90.6005L248.582 89.636L259.037 79.2954L260.002 77.0187L259.923 15.6789V15.6876ZM84.9115 100.072L85.2536 100.88L85.3238 160.387L84.9905 161.195L75.7461 170.371L75.0357 170.675L14.8859 170.614L14.1667 170.31L4.9048 161.117L4.57151 160.308L4.45749 100.906L4.93111 99.8028L13.9387 90.8786L14.9736 90.4615L45.5221 90.5136C45.8466 91.4956 46.408 92.4167 47.1886 93.1987C49.8549 95.8491 54.2052 95.8491 56.8715 93.1987C57.6521 92.4254 58.1959 91.5216 58.5204 90.5571L74.8164 90.5745L75.7198 90.9481L84.9115 100.072ZM50.2057 86.6033C51.2056 85.6127 52.8282 85.6127 53.828 86.6033C54.8279 87.5939 54.8367 89.2102 53.8368 90.1921C52.8369 91.1827 51.2143 91.1827 50.2145 90.1921C49.2146 89.2015 49.2058 87.5853 50.2057 86.6033ZM84.9466 76.6624L75.6847 85.8213L74.869 86.1515L74.8866 86.334L58.5291 86.3166C58.2046 85.326 57.6433 84.3962 56.8539 83.6141C54.1876 80.9638 49.8373 80.9638 47.171 83.6141C46.3904 84.3875 45.8379 85.2999 45.5134 86.2818L14.6666 86.2297L14.2193 86.6728L14.1316 86.2297H14.6666L14.807 86.0906L13.9913 85.7517L4.78201 76.6364L4.40487 75.7413L4.38733 59.5961C5.36088 59.2746 6.28181 58.7358 7.05363 57.9625C9.71994 55.3208 9.71994 51.0108 7.05363 48.3691C6.26427 47.5871 5.33457 47.0396 4.34347 46.7181L4.29085 16.4436L4.71184 15.4182L13.7282 6.49403L14.8421 6.0248L74.7989 6.13776L75.6146 6.46797L84.894 15.6529L85.201 16.3654L85.2624 75.9586L84.9554 76.6624H84.9466ZM170.488 76.002L170.154 76.8015L160.91 85.969L160.191 86.2644L100.05 86.2036L99.3307 85.8908L90.06 76.6885L89.7267 75.8717L89.6653 16.3654L90.0073 15.5573L99.1815 6.45928L100.085 6.08562H116.372C116.697 7.06755 117.249 7.98864 118.03 8.76202C120.705 11.4037 125.055 11.4123 127.722 8.76202C128.502 7.98864 129.055 7.06755 129.379 6.08562L159.919 6.11169L160.954 6.52879L170.496 15.9918V32.7366C169.505 33.0581 168.576 33.6055 167.795 34.3789C165.129 37.0205 165.129 41.3306 167.804 43.9722C168.584 44.7456 169.514 45.293 170.505 45.6232L170.523 76.002H170.479H170.488ZM170.839 40.983C169.839 39.9924 169.839 38.3848 170.839 37.3942C171.838 36.4036 173.461 36.4036 174.461 37.3942C175.461 38.3848 175.469 40.0011 174.47 40.983C173.47 41.9736 171.847 41.9649 170.847 40.9743L170.839 40.983ZM255.406 76.8797L246.153 86.0298L245.346 86.36L185.389 86.3426L184.275 85.8734L175.233 76.9231L174.812 75.8978L174.785 45.6406C175.776 45.3191 176.706 44.7803 177.487 43.9983C180.153 41.3567 180.153 37.0466 177.487 34.405C176.706 33.6316 175.776 33.0842 174.785 32.754V16.6087L175.163 15.7137L184.345 6.63307L185.161 6.29417L245.223 6.36369L246.048 6.69389L255.336 15.8701L255.652 16.5826L255.722 76.1758L255.415 76.8884L255.406 76.8797Z" fill="#110D0C"/>
<path d="M259.923 15.6876L258.923 13.437L248.451 3.08772L246.056 2.11448L184.284 2.04497L181.898 3.04427L172.68 12.1683L163.375 2.93999L160.761 1.87986L129.362 1.86249H124.257C124.406 1.95807 124.538 2.06235 124.669 2.19269C125.669 3.1833 125.669 4.79957 124.669 5.78149C123.669 6.7721 122.047 6.76341 121.047 5.7728C120.047 4.78219 120.038 3.17461 121.038 2.184C121.161 2.06235 121.293 1.94938 121.442 1.86249H116.346H99.1903L96.717 2.89655L87.3849 12.1596L78.0177 2.88786L75.6321 1.91462L13.965 1.79297L11.2724 2.91393L1.07198 13.0112L0.00195312 15.6007L0.0545776 46.7007L0.0721191 51.7407C0.168597 51.6017 0.273846 51.4713 0.396637 51.341C1.3965 50.3504 3.01909 50.3591 4.01895 51.341C5.01882 52.3229 5.02759 53.9479 4.02773 54.9298C3.02786 55.9117 1.40527 55.9204 0.405407 54.9298C0.282617 54.8081 0.177368 54.6778 0.0808898 54.5388L0.0984313 59.5874L0.115973 76.5755L1.15969 79.026L10.4918 88.263L1.30002 97.3784L0.168597 100.046L0.282617 161.143L1.26494 163.506L11.7197 173.882L14.0176 174.837L75.9303 174.907L78.2107 173.925L88.6303 163.576L89.6039 161.203L89.5337 100.428V99.994L88.5251 97.6391L79.1667 88.3586L87.4901 80.1296L96.8661 89.4361L99.1465 90.4267L161.059 90.505L163.348 89.5491L172.628 80.3468L181.837 89.4535L184.53 90.5832L246.197 90.6005L248.582 89.636L259.037 79.2954L260.002 77.0187L259.923 15.6789V15.6876ZM84.9115 100.072L85.2536 100.88L85.3238 160.387L84.9905 161.195L75.7461 170.371L75.0357 170.675L14.8859 170.614L14.1667 170.31L4.9048 161.117L4.57151 160.308L4.45749 100.906L4.93111 99.8028L13.9387 90.8786L14.9736 90.4615L45.5221 90.5136C45.8466 91.4956 46.408 92.4167 47.1886 93.1987C49.8549 95.8491 54.2052 95.8491 56.8715 93.1987C57.6521 92.4254 58.1959 91.5216 58.5204 90.5571L74.8164 90.5745L75.7198 90.9481L84.9115 100.072ZM50.2057 86.6033C51.2056 85.6127 52.8282 85.6127 53.828 86.6033C54.8279 87.5939 54.8367 89.2102 53.8368 90.1921C52.8369 91.1827 51.2143 91.1827 50.2145 90.1921C49.2146 89.2015 49.2058 87.5853 50.2057 86.6033ZM84.9466 76.6624L75.6847 85.8213L74.869 86.1515L74.8866 86.334L58.5291 86.3166C58.2046 85.326 57.6433 84.3962 56.8539 83.6141C54.1876 80.9638 49.8373 80.9638 47.171 83.6141C46.3904 84.3875 45.8379 85.2999 45.5134 86.2818L14.6666 86.2297L14.2193 86.6728L14.1316 86.2297H14.6666L14.807 86.0906L13.9913 85.7517L4.78201 76.6364L4.40487 75.7413L4.38733 59.5961C5.36088 59.2746 6.28181 58.7358 7.05363 57.9625C9.71994 55.3208 9.71994 51.0108 7.05363 48.3691C6.26427 47.5871 5.33457 47.0396 4.34347 46.7181L4.29085 16.4436L4.71184 15.4182L13.7282 6.49403L14.8421 6.0248L74.7989 6.13776L75.6146 6.46797L84.894 15.6529L85.201 16.3654L85.2624 75.9586L84.9554 76.6624H84.9466ZM170.488 76.002L170.154 76.8015L160.91 85.969L160.191 86.2644L100.05 86.2036L99.3307 85.8908L90.06 76.6885L89.7267 75.8717L89.6653 16.3654L90.0073 15.5573L99.1815 6.45928L100.085 6.08562H116.372C116.697 7.06755 117.249 7.98864 118.03 8.76202C120.705 11.4037 125.055 11.4123 127.722 8.76202C128.502 7.98864 129.055 7.06755 129.379 6.08562L159.919 6.11169L160.954 6.52879L170.496 15.9918V32.7366C169.505 33.0581 168.576 33.6055 167.795 34.3789C165.129 37.0205 165.129 41.3306 167.804 43.9722C168.584 44.7456 169.514 45.293 170.505 45.6232L170.523 76.002H170.479H170.488ZM170.839 40.983C169.839 39.9924 169.839 38.3848 170.839 37.3942C171.838 36.4036 173.461 36.4036 174.461 37.3942C175.461 38.3848 175.469 40.0011 174.47 40.983C173.47 41.9736 171.847 41.9649 170.847 40.9743L170.839 40.983ZM255.406 76.8797L246.153 86.0298L245.346 86.36L185.389 86.3426L184.275 85.8734L175.233 76.9231L174.812 75.8978L174.785 45.6406C175.776 45.3191 176.706 44.7803 177.487 43.9983C180.153 41.3567 180.153 37.0466 177.487 34.405C176.706 33.6316 175.776 33.0842 174.785 32.754V16.6087L175.163 15.7137L184.345 6.63307L185.161 6.29417L245.223 6.36369L246.048 6.69389L255.336 15.8701L255.652 16.5826L255.722 76.1758L255.415 76.8884L255.406 76.8797Z" fill="#110D0C"/>
<path d="M259.923 15.6876L258.923 13.437L248.451 3.08772L246.056 2.11448L184.284 2.04497L181.898 3.04427L172.68 12.1683L163.375 2.93999L160.761 1.87986L129.362 1.86249H124.257C124.406 1.95807 124.538 2.06235 124.669 2.19269C125.669 3.1833 125.669 4.79957 124.669 5.78149C123.669 6.7721 122.047 6.76341 121.047 5.7728C120.047 4.78219 120.038 3.17461 121.038 2.184C121.161 2.06235 121.293 1.94938 121.442 1.86249H116.346H99.1903L96.717 2.89655L87.3849 12.1596L78.0177 2.88786L75.6321 1.91462L13.965 1.79297L11.2724 2.91393L1.07198 13.0112L0.00195312 15.6007L0.0545776 46.7007L0.0721191 51.7407C0.168597 51.6017 0.273846 51.4713 0.396637 51.341C1.3965 50.3504 3.01909 50.3591 4.01895 51.341C5.01882 52.3229 5.02759 53.9479 4.02773 54.9298C3.02786 55.9117 1.40527 55.9204 0.405407 54.9298C0.282617 54.8081 0.177368 54.6778 0.0808898 54.5388L0.0984313 59.5874L0.115973 76.5755L1.15969 79.026L10.4918 88.263L1.30002 97.3784L0.168597 100.046L0.282617 161.143L1.26494 163.506L11.7197 173.882L14.0176 174.837L75.9303 174.907L78.2107 173.925L88.6303 163.576L89.6039 161.203L89.5337 100.428V99.994L88.5251 97.6391L79.1667 88.3586L87.4901 80.1296L96.8661 89.4361L99.1465 90.4267L161.059 90.505L163.348 89.5491L172.628 80.3468L181.837 89.4535L184.53 90.5832L246.197 90.6005L248.582 89.636L259.037 79.2954L260.002 77.0187L259.923 15.6789V15.6876ZM84.9115 100.072L85.2536 100.88L85.3238 160.387L84.9905 161.195L75.7461 170.371L75.0357 170.675L14.8859 170.614L14.1667 170.31L4.9048 161.117L4.57151 160.308L4.45749 100.906L4.93111 99.8028L13.9387 90.8786L14.9736 90.4615L45.5221 90.5136C45.8466 91.4956 46.408 92.4167 47.1886 93.1987C49.8549 95.8491 54.2052 95.8491 56.8715 93.1987C57.6521 92.4254 58.1959 91.5216 58.5204 90.5571L74.8164 90.5745L75.7198 90.9481L84.9115 100.072ZM50.2057 86.6033C51.2056 85.6127 52.8282 85.6127 53.828 86.6033C54.8279 87.5939 54.8367 89.2102 53.8368 90.1921C52.8369 91.1827 51.2143 91.1827 50.2145 90.1921C49.2146 89.2015 49.2058 87.5853 50.2057 86.6033ZM84.9466 76.6624L75.6847 85.8213L74.869 86.1515L74.8866 86.334L58.5291 86.3166C58.2046 85.326 57.6433 84.3962 56.8539 83.6141C54.1876 80.9638 49.8373 80.9638 47.171 83.6141C46.3904 84.3875 45.8379 85.2999 45.5134 86.2818L14.6666 86.2297L14.2193 86.6728L14.1316 86.2297H14.6666L14.807 86.0906L13.9913 85.7517L4.78201 76.6364L4.40487 75.7413L4.38733 59.5961C5.36088 59.2746 6.28181 58.7358 7.05363 57.9625C9.71994 55.3208 9.71994 51.0108 7.05363 48.3691C6.26427 47.5871 5.33457 47.0396 4.34347 46.7181L4.29085 16.4436L4.71184 15.4182L13.7282 6.49403L14.8421 6.0248L74.7989 6.13776L75.6146 6.46797L84.894 15.6529L85.201 16.3654L85.2624 75.9586L84.9554 76.6624H84.9466ZM170.488 76.002L170.154 76.8015L160.91 85.969L160.191 86.2644L100.05 86.2036L99.3307 85.8908L90.06 76.6885L89.7267 75.8717L89.6653 16.3654L90.0073 15.5573L99.1815 6.45928L100.085 6.08562H116.372C116.697 7.06755 117.249 7.98864 118.03 8.76202C120.705 11.4037 125.055 11.4123 127.722 8.76202C128.502 7.98864 129.055 7.06755 129.379 6.08562L159.919 6.11169L160.954 6.52879L170.496 15.9918V32.7366C169.505 33.0581 168.576 33.6055 167.795 34.3789C165.129 37.0205 165.129 41.3306 167.804 43.9722C168.584 44.7456 169.514 45.293 170.505 45.6232L170.523 76.002H170.479H170.488ZM170.839 40.983C169.839 39.9924 169.839 38.3848 170.839 37.3942C171.838 36.4036 173.461 36.4036 174.461 37.3942C175.461 38.3848 175.469 40.0011 174.47 40.983C173.47 41.9736 171.847 41.9649 170.847 40.9743L170.839 40.983ZM255.406 76.8797L246.153 86.0298L245.346 86.36L185.389 86.3426L184.275 85.8734L175.233 76.9231L174.812 75.8978L174.785 45.6406C175.776 45.3191 176.706 44.7803 177.487 43.9983C180.153 41.3567 180.153 37.0466 177.487 34.405C176.706 33.6316 175.776 33.0842 174.785 32.754V16.6087L175.163 15.7137L184.345 6.63307L185.161 6.29417L245.223 6.36369L246.048 6.69389L255.336 15.8701L255.652 16.5826L255.722 76.1758L255.415 76.8884L255.406 76.8797Z" fill="#110D0C"/>
<path d="M259.923 15.6876L258.923 13.437L248.451 3.08772L246.056 2.11448L184.284 2.04497L181.898 3.04427L172.68 12.1683L163.375 2.93999L160.761 1.87986L129.362 1.86249H124.257C124.406 1.95807 124.538 2.06235 124.669 2.19269C125.669 3.1833 125.669 4.79957 124.669 5.78149C123.669 6.7721 122.047 6.76341 121.047 5.7728C120.047 4.78219 120.038 3.17461 121.038 2.184C121.161 2.06235 121.293 1.94938 121.442 1.86249H116.346H99.1903L96.717 2.89655L87.3849 12.1596L78.0177 2.88786L75.6321 1.91462L13.965 1.79297L11.2724 2.91393L1.07198 13.0112L0.00195312 15.6007L0.0545776 46.7007L0.0721191 51.7407C0.168597 51.6017 0.273846 51.4713 0.396637 51.341C1.3965 50.3504 3.01909 50.3591 4.01895 51.341C5.01882 52.3229 5.02759 53.9479 4.02773 54.9298C3.02786 55.9117 1.40527 55.9204 0.405407 54.9298C0.282617 54.8081 0.177368 54.6778 0.0808898 54.5388L0.0984313 59.5874L0.115973 76.5755L1.15969 79.026L10.4918 88.263L1.30002 97.3784L0.168597 100.046L0.282617 161.143L1.26494 163.506L11.7197 173.882L14.0176 174.837L75.9303 174.907L78.2107 173.925L88.6303 163.576L89.6039 161.203L89.5337 100.428V99.994L88.5251 97.6391L79.1667 88.3586L87.4901 80.1296L96.8661 89.4361L99.1465 90.4267L161.059 90.505L163.348 89.5491L172.628 80.3468L181.837 89.4535L184.53 90.5832L246.197 90.6005L248.582 89.636L259.037 79.2954L260.002 77.0187L259.923 15.6789V15.6876ZM84.9115 100.072L85.2536 100.88L85.3238 160.387L84.9905 161.195L75.7461 170.371L75.0357 170.675L14.8859 170.614L14.1667 170.31L4.9048 161.117L4.57151 160.308L4.45749 100.906L4.93111 99.8028L13.9387 90.8786L14.9736 90.4615L45.5221 90.5136C45.8466 91.4956 46.408 92.4167 47.1886 93.1987C49.8549 95.8491 54.2052 95.8491 56.8715 93.1987C57.6521 92.4254 58.1959 91.5216 58.5204 90.5571L74.8164 90.5745L75.7198 90.9481L84.9115 100.072ZM50.2057 86.6033C51.2056 85.6127 52.8282 85.6127 53.828 86.6033C54.8279 87.5939 54.8367 89.2102 53.8368 90.1921C52.8369 91.1827 51.2143 91.1827 50.2145 90.1921C49.2146 89.2015 49.2058 87.5853 50.2057 86.6033ZM84.9466 76.6624L75.6847 85.8213L74.869 86.1515L74.8866 86.334L58.5291 86.3166C58.2046 85.326 57.6433 84.3962 56.8539 83.6141C54.1876 80.9638 49.8373 80.9638 47.171 83.6141C46.3904 84.3875 45.8379 85.2999 45.5134 86.2818L14.6666 86.2297L14.2193 86.6728L14.1316 86.2297H14.6666L14.807 86.0906L13.9913 85.7517L4.78201 76.6364L4.40487 75.7413L4.38733 59.5961C5.36088 59.2746 6.28181 58.7358 7.05363 57.9625C9.71994 55.3208 9.71994 51.0108 7.05363 48.3691C6.26427 47.5871 5.33457 47.0396 4.34347 46.7181L4.29085 16.4436L4.71184 15.4182L13.7282 6.49403L14.8421 6.0248L74.7989 6.13776L75.6146 6.46797L84.894 15.6529L85.201 16.3654L85.2624 75.9586L84.9554 76.6624H84.9466ZM170.488 76.002L170.154 76.8015L160.91 85.969L160.191 86.2644L100.05 86.2036L99.3307 85.8908L90.06 76.6885L89.7267 75.8717L89.6653 16.3654L90.0073 15.5573L99.1815 6.45928L100.085 6.08562H116.372C116.697 7.06755 117.249 7.98864 118.03 8.76202C120.705 11.4037 125.055 11.4123 127.722 8.76202C128.502 7.98864 129.055 7.06755 129.379 6.08562L159.919 6.11169L160.954 6.52879L170.496 15.9918V32.7366C169.505 33.0581 168.576 33.6055 167.795 34.3789C165.129 37.0205 165.129 41.3306 167.804 43.9722C168.584 44.7456 169.514 45.293 170.505 45.6232L170.523 76.002H170.479H170.488ZM170.839 40.983C169.839 39.9924 169.839 38.3848 170.839 37.3942C171.838 36.4036 173.461 36.4036 174.461 37.3942C175.461 38.3848 175.469 40.0011 174.47 40.983C173.47 41.9736 171.847 41.9649 170.847 40.9743L170.839 40.983ZM255.406 76.8797L246.153 86.0298L245.346 86.36L185.389 86.3426L184.275 85.8734L175.233 76.9231L174.812 75.8978L174.785 45.6406C175.776 45.3191 176.706 44.7803 177.487 43.9983C180.153 41.3567 180.153 37.0466 177.487 34.405C176.706 33.6316 175.776 33.0842 174.785 32.754V16.6087L175.163 15.7137L184.345 6.63307L185.161 6.29417L245.223 6.36369L246.048 6.69389L255.336 15.8701L255.652 16.5826L255.722 76.1758L255.415 76.8884L255.406 76.8797Z" fill="#110D0C"/>
<path d="M259.923 15.6876L258.923 13.437L248.451 3.08772L246.056 2.11448L184.284 2.04497L181.898 3.04427L172.68 12.1683L163.375 2.93999L160.761 1.87986L129.362 1.86249H124.257C124.406 1.95807 124.538 2.06235 124.669 2.19269C125.669 3.1833 125.669 4.79957 124.669 5.78149C123.669 6.7721 122.047 6.76341 121.047 5.7728C120.047 4.78219 120.038 3.17461 121.038 2.184C121.161 2.06235 121.293 1.94938 121.442 1.86249H116.346H99.1903L96.717 2.89655L87.3849 12.1596L78.0177 2.88786L75.6321 1.91462L13.965 1.79297L11.2724 2.91393L1.07198 13.0112L0.00195312 15.6007L0.0545776 46.7007L0.0721191 51.7407C0.168597 51.6017 0.273846 51.4713 0.396637 51.341C1.3965 50.3504 3.01909 50.3591 4.01895 51.341C5.01882 52.3229 5.02759 53.9479 4.02773 54.9298C3.02786 55.9117 1.40527 55.9204 0.405407 54.9298C0.282617 54.8081 0.177368 54.6778 0.0808898 54.5388L0.0984313 59.5874L0.115973 76.5755L1.15969 79.026L10.4918 88.263L1.30002 97.3784L0.168597 100.046L0.282617 161.143L1.26494 163.506L11.7197 173.882L14.0176 174.837L75.9303 174.907L78.2107 173.925L88.6303 163.576L89.6039 161.203L89.5337 100.428V99.994L88.5251 97.6391L79.1667 88.3586L87.4901 80.1296L96.8661 89.4361L99.1465 90.4267L161.059 90.505L163.348 89.5491L172.628 80.3468L181.837 89.4535L184.53 90.5832L246.197 90.6005L248.582 89.636L259.037 79.2954L260.002 77.0187L259.923 15.6789V15.6876ZM84.9115 100.072L85.2536 100.88L85.3238 160.387L84.9905 161.195L75.7461 170.371L75.0357 170.675L14.8859 170.614L14.1667 170.31L4.9048 161.117L4.57151 160.308L4.45749 100.906L4.93111 99.8028L13.9387 90.8786L14.9736 90.4615L45.5221 90.5136C45.8466 91.4956 46.408 92.4167 47.1886 93.1987C49.8549 95.8491 54.2052 95.8491 56.8715 93.1987C57.6521 92.4254 58.1959 91.5216 58.5204 90.5571L74.8164 90.5745L75.7198 90.9481L84.9115 100.072ZM50.2057 86.6033C51.2056 85.6127 52.8282 85.6127 53.828 86.6033C54.8279 87.5939 54.8367 89.2102 53.8368 90.1921C52.8369 91.1827 51.2143 91.1827 50.2145 90.1921C49.2146 89.2015 49.2058 87.5853 50.2057 86.6033ZM84.9466 76.6624L75.6847 85.8213L74.869 86.1515L74.8866 86.334L58.5291 86.3166C58.2046 85.326 57.6433 84.3962 56.8539 83.6141C54.1876 80.9638 49.8373 80.9638 47.171 83.6141C46.3904 84.3875 45.8379 85.2999 45.5134 86.2818L14.6666 86.2297L14.2193 86.6728L14.1316 86.2297H14.6666L14.807 86.0906L13.9913 85.7517L4.78201 76.6364L4.40487 75.7413L4.38733 59.5961C5.36088 59.2746 6.28181 58.7358 7.05363 57.9625C9.71994 55.3208 9.71994 51.0108 7.05363 48.3691C6.26427 47.5871 5.33457 47.0396 4.34347 46.7181L4.29085 16.4436L4.71184 15.4182L13.7282 6.49403L14.8421 6.0248L74.7989 6.13776L75.6146 6.46797L84.894 15.6529L85.201 16.3654L85.2624 75.9586L84.9554 76.6624H84.9466ZM170.488 76.002L170.154 76.8015L160.91 85.969L160.191 86.2644L100.05 86.2036L99.3307 85.8908L90.06 76.6885L89.7267 75.8717L89.6653 16.3654L90.0073 15.5573L99.1815 6.45928L100.085 6.08562H116.372C116.697 7.06755 117.249 7.98864 118.03 8.76202C120.705 11.4037 125.055 11.4123 127.722 8.76202C128.502 7.98864 129.055 7.06755 129.379 6.08562L159.919 6.11169L160.954 6.52879L170.496 15.9918V32.7366C169.505 33.0581 168.576 33.6055 167.795 34.3789C165.129 37.0205 165.129 41.3306 167.804 43.9722C168.584 44.7456 169.514 45.293 170.505 45.6232L170.523 76.002H170.479H170.488ZM170.839 40.983C169.839 39.9924 169.839 38.3848 170.839 37.3942C171.838 36.4036 173.461 36.4036 174.461 37.3942C175.461 38.3848 175.469 40.0011 174.47 40.983C173.47 41.9736 171.847 41.9649 170.847 40.9743L170.839 40.983ZM255.406 76.8797L246.153 86.0298L245.346 86.36L185.389 86.3426L184.275 85.8734L175.233 76.9231L174.812 75.8978L174.785 45.6406C175.776 45.3191 176.706 44.7803 177.487 43.9983C180.153 41.3567 180.153 37.0466 177.487 34.405C176.706 33.6316 175.776 33.0842 174.785 32.754V16.6087L175.163 15.7137L184.345 6.63307L185.161 6.29417L245.223 6.36369L246.048 6.69389L255.336 15.8701L255.652 16.5826L255.722 76.1758L255.415 76.8884L255.406 76.8797Z" fill="#110D0C"/>
<path d="M259.923 14.8193L258.923 12.5687L248.451 2.21935L246.056 1.24612L184.284 1.1766L181.898 2.17591L172.68 11.3L163.375 2.07163L160.761 1.0115L129.362 0.994122H124.257C124.406 1.08971 124.538 1.19398 124.669 1.32433C125.669 2.31494 125.669 3.9312 124.669 4.91313C123.669 5.90374 122.047 5.89505 121.047 4.90444C120.047 3.91382 120.038 2.30625 121.038 1.31564C121.161 1.19398 121.293 1.08102 121.442 0.994122H116.346H99.1903L96.717 2.02818L87.3849 11.2913L78.0177 2.01949L75.6321 1.04626L13.9825 0.907227L11.2899 2.02818L1.07198 12.1429L0.00195312 14.7324L0.0545776 45.8324L0.0721191 50.8723C0.168597 50.7333 0.273846 50.603 0.396637 50.4726C1.3965 49.482 3.01909 49.4907 4.01895 50.4726C5.01882 51.4546 5.02759 53.0795 4.02773 54.0614C3.02786 55.0434 1.40527 55.052 0.405407 54.0614C0.282617 53.9398 0.177368 53.8094 0.0808898 53.6704L0.0984313 58.719L0.115973 75.7072L1.15969 78.1577L10.4918 87.3947L1.30002 96.5101L0.168597 99.1778L0.282617 160.274L1.26494 162.638L11.7197 173.013L14.0176 173.969L75.9303 174.039L78.2107 173.057L88.6303 162.707L89.6039 160.335L89.5337 99.5601V99.1256L88.5251 96.7707L79.1667 87.4903L87.4901 79.2612L96.8661 88.5678L99.1465 89.5584L161.059 89.6366L163.348 88.6807L172.628 79.4785L181.837 88.5852L184.53 89.7148L246.197 89.7322L248.582 88.7676L259.037 78.427L260.002 76.1504L259.923 14.8106V14.8193ZM84.9115 99.2038L85.2536 100.012L85.3238 159.518L84.9905 160.326L75.7461 169.503L75.0357 169.807L14.8859 169.746L14.1667 169.442L4.9048 160.248L4.57151 159.44L4.45749 100.038L4.93111 98.9344L13.9387 90.0102L14.9736 89.5931L45.5221 89.6453C45.8466 90.6272 46.408 91.5483 47.1886 92.3304C49.8549 94.9807 54.2052 94.9807 56.8715 92.3304C57.6521 91.557 58.1959 90.6533 58.5204 89.6887L74.8164 89.7061L75.7198 90.0798L84.9115 99.2038ZM50.2057 85.735C51.2056 84.7444 52.8282 84.7444 53.828 85.735C54.8279 86.7256 54.8367 88.3418 53.8368 89.3238C52.8369 90.3144 51.2143 90.3144 50.2145 89.3238C49.2146 88.3332 49.2058 86.7169 50.2057 85.735ZM84.9466 75.7941L75.6847 84.9529L74.869 85.2831L74.8866 85.4656L58.5291 85.4482C58.2046 84.4576 57.6433 83.5278 56.8539 82.7458C54.1876 80.0954 49.8373 80.0954 47.171 82.7458C46.3904 83.5191 45.8379 84.4315 45.5134 85.4135L14.6666 85.3613L14.2193 85.8045L14.1316 85.3613H14.6666L14.807 85.2223L13.9913 84.8834L4.78201 75.768L4.40487 74.873L4.38733 58.7277C5.36088 58.4062 6.28181 57.8675 7.05363 57.0941C9.71994 54.4525 9.71994 50.1424 7.05363 47.5008C6.26427 46.7187 5.33457 46.1713 4.34347 45.8498L4.29085 15.5752L4.71184 14.5499L13.7282 5.62567L14.8421 5.15643L74.7989 5.2694L75.6146 5.5996L84.894 14.7845L85.201 15.497L85.2624 75.0902L84.9554 75.7941H84.9466ZM170.488 75.1337L170.154 75.9331L160.91 85.1006L160.191 85.3961L100.05 85.3353L99.3307 85.0224L90.06 75.8202L89.7267 75.0033L89.6653 15.497L90.0073 14.6889L99.1815 5.59091L100.085 5.21726H116.372C116.697 6.19918 117.249 7.12028 118.03 7.89365C120.705 10.5353 125.055 10.544 127.722 7.89365C128.502 7.12028 129.055 6.19918 129.379 5.21726L159.919 5.24333L160.954 5.66043L170.496 15.1234V31.8682C169.505 32.1897 168.576 32.7372 167.795 33.5106C165.129 36.1522 165.129 40.4622 167.804 43.1039C168.584 43.8772 169.514 44.4247 170.505 44.7549L170.523 75.1337H170.479H170.488ZM170.839 40.1146C169.839 39.124 169.839 37.5165 170.839 36.5258C171.838 35.5352 173.461 35.5352 174.461 36.5258C175.461 37.5165 175.469 39.1327 174.47 40.1146C173.47 41.1053 171.847 41.0966 170.847 40.106L170.839 40.1146ZM255.406 76.0113L246.153 85.1615L245.346 85.4917L185.389 85.4743L184.275 85.005L175.233 76.0548L174.812 75.0294L174.785 44.7723C175.776 44.4507 176.706 43.912 177.487 43.1299C180.153 40.4883 180.153 36.1783 177.487 33.5366C176.706 32.7633 175.776 32.2158 174.785 31.8856V15.7404L175.163 14.8453L184.345 5.76471L185.161 5.42581L245.223 5.49533L246.048 5.82553L255.336 15.0017L255.652 15.7143L255.722 75.3075L255.415 76.02L255.406 76.0113Z" fill="#C2AC93" fill-opacity="0.44"/>
<path d="M259.923 14.8193L258.923 12.5687L248.451 2.21935L246.056 1.24612L184.284 1.1766L181.898 2.17591L172.68 11.3L163.375 2.07163L160.761 1.0115L129.362 0.994122H124.257C124.406 1.08971 124.538 1.19398 124.669 1.32433C125.669 2.31494 125.669 3.9312 124.669 4.91313C123.669 5.90374 122.047 5.89505 121.047 4.90444C120.047 3.91382 120.038 2.30625 121.038 1.31564C121.161 1.19398 121.293 1.08102 121.442 0.994122H116.346H99.1903L96.717 2.02818L87.3849 11.2913L78.0177 2.01949L75.6321 1.04626L13.9825 0.907227L11.2899 2.02818L1.07198 12.1429L0.00195312 14.7324L0.0545776 45.8324L0.0721191 50.8723C0.168597 50.7333 0.273846 50.603 0.396637 50.4726C1.3965 49.482 3.01909 49.4907 4.01895 50.4726C5.01882 51.4546 5.02759 53.0795 4.02773 54.0614C3.02786 55.0434 1.40527 55.052 0.405407 54.0614C0.282617 53.9398 0.177368 53.8094 0.0808898 53.6704L0.0984313 58.719L0.115973 75.7072L1.15969 78.1577L10.4918 87.3947L1.30002 96.5101L0.168597 99.1778L0.282617 160.274L1.26494 162.638L11.7197 173.013L14.0176 173.969L75.9303 174.039L78.2107 173.057L88.6303 162.707L89.6039 160.335L89.5337 99.5601V99.1256L88.5251 96.7707L79.1667 87.4903L87.4901 79.2612L96.8661 88.5678L99.1465 89.5584L161.059 89.6366L163.348 88.6807L172.628 79.4785L181.837 88.5852L184.53 89.7148L246.197 89.7322L248.582 88.7676L259.037 78.427L260.002 76.1504L259.923 14.8106V14.8193ZM84.9115 99.2038L85.2536 100.012L85.3238 159.518L84.9905 160.326L75.7461 169.503L75.0357 169.807L14.8859 169.746L14.1667 169.442L4.9048 160.248L4.57151 159.44L4.45749 100.038L4.93111 98.9344L13.9387 90.0102L14.9736 89.5931L45.5221 89.6453C45.8466 90.6272 46.408 91.5483 47.1886 92.3304C49.8549 94.9807 54.2052 94.9807 56.8715 92.3304C57.6521 91.557 58.1959 90.6533 58.5204 89.6887L74.8164 89.7061L75.7198 90.0798L84.9115 99.2038ZM50.2057 85.735C51.2056 84.7444 52.8282 84.7444 53.828 85.735C54.8279 86.7256 54.8367 88.3418 53.8368 89.3238C52.8369 90.3144 51.2143 90.3144 50.2145 89.3238C49.2146 88.3332 49.2058 86.7169 50.2057 85.735ZM84.9466 75.7941L75.6847 84.9529L74.869 85.2831L74.8866 85.4656L58.5291 85.4482C58.2046 84.4576 57.6433 83.5278 56.8539 82.7458C54.1876 80.0954 49.8373 80.0954 47.171 82.7458C46.3904 83.5191 45.8379 84.4315 45.5134 85.4135L14.6666 85.3613L14.2193 85.8045L14.1316 85.3613H14.6666L14.807 85.2223L13.9913 84.8834L4.78201 75.768L4.40487 74.873L4.38733 58.7277C5.36088 58.4062 6.28181 57.8675 7.05363 57.0941C9.71994 54.4525 9.71994 50.1424 7.05363 47.5008C6.26427 46.7187 5.33457 46.1713 4.34347 45.8498L4.29085 15.5752L4.71184 14.5499L13.7282 5.62567L14.8421 5.15643L74.7989 5.2694L75.6146 5.5996L84.894 14.7845L85.201 15.497L85.2624 75.0902L84.9554 75.7941H84.9466ZM170.488 75.1337L170.154 75.9331L160.91 85.1006L160.191 85.3961L100.05 85.3353L99.3307 85.0224L90.06 75.8202L89.7267 75.0033L89.6653 15.497L90.0073 14.6889L99.1815 5.59091L100.085 5.21726H116.372C116.697 6.19918 117.249 7.12028 118.03 7.89365C120.705 10.5353 125.055 10.544 127.722 7.89365C128.502 7.12028 129.055 6.19918 129.379 5.21726L159.919 5.24333L160.954 5.66043L170.496 15.1234V31.8682C169.505 32.1897 168.576 32.7372 167.795 33.5106C165.129 36.1522 165.129 40.4622 167.804 43.1039C168.584 43.8772 169.514 44.4247 170.505 44.7549L170.523 75.1337H170.479H170.488ZM170.839 40.1146C169.839 39.124 169.839 37.5165 170.839 36.5258C171.838 35.5352 173.461 35.5352 174.461 36.5258C175.461 37.5165 175.469 39.1327 174.47 40.1146C173.47 41.1053 171.847 41.0966 170.847 40.106L170.839 40.1146ZM255.406 76.0113L246.153 85.1615L245.346 85.4917L185.389 85.4743L184.275 85.005L175.233 76.0548L174.812 75.0294L174.785 44.7723C175.776 44.4507 176.706 43.912 177.487 43.1299C180.153 40.4883 180.153 36.1783 177.487 33.5366C176.706 32.7633 175.776 32.2158 174.785 31.8856V15.7404L175.163 14.8453L184.345 5.76471L185.161 5.42581L245.223 5.49533L246.048 5.82553L255.336 15.0017L255.652 15.7143L255.722 75.3075L255.415 76.02L255.406 76.0113Z" fill="white"/>
<path d="M259.923 14.8193L258.923 12.5687L248.451 2.21935L246.056 1.24612L184.284 1.1766L181.898 2.17591L172.68 11.3L163.375 2.07163L160.761 1.0115L129.362 0.994122H124.257C124.406 1.08971 124.538 1.19398 124.669 1.32433C125.669 2.31494 125.669 3.9312 124.669 4.91313C123.669 5.90374 122.047 5.89505 121.047 4.90444C120.047 3.91382 120.038 2.30625 121.038 1.31564C121.161 1.19398 121.293 1.08102 121.442 0.994122H116.346H99.1903L96.717 2.02818L87.3849 11.2913L78.0177 2.01949L75.6321 1.04626L13.9825 0.907227L11.2899 2.02818L1.07198 12.1429L0.00195312 14.7324L0.0545776 45.8324L0.0721191 50.8723C0.168597 50.7333 0.273846 50.603 0.396637 50.4726C1.3965 49.482 3.01909 49.4907 4.01895 50.4726C5.01882 51.4546 5.02759 53.0795 4.02773 54.0614C3.02786 55.0434 1.40527 55.052 0.405407 54.0614C0.282617 53.9398 0.177368 53.8094 0.0808898 53.6704L0.0984313 58.719L0.115973 75.7072L1.15969 78.1577L10.4918 87.3947L1.30002 96.5101L0.168597 99.1778L0.282617 160.274L1.26494 162.638L11.7197 173.013L14.0176 173.969L75.9303 174.039L78.2107 173.057L88.6303 162.707L89.6039 160.335L89.5337 99.5601V99.1256L88.5251 96.7707L79.1667 87.4903L87.4901 79.2612L96.8661 88.5678L99.1465 89.5584L161.059 89.6366L163.348 88.6807L172.628 79.4785L181.837 88.5852L184.53 89.7148L246.197 89.7322L248.582 88.7676L259.037 78.427L260.002 76.1504L259.923 14.8106V14.8193ZM84.9115 99.2038L85.2536 100.012L85.3238 159.518L84.9905 160.326L75.7461 169.503L75.0357 169.807L14.8859 169.746L14.1667 169.442L4.9048 160.248L4.57151 159.44L4.45749 100.038L4.93111 98.9344L13.9387 90.0102L14.9736 89.5931L45.5221 89.6453C45.8466 90.6272 46.408 91.5483 47.1886 92.3304C49.8549 94.9807 54.2052 94.9807 56.8715 92.3304C57.6521 91.557 58.1959 90.6533 58.5204 89.6887L74.8164 89.7061L75.7198 90.0798L84.9115 99.2038ZM50.2057 85.735C51.2056 84.7444 52.8282 84.7444 53.828 85.735C54.8279 86.7256 54.8367 88.3418 53.8368 89.3238C52.8369 90.3144 51.2143 90.3144 50.2145 89.3238C49.2146 88.3332 49.2058 86.7169 50.2057 85.735ZM84.9466 75.7941L75.6847 84.9529L74.869 85.2831L74.8866 85.4656L58.5291 85.4482C58.2046 84.4576 57.6433 83.5278 56.8539 82.7458C54.1876 80.0954 49.8373 80.0954 47.171 82.7458C46.3904 83.5191 45.8379 84.4315 45.5134 85.4135L14.6666 85.3613L14.2193 85.8045L14.1316 85.3613H14.6666L14.807 85.2223L13.9913 84.8834L4.78201 75.768L4.40487 74.873L4.38733 58.7277C5.36088 58.4062 6.28181 57.8675 7.05363 57.0941C9.71994 54.4525 9.71994 50.1424 7.05363 47.5008C6.26427 46.7187 5.33457 46.1713 4.34347 45.8498L4.29085 15.5752L4.71184 14.5499L13.7282 5.62567L14.8421 5.15643L74.7989 5.2694L75.6146 5.5996L84.894 14.7845L85.201 15.497L85.2624 75.0902L84.9554 75.7941H84.9466ZM170.488 75.1337L170.154 75.9331L160.91 85.1006L160.191 85.3961L100.05 85.3353L99.3307 85.0224L90.06 75.8202L89.7267 75.0033L89.6653 15.497L90.0073 14.6889L99.1815 5.59091L100.085 5.21726H116.372C116.697 6.19918 117.249 7.12028 118.03 7.89365C120.705 10.5353 125.055 10.544 127.722 7.89365C128.502 7.12028 129.055 6.19918 129.379 5.21726L159.919 5.24333L160.954 5.66043L170.496 15.1234V31.8682C169.505 32.1897 168.576 32.7372 167.795 33.5106C165.129 36.1522 165.129 40.4622 167.804 43.1039C168.584 43.8772 169.514 44.4247 170.505 44.7549L170.523 75.1337H170.479H170.488ZM170.839 40.1146C169.839 39.124 169.839 37.5165 170.839 36.5258C171.838 35.5352 173.461 35.5352 174.461 36.5258C175.461 37.5165 175.469 39.1327 174.47 40.1146C173.47 41.1053 171.847 41.0966 170.847 40.106L170.839 40.1146ZM255.406 76.0113L246.153 85.1615L245.346 85.4917L185.389 85.4743L184.275 85.005L175.233 76.0548L174.812 75.0294L174.785 44.7723C175.776 44.4507 176.706 43.912 177.487 43.1299C180.153 40.4883 180.153 36.1783 177.487 33.5366C176.706 32.7633 175.776 32.2158 174.785 31.8856V15.7404L175.163 14.8453L184.345 5.76471L185.161 5.42581L245.223 5.49533L246.048 5.82553L255.336 15.0017L255.652 15.7143L255.722 75.3075L255.415 76.02L255.406 76.0113Z" fill="white"/>
<path d="M259.923 14.8193L258.923 12.5687L248.451 2.21935L246.056 1.24612L184.284 1.1766L181.898 2.17591L172.68 11.3L163.375 2.07163L160.761 1.0115L129.362 0.994122H124.257C124.406 1.08971 124.538 1.19398 124.669 1.32433C125.669 2.31494 125.669 3.9312 124.669 4.91313C123.669 5.90374 122.047 5.89505 121.047 4.90444C120.047 3.91382 120.038 2.30625 121.038 1.31564C121.161 1.19398 121.293 1.08102 121.442 0.994122H116.346H99.1903L96.717 2.02818L87.3849 11.2913L78.0177 2.01949L75.6321 1.04626L13.9825 0.907227L11.2899 2.02818L1.07198 12.1429L0.00195312 14.7324L0.0545776 45.8324L0.0721191 50.8723C0.168597 50.7333 0.273846 50.603 0.396637 50.4726C1.3965 49.482 3.01909 49.4907 4.01895 50.4726C5.01882 51.4546 5.02759 53.0795 4.02773 54.0614C3.02786 55.0434 1.40527 55.052 0.405407 54.0614C0.282617 53.9398 0.177368 53.8094 0.0808898 53.6704L0.0984313 58.719L0.115973 75.7072L1.15969 78.1577L10.4918 87.3947L1.30002 96.5101L0.168597 99.1778L0.282617 160.274L1.26494 162.638L11.7197 173.013L14.0176 173.969L75.9303 174.039L78.2107 173.057L88.6303 162.707L89.6039 160.335L89.5337 99.5601V99.1256L88.5251 96.7707L79.1667 87.4903L87.4901 79.2612L96.8661 88.5678L99.1465 89.5584L161.059 89.6366L163.348 88.6807L172.628 79.4785L181.837 88.5852L184.53 89.7148L246.197 89.7322L248.582 88.7676L259.037 78.427L260.002 76.1504L259.923 14.8106V14.8193ZM84.9115 99.2038L85.2536 100.012L85.3238 159.518L84.9905 160.326L75.7461 169.503L75.0357 169.807L14.8859 169.746L14.1667 169.442L4.9048 160.248L4.57151 159.44L4.45749 100.038L4.93111 98.9344L13.9387 90.0102L14.9736 89.5931L45.5221 89.6453C45.8466 90.6272 46.408 91.5483 47.1886 92.3304C49.8549 94.9807 54.2052 94.9807 56.8715 92.3304C57.6521 91.557 58.1959 90.6533 58.5204 89.6887L74.8164 89.7061L75.7198 90.0798L84.9115 99.2038ZM50.2057 85.735C51.2056 84.7444 52.8282 84.7444 53.828 85.735C54.8279 86.7256 54.8367 88.3418 53.8368 89.3238C52.8369 90.3144 51.2143 90.3144 50.2145 89.3238C49.2146 88.3332 49.2058 86.7169 50.2057 85.735ZM84.9466 75.7941L75.6847 84.9529L74.869 85.2831L74.8866 85.4656L58.5291 85.4482C58.2046 84.4576 57.6433 83.5278 56.8539 82.7458C54.1876 80.0954 49.8373 80.0954 47.171 82.7458C46.3904 83.5191 45.8379 84.4315 45.5134 85.4135L14.6666 85.3613L14.2193 85.8045L14.1316 85.3613H14.6666L14.807 85.2223L13.9913 84.8834L4.78201 75.768L4.40487 74.873L4.38733 58.7277C5.36088 58.4062 6.28181 57.8675 7.05363 57.0941C9.71994 54.4525 9.71994 50.1424 7.05363 47.5008C6.26427 46.7187 5.33457 46.1713 4.34347 45.8498L4.29085 15.5752L4.71184 14.5499L13.7282 5.62567L14.8421 5.15643L74.7989 5.2694L75.6146 5.5996L84.894 14.7845L85.201 15.497L85.2624 75.0902L84.9554 75.7941H84.9466ZM170.488 75.1337L170.154 75.9331L160.91 85.1006L160.191 85.3961L100.05 85.3353L99.3307 85.0224L90.06 75.8202L89.7267 75.0033L89.6653 15.497L90.0073 14.6889L99.1815 5.59091L100.085 5.21726H116.372C116.697 6.19918 117.249 7.12028 118.03 7.89365C120.705 10.5353 125.055 10.544 127.722 7.89365C128.502 7.12028 129.055 6.19918 129.379 5.21726L159.919 5.24333L160.954 5.66043L170.496 15.1234V31.8682C169.505 32.1897 168.576 32.7372 167.795 33.5106C165.129 36.1522 165.129 40.4622 167.804 43.1039C168.584 43.8772 169.514 44.4247 170.505 44.7549L170.523 75.1337H170.479H170.488ZM170.839 40.1146C169.839 39.124 169.839 37.5165 170.839 36.5258C171.838 35.5352 173.461 35.5352 174.461 36.5258C175.461 37.5165 175.469 39.1327 174.47 40.1146C173.47 41.1053 171.847 41.0966 170.847 40.106L170.839 40.1146ZM255.406 76.0113L246.153 85.1615L245.346 85.4917L185.389 85.4743L184.275 85.005L175.233 76.0548L174.812 75.0294L174.785 44.7723C175.776 44.4507 176.706 43.912 177.487 43.1299C180.153 40.4883 180.153 36.1783 177.487 33.5366C176.706 32.7633 175.776 32.2158 174.785 31.8856V15.7404L175.163 14.8453L184.345 5.76471L185.161 5.42581L245.223 5.49533L246.048 5.82553L255.336 15.0017L255.652 15.7143L255.722 75.3075L255.415 76.02L255.406 76.0113Z" fill="white"/>
<path d="M259.923 14.8193L258.923 12.5687L248.451 2.21935L246.056 1.24612L184.284 1.1766L181.898 2.17591L172.68 11.3L163.375 2.07163L160.761 1.0115L129.362 0.994122H124.257C124.406 1.08971 124.538 1.19398 124.669 1.32433C125.669 2.31494 125.669 3.9312 124.669 4.91313C123.669 5.90374 122.047 5.89505 121.047 4.90444C120.047 3.91382 120.038 2.30625 121.038 1.31564C121.161 1.19398 121.293 1.08102 121.442 0.994122H116.346H99.1903L96.717 2.02818L87.3849 11.2913L78.0177 2.01949L75.6321 1.04626L13.9825 0.907227L11.2899 2.02818L1.07198 12.1429L0.00195312 14.7324L0.0545776 45.8324L0.0721191 50.8723C0.168597 50.7333 0.273846 50.603 0.396637 50.4726C1.3965 49.482 3.01909 49.4907 4.01895 50.4726C5.01882 51.4546 5.02759 53.0795 4.02773 54.0614C3.02786 55.0434 1.40527 55.052 0.405407 54.0614C0.282617 53.9398 0.177368 53.8094 0.0808898 53.6704L0.0984313 58.719L0.115973 75.7072L1.15969 78.1577L10.4918 87.3947L1.30002 96.5101L0.168597 99.1778L0.282617 160.274L1.26494 162.638L11.7197 173.013L14.0176 173.969L75.9303 174.039L78.2107 173.057L88.6303 162.707L89.6039 160.335L89.5337 99.5601V99.1256L88.5251 96.7707L79.1667 87.4903L87.4901 79.2612L96.8661 88.5678L99.1465 89.5584L161.059 89.6366L163.348 88.6807L172.628 79.4785L181.837 88.5852L184.53 89.7148L246.197 89.7322L248.582 88.7676L259.037 78.427L260.002 76.1504L259.923 14.8106V14.8193ZM84.9115 99.2038L85.2536 100.012L85.3238 159.518L84.9905 160.326L75.7461 169.503L75.0357 169.807L14.8859 169.746L14.1667 169.442L4.9048 160.248L4.57151 159.44L4.45749 100.038L4.93111 98.9344L13.9387 90.0102L14.9736 89.5931L45.5221 89.6453C45.8466 90.6272 46.408 91.5483 47.1886 92.3304C49.8549 94.9807 54.2052 94.9807 56.8715 92.3304C57.6521 91.557 58.1959 90.6533 58.5204 89.6887L74.8164 89.7061L75.7198 90.0798L84.9115 99.2038ZM50.2057 85.735C51.2056 84.7444 52.8282 84.7444 53.828 85.735C54.8279 86.7256 54.8367 88.3418 53.8368 89.3238C52.8369 90.3144 51.2143 90.3144 50.2145 89.3238C49.2146 88.3332 49.2058 86.7169 50.2057 85.735ZM84.9466 75.7941L75.6847 84.9529L74.869 85.2831L74.8866 85.4656L58.5291 85.4482C58.2046 84.4576 57.6433 83.5278 56.8539 82.7458C54.1876 80.0954 49.8373 80.0954 47.171 82.7458C46.3904 83.5191 45.8379 84.4315 45.5134 85.4135L14.6666 85.3613L14.2193 85.8045L14.1316 85.3613H14.6666L14.807 85.2223L13.9913 84.8834L4.78201 75.768L4.40487 74.873L4.38733 58.7277C5.36088 58.4062 6.28181 57.8675 7.05363 57.0941C9.71994 54.4525 9.71994 50.1424 7.05363 47.5008C6.26427 46.7187 5.33457 46.1713 4.34347 45.8498L4.29085 15.5752L4.71184 14.5499L13.7282 5.62567L14.8421 5.15643L74.7989 5.2694L75.6146 5.5996L84.894 14.7845L85.201 15.497L85.2624 75.0902L84.9554 75.7941H84.9466ZM170.488 75.1337L170.154 75.9331L160.91 85.1006L160.191 85.3961L100.05 85.3353L99.3307 85.0224L90.06 75.8202L89.7267 75.0033L89.6653 15.497L90.0073 14.6889L99.1815 5.59091L100.085 5.21726H116.372C116.697 6.19918 117.249 7.12028 118.03 7.89365C120.705 10.5353 125.055 10.544 127.722 7.89365C128.502 7.12028 129.055 6.19918 129.379 5.21726L159.919 5.24333L160.954 5.66043L170.496 15.1234V31.8682C169.505 32.1897 168.576 32.7372 167.795 33.5106C165.129 36.1522 165.129 40.4622 167.804 43.1039C168.584 43.8772 169.514 44.4247 170.505 44.7549L170.523 75.1337H170.479H170.488ZM170.839 40.1146C169.839 39.124 169.839 37.5165 170.839 36.5258C171.838 35.5352 173.461 35.5352 174.461 36.5258C175.461 37.5165 175.469 39.1327 174.47 40.1146C173.47 41.1053 171.847 41.0966 170.847 40.106L170.839 40.1146ZM255.406 76.0113L246.153 85.1615L245.346 85.4917L185.389 85.4743L184.275 85.005L175.233 76.0548L174.812 75.0294L174.785 44.7723C175.776 44.4507 176.706 43.912 177.487 43.1299C180.153 40.4883 180.153 36.1783 177.487 33.5366C176.706 32.7633 175.776 32.2158 174.785 31.8856V15.7404L175.163 14.8453L184.345 5.76471L185.161 5.42581L245.223 5.49533L246.048 5.82553L255.336 15.0017L255.652 15.7143L255.722 75.3075L255.415 76.02L255.406 76.0113Z" fill="#A8A8A8"/>
<path d="M70.0676 19.4852C67.3925 16.8348 63.051 16.8262 60.3847 19.4765C59.6041 20.2498 59.0516 21.1709 58.727 22.1529L43.3695 22.1355C43.0449 21.1536 42.4924 20.2325 41.703 19.4591C39.0367 16.8175 34.6864 16.8088 32.0201 19.4591C29.3538 22.1007 29.3538 26.4108 32.0289 29.0524C34.6952 31.7027 39.0455 31.7027 41.7118 29.0524C42.4924 28.279 43.0449 27.3579 43.3695 26.3847L58.7183 26.4021C59.0428 27.384 59.5953 28.2964 60.3847 29.0785C63.0598 31.7288 67.4101 31.7375 70.0676 29.0872C72.7339 26.4455 72.7339 22.1355 70.0676 19.4939V19.4852ZM38.6771 26.0458C37.6773 27.0364 36.0547 27.0364 35.0548 26.0458C34.0549 25.0552 34.0462 23.4389 35.046 22.457C36.0459 21.4751 37.6685 21.4751 38.6683 22.457C39.6682 23.4476 39.677 25.0639 38.6771 26.0458ZM67.0417 26.0806C66.0418 27.0712 64.4193 27.0625 63.4194 26.0719C62.4195 25.0813 62.4195 23.4737 63.4194 22.4831C64.4193 21.4925 66.0418 21.5011 67.0417 22.4918C68.0416 23.4824 68.0416 25.0986 67.0417 26.0806Z" fill="#110D0C"/>
<path d="M70.0676 19.4852C67.3925 16.8348 63.051 16.8262 60.3847 19.4765C59.6041 20.2498 59.0516 21.1709 58.727 22.1529L43.3695 22.1355C43.0449 21.1536 42.4924 20.2325 41.703 19.4591C39.0367 16.8175 34.6864 16.8088 32.0201 19.4591C29.3538 22.1007 29.3538 26.4108 32.0289 29.0524C34.6952 31.7027 39.0455 31.7027 41.7118 29.0524C42.4924 28.279 43.0449 27.3579 43.3695 26.3847L58.7183 26.4021C59.0428 27.384 59.5953 28.2964 60.3847 29.0785C63.0598 31.7288 67.4101 31.7375 70.0676 29.0872C72.7339 26.4455 72.7339 22.1355 70.0676 19.4939V19.4852ZM38.6771 26.0458C37.6773 27.0364 36.0547 27.0364 35.0548 26.0458C34.0549 25.0552 34.0462 23.4389 35.046 22.457C36.0459 21.4751 37.6685 21.4751 38.6683 22.457C39.6682 23.4476 39.677 25.0639 38.6771 26.0458ZM67.0417 26.0806C66.0418 27.0712 64.4193 27.0625 63.4194 26.0719C62.4195 25.0813 62.4195 23.4737 63.4194 22.4831C64.4193 21.4925 66.0418 21.5011 67.0417 22.4918C68.0416 23.4824 68.0416 25.0986 67.0417 26.0806Z" fill="#110D0C"/>
<path d="M70.0676 19.4852C67.3925 16.8348 63.051 16.8262 60.3847 19.4765C59.6041 20.2498 59.0516 21.1709 58.727 22.1529L43.3695 22.1355C43.0449 21.1536 42.4924 20.2325 41.703 19.4591C39.0367 16.8175 34.6864 16.8088 32.0201 19.4591C29.3538 22.1007 29.3538 26.4108 32.0289 29.0524C34.6952 31.7027 39.0455 31.7027 41.7118 29.0524C42.4924 28.279 43.0449 27.3579 43.3695 26.3847L58.7183 26.4021C59.0428 27.384 59.5953 28.2964 60.3847 29.0785C63.0598 31.7288 67.4101 31.7375 70.0676 29.0872C72.7339 26.4455 72.7339 22.1355 70.0676 19.4939V19.4852ZM38.6771 26.0458C37.6773 27.0364 36.0547 27.0364 35.0548 26.0458C34.0549 25.0552 34.0462 23.4389 35.046 22.457C36.0459 21.4751 37.6685 21.4751 38.6683 22.457C39.6682 23.4476 39.677 25.0639 38.6771 26.0458ZM67.0417 26.0806C66.0418 27.0712 64.4193 27.0625 63.4194 26.0719C62.4195 25.0813 62.4195 23.4737 63.4194 22.4831C64.4193 21.4925 66.0418 21.5011 67.0417 22.4918C68.0416 23.4824 68.0416 25.0986 67.0417 26.0806Z" fill="#110D0C"/>
<path d="M70.0676 19.4852C67.3925 16.8348 63.051 16.8262 60.3847 19.4765C59.6041 20.2498 59.0516 21.1709 58.727 22.1529L43.3695 22.1355C43.0449 21.1536 42.4924 20.2325 41.703 19.4591C39.0367 16.8175 34.6864 16.8088 32.0201 19.4591C29.3538 22.1007 29.3538 26.4108 32.0289 29.0524C34.6952 31.7027 39.0455 31.7027 41.7118 29.0524C42.4924 28.279 43.0449 27.3579 43.3695 26.3847L58.7183 26.4021C59.0428 27.384 59.5953 28.2964 60.3847 29.0785C63.0598 31.7288 67.4101 31.7375 70.0676 29.0872C72.7339 26.4455 72.7339 22.1355 70.0676 19.4939V19.4852ZM38.6771 26.0458C37.6773 27.0364 36.0547 27.0364 35.0548 26.0458C34.0549 25.0552 34.0462 23.4389 35.046 22.457C36.0459 21.4751 37.6685 21.4751 38.6683 22.457C39.6682 23.4476 39.677 25.0639 38.6771 26.0458ZM67.0417 26.0806C66.0418 27.0712 64.4193 27.0625 63.4194 26.0719C62.4195 25.0813 62.4195 23.4737 63.4194 22.4831C64.4193 21.4925 66.0418 21.5011 67.0417 22.4918C68.0416 23.4824 68.0416 25.0986 67.0417 26.0806Z" fill="#110D0C"/>
<path d="M70.0676 19.4852C67.3925 16.8348 63.051 16.8262 60.3847 19.4765C59.6041 20.2498 59.0516 21.1709 58.727 22.1529L43.3695 22.1355C43.0449 21.1536 42.4924 20.2325 41.703 19.4591C39.0367 16.8175 34.6864 16.8088 32.0201 19.4591C29.3538 22.1007 29.3538 26.4108 32.0289 29.0524C34.6952 31.7027 39.0455 31.7027 41.7118 29.0524C42.4924 28.279 43.0449 27.3579 43.3695 26.3847L58.7183 26.4021C59.0428 27.384 59.5953 28.2964 60.3847 29.0785C63.0598 31.7288 67.4101 31.7375 70.0676 29.0872C72.7339 26.4455 72.7339 22.1355 70.0676 19.4939V19.4852ZM38.6771 26.0458C37.6773 27.0364 36.0547 27.0364 35.0548 26.0458C34.0549 25.0552 34.0462 23.4389 35.046 22.457C36.0459 21.4751 37.6685 21.4751 38.6683 22.457C39.6682 23.4476 39.677 25.0639 38.6771 26.0458ZM67.0417 26.0806C66.0418 27.0712 64.4193 27.0625 63.4194 26.0719C62.4195 25.0813 62.4195 23.4737 63.4194 22.4831C64.4193 21.4925 66.0418 21.5011 67.0417 22.4918C68.0416 23.4824 68.0416 25.0986 67.0417 26.0806Z" fill="#110D0C"/>
<path d="M70.0676 18.618C67.3925 15.9677 63.051 15.959 60.3847 18.6093C59.6041 19.3827 59.0516 20.3038 58.727 21.2857L43.3695 21.2683C43.0449 20.2864 42.4924 19.3653 41.703 18.5919C39.0367 15.9503 34.6864 15.9416 32.0201 18.5919C29.3538 21.2335 29.3538 25.5436 32.0289 28.1852C34.6952 30.8355 39.0455 30.8355 41.7118 28.1852C42.4924 27.4118 43.0449 26.4907 43.3695 25.5175L58.7183 25.5349C59.0428 26.5168 59.5953 27.4292 60.3847 28.2113C63.0598 30.8616 67.4101 30.8703 70.0676 28.22C72.7339 25.5783 72.7339 21.2683 70.0676 18.6267V18.618ZM38.6771 25.1786C37.6773 26.1692 36.0547 26.1692 35.0548 25.1786C34.0549 24.188 34.0462 22.5717 35.046 21.5898C36.0459 20.6079 37.6685 20.6079 38.6683 21.5898C39.6682 22.5804 39.677 24.1967 38.6771 25.1786ZM67.0417 25.2134C66.0418 26.204 64.4193 26.1953 63.4194 25.2047C62.4195 24.2141 62.4195 22.6065 63.4194 21.6159C64.4193 20.6253 66.0418 20.634 67.0417 21.6246C68.0416 22.6152 68.0416 24.2314 67.0417 25.2134Z" fill="white"/>
<path d="M70.0676 18.618C67.3925 15.9677 63.051 15.959 60.3847 18.6093C59.6041 19.3827 59.0516 20.3038 58.727 21.2857L43.3695 21.2683C43.0449 20.2864 42.4924 19.3653 41.703 18.5919C39.0367 15.9503 34.6864 15.9416 32.0201 18.5919C29.3538 21.2335 29.3538 25.5436 32.0289 28.1852C34.6952 30.8355 39.0455 30.8355 41.7118 28.1852C42.4924 27.4118 43.0449 26.4907 43.3695 25.5175L58.7183 25.5349C59.0428 26.5168 59.5953 27.4292 60.3847 28.2113C63.0598 30.8616 67.4101 30.8703 70.0676 28.22C72.7339 25.5783 72.7339 21.2683 70.0676 18.6267V18.618ZM38.6771 25.1786C37.6773 26.1692 36.0547 26.1692 35.0548 25.1786C34.0549 24.188 34.0462 22.5717 35.046 21.5898C36.0459 20.6079 37.6685 20.6079 38.6683 21.5898C39.6682 22.5804 39.677 24.1967 38.6771 25.1786ZM67.0417 25.2134C66.0418 26.204 64.4193 26.1953 63.4194 25.2047C62.4195 24.2141 62.4195 22.6065 63.4194 21.6159C64.4193 20.6253 66.0418 20.634 67.0417 21.6246C68.0416 22.6152 68.0416 24.2314 67.0417 25.2134Z" fill="white"/>
<path d="M70.0676 18.618C67.3925 15.9677 63.051 15.959 60.3847 18.6093C59.6041 19.3827 59.0516 20.3038 58.727 21.2857L43.3695 21.2683C43.0449 20.2864 42.4924 19.3653 41.703 18.5919C39.0367 15.9503 34.6864 15.9416 32.0201 18.5919C29.3538 21.2335 29.3538 25.5436 32.0289 28.1852C34.6952 30.8355 39.0455 30.8355 41.7118 28.1852C42.4924 27.4118 43.0449 26.4907 43.3695 25.5175L58.7183 25.5349C59.0428 26.5168 59.5953 27.4292 60.3847 28.2113C63.0598 30.8616 67.4101 30.8703 70.0676 28.22C72.7339 25.5783 72.7339 21.2683 70.0676 18.6267V18.618ZM38.6771 25.1786C37.6773 26.1692 36.0547 26.1692 35.0548 25.1786C34.0549 24.188 34.0462 22.5717 35.046 21.5898C36.0459 20.6079 37.6685 20.6079 38.6683 21.5898C39.6682 22.5804 39.677 24.1967 38.6771 25.1786ZM67.0417 25.2134C66.0418 26.204 64.4193 26.1953 63.4194 25.2047C62.4195 24.2141 62.4195 22.6065 63.4194 21.6159C64.4193 20.6253 66.0418 20.634 67.0417 21.6246C68.0416 22.6152 68.0416 24.2314 67.0417 25.2134Z" fill="white"/>
<path d="M70.0676 18.618C67.3925 15.9677 63.051 15.959 60.3847 18.6093C59.6041 19.3827 59.0516 20.3038 58.727 21.2857L43.3695 21.2683C43.0449 20.2864 42.4924 19.3653 41.703 18.5919C39.0367 15.9503 34.6864 15.9416 32.0201 18.5919C29.3538 21.2335 29.3538 25.5436 32.0289 28.1852C34.6952 30.8355 39.0455 30.8355 41.7118 28.1852C42.4924 27.4118 43.0449 26.4907 43.3695 25.5175L58.7183 25.5349C59.0428 26.5168 59.5953 27.4292 60.3847 28.2113C63.0598 30.8616 67.4101 30.8703 70.0676 28.22C72.7339 25.5783 72.7339 21.2683 70.0676 18.6267V18.618ZM38.6771 25.1786C37.6773 26.1692 36.0547 26.1692 35.0548 25.1786C34.0549 24.188 34.0462 22.5717 35.046 21.5898C36.0459 20.6079 37.6685 20.6079 38.6683 21.5898C39.6682 22.5804 39.677 24.1967 38.6771 25.1786ZM67.0417 25.2134C66.0418 26.204 64.4193 26.1953 63.4194 25.2047C62.4195 24.2141 62.4195 22.6065 63.4194 21.6159C64.4193 20.6253 66.0418 20.634 67.0417 21.6246C68.0416 22.6152 68.0416 24.2314 67.0417 25.2134Z" fill="white"/>
<path d="M70.0676 18.618C67.3925 15.9677 63.051 15.959 60.3847 18.6093C59.6041 19.3827 59.0516 20.3038 58.727 21.2857L43.3695 21.2683C43.0449 20.2864 42.4924 19.3653 41.703 18.5919C39.0367 15.9503 34.6864 15.9416 32.0201 18.5919C29.3538 21.2335 29.3538 25.5436 32.0289 28.1852C34.6952 30.8355 39.0455 30.8355 41.7118 28.1852C42.4924 27.4118 43.0449 26.4907 43.3695 25.5175L58.7183 25.5349C59.0428 26.5168 59.5953 27.4292 60.3847 28.2113C63.0598 30.8616 67.4101 30.8703 70.0676 28.22C72.7339 25.5783 72.7339 21.2683 70.0676 18.6267V18.618ZM38.6771 25.1786C37.6773 26.1692 36.0547 26.1692 35.0548 25.1786C34.0549 24.188 34.0462 22.5717 35.046 21.5898C36.0459 20.6079 37.6685 20.6079 38.6683 21.5898C39.6682 22.5804 39.677 24.1967 38.6771 25.1786ZM67.0417 25.2134C66.0418 26.204 64.4193 26.1953 63.4194 25.2047C62.4195 24.2141 62.4195 22.6065 63.4194 21.6159C64.4193 20.6253 66.0418 20.634 67.0417 21.6246C68.0416 22.6152 68.0416 24.2314 67.0417 25.2134Z" fill="#A8A8A8"/>
<path d="M240.644 66.7994C237.969 64.1491 233.627 64.1491 230.961 66.7994C230.18 67.5728 229.628 68.4939 229.303 69.4671L213.946 69.4497C213.621 68.4678 213.069 67.5554 212.279 66.7733C209.613 64.123 205.263 64.1143 202.596 66.7647C199.93 69.4063 199.93 73.7163 202.605 76.358C205.271 79.0083 209.622 79.017 212.288 76.3666C213.069 75.5933 213.621 74.6722 213.946 73.6903L229.294 73.7076C229.619 74.6896 230.172 75.6107 230.961 76.384C233.636 79.0257 237.986 79.0343 240.644 76.384C243.31 73.7424 243.31 69.4324 240.644 66.7907V66.7994ZM209.253 73.3687C208.253 74.3594 206.631 74.3507 205.631 73.36C204.631 72.3694 204.622 70.7532 205.622 69.7712C206.622 68.7893 208.245 68.7893 209.245 69.7799C210.244 70.7706 210.253 72.3781 209.253 73.3687ZM237.618 73.3948C236.618 74.3854 234.995 74.3767 233.996 73.3861C232.996 72.3955 232.987 70.7879 233.987 69.7973C234.987 68.8067 236.609 68.8067 237.609 69.7973C238.609 70.7879 238.609 72.4042 237.609 73.3861L237.618 73.3948Z" fill="#110D0C"/>
<path d="M240.644 66.7994C237.969 64.1491 233.627 64.1491 230.961 66.7994C230.18 67.5728 229.628 68.4939 229.303 69.4671L213.946 69.4497C213.621 68.4678 213.069 67.5554 212.279 66.7733C209.613 64.123 205.263 64.1143 202.596 66.7647C199.93 69.4063 199.93 73.7163 202.605 76.358C205.271 79.0083 209.622 79.017 212.288 76.3666C213.069 75.5933 213.621 74.6722 213.946 73.6903L229.294 73.7076C229.619 74.6896 230.172 75.6107 230.961 76.384C233.636 79.0257 237.986 79.0343 240.644 76.384C243.31 73.7424 243.31 69.4324 240.644 66.7907V66.7994ZM209.253 73.3687C208.253 74.3594 206.631 74.3507 205.631 73.36C204.631 72.3694 204.622 70.7532 205.622 69.7712C206.622 68.7893 208.245 68.7893 209.245 69.7799C210.244 70.7706 210.253 72.3781 209.253 73.3687ZM237.618 73.3948C236.618 74.3854 234.995 74.3767 233.996 73.3861C232.996 72.3955 232.987 70.7879 233.987 69.7973C234.987 68.8067 236.609 68.8067 237.609 69.7973C238.609 70.7879 238.609 72.4042 237.609 73.3861L237.618 73.3948Z" fill="#110D0C"/>
<path d="M240.644 66.7994C237.969 64.1491 233.627 64.1491 230.961 66.7994C230.18 67.5728 229.628 68.4939 229.303 69.4671L213.946 69.4497C213.621 68.4678 213.069 67.5554 212.279 66.7733C209.613 64.123 205.263 64.1143 202.596 66.7647C199.93 69.4063 199.93 73.7163 202.605 76.358C205.271 79.0083 209.622 79.017 212.288 76.3666C213.069 75.5933 213.621 74.6722 213.946 73.6903L229.294 73.7076C229.619 74.6896 230.172 75.6107 230.961 76.384C233.636 79.0257 237.986 79.0343 240.644 76.384C243.31 73.7424 243.31 69.4324 240.644 66.7907V66.7994ZM209.253 73.3687C208.253 74.3594 206.631 74.3507 205.631 73.36C204.631 72.3694 204.622 70.7532 205.622 69.7712C206.622 68.7893 208.245 68.7893 209.245 69.7799C210.244 70.7706 210.253 72.3781 209.253 73.3687ZM237.618 73.3948C236.618 74.3854 234.995 74.3767 233.996 73.3861C232.996 72.3955 232.987 70.7879 233.987 69.7973C234.987 68.8067 236.609 68.8067 237.609 69.7973C238.609 70.7879 238.609 72.4042 237.609 73.3861L237.618 73.3948Z" fill="#110D0C"/>
<path d="M240.644 66.7994C237.969 64.1491 233.627 64.1491 230.961 66.7994C230.18 67.5728 229.628 68.4939 229.303 69.4671L213.946 69.4497C213.621 68.4678 213.069 67.5554 212.279 66.7733C209.613 64.123 205.263 64.1143 202.596 66.7647C199.93 69.4063 199.93 73.7163 202.605 76.358C205.271 79.0083 209.622 79.017 212.288 76.3666C213.069 75.5933 213.621 74.6722 213.946 73.6903L229.294 73.7076C229.619 74.6896 230.172 75.6107 230.961 76.384C233.636 79.0257 237.986 79.0343 240.644 76.384C243.31 73.7424 243.31 69.4324 240.644 66.7907V66.7994ZM209.253 73.3687C208.253 74.3594 206.631 74.3507 205.631 73.36C204.631 72.3694 204.622 70.7532 205.622 69.7712C206.622 68.7893 208.245 68.7893 209.245 69.7799C210.244 70.7706 210.253 72.3781 209.253 73.3687ZM237.618 73.3948C236.618 74.3854 234.995 74.3767 233.996 73.3861C232.996 72.3955 232.987 70.7879 233.987 69.7973C234.987 68.8067 236.609 68.8067 237.609 69.7973C238.609 70.7879 238.609 72.4042 237.609 73.3861L237.618 73.3948Z" fill="#110D0C"/>
<path d="M240.644 66.7994C237.969 64.1491 233.627 64.1491 230.961 66.7994C230.18 67.5728 229.628 68.4939 229.303 69.4671L213.946 69.4497C213.621 68.4678 213.069 67.5554 212.279 66.7733C209.613 64.123 205.263 64.1143 202.596 66.7647C199.93 69.4063 199.93 73.7163 202.605 76.358C205.271 79.0083 209.622 79.017 212.288 76.3666C213.069 75.5933 213.621 74.6722 213.946 73.6903L229.294 73.7076C229.619 74.6896 230.172 75.6107 230.961 76.384C233.636 79.0257 237.986 79.0343 240.644 76.384C243.31 73.7424 243.31 69.4324 240.644 66.7907V66.7994ZM209.253 73.3687C208.253 74.3594 206.631 74.3507 205.631 73.36C204.631 72.3694 204.622 70.7532 205.622 69.7712C206.622 68.7893 208.245 68.7893 209.245 69.7799C210.244 70.7706 210.253 72.3781 209.253 73.3687ZM237.618 73.3948C236.618 74.3854 234.995 74.3767 233.996 73.3861C232.996 72.3955 232.987 70.7879 233.987 69.7973C234.987 68.8067 236.609 68.8067 237.609 69.7973C238.609 70.7879 238.609 72.4042 237.609 73.3861L237.618 73.3948Z" fill="#110D0C"/>
<path d="M240.644 65.9312C237.969 63.2809 233.627 63.2809 230.961 65.9312C230.18 66.7046 229.628 67.6257 229.303 68.599L213.946 68.5816C213.621 67.5996 213.069 66.6872 212.279 65.9052C209.613 63.2549 205.263 63.2462 202.596 65.8965C199.93 68.5381 199.93 72.8482 202.605 75.4898C205.271 78.1401 209.622 78.1488 212.288 75.4985C213.069 74.7251 213.621 73.804 213.946 72.8221L229.294 72.8395C229.619 73.8214 230.172 74.7425 230.961 75.5159C233.636 78.1575 237.986 78.1662 240.644 75.5159C243.31 72.8742 243.31 68.5642 240.644 65.9226V65.9312ZM209.253 72.5006C208.253 73.4912 206.631 73.4825 205.631 72.4919C204.631 71.5013 204.622 69.885 205.622 68.9031C206.622 67.9212 208.245 67.9212 209.245 68.9118C210.244 69.9024 210.253 71.51 209.253 72.5006ZM237.618 72.5266C236.618 73.5173 234.995 73.5086 233.996 72.518C232.996 71.5273 232.987 69.9198 233.987 68.9292C234.987 67.9385 236.609 67.9385 237.609 68.9292C238.609 69.9198 238.609 71.536 237.609 72.518L237.618 72.5266Z" fill="white"/>
<path d="M240.644 65.9312C237.969 63.2809 233.627 63.2809 230.961 65.9312C230.18 66.7046 229.628 67.6257 229.303 68.599L213.946 68.5816C213.621 67.5996 213.069 66.6872 212.279 65.9052C209.613 63.2549 205.263 63.2462 202.596 65.8965C199.93 68.5381 199.93 72.8482 202.605 75.4898C205.271 78.1401 209.622 78.1488 212.288 75.4985C213.069 74.7251 213.621 73.804 213.946 72.8221L229.294 72.8395C229.619 73.8214 230.172 74.7425 230.961 75.5159C233.636 78.1575 237.986 78.1662 240.644 75.5159C243.31 72.8742 243.31 68.5642 240.644 65.9226V65.9312ZM209.253 72.5006C208.253 73.4912 206.631 73.4825 205.631 72.4919C204.631 71.5013 204.622 69.885 205.622 68.9031C206.622 67.9212 208.245 67.9212 209.245 68.9118C210.244 69.9024 210.253 71.51 209.253 72.5006ZM237.618 72.5266C236.618 73.5173 234.995 73.5086 233.996 72.518C232.996 71.5273 232.987 69.9198 233.987 68.9292C234.987 67.9385 236.609 67.9385 237.609 68.9292C238.609 69.9198 238.609 71.536 237.609 72.518L237.618 72.5266Z" fill="white"/>
<path d="M240.644 65.9312C237.969 63.2809 233.627 63.2809 230.961 65.9312C230.18 66.7046 229.628 67.6257 229.303 68.599L213.946 68.5816C213.621 67.5996 213.069 66.6872 212.279 65.9052C209.613 63.2549 205.263 63.2462 202.596 65.8965C199.93 68.5381 199.93 72.8482 202.605 75.4898C205.271 78.1401 209.622 78.1488 212.288 75.4985C213.069 74.7251 213.621 73.804 213.946 72.8221L229.294 72.8395C229.619 73.8214 230.172 74.7425 230.961 75.5159C233.636 78.1575 237.986 78.1662 240.644 75.5159C243.31 72.8742 243.31 68.5642 240.644 65.9226V65.9312ZM209.253 72.5006C208.253 73.4912 206.631 73.4825 205.631 72.4919C204.631 71.5013 204.622 69.885 205.622 68.9031C206.622 67.9212 208.245 67.9212 209.245 68.9118C210.244 69.9024 210.253 71.51 209.253 72.5006ZM237.618 72.5266C236.618 73.5173 234.995 73.5086 233.996 72.518C232.996 71.5273 232.987 69.9198 233.987 68.9292C234.987 67.9385 236.609 67.9385 237.609 68.9292C238.609 69.9198 238.609 71.536 237.609 72.518L237.618 72.5266Z" fill="white"/>
<path d="M240.644 65.9312C237.969 63.2809 233.627 63.2809 230.961 65.9312C230.18 66.7046 229.628 67.6257 229.303 68.599L213.946 68.5816C213.621 67.5996 213.069 66.6872 212.279 65.9052C209.613 63.2549 205.263 63.2462 202.596 65.8965C199.93 68.5381 199.93 72.8482 202.605 75.4898C205.271 78.1401 209.622 78.1488 212.288 75.4985C213.069 74.7251 213.621 73.804 213.946 72.8221L229.294 72.8395C229.619 73.8214 230.172 74.7425 230.961 75.5159C233.636 78.1575 237.986 78.1662 240.644 75.5159C243.31 72.8742 243.31 68.5642 240.644 65.9226V65.9312ZM209.253 72.5006C208.253 73.4912 206.631 73.4825 205.631 72.4919C204.631 71.5013 204.622 69.885 205.622 68.9031C206.622 67.9212 208.245 67.9212 209.245 68.9118C210.244 69.9024 210.253 71.51 209.253 72.5006ZM237.618 72.5266C236.618 73.5173 234.995 73.5086 233.996 72.518C232.996 71.5273 232.987 69.9198 233.987 68.9292C234.987 67.9385 236.609 67.9385 237.609 68.9292C238.609 69.9198 238.609 71.536 237.609 72.518L237.618 72.5266Z" fill="white"/>
<path d="M240.644 65.9312C237.969 63.2809 233.627 63.2809 230.961 65.9312C230.18 66.7046 229.628 67.6257 229.303 68.599L213.946 68.5816C213.621 67.5996 213.069 66.6872 212.279 65.9052C209.613 63.2549 205.263 63.2462 202.596 65.8965C199.93 68.5381 199.93 72.8482 202.605 75.4898C205.271 78.1401 209.622 78.1488 212.288 75.4985C213.069 74.7251 213.621 73.804 213.946 72.8221L229.294 72.8395C229.619 73.8214 230.172 74.7425 230.961 75.5159C233.636 78.1575 237.986 78.1662 240.644 75.5159C243.31 72.8742 243.31 68.5642 240.644 65.9226V65.9312ZM209.253 72.5006C208.253 73.4912 206.631 73.4825 205.631 72.4919C204.631 71.5013 204.622 69.885 205.622 68.9031C206.622 67.9212 208.245 67.9212 209.245 68.9118C210.244 69.9024 210.253 71.51 209.253 72.5006ZM237.618 72.5266C236.618 73.5173 234.995 73.5086 233.996 72.518C232.996 71.5273 232.987 69.9198 233.987 68.9292C234.987 67.9385 236.609 67.9385 237.609 68.9292C238.609 69.9198 238.609 71.536 237.609 72.518L237.618 72.5266Z" fill="#A8A8A8"/>
<path d="M70.0562 136.518C67.3812 133.868 63.0309 133.859 60.3646 136.51C57.6983 139.151 57.6983 143.461 60.3733 146.103C61.1715 146.894 62.1187 147.45 63.1273 147.763V153.55H57.6544C57.3562 152.446 56.7686 151.395 55.8915 150.526C53.2164 147.884 48.8661 147.876 46.1998 150.526C43.5335 153.168 43.5335 157.478 46.2086 160.119C48.8837 162.77 53.2252 162.77 55.8915 160.128C56.5844 159.442 57.0931 158.651 57.4264 157.799H67.4162V147.737C68.381 147.415 69.2932 146.876 70.065 146.112C72.7313 143.47 72.7313 139.16 70.065 136.518H70.0562ZM52.8656 157.121C51.8657 158.112 50.2431 158.112 49.2433 157.121C48.2434 156.131 48.2434 154.515 49.2433 153.533C50.2431 152.551 51.8657 152.551 52.8656 153.541C53.8654 154.532 53.8742 156.14 52.8743 157.13L52.8656 157.121ZM67.0303 143.114C66.0305 144.104 64.4079 144.096 63.408 143.105C62.4081 142.115 62.4081 140.498 63.408 139.516C64.4079 138.534 66.0305 138.534 67.0303 139.525C68.0302 140.516 68.039 142.123 67.0391 143.114H67.0303Z" fill="#110D0C"/>
<path d="M70.0562 136.518C67.3812 133.868 63.0309 133.859 60.3646 136.51C57.6983 139.151 57.6983 143.461 60.3733 146.103C61.1715 146.894 62.1187 147.45 63.1273 147.763V153.55H57.6544C57.3562 152.446 56.7686 151.395 55.8915 150.526C53.2164 147.884 48.8661 147.876 46.1998 150.526C43.5335 153.168 43.5335 157.478 46.2086 160.119C48.8837 162.77 53.2252 162.77 55.8915 160.128C56.5844 159.442 57.0931 158.651 57.4264 157.799H67.4162V147.737C68.381 147.415 69.2932 146.876 70.065 146.112C72.7313 143.47 72.7313 139.16 70.065 136.518H70.0562ZM52.8656 157.121C51.8657 158.112 50.2431 158.112 49.2433 157.121C48.2434 156.131 48.2434 154.515 49.2433 153.533C50.2431 152.551 51.8657 152.551 52.8656 153.541C53.8654 154.532 53.8742 156.14 52.8743 157.13L52.8656 157.121ZM67.0303 143.114C66.0305 144.104 64.4079 144.096 63.408 143.105C62.4081 142.115 62.4081 140.498 63.408 139.516C64.4079 138.534 66.0305 138.534 67.0303 139.525C68.0302 140.516 68.039 142.123 67.0391 143.114H67.0303Z" fill="#110D0C"/>
<path d="M70.0562 136.518C67.3812 133.868 63.0309 133.859 60.3646 136.51C57.6983 139.151 57.6983 143.461 60.3733 146.103C61.1715 146.894 62.1187 147.45 63.1273 147.763V153.55H57.6544C57.3562 152.446 56.7686 151.395 55.8915 150.526C53.2164 147.884 48.8661 147.876 46.1998 150.526C43.5335 153.168 43.5335 157.478 46.2086 160.119C48.8837 162.77 53.2252 162.77 55.8915 160.128C56.5844 159.442 57.0931 158.651 57.4264 157.799H67.4162V147.737C68.381 147.415 69.2932 146.876 70.065 146.112C72.7313 143.47 72.7313 139.16 70.065 136.518H70.0562ZM52.8656 157.121C51.8657 158.112 50.2431 158.112 49.2433 157.121C48.2434 156.131 48.2434 154.515 49.2433 153.533C50.2431 152.551 51.8657 152.551 52.8656 153.541C53.8654 154.532 53.8742 156.14 52.8743 157.13L52.8656 157.121ZM67.0303 143.114C66.0305 144.104 64.4079 144.096 63.408 143.105C62.4081 142.115 62.4081 140.498 63.408 139.516C64.4079 138.534 66.0305 138.534 67.0303 139.525C68.0302 140.516 68.039 142.123 67.0391 143.114H67.0303Z" fill="#110D0C"/>
<path d="M70.0562 136.518C67.3812 133.868 63.0309 133.859 60.3646 136.51C57.6983 139.151 57.6983 143.461 60.3733 146.103C61.1715 146.894 62.1187 147.45 63.1273 147.763V153.55H57.6544C57.3562 152.446 56.7686 151.395 55.8915 150.526C53.2164 147.884 48.8661 147.876 46.1998 150.526C43.5335 153.168 43.5335 157.478 46.2086 160.119C48.8837 162.77 53.2252 162.77 55.8915 160.128C56.5844 159.442 57.0931 158.651 57.4264 157.799H67.4162V147.737C68.381 147.415 69.2932 146.876 70.065 146.112C72.7313 143.47 72.7313 139.16 70.065 136.518H70.0562ZM52.8656 157.121C51.8657 158.112 50.2431 158.112 49.2433 157.121C48.2434 156.131 48.2434 154.515 49.2433 153.533C50.2431 152.551 51.8657 152.551 52.8656 153.541C53.8654 154.532 53.8742 156.14 52.8743 157.13L52.8656 157.121ZM67.0303 143.114C66.0305 144.104 64.4079 144.096 63.408 143.105C62.4081 142.115 62.4081 140.498 63.408 139.516C64.4079 138.534 66.0305 138.534 67.0303 139.525C68.0302 140.516 68.039 142.123 67.0391 143.114H67.0303Z" fill="#110D0C"/>
<path d="M70.0562 136.518C67.3812 133.868 63.0309 133.859 60.3646 136.51C57.6983 139.151 57.6983 143.461 60.3733 146.103C61.1715 146.894 62.1187 147.45 63.1273 147.763V153.55H57.6544C57.3562 152.446 56.7686 151.395 55.8915 150.526C53.2164 147.884 48.8661 147.876 46.1998 150.526C43.5335 153.168 43.5335 157.478 46.2086 160.119C48.8837 162.77 53.2252 162.77 55.8915 160.128C56.5844 159.442 57.0931 158.651 57.4264 157.799H67.4162V147.737C68.381 147.415 69.2932 146.876 70.065 146.112C72.7313 143.47 72.7313 139.16 70.065 136.518H70.0562ZM52.8656 157.121C51.8657 158.112 50.2431 158.112 49.2433 157.121C48.2434 156.131 48.2434 154.515 49.2433 153.533C50.2431 152.551 51.8657 152.551 52.8656 153.541C53.8654 154.532 53.8742 156.14 52.8743 157.13L52.8656 157.121ZM67.0303 143.114C66.0305 144.104 64.4079 144.096 63.408 143.105C62.4081 142.115 62.4081 140.498 63.408 139.516C64.4079 138.534 66.0305 138.534 67.0303 139.525C68.0302 140.516 68.039 142.123 67.0391 143.114H67.0303Z" fill="#110D0C"/>
<path d="M70.0562 135.648C67.3812 132.998 63.0309 132.989 60.3646 135.64C57.6983 138.281 57.6983 142.591 60.3733 145.233C61.1715 146.024 62.1187 146.58 63.1273 146.893V152.68H57.6544C57.3562 151.576 56.7686 150.525 55.8915 149.656C53.2164 147.014 48.8661 147.006 46.1998 149.656C43.5335 152.298 43.5335 156.608 46.2086 159.249C48.8837 161.9 53.2252 161.9 55.8915 159.258C56.5844 158.571 57.0931 157.781 57.4264 156.929H67.4162V146.867C68.381 146.545 69.2932 146.006 70.065 145.242C72.7313 142.6 72.7313 138.29 70.065 135.648H70.0562ZM52.8656 156.251C51.8657 157.242 50.2431 157.242 49.2433 156.251C48.2434 155.261 48.2434 153.644 49.2433 152.663C50.2431 151.681 51.8657 151.681 52.8656 152.671C53.8654 153.662 53.8742 155.269 52.8743 156.26L52.8656 156.251ZM67.0303 142.244C66.0305 143.234 64.4079 143.226 63.408 142.235C62.4081 141.244 62.4081 139.628 63.408 138.646C64.4079 137.664 66.0305 137.664 67.0303 138.655C68.0302 139.646 68.039 141.253 67.0391 142.244H67.0303Z" fill="white"/>
<path d="M70.0562 135.648C67.3812 132.998 63.0309 132.989 60.3646 135.64C57.6983 138.281 57.6983 142.591 60.3733 145.233C61.1715 146.024 62.1187 146.58 63.1273 146.893V152.68H57.6544C57.3562 151.576 56.7686 150.525 55.8915 149.656C53.2164 147.014 48.8661 147.006 46.1998 149.656C43.5335 152.298 43.5335 156.608 46.2086 159.249C48.8837 161.9 53.2252 161.9 55.8915 159.258C56.5844 158.571 57.0931 157.781 57.4264 156.929H67.4162V146.867C68.381 146.545 69.2932 146.006 70.065 145.242C72.7313 142.6 72.7313 138.29 70.065 135.648H70.0562ZM52.8656 156.251C51.8657 157.242 50.2431 157.242 49.2433 156.251C48.2434 155.261 48.2434 153.644 49.2433 152.663C50.2431 151.681 51.8657 151.681 52.8656 152.671C53.8654 153.662 53.8742 155.269 52.8743 156.26L52.8656 156.251ZM67.0303 142.244C66.0305 143.234 64.4079 143.226 63.408 142.235C62.4081 141.244 62.4081 139.628 63.408 138.646C64.4079 137.664 66.0305 137.664 67.0303 138.655C68.0302 139.646 68.039 141.253 67.0391 142.244H67.0303Z" fill="white"/>
<path d="M70.0562 135.648C67.3812 132.998 63.0309 132.989 60.3646 135.64C57.6983 138.281 57.6983 142.591 60.3733 145.233C61.1715 146.024 62.1187 146.58 63.1273 146.893V152.68H57.6544C57.3562 151.576 56.7686 150.525 55.8915 149.656C53.2164 147.014 48.8661 147.006 46.1998 149.656C43.5335 152.298 43.5335 156.608 46.2086 159.249C48.8837 161.9 53.2252 161.9 55.8915 159.258C56.5844 158.571 57.0931 157.781 57.4264 156.929H67.4162V146.867C68.381 146.545 69.2932 146.006 70.065 145.242C72.7313 142.6 72.7313 138.29 70.065 135.648H70.0562ZM52.8656 156.251C51.8657 157.242 50.2431 157.242 49.2433 156.251C48.2434 155.261 48.2434 153.644 49.2433 152.663C50.2431 151.681 51.8657 151.681 52.8656 152.671C53.8654 153.662 53.8742 155.269 52.8743 156.26L52.8656 156.251ZM67.0303 142.244C66.0305 143.234 64.4079 143.226 63.408 142.235C62.4081 141.244 62.4081 139.628 63.408 138.646C64.4079 137.664 66.0305 137.664 67.0303 138.655C68.0302 139.646 68.039 141.253 67.0391 142.244H67.0303Z" fill="white"/>
<path d="M70.0562 135.648C67.3812 132.998 63.0309 132.989 60.3646 135.64C57.6983 138.281 57.6983 142.591 60.3733 145.233C61.1715 146.024 62.1187 146.58 63.1273 146.893V152.68H57.6544C57.3562 151.576 56.7686 150.525 55.8915 149.656C53.2164 147.014 48.8661 147.006 46.1998 149.656C43.5335 152.298 43.5335 156.608 46.2086 159.249C48.8837 161.9 53.2252 161.9 55.8915 159.258C56.5844 158.571 57.0931 157.781 57.4264 156.929H67.4162V146.867C68.381 146.545 69.2932 146.006 70.065 145.242C72.7313 142.6 72.7313 138.29 70.065 135.648H70.0562ZM52.8656 156.251C51.8657 157.242 50.2431 157.242 49.2433 156.251C48.2434 155.261 48.2434 153.644 49.2433 152.663C50.2431 151.681 51.8657 151.681 52.8656 152.671C53.8654 153.662 53.8742 155.269 52.8743 156.26L52.8656 156.251ZM67.0303 142.244C66.0305 143.234 64.4079 143.226 63.408 142.235C62.4081 141.244 62.4081 139.628 63.408 138.646C64.4079 137.664 66.0305 137.664 67.0303 138.655C68.0302 139.646 68.039 141.253 67.0391 142.244H67.0303Z" fill="white"/>
<path d="M70.0562 135.648C67.3812 132.998 63.0309 132.989 60.3646 135.64C57.6983 138.281 57.6983 142.591 60.3733 145.233C61.1715 146.024 62.1187 146.58 63.1273 146.893V152.68H57.6544C57.3562 151.576 56.7686 150.525 55.8915 149.656C53.2164 147.014 48.8661 147.006 46.1998 149.656C43.5335 152.298 43.5335 156.608 46.2086 159.249C48.8837 161.9 53.2252 161.9 55.8915 159.258C56.5844 158.571 57.0931 157.781 57.4264 156.929H67.4162V146.867C68.381 146.545 69.2932 146.006 70.065 145.242C72.7313 142.6 72.7313 138.29 70.065 135.648H70.0562ZM52.8656 156.251C51.8657 157.242 50.2431 157.242 49.2433 156.251C48.2434 155.261 48.2434 153.644 49.2433 152.663C50.2431 151.681 51.8657 151.681 52.8656 152.671C53.8654 153.662 53.8742 155.269 52.8743 156.26L52.8656 156.251ZM67.0303 142.244C66.0305 143.234 64.4079 143.226 63.408 142.235C62.4081 141.244 62.4081 139.628 63.408 138.646C64.4079 137.664 66.0305 137.664 67.0303 138.655C68.0302 139.646 68.039 141.253 67.0391 142.244H67.0303Z" fill="#A8A8A8"/>
<path d="M127.347 62.4651C124.68 59.8235 120.33 59.8235 117.655 62.4651C116.857 63.2559 116.296 64.1943 115.98 65.1936H110.138V59.78C111.252 59.4759 112.314 58.8937 113.191 58.0247C115.866 55.3744 115.875 51.0731 113.199 48.4314C110.533 45.7898 106.183 45.7898 103.517 48.4314C100.841 51.0817 100.833 55.3918 103.508 58.0247C104.192 58.7025 104.999 59.2152 105.85 59.5454V69.4428H116.006C116.331 70.4074 116.874 71.3024 117.646 72.0671C120.313 74.7087 124.663 74.7087 127.329 72.0584C130.004 69.4081 130.004 65.1067 127.338 62.4651H127.347ZM106.534 55.0355C105.534 54.0449 105.543 52.4373 106.542 51.4467C107.542 50.4561 109.165 50.4561 110.165 51.4467C111.165 52.4373 111.165 54.0449 110.165 55.0355C109.165 56.0261 107.534 56.0261 106.542 55.0355H106.534ZM124.303 69.0605C123.303 70.0511 121.672 70.0511 120.681 69.0605C119.681 68.0699 119.69 66.4623 120.69 65.4717C121.69 64.4811 123.312 64.4724 124.312 65.463C125.312 66.4536 125.312 68.0612 124.312 69.0518L124.303 69.0605Z" fill="#110D0C"/>
<path d="M127.347 62.4651C124.68 59.8235 120.33 59.8235 117.655 62.4651C116.857 63.2559 116.296 64.1943 115.98 65.1936H110.138V59.78C111.252 59.4759 112.314 58.8937 113.191 58.0247C115.866 55.3744 115.875 51.0731 113.199 48.4314C110.533 45.7898 106.183 45.7898 103.517 48.4314C100.841 51.0817 100.833 55.3918 103.508 58.0247C104.192 58.7025 104.999 59.2152 105.85 59.5454V69.4428H116.006C116.331 70.4074 116.874 71.3024 117.646 72.0671C120.313 74.7087 124.663 74.7087 127.329 72.0584C130.004 69.4081 130.004 65.1067 127.338 62.4651H127.347ZM106.534 55.0355C105.534 54.0449 105.543 52.4373 106.542 51.4467C107.542 50.4561 109.165 50.4561 110.165 51.4467C111.165 52.4373 111.165 54.0449 110.165 55.0355C109.165 56.0261 107.534 56.0261 106.542 55.0355H106.534ZM124.303 69.0605C123.303 70.0511 121.672 70.0511 120.681 69.0605C119.681 68.0699 119.69 66.4623 120.69 65.4717C121.69 64.4811 123.312 64.4724 124.312 65.463C125.312 66.4536 125.312 68.0612 124.312 69.0518L124.303 69.0605Z" fill="#110D0C"/>
<path d="M127.347 62.4651C124.68 59.8235 120.33 59.8235 117.655 62.4651C116.857 63.2559 116.296 64.1943 115.98 65.1936H110.138V59.78C111.252 59.4759 112.314 58.8937 113.191 58.0247C115.866 55.3744 115.875 51.0731 113.199 48.4314C110.533 45.7898 106.183 45.7898 103.517 48.4314C100.841 51.0817 100.833 55.3918 103.508 58.0247C104.192 58.7025 104.999 59.2152 105.85 59.5454V69.4428H116.006C116.331 70.4074 116.874 71.3024 117.646 72.0671C120.313 74.7087 124.663 74.7087 127.329 72.0584C130.004 69.4081 130.004 65.1067 127.338 62.4651H127.347ZM106.534 55.0355C105.534 54.0449 105.543 52.4373 106.542 51.4467C107.542 50.4561 109.165 50.4561 110.165 51.4467C111.165 52.4373 111.165 54.0449 110.165 55.0355C109.165 56.0261 107.534 56.0261 106.542 55.0355H106.534ZM124.303 69.0605C123.303 70.0511 121.672 70.0511 120.681 69.0605C119.681 68.0699 119.69 66.4623 120.69 65.4717C121.69 64.4811 123.312 64.4724 124.312 65.463C125.312 66.4536 125.312 68.0612 124.312 69.0518L124.303 69.0605Z" fill="#110D0C"/>
<path d="M127.347 62.4651C124.68 59.8235 120.33 59.8235 117.655 62.4651C116.857 63.2559 116.296 64.1943 115.98 65.1936H110.138V59.78C111.252 59.4759 112.314 58.8937 113.191 58.0247C115.866 55.3744 115.875 51.0731 113.199 48.4314C110.533 45.7898 106.183 45.7898 103.517 48.4314C100.841 51.0817 100.833 55.3918 103.508 58.0247C104.192 58.7025 104.999 59.2152 105.85 59.5454V69.4428H116.006C116.331 70.4074 116.874 71.3024 117.646 72.0671C120.313 74.7087 124.663 74.7087 127.329 72.0584C130.004 69.4081 130.004 65.1067 127.338 62.4651H127.347ZM106.534 55.0355C105.534 54.0449 105.543 52.4373 106.542 51.4467C107.542 50.4561 109.165 50.4561 110.165 51.4467C111.165 52.4373 111.165 54.0449 110.165 55.0355C109.165 56.0261 107.534 56.0261 106.542 55.0355H106.534ZM124.303 69.0605C123.303 70.0511 121.672 70.0511 120.681 69.0605C119.681 68.0699 119.69 66.4623 120.69 65.4717C121.69 64.4811 123.312 64.4724 124.312 65.463C125.312 66.4536 125.312 68.0612 124.312 69.0518L124.303 69.0605Z" fill="#110D0C"/>
<path d="M127.347 62.4651C124.68 59.8235 120.33 59.8235 117.655 62.4651C116.857 63.2559 116.296 64.1943 115.98 65.1936H110.138V59.78C111.252 59.4759 112.314 58.8937 113.191 58.0247C115.866 55.3744 115.875 51.0731 113.199 48.4314C110.533 45.7898 106.183 45.7898 103.517 48.4314C100.841 51.0817 100.833 55.3918 103.508 58.0247C104.192 58.7025 104.999 59.2152 105.85 59.5454V69.4428H116.006C116.331 70.4074 116.874 71.3024 117.646 72.0671C120.313 74.7087 124.663 74.7087 127.329 72.0584C130.004 69.4081 130.004 65.1067 127.338 62.4651H127.347ZM106.534 55.0355C105.534 54.0449 105.543 52.4373 106.542 51.4467C107.542 50.4561 109.165 50.4561 110.165 51.4467C111.165 52.4373 111.165 54.0449 110.165 55.0355C109.165 56.0261 107.534 56.0261 106.542 55.0355H106.534ZM124.303 69.0605C123.303 70.0511 121.672 70.0511 120.681 69.0605C119.681 68.0699 119.69 66.4623 120.69 65.4717C121.69 64.4811 123.312 64.4724 124.312 65.463C125.312 66.4536 125.312 68.0612 124.312 69.0518L124.303 69.0605Z" fill="#110D0C"/>
<path d="M127.347 61.596C124.68 58.9543 120.33 58.9543 117.655 61.596C116.857 62.3867 116.296 63.3252 115.98 64.3245H110.138V58.9109C111.252 58.6067 112.314 58.0245 113.191 57.1556C115.866 54.5053 115.875 50.2039 113.199 47.5623C110.533 44.9206 106.183 44.9206 103.517 47.5623C100.841 50.2126 100.833 54.5226 103.508 57.1556C104.192 57.8334 104.999 58.3461 105.85 58.6763V68.5737H116.006C116.331 69.5382 116.874 70.4333 117.646 71.198C120.313 73.8396 124.663 73.8396 127.329 71.1893C130.004 68.5389 130.004 64.2376 127.338 61.596H127.347ZM106.534 54.1664C105.534 53.1758 105.543 51.5682 106.542 50.5776C107.542 49.587 109.165 49.587 110.165 50.5776C111.165 51.5682 111.165 53.1758 110.165 54.1664C109.165 55.157 107.534 55.157 106.542 54.1664H106.534ZM124.303 68.1914C123.303 69.182 121.672 69.182 120.681 68.1914C119.681 67.2007 119.69 65.5932 120.69 64.6026C121.69 63.612 123.312 63.6033 124.312 64.5939C125.312 65.5845 125.312 67.1921 124.312 68.1827L124.303 68.1914Z" fill="white"/>
<path d="M127.347 61.596C124.68 58.9543 120.33 58.9543 117.655 61.596C116.857 62.3867 116.296 63.3252 115.98 64.3245H110.138V58.9109C111.252 58.6067 112.314 58.0245 113.191 57.1556C115.866 54.5053 115.875 50.2039 113.199 47.5623C110.533 44.9206 106.183 44.9206 103.517 47.5623C100.841 50.2126 100.833 54.5226 103.508 57.1556C104.192 57.8334 104.999 58.3461 105.85 58.6763V68.5737H116.006C116.331 69.5382 116.874 70.4333 117.646 71.198C120.313 73.8396 124.663 73.8396 127.329 71.1893C130.004 68.5389 130.004 64.2376 127.338 61.596H127.347ZM106.534 54.1664C105.534 53.1758 105.543 51.5682 106.542 50.5776C107.542 49.587 109.165 49.587 110.165 50.5776C111.165 51.5682 111.165 53.1758 110.165 54.1664C109.165 55.157 107.534 55.157 106.542 54.1664H106.534ZM124.303 68.1914C123.303 69.182 121.672 69.182 120.681 68.1914C119.681 67.2007 119.69 65.5932 120.69 64.6026C121.69 63.612 123.312 63.6033 124.312 64.5939C125.312 65.5845 125.312 67.1921 124.312 68.1827L124.303 68.1914Z" fill="white"/>
<path d="M127.347 61.596C124.68 58.9543 120.33 58.9543 117.655 61.596C116.857 62.3867 116.296 63.3252 115.98 64.3245H110.138V58.9109C111.252 58.6067 112.314 58.0245 113.191 57.1556C115.866 54.5053 115.875 50.2039 113.199 47.5623C110.533 44.9206 106.183 44.9206 103.517 47.5623C100.841 50.2126 100.833 54.5226 103.508 57.1556C104.192 57.8334 104.999 58.3461 105.85 58.6763V68.5737H116.006C116.331 69.5382 116.874 70.4333 117.646 71.198C120.313 73.8396 124.663 73.8396 127.329 71.1893C130.004 68.5389 130.004 64.2376 127.338 61.596H127.347ZM106.534 54.1664C105.534 53.1758 105.543 51.5682 106.542 50.5776C107.542 49.587 109.165 49.587 110.165 50.5776C111.165 51.5682 111.165 53.1758 110.165 54.1664C109.165 55.157 107.534 55.157 106.542 54.1664H106.534ZM124.303 68.1914C123.303 69.182 121.672 69.182 120.681 68.1914C119.681 67.2007 119.69 65.5932 120.69 64.6026C121.69 63.612 123.312 63.6033 124.312 64.5939C125.312 65.5845 125.312 67.1921 124.312 68.1827L124.303 68.1914Z" fill="white"/>
<path d="M127.347 61.596C124.68 58.9543 120.33 58.9543 117.655 61.596C116.857 62.3867 116.296 63.3252 115.98 64.3245H110.138V58.9109C111.252 58.6067 112.314 58.0245 113.191 57.1556C115.866 54.5053 115.875 50.2039 113.199 47.5623C110.533 44.9206 106.183 44.9206 103.517 47.5623C100.841 50.2126 100.833 54.5226 103.508 57.1556C104.192 57.8334 104.999 58.3461 105.85 58.6763V68.5737H116.006C116.331 69.5382 116.874 70.4333 117.646 71.198C120.313 73.8396 124.663 73.8396 127.329 71.1893C130.004 68.5389 130.004 64.2376 127.338 61.596H127.347ZM106.534 54.1664C105.534 53.1758 105.543 51.5682 106.542 50.5776C107.542 49.587 109.165 49.587 110.165 50.5776C111.165 51.5682 111.165 53.1758 110.165 54.1664C109.165 55.157 107.534 55.157 106.542 54.1664H106.534ZM124.303 68.1914C123.303 69.182 121.672 69.182 120.681 68.1914C119.681 67.2007 119.69 65.5932 120.69 64.6026C121.69 63.612 123.312 63.6033 124.312 64.5939C125.312 65.5845 125.312 67.1921 124.312 68.1827L124.303 68.1914Z" fill="white"/>
<path d="M127.347 61.596C124.68 58.9543 120.33 58.9543 117.655 61.596C116.857 62.3867 116.296 63.3252 115.98 64.3245H110.138V58.9109C111.252 58.6067 112.314 58.0245 113.191 57.1556C115.866 54.5053 115.875 50.2039 113.199 47.5623C110.533 44.9206 106.183 44.9206 103.517 47.5623C100.841 50.2126 100.833 54.5226 103.508 57.1556C104.192 57.8334 104.999 58.3461 105.85 58.6763V68.5737H116.006C116.331 69.5382 116.874 70.4333 117.646 71.198C120.313 73.8396 124.663 73.8396 127.329 71.1893C130.004 68.5389 130.004 64.2376 127.338 61.596H127.347ZM106.534 54.1664C105.534 53.1758 105.543 51.5682 106.542 50.5776C107.542 49.587 109.165 49.587 110.165 50.5776C111.165 51.5682 111.165 53.1758 110.165 54.1664C109.165 55.157 107.534 55.157 106.542 54.1664H106.534ZM124.303 68.1914C123.303 69.182 121.672 69.182 120.681 68.1914C119.681 67.2007 119.69 65.5932 120.69 64.6026C121.69 63.612 123.312 63.6033 124.312 64.5939C125.312 65.5845 125.312 67.1921 124.312 68.1827L124.303 68.1914Z" fill="#A8A8A8"/>
<rect x="10.7969" y="8.90723" width="70" height="27" rx="9" fill="#D9D9D9"/>
<path d="M16.6746 31.9072V29.3872L23.1546 23.2672C23.6666 22.8032 24.0426 22.3872 24.2826 22.0192C24.5226 21.6512 24.6826 21.3152 24.7626 21.0112C24.8586 20.7072 24.9066 20.4272 24.9066 20.1712C24.9066 19.4992 24.6746 18.9872 24.2106 18.6352C23.7626 18.2672 23.0986 18.0832 22.2186 18.0832C21.5146 18.0832 20.8586 18.2192 20.2506 18.4912C19.6586 18.7632 19.1546 19.1872 18.7386 19.7632L15.9066 17.9392C16.5466 16.9792 17.4426 16.2192 18.5946 15.6592C19.7466 15.0992 21.0746 14.8192 22.5786 14.8192C23.8266 14.8192 24.9146 15.0272 25.8426 15.4432C26.7866 15.8432 27.5146 16.4112 28.0266 17.1472C28.5546 17.8832 28.8186 18.7632 28.8186 19.7872C28.8186 20.3312 28.7466 20.8752 28.6026 21.4192C28.4746 21.9472 28.2026 22.5072 27.7866 23.0992C27.3866 23.6912 26.7946 24.3552 26.0106 25.0912L20.6346 30.1552L19.8906 28.7392H29.3706V31.9072H16.6746ZM38.1748 32.1952C36.7988 32.1952 35.5668 31.8592 34.4788 31.1872C33.3908 30.4992 32.5348 29.5072 31.9108 28.2112C31.2868 26.9152 30.9748 25.3472 30.9748 23.5072C30.9748 21.6672 31.2868 20.0992 31.9108 18.8032C32.5348 17.5072 33.3908 16.5232 34.4788 15.8512C35.5668 15.1632 36.7988 14.8192 38.1748 14.8192C39.5668 14.8192 40.7988 15.1632 41.8708 15.8512C42.9588 16.5232 43.8148 17.5072 44.4388 18.8032C45.0628 20.0992 45.3748 21.6672 45.3748 23.5072C45.3748 25.3472 45.0628 26.9152 44.4388 28.2112C43.8148 29.5072 42.9588 30.4992 41.8708 31.1872C40.7988 31.8592 39.5668 32.1952 38.1748 32.1952ZM38.1748 28.9072C38.8308 28.9072 39.3988 28.7232 39.8788 28.3552C40.3748 27.9872 40.7588 27.4032 41.0308 26.6032C41.3188 25.8032 41.4628 24.7712 41.4628 23.5072C41.4628 22.2432 41.3188 21.2112 41.0308 20.4112C40.7588 19.6112 40.3748 19.0272 39.8788 18.6592C39.3988 18.2912 38.8308 18.1072 38.1748 18.1072C37.5348 18.1072 36.9668 18.2912 36.4708 18.6592C35.9908 19.0272 35.6068 19.6112 35.3188 20.4112C35.0468 21.2112 34.9108 22.2432 34.9108 23.5072C34.9108 24.7712 35.0468 25.8032 35.3188 26.6032C35.6068 27.4032 35.9908 27.9872 36.4708 28.3552C36.9668 28.7232 37.5348 28.9072 38.1748 28.9072ZM49.7622 31.9072V16.5472L51.4422 18.2272H46.4022V15.1072H53.6502V31.9072H49.7622ZM59.2566 31.9072L66.0246 16.5952L67.0326 18.2752H57.9846L59.7126 16.4512V21.0112H56.2566V15.1072H69.7206V17.6272L63.4806 31.9072H59.2566ZM71.4254 31.9072V26.4072C71.4254 25.8006 71.6054 25.3172 71.9654 24.9572C72.3254 24.5906 72.8387 24.4072 73.5054 24.4072C73.7321 24.4072 73.9487 24.4306 74.1554 24.4772C74.3687 24.5239 74.5487 24.5972 74.6954 24.6972L74.2854 25.8272C74.1987 25.7672 74.1021 25.7206 73.9954 25.6872C73.8887 25.6539 73.7754 25.6372 73.6554 25.6372C73.4287 25.6372 73.2521 25.7039 73.1254 25.8372C73.0054 25.9639 72.9454 26.1572 72.9454 26.4172V26.9172L72.9854 27.5872V31.9072H71.4254ZM70.5954 27.8472V26.6472H74.3254V27.8472H70.5954Z" fill="#171B48"/>
</svg>
