<svg width="260" height="176" viewBox="0 0 260 176" fill="none" xmlns="http://www.w3.org/2000/svg">
<path d="M243.118 85.7471H187.025L172.666 99.9649L158.805 86.2413L172.412 72.7694V17.2316L156.809 1.77393H125.321C125.444 2.10023 125.463 2.46384 125.378 2.80879C125.463 2.95796 125.547 3.11645 125.594 3.30292C125.886 4.42169 125.199 5.33535 124.173 5.69895C122.44 6.31428 120.086 5.97865 119.559 3.9835C118.664 3.64787 118.448 2.51045 118.9 1.77393H100.708L86.6021 15.7493L72.4873 1.77393H16.3952L0.783203 17.2316V48.3335C1.38584 48.3522 1.98847 48.4734 2.56286 48.6692C2.77001 48.6878 2.97717 48.7437 3.18432 48.8649C3.25965 48.9115 3.33498 48.9675 3.41031 49.0327C3.56097 49.1073 3.70221 49.2006 3.84346 49.2938C6.21633 50.0583 6.90371 53.4426 4.30485 54.4868C3.78696 55.158 3.109 55.7081 2.23329 55.7267C1.76248 55.7267 1.26343 55.6522 0.783203 55.475V72.7694L16.3952 88.2178H72.4873L86.6021 74.2518L100.208 87.7236L102.205 85.7471H134.342C134.587 85.1878 134.935 84.647 135.35 84.2554C136.075 83.5562 137.035 83.3418 138.014 83.3231C138.89 83.3045 139.361 83.9012 139.446 84.5631C139.85 84.8708 140.189 85.281 140.444 85.7471C140.528 85.9056 140.613 86.0641 140.679 86.2319C140.736 86.3625 140.783 86.4837 140.82 86.6142C140.83 86.6328 140.83 86.6422 140.83 86.6515C140.886 86.8007 140.924 86.9591 140.952 87.1083C140.971 87.1456 140.971 87.1829 140.98 87.2202C141.009 87.3787 141.037 87.5372 141.046 87.6957C141.075 87.8728 141.084 88.05 141.075 88.2178C141.075 88.2737 141.075 88.3296 141.065 88.3763C140.924 90.5392 138.721 90.9867 136.913 90.6884C135.397 90.446 134.314 89.5137 134.031 88.2178H100.708L100.208 87.7236L86.6021 101.205V156.743L102.205 172.2H158.306L172.666 157.983L187.025 172.2H243.118L258.73 156.743V101.205L243.118 85.7471ZM39.9733 24.1494C39.8697 24.2519 39.7379 24.3358 39.606 24.4011C39.2671 25.2775 38.6268 26.0979 37.817 26.3962C37.1296 26.8624 36.2727 27.0768 35.3782 27.0116C33.4102 26.8531 32.3368 24.7367 32.4403 22.9281C32.4498 22.7789 32.4874 22.6297 32.5251 22.4805C32.4309 22.061 32.4215 21.6321 32.5533 21.2126C32.8358 20.2803 33.6927 19.6836 34.4931 19.1895C36.1221 18.2012 37.7699 18.4343 38.6268 20.1871C39.0693 20.588 39.4083 21.11 39.6249 21.6788C39.7379 21.8 39.8603 21.9212 39.9733 22.0517C40.5288 22.639 40.5665 23.562 39.9733 24.1494ZM67.8169 25.2215C67.6191 25.38 67.3649 25.4826 67.1012 25.5199C66.8847 25.9487 66.4704 26.275 65.8301 26.275C65.7924 26.275 65.7641 26.2657 65.7359 26.2657C63.589 26.6014 60.6135 26.1911 60.783 23.4315C60.9148 21.0728 63.6643 20.0099 65.7171 19.982C66.6116 19.9633 67.0824 20.5973 67.1483 21.2779C67.3555 21.4643 67.5155 21.7067 67.6191 21.9678C67.7133 22.2381 67.7886 22.5178 67.8828 22.7882C67.8828 22.8162 67.8922 22.8348 67.9016 22.8535C68.1182 23.0679 68.2877 23.3289 68.3536 23.6646C68.476 24.2613 68.3159 24.8393 67.8169 25.2215ZM110.557 53.6384C110.425 53.7782 110.265 53.8994 110.105 54.0113C109.926 54.3562 109.7 54.6639 109.417 54.9063C108.259 55.9039 106.64 55.764 105.849 54.4122C105.717 54.1978 105.623 53.9554 105.547 53.7036C105.011 53.2561 104.578 52.6594 104.399 51.9882C104.022 50.5524 105.067 49.387 106.433 49.1073C106.508 49.0887 106.583 49.0887 106.649 49.0887C106.922 48.7717 107.223 48.5013 107.572 48.3149C108.975 47.5597 110.35 48.4734 110.962 49.76C111.583 51.0559 111.64 52.5569 110.557 53.6384ZM124.003 68.2756C123.193 69.1147 121.837 69.3664 120.745 69.0122C120.34 68.8816 119.992 68.6672 119.7 68.3875C118.824 68.602 117.798 68.1544 117.873 67.0263C117.911 66.439 118.174 65.9635 118.561 65.5813C118.598 64.4532 119.182 63.3903 120.434 62.9988C121.611 62.6352 123.174 62.6445 124.144 63.5022C125.095 64.332 125.35 65.6558 125.378 66.8492C125.387 67.7629 124.719 68.2383 124.003 68.2756ZM138.937 156.137C138.174 156.827 136.903 156.91 135.933 156.743C134.719 156.528 134.022 155.717 133.749 154.747C133.118 154.449 132.722 153.713 132.93 153.004C133.024 152.65 133.137 152.314 133.306 151.979C133.532 151.522 134.012 151.279 134.512 151.251C135.029 150.645 135.745 150.235 136.649 150.226C137.553 150.207 138.033 150.86 138.08 151.55C138.702 151.895 139.154 152.491 139.427 153.181C139.822 154.179 139.775 155.372 138.937 156.137ZM153.334 141.602C152.901 142.329 152.299 143.028 151.442 143.233C150.783 143.383 150.199 143.205 149.662 142.888C149.483 142.935 149.295 142.963 149.088 142.954C147.195 142.879 145.35 140.847 145.133 139.057C145.039 138.264 145.896 137.574 146.63 137.574C146.884 137.574 147.101 137.64 147.289 137.742C147.412 137.723 147.534 137.705 147.656 137.695C147.732 137.686 147.807 137.696 147.882 137.714C147.911 137.677 147.939 137.658 147.967 137.621C147.544 136.745 147.967 135.43 149.248 135.43C149.982 135.43 150.434 135.859 150.613 136.39C151.15 136.194 151.8 136.278 152.195 136.717C152.788 137.369 153.438 138.012 153.73 138.87C154.041 139.803 153.824 140.781 153.334 141.602ZM175.321 123.198C175.321 124.056 174.719 124.522 174.059 124.606C174.031 124.671 174.012 124.736 173.975 124.792C173.956 124.83 173.937 124.867 173.909 124.895C173.881 124.941 173.843 124.997 173.796 125.035C173.768 125.081 173.72 125.128 173.673 125.156C173.626 125.203 173.579 125.24 173.523 125.268C173.476 125.305 173.41 125.342 173.353 125.37C173.306 125.389 173.25 125.408 173.203 125.426C172.788 125.575 172.308 125.547 171.931 125.324C171.762 125.221 171.592 125.119 171.413 125.025C170.99 124.783 170.566 124.541 170.199 124.186C170.029 124.028 169.926 123.832 169.85 123.636C169.85 123.618 169.841 123.608 169.832 123.599C169.737 123.422 169.7 123.235 169.709 123.03V122.853C169.709 122.741 169.728 122.629 169.756 122.517C169.577 122.266 169.511 121.986 169.483 121.669C169.37 120.737 170.001 119.935 170.736 119.432C170.933 119.292 171.178 119.245 171.413 119.236C171.47 119.226 171.526 119.236 171.583 119.236C171.668 119.17 171.762 119.115 171.856 119.068C171.978 119.003 172.12 118.956 172.261 118.928C172.346 118.909 172.43 118.891 172.515 118.891C172.826 118.881 173.137 118.891 173.438 118.947C173.532 118.947 173.626 118.984 173.72 119.003C173.786 119.021 173.852 119.04 173.909 119.059C174.351 119.217 174.719 119.497 174.982 119.954C175.51 120.867 175.321 122.191 175.321 123.198ZM210.208 155.549C209.766 156.612 208.862 157.47 207.656 157.535C206.508 157.591 205.594 156.91 204.982 156.015C204.907 155.904 204.86 155.782 204.822 155.661C204.483 155.391 204.219 155.036 204.078 154.589C203.513 152.78 205.481 151.205 207.176 151.27C209.323 151.354 211.056 153.48 210.208 155.549ZM237.892 155.055C237.844 155.325 237.76 155.587 237.619 155.857C236.865 157.349 235.02 157.983 233.475 157.358C230.048 155.969 232.628 151.009 235.632 151.074C235.961 151.083 236.234 151.177 236.451 151.326C237.025 151.27 237.666 151.494 237.901 152.034C238.108 152.529 238.249 152.995 238.391 153.517C238.541 154.086 238.334 154.692 237.892 155.055Z" fill="#450074"/>
<path opacity="0.5" d="M21.8937 66.059C18.0613 61.0245 15.1329 55.3934 13.2214 49.3706C9.66209 38.1643 10.5472 26.8274 17.9766 17.4017C22.9671 11.0806 29.5867 5.46812 37.1761 2.9975L24.5208 2.81104C24.4266 2.86697 24.3513 2.92291 24.2571 2.97885C15.6602 7.7989 8.94646 14.5675 5.98979 24.0491C5.11408 26.8647 3.34384 28.692 1.23462 29.6709L0.980387 46.266C5.17058 48.112 5.10467 54.8526 0.820312 56.5774V56.8571C3.12727 56.2884 5.62256 56.5215 7.69411 57.836C12.5434 60.9313 16.8937 65.0894 18.4756 70.7578C19.8975 75.8669 18.7958 81.265 15.9992 85.6841L21.3758 85.824C22.0161 83.2601 22.9012 80.7709 24.2854 78.3935C25.3306 76.6034 26.7053 74.8134 28.1837 73.2658C28.0707 73.1539 27.9577 73.0513 27.8447 72.9488C25.679 70.8045 23.7393 68.4644 21.8937 66.0497V66.059Z" fill="#A20AFF"/>
<path opacity="0.5" d="M65.9973 6.28836C66.2327 6.307 67.8523 6.24174 69.0576 6.24174C68.6244 5.36537 68.4079 4.42373 68.3514 3.45413L54.4531 3.24902C58.2573 4.43306 61.9672 5.92476 65.9973 6.28836Z" fill="#A20AFF"/>
<path opacity="0.5" d="M84.3038 19.1265C80.3584 23.5643 74.7276 24.9534 69.0214 24.9907C68.2116 26.6316 66.6014 27.8716 64.1909 27.8716C61.2813 27.8716 59.5393 26.0815 58.9555 23.9465C56.7144 23.5177 54.5016 22.9676 52.2983 22.2591C49.7088 21.42 46.4885 19.6952 43.6919 20.2639C42.7597 20.4504 41.8181 20.8326 40.8765 21.3361C41.3378 24.4127 39.5394 27.8716 35.4904 27.8716C34.8313 27.8716 34.2381 27.7783 33.7013 27.6105C32.9198 28.5615 32.2324 29.5031 31.6863 30.3422C25.4622 40.0196 35.255 54.4517 42.7691 61.3229C45.1608 63.5138 48.1928 65.2572 49.8312 68.1381C52.0064 71.9699 51.3096 76.2492 48.9461 79.764C47.0064 82.6355 43.899 83.8848 41.658 86.3368C41.6486 86.3461 41.6392 86.3647 41.6297 86.3741L47.6184 86.5325C47.6184 86.5325 54.351 84.5467 60.8011 80.9387C68.7012 76.5289 70.462 76.1653 71.1588 75.3448C72.9102 73.2937 71.4037 66.954 67.3924 66.954C58.9178 66.954 46.6768 60.4279 43.852 48.3078C42.7974 43.7675 42.5149 33.4188 44.7936 29.6616C47.6184 25.0001 58.0421 29.3726 61.7427 30.5939C67.3924 32.4585 76.8085 37.1201 80.575 34.3232C85.2642 30.8456 86.2247 25.9324 86.2247 25.9324L85.6126 17.4297C85.2077 18.017 84.784 18.5858 84.3038 19.1172V19.1265Z" fill="#A20AFF"/>
<path opacity="0.5" d="M172.853 28.738L171.911 14.7533L161.553 3.56561L127.382 2.6333C126.535 4.16229 124.962 8.078 122.665 8.078C120.367 8.078 118.795 5.0946 117.947 3.56561H99.4068L88.1074 12.8887V23.1441C88.1074 23.1441 95.0848 10.185 112.589 6.36254C115.687 5.68196 121.911 6.47442 123.889 6.36254C129.463 6.05488 140.829 5.42091 152.137 11.9564C161.29 17.2426 172.128 28.2159 172.853 40.858C173.069 44.6246 172.853 28.738 172.853 28.738Z" fill="#A20AFF"/>
<path opacity="0.5" d="M86.2266 159.913L121.123 173.804H97.7708L86.2266 159.913Z" fill="#A20AFF"/>
<path opacity="0.5" d="M241.518 171.448C241.772 169.248 241.998 167.038 242.224 164.838C243.147 155.907 243.966 146.956 245.51 138.1C247.007 129.55 248.844 121.038 249.126 112.34C249.248 108.629 249.192 104.853 248.467 101.199C247.667 97.1245 246.311 93.1155 246.838 88.9201C246.866 88.6684 246.913 88.426 246.951 88.1836L246.292 87.4844H233.589C236.405 92.118 237.29 97.7771 237.375 103.119C237.572 114.829 233.363 126.632 229.399 137.494C227.318 143.181 224.559 148.886 223.589 154.9C222.78 159.934 224.239 164.792 224.145 169.817C224.136 170.488 224.098 171.159 224.051 171.821L241.508 171.458L241.518 171.448Z" fill="#A20AFF"/>
<path opacity="0.5" d="M204.946 172.211C205.314 170.374 205.408 168.388 205.21 166.188C204.702 160.529 204.381 155.597 205.445 149.929C206.359 145.025 208.298 140.456 210.04 135.804C213.487 126.602 217.573 116.654 218.43 106.8C218.732 103.378 218.873 99.3694 217.065 96.3394C215.879 94.3536 214.231 92.806 213.176 90.7083C212.705 89.7573 211.999 88.5173 211.811 87.4731H183.214L171.914 95.8639L164.382 88.4055C163.666 89.4124 163.346 91.9016 163.44 92.1347C165.408 97.0573 172.715 96.8522 179.447 94.9316C180.897 94.5214 186.039 93.9993 186.039 93.9993C190.53 92.3025 191.415 89.9904 193.572 89.3378C197.818 88.0512 203.732 89.6454 204.871 93.067C205.624 95.3232 206.914 100.134 205.813 102.39C202.263 109.709 204.005 114.454 203.929 123.833C203.835 135.711 194.09 161.275 183.214 168.584C180.502 170.412 200.163 172.313 200.163 172.313L204.946 172.211Z" fill="#A20AFF"/>
<path opacity="0.5" d="M192.317 105.364C191.94 104.675 191.394 104.087 190.716 103.686C190.038 103.276 189.257 103.062 188.466 103.052C187.675 103.052 186.893 103.248 186.206 103.649C183.325 105.355 180.227 106.651 176.988 107.509C168.673 109.019 160.095 107.816 152.524 104.087C151.696 103.742 150.971 103.192 150.415 102.484C149.86 101.775 149.502 100.945 149.361 100.069C149.219 99.1926 149.313 98.2883 149.634 97.4492C149.944 96.6101 150.472 95.8736 151.159 95.2955C156.526 91.24 160.905 86.0377 163.965 80.0802C167.025 74.1228 168.683 67.55 168.824 60.8653C168.965 54.1806 167.571 47.5519 164.765 41.4732C161.959 35.3946 157.797 30.0151 152.6 25.7545C147.402 21.4938 141.3 18.4358 134.737 16.8323C128.184 15.2287 121.347 15.1075 114.737 16.478C108.127 17.8485 101.922 20.6827 96.5641 24.7662C91.2158 28.8497 86.8655 34.0707 83.8335 40.0468C74.9164 40.457 66.0087 39.0213 57.6848 35.8328C56.9974 35.4691 56.2253 35.292 55.4532 35.3293C54.681 35.3666 53.9183 35.5997 53.2686 36.0192C52.6189 36.4388 52.0916 37.0261 51.7432 37.716C51.3948 38.4059 51.2441 39.1797 51.3006 39.9442C51.376 49.2953 55.1613 63.7275 79.4267 65.1446C79.728 67.8576 80.2648 70.552 81.0275 73.1718C81.4324 74.4211 81.3382 75.7729 80.7826 76.9663C80.2177 78.1503 79.229 79.092 78.0049 79.5861C73.9277 81.2736 70.3307 83.8654 67.2893 87.0819C67.7883 87.1005 68.2874 87.1751 68.8053 87.2777C71.6678 86.5971 74.4173 85.8419 77.1668 85.9818C78.5322 84.3222 79.9917 82.8305 82.0162 81.7304C87.9766 78.4953 95.6602 82.3551 94.0594 89.6084C93.2779 93.1512 90.2176 94.7268 88.7393 97.6823C87.8448 99.4723 88.2214 102.279 88.2402 104.507C88.3156 111.443 87.8918 117.988 87.0821 124.682C87.9295 128.588 87.6564 132.485 87.148 136.476C86.6207 140.597 85.5284 145.277 87.76 149.053C88.4568 150.237 88.6734 151.402 88.5321 152.465C100.66 157.565 112.995 162.226 125.293 166.981C136.837 171.493 151.526 174.663 162.995 168.51C177.063 160.334 185.5 142.881 189.266 128.234C189.718 121.26 190.914 114.352 192.816 107.621C192.854 106.838 192.675 106.054 192.308 105.364H192.317ZM107.751 57.4997C100.472 57.4997 100.481 46.3119 107.751 46.3119C115.02 46.3119 115.02 57.4997 107.751 57.4997ZM121.95 71.9878C114.671 71.9878 114.681 60.8 121.95 60.8C129.219 60.8 129.219 71.9878 121.95 71.9878ZM136.442 159.355C129.163 159.355 129.172 148.167 136.442 148.167C143.711 148.167 143.711 159.355 136.442 159.355ZM137.449 92.8715C130.17 92.8715 130.18 81.6838 137.449 81.6838C144.718 81.6838 144.718 92.8715 137.449 92.8715ZM150.359 145.006C143.08 145.006 143.089 133.819 150.359 133.819C157.628 133.819 157.628 145.006 150.359 145.006ZM172.317 127.824C165.038 127.824 165.048 116.636 172.317 116.636C179.586 116.636 179.586 127.824 172.317 127.824Z" fill="#A20AFF"/>
<g filter="url(#filter0_d_1575_3807)">
<path d="M259.406 98.6311L258.417 96.3842L247.993 86.0822L245.611 85.1126L184.077 85.0473L181.704 86.0356L172.448 95.1908L164.048 86.8653L173.116 77.8778L174.095 75.5284L174.067 14.7045L172.937 12.0474L162.74 1.94113L160.131 0.887619L128.86 0.868973H123.775C123.917 0.962204 124.058 1.07408 124.18 1.19528C125.178 2.18353 125.178 3.78711 124.18 4.77535C123.182 5.7636 121.563 5.75428 120.574 4.77535C119.576 3.78711 119.566 2.18353 120.565 1.19528C120.687 1.07408 120.828 0.962204 120.969 0.868973H115.894H98.8038L96.3367 1.89451L87.0336 11.1151L77.7022 1.88519L75.3293 0.915588L13.9265 0.803711L11.2429 1.92248L1.06403 11.9914L0 14.5739L0.056497 45.5267L0.0753293 50.5518C0.0753293 50.5518 0.0847455 50.5238 0.0941616 50.5145C0.178907 50.384 0.282485 50.2628 0.395479 50.1509C1.38418 49.172 3.01317 49.172 4.00187 50.1602C4.99998 51.1485 5.0094 52.7521 4.01129 53.731C3.02259 54.7099 1.39359 54.7099 0.395479 53.731C0.282485 53.6191 0.169491 53.4886 0.0847455 53.3581C0.0847455 53.3581 0.0847455 53.3487 0.0847455 53.3394L0.103578 58.3646L0.12241 75.2767L1.1676 77.7193L11.516 87.9468L13.8888 88.9444L75.0091 89.0096H75.4329L77.8152 88.0493L87.1654 78.8101L95.5552 87.1357L86.6287 95.9833L85.4987 98.6404L85.6117 159.464L86.591 161.814L97.0053 172.144L99.2934 173.104L160.969 173.169L163.239 172.19L172.485 163.016L181.638 172.069L184.321 173.188L245.752 173.216L248.125 172.246L258.54 161.954L259.5 159.688L259.425 98.6311H259.406ZM84.6136 75.3513L75.3858 84.4693L74.576 84.7956L14.7457 84.7303L13.9359 84.3854L4.76458 75.3233L4.38793 74.4283L4.3691 58.3553C5.34838 58.0383 6.26175 57.4975 7.03387 56.733C9.68923 54.1039 9.68923 49.8153 7.03387 47.1768C6.25233 46.403 5.32013 45.853 4.33143 45.536L4.28435 15.4037L4.70808 14.3782L13.6723 5.49323L14.7834 5.0364L74.5007 5.14828L75.3105 5.47459L84.5477 14.6112L84.849 15.3198L84.9149 74.6427L84.6042 75.3419L84.6136 75.3513ZM89.7078 75.3699L89.3782 74.5588L89.3123 15.3198L89.6513 14.518L98.785 5.46526L99.6795 5.09234H115.913C116.233 6.06194 116.789 6.98493 117.561 7.75875C120.226 10.3879 124.557 10.3972 127.212 7.75875C127.994 6.98493 128.54 6.07127 128.86 5.09234L159.284 5.11099L160.32 5.53053L169.312 14.4434L169.783 15.5529L169.802 74.68L169.472 75.4725L159.896 84.9634L143.596 84.9447C143.276 83.9565 142.721 83.0335 141.93 82.2504C139.274 79.6213 134.943 79.6119 132.278 82.2504C131.497 83.0242 130.951 83.9379 130.63 84.9075L99.6324 84.8608V84.8422L98.9262 84.5345L89.6889 75.3792L89.7078 75.3699ZM138.945 88.8325C137.947 89.8114 136.327 89.8114 135.329 88.8325C134.331 87.8536 134.322 86.2407 135.32 85.2524C136.308 84.2735 137.937 84.2735 138.935 85.2617C139.934 86.25 139.934 87.8536 138.945 88.8325ZM170.31 158.7L169.981 159.502L160.772 168.638L160.065 168.937L100.15 168.871L99.4347 168.573L90.2068 159.427L89.8773 158.625L89.7643 99.4981L90.2351 98.398L99.2087 89.5131L100.235 89.0935L130.668 89.1402C130.988 90.1191 131.544 91.0327 132.325 91.8159C134.981 94.4543 139.312 94.4543 141.977 91.8252C142.749 91.0607 143.295 90.1564 143.615 89.1868L159.849 89.2054L160.753 89.5877L170.348 99.582V115.608C169.359 115.925 168.436 116.476 167.655 117.24C164.999 119.869 164.999 124.158 167.664 126.796C168.446 127.57 169.368 128.111 170.357 128.437L170.376 158.7H170.329H170.31ZM170.668 123.813C169.67 122.834 169.67 121.221 170.668 120.242C171.666 119.263 173.276 119.263 174.274 120.242C175.272 121.221 175.282 122.834 174.284 123.822C173.286 124.81 171.666 124.801 170.668 123.813ZM254.905 159.548L245.687 168.657L244.886 168.993L185.169 168.965L184.058 168.498L175.056 159.595L174.632 158.569L174.604 128.437C175.593 128.12 176.515 127.57 177.297 126.805C179.952 124.176 179.952 119.888 177.297 117.249C176.515 116.476 175.593 115.935 174.604 115.608V99.5447L174.981 98.659L184.124 89.6156L184.933 89.28L244.764 89.3453L245.583 89.6809L254.83 98.8269L255.14 99.5261L255.206 158.849L254.905 159.558V159.548Z" fill="#FF8A8A"/>
<path d="M69.794 18.4349C67.1292 15.7965 62.8072 15.7965 60.1424 18.4256C59.3609 19.1994 58.8147 20.1131 58.4946 21.092L43.1933 21.0734C42.8732 20.0945 42.3176 19.1808 41.5361 18.407C38.8807 15.7779 34.5493 15.7685 31.8845 18.407C29.2197 21.0454 29.2291 25.3247 31.8939 27.9632C34.5493 30.6016 38.8807 30.6016 41.5455 27.9725C42.327 27.1987 42.8732 26.285 43.1933 25.3061L58.4852 25.3247C58.8053 26.3036 59.3609 27.2173 60.1424 27.9911C62.8072 30.6202 67.1386 30.6296 69.794 27.9911C72.4493 25.362 72.4493 21.0734 69.794 18.4349ZM38.5323 24.9611C37.5342 25.94 35.9146 25.94 34.9165 24.9611C33.9184 23.9822 33.909 22.3693 34.9071 21.381C35.8958 20.4021 37.5248 20.4021 38.5229 21.3904C39.521 22.3786 39.5304 23.9822 38.5323 24.9611ZM66.7808 24.9984C65.7921 25.9773 64.1631 25.9773 63.165 24.9891C62.1669 24.0008 62.1669 22.3973 63.165 21.4183C64.1537 20.4394 65.7827 20.4394 66.7808 21.4183C67.7789 22.3973 67.7789 24.0102 66.7808 24.9984Z" fill="#FF8A8A"/>
<path d="M155.093 134.934C152.428 132.296 148.097 132.296 145.441 134.925C142.786 137.554 142.786 141.843 145.451 144.481C146.242 145.264 147.183 145.823 148.191 146.14V151.902H142.748C142.447 150.793 141.863 149.758 140.988 148.891C138.323 146.252 133.991 146.252 131.336 148.881C128.681 151.511 128.681 155.799 131.345 158.438C134.01 161.076 138.332 161.076 140.997 158.447C141.684 157.766 142.193 156.983 142.522 156.135H152.475V146.113C153.436 145.796 154.349 145.255 155.112 144.49C157.767 141.861 157.767 137.573 155.112 134.934H155.093ZM137.974 155.445C136.986 156.424 135.357 156.424 134.359 155.436C133.361 154.447 133.351 152.844 134.359 151.856C135.347 150.877 136.967 150.877 137.965 151.865C138.963 152.853 138.973 154.457 137.974 155.445ZM152.08 141.498C151.091 142.476 149.462 142.476 148.464 141.488C147.466 140.5 147.466 138.896 148.464 137.918C149.453 136.929 151.072 136.939 152.07 137.918C153.069 138.896 153.078 140.509 152.08 141.498Z" fill="#FF8A8A"/>
<path d="M240.204 149.516C237.54 146.887 233.218 146.878 230.553 149.516C229.771 150.29 229.225 151.204 228.905 152.183L213.604 152.155C213.284 151.185 212.728 150.262 211.947 149.488C209.291 146.85 204.96 146.85 202.295 149.479C199.64 152.108 199.64 156.397 202.304 159.035C204.96 161.674 209.291 161.674 211.956 159.044C212.738 158.271 213.284 157.357 213.604 156.378L228.896 156.406C229.216 157.376 229.771 158.289 230.553 159.072C233.218 161.711 237.549 161.711 240.204 159.072C242.86 156.443 242.86 152.155 240.204 149.516ZM208.943 156.052C207.954 157.031 206.325 157.031 205.327 156.042C204.329 155.054 204.329 153.451 205.318 152.462C206.306 151.483 207.935 151.483 208.933 152.472C209.932 153.46 209.941 155.064 208.943 156.052ZM237.191 156.08C236.203 157.059 234.574 157.059 233.576 156.08C232.587 155.091 232.577 153.488 233.576 152.5C234.564 151.521 236.193 151.521 237.191 152.509C238.189 153.497 238.189 155.101 237.191 156.08Z" fill="#FF8A8A"/>
<path d="M126.846 61.2187C124.191 58.5895 119.859 58.5895 117.195 61.228C116.404 62.0111 115.839 62.9434 115.518 63.941H109.699V58.5522C110.81 58.2539 111.865 57.6666 112.741 56.7995C115.405 54.1611 115.405 49.8818 112.75 47.2433C110.095 44.6142 105.763 44.6142 103.099 47.2433C100.443 49.8818 100.434 54.1704 103.099 56.7995C103.786 57.4801 104.577 57.9835 105.434 58.3098V68.1644H115.556C115.876 69.1247 116.422 70.0197 117.195 70.7748C119.85 73.404 124.181 73.404 126.846 70.7655C129.511 68.1364 129.511 63.8478 126.856 61.2093L126.846 61.2187ZM106.121 53.8161C105.132 52.8372 105.132 51.2336 106.131 50.2454C107.129 49.2571 108.748 49.2478 109.737 50.236C110.726 51.2243 110.726 52.8279 109.737 53.8161C108.748 54.8044 107.119 54.8044 106.121 53.8161ZM123.824 67.7821C122.825 68.7704 121.206 68.7797 120.208 67.7821C119.219 66.8032 119.219 65.1996 120.217 64.2114C121.206 63.2231 122.835 63.2138 123.824 64.2021C124.812 65.181 124.812 66.7939 123.824 67.7821Z" fill="#FF8A8A"/>
</g>
<rect x="180" y="93.9072" width="70" height="27" rx="9" fill="#D9D9D9"/>
<path d="M186.46 116.907V114.387L192.94 108.267C193.452 107.803 193.828 107.387 194.068 107.019C194.308 106.651 194.468 106.315 194.548 106.011C194.644 105.707 194.692 105.427 194.692 105.171C194.692 104.499 194.46 103.987 193.996 103.635C193.548 103.267 192.884 103.083 192.004 103.083C191.3 103.083 190.644 103.219 190.036 103.491C189.444 103.763 188.94 104.187 188.524 104.763L185.692 102.939C186.332 101.979 187.228 101.219 188.38 100.659C189.532 100.099 190.86 99.8192 192.364 99.8192C193.612 99.8192 194.7 100.027 195.628 100.443C196.572 100.843 197.3 101.411 197.812 102.147C198.34 102.883 198.604 103.763 198.604 104.787C198.604 105.331 198.532 105.875 198.388 106.419C198.26 106.947 197.988 107.507 197.572 108.099C197.172 108.691 196.58 109.355 195.796 110.091L190.42 115.155L189.676 113.739H199.156V116.907H186.46ZM207.96 117.195C206.584 117.195 205.352 116.859 204.264 116.187C203.176 115.499 202.32 114.507 201.696 113.211C201.072 111.915 200.76 110.347 200.76 108.507C200.76 106.667 201.072 105.099 201.696 103.803C202.32 102.507 203.176 101.523 204.264 100.851C205.352 100.163 206.584 99.8192 207.96 99.8192C209.352 99.8192 210.584 100.163 211.656 100.851C212.744 101.523 213.6 102.507 214.224 103.803C214.848 105.099 215.16 106.667 215.16 108.507C215.16 110.347 214.848 111.915 214.224 113.211C213.6 114.507 212.744 115.499 211.656 116.187C210.584 116.859 209.352 117.195 207.96 117.195ZM207.96 113.907C208.616 113.907 209.184 113.723 209.664 113.355C210.16 112.987 210.544 112.403 210.816 111.603C211.104 110.803 211.248 109.771 211.248 108.507C211.248 107.243 211.104 106.211 210.816 105.411C210.544 104.611 210.16 104.027 209.664 103.659C209.184 103.291 208.616 103.107 207.96 103.107C207.32 103.107 206.752 103.291 206.256 103.659C205.776 104.027 205.392 104.611 205.104 105.411C204.832 106.211 204.696 107.243 204.696 108.507C204.696 109.771 204.832 110.803 205.104 111.603C205.392 112.403 205.776 112.987 206.256 113.355C206.752 113.723 207.32 113.907 207.96 113.907ZM216.812 116.907V114.387L223.292 108.267C223.804 107.803 224.18 107.387 224.42 107.019C224.66 106.651 224.82 106.315 224.9 106.011C224.996 105.707 225.044 105.427 225.044 105.171C225.044 104.499 224.812 103.987 224.348 103.635C223.9 103.267 223.236 103.083 222.356 103.083C221.652 103.083 220.996 103.219 220.388 103.491C219.796 103.763 219.292 104.187 218.876 104.763L216.044 102.939C216.684 101.979 217.58 101.219 218.732 100.659C219.884 100.099 221.212 99.8192 222.716 99.8192C223.964 99.8192 225.052 100.027 225.98 100.443C226.924 100.843 227.652 101.411 228.164 102.147C228.692 102.883 228.956 103.763 228.956 104.787C228.956 105.331 228.884 105.875 228.74 106.419C228.612 106.947 228.34 107.507 227.924 108.099C227.524 108.691 226.932 109.355 226.148 110.091L220.772 115.155L220.028 113.739H229.508V116.907H216.812ZM230.968 116.907V114.387L237.448 108.267C237.96 107.803 238.336 107.387 238.576 107.019C238.816 106.651 238.976 106.315 239.056 106.011C239.152 105.707 239.2 105.427 239.2 105.171C239.2 104.499 238.968 103.987 238.504 103.635C238.056 103.267 237.392 103.083 236.512 103.083C235.808 103.083 235.152 103.219 234.544 103.491C233.952 103.763 233.448 104.187 233.032 104.763L230.2 102.939C230.84 101.979 231.736 101.219 232.888 100.659C234.04 100.099 235.368 99.8192 236.872 99.8192C238.12 99.8192 239.208 100.027 240.136 100.443C241.08 100.843 241.808 101.411 242.32 102.147C242.848 102.883 243.112 103.763 243.112 104.787C243.112 105.331 243.04 105.875 242.896 106.419C242.768 106.947 242.496 107.507 242.08 108.099C241.68 108.691 241.088 109.355 240.304 110.091L234.928 115.155L234.184 113.739H243.664V116.907H230.968Z" fill="#171B48"/>
<defs>
<filter id="filter0_d_1575_3807" x="0" y="0.803711" width="259.5" height="174.412" filterUnits="userSpaceOnUse" color-interpolation-filters="sRGB">
<feFlood flood-opacity="0" result="BackgroundImageFix"/>
<feColorMatrix in="SourceAlpha" type="matrix" values="0 0 0 0 0 0 0 0 0 0 0 0 0 0 0 0 0 0 127 0" result="hardAlpha"/>
<feOffset dy="2"/>
<feColorMatrix type="matrix" values="0 0 0 0 0 0 0 0 0 0 0 0 0 0 0 0 0 0 1 0"/>
<feBlend mode="normal" in2="BackgroundImageFix" result="effect1_dropShadow_1575_3807"/>
<feBlend mode="normal" in="SourceGraphic" in2="effect1_dropShadow_1575_3807" result="shape"/>
</filter>
</defs>
</svg>
