<svg width="91" height="352" viewBox="0 0 91 352" fill="none" xmlns="http://www.w3.org/2000/svg">
<path d="M74.7667 260.576H17.4083C11.1764 266.783 7.67718 270.268 1.44531 276.475V293.947C6.87452 294.232 6.8655 302.528 1.44531 302.812V333.596C7.67718 339.802 11.1764 343.288 17.4083 349.495H74.7667C80.9986 343.288 84.4978 339.802 90.7296 333.596V276.466C84.4978 270.259 80.9986 266.774 74.7667 260.567V260.576ZM38.9538 336.023C33.1367 336.023 33.1548 327.132 38.9538 327.132C44.7527 327.132 44.7527 336.023 38.9538 336.023ZM66.9926 336.566C61.1756 336.566 61.1937 327.674 66.9926 327.674C72.7916 327.674 72.7916 336.566 66.9926 336.566Z" fill="#1A1A1A"/>
<path d="M74.7667 174.325H43.1384C43.8238 176.886 42.4259 180.069 38.9538 180.069C35.4816 180.069 34.0837 176.886 34.7691 174.325H17.4083C11.1764 180.532 7.67718 184.017 1.44531 190.224V247.354C7.67718 253.56 11.1764 257.046 17.4083 263.252H74.7667C80.9986 257.046 84.4978 253.56 90.7296 247.354V190.224C84.4978 184.017 80.9986 180.532 74.7667 174.325ZM23.7033 230.877C17.8863 230.877 17.9043 221.985 23.7033 221.985C29.5022 221.985 29.5022 230.877 23.7033 230.877ZM38.2683 245.647C32.4513 245.647 32.4694 236.755 38.2683 236.755C44.0673 236.755 44.0673 245.647 38.2683 245.647Z" fill="#1A1A1A"/>
<path d="M74.7667 88.0752H58.1364C58.7857 90.6183 57.3788 93.7571 53.9337 93.7571C50.4886 93.7571 49.0817 90.6183 49.731 88.0752H17.4083C11.1764 94.2817 7.67718 97.7673 1.44531 103.974V161.104C7.67718 167.31 11.1764 170.796 17.4083 177.002H34.7872C34.0566 174.433 35.4455 171.187 38.9538 171.187C42.462 171.187 43.8509 174.433 43.1113 177.002H74.7667C80.9986 170.796 84.4978 167.31 90.7296 161.104V103.974C84.4978 97.7673 80.9986 94.2817 74.7667 88.0752ZM53.113 162.455C47.296 162.455 47.314 153.563 53.113 153.563C58.912 153.563 58.912 162.455 53.113 162.455ZM67.8133 148.095C61.9963 148.095 62.0144 139.203 67.8133 139.203C73.6123 139.203 73.6123 148.095 67.8133 148.095Z" fill="#1A1A1A"/>
<path d="M74.7667 2.71289H17.4083C11.1764 8.91938 7.67718 12.405 1.44531 18.6115V48.5058C1.74293 48.4524 2.05858 48.4169 2.39227 48.4169C8.20928 48.4169 8.19124 57.3087 2.39227 57.3087C2.05858 57.3087 1.74293 57.2731 1.44531 57.2198V75.7326C7.67718 81.939 11.1764 85.4246 17.4083 91.6311H50.1549C48.7119 88.9992 49.9745 84.8645 53.9337 84.8645C57.8929 84.8645 59.1555 88.9992 57.7125 91.6311H74.7757C81.0076 85.4246 84.5068 81.939 90.7387 75.7326V18.6115C84.5068 12.405 81.0076 8.91938 74.7757 2.71289H74.7667ZM38.6832 28.1791C32.8662 28.1791 32.8842 19.2873 38.6832 19.2873C44.4822 19.2873 44.4822 28.1791 38.6832 28.1791ZM67.2632 28.5881C61.4462 28.5881 61.4642 19.6963 67.2632 19.6963C73.0622 19.6963 73.0622 28.5881 67.2632 28.5881Z" fill="#1A1A1A"/>
<g opacity="0.82">
<path d="M87.3479 320.596C85.3998 314.505 82.2253 310.592 81.0348 309.036C71.5382 296.588 70.8618 279.444 70.2125 262.799C68.8236 227.321 81.3234 204.78 84.8948 181.332C85.1654 179.527 78.3383 175.881 78.3383 175.881C78.3383 175.881 85.8237 171.933 85.8327 169.933C85.8598 163.548 85.012 156.951 82.8476 149.873C75.1186 124.558 53.9158 117.48 59.3992 94.7434C68.7154 56.0996 90.9553 20.9413 79.4836 4.13574H50.624C50.624 4.13574 62.727 36.7332 53.0771 53.841C46.7641 65.0359 41.5423 60.9189 30.5306 73.4031C18.0758 87.5144 18.8875 111.015 24.2175 126.754C33.3083 153.581 55.6384 158.16 53.979 173.881C52.6442 186.569 37.7455 186.943 21.5119 203.224C8.81373 215.966 4.69222 231.74 1.35533 247.612C0.155855 253.302 12.5294 261.927 12.5294 261.927L2.54579 273.931C2.54579 273.931 2.1129 283.428 1.76117 293.965C6.84767 294.552 6.74847 302.465 1.49963 302.803C1.27416 311.713 1.22907 319.671 1.66196 321.476C5.13413 335.801 19.6992 348.152 19.6992 348.152H69.3016C69.3016 348.152 80.9717 346.667 84.6333 342.816C92.4524 334.583 87.7808 321.974 87.3389 320.587L87.3479 320.596ZM67.2634 19.6964C73.0804 19.6964 73.0624 28.5883 67.2634 28.5883C61.4644 28.5883 61.4644 19.6964 67.2634 19.6964ZM23.7035 230.877C17.8865 230.877 17.9045 221.985 23.7035 221.985C29.5024 221.985 29.5024 230.877 23.7035 230.877ZM38.2685 236.755C44.0855 236.755 44.0675 245.647 38.2685 245.647C32.4696 245.647 32.4696 236.755 38.2685 236.755ZM38.954 336.023C33.1369 336.023 33.155 327.131 38.954 327.131C44.7529 327.131 44.7529 336.023 38.954 336.023ZM53.1132 162.455C47.2962 162.455 47.3142 153.563 53.1132 153.563C58.9122 153.563 58.9122 162.455 53.1132 162.455ZM53.9339 93.7564C48.1169 93.7564 48.1349 84.8646 53.9339 84.8646C59.7329 84.8646 59.7329 93.7564 53.9339 93.7564ZM67.8135 139.203C73.6305 139.203 73.6125 148.094 67.8135 148.094C62.0146 148.094 62.0146 139.203 67.8135 139.203ZM66.9928 336.565C61.1758 336.565 61.1939 327.674 66.9928 327.674C72.7918 327.674 72.7918 336.565 66.9928 336.565Z" fill="#F0C4FF"/>
</g>
<g opacity="0.64">
<g opacity="0.64">
<path d="M51.159 209.493C52.8996 209.493 52.8996 206.825 51.159 206.825C49.4184 206.825 49.4184 209.493 51.159 209.493Z" fill="#F2F2F2"/>
</g>
<g opacity="0.64">
<path d="M64.3523 216.41C66.0929 216.41 66.0929 213.742 64.3523 213.742C62.6117 213.742 62.6117 216.41 64.3523 216.41Z" fill="#F2F2F2"/>
</g>
<g opacity="0.64">
<path d="M46.2176 231.038C47.9581 231.038 47.9581 228.37 46.2176 228.37C44.477 228.37 44.477 231.038 46.2176 231.038Z" fill="#F2F2F2"/>
</g>
<g opacity="0.64">
<path d="M39.2 212.748C40.9406 212.748 40.9406 210.08 39.2 210.08C37.4594 210.08 37.4594 212.748 39.2 212.748Z" fill="#F2F2F2"/>
</g>
<g opacity="0.64">
<path d="M63.9402 233.884C65.6808 233.884 65.6808 231.217 63.9402 231.217C62.1996 231.217 62.1996 233.884 63.9402 233.884Z" fill="#F2F2F2"/>
</g>
<g opacity="0.64">
<path d="M53.6316 221.282C55.3722 221.282 55.3722 218.614 53.6316 218.614C51.891 218.614 51.891 221.282 53.6316 221.282Z" fill="#F2F2F2"/>
</g>
<g opacity="0.64">
<path d="M43.2097 185.512C44.9503 185.512 44.9503 182.845 43.2097 182.845C41.4691 182.845 41.4691 185.512 43.2097 185.512Z" fill="#F2F2F2"/>
</g>
<g opacity="0.64">
<path d="M56.4011 192.421C58.1417 192.421 58.1417 189.754 56.4011 189.754C54.6606 189.754 54.6606 192.421 56.4011 192.421Z" fill="#F2F2F2"/>
</g>
<g opacity="0.64">
<path d="M38.2586 207.059C39.9992 207.059 39.9992 204.392 38.2586 204.392C36.518 204.392 36.518 207.059 38.2586 207.059Z" fill="#F2F2F2"/>
</g>
<g opacity="0.64">
<path d="M31.2488 188.768C32.9894 188.768 32.9894 186.101 31.2488 186.101C29.5082 186.101 29.5082 188.768 31.2488 188.768Z" fill="#F2F2F2"/>
</g>
<g opacity="0.64">
<path d="M55.989 209.902C57.7296 209.902 57.7296 207.234 55.989 207.234C54.2484 207.234 54.2484 209.902 55.989 209.902Z" fill="#F2F2F2"/>
</g>
<g opacity="0.64">
<path d="M45.6824 197.301C47.423 197.301 47.423 194.634 45.6824 194.634C43.9418 194.634 43.9418 197.301 45.6824 197.301Z" fill="#F2F2F2"/>
</g>
<g opacity="0.64">
<path d="M59.282 163.672C61.0226 163.672 61.0226 161.005 59.282 161.005C57.5414 161.005 57.5414 163.672 59.282 163.672Z" fill="#F2F2F2"/>
</g>
<g opacity="0.64">
<path d="M72.4793 170.582C74.2199 170.582 74.2199 167.914 72.4793 167.914C70.7387 167.914 70.7387 170.582 72.4793 170.582Z" fill="#F2F2F2"/>
</g>
<g opacity="0.64">
<path d="M54.3386 185.217C56.0792 185.217 56.0792 182.55 54.3386 182.55C52.5981 182.55 52.5981 185.217 54.3386 185.217Z" fill="#F2F2F2"/>
</g>
<g opacity="0.64">
<path d="M47.3347 166.928C49.0753 166.928 49.0753 164.261 47.3347 164.261C45.5941 164.261 45.5941 166.928 47.3347 166.928Z" fill="#F2F2F2"/>
</g>
<g opacity="0.64">
<path d="M72.0633 188.064C73.8039 188.064 73.8039 185.396 72.0633 185.396C70.3227 185.396 70.3227 188.064 72.0633 188.064Z" fill="#F2F2F2"/>
</g>
<g opacity="0.64">
<path d="M61.7644 175.463C63.505 175.463 63.505 172.796 61.7644 172.796C60.0238 172.796 60.0238 175.463 61.7644 175.463Z" fill="#F2F2F2"/>
</g>
<g opacity="0.64">
<path d="M77.3816 145.855C79.1222 145.855 79.1222 143.188 77.3816 143.188C75.641 143.188 75.641 145.855 77.3816 145.855Z" fill="#F2F2F2"/>
</g>
<g opacity="0.64">
<path d="M90.5769 152.763C92.3175 152.763 92.3175 150.096 90.5769 150.096C88.8363 150.096 88.8363 152.763 90.5769 152.763Z" fill="#F2F2F2"/>
</g>
<g opacity="0.64">
<path d="M72.4402 167.4C74.1808 167.4 74.1808 164.732 72.4402 164.732C70.6996 164.732 70.6996 167.4 72.4402 167.4Z" fill="#F2F2F2"/>
</g>
<g opacity="0.64">
<path d="M65.4304 149.108C67.171 149.108 67.171 146.44 65.4304 146.44C63.6899 146.44 63.6899 149.108 65.4304 149.108Z" fill="#F2F2F2"/>
</g>
<g opacity="0.64">
<path d="M90.1629 170.245C91.9035 170.245 91.9035 167.577 90.1629 167.577C88.4223 167.577 88.4223 170.245 90.1629 170.245Z" fill="#F2F2F2"/>
</g>
<g opacity="0.64">
<path d="M79.864 157.645C81.6046 157.645 81.6046 154.978 79.864 154.978C78.1234 154.978 78.1234 157.645 79.864 157.645Z" fill="#F2F2F2"/>
</g>
<g opacity="0.64">
<path d="M60.3015 124.95C62.0421 124.95 62.0421 122.282 60.3015 122.282C58.5609 122.282 58.5609 124.95 60.3015 124.95Z" fill="#F2F2F2"/>
</g>
<g opacity="0.64">
<path d="M73.4949 131.858C75.2355 131.858 75.2355 129.19 73.4949 129.19C71.7543 129.19 71.7543 131.858 73.4949 131.858Z" fill="#F2F2F2"/>
</g>
<g opacity="0.64">
<path d="M55.3582 146.494C57.0988 146.494 57.0988 143.826 55.3582 143.826C53.6176 143.826 53.6176 146.494 55.3582 146.494Z" fill="#F2F2F2"/>
</g>
<g opacity="0.64">
<path d="M48.3484 128.195C50.089 128.195 50.089 125.527 48.3484 125.527C46.6078 125.527 46.6078 128.195 48.3484 128.195Z" fill="#F2F2F2"/>
</g>
<g opacity="0.64">
<path d="M73.0886 149.339C74.8292 149.339 74.8292 146.672 73.0886 146.672C71.3481 146.672 71.3481 149.339 73.0886 149.339Z" fill="#F2F2F2"/>
</g>
<g opacity="0.64">
<path d="M62.7801 136.731C64.5206 136.731 64.5206 134.063 62.7801 134.063C61.0395 134.063 61.0395 136.731 62.7801 136.731Z" fill="#F2F2F2"/>
</g>
<g opacity="0.64">
<path d="M39.3699 107.006C41.1105 107.006 41.1105 104.339 39.3699 104.339C37.6293 104.339 37.6293 107.006 39.3699 107.006Z" fill="#F2F2F2"/>
</g>
<g opacity="0.64">
<path d="M52.5633 113.916C54.3039 113.916 54.3039 111.248 52.5633 111.248C50.8227 111.248 50.8227 113.916 52.5633 113.916Z" fill="#F2F2F2"/>
</g>
<g opacity="0.64">
<path d="M34.4285 128.551C36.1691 128.551 36.1691 125.884 34.4285 125.884C32.6879 125.884 32.6879 128.551 34.4285 128.551Z" fill="#F2F2F2"/>
</g>
<g opacity="0.64">
<path d="M27.4187 110.259C29.1593 110.259 29.1593 107.592 27.4187 107.592C25.6781 107.592 25.6781 110.259 27.4187 110.259Z" fill="#F2F2F2"/>
</g>
<g opacity="0.64">
<path d="M52.1511 131.395C53.8917 131.395 53.8917 128.728 52.1511 128.728C50.4106 128.728 50.4106 131.395 52.1511 131.395Z" fill="#F2F2F2"/>
</g>
<g opacity="0.64">
<path d="M41.8484 118.796C43.589 118.796 43.589 116.129 41.8484 116.129C40.1078 116.129 40.1078 118.796 41.8484 118.796Z" fill="#F2F2F2"/>
</g>
<g opacity="0.64">
<path d="M24.6062 84.0933C26.3468 84.0933 26.3468 81.4258 24.6062 81.4258C22.8656 81.4258 22.8656 84.0933 24.6062 84.0933Z" fill="#F2F2F2"/>
</g>
<g opacity="0.64">
<path d="M37.7976 91.0015C39.5382 91.0015 39.5382 88.334 37.7976 88.334C36.057 88.334 36.057 91.0015 37.7976 91.0015Z" fill="#F2F2F2"/>
</g>
<g opacity="0.64">
<path d="M19.6648 105.638C21.4054 105.638 21.4054 102.971 19.6648 102.971C17.9242 102.971 17.9242 105.638 19.6648 105.638Z" fill="#F2F2F2"/>
</g>
<g opacity="0.64">
<path d="M12.657 87.3482C14.3976 87.3482 14.3976 84.6807 12.657 84.6807C10.9164 84.6807 10.9164 87.3482 12.657 87.3482Z" fill="#F2F2F2"/>
</g>
<g opacity="0.64">
<path d="M37.3875 108.483C39.1281 108.483 39.1281 105.815 37.3875 105.815C35.6469 105.815 35.6469 108.483 37.3875 108.483Z" fill="#F2F2F2"/>
</g>
<g opacity="0.64">
<path d="M27.0847 95.8824C28.8253 95.8824 28.8253 93.2148 27.0847 93.2148C25.3441 93.2148 25.3441 95.8824 27.0847 95.8824Z" fill="#F2F2F2"/>
</g>
<g opacity="0.64">
<path d="M14.5594 58.6597C16.2999 58.6597 16.2999 55.9922 14.5594 55.9922C12.8188 55.9922 12.8188 58.6597 14.5594 58.6597Z" fill="#F2F2F2"/>
</g>
<g opacity="0.64">
<path d="M27.7547 65.5679C29.4953 65.5679 29.4953 62.9004 27.7547 62.9004C26.0141 62.9004 26.0141 65.5679 27.7547 65.5679Z" fill="#F2F2F2"/>
</g>
<g opacity="0.64">
<path d="M9.61599 80.2037C11.3566 80.2037 11.3566 77.5361 9.61599 77.5361C7.8754 77.5361 7.8754 80.2037 9.61599 80.2037Z" fill="#F2F2F2"/>
</g>
<g opacity="0.64">
<path d="M2.61013 61.9146C4.35073 61.9146 4.35073 59.2471 2.61013 59.2471C0.869539 59.2471 0.869539 61.9146 2.61013 61.9146Z" fill="#F2F2F2"/>
</g>
<g opacity="0.64">
<path d="M27.3386 83.0494C29.0792 83.0494 29.0792 80.3818 27.3386 80.3818C25.5981 80.3818 25.5981 83.0494 27.3386 83.0494Z" fill="#F2F2F2"/>
</g>
<g opacity="0.64">
<path d="M17.0418 70.4508C18.7824 70.4508 18.7824 67.7832 17.0418 67.7832C15.3012 67.7832 15.3012 70.4508 17.0418 70.4508Z" fill="#F2F2F2"/>
</g>
<g opacity="0.64">
<path d="M14.9383 31.4537C16.6789 31.4537 16.6789 28.7861 14.9383 28.7861C13.1977 28.7861 13.1977 31.4537 14.9383 31.4537Z" fill="#F2F2F2"/>
</g>
<g opacity="0.64">
<path d="M28.1316 38.3619C29.8722 38.3619 29.8722 35.6943 28.1316 35.6943C26.391 35.6943 26.391 38.3619 28.1316 38.3619Z" fill="#F2F2F2"/>
</g>
<g opacity="0.64">
<path d="M9.98318 52.9996C11.7238 52.9996 11.7238 50.332 9.98318 50.332C8.24259 50.332 8.24259 52.9996 9.98318 52.9996Z" fill="#F2F2F2"/>
</g>
<g opacity="0.64">
<path d="M2.97927 34.6988C4.71987 34.6988 4.71987 32.0312 2.97927 32.0312C1.23868 32.0312 1.23868 34.6988 2.97927 34.6988Z" fill="#F2F2F2"/>
</g>
<g opacity="0.64">
<path d="M27.7176 55.8433C29.4581 55.8433 29.4581 53.1758 27.7176 53.1758C25.977 53.1758 25.977 55.8433 27.7176 55.8433Z" fill="#F2F2F2"/>
</g>
<g opacity="0.64">
<path d="M17.4109 43.234C19.1515 43.234 19.1515 40.5664 17.4109 40.5664C15.6703 40.5664 15.6703 43.234 17.4109 43.234Z" fill="#F2F2F2"/>
</g>
<g opacity="0.64">
<path d="M23.6004 5.6402C25.341 5.6402 25.341 2.97266 23.6004 2.97266C21.8598 2.97266 21.8598 5.6402 23.6004 5.6402Z" fill="#F2F2F2"/>
</g>
<g opacity="0.64">
<path d="M36.7937 12.5474C38.5343 12.5474 38.5343 9.87988 36.7937 9.87988C35.0531 9.87988 35.0531 12.5474 36.7937 12.5474Z" fill="#F2F2F2"/>
</g>
<g opacity="0.64">
<path d="M18.6492 27.1763C20.3898 27.1763 20.3898 24.5088 18.6492 24.5088C16.9086 24.5088 16.9086 27.1763 18.6492 27.1763Z" fill="#F2F2F2"/>
</g>
<g opacity="0.64">
<path d="M11.6394 8.88532C13.38 8.88532 13.38 6.21777 11.6394 6.21777C9.89884 6.21777 9.89884 8.88532 11.6394 8.88532Z" fill="#F2F2F2"/>
</g>
<g opacity="0.64">
<path d="M36.3816 30.0211C38.1222 30.0211 38.1222 27.3535 36.3816 27.3535C34.641 27.3535 34.641 30.0211 36.3816 30.0211Z" fill="#F2F2F2"/>
</g>
<g opacity="0.64">
<path d="M26.073 17.4215C27.8136 17.4215 27.8136 14.7539 26.073 14.7539C24.3324 14.7539 24.3324 17.4215 26.073 17.4215Z" fill="#F2F2F2"/>
</g>
</g>
<g opacity="0.64">
<g opacity="0.64">
<path d="M65.5789 281.134C67.3195 281.134 67.3195 278.467 65.5789 278.467C63.8383 278.467 63.8383 281.134 65.5789 281.134Z" fill="#F2F2F2"/>
</g>
<g opacity="0.64">
<path d="M78.7742 288.044C80.5148 288.044 80.5148 285.376 78.7742 285.376C77.0336 285.376 77.0336 288.044 78.7742 288.044Z" fill="#F2F2F2"/>
</g>
<g opacity="0.64">
<path d="M60.6336 302.682C62.3742 302.682 62.3742 300.015 60.6336 300.015C58.893 300.015 58.893 302.682 60.6336 302.682Z" fill="#F2F2F2"/>
</g>
<g opacity="0.64">
<path d="M53.6297 284.389C55.3703 284.389 55.3703 281.722 53.6297 281.722C51.8891 281.722 51.8891 284.389 53.6297 284.389Z" fill="#F2F2F2"/>
</g>
<g opacity="0.64">
<path d="M78.3679 305.525C80.1085 305.525 80.1085 302.857 78.3679 302.857C76.6274 302.857 76.6274 305.525 78.3679 305.525Z" fill="#F2F2F2"/>
</g>
<g opacity="0.64">
<path d="M68.0594 292.923C69.7999 292.923 69.7999 290.256 68.0594 290.256C66.3188 290.256 66.3188 292.923 68.0594 292.923Z" fill="#F2F2F2"/>
</g>
<g opacity="0.64">
<path d="M65.1082 305.525C66.8488 305.525 66.8488 302.857 65.1082 302.857C63.3676 302.857 63.3676 305.525 65.1082 305.525Z" fill="#F2F2F2"/>
</g>
<g opacity="0.64">
<path d="M78.3054 312.433C80.046 312.433 80.046 309.766 78.3054 309.766C76.5649 309.766 76.5649 312.433 78.3054 312.433Z" fill="#F2F2F2"/>
</g>
<g opacity="0.64">
<path d="M60.159 327.07C61.8996 327.07 61.8996 324.402 60.159 324.402C58.4184 324.402 58.4184 327.07 60.159 327.07Z" fill="#F2F2F2"/>
</g>
<g opacity="0.64">
<path d="M53.1511 308.779C54.8917 308.779 54.8917 306.111 53.1511 306.111C51.4106 306.111 51.4106 308.779 53.1511 308.779Z" fill="#F2F2F2"/>
</g>
<g opacity="0.64">
<path d="M77.8894 329.915C79.63 329.915 79.63 327.247 77.8894 327.247C76.1488 327.247 76.1488 329.915 77.8894 329.915Z" fill="#F2F2F2"/>
</g>
<g opacity="0.64">
<path d="M67.5789 317.314C69.3195 317.314 69.3195 314.646 67.5789 314.646C65.8383 314.646 65.8383 317.314 67.5789 317.314Z" fill="#F2F2F2"/>
</g>
<g opacity="0.64">
<path d="M39.7957 301.738C41.5363 301.738 41.5363 299.07 39.7957 299.07C38.0551 299.07 38.0551 301.738 39.7957 301.738Z" fill="#F2F2F2"/>
</g>
<g opacity="0.64">
<path d="M52.989 308.645C54.7296 308.645 54.7296 305.978 52.989 305.978C51.2484 305.978 51.2484 308.645 52.989 308.645Z" fill="#F2F2F2"/>
</g>
<g opacity="0.64">
<path d="M34.8445 323.283C36.5851 323.283 36.5851 320.615 34.8445 320.615C33.1039 320.615 33.1039 323.283 34.8445 323.283Z" fill="#F2F2F2"/>
</g>
<g opacity="0.64">
<path d="M27.8367 304.993C29.5773 304.993 29.5773 302.325 27.8367 302.325C26.0961 302.325 26.0961 304.993 27.8367 304.993Z" fill="#F2F2F2"/>
</g>
<g opacity="0.64">
<path d="M52.5711 326.127C54.3117 326.127 54.3117 323.459 52.5711 323.459C50.8305 323.459 50.8305 326.127 52.5711 326.127Z" fill="#F2F2F2"/>
</g>
<g opacity="0.64">
<path d="M42.2664 313.528C44.007 313.528 44.007 310.86 42.2664 310.86C40.5258 310.86 40.5258 313.528 42.2664 313.528Z" fill="#F2F2F2"/>
</g>
<g opacity="0.64">
<path d="M18.032 286.246C19.7726 286.246 19.7726 283.578 18.032 283.578C16.2914 283.578 16.2914 286.246 18.032 286.246Z" fill="#F2F2F2"/>
</g>
<g opacity="0.64">
<path d="M31.2254 293.155C32.966 293.155 32.966 290.487 31.2254 290.487C29.4848 290.487 29.4848 293.155 31.2254 293.155Z" fill="#F2F2F2"/>
</g>
<g opacity="0.64">
<path d="M13.0906 307.782C14.8312 307.782 14.8312 305.114 13.0906 305.114C11.35 305.114 11.35 307.782 13.0906 307.782Z" fill="#F2F2F2"/>
</g>
<g opacity="0.64">
<path d="M6.07302 289.492C7.81362 289.492 7.81362 286.824 6.07302 286.824C4.33243 286.824 4.33243 289.492 6.07302 289.492Z" fill="#F2F2F2"/>
</g>
<g opacity="0.64">
<path d="M30.8133 310.628C32.5539 310.628 32.5539 307.961 30.8133 307.961C29.0727 307.961 29.0727 310.628 30.8133 310.628Z" fill="#F2F2F2"/>
</g>
<g opacity="0.64">
<path d="M20.5047 298.028C22.2453 298.028 22.2453 295.36 20.5047 295.36C18.7641 295.36 18.7641 298.028 20.5047 298.028Z" fill="#F2F2F2"/>
</g>
<g opacity="0.64">
<path d="M19.9168 259.83C21.6574 259.83 21.6574 257.162 19.9168 257.162C18.1762 257.162 18.1762 259.83 19.9168 259.83Z" fill="#F2F2F2"/>
</g>
<g opacity="0.64">
<path d="M33.1101 266.739C34.8507 266.739 34.8507 264.071 33.1101 264.071C31.3695 264.071 31.3695 266.739 33.1101 266.739Z" fill="#F2F2F2"/>
</g>
<g opacity="0.64">
<path d="M14.9656 281.376C16.7062 281.376 16.7062 278.708 14.9656 278.708C13.225 278.708 13.225 281.376 14.9656 281.376Z" fill="#F2F2F2"/>
</g>
<g opacity="0.64">
<path d="M7.95779 263.085C9.69838 263.085 9.69838 260.417 7.95779 260.417C6.2172 260.417 6.2172 263.085 7.95779 263.085Z" fill="#F2F2F2"/>
</g>
<g opacity="0.64">
<path d="M32.698 284.22C34.4386 284.22 34.4386 281.553 32.698 281.553C30.9574 281.553 30.9574 284.22 32.698 284.22Z" fill="#F2F2F2"/>
</g>
<g opacity="0.64">
<path d="M22.3894 271.62C24.13 271.62 24.13 268.952 22.3894 268.952C20.6488 268.952 20.6488 271.62 22.3894 271.62Z" fill="#F2F2F2"/>
</g>
<g opacity="0.64">
<path d="M32.0183 235.643C33.7589 235.643 33.7589 232.976 32.0183 232.976C30.2777 232.976 30.2777 235.643 32.0183 235.643Z" fill="#F2F2F2"/>
</g>
<g opacity="0.64">
<path d="M45.2136 242.551C46.9542 242.551 46.9542 239.884 45.2136 239.884C43.4731 239.884 43.4731 242.551 45.2136 242.551Z" fill="#F2F2F2"/>
</g>
<g opacity="0.64">
<path d="M27.0769 257.189C28.8175 257.189 28.8175 254.521 27.0769 254.521C25.3363 254.521 25.3363 257.189 27.0769 257.189Z" fill="#F2F2F2"/>
</g>
<g opacity="0.64">
<path d="M20.0691 238.898C21.8097 238.898 21.8097 236.23 20.0691 236.23C18.3285 236.23 18.3285 238.898 20.0691 238.898Z" fill="#F2F2F2"/>
</g>
<g opacity="0.64">
<path d="M44.8035 260.035C46.5441 260.035 46.5441 257.367 44.8035 257.367C43.0629 257.367 43.0629 260.035 44.8035 260.035Z" fill="#F2F2F2"/>
</g>
<g opacity="0.64">
<path d="M34.4988 247.433C36.2394 247.433 36.2394 244.766 34.4988 244.766C32.7582 244.766 32.7582 247.433 34.4988 247.433Z" fill="#F2F2F2"/>
</g>
<g opacity="0.64">
<path d="M54.7801 220.688C56.5206 220.688 56.5206 218.021 54.7801 218.021C53.0395 218.021 53.0395 220.688 54.7801 220.688Z" fill="#F2F2F2"/>
</g>
<g opacity="0.64">
<path d="M67.9773 227.595C69.7179 227.595 69.7179 224.928 67.9773 224.928C66.2367 224.928 66.2367 227.595 67.9773 227.595Z" fill="#F2F2F2"/>
</g>
<g opacity="0.64">
<path d="M49.8406 242.233C51.5812 242.233 51.5812 239.565 49.8406 239.565C48.1 239.565 48.1 242.233 49.8406 242.233Z" fill="#F2F2F2"/>
</g>
<g opacity="0.64">
<path d="M42.8328 223.941C44.5734 223.941 44.5734 221.273 42.8328 221.273C41.0922 221.273 41.0922 223.941 42.8328 223.941Z" fill="#F2F2F2"/>
</g>
<g opacity="0.64">
<path d="M67.5613 245.079C69.3019 245.079 69.3019 242.411 67.5613 242.411C65.8207 242.411 65.8207 245.079 67.5613 245.079Z" fill="#F2F2F2"/>
</g>
<g opacity="0.64">
<path d="M57.2644 232.478C59.005 232.478 59.005 229.811 57.2644 229.811C55.5238 229.811 55.5238 232.478 57.2644 232.478Z" fill="#F2F2F2"/>
</g>
<g opacity="0.64">
<path d="M76.8719 205.597C78.6124 205.597 78.6124 202.93 76.8719 202.93C75.1313 202.93 75.1313 205.597 76.8719 205.597Z" fill="#F2F2F2"/>
</g>
<g opacity="0.64">
<path d="M90.0633 212.506C91.8039 212.506 91.8039 209.839 90.0633 209.839C88.3227 209.839 88.3227 212.506 90.0633 212.506Z" fill="#F2F2F2"/>
</g>
<g opacity="0.64">
<path d="M71.9148 227.145C73.6554 227.145 73.6554 224.478 71.9148 224.478C70.1742 224.478 70.1742 227.145 71.9148 227.145Z" fill="#F2F2F2"/>
</g>
<g opacity="0.64">
<path d="M64.9109 208.852C66.6515 208.852 66.6515 206.185 64.9109 206.185C63.1703 206.185 63.1703 208.852 64.9109 208.852Z" fill="#F2F2F2"/>
</g>
<g opacity="0.64">
<path d="M89.6511 229.988C91.3917 229.988 91.3917 227.32 89.6511 227.32C87.9106 227.32 87.9106 229.988 89.6511 229.988Z" fill="#F2F2F2"/>
</g>
<g opacity="0.64">
<path d="M79.3426 217.387C81.0831 217.387 81.0831 214.72 79.3426 214.72C77.602 214.72 77.602 217.387 79.3426 217.387Z" fill="#F2F2F2"/>
</g>
<g opacity="0.64">
<path d="M74.3367 180.018C76.0773 180.018 76.0773 177.351 74.3367 177.351C72.5961 177.351 72.5961 180.018 74.3367 180.018Z" fill="#F2F2F2"/>
</g>
<g opacity="0.64">
<path d="M87.5281 186.925C89.2687 186.925 89.2687 184.258 87.5281 184.258C85.7875 184.258 85.7875 186.925 87.5281 186.925Z" fill="#F2F2F2"/>
</g>
<g opacity="0.64">
<path d="M69.3816 201.554C71.1222 201.554 71.1222 198.887 69.3816 198.887C67.641 198.887 67.641 201.554 69.3816 201.554Z" fill="#F2F2F2"/>
</g>
<g opacity="0.64">
<path d="M62.3777 183.262C64.1183 183.262 64.1183 180.595 62.3777 180.595C60.6371 180.595 60.6371 183.262 62.3777 183.262Z" fill="#F2F2F2"/>
</g>
<g opacity="0.64">
<path d="M87.116 204.398C88.8566 204.398 88.8566 201.73 87.116 201.73C85.3754 201.73 85.3754 204.398 87.116 204.398Z" fill="#F2F2F2"/>
</g>
<g opacity="0.64">
<path d="M76.8074 191.799C78.548 191.799 78.548 189.132 76.8074 189.132C75.0668 189.132 75.0668 191.799 76.8074 191.799Z" fill="#F2F2F2"/>
</g>
<g opacity="0.64">
<path d="M55.1707 160.358C56.9113 160.358 56.9113 157.69 55.1707 157.69C53.4301 157.69 53.4301 160.358 55.1707 160.358Z" fill="#F2F2F2"/>
</g>
<g opacity="0.64">
<path d="M68.364 167.265C70.1046 167.265 70.1046 164.598 68.364 164.598C66.6234 164.598 66.6234 167.265 68.364 167.265Z" fill="#F2F2F2"/>
</g>
<g opacity="0.64">
<path d="M50.2176 181.894C51.9581 181.894 51.9581 179.227 50.2176 179.227C48.477 179.227 48.477 181.894 50.2176 181.894Z" fill="#F2F2F2"/>
</g>
<g opacity="0.64">
<path d="M43.2117 163.602C44.9523 163.602 44.9523 160.935 43.2117 160.935C41.4711 160.935 41.4711 163.602 43.2117 163.602Z" fill="#F2F2F2"/>
</g>
<g opacity="0.64">
<path d="M67.9519 184.74C69.6925 184.74 69.6925 182.072 67.9519 182.072C66.2113 182.072 66.2113 184.74 67.9519 184.74Z" fill="#F2F2F2"/>
</g>
<g opacity="0.64">
<path d="M57.6433 172.138C59.3839 172.138 59.3839 169.471 57.6433 169.471C55.9027 169.471 55.9027 172.138 57.6433 172.138Z" fill="#F2F2F2"/>
</g>
</g>
<g opacity="0.64">
<g opacity="0.64">
<path d="M44.1121 23.2554C45.8527 23.2554 45.8527 20.5879 44.1121 20.5879C42.3715 20.5879 42.3715 23.2554 44.1121 23.2554Z" fill="#F2F2F2"/>
</g>
<g opacity="0.64">
<path d="M57.3074 30.1734C59.048 30.1734 59.048 27.5059 57.3074 27.5059C55.5668 27.5059 55.5668 30.1734 57.3074 30.1734Z" fill="#F2F2F2"/>
</g>
<g opacity="0.64">
<path d="M39.1687 44.8004C40.9093 44.8004 40.9093 42.1328 39.1687 42.1328C37.4281 42.1328 37.4281 44.8004 39.1687 44.8004Z" fill="#F2F2F2"/>
</g>
<g opacity="0.64">
<path d="M32.1648 26.5103C33.9054 26.5103 33.9054 23.8428 32.1648 23.8428C30.4242 23.8428 30.4242 26.5103 32.1648 26.5103Z" fill="#F2F2F2"/>
</g>
<g opacity="0.64">
<path d="M56.8992 47.6451C58.6398 47.6451 58.6398 44.9775 56.8992 44.9775C55.1586 44.9775 55.1586 47.6451 56.8992 47.6451Z" fill="#F2F2F2"/>
</g>
<g opacity="0.64">
<path d="M46.5965 35.0445C48.3371 35.0445 48.3371 32.377 46.5965 32.377C44.8559 32.377 44.8559 35.0445 46.5965 35.0445Z" fill="#F2F2F2"/>
</g>
<g opacity="0.64">
<path d="M30.9246 47.3424C32.6652 47.3424 32.6652 44.6748 30.9246 44.6748C29.184 44.6748 29.184 47.3424 30.9246 47.3424Z" fill="#F2F2F2"/>
</g>
<g opacity="0.64">
<path d="M44.1238 54.2506C45.8644 54.2506 45.8644 51.583 44.1238 51.583C42.3832 51.583 42.3832 54.2506 44.1238 54.2506Z" fill="#F2F2F2"/>
</g>
<g opacity="0.64">
<path d="M25.9734 68.8785C27.714 68.8785 27.714 66.2109 25.9734 66.2109C24.2328 66.2109 24.2328 68.8785 25.9734 68.8785Z" fill="#F2F2F2"/>
</g>
<g opacity="0.64">
<path d="M18.9676 50.5875C20.7081 50.5875 20.7081 47.9199 18.9676 47.9199C17.227 47.9199 17.227 50.5875 18.9676 50.5875Z" fill="#F2F2F2"/>
</g>
<g opacity="0.64">
<path d="M43.7058 71.7232C45.4464 71.7232 45.4464 69.0557 43.7058 69.0557C41.9652 69.0557 41.9652 71.7232 43.7058 71.7232Z" fill="#F2F2F2"/>
</g>
<g opacity="0.64">
<path d="M33.3972 59.1236C35.1378 59.1236 35.1378 56.4561 33.3972 56.4561C31.6566 56.4561 31.6566 59.1236 33.3972 59.1236Z" fill="#F2F2F2"/>
</g>
<g opacity="0.64">
<path d="M27.075 74.2476C28.8156 74.2476 28.8156 71.5801 27.075 71.5801C25.3344 71.5801 25.3344 74.2476 27.075 74.2476Z" fill="#F2F2F2"/>
</g>
<g opacity="0.64">
<path d="M40.2722 81.1568C42.0128 81.1568 42.0128 78.4893 40.2722 78.4893C38.5316 78.4893 38.5316 81.1568 40.2722 81.1568Z" fill="#F2F2F2"/>
</g>
<g opacity="0.64">
<path d="M22.1336 95.7935C23.8742 95.7935 23.8742 93.126 22.1336 93.126C20.393 93.126 20.393 95.7935 22.1336 95.7935Z" fill="#F2F2F2"/>
</g>
<g opacity="0.64">
<path d="M15.1238 77.5025C16.8644 77.5025 16.8644 74.835 15.1238 74.835C13.3832 74.835 13.3832 77.5025 15.1238 77.5025Z" fill="#F2F2F2"/>
</g>
<g opacity="0.64">
<path d="M39.8601 98.6383C41.6007 98.6383 41.6007 95.9707 39.8601 95.9707C38.1195 95.9707 38.1195 98.6383 39.8601 98.6383Z" fill="#F2F2F2"/>
</g>
<g opacity="0.64">
<path d="M29.5535 86.0377C31.2941 86.0377 31.2941 83.3701 29.5535 83.3701C27.8129 83.3701 27.8129 86.0377 29.5535 86.0377Z" fill="#F2F2F2"/>
</g>
</g>
<g opacity="0.64">
<g opacity="0.64">
<path d="M55.1511 48.525C56.8917 48.525 56.8917 45.8574 55.1511 45.8574C53.4106 45.8574 53.4106 48.525 55.1511 48.525Z" fill="#F2F2F2"/>
</g>
<g opacity="0.64">
<path d="M68.3426 55.4332C70.0831 55.4332 70.0831 52.7656 68.3426 52.7656C66.602 52.7656 66.602 55.4332 68.3426 55.4332Z" fill="#F2F2F2"/>
</g>
<g opacity="0.64">
<path d="M50.1961 70.0699C51.9367 70.0699 51.9367 67.4023 50.1961 67.4023C48.4555 67.4023 48.4555 70.0699 50.1961 70.0699Z" fill="#F2F2F2"/>
</g>
<g opacity="0.64">
<path d="M43.1922 51.7799C44.9328 51.7799 44.9328 49.1123 43.1922 49.1123C41.4516 49.1123 41.4516 51.7799 43.1922 51.7799Z" fill="#F2F2F2"/>
</g>
<g opacity="0.64">
<path d="M67.9304 72.9156C69.671 72.9156 69.671 70.248 67.9304 70.248C66.1899 70.248 66.1899 72.9156 67.9304 72.9156Z" fill="#F2F2F2"/>
</g>
<g opacity="0.64">
<path d="M57.6238 60.314C59.3644 60.314 59.3644 57.6465 57.6238 57.6465C55.8832 57.6465 55.8832 60.314 57.6238 60.314Z" fill="#F2F2F2"/>
</g>
<g opacity="0.64">
<path d="M46.6902 73.6968C48.4308 73.6968 48.4308 71.0293 46.6902 71.0293C44.9496 71.0293 44.9496 73.6968 46.6902 73.6968Z" fill="#F2F2F2"/>
</g>
<g opacity="0.64">
<path d="M59.8855 80.606C61.6261 80.606 61.6261 77.9385 59.8855 77.9385C58.1449 77.9385 58.1449 80.606 59.8855 80.606Z" fill="#F2F2F2"/>
</g>
<g opacity="0.64">
<path d="M41.741 95.2427C43.4816 95.2427 43.4816 92.5752 41.741 92.5752C40.0004 92.5752 40.0004 95.2427 41.741 95.2427Z" fill="#F2F2F2"/>
</g>
<g opacity="0.64">
<path d="M34.7332 76.9498C36.4738 76.9498 36.4738 74.2822 34.7332 74.2822C32.9926 74.2822 32.9926 76.9498 34.7332 76.9498Z" fill="#F2F2F2"/>
</g>
<g opacity="0.64">
<path d="M59.4695 98.0875C61.2101 98.0875 61.2101 95.4199 59.4695 95.4199C57.7289 95.4199 57.7289 98.0875 59.4695 98.0875Z" fill="#F2F2F2"/>
</g>
<g opacity="0.64">
<path d="M49.1629 85.4859C50.9035 85.4859 50.9035 82.8184 49.1629 82.8184C47.4223 82.8184 47.4223 85.4859 49.1629 85.4859Z" fill="#F2F2F2"/>
</g>
<g opacity="0.64">
<path d="M47.3347 100.961C49.0753 100.961 49.0753 98.293 47.3347 98.293C45.5941 98.293 45.5941 100.961 47.3347 100.961Z" fill="#F2F2F2"/>
</g>
<g opacity="0.64">
<path d="M60.5183 107.868C62.2589 107.868 62.2589 105.2 60.5183 105.2C58.7777 105.2 58.7777 107.868 60.5183 107.868Z" fill="#F2F2F2"/>
</g>
<g opacity="0.64">
<path d="M42.3816 122.504C44.1222 122.504 44.1222 119.837 42.3816 119.837C40.641 119.837 40.641 122.504 42.3816 122.504Z" fill="#F2F2F2"/>
</g>
<g opacity="0.64">
<path d="M35.3738 104.213C37.1144 104.213 37.1144 101.546 35.3738 101.546C33.6332 101.546 33.6332 104.213 35.3738 104.213Z" fill="#F2F2F2"/>
</g>
<g opacity="0.64">
<path d="M60.116 125.35C61.8566 125.35 61.8566 122.683 60.116 122.683C58.3754 122.683 58.3754 125.35 60.116 125.35Z" fill="#F2F2F2"/>
</g>
<g opacity="0.64">
<path d="M49.8054 112.749C51.546 112.749 51.546 110.081 49.8054 110.081C48.0649 110.081 48.0649 112.749 49.8054 112.749Z" fill="#F2F2F2"/>
</g>
</g>
<g opacity="0.64">
<g opacity="0.64">
<path d="M24.1824 227.596C25.923 227.596 25.923 224.929 24.1824 224.929C22.4418 224.929 22.4418 227.596 24.1824 227.596Z" fill="#F2F2F2"/>
</g>
<g opacity="0.64">
<path d="M37.3738 234.504C39.1144 234.504 39.1144 231.837 37.3738 231.837C35.6332 231.837 35.6332 234.504 37.3738 234.504Z" fill="#F2F2F2"/>
</g>
<g opacity="0.64">
<path d="M19.239 249.141C20.9796 249.141 20.9796 246.474 19.239 246.474C17.4984 246.474 17.4984 249.141 19.239 249.141Z" fill="#F2F2F2"/>
</g>
<g opacity="0.64">
<path d="M12.2215 230.841C13.9621 230.841 13.9621 228.174 12.2215 228.174C10.4809 228.174 10.4809 230.841 12.2215 230.841Z" fill="#F2F2F2"/>
</g>
<g opacity="0.64">
<path d="M36.9617 251.986C38.7023 251.986 38.7023 249.318 36.9617 249.318C35.2211 249.318 35.2211 251.986 36.9617 251.986Z" fill="#F2F2F2"/>
</g>
<g opacity="0.64">
<path d="M26.6551 239.378C28.3956 239.378 28.3956 236.71 26.6551 236.71C24.9145 236.71 24.9145 239.378 26.6551 239.378Z" fill="#F2F2F2"/>
</g>
<g opacity="0.64">
<path d="M31.6394 203.082C33.38 203.082 33.38 200.414 31.6394 200.414C29.8988 200.414 29.8988 203.082 31.6394 203.082Z" fill="#F2F2F2"/>
</g>
<g opacity="0.64">
<path d="M44.8328 209.988C46.5734 209.988 46.5734 207.32 44.8328 207.32C43.0922 207.32 43.0922 209.988 44.8328 209.988Z" fill="#F2F2F2"/>
</g>
<g opacity="0.64">
<path d="M26.6883 224.628C28.4289 224.628 28.4289 221.96 26.6883 221.96C24.9477 221.96 24.9477 224.628 26.6883 224.628Z" fill="#F2F2F2"/>
</g>
<g opacity="0.64">
<path d="M19.6824 206.336C21.423 206.336 21.423 203.669 19.6824 203.669C17.9418 203.669 17.9418 206.336 19.6824 206.336Z" fill="#F2F2F2"/>
</g>
<g opacity="0.64">
<path d="M44.4187 227.471C46.1593 227.471 46.1593 224.804 44.4187 224.804C42.6781 224.804 42.6781 227.471 44.4187 227.471Z" fill="#F2F2F2"/>
</g>
<g opacity="0.64">
<path d="M34.114 214.871C35.8546 214.871 35.8546 212.203 34.114 212.203C32.3734 212.203 32.3734 214.871 34.114 214.871Z" fill="#F2F2F2"/>
</g>
<g opacity="0.64">
<path d="M56.3777 191.025C58.1183 191.025 58.1183 188.357 56.3777 188.357C54.6371 188.357 54.6371 191.025 56.3777 191.025Z" fill="#F2F2F2"/>
</g>
<g opacity="0.64">
<path d="M69.5691 197.942C71.3097 197.942 71.3097 195.274 69.5691 195.274C67.8285 195.274 67.8285 197.942 69.5691 197.942Z" fill="#F2F2F2"/>
</g>
<g opacity="0.64">
<path d="M51.4363 212.57C53.1769 212.57 53.1769 209.902 51.4363 209.902C49.6957 209.902 49.6957 212.57 51.4363 212.57Z" fill="#F2F2F2"/>
</g>
<g opacity="0.64">
<path d="M44.4285 194.278C46.1691 194.278 46.1691 191.61 44.4285 191.61C42.6879 191.61 42.6879 194.278 44.4285 194.278Z" fill="#F2F2F2"/>
</g>
<g opacity="0.64">
<path d="M69.159 215.415C70.8996 215.415 70.8996 212.747 69.159 212.747C67.4184 212.747 67.4184 215.415 69.159 215.415Z" fill="#F2F2F2"/>
</g>
<g opacity="0.64">
<path d="M58.8582 202.814C60.5988 202.814 60.5988 200.146 58.8582 200.146C57.1176 200.146 57.1176 202.814 58.8582 202.814Z" fill="#F2F2F2"/>
</g>
<g opacity="0.64">
<path d="M66.4793 171.419C68.2199 171.419 68.2199 168.751 66.4793 168.751C64.7387 168.751 64.7387 171.419 66.4793 171.419Z" fill="#F2F2F2"/>
</g>
<g opacity="0.64">
<path d="M79.6726 178.328C81.4132 178.328 81.4132 175.66 79.6726 175.66C77.932 175.66 77.932 178.328 79.6726 178.328Z" fill="#F2F2F2"/>
</g>
<g opacity="0.64">
<path d="M61.5379 192.966C63.2785 192.966 63.2785 190.299 61.5379 190.299C59.7973 190.299 59.7973 192.966 61.5379 192.966Z" fill="#F2F2F2"/>
</g>
<g opacity="0.64">
<path d="M54.5203 174.673C56.2609 174.673 56.2609 172.006 54.5203 172.006C52.7797 172.006 52.7797 174.673 54.5203 174.673Z" fill="#F2F2F2"/>
</g>
<g opacity="0.64">
<path d="M79.2586 195.809C80.9992 195.809 80.9992 193.142 79.2586 193.142C77.518 193.142 77.518 195.809 79.2586 195.809Z" fill="#F2F2F2"/>
</g>
<g opacity="0.64">
<path d="M68.95 183.209C70.6906 183.209 70.6906 180.541 68.95 180.541C67.2094 180.541 67.2094 183.209 68.95 183.209Z" fill="#F2F2F2"/>
</g>
<g opacity="0.64">
<path d="M62.3836 144.353C64.1242 144.353 64.1242 141.686 62.3836 141.686C60.643 141.686 60.643 144.353 62.3836 144.353Z" fill="#F2F2F2"/>
</g>
<g opacity="0.64">
<path d="M75.5769 151.26C77.3175 151.26 77.3175 148.593 75.5769 148.593C73.8363 148.593 73.8363 151.26 75.5769 151.26Z" fill="#F2F2F2"/>
</g>
<g opacity="0.64">
<path d="M57.4324 165.887C59.173 165.887 59.173 163.22 57.4324 163.22C55.6918 163.22 55.6918 165.887 57.4324 165.887Z" fill="#F2F2F2"/>
</g>
<g opacity="0.64">
<path d="M50.4226 147.599C52.1632 147.599 52.1632 144.932 50.4226 144.932C48.682 144.932 48.682 147.599 50.4226 147.599Z" fill="#F2F2F2"/>
</g>
<g opacity="0.64">
<path d="M75.1629 168.735C76.9035 168.735 76.9035 166.067 75.1629 166.067C73.4223 166.067 73.4223 168.735 75.1629 168.735Z" fill="#F2F2F2"/>
</g>
<g opacity="0.64">
<path d="M64.8562 156.134C66.5968 156.134 66.5968 153.467 64.8562 153.467C63.1156 153.467 63.1156 156.134 64.8562 156.134Z" fill="#F2F2F2"/>
</g>
</g>
<g opacity="0.64">
<g opacity="0.64">
<path d="M57.4461 296.195C59.1867 296.195 59.1867 293.527 57.4461 293.527C55.7055 293.527 55.7055 296.195 57.4461 296.195Z" fill="#F2F2F2"/>
</g>
<g opacity="0.64">
<path d="M70.6394 303.104C72.38 303.104 72.38 300.437 70.6394 300.437C68.8988 300.437 68.8988 303.104 70.6394 303.104Z" fill="#F2F2F2"/>
</g>
<g opacity="0.64">
<path d="M52.5047 317.741C54.2453 317.741 54.2453 315.073 52.5047 315.073C50.7641 315.073 50.7641 317.741 52.5047 317.741Z" fill="#F2F2F2"/>
</g>
<g opacity="0.64">
<path d="M45.4851 299.44C47.2257 299.44 47.2257 296.772 45.4851 296.772C43.7445 296.772 43.7445 299.44 45.4851 299.44Z" fill="#F2F2F2"/>
</g>
<g opacity="0.64">
<path d="M70.2273 320.586C71.9679 320.586 71.9679 317.918 70.2273 317.918C68.4867 317.918 68.4867 320.586 70.2273 320.586Z" fill="#F2F2F2"/>
</g>
<g opacity="0.64">
<path d="M59.9187 307.977C61.6593 307.977 61.6593 305.31 59.9187 305.31C58.1781 305.31 58.1781 307.977 59.9187 307.977Z" fill="#F2F2F2"/>
</g>
<g opacity="0.64">
<path d="M52.2078 322.748C53.9484 322.748 53.9484 320.08 52.2078 320.08C50.4672 320.08 50.4672 322.748 52.2078 322.748Z" fill="#F2F2F2"/>
</g>
<g opacity="0.64">
<path d="M65.3992 329.665C67.1398 329.665 67.1398 326.997 65.3992 326.997C63.6586 326.997 63.6586 329.665 65.3992 329.665Z" fill="#F2F2F2"/>
</g>
<g opacity="0.64">
<path d="M47.2566 344.292C48.9972 344.292 48.9972 341.624 47.2566 341.624C45.516 341.624 45.516 344.292 47.2566 344.292Z" fill="#F2F2F2"/>
</g>
<g opacity="0.64">
<path d="M40.2449 326.003C41.9855 326.003 41.9855 323.335 40.2449 323.335C38.5043 323.335 38.5043 326.003 40.2449 326.003Z" fill="#F2F2F2"/>
</g>
<g opacity="0.64">
<path d="M64.9812 347.136C66.7218 347.136 66.7218 344.469 64.9812 344.469C63.2406 344.469 63.2406 347.136 64.9812 347.136Z" fill="#F2F2F2"/>
</g>
<g opacity="0.64">
<path d="M54.6804 334.537C56.421 334.537 56.421 331.869 54.6804 331.869C52.9399 331.869 52.9399 334.537 54.6804 334.537Z" fill="#F2F2F2"/>
</g>
<g opacity="0.64">
<path d="M32.0183 326.357C33.7589 326.357 33.7589 323.689 32.0183 323.689C30.2777 323.689 30.2777 326.357 32.0183 326.357Z" fill="#F2F2F2"/>
</g>
<g opacity="0.64">
<path d="M45.2117 333.265C46.9523 333.265 46.9523 330.598 45.2117 330.598C43.4711 330.598 43.4711 333.265 45.2117 333.265Z" fill="#F2F2F2"/>
</g>
<g opacity="0.64">
<path d="M27.0652 347.901C28.8058 347.901 28.8058 345.233 27.0652 345.233C25.3246 345.233 25.3246 347.901 27.0652 347.901Z" fill="#F2F2F2"/>
</g>
<g opacity="0.64">
<path d="M20.0613 329.61C21.8019 329.61 21.8019 326.942 20.0613 326.942C18.3207 326.942 18.3207 329.61 20.0613 329.61Z" fill="#F2F2F2"/>
</g>
<g opacity="0.64">
<path d="M44.7976 350.746C46.5382 350.746 46.5382 348.078 44.7976 348.078C43.057 348.078 43.057 350.746 44.7976 350.746Z" fill="#F2F2F2"/>
</g>
<g opacity="0.64">
<path d="M34.489 338.146C36.2296 338.146 36.2296 335.479 34.489 335.479C32.7484 335.479 32.7484 338.146 34.489 338.146Z" fill="#F2F2F2"/>
</g>
<g opacity="0.64">
<path d="M16.8972 315.588C18.6378 315.588 18.6378 312.921 16.8972 312.921C15.1566 312.921 15.1566 315.588 16.8972 315.588Z" fill="#F2F2F2"/>
</g>
<g opacity="0.64">
<path d="M30.0906 322.497C31.8312 322.497 31.8312 319.829 30.0906 319.829C28.35 319.829 28.35 322.497 30.0906 322.497Z" fill="#F2F2F2"/>
</g>
<g opacity="0.64">
<path d="M11.9461 337.126C13.6867 337.126 13.6867 334.458 11.9461 334.458C10.2055 334.458 10.2055 337.126 11.9461 337.126Z" fill="#F2F2F2"/>
</g>
<g opacity="0.64">
<path d="M4.9363 318.834C6.6769 318.834 6.6769 316.166 4.9363 316.166C3.19571 316.166 3.19571 318.834 4.9363 318.834Z" fill="#F2F2F2"/>
</g>
<g opacity="0.64">
<path d="M29.6785 339.97C31.4191 339.97 31.4191 337.303 29.6785 337.303C27.9379 337.303 27.9379 339.97 29.6785 339.97Z" fill="#F2F2F2"/>
</g>
<g opacity="0.64">
<path d="M19.3699 327.371C21.1105 327.371 21.1105 324.703 19.3699 324.703C17.6293 324.703 17.6293 327.371 19.3699 327.371Z" fill="#F2F2F2"/>
</g>
<g opacity="0.64">
<path d="M15.4011 288.253C17.1417 288.253 17.1417 285.586 15.4011 285.586C13.6606 285.586 13.6606 288.253 15.4011 288.253Z" fill="#F2F2F2"/>
</g>
<g opacity="0.64">
<path d="M28.5965 295.163C30.3371 295.163 30.3371 292.495 28.5965 292.495C26.8559 292.495 26.8559 295.163 28.5965 295.163Z" fill="#F2F2F2"/>
</g>
<g opacity="0.64">
<path d="M10.4519 309.789C12.1925 309.789 12.1925 307.121 10.4519 307.121C8.71134 307.121 8.71134 309.789 10.4519 309.789Z" fill="#F2F2F2"/>
</g>
<g opacity="0.64">
<path d="M3.44216 291.5C5.18276 291.5 5.18276 288.832 3.44216 288.832C1.70157 288.832 1.70157 291.5 3.44216 291.5Z" fill="#F2F2F2"/>
</g>
<g opacity="0.64">
<path d="M28.1824 312.634C29.923 312.634 29.923 309.967 28.1824 309.967C26.4418 309.967 26.4418 312.634 28.1824 312.634Z" fill="#F2F2F2"/>
</g>
<g opacity="0.64">
<path d="M17.8738 300.037C19.6144 300.037 19.6144 297.369 17.8738 297.369C16.1332 297.369 16.1332 300.037 17.8738 300.037Z" fill="#F2F2F2"/>
</g>
</g>
<g opacity="0.64">
<g opacity="0.64">
<path d="M24.3465 191.138C26.0871 191.138 26.0871 188.471 24.3465 188.471C22.6059 188.471 22.6059 191.138 24.3465 191.138Z" fill="#F2F2F2"/>
</g>
<g opacity="0.64">
<path d="M37.5418 198.045C39.2824 198.045 39.2824 195.378 37.5418 195.378C35.8012 195.378 35.8012 198.045 37.5418 198.045Z" fill="#F2F2F2"/>
</g>
<g opacity="0.64">
<path d="M19.4051 212.683C21.1456 212.683 21.1456 210.016 19.4051 210.016C17.6645 210.016 17.6645 212.683 19.4051 212.683Z" fill="#F2F2F2"/>
</g>
<g opacity="0.64">
<path d="M12.3953 194.393C14.1359 194.393 14.1359 191.726 12.3953 191.726C10.6547 191.726 10.6547 194.393 12.3953 194.393Z" fill="#F2F2F2"/>
</g>
<g opacity="0.64">
<path d="M37.1316 215.529C38.8722 215.529 38.8722 212.861 37.1316 212.861C35.391 212.861 35.391 215.529 37.1316 215.529Z" fill="#F2F2F2"/>
</g>
<g opacity="0.64">
<path d="M26.8289 202.928C28.5695 202.928 28.5695 200.261 26.8289 200.261C25.0883 200.261 25.0883 202.928 26.8289 202.928Z" fill="#F2F2F2"/>
</g>
<g opacity="0.64">
<path d="M20.3777 165.423C22.1183 165.423 22.1183 162.756 20.3777 162.756C18.6371 162.756 18.6371 165.423 20.3777 165.423Z" fill="#F2F2F2"/>
</g>
<g opacity="0.64">
<path d="M33.5711 172.332C35.3117 172.332 35.3117 169.664 33.5711 169.664C31.8305 169.664 31.8305 172.332 33.5711 172.332Z" fill="#F2F2F2"/>
</g>
<g opacity="0.64">
<path d="M15.4363 186.968C17.1769 186.968 17.1769 184.301 15.4363 184.301C13.6957 184.301 13.6957 186.968 15.4363 186.968Z" fill="#F2F2F2"/>
</g>
<g opacity="0.64">
<path d="M8.42068 168.679C10.1613 168.679 10.1613 166.012 8.42068 166.012C6.68009 166.012 6.68009 168.679 8.42068 168.679Z" fill="#F2F2F2"/>
</g>
<g opacity="0.64">
<path d="M33.157 189.813C34.8976 189.813 34.8976 187.146 33.157 187.146C31.4164 187.146 31.4164 189.813 33.157 189.813Z" fill="#F2F2F2"/>
</g>
<g opacity="0.64">
<path d="M22.8504 177.213C24.591 177.213 24.591 174.546 22.8504 174.546C21.1098 174.546 21.1098 177.213 22.8504 177.213Z" fill="#F2F2F2"/>
</g>
<g opacity="0.64">
<path d="M34.2586 141.996C35.9992 141.996 35.9992 139.328 34.2586 139.328C32.518 139.328 32.518 141.996 34.2586 141.996Z" fill="#F2F2F2"/>
</g>
<g opacity="0.64">
<path d="M47.4519 148.903C49.1925 148.903 49.1925 146.235 47.4519 146.235C45.7113 146.235 45.7113 148.903 47.4519 148.903Z" fill="#F2F2F2"/>
</g>
<g opacity="0.64">
<path d="M29.3074 163.54C31.048 163.54 31.048 160.872 29.3074 160.872C27.5668 160.872 27.5668 163.54 29.3074 163.54Z" fill="#F2F2F2"/>
</g>
<g opacity="0.64">
<path d="M22.2996 145.249C24.0402 145.249 24.0402 142.581 22.2996 142.581C20.559 142.581 20.559 145.249 22.2996 145.249Z" fill="#F2F2F2"/>
</g>
<g opacity="0.64">
<path d="M47.0398 166.385C48.7804 166.385 48.7804 163.718 47.0398 163.718C45.2992 163.718 45.2992 166.385 47.0398 166.385Z" fill="#F2F2F2"/>
</g>
<g opacity="0.64">
<path d="M36.7312 153.785C38.4718 153.785 38.4718 151.117 36.7312 151.117C34.9906 151.117 34.9906 153.785 36.7312 153.785Z" fill="#F2F2F2"/>
</g>
<g opacity="0.64">
<path d="M40.7136 117.249C42.4542 117.249 42.4542 114.581 40.7136 114.581C38.9731 114.581 38.9731 117.249 40.7136 117.249Z" fill="#F2F2F2"/>
</g>
<g opacity="0.64">
<path d="M53.9109 124.168C55.6515 124.168 55.6515 121.5 53.9109 121.5C52.1703 121.5 52.1703 124.168 53.9109 124.168Z" fill="#F2F2F2"/>
</g>
<g opacity="0.64">
<path d="M35.7742 138.795C37.5148 138.795 37.5148 136.127 35.7742 136.127C34.0336 136.127 34.0336 138.795 35.7742 138.795Z" fill="#F2F2F2"/>
</g>
<g opacity="0.64">
<path d="M28.7566 120.503C30.4972 120.503 30.4972 117.836 28.7566 117.836C27.016 117.836 27.016 120.503 28.7566 120.503Z" fill="#F2F2F2"/>
</g>
<g opacity="0.64">
<path d="M53.4929 141.639C55.2335 141.639 55.2335 138.972 53.4929 138.972C51.7524 138.972 51.7524 141.639 53.4929 141.639Z" fill="#F2F2F2"/>
</g>
<g opacity="0.64">
<path d="M43.1844 129.038C44.9249 129.038 44.9249 126.37 43.1844 126.37C41.4438 126.37 41.4438 129.038 43.1844 129.038Z" fill="#F2F2F2"/>
</g>
</g>
<g opacity="0.64">
<g opacity="0.64">
<path d="M65.0496 277.051C66.7902 277.051 66.7902 274.384 65.0496 274.384C63.309 274.384 63.309 277.051 65.0496 277.051Z" fill="#F2F2F2"/>
</g>
<g opacity="0.64">
<path d="M78.2449 283.961C79.9855 283.961 79.9855 281.293 78.2449 281.293C76.5043 281.293 76.5043 283.961 78.2449 283.961Z" fill="#F2F2F2"/>
</g>
<g opacity="0.64">
<path d="M60.0984 298.588C61.839 298.588 61.839 295.921 60.0984 295.921C58.3578 295.921 58.3578 298.588 60.0984 298.588Z" fill="#F2F2F2"/>
</g>
<g opacity="0.64">
<path d="M53.0906 280.296C54.8312 280.296 54.8312 277.629 53.0906 277.629C51.35 277.629 51.35 280.296 53.0906 280.296Z" fill="#F2F2F2"/>
</g>
<g opacity="0.64">
<path d="M77.8308 301.434C79.5714 301.434 79.5714 298.767 77.8308 298.767C76.0902 298.767 76.0902 301.434 77.8308 301.434Z" fill="#F2F2F2"/>
</g>
<g opacity="0.64">
<path d="M67.5222 288.833C69.2628 288.833 69.2628 286.165 67.5222 286.165C65.7816 286.165 65.7816 288.833 67.5222 288.833Z" fill="#F2F2F2"/>
</g>
<g opacity="0.64">
<path d="M64.8504 249.762C66.591 249.762 66.591 247.095 64.8504 247.095C63.1098 247.095 63.1098 249.762 64.8504 249.762Z" fill="#F2F2F2"/>
</g>
<g opacity="0.64">
<path d="M78.034 256.671C79.7746 256.671 79.7746 254.004 78.034 254.004C76.2934 254.004 76.2934 256.671 78.034 256.671Z" fill="#F2F2F2"/>
</g>
<g opacity="0.64">
<path d="M59.8972 271.307C61.6378 271.307 61.6378 268.64 59.8972 268.64C58.1566 268.64 58.1566 271.307 59.8972 271.307Z" fill="#F2F2F2"/>
</g>
<g opacity="0.64">
<path d="M52.8894 253.015C54.63 253.015 54.63 250.348 52.8894 250.348C51.1488 250.348 51.1488 253.015 52.8894 253.015Z" fill="#F2F2F2"/>
</g>
<g opacity="0.64">
<path d="M77.6258 274.151C79.3664 274.151 79.3664 271.483 77.6258 271.483C75.8852 271.483 75.8852 274.151 77.6258 274.151Z" fill="#F2F2F2"/>
</g>
<g opacity="0.64">
<path d="M67.323 261.552C69.0636 261.552 69.0636 258.885 67.323 258.885C65.5824 258.885 65.5824 261.552 67.323 261.552Z" fill="#F2F2F2"/>
</g>
<g opacity="0.64">
<path d="M55.2488 224.911C56.9894 224.911 56.9894 222.243 55.2488 222.243C53.5082 222.243 53.5082 224.911 55.2488 224.911Z" fill="#F2F2F2"/>
</g>
<g opacity="0.64">
<path d="M68.4363 231.819C70.1769 231.819 70.1769 229.151 68.4363 229.151C66.6957 229.151 66.6957 231.819 68.4363 231.819Z" fill="#F2F2F2"/>
</g>
<g opacity="0.64">
<path d="M50.2996 246.457C52.0402 246.457 52.0402 243.789 50.2996 243.789C48.559 243.789 48.559 246.457 50.2996 246.457Z" fill="#F2F2F2"/>
</g>
<g opacity="0.64">
<path d="M43.2898 228.164C45.0304 228.164 45.0304 225.496 43.2898 225.496C41.5492 225.496 41.5492 228.164 43.2898 228.164Z" fill="#F2F2F2"/>
</g>
<g opacity="0.64">
<path d="M68.0281 249.301C69.7687 249.301 69.7687 246.634 68.0281 246.634C66.2875 246.634 66.2875 249.301 68.0281 249.301Z" fill="#F2F2F2"/>
</g>
<g opacity="0.64">
<path d="M57.7215 236.701C59.4621 236.701 59.4621 234.033 57.7215 234.033C55.9809 234.033 55.9809 236.701 57.7215 236.701Z" fill="#F2F2F2"/>
</g>
</g>
<g opacity="0.64">
<g opacity="0.64">
<path d="M61.8406 85.3492C63.5812 85.3492 63.5812 82.6816 61.8406 82.6816C60.1 82.6816 60.1 85.3492 61.8406 85.3492Z" fill="#F2F2F2"/>
</g>
<g opacity="0.64">
<path d="M75.0359 92.2584C76.7765 92.2584 76.7765 89.5908 75.0359 89.5908C73.2953 89.5908 73.2953 92.2584 75.0359 92.2584Z" fill="#F2F2F2"/>
</g>
<g opacity="0.64">
<path d="M56.8953 106.895C58.6359 106.895 58.6359 104.228 56.8953 104.228C55.1547 104.228 55.1547 106.895 56.8953 106.895Z" fill="#F2F2F2"/>
</g>
<g opacity="0.64">
<path d="M49.8894 88.6041C51.63 88.6041 51.63 85.9365 49.8894 85.9365C48.1488 85.9365 48.1488 88.6041 49.8894 88.6041Z" fill="#F2F2F2"/>
</g>
<g opacity="0.64">
<path d="M74.6297 109.74C76.3703 109.74 76.3703 107.072 74.6297 107.072C72.8891 107.072 72.8891 109.74 74.6297 109.74Z" fill="#F2F2F2"/>
</g>
<g opacity="0.64">
<path d="M64.3211 97.1402C66.0617 97.1402 66.0617 94.4727 64.3211 94.4727C62.5805 94.4727 62.5805 97.1402 64.3211 97.1402Z" fill="#F2F2F2"/>
</g>
<g opacity="0.64">
<path d="M61.4597 61.6011C63.2003 61.6011 63.2003 58.9336 61.4597 58.9336C59.7191 58.9336 59.7191 61.6011 61.4597 61.6011Z" fill="#F2F2F2"/>
</g>
<g opacity="0.64">
<path d="M74.6511 68.5181C76.3917 68.5181 76.3917 65.8506 74.6511 65.8506C72.9106 65.8506 72.9106 68.5181 74.6511 68.5181Z" fill="#F2F2F2"/>
</g>
<g opacity="0.64">
<path d="M56.5086 83.1461C58.2492 83.1461 58.2492 80.4785 56.5086 80.4785C54.768 80.4785 54.768 83.1461 56.5086 83.1461Z" fill="#F2F2F2"/>
</g>
<g opacity="0.64">
<path d="M49.4988 64.855C51.2394 64.855 51.2394 62.1875 49.4988 62.1875C47.7582 62.1875 47.7582 64.855 49.4988 64.855Z" fill="#F2F2F2"/>
</g>
<g opacity="0.64">
<path d="M74.2351 85.9898C75.9757 85.9898 75.9757 83.3223 74.2351 83.3223C72.4945 83.3223 72.4945 85.9898 74.2351 85.9898Z" fill="#F2F2F2"/>
</g>
<g opacity="0.64">
<path d="M63.9304 73.3912C65.671 73.3912 65.671 70.7236 63.9304 70.7236C62.1899 70.7236 62.1899 73.3912 63.9304 73.3912Z" fill="#F2F2F2"/>
</g>
<g opacity="0.64">
<path d="M52.0535 60.5396C53.7941 60.5396 53.7941 57.8721 52.0535 57.8721C50.3129 57.8721 50.3129 60.5396 52.0535 60.5396Z" fill="#F2F2F2"/>
</g>
<g opacity="0.64">
<path d="M65.2488 67.4498C66.9894 67.4498 66.9894 64.7822 65.2488 64.7822C63.5082 64.7822 63.5082 67.4498 65.2488 67.4498Z" fill="#F2F2F2"/>
</g>
<g opacity="0.64">
<path d="M47.1043 82.0855C48.8449 82.0855 48.8449 79.418 47.1043 79.418C45.3637 79.418 45.3637 82.0855 47.1043 82.0855Z" fill="#F2F2F2"/>
</g>
<g opacity="0.64">
<path d="M40.0945 63.7955C41.8351 63.7955 41.8351 61.1279 40.0945 61.1279C38.3539 61.1279 38.3539 63.7955 40.0945 63.7955Z" fill="#F2F2F2"/>
</g>
<g opacity="0.64">
<path d="M64.8347 84.9312C66.5753 84.9312 66.5753 82.2637 64.8347 82.2637C63.0941 82.2637 63.0941 84.9312 64.8347 84.9312Z" fill="#F2F2F2"/>
</g>
<g opacity="0.64">
<path d="M54.5261 72.3306C56.2667 72.3306 56.2667 69.6631 54.5261 69.6631C52.7856 69.6631 52.7856 72.3306 54.5261 72.3306Z" fill="#F2F2F2"/>
</g>
<g opacity="0.64">
<path d="M54.9207 86.7457C56.6613 86.7457 56.6613 84.0781 54.9207 84.0781C53.1801 84.0781 53.1801 86.7457 54.9207 86.7457Z" fill="#F2F2F2"/>
</g>
<g opacity="0.64">
<path d="M68.1121 93.6539C69.8527 93.6539 69.8527 90.9863 68.1121 90.9863C66.3715 90.9863 66.3715 93.6539 68.1121 93.6539Z" fill="#F2F2F2"/>
</g>
<g opacity="0.64">
<path d="M49.9695 108.292C51.7101 108.292 51.7101 105.624 49.9695 105.624C48.2289 105.624 48.2289 108.292 49.9695 108.292Z" fill="#F2F2F2"/>
</g>
<g opacity="0.64">
<path d="M42.9597 90.0006C44.7003 90.0006 44.7003 87.333 42.9597 87.333C41.2191 87.333 41.2191 90.0006 42.9597 90.0006Z" fill="#F2F2F2"/>
</g>
<g opacity="0.64">
<path d="M67.7019 111.136C69.4425 111.136 69.4425 108.469 67.7019 108.469C65.9613 108.469 65.9613 111.136 67.7019 111.136Z" fill="#F2F2F2"/>
</g>
<g opacity="0.64">
<path d="M57.3933 98.5357C59.1339 98.5357 59.1339 95.8682 57.3933 95.8682C55.6527 95.8682 55.6527 98.5357 57.3933 98.5357Z" fill="#F2F2F2"/>
</g>
<g opacity="0.64">
<path d="M61.9031 112.265C63.6437 112.265 63.6437 109.598 61.9031 109.598C60.1625 109.598 60.1625 112.265 61.9031 112.265Z" fill="#F2F2F2"/>
</g>
<g opacity="0.64">
<path d="M75.0965 119.174C76.8371 119.174 76.8371 116.507 75.0965 116.507C73.3559 116.507 73.3559 119.174 75.0965 119.174Z" fill="#F2F2F2"/>
</g>
<g opacity="0.64">
<path d="M56.9539 133.812C58.6945 133.812 58.6945 131.145 56.9539 131.145C55.2133 131.145 55.2133 133.812 56.9539 133.812Z" fill="#F2F2F2"/>
</g>
<g opacity="0.64">
<path d="M49.9441 115.519C51.6847 115.519 51.6847 112.852 49.9441 112.852C48.2035 112.852 48.2035 115.519 49.9441 115.519Z" fill="#F2F2F2"/>
</g>
<g opacity="0.64">
<path d="M74.6804 136.657C76.421 136.657 76.421 133.989 74.6804 133.989C72.9399 133.989 72.9399 136.657 74.6804 136.657Z" fill="#F2F2F2"/>
</g>
<g opacity="0.64">
<path d="M64.3738 124.055C66.1144 124.055 66.1144 121.388 64.3738 121.388C62.6332 121.388 62.6332 124.055 64.3738 124.055Z" fill="#F2F2F2"/>
</g>
<g opacity="0.64">
<path d="M56.0652 139.012C57.8058 139.012 57.8058 136.345 56.0652 136.345C54.3246 136.345 54.3246 139.012 56.0652 139.012Z" fill="#F2F2F2"/>
</g>
<g opacity="0.64">
<path d="M69.2586 145.92C70.9992 145.92 70.9992 143.253 69.2586 143.253C67.518 143.253 67.518 145.92 69.2586 145.92Z" fill="#F2F2F2"/>
</g>
<g opacity="0.64">
<path d="M51.116 160.547C52.8566 160.547 52.8566 157.88 51.116 157.88C49.3754 157.88 49.3754 160.547 51.116 160.547Z" fill="#F2F2F2"/>
</g>
<g opacity="0.64">
<path d="M44.1043 142.259C45.8449 142.259 45.8449 139.592 44.1043 139.592C42.3637 139.592 42.3637 142.259 44.1043 142.259Z" fill="#F2F2F2"/>
</g>
<g opacity="0.64">
<path d="M68.8445 163.395C70.5851 163.395 70.5851 160.728 68.8445 160.728C67.1039 160.728 67.1039 163.395 68.8445 163.395Z" fill="#F2F2F2"/>
</g>
<g opacity="0.64">
<path d="M58.5379 150.794C60.2785 150.794 60.2785 148.126 58.5379 148.126C56.7973 148.126 56.7973 150.794 58.5379 150.794Z" fill="#F2F2F2"/>
</g>
</g>
<g opacity="0.64">
<g opacity="0.64">
<path d="M24.7742 70.2457C26.5148 70.2457 26.5148 67.5781 24.7742 67.5781C23.0336 67.5781 23.0336 70.2457 24.7742 70.2457Z" fill="#F2F2F2"/>
</g>
<g opacity="0.64">
<path d="M37.9715 77.1549C39.7121 77.1549 39.7121 74.4873 37.9715 74.4873C36.2309 74.4873 36.2309 77.1549 37.9715 77.1549Z" fill="#F2F2F2"/>
</g>
<g opacity="0.64">
<path d="M19.823 91.7925C21.5636 91.7925 21.5636 89.125 19.823 89.125C18.0824 89.125 18.0824 91.7925 19.823 91.7925Z" fill="#F2F2F2"/>
</g>
<g opacity="0.64">
<path d="M12.8172 73.4908C14.5578 73.4908 14.5578 70.8232 12.8172 70.8232C11.0766 70.8232 11.0766 73.4908 12.8172 73.4908Z" fill="#F2F2F2"/>
</g>
<g opacity="0.64">
<path d="M37.5535 94.6353C39.2941 94.6353 39.2941 91.9678 37.5535 91.9678C35.8129 91.9678 35.8129 94.6353 37.5535 94.6353Z" fill="#F2F2F2"/>
</g>
<g opacity="0.64">
<path d="M27.2469 82.0279C28.9874 82.0279 28.9874 79.3604 27.2469 79.3604C25.5063 79.3604 25.5063 82.0279 27.2469 82.0279Z" fill="#F2F2F2"/>
</g>
<g opacity="0.64">
<path d="M26.1082 90.5035C27.8488 90.5035 27.8488 87.8359 26.1082 87.8359C24.3676 87.8359 24.3676 90.5035 26.1082 90.5035Z" fill="#F2F2F2"/>
</g>
<g opacity="0.64">
<path d="M39.2957 97.4117C41.0363 97.4117 41.0363 94.7441 39.2957 94.7441C37.5551 94.7441 37.5551 97.4117 39.2957 97.4117Z" fill="#F2F2F2"/>
</g>
<g opacity="0.64">
<path d="M21.159 112.047C22.8996 112.047 22.8996 109.38 21.159 109.38C19.4184 109.38 19.4184 112.047 21.159 112.047Z" fill="#F2F2F2"/>
</g>
<g opacity="0.64">
<path d="M14.1472 93.7564C15.8878 93.7564 15.8878 91.0889 14.1472 91.0889C12.4066 91.0889 12.4066 93.7564 14.1472 93.7564Z" fill="#F2F2F2"/>
</g>
<g opacity="0.64">
<path d="M38.8875 114.892C40.6281 114.892 40.6281 112.225 38.8875 112.225C37.1469 112.225 37.1469 114.892 38.8875 114.892Z" fill="#F2F2F2"/>
</g>
<g opacity="0.64">
<path d="M28.5808 102.293C30.3214 102.293 30.3214 99.625 28.5808 99.625C26.8402 99.625 26.8402 102.293 28.5808 102.293Z" fill="#F2F2F2"/>
</g>
<g opacity="0.64">
<path d="M21.8699 117.541C23.6105 117.541 23.6105 114.873 21.8699 114.873C20.1293 114.873 20.1293 117.541 21.8699 117.541Z" fill="#F2F2F2"/>
</g>
<g opacity="0.64">
<path d="M35.0633 124.451C36.8039 124.451 36.8039 121.783 35.0633 121.783C33.3227 121.783 33.3227 124.451 35.0633 124.451Z" fill="#F2F2F2"/>
</g>
<g opacity="0.64">
<path d="M16.9168 139.086C18.6574 139.086 18.6574 136.418 16.9168 136.418C15.1762 136.418 15.1762 139.086 16.9168 139.086Z" fill="#F2F2F2"/>
</g>
<g opacity="0.64">
<path d="M9.90896 120.795C11.6496 120.795 11.6496 118.127 9.90896 118.127C8.16837 118.127 8.16837 120.795 9.90896 120.795Z" fill="#F2F2F2"/>
</g>
<g opacity="0.64">
<path d="M34.6492 141.93C36.3898 141.93 36.3898 139.263 34.6492 139.263C32.9086 139.263 32.9086 141.93 34.6492 141.93Z" fill="#F2F2F2"/>
</g>
<g opacity="0.64">
<path d="M24.3426 129.331C26.0831 129.331 26.0831 126.663 24.3426 126.663C22.602 126.663 22.602 129.331 24.3426 129.331Z" fill="#F2F2F2"/>
</g>
<g opacity="0.64">
<path d="M25.2371 144.6C26.9777 144.6 26.9777 141.933 25.2371 141.933C23.4965 141.933 23.4965 144.6 25.2371 144.6Z" fill="#F2F2F2"/>
</g>
<g opacity="0.64">
<path d="M38.4324 151.507C40.173 151.507 40.173 148.84 38.4324 148.84C36.6918 148.84 36.6918 151.507 38.4324 151.507Z" fill="#F2F2F2"/>
</g>
<g opacity="0.64">
<path d="M20.2879 166.144C22.0285 166.144 22.0285 163.477 20.2879 163.477C18.5473 163.477 18.5473 166.144 20.2879 166.144Z" fill="#F2F2F2"/>
</g>
<g opacity="0.64">
<path d="M13.2801 147.854C15.0206 147.854 15.0206 145.187 13.2801 145.187C11.5395 145.187 11.5395 147.854 13.2801 147.854Z" fill="#F2F2F2"/>
</g>
<g opacity="0.64">
<path d="M38.0144 168.989C39.755 168.989 39.755 166.321 38.0144 166.321C36.2738 166.321 36.2738 168.989 38.0144 168.989Z" fill="#F2F2F2"/>
</g>
<g opacity="0.64">
<path d="M27.7097 156.39C29.4503 156.39 29.4503 153.723 27.7097 153.723C25.9691 153.723 25.9691 156.39 27.7097 156.39Z" fill="#F2F2F2"/>
</g>
</g>
<g opacity="0.64">
<g opacity="0.64">
<path d="M75.3504 267.882C77.091 267.882 77.091 265.215 75.3504 265.215C73.6098 265.215 73.6098 267.882 75.3504 267.882Z" fill="#F2F2F2"/>
</g>
<g opacity="0.64">
<path d="M88.5457 274.792C90.2863 274.792 90.2863 272.124 88.5457 272.124C86.8051 272.124 86.8051 274.792 88.5457 274.792Z" fill="#F2F2F2"/>
</g>
<g opacity="0.64">
<path d="M70.4011 289.429C72.1417 289.429 72.1417 286.762 70.4011 286.762C68.6606 286.762 68.6606 289.429 70.4011 289.429Z" fill="#F2F2F2"/>
</g>
<g opacity="0.64">
<path d="M63.3914 271.128C65.132 271.128 65.132 268.46 63.3914 268.46C61.6508 268.46 61.6508 271.128 63.3914 271.128Z" fill="#F2F2F2"/>
</g>
<g opacity="0.64">
<path d="M88.1297 292.273C89.8703 292.273 89.8703 289.605 88.1297 289.605C86.3891 289.605 86.3891 292.273 88.1297 292.273Z" fill="#F2F2F2"/>
</g>
<g opacity="0.64">
<path d="M77.823 279.665C79.5636 279.665 79.5636 276.997 77.823 276.997C76.0824 276.997 76.0824 279.665 77.823 279.665Z" fill="#F2F2F2"/>
</g>
</g>
<g opacity="0.64">
<g opacity="0.64">
<path d="M77.6394 294.017C79.38 294.017 79.38 291.35 77.6394 291.35C75.8988 291.35 75.8988 294.017 77.6394 294.017Z" fill="#F2F2F2"/>
</g>
<g opacity="0.64">
<path d="M90.8328 300.924C92.5734 300.924 92.5734 298.257 90.8328 298.257C89.0922 298.257 89.0922 300.924 90.8328 300.924Z" fill="#F2F2F2"/>
</g>
<g opacity="0.64">
<path d="M72.6902 315.561C74.4308 315.561 74.4308 312.894 72.6902 312.894C70.9496 312.894 70.9496 315.561 72.6902 315.561Z" fill="#F2F2F2"/>
</g>
<g opacity="0.64">
<path d="M65.6785 297.272C67.4191 297.272 67.4191 294.604 65.6785 294.604C63.9379 294.604 63.9379 297.272 65.6785 297.272Z" fill="#F2F2F2"/>
</g>
<g opacity="0.64">
<path d="M90.4148 318.407C92.1554 318.407 92.1554 315.739 90.4148 315.739C88.6742 315.739 88.6742 318.407 90.4148 318.407Z" fill="#F2F2F2"/>
</g>
<g opacity="0.64">
<path d="M80.1121 305.807C81.8527 305.807 81.8527 303.14 80.1121 303.14C78.3715 303.14 78.3715 305.807 80.1121 305.807Z" fill="#F2F2F2"/>
</g>
</g>
<g opacity="0.64">
<g opacity="0.64">
<path d="M33.8035 193.913C35.5441 193.913 35.5441 191.245 33.8035 191.245C32.0629 191.245 32.0629 193.913 33.8035 193.913Z" fill="#F2F2F2"/>
</g>
<g opacity="0.64">
<path d="M46.9969 200.823C48.7374 200.823 48.7374 198.155 46.9969 198.155C45.2563 198.155 45.2563 200.823 46.9969 200.823Z" fill="#F2F2F2"/>
</g>
<g opacity="0.64">
<path d="M28.8504 215.458C30.591 215.458 30.591 212.79 28.8504 212.79C27.1098 212.79 27.1098 215.458 28.8504 215.458Z" fill="#F2F2F2"/>
</g>
<g opacity="0.64">
<path d="M21.8426 197.167C23.5831 197.167 23.5831 194.499 21.8426 194.499C20.102 194.499 20.102 197.167 21.8426 197.167Z" fill="#F2F2F2"/>
</g>
<g opacity="0.64">
<path d="M46.5789 218.302C48.3195 218.302 48.3195 215.635 46.5789 215.635C44.8383 215.635 44.8383 218.302 46.5789 218.302Z" fill="#F2F2F2"/>
</g>
<g opacity="0.64">
<path d="M36.2761 205.703C38.0167 205.703 38.0167 203.035 36.2761 203.035C34.5356 203.035 34.5356 205.703 36.2761 205.703Z" fill="#F2F2F2"/>
</g>
<g opacity="0.64">
<path d="M57.0261 208.147C58.7667 208.147 58.7667 205.479 57.0261 205.479C55.2856 205.479 55.2856 208.147 57.0261 208.147Z" fill="#F2F2F2"/>
</g>
<g opacity="0.64">
<path d="M70.2195 215.055C71.9601 215.055 71.9601 212.388 70.2195 212.388C68.4789 212.388 68.4789 215.055 70.2195 215.055Z" fill="#F2F2F2"/>
</g>
<g opacity="0.64">
<path d="M52.0711 229.694C53.8117 229.694 53.8117 227.026 52.0711 227.026C50.3305 227.026 50.3305 229.694 52.0711 229.694Z" fill="#F2F2F2"/>
</g>
<g opacity="0.64">
<path d="M45.0652 211.403C46.8058 211.403 46.8058 208.735 45.0652 208.735C43.3246 208.735 43.3246 211.403 45.0652 211.403Z" fill="#F2F2F2"/>
</g>
<g opacity="0.64">
<path d="M69.8015 232.538C71.5421 232.538 71.5421 229.87 69.8015 229.87C68.0609 229.87 68.0609 232.538 69.8015 232.538Z" fill="#F2F2F2"/>
</g>
<g opacity="0.64">
<path d="M59.4988 219.937C61.2394 219.937 61.2394 217.27 59.4988 217.27C57.7582 217.27 57.7582 219.937 59.4988 219.937Z" fill="#F2F2F2"/>
</g>
<g opacity="0.64">
<path d="M69.5945 232.377C71.3351 232.377 71.3351 229.709 69.5945 229.709C67.8539 229.709 67.8539 232.377 69.5945 232.377Z" fill="#F2F2F2"/>
</g>
<g opacity="0.64">
<path d="M82.7859 239.286C84.5265 239.286 84.5265 236.618 82.7859 236.618C81.0453 236.618 81.0453 239.286 82.7859 239.286Z" fill="#F2F2F2"/>
</g>
<g opacity="0.64">
<path d="M64.6414 253.914C66.382 253.914 66.382 251.246 64.6414 251.246C62.9008 251.246 62.9008 253.914 64.6414 253.914Z" fill="#F2F2F2"/>
</g>
<g opacity="0.64">
<path d="M57.6336 235.622C59.3742 235.622 59.3742 232.954 57.6336 232.954C55.893 232.954 55.893 235.622 57.6336 235.622Z" fill="#F2F2F2"/>
</g>
<g opacity="0.64">
<path d="M82.3758 256.759C84.1164 256.759 84.1164 254.092 82.3758 254.092C80.6352 254.092 80.6352 256.759 82.3758 256.759Z" fill="#F2F2F2"/>
</g>
<g opacity="0.64">
<path d="M72.0672 244.159C73.8078 244.159 73.8078 241.491 72.0672 241.491C70.3266 241.491 70.3266 244.159 72.0672 244.159Z" fill="#F2F2F2"/>
</g>
</g>
<g opacity="0.64">
<g opacity="0.64">
<path d="M27.3914 272.099C29.132 272.099 29.132 269.432 27.3914 269.432C25.6508 269.432 25.6508 272.099 27.3914 272.099Z" fill="#F2F2F2"/>
</g>
<g opacity="0.64">
<path d="M40.5867 279.007C42.3273 279.007 42.3273 276.34 40.5867 276.34C38.8461 276.34 38.8461 279.007 40.5867 279.007Z" fill="#F2F2F2"/>
</g>
<g opacity="0.64">
<path d="M22.45 293.634C24.1906 293.634 24.1906 290.967 22.45 290.967C20.7094 290.967 20.7094 293.634 22.45 293.634Z" fill="#F2F2F2"/>
</g>
<g opacity="0.64">
<path d="M15.4422 275.343C17.1828 275.343 17.1828 272.676 15.4422 272.676C13.7016 272.676 13.7016 275.343 15.4422 275.343Z" fill="#F2F2F2"/>
</g>
<g opacity="0.64">
<path d="M40.1726 296.48C41.9132 296.48 41.9132 293.812 40.1726 293.812C38.432 293.812 38.432 296.48 40.1726 296.48Z" fill="#F2F2F2"/>
</g>
<g opacity="0.64">
<path d="M29.8738 283.881C31.6144 283.881 31.6144 281.214 29.8738 281.214C28.1332 281.214 28.1332 283.881 29.8738 283.881Z" fill="#F2F2F2"/>
</g>
<g opacity="0.64">
<path d="M41.4773 248.562C43.2179 248.562 43.2179 245.895 41.4773 245.895C39.7367 245.895 39.7367 248.562 41.4773 248.562Z" fill="#F2F2F2"/>
</g>
<g opacity="0.64">
<path d="M54.6707 255.479C56.4113 255.479 56.4113 252.812 54.6707 252.812C52.9301 252.812 52.9301 255.479 54.6707 255.479Z" fill="#F2F2F2"/>
</g>
<g opacity="0.64">
<path d="M36.5359 270.107C38.2765 270.107 38.2765 267.439 36.5359 267.439C34.7953 267.439 34.7953 270.107 36.5359 270.107Z" fill="#F2F2F2"/>
</g>
<g opacity="0.64">
<path d="M29.5183 251.816C31.2589 251.816 31.2589 249.148 29.5183 249.148C27.7777 249.148 27.7777 251.816 29.5183 251.816Z" fill="#F2F2F2"/>
</g>
<g opacity="0.64">
<path d="M54.2586 272.952C55.9992 272.952 55.9992 270.284 54.2586 270.284C52.518 270.284 52.518 272.952 54.2586 272.952Z" fill="#F2F2F2"/>
</g>
<g opacity="0.64">
<path d="M43.95 260.351C45.6906 260.351 45.6906 257.684 43.95 257.684C42.2094 257.684 42.2094 260.351 43.95 260.351Z" fill="#F2F2F2"/>
</g>
<g opacity="0.64">
<path d="M59.239 232.384C60.9796 232.384 60.9796 229.717 59.239 229.717C57.4984 229.717 57.4984 232.384 59.239 232.384Z" fill="#F2F2F2"/>
</g>
<g opacity="0.64">
<path d="M72.4344 239.294C74.1749 239.294 74.1749 236.626 72.4344 236.626C70.6938 236.626 70.6938 239.294 72.4344 239.294Z" fill="#F2F2F2"/>
</g>
<g opacity="0.64">
<path d="M54.2879 253.931C56.0285 253.931 56.0285 251.264 54.2879 251.264C52.5473 251.264 52.5473 253.931 54.2879 253.931Z" fill="#F2F2F2"/>
</g>
<g opacity="0.64">
<path d="M47.2801 235.639C49.0206 235.639 49.0206 232.972 47.2801 232.972C45.5395 232.972 45.5395 235.639 47.2801 235.639Z" fill="#F2F2F2"/>
</g>
<g opacity="0.64">
<path d="M72.0164 256.776C73.757 256.776 73.757 254.108 72.0164 254.108C70.2758 254.108 70.2758 256.776 72.0164 256.776Z" fill="#F2F2F2"/>
</g>
<g opacity="0.64">
<path d="M61.7097 244.175C63.4503 244.175 63.4503 241.508 61.7097 241.508C59.9691 241.508 59.9691 244.175 61.7097 244.175Z" fill="#F2F2F2"/>
</g>
<g opacity="0.64">
<path d="M45.9344 256.003C47.6749 256.003 47.6749 253.335 45.9344 253.335C44.1938 253.335 44.1938 256.003 45.9344 256.003Z" fill="#F2F2F2"/>
</g>
<g opacity="0.64">
<path d="M59.1258 262.92C60.8664 262.92 60.8664 260.253 59.1258 260.253C57.3852 260.253 57.3852 262.92 59.1258 262.92Z" fill="#F2F2F2"/>
</g>
<g opacity="0.64">
<path d="M40.9773 277.549C42.7179 277.549 42.7179 274.882 40.9773 274.882C39.2367 274.882 39.2367 277.549 40.9773 277.549Z" fill="#F2F2F2"/>
</g>
<g opacity="0.64">
<path d="M33.9715 259.257C35.7121 259.257 35.7121 256.59 33.9715 256.59C32.2309 256.59 32.2309 259.257 33.9715 259.257Z" fill="#F2F2F2"/>
</g>
<g opacity="0.64">
<path d="M58.7097 280.392C60.4503 280.392 60.4503 277.725 58.7097 277.725C56.9691 277.725 56.9691 280.392 58.7097 280.392Z" fill="#F2F2F2"/>
</g>
<g opacity="0.64">
<path d="M48.4051 267.794C50.1456 267.794 50.1456 265.126 48.4051 265.126C46.6645 265.126 46.6645 267.794 48.4051 267.794Z" fill="#F2F2F2"/>
</g>
<g opacity="0.64">
<path d="M31.2039 279.21C32.9445 279.21 32.9445 276.542 31.2039 276.542C29.4633 276.542 29.4633 279.21 31.2039 279.21Z" fill="#F2F2F2"/>
</g>
<g opacity="0.64">
<path d="M44.3933 286.119C46.1339 286.119 46.1339 283.451 44.3933 283.451C42.6527 283.451 42.6527 286.119 44.3933 286.119Z" fill="#F2F2F2"/>
</g>
<g opacity="0.64">
<path d="M26.2547 300.755C27.9953 300.755 27.9953 298.088 26.2547 298.088C24.5141 298.088 24.5141 300.755 26.2547 300.755Z" fill="#F2F2F2"/>
</g>
<g opacity="0.64">
<path d="M19.2469 282.456C20.9874 282.456 20.9874 279.788 19.2469 279.788C17.5063 279.788 17.5063 282.456 19.2469 282.456Z" fill="#F2F2F2"/>
</g>
<g opacity="0.64">
<path d="M43.9871 303.6C45.7277 303.6 45.7277 300.933 43.9871 300.933C42.2465 300.933 42.2465 303.6 43.9871 303.6Z" fill="#F2F2F2"/>
</g>
<g opacity="0.64">
<path d="M33.6765 290.991C35.4171 290.991 35.4171 288.323 33.6765 288.323C31.9359 288.323 31.9359 290.991 33.6765 290.991Z" fill="#F2F2F2"/>
</g>
</g>
<g filter="url(#filter0_d_1575_4271)">
<path d="M90.9637 271.912L81.3228 262.416L90.9818 252.875L91.9919 250.456L91.9648 187.92L90.7924 185.19L81.9632 176.476L92.0009 166.553L93.002 164.126L92.9298 101.918V101.474L91.8927 99.0641L82.0083 89.3008L91.3966 80.0622L92.4248 77.7504L92.3526 14.9652L91.3606 12.6355L80.5923 2.0276L78.1393 1.03171L14.7113 0.907227L11.9426 2.05427L1.4269 12.4399L0.326623 15.0897L0.380735 46.9224L0.398772 52.0708C0.488959 51.9285 0.606201 51.7951 0.723443 51.6707C1.75157 50.657 3.42001 50.6659 4.45715 51.6707C5.48527 52.6843 5.49429 54.3382 4.46617 55.3519C3.43805 56.3655 1.7696 56.3655 0.732461 55.3519C0.606201 55.2274 0.497977 55.094 0.398772 54.9517L0.41681 60.1179L0.434847 77.5103L1.50806 80.0178L11.3654 89.7188L2.16642 98.7973L1.00302 101.527L1.12928 164.063L2.13937 166.482L11.1129 175.347L1.06615 185.261L0.029009 187.68L0.101158 250.323L1.11124 252.75L10.7341 262.256L1.07517 271.77L0.00195312 274.277V291.67V296.827C0.101158 296.685 0.209381 296.551 0.335642 296.418C1.36376 295.404 3.03221 295.413 4.06935 296.427C5.09747 297.441 5.10649 299.095 4.07837 300.108C3.05025 301.122 1.3818 301.113 0.344661 300.099C0.209381 299.966 0.101158 299.824 0.00195312 299.681V304.865L0.0199904 336.707L1.12026 339.357L11.654 349.733L14.4227 350.889L77.8507 350.907L80.3037 349.92L91.0539 339.339L92.046 337.009L91.9738 274.224L90.9457 271.921L90.9637 271.912ZM5.24177 77.5459L4.85397 76.63L4.83593 60.109C5.84602 59.78 6.79297 59.2198 7.58661 58.4284C10.3283 55.7253 10.3283 51.315 7.57759 48.603C6.76592 47.8027 5.81896 47.2425 4.79986 46.9135L4.74575 15.9255L5.17864 14.8763L14.4498 5.74438L15.5951 5.26422L77.2554 5.37981L78.0942 5.7177L87.6359 15.1164L87.9515 15.8455L88.0237 76.8345L87.708 77.5547L78.1844 86.9267L77.03 87.4514L61.058 87.4336C60.7243 86.4199 60.1471 85.4774 59.3354 84.6682C56.5848 81.9562 52.1206 81.9562 49.3699 84.6682C48.5672 85.4596 47.999 86.3932 47.6654 87.398L15.7845 87.3447L14.7203 86.8556L5.25079 77.5281L5.24177 77.5459ZM56.215 91.4438C55.1869 92.4575 53.5184 92.4486 52.4903 91.4438C51.4622 90.4301 51.4532 88.7762 52.4813 87.7626C53.5094 86.7489 55.1779 86.7489 56.215 87.7626C57.2431 88.7762 57.2431 90.4301 56.215 91.4438ZM5.88209 164.037L5.53939 163.21L5.42214 102.407L5.90013 101.278L15.1623 92.1373L16.2264 91.7105L47.6563 91.7639C47.99 92.7687 48.5582 93.7112 49.3699 94.5115C52.1206 97.2146 56.5938 97.2235 59.3354 94.5115C60.1381 93.7201 60.6973 92.7953 61.031 91.8083L77.7966 91.8261L78.7255 92.2085L88.186 101.545L88.5377 102.372L88.6099 163.281L88.2672 164.108L78.7525 173.498L78.022 173.809L78.0401 173.907L77.5801 173.72L45.2935 173.702C44.9598 172.697 44.3916 171.764 43.5799 170.963C40.8292 168.251 36.356 168.251 33.6143 170.954C32.8117 171.746 32.2345 172.688 31.9008 173.693H16.028L15.4058 173.426L5.87307 164.019L5.88209 164.037ZM40.4775 177.721C39.4494 178.735 37.7809 178.726 36.7438 177.712C35.7157 176.699 35.7157 175.054 36.7438 174.04C37.7719 173.026 39.4404 173.026 40.4685 174.04C41.4966 175.054 41.5056 176.707 40.4775 177.721ZM4.86299 250.305L4.52028 249.469L4.45715 188.56L4.80888 187.733L14.2424 178.424L15.1713 178.041H31.9279C32.2616 179.046 32.8297 179.989 33.6414 180.78C36.3921 183.483 40.8563 183.492 43.607 180.78C44.4096 179.989 44.9868 179.046 45.3115 178.041L76.7324 178.068L77.7966 178.495L87.0857 187.662L87.5727 188.791L87.5998 249.594L87.2571 250.412L77.7605 259.793L77.021 260.095L15.1532 260.033L14.4227 259.713L4.89004 250.296L4.86299 250.305ZM87.3473 336.858L77.8326 346.221L77.0029 346.559L15.3336 346.541L14.1792 346.061L4.88103 336.903L4.43911 335.853L4.42108 304.883C5.44018 304.554 6.39615 303.994 7.19881 303.203C9.94047 300.499 9.94047 296.089 7.18979 293.377C6.38714 292.586 5.43116 292.017 4.42108 291.688V275.167L4.80888 274.251L14.2514 264.959L15.0811 264.612L76.8586 264.683L77.6974 265.021L87.2571 274.42L87.5727 275.149L87.6449 336.147L87.3383 336.876L87.3473 336.858Z" fill="#F05168"/>
<path d="M72.3924 19.0564C69.6417 16.3444 65.1684 16.3355 62.4268 19.0475C61.6241 19.8389 61.0469 20.7814 60.7223 21.7862L44.9307 21.7684C44.597 20.7636 44.0288 19.8211 43.2171 19.0297C40.4665 16.3266 36.0022 16.3177 33.2516 19.0297C30.5099 21.7328 30.5099 26.1432 33.2516 28.8552C36.0022 31.5672 40.4755 31.5672 43.2171 28.8552C44.0198 28.0638 44.597 27.1213 44.9216 26.1254L60.7132 26.1432C61.0469 27.1479 61.6151 28.0816 62.4268 28.8818C65.1775 31.5938 69.6417 31.6027 72.3924 28.8907C75.143 26.1787 75.134 21.7773 72.3924 19.0653V19.0564ZM40.1057 25.7697C39.0776 26.7834 37.4091 26.7834 36.381 25.7697C35.3529 24.756 35.3439 23.1022 36.372 22.0885C37.4001 21.0748 39.0686 21.0837 40.1057 22.0885C41.1338 23.1022 41.1338 24.756 40.1057 25.7697ZM69.2809 25.8053C68.2528 26.8189 66.5844 26.81 65.5472 25.7964C64.5191 24.7827 64.5191 23.1377 65.5472 22.1152C66.5753 21.1015 68.2438 21.1104 69.2719 22.1241C70.3 23.1377 70.3091 24.7916 69.2809 25.8053Z" fill="#F05168"/>
<path d="M72.158 326.544C69.4073 323.832 64.9341 323.832 62.1924 326.544C61.3898 327.335 60.8126 328.278 60.4879 329.273L44.6963 329.256C44.3626 328.251 43.7944 327.317 42.9828 326.517C40.2321 323.805 35.7679 323.796 33.0172 326.508C30.2755 329.211 30.2755 333.622 33.0172 336.334C35.7679 339.046 40.2411 339.054 42.9828 336.342C43.7854 335.551 44.3626 334.609 44.6873 333.604L60.4789 333.622C60.8126 334.626 61.3807 335.569 62.1924 336.36C64.9431 339.063 69.4073 339.072 72.158 336.36C74.8997 333.657 74.8997 329.247 72.158 326.535V326.544ZM39.8713 333.257C38.8432 334.271 37.1748 334.271 36.1466 333.257C35.1185 332.243 35.1095 330.589 36.1376 329.576C37.1657 328.562 38.8342 328.571 39.8713 329.585C40.8995 330.598 40.8995 332.243 39.8713 333.257ZM69.0466 333.293C68.0184 334.306 66.35 334.297 65.3129 333.284C64.2847 332.27 64.2847 330.625 65.3129 329.611C66.341 328.598 68.0094 328.598 69.0375 329.611C70.0657 330.625 70.0747 332.279 69.0466 333.293Z" fill="#F05168"/>
<path d="M72.8917 138.846C70.15 136.134 65.6768 136.125 62.9261 138.837C60.1844 141.54 60.1844 145.951 62.9351 148.663C63.7558 149.472 64.7298 150.041 65.767 150.361V156.283H60.1393C59.8327 155.154 59.2194 154.078 58.3176 153.189C55.5759 150.485 51.1027 150.477 48.352 153.189C45.6103 155.892 45.6103 160.302 48.361 163.014C51.1027 165.726 55.5759 165.726 58.3266 163.023C59.0391 162.32 59.5621 161.511 59.9048 160.64H70.168V150.343C71.1691 150.014 72.098 149.463 72.8917 148.68C75.6333 145.977 75.6333 141.567 72.8826 138.855L72.8917 138.846ZM55.2152 159.937C54.187 160.951 52.5186 160.951 51.4815 159.937C50.4443 158.924 50.4443 157.27 51.4724 156.256C52.5006 155.243 54.169 155.251 55.2061 156.265C56.2433 157.279 56.2433 158.924 55.2152 159.937ZM69.7802 145.595C68.7521 146.609 67.0837 146.6 66.0465 145.586C65.0094 144.572 65.0094 142.919 66.0375 141.905C67.0656 140.891 68.7341 140.9 69.7712 141.914C70.7993 142.927 70.8084 144.572 69.7802 145.595Z" fill="#F05168"/>
<path d="M43.2023 235.748C40.4607 233.045 35.9875 233.045 33.2368 235.748C32.4161 236.557 31.8389 237.518 31.5142 238.54H25.5078V233.001C26.6532 232.689 27.7444 232.094 28.6463 231.204C31.397 228.492 31.397 224.091 28.6463 221.379C25.9046 218.676 21.4314 218.676 18.6807 221.379C15.9391 224.091 15.93 228.501 18.6807 231.204C19.3842 231.898 20.2139 232.423 21.0887 232.76V242.888H31.5323C31.8659 243.866 32.4251 244.791 33.2187 245.574C35.9604 248.277 40.4336 248.277 43.1843 245.574C45.926 242.862 45.935 238.46 43.1843 235.748H43.2023ZM21.8102 224.464C22.8383 223.451 24.5158 223.451 25.5439 224.464C26.572 225.478 26.572 227.123 25.5439 228.146C24.5158 229.168 22.8383 229.159 21.8102 228.146C20.7821 227.132 20.7911 225.487 21.8102 224.464ZM40.0819 242.506C39.0538 243.52 37.3853 243.52 36.3572 242.506C35.3291 241.492 35.3291 239.847 36.3572 238.834C37.3853 237.82 39.0628 237.811 40.0909 238.825C41.119 239.838 41.11 241.483 40.0819 242.506Z" fill="#F05168"/>
</g>
<rect x="12.002" y="9.90723" width="70" height="27" rx="9" fill="#D9D9D9"/>
<path d="M17.3955 31.9072V29.3872L23.8755 23.2672C24.3875 22.8032 24.7635 22.3872 25.0035 22.0192C25.2435 21.6512 25.4035 21.3152 25.4835 21.0112C25.5795 20.7072 25.6275 20.4272 25.6275 20.1712C25.6275 19.4992 25.3955 18.9872 24.9315 18.6352C24.4835 18.2672 23.8195 18.0832 22.9395 18.0832C22.2355 18.0832 21.5795 18.2192 20.9715 18.4912C20.3795 18.7632 19.8755 19.1872 19.4595 19.7632L16.6275 17.9392C17.2675 16.9792 18.1635 16.2192 19.3155 15.6592C20.4675 15.0992 21.7955 14.8192 23.2995 14.8192C24.5475 14.8192 25.6355 15.0272 26.5635 15.4432C27.5075 15.8432 28.2355 16.4112 28.7475 17.1472C29.2755 17.8832 29.5395 18.7632 29.5395 19.7872C29.5395 20.3312 29.4675 20.8752 29.3235 21.4192C29.1955 21.9472 28.9235 22.5072 28.5075 23.0992C28.1075 23.6912 27.5155 24.3552 26.7315 25.0912L21.3555 30.1552L20.6115 28.7392H30.0915V31.9072H17.3955ZM38.8958 32.1952C37.5198 32.1952 36.2878 31.8592 35.1998 31.1872C34.1118 30.4992 33.2558 29.5072 32.6318 28.2112C32.0078 26.9152 31.6958 25.3472 31.6958 23.5072C31.6958 21.6672 32.0078 20.0992 32.6318 18.8032C33.2558 17.5072 34.1118 16.5232 35.1998 15.8512C36.2878 15.1632 37.5198 14.8192 38.8958 14.8192C40.2878 14.8192 41.5198 15.1632 42.5918 15.8512C43.6798 16.5232 44.5358 17.5072 45.1598 18.8032C45.7838 20.0992 46.0958 21.6672 46.0958 23.5072C46.0958 25.3472 45.7838 26.9152 45.1598 28.2112C44.5358 29.5072 43.6798 30.4992 42.5918 31.1872C41.5198 31.8592 40.2878 32.1952 38.8958 32.1952ZM38.8958 28.9072C39.5518 28.9072 40.1198 28.7232 40.5998 28.3552C41.0958 27.9872 41.4798 27.4032 41.7518 26.6032C42.0398 25.8032 42.1838 24.7712 42.1838 23.5072C42.1838 22.2432 42.0398 21.2112 41.7518 20.4112C41.4798 19.6112 41.0958 19.0272 40.5998 18.6592C40.1198 18.2912 39.5518 18.1072 38.8958 18.1072C38.2558 18.1072 37.6878 18.2912 37.1918 18.6592C36.7118 19.0272 36.3278 19.6112 36.0398 20.4112C35.7678 21.2112 35.6318 22.2432 35.6318 23.5072C35.6318 24.7712 35.7678 25.8032 36.0398 26.6032C36.3278 27.4032 36.7118 27.9872 37.1918 28.3552C37.6878 28.7232 38.2558 28.9072 38.8958 28.9072ZM47.7471 31.9072V29.3872L54.2271 23.2672C54.7391 22.8032 55.1151 22.3872 55.3551 22.0192C55.5951 21.6512 55.7551 21.3152 55.8351 21.0112C55.9311 20.7072 55.9791 20.4272 55.9791 20.1712C55.9791 19.4992 55.7471 18.9872 55.2831 18.6352C54.8351 18.2672 54.1711 18.0832 53.2911 18.0832C52.5871 18.0832 51.9311 18.2192 51.3231 18.4912C50.7311 18.7632 50.2271 19.1872 49.8111 19.7632L46.9791 17.9392C47.6191 16.9792 48.5151 16.2192 49.6671 15.6592C50.8191 15.0992 52.1471 14.8192 53.6511 14.8192C54.8991 14.8192 55.9871 15.0272 56.9151 15.4432C57.8591 15.8432 58.5871 16.4112 59.0991 17.1472C59.6271 17.8832 59.8911 18.7632 59.8911 19.7872C59.8911 20.3312 59.8191 20.8752 59.6751 21.4192C59.5471 21.9472 59.2751 22.5072 58.8591 23.0992C58.4591 23.6912 57.8671 24.3552 57.0831 25.0912L51.7071 30.1552L50.9631 28.7392H60.4431V31.9072H47.7471ZM61.5975 28.3792V25.7632L69.5175 15.1072H73.5975L65.8455 25.7632L63.9495 25.2112H77.1735V28.3792H61.5975ZM70.6455 31.9072V28.3792L70.7655 25.2112V22.0672H74.4375V31.9072H70.6455Z" fill="#171B48"/>
<defs>
<filter id="filter0_d_1575_4271" x="0.00195312" y="0.907227" width="93" height="351" filterUnits="userSpaceOnUse" color-interpolation-filters="sRGB">
<feFlood flood-opacity="0" result="BackgroundImageFix"/>
<feColorMatrix in="SourceAlpha" type="matrix" values="0 0 0 0 0 0 0 0 0 0 0 0 0 0 0 0 0 0 127 0" result="hardAlpha"/>
<feOffset dy="1"/>
<feColorMatrix type="matrix" values="0 0 0 0 0.388235 0 0 0 0 0.345098 0 0 0 0 0.647059 0 0 0 1 0"/>
<feBlend mode="normal" in2="BackgroundImageFix" result="effect1_dropShadow_1575_4271"/>
<feBlend mode="normal" in="SourceGraphic" in2="effect1_dropShadow_1575_4271" result="shape"/>
</filter>
</defs>
</svg>
