<svg width="178" height="264" viewBox="0 0 178 264" fill="none" xmlns="http://www.w3.org/2000/svg">
<path d="M175.475 168.311C175.154 171.627 172.193 174.046 168.88 173.7L168.22 173.631L161.748 173.581L155.226 173.731L148.754 174.527L142.232 174.577L135.71 174.079L129.672 174.033C129.383 174.03 129.095 174.049 128.809 174.088L123.51 174.816C122.984 174.889 122.449 174.891 121.922 174.822L116.195 174.079L109.673 173.731L103.151 173.482L96.629 173.93C93.3264 173.821 90.7626 171.006 90.9535 167.707L90.9083 161.796C90.9052 161.39 90.8609 160.985 90.776 160.588L89.6228 155.193C89.5475 154.841 89.5041 154.483 89.4931 154.123L89.3344 148.969C89.3186 148.453 89.3693 147.938 89.4853 147.435L90.6504 142.386C90.7526 141.944 90.8041 141.491 90.8041 141.037V135.199L90.5552 128.677L90.1026 122.749C90.0725 122.355 90.0815 121.958 90.1295 121.565L90.7591 116.411C90.822 115.895 90.8178 115.374 90.7467 114.86L89.9578 109.163L89.908 102.641L90.4566 96.6066C90.4891 96.2497 90.4871 95.8905 90.4506 95.534C90.1095 92.1965 92.7697 89.3147 96.1238 89.3881L96.629 89.3992L102.647 90.2786C102.949 90.3228 103.255 90.3439 103.56 90.3415L109.623 90.2953L116.095 89.8472L122.029 88.9413C122.42 88.8816 122.816 88.8607 123.211 88.879L129.089 89.1503L135.611 89.1005L142.133 89.1503L148.655 89.3992L155.127 89.3494L161.649 89.2L167.757 89.1538C168.065 89.1514 168.373 89.1729 168.678 89.2178L169.582 89.3512C172.342 89.7583 174.457 92.0131 174.686 94.7928L174.792 96.07L175.194 101.927C175.225 102.369 175.206 102.812 175.139 103.25L174.244 109.063L173.922 115.102C173.904 115.423 173.913 115.745 173.948 116.065L174.593 122.056L175.14 128.578L175.29 135.05L175.152 141.073C175.144 141.405 175.109 141.735 175.047 142.06L174.033 147.376C173.942 147.852 173.909 148.337 173.935 148.821L174.244 154.614L174.742 161.136L175.459 167.005C175.512 167.438 175.517 167.877 175.475 168.311Z" fill="#9FCCF0" stroke="#FFFBDB" stroke-width="5"/>
<path d="M175.475 254.846C175.154 258.161 172.193 260.58 168.88 260.234L168.22 260.165L161.748 260.115L155.226 260.265L148.754 261.061L142.232 261.111L135.71 260.613L129.672 260.567C129.383 260.565 129.095 260.583 128.809 260.622L123.51 261.35C122.984 261.423 122.449 261.425 121.922 261.356L116.195 260.613L109.673 260.265L103.151 260.016L96.629 260.464C93.3264 260.355 90.7626 257.54 90.9535 254.241L90.9083 248.331C90.9052 247.924 90.8609 247.519 90.776 247.122L89.6228 241.727C89.5475 241.375 89.5041 241.017 89.4931 240.657L89.3344 235.503C89.3186 234.987 89.3693 234.472 89.4853 233.969L90.6504 228.921C90.7526 228.478 90.8041 228.025 90.8041 227.571V221.733L90.5552 215.212L90.1026 209.284C90.0725 208.889 90.0815 208.492 90.1295 208.099L90.7591 202.945C90.822 202.43 90.8178 201.908 90.7467 201.394L89.9578 195.697L89.908 189.175L90.4566 183.141C90.4891 182.784 90.4871 182.425 90.4506 182.068C90.1095 178.731 92.7697 175.849 96.1238 175.922L96.629 175.933L102.647 176.813C102.949 176.857 103.255 176.878 103.56 176.876L109.623 176.829L116.095 176.381L122.029 175.476C122.42 175.416 122.816 175.395 123.211 175.413L129.089 175.684L135.611 175.635L142.133 175.684L148.655 175.933L155.127 175.884L161.649 175.734L167.757 175.688C168.065 175.686 168.373 175.707 168.678 175.752L169.582 175.885C172.342 176.292 174.457 178.547 174.686 181.327L174.792 182.604L175.194 188.461C175.225 188.903 175.206 189.347 175.139 189.784L174.244 195.597L173.922 201.637C173.904 201.958 173.913 202.28 173.948 202.599L174.593 208.591L175.14 215.112L175.29 221.584L175.152 227.607C175.144 227.939 175.109 228.269 175.047 228.595L174.033 233.91C173.942 234.386 173.909 234.871 173.935 235.355L174.244 241.148L174.742 247.67L175.459 253.539C175.512 253.972 175.517 254.411 175.475 254.846Z" fill="#9FCCF0" stroke="#FFFBDB" stroke-width="5"/>
<path d="M174.446 82.8071C174.124 86.1225 171.163 88.5416 167.85 88.1955L167.191 88.1266L160.719 88.0768L154.197 88.2262L147.725 89.0227L141.203 89.0725L134.681 88.5746L128.643 88.5282C128.354 88.526 128.066 88.5446 127.78 88.5839L122.481 89.3119C121.954 89.3843 121.42 89.3863 120.892 89.3178L115.165 88.5746L108.643 88.2262L102.122 87.9773L95.5997 88.4253C92.2971 88.3161 89.7333 85.5014 89.9242 82.2025L89.879 76.2919C89.8759 75.8857 89.8316 75.4808 89.7467 75.0836L88.5935 69.6885C88.5182 69.3365 88.4748 68.9786 88.4638 68.6188L88.3051 63.4644C88.2893 62.9488 88.34 62.4333 88.456 61.9307L89.6211 56.8819C89.7233 56.4395 89.7748 55.9868 89.7748 55.5327V49.6946L89.5259 43.1731L89.0733 37.245C89.0432 36.8504 89.0522 36.4537 89.1002 36.0608L89.7298 30.9061C89.7927 30.391 89.7885 29.8698 89.7174 29.3557L88.9285 23.6584L88.8787 17.1369L89.4273 11.1022C89.4598 10.7453 89.4578 10.3861 89.4213 10.0297C89.0802 6.69207 91.7404 3.81027 95.0945 3.88371L95.5997 3.89477L101.617 4.77424C101.92 4.81844 102.225 4.83947 102.531 4.83714L108.594 4.79086L115.066 4.34282L121 3.43693C121.391 3.37723 121.787 3.35635 122.182 3.37459L128.06 3.64586L134.582 3.59608L141.103 3.64586L147.625 3.89477L154.097 3.84499L160.619 3.69565L166.728 3.64937C167.036 3.64703 167.344 3.66846 167.649 3.71345L168.553 3.84683C171.312 4.25391 173.427 6.50871 173.657 9.28837L173.763 10.5656L174.165 16.4222C174.195 16.8641 174.177 17.308 174.109 17.7459L173.215 23.5588L172.892 29.598C172.875 29.919 172.884 30.2409 172.918 30.5606L173.563 36.552L174.111 43.0735L174.26 49.5452L174.123 55.5687C174.115 55.9001 174.08 56.2304 174.018 56.5561L173.003 61.8717C172.912 62.3476 172.88 62.8328 172.905 63.3167L173.215 69.1097L173.713 75.6312L174.43 81.5002C174.483 81.9339 174.488 82.3722 174.446 82.8071Z" fill="#FFFBDB" stroke="#9FCCF0" stroke-width="5"/>
<path d="M174.446 82.8071C174.124 86.1225 171.163 88.5416 167.85 88.1955L167.191 88.1266L160.719 88.0768L154.197 88.2262L147.725 89.0227L141.203 89.0725L134.681 88.5746L128.643 88.5282C128.354 88.526 128.066 88.5446 127.78 88.5839L122.481 89.3119C121.954 89.3843 121.42 89.3863 120.892 89.3178L115.165 88.5746L108.643 88.2262L102.122 87.9773L95.5997 88.4253C92.2971 88.3161 89.7333 85.5014 89.9242 82.2025L89.879 76.2919C89.8759 75.8857 89.8316 75.4808 89.7467 75.0836L88.5935 69.6885C88.5182 69.3365 88.4748 68.9786 88.4638 68.6188L88.3051 63.4644C88.2893 62.9488 88.34 62.4333 88.456 61.9307L89.6211 56.8819C89.7233 56.4395 89.7748 55.9868 89.7748 55.5327V49.6946L89.5259 43.1731L89.0733 37.245C89.0432 36.8504 89.0522 36.4537 89.1002 36.0608L89.7298 30.9061C89.7927 30.391 89.7885 29.8698 89.7174 29.3557L88.9285 23.6584L88.8787 17.1369L89.4273 11.1022C89.4598 10.7453 89.4578 10.3861 89.4213 10.0297C89.0802 6.69207 91.7404 3.81027 95.0945 3.88371L95.5997 3.89477L101.617 4.77424C101.92 4.81844 102.225 4.83947 102.531 4.83714L108.594 4.79086L115.066 4.34282L121 3.43693C121.391 3.37723 121.787 3.35635 122.182 3.37459L128.06 3.64586L134.582 3.59608L141.103 3.64586L147.625 3.89477L154.097 3.84499L160.619 3.69565L166.728 3.64937C167.036 3.64703 167.344 3.66846 167.649 3.71345L168.553 3.84683C171.312 4.25391 173.427 6.50871 173.657 9.28837L173.763 10.5656L174.165 16.4222C174.195 16.8641 174.177 17.308 174.109 17.7459L173.215 23.5588L172.892 29.598C172.875 29.919 172.884 30.2409 172.918 30.5606L173.563 36.552L174.111 43.0735L174.26 49.5452L174.123 55.5687C174.115 55.9001 174.08 56.2304 174.018 56.5561L173.003 61.8717C172.912 62.3476 172.88 62.8328 172.905 63.3167L173.215 69.1097L173.713 75.6312L174.43 81.5002C174.483 81.9339 174.488 82.3722 174.446 82.8071Z" fill="#FFFBDB" stroke="#9FCCF0" stroke-width="5" stroke-linecap="round" stroke-linejoin="round"/>
<path d="M175.475 168.311C175.154 171.627 172.193 174.046 168.88 173.7L168.22 173.631L161.748 173.581L155.226 173.731L148.754 174.527L142.232 174.577L135.71 174.079L129.672 174.033C129.383 174.03 129.095 174.049 128.809 174.088L123.51 174.816C122.984 174.889 122.449 174.891 121.922 174.822L116.195 174.079L109.673 173.731L103.151 173.482L96.629 173.93C93.3264 173.821 90.7626 171.006 90.9535 167.707L90.9083 161.796C90.9052 161.39 90.8609 160.985 90.776 160.588L89.6228 155.193C89.5475 154.841 89.5041 154.483 89.4931 154.123L89.3344 148.969C89.3186 148.453 89.3693 147.938 89.4853 147.435L90.6504 142.386C90.7526 141.944 90.8041 141.491 90.8041 141.037V135.199L90.5552 128.677L90.1026 122.749C90.0725 122.355 90.0815 121.958 90.1295 121.565L90.7591 116.411C90.822 115.895 90.8178 115.374 90.7467 114.86L89.9578 109.163L89.908 102.641L90.4566 96.6066C90.4891 96.2497 90.4871 95.8905 90.4506 95.534C90.1095 92.1965 92.7697 89.3147 96.1238 89.3881L96.629 89.3992L102.647 90.2786C102.949 90.3228 103.255 90.3439 103.56 90.3415L109.623 90.2953L116.095 89.8472L122.029 88.9413C122.42 88.8816 122.816 88.8607 123.211 88.879L129.089 89.1503L135.611 89.1005L142.133 89.1503L148.655 89.3992L155.127 89.3494L161.649 89.2L167.757 89.1538C168.065 89.1514 168.373 89.1729 168.678 89.2178L169.582 89.3512C172.342 89.7583 174.457 92.0131 174.686 94.7928L174.792 96.07L175.194 101.927C175.225 102.369 175.206 102.812 175.139 103.25L174.244 109.063L173.922 115.102C173.904 115.423 173.913 115.745 173.948 116.065L174.593 122.056L175.14 128.578L175.29 135.05L175.152 141.073C175.144 141.405 175.109 141.735 175.047 142.06L174.033 147.376C173.942 147.852 173.909 148.337 173.935 148.821L174.244 154.614L174.742 161.136L175.459 167.005C175.512 167.438 175.517 167.877 175.475 168.311Z" fill="#FFFBDB" stroke="#9FCCF0" stroke-width="5" stroke-linecap="round" stroke-linejoin="round"/>
<path d="M175.475 254.846C175.154 258.161 172.193 260.58 168.88 260.234L168.22 260.165L161.748 260.115L155.226 260.265L148.754 261.061L142.232 261.111L135.71 260.613L129.672 260.567C129.383 260.565 129.095 260.583 128.809 260.622L123.51 261.35C122.984 261.423 122.449 261.425 121.922 261.356L116.195 260.613L109.673 260.265L103.151 260.016L96.629 260.464C93.3264 260.355 90.7626 257.54 90.9535 254.241L90.9083 248.331C90.9052 247.924 90.8609 247.519 90.776 247.122L89.6228 241.727C89.5475 241.375 89.5041 241.017 89.4931 240.657L89.3344 235.503C89.3186 234.987 89.3693 234.472 89.4853 233.969L90.6504 228.921C90.7526 228.478 90.8041 228.025 90.8041 227.571V221.733L90.5552 215.212L90.1026 209.284C90.0725 208.889 90.0815 208.492 90.1295 208.099L90.7591 202.945C90.822 202.43 90.8178 201.908 90.7467 201.394L89.9578 195.697L89.908 189.175L90.4566 183.141C90.4891 182.784 90.4871 182.425 90.4506 182.068C90.1095 178.731 92.7697 175.849 96.1238 175.922L96.629 175.933L102.647 176.813C102.949 176.857 103.255 176.878 103.56 176.876L109.623 176.829L116.095 176.381L122.029 175.476C122.42 175.416 122.816 175.395 123.211 175.413L129.089 175.684L135.611 175.635L142.133 175.684L148.655 175.933L155.127 175.884L161.649 175.734L167.757 175.688C168.065 175.686 168.373 175.707 168.678 175.752L169.582 175.885C172.342 176.292 174.457 178.547 174.686 181.327L174.792 182.604L175.194 188.461C175.225 188.903 175.206 189.347 175.139 189.784L174.244 195.597L173.922 201.637C173.904 201.958 173.913 202.28 173.948 202.599L174.593 208.591L175.14 215.112L175.29 221.584L175.152 227.607C175.144 227.939 175.109 228.269 175.047 228.595L174.033 233.91C173.942 234.386 173.909 234.871 173.935 235.355L174.244 241.148L174.742 247.67L175.459 253.539C175.512 253.972 175.517 254.411 175.475 254.846Z" fill="#FFFBDB" stroke="#9FCCF0" stroke-width="5" stroke-linecap="round" stroke-linejoin="round"/>
<path d="M88.9361 169.342C88.6145 172.657 85.6537 175.076 82.3407 174.73L81.6812 174.661L75.2091 174.611L68.6872 174.761L62.2151 175.557L55.6933 175.607L49.1714 175.109L43.1327 175.063C42.8442 175.061 42.5558 175.079 42.2699 175.119L36.9714 175.847C36.4444 175.919 35.9101 175.921 35.3826 175.852L29.6556 175.109L23.1337 174.761L16.6118 174.512L10.0899 174.96C6.78734 174.851 4.22354 172.036 4.4144 168.737L4.36928 162.827C4.36618 162.42 4.32183 162.015 4.23691 161.618L3.0837 156.223C3.00847 155.871 2.96506 155.513 2.95399 155.154L2.79538 149.999C2.77952 149.483 2.83021 148.968 2.94621 148.465L4.11137 143.417C4.21349 142.974 4.26504 142.521 4.26504 142.067V136.229L4.01612 129.708L3.56357 123.78C3.53344 123.385 3.54243 122.988 3.59042 122.596L4.22004 117.441C4.28297 116.926 4.27878 116.404 4.2076 115.89L3.41869 110.193L3.36891 103.672L3.91755 97.6368C3.95 97.28 3.94799 96.9208 3.91156 96.5643C3.57047 93.2267 6.23062 90.3449 9.58478 90.4184L10.0899 90.4294L16.1077 91.3089C16.4101 91.3531 16.7155 91.3741 17.0211 91.3718L23.0839 91.3255L29.556 90.8775L35.4899 89.9716C35.8809 89.9119 36.2769 89.891 36.672 89.9093L42.5499 90.1805L49.0718 90.1307L55.5937 90.1805L62.1156 90.4294L68.5877 90.3797L75.1095 90.2303L81.2181 90.184C81.5264 90.1817 81.8344 90.2031 82.1393 90.2481L83.0434 90.3815C85.8027 90.7886 87.9176 93.0434 88.1473 95.823L88.2529 97.1003L88.6552 102.957C88.6856 103.399 88.6669 103.843 88.5996 104.281L87.7052 110.093L87.3825 116.133C87.3653 116.454 87.374 116.776 87.4084 117.095L88.0537 123.087L88.6014 129.608L88.7507 136.08L88.6128 142.103C88.6052 142.435 88.5701 142.765 88.508 143.091L87.4935 148.406C87.4026 148.882 87.3698 149.367 87.3957 149.851L87.7052 155.644L88.2031 162.166L88.9199 168.035C88.9729 168.469 88.9783 168.907 88.9361 169.342Z" fill="#FFFBDB" stroke="#9FCCF0" stroke-width="5"/>
<path d="M88.9361 169.342C88.6145 172.657 85.6537 175.076 82.3407 174.73L81.6812 174.661L75.2091 174.611L68.6872 174.761L62.2151 175.557L55.6933 175.607L49.1714 175.109L43.1327 175.063C42.8442 175.061 42.5558 175.079 42.2699 175.119L36.9714 175.847C36.4444 175.919 35.9101 175.921 35.3826 175.852L29.6556 175.109L23.1337 174.761L16.6118 174.512L10.0899 174.96C6.78734 174.851 4.22354 172.036 4.4144 168.737L4.36928 162.827C4.36618 162.42 4.32183 162.015 4.23691 161.618L3.0837 156.223C3.00847 155.871 2.96506 155.513 2.95399 155.154L2.79538 149.999C2.77952 149.483 2.83021 148.968 2.94621 148.465L4.11137 143.417C4.21349 142.974 4.26504 142.521 4.26504 142.067V136.229L4.01612 129.708L3.56357 123.78C3.53344 123.385 3.54243 122.988 3.59042 122.596L4.22004 117.441C4.28297 116.926 4.27878 116.404 4.2076 115.89L3.41869 110.193L3.36891 103.672L3.91755 97.6368C3.95 97.28 3.94799 96.9208 3.91156 96.5643C3.57047 93.2267 6.23062 90.3449 9.58478 90.4184L10.0899 90.4294L16.1077 91.3089C16.4101 91.3531 16.7155 91.3741 17.0211 91.3718L23.0839 91.3255L29.556 90.8775L35.4899 89.9716C35.8809 89.9119 36.2769 89.891 36.672 89.9093L42.5499 90.1805L49.0718 90.1307L55.5937 90.1805L62.1156 90.4294L68.5877 90.3797L75.1095 90.2303L81.2181 90.184C81.5264 90.1817 81.8344 90.2031 82.1393 90.2481L83.0434 90.3815C85.8027 90.7886 87.9176 93.0434 88.1473 95.823L88.2529 97.1003L88.6552 102.957C88.6856 103.399 88.6669 103.843 88.5996 104.281L87.7052 110.093L87.3825 116.133C87.3653 116.454 87.374 116.776 87.4084 117.095L88.0537 123.087L88.6014 129.608L88.7507 136.08L88.6128 142.103C88.6052 142.435 88.5701 142.765 88.508 143.091L87.4935 148.406C87.4026 148.882 87.3698 149.367 87.3957 149.851L87.7052 155.644L88.2031 162.166L88.9199 168.035C88.9729 168.469 88.9783 168.907 88.9361 169.342Z" fill="#FFFBDB" stroke="#9FCCF0" stroke-width="5" stroke-linecap="round" stroke-linejoin="round"/>
</svg>
