<svg width="173" height="255" viewBox="0 0 173 255" fill="none" xmlns="http://www.w3.org/2000/svg">
<path d="M172.021 17.8287L156.52 2.61801H125.312C125.282 3.19453 125.165 3.79028 124.969 4.3572C124.969 4.54937 124.9 4.75116 124.773 4.95294C124.734 5.02981 124.675 5.10668 124.606 5.17395C124.528 5.31808 124.44 5.46221 124.342 5.60634C123.577 7.91245 120.187 8.58507 119.139 6.03874C118.463 5.53908 117.914 4.87607 117.894 4.02089C117.885 3.56928 117.963 3.07923 118.149 2.6084H100.796L85.2855 17.8191V72.4643L99.3167 86.2241L85.795 99.4842L72.2634 86.2145H16.5401L1.0293 101.425V156.07L15.3055 170.061L16.5499 168.841H48.375C48.277 169.023 48.179 169.186 48.0713 169.35C47.9047 169.619 47.8459 169.946 47.8851 170.263C47.8949 170.32 47.9047 170.388 47.9243 170.445C47.9635 170.599 48.0321 170.753 48.1203 170.887C48.179 170.974 48.2378 171.041 48.2966 171.108C48.3554 171.166 48.424 171.223 48.5024 171.272H16.5401L15.3055 170.061L1.0391 184.051V238.696L16.5499 253.907H72.2732L87.7841 238.696H87.7743V184.051L73.5078 170.061L87.2647 156.56L85.2855 154.619V139.284H85.3932C85.55 139.284 85.7068 139.274 85.8636 139.255H85.8832C86.0399 139.236 86.2065 139.217 86.3633 139.178C86.5201 139.149 86.667 139.111 86.8238 139.063C86.8532 139.053 86.8728 139.044 86.8924 139.044C87.0394 138.996 87.1962 138.938 87.3431 138.871C87.4901 138.813 87.6371 138.736 87.7743 138.669V156.07L87.2647 156.56L100.796 169.83H156.52L172.021 154.619V123.939C171.697 124.073 171.325 124.092 170.982 123.996C170.835 124.092 170.668 124.16 170.492 124.208C169.365 124.506 168.454 123.823 168.082 122.824C167.464 121.142 167.817 118.856 169.806 118.327C170.139 117.462 171.286 117.261 172.021 117.693V99.9743L157.999 86.2241L172.021 72.4739V17.8287ZM21.743 136.372C21.4001 136.968 20.8024 137.41 20.1067 137.689C19.1073 138.073 17.9217 138.025 17.1476 137.208C16.4617 136.468 16.3735 135.229 16.5401 134.278C16.7557 133.105 17.5689 132.423 18.5488 132.154C18.8427 131.539 19.5874 131.155 20.2831 131.357C20.6358 131.453 20.9788 131.568 21.3217 131.722C21.7822 131.943 22.0272 132.423 22.0468 132.894C22.6543 133.403 23.0658 134.095 23.0756 134.979C23.0952 135.863 22.4387 136.324 21.743 136.372ZM36.9795 148.585C37.1755 149.104 37.0873 149.738 36.6562 150.123C35.9997 150.699 35.3432 151.343 34.4907 151.622C33.5599 151.919 32.58 151.708 31.757 151.237H31.7374C31.0123 150.824 30.3068 150.228 30.1109 149.402C29.9443 148.758 30.1305 148.191 30.4538 147.663C30.4048 147.49 30.3754 147.298 30.3852 147.105C30.4636 145.261 32.5017 143.454 34.2948 143.243C35.0982 143.156 35.7841 143.983 35.7841 144.703C35.7841 144.953 35.7155 145.164 35.6273 145.347C35.6469 145.462 35.6567 145.587 35.6763 145.703C35.6763 145.779 35.6763 145.847 35.6567 145.924C35.6763 145.952 35.7057 145.981 35.7351 146.01C36.617 145.597 37.9398 146.01 37.9398 147.259C37.9398 147.98 37.5086 148.412 36.9795 148.585ZM17.2848 201.549C17.3926 201.472 17.52 201.424 17.6375 201.395C17.9119 201.059 18.2646 200.799 18.7056 200.665C20.5281 200.117 22.1056 202.029 22.037 203.682C21.9488 205.777 19.8128 207.468 17.7355 206.641C16.6773 206.219 15.815 205.325 15.7562 204.153C15.6975 203.029 16.3833 202.145 17.2848 201.549ZM21.9782 232.201C22.037 232.758 21.8018 233.392 21.2629 233.613C20.773 233.825 20.2929 233.959 19.7834 234.094C19.2053 234.238 18.5978 234.027 18.2352 233.604C17.9609 233.556 17.6963 233.479 17.4318 233.354C15.9228 232.604 15.2957 230.817 15.9228 229.309C17.3142 225.974 22.2918 228.492 22.233 231.413C22.233 231.74 22.1252 231.99 21.9782 232.201ZM146.711 36.3257C146.858 34.4039 148.994 33.3565 150.807 33.4622C150.954 33.4622 151.111 33.5007 151.258 33.5295C151.669 33.443 152.101 33.4334 152.522 33.5583C153.453 33.8466 154.06 34.6729 154.55 35.4609C155.54 37.0463 155.314 38.6414 153.561 39.4869C153.159 39.9193 152.63 40.246 152.061 40.4478C151.944 40.5727 151.807 40.6784 151.689 40.8033C151.101 41.3414 150.17 41.3799 149.582 40.8033C149.484 40.6977 149.396 40.5727 149.328 40.4382C148.456 40.1115 147.633 39.4869 147.329 38.699C146.868 38.0264 146.643 37.1904 146.721 36.3257H146.711ZM148.211 67.2275C147.779 67.0161 147.446 66.603 147.446 65.988C147.446 65.9496 147.446 65.9207 147.456 65.8919C147.123 63.8068 147.525 60.9049 150.307 61.0683C152.669 61.2124 153.737 63.8741 153.766 65.8823C153.786 66.7471 153.149 67.2083 152.463 67.2756C152.277 67.4774 152.032 67.6311 151.767 67.7272C151.493 67.8233 151.209 67.9001 150.944 67.9866C150.925 67.9866 150.895 68.0058 150.876 68.0058C150.67 68.2268 150.396 68.3806 150.062 68.4575C149.465 68.5728 148.887 68.419 148.495 67.929C148.338 67.7176 148.25 67.487 148.211 67.2275ZM110.105 122.805C109.272 123.737 107.939 123.977 106.734 123.996C105.813 124.015 105.353 123.352 105.304 122.661C104.461 121.882 104.206 120.547 104.559 119.49C104.696 119.086 104.921 118.759 105.186 118.471C104.97 117.616 105.431 116.626 106.568 116.694C107.155 116.732 107.636 116.991 108.008 117.366C109.145 117.405 110.213 117.972 110.595 119.192C110.957 120.345 110.947 121.873 110.105 122.805Z" fill="#78CDD3"/>
<path d="M172.424 22.6426L171.19 22.364L172.326 20.6632L170.592 20.2693L169.456 21.97L168.544 21.7682L169.681 20.0675L167.947 19.6735L166.82 21.3743L165.037 20.9707L168.525 18.0785L171.856 19.9234L169.671 17.1272L171.709 15.4457L169.024 15.1286L169.181 11.6502L167.515 14.946L162.91 14.3983L164.145 13.1203L166.085 13.9275L167.29 12.6879L165.35 11.8808L165.987 11.2274L167.927 12.0345L169.132 10.795L167.192 9.98786L168.045 9.10385L166.428 7.65292L165.575 8.53693L164.605 6.73048L163.4 7.97001L164.37 9.77647L163.733 10.4299L162.763 8.62341L161.558 9.86295L162.528 11.6694L161.294 12.9474L160.402 8.57537L163.704 6.74009L160.108 7.13405L159.589 4.58772L157.982 6.65361L154.925 4.75107L157.08 7.81627L154.327 11.3715L153.788 9.68999L155.463 8.47928L154.934 6.84579L153.259 8.04689L152.985 7.18209L154.66 5.97139L154.131 4.33789L152.446 5.53899L152.073 4.37633L149.967 4.98168L150.339 6.14434L148.232 6.03865L148.761 7.67214L150.868 7.77784L151.142 8.64263L149.036 8.53693L149.565 10.1704L151.672 10.2761L152.21 11.9577L147.831 10.4779L147.801 6.79774L146.4 9.98786L143.843 9.12307L144.92 11.5061L141.707 13.0819L145.528 12.8513L147.38 16.9446L145.597 16.5411L145.332 14.5328L143.598 14.1389L143.862 16.1471L142.951 15.9357L142.686 13.9275L140.952 13.5335L141.217 15.5417L139.982 15.2631L139.502 17.3194L140.737 17.598L139.61 19.2988L141.344 19.6927L142.471 17.992L143.382 18.2034L142.255 19.9041L143.99 20.2981L145.116 18.5973L146.9 19.0009L143.412 21.8932L140.08 20.0483L142.265 22.8444L140.237 24.526L142.922 24.8431L142.765 28.3214L144.431 25.0256L149.036 25.5733L147.801 26.8513L145.861 26.0442L144.656 27.2837L146.596 28.0908L145.959 28.7442L144.019 27.9371L142.814 29.1766L144.754 29.9838L143.901 30.8678L145.518 32.3187L146.371 31.4347L147.341 33.2411L148.546 32.0016L147.576 30.1952L148.213 29.5321L149.183 31.3386L150.388 30.0991L149.418 28.2926L150.653 27.0146L151.544 31.3866L148.242 33.2219L149.702 33.0586C150.133 32.9337 150.613 32.8664 151.133 32.8664C151.201 32.8664 151.27 32.8664 151.338 32.876L151.838 32.8184L151.858 32.9144C152.583 33.0105 153.22 33.2411 153.749 33.5774L153.964 33.2988L157.021 35.2013L154.866 32.1361L157.619 28.5809L158.158 30.2624L156.483 31.4635L157.012 33.097L158.687 31.8863L158.971 32.7511L157.286 33.9618L157.815 35.5953L159.491 34.3942L159.863 35.5569L161.96 34.9515L161.587 33.7888L163.694 33.8945L163.165 32.261L161.058 32.1553L160.784 31.2906L162.891 31.3963L162.362 29.7628L160.255 29.6571L159.716 27.9755L164.106 29.4553L164.135 33.1354L165.536 29.9453L168.094 30.8101L167.016 28.4271L170.23 26.8513L166.408 27.0819L164.556 22.9886L166.34 23.3921L166.604 25.4004L168.339 25.7943L168.074 23.7861L168.985 23.9975L169.25 26.0057L170.984 26.3997L170.72 24.3914L171.954 24.6701L172.434 22.6138L172.424 22.6426ZM158.383 9.6996L159.442 14.8691L156.453 17.9536L155.14 13.8986L158.393 9.70921L158.383 9.6996ZM153.033 14.504L154.346 18.5589L150.045 17.5884L147.86 12.7456L153.033 14.4944V14.504ZM150.868 23.7092L145.43 23.0654L149.555 19.6543L153.857 20.6248L150.868 23.7092ZM153.543 30.3201L152.485 25.1505L155.473 22.0661L156.786 26.121L153.533 30.3105L153.543 30.3201ZM158.893 25.5157L157.58 21.4608L161.891 22.4312L164.076 27.2741L158.903 25.5253L158.893 25.5157ZM162.371 20.375L158.06 19.4045L161.049 16.3201L166.487 16.9638L162.371 20.3846V20.375Z" fill="#BFFFFD"/>
<path d="M35.8542 237.293L34.6196 237.014L35.7464 235.314L34.0121 234.92L32.8755 236.62L31.9643 236.409L33.1009 234.718L31.3666 234.324L30.2398 236.025L28.4565 235.621L31.9447 232.729L35.2761 234.574L33.0911 231.778L35.1291 230.096L32.4444 229.779L32.6012 226.31L30.9354 229.606L26.3302 229.058L27.5648 227.78L29.5049 228.587L30.7101 227.348L28.77 226.541L29.4069 225.887L31.347 226.695L32.5522 225.455L30.6121 224.648L31.4646 223.764L29.8478 222.313L28.9954 223.197L28.0253 221.39L26.8201 222.63L27.7902 224.436L27.1533 225.09L26.1832 223.283L24.978 224.523L25.9481 226.329L24.7135 227.607L23.8218 223.235L27.1239 221.4L23.5279 221.794L23.0086 219.248L21.4016 221.314L18.3445 219.411L20.5002 222.476L17.9232 225.801C18.1682 225.772 18.4131 225.743 18.6777 225.743C19.3538 225.743 19.9515 225.859 20.4806 226.051L21.8132 224.331L22.4697 227.54C23.1849 228.511 23.4887 229.76 23.3907 230.98C23.3907 231.393 23.3613 231.806 23.2633 232.2L24.4783 230.942L29.9164 231.585L25.8011 235.006L22.2835 234.209C21.4996 235.15 20.2944 235.784 18.6777 235.784C18.0604 235.784 17.5117 235.688 17.0218 235.525L14.2978 238.331L8.85972 237.687L12.9848 234.266L15.8264 234.91C14.9641 234.276 14.3958 233.363 14.1312 232.364L13.4748 232.22L11.2897 227.377L14.386 228.424C14.9445 227.146 16.0517 226.118 17.6881 225.82L17.2079 224.331L18.8834 223.13L18.3543 221.496L16.669 222.697L16.3947 221.832L18.0702 220.622L17.5411 218.988L15.8558 220.189L15.4834 219.027L13.3768 219.642L13.7491 220.804L11.6425 220.699L12.1716 222.332L14.2782 222.438L14.5526 223.303L12.4459 223.197L12.975 224.83L15.0817 224.936L15.6206 226.618L11.2407 225.138L11.2113 221.458L9.81016 224.648L7.25279 223.783L8.33061 226.166L5.11674 227.742L8.93811 227.511L10.79 231.605L9.0067 231.201L8.74214 229.193L7.00783 228.799L7.27238 230.807L6.36114 230.596L6.09658 228.587L4.36227 228.194L4.62682 230.202L3.39223 229.923L2.91211 231.979L4.1467 232.258L3.01009 233.959L4.7444 234.353L5.87122 232.652L6.78246 232.854L5.64585 234.555L7.38017 234.948L8.51678 233.248L10.3001 233.651L6.81186 236.544L3.48041 234.699L5.66545 237.495L3.63719 239.176L6.32194 239.493L6.16517 242.962L7.83089 239.666L12.4361 240.214L11.2015 241.492L9.26145 240.685L8.05625 241.924L9.99633 242.732L9.35944 243.385L7.41936 242.578L6.21416 243.827L8.15424 244.634L7.30178 245.518L8.91851 246.969L9.77097 246.085L10.741 247.892L11.9462 246.652L10.9762 244.846L11.6131 244.183L12.5831 245.989L13.7883 244.749L12.8183 242.943L14.0529 241.665L14.9445 246.037L11.6425 247.872L15.2385 247.478L15.7578 250.025L17.3647 247.959L20.4218 249.861L18.2662 246.796L21.0195 243.241L21.5584 244.922L19.8731 246.133L20.4022 247.767L22.0777 246.556L22.3619 247.421L20.6766 248.631L21.2057 250.265L22.891 249.064L23.2633 250.226L25.3602 249.611L24.9878 248.449L27.0945 248.555L26.5654 246.921L24.4587 246.815L24.1844 245.951L26.291 246.056L25.7619 244.423L23.6553 244.317L23.1163 242.636L27.506 244.115L27.5354 247.795L28.9366 244.605L31.494 245.47L30.4161 243.087L33.63 241.511L29.8086 241.742L27.9567 237.649L29.74 238.052L30.0046 240.06L31.7389 240.454L31.4744 238.446L32.3856 238.648L32.6502 240.656L34.3845 241.05L34.1199 239.042L35.3545 239.32L35.8346 237.264L35.8542 237.293ZM16.9728 244.97L15.9145 239.801L18.903 236.717L20.216 240.781L16.963 244.97H16.9728ZM22.3325 240.166L21.0195 236.102L25.3308 237.072L27.5158 241.915L22.3423 240.166H22.3325Z" fill="#BFFFFD"/>
<path d="M90.9199 30.3489L91.8802 27.8986L93.0658 27.9467L92.1153 30.3969L94.3591 30.4834L95.3194 28.0331L97.622 28.1292L94.0652 32.6838L89.46 31.108L92.8992 34.1828L90.8219 36.8348L94.222 36.6042L94.9372 41.1107L96.1326 36.4793L101.963 36.0853L100.767 38.0167L98.1511 37.4402L96.9851 39.3235L99.5915 39.8904L98.984 40.8897L96.3678 40.3228L95.2018 42.2061L97.8082 42.7826L96.9851 44.1183L99.3661 45.5884L100.189 44.2528L101.865 46.3379L103.031 44.4546L101.355 42.3695L101.972 41.3798L103.648 43.4649L104.814 41.5815L103.138 39.4964L104.334 37.5555L106.587 42.9652L102.982 46.1073L107.322 44.7332L108.635 47.8849L110.076 44.8389L114.348 46.5493L110.889 43.1286L113.358 37.9014L114.465 39.9288L112.702 41.8794L113.789 43.8588L115.553 41.9082L116.121 42.9556L114.358 44.9062L115.435 46.8856L117.199 44.935L117.963 46.3379L120.403 45.0503L119.639 43.6474L122.265 43.2823L121.187 41.3029L118.561 41.668L117.993 40.6207L120.619 40.2555L119.531 38.2761L116.905 38.6413L115.798 36.6138L121.608 37.4786L122.608 42.1965L123.509 37.7572L126.89 38.2569L124.93 35.4415L128.487 32.655L123.823 33.8657L120.462 29.0421L122.774 29.1285L123.627 31.6557L125.871 31.7421L125.018 29.215L126.204 29.2631L127.056 31.7902L129.3 31.8767L128.448 29.3496L130.045 29.4168L130.104 26.6591L128.506 26.5918L129.457 24.1416L127.213 24.0551L126.253 26.5054L125.067 26.4573L126.018 24.0071L123.774 23.9206L122.823 26.3708L120.521 26.2747L124.078 21.7202L128.683 23.296L125.244 20.2212L127.321 17.5692L123.921 17.7998L123.206 13.2933L122.01 17.9247L116.18 18.3187L117.376 16.3873L119.982 16.9542L121.148 15.0709L118.542 14.4944L119.159 13.495L121.765 14.062L122.931 12.1786L120.315 11.6021L121.138 10.2665L118.757 8.78674L117.934 10.1224L116.258 8.03725L115.092 9.92057L116.768 12.0057L116.151 12.9954L114.475 10.9103L113.309 12.7936L114.985 14.8787L113.789 16.8197L111.536 11.4099L115.132 8.26786L110.791 9.64192L109.478 6.49023L108.038 9.53622L103.766 7.82586L107.224 11.2466L104.745 16.4642L103.638 14.4367L105.402 12.4861L104.314 10.5067L102.551 12.4573L101.982 11.4099L103.746 9.45935L102.668 7.47994L100.904 9.43052L100.14 8.02764L97.7004 9.31522L98.4647 10.7181L95.8387 11.0832L96.9165 13.0626L99.5425 12.6975L100.111 13.7449L97.4848 14.11L98.5626 16.0894L101.189 15.7243L102.296 17.7517L96.4854 16.8966L95.486 12.1786L94.5845 16.6179L91.2041 16.1182L93.1637 18.9336L89.6069 21.7202L94.2709 20.5095L97.6318 25.3331L95.3292 25.2466L94.4767 22.7195L92.2329 22.633L93.0853 25.1505L91.8997 25.1025L91.0473 22.5754L88.8035 22.4889L89.6559 25.0064L88.0588 24.9391L88 27.6968L89.5971 27.7641L88.6467 30.2143L90.8905 30.3008L90.9199 30.3489ZM121.285 20.7689L117.091 26.1402L111.516 25.9192L114.407 21.2397L121.295 20.7689H121.285ZM106.441 19.539L109.36 13.3701L112.016 19.76L109.125 24.4395L106.441 19.539ZM111.447 28.6769L117.023 28.8979L120.991 34.596L114.132 33.5774L111.447 28.6673V28.6769ZM111.702 34.8746L108.782 41.0435L106.127 34.6536L109.017 29.9741L111.702 34.8842V34.8746ZM104.011 20.8266L106.695 25.727L101.12 25.506L97.1517 19.808L104.011 20.8266ZM101.061 28.2638L106.636 28.4848L103.746 33.1642L96.8577 33.6351L101.051 28.2638H101.061Z" fill="#BFFFFD"/>
<path d="M73.9883 163.344L72.3911 163.286L73.3416 160.836L71.0977 160.75L70.1375 163.2L68.9519 163.152L69.9121 160.702L67.6683 160.605L66.7179 163.056L64.4153 162.969L67.9721 158.415L72.5773 159.991L69.1381 156.916L71.2153 154.264L67.8153 154.494L67.1 149.988L65.9046 154.619L60.0746 155.013L61.27 153.082L63.8763 153.649L65.0424 151.765L62.436 151.189L63.0533 150.199L65.6596 150.766L66.8257 148.883L64.2193 148.306L65.0424 146.971L62.6613 145.491L61.8383 146.826L60.1628 144.741L58.9968 146.625L60.6723 148.71L60.055 149.699L58.3795 147.614L57.2135 149.498L58.889 151.583L57.6936 153.524L55.4399 148.114L59.0359 144.972L54.6953 146.346L53.3823 143.194L51.9419 146.24L47.6698 144.53L51.1287 147.951L48.6497 153.168L47.5425 151.141L49.3062 149.19L48.2283 147.211L46.4646 149.161L45.8963 148.124L47.66 146.173L46.5822 144.194L44.8185 146.144L44.0542 144.741L41.6144 146.019L42.3787 147.422L39.7528 147.787L40.8306 149.767L43.4565 149.402L44.0248 150.449L41.3989 150.814L42.4767 152.794L45.1027 152.428L46.2099 154.456L40.4092 153.601L39.4098 148.883L38.5084 153.322L35.1279 152.822L37.0876 155.638L33.5308 158.424L38.1948 157.214L41.5557 162.037L39.2432 161.951L38.3908 159.424L36.147 159.337L36.9994 161.855L35.8138 161.807L34.9614 159.279L32.7175 159.193L33.57 161.71L31.9729 161.653L31.9141 164.411L33.5112 164.468L32.5608 166.918L34.8046 167.005L35.7648 164.555L36.9504 164.603L36 167.053L38.2438 167.139L39.204 164.689L41.5067 164.776L37.9499 169.33L33.3446 167.754L36.7838 170.829L34.7066 173.481L38.1066 173.251L38.8219 177.757L40.0173 173.126L45.8473 172.732L44.6519 174.663L42.0456 174.087L40.8796 175.97L43.4859 176.537L42.8784 177.536L40.2623 176.969L39.0963 178.853L41.7026 179.429L40.8796 180.765L43.2606 182.235L44.0836 180.899L45.7592 182.984L46.9252 181.101L45.2496 179.016L45.8669 178.026L47.5425 180.111L48.7085 178.228L47.0329 176.143L48.2283 174.202L50.482 179.612L46.8762 182.754L51.2168 181.38L52.5298 184.541L53.9702 181.495L58.2423 183.205L54.7835 179.785L57.2526 174.557L58.3599 176.585L56.5962 178.535L57.6838 180.515L59.4475 178.564L60.0158 179.602L58.2521 181.553L59.3299 183.532L61.0936 181.581L61.8579 182.984L64.2977 181.697L63.5334 180.294L66.1594 179.929L65.0815 177.959L62.4458 178.324L61.8775 177.277L64.5034 176.912L63.4158 174.932L60.7899 175.297L59.6826 173.27L65.4931 174.135L66.4925 178.853L67.394 174.413L70.7744 174.913L68.8147 172.098L72.3715 169.311L67.7075 170.522L64.3467 165.698L66.6493 165.785L67.5017 168.312L69.7456 168.398L68.8931 165.871L70.0787 165.919L70.9312 168.446L73.175 168.533L72.3225 166.006L73.9197 166.063L73.9785 163.306L73.9883 163.344ZM53.2353 150.045L55.8907 156.435L53.0002 161.115L50.3154 156.214L53.2353 150.045ZM41.0265 156.483L47.8854 157.502L50.5702 162.402L44.9949 162.181L41.0265 156.483ZM54.6365 173.539L52.6572 177.709L51.4814 174.875C51.403 174.875 51.3148 174.884 51.2364 174.884C48.003 174.884 46.4352 172.376 46.5136 169.916L40.7424 170.31L44.9361 164.939L50.5114 165.16L50.3938 165.343C50.6583 165.304 50.9327 165.275 51.2266 165.275C56.0572 165.275 57.1841 170.887 54.6267 173.529L54.6365 173.539ZM64.866 171.281L58.0071 170.272L55.3224 165.362L60.8976 165.583L64.866 171.281ZM60.9564 162.825L55.3812 162.604L58.2717 157.925L65.1599 157.454L60.9662 162.825H60.9564Z" fill="#BFFFFD"/>
<path d="M165.388 76.3554L163.301 75.8846L165.222 73.002L162.272 72.3389L160.352 75.2216L158.794 74.8661L160.714 71.9834L157.765 71.3204L155.845 74.2031L152.817 73.5208L158.755 68.6011L164.408 71.7336L160.695 66.9868L164.154 64.1234L159.588 63.5853L159.862 57.6855L157.03 63.2875L154.208 62.9512C154.796 64.0562 154.943 65.3918 154.659 66.6217L155.296 66.6986L154.385 67.4481C153.846 68.7164 152.788 69.7542 151.2 70.0905L148.29 72.5023L140.971 70.8496L145.4 66.2758C144.968 63.6238 146.526 60.597 150.064 60.597C150.338 60.597 150.593 60.6258 150.847 60.6547L151.298 60.1838L154.6 61.5579L156.648 59.4439L153.346 58.0699L154.424 56.9553L157.726 58.3293L159.774 56.2154L156.472 54.8413L157.922 53.3424L155.178 50.8825L153.728 52.3815L152.072 49.3163L150.024 51.4302L151.68 54.505L150.603 55.6196L148.947 52.5544L146.899 54.6684L148.555 57.7336L146.458 59.9052L144.939 52.468L150.554 49.3547L144.439 50.0273L143.558 45.6938L140.834 49.2106L135.64 45.982L139.295 51.19L134.612 57.2243L133.691 54.3705L136.542 52.3238L135.64 49.5469L132.789 51.5936L132.319 50.1234L135.17 48.0767L134.269 45.2998L131.417 47.3465L130.78 45.3767L127.204 46.4144L127.841 48.3842L124.265 48.2017L125.166 50.9786L128.742 51.1612L129.213 52.6217L125.636 52.4391L126.538 55.2161L130.114 55.3986L131.035 58.2525L123.588 55.735L123.53 49.4796L121.139 54.9086L116.798 53.4385L118.63 57.4934L113.173 60.1742L119.659 59.7803L122.795 66.7466L119.777 66.0644L119.336 62.6437L116.387 61.9807L116.828 65.4014L115.27 65.0459L114.829 61.6251L111.879 60.9621L112.32 64.3829L110.223 63.912L109.4 67.4096L111.497 67.8805L109.577 70.7631L112.526 71.4261L114.447 68.5435L116.004 68.899L114.084 71.7816L117.033 72.4446L118.954 69.562L121.982 70.2442L116.053 75.1639L110.4 72.0315L114.113 76.7782L110.655 79.6416L115.211 80.1797L114.936 86.0795L117.768 80.4776L125.587 81.4096L123.481 83.5812L120.179 82.2072L118.131 84.3211L121.423 85.6856L120.345 86.8002L117.043 85.4261L114.995 87.5401L118.288 88.9045L116.837 90.4035L119.591 92.8633L121.041 91.3644L122.697 94.4296L124.745 92.3156L123.089 89.2504L124.167 88.1358L125.822 91.201L127.87 89.0871L126.224 86.0219L128.321 83.8503L129.84 91.2875L124.225 94.4007L130.34 93.7281L131.221 98.0617L133.945 94.5449L139.138 97.7734L135.484 92.5655L140.167 86.5311L141.088 89.3849L138.237 91.4316L139.138 94.2086L141.99 92.1619L142.47 93.632L139.609 95.6883L140.51 98.4653L143.362 96.4186L143.998 98.3884L147.565 97.3506L146.928 95.3808L150.505 95.5634L149.603 92.7865L146.027 92.6039L145.556 91.1434L149.133 91.3259L148.231 88.549L144.655 88.3664L143.734 85.5126L151.19 88.0301L151.239 94.2854L153.63 88.8565L157.971 90.3266L156.139 86.2717L161.596 83.5908L155.11 83.9848L151.965 77.0184L154.992 77.7007L155.433 81.1214L158.382 81.7844L157.942 78.3637L159.499 78.7192L159.94 82.1399L162.89 82.8029L162.449 79.3822L164.536 79.853L165.359 76.3554H165.388ZM141.519 54.3609L143.313 63.1433L138.227 68.3897L135.993 61.4906L141.519 54.3609ZM132.427 62.5188L134.661 69.4179L127.341 67.7652L123.628 59.54L132.427 62.5188ZM128.752 78.1619L119.512 77.0665L126.518 71.2628L133.838 72.9155L128.752 78.1619ZM133.299 89.4042L131.506 80.6217L136.591 75.3753L138.825 82.2744L133.299 89.4042ZM142.391 81.2463L140.157 74.3472L147.477 75.9999L151.19 84.225L142.391 81.2463Z" fill="#BFFFFD"/>
<path d="M170.023 110.102L168.788 109.823L171.493 107.027C171.551 106.796 171.61 106.566 171.669 106.345C171.6 106.162 171.522 105.98 171.463 105.787C170.836 103.827 170.787 101.377 170.885 99.3496C170.983 97.4278 171.218 97.668 168.955 96.6495C168.906 96.6303 168.877 96.6015 168.828 96.5823L168.7 96.7456L165.555 94.795L167.769 97.9467L164.938 101.598L164.379 99.8685L166.104 98.6289L165.565 96.9474L163.84 98.1869L163.556 97.3029L165.281 96.0634L164.742 94.3818L163.017 95.6214L162.635 94.4299L160.47 95.0544L160.852 96.2459L158.686 96.1402L159.225 97.8218L161.391 97.9275L161.675 98.8115L159.509 98.6962L160.048 100.378L162.214 100.483L162.772 102.213L158.265 100.695L158.236 96.9089L156.795 100.195L154.169 99.3111L155.276 101.761L151.974 103.385L155.904 103.145L157.804 107.354L155.972 106.941L155.708 104.875L153.924 104.471L154.189 106.537L153.248 106.326L152.984 104.26L151.2 103.856L151.475 105.922L150.211 105.634L149.711 107.748L150.975 108.036L149.809 109.785L151.592 110.188L152.758 108.449L153.699 108.661L152.533 110.4L154.316 110.803L155.482 109.054L157.314 109.468L153.728 112.446L150.309 110.544L152.552 113.417L150.465 115.146L153.219 115.473L153.052 119.048L154.767 115.656L159.5 116.213L158.226 117.529L156.227 116.703L154.992 117.981L156.981 118.807L156.325 119.48L154.326 118.654L153.091 119.932L155.09 120.758L154.208 121.671L155.874 123.16L156.756 122.247L157.755 124.102L158.99 122.824L157.991 120.969L158.647 120.297L159.646 122.151L160.881 120.873L159.882 119.019L161.155 117.702L162.076 122.199L158.686 124.083L162.38 123.679L162.919 126.302L164.565 124.179L167.711 126.129L165.496 122.978L166.652 121.488C166.231 119.297 167.191 116.809 169.504 115.963C169.406 115.56 169.308 115.156 169.21 114.762L168.298 111.937L169.033 112.1C169.19 111.332 169.543 110.659 170.033 110.102H170.023ZM163.615 104.779L164.967 108.949L160.538 107.949L158.294 102.972L163.615 104.769V104.779ZM161.391 114.243L155.806 113.58L160.038 110.063L164.467 111.063L161.391 114.234V114.243ZM164.144 121.046L163.056 115.733L166.133 112.562L167.485 116.732L164.144 121.046ZM167.123 108.324L165.77 104.154L169.112 99.8396L170.199 105.153L167.123 108.324Z" fill="#BFFFFD"/>
<path d="M31.7791 115.482L30.7797 113.628L31.4361 112.946L32.4356 114.8L33.6702 113.522L32.6707 111.668L33.9445 110.361L34.8656 114.858L31.4753 116.741L35.1693 116.328L35.6984 118.951L37.3446 116.818L40.4898 118.768L38.2754 115.617L41.1071 111.965L41.6656 113.685L39.9411 114.925L40.4898 116.606L42.2143 115.367L42.5083 116.251L40.7838 117.49L41.3325 119.172L43.057 117.933L43.4391 119.124L45.5948 118.499L45.2127 117.308L47.3781 117.414L46.8294 115.732L44.6639 115.617L44.3798 114.733L46.5452 114.848L45.9965 113.167L43.8311 113.051L43.2726 111.322L47.7798 112.849L47.8092 116.635L49.2496 113.349L51.8755 114.233L50.7683 111.783L54.0704 110.159L50.1412 110.399L48.2403 106.181L50.0726 106.594L50.3372 108.66L52.1205 109.064L51.8559 106.998L52.7966 107.209L53.0611 109.275L54.8444 109.679L54.5799 107.613L55.8439 107.901L56.3436 105.787L55.0796 105.499L56.2456 103.75L54.4623 103.346L53.2963 105.095L52.3557 104.884L53.5217 103.135L51.7384 102.731L50.5724 104.48L48.7401 104.067L52.3263 101.088L55.7459 102.981L53.5021 100.108L55.5989 98.3786L52.8358 98.0519L53.0024 94.4774L51.2876 97.8693L46.555 97.312L47.8288 95.9956L49.8277 96.822L51.0721 95.544L49.0732 94.7177L49.7297 94.045L51.7286 94.8714L52.973 93.5934L50.9741 92.7671L51.8559 91.8638L50.1902 90.3745L49.3084 91.2777L48.3089 89.4232L47.0645 90.7012L48.064 92.5557L47.4075 93.2283L46.4081 91.3738L45.1637 92.6518L46.1631 94.5063L44.8893 95.8227L43.9683 91.3258L47.3585 89.4424L43.6645 89.8556L43.1354 87.2324L41.4893 89.3559L38.344 87.4054L40.5584 90.557L37.7267 94.2084L37.1682 92.4788L38.8927 91.2393L38.3538 89.5577L36.6293 90.7973L36.3451 89.9133L38.0696 88.6737L37.5307 86.9922L35.8062 88.2317L35.4241 87.0402L33.2586 87.6648L33.6408 88.8563L31.4753 88.7506L32.0142 90.4321L34.1797 90.5474L34.4638 91.4315L32.2984 91.3258L32.8373 93.0073L35.0028 93.1226L35.5613 94.8522L31.054 93.3244L31.0246 89.5385L29.5843 92.8247L26.9583 91.9407L28.0655 94.391L24.7635 96.0148L28.6926 95.7746L30.5935 99.9929L28.7612 99.5797L28.4966 97.5138L26.7133 97.1102L26.9779 99.1761L26.0372 98.9647L25.7727 96.8989L23.9894 96.4953L24.2539 98.5612L22.99 98.2729L22.4902 100.387L23.7542 100.675L22.5882 102.424L24.3715 102.827L25.5375 101.079L26.4782 101.29L25.3122 103.039L27.0955 103.442L28.2615 101.694L30.0938 102.107L26.5076 105.086L23.0879 103.193L25.3318 106.066L23.2447 107.795L25.9981 108.122L25.8315 111.696L27.5462 108.304L32.2788 108.862L31.005 110.178L29.0061 109.352L27.7716 110.63L29.7704 111.456L29.1139 112.129L27.1151 111.302L25.8805 112.58L27.8793 113.407L26.9975 114.31L28.6632 115.799L29.5451 114.887L30.5445 116.741L31.7791 115.463V115.482ZM41.9106 92.5076L42.9982 97.8213L39.9215 100.992L38.5694 96.822L41.9106 92.5076ZM33.3272 100.617L31.0834 95.6401L36.4039 97.4369L37.7561 101.607L33.3272 100.608V100.617ZM41.5775 102.482L44.6541 99.3107L50.2392 99.9737L46.0063 103.49L41.5775 102.491V102.482ZM45.5066 105.595L47.7504 110.572L42.4299 108.775L41.0777 104.605L45.5066 105.604V105.595ZM32.8373 102.731L37.2662 103.731L34.1895 106.902L28.6044 106.239L32.8471 102.731H32.8373ZM35.8454 108.391L38.9221 105.22L40.2743 109.39L36.933 113.705L35.8454 108.391Z" fill="#BFFFFD"/>
<path d="M104.041 70.043L102.777 69.7548L103.943 68.0059L102.159 67.6024L100.993 69.3512L100.053 69.1398L101.219 67.391L99.4355 66.9874L98.2695 68.7362L96.4372 68.323L100.023 65.3539L103.443 67.2469L101.199 64.3738L103.296 62.6442L100.533 62.3175L100.7 58.7431L98.9848 62.135L94.2522 61.5777L95.526 60.2613L97.5248 61.0876L98.7692 59.8097L96.7704 58.9833L97.4171 58.3107L99.4159 59.137L100.66 57.8591L98.6614 57.0327L99.5433 56.1295L97.8776 54.6401L96.9957 55.5433L95.9963 53.6889L94.7617 54.9668L95.7611 56.8213L95.1046 57.4939L94.1052 55.6394L92.8608 56.9174L93.8602 58.7719L92.5865 60.0883L91.6654 55.5914L95.0556 53.7081L91.3617 54.1212L90.8325 51.498L89.1864 53.6216L87.4619 52.5454C87.4423 52.8817 87.4227 53.2276 87.3933 53.5735L88.2654 54.8131L87.0112 56.437C86.5213 59.3676 85.7962 62.625 85.4434 65.7863L85.463 65.8536H85.4336C85.2377 67.5639 85.1593 69.2551 85.2867 70.8405L86.629 69.4569L87.9812 73.6271L86.5409 75.4912C86.9034 76.1734 87.3541 76.8076 87.9028 77.3841L88.8141 76.2023L89.3726 77.9318L88.8925 78.2778C89.1472 78.4699 89.4118 78.6525 89.6959 78.8255C91.4694 79.9112 92.1063 81.5447 91.979 83.1302L93.3017 82.7458L92.9196 81.5544L95.085 81.6697L94.5363 79.9881L92.3709 79.8728L92.0867 78.9888L94.2522 79.1041L93.7035 77.4226L91.538 77.3073L90.9795 75.5777L95.4868 77.1055L95.5162 80.8913L96.9565 77.6051L99.5825 78.4891L98.4753 76.0389L101.777 74.415L97.8482 74.6552L95.9473 70.4466L97.7796 70.8598L98.0539 72.9257L99.8372 73.3292L99.5727 71.2633L100.513 71.4747L100.778 73.5406L102.561 73.9442L102.297 71.8783L103.561 72.1666L104.06 70.0526L104.041 70.043ZM87.6187 65.2194L86.2665 61.0492L89.6077 56.7348L90.6954 62.0485L87.6187 65.2194ZM90.1369 72.9929L88.7847 68.8227L93.2135 69.822L95.4574 74.7994L90.1369 73.0025V72.9929ZM93.7035 67.7081L89.2746 66.7088L92.3513 63.5379L97.9364 64.2009L93.7035 67.7177V67.7081Z" fill="#BFFFFD"/>
<path d="M145.056 168.302L142.146 166.899L142.332 165.497L145.252 166.899L145.605 164.247L142.695 162.845L143.057 160.125L148.28 164.843L145.83 170.128L149.995 166.39L153.032 169.138L153.12 165.083L158.754 164.728L153.169 162.797L153.316 155.84L155.57 157.464L154.58 160.49L156.775 162.076L157.765 159.049L158.921 159.885L157.931 162.921L160.126 164.507L161.116 161.471L162.674 162.595L164.751 159.933L163.193 158.809L165.946 157.05L163.751 155.465L160.998 157.223L159.842 156.387L162.595 154.629L160.4 153.044L157.647 154.802L155.393 153.169L162.311 151.093L165.789 155.705L164.574 150.411L168.611 149.2L165.015 147.163L167.592 142.282L162.997 146.01L156.834 142.503L159.45 141.407L161.664 143.713L164.222 142.647L162.007 140.35L163.359 139.783L165.574 142.08L168.131 141.013L165.917 138.717L167.73 137.958L166.417 134.931L164.604 135.69L164.447 132.529L161.89 133.595L162.047 136.757L160.694 137.324L160.538 134.162L157.98 135.229L158.137 138.39L155.521 139.486L157.216 132.692L163.144 132.029L157.774 130.473L158.764 126.514L155.08 128.532L152.033 124.006L153.012 129.665L146.692 133.115L147.055 130.386L150.259 129.656L150.622 127.004L147.418 127.734L147.604 126.341L150.808 125.61L151.161 122.958L147.956 123.689L148.211 121.805L144.821 121.431L144.566 123.314L141.646 121.911L141.284 124.563L144.204 125.966L144.008 127.369L141.098 125.966L140.735 128.618L143.655 130.021L143.292 132.74L138.07 128.022L140.519 122.737L136.355 126.475L133.318 123.727L133.23 127.782L127.595 128.138L133.171 130.069L133.024 137.026L130.77 135.402L131.76 132.375L129.565 130.79L128.575 133.826L127.419 132.99L128.409 129.963L126.214 128.378L125.224 131.405L123.666 130.28L121.589 132.942L123.147 134.066L120.394 135.825L122.588 137.41L125.342 135.652L126.498 136.488L123.745 138.246L125.94 139.831L128.693 138.073L130.946 139.707L124.029 141.782L120.55 137.17L121.765 142.464L117.738 143.675L121.324 145.712L118.748 150.584L123.343 146.856L129.506 150.363L126.89 151.458L124.676 149.162L122.118 150.228L124.333 152.525L122.98 153.092L120.766 150.795L118.209 151.862L120.423 154.168L118.61 154.927L119.923 157.954L121.736 157.195L121.893 160.356L124.45 159.289L124.293 156.128L125.646 155.561L125.802 158.722L128.35 157.656L128.193 154.495L130.809 153.399L129.114 160.183L123.186 160.846L128.556 162.403L127.566 166.361L131.25 164.344L134.298 168.869L133.318 163.21L139.628 159.76L139.265 162.489L136.061 163.219L135.708 165.871L138.903 165.141L138.717 166.544L135.513 167.274L135.16 169.926L138.364 169.196L138.109 171.079L141.509 171.454L141.764 169.571L144.684 170.974L145.037 168.322L145.056 168.302ZM136.581 131.251L142.744 136.814L141.862 143.396L136.404 139.457L136.581 131.241V131.251ZM133.435 148.71L126.155 144.569L134.317 142.118L139.775 146.058L133.435 148.71ZM145.252 143.781L146.134 137.189L153.591 133.115L151.592 141.129L145.252 143.781ZM152.914 144.155L160.195 148.297L152.033 150.747L146.575 146.807L152.914 144.155ZM134.758 151.737L141.098 149.094L140.216 155.676L132.759 159.751L134.768 151.737H134.758ZM143.606 156.051L144.488 149.469L149.946 153.409L149.769 161.624L143.606 156.061V156.051Z" fill="#BFFFFD"/>
<path d="M35.3334 195.774L33.7362 196.793L33.0601 196.303L34.6573 195.284L33.3835 194.362L31.7864 195.38L30.4734 194.429L34.4907 193.228L36.5092 195.909L35.8037 192.834L38.1455 192.133L36.0584 190.951L37.5576 188.116L34.8924 190.278L31.316 188.241L32.8348 187.607L34.1184 188.942L35.6077 188.318L34.3241 186.982L35.108 186.655L36.3916 187.991L37.8711 187.376L36.5876 186.041L37.636 185.599L36.8717 183.84L35.8233 184.282L35.7351 182.447L34.2555 183.062L34.3437 184.897L33.5599 185.224L33.4717 183.388L31.9823 184.013L32.0705 185.848L30.5518 186.483L31.5414 182.543L34.9806 182.159L31.8647 181.255L32.4428 178.959L30.3068 180.131L28.5333 177.508L29.1016 180.794L25.437 182.802L25.6526 181.217L27.5143 180.794L27.72 179.257L25.8583 179.68L25.9661 178.872L27.8278 178.45L28.0336 176.912L26.1719 177.335L26.3189 176.24L24.3494 176.019L24.2024 177.114L22.5073 176.297L22.3015 177.835L23.9967 178.651L23.8889 179.468L22.1938 178.651L21.988 180.189L23.6831 181.006L23.4675 182.591L20.4398 179.852L21.8606 176.787L19.4404 178.959L17.6767 177.364L17.6277 179.718L14.3551 179.92L17.5983 181.044L17.5101 185.08L16.1972 184.138L16.7753 182.38L15.5015 181.457L14.9234 183.216L14.2473 182.725L14.8254 180.967L13.5516 180.045L12.9735 181.803L12.072 181.15L10.8668 182.697L11.7683 183.35L10.1712 184.369L11.4449 185.291L13.0421 184.273L13.7182 184.763L12.121 185.781L13.3948 186.704L14.992 185.685L16.3049 186.636L12.2876 187.837L10.2691 185.157L10.9746 188.231L8.63281 188.933L10.7199 190.115L9.22071 192.949L11.8859 190.787L15.4623 192.824L13.9435 193.459L12.6599 192.123L11.1804 192.738L12.464 194.073L11.6801 194.4L10.3965 193.065L8.91697 193.689L10.2006 195.025L9.14233 195.467L9.9066 197.225L10.9648 196.783L11.053 198.618L12.5326 198.003L12.4444 196.168L13.2282 195.841L13.3164 197.677L14.796 197.052L14.7078 195.217L16.2265 194.583L15.2467 198.522L11.8075 198.907L14.9234 199.81L14.3453 202.106L14.5608 201.982C15.1585 200.31 16.6381 198.974 18.9799 198.974C19.313 198.974 19.6168 199.003 19.9107 199.051L21.3413 198.263L21.1845 199.445C22.2232 199.954 22.9384 200.809 23.3402 201.809L24.5944 202.404L24.8001 200.867L23.105 200.05L23.3206 198.465L26.3483 201.203L24.9275 204.268L27.3477 202.097L29.1114 203.692L29.1604 201.338L32.4331 201.136L29.1898 200.012L29.278 195.976L30.591 196.918L30.0129 198.676L31.2866 199.599L31.8647 197.84L32.5408 198.321L31.9627 200.079L33.2365 201.001L33.8146 199.243L34.7161 199.896L35.9213 198.349L35.0198 197.696L36.617 196.677L35.3432 195.755L35.3334 195.774ZM13.5026 189.442L18.245 188.02L21.4099 190.307L17.7257 191.844L13.4928 189.442H13.5026ZM21.6548 195.899L17.324 198.263L18.49 193.612L22.1742 192.075L21.6548 195.899ZM22.6151 188.769L19.4502 186.483L19.558 181.717L23.1344 184.945L22.6151 188.769ZM25.1039 185.157L29.4347 182.793L28.2687 187.443L24.5846 188.981L25.1039 185.157ZM27.2105 199.339L23.6341 196.111L24.1534 192.286L27.3183 194.573L27.2105 199.339ZM28.5235 193.026L25.3586 190.739L29.0428 189.202L33.2659 191.604L28.5235 193.026Z" fill="#BFFFFD"/>
<path d="M29.5044 145.338C29.7885 144.732 30.1903 144.185 30.7292 143.752L30.3568 142.147L35.0993 140.725L30.8762 138.333L33.9038 132.606L28.5049 136.988L23.7135 134.259C23.6646 135.623 23.106 136.968 22.038 137.843L25.2127 139.649L15.6201 142.522L9.21196 137.9L14.5031 135.69C14.0426 134.22 14.2287 132.529 15.0812 131.251L7.66382 134.345L8.70245 126.61L17.4622 121.825L15.1302 131.174C15.9042 130.06 17.1878 129.281 18.9809 129.281C21.2052 129.281 22.6455 130.482 23.302 132.029L24.3308 131.597L26.9274 134.297L29.9355 133.048L27.3389 130.348L28.9263 129.685L31.5228 132.385L34.5211 131.136L31.9246 128.436L34.0508 127.542L32.5027 123.987L30.3764 124.871L30.1903 121.162L27.192 122.411L27.3781 126.12L25.7908 126.783L25.6046 123.074L22.5965 124.323L22.7827 128.032L19.706 129.32L21.7049 121.344L28.6617 120.557L22.3516 118.731L23.5176 114.08L19.1867 116.444L15.6103 111.13L16.7665 117.77L9.33934 121.825L9.77047 118.625L13.533 117.77L13.9544 114.657L10.1918 115.512L10.4074 113.869L14.1699 113.014L14.5913 109.9L10.8287 110.756L11.1226 108.546L7.13471 108.104L6.84076 110.314L3.41133 108.67L2.99 111.784L6.41943 113.427L6.19406 115.07L2.77443 113.427L2.3531 116.54L5.78253 118.183L5.3514 121.383L0.706977 117.184C0.432623 118.808 0.187664 120.432 0.138672 122.027L4.71451 126.158L3.67588 133.894L1.88278 132.606C1.90238 132.798 1.92197 132.99 1.93177 133.182C1.97097 134.393 1.62802 135.364 1.05972 136.094C1.08911 136.382 1.12831 136.67 1.1577 136.959L1.23609 137.016L1.1675 137.045C1.29488 138.41 1.39286 139.774 1.43206 141.139L2.77443 140.581L1.73581 148.316L1.06952 148.681C0.863751 152.39 1.1773 155.667 3.05859 159.318C3.66608 160.491 3.75427 161.634 3.49951 162.653C3.61709 162.72 3.71508 162.797 3.84246 162.864C5.25342 163.604 5.9883 164.699 6.20386 165.862L7.02692 166.256L7.43846 163.143L4.01883 161.5L4.23439 159.856L7.66382 161.5L8.07535 158.386L4.65572 156.743L5.08685 153.543L11.2206 159.078L8.33991 165.285L13.2293 160.894L16.7959 164.123L16.8939 159.366L23.5078 158.953L16.9527 156.686L17.129 148.518L19.7746 150.43L18.6086 153.995L21.1954 155.859L22.3614 152.294L23.7233 153.274L22.5573 156.839L25.1441 158.703L26.3101 155.139L28.1424 156.465L30.5822 153.342L28.7499 152.016L30.347 150.997C29.6416 150.257 29.2202 149.306 29.0831 148.297L26.1631 150.161L24.8012 149.181L28.0444 147.115L25.4577 145.251L22.2144 147.317L19.5688 145.405L27.6917 142.964L29.4946 145.357L29.5044 145.338ZM12.9647 155.292L5.72374 148.758L6.76237 141.023L13.1705 145.645L12.9647 155.292Z" fill="#BFFFFD"/>
<path d="M113.525 133.605L110.272 135.681L108.91 134.691L112.163 132.616L109.567 130.742L106.314 132.817L103.648 130.896L111.81 128.445L115.916 133.884L114.485 127.648L119.247 126.216L115.005 123.814L118.042 118.058L112.624 122.459L112.33 122.286C111.801 124.035 110.351 125.467 107.989 125.534L99.6899 128.023L93.2524 123.382L100.738 120.259L103.178 121.642C102.727 118.981 104.285 115.935 107.832 115.935C110.311 115.935 111.81 117.415 112.34 119.211L114.064 118.491L111.458 115.781L113.045 115.118L115.651 117.837L118.66 116.579L116.053 113.869L118.189 112.975L116.641 109.401L114.505 110.294L114.319 106.566L111.311 107.825L111.497 111.553L109.91 112.216L109.723 108.488L106.706 109.747L106.892 113.475L103.805 114.762L105.804 106.758L112.79 105.97L106.451 104.135L107.617 99.4749L103.276 101.848L99.6801 96.5058L100.836 103.174L93.3797 107.248L93.8109 104.029L97.593 103.165L98.0144 100.032L94.2322 100.897L94.4478 99.2443L98.2299 98.3795L98.6513 95.247L94.8691 96.1118L95.163 93.8922L91.1555 93.4502L90.8616 95.6698L87.4223 94.0171L87.001 97.1496L90.4402 98.8023L90.2149 100.455L86.7756 98.8023L86.3543 101.935L89.7935 103.587L89.3624 106.797L83.209 101.233L86.0996 95.0068L81.1906 99.4173L77.6044 96.1791L77.5064 100.955L70.8631 101.377L77.4476 103.655L77.2712 111.861L74.6159 109.939L75.7819 106.364L73.1951 104.491L72.0193 108.065L70.6573 107.075L71.8233 103.501L69.2366 101.627L68.0608 105.202L66.2187 103.876L63.7593 107.008L65.6014 108.334L62.3581 110.41L64.9449 112.283L68.1979 110.208L69.5599 111.198L66.3068 113.273L68.8936 115.147L72.1467 113.071L74.8118 114.993L66.6596 117.443L62.5541 112.005L63.9846 118.241L59.2324 119.663L63.4653 122.075L60.4278 127.83L65.8463 123.43L73.1167 127.561L70.0302 128.849L67.4239 126.13L64.4158 127.388L67.0221 130.108L65.4348 130.771L62.8284 128.051L59.8203 129.31L62.4267 132.03L60.2906 132.923L61.8388 136.498L63.9748 135.604L64.161 139.332L67.1691 138.073L66.9829 134.345L68.5703 133.682L68.7564 137.41L71.7645 136.152L71.5784 132.423L74.6649 131.136L72.666 139.14L65.6797 139.928L72.0095 141.763L70.8435 146.423L75.1842 144.05L78.7802 149.383L77.624 142.705L84.1105 139.159C82.9347 138.41 82.2586 137.161 82.0724 135.825L76.9185 138.64L79.2799 129.185L86.756 126.062L86.1877 130.3C86.3641 130.281 86.5503 130.271 86.7462 130.271C88.1964 130.271 89.3036 130.78 90.0875 131.559L90.7636 126.504L97.2011 131.145L96.9855 140.831L91.4201 135.806C91.2339 137.189 90.5088 138.487 89.2546 139.236L95.2316 144.627L92.3411 150.853L97.2501 146.443L100.836 149.681L100.934 144.896L107.578 144.482L100.993 142.205L101.169 133.999L103.825 135.921L102.649 139.496L105.246 141.369L106.412 137.795L107.783 138.775L106.617 142.359L109.214 144.233L110.39 140.658L112.232 141.984L114.681 138.852L112.839 137.526L116.092 135.45L113.496 133.577L113.525 133.605ZM77.7513 125.63L69.1582 120.749L78.79 117.866L85.2275 122.507L77.7513 125.63ZM87.6869 119.375L81.2494 114.734L81.4649 105.048L88.7353 111.611L87.6869 119.375ZM92.733 112.043L101.532 107.229L99.1706 116.684L91.6846 119.807L92.733 112.043Z" fill="#BFFFFD"/>
<path d="M89.0602 139.37C88.4233 139.697 87.6591 139.899 86.7674 139.899C86.0913 139.899 85.4936 139.783 84.9645 139.591L84.6608 141.868L80.8786 142.733L80.4573 145.856L84.2296 144.991L84.0043 146.644L80.2221 147.509L79.8008 150.641L83.5732 149.786L83.2792 152.006L87.2867 152.448L87.5807 150.228L91.0199 151.881L91.4412 148.758L88.002 147.105L88.2176 145.452L91.6568 147.105L92.0781 143.982L88.6389 142.33L89.0308 139.399L89.0602 139.37Z" fill="#BFFFFD"/>
<path d="M87.2665 236.746C87.2861 236.592 87.3154 236.448 87.3448 236.294L83.2491 234.882L83.4255 226.676L86.0808 228.598L84.905 232.172L87.5016 234.046L87.6878 233.469C87.678 230.721 87.9817 228.002 88.2463 225.273L85.8653 223.553L88.3737 222.803C88.4129 221.439 88.4423 220.075 88.4717 218.72L81.8871 220.689L75.4496 216.048L82.9356 212.926L88.5108 216.096C88.5304 214.77 88.5402 213.444 88.5598 212.118C88.5598 211.936 88.5598 211.753 88.5696 211.571L87.5506 210.994L88.5892 210.562C88.6284 209.149 88.6774 207.718 88.697 206.295L85.9927 207.42L87.9915 199.416L88.2463 199.387C88.2463 199.156 88.2267 198.926 88.2267 198.695C87.9621 196.927 87.6584 195.178 87.4722 193.4L85.4538 194.506L81.8578 189.163L83.014 195.832L75.5574 199.906L75.9885 196.687L79.7707 195.822L80.192 192.689L76.4099 193.554L76.6254 191.902L80.4076 191.037L80.8289 187.904L77.0468 188.769L77.3407 186.549L73.3332 186.107L73.0392 188.327L69.6 186.674L69.1787 189.807L72.6179 191.46L72.3925 193.112L68.9533 191.46L68.532 194.592L71.9712 196.245L71.5401 199.454L65.3867 193.891L68.2772 187.664L63.3682 192.074L59.782 188.836L59.684 193.612L53.0408 194.035L59.6253 196.312L59.4489 204.518L56.7935 202.596L57.9595 199.022L55.3728 197.148L54.2068 200.722L52.835 199.733L54.001 196.158L51.4142 194.284L50.2482 197.859L48.4061 196.533L45.9467 199.665L47.7888 200.991L44.5456 203.067L47.1323 204.941L50.3854 202.865L51.7474 203.855L48.5041 205.93L51.0909 207.804L54.3439 205.729L57.0091 207.65L48.8568 210.101L44.7513 204.662L46.1819 210.908L41.4297 212.33L45.6626 214.742L42.6251 220.497L48.0436 216.096L55.314 220.228L52.2275 221.516L49.6211 218.806L46.613 220.065L49.2194 222.775L47.6321 223.438L45.0257 220.728L42.0176 221.987L44.624 224.706L42.4879 225.6L44.0361 229.174L46.1721 228.28L46.3583 232.009L49.3664 230.75L49.1802 227.022L50.7675 226.359L50.9537 230.087L53.9618 228.828L53.7756 225.1L56.8621 223.812L54.8632 231.816L47.877 232.604L54.2068 234.44L53.0408 239.1L57.3814 236.727L60.9774 242.059L59.8212 235.381L67.268 231.307L66.8369 234.517L63.0547 235.381L62.6334 238.504L66.4057 237.649L66.1902 239.302L62.408 240.166L61.9867 243.299L65.759 242.434L65.4651 244.654L69.4726 245.096L69.7666 242.876L73.2058 244.529L73.6271 241.406L70.1879 239.753L70.4035 238.101L73.8427 239.753L74.264 236.63L70.8248 234.978L71.2559 231.768L77.4093 237.332L74.5188 243.558L79.4278 239.148L83.014 242.386L83.1119 237.601L87.1587 237.351C87.1587 237.159 87.1587 236.976 87.1881 236.775L87.2665 236.746ZM51.3946 213.396L61.0264 210.514L67.4639 215.155L59.9878 218.278L51.3946 213.396ZM67.9637 226.493L59.1647 231.307L61.5261 221.852L69.0023 218.729L67.9539 226.493H67.9637ZM69.9135 212.022L63.476 207.381L63.6916 197.696L70.962 204.258L69.9135 212.022ZM74.9597 204.691L83.7586 199.877L81.3972 209.332L73.9113 212.455L74.9597 204.681V204.691ZM79.2416 233.498L71.9712 226.935L73.0196 219.171L79.4572 223.812L79.2416 233.498Z" fill="#BFFFFD"/>
<g filter="url(#filter0_d_1575_4143)">
<path d="M74.8419 253.599L77.0955 252.638L87.4328 242.482L88.4028 240.157L88.4714 180.207L87.4818 177.901L78.3007 168.888L86.6587 160.711L95.6732 169.542L98.0346 170.493L159.059 170.464L161.724 169.359L171.865 159.423L172.924 156.887L172.943 126.427V121.478C172.845 121.613 172.737 121.757 172.62 121.872C171.63 122.843 170.023 122.843 169.024 121.872C168.034 120.902 168.044 119.326 169.024 118.355C170.013 117.385 171.62 117.375 172.62 118.355C172.737 118.471 172.855 118.615 172.943 118.749V97.1585L171.914 94.7563L162.665 85.6952L171.924 76.6053L172.894 74.2896L173.002 14.4748L171.875 11.8612L161.773 1.94498L159.186 0.907227L128.125 0.964879L123.089 0.984097C123.089 0.984097 123.118 0.984097 123.128 1.00331C123.256 1.08979 123.383 1.18588 123.491 1.30119C124.471 2.26207 124.471 3.84752 123.491 4.818C122.501 5.78849 120.894 5.7981 119.905 4.818C118.925 3.85713 118.925 2.27168 119.905 1.29158C120.012 1.18588 120.15 1.07058 120.277 0.984097H120.297L115.25 1.00331L98.2796 1.02253L95.83 2.04106L85.5711 12.1207L84.5717 14.4364L84.5031 73.9821V74.3953L85.4633 76.7206L94.7326 85.8297L86.3844 94.0068L77.507 85.3109L74.8419 84.2058L13.8177 84.3115L11.4562 85.2628L1.08957 95.4097L0.129332 97.6389L0.0607433 157.723L1.04058 159.933L10.2412 168.946L1.15816 177.863L0.0313482 180.476L0.00195312 240.32L0.971992 242.636L11.2995 252.783L13.5727 253.715L74.8321 253.638V253.618L74.8419 253.599ZM98.2012 83.3218L89.0495 74.328L88.7262 73.5401L88.7948 15.2532L89.1377 14.4652L98.2306 5.52906L99.1321 5.16392L115.26 5.1447C115.574 6.09597 116.122 6.98959 116.887 7.73908C119.522 10.3238 123.824 10.3238 126.479 7.73908C127.253 6.97998 127.802 6.06715 128.125 5.10627L158.353 5.05822L159.382 5.4714L168.299 14.2058L168.759 15.2916L168.651 73.4632L168.328 74.2511L159.157 83.2546L158.442 83.5524L98.9263 83.6197L98.2208 83.3218H98.211H98.2012ZM98.1816 88.2896L98.9949 87.9725L158.432 87.9052L159.235 88.2319L168.318 97.1297L168.691 98.0041V113.82C167.721 114.128 166.79 114.675 166.016 115.425C163.38 118.019 163.37 122.237 166.016 124.822C166.79 125.581 167.711 126.119 168.691 126.427L168.671 156.07L168.25 157.079L159.304 165.842L158.187 166.303L98.8675 166.323L98.0738 166.006L88.5498 156.675L88.5694 140.802C89.559 140.494 90.4899 139.946 91.2738 139.178C93.9095 136.593 93.9193 132.375 91.2738 129.771C90.4997 129.012 89.5786 128.474 88.6086 128.166L88.6576 97.9656H88.6772L88.9907 97.2738L98.1718 88.2704V88.2896H98.1816ZM84.6697 136.257C83.6898 135.286 83.6898 133.71 84.6697 132.73C85.6495 131.76 87.2662 131.75 88.2657 132.73C89.2455 133.691 89.2455 135.277 88.2559 136.257C87.2662 137.227 85.6593 137.227 84.6697 136.257ZM14.5721 166.813L13.7687 166.496L4.59739 157.521L4.29364 156.829L4.36223 98.4653L4.66598 97.7639L13.847 88.77L14.6505 88.4529L73.9698 88.3472L75.0771 88.8085L83.9936 97.5525L84.4149 98.5518L84.3659 128.195C83.3861 128.502 82.465 129.05 81.6812 129.809C79.0356 132.394 79.0356 136.612 81.6812 139.216C82.4454 139.966 83.3567 140.504 84.3267 140.811L84.3071 156.627L83.925 157.511L73.9013 166.861H57.8221C57.5086 165.9 56.9501 164.997 56.1858 164.237C53.55 161.653 49.2486 161.653 46.5932 164.237C45.8191 164.997 45.2704 165.9 44.9471 166.861L14.5819 166.88V166.813H14.5721ZM49.5817 167.159C50.5615 166.188 52.1783 166.188 53.1679 167.159C54.1477 168.129 54.1477 169.705 53.1679 170.675C52.1881 171.646 50.5713 171.655 49.5719 170.675C48.5725 169.695 48.5921 168.129 49.5719 167.149L49.5817 167.159ZM13.7295 249.218L4.58759 240.233L4.25445 239.455L4.28384 181.283L4.75416 180.198L13.6903 171.425L14.7191 171.012L44.9471 170.983C45.2606 171.944 45.8191 172.847 46.5834 173.606C49.2192 176.191 53.5206 176.191 56.176 173.606C56.9501 172.847 57.4988 171.944 57.8221 170.983H73.9404L74.8321 171.348L83.9054 180.255L84.2385 181.043L84.1699 239.33L83.8368 240.128L74.6655 249.131L73.96 249.439L14.4447 249.506L13.7295 249.218Z" fill="#4AA5DC"/>
<path d="M155.307 68.8901C157.953 66.2957 157.953 62.0871 155.307 59.4831C154.533 58.724 153.612 58.1859 152.633 57.8784L152.652 42.9752C153.632 42.6677 154.553 42.12 155.327 41.3609C157.963 38.7761 157.973 34.5579 155.327 31.9539C152.682 29.3595 148.39 29.3691 145.734 31.9539C143.089 34.5387 143.089 38.7569 145.734 41.3609C146.509 42.12 147.43 42.6581 148.409 42.9656L148.39 57.8592C147.41 58.1667 146.489 58.7144 145.715 59.4735C143.079 62.0679 143.069 66.2861 145.715 68.8805C148.351 71.4653 152.652 71.4653 155.307 68.8805V68.8901ZM148.762 38.4302C147.782 37.4597 147.782 35.8839 148.762 34.9038C149.742 33.9333 151.359 33.9237 152.358 34.9038C153.338 35.8647 153.338 37.4501 152.358 38.4302C151.369 39.4007 149.762 39.4103 148.772 38.4302H148.762ZM148.723 65.9498C147.743 64.9889 147.743 63.4035 148.723 62.4234C149.713 61.4529 151.32 61.4529 152.309 62.4234C153.289 63.3843 153.289 64.9697 152.309 65.9498C151.329 66.9203 149.713 66.9203 148.713 65.9498H148.723Z" fill="#4AA5DC"/>
<path d="M38.4225 151.986C41.068 149.391 41.068 145.173 38.4225 142.579C35.7769 139.984 31.4852 139.994 28.8299 142.588C28.046 143.357 27.4875 144.279 27.1641 145.259H21.3831V139.955C22.5001 139.657 23.5387 139.091 24.401 138.235C27.0466 135.641 27.0466 131.423 24.401 128.838C21.7652 126.253 17.4637 126.253 14.8084 128.838C12.1628 131.432 12.1628 135.641 14.8084 138.245C15.4943 138.918 16.2781 139.408 17.1306 139.734V149.43H27.1837C27.4973 150.362 28.046 151.255 28.8103 151.995C31.446 154.58 35.7475 154.58 38.4029 151.995V151.976L38.4225 151.986ZM17.8361 135.305C16.8562 134.344 16.8562 132.758 17.8361 131.778C18.8257 130.808 20.4327 130.798 21.4321 131.778C22.4119 132.739 22.4119 134.315 21.4321 135.295C20.4425 136.266 18.8355 136.275 17.8361 135.305ZM31.838 149.045C30.8581 148.084 30.8581 146.499 31.838 145.519C32.8276 144.548 34.4345 144.548 35.4242 145.519C36.4138 146.48 36.404 148.056 35.4242 149.036C34.4443 150.006 32.8276 150.016 31.8282 149.036L31.838 149.045Z" fill="#4AA5DC"/>
<path d="M23.7916 234.9C26.4274 232.306 26.4372 228.097 23.7916 225.493C23.0175 224.734 22.0965 224.196 21.1167 223.888L21.1461 208.985C22.1161 208.678 23.0469 208.13 23.821 207.371C26.4666 204.786 26.4666 200.568 23.821 197.964C21.1852 195.379 16.8838 195.379 14.2284 197.973C11.5828 200.558 11.5828 204.776 14.2284 207.38C15.0025 208.139 15.9235 208.678 16.9034 208.985L16.874 223.879C15.9039 224.186 14.9829 224.734 14.199 225.493C11.5535 228.087 11.5535 232.306 14.199 234.9C16.8348 237.485 21.1363 237.485 23.7916 234.9ZM17.2267 204.44C16.2469 203.479 16.2469 201.894 17.2267 200.914C18.2163 199.943 19.8233 199.943 20.8227 200.914C21.8025 201.875 21.8025 203.46 20.8227 204.44C19.8331 205.411 18.2261 205.42 17.2267 204.44ZM17.1973 231.96C16.2175 230.999 16.2175 229.413 17.1973 228.433C18.187 227.472 19.7939 227.463 20.7933 228.433C21.7732 229.394 21.7732 230.98 20.7933 231.96C19.8037 232.93 18.1967 232.93 17.2071 231.96H17.1973Z" fill="#4AA5DC"/>
<path d="M112.381 124.466C115.016 121.881 115.016 117.663 112.381 115.059C111.597 114.29 110.656 113.733 109.657 113.425V107.756H115.065C115.359 108.842 115.957 109.861 116.819 110.716C119.465 113.31 123.757 113.31 126.412 110.725C129.048 108.141 129.048 103.922 126.412 101.328C123.766 98.7432 119.465 98.7335 116.819 101.328C116.133 102.001 115.634 102.769 115.301 103.605H105.414V113.464C104.454 113.771 103.552 114.309 102.798 115.059C100.162 117.644 100.162 121.862 102.808 124.466C105.443 127.06 109.745 127.06 112.39 124.466H112.381ZM119.808 104.278C120.788 103.317 122.395 103.317 123.394 104.287C124.384 105.258 124.393 106.834 123.404 107.804C122.414 108.765 120.807 108.765 119.808 107.804C118.818 106.843 118.818 105.258 119.808 104.278ZM105.796 121.516C104.807 120.546 104.797 118.97 105.796 117.99C106.776 117.029 108.383 117.029 109.382 117.99C110.372 118.95 110.382 120.536 109.382 121.506C108.403 122.467 106.786 122.467 105.786 121.506L105.796 121.516Z" fill="#4AA5DC"/>
</g>
<rect x="10.002" y="91.9072" width="70" height="27" rx="9" fill="#D9D9D9"/>
<path d="M12.6592 114.907V112.387L19.1392 106.267C19.6512 105.803 20.0272 105.387 20.2672 105.019C20.5072 104.651 20.6672 104.315 20.7472 104.011C20.8432 103.707 20.8912 103.427 20.8912 103.171C20.8912 102.499 20.6592 101.987 20.1952 101.635C19.7472 101.267 19.0832 101.083 18.2032 101.083C17.4992 101.083 16.8432 101.219 16.2352 101.491C15.6432 101.763 15.1392 102.187 14.7232 102.763L11.8912 100.939C12.5312 99.9792 13.4272 99.2192 14.5792 98.6592C15.7312 98.0992 17.0592 97.8192 18.5632 97.8192C19.8112 97.8192 20.8992 98.0272 21.8272 98.4432C22.7712 98.8432 23.4992 99.4112 24.0112 100.147C24.5392 100.883 24.8032 101.763 24.8032 102.787C24.8032 103.331 24.7312 103.875 24.5872 104.419C24.4592 104.947 24.1872 105.507 23.7712 106.099C23.3712 106.691 22.7792 107.355 21.9952 108.091L16.6192 113.155L15.8752 111.739H25.3552V114.907H12.6592ZM34.1594 115.195C32.7834 115.195 31.5514 114.859 30.4634 114.187C29.3754 113.499 28.5194 112.507 27.8954 111.211C27.2714 109.915 26.9594 108.347 26.9594 106.507C26.9594 104.667 27.2714 103.099 27.8954 101.803C28.5194 100.507 29.3754 99.5232 30.4634 98.8512C31.5514 98.1632 32.7834 97.8192 34.1594 97.8192C35.5514 97.8192 36.7834 98.1632 37.8554 98.8512C38.9434 99.5232 39.7994 100.507 40.4234 101.803C41.0474 103.099 41.3594 104.667 41.3594 106.507C41.3594 108.347 41.0474 109.915 40.4234 111.211C39.7994 112.507 38.9434 113.499 37.8554 114.187C36.7834 114.859 35.5514 115.195 34.1594 115.195ZM34.1594 111.907C34.8154 111.907 35.3834 111.723 35.8634 111.355C36.3594 110.987 36.7434 110.403 37.0154 109.603C37.3034 108.803 37.4474 107.771 37.4474 106.507C37.4474 105.243 37.3034 104.211 37.0154 103.411C36.7434 102.611 36.3594 102.027 35.8634 101.659C35.3834 101.291 34.8154 101.107 34.1594 101.107C33.5194 101.107 32.9514 101.291 32.4554 101.659C31.9754 102.027 31.5914 102.611 31.3034 103.411C31.0314 104.211 30.8954 105.243 30.8954 106.507C30.8954 107.771 31.0314 108.803 31.3034 109.603C31.5914 110.403 31.9754 110.987 32.4554 111.355C32.9514 111.723 33.5194 111.907 34.1594 111.907ZM45.7467 114.907V99.5472L47.4268 101.227H42.3868V98.1072H49.6348V114.907H45.7467ZM60.0652 115.195C58.5292 115.195 57.1932 114.875 56.0572 114.235C54.9372 113.595 54.0732 112.659 53.4652 111.427C52.8572 110.195 52.5532 108.675 52.5532 106.867C52.5532 104.931 52.9132 103.291 53.6332 101.947C54.3692 100.603 55.3772 99.5792 56.6572 98.8752C57.9532 98.1712 59.4412 97.8192 61.1212 97.8192C62.0172 97.8192 62.8732 97.9152 63.6892 98.1072C64.5052 98.2992 65.2092 98.5872 65.8012 98.9712L64.3612 101.827C63.8972 101.507 63.4012 101.291 62.8732 101.179C62.3452 101.051 61.7932 100.987 61.2172 100.987C59.7612 100.987 58.6092 101.427 57.7612 102.307C56.9132 103.187 56.4892 104.491 56.4892 106.219C56.4892 106.507 56.4892 106.827 56.4892 107.179C56.5052 107.531 56.5532 107.883 56.6332 108.235L55.5532 107.227C55.8572 106.603 56.2492 106.083 56.7292 105.667C57.2092 105.235 57.7772 104.915 58.4332 104.707C59.1052 104.483 59.8412 104.371 60.6412 104.371C61.7292 104.371 62.7052 104.587 63.5692 105.019C64.4332 105.451 65.1212 106.059 65.6332 106.843C66.1612 107.627 66.4252 108.547 66.4252 109.603C66.4252 110.739 66.1372 111.731 65.5612 112.579C65.0012 113.411 64.2412 114.059 63.2812 114.523C62.3372 114.971 61.2652 115.195 60.0652 115.195ZM59.8492 112.291C60.3932 112.291 60.8732 112.195 61.2892 112.003C61.7212 111.795 62.0572 111.499 62.2972 111.115C62.5372 110.731 62.6572 110.291 62.6572 109.795C62.6572 109.027 62.3932 108.419 61.8652 107.971C61.3532 107.507 60.6652 107.275 59.8012 107.275C59.2252 107.275 58.7212 107.387 58.2892 107.611C57.8572 107.819 57.5132 108.115 57.2572 108.499C57.0172 108.867 56.8972 109.299 56.8972 109.795C56.8972 110.275 57.0172 110.707 57.2572 111.091C57.4972 111.459 57.8332 111.755 58.2652 111.979C58.6972 112.187 59.2252 112.291 59.8492 112.291ZM69.2384 114.907L66.9104 108.451H68.6744L70.6064 114.007H69.7664L71.7824 108.451H73.3664L75.3224 114.007H74.4824L76.4744 108.451H78.1304L75.7904 114.907H73.9784L72.2624 110.143H72.8144L71.0384 114.907H69.2384Z" fill="#171B48"/>
<defs>
<filter id="filter0_d_1575_4143" x="0.00195312" y="0.907227" width="173" height="253.807" filterUnits="userSpaceOnUse" color-interpolation-filters="sRGB">
<feFlood flood-opacity="0" result="BackgroundImageFix"/>
<feColorMatrix in="SourceAlpha" type="matrix" values="0 0 0 0 0 0 0 0 0 0 0 0 0 0 0 0 0 0 127 0" result="hardAlpha"/>
<feOffset dy="1"/>
<feColorMatrix type="matrix" values="0 0 0 0 0.0588235 0 0 0 0 0.0588235 0 0 0 0 0.337255 0 0 0 1 0"/>
<feBlend mode="normal" in2="BackgroundImageFix" result="effect1_dropShadow_1575_4143"/>
<feBlend mode="normal" in="SourceGraphic" in2="effect1_dropShadow_1575_4143" result="shape"/>
</filter>
</defs>
</svg>
