<svg width="177" height="181" viewBox="0 0 177 181" fill="none" xmlns="http://www.w3.org/2000/svg">
<path d="M172.611 102.267L172.294 101.537L162.922 92.1076L162.093 91.7683L101.453 91.6963L100.634 92.0459L91.3649 101.383L90.9863 102.298V118.874L91.3853 119.502C96.3986 121.425 96.3986 129.487 91.3853 131.409L90.9863 132.119L91.0068 163.215L91.4365 164.274L100.563 173.467L101.688 173.94L162.206 173.961L163.014 173.621L172.345 164.223L172.652 163.493L172.58 102.267H172.611ZM123.839 165.148C115.695 165.148 115.705 152.397 123.839 152.397C131.973 152.397 131.973 165.148 123.839 165.148ZM152.496 165.148C144.352 165.148 144.363 152.397 152.496 152.397C160.63 152.397 160.63 165.148 152.496 165.148Z" fill="#479ADD"/>
<path d="M172.07 16.1156L171.589 14.9742L162.473 5.77084L161.429 5.33895L130.592 5.31839L129.804 5.71943C129.006 7.88915 127.114 9.60642 124.147 9.60642C121.18 9.60642 119.389 7.99198 118.55 5.90452L117.466 5.30811H101.014L100.103 5.68858L90.844 15.0359L90.4961 15.8585L90.5677 76.9913L90.9053 77.8242L100.257 87.2743L100.983 87.5931L161.705 87.6651L162.432 87.3566L171.752 77.9373L172.08 77.1147L172.059 16.0847L172.07 16.1156ZM109.434 60.0448C101.29 60.0448 101.3 47.2938 109.434 47.2938C117.568 47.2938 117.568 60.0448 109.434 60.0448ZM123.522 74.5645C115.378 74.5645 115.389 61.8135 123.522 61.8135C131.656 61.8135 131.656 74.5645 123.522 74.5645Z" fill="#479ADD"/>
<path d="M86.6582 132.119L81.9109 125.24L86.648 118.875V102.576L86.208 101.887L76.9283 92.519L76.0177 92.1283L59.3818 92.1077L53.0077 96.3546L46.6235 92.0563L15.5922 92.0049L14.5486 92.4368L5.45306 101.609L4.98242 102.751L5.1052 163.781L5.44283 164.603L14.7942 174.043L15.5206 174.352L76.2428 174.424L76.959 174.115L86.2899 164.686L86.6787 163.863L86.6582 132.119ZM51.9437 165.045C43.7996 165.045 43.8099 152.294 51.9437 152.294C60.0775 152.294 60.0775 165.045 51.9437 165.045ZM66.5129 150.711C58.3689 150.711 58.3791 137.96 66.5129 137.96C74.6468 137.96 74.6468 150.711 66.5129 150.711Z" fill="#479ADD"/>
<path d="M85.9839 15.8792L85.677 15.1389L76.3154 5.70929L75.4969 5.36995L14.9691 5.25684L13.8436 5.72986L4.74807 14.9023L4.31836 15.8484L4.36952 47.0369C4.36952 47.0369 9.00426 48.5588 9.1168 53.1759C9.23957 58.7699 4.41044 60.2815 4.41044 60.2815L4.4309 76.868L4.81969 77.7832L14.1096 87.1408L14.9077 87.6344L46.3073 87.6858C46.3073 87.6858 46.5835 87.3979 47.0132 86.9763C47.6578 84.5186 49.6119 82.4723 52.8757 82.4723C53.4998 82.4723 54.0728 82.5443 54.5945 82.6882C57.2854 83.1304 58.8814 85.1048 59.3828 87.3773C59.5976 87.5933 59.7306 87.7372 59.7306 87.7372L75.8959 87.7578L85.7486 77.8244L86.0555 77.1045L85.9941 15.8792H85.9839ZM36.8127 30.2961C28.6686 30.2961 28.6789 17.5451 36.8127 17.5451C44.9465 17.5451 44.9465 30.2961 36.8127 30.2961ZM65.9614 30.4606C57.8174 30.4606 57.8276 17.7096 65.9614 17.7096C74.0952 17.7096 74.0952 30.4606 65.9614 30.4606Z" fill="#479ADD"/>
<path d="M82.0986 171.04C79.9398 171.04 77.7708 171.246 75.612 171.246C73.4532 171.246 71.2842 170.762 69.1254 170.762C66.9666 170.762 64.7976 171.184 62.6388 171.184C60.48 171.184 58.311 170.721 56.1522 170.721C53.9934 170.721 51.8244 170.762 49.6656 170.762C47.5068 170.762 45.3378 171.235 43.179 171.235C41.0203 171.235 38.8512 170.742 36.6925 170.752C34.5337 170.762 32.3647 170.773 30.2059 170.773C28.0471 170.773 25.8781 170.865 23.7193 170.865C21.5605 170.865 19.3915 170.906 17.2327 170.917C15.0739 170.927 12.9049 170.947 10.7461 170.958" stroke="#32B4D9" stroke-width="3" stroke-miterlimit="10"/>
<path d="M168.051 171.246C165.811 171.246 163.56 170.928 161.299 170.928C159.038 170.928 156.807 171.349 154.546 171.339C152.285 171.329 150.044 170.773 147.794 170.773C145.543 170.773 143.292 171.349 141.041 171.349C138.79 171.349 136.539 171.257 134.288 171.257C132.038 171.257 129.787 171.113 127.536 171.113C125.285 171.113 123.024 171.308 120.783 171.298C118.543 171.288 116.271 171.154 114.031 171.154C111.79 171.154 109.519 170.804 107.278 170.804C105.037 170.804 102.766 171.01 100.525 171.01" stroke="#32B4D9" stroke-width="3" stroke-miterlimit="10"/>
<path d="M173.985 152.418C171.734 152.408 169.483 152.377 167.232 152.367C164.981 152.357 162.73 153.241 160.48 153.231C158.229 153.221 155.978 153.149 153.727 153.138C151.476 153.128 149.225 152.82 146.974 152.809C144.723 152.799 142.473 152.223 140.222 152.213C137.971 152.203 135.72 152.974 133.459 152.963C131.198 152.953 128.957 152.346 126.706 152.346C124.455 152.346 122.205 152.48 119.954 152.47C117.703 152.46 115.452 153.2 113.201 153.19C110.95 153.179 108.699 152.573 106.448 152.573C104.198 152.573 101.947 153.323 99.6856 153.313C97.4245 153.303 95.1839 153.282 92.9228 153.282C90.6617 153.282 88.4108 152.305 86.1599 152.305C83.9091 152.305 81.648 152.48 79.3971 152.48C77.1462 152.48 74.8851 153.344 72.6343 153.354C70.3834 153.365 68.1223 152.275 65.8714 152.275C63.6206 152.275 61.3595 152.172 59.1086 152.182C56.8577 152.192 54.5966 152.069 52.3458 152.069C50.0949 152.069 47.8338 152.799 45.5829 152.809C43.3321 152.82 41.071 152.161 38.8201 152.172C36.5692 152.182 34.3184 152.974 32.0675 152.984C29.8166 152.994 27.5555 152.645 25.3149 152.655C23.0743 152.665 20.8029 152.892 18.5521 152.902C16.3012 152.912 14.0503 152.922 11.7995 152.943C9.54861 152.963 7.28751 152.398 5.04688 152.418" stroke="#32B4D9" stroke-width="3" stroke-miterlimit="10"/>
<path d="M173.769 134.68C171.508 134.7 169.247 134.536 166.975 134.546C164.704 134.556 162.453 134.865 160.182 134.885C157.91 134.906 155.66 134.834 153.388 134.844C151.117 134.854 148.866 134.494 146.595 134.505C144.323 134.515 142.073 135.523 139.811 135.533C137.55 135.543 135.279 134.392 133.018 134.402C130.757 134.412 128.496 134.289 126.224 134.299C123.953 134.309 121.702 134.268 119.431 134.279C117.16 134.289 114.909 134.34 112.648 134.35C110.386 134.361 108.125 135.584 105.854 135.595C103.583 135.605 101.322 134.258 99.0605 134.258C96.7994 134.258 94.5281 135.173 92.267 135.173C90.0059 135.173 87.7346 134.371 85.4735 134.371C83.2124 134.371 80.9411 134.947 78.68 134.947C76.4189 134.947 74.1475 134.587 71.8864 134.587C69.6253 134.587 67.354 134.731 65.0929 134.721C62.8318 134.71 60.5605 134.279 58.2994 134.268C56.0383 134.258 53.767 134.505 51.5059 134.494C49.2448 134.484 46.9734 134.268 44.7123 134.258C42.4512 134.248 40.1697 135.399 37.9086 135.399C35.6475 135.399 33.3761 135.204 31.115 135.194C28.8539 135.183 26.5826 134.124 24.3318 134.114C22.0809 134.104 19.7993 134.135 17.5382 134.114C15.2771 134.093 13.0058 134.505 10.7447 134.494C8.4836 134.484 6.21227 134.824 3.95117 134.803" stroke="#32B4D9" stroke-width="3" stroke-miterlimit="10"/>
<path d="M173.554 115.78C171.324 115.78 169.073 115.409 166.832 115.42C164.592 115.43 162.361 116.17 160.111 116.181C157.86 116.191 155.639 116.674 153.389 116.684C151.138 116.695 148.907 116.376 146.667 116.376C144.426 116.376 142.185 115.728 139.945 115.738C137.704 115.749 135.464 116.201 133.223 116.211C130.982 116.222 128.742 116.026 126.501 116.026C124.26 116.026 122.02 115.656 119.779 115.656C117.538 115.656 115.298 116.129 113.057 116.129C110.817 116.129 108.576 116.53 106.335 116.53C104.095 116.53 101.854 117.127 99.6133 117.127C97.3727 117.127 95.1321 116.211 92.8812 116.211C90.6303 116.211 88.3897 115.954 86.149 115.954C83.9084 115.954 81.6678 116.499 79.4169 116.499C77.166 116.499 74.9356 116.602 72.6848 116.602C70.4339 116.602 68.1933 116.972 65.9526 116.962C63.712 116.952 61.4611 117.199 59.2205 117.199C56.9799 117.199 54.7392 115.522 52.4986 115.522C50.2579 115.522 48.0071 116.417 45.7664 116.407C43.5258 116.397 41.2749 115.636 39.0343 115.636C36.7937 115.636 34.5428 116.211 32.3022 116.201C30.0615 116.191 27.8209 115.78 25.5803 115.769C23.3396 115.759 21.0887 117.116 18.8481 117.116C16.6075 117.116 14.3566 116.972 12.1262 116.962C9.8958 116.952 7.64493 116.52 5.4043 116.51" stroke="#32B4D9" stroke-width="3" stroke-miterlimit="10"/>
<path d="M84.3689 98.1742C82.1078 98.1742 79.8467 98.0097 77.5959 98.0097C75.345 98.0097 73.0737 98.2051 70.8228 98.2051C68.5719 98.2051 66.3006 97.8966 64.0497 97.8966C61.7989 97.8966 59.5276 98.2154 57.2767 98.2154C55.0258 98.2154 52.7545 97.8349 50.5036 97.8349C48.2528 97.8349 45.9814 98.0611 43.7306 98.0611C41.4797 98.0611 39.1981 97.6909 36.9575 97.6909C34.7169 97.6909 32.4251 98.2256 30.1844 98.2256C27.9438 98.2256 25.652 97.7732 23.4114 97.7629C21.1707 97.7526 18.8789 97.876 16.6383 97.8657C14.3977 97.8555 12.1059 98.0303 9.86523 98.0303" stroke="#32B4D9" stroke-width="3" stroke-miterlimit="10"/>
<path d="M170.731 98.1335C168.572 98.1335 166.403 97.969 164.214 97.9793C162.024 97.9896 159.886 98.1953 157.697 98.1953C155.507 98.1953 153.359 97.8765 151.179 97.8868C149 97.897 146.841 98.2261 144.652 98.2261C142.462 98.2261 140.314 97.8251 138.124 97.8353C135.935 97.8456 133.786 98.0719 131.597 98.0821C129.407 98.0924 127.259 97.7017 125.069 97.7017C122.88 97.7017 120.731 98.2672 118.552 98.2672C116.373 98.2672 114.204 97.7942 112.024 97.7942C109.845 97.7942 107.676 97.9176 105.497 97.9176C103.318 97.9176 101.149 98.0924 98.9694 98.0924C96.7901 98.0924 94.6109 98.185 92.4316 98.185" stroke="#32B4D9" stroke-width="3" stroke-miterlimit="10"/>
<path d="M170.22 78.7086C168.02 78.7086 165.82 79.3461 163.62 79.3358C161.421 79.3255 159.221 79.5312 157.032 79.5209C154.842 79.5106 152.632 79.7883 150.443 79.7883C148.253 79.7883 146.043 79.017 143.854 79.017C141.664 79.017 139.454 78.832 137.265 78.832C135.075 78.832 132.865 79.161 130.666 79.1507C128.466 79.1404 126.266 79.3667 124.067 79.3564C121.867 79.3461 119.667 80.0248 117.478 80.0248C115.288 80.0248 113.078 79.0685 110.889 79.0582C108.699 79.0479 106.489 79.6649 104.3 79.6649C102.11 79.6649 99.9004 80.1585 97.711 80.1585C95.5215 80.1585 93.3115 79.3358 91.1221 79.3358C88.9326 79.3358 86.7226 78.7908 84.5332 78.7908C82.3437 78.7908 80.144 79.7163 77.9443 79.7163C75.7445 79.7163 73.5551 78.688 71.3553 78.688C69.1556 78.688 66.9662 79.9528 64.7664 79.9528C62.5667 79.9528 60.3773 79.2947 58.1775 79.2947C55.9778 79.2947 53.7884 79.0993 51.5886 79.0993C49.3889 79.0993 47.1995 79.7163 44.9997 79.7163C42.8 79.7163 40.6106 79.3255 38.4108 79.3255C36.2111 79.3255 34.0216 79.233 31.8219 79.233C29.6222 79.233 27.4327 79.2433 25.233 79.2433C23.0333 79.2433 20.8438 79.7574 18.6544 79.7574C16.4649 79.7574 14.2652 78.7497 12.0655 78.76C9.86575 78.7703 7.67627 79.7574 5.47656 79.7574" stroke="#32B4D9" stroke-width="3" stroke-miterlimit="10"/>
<path d="M172.345 61.6603C170.105 61.65 167.864 60.7451 165.624 60.7349C163.383 60.7246 161.142 60.8788 158.902 60.8685C156.661 60.8583 154.42 61.3724 152.18 61.3621C149.939 61.3518 147.698 61.5472 145.458 61.5472C143.217 61.5472 140.977 60.4469 138.736 60.4469C136.495 60.4469 134.255 61.1256 132.014 61.1153C129.773 61.105 127.533 60.8891 125.292 60.8788C123.051 60.8685 120.811 61.8043 118.57 61.8043C116.33 61.8043 114.089 61.0022 111.858 61.0022C109.628 61.0022 107.377 61.5164 105.137 61.5164C102.896 61.5164 100.655 60.848 98.4249 60.848C96.1945 60.848 93.9436 60.6217 91.7132 60.6217C89.4828 60.6217 87.2319 60.4572 85.0015 60.4572C82.7711 60.4572 80.5203 61.0948 78.2899 61.0948C76.0595 61.0948 73.8086 61.0433 71.5679 61.0433C69.3273 61.0433 67.0867 61.0536 64.846 61.0536C62.6054 61.0536 60.3648 60.6012 58.1241 60.6012C55.8835 60.6012 53.6429 60.303 51.4022 60.3132C49.1616 60.3235 46.921 60.3133 44.6803 60.3235C42.4397 60.3338 40.199 60.3544 37.9584 60.3544C35.7178 60.3544 33.4771 61.1873 31.2365 61.1873C28.9959 61.1873 26.7552 61.2182 24.5146 61.2284C22.274 61.2387 20.0333 60.4881 17.7927 60.4983C15.552 60.5086 13.3114 61.8351 11.0605 61.8454" stroke="#32B4D9" stroke-width="3" stroke-miterlimit="10"/>
<path d="M172.725 43.5711C170.525 43.5506 168.346 42.0595 166.157 42.0492C163.967 42.039 161.757 42.841 159.568 42.8308C157.378 42.8205 155.179 42.2446 152.989 42.2343C150.8 42.2241 148.6 41.895 146.41 41.8744C144.221 41.8539 142.011 43.2009 139.821 43.1907C137.632 43.1804 135.432 42.1624 133.243 42.1521C131.053 42.1418 128.854 42.0184 126.664 42.0081C124.475 41.9978 122.275 42.4811 120.085 42.4811C117.896 42.4811 115.696 41.8333 113.507 41.823C111.317 41.8127 109.118 42.2858 106.928 42.2858C104.739 42.2858 102.539 42.8308 100.349 42.8308C98.16 42.8308 95.9603 41.7305 93.7708 41.7305C91.5813 41.7305 89.3816 43.0261 87.1921 43.0261C85.0026 43.0261 82.8029 41.9258 80.6134 41.9258C78.424 41.9258 76.2345 43.1187 74.0348 43.1187C71.835 43.1187 69.6456 42.3783 67.4561 42.3783C65.2666 42.3783 63.0771 43.3243 60.8774 43.3243C58.6777 43.3243 56.4882 43.2626 54.2987 43.2729C52.1093 43.2832 49.9096 42.1315 47.7201 42.1418C45.5306 42.1521 43.3411 43.0261 41.1516 43.0261C38.9622 43.0261 36.7624 42.7588 34.573 42.7588C32.3835 42.7588 30.194 43.3038 27.9943 43.3141C25.7946 43.3243 23.6051 43.2009 21.4156 43.2112C19.2261 43.2215 17.0264 43.0261 14.8369 43.0364C12.6475 43.0467 10.4375 42.3989 8.24805 42.4092" stroke="#32B4D9" stroke-width="3" stroke-miterlimit="10"/>
<path d="M31.9233 24.6922C29.8668 24.6922 27.8104 24.7437 25.7539 24.7334C23.6974 24.7231 21.6409 24.7745 19.5845 24.7642C17.528 24.7539 15.4715 24.6511 13.415 24.6408C11.3586 24.6305 9.3021 24.5791 7.25586 24.5688" stroke="#32B4D9" stroke-width="3" stroke-miterlimit="10"/>
<path d="M174.127 24.4042C171.855 24.4248 169.584 24.6407 167.313 24.6613C165.041 24.6819 162.77 24.7024 160.499 24.723C158.227 24.7436 155.956 24.3322 153.685 24.3528C151.413 24.3734 149.142 24.4762 146.871 24.4865C144.599 24.4968 142.328 24.9903 140.057 25.0006C137.785 25.0109 135.504 24.3631 133.233 24.3734C130.961 24.3836 128.68 24.5893 126.408 24.5996C124.137 24.6099 121.855 24.5996 119.584 24.5996C117.313 24.5996 115.031 24.5893 112.76 24.5893C110.489 24.5893 108.207 24.9389 105.936 24.9389C103.664 24.9389 101.383 24.8875 99.1114 24.8875C96.8401 24.8875 94.5688 24.7333 92.2974 24.7333C90.0261 24.7333 87.7445 24.9286 85.4834 24.9286C83.2223 24.9286 80.9306 24.6099 78.6695 24.5996C76.4084 24.5893 74.1166 25.0212 71.8555 25.0109" stroke="#32B4D9" stroke-width="3" stroke-miterlimit="10"/>
<path d="M9.90505 97.269C9.90505 99.3462 10.2222 101.537 10.2222 103.809C10.2222 105.917 10.0483 108.107 10.0483 110.359C10.0483 112.488 10.0585 114.678 10.0585 116.91C10.0585 119.141 10.2222 121.239 10.2222 123.46C10.2222 125.681 9.96643 127.799 9.96643 130.01C9.96643 132.221 9.80273 134.36 9.80273 136.561C9.80273 138.761 10.0381 140.921 10.0278 143.111C10.0176 145.301 10.3348 147.481 10.3348 149.661C10.3348 151.841 10.3041 154.042 10.2938 156.212C10.2836 158.381 9.85389 160.602 9.84366 162.762C9.83343 164.921 9.80273 167.163 9.80273 169.312" stroke="#32B4D9" stroke-width="3" stroke-miterlimit="10"/>
<path d="M10.0902 10.3882C10.0902 12.5373 10.2744 14.7893 10.2744 17.1544C10.2744 19.3344 9.90609 21.5967 9.90609 23.9207C9.90609 26.2447 9.83447 28.3835 9.83447 30.6869C9.83447 32.9903 10.4074 35.1703 10.4074 37.4532C10.4074 39.736 9.79354 41.9572 9.80378 44.2194C9.81401 46.4817 10.4586 48.7337 10.4688 50.9857C10.479 53.2377 9.77308 55.5205 9.78331 57.7622C9.79354 60.0039 10.2233 62.3073 10.2233 64.5285C10.2233 66.7496 10.2233 69.0941 10.2233 71.2947C10.2233 73.6187 9.93678 75.881 9.93678 78.061C9.93678 80.4158 10.1312 82.6781 10.1312 84.8169" stroke="#32B4D9" stroke-width="3" stroke-miterlimit="10"/>
<path d="M28.3225 7.72461C28.3328 9.94575 27.7496 12.1772 27.7701 14.3983C27.7905 16.6195 29.1513 18.8406 29.1615 21.0617C29.1717 23.2829 28.9569 25.5143 28.9671 27.7354C28.9773 29.9566 28.4862 32.188 28.4965 34.4091C28.5067 36.6303 28.9671 38.8514 28.9773 41.0828C28.9876 43.3143 28.742 45.5354 28.7523 47.7565C28.7625 49.9777 28.2407 52.2091 28.2509 54.4302C28.2612 56.6514 27.9951 58.8828 27.9951 61.1039C27.9951 63.3251 29.0899 65.5565 29.0899 67.7776C29.0899 69.9988 28.1793 72.2302 28.1793 74.4616C28.1793 76.6931 28.2305 78.9142 28.2305 81.1353C28.2305 83.3565 28.8955 85.5879 28.9057 87.8193C28.9057 90.0507 28.4146 92.2719 28.4146 94.5033C28.4146 96.7347 28.5476 98.9559 28.5374 101.187C28.5272 103.419 29.0183 105.64 29.008 107.871C28.9978 110.103 28.1793 112.324 28.1691 114.555C28.1588 116.787 27.9645 119.008 27.9645 121.239C27.9645 123.471 28.4249 125.692 28.4146 127.923C28.4044 130.155 28.476 132.376 28.476 134.607C28.476 136.839 28.7829 139.06 28.7829 141.291C28.7829 143.523 29.2229 145.744 29.2127 147.975C29.2024 150.207 28.7932 152.428 28.7932 154.659C28.7932 156.891 28.9364 159.112 28.9262 161.333C28.916 163.554 28.3021 165.785 28.2918 168.007C28.2816 170.228 28.3839 172.449 28.3737 174.67" stroke="#32B4D9" stroke-width="3" stroke-miterlimit="10"/>
<path d="M45.5918 7.2002C45.5713 9.43162 46.8912 11.6733 46.8809 13.9047C46.8707 16.1362 45.5713 18.3573 45.5611 20.5887C45.5509 22.8202 45.5304 25.0516 45.5202 27.283C45.51 29.5144 46.9014 31.7458 46.8912 33.9773C46.8809 36.2087 46.4103 38.4298 46.4001 40.6613C46.3898 42.8927 46.2466 45.1241 46.2364 47.3452C46.2261 49.5664 45.4486 51.7978 45.4383 54.0292C45.4281 56.2606 46.7684 58.4921 46.7582 60.7235C46.7479 62.9549 45.377 65.1761 45.377 67.4075C45.377 69.6389 46.6252 71.8703 46.6252 74.1018C46.6252 76.3332 46.6866 78.5646 46.6866 80.7857C46.6866 83.0069 45.4588 85.2383 45.4588 87.4697C45.4588 89.7011 46.1955 91.9326 46.1955 94.1537C46.1955 96.3748 46.8809 98.6063 46.8809 100.838C46.8809 103.069 45.51 105.301 45.5202 107.522C45.5304 109.743 46.4205 111.974 46.4205 114.206C46.4205 116.437 46.574 118.658 46.5842 120.89C46.5945 123.121 46.4819 125.342 46.4922 127.574C46.5024 129.805 46.4922 132.026 46.4922 134.258C46.4922 136.489 46.0829 138.72 46.0931 140.942C46.1034 143.163 46.6252 145.394 46.6354 147.626C46.6456 149.857 46.707 152.078 46.7172 154.31C46.7275 156.541 45.602 158.772 45.6123 161.004C45.6225 163.235 46.9014 165.456 46.9116 167.688C46.9219 169.919 46.6354 172.151 46.6559 174.382" stroke="#32B4D9" stroke-width="3" stroke-miterlimit="10"/>
<path d="M64.5195 151.637C64.5195 154.177 64.54 156.717 64.5502 159.256C64.5605 161.796 64.6832 164.336 64.6935 166.876C64.7037 169.416 64.6628 171.956 64.673 174.496" stroke="#32B4D9" stroke-width="3" stroke-miterlimit="10"/>
<path d="M64.4667 29.874C64.4667 32.0849 64.6816 34.2957 64.6714 36.5066C64.6611 38.7175 64.5895 40.918 64.5793 43.1289C64.569 45.3397 65.0192 47.5506 65.009 49.7615C64.9988 51.9723 64.1393 54.1832 64.1291 56.394C64.1189 58.6049 64.7737 60.8157 64.7634 63.0266C64.7532 65.2374 64.9374 67.4483 64.9374 69.6592C64.9374 71.87 64.1086 74.0809 64.1086 76.2917C64.1086 78.5026 64.876 80.7134 64.876 82.9243C64.876 85.1352 64.8248 87.346 64.8248 89.5569C64.8248 91.7677 64.4463 93.9786 64.4463 96.1894C64.4463 98.4003 63.9961 100.611 63.9961 102.822C63.9961 105.033 64.4053 107.244 64.4053 109.455C64.4053 111.665 64.2007 113.876 64.2007 116.087C64.2007 118.298 64.9169 120.519 64.9169 122.72C64.9169 124.92 64.7327 127.141 64.7327 129.352C64.7327 131.563 64.9578 133.774 64.9681 135.985" stroke="#32B4D9" stroke-width="3" stroke-miterlimit="10"/>
<path d="M64.5918 7.94043C64.5918 9.76053 64.6626 11.5806 64.6626 13.411C64.6626 15.2414 64.6221 17.0512 64.612 18.8816" stroke="#32B4D9" stroke-width="3" stroke-miterlimit="10"/>
<path d="M83.7124 98.0513C83.6715 100.262 83.4157 102.473 83.3748 104.694C83.3338 106.915 83.2111 109.126 83.1701 111.337C83.1292 113.548 83.5692 115.779 83.5385 117.99C83.5078 120.201 83.6101 122.422 83.5794 124.633C83.5487 126.844 83.0883 129.055 83.0576 131.276C83.0269 133.497 82.9041 135.708 82.8734 137.919C82.8427 140.13 82.8837 142.351 82.8734 144.562C82.8632 146.772 82.986 148.994 82.9655 151.204C82.9451 153.415 82.8223 155.636 82.8121 157.847C82.8018 160.058 82.6688 162.279 82.6586 164.49C82.6483 166.701 82.6074 168.922 82.6074 171.133" stroke="#32B4D9" stroke-width="3" stroke-miterlimit="10"/>
<path d="M84.9314 9.64746C84.9314 11.8172 84.7063 13.9972 84.6961 16.1669C84.6859 18.3366 84.5938 20.5166 84.5836 22.6864C84.5733 24.8561 85.0235 27.0361 85.0031 29.2161C84.9826 31.3961 85.1054 33.5658 85.0747 35.7356C85.044 37.9053 84.604 40.075 84.5733 42.255C84.5426 44.435 84.4199 46.6048 84.3789 48.7745C84.338 50.9442 84.3789 53.1242 84.338 55.2939C84.2971 57.4637 84.4096 59.6437 84.3789 61.8237C84.3483 64.0037 84.1948 66.1734 84.1539 68.3431C84.1129 70.5129 83.9492 72.6929 83.9083 74.8729C83.8674 77.0529 83.7753 79.2226 83.7344 81.4026" stroke="#32B4D9" stroke-width="3" stroke-miterlimit="10"/>
<path d="M101.65 5.08203C101.65 7.30317 100.882 9.52431 100.893 11.766C100.903 14.0077 101.967 16.2083 101.967 18.45C101.967 20.6917 101.036 22.9026 101.036 25.134C101.036 27.3654 101.527 29.5865 101.527 31.818C101.527 34.0494 101.639 36.2705 101.65 38.502C101.66 40.7334 100.668 42.9545 100.668 45.1859C100.668 47.4174 100.852 49.6385 100.852 51.8699C100.852 54.1014 100.862 56.3225 100.872 58.5539C100.882 60.7853 100.647 63.0065 100.647 65.2379C100.647 67.4693 100.586 69.6905 100.596 71.9219C100.606 74.1533 101.067 76.3744 101.067 78.6059C101.067 80.8373 101.466 83.0687 101.466 85.2899C101.466 87.511 100.801 89.7527 100.801 91.9841C100.801 94.2155 100.79 96.447 100.79 98.6784C100.79 100.91 101.425 103.141 101.425 105.373C101.425 107.604 101.732 109.836 101.732 112.067C101.732 114.298 101.179 116.53 101.179 118.761C101.179 120.993 101.128 123.224 101.128 125.445C101.128 127.666 100.627 129.908 100.627 132.129C100.627 134.35 100.852 136.592 100.852 138.823C100.852 141.055 101.343 143.297 101.343 145.518C101.343 147.739 100.555 149.981 100.555 152.202C100.555 154.423 100.463 156.665 100.463 158.886C100.463 161.107 100.565 163.349 100.565 165.57C100.565 167.791 101.537 170.032 101.527 172.254" stroke="#32B4D9" stroke-width="3" stroke-miterlimit="10"/>
<path d="M119.247 75.7168C119.247 78.0099 119.605 80.3133 119.615 82.6167C119.625 84.9201 119.543 87.2133 119.554 89.5269C119.564 91.8406 119.983 94.1235 119.983 96.4372C119.983 98.7508 119.697 101.034 119.697 103.337C119.697 105.64 119.185 107.934 119.185 110.247C119.185 112.561 119.155 114.854 119.155 117.158C119.155 119.461 119.155 121.754 119.144 124.057C119.134 126.361 119.196 128.664 119.185 130.968C119.175 133.271 119.277 135.574 119.277 137.878C119.277 140.181 119.707 142.485 119.697 144.788C119.687 147.091 119.226 149.395 119.216 151.698C119.206 154.002 119.574 156.305 119.564 158.608C119.554 160.912 119.124 163.215 119.114 165.519C119.103 167.822 119.083 170.126 119.062 172.419" stroke="#32B4D9" stroke-width="3" stroke-miterlimit="10"/>
<path d="M119.442 8.90723C119.442 11.0975 119.309 13.2878 119.319 15.4781C119.329 17.6684 119.227 19.8587 119.237 22.049C119.247 24.2393 119.534 26.4295 119.534 28.6198C119.534 30.8101 119.288 33.0004 119.298 35.1907C119.309 37.381 119.36 39.5713 119.36 41.7616C119.36 43.9519 119.36 46.1422 119.37 48.3325C119.38 50.5227 119.298 52.713 119.309 54.9033C119.319 57.0936 119.37 59.2839 119.37 61.4742" stroke="#32B4D9" stroke-width="3" stroke-miterlimit="10"/>
<path d="M137.591 6.29492C137.612 8.53663 137.274 10.7783 137.284 13.02C137.294 15.2617 137.417 17.5035 137.438 19.7452C137.458 21.9869 138.041 24.2183 138.052 26.4703C138.062 28.7223 137.039 30.9537 137.049 33.1954C137.059 35.4371 137.346 37.6788 137.356 39.9205C137.366 42.1622 138.604 44.4039 138.614 46.6456C138.625 48.8873 138.011 51.129 138.021 53.381C138.031 55.633 138.195 57.8644 138.205 60.1061C138.215 62.3479 138.082 64.5896 138.092 66.8313C138.103 69.073 138.553 71.3147 138.553 73.5564C138.553 75.7981 137.826 78.0398 137.826 80.2815C137.826 82.5232 137.427 84.7649 137.427 87.0066C137.427 89.2483 137.489 91.49 137.489 93.742C137.489 95.994 137.704 98.2254 137.704 100.477C137.704 102.729 138.655 104.971 138.655 107.213C138.655 109.455 137.458 111.696 137.458 113.948C137.458 116.2 138.123 118.442 138.123 120.684C138.123 122.925 138.246 125.177 138.236 127.419C138.225 129.661 137.407 131.902 137.397 134.154C137.387 136.406 137.192 138.648 137.182 140.89C137.172 143.132 138.123 145.384 138.113 147.625C138.103 149.867 137.806 152.109 137.796 154.361C137.786 156.613 137.509 158.854 137.499 161.096C137.489 163.338 138 165.59 137.98 167.831C137.959 170.073 137.54 172.315 137.53 174.557" stroke="#32B4D9" stroke-width="3" stroke-miterlimit="10"/>
<path d="M156.428 7.25146C156.418 9.46232 155.405 11.6732 155.395 13.884C155.385 16.0949 155.323 18.3057 155.313 20.5166C155.303 22.7275 154.975 24.9383 154.965 27.1492C154.955 29.36 154.883 31.5709 154.873 33.7817C154.863 35.9926 154.842 38.2035 154.832 40.4143C154.822 42.6252 155.753 44.8463 155.743 47.0572C155.732 49.268 155.528 51.4789 155.518 53.6897C155.507 55.9006 156.387 58.1115 156.377 60.3223C156.367 62.5332 155.825 64.744 155.825 66.9549C155.825 69.1657 155.395 71.3766 155.385 73.5874C155.374 75.7983 155.385 78.0092 155.385 80.22C155.385 82.4309 155.466 84.6417 155.466 86.8526C155.466 89.0634 156.111 91.2743 156.111 93.4852C156.111 95.696 155.282 97.9069 155.282 100.118C155.282 102.329 155.057 104.539 155.057 106.75C155.057 108.961 154.934 111.172 154.934 113.383C154.934 115.594 155.896 117.794 155.906 120.005C155.917 122.216 155.067 124.427 155.067 126.638C155.067 128.849 155.773 131.049 155.784 133.26C155.794 135.471 156.029 137.671 156.039 139.882C156.05 142.093 155.814 144.304 155.825 146.505C155.835 148.705 156.367 150.916 156.377 153.127C156.387 155.338 156.244 157.549 156.254 159.759C156.264 161.97 155.385 164.181 155.395 166.392C155.405 168.603 155.129 170.814 155.139 173.035" stroke="#32B4D9" stroke-width="3" stroke-miterlimit="10"/>
<path d="M173.85 17.0928C173.85 19.2316 174.147 21.3808 174.137 23.5197C174.127 25.6586 173.85 27.8077 173.84 29.9466C173.83 32.0855 174.035 34.2346 174.024 36.3735C174.014 38.5124 174.065 40.6615 174.055 42.8004C174.045 44.9393 173.932 47.0884 173.932 49.2273C173.932 51.3662 174.076 53.5154 174.076 55.6542C174.076 57.7931 173.994 59.9423 173.983 62.0811C173.973 64.22 174.168 66.3692 174.168 68.508C174.168 70.6469 174.127 72.7961 174.116 74.935" stroke="#32B4D9" stroke-width="3" stroke-miterlimit="10"/>
<g filter="url(#filter0_d_1575_3942)">
<path d="M176.928 101.352L175.915 99.0281L166.452 89.506L175.435 80.4364L176.427 78.0096L176.407 15.2315L175.261 12.4962L164.927 2.06921L162.288 0.979208L130.591 0.958642H125.435C125.578 1.05119 125.721 1.1643 125.854 1.29798C126.867 2.316 126.867 3.98186 125.854 4.9896C124.841 5.99734 123.204 5.99734 122.191 4.9896C121.178 3.98186 121.168 2.316 122.191 1.30827C122.314 1.18487 122.457 1.07176 122.601 0.968925H100.143L97.6467 2.02808L88.2238 11.5502L78.7701 2.02808L76.3658 1.03062L14.1088 0.907227L11.3976 2.05893L1.07428 12.4448L0 15.1081L0.0613873 49.8957V52.2299C0.153468 52.086 0.266012 51.9523 0.388786 51.8289C1.39145 50.8212 3.03867 50.8212 4.05156 51.8289C5.06445 52.8469 5.06445 54.5025 4.05156 55.5102C3.0489 56.518 1.40168 56.518 0.399017 55.5102C0.276243 55.3868 0.163699 55.2532 0.0716185 55.1092V60.2919L0.112543 77.7525L1.15613 80.2718L10.8349 90.0099L1.80069 99.1207L0.654798 101.856L0.777572 164.634L1.77 167.061L12.3286 177.724L14.6409 178.712L77.1433 178.784L79.4454 177.776L89.0729 168.058L98.0969 177.148L100.808 178.31L163.065 178.331L165.469 177.334L176.028 166.701L177 164.367L176.928 101.352ZM90.8532 15.0567L100.112 5.70941L101.023 5.32894H117.475C117.802 6.33668 118.365 7.28272 119.153 8.07451C121.844 10.7892 126.243 10.7995 128.934 8.07451C129.722 7.28272 130.284 6.33668 130.612 5.32894L161.449 5.34951L162.502 5.78139L171.618 14.9847L172.099 16.1261L172.12 77.1561L171.782 77.9787L162.461 87.398H162.441L161.735 87.7065L101.013 87.6345L100.46 87.3877L100.286 87.3157L90.935 77.8656L90.5974 77.0327L90.5258 15.8999L90.8736 15.0773L90.8532 15.0567ZM88.3158 81.403L96.6747 89.8454L88.5409 98.0512L80.1616 89.6088L88.3056 81.403H88.3158ZM4.82913 77.7936L4.44035 76.8784L4.41988 60.2919C5.41231 59.9628 6.34335 59.4075 7.12092 58.6157C9.81173 55.901 9.81173 51.469 7.12092 48.744C6.32289 47.9419 5.38162 47.3661 4.37896 47.037L5.35092 15.9411L4.75751 14.8922L13.8428 5.72998L14.9683 5.25696L75.4961 5.37007L76.3146 5.70941L85.6762 15.139L85.9831 15.8794L86.0547 77.1047L85.7478 77.8245L75.8951 87.7476H59.7298C59.4434 86.5445 58.8295 85.3928 57.8984 84.457C55.2076 81.7423 50.8082 81.732 48.1174 84.457C47.1966 85.3825 46.5929 86.5136 46.3065 87.7065L14.9069 87.6551L14.9376 87.5111L14.1088 87.1615L4.8189 77.8039L4.82913 77.7936ZM54.8495 91.2336C53.8469 92.2413 52.1996 92.2413 51.1868 91.2336C50.1739 90.2258 50.1636 88.5497 51.1868 87.542C52.1894 86.5342 53.8264 86.5342 54.8393 87.542C55.8522 88.5497 55.8624 90.2155 54.8393 91.2233L54.8495 91.2336ZM86.6379 163.853L86.3003 164.685L76.9694 174.115L76.2532 174.423L15.531 174.352L14.8046 174.043L5.45324 164.603L5.11561 163.781L4.99283 102.751L5.46347 101.609L14.559 92.4367L15.6026 92.0048L46.6339 92.0562C46.9715 92.8789 47.4728 93.6398 48.1276 94.3082C50.8184 97.0332 55.2179 97.0332 57.9087 94.3082C58.5532 93.6501 59.0546 92.8994 59.382 92.0871L76.0179 92.1076L76.9285 92.4984L86.2082 101.866L86.6481 102.555V118.854C85.6455 119.183 84.7144 119.748 83.9266 120.54C81.2358 123.255 81.2358 127.687 83.9266 130.412C84.7144 131.204 85.6557 131.769 86.6481 132.098L86.6686 163.842H86.6277L86.6379 163.853ZM87.0062 127.327C86.0036 126.309 85.9933 124.654 87.0062 123.646C88.0191 122.628 89.6561 122.628 90.669 123.646C91.6819 124.654 91.6819 126.319 90.669 127.337C89.6561 128.355 88.0191 128.355 87.0062 127.337V127.327ZM172.375 164.223L163.045 173.621L162.236 173.961L101.719 173.94L100.593 173.467L91.467 164.274L91.0373 163.215L91.0169 132.119C92.0093 131.79 92.9506 131.224 93.7384 130.433C96.4292 127.718 96.4292 123.296 93.7384 120.571C92.9403 119.769 92.0093 119.203 91.0169 118.885V102.308L91.3954 101.393L100.665 92.0562L100.788 91.9945L101.483 91.6963L162.124 91.7683L162.727 92.0254L162.942 92.1179L172.314 101.547L172.631 102.278L172.703 163.503L172.396 164.233L172.375 164.223Z" fill="#E597CE"/>
</g>
<g filter="url(#filter1_d_1575_3942)">
<path d="M70.7277 19.0771C68.0267 16.3521 63.6375 16.3418 60.9467 19.0771C60.1589 19.8689 59.5962 20.8149 59.2688 21.8227L43.7685 21.8021C43.4411 20.7944 42.8784 19.8483 42.0906 19.0463C39.3895 16.3315 35.0003 16.3212 32.2993 19.0463C29.5982 21.7713 29.6085 26.1827 32.2993 28.9077C34.9901 31.6327 39.3895 31.6327 42.0803 28.9077C42.8681 28.1159 43.4309 27.1699 43.7583 26.1621L59.2585 26.1827C59.5859 27.1904 60.1487 28.1365 60.9365 28.9283C63.6375 31.6533 68.0267 31.6636 70.7277 28.9283C73.4185 26.2135 73.4185 21.7815 70.7277 19.0668V19.0771ZM39.0417 25.8228C38.039 26.8305 36.3918 26.8305 35.3789 25.8228C34.366 24.815 34.3558 23.1389 35.3789 22.1312C36.3815 21.1234 38.0185 21.1234 39.0314 22.1312C40.0443 23.1492 40.0546 24.8048 39.0314 25.8125L39.0417 25.8228ZM67.6686 25.8536C66.6659 26.8614 65.0289 26.8614 64.0161 25.8536C63.0032 24.8356 62.9929 23.18 64.0161 22.1723C65.0187 21.1543 66.6659 21.1646 67.6788 22.1723C68.6917 23.18 68.6917 24.8562 67.6788 25.8639L67.6686 25.8536Z" fill="#E597CE"/>
</g>
<g filter="url(#filter2_d_1575_3942)">
<path d="M71.22 139.327C68.519 136.602 64.1298 136.592 61.439 139.327C58.7482 142.063 58.7482 146.474 61.439 149.189C62.2473 150.001 63.1988 150.577 64.2219 150.896V156.85H58.697C58.3901 155.708 57.7967 154.629 56.9066 153.734C54.2055 151.009 49.8163 150.999 47.1255 153.734C44.4347 156.449 44.4347 160.881 47.1255 163.595C49.8266 166.32 54.2158 166.331 56.9066 163.595C57.6023 162.896 58.1139 162.084 58.4515 161.21H68.5395V150.875C69.5114 150.536 70.4322 149.991 71.2098 149.199C73.9006 146.484 73.9006 142.052 71.2098 139.338L71.22 139.327ZM53.8679 160.5C52.8652 161.508 51.218 161.508 50.2051 160.5C49.1922 159.482 49.1922 157.827 50.2051 156.809C51.218 155.801 52.855 155.801 53.8679 156.809C54.8706 157.827 54.8808 159.482 53.8679 160.5ZM68.1711 146.104C67.1685 147.112 65.5213 147.112 64.5084 146.104C63.5057 145.086 63.4955 143.43 64.5084 142.412C65.511 141.405 67.1582 141.405 68.1711 142.412C69.184 143.43 69.184 145.096 68.1711 146.104Z" fill="#E597CE"/>
</g>
<g filter="url(#filter3_d_1575_3942)">
<path d="M157.468 153.868C154.767 151.143 150.388 151.143 147.687 153.868C146.899 154.66 146.346 155.606 146.019 156.614L130.519 156.593C130.191 155.585 129.628 154.639 128.841 153.847C126.14 151.122 121.75 151.112 119.049 153.847C116.359 156.562 116.359 160.994 119.049 163.709C121.75 166.434 126.14 166.444 128.83 163.709C129.618 162.917 130.181 161.971 130.508 160.963L146.009 160.984C146.336 161.992 146.888 162.938 147.687 163.74C150.388 166.465 154.777 166.465 157.478 163.74C160.169 161.025 160.158 156.603 157.478 153.878L157.468 153.868ZM125.781 160.614C124.779 161.632 123.132 161.632 122.119 160.614C121.106 159.596 121.106 157.94 122.119 156.922C123.121 155.914 124.758 155.914 125.771 156.922C126.784 157.94 126.794 159.606 125.771 160.614H125.781ZM154.419 160.645C153.416 161.652 151.779 161.652 150.766 160.645C149.753 159.637 149.743 157.961 150.766 156.953C151.769 155.935 153.416 155.935 154.429 156.953C155.442 157.961 155.442 159.626 154.429 160.645H154.419Z" fill="#E597CE"/>
</g>
<g filter="url(#filter4_d_1575_3942)">
<path d="M128.547 63.2435C125.856 60.5288 121.457 60.5391 118.766 63.2435C117.958 64.0559 117.395 65.0225 117.068 66.0508H111.164V60.4876C112.29 60.1791 113.364 59.5724 114.254 58.6778C116.955 55.9528 116.965 51.5311 114.254 48.8164C111.563 46.1016 107.164 46.1119 104.473 48.8164C101.772 51.5414 101.762 55.9631 104.473 58.6881C105.169 59.3874 105.967 59.9118 106.847 60.2408V70.4108H117.098C117.426 71.398 117.978 72.3234 118.756 73.1049C121.447 75.8094 125.846 75.8094 128.537 73.1049C131.238 70.3799 131.248 65.9582 128.537 63.2435H128.547ZM107.553 51.9219C108.565 50.9038 110.213 50.8935 111.215 51.9219C112.218 52.9399 112.218 54.5954 111.215 55.6135C110.202 56.6315 108.555 56.6315 107.553 55.6135C106.55 54.6057 106.55 52.9502 107.553 51.9321V51.9219ZM125.478 70.02C124.465 71.038 122.818 71.038 121.815 70.02C120.812 69.0123 120.812 67.3567 121.815 66.3387C122.828 65.3207 124.465 65.3104 125.467 66.3387C126.48 67.3464 126.47 69.0123 125.467 70.0303L125.478 70.02Z" fill="#E597CE"/>
</g>
<rect x="13.3926" y="10.624" width="66.9691" height="26.2635" rx="9" fill="#D9D9D9"/>
<path d="M19.8723 32.624V30.104L26.3523 23.984C26.8643 23.52 27.2403 23.104 27.4803 22.736C27.7203 22.368 27.8803 22.032 27.9603 21.728C28.0563 21.424 28.1043 21.144 28.1043 20.888C28.1043 20.216 27.8723 19.704 27.4083 19.352C26.9603 18.984 26.2963 18.8 25.4163 18.8C24.7123 18.8 24.0563 18.936 23.4483 19.208C22.8563 19.48 22.3523 19.904 21.9363 20.48L19.1043 18.656C19.7443 17.696 20.6403 16.936 21.7923 16.376C22.9443 15.816 24.2723 15.536 25.7763 15.536C27.0243 15.536 28.1123 15.744 29.0403 16.16C29.9843 16.56 30.7123 17.128 31.2243 17.864C31.7523 18.6 32.0163 19.48 32.0163 20.504C32.0163 21.048 31.9443 21.592 31.8003 22.136C31.6723 22.664 31.4003 23.224 30.9843 23.816C30.5843 24.408 29.9923 25.072 29.2083 25.808L23.8323 30.872L23.0883 29.456H32.5683V32.624H19.8723ZM41.3725 32.912C39.9965 32.912 38.7645 32.576 37.6765 31.904C36.5885 31.216 35.7325 30.224 35.1085 28.928C34.4845 27.632 34.1725 26.064 34.1725 24.224C34.1725 22.384 34.4845 20.816 35.1085 19.52C35.7325 18.224 36.5885 17.24 37.6765 16.568C38.7645 15.88 39.9965 15.536 41.3725 15.536C42.7645 15.536 43.9965 15.88 45.0685 16.568C46.1565 17.24 47.0125 18.224 47.6365 19.52C48.2605 20.816 48.5725 22.384 48.5725 24.224C48.5725 26.064 48.2605 27.632 47.6365 28.928C47.0125 30.224 46.1565 31.216 45.0685 31.904C43.9965 32.576 42.7645 32.912 41.3725 32.912ZM41.3725 29.624C42.0285 29.624 42.5965 29.44 43.0765 29.072C43.5725 28.704 43.9565 28.12 44.2285 27.32C44.5165 26.52 44.6605 25.488 44.6605 24.224C44.6605 22.96 44.5165 21.928 44.2285 21.128C43.9565 20.328 43.5725 19.744 43.0765 19.376C42.5965 19.008 42.0285 18.824 41.3725 18.824C40.7325 18.824 40.1645 19.008 39.6685 19.376C39.1885 19.744 38.8045 20.328 38.5165 21.128C38.2445 21.928 38.1085 22.96 38.1085 24.224C38.1085 25.488 38.2445 26.52 38.5165 27.32C38.8045 28.12 39.1885 28.704 39.6685 29.072C40.1645 29.44 40.7325 29.624 41.3725 29.624ZM52.9598 32.624V17.264L54.6398 18.944H49.5998V15.824H56.8478V32.624H52.9598ZM66.7263 32.912C65.3183 32.912 64.0863 32.704 63.0303 32.288C61.9743 31.856 61.1503 31.256 60.5583 30.488C59.9663 29.704 59.6703 28.792 59.6703 27.752C59.6703 26.712 59.9583 25.832 60.5343 25.112C61.1263 24.376 61.9503 23.824 63.0063 23.456C64.0623 23.072 65.3023 22.88 66.7263 22.88C68.1663 22.88 69.4143 23.072 70.4703 23.456C71.5423 23.824 72.3663 24.376 72.9423 25.112C73.5343 25.832 73.8303 26.712 73.8303 27.752C73.8303 28.792 73.5343 29.704 72.9423 30.488C72.3503 31.256 71.5183 31.856 70.4463 32.288C69.3903 32.704 68.1503 32.912 66.7263 32.912ZM66.7263 30.056C67.7023 30.056 68.4703 29.84 69.0303 29.408C69.6063 28.976 69.8943 28.384 69.8943 27.632C69.8943 26.88 69.6063 26.296 69.0303 25.88C68.4703 25.448 67.7023 25.232 66.7263 25.232C65.7663 25.232 65.0063 25.448 64.4463 25.88C63.8863 26.296 63.6063 26.88 63.6063 27.632C63.6063 28.384 63.8863 28.976 64.4463 29.408C65.0063 29.84 65.7663 30.056 66.7263 30.056ZM66.7263 24.848C65.4303 24.848 64.2943 24.672 63.3183 24.32C62.3583 23.968 61.6063 23.456 61.0623 22.784C60.5343 22.096 60.2703 21.28 60.2703 20.336C60.2703 19.344 60.5423 18.496 61.0863 17.792C61.6303 17.072 62.3903 16.52 63.3663 16.136C64.3423 15.736 65.4623 15.536 66.7263 15.536C68.0223 15.536 69.1503 15.736 70.1103 16.136C71.0863 16.52 71.8463 17.072 72.3903 17.792C72.9503 18.496 73.2303 19.344 73.2303 20.336C73.2303 21.28 72.9583 22.096 72.4143 22.784C71.8863 23.456 71.1343 23.968 70.1583 24.32C69.1823 24.672 68.0383 24.848 66.7263 24.848ZM66.7263 22.568C67.5423 22.568 68.1823 22.384 68.6463 22.016C69.1263 21.648 69.3663 21.144 69.3663 20.504C69.3663 19.832 69.1183 19.312 68.6223 18.944C68.1423 18.576 67.5103 18.392 66.7263 18.392C65.9583 18.392 65.3343 18.576 64.8543 18.944C64.3743 19.312 64.1343 19.832 64.1343 20.504C64.1343 21.144 64.3663 21.648 64.8303 22.016C65.2943 22.384 65.9263 22.568 66.7263 22.568Z" fill="#171B48"/>
<defs>
<filter id="filter0_d_1575_3942" x="0" y="0.907227" width="177" height="179.876" filterUnits="userSpaceOnUse" color-interpolation-filters="sRGB">
<feFlood flood-opacity="0" result="BackgroundImageFix"/>
<feColorMatrix in="SourceAlpha" type="matrix" values="0 0 0 0 0 0 0 0 0 0 0 0 0 0 0 0 0 0 127 0" result="hardAlpha"/>
<feOffset dy="2"/>
<feColorMatrix type="matrix" values="0 0 0 0 0.678431 0 0 0 0 0.329412 0 0 0 0 0.839216 0 0 0 1 0"/>
<feBlend mode="normal" in2="BackgroundImageFix" result="effect1_dropShadow_1575_3942"/>
<feBlend mode="normal" in="SourceGraphic" in2="effect1_dropShadow_1575_3942" result="shape"/>
</filter>
<filter id="filter1_d_1575_3942" x="30.2773" y="17.0063" width="42.4688" height="15.9697" filterUnits="userSpaceOnUse" color-interpolation-filters="sRGB">
<feFlood flood-opacity="0" result="BackgroundImageFix"/>
<feColorMatrix in="SourceAlpha" type="matrix" values="0 0 0 0 0 0 0 0 0 0 0 0 0 0 0 0 0 0 127 0" result="hardAlpha"/>
<feOffset dy="2"/>
<feColorMatrix type="matrix" values="0 0 0 0 0.678431 0 0 0 0 0.329412 0 0 0 0 0.839216 0 0 0 1 0"/>
<feBlend mode="normal" in2="BackgroundImageFix" result="effect1_dropShadow_1575_3942"/>
<feBlend mode="normal" in="SourceGraphic" in2="effect1_dropShadow_1575_3942" result="shape"/>
</filter>
<filter id="filter2_d_1575_3942" x="45.1074" y="137.28" width="28.1211" height="30.3633" filterUnits="userSpaceOnUse" color-interpolation-filters="sRGB">
<feFlood flood-opacity="0" result="BackgroundImageFix"/>
<feColorMatrix in="SourceAlpha" type="matrix" values="0 0 0 0 0 0 0 0 0 0 0 0 0 0 0 0 0 0 127 0" result="hardAlpha"/>
<feOffset dy="2"/>
<feColorMatrix type="matrix" values="0 0 0 0 0.678431 0 0 0 0 0.329412 0 0 0 0 0.839216 0 0 0 1 0"/>
<feBlend mode="normal" in2="BackgroundImageFix" result="effect1_dropShadow_1575_3942"/>
<feBlend mode="normal" in="SourceGraphic" in2="effect1_dropShadow_1575_3942" result="shape"/>
</filter>
<filter id="filter3_d_1575_3942" x="117.031" y="151.8" width="42.4609" height="15.9839" filterUnits="userSpaceOnUse" color-interpolation-filters="sRGB">
<feFlood flood-opacity="0" result="BackgroundImageFix"/>
<feColorMatrix in="SourceAlpha" type="matrix" values="0 0 0 0 0 0 0 0 0 0 0 0 0 0 0 0 0 0 127 0" result="hardAlpha"/>
<feOffset dy="2"/>
<feColorMatrix type="matrix" values="0 0 0 0 0.678431 0 0 0 0 0.329412 0 0 0 0 0.839216 0 0 0 1 0"/>
<feBlend mode="normal" in2="BackgroundImageFix" result="effect1_dropShadow_1575_3942"/>
<feBlend mode="normal" in="SourceGraphic" in2="effect1_dropShadow_1575_3942" result="shape"/>
</filter>
<filter id="filter4_d_1575_3942" x="102.443" y="46.7842" width="28.123" height="30.3491" filterUnits="userSpaceOnUse" color-interpolation-filters="sRGB">
<feFlood flood-opacity="0" result="BackgroundImageFix"/>
<feColorMatrix in="SourceAlpha" type="matrix" values="0 0 0 0 0 0 0 0 0 0 0 0 0 0 0 0 0 0 127 0" result="hardAlpha"/>
<feOffset dy="2"/>
<feColorMatrix type="matrix" values="0 0 0 0 0.678431 0 0 0 0 0.329412 0 0 0 0 0.839216 0 0 0 1 0"/>
<feBlend mode="normal" in2="BackgroundImageFix" result="effect1_dropShadow_1575_3942"/>
<feBlend mode="normal" in="SourceGraphic" in2="effect1_dropShadow_1575_3942" result="shape"/>
</filter>
</defs>
</svg>
