<svg width="261" height="174" viewBox="0 0 261 174" fill="none" xmlns="http://www.w3.org/2000/svg">
<path d="M243.334 86.1748H211.523C212.356 88.0891 211.192 89.8953 209.135 90.3175C207.579 90.6414 205.763 90.4745 204.308 89.8266C203.836 89.6205 203.535 89.0904 203.455 88.5406C203.154 88.2265 202.963 87.7946 202.923 87.3332C202.883 86.9012 202.923 86.5184 203.033 86.1748H186.997L171.322 101.509V156.61L186.997 171.943H243.324L258.999 156.61V101.509L243.324 86.1748H243.334ZM195.728 138.498C194.202 139.705 191.694 139.656 190.66 137.713C190.399 137.222 190.289 136.701 190.289 136.201C190.088 135.622 189.988 135.003 190.048 134.385C190.138 133.462 190.78 132.667 191.804 132.667C191.944 132.667 192.075 132.686 192.215 132.726C192.406 132.559 192.627 132.441 192.888 132.392C194.333 132.137 195.768 132.52 196.551 133.825C196.952 134.502 197.102 135.288 197.022 136.054C197.102 136.986 196.721 137.909 195.738 138.488L195.728 138.498ZM211.403 151.377C210.529 152.919 208.482 153.655 206.776 153.174C204.147 152.438 204.027 149.493 204.709 147.362C205.08 146.214 206.244 145.968 207.128 146.312C207.639 146.057 208.272 146.076 208.834 146.332C209.235 146.518 209.546 146.754 209.787 147.019C210.409 147.323 210.951 147.775 211.302 148.364C211.854 149.277 211.944 150.415 211.403 151.358V151.377Z" fill="#F7B5D2"/>
<path d="M85.5727 119.179C85.8938 119.061 86.2149 118.963 86.536 118.855C86.6765 118.806 86.807 118.757 86.9475 118.718C86.9876 118.708 87.0177 118.688 87.0579 118.678C87.0779 118.678 87.108 118.659 87.1582 118.629C87.6499 118.403 88.1818 118.364 88.6635 118.521V102L72.9886 86.666H54.9254C55.2164 86.882 55.4472 87.1863 55.5476 87.5495C55.8185 88.541 55.959 89.6797 55.3569 90.5927C54.7448 91.5351 53.6108 91.8492 52.537 91.6333C50.8913 91.3093 49.3258 89.9644 48.5631 88.541C48.1818 87.8342 48.3423 87.147 48.7438 86.666H16.6514L0.976562 102V157.101L16.6514 172.435H72.9786L88.6534 157.101V125.805C88.3223 126.051 87.9309 126.208 87.4994 126.257C86.4859 126.375 85.6228 125.884 84.8702 125.265C83.4251 124.078 81.96 122.016 83.5656 120.328C84.1075 119.748 84.8501 119.444 85.5827 119.179H85.5727ZM53.1993 156.404C52.1758 157.454 50.5902 157.523 49.2656 157.042C48.2821 156.689 47.8908 155.913 48.0413 154.931C48.1115 154.5 48.2019 154.068 48.3223 153.655C47.6399 153.056 47.3489 151.996 48.1416 151.152C49.1552 150.082 50.7307 149.473 52.1356 150.219C53.1291 150.75 53.7814 151.78 54.0122 152.85C54.2831 154.077 54.1125 155.452 53.1893 156.404H53.1993ZM68.4929 141.777C68.4728 142.229 68.3725 142.67 68.1517 143.063C67.1181 144.918 64.7197 144.712 63.104 143.75C61.4181 142.739 60.2139 140.874 60.8561 138.911C61.4884 136.947 63.7061 136.191 65.6329 136.525C67.68 136.879 69.0047 138.449 69.1953 140.432C69.2455 140.972 68.9344 141.463 68.5029 141.777H68.4929Z" fill="#F7B5D2"/>
<path d="M72.9786 2.85059H16.6514L0.976562 18.1843V33.8812C1.73923 34.804 2.17074 35.982 2.03025 37.3858C1.67902 40.9394 1.12709 44.2379 0.976562 47.6835V49.6076C1.02674 49.5487 1.07691 49.4996 1.13712 49.4505C1.1873 48.9597 1.43818 48.5081 1.94997 48.2136C2.7026 47.7817 3.96703 47.978 4.34836 48.8321C5.40205 51.1587 6.17476 54.192 3.20436 55.5467C2.55208 55.8412 1.82955 55.7627 1.29769 55.4191C1.44821 57.4414 1.53853 59.444 1.34786 61.5055C1.25755 62.5166 1.13712 63.5572 0.976562 64.6076V73.2953L16.6514 88.6291H49.3158C49.2254 88.5113 49.1351 88.4033 49.0548 88.2757C48.0714 86.813 48.4628 84.7515 50.0182 83.8287C52.6976 82.2384 55.3569 85.8509 55.4472 88.1775C55.4472 88.3346 55.4271 88.4818 55.387 88.6291H72.9886L88.6635 73.2953V18.1843L72.9786 2.85059ZM39.9731 25.8315C39.9731 26.8328 39.1602 27.4415 38.2169 27.5494C35.8988 27.8145 33.7713 25.8315 34.0724 23.5442C34.3132 21.7281 36.0794 20.2458 37.956 20.2458C39.5315 20.2458 40.6153 21.4827 40.7357 22.9454C40.806 23.8191 40.525 24.7713 39.9128 25.4389C39.953 25.5665 39.9731 25.7039 39.9731 25.8315ZM68.7739 26.5285C68.2721 27.2353 67.399 27.5789 66.5762 27.2353C66.255 27.5298 65.8035 27.7163 65.3619 27.7163C64.9404 27.7163 64.539 27.6574 64.1477 27.5004C63.5656 27.2648 63.1743 26.8721 62.813 26.3616C62.7628 26.2831 62.7227 26.2046 62.6825 26.1162C62.4116 25.8217 62.251 25.4389 62.2209 24.9971C62.1707 24.0547 62.3915 23.1417 62.8832 22.3368C63.2244 21.7772 63.7663 21.2962 63.9971 20.6777C64.3283 19.8041 65.1712 19.2151 66.1547 19.4801C66.9776 19.7059 67.6499 20.6483 67.399 21.4925C69.1552 22.4644 69.958 24.8499 68.7438 26.5383L68.7739 26.5285Z" fill="#F7B5D2"/>
<path d="M158.157 86.1748H101.829L86.1546 101.509V118.904C86.3051 118.904 86.4657 118.914 86.6162 118.953C86.8871 119.022 87.148 119.12 87.3989 119.228C87.5093 119.179 87.6197 119.139 87.7401 119.12C88.573 118.992 89.3859 118.972 90.1385 119.424C90.8811 119.876 91.3126 120.641 91.3628 121.486C91.433 122.487 90.9714 123.478 90.2188 124.156C90.0181 124.548 89.6869 124.862 89.1852 124.951C88.1716 125.128 87.1681 125.167 86.1445 125.177V156.61L101.819 171.943H158.147L173.821 156.61V101.509L158.147 86.1748H158.157ZM125.542 155.883C124.489 157.533 121.95 158.966 119.993 157.955C118.397 157.13 118.137 155.167 118.889 153.704C118.969 153.547 119.07 153.419 119.16 153.282C119.09 153.007 119.08 152.713 119.15 152.418C119.692 150.121 122.411 149.758 124.188 150.916C125.864 152.006 126.656 154.126 125.532 155.893L125.542 155.883ZM154.153 156.345C153.992 156.914 153.5 157.366 152.928 157.552C152.105 157.827 151.242 157.817 150.419 157.621C150.189 157.719 149.948 157.788 149.717 157.788C148.784 157.788 148.202 157.14 148.011 156.335C146.556 154.99 145.964 152.938 147.59 151.152C150.409 148.04 155.678 150.975 155.598 154.735C155.578 155.687 154.905 156.227 154.163 156.355L154.153 156.345Z" fill="#F7B5D2"/>
<path d="M31.2292 20.8151C30.4565 20.285 29.1921 19.7844 27.7871 19.3819C29.8142 18.734 31.47 17.4971 31.2994 15.1705C31.1489 13.0796 29.2222 10.7137 29.2222 10.7137C29.2222 10.7137 26.8137 7.19935 24.5458 7.49385C24.034 7.56257 23.3817 8.00432 22.6793 8.66204C22.5889 7.56257 22.0671 6.57108 20.8729 5.85446C19.0465 4.75499 15.9557 4.91205 15.9557 4.91205C15.9557 4.91205 11.6306 4.78444 10.5568 6.7576C10.1755 7.45458 10.3662 8.94672 10.8077 10.6156C9.21212 9.26086 7.30545 8.53442 5.35864 9.84986C3.59245 11.0475 2.49863 13.8649 2.49863 13.8649C2.49863 13.8649 0.642128 17.6836 2.04705 19.4408C2.45849 19.9513 3.54228 20.3439 4.88699 20.609C3.30144 21.2667 2.12733 22.4054 2.19757 24.3492C2.26782 26.4499 4.09421 28.8845 4.09421 28.8845C4.09421 28.8845 6.36215 32.4872 8.64012 32.2811C9.41283 32.2123 10.5568 31.2896 11.7008 30.0625C11.4901 31.6037 11.8915 33.0566 13.4871 34.0088C15.3235 35.0985 18.4043 34.9316 18.4043 34.9316C18.4043 34.9316 22.7294 35.0396 23.7932 33.0664C24.0741 32.5559 24.034 31.5939 23.8132 30.4552C24.7766 30.9165 25.8604 30.9951 27.0646 30.4355C29.0014 29.5324 30.5468 26.9113 30.5468 26.9113C30.5468 26.9113 30.8478 26.4892 31.189 25.8609C30.5267 24.2706 30.5368 22.3956 31.2191 20.8151H31.2292ZM18.886 22.2876C17.9326 23.0337 16.1464 23.1319 15.6246 22.9355C14.7917 22.6214 13.4369 21.5514 13.5072 20.6384C13.5072 20.5795 13.7279 18.253 14.611 17.5854C15.3335 17.0259 17.0395 16.7608 17.9627 17.1044C18.7957 17.4087 19.9999 18.41 20.1604 19.323C20.3411 20.3439 19.5082 21.8164 18.886 22.2975V22.2876Z" fill="#F38399"/>
<path d="M65.3182 18.3809C66.0608 17.6839 66.5124 16.7513 66.4221 15.4947C66.2716 13.4038 64.3448 11.038 64.3448 11.038C64.3448 11.038 61.9364 7.52357 59.6685 7.81807C59.1567 7.88679 58.5044 8.32854 57.8019 8.98626C57.7116 7.88679 57.1898 6.8953 55.9956 6.17868C54.1692 5.0792 51.0784 5.23627 51.0784 5.23627C51.0784 5.23627 46.7533 5.10865 45.6795 7.08182C45.2982 7.7788 45.4888 9.27094 45.9304 10.9398C44.3348 9.58508 42.4281 8.85864 40.4813 10.1741C38.7151 11.3717 37.6213 14.1891 37.6213 14.1891C37.6213 14.1891 36.8185 15.8481 36.668 17.4777C43.3815 17.6152 44.1241 26.6564 38.9259 28.7964C39.0965 29.0614 39.2169 29.2087 39.2169 29.2087C39.2169 29.2087 41.4848 32.8114 43.7628 32.6053C44.5355 32.5366 45.6795 31.6138 46.8235 30.3867C46.6128 31.9279 47.0142 33.3808 48.6098 34.333C50.4462 35.4227 53.527 35.2558 53.527 35.2558C53.527 35.2558 57.8521 35.3638 58.9158 33.3906C59.1968 32.8801 59.1567 31.9181 58.9359 30.7794C59.8993 31.2408 60.9831 31.3193 62.1873 30.7597C62.6489 30.5438 63.0904 30.2296 63.4919 29.8762C57.7518 28.1092 58.3739 18.479 65.3082 18.3809H65.3182ZM53.9986 22.6217C53.0453 23.3678 51.259 23.4659 50.7372 23.2696C49.9043 22.9554 48.5496 21.8854 48.6198 20.9725C48.6198 20.9136 48.8406 18.587 49.7237 17.9195C50.4462 17.3599 52.1522 17.0949 53.0754 17.4385C53.9083 17.7428 55.1125 18.7441 55.2731 19.657C55.4537 20.678 54.6208 22.1505 53.9986 22.6315V22.6217Z" fill="#F38399"/>
<path d="M87.8267 30.2096C87.6762 28.0892 87.8468 25.9393 88.0977 24.3097C88.1077 24.241 88.1278 24.1723 88.1378 24.1036C87.626 23.4262 87.2246 22.6507 87.0139 21.7868C86.8433 21.512 86.7329 21.2371 86.753 20.9622C86.753 20.9426 86.7731 20.7463 86.8132 20.4714C86.6125 17.8602 85.9301 15.3462 87.0841 13C85.8398 12.6564 85.5989 10.6547 84.5553 10.0853C84.2643 9.92825 84.0034 9.75155 83.7525 9.57485C83.8328 10.0068 83.9331 10.4583 84.0636 10.9296C82.468 9.57485 80.5613 8.84841 78.6145 10.1638C76.8483 11.3615 75.7545 14.1789 75.7545 14.1789C75.7545 14.1789 73.898 17.9976 75.3029 19.7548C75.7143 20.2652 76.7981 20.6579 78.1428 20.923C76.5573 21.5807 75.3832 22.7194 75.4534 24.6631C75.5237 26.7639 77.3501 29.1985 77.3501 29.1985C77.3501 29.1985 79.618 32.8012 81.896 32.595C82.6687 32.5263 83.8127 31.6036 84.9567 30.3765C84.746 31.9177 85.1474 33.3706 86.7429 34.3228C86.8533 34.3915 86.9637 34.4504 87.0841 34.4995C87.2146 33.0859 87.4855 31.633 87.8368 30.1801L87.8267 30.2096Z" fill="#F38399"/>
<path d="M14.3503 50.1176C13.9087 49.342 12.1927 48.5861 10.2258 48.0168C12.2529 47.3689 13.9087 46.132 13.7381 43.8054C13.5876 41.7144 11.6609 39.3486 11.6609 39.3486C11.6609 39.3486 9.25244 35.8342 6.9845 36.1287C6.47271 36.1975 5.82043 36.6392 5.11797 37.2969C5.02765 36.1975 4.50583 35.206 3.31165 34.4893C2.88014 34.2341 2.37838 34.0476 1.87662 33.9102C1.85655 34.8035 1.65585 35.6772 1.23438 36.4527C2.10743 37.9841 2.68947 39.7511 2.83999 41.6065C2.93031 42.7452 2.82996 43.8741 2.64933 44.9932C6.67341 47.2314 6.4125 54.005 1.88666 55.6738C2.37838 58.3145 3.08084 60.7883 2.51887 63.4879C3.86358 63.321 5.61972 62.8793 6.2419 61.7209C6.52288 61.2104 6.48274 60.2484 6.26197 59.1097C7.22534 59.5711 8.30914 59.6496 9.51335 59.09C11.4501 58.1869 12.9955 55.5658 12.9955 55.5658C12.9955 55.5658 15.4541 52.0907 14.3503 50.1274V50.1176Z" fill="#F38399"/>
<path d="M43.3424 60.8382C43.6334 59.994 43.0514 58.2466 42.1583 56.4403C44.0148 57.4809 46.0619 57.8441 47.7077 56.1557C49.1929 54.6341 49.6946 51.6596 49.6946 51.6596C49.6946 51.6596 50.7383 47.5562 48.9922 46.1033C48.6008 45.7794 47.8281 45.6027 46.8547 45.534C47.6274 44.729 48.0288 43.6786 47.7679 42.3337C47.3665 40.2722 45.1788 38.142 45.1788 38.142C45.1788 38.142 42.369 34.9221 40.1512 35.4718C39.3685 35.6583 38.365 36.7971 37.4016 38.25C37.3514 36.1885 36.6189 34.3135 34.3208 33.7932C32.2335 33.322 29.3534 34.4214 29.3534 34.4214C29.3534 34.4214 25.2089 35.6387 24.8276 37.8377C24.7172 38.4757 25.1487 39.5261 25.8512 40.6845C24.2957 39.9777 22.6399 39.8894 21.215 41.2441C19.6695 42.7068 19.0574 45.6616 19.0574 45.6616C19.0574 45.6616 17.8532 49.7257 19.5291 51.2375C20.1011 51.7479 21.5662 51.9639 23.2722 51.9639C21.9676 52.8474 21.1246 54.1138 21.4859 55.9102C21.8973 57.9717 24.095 60.0922 24.095 60.0922C24.095 60.0922 26.9149 63.3022 29.1327 62.7427C29.7047 62.5954 30.4071 61.9377 31.1297 61.0051C31.4307 62.0064 32.093 62.8507 33.3273 63.3415C35.3143 64.1366 38.3349 63.4986 38.3349 63.4986C38.3349 63.4986 42.6199 62.9488 43.3625 60.8284L43.3424 60.8382ZM31.2902 50.0104C30.9691 49.1956 30.8687 47.4973 31.6113 46.9378C31.6615 46.9083 33.5682 45.4947 34.662 45.6812C35.5652 45.8383 36.9199 46.8887 37.2812 47.7918C37.6023 48.5968 37.6625 50.1478 37.0805 50.8743C36.4282 51.689 34.7523 52.0719 33.9696 51.9443C32.7654 51.7578 31.4909 50.5307 31.2902 50.0104Z" fill="#F38399"/>
<path d="M86.07 42.2446C85.2672 41.8225 83.4107 42.0974 81.4338 42.6569C82.7886 41.0372 83.5011 39.1229 82.066 37.2479C80.7815 35.5693 77.8513 34.5876 77.8513 34.5876C77.8513 34.5876 73.8874 32.8991 72.1413 34.3422C71.7499 34.6661 71.4388 35.3827 71.2181 36.3153C70.5357 35.4416 69.5422 34.8723 68.1473 34.9017C65.9998 34.9508 63.491 36.708 63.491 36.708C63.491 36.708 59.778 38.8873 59.9687 41.1157C60.0289 41.901 61.0123 43.0594 62.3169 44.2276C60.2296 43.9331 58.2226 44.3258 57.3094 46.4658C56.4865 48.3997 57.1187 51.3644 57.1187 51.3644C57.1187 51.3644 57.6606 55.5659 59.8182 56.2923C60.4403 56.5083 61.5743 56.2629 62.8588 55.7819C61.8854 57.166 61.5241 58.7465 62.6581 60.3565C63.8724 62.0842 66.7524 63.1739 66.7524 63.1739C66.7524 63.1739 70.6461 65.0096 72.4524 63.6353C73.0645 63.164 73.5161 61.7897 73.7971 60.1503C74.4694 61.5639 75.6134 62.575 77.48 62.526C79.6275 62.4671 82.1262 60.7001 82.1262 60.7001C82.1262 60.7001 85.8292 58.5011 85.6285 56.2825C85.5783 55.7033 85.0264 54.918 84.2135 54.0738C85.2773 53.956 86.2406 53.4455 86.9331 52.3362C88.057 50.5496 87.9165 47.5358 87.9165 47.5358C87.9165 47.5358 88.067 43.3048 86.06 42.2446H86.07ZM73.1649 52.081C72.2918 52.2577 70.5557 52.081 70.1142 51.2662C70.0841 51.2171 68.9903 49.1458 69.3515 48.115C69.6526 47.261 70.9371 46.132 71.9105 45.9357C72.7735 45.759 74.349 45.9553 74.9812 46.6327C75.6937 47.3984 75.8041 49.0771 75.5532 49.8133C75.1619 50.9422 73.7168 51.973 73.1649 52.081Z" fill="#F38399"/>
<path d="M35.4252 81.5315C34.9837 80.756 33.2677 80.0001 31.3008 79.4307C33.3279 78.7828 34.9837 77.5459 34.8131 75.2194C34.6626 73.1284 32.7358 70.7626 32.7358 70.7626C32.7358 70.7626 30.3274 67.2482 28.0595 67.5427C27.5477 67.6114 26.8954 68.0531 26.1929 68.7109C26.1026 67.6114 25.5808 66.6199 24.3866 65.9033C22.5602 64.8038 19.4694 64.9609 19.4694 64.9609C19.4694 64.9609 15.1443 64.8333 14.0705 66.8064C13.6892 67.5034 13.8798 68.9956 14.3214 70.6644C12.7258 69.3097 10.8191 68.5833 8.87231 69.8987C7.10613 71.0963 6.0123 73.9137 6.0123 73.9137C6.0123 73.9137 4.1558 77.7324 5.56072 79.4896C5.63096 79.578 5.73131 79.6565 5.83167 79.735C11.5417 80.2651 12.495 87.5688 8.72178 90.3862C9.59484 91.358 10.8693 92.4477 12.1438 92.3299C12.9165 92.2612 14.0605 91.3384 15.2045 90.1113C14.9937 91.6525 15.3951 93.1054 16.9907 94.0576C18.8272 95.1473 21.9079 94.9804 21.9079 94.9804C21.9079 94.9804 26.2331 95.0884 27.2968 93.1152C27.5778 92.6048 27.5376 91.6427 27.3169 90.504C28.2802 90.9654 29.364 91.0439 30.5682 90.4843C32.505 89.5812 34.0504 86.9601 34.0504 86.9601C34.0504 86.9601 36.509 83.485 35.4052 81.5217L35.4252 81.5315ZM22.3997 82.3365C21.4463 83.0825 19.6601 83.1807 19.1382 82.9844C18.3053 82.6702 16.9506 81.6002 17.0208 80.6873C17.0208 80.6284 17.2416 78.3018 18.1247 77.6343C18.8472 77.0747 20.5532 76.8097 21.4764 77.1532C22.3093 77.4576 23.5136 78.4589 23.6741 79.3718C23.8547 80.3928 23.0218 81.8653 22.3997 82.3463V82.3365Z" fill="#F38399"/>
<path d="M69.3014 86.3426C69.1308 85.4689 67.736 84.232 66.04 83.0932C68.1775 83.0932 70.1444 82.4159 70.7164 80.1482C71.2382 78.1063 70.1544 75.2791 70.1544 75.2791C70.1544 75.2791 68.9803 71.2052 66.7325 70.7929C66.2307 70.7045 65.468 70.9205 64.5849 71.3426C64.8458 70.2628 64.6652 69.1633 63.7621 68.1227C62.3672 66.5226 59.3867 65.7373 59.3867 65.7373C59.3867 65.7373 55.3125 64.304 53.6667 65.8551C53.0847 66.395 52.7836 67.8773 52.6833 69.5952C51.5995 67.8282 50.0139 66.5521 47.746 67.2196C45.6888 67.8282 43.752 70.1744 43.752 70.1744C43.752 70.1744 40.7716 73.2471 41.5543 75.338C41.7851 75.9466 42.6883 76.6436 43.8825 77.3112C42.1665 77.4584 40.6913 78.1849 40.1394 80.05C39.5373 82.0625 40.5006 84.9388 40.5006 84.9388C40.5006 84.9388 41.5142 89.052 43.742 89.5526C44.1033 89.6312 44.605 89.5526 45.187 89.3563C42.3571 85.3903 45.9497 78.3517 51.9407 80.2562C51.9507 80.2562 51.9608 80.2562 51.9808 80.266C51.9808 80.1482 52.0109 80.0402 52.0511 79.9322C52.0711 79.8832 53.0144 77.7333 54.0681 77.3603C54.9312 77.0559 56.6371 77.3112 57.4098 77.9198C58.1022 78.4597 58.9352 79.7752 58.7947 80.6881C58.6341 81.7091 57.3797 82.8576 56.6371 83.1325C56.2959 83.2601 55.8945 83.2994 55.4831 83.2994C57.2292 87.334 53.737 93.2241 48.1976 91.4571C47.7159 91.3098 47.2944 91.1135 46.9031 90.8975C47.0134 91.4963 47.2844 92.0853 47.7861 92.6547C49.1911 94.245 52.1715 95.0205 52.1715 95.0205C52.1715 95.0205 56.2457 96.4341 57.8915 94.8733C58.313 94.4708 58.594 93.548 58.7445 92.3995C59.5072 93.1259 60.5207 93.5382 61.8454 93.3615C63.9728 93.0866 66.2708 91.0742 66.2708 91.0742C66.2708 91.0742 69.7129 88.512 69.2814 86.3131L69.3014 86.3426Z" fill="#F38399"/>
<path d="M81.6546 81.0014C80.069 81.6592 78.8949 82.7979 78.9652 84.7416C78.9752 85.0754 79.0354 85.419 79.1157 85.7527C79.5974 83.7894 81.0224 82.3169 83.2602 81.4236C81.504 82.1304 84.3942 79.5878 84.6651 79.3424C85.7088 78.3804 86.7825 77.5165 87.5954 76.3483C87.5954 76.3483 87.5954 76.3483 87.6054 76.3385C86.9933 74.4439 86.642 72.3726 86.7323 70.3798C85.3274 69.4668 83.7419 69.1429 82.1262 70.2325C80.36 71.4301 79.2662 74.2475 79.2662 74.2475C79.2662 74.2475 77.4097 78.0663 78.8146 79.8234C79.2261 80.3339 80.3099 80.7266 81.6546 80.9916V81.0014Z" fill="#F38399"/>
<path d="M107.394 86.3416C104.564 86.8227 100.369 86.3024 97.9007 87.9909C95.7532 89.4634 94.8199 92.1924 92.562 93.6747C91.9599 94.0674 91.3077 94.3717 90.6152 94.5877C92.4617 95.4515 95.1611 95.3043 95.1611 95.3043C95.1611 95.3043 99.4863 95.4123 100.55 93.4391C100.831 92.9287 100.791 91.9666 100.57 90.8279C101.533 91.2893 102.617 91.3678 103.821 90.8082C105.758 89.9051 107.304 87.284 107.304 87.284C107.304 87.284 107.615 86.8423 107.966 86.1846C107.775 86.2435 107.585 86.3024 107.384 86.3318L107.394 86.3416Z" fill="#F38399"/>
<path d="M19.3674 114.064C18.9259 113.288 17.2099 112.532 15.243 111.963C17.2701 111.315 18.9259 110.078 18.7553 107.752C18.6048 105.661 16.678 103.295 16.678 103.295C16.678 103.295 14.2696 99.7804 12.0017 100.075C11.4899 100.144 10.8376 100.585 10.1351 101.243C10.0448 100.144 9.52299 99.1521 8.32881 98.4355C6.50242 97.336 3.4116 97.4931 3.4116 97.4931C3.4116 97.4931 3.27111 97.4931 3.0403 97.4931C3.06037 97.7091 3.08044 97.9349 3.08044 98.1705C3.13062 101.96 3.5822 105.867 3.26107 109.666C4.00367 109.499 4.83659 109.479 5.39855 109.685C6.23147 109.99 7.43568 110.991 7.59625 111.904C7.77688 112.925 6.94396 114.397 6.32179 114.879C5.36845 115.625 3.5822 115.723 3.06037 115.526C2.78942 115.428 2.45826 115.242 2.14717 115.006C2.1271 115.055 2.11707 115.094 2.097 115.144C1.74577 116.096 1.20387 116.95 0.521484 117.637C0.993135 119.944 1.43468 122.261 1.54507 124.646C1.58521 125.441 1.47482 126.158 1.26408 126.786C3.12058 127.67 5.8401 127.522 5.8401 127.522C5.8401 127.522 10.1652 127.63 11.229 125.657C11.5099 125.147 11.4698 124.185 11.249 123.046C12.2124 123.507 13.2962 123.586 14.5004 123.026C16.4372 122.123 17.9826 119.502 17.9826 119.502C17.9826 119.502 20.4412 116.027 19.3373 114.064H19.3674Z" fill="#F38399"/>
<path d="M54.4799 114.399C54.0384 113.623 52.3224 112.867 50.3555 112.298C52.3826 111.65 54.0384 110.413 53.8678 108.087C53.7173 105.996 51.7905 103.63 51.7905 103.63C51.7905 103.63 49.3821 100.115 47.1141 100.41C46.6024 100.479 45.9501 100.92 45.2476 101.578C45.1573 100.479 44.6355 99.4871 43.4413 98.7705C41.6149 97.671 38.5241 97.8281 38.5241 97.8281C38.5241 97.8281 34.1989 97.7004 33.1252 99.6736C32.7439 100.371 32.9345 101.863 33.3761 103.532C31.7805 102.177 29.8738 101.45 27.927 102.766C26.1608 103.964 25.067 106.781 25.067 106.781C25.067 106.781 23.2105 110.6 24.6154 112.357C25.0268 112.867 26.1106 113.26 27.4553 113.525C25.8698 114.183 24.6957 115.321 24.7659 117.265C24.8362 119.366 26.6626 121.8 26.6626 121.8C26.6626 121.8 28.9305 125.403 31.2085 125.197C31.9812 125.128 33.1252 124.206 34.2692 122.979C34.0585 124.52 34.4599 125.973 36.0554 126.925C37.8919 128.014 40.9727 127.848 40.9727 127.848C40.9727 127.848 45.2978 127.956 46.3615 125.982C46.6425 125.472 46.6024 124.51 46.3816 123.371C47.345 123.833 48.4287 123.911 49.633 123.352C51.5697 122.448 53.1152 119.827 53.1152 119.827C53.1152 119.827 55.5738 116.352 54.4699 114.389L54.4799 114.399ZM38.1829 115.852C37.35 115.537 35.9952 114.467 36.0655 113.554C36.0655 113.496 36.2863 111.169 37.1693 110.501C37.8919 109.942 39.5978 109.677 40.5211 110.02C41.354 110.325 42.5582 111.326 42.7188 112.239C42.8994 113.26 42.0665 114.732 41.4443 115.213C40.491 115.96 38.7047 116.058 38.1829 115.861V115.852Z" fill="#F38399"/>
<path d="M87.1338 114.86C89.7229 114.86 91.4489 116.176 92.3019 117.933C92.8037 116.804 93.175 115.4 92.603 114.399C92.1614 113.623 90.4454 112.867 88.4785 112.298C90.5056 111.65 92.1614 110.413 91.9908 108.087C91.8403 105.996 89.9136 103.63 89.9136 103.63C89.9136 103.63 87.5051 100.115 85.2372 100.41C84.7254 100.479 84.0731 100.92 83.3707 101.578C83.2803 100.479 82.7585 99.4871 81.5643 98.7705C79.7379 97.671 76.6471 97.8281 76.6471 97.8281C76.6471 97.8281 72.322 97.7004 71.2482 99.6736C70.8669 100.371 71.0576 101.863 71.4991 103.532C69.9035 102.177 67.9969 101.45 66.05 102.766C64.2839 103.964 63.19 106.781 63.19 106.781C63.19 106.781 61.3335 110.6 62.7385 112.357C63.1499 112.867 64.2337 113.26 65.5784 113.525C63.9928 114.183 62.8187 115.321 62.889 117.265C62.9592 119.366 64.7856 121.8 64.7856 121.8C64.7856 121.8 67.0536 125.403 69.3315 125.197C70.1042 125.128 71.2482 124.206 72.3922 122.979C72.1815 124.52 72.5829 125.973 74.1785 126.925C76.0149 128.014 79.0957 127.848 79.0957 127.848C79.0957 127.848 83.2904 127.946 84.4344 126.061C79.5172 123.695 80.4103 114.86 87.1238 114.86H87.1338ZM79.5774 115.204C78.6241 115.95 76.8378 116.048 76.316 115.852C75.4831 115.537 74.1283 114.467 74.1986 113.554C74.1986 113.496 74.4193 111.169 75.3024 110.501C76.025 109.942 77.7309 109.677 78.6542 110.02C79.4871 110.325 80.6913 111.326 80.8518 112.239C81.0325 113.26 80.1996 114.732 79.5774 115.213V115.204Z" fill="#F38399"/>
<path d="M126.282 87.3626C123.613 87.2546 119.92 87.6669 116.508 87.4018C117.05 88.5602 117.712 89.4535 117.712 89.4535C117.712 89.4535 119.98 93.0563 122.258 92.8501C123.031 92.7814 124.175 91.8586 125.319 90.6315C125.108 92.1727 125.509 93.6256 127.105 94.5778C128.941 95.6675 132.022 95.5006 132.022 95.5006C132.022 95.5006 136.347 95.6086 137.411 93.6354C137.692 93.125 137.652 92.1629 137.431 91.0242C138.394 91.4856 139.478 91.5641 140.682 91.0046C142.619 90.1014 144.165 87.4804 144.165 87.4804C144.165 87.4804 144.255 87.3527 144.395 87.127C138.736 88.8056 131.902 87.5982 126.282 87.3724V87.3626Z" fill="#F38399"/>
<path d="M169.282 94.7053C167.415 92.9874 165.448 91.1026 164.214 88.8742C164.174 88.7956 164.133 88.7073 164.093 88.6189C160.109 88.7073 156.065 88.1379 152.212 87.2446C151.891 87.1661 151.59 87.0777 151.309 86.9697C151.861 88.4815 152.834 89.7871 152.834 89.7871C152.834 89.7871 155.102 93.3899 157.38 93.1837C158.153 93.115 159.297 92.1922 160.441 90.9651C160.23 92.5064 160.631 93.9592 162.227 94.9114C164.063 96.0011 167.144 95.8342 167.144 95.8342C167.144 95.8342 168.77 95.8735 170.275 95.4514C169.934 95.2452 169.603 95.0096 169.292 94.7151L169.282 94.7053Z" fill="#F38399"/>
<path d="M218.564 84.7028C216.989 85.1347 215.433 85.2623 213.878 85.2918C213.828 85.4292 213.778 85.5666 213.748 85.6746C211.69 91.5548 203.452 90.4946 202.006 85.9298C198.986 86.3225 195.965 86.7446 192.885 86.8134C191.72 86.8428 190.566 86.8624 189.402 86.8624C189.944 88.4233 190.958 89.778 190.958 89.778C190.958 89.778 193.226 93.3807 195.504 93.1746C196.276 93.1059 197.42 92.1831 198.564 90.956C198.354 92.4972 198.755 93.9501 200.351 94.9023C202.187 95.992 205.268 95.8251 205.268 95.8251C205.268 95.8251 209.593 95.9331 210.657 93.9599C210.938 93.4495 210.898 92.4874 210.677 91.3487C211.64 91.8101 212.724 91.8886 213.928 91.329C215.865 90.4259 217.41 87.8048 217.41 87.8048C217.41 87.8048 218.534 86.2145 218.916 84.585C218.795 84.6242 218.685 84.6733 218.564 84.7028Z" fill="#F38399"/>
<path d="M127.135 106.623C126.352 106.181 124.475 106.397 122.488 106.908C123.893 105.327 124.656 103.433 123.281 101.518C122.047 99.8003 119.157 98.7401 119.157 98.7401C119.157 98.7401 115.243 96.9437 113.457 98.3376C113.055 98.6518 112.724 99.3586 112.473 100.281C111.811 99.388 110.848 98.799 109.443 98.7794C107.295 98.7598 104.736 100.448 104.736 100.448C104.736 100.448 100.963 102.52 101.083 104.748C101.124 105.533 102.067 106.721 103.331 107.929C101.254 107.575 99.2269 107.909 98.2635 110.02C97.3804 111.934 97.9223 114.908 97.9223 114.908C97.9223 114.908 98.3438 119.12 100.471 119.915C101.093 120.15 102.227 119.934 103.522 119.493C102.508 120.847 102.107 122.418 103.181 124.057C104.345 125.824 107.195 126.993 107.195 126.993C107.195 126.993 111.038 128.936 112.885 127.621C113.517 127.169 113.999 125.805 114.34 124.175C114.972 125.608 116.076 126.649 117.952 126.659C120.1 126.659 122.649 124.97 122.649 124.97C122.649 124.97 126.412 122.879 126.282 120.651C126.251 120.072 125.72 119.267 124.927 118.403C125.991 118.315 126.964 117.834 127.697 116.744C128.881 114.997 128.831 111.973 128.831 111.973C128.831 111.973 129.112 107.752 127.135 106.633V106.623ZM113.938 116.086C113.065 116.243 111.339 116.008 110.918 115.183C110.888 115.134 109.854 113.023 110.256 112.012C110.587 111.168 111.901 110.078 112.875 109.902C113.748 109.745 115.313 109.99 115.925 110.687C116.618 111.472 116.678 113.151 116.397 113.887C115.976 114.997 114.5 115.988 113.938 116.086Z" fill="#F38399"/>
<path d="M149.996 127.935C150.689 127.356 151.09 125.559 151.271 123.556C152.324 125.373 153.9 126.708 156.198 126.079C158.265 125.51 160.242 123.193 160.242 123.193C160.242 123.193 163.273 120.18 162.53 118.069C162.36 117.598 161.788 117.058 160.985 116.518C162.069 116.204 162.962 115.507 163.433 114.221C164.166 112.248 163.383 109.322 163.383 109.322C163.383 109.322 162.641 105.15 160.453 104.522C159.68 104.296 158.215 104.777 156.64 105.543C157.673 103.746 158.014 101.763 156.308 100.173C154.753 98.7202 151.712 98.2391 151.712 98.2391C151.712 98.2391 147.508 97.228 146.032 98.9263C145.601 99.4172 145.43 100.536 145.43 101.881C144.457 100.497 143.082 99.6037 141.145 100.055C139.058 100.546 136.981 102.784 136.981 102.784C136.981 102.784 133.83 105.68 134.492 107.82C134.723 108.547 135.867 109.46 137.332 110.304C135.746 110.412 134.362 111.089 133.739 112.807C133.017 114.79 133.81 117.706 133.81 117.706C133.81 117.706 134.572 121.868 136.76 122.496C137.332 122.663 138.285 122.437 139.379 121.996C139.108 123.007 139.249 124.067 140.052 125.108C141.346 126.776 144.276 127.738 144.276 127.738C144.276 127.738 148.25 129.397 149.996 127.945V127.935ZM145.26 112.611C145.4 111.747 146.203 110.235 147.136 110.127C147.197 110.127 149.565 109.862 150.418 110.569C151.12 111.148 151.732 112.729 151.582 113.691C151.441 114.545 150.689 115.909 149.806 116.243C148.822 116.616 147.176 116.115 146.564 115.615C145.631 114.859 145.169 113.161 145.26 112.621V112.611Z" fill="#F38399"/>
<path d="M201.705 114.761C201.263 113.985 199.547 113.23 197.58 112.66C199.607 112.012 201.263 110.775 201.092 108.449C200.942 106.358 199.015 103.992 199.015 103.992C199.015 103.992 196.607 100.478 194.339 100.772C193.827 100.841 193.175 101.283 192.472 101.94C192.382 100.841 191.86 99.8494 190.666 99.1328C188.84 98.0333 185.749 98.1904 185.749 98.1904C185.749 98.1904 181.424 98.0628 180.35 100.036C179.968 100.733 180.159 102.225 180.601 103.894C179.005 102.539 177.098 101.813 175.152 103.128C173.385 104.326 172.292 107.143 172.292 107.143C172.292 107.143 170.435 110.962 171.84 112.719C172.251 113.23 173.335 113.622 174.68 113.887C173.094 114.545 171.92 115.684 171.991 117.627C172.061 119.728 173.887 122.163 173.887 122.163C173.887 122.163 176.155 125.766 178.433 125.559C179.206 125.491 180.35 124.568 181.494 123.341C181.283 124.882 181.684 126.335 183.28 127.287C185.116 128.377 188.197 128.21 188.197 128.21C188.197 128.21 192.522 128.318 193.586 126.345C193.867 125.834 193.827 124.872 193.606 123.733C194.57 124.195 195.653 124.273 196.858 123.714C198.794 122.811 200.34 120.19 200.34 120.19C200.34 120.19 202.798 116.715 201.695 114.751L201.705 114.761ZM185.418 116.214C184.585 115.9 183.23 114.83 183.3 113.917C183.3 113.858 183.521 111.531 184.404 110.864C185.127 110.304 186.832 110.039 187.756 110.383C188.589 110.687 189.793 111.688 189.953 112.601C190.134 113.622 189.301 115.095 188.679 115.576C187.726 116.322 185.939 116.42 185.418 116.224V116.214Z" fill="#F38399"/>
<path d="M29.0509 155.383C29.4222 154.568 28.9807 152.772 28.2582 150.897C30.0143 152.085 32.0213 152.625 33.8176 151.074C35.4232 149.68 36.1859 146.754 36.1859 146.754C36.1859 146.754 37.5808 142.749 35.9752 141.169C35.6139 140.815 34.8512 140.57 33.8879 140.422C34.7208 139.686 35.2225 138.675 35.082 137.311C34.8613 135.22 32.8643 132.913 32.8643 132.913C32.8643 132.913 30.3455 129.477 28.0876 129.83C27.2948 129.958 26.1909 131.008 25.1071 132.363C25.2376 130.301 24.6756 128.377 22.4278 127.661C20.3906 127.013 17.4202 127.867 17.4202 127.867C17.4202 127.867 13.1854 128.731 12.6134 130.9C12.4428 131.529 12.784 132.608 13.3861 133.816C11.8909 132.981 10.2551 132.756 8.70974 133.993C7.04391 135.318 6.17085 138.214 6.17085 138.214C6.17085 138.214 4.61541 142.16 6.16082 143.809C6.69268 144.369 8.1277 144.703 9.82364 144.84C8.43879 145.616 7.49549 146.803 7.69619 148.619C7.927 150.71 9.93402 153.007 9.93402 153.007C9.93402 153.007 12.4729 156.434 14.7208 156.07C15.3028 155.972 16.0655 155.373 16.8583 154.509C17.069 155.53 17.6611 156.434 18.8452 157.023C20.7519 157.975 23.8126 157.602 23.8126 157.602C23.8126 157.602 28.1377 157.405 29.0509 155.364V155.383ZM17.9822 143.583C17.7313 142.749 17.7815 141.041 18.5743 140.55C18.6244 140.521 20.6515 139.274 21.7253 139.549C22.6184 139.775 23.8728 140.933 24.1538 141.866C24.4047 142.7 24.3344 144.241 23.6821 144.919C22.9596 145.674 21.2536 145.92 20.491 145.733C19.3169 145.449 18.1428 144.114 17.9822 143.583Z" fill="#F38399"/>
<path d="M71.3491 144.614C71.0882 144.142 70.3556 143.691 69.3922 143.279C68.4489 144.083 67.1845 144.594 65.5688 144.594C57.8117 144.594 57.8217 132.814 65.5688 132.814C66.6526 132.814 67.5759 133.049 68.3586 133.442C67.6561 132.539 65.7695 130.379 63.9833 130.615C63.4715 130.684 62.8192 131.125 62.1168 131.783C62.0264 130.684 61.5046 129.692 60.3104 128.976C58.484 127.876 55.3932 128.033 55.3932 128.033C55.3932 128.033 51.0681 127.906 49.9943 129.879C49.613 130.576 49.8037 132.068 50.2452 133.737C48.6496 132.382 46.7429 131.656 44.7961 132.971C43.03 134.169 41.9361 136.986 41.9361 136.986C41.9361 136.986 40.0796 140.805 41.4845 142.562C41.896 143.072 42.9798 143.465 44.3245 143.73C42.7389 144.388 41.5648 145.527 41.6351 147.47C41.7053 149.571 43.5317 152.006 43.5317 152.006C43.5317 152.006 44.485 153.517 45.7796 154.528C44.8162 151.132 46.6727 146.852 51.3491 146.852C57.8217 146.852 58.8854 155.029 54.5703 157.758C56.176 158.141 57.8418 158.053 57.8418 158.053C57.8418 158.053 62.1669 158.161 63.2307 156.187C63.5116 155.677 63.4715 154.715 63.2507 153.576C64.2141 154.038 65.2979 154.116 66.5021 153.557C68.4389 152.653 69.9843 150.032 69.9843 150.032C69.9843 150.032 72.4429 146.557 71.339 144.594L71.3491 144.614ZM58.3235 145.428C57.3701 146.174 55.5839 146.273 55.0621 146.076C54.2291 145.762 52.8744 144.692 52.9447 143.779C52.9447 143.72 53.1654 141.394 54.0485 140.726C54.771 140.167 56.477 139.902 57.4003 140.245C58.2332 140.549 59.4374 141.551 59.5979 142.464C59.7786 143.485 58.9457 144.957 58.3235 145.438V145.428Z" fill="#F38399"/>
<path d="M109.484 144.614C109.042 143.838 107.326 143.082 105.359 142.513C107.386 141.865 109.042 140.628 108.872 138.301C108.721 136.21 106.794 133.845 106.794 133.845C106.794 133.845 104.386 130.33 102.118 130.625C101.606 130.693 100.954 131.135 100.252 131.793C100.161 130.693 99.6394 129.702 98.4452 128.985C96.6188 127.886 93.528 128.043 93.528 128.043C93.528 128.043 89.2029 127.915 88.1291 129.888C87.7478 130.585 87.9384 132.078 88.38 133.746C86.7844 132.392 84.8777 131.665 82.9309 132.981C81.1647 134.178 80.0709 136.996 80.0709 136.996C80.0709 136.996 78.2144 140.814 79.6193 142.572C80.0308 143.082 81.1145 143.475 82.4593 143.74C80.8737 144.398 79.6996 145.536 79.7698 147.48C79.8401 149.581 81.6665 152.015 81.6665 152.015C81.6665 152.015 83.9344 155.618 86.2124 155.412C86.9851 155.343 88.1291 154.42 89.2731 153.193C89.0624 154.735 89.4638 156.187 91.0594 157.14C92.8958 158.229 95.9766 158.062 95.9766 158.062C95.9766 158.062 100.302 158.17 101.365 156.197C101.646 155.687 101.606 154.725 101.385 153.586C102.349 154.047 103.433 154.126 104.637 153.566C106.574 152.663 108.119 150.042 108.119 150.042C108.119 150.042 110.578 146.567 109.474 144.604L109.484 144.614ZM93.1968 146.076C92.3639 145.762 91.0092 144.692 91.0794 143.779C91.0794 143.72 91.3002 141.394 92.1833 140.726C92.9058 140.167 94.6118 139.902 95.535 140.245C96.3679 140.549 97.5721 141.551 97.7327 142.464C97.9133 143.485 97.0804 144.957 96.4583 145.438C95.5049 146.184 93.7187 146.282 93.1968 146.086V146.076Z" fill="#F38399"/>
<path d="M145.337 144.653C144.896 143.877 143.18 143.121 141.213 142.552C143.24 141.904 144.896 140.667 144.725 138.34C144.575 136.249 142.648 133.884 142.648 133.884C142.648 133.884 140.24 130.369 137.972 130.664C137.46 130.732 136.808 131.174 136.105 131.832C136.015 130.732 135.493 129.741 134.299 129.024C132.472 127.925 129.382 128.082 129.382 128.082C129.382 128.082 125.056 127.954 123.983 129.928C123.601 130.624 123.792 132.117 124.233 133.785C122.638 132.431 120.731 131.704 118.784 133.02C117.018 134.217 115.924 137.035 115.924 137.035C115.924 137.035 114.068 140.854 115.473 142.611C115.884 143.121 116.968 143.514 118.313 143.779C116.727 144.437 115.553 145.575 115.623 147.519C115.663 148.707 116.266 150.013 116.787 150.916C117.63 149.119 119.366 147.764 121.996 147.764C127.485 147.764 129.08 153.655 126.802 157.11C126.843 157.13 126.873 157.159 126.903 157.179C128.739 158.268 131.82 158.101 131.82 158.101C131.82 158.101 136.145 158.209 137.209 156.236C137.49 155.726 137.45 154.764 137.229 153.625C138.192 154.086 139.276 154.165 140.48 153.605C142.417 152.702 143.963 150.081 143.963 150.081C143.963 150.081 146.421 146.606 145.317 144.643L145.337 144.653ZM132.302 145.458C131.348 146.204 129.562 146.302 129.04 146.105C128.207 145.791 126.853 144.721 126.923 143.808C126.923 143.749 127.144 141.423 128.027 140.755C128.749 140.196 130.455 139.931 131.378 140.274C132.211 140.579 133.416 141.58 133.576 142.493C133.757 143.514 132.924 144.986 132.302 145.467V145.458Z" fill="#F38399"/>
<path d="M180.451 144.977C180.009 144.201 178.293 143.445 176.326 142.876C178.353 142.228 180.009 140.991 179.838 138.665C179.688 136.574 177.761 134.208 177.761 134.208C177.761 134.208 175.353 130.693 173.085 130.988C172.573 131.057 171.921 131.498 171.218 132.156C171.128 131.057 170.606 130.065 169.412 129.349C167.586 128.249 164.495 128.406 164.495 128.406C164.495 128.406 160.17 128.279 159.096 130.252C158.715 130.949 158.905 132.441 159.347 134.11C157.751 132.755 155.845 132.029 153.898 133.344C152.132 134.542 151.038 137.359 151.038 137.359C151.038 137.359 149.181 141.178 150.586 142.935C150.998 143.445 152.081 143.838 153.426 144.103C151.841 144.761 150.666 145.9 150.737 147.843C150.807 149.944 152.633 152.379 152.633 152.379C152.633 152.379 154.901 155.981 157.179 155.775C157.952 155.706 159.096 154.784 160.24 153.557C160.029 155.098 160.431 156.551 162.026 157.503C163.863 158.593 166.943 158.426 166.943 158.426C166.943 158.426 171.268 158.534 172.332 156.561C172.613 156.05 172.573 155.088 172.352 153.949C173.316 154.411 174.399 154.489 175.604 153.93C177.54 153.027 179.086 150.405 179.086 150.405C179.086 150.405 181.544 146.93 180.441 144.967L180.451 144.977ZM164.154 146.44C163.321 146.125 161.966 145.055 162.036 144.142C162.036 144.083 162.257 141.757 163.14 141.089C163.863 140.53 165.569 140.265 166.492 140.608C167.325 140.913 168.529 141.914 168.689 142.827C168.87 143.848 168.037 145.32 167.415 145.801C166.462 146.547 164.675 146.646 164.154 146.449V146.44Z" fill="#F38399"/>
<path d="M218.584 144.977C218.143 144.201 216.427 143.445 214.46 142.876C216.487 142.228 218.143 140.991 217.972 138.665C217.822 136.574 215.895 134.208 215.895 134.208C215.895 134.208 213.487 130.693 211.219 130.988C210.707 131.057 210.055 131.498 209.352 132.156C209.262 131.057 208.74 130.065 207.546 129.349C205.719 128.249 202.629 128.406 202.629 128.406C202.629 128.406 198.303 128.279 197.23 130.252C197.159 130.379 197.119 130.536 197.079 130.713C200.862 133.697 199.638 141.305 193.406 141.305C191.138 141.305 189.533 140.294 188.589 138.861C188.198 140.127 187.877 141.894 188.71 142.945C189.121 143.455 190.205 143.848 191.55 144.113C189.964 144.771 188.79 145.909 188.86 147.853C188.931 149.954 190.757 152.388 190.757 152.388C190.757 152.388 193.025 155.991 195.303 155.785C196.076 155.716 197.22 154.794 198.364 153.566C198.153 155.108 198.554 156.561 200.15 157.513C201.986 158.602 205.067 158.436 205.067 158.436C205.067 158.436 209.392 158.544 210.456 156.57C210.667 156.188 210.697 155.549 210.606 154.784C209.784 155.245 208.79 155.52 207.616 155.52C202.297 155.52 200.632 149.993 202.598 146.508C202.468 146.489 202.348 146.469 202.267 146.44C201.434 146.125 200.08 145.055 200.15 144.142C200.15 144.083 200.371 141.757 201.254 141.089C201.976 140.53 203.682 140.265 204.605 140.608C205.438 140.913 206.643 141.914 206.803 142.827C206.853 143.131 206.803 143.465 206.723 143.809C207.014 143.769 207.305 143.75 207.616 143.75C213.808 143.75 215.042 151.24 211.359 154.273C212.092 154.42 212.874 154.352 213.717 153.949C215.654 153.046 217.2 150.425 217.2 150.425C217.2 150.425 219.658 146.95 218.554 144.987L218.584 144.977Z" fill="#F38399"/>
<path d="M6.7535 165.504C7.99785 166.829 9.10172 168.351 10.6371 169.333C12.2728 170.373 14.1494 170.687 15.6848 171.964C15.745 172.013 15.8052 172.072 15.8654 172.121C16.7987 171.394 17.3807 170.383 17.2803 168.95C17.1298 166.859 15.2031 164.493 15.2031 164.493C15.2031 164.493 12.7946 160.979 10.5267 161.273C10.0149 161.342 9.36263 161.784 8.66017 162.441C8.56985 161.342 8.04803 160.35 6.85385 159.634C5.02745 158.534 1.93664 158.691 1.93664 158.691C1.93664 158.691 1.43488 158.682 0.732422 158.74C2.88997 160.831 4.70633 163.325 6.74346 165.494L6.7535 165.504Z" fill="#F38399"/>
<path d="M23.1039 170.932C31.1722 167.82 40.4647 169.921 48.7236 170.961C49.7572 171.089 50.7908 171.315 51.7642 171.639C52.2058 171.011 52.4567 170.255 52.3864 169.293C52.2359 167.202 50.3091 164.836 50.3091 164.836C50.3091 164.836 47.9007 161.321 45.6328 161.616C45.121 161.685 44.4687 162.126 43.7662 162.784C43.6759 161.685 43.1541 160.693 41.9599 159.977C40.1335 158.877 37.0427 159.034 37.0427 159.034C37.0427 159.034 32.7176 158.906 31.6438 160.88C31.2625 161.577 31.4531 163.069 31.8947 164.738C30.2991 163.383 28.3924 162.656 26.4456 163.972C24.6794 165.17 23.5856 167.987 23.5856 167.987C23.5856 167.987 22.8229 169.548 22.6523 171.138C22.8029 171.069 22.9434 170.991 23.0939 170.922L23.1039 170.932Z" fill="#F38399"/>
<path d="M63.1312 170.363C63.9039 170.372 64.7669 170.461 65.6701 170.539C68.9516 169.253 72.6545 168.733 75.8256 168.87C76.5984 168.9 77.3108 169.047 77.9431 169.283C78.6656 167.378 79.5788 165.552 80.7228 164.011C81.0841 163.52 81.4855 163.098 81.9069 162.735C81.7966 161.655 81.2848 160.683 80.1106 159.977C78.2843 158.877 75.1934 159.034 75.1934 159.034C75.1934 159.034 70.8683 158.906 69.7945 160.88C69.4132 161.577 69.6039 163.069 70.0454 164.738C68.4498 163.383 66.5432 162.656 64.5963 163.972C62.8302 165.17 61.7363 167.987 61.7363 167.987C61.7363 167.987 61.1041 169.283 60.8633 170.716C61.5256 170.471 62.2883 170.343 63.1413 170.353L63.1312 170.363Z" fill="#F38399"/>
<path d="M97.5396 171.108C99.7875 171.295 101.805 172.021 103.852 172.669C104.514 172.473 105.257 172.385 106.11 172.453C107.103 172.532 108.097 172.591 109.09 172.64C109.241 172.267 109.431 171.943 109.682 171.747C110.405 171.187 112.111 170.922 113.034 171.266C113.666 171.501 114.509 172.129 114.951 172.817C117.7 172.875 120.45 172.954 123.209 173.229C123.27 173.229 123.32 173.229 123.38 173.219C123.38 173.229 123.38 173.239 123.38 173.248C123.46 173.248 123.541 173.268 123.621 173.278C125.287 172.571 126.531 171.373 126.381 169.341C126.23 167.25 124.303 164.885 124.303 164.885C124.303 164.885 121.895 161.37 119.627 161.665C119.115 161.733 118.463 162.175 117.76 162.833C117.67 161.733 117.148 160.742 115.954 160.025C114.128 158.926 111.037 159.083 111.037 159.083C111.037 159.083 106.712 158.955 105.638 160.928C105.257 161.625 105.447 163.118 105.889 164.786C104.293 163.432 102.387 162.705 100.44 164.021C98.6736 165.218 97.5798 168.036 97.5798 168.036C97.5798 168.036 96.8372 169.567 96.6465 171.138C96.9375 171.108 97.2285 171.099 97.5396 171.118V171.108Z" fill="#F38399"/>
<path d="M145.067 171.904C145.89 171.472 147.315 171.285 148.138 171.59C148.419 171.698 148.74 171.884 149.051 172.11C150.305 172.061 151.52 171.874 152.674 171.462C155.614 170.412 158.615 169.823 161.294 171.158C161.444 170.716 161.515 170.215 161.475 169.656C161.324 167.565 159.397 165.199 159.397 165.199C159.397 165.199 156.989 161.685 154.721 161.979C154.209 162.048 153.557 162.49 152.854 163.147C152.764 162.048 152.242 161.056 151.048 160.34C149.222 159.24 146.131 159.397 146.131 159.397C146.131 159.397 141.806 159.27 140.732 161.243C140.351 161.94 140.541 163.432 140.983 165.101C139.387 163.746 137.481 163.02 135.534 164.335C133.768 165.533 132.674 168.35 132.674 168.35C132.674 168.35 131.881 169.98 131.73 171.609C135.885 170.176 140.581 171.364 145.057 171.894L145.067 171.904Z" fill="#F38399"/>
<path d="M179.055 165.042C179.567 165.562 179.968 166.112 180.289 166.681C181.915 167.928 184.564 168.713 186.13 169.41C189.582 170.961 193.044 173.347 196.938 173.504C196.968 173.504 196.998 173.514 197.028 173.524C198.613 172.807 199.777 171.629 199.627 169.666C199.476 167.575 197.55 165.209 197.55 165.209C197.55 165.209 195.141 161.694 192.873 161.989C192.361 162.058 191.709 162.499 191.007 163.157C190.916 162.058 190.395 161.066 189.2 160.35C187.374 159.25 184.283 159.407 184.283 159.407C184.283 159.407 179.958 159.28 178.884 161.253C178.503 161.95 178.694 163.442 179.135 165.111C179.105 165.091 179.085 165.071 179.055 165.052V165.042Z" fill="#F38399"/>
<path d="M252.385 91.7409C249.706 91.2599 247.047 90.1015 244.678 88.9628C242.15 87.7553 239.781 86.6755 236.941 86.2926C233.841 85.8705 230.82 86.273 227.779 85.4189C227.779 85.468 227.779 85.5073 227.779 85.5564C227.85 87.6572 229.676 90.0917 229.676 90.0917C229.676 90.0917 231.944 93.6944 234.222 93.4883C234.995 93.4196 236.139 92.4968 237.283 91.2697C237.072 92.8109 237.473 94.2638 239.069 95.216C240.905 96.3057 243.986 96.1388 243.986 96.1388C243.986 96.1388 248.311 96.2468 249.375 94.2736C249.656 93.7632 249.616 92.8011 249.395 91.6624C250.288 92.0845 251.292 92.1827 252.385 91.7409Z" fill="#F38399"/>
<path d="M240.412 115.075C239.97 114.3 238.254 113.544 236.287 112.975C238.314 112.327 239.97 111.09 239.799 108.763C239.649 106.672 237.722 104.307 237.722 104.307C237.722 104.307 235.314 100.792 233.046 101.087C232.534 101.155 231.882 101.597 231.179 102.255C231.089 101.155 230.567 100.164 229.373 99.4472C227.547 98.3478 224.456 98.5048 224.456 98.5048C224.456 98.5048 220.131 98.3772 219.057 100.35C218.675 101.047 218.866 102.539 219.308 104.208C217.712 102.854 215.805 102.127 213.859 103.443C212.092 104.64 210.999 107.458 210.999 107.458C210.999 107.458 209.142 111.276 210.547 113.034C210.958 113.544 212.042 113.937 213.387 114.202C211.801 114.859 210.627 115.998 210.698 117.942C210.768 120.043 212.594 122.477 212.594 122.477C212.594 122.477 214.862 126.08 217.14 125.874C217.913 125.805 219.057 124.882 220.201 123.655C219.99 125.196 220.392 126.649 221.987 127.602C223.824 128.691 226.904 128.524 226.904 128.524C226.904 128.524 231.229 128.632 232.293 126.659C232.574 126.149 232.534 125.187 232.313 124.048C233.277 124.509 234.36 124.588 235.565 124.028C237.501 123.125 239.047 120.504 239.047 120.504C239.047 120.504 241.505 117.029 240.402 115.066L240.412 115.075ZM224.125 116.538C223.292 116.224 221.937 115.154 222.007 114.241C222.007 114.182 222.228 111.856 223.111 111.188C223.834 110.628 225.54 110.363 226.463 110.707C227.296 111.011 228.5 112.013 228.66 112.926C228.841 113.947 228.008 115.419 227.386 115.9C226.433 116.646 224.646 116.744 224.125 116.548V116.538Z" fill="#F38399"/>
<path d="M257.289 145.301C256.847 144.526 255.131 143.77 253.164 143.2C255.191 142.552 256.847 141.315 256.676 138.989C256.526 136.898 254.599 134.532 254.599 134.532C254.599 134.532 252.191 131.018 249.923 131.312C249.411 131.381 248.759 131.823 248.056 132.48C247.966 131.381 247.444 130.389 246.25 129.673C244.423 128.573 241.333 128.73 241.333 128.73C241.333 128.73 237.008 128.603 235.934 130.576C235.552 131.273 235.743 132.765 236.185 134.434C234.589 133.079 232.682 132.353 230.736 133.668C228.969 134.866 227.876 137.683 227.876 137.683C227.876 137.683 226.019 141.502 227.424 143.259C227.835 143.77 228.919 144.162 230.264 144.427C228.678 145.085 227.504 146.224 227.575 148.168C227.645 150.268 229.471 152.703 229.471 152.703C229.471 152.703 231.739 156.306 234.017 156.099C234.79 156.031 235.934 155.108 237.078 153.881C236.867 155.422 237.268 156.875 238.864 157.827C240.7 158.917 243.781 158.75 243.781 158.75C243.781 158.75 248.106 158.858 249.17 156.885C249.451 156.374 249.411 155.412 249.19 154.274C250.154 154.735 251.237 154.813 252.442 154.254C254.378 153.351 255.924 150.73 255.924 150.73C255.924 150.73 258.382 147.255 257.278 145.291L257.289 145.301ZM240.991 146.754C240.159 146.44 238.804 145.37 238.874 144.457C238.874 144.398 239.095 142.071 239.978 141.404C240.7 140.844 242.406 140.579 243.33 140.923C244.163 141.227 245.367 142.228 245.527 143.141C245.708 144.162 244.875 145.635 244.253 146.116C243.3 146.862 241.513 146.96 240.991 146.764V146.754Z" fill="#F38399"/>
<path d="M220.352 171.816C226.333 171.669 232.324 171.011 238.315 170.55C238.325 170.363 238.345 170.176 238.325 169.97C238.174 167.879 236.248 165.514 236.248 165.514C236.248 165.514 233.839 161.999 231.571 162.294C231.06 162.362 230.407 162.804 229.705 163.462C229.614 162.362 229.093 161.371 227.898 160.654C226.072 159.555 222.981 159.712 222.981 159.712C222.981 159.712 218.656 159.584 217.582 161.557C217.201 162.254 217.392 163.747 217.833 165.415C216.238 164.061 214.331 163.334 212.384 164.65C210.618 165.847 209.524 168.665 209.524 168.665C209.524 168.665 208.571 170.638 208.551 172.395C212.374 171.688 216.308 171.894 220.342 171.796L220.352 171.816Z" fill="#F38399"/>
<path d="M257.503 122.418C256.439 117.49 258.406 112.425 257.041 107.664C256.268 104.974 257.352 102.853 259.138 101.607C258.858 100.704 258.536 99.82 258.235 98.9365C257.693 99.2016 257.232 99.555 256.971 100.036C256.59 100.733 256.78 102.225 257.222 103.894C255.626 102.539 253.72 101.813 251.773 103.128C250.007 104.326 248.913 107.143 248.913 107.143C248.913 107.143 247.056 110.962 248.461 112.719C248.873 113.23 249.956 113.622 251.301 113.887C249.716 114.545 248.541 115.684 248.612 117.628C248.682 119.728 250.508 122.163 250.508 122.163C250.508 122.163 252.776 125.766 255.054 125.559C255.757 125.491 256.76 124.735 257.794 123.675C257.693 123.243 257.603 122.811 257.513 122.398L257.503 122.418Z" fill="#F38399"/>
<path d="M260.98 99.0972L259.846 96.4663L249.61 86.4434L246.991 85.4028L215.591 85.3832H210.483C210.624 85.4715 210.764 85.5795 210.895 85.7071C211.898 86.6888 211.898 88.2791 210.895 89.251C209.891 90.2228 208.265 90.2228 207.272 89.251C206.268 88.2693 206.268 86.679 207.272 85.7071C207.392 85.5893 207.533 85.4814 207.673 85.393H185.415L182.937 86.414L173.554 95.6024L164.352 86.6201L161.953 85.6581L100.157 85.5893L97.7687 86.571L88.4762 95.6515L79.1872 87.5331L87.57 78.3741L88.5635 76.1457L88.4932 15.5569L87.5299 13.3089L79.0532 3.07984L76.6648 2.1178L14.9789 2L12.2895 3.10929L2.06372 13.0831L1 15.6452C1 20.6419 1.02007 25.6387 1.03011 30.6255C1.03011 35.8677 1.05018 41.1098 1.06021 46.3519C1.06021 48.011 1.06021 49.67 1.07025 51.329C1.16056 51.1916 1.27095 51.064 1.39137 50.9363C2.38485 49.9645 4.01054 49.9645 5.01405 50.9363C6.01756 51.9082 6.01756 53.5083 5.01405 54.4802C4.02057 55.452 2.38485 55.452 1.39137 54.4802C1.27095 54.3624 1.16056 54.2249 1.07025 54.0875V59.0842L1.11039 75.8708L2.15404 78.2955L11.4867 87.4153L2.2845 96.4172L1.15053 99.0481L1.27095 159.391L2.25439 161.728L12.711 171.976L15.009 172.929L76.9458 172.997L79.2238 172.026L88.5063 162.925L97.6984 171.908L100.388 173.017L162.074 173.037L164.462 172.075L173.875 162.886L183.067 171.888L185.345 172.87L247.272 172.938L249.57 171.996L260.017 161.767L261 159.431L260.98 99.0873V99.0972ZM6.28851 75.9101L5.90718 75.0266L5.8871 59.0842C6.87055 58.7701 7.79378 58.2302 8.56648 57.4645C11.2358 54.8532 11.2358 50.6026 8.56648 47.9815C7.78374 47.2158 6.85048 46.6661 5.857 46.3519C5.857 41.9344 5.84696 37.5071 5.83693 33.0895C5.83693 32.4613 5.83693 30.3605 5.83693 27.8081C5.83693 23.8716 5.82689 18.8553 5.81686 16.4698L6.2283 15.4587L15.2298 6.63349L16.3437 6.18192L76.3136 6.28991L77.1264 6.61386L84.4089 15.6845L84.71 16.3913V75.0266L84.4691 75.9395L75.705 85.4814H60.0467C59.7255 84.4997 59.1636 83.5867 58.3708 82.8112C55.6914 80.2 51.3562 80.1901 48.6769 82.8112C47.8941 83.5769 47.3422 84.4801 47.0211 85.4421L16.2634 85.393L16.2935 85.2556L15.4807 84.9218L6.26844 75.9297L6.28851 75.9101ZM54.8485 89.3197C53.855 90.2916 52.2293 90.2916 51.2258 89.3197C50.2223 88.3478 50.2223 86.7477 51.2258 85.7759C52.2193 84.804 53.855 84.804 54.8485 85.7759C55.8419 86.7477 55.852 88.3478 54.8485 89.3197ZM86.3487 158.645L86.0176 159.44L76.7652 168.511L76.0527 168.806L15.8921 168.747L15.1696 168.452L5.89714 159.372L5.56598 158.577L5.45559 99.9119L5.91721 98.8223L14.9288 90.0069L15.9624 89.5946L46.5193 89.6437C46.8404 90.6155 47.3924 91.5285 48.1851 92.2942C50.8645 94.9152 55.2097 94.9152 57.8791 92.2942C58.6518 91.5383 59.2037 90.6351 59.5349 89.6731L74.8319 89.6927L75.7351 90.0658L86.3688 99.4996V115.894C85.3853 116.208 84.4521 116.748 83.6693 117.513C81 120.125 81 124.375 83.6693 126.996C84.4521 127.762 85.3753 128.302 86.3688 128.616L86.3889 158.655H86.3387L86.3487 158.645ZM86.71 124.022C85.7065 123.05 85.7065 121.45 86.71 120.478C87.7035 119.506 89.3291 119.506 90.3327 120.478C91.3362 121.45 91.3362 123.05 90.3327 124.022C89.3291 124.994 87.7035 124.994 86.71 124.022ZM171.306 159.48L162.054 168.521L161.251 168.845L101.281 168.825L100.157 168.364L91.1154 159.529L91.0853 159.45L90.6939 158.518L90.6739 128.626C91.6673 128.312 92.6006 127.772 93.3833 127.006C96.0527 124.395 96.0527 120.144 93.3833 117.523C92.6006 116.757 91.6673 116.218 90.6839 115.894V99.9512L90.8946 99.4407L90.9448 99.3229L91.0452 99.0775L100.227 90.105L101.04 89.7713L161.12 89.8302L161.933 90.1541L171.226 99.2248L171.537 99.9218L171.597 158.783L171.296 159.48H171.306ZM256.384 159.401L247.141 168.452L246.429 168.747L186.268 168.678L185.556 168.374L176.283 159.283L175.952 158.478L175.892 99.7058L176.233 98.9106L185.405 89.9283L186.309 89.5651H202.606C202.927 90.5272 203.479 91.4401 204.261 92.2058C206.941 94.8171 211.286 94.8269 213.955 92.2058C214.738 91.4401 215.29 90.537 215.611 89.5651L246.168 89.5847L247.202 89.9971L256.233 98.8419L256.705 99.9414L256.725 158.606L256.394 159.391L256.384 159.401Z" fill="#823680"/>
<path d="M71.0829 19.4642C68.4036 16.8432 64.0583 16.8432 61.389 19.4642C60.6063 20.2299 60.0543 21.1331 59.7332 22.1049L44.3694 22.0853C44.0483 21.1134 43.4964 20.2103 42.7036 19.4348C40.0242 16.8235 35.6891 16.8137 33.0097 19.4348C30.3303 22.0558 30.3403 26.2967 33.0097 28.9177C35.6891 31.5388 40.0343 31.5388 42.7036 28.9177C43.4863 28.152 44.0383 27.2489 44.3594 26.277L59.7131 26.2967C60.0343 27.2587 60.5862 28.1717 61.379 28.9472C64.0583 31.5584 68.3935 31.5682 71.0729 28.9472C73.7422 26.3359 73.7422 22.0853 71.0729 19.4642H71.0829ZM39.683 25.9433C38.6896 26.9151 37.0639 26.9151 36.0604 25.9433C35.0568 24.9714 35.0568 23.3713 36.0604 22.3994C37.0538 21.4276 38.6896 21.4276 39.683 22.3994C40.6765 23.3713 40.6865 24.9714 39.683 25.9433ZM68.0624 25.9825C67.0689 26.9544 65.4332 26.9544 64.4397 25.9825C63.4462 25.0107 63.4362 23.4105 64.4397 22.4387C65.4432 21.4668 67.0689 21.4668 68.0624 22.4387C69.0659 23.4204 69.0659 25.0107 68.0624 25.9825Z" fill="#823680"/>
<path d="M71.0653 135.056C68.3959 132.435 64.0507 132.435 61.3714 135.056C58.702 137.667 58.702 141.918 61.3714 144.539C62.1641 145.314 63.1175 145.864 64.121 146.178V151.901H58.6518C58.3508 150.811 57.7587 149.771 56.8756 148.907C54.2063 146.286 49.8611 146.286 47.1817 148.907C44.5124 151.518 44.5124 155.769 47.1817 158.39C49.851 161.011 54.1962 161.011 56.8756 158.39C57.558 157.722 58.0698 156.937 58.401 156.093H68.396V146.149C69.3694 145.834 70.2725 145.294 71.0452 144.539C73.7146 141.927 73.7146 137.677 71.0452 135.056H71.0653ZM53.8751 155.416C52.8816 156.387 51.2459 156.387 50.2524 155.416C49.259 154.444 49.2489 152.844 50.2524 151.872C51.256 150.9 52.8816 150.9 53.8751 151.872C54.8686 152.844 54.8786 154.444 53.8751 155.416ZM68.0447 141.574C67.0512 142.546 65.4155 142.546 64.422 141.574C63.4286 140.602 63.4185 139.002 64.422 138.03C65.4155 137.048 67.0412 137.058 68.0447 138.03C69.0482 139.002 69.0482 140.602 68.0447 141.574Z" fill="#823680"/>
<path d="M156.544 149.525C153.865 146.914 149.519 146.904 146.85 149.525C146.067 150.291 145.515 151.194 145.194 152.166L129.831 152.147C129.509 151.184 128.947 150.272 128.165 149.506C125.485 146.885 121.15 146.885 118.471 149.506C115.801 152.117 115.801 156.368 118.471 158.989C121.14 161.61 125.485 161.61 128.165 158.989C128.947 158.223 129.499 157.31 129.82 156.348L145.174 156.368C145.495 157.33 146.047 158.243 146.84 159.008C149.519 161.629 153.855 161.629 156.534 159.008C159.203 156.397 159.203 152.147 156.534 149.525H156.544ZM125.144 156.014C124.151 156.986 122.525 156.986 121.521 156.014C120.518 155.042 120.518 153.442 121.521 152.47C122.515 151.499 124.151 151.499 125.144 152.47C126.138 153.442 126.148 155.042 125.144 156.014ZM153.513 156.044C152.52 157.016 150.884 157.016 149.891 156.044C148.897 155.072 148.887 153.472 149.891 152.5C150.884 151.528 152.52 151.528 153.513 152.5C154.507 153.472 154.517 155.072 153.513 156.044Z" fill="#823680"/>
<path d="M213.554 145.246C210.885 142.634 206.54 142.634 203.86 145.246C203.068 146.021 202.506 146.954 202.185 147.935H196.344V142.585C197.458 142.291 198.522 141.712 199.405 140.848C202.084 138.227 202.084 133.986 199.405 131.365C196.735 128.753 192.39 128.753 189.711 131.365C187.042 133.986 187.031 138.236 189.711 140.848C190.393 141.515 191.196 142.016 192.059 142.34V152.117H202.225C202.546 153.069 203.098 153.953 203.87 154.709C206.54 157.32 210.885 157.32 213.564 154.709C216.244 152.098 216.244 147.847 213.564 145.226L213.554 145.246ZM192.741 137.903C191.748 136.931 191.748 135.34 192.741 134.359C193.735 133.377 195.371 133.377 196.364 134.359C197.358 135.34 197.358 136.931 196.364 137.903C195.371 138.874 193.735 138.884 192.741 137.903ZM210.514 151.764C209.51 152.745 207.884 152.745 206.891 151.764C205.898 150.792 205.898 149.202 206.891 148.22C207.884 147.238 209.52 147.238 210.514 148.22C211.507 149.192 211.507 150.792 210.514 151.764Z" fill="#823680"/>
<path d="M259.98 98.0044L258.846 95.3735L248.61 85.3506L245.991 84.3101L214.591 84.2904H209.483C209.624 84.3788 209.764 84.4868 209.895 84.6144C210.898 85.596 210.898 87.1864 209.895 88.1582C208.891 89.1301 207.265 89.1301 206.272 88.1582C205.268 87.1765 205.268 85.5862 206.272 84.6144C206.392 84.4966 206.533 84.3886 206.673 84.3002H184.415L181.937 85.3212L172.554 94.5096L163.352 85.5273L160.953 84.5653L99.157 84.4966L96.7687 85.4782L87.4762 94.5587L78.1872 86.4403L86.57 77.2813L87.5635 75.0529L87.4932 14.4641L86.5299 12.2161L78.0532 1.98707L75.6648 1.02503L13.9789 0.907227L11.2895 2.01652L1.06372 11.9903L0 14.5525C0 19.5492 0.0200702 24.5459 0.0301054 29.5328C0.0301054 34.7749 0.0501756 40.017 0.0602107 45.2592C0.0602107 46.9182 0.0602107 48.5772 0.0702459 50.2362C0.160562 50.0988 0.270948 49.9712 0.39137 49.8436C1.38485 48.8717 3.01054 48.8717 4.01405 49.8436C5.01756 50.8154 5.01756 52.4155 4.01405 53.3874C3.02057 54.3592 1.38485 54.3592 0.39137 53.3874C0.270948 53.2696 0.160562 53.1322 0.0702459 52.9947V57.9914L0.110386 74.778L1.15404 77.2028L10.4867 86.3225L1.2845 95.3244L0.150527 97.9553L0.270948 158.299L1.25439 160.635L11.711 170.884L14.009 171.836L75.9458 171.905L78.2238 170.933L87.5063 161.833L96.6984 170.815L99.3879 171.924L161.074 171.944L163.462 170.982L172.875 161.793L182.067 170.795L184.345 171.777L246.272 171.846L248.57 170.903L259.017 160.674L260 158.338L259.98 97.9946V98.0044ZM5.28851 74.8173L4.90718 73.9338L4.8871 57.9914C5.87055 57.6773 6.79378 57.1374 7.56648 56.3717C10.2358 53.7604 10.2358 49.5098 7.56648 46.8887C6.78374 46.123 5.85048 45.5733 4.857 45.2592C4.857 40.8416 4.84696 36.4143 4.83693 31.9968C4.83693 31.3685 4.83693 29.2677 4.83693 26.7154C4.83693 22.7789 4.82689 17.7625 4.81686 15.3771L5.2283 14.3659L14.2298 5.54072L15.3437 5.08915L75.3136 5.19713L76.1264 5.52108L83.4089 14.5917L83.71 15.2985L83.7802 74.1497L83.4691 74.8467L74.705 84.3886H59.0467C58.7255 83.4069 58.1636 82.494 57.3708 81.7184C54.6914 79.1072 50.3562 79.0974 47.6769 81.7184C46.8941 82.4841 46.3422 83.3873 46.0211 84.3493L15.2634 84.3002L15.2935 84.1628L14.4807 83.829L5.26844 74.8369L5.28851 74.8173ZM53.8485 88.2269C52.855 89.1988 51.2293 89.1988 50.2258 88.2269C49.2223 87.2551 49.2223 85.6549 50.2258 84.6831C51.2193 83.7112 52.855 83.7112 53.8485 84.6831C54.8419 85.6549 54.852 87.2551 53.8485 88.2269ZM85.3487 157.553L85.0176 158.348L75.7652 167.418L75.0527 167.713L14.8921 167.654L14.1696 167.359L4.89714 158.279L4.56598 157.484L4.45559 98.8192L4.91721 97.7295L13.9288 88.9141L14.9624 88.5018L45.5193 88.5509C45.8404 89.5227 46.3924 90.4357 47.1851 91.2014C49.8645 93.8225 54.2097 93.8225 56.8791 91.2014C57.6518 90.4455 58.2037 89.5424 58.5349 88.5803L73.8319 88.6L74.7351 88.973L85.3688 98.4069V114.801C84.3853 115.115 83.4521 115.655 82.6693 116.421C80 119.032 80 123.282 82.6693 125.903C83.4521 126.669 84.3753 127.209 85.3688 127.523L85.3889 157.562H85.3387L85.3487 157.553ZM85.71 122.929C84.7065 121.957 84.7065 120.357 85.71 119.385C86.7035 118.413 88.3291 118.413 89.3327 119.385C90.3362 120.357 90.3362 121.957 89.3327 122.929C88.3291 123.901 86.7035 123.901 85.71 122.929ZM170.306 158.387L161.054 167.428L160.251 167.752L100.281 167.733L99.157 167.271L90.1154 158.436L90.0853 158.358L89.6939 157.425L89.6739 127.533C90.6673 127.219 91.6006 126.679 92.3833 125.913C95.0527 123.302 95.0527 119.051 92.3833 116.43C91.6006 115.665 90.6673 115.125 89.6839 114.801V98.8584L89.8946 98.348L89.9448 98.2302L90.0452 97.9847L99.2273 89.0123L100.04 88.6785L160.12 88.7374L160.933 89.0613L170.226 98.132L170.537 98.829L170.597 157.69L170.296 158.387H170.306ZM255.384 158.308L246.141 167.359L245.429 167.654L185.268 167.585L184.556 167.281L175.283 158.191L174.952 157.386L174.892 98.613L175.233 97.8179L184.405 88.8356L185.309 88.4723H201.606C201.927 89.4344 202.479 90.3473 203.261 91.113C205.941 93.7243 210.286 93.7341 212.955 91.113C213.738 90.3473 214.29 89.4442 214.611 88.4723L245.168 88.492L246.202 88.9043L255.233 97.7491L255.705 98.8486L255.725 157.513L255.394 158.299L255.384 158.308Z" fill="#ED1E79"/>
<path d="M70.0829 18.3714C67.4036 15.7504 63.0583 15.7504 60.389 18.3714C59.6063 19.1372 59.0543 20.0403 58.7332 21.0121L43.3694 20.9925C43.0483 20.0207 42.4964 19.1175 41.7036 18.342C39.0242 15.7308 34.6891 15.7209 32.0097 18.342C29.3303 20.9631 29.3403 25.2039 32.0097 27.8249C34.6891 30.446 39.0343 30.446 41.7036 27.8249C42.4863 27.0592 43.0383 26.1561 43.3594 25.1843L58.7131 25.2039C59.0343 26.1659 59.5862 27.0789 60.379 27.8544C63.0583 30.4656 67.3935 30.4755 70.0729 27.8544C72.7422 25.2432 72.7422 20.9925 70.0729 18.3714H70.0829ZM38.683 24.8505C37.6896 25.8223 36.0639 25.8223 35.0604 24.8505C34.0568 23.8786 34.0568 22.2785 35.0604 21.3066C36.0538 20.3348 37.6896 20.3348 38.683 21.3066C39.6765 22.2785 39.6865 23.8786 38.683 24.8505ZM67.0624 24.8898C66.0689 25.8616 64.4332 25.8616 63.4397 24.8898C62.4462 23.9179 62.4362 22.3178 63.4397 21.3459C64.4432 20.3741 66.0689 20.3741 67.0624 21.3459C68.0659 22.3276 68.0659 23.9179 67.0624 24.8898Z" fill="#ED1E79"/>
<path d="M70.0653 133.963C67.3959 131.342 63.0507 131.342 60.3714 133.963C57.702 136.574 57.702 140.825 60.3714 143.446C61.1641 144.221 62.1175 144.771 63.121 145.085V150.808H57.6518C57.3508 149.719 56.7587 148.678 55.8756 147.814C53.2063 145.193 48.8611 145.193 46.1817 147.814C43.5124 150.426 43.5124 154.676 46.1817 157.297C48.851 159.918 53.1962 159.918 55.8756 157.297C56.558 156.63 57.0698 155.844 57.401 155H67.396V145.056C68.3694 144.742 69.2725 144.202 70.0452 143.446C72.7146 140.835 72.7146 136.584 70.0452 133.963H70.0653ZM52.8751 154.323C51.8816 155.295 50.2459 155.295 49.2524 154.323C48.259 153.351 48.2489 151.751 49.2524 150.779C50.256 149.807 51.8816 149.807 52.8751 150.779C53.8686 151.751 53.8786 153.351 52.8751 154.323ZM67.0447 140.481C66.0512 141.453 64.4155 141.453 63.422 140.481C62.4286 139.509 62.4185 137.909 63.422 136.937C64.4155 135.956 66.0412 135.965 67.0447 136.937C68.0482 137.909 68.0482 139.509 67.0447 140.481Z" fill="#ED1E79"/>
<path d="M155.544 148.433C152.865 145.821 148.519 145.812 145.85 148.433C145.067 149.198 144.515 150.102 144.194 151.073L128.831 151.054C128.509 150.092 127.947 149.179 127.165 148.413C124.485 145.792 120.15 145.792 117.471 148.413C114.801 151.024 114.801 155.275 117.471 157.896C120.14 160.517 124.485 160.517 127.165 157.896C127.947 157.13 128.499 156.217 128.82 155.255L144.174 155.275C144.495 156.237 145.047 157.15 145.84 157.916C148.519 160.537 152.855 160.537 155.534 157.916C158.203 155.304 158.203 151.054 155.534 148.433H155.544ZM124.144 154.922C123.151 155.893 121.525 155.893 120.521 154.922C119.518 153.95 119.518 152.35 120.521 151.378C121.515 150.406 123.151 150.406 124.144 151.378C125.138 152.35 125.148 153.95 124.144 154.922ZM152.513 154.951C151.52 155.923 149.884 155.923 148.891 154.951C147.897 153.979 147.887 152.379 148.891 151.407C149.884 150.435 151.52 150.435 152.513 151.407C153.507 152.379 153.517 153.979 152.513 154.951Z" fill="#ED1E79"/>
<path d="M212.554 144.153C209.885 141.542 205.54 141.542 202.86 144.153C202.068 144.928 201.506 145.861 201.185 146.843H195.344V141.492C196.458 141.198 197.522 140.619 198.405 139.755C201.084 137.134 201.084 132.893 198.405 130.272C195.735 127.661 191.39 127.661 188.711 130.272C186.042 132.893 186.031 137.144 188.711 139.755C189.393 140.422 190.196 140.923 191.059 141.247V151.024H201.225C201.546 151.977 202.098 152.86 202.87 153.616C205.54 156.227 209.885 156.227 212.564 153.616C215.244 151.005 215.244 146.754 212.564 144.133L212.554 144.153ZM191.741 136.81C190.748 135.838 190.748 134.248 191.741 133.266C192.735 132.284 194.371 132.284 195.364 133.266C196.358 134.248 196.358 135.838 195.364 136.81C194.371 137.782 192.735 137.792 191.741 136.81ZM209.514 150.671C208.51 151.653 206.884 151.653 205.891 150.671C204.898 149.699 204.898 148.109 205.891 147.127C206.884 146.146 208.52 146.146 209.514 147.127C210.507 148.099 210.507 149.699 209.514 150.671Z" fill="#ED1E79"/>
<rect x="10.752" y="9.90723" width="68.4211" height="27" rx="9" fill="#D9D9D9"/>
<path d="M15.0514 32.9072V30.3872L21.5314 24.2672C22.0434 23.8032 22.4194 23.3872 22.6594 23.0192C22.8994 22.6512 23.0594 22.3152 23.1394 22.0112C23.2354 21.7072 23.2834 21.4272 23.2834 21.1712C23.2834 20.4992 23.0514 19.9872 22.5874 19.6352C22.1394 19.2672 21.4754 19.0832 20.5954 19.0832C19.8914 19.0832 19.2354 19.2192 18.6274 19.4912C18.0354 19.7632 17.5314 20.1872 17.1154 20.7632L14.2834 18.9392C14.9234 17.9792 15.8194 17.2192 16.9714 16.6592C18.1234 16.0992 19.4514 15.8192 20.9554 15.8192C22.2034 15.8192 23.2914 16.0272 24.2194 16.4432C25.1634 16.8432 25.8914 17.4112 26.4034 18.1472C26.9314 18.8832 27.1954 19.7632 27.1954 20.7872C27.1954 21.3312 27.1234 21.8752 26.9794 22.4192C26.8514 22.9472 26.5794 23.5072 26.1634 24.0992C25.7634 24.6912 25.1714 25.3552 24.3874 26.0912L19.0114 31.1552L18.2674 29.7392H27.7474V32.9072H15.0514ZM36.5516 33.1952C35.1756 33.1952 33.9436 32.8592 32.8556 32.1872C31.7676 31.4992 30.9116 30.5072 30.2876 29.2112C29.6636 27.9152 29.3516 26.3472 29.3516 24.5072C29.3516 22.6672 29.6636 21.0992 30.2876 19.8032C30.9116 18.5072 31.7676 17.5232 32.8556 16.8512C33.9436 16.1632 35.1756 15.8192 36.5516 15.8192C37.9436 15.8192 39.1756 16.1632 40.2476 16.8512C41.3356 17.5232 42.1916 18.5072 42.8156 19.8032C43.4396 21.0992 43.7516 22.6672 43.7516 24.5072C43.7516 26.3472 43.4396 27.9152 42.8156 29.2112C42.1916 30.5072 41.3356 31.4992 40.2476 32.1872C39.1756 32.8592 37.9436 33.1952 36.5516 33.1952ZM36.5516 29.9072C37.2076 29.9072 37.7756 29.7232 38.2556 29.3552C38.7516 28.9872 39.1356 28.4032 39.4076 27.6032C39.6956 26.8032 39.8396 25.7712 39.8396 24.5072C39.8396 23.2432 39.6956 22.2112 39.4076 21.4112C39.1356 20.6112 38.7516 20.0272 38.2556 19.6592C37.7756 19.2912 37.2076 19.1072 36.5516 19.1072C35.9116 19.1072 35.3436 19.2912 34.8476 19.6592C34.3676 20.0272 33.9836 20.6112 33.6956 21.4112C33.4236 22.2112 33.2876 23.2432 33.2876 24.5072C33.2876 25.7712 33.4236 26.8032 33.6956 27.6032C33.9836 28.4032 34.3676 28.9872 34.8476 29.3552C35.3436 29.7232 35.9116 29.9072 36.5516 29.9072ZM48.1389 32.9072V17.5472L49.8189 19.2272H44.7789V16.1072H52.0269V32.9072H48.1389ZM62.4574 33.1952C60.9214 33.1952 59.5854 32.8752 58.4494 32.2352C57.3294 31.5952 56.4654 30.6592 55.8574 29.4272C55.2494 28.1952 54.9454 26.6752 54.9454 24.8672C54.9454 22.9312 55.3054 21.2912 56.0254 19.9472C56.7614 18.6032 57.7694 17.5792 59.0494 16.8752C60.3454 16.1712 61.8334 15.8192 63.5134 15.8192C64.4094 15.8192 65.2654 15.9152 66.0814 16.1072C66.8974 16.2992 67.6014 16.5872 68.1934 16.9712L66.7534 19.8272C66.2894 19.5072 65.7934 19.2912 65.2654 19.1792C64.7374 19.0512 64.1854 18.9872 63.6094 18.9872C62.1534 18.9872 61.0014 19.4272 60.1534 20.3072C59.3054 21.1872 58.8814 22.4912 58.8814 24.2192C58.8814 24.5072 58.8814 24.8272 58.8814 25.1792C58.8974 25.5312 58.9454 25.8832 59.0254 26.2352L57.9454 25.2272C58.2494 24.6032 58.6414 24.0832 59.1214 23.6672C59.6014 23.2352 60.1694 22.9152 60.8254 22.7072C61.4974 22.4832 62.2334 22.3712 63.0334 22.3712C64.1214 22.3712 65.0974 22.5872 65.9614 23.0192C66.8254 23.4512 67.5134 24.0592 68.0254 24.8432C68.5534 25.6272 68.8174 26.5472 68.8174 27.6032C68.8174 28.7392 68.5294 29.7312 67.9534 30.5792C67.3934 31.4112 66.6334 32.0592 65.6734 32.5232C64.7294 32.9712 63.6574 33.1952 62.4574 33.1952ZM62.2414 30.2912C62.7854 30.2912 63.2654 30.1952 63.6814 30.0032C64.1134 29.7952 64.4494 29.4992 64.6894 29.1152C64.9294 28.7312 65.0494 28.2912 65.0494 27.7952C65.0494 27.0272 64.7854 26.4192 64.2574 25.9712C63.7454 25.5072 63.0574 25.2752 62.1934 25.2752C61.6174 25.2752 61.1134 25.3872 60.6814 25.6112C60.2494 25.8192 59.9054 26.1152 59.6494 26.4992C59.4094 26.8672 59.2894 27.2992 59.2894 27.7952C59.2894 28.2752 59.4094 28.7072 59.6494 29.0912C59.8894 29.4592 60.2254 29.7552 60.6574 29.9792C61.0894 30.1872 61.6174 30.2912 62.2414 30.2912ZM72.3266 33.0032C71.7746 33.0032 71.2426 32.9392 70.7306 32.8112C70.2266 32.6752 69.8266 32.5072 69.5306 32.3072L70.1546 30.9632C70.4506 31.1472 70.7986 31.2992 71.1986 31.4192C71.6066 31.5312 72.0066 31.5872 72.3986 31.5872C72.8306 31.5872 73.1346 31.5352 73.3106 31.4312C73.4946 31.3272 73.5866 31.1832 73.5866 30.9992C73.5866 30.8472 73.5146 30.7352 73.3706 30.6632C73.2346 30.5832 73.0506 30.5232 72.8186 30.4832C72.5866 30.4432 72.3306 30.4032 72.0506 30.3632C71.7786 30.3232 71.5026 30.2712 71.2226 30.2072C70.9426 30.1352 70.6866 30.0312 70.4546 29.8952C70.2226 29.7592 70.0346 29.5752 69.8906 29.3432C69.7546 29.1112 69.6866 28.8112 69.6866 28.4432C69.6866 28.0352 69.8026 27.6752 70.0346 27.3632C70.2746 27.0512 70.6186 26.8072 71.0666 26.6312C71.5146 26.4472 72.0506 26.3552 72.6746 26.3552C73.1146 26.3552 73.5626 26.4032 74.0186 26.4992C74.4746 26.5952 74.8546 26.7352 75.1586 26.9192L74.5346 28.2512C74.2226 28.0672 73.9066 27.9432 73.5866 27.8792C73.2746 27.8072 72.9706 27.7712 72.6746 27.7712C72.2586 27.7712 71.9546 27.8272 71.7626 27.9392C71.5706 28.0512 71.4746 28.1952 71.4746 28.3712C71.4746 28.5312 71.5426 28.6512 71.6786 28.7312C71.8226 28.8112 72.0106 28.8752 72.2426 28.9232C72.4746 28.9712 72.7266 29.0152 72.9986 29.0552C73.2786 29.0872 73.5586 29.1392 73.8386 29.2112C74.1186 29.2832 74.3706 29.3872 74.5946 29.5232C74.8266 29.6512 75.0146 29.8312 75.1586 30.0632C75.3026 30.2872 75.3746 30.5832 75.3746 30.9512C75.3746 31.3512 75.2546 31.7072 75.0146 32.0192C74.7746 32.3232 74.4266 32.5632 73.9706 32.7392C73.5226 32.9152 72.9746 33.0032 72.3266 33.0032Z" fill="#171B48"/>
</svg>
