<svg width="173" height="175" viewBox="0 0 173 175" fill="none" xmlns="http://www.w3.org/2000/svg">
<path d="M168.71 99.4887L168.4 98.7786L159.24 89.6076L158.43 89.2775L99.1597 89.2075L98.3597 89.5476L89.2997 98.6286L88.9297 99.5187V115.641L89.3197 116.251C94.2197 118.121 94.2197 125.962 89.3197 127.832L88.9297 128.522L88.9497 158.766L89.3697 159.796L98.2897 168.737L99.3897 169.197L158.54 169.217L159.33 168.887L168.45 159.746L168.75 159.036L168.68 99.4887H168.71ZM121.04 160.646C113.08 160.646 113.09 148.244 121.04 148.244C128.99 148.244 128.99 160.646 121.04 160.646ZM149.05 160.646C141.09 160.646 141.1 148.244 149.05 148.244C157 148.244 157 160.646 149.05 160.646Z" fill="#E0E0E0"/>
<path d="M168.179 15.6992L167.709 14.5891L158.799 5.63804L157.779 5.21799L127.639 5.19799L126.869 5.58803C126.089 7.69828 124.239 9.36847 121.339 9.36847C118.439 9.36847 116.689 7.79829 115.869 5.76806L114.809 5.18799H98.7292L97.8392 5.55803L88.7892 14.6491L88.4492 15.4492L88.5192 74.906L88.8492 75.7161L97.9892 84.9072L98.6992 85.2172L158.049 85.2872L158.759 84.9872L167.869 75.8261L168.189 75.0261L168.169 15.6692L168.179 15.6992ZM106.959 58.4241C98.9992 58.4241 99.0092 46.0227 106.959 46.0227C114.909 46.0227 114.909 58.4241 106.959 58.4241ZM120.729 72.5458C112.769 72.5458 112.779 60.1443 120.729 60.1443C128.679 60.1443 128.679 72.5458 120.729 72.5458Z" fill="#E0E0E0"/>
<path d="M84.6991 128.522L80.0591 121.831L84.6891 115.64V99.7885L84.2591 99.1184L75.1891 90.0074L74.2991 89.6273L58.0391 89.6073L51.8091 93.7378L45.5691 89.5573L15.2391 89.5073L14.2191 89.9274L5.32914 98.8484L4.86914 99.9585L4.98914 159.315L5.31914 160.115L14.4591 169.297L15.1691 169.597L74.5191 169.667L75.2191 169.367L84.3391 160.195L84.7191 159.395L84.6991 128.522ZM50.7691 160.546C42.8091 160.546 42.8191 148.144 50.7691 148.144C58.7191 148.144 58.7191 160.546 50.7691 160.546ZM65.0091 146.604C57.0491 146.604 57.0591 134.202 65.0091 134.202C72.9591 134.202 72.9591 146.604 65.0091 146.604Z" fill="#E0E0E0"/>
<path d="M84.0407 15.4694L83.7407 14.7493L74.5907 5.57823L73.7907 5.2482L14.6307 5.13818L13.5307 5.59824L4.6407 14.5193L4.2207 15.4394L4.2707 45.7729C4.2707 45.7729 8.8007 47.253 8.9107 51.7436C9.0307 57.1842 4.3107 58.6544 4.3107 58.6544L4.3307 74.7862L4.7107 75.6763L13.7907 84.7774L14.5707 85.2574L45.2607 85.3074C45.2607 85.3074 45.5307 85.0274 45.9507 84.6174C46.5807 82.2271 48.4907 80.2369 51.6807 80.2369C52.2907 80.2369 52.8507 80.3069 53.3607 80.4469C55.9907 80.8769 57.5507 82.7972 58.0407 85.0074C58.2507 85.2174 58.3807 85.3574 58.3807 85.3574L74.1807 85.3775L83.8107 75.7163L84.1107 75.0163L84.0507 15.4694H84.0407ZM35.9807 29.491C28.0207 29.491 28.0307 17.0896 35.9807 17.0896C43.9307 17.0896 43.9307 29.491 35.9807 29.491ZM64.4707 29.651C56.5107 29.651 56.5207 17.2496 64.4707 17.2496C72.4207 17.2496 72.4207 29.651 64.4707 29.651Z" fill="#E0E0E0"/>
<path d="M106.22 88.3672L122.72 102.289L106.9 110.09L96.7202 96.2881L94.4902 91.6876L100.13 86.957L106.22 88.3672Z" fill="white"/>
<path d="M130.49 128.141L127 111.69L146.61 106.539L143.08 96.5978L163.29 95.3877L166.72 113.29L153.72 136.292L130.49 128.141Z" fill="#EBA9CC"/>
<path d="M87.6309 134.662L93.7209 118.29L123.681 104.139L127.611 132.292L112.921 121.401L94.7209 142.853L87.6309 134.662Z" fill="white"/>
<path d="M129.721 130.663L131.721 158.296L143.551 156.976L142.721 143.294L151.171 146.604L166.261 142.854L129.721 130.663Z" fill="white"/>
<path d="M91.7207 164.296L108.601 150.205L121.031 162.666L147.721 159.296L152.721 172.297L99.7207 170.297L91.7207 164.296Z" fill="white"/>
<path d="M113.121 124.612L111.721 144.294L126.981 154.935H129.721L127.611 134.893L113.121 124.612Z" fill="#EBA9CC"/>
<path d="M92.5402 95.3877L104.09 110.089L90.7202 119.29L86.4902 112.83L87.6302 98.5181L92.5402 95.3877Z" fill="#EBA9CC"/>
<path d="M88.4609 138.773L95.2909 145.864L111.721 124.612L110.601 145.864L117.721 151.295L116.721 155.295L109.231 148.145L95.7509 158.296L87.6309 157.866L88.4609 138.773Z" fill="#80A8A6"/>
<path d="M170.721 112.6L156.721 136.293L170.721 142.854L171.721 99.2887L166.261 94.2881L167.721 106.289L170.721 112.6Z" fill="#80A8A6"/>
<path d="M109.721 87.2969L125.721 102.289L126.721 108.289L134.371 107.339L130.491 88.367L109.721 87.2969Z" fill="#80A8A6"/>
<path d="M170.721 145.294L152.721 148.834L155.011 158.665L150.721 159.296L158.321 170.897L169.721 159.296L170.721 145.294Z" fill="#80A8A6"/>
<path d="M131.721 88.2872L135.151 105.289L144.721 106.289L140.661 94.2879L159.721 93.2878L158.321 86.957L131.721 88.2872Z" fill="#80A8A6"/>
<path d="M12.7707 89.5073L27.7207 106.289L15.7207 114.29L3.7207 103.289V96.5981L12.7707 89.5073Z" fill="#80A8A6"/>
<path d="M54.3507 110.43L27.7207 128.292L32.5407 138.203L49.6907 137.783L64.2007 122.081L80.7207 107.29L55.7207 94.2881L54.3507 110.43Z" fill="#80A8A6"/>
<path d="M48.7207 169.667L59.2207 151.795L72.7207 159.296L80.7207 154.295L87.7207 132.292L86.4907 162.546L75.7207 171.297L48.7207 169.667Z" fill="#80A8A6"/>
<path d="M7.7207 149.294V157.635L16.7707 167.126H22.4907L26.7207 162.296L18.9507 154.465L18.7207 142.293H9.8007L7.7207 149.294Z" fill="#80A8A6"/>
<path d="M2.7207 108.29L14.7207 119.001L29.7207 109.29L42.1507 116.24L20.7207 130.292L18.7207 139.293L3.2907 140.323L2.7207 108.29Z" fill="#EBA9CC"/>
<path d="M40.5508 88.3677L44.7908 101.059L44.8108 111L53.3808 109.17L54.3508 90.6579L40.5508 88.3677Z" fill="#EBA9CC"/>
<path d="M84.7216 116.291L74.8716 115.081L65.0016 124.302L51.3516 142.854L61.5716 148.254L63.7216 146.294L60.7216 141.294L62.3116 137.173L66.7216 137.293L68.7216 141.294L76.3216 133.543L82.7216 132.293L84.7216 116.291Z" fill="#EBA9CC"/>
<path d="M14.7207 88.3672L29.7207 107.289L34.7207 110.29L27.7207 96.1381L32.7207 93.2878L21.3507 86.957L14.7207 88.3672Z" fill="white"/>
<path d="M58.5998 88.287L57.8398 92.9375L82.7198 107.289L75.7198 113.29L85.2298 114.29L87.7198 99.6883L76.3198 87.2969L58.5998 88.287Z" fill="white"/>
<path d="M22.4307 131.572L20.7207 153.295L27.7207 159.125L42.1507 140.323L29.7207 139.293L26.7207 128.722L22.4307 131.572Z" fill="white"/>
<path d="M31.7207 90.2876H39.9707L42.7207 100.289L44.1007 111.92H48.3307L43.7207 115.29L35.5207 111L29.7207 97.2884L36.7207 92.2878L31.7207 90.2876Z" fill="white"/>
<path d="M25.7207 170.297L23.7207 168.297L30.7207 163.296L28.5507 161.256L44.7907 139.574H50.7707L49.2907 144.374L55.9707 146.605V150.435L49.2907 149.065L47.9707 152.835L47.4507 158.666H50.8607L46.3707 169.667L25.7207 170.297Z" fill="white"/>
<path d="M85.2307 132.722L76.7207 137.293L61.7207 150.294L72.7807 156.265L79.7207 153.295L85.2307 132.722Z" fill="white"/>
<path d="M3.7507 26.2803L15.7207 33.2811L25.7207 31.2809L30.8307 45.5325L11.2907 54.8536L7.7207 51.2832L2.7207 44.2824L3.7507 26.2803Z" fill="#EBA9CC"/>
<path d="M46.9499 5.12744L44.1699 13.0484L48.1999 20.8093L51.8199 32.1306L47.9999 37.0511L62.2599 30.1503L57.7199 9.27792L57.5699 5.27746L46.9499 5.12744Z" fill="#EBA9CC"/>
<path d="M85.2313 54.8538L67.5213 45.2427L50.3613 54.8538L51.8213 63.7948L71.1113 68.8654L75.7213 76.2863L84.7313 68.1353L85.2313 54.8538Z" fill="#EBA9CC"/>
<path d="M29.6115 58.4238L16.7715 75.4558L30.8315 82.7666L44.8015 69.2851L29.6115 58.4238Z" fill="#EBA9CC"/>
<path d="M2.7207 21.5093L15.6307 30.1503L27.7207 28.2801L37.3807 16.6388V12.9283L25.7207 7.27769L20.7207 18.279L16.7707 8.81787L14.0307 5.12744L4.2307 13.1584L2.7207 21.5093Z" fill="#80A8A6"/>
<path d="M70.4406 4.58798L66.8906 18.0795L69.1406 28.1707L84.7306 17.0894L81.7206 8.27841L73.7206 3.27783L70.4406 4.58798Z" fill="#80A8A6"/>
<path d="M49.2907 81.1664L48.7207 70.2852L51.8207 66.3447L69.7207 71.2853L69.1207 86.9571L58.0507 85.0169L49.2907 81.1664Z" fill="#80A8A6"/>
<path d="M44.1715 28.1704H47.9715L48.7215 32.0209L45.7215 38.2816L54.3515 38.9917L57.1215 49.7729L39.7215 56.2837L31.5215 40.5618L44.1715 28.1704Z" fill="#80A8A6"/>
<path d="M84.0607 20.8394L57.7207 36.2811H67.7907L84.7307 29.4904L84.0607 20.8394Z" fill="white"/>
<path d="M20.7207 53.284L31.5207 48.0234L39.7507 58.4246L47.6307 56.2844L50.3607 64.8254L46.7207 68.2858L29.6107 55.6843L16.7707 71.7962L14.7207 54.8542L20.7207 53.284Z" fill="white"/>
<path d="M26.7207 4.27795L38.9007 11.3288L40.5507 15.7193L43.2907 17.2594L41.9407 12.7089L46.0307 3.27783L26.7207 4.27795Z" fill="white"/>
<path d="M71.7207 86.287V76.6559L74.9507 79.1962L84.1107 72.5454L85.2307 75.4557L73.9207 87.2971L71.7207 86.287Z" fill="white"/>
<path d="M5.8007 56.2842L7.7507 54.854L10.7207 57.2843L12.6607 56.0641L14.7207 72.546L4.2207 76.6565L1.7207 57.7343L5.8007 56.2842Z" fill="white"/>
<path d="M4.87109 77.6265L13.7211 75.2862L31.5211 86.9576L46.7211 70.2856L47.9711 81.3769L45.7211 88.2877H28.2011H14.0311L4.87109 77.6265Z" fill="white"/>
<path d="M86.4208 30.5308L69.7208 38.2817H56.5508L58.5108 47.2227L68.7208 43.2822L84.7108 52.2233L86.4208 30.5308Z" fill="white"/>
<path d="M131.86 86.9577L130.49 73.1061L149.04 56.2842L155.9 70.5958L161.35 66.9854L157.92 82.5472L151.67 86.9577H131.86Z" fill="#80A8A6"/>
<path d="M86.8302 49.7733L96.2002 36.2817L104.38 41.3823L102.12 47.513L104.43 61.9247L91.4002 66.9853L86.4902 56.284L86.8302 49.7733Z" fill="#80A8A6"/>
<path d="M146.609 16.5598L131.859 25.9108L136.719 32.2816L144.549 29.4913L146.609 36.282L161.349 10.269L146.609 16.5598Z" fill="#80A8A6"/>
<path d="M100.99 3.27783L109.43 16.6394L97.57 20.8099L91.75 10.2686L100.99 3.27783Z" fill="#80A8A6"/>
<path d="M163.41 10.269L151.67 33.2817L161.35 28.1511L168.78 31.9115L170.6 16.6398L163.41 10.269Z" fill="#80A8A6"/>
<path d="M94.7207 32.2812L107.751 40.5622L106.721 43.2825L116.051 54.8539L117.721 37.2818L94.7207 32.2812Z" fill="#EBA9CC"/>
<path d="M129.31 5.12793L130.49 15.9792L116.66 30.5309L129.72 39.2819L128.72 23.28L135.78 17.0893L141.72 8.27829L137.72 4.27783L129.31 5.12793Z" fill="#EBA9CC"/>
<path d="M89.7207 77.2867L103.401 71.616L118.331 74.4564L119.331 71.616L127.941 68.8657L129.721 86.2877H97.7207L89.7207 77.2867Z" fill="#EBA9CC"/>
<path d="M169.72 41.2825L153.72 39.2822L139.59 46.023L139.72 49.2834L169.72 48.0632V41.2825Z" fill="#EBA9CC"/>
<path d="M117.721 37.2815L116.661 30.5308L129.721 39.2818L116.051 54.8536L117.721 37.2815Z" fill="#EBA9CC"/>
<path d="M94.7207 32.2815L100.991 25.4307L109.721 35.5418L94.7207 32.2815Z" fill="#EBA9CC"/>
<path d="M90.7199 11.2788L96.7199 22.2801L107.72 18.2796V21.77L100.99 24.4403L93.7199 31.2811L92.7199 32.2812L95.7199 34.2815L86.4199 45.5328L86.7199 15.2793L90.7199 11.2788Z" fill="white"/>
<path d="M103.859 4.27795L111.329 17.2594L108.719 18.2796L108.809 25.4304L106.899 23.3802L102.789 25.4304L109.719 34.2814L116.049 36.2816L115.439 29.6509L129.189 15.7193L128.329 5.12805L123.719 6.27818H116.719L115.359 3.27783L103.859 4.27795Z" fill="white"/>
<path d="M130.49 30.9112L130.72 41.2824L114.77 59.7145L103.72 65.2852L95.7202 69.2856L94.4902 72.546L103.72 69.2856L115.52 72.546L118.33 69.8557L116.05 64.8251L124.58 61.6247L125.72 68.2855L129.19 66.3453L129.72 71.9159L144.72 58.2843V50.3434L137 51.6336L137.61 43.5626L143.72 42.2825V32.2813L133.72 33.2815L130.72 27.2808L130.49 30.9112Z" fill="white"/>
<path d="M169.72 49.9131H145.92L146.6 56.2838L151.67 53.0935L155.9 67.7952L162.6 63.7947L161.35 82.4068L170.72 75.286L169.72 49.9131Z" fill="white"/>
<path d="M170.601 33.2811L161.351 30.5308L150.721 36.2814L170.721 39.2818L170.601 33.2811Z" fill="white"/>
<path d="M143.079 3.27783L144.719 8.81847L133.119 21.78L146.599 14.7592L161.349 8.1884L159.169 3.27783H143.079Z" fill="white"/>
<g filter="url(#filter0_d_1575_3735)">
<path d="M172.93 98.5985L171.94 96.3382L162.69 87.0772L171.47 78.2562L172.44 75.8959L172.42 44.8423L171.3 12.1785L161.2 2.03736L158.62 0.977235L127.64 0.957232H122.6C122.74 1.04724 122.88 1.15726 123.01 1.28727C124 2.27738 124 3.89757 123.01 4.87769C122.02 5.8578 120.42 5.8578 119.43 4.87769C118.44 3.89757 118.43 2.27738 119.43 1.29727C119.55 1.17726 119.69 1.06725 119.83 0.967233H97.88L95.44 1.99735L86.23 11.2584L76.99 1.99735L74.64 1.02724L13.79 0.907227L11.14 2.02736L1.05 12.1285L0 14.7188L0.06 48.5527V50.823C0.15 50.683 0.26 50.553 0.38 50.4329C1.36 49.4528 2.97 49.4528 3.96 50.4329C4.95 51.4231 4.95 53.0332 3.96 54.0134C2.98 54.9935 1.37 54.9935 0.39 54.0134C0.27 53.8933 0.16 53.7633 0.07 53.6233V58.6639L0.11 75.6459L1.13 78.0961L10.59 87.5672L1.76 96.4283L0.64 99.0886L0.76 160.146L1.73 162.506L12.05 172.877L14.31 173.837L75.4 173.907L77.65 172.927L87.06 163.476L95.88 172.317L98.53 173.447L159.38 173.467L161.73 172.497L172.05 162.156L173 159.886L172.93 98.5985ZM88.8 14.6688L97.85 5.57777L98.74 5.20772H114.82C115.14 6.18784 115.69 7.10794 116.46 7.87803C119.09 10.5183 123.39 10.5283 126.02 7.87803C126.79 7.10794 127.34 6.18784 127.66 5.20772L157.8 5.22773L158.83 5.64777L167.74 14.5988L168.21 15.7089L168.23 75.0658L167.9 75.8659L158.79 85.0269H158.77L158.08 85.327L98.73 85.257L98.19 85.0169L98.02 84.9469L88.88 75.7559L88.55 74.9458L88.48 15.4889L88.82 14.6888L88.8 14.6688ZM86.32 79.1963L94.49 87.4072L86.54 95.3881L78.35 87.1772L86.31 79.1963H86.32ZM4.72 75.6859L4.34 74.7958L4.32 58.6639C5.29 58.3439 6.2 57.8038 6.96 57.0337C9.59 54.3934 9.59 50.0829 6.96 47.4326C6.18 46.6525 5.26 46.0924 4.28 45.7724L4.23 15.5289L4.65 14.5088L13.53 5.59777L14.63 5.13771L73.79 5.24773L74.59 5.57777L83.74 14.7488L84.04 15.4689L84.11 75.0158L83.81 75.7159L74.18 85.367H58.38C58.1 84.1968 57.5 83.0767 56.59 82.1666C53.96 79.5263 49.66 79.5163 47.03 82.1666C46.13 83.0667 45.54 84.1668 45.26 85.327L14.57 85.277L14.6 85.137L13.79 84.7969L4.71 75.6959L4.72 75.6859ZM53.61 88.7574C52.63 89.7375 51.02 89.7375 50.03 88.7574C49.04 87.7773 49.03 86.1471 50.03 85.167C51.01 84.1868 52.61 84.1868 53.6 85.167C54.59 86.1471 54.6 87.7673 53.6 88.7474L53.61 88.7574ZM84.68 159.386L84.35 160.196L75.23 169.367L74.53 169.667L15.18 169.597L14.47 169.297L5.33 160.116L5 159.316L4.88 99.9587L5.34 98.8485L14.23 89.9275L15.25 89.5075L45.58 89.5575C45.91 90.3576 46.4 91.0976 47.04 91.7477C49.67 94.398 53.97 94.398 56.6 91.7477C57.23 91.1076 57.72 90.3776 58.04 89.5875L74.3 89.6075L75.19 89.9875L84.26 99.0986L84.69 99.7686V115.62C83.71 115.941 82.8 116.491 82.03 117.261C79.4 119.901 79.4 124.211 82.03 126.862C82.8 127.632 83.72 128.182 84.69 128.502L84.71 159.376H84.67L84.68 159.386ZM85.04 123.861C84.06 122.871 84.05 121.261 85.04 120.281C86.03 119.291 87.63 119.291 88.62 120.281C89.61 121.261 89.61 122.881 88.62 123.871C87.63 124.862 86.03 124.862 85.04 123.871V123.861ZM168.48 159.746L159.36 168.887L158.57 169.217L99.42 169.197L98.32 168.737L89.4 159.796L88.98 158.765L88.96 128.522C89.93 128.202 90.85 127.652 91.62 126.882C94.25 124.241 94.25 119.941 91.62 117.291C90.84 116.511 89.93 115.961 88.96 115.65V99.5286L89.33 98.6385L98.39 89.5575L98.51 89.4975L99.19 89.2074L158.46 89.2774L159.05 89.5275L159.26 89.6175L168.42 98.7885L168.73 99.4986L168.8 159.046L168.5 159.756L168.48 159.746Z" fill="#987C2B"/>
<path d="M69.13 18.5794C66.49 15.9291 62.2 15.9191 59.57 18.5794C58.8 19.3495 58.25 20.2696 57.93 21.2497L42.78 21.2297C42.46 20.2496 41.91 19.3295 41.14 18.5494C38.5 15.9091 34.21 15.8991 31.57 18.5494C28.93 21.1997 28.94 25.4902 31.57 28.1405C34.2 30.7908 38.5 30.7908 41.13 28.1405C41.9 27.3704 42.45 26.4503 42.77 25.4702L57.92 25.4902C58.24 26.4703 58.79 27.3904 59.56 28.1605C62.2 30.8108 66.49 30.8208 69.13 28.1605C71.76 25.5202 71.76 21.2097 69.13 18.5694V18.5794ZM38.16 25.1402C37.18 26.1203 35.57 26.1203 34.58 25.1402C33.59 24.1601 33.58 22.5299 34.58 21.5498C35.56 20.5696 37.16 20.5696 38.15 21.5498C39.14 22.5399 39.15 24.1501 38.15 25.1302L38.16 25.1402ZM66.14 25.1702C65.16 26.1503 63.56 26.1503 62.57 25.1702C61.58 24.1801 61.57 22.5699 62.57 21.5898C63.55 20.5996 65.16 20.6096 66.15 21.5898C67.14 22.5699 67.14 24.2001 66.15 25.1802L66.14 25.1702Z" fill="#987C2B"/>
<path d="M69.6104 135.533C66.9704 132.883 62.6804 132.873 60.0504 135.533C57.4204 138.193 57.4204 142.484 60.0504 145.124C60.8404 145.914 61.7704 146.474 62.7704 146.784V152.575H57.3704C57.0704 151.465 56.4904 150.415 55.6204 149.545C52.9804 146.894 48.6904 146.884 46.0604 149.545C43.4304 152.185 43.4304 156.495 46.0604 159.136C48.7004 161.786 52.9904 161.796 55.6204 159.136C56.3004 158.456 56.8004 157.666 57.1304 156.815H66.9904V146.764C67.9404 146.434 68.8404 145.904 69.6004 145.134C72.2304 142.494 72.2304 138.183 69.6004 135.543L69.6104 135.533ZM52.6504 156.125C51.6704 157.105 50.0604 157.105 49.0704 156.125C48.0804 155.135 48.0804 153.525 49.0704 152.535C50.0604 151.555 51.6604 151.555 52.6504 152.535C53.6304 153.525 53.6404 155.135 52.6504 156.125ZM66.6304 142.124C65.6504 143.104 64.0404 143.104 63.0504 142.124C62.0704 141.134 62.0604 139.523 63.0504 138.533C64.0304 137.553 65.6404 137.553 66.6304 138.533C67.6204 139.523 67.6204 141.144 66.6304 142.124Z" fill="#987C2B"/>
<path d="M153.909 149.674C151.269 147.024 146.989 147.024 144.349 149.674C143.579 150.444 143.039 151.364 142.719 152.344L127.569 152.324C127.249 151.344 126.699 150.424 125.929 149.654C123.289 147.004 118.999 146.994 116.359 149.654C113.729 152.294 113.729 156.605 116.359 159.245C118.999 161.895 123.289 161.905 125.919 159.245C126.689 158.475 127.239 157.555 127.559 156.575L142.709 156.595C143.029 157.575 143.569 158.495 144.349 159.275C146.989 161.925 151.279 161.925 153.919 159.275C156.549 156.635 156.539 152.334 153.919 149.684L153.909 149.674ZM122.939 156.235C121.959 157.225 120.349 157.225 119.359 156.235C118.369 155.245 118.369 153.635 119.359 152.644C120.339 151.664 121.939 151.664 122.929 152.644C123.919 153.635 123.929 155.255 122.929 156.235H122.939ZM150.929 156.265C149.949 157.245 148.349 157.245 147.359 156.265C146.369 155.285 146.359 153.655 147.359 152.674C148.339 151.684 149.949 151.684 150.939 152.674C151.929 153.655 151.929 155.275 150.939 156.265H150.929Z" fill="#987C2B"/>
<path d="M125.641 61.534C123.011 58.8937 118.711 58.9037 116.081 61.534C115.291 62.3241 114.741 63.2642 114.421 64.2643H108.651V58.8537C109.751 58.5536 110.801 57.9636 111.671 57.0935C114.311 54.4432 114.321 50.1427 111.671 47.5024C109.041 44.8621 104.741 44.8721 102.111 47.5024C99.4707 50.1527 99.4607 54.4532 102.111 57.1035C102.791 57.7835 103.571 58.2936 104.431 58.6136V68.5048H114.451C114.771 69.4649 115.311 70.365 116.071 71.1251C118.701 73.7554 123.001 73.7554 125.631 71.1251C128.271 68.4748 128.281 64.1743 125.631 61.534H125.641ZM105.121 50.5227C106.111 49.5326 107.721 49.5226 108.701 50.5227C109.681 51.5128 109.681 53.123 108.701 54.1131C107.711 55.1032 106.101 55.1032 105.121 54.1131C104.141 53.133 104.141 51.5228 105.121 50.5327V50.5227ZM122.641 68.1247C121.651 69.1149 120.041 69.1149 119.061 68.1247C118.081 67.1446 118.081 65.5344 119.061 64.5443C120.051 63.5542 121.651 63.5442 122.631 64.5443C123.621 65.5244 123.611 67.1446 122.631 68.1347L122.641 68.1247Z" fill="#987C2B"/>
</g>
<rect x="12" y="12.9072" width="70" height="27" rx="9" fill="#D9D9D9"/>
<path d="M18.4365 35.9072V33.3872L24.9165 27.2672C25.4285 26.8032 25.8045 26.3872 26.0445 26.0192C26.2845 25.6512 26.4445 25.3152 26.5245 25.0112C26.6205 24.7072 26.6685 24.4272 26.6685 24.1712C26.6685 23.4992 26.4365 22.9872 25.9725 22.6352C25.5245 22.2672 24.8605 22.0832 23.9805 22.0832C23.2765 22.0832 22.6205 22.2192 22.0125 22.4912C21.4205 22.7632 20.9165 23.1872 20.5005 23.7632L17.6685 21.9392C18.3085 20.9792 19.2045 20.2192 20.3565 19.6592C21.5085 19.0992 22.8365 18.8192 24.3405 18.8192C25.5885 18.8192 26.6765 19.0272 27.6045 19.4432C28.5485 19.8432 29.2765 20.4112 29.7885 21.1472C30.3165 21.8832 30.5805 22.7632 30.5805 23.7872C30.5805 24.3312 30.5085 24.8752 30.3645 25.4192C30.2365 25.9472 29.9645 26.5072 29.5485 27.0992C29.1485 27.6912 28.5565 28.3552 27.7725 29.0912L22.3965 34.1552L21.6525 32.7392H31.1325V35.9072H18.4365ZM39.9368 36.1952C38.5608 36.1952 37.3288 35.8592 36.2408 35.1872C35.1528 34.4992 34.2968 33.5072 33.6728 32.2112C33.0488 30.9152 32.7368 29.3472 32.7368 27.5072C32.7368 25.6672 33.0488 24.0992 33.6728 22.8032C34.2968 21.5072 35.1528 20.5232 36.2408 19.8512C37.3288 19.1632 38.5608 18.8192 39.9368 18.8192C41.3288 18.8192 42.5608 19.1632 43.6328 19.8512C44.7208 20.5232 45.5768 21.5072 46.2008 22.8032C46.8248 24.0992 47.1368 25.6672 47.1368 27.5072C47.1368 29.3472 46.8248 30.9152 46.2008 32.2112C45.5768 33.5072 44.7208 34.4992 43.6328 35.1872C42.5608 35.8592 41.3288 36.1952 39.9368 36.1952ZM39.9368 32.9072C40.5928 32.9072 41.1608 32.7232 41.6408 32.3552C42.1368 31.9872 42.5208 31.4032 42.7928 30.6032C43.0808 29.8032 43.2248 28.7712 43.2248 27.5072C43.2248 26.2432 43.0808 25.2112 42.7928 24.4112C42.5208 23.6112 42.1368 23.0272 41.6408 22.6592C41.1608 22.2912 40.5928 22.1072 39.9368 22.1072C39.2968 22.1072 38.7288 22.2912 38.2328 22.6592C37.7528 23.0272 37.3688 23.6112 37.0808 24.4112C36.8088 25.2112 36.6728 26.2432 36.6728 27.5072C36.6728 28.7712 36.8088 29.8032 37.0808 30.6032C37.3688 31.4032 37.7528 31.9872 38.2328 32.3552C38.7288 32.7232 39.2968 32.9072 39.9368 32.9072ZM48.7881 35.9072V33.3872L55.2681 27.2672C55.7801 26.8032 56.1561 26.3872 56.3961 26.0192C56.6361 25.6512 56.7961 25.3152 56.8761 25.0112C56.9721 24.7072 57.0201 24.4272 57.0201 24.1712C57.0201 23.4992 56.7881 22.9872 56.3241 22.6352C55.8761 22.2672 55.2121 22.0832 54.3321 22.0832C53.6281 22.0832 52.9721 22.2192 52.3641 22.4912C51.7721 22.7632 51.2681 23.1872 50.8521 23.7632L48.0201 21.9392C48.6601 20.9792 49.5561 20.2192 50.7081 19.6592C51.8601 19.0992 53.1881 18.8192 54.6921 18.8192C55.9401 18.8192 57.0281 19.0272 57.9561 19.4432C58.9001 19.8432 59.6281 20.4112 60.1401 21.1472C60.6681 21.8832 60.9321 22.7632 60.9321 23.7872C60.9321 24.3312 60.8601 24.8752 60.7161 25.4192C60.5881 25.9472 60.3161 26.5072 59.9001 27.0992C59.5001 27.6912 58.9081 28.3552 58.1241 29.0912L52.7481 34.1552L52.0041 32.7392H61.4841V35.9072H48.7881ZM68.5363 36.1952C67.3683 36.1952 66.2083 36.0432 65.0563 35.7392C63.9043 35.4192 62.9283 34.9712 62.1283 34.3952L63.6403 31.4192C64.2803 31.8832 65.0243 32.2512 65.8723 32.5232C66.7203 32.7952 67.5763 32.9312 68.4403 32.9312C69.4163 32.9312 70.1843 32.7392 70.7443 32.3552C71.3043 31.9712 71.5843 31.4432 71.5843 30.7712C71.5843 30.1312 71.3363 29.6272 70.8403 29.2592C70.3443 28.8912 69.5443 28.7072 68.4403 28.7072H66.6643V26.1392L71.3443 20.8352L71.7763 22.2272H62.9683V19.1072H74.7283V21.6272L70.0723 26.9312L68.1043 25.8032H69.2323C71.2963 25.8032 72.8563 26.2672 73.9123 27.1952C74.9683 28.1232 75.4963 29.3152 75.4963 30.7712C75.4963 31.7152 75.2483 32.6032 74.7523 33.4352C74.2563 34.2512 73.4963 34.9152 72.4723 35.4272C71.4483 35.9392 70.1363 36.1952 68.5363 36.1952Z" fill="#171B48"/>
<defs>
<filter id="filter0_d_1575_3735" x="0" y="0.907227" width="173" height="174" filterUnits="userSpaceOnUse" color-interpolation-filters="sRGB">
<feFlood flood-opacity="0" result="BackgroundImageFix"/>
<feColorMatrix in="SourceAlpha" type="matrix" values="0 0 0 0 0 0 0 0 0 0 0 0 0 0 0 0 0 0 127 0" result="hardAlpha"/>
<feOffset dy="1"/>
<feColorMatrix type="matrix" values="0 0 0 0 0.34902 0 0 0 0 0.341176 0 0 0 0 0.341176 0 0 0 1 0"/>
<feBlend mode="normal" in2="BackgroundImageFix" result="effect1_dropShadow_1575_3735"/>
<feBlend mode="normal" in="SourceGraphic" in2="effect1_dropShadow_1575_3735" result="shape"/>
</filter>
</defs>
</svg>
