<svg width="257" height="178" viewBox="0 0 257 178" fill="none" xmlns="http://www.w3.org/2000/svg">
<path d="M89.0162 168.311C88.6946 171.627 85.7338 174.046 82.4208 173.7L81.7613 173.631L75.2892 173.581L68.7673 173.731L62.2952 174.527L55.7733 174.577L49.2515 174.079L43.2128 174.033C42.9242 174.03 42.6359 174.049 42.35 174.088L37.0515 174.816C36.5245 174.889 35.9902 174.891 35.4627 174.822L29.7356 174.079L23.2138 173.731L16.6919 173.482L10.17 173.93C6.86741 173.821 4.30362 171.006 4.49448 167.707L4.44936 161.796C4.44626 161.39 4.4019 160.985 4.31699 160.588L3.16377 155.193C3.08855 154.841 3.04514 154.483 3.03407 154.123L2.87546 148.969C2.85959 148.453 2.91029 147.938 3.02629 147.435L4.19145 142.386C4.29357 141.944 4.34512 141.491 4.34512 141.037V135.199L4.0962 128.677L3.64364 122.749C3.61352 122.355 3.62251 121.958 3.6705 121.565L4.30012 116.411C4.36305 115.895 4.35886 115.374 4.28768 114.86L3.49877 109.163L3.44899 102.641L3.99763 96.6066C4.03007 96.2497 4.02807 95.8905 3.99164 95.534C3.65055 92.1965 6.3107 89.3147 9.66486 89.3881L10.17 89.3992L16.1878 90.2786C16.4902 90.3228 16.7956 90.3439 17.1012 90.3415L23.164 90.2953L29.6361 89.8472L35.57 88.9413C35.961 88.8816 36.3569 88.8607 36.7521 88.879L42.63 89.1503L49.1519 89.1005L55.6738 89.1503L62.1957 89.3992L68.6677 89.3494L75.1896 89.2L81.2982 89.1538C81.6065 89.1514 81.9144 89.1729 82.2194 89.2178L83.1235 89.3512C85.8827 89.7583 87.9976 92.0131 88.2274 94.7928L88.3329 96.07L88.7353 101.927C88.7657 102.369 88.747 102.812 88.6797 103.25L87.7853 109.063L87.4626 115.102C87.4454 115.423 87.4541 115.745 87.4885 116.065L88.1338 122.056L88.6814 128.578L88.8308 135.05L88.6928 141.073C88.6852 141.405 88.6502 141.735 88.588 142.06L87.5736 147.376C87.4827 147.852 87.4499 148.337 87.4757 148.821L87.7853 154.614L88.2831 161.136L89 167.005C89.053 167.438 89.0584 167.877 89.0162 168.311Z" fill="#9E7E7E" stroke="#FFFBDB" stroke-width="5"/>
<path d="M89.0162 82.8071C88.6946 86.1225 85.7338 88.5416 82.4208 88.1955L81.7613 88.1266L75.2892 88.0768L68.7673 88.2262L62.2952 89.0227L55.7733 89.0725L49.2515 88.5746L43.2128 88.5282C42.9242 88.526 42.6359 88.5446 42.35 88.5839L37.0515 89.3119C36.5245 89.3843 35.9902 89.3863 35.4627 89.3178L29.7356 88.5746L23.2138 88.2262L16.6919 87.9773L10.17 88.4253C6.86741 88.3161 4.30362 85.5014 4.49448 82.2025L4.44936 76.2919C4.44626 75.8857 4.4019 75.4808 4.31699 75.0836L3.16377 69.6885C3.08855 69.3365 3.04514 68.9786 3.03407 68.6188L2.87546 63.4644C2.85959 62.9488 2.91029 62.4333 3.02629 61.9307L4.19145 56.8819C4.29357 56.4395 4.34512 55.9868 4.34512 55.5327V49.6946L4.0962 43.1731L3.64364 37.245C3.61352 36.8504 3.62251 36.4537 3.6705 36.0608L4.30012 30.9061C4.36305 30.391 4.35886 29.8698 4.28768 29.3557L3.49877 23.6584L3.44899 17.1369L3.99763 11.1022C4.03007 10.7453 4.02807 10.3861 3.99164 10.0297C3.65055 6.69207 6.3107 3.81027 9.66486 3.88371L10.17 3.89477L16.1878 4.77424C16.4902 4.81844 16.7956 4.83947 17.1012 4.83714L23.164 4.79086L29.6361 4.34282L35.57 3.43693C35.961 3.37723 36.3569 3.35635 36.7521 3.37459L42.63 3.64586L49.1519 3.59608L55.6738 3.64586L62.1957 3.89477L68.6677 3.84499L75.1896 3.69565L81.2982 3.64937C81.6065 3.64703 81.9144 3.66846 82.2194 3.71345L83.1235 3.84683C85.8827 4.25391 87.9976 6.50871 88.2274 9.28837L88.3329 10.5656L88.7353 16.4222C88.7657 16.8641 88.747 17.308 88.6797 17.7459L87.7853 23.5588L87.4626 29.598C87.4454 29.919 87.4541 30.2409 87.4885 30.5606L88.1338 36.552L88.6814 43.0735L88.8308 49.5452L88.6928 55.5687C88.6852 55.9001 88.6502 56.2304 88.588 56.5561L87.5736 61.8717C87.4827 62.3476 87.4499 62.8328 87.4757 63.3167L87.7853 69.1097L88.2831 75.6312L89 81.5002C89.053 81.9339 89.0584 82.3722 89.0162 82.8071Z" fill="#9E7E7E" stroke="#FFFBDB" stroke-width="5"/>
<path d="M175.555 82.8071C175.234 86.1225 172.273 88.5416 168.96 88.1955L168.3 88.1266L161.828 88.0768L155.306 88.2262L148.834 89.0227L142.312 89.0725L135.791 88.5746L129.752 88.5282C129.463 88.526 129.175 88.5446 128.889 88.5839L123.591 89.3119C123.064 89.3843 122.529 89.3863 122.002 89.3178L116.275 88.5746L109.753 88.2262L103.231 87.9773L96.7091 88.4253C93.4065 88.3161 90.8427 85.5014 91.0335 82.2025L90.9884 76.2919C90.9853 75.8857 90.941 75.4808 90.856 75.0836L89.7028 69.6885C89.6276 69.3365 89.5842 68.9786 89.5731 68.6188L89.4145 63.4644C89.3987 62.9488 89.4494 62.4333 89.5654 61.9307L90.7305 56.8819C90.8326 56.4395 90.8842 55.9868 90.8842 55.5327V49.6946L90.6353 43.1731L90.1827 37.245C90.1526 36.8504 90.1616 36.4537 90.2096 36.0608L90.8392 30.9061C90.9021 30.391 90.8979 29.8698 90.8267 29.3557L90.0378 23.6584L89.988 17.1369L90.5367 11.1022C90.5691 10.7453 90.5671 10.3861 90.5307 10.0297C90.1896 6.69207 92.8498 3.81027 96.2039 3.88371L96.7091 3.89477L102.727 4.77424C103.029 4.81844 103.335 4.83947 103.64 4.83714L109.703 4.79086L116.175 4.34282L122.109 3.43693C122.5 3.37723 122.896 3.35635 123.291 3.37459L129.169 3.64586L135.691 3.59608L142.213 3.64586L148.735 3.89477L155.207 3.84499L161.729 3.69565L167.837 3.64937C168.146 3.64703 168.453 3.66846 168.758 3.71345L169.663 3.84683C172.422 4.25391 174.537 6.50871 174.766 9.28837L174.872 10.5656L175.274 16.4222C175.305 16.8641 175.286 17.308 175.219 17.7459L174.324 23.5588L174.002 29.598C173.984 29.919 173.993 30.2409 174.028 30.5606L174.673 36.552L175.22 43.0735L175.37 49.5452L175.232 55.5687C175.224 55.9001 175.189 56.2304 175.127 56.5561L174.113 61.8717C174.022 62.3476 173.989 62.8328 174.015 63.3167L174.324 69.1097L174.822 75.6312L175.539 81.5002C175.592 81.9339 175.597 82.3722 175.555 82.8071Z" fill="#9E7E7E" stroke="#FFFBDB" stroke-width="5"/>
<path d="M89.0162 168.311C88.6946 171.627 85.7338 174.046 82.4208 173.7L81.7613 173.631L75.2892 173.581L68.7673 173.731L62.2952 174.527L55.7733 174.577L49.2515 174.079L43.2128 174.033C42.9242 174.03 42.6359 174.049 42.35 174.088L37.0515 174.816C36.5245 174.889 35.9902 174.891 35.4627 174.822L29.7356 174.079L23.2138 173.731L16.6919 173.482L10.17 173.93C6.86741 173.821 4.30362 171.006 4.49448 167.707L4.44936 161.796C4.44626 161.39 4.4019 160.985 4.31699 160.588L3.16377 155.193C3.08855 154.841 3.04514 154.483 3.03407 154.123L2.87546 148.969C2.85959 148.453 2.91029 147.938 3.02629 147.435L4.19145 142.386C4.29357 141.944 4.34512 141.491 4.34512 141.037V135.199L4.0962 128.677L3.64364 122.749C3.61352 122.355 3.62251 121.958 3.6705 121.565L4.30012 116.411C4.36305 115.895 4.35886 115.374 4.28768 114.86L3.49877 109.163L3.44899 102.641L3.99763 96.6066C4.03007 96.2497 4.02807 95.8905 3.99164 95.534C3.65055 92.1965 6.3107 89.3147 9.66486 89.3881L10.17 89.3992L16.1878 90.2786C16.4902 90.3228 16.7956 90.3439 17.1012 90.3415L23.164 90.2953L29.6361 89.8472L35.57 88.9413C35.961 88.8816 36.3569 88.8607 36.7521 88.879L42.63 89.1503L49.1519 89.1005L55.6738 89.1503L62.1957 89.3992L68.6677 89.3494L75.1896 89.2L81.2982 89.1538C81.6065 89.1514 81.9144 89.1729 82.2194 89.2178L83.1235 89.3512C85.8827 89.7583 87.9976 92.0131 88.2274 94.7928L88.3329 96.07L88.7353 101.927C88.7657 102.369 88.747 102.812 88.6797 103.25L87.7853 109.063L87.4626 115.102C87.4454 115.423 87.4541 115.745 87.4885 116.065L88.1338 122.056L88.6814 128.578L88.8308 135.05L88.6928 141.073C88.6852 141.405 88.6502 141.735 88.588 142.06L87.5736 147.376C87.4827 147.852 87.4499 148.337 87.4757 148.821L87.7853 154.614L88.2831 161.136L89 167.005C89.053 167.438 89.0584 167.877 89.0162 168.311Z" fill="#FFFBDB" stroke="#9E7E7E" stroke-width="5" stroke-linecap="round" stroke-linejoin="round"/>
<path d="M89.0162 82.8071C88.6946 86.1225 85.7338 88.5416 82.4208 88.1955L81.7613 88.1266L75.2892 88.0768L68.7673 88.2262L62.2952 89.0227L55.7733 89.0725L49.2515 88.5746L43.2128 88.5282C42.9242 88.526 42.6359 88.5446 42.35 88.5839L37.0515 89.3119C36.5245 89.3843 35.9902 89.3863 35.4627 89.3178L29.7356 88.5746L23.2138 88.2262L16.6919 87.9773L10.17 88.4253C6.86741 88.3161 4.30362 85.5014 4.49448 82.2025L4.44936 76.2919C4.44626 75.8857 4.4019 75.4808 4.31699 75.0836L3.16377 69.6885C3.08855 69.3365 3.04514 68.9786 3.03407 68.6188L2.87546 63.4644C2.85959 62.9488 2.91029 62.4333 3.02629 61.9307L4.19145 56.8819C4.29357 56.4395 4.34512 55.9868 4.34512 55.5327V49.6946L4.0962 43.1731L3.64364 37.245C3.61352 36.8504 3.62251 36.4537 3.6705 36.0608L4.30012 30.9061C4.36305 30.391 4.35886 29.8698 4.28768 29.3557L3.49877 23.6584L3.44899 17.1369L3.99763 11.1022C4.03007 10.7453 4.02807 10.3861 3.99164 10.0297C3.65055 6.69207 6.3107 3.81027 9.66486 3.88371L10.17 3.89477L16.1878 4.77424C16.4902 4.81844 16.7956 4.83947 17.1012 4.83714L23.164 4.79086L29.6361 4.34282L35.57 3.43693C35.961 3.37723 36.3569 3.35635 36.7521 3.37459L42.63 3.64586L49.1519 3.59608L55.6738 3.64586L62.1957 3.89477L68.6677 3.84499L75.1896 3.69565L81.2982 3.64937C81.6065 3.64703 81.9144 3.66846 82.2194 3.71345L83.1235 3.84683C85.8827 4.25391 87.9976 6.50871 88.2274 9.28837L88.3329 10.5656L88.7353 16.4222C88.7657 16.8641 88.747 17.308 88.6797 17.7459L87.7853 23.5588L87.4626 29.598C87.4454 29.919 87.4541 30.2409 87.4885 30.5606L88.1338 36.552L88.6814 43.0735L88.8308 49.5452L88.6928 55.5687C88.6852 55.9001 88.6502 56.2304 88.588 56.5561L87.5736 61.8717C87.4827 62.3476 87.4499 62.8328 87.4757 63.3167L87.7853 69.1097L88.2831 75.6312L89 81.5002C89.053 81.9339 89.0584 82.3722 89.0162 82.8071Z" fill="#FFFBDB" stroke="#9E7E7E" stroke-width="5" stroke-linecap="round" stroke-linejoin="round"/>
<path d="M175.555 82.8071C175.234 86.1225 172.273 88.5416 168.96 88.1955L168.3 88.1266L161.828 88.0768L155.306 88.2262L148.834 89.0227L142.312 89.0725L135.791 88.5746L129.752 88.5282C129.463 88.526 129.175 88.5446 128.889 88.5839L123.591 89.3119C123.064 89.3843 122.529 89.3863 122.002 89.3178L116.275 88.5746L109.753 88.2262L103.231 87.9773L96.7091 88.4253C93.4065 88.3161 90.8427 85.5014 91.0335 82.2025L90.9884 76.2919C90.9853 75.8857 90.941 75.4808 90.856 75.0836L89.7028 69.6885C89.6276 69.3365 89.5842 68.9786 89.5731 68.6188L89.4145 63.4644C89.3987 62.9488 89.4494 62.4333 89.5654 61.9307L90.7305 56.8819C90.8326 56.4395 90.8842 55.9868 90.8842 55.5327V49.6946L90.6353 43.1731L90.1827 37.245C90.1526 36.8504 90.1616 36.4537 90.2096 36.0608L90.8392 30.9061C90.9021 30.391 90.8979 29.8698 90.8267 29.3557L90.0378 23.6584L89.988 17.1369L90.5367 11.1022C90.5691 10.7453 90.5671 10.3861 90.5307 10.0297C90.1896 6.69207 92.8498 3.81027 96.2039 3.88371L96.7091 3.89477L102.727 4.77424C103.029 4.81844 103.335 4.83947 103.64 4.83714L109.703 4.79086L116.175 4.34282L122.109 3.43693C122.5 3.37723 122.896 3.35635 123.291 3.37459L129.169 3.64586L135.691 3.59608L142.213 3.64586L148.735 3.89477L155.207 3.84499L161.729 3.69565L167.837 3.64937C168.146 3.64703 168.453 3.66846 168.758 3.71345L169.663 3.84683C172.422 4.25391 174.537 6.50871 174.766 9.28837L174.872 10.5656L175.274 16.4222C175.305 16.8641 175.286 17.308 175.219 17.7459L174.324 23.5588L174.002 29.598C173.984 29.919 173.993 30.2409 174.028 30.5606L174.673 36.552L175.22 43.0735L175.37 49.5452L175.232 55.5687C175.224 55.9001 175.189 56.2304 175.127 56.5561L174.113 61.8717C174.022 62.3476 173.989 62.8328 174.015 63.3167L174.324 69.1097L174.822 75.6312L175.539 81.5002C175.592 81.9339 175.597 82.3722 175.555 82.8071Z" fill="#FFFBDB" stroke="#9E7E7E" stroke-width="5" stroke-linecap="round" stroke-linejoin="round"/>
<path d="M262.094 82.8071C261.773 86.1225 258.812 88.5416 255.499 88.1955L254.839 88.1266L248.367 88.0768L241.845 88.2262L235.373 89.0227L228.851 89.0725L222.33 88.5746L216.291 88.5282C216.002 88.526 215.714 88.5446 215.428 88.5839L210.13 89.3119C209.603 89.3843 209.068 89.3863 208.541 89.3178L202.814 88.5746L196.292 88.2262L189.77 87.9773L183.248 88.4253C179.946 88.3161 177.382 85.5014 177.573 82.2025L177.527 76.2919C177.524 75.8857 177.48 75.4808 177.395 75.0836L176.242 69.6885C176.167 69.3365 176.123 68.9786 176.112 68.6188L175.954 63.4644C175.938 62.9488 175.988 62.4333 176.104 61.9307L177.27 56.8819C177.372 56.4395 177.423 55.9868 177.423 55.5327V49.6946L177.174 43.1731L176.722 37.245C176.692 36.8504 176.701 36.4537 176.749 36.0608L177.378 30.9061C177.441 30.391 177.437 29.8698 177.366 29.3557L176.577 23.6584L176.527 17.1369L177.076 11.1022C177.108 10.7453 177.106 10.3861 177.07 10.0297C176.729 6.69207 179.389 3.81027 182.743 3.88371L183.248 3.89477L189.266 4.77424C189.568 4.81844 189.874 4.83947 190.179 4.83714L196.242 4.79086L202.714 4.34282L208.648 3.43693C209.039 3.37723 209.435 3.35635 209.83 3.37459L215.708 3.64586L222.23 3.59608L228.752 3.64586L235.274 3.89477L241.746 3.84499L248.268 3.69565L254.376 3.64937C254.685 3.64703 254.993 3.66846 255.298 3.71345L256.202 3.84683C258.961 4.25391 261.076 6.50871 261.305 9.28837L261.411 10.5656L261.813 16.4222C261.844 16.8641 261.825 17.308 261.758 17.7459L260.863 23.5588L260.541 29.598C260.524 29.919 260.532 30.2409 260.567 30.5606L261.212 36.552L261.76 43.0735L261.909 49.5452L261.771 55.5687C261.763 55.9001 261.728 56.2304 261.666 56.5561L260.652 61.8717C260.561 62.3476 260.528 62.8328 260.554 63.3167L260.863 69.1097L261.361 75.6312L262.078 81.5002C262.131 81.9339 262.137 82.3722 262.094 82.8071Z" fill="#FFFBDB" stroke="#9E7E7E" stroke-width="5"/>
<path d="M262.094 82.8071C261.773 86.1225 258.812 88.5416 255.499 88.1955L254.839 88.1266L248.367 88.0768L241.845 88.2262L235.373 89.0227L228.851 89.0725L222.33 88.5746L216.291 88.5282C216.002 88.526 215.714 88.5446 215.428 88.5839L210.13 89.3119C209.603 89.3843 209.068 89.3863 208.541 89.3178L202.814 88.5746L196.292 88.2262L189.77 87.9773L183.248 88.4253C179.946 88.3161 177.382 85.5014 177.573 82.2025L177.527 76.2919C177.524 75.8857 177.48 75.4808 177.395 75.0836L176.242 69.6885C176.167 69.3365 176.123 68.9786 176.112 68.6188L175.954 63.4644C175.938 62.9488 175.988 62.4333 176.104 61.9307L177.27 56.8819C177.372 56.4395 177.423 55.9868 177.423 55.5327V49.6946L177.174 43.1731L176.722 37.245C176.692 36.8504 176.701 36.4537 176.749 36.0608L177.378 30.9061C177.441 30.391 177.437 29.8698 177.366 29.3557L176.577 23.6584L176.527 17.1369L177.076 11.1022C177.108 10.7453 177.106 10.3861 177.07 10.0297C176.729 6.69207 179.389 3.81027 182.743 3.88371L183.248 3.89477L189.266 4.77424C189.568 4.81844 189.874 4.83947 190.179 4.83714L196.242 4.79086L202.714 4.34282L208.648 3.43693C209.039 3.37723 209.435 3.35635 209.83 3.37459L215.708 3.64586L222.23 3.59608L228.752 3.64586L235.274 3.89477L241.746 3.84499L248.268 3.69565L254.376 3.64937C254.685 3.64703 254.993 3.66846 255.298 3.71345L256.202 3.84683C258.961 4.25391 261.076 6.50871 261.305 9.28837L261.411 10.5656L261.813 16.4222C261.844 16.8641 261.825 17.308 261.758 17.7459L260.863 23.5588L260.541 29.598C260.524 29.919 260.532 30.2409 260.567 30.5606L261.212 36.552L261.76 43.0735L261.909 49.5452L261.771 55.5687C261.763 55.9001 261.728 56.2304 261.666 56.5561L260.652 61.8717C260.561 62.3476 260.528 62.8328 260.554 63.3167L260.863 69.1097L261.361 75.6312L262.078 81.5002C262.131 81.9339 262.137 82.3722 262.094 82.8071Z" fill="#FFFBDB" stroke="#9E7E7E" stroke-width="5" stroke-linecap="round" stroke-linejoin="round"/>
</svg>
