<svg width="178" height="269" viewBox="0 0 178 269" fill="none" xmlns="http://www.w3.org/2000/svg">
<path d="M87.7083 17.9772V50.5418C89.7047 49.6877 91.5747 50.8779 92.0173 52.9859C92.3516 54.5851 92.1799 56.4386 91.5024 57.9288C91.2856 58.4103 90.7345 58.7192 90.1654 58.801C89.8402 59.1099 89.3885 59.3008 88.9097 59.3462C88.4671 59.3916 88.0606 59.3462 87.6992 59.2372V75.6466L103.653 91.6927H160.99L176.943 75.6466V17.9772L160.999 1.93115H103.662L87.7083 17.9772ZM142.154 66.715C143.41 68.2778 143.356 70.8492 141.341 71.9032C140.826 72.1758 140.293 72.2848 139.769 72.2848C139.173 72.4938 138.523 72.5846 137.872 72.5301C136.906 72.4392 136.084 71.776 136.084 70.7311C136.084 70.5948 136.111 70.4494 136.147 70.3131C135.975 70.1223 135.849 69.8951 135.804 69.6226C135.542 68.1415 135.939 66.6787 137.294 65.8791C137.99 65.4702 138.812 65.3158 139.616 65.3975C140.592 65.3158 141.549 65.7065 142.154 66.715ZM155.56 50.6599C157.159 51.5503 157.927 53.6583 157.43 55.3937C156.662 58.0923 153.6 58.2104 151.387 57.5108C150.194 57.1383 149.932 55.9389 150.294 55.0394C150.032 54.5124 150.05 53.8673 150.312 53.2948C150.501 52.886 150.745 52.568 151.025 52.3226C151.342 51.6866 151.811 51.1324 152.426 50.7689C153.383 50.2056 154.558 50.1147 155.542 50.6599H155.56Z" fill="#30419A"/>
<path d="M122.056 179.481C121.929 179.154 121.83 178.827 121.713 178.491C121.667 178.355 121.613 178.209 121.568 178.073C121.55 178.037 121.541 178 121.523 177.964C121.514 177.946 121.496 177.91 121.478 177.864C121.243 177.364 121.198 176.81 121.369 176.329H104.178L88.2246 192.375V210.865C88.4505 210.565 88.7666 210.329 89.1461 210.229C90.1759 209.947 91.3593 209.811 92.3078 210.42C93.2925 211.047 93.6087 212.201 93.3919 213.309C93.0486 214.99 91.6574 216.589 90.1759 217.38C89.4351 217.77 88.7305 217.607 88.2246 217.189V250.044L104.178 266.09H161.515L177.469 250.044V192.375L161.515 176.329H128.958C129.211 176.665 129.382 177.065 129.436 177.51C129.563 178.555 129.048 179.436 128.407 180.208C127.169 181.689 125.028 183.18 123.266 181.544C122.661 180.99 122.354 180.236 122.065 179.481H122.056ZM160.783 212.618C161.876 213.663 161.949 215.29 161.452 216.644C161.081 217.652 160.277 218.052 159.257 217.897C158.805 217.834 158.362 217.734 157.929 217.607C157.305 218.306 156.203 218.606 155.327 217.788C154.207 216.753 153.583 215.135 154.36 213.7C154.911 212.682 155.986 212.01 157.098 211.773C158.371 211.501 159.808 211.674 160.792 212.609L160.783 212.618ZM145.571 196.972C146.04 196.99 146.492 197.099 146.908 197.317C148.841 198.381 148.624 200.834 147.621 202.487C146.573 204.214 144.622 205.44 142.58 204.786C140.539 204.132 139.753 201.87 140.096 199.898C140.466 197.799 142.102 196.445 144.161 196.254C144.721 196.2 145.227 196.518 145.562 196.963L145.571 196.972Z" fill="#30419A"/>
<path d="M1.01758 192.375V250.044L16.9711 266.09H49.6641C49.6099 266.036 49.5466 265.99 49.5014 265.927C48.9956 265.872 48.5258 265.618 48.2187 265.091C47.767 264.318 47.9748 263.028 48.8601 262.637C51.2811 261.556 54.4429 260.766 55.8521 263.81C56.2225 264.618 56.0509 265.563 55.4547 266.09H74.317L90.2705 250.044V216.607C90.1531 216.698 90.0266 216.798 89.9092 216.88C88.3915 217.888 86.2415 217.489 85.2749 215.899C83.6217 213.155 87.3798 210.429 89.8008 210.338C89.9634 210.338 90.117 210.356 90.2705 210.401V192.375L74.317 176.329H16.9711L1.01758 192.375ZM24.9207 226.157C25.9687 226.157 26.592 226.993 26.7094 227.956C26.9895 230.327 24.9207 232.508 22.5449 232.199C20.6568 231.954 19.1121 230.146 19.1121 228.219C19.1121 226.602 20.3949 225.493 21.9216 225.375C22.834 225.303 23.8186 225.593 24.5142 226.211C24.6497 226.175 24.7852 226.148 24.9207 226.148V226.157ZM25.6525 196.681C26.3842 197.199 26.7456 198.09 26.3842 198.926C26.6914 199.253 26.8811 199.716 26.8811 200.161C26.8811 200.598 26.8178 201.006 26.6552 201.406C26.4023 201.997 25.9958 202.406 25.4718 202.769C25.3905 202.824 25.3002 202.86 25.2098 202.896C24.9027 203.169 24.5052 203.342 24.0445 203.369C23.0688 203.423 22.1203 203.196 21.2711 202.687C20.693 202.342 20.1871 201.788 19.5457 201.543C18.6423 201.206 18.028 200.343 18.299 199.335C18.5249 198.49 19.5096 197.808 20.3858 198.053C21.3976 196.254 23.8728 195.437 25.6344 196.672L25.6525 196.681Z" fill="#30419A"/>
<path d="M87.707 105.177V162.846L103.661 178.892H121.755C121.755 178.738 121.764 178.574 121.809 178.411C121.882 178.138 121.981 177.866 122.089 177.611C122.035 177.502 121.999 177.384 121.981 177.257C121.854 176.403 121.827 175.567 122.297 174.804C122.758 174.04 123.571 173.604 124.438 173.55C125.477 173.477 126.516 173.95 127.22 174.722C127.627 174.922 127.952 175.267 128.052 175.776C128.241 176.812 128.277 177.847 128.286 178.892H160.997L176.951 162.846V105.177L160.997 89.1309H103.661L87.707 105.177ZM160.248 138.559C161.964 139.64 163.455 142.239 162.398 144.238C161.539 145.864 159.498 146.146 157.971 145.365C157.809 145.283 157.673 145.183 157.528 145.083C157.239 145.156 156.932 145.165 156.625 145.101C154.24 144.547 153.861 141.767 155.062 139.94C156.201 138.223 158.396 137.414 160.239 138.568L160.248 138.559ZM160.717 109.275C161.314 109.438 161.774 109.938 161.973 110.529C162.253 111.365 162.253 112.255 162.045 113.1C162.154 113.336 162.217 113.582 162.217 113.818C162.217 114.772 161.539 115.372 160.699 115.562C159.308 117.052 157.167 117.652 155.306 115.998C152.072 113.118 155.126 107.712 159.028 107.803C160.022 107.821 160.582 108.512 160.717 109.275Z" fill="#30419A"/>
<path d="M6.47266 184.546H85.9692" stroke="#3D62AE" stroke-width="4" stroke-miterlimit="10"/>
<path d="M3.76367 193.632H88.6804" stroke="#3D62AE" stroke-width="4" stroke-miterlimit="10"/>
<path d="M26.8164 202.721H88.6792H26.8164Z" fill="#30419A"/>
<path d="M26.8164 202.721H88.6792" stroke="#3D62AE" stroke-width="4" stroke-miterlimit="10"/>
<path d="M3.76367 202.721C8.76834 202.721 13.782 202.721 18.7867 202.721H3.76367Z" fill="#30419A"/>
<path d="M3.76367 202.721C8.76834 202.721 13.782 202.721 18.7867 202.721" stroke="#3D62AE" stroke-width="4" stroke-miterlimit="10"/>
<path d="M3.76367 212.715H85.3561H3.76367Z" fill="#30419A"/>
<path d="M3.76367 212.715H85.3561" stroke="#3D62AE" stroke-width="4" stroke-miterlimit="10"/>
<path d="M3.76367 221.801H88.6804" stroke="#3D62AE" stroke-width="4" stroke-miterlimit="10"/>
<path d="M26.8164 230.884H88.6792H26.8164Z" fill="#30419A"/>
<path d="M26.8164 230.884H88.6792" stroke="#3D62AE" stroke-width="4" stroke-miterlimit="10"/>
<path d="M3.76367 230.884C8.76834 230.884 13.782 230.884 18.7867 230.884H3.76367Z" fill="#30419A"/>
<path d="M3.76367 230.884C8.76834 230.884 13.782 230.884 18.7867 230.884" stroke="#3D62AE" stroke-width="4" stroke-miterlimit="10"/>
<path d="M3.76367 239.975H88.6804" stroke="#3D62AE" stroke-width="4" stroke-miterlimit="10"/>
<path d="M3.76367 249.967H88.6804" stroke="#3D62AE" stroke-width="4" stroke-miterlimit="10"/>
<path d="M9.18164 259.052H84.1613" stroke="#3D62AE" stroke-width="4" stroke-miterlimit="10"/>
<path d="M93.2012 184.546H172.698" stroke="#3D62AE" stroke-width="4" stroke-miterlimit="10"/>
<path d="M90.4922 193.632H175.409" stroke="#3D62AE" stroke-width="4" stroke-miterlimit="10"/>
<path d="M146.791 202.721H175.41H146.791Z" fill="#30419A"/>
<path d="M146.791 202.721H175.41" stroke="#3D62AE" stroke-width="4" stroke-miterlimit="10"/>
<path d="M90.4922 202.721H138.47H90.4922Z" fill="#30419A"/>
<path d="M90.4922 202.721H138.47" stroke="#3D62AE" stroke-width="4" stroke-miterlimit="10"/>
<path d="M162.506 212.715C166.806 212.715 171.106 212.715 175.406 212.715H162.506Z" fill="#30419A"/>
<path d="M162.506 212.715C166.806 212.715 171.106 212.715 175.406 212.715" stroke="#3D62AE" stroke-width="4" stroke-miterlimit="10"/>
<path d="M93.4297 212.715H153.856H93.4297Z" fill="#30419A"/>
<path d="M93.4297 212.715H153.856" stroke="#3D62AE" stroke-width="4" stroke-miterlimit="10"/>
<path d="M90.4922 221.801H175.409" stroke="#3D62AE" stroke-width="4" stroke-miterlimit="10"/>
<path d="M90.4922 230.884H175.409" stroke="#3D62AE" stroke-width="4" stroke-miterlimit="10"/>
<path d="M90.4922 239.975H175.409" stroke="#3D62AE" stroke-width="4" stroke-miterlimit="10"/>
<path d="M90.4922 249.967H175.409" stroke="#3D62AE" stroke-width="4" stroke-miterlimit="10"/>
<path d="M95.9102 259.052H170.89" stroke="#3D62AE" stroke-width="4" stroke-miterlimit="10"/>
<path d="M93.2012 97.3188H172.698" stroke="#3D62AE" stroke-width="4" stroke-miterlimit="10"/>
<path d="M90.4922 106.404H175.409" stroke="#3D62AE" stroke-width="4" stroke-miterlimit="10"/>
<path d="M161.361 115.493C166.041 115.493 170.729 115.493 175.409 115.493H161.361Z" fill="#30419A"/>
<path d="M161.361 115.493C166.041 115.493 170.729 115.493 175.409 115.493" stroke="#3D62AE" stroke-width="4" stroke-miterlimit="10"/>
<path d="M90.4922 115.493H153.204H90.4922Z" fill="#30419A"/>
<path d="M90.4922 115.493H153.204" stroke="#3D62AE" stroke-width="4" stroke-miterlimit="10"/>
<path d="M90.4922 125.487H175.409" stroke="#3D62AE" stroke-width="4" stroke-miterlimit="10"/>
<path d="M90.4922 134.574H175.409" stroke="#3D62AE" stroke-width="4" stroke-miterlimit="10"/>
<path d="M162.082 143.657C166.527 143.657 170.971 143.657 175.407 143.657H162.082Z" fill="#30419A"/>
<path d="M162.082 143.657C166.527 143.657 170.971 143.657 175.407 143.657" stroke="#3D62AE" stroke-width="4" stroke-miterlimit="10"/>
<path d="M90.4922 143.657H154.044H90.4922Z" fill="#30419A"/>
<path d="M90.4922 143.657H154.044" stroke="#3D62AE" stroke-width="4" stroke-miterlimit="10"/>
<path d="M90.4922 152.746H175.409" stroke="#3D62AE" stroke-width="4" stroke-miterlimit="10"/>
<path d="M90.4922 162.74H175.409" stroke="#3D62AE" stroke-width="4" stroke-miterlimit="10"/>
<path d="M95.9102 171.825H170.89" stroke="#3D62AE" stroke-width="4" stroke-miterlimit="10"/>
<path d="M92.2949 11.0029H171.791" stroke="#3D62AE" stroke-width="4" stroke-miterlimit="10"/>
<path d="M89.5859 20.0879H174.503" stroke="#3D62AE" stroke-width="4" stroke-miterlimit="10"/>
<path d="M89.5859 29.1772H174.503" stroke="#3D62AE" stroke-width="4" stroke-miterlimit="10"/>
<path d="M89.5859 39.1709H174.503" stroke="#3D62AE" stroke-width="4" stroke-miterlimit="10"/>
<path d="M89.5859 48.2578H174.503" stroke="#3D62AE" stroke-width="4" stroke-miterlimit="10"/>
<path d="M157.963 57.3408C163.473 57.3408 168.993 57.3408 174.504 57.3408H157.963Z" fill="#30419A"/>
<path d="M157.963 57.3408C163.473 57.3408 168.993 57.3408 174.504 57.3408" stroke="#3D62AE" stroke-width="4" stroke-miterlimit="10"/>
<path d="M93.9316 57.3408C112.433 57.3408 130.934 57.3408 149.435 57.3408H93.9316Z" fill="#30419A"/>
<path d="M93.9316 57.3408C112.433 57.3408 130.934 57.3408 149.435 57.3408" stroke="#3D62AE" stroke-width="4" stroke-miterlimit="10"/>
<path d="M89.5859 66.4302H174.503" stroke="#3D62AE" stroke-width="4" stroke-miterlimit="10"/>
<path d="M89.5859 76.4238H174.503" stroke="#3D62AE" stroke-width="4" stroke-miterlimit="10"/>
<path d="M95.0039 85.5088H169.984" stroke="#3D62AE" stroke-width="4" stroke-miterlimit="10"/>
<path d="M101.053 2.75607L98.3157 3.91909L87.8908 14.3954L86.8068 17.0758L86.7887 49.2224V54.4469C86.8881 54.3015 86.9965 54.1561 87.1229 54.0289C88.1438 53.0022 89.7969 53.0022 90.8177 54.0289C91.8385 55.0556 91.8295 56.7184 90.8177 57.7451C89.7969 58.7718 88.1438 58.7718 87.1229 57.7451C86.9965 57.6179 86.879 57.4816 86.7887 57.3362V80.1242L87.8456 82.6592L97.4033 92.2632L88.0534 101.685L87.0507 104.139L86.9784 167.396L87.9992 169.84L97.4485 179.353L89.002 187.84L79.4714 178.236L77.1588 177.218L14.1216 177.291L11.7819 178.281L1.13117 189.003L0.128425 191.447L0.00195312 254.595L1.15827 257.348L11.5561 267.816L14.221 268.906C19.4154 268.897 24.6188 268.888 29.8132 268.879C35.2695 268.87 40.7259 268.861 46.1732 268.851C47.8986 268.851 49.6241 268.842 51.3585 268.833C51.214 268.742 51.0785 268.624 50.952 268.497C49.9402 267.479 49.9402 265.817 50.961 264.79C51.9819 263.763 53.635 263.763 54.6468 264.781C55.6586 265.799 55.6586 267.47 54.6468 268.497C54.5203 268.624 54.3848 268.733 54.2312 268.833L59.4256 268.815L76.8878 268.788L79.4082 267.716L88.9026 258.157L98.2705 267.57L101.008 268.733L163.792 268.606L166.222 267.598L176.882 256.885L177.875 254.532L177.948 191.129L176.936 188.794L167.469 179.29L176.819 169.877L177.975 167.124L178.002 103.975L176.999 101.531L167.442 91.8997L176.81 82.4956L177.83 80.1605L177.903 16.7668L176.918 14.4135L166.276 3.72828L163.846 2.71973L101.062 2.74698L101.053 2.75607ZM76.9329 263.482L76.0115 263.872L59.4256 263.9C59.0914 262.891 58.5313 261.946 57.7454 261.156C55.0262 258.421 50.5997 258.43 47.8806 261.156C47.0766 261.964 46.5165 262.918 46.1913 263.927C41.5931 263.927 36.9859 263.945 32.3878 263.954C31.7283 263.954 29.5421 263.954 26.8862 263.954C22.794 263.954 17.5725 263.972 15.0882 263.972L14.0313 263.545L4.86208 254.314L4.39233 253.169L4.50977 191.774L4.84402 190.947L14.2752 181.452L15.0069 181.143L76.2464 181.071L76.9691 181.389L86.8971 191.383H86.9152L86.8971 208.429C85.8763 208.765 84.9278 209.328 84.1147 210.146C81.3956 212.881 81.3956 217.333 84.1147 220.068C84.9097 220.868 85.8492 221.431 86.8519 221.758L86.7977 253.242L86.6532 253.214L86.3009 254.05L76.942 263.482H76.9329ZM90.881 213.772C91.8927 214.789 91.8927 216.452 90.881 217.479C89.8692 218.505 88.207 218.505 87.1862 217.488C86.1744 216.47 86.1744 214.798 87.1952 213.772C88.216 212.745 89.8692 212.745 90.881 213.772ZM163.006 181.525L163.828 181.861L173.259 191.329L173.566 192.056L173.503 253.65L173.196 254.386L163.756 263.872L162.934 264.208L101.893 264.327L100.755 263.854L91.5766 254.632L91.152 253.569L91.2062 222.285C92.2179 221.958 93.1665 221.386 93.9615 220.586C96.6806 217.851 96.6806 213.399 93.9705 210.664C93.1846 209.865 92.2451 209.301 91.2423 208.974L91.2604 192.292L91.6488 191.365L101.459 181.507H118.515C118.84 182.515 119.409 183.469 120.204 184.269C122.923 187.004 127.35 186.995 130.069 184.26C130.864 183.46 131.433 182.515 131.758 181.498L163.006 181.47V181.525ZM126.989 181.152C125.977 182.179 124.315 182.179 123.303 181.152C122.291 180.135 122.291 178.472 123.303 177.445C124.315 176.419 125.977 176.419 126.998 177.436C128.019 178.454 128.009 180.126 126.989 181.152ZM163.882 94.5529L173.286 104.03L173.63 104.857L173.603 166.251L173.124 167.396L163.927 176.646H163.909L163.846 176.682L162.871 177.082L131.767 177.1C131.442 176.082 130.873 175.128 130.078 174.329C127.359 171.594 122.942 171.603 120.213 174.329C119.418 175.128 118.849 176.082 118.524 177.091H101.938L101.405 176.873L101.279 176.818L101.026 176.709L91.685 167.305L91.3417 166.478L91.4049 104.975L91.7482 104.139L101.188 94.6256L101.911 94.2985L163.151 94.2349L163.882 94.5438V94.5529ZM163.801 7.45358L173.223 16.9213L173.53 17.6573L173.458 79.2519L173.133 79.9879L163.674 89.4828L162.834 89.8281L101.685 89.8917L100.863 89.5464L91.5133 80.1514L91.1339 79.2246V62.5426C92.1367 62.2155 93.0852 61.643 93.8802 60.8435C96.5993 58.1086 96.5993 53.6564 93.8802 50.9215C93.0852 50.1219 92.1457 49.5495 91.1339 49.2224L91.152 17.9389L91.5766 16.8759L100.782 7.62622L101.92 7.14465L162.961 7.1174L163.783 7.45358H163.801Z" fill="#36427F"/>
<path d="M18.2044 197.143C15.4853 199.878 15.4853 204.33 18.1954 207.065C18.9903 207.865 19.9298 208.437 20.9416 208.764L20.9235 224.492C19.9118 224.819 18.9723 225.392 18.1683 226.191C15.4491 228.926 15.4491 233.379 18.1683 236.113C20.8874 238.848 25.3049 238.839 28.0331 236.113C30.7522 233.379 30.7522 228.926 28.0421 226.191C27.2471 225.392 26.3076 224.819 25.2959 224.492L25.3139 208.773C26.3167 208.446 27.2652 207.874 28.0692 207.074C30.7883 204.339 30.7883 199.887 28.0692 197.152C25.3501 194.417 20.9326 194.426 18.2044 197.152V197.143ZM24.9435 229.29C25.9553 230.307 25.9553 231.97 24.9435 232.997C23.9318 234.024 22.2696 234.024 21.2488 233.006C20.237 231.988 20.237 230.317 21.2578 229.29C22.2786 228.263 23.9318 228.263 24.9435 229.29ZM24.9797 200.242C25.9914 201.259 25.9914 202.931 24.9706 203.958C23.9498 204.984 22.2967 204.984 21.2849 203.958C20.2731 202.931 20.2731 201.268 21.2849 200.251C22.3057 199.224 23.9589 199.224 24.9797 200.242Z" fill="#36427F"/>
<path d="M138.477 197.163C135.758 199.898 135.749 204.35 138.468 207.085C141.188 209.82 145.614 209.811 148.333 207.076C149.146 206.258 149.715 205.295 150.041 204.259H155.994V209.856C154.856 210.165 153.772 210.774 152.886 211.674C150.167 214.409 150.158 218.861 152.877 221.596C155.596 224.331 160.023 224.321 162.742 221.587C165.461 218.852 165.47 214.399 162.751 211.665C162.055 210.965 161.233 210.438 160.366 210.102V199.871H150.023C149.688 198.871 149.137 197.945 148.351 197.154C145.632 194.419 141.206 194.428 138.487 197.163H138.477ZM159.652 214.763C160.664 215.781 160.664 217.452 159.643 218.479C158.623 219.506 156.969 219.506 155.949 218.488C154.937 217.461 154.937 215.799 155.958 214.772C156.978 213.745 158.632 213.745 159.652 214.763ZM145.253 200.262C146.265 201.279 146.265 202.951 145.244 203.978C144.223 205.004 142.57 205.004 141.558 203.978C140.537 202.96 140.546 201.297 141.558 200.271C142.57 199.244 144.232 199.244 145.253 200.262Z" fill="#36427F"/>
<path d="M153.526 109.663C150.807 112.397 150.807 116.85 153.526 119.585C154.321 120.384 155.261 120.957 156.272 121.284L156.245 137.012C155.242 137.348 154.294 137.911 153.499 138.711C150.78 141.446 150.771 145.898 153.49 148.633C156.209 151.368 160.636 151.359 163.355 148.624C166.074 145.889 166.083 141.437 163.364 138.702C162.569 137.902 161.62 137.33 160.618 137.003L160.645 121.284C161.647 120.947 162.596 120.384 163.391 119.585C166.11 116.85 166.11 112.397 163.391 109.663C160.681 106.928 156.254 106.928 153.526 109.663ZM160.274 141.809C161.286 142.827 161.286 144.49 160.265 145.516C159.244 146.543 157.591 146.543 156.57 145.525C155.559 144.508 155.559 142.836 156.579 141.809C157.6 140.782 159.253 140.782 160.274 141.809ZM160.301 112.761C161.313 113.779 161.313 115.45 160.301 116.477C159.29 117.504 157.627 117.504 156.607 116.477C155.595 115.459 155.595 113.788 156.616 112.761C157.636 111.734 159.29 111.734 160.301 112.761Z" fill="#36427F"/>
<path d="M149.074 51.3031C146.355 54.029 146.364 58.4812 149.083 61.2252C149.896 62.0429 150.854 62.6153 151.884 62.9424V68.9211H146.319C146.012 67.7762 145.406 66.6859 144.512 65.7955C141.793 63.0605 137.366 63.0605 134.647 65.7864C131.928 68.5213 131.937 72.9735 134.647 75.7084C137.366 78.4433 141.793 78.4433 144.512 75.7084C145.208 75.0088 145.732 74.1819 146.066 73.3097H156.238V62.9061C157.232 62.5699 158.153 62.0156 158.939 61.2252C161.658 58.4993 161.649 54.0471 158.93 51.3031C156.211 48.5682 151.784 48.5682 149.065 51.3031H149.074ZM141.432 72.61C140.42 73.6277 138.767 73.6277 137.746 72.6009C136.725 71.5742 136.725 69.9115 137.737 68.8938C138.749 67.8762 140.411 67.8762 141.432 68.8938C142.452 69.9115 142.452 71.5833 141.432 72.61ZM155.849 54.4106C156.87 55.4373 156.87 57.1001 155.849 58.1268C154.838 59.1444 153.184 59.1444 152.164 58.1268C151.143 57.1092 151.143 55.4373 152.155 54.4106C153.166 53.3929 154.829 53.3929 155.849 54.4106Z" fill="#36427F"/>
<path d="M101.053 0.943571L98.3157 2.10659L87.8908 12.5829L86.8068 15.2633L86.7887 47.4099V52.6344C86.8881 52.489 86.9965 52.3436 87.1229 52.2164C88.1438 51.1897 89.7969 51.1897 90.8177 52.2164C91.8385 53.2431 91.8295 54.9059 90.8177 55.9326C89.7969 56.9593 88.1438 56.9593 87.1229 55.9326C86.9965 55.8054 86.879 55.6691 86.7887 55.5237V78.3117L87.8456 80.8467L97.4033 90.4507L88.0534 99.873L87.0507 102.326L86.9784 165.584L87.9992 168.028L97.4485 177.541L89.002 186.027L79.4714 176.423L77.1588 175.406L14.1216 175.478L11.7819 176.469L1.13117 187.19L0.128425 189.634L0.00195312 252.783L1.15827 255.536L11.5561 266.003L14.221 267.093C19.4154 267.084 24.6188 267.075 29.8132 267.066C35.2695 267.057 40.7259 267.048 46.1732 267.039C47.8986 267.039 49.6241 267.03 51.3585 267.021C51.214 266.93 51.0785 266.812 50.952 266.685C49.9402 265.667 49.9402 264.004 50.961 262.977C51.9819 261.951 53.635 261.951 54.6468 262.968C55.6586 263.986 55.6586 265.658 54.6468 266.685C54.5203 266.812 54.3848 266.921 54.2312 267.021L59.4256 267.003L76.8878 266.975L79.4082 265.903L88.9026 256.345L98.2705 265.758L101.008 266.921L163.792 266.794L166.222 265.785L176.882 255.073L177.875 252.719L177.948 189.316L176.936 186.981L167.469 177.477L176.819 168.064L177.975 165.311L178.002 102.163L176.999 99.7185L167.442 90.0872L176.81 80.6831L177.83 78.348L177.903 14.9543L176.918 12.601L166.276 1.91578L163.846 0.907227L101.062 0.934485L101.053 0.943571ZM76.9329 261.669L76.0115 262.06L59.4256 262.087C59.0914 261.078 58.5313 260.134 57.7454 259.343C55.0262 256.608 50.5997 256.617 47.8806 259.343C47.0766 260.152 46.5165 261.106 46.1913 262.114C41.5931 262.114 36.9859 262.132 32.3878 262.142C31.7283 262.142 29.5421 262.142 26.8862 262.142C22.794 262.142 17.5725 262.16 15.0882 262.16L14.0313 261.733L4.86208 252.501L4.39233 251.356L4.50977 189.962L4.84402 189.135L14.2752 179.64L15.0069 179.331L76.2464 179.258L76.9691 179.576L86.8971 189.571H86.9152L86.8971 206.616C85.8763 206.953 84.9278 207.516 84.1147 208.334C81.3956 211.069 81.3956 215.521 84.1147 218.256C84.9097 219.055 85.8492 219.619 86.8519 219.946L86.7977 251.429L86.6532 251.402L86.3009 252.238L76.942 261.669H76.9329ZM90.881 211.959C91.8927 212.977 91.8927 214.639 90.881 215.666C89.8692 216.693 88.207 216.693 87.1862 215.675C86.1744 214.658 86.1744 212.986 87.1952 211.959C88.216 210.932 89.8692 210.932 90.881 211.959ZM163.006 179.712L163.828 180.049L173.259 189.516L173.566 190.243L173.503 251.838L173.196 252.574L163.756 262.06L162.934 262.396L101.893 262.514L100.755 262.042L91.5766 252.819L91.152 251.756L91.2062 220.473C92.2179 220.146 93.1665 219.573 93.9615 218.774C96.6806 216.039 96.6806 211.587 93.9705 208.852C93.1846 208.052 92.2451 207.489 91.2423 207.162L91.2604 190.48L91.6488 189.553L101.459 179.694H118.515C118.84 180.703 119.409 181.657 120.204 182.456C122.923 185.191 127.35 185.182 130.069 182.447C130.864 181.648 131.433 180.703 131.758 179.685L163.006 179.658V179.712ZM126.989 179.34C125.977 180.367 124.315 180.367 123.303 179.34C122.291 178.322 122.291 176.66 123.303 175.633C124.315 174.606 125.977 174.606 126.998 175.624C128.019 176.641 128.009 178.313 126.989 179.34ZM163.882 92.7404L173.286 102.217L173.63 103.044L173.603 164.439L173.124 165.584L163.927 174.833H163.909L163.846 174.87L162.871 175.269L131.767 175.288C131.442 174.27 130.873 173.316 130.078 172.516C127.359 169.781 122.942 169.79 120.213 172.516C119.418 173.316 118.849 174.27 118.524 175.278H101.938L101.405 175.06L101.279 175.006L101.026 174.897L91.685 165.493L91.3417 164.666L91.4049 103.162L91.7482 102.326L101.188 92.8131L101.911 92.486L163.151 92.4224L163.882 92.7313V92.7404ZM163.801 5.64108L173.223 15.1088L173.53 15.8448L173.458 77.4394L173.133 78.1754L163.674 87.6703L162.834 88.0156L101.685 88.0792L100.863 87.7339L91.5133 78.3389L91.1339 77.4121V60.7301C92.1367 60.403 93.0852 59.8305 93.8802 59.031C96.5993 56.2961 96.5993 51.8439 93.8802 49.109C93.0852 48.3094 92.1457 47.737 91.1339 47.4099L91.152 16.1264L91.5766 15.0634L100.782 5.81372L101.92 5.33215L162.961 5.3049L163.783 5.64108H163.801Z" fill="white"/>
<path d="M18.2044 195.329C15.4853 198.064 15.4853 202.516 18.1954 205.251C18.9903 206.05 19.9298 206.623 20.9416 206.95L20.9235 222.678C19.9118 223.005 18.9723 223.577 18.1683 224.377C15.4491 227.112 15.4491 231.564 18.1683 234.299C20.8874 237.034 25.3049 237.025 28.0331 234.299C30.7522 231.564 30.7522 227.112 28.0421 224.377C27.2471 223.577 26.3076 223.005 25.2959 222.678L25.3139 206.959C26.3167 206.632 27.2652 206.059 28.0692 205.26C30.7883 202.525 30.7883 198.073 28.0692 195.338C25.3501 192.603 20.9326 192.612 18.2044 195.338V195.329ZM24.9435 227.475C25.9553 228.493 25.9553 230.156 24.9435 231.182C23.9318 232.209 22.2696 232.209 21.2488 231.192C20.237 230.174 20.237 228.502 21.2578 227.475C22.2786 226.449 23.9318 226.449 24.9435 227.475ZM24.9797 198.427C25.9914 199.445 25.9914 201.117 24.9706 202.143C23.9498 203.17 22.2967 203.17 21.2849 202.143C20.2731 201.117 20.2731 199.454 21.2849 198.436C22.3057 197.409 23.9589 197.409 24.9797 198.427Z" fill="white"/>
<path d="M138.477 195.35C135.758 198.085 135.749 202.537 138.468 205.272C141.188 208.007 145.614 207.998 148.333 205.263C149.146 204.445 149.715 203.482 150.041 202.446H155.994V208.043C154.856 208.352 153.772 208.961 152.886 209.861C150.167 212.596 150.158 217.048 152.877 219.783C155.596 222.518 160.023 222.508 162.742 219.774C165.461 217.039 165.47 212.586 162.751 209.852C162.055 209.152 161.233 208.625 160.366 208.289V198.058H150.023C149.688 197.058 149.137 196.132 148.351 195.341C145.632 192.606 141.206 192.615 138.487 195.35H138.477ZM159.652 212.95C160.664 213.968 160.664 215.639 159.643 216.666C158.623 217.693 156.969 217.693 155.949 216.675C154.937 215.649 154.937 213.986 155.958 212.959C156.978 211.932 158.632 211.932 159.652 212.95ZM145.253 198.449C146.265 199.466 146.265 201.138 145.244 202.165C144.223 203.191 142.57 203.191 141.558 202.165C140.537 201.147 140.546 199.484 141.558 198.458C142.57 197.431 144.232 197.431 145.253 198.449Z" fill="white"/>
<path d="M153.526 107.851C150.807 110.586 150.807 115.039 153.526 117.773C154.321 118.573 155.261 119.145 156.272 119.473L156.245 135.201C155.242 135.537 154.294 136.1 153.499 136.9C150.78 139.635 150.771 144.087 153.49 146.822C156.209 149.557 160.636 149.548 163.355 146.813C166.074 144.078 166.083 139.626 163.364 136.891C162.569 136.091 161.62 135.519 160.618 135.192L160.645 119.473C161.647 119.136 162.596 118.573 163.391 117.773C166.11 115.039 166.11 110.586 163.391 107.851C160.681 105.117 156.254 105.117 153.526 107.851ZM160.274 139.998C161.286 141.016 161.286 142.678 160.265 143.705C159.244 144.732 157.591 144.732 156.57 143.714C155.559 142.697 155.559 141.025 156.579 139.998C157.6 138.971 159.253 138.971 160.274 139.998ZM160.301 110.95C161.313 111.967 161.313 113.639 160.301 114.666C159.29 115.693 157.627 115.693 156.607 114.666C155.595 113.648 155.595 111.977 156.616 110.95C157.636 109.923 159.29 109.923 160.301 110.95Z" fill="white"/>
<path d="M149.074 49.4911C146.355 52.217 146.364 56.6691 149.083 59.4131C149.896 60.2309 150.854 60.8033 151.884 61.1304V67.1091H146.319C146.012 65.9642 145.406 64.8739 144.512 63.9835C141.793 61.2485 137.366 61.2485 134.647 63.9744C131.928 66.7093 131.937 71.1615 134.647 73.8964C137.366 76.6313 141.793 76.6313 144.512 73.8964C145.208 73.1967 145.732 72.3699 146.066 71.4976H156.238V61.0941C157.232 60.7579 158.153 60.2036 158.939 59.4131C161.658 56.6873 161.649 52.2351 158.93 49.4911C156.211 46.7562 151.784 46.7562 149.065 49.4911H149.074ZM141.432 70.798C140.42 71.8157 138.767 71.8157 137.746 70.7889C136.725 69.7622 136.725 68.0994 137.737 67.0818C138.749 66.0642 140.411 66.0642 141.432 67.0818C142.452 68.0994 142.452 69.7713 141.432 70.798ZM155.849 52.5986C156.87 53.6253 156.87 55.2881 155.849 56.3148C154.838 57.3324 153.184 57.3324 152.164 56.3148C151.143 55.2971 151.143 53.6253 152.155 52.5986C153.166 51.5809 154.829 51.5809 155.849 52.5986Z" fill="white"/>
<rect x="98" y="7.90723" width="70" height="27" rx="9" fill="#D9D9D9"/>
<path d="M106.839 30.9072V28.3872L113.319 22.2672C113.831 21.8032 114.207 21.3872 114.447 21.0192C114.687 20.6512 114.847 20.3152 114.927 20.0112C115.023 19.7072 115.071 19.4272 115.071 19.1712C115.071 18.4992 114.839 17.9872 114.375 17.6352C113.927 17.2672 113.263 17.0832 112.383 17.0832C111.679 17.0832 111.023 17.2192 110.415 17.4912C109.823 17.7632 109.319 18.1872 108.903 18.7632L106.071 16.9392C106.711 15.9792 107.607 15.2192 108.759 14.6592C109.911 14.0992 111.239 13.8192 112.743 13.8192C113.991 13.8192 115.079 14.0272 116.007 14.4432C116.951 14.8432 117.679 15.4112 118.191 16.1472C118.719 16.8832 118.983 17.7632 118.983 18.7872C118.983 19.3312 118.911 19.8752 118.767 20.4192C118.639 20.9472 118.367 21.5072 117.951 22.0992C117.551 22.6912 116.959 23.3552 116.175 24.0912L110.799 29.1552L110.055 27.7392H119.535V30.9072H106.839ZM128.339 31.1952C126.963 31.1952 125.731 30.8592 124.643 30.1872C123.555 29.4992 122.699 28.5072 122.075 27.2112C121.451 25.9152 121.139 24.3472 121.139 22.5072C121.139 20.6672 121.451 19.0992 122.075 17.8032C122.699 16.5072 123.555 15.5232 124.643 14.8512C125.731 14.1632 126.963 13.8192 128.339 13.8192C129.731 13.8192 130.963 14.1632 132.035 14.8512C133.123 15.5232 133.979 16.5072 134.603 17.8032C135.227 19.0992 135.539 20.6672 135.539 22.5072C135.539 24.3472 135.227 25.9152 134.603 27.2112C133.979 28.5072 133.123 29.4992 132.035 30.1872C130.963 30.8592 129.731 31.1952 128.339 31.1952ZM128.339 27.9072C128.995 27.9072 129.563 27.7232 130.043 27.3552C130.539 26.9872 130.923 26.4032 131.195 25.6032C131.483 24.8032 131.627 23.7712 131.627 22.5072C131.627 21.2432 131.483 20.2112 131.195 19.4112C130.923 18.6112 130.539 18.0272 130.043 17.6592C129.563 17.2912 128.995 17.1072 128.339 17.1072C127.699 17.1072 127.131 17.2912 126.635 17.6592C126.155 18.0272 125.771 18.6112 125.483 19.4112C125.211 20.2112 125.075 21.2432 125.075 22.5072C125.075 23.7712 125.211 24.8032 125.483 25.6032C125.771 26.4032 126.155 26.9872 126.635 27.3552C127.131 27.7232 127.699 27.9072 128.339 27.9072ZM137.19 30.9072V28.3872L143.67 22.2672C144.182 21.8032 144.558 21.3872 144.798 21.0192C145.038 20.6512 145.198 20.3152 145.278 20.0112C145.374 19.7072 145.422 19.4272 145.422 19.1712C145.422 18.4992 145.19 17.9872 144.726 17.6352C144.278 17.2672 143.614 17.0832 142.734 17.0832C142.03 17.0832 141.374 17.2192 140.766 17.4912C140.174 17.7632 139.67 18.1872 139.254 18.7632L136.422 16.9392C137.062 15.9792 137.958 15.2192 139.11 14.6592C140.262 14.0992 141.59 13.8192 143.094 13.8192C144.342 13.8192 145.43 14.0272 146.358 14.4432C147.302 14.8432 148.03 15.4112 148.542 16.1472C149.07 16.8832 149.334 17.7632 149.334 18.7872C149.334 19.3312 149.262 19.8752 149.118 20.4192C148.99 20.9472 148.718 21.5072 148.302 22.0992C147.902 22.6912 147.31 23.3552 146.526 24.0912L141.15 29.1552L140.406 27.7392H149.886V30.9072H137.19ZM154.083 30.9072V15.5472L155.763 17.2272H150.723V14.1072H157.971V30.9072H154.083Z" fill="#171B48"/>
</svg>
