<svg width="88" height="351" viewBox="0 0 88 351" fill="none" xmlns="http://www.w3.org/2000/svg">
<path d="M82.0486 90.871C85.2776 91.1293 87.7186 93.904 87.5632 97.1396L87.5432 97.5573L87.3939 104.029L87.6926 110.55L88.1406 117.022L88.455 122.905C88.4777 123.33 88.4552 123.755 88.3879 124.175L87.6327 128.886C87.5079 129.664 87.5378 130.46 87.7207 131.227L88.6563 135.15C88.8737 136.062 88.8746 137.012 88.6587 137.924L87.7068 141.946C87.5329 142.681 87.4993 143.442 87.6077 144.189L88.2712 148.764C88.3497 149.305 88.3538 149.855 88.2834 150.397L87.6434 155.329C87.5769 155.842 87.5769 156.361 87.6434 156.874L88.3895 162.623L88.6883 169.144L88.6579 169.545C88.4021 172.922 85.4045 175.418 82.0375 175.058L81.6685 175.019L75.1466 175.118L68.6248 175.566L62.1527 175.218L56.5002 174.87C55.9563 174.837 55.4105 174.877 54.8776 174.991L49.6883 176.1C49.336 176.176 48.9775 176.219 48.6174 176.23L42.6368 176.413L36.115 176.014L29.5931 175.616L23.121 175.467L17.1671 175.876C16.7893 175.902 16.4099 175.892 16.0339 175.846L10.0275 175.118C6.68986 175.173 3.95365 172.482 3.95365 169.144L3.15709 162.673L3.1073 156.151L3.65494 149.679L3.7014 143.594C3.70362 143.304 3.68472 143.013 3.64487 142.726L2.91582 137.461C2.84464 136.947 2.84046 136.425 2.90338 135.91L3.60516 130.165L4.00344 123.643L4.20259 117.122L3.8043 110.65L4.20259 104.129L4.35194 97.5573L4.31805 96.744C4.19444 93.7775 6.25915 91.1667 9.17432 90.6033L9.55403 90.5299C9.86915 90.469 10.1886 90.4335 10.5094 90.4237L15.7512 90.2636C16.281 90.2474 16.8105 90.3015 17.326 90.4244L22.3126 91.6135C22.7834 91.7258 23.2661 91.7806 23.7501 91.7769L29.5433 91.7327L36.0154 91.4838L41.9411 91.0315C42.3376 91.0012 42.736 91.0105 43.1307 91.059L48.2339 91.6871C48.7487 91.7504 49.2696 91.7468 49.7835 91.6762L55.5312 90.8864L62.0531 90.8366L67.9139 91.3735C68.3533 91.4137 68.7958 91.4054 69.2333 91.3486L74.5983 90.6524C74.9301 90.6094 75.2649 90.5941 75.5992 90.6069L81.6188 90.8366L82.0486 90.871Z" fill="#7C3B92" stroke="#FFFBDB" stroke-width="5"/>
<path d="M82.0486 90.871C85.2776 91.1293 87.7186 93.904 87.5632 97.1396L87.5432 97.5573L87.3939 104.029L87.6926 110.55L88.1406 117.022L88.455 122.905C88.4777 123.33 88.4552 123.755 88.3879 124.175L87.6327 128.886C87.5079 129.664 87.5378 130.46 87.7207 131.227L88.6563 135.15C88.8737 136.062 88.8746 137.012 88.6587 137.924L87.7068 141.946C87.5329 142.681 87.4993 143.442 87.6077 144.189L88.2712 148.764C88.3497 149.305 88.3538 149.855 88.2834 150.397L87.6434 155.329C87.5769 155.842 87.5769 156.361 87.6434 156.874L88.3895 162.623L88.6883 169.144L88.6579 169.545C88.4021 172.922 85.4045 175.418 82.0375 175.058L81.6685 175.019L75.1466 175.118L68.6248 175.566L62.1527 175.218L56.5002 174.87C55.9563 174.837 55.4105 174.877 54.8776 174.991L49.6883 176.1C49.336 176.176 48.9775 176.219 48.6174 176.23L42.6368 176.413L36.115 176.014L29.5931 175.616L23.121 175.467L17.1671 175.876C16.7893 175.902 16.4099 175.892 16.0339 175.846L10.0275 175.118C6.68986 175.173 3.95365 172.482 3.95365 169.144L3.15709 162.673L3.1073 156.151L3.65494 149.679L3.7014 143.594C3.70362 143.304 3.68472 143.013 3.64487 142.726L2.91582 137.461C2.84464 136.947 2.84046 136.425 2.90338 135.91L3.60516 130.165L4.00344 123.643L4.20259 117.122L3.8043 110.65L4.20259 104.129L4.35194 97.5573L4.31805 96.744C4.19444 93.7775 6.25915 91.1667 9.17432 90.6033L9.55403 90.5299C9.86915 90.469 10.1886 90.4335 10.5094 90.4237L15.7512 90.2636C16.281 90.2474 16.8105 90.3015 17.326 90.4244L22.3126 91.6135C22.7834 91.7258 23.2661 91.7806 23.7501 91.7769L29.5433 91.7327L36.0154 91.4838L41.9411 91.0315C42.3376 91.0012 42.736 91.0105 43.1307 91.059L48.2339 91.6871C48.7487 91.7504 49.2696 91.7468 49.7835 91.6762L55.5312 90.8864L62.0531 90.8366L67.9139 91.3735C68.3533 91.4137 68.7958 91.4054 69.2333 91.3486L74.5983 90.6524C74.9301 90.6094 75.2649 90.5941 75.5992 90.6069L81.6188 90.8366L82.0486 90.871Z" fill="#7C3B92" stroke="#FFFBDB" stroke-width="5" stroke-linecap="round" stroke-linejoin="round"/>
<path d="M82.0486 262.91C85.2776 263.168 87.7186 265.943 87.5632 269.179L87.5432 269.596L87.3939 276.068L87.6926 282.59L88.1406 289.061L88.455 294.944C88.4777 295.369 88.4552 295.794 88.3879 296.214L87.6327 300.925C87.5079 301.703 87.5378 302.499 87.7207 303.266L88.6563 307.189C88.8737 308.101 88.8746 309.051 88.6587 309.963L87.7068 313.985C87.5329 314.72 87.4993 315.481 87.6077 316.228L88.2712 320.803C88.3497 321.344 88.3538 321.894 88.2834 322.436L87.6434 327.368C87.5769 327.881 87.5769 328.4 87.6434 328.913L88.3895 334.662L88.6883 341.183L88.6579 341.584C88.4021 344.961 85.4045 347.457 82.0375 347.097L81.6685 347.058L75.1466 347.157L68.6248 347.605L62.1527 347.257L56.5002 346.909C55.9563 346.876 55.4105 346.916 54.8776 347.03L49.6883 348.139C49.336 348.215 48.9775 348.258 48.6174 348.269L42.6368 348.452L36.115 348.053L29.5931 347.655L23.121 347.506L17.1671 347.915C16.7893 347.941 16.4099 347.931 16.0339 347.885L10.0275 347.157C6.68986 347.212 3.95365 344.521 3.95365 341.183L3.15709 334.712L3.1073 328.19L3.65494 321.718L3.7014 315.633C3.70362 315.343 3.68472 315.053 3.64487 314.765L2.91582 309.5C2.84464 308.986 2.84046 308.464 2.90338 307.949L3.60516 302.204L4.00344 295.682L4.20259 289.161L3.8043 282.689L4.20259 276.168L4.35194 269.596L4.31805 268.783C4.19444 265.817 6.25915 263.206 9.17432 262.642L9.55403 262.569C9.86915 262.508 10.1886 262.473 10.5094 262.463L15.7512 262.303C16.281 262.287 16.8105 262.341 17.326 262.464L22.3126 263.653C22.7834 263.765 23.2661 263.82 23.7501 263.816L29.5433 263.772L36.0154 263.523L41.9411 263.071C42.3376 263.04 42.736 263.05 43.1307 263.098L48.2339 263.726C48.7487 263.789 49.2696 263.786 49.7835 263.715L55.5312 262.925L62.0531 262.876L67.9139 263.413C68.3533 263.453 68.7958 263.444 69.2333 263.388L74.5983 262.691C74.9301 262.648 75.2649 262.633 75.5992 262.646L81.6188 262.876L82.0486 262.91Z" fill="#7C3B92" stroke="#FFFBDB" stroke-width="5"/>
<path d="M82.0486 262.91C85.2776 263.168 87.7186 265.943 87.5632 269.179L87.5432 269.596L87.3939 276.068L87.6926 282.59L88.1406 289.061L88.455 294.944C88.4777 295.369 88.4552 295.794 88.3879 296.214L87.6327 300.925C87.5079 301.703 87.5378 302.499 87.7207 303.266L88.6563 307.189C88.8737 308.101 88.8746 309.051 88.6587 309.963L87.7068 313.985C87.5329 314.72 87.4993 315.481 87.6077 316.228L88.2712 320.803C88.3497 321.344 88.3538 321.894 88.2834 322.436L87.6434 327.368C87.5769 327.881 87.5769 328.4 87.6434 328.913L88.3895 334.662L88.6883 341.183L88.6579 341.584C88.4021 344.961 85.4045 347.457 82.0375 347.097L81.6685 347.058L75.1466 347.157L68.6248 347.605L62.1527 347.257L56.5002 346.909C55.9563 346.876 55.4105 346.916 54.8776 347.03L49.6883 348.139C49.336 348.215 48.9775 348.258 48.6174 348.269L42.6368 348.452L36.115 348.053L29.5931 347.655L23.121 347.506L17.1671 347.915C16.7893 347.941 16.4099 347.931 16.0339 347.885L10.0275 347.157C6.68986 347.212 3.95365 344.521 3.95365 341.183L3.15709 334.712L3.1073 328.19L3.65494 321.718L3.7014 315.633C3.70362 315.343 3.68472 315.053 3.64487 314.765L2.91582 309.5C2.84464 308.986 2.84046 308.464 2.90338 307.949L3.60516 302.204L4.00344 295.682L4.20259 289.161L3.8043 282.689L4.20259 276.168L4.35194 269.596L4.31805 268.783C4.19444 265.817 6.25915 263.206 9.17432 262.642L9.55403 262.569C9.86915 262.508 10.1886 262.473 10.5094 262.463L15.7512 262.303C16.281 262.287 16.8105 262.341 17.326 262.464L22.3126 263.653C22.7834 263.765 23.2661 263.82 23.7501 263.816L29.5433 263.772L36.0154 263.523L41.9411 263.071C42.3376 263.04 42.736 263.05 43.1307 263.098L48.2339 263.726C48.7487 263.789 49.2696 263.786 49.7835 263.715L55.5312 262.925L62.0531 262.876L67.9139 263.413C68.3533 263.453 68.7958 263.444 69.2333 263.388L74.5983 262.691C74.9301 262.648 75.2649 262.633 75.5992 262.646L81.6188 262.876L82.0486 262.91Z" fill="#7C3B92" stroke="#FFFBDB" stroke-width="5" stroke-linecap="round" stroke-linejoin="round"/>
<path d="M82.0486 176.375C85.2776 176.634 87.7186 179.408 87.5632 182.644L87.5432 183.062L87.3939 189.533L87.6926 196.055L88.1406 202.527L88.455 208.41C88.4777 208.834 88.4552 209.26 88.3879 209.679L87.6327 214.39C87.5079 215.169 87.5378 215.964 87.7207 216.732L88.6563 220.655C88.8737 221.566 88.8746 222.516 88.6587 223.428L87.7068 227.451C87.5329 228.185 87.4993 228.946 87.6077 229.694L88.2712 234.268C88.3497 234.81 88.3538 235.359 88.2834 235.902L87.6434 240.834C87.5769 241.346 87.5769 241.865 87.6434 242.378L88.3895 248.127L88.6883 254.649L88.6579 255.05C88.4021 258.426 85.4045 260.922 82.0375 260.562L81.6685 260.523L75.1466 260.623L68.6248 261.071L62.1527 260.722L56.5002 260.374C55.9563 260.341 55.4105 260.382 54.8776 260.496L49.6883 261.605C49.336 261.68 48.9775 261.723 48.6174 261.734L42.6368 261.917L36.115 261.519L29.5931 261.12L23.121 260.971L17.1671 261.38C16.7893 261.406 16.4099 261.396 16.0339 261.351L10.0275 260.623C6.68986 260.677 3.95365 257.987 3.95365 254.649L3.15709 248.177L3.1073 241.656L3.65494 235.184L3.7014 229.099C3.70362 228.808 3.68472 228.518 3.64487 228.23L2.91582 222.965C2.84464 222.451 2.84046 221.93 2.90338 221.415L3.60516 215.669L4.00344 209.148L4.20259 202.626L3.8043 196.154L4.20259 189.633L4.35194 183.062L4.31805 182.248C4.19444 179.282 6.25915 176.671 9.17432 176.108L9.55403 176.034C9.86915 175.973 10.1886 175.938 10.5094 175.928L15.7512 175.768C16.281 175.752 16.8105 175.806 17.326 175.929L22.3126 177.118C22.7834 177.23 23.2661 177.285 23.7501 177.281L29.5433 177.237L36.0154 176.988L41.9411 176.536C42.3376 176.506 42.736 176.515 43.1307 176.563L48.2339 177.191C48.7487 177.255 49.2696 177.251 49.7835 177.181L55.5312 176.391L62.0531 176.341L67.9139 176.878C68.3533 176.918 68.7958 176.91 69.2333 176.853L74.5983 176.157C74.9301 176.114 75.2649 176.099 75.5992 176.111L81.6188 176.341L82.0486 176.375Z" fill="#7C3B92" stroke="#FFFBDB" stroke-width="5"/>
<path d="M82.0486 176.375C85.2776 176.634 87.7186 179.408 87.5632 182.644L87.5432 183.062L87.3939 189.533L87.6926 196.055L88.1406 202.527L88.455 208.41C88.4777 208.834 88.4552 209.26 88.3879 209.679L87.6327 214.39C87.5079 215.169 87.5378 215.964 87.7207 216.732L88.6563 220.655C88.8737 221.566 88.8746 222.516 88.6587 223.428L87.7068 227.451C87.5329 228.185 87.4993 228.946 87.6077 229.694L88.2712 234.268C88.3497 234.81 88.3538 235.359 88.2834 235.902L87.6434 240.834C87.5769 241.346 87.5769 241.865 87.6434 242.378L88.3895 248.127L88.6883 254.649L88.6579 255.05C88.4021 258.426 85.4045 260.922 82.0375 260.562L81.6685 260.523L75.1466 260.623L68.6248 261.071L62.1527 260.722L56.5002 260.374C55.9563 260.341 55.4105 260.382 54.8776 260.496L49.6883 261.605C49.336 261.68 48.9775 261.723 48.6174 261.734L42.6368 261.917L36.115 261.519L29.5931 261.12L23.121 260.971L17.1671 261.38C16.7893 261.406 16.4099 261.396 16.0339 261.351L10.0275 260.623C6.68986 260.677 3.95365 257.987 3.95365 254.649L3.15709 248.177L3.1073 241.656L3.65494 235.184L3.7014 229.099C3.70362 228.808 3.68472 228.518 3.64487 228.23L2.91582 222.965C2.84464 222.451 2.84046 221.93 2.90338 221.415L3.60516 215.669L4.00344 209.148L4.20259 202.626L3.8043 196.154L4.20259 189.633L4.35194 183.062L4.31805 182.248C4.19444 179.282 6.25915 176.671 9.17432 176.108L9.55403 176.034C9.86915 175.973 10.1886 175.938 10.5094 175.928L15.7512 175.768C16.281 175.752 16.8105 175.806 17.326 175.929L22.3126 177.118C22.7834 177.23 23.2661 177.285 23.7501 177.281L29.5433 177.237L36.0154 176.988L41.9411 176.536C42.3376 176.506 42.736 176.515 43.1307 176.563L48.2339 177.191C48.7487 177.255 49.2696 177.251 49.7835 177.181L55.5312 176.391L62.0531 176.341L67.9139 176.878C68.3533 176.918 68.7958 176.91 69.2333 176.853L74.5983 176.157C74.9301 176.114 75.2649 176.099 75.5992 176.111L81.6188 176.341L82.0486 176.375Z" fill="#7C3B92" stroke="#FFFBDB" stroke-width="5" stroke-linecap="round" stroke-linejoin="round"/>
<path d="M82.0486 3.30656C85.2776 3.56487 87.7186 6.33958 87.5632 9.57515L87.5432 9.99281L87.3939 16.4645L87.6926 22.986L88.1406 29.4577L88.455 35.3407C88.4777 35.7652 88.4552 36.1909 88.3879 36.6106L87.6327 41.3212C87.5079 42.0999 87.5378 42.8956 87.7207 43.6628L88.6563 47.5859C88.8737 48.4976 88.8746 49.4475 88.6587 50.3595L87.7068 54.3819C87.5329 55.1166 87.4993 55.8776 87.6077 56.6249L88.2712 61.1995C88.3497 61.7409 88.3538 62.2905 88.2834 62.833L87.6434 67.7647C87.5769 68.2774 87.5769 68.7965 87.6434 69.3091L88.3895 75.0584L88.6883 81.5799L88.6579 81.9809C88.4021 85.3574 85.4045 87.8535 82.0375 87.4937L81.6685 87.4542L75.1466 87.5538L68.6248 88.0018L62.1527 87.6534L56.5002 87.3055C55.9563 87.2721 55.4105 87.3128 54.8776 87.4267L49.6883 88.5358C49.336 88.6111 48.9775 88.6545 48.6174 88.6655L42.6368 88.8481L36.115 88.4499L29.5931 88.0516L23.121 87.9023L17.1671 88.3113C16.7893 88.3372 16.4099 88.3274 16.0339 88.2818L10.0275 87.5538C6.68986 87.6085 3.95365 84.918 3.95365 81.5799L3.15709 75.1082L3.1073 68.5867L3.65494 62.115L3.7014 56.0299C3.70362 55.7394 3.68472 55.449 3.64487 55.1612L2.91582 49.8962C2.84464 49.3821 2.84046 48.8609 2.90338 48.3457L3.60516 42.6003L4.00344 36.0788L4.20259 29.5573L3.8043 23.0856L4.20259 16.5641L4.35194 9.99281L4.31805 9.1796C4.19444 6.21305 6.25915 3.60222 9.17432 3.03881L9.55403 2.96543C9.86915 2.90453 10.1886 2.86901 10.5094 2.85921L15.7512 2.69917C16.281 2.68299 16.8105 2.73707 17.326 2.85999L22.3126 4.04904C22.7834 4.16131 23.2661 4.21619 23.7501 4.21249L29.5433 4.16827L36.0154 3.91936L41.9411 3.46704C42.3376 3.43678 42.736 3.446 43.1307 3.49457L48.2339 4.12261C48.7487 4.18597 49.2696 4.1823 49.7835 4.1117L55.5312 3.32197L62.0531 3.27218L67.9139 3.80901C68.3533 3.84926 68.7958 3.84091 69.2333 3.78413L74.5983 3.08797C74.9301 3.04491 75.2649 3.02969 75.5992 3.04244L81.6188 3.27218L82.0486 3.30656Z" fill="#7C3B92" stroke="#FFFBDB" stroke-width="5"/>
<path d="M82.0486 3.30656C85.2776 3.56487 87.7186 6.33958 87.5632 9.57515L87.5432 9.99281L87.3939 16.4645L87.6926 22.986L88.1406 29.4577L88.455 35.3407C88.4777 35.7652 88.4552 36.1909 88.3879 36.6106L87.6327 41.3212C87.5079 42.0999 87.5378 42.8956 87.7207 43.6628L88.6563 47.5859C88.8737 48.4976 88.8746 49.4475 88.6587 50.3595L87.7068 54.3819C87.5329 55.1166 87.4993 55.8776 87.6077 56.6249L88.2712 61.1995C88.3497 61.7409 88.3538 62.2905 88.2834 62.833L87.6434 67.7647C87.5769 68.2774 87.5769 68.7965 87.6434 69.3091L88.3895 75.0584L88.6883 81.5799L88.6579 81.9809C88.4021 85.3574 85.4045 87.8535 82.0375 87.4937L81.6685 87.4542L75.1466 87.5538L68.6248 88.0018L62.1527 87.6534L56.5002 87.3055C55.9563 87.2721 55.4105 87.3128 54.8776 87.4267L49.6883 88.5358C49.336 88.6111 48.9775 88.6545 48.6174 88.6655L42.6368 88.8481L36.115 88.4499L29.5931 88.0516L23.121 87.9023L17.1671 88.3113C16.7893 88.3372 16.4099 88.3274 16.0339 88.2818L10.0275 87.5538C6.68986 87.6085 3.95365 84.918 3.95365 81.5799L3.15709 75.1082L3.1073 68.5867L3.65494 62.115L3.7014 56.0299C3.70362 55.7394 3.68472 55.449 3.64487 55.1612L2.91582 49.8962C2.84464 49.3821 2.84046 48.8609 2.90338 48.3457L3.60516 42.6003L4.00344 36.0788L4.20259 29.5573L3.8043 23.0856L4.20259 16.5641L4.35194 9.99281L4.31805 9.1796C4.19444 6.21305 6.25915 3.60222 9.17432 3.03881L9.55403 2.96543C9.86915 2.90453 10.1886 2.86901 10.5094 2.85921L15.7512 2.69917C16.281 2.68299 16.8105 2.73707 17.326 2.85999L22.3126 4.04904C22.7834 4.16131 23.2661 4.21619 23.7501 4.21249L29.5433 4.16827L36.0154 3.91936L41.9411 3.46704C42.3376 3.43678 42.736 3.446 43.1307 3.49457L48.2339 4.12261C48.7487 4.18597 49.2696 4.1823 49.7835 4.1117L55.5312 3.32197L62.0531 3.27218L67.9139 3.80901C68.3533 3.84926 68.7958 3.84091 69.2333 3.78413L74.5983 3.08797C74.9301 3.04491 75.2649 3.02969 75.5992 3.04244L81.6188 3.27218L82.0486 3.30656Z" fill="#7C3B92" stroke="#FFFBDB" stroke-width="5" stroke-linecap="round" stroke-linejoin="round"/>
</svg>
