<svg width="173" height="252" viewBox="0 0 173 252" fill="none" xmlns="http://www.w3.org/2000/svg">
<path d="M171.991 17.2203L156.49 2.00961H125.283C125.253 2.58614 125.136 3.18188 124.94 3.7488C124.94 3.94098 124.871 4.14276 124.744 4.34455C124.704 4.42142 124.646 4.49829 124.577 4.56555C124.499 4.70968 124.41 4.85381 124.312 4.99794C123.548 7.30405 120.158 7.97667 119.11 5.43034C118.433 4.93068 117.885 4.26768 117.865 3.41249C117.855 2.96088 117.934 2.47083 118.12 2H100.767L85.2562 17.2107V71.8559L99.2874 85.6157L85.7657 98.8758L72.2341 85.6061H16.5108L1 100.817V155.462L15.2762 169.452L16.5206 168.232H48.3457C48.2477 168.415 48.1497 168.578 48.042 168.741C47.8754 169.01 47.8166 169.337 47.8558 169.654C47.8656 169.712 47.8754 169.779 47.895 169.837C47.9342 169.991 48.0028 170.144 48.091 170.279C48.1497 170.365 48.2085 170.433 48.2673 170.5C48.3261 170.557 48.3947 170.615 48.4731 170.663H16.5108L15.2762 169.452L1.0098 183.443V238.088L16.5206 253.299H72.2439L87.7548 238.088H87.745V183.443L73.4785 169.452L87.2354 155.952L85.2562 154.011V138.675H85.364C85.5207 138.675 85.6775 138.666 85.8343 138.647H85.8539C86.0106 138.627 86.1772 138.608 86.334 138.57C86.4908 138.541 86.6377 138.502 86.7945 138.454C86.8239 138.445 86.8435 138.435 86.8631 138.435C87.0101 138.387 87.1669 138.33 87.3138 138.262C87.4608 138.205 87.6078 138.128 87.745 138.061V155.462L87.2354 155.952L100.767 169.222H156.49L171.991 154.011V123.33C171.668 123.465 171.296 123.484 170.953 123.388C170.806 123.484 170.639 123.551 170.463 123.599C169.336 123.897 168.425 123.215 168.052 122.216C167.435 120.534 167.788 118.247 169.777 117.719C170.11 116.854 171.256 116.652 171.991 117.085V99.3659L157.97 85.6157L171.991 71.8655V17.2203ZM21.7138 135.764C21.3708 136.36 20.7731 136.802 20.0774 137.08C19.078 137.465 17.8924 137.417 17.1183 136.6C16.4324 135.86 16.3442 134.621 16.5108 133.669C16.7264 132.497 17.5396 131.815 18.5195 131.546C18.8134 130.931 19.5581 130.546 20.2538 130.748C20.6065 130.844 20.9495 130.96 21.2924 131.113C21.7529 131.334 21.9979 131.815 22.0175 132.286C22.625 132.795 23.0365 133.487 23.0463 134.371C23.0659 135.255 22.4094 135.716 21.7138 135.764ZM36.9502 147.977C37.1462 148.496 37.058 149.13 36.6269 149.514C35.9704 150.091 35.3139 150.734 34.4614 151.013C33.5306 151.311 32.5507 151.1 31.7277 150.629H31.7081C30.983 150.216 30.2775 149.62 30.0816 148.794C29.915 148.15 30.1012 147.583 30.4245 147.054C30.3755 146.881 30.3461 146.689 30.3559 146.497C30.4343 144.652 32.4724 142.846 34.2655 142.634C35.0689 142.548 35.7548 143.374 35.7548 144.095C35.7548 144.345 35.6862 144.556 35.598 144.739C35.6176 144.854 35.6274 144.979 35.647 145.094C35.647 145.171 35.647 145.238 35.6274 145.315C35.647 145.344 35.6764 145.373 35.7058 145.402C36.5877 144.988 37.9105 145.402 37.9105 146.651C37.9105 147.371 37.4793 147.804 36.9502 147.977ZM17.2555 200.94C17.3633 200.864 17.4907 200.816 17.6082 200.787C17.8826 200.45 18.2353 200.191 18.6763 200.056C20.4988 199.509 22.0763 201.421 22.0077 203.074C21.9195 205.168 19.7835 206.859 17.7062 206.033C16.648 205.61 15.7857 204.717 15.7269 203.544C15.6682 202.42 16.354 201.536 17.2555 200.94ZM21.9489 231.592C22.0077 232.15 21.7725 232.784 21.2336 233.005C20.7437 233.216 20.2636 233.351 19.7541 233.485C19.176 233.63 18.5685 233.418 18.2059 232.995C17.9316 232.947 17.667 232.87 17.4025 232.746C15.8935 231.996 15.2664 230.209 15.8935 228.7C17.2849 225.366 22.2625 227.883 22.2037 230.805C22.2037 231.131 22.0959 231.381 21.9489 231.592ZM146.682 35.7173C146.829 33.7955 148.965 32.7481 150.778 32.8538C150.925 32.8538 151.082 32.8923 151.229 32.9211C151.64 32.8346 152.071 32.825 152.493 32.9499C153.423 33.2382 154.031 34.0645 154.521 34.8525C155.51 36.4379 155.285 38.033 153.531 38.8785C153.129 39.3109 152.6 39.6376 152.032 39.8394C151.914 39.9643 151.777 40.07 151.66 40.195C151.072 40.733 150.141 40.7715 149.553 40.195C149.455 40.0893 149.367 39.9643 149.298 39.8298C148.426 39.5031 147.603 38.8785 147.299 38.0906C146.839 37.418 146.614 36.582 146.692 35.7173H146.682ZM148.181 66.6191C147.75 66.4077 147.417 65.9946 147.417 65.3796C147.417 65.3412 147.417 65.3123 147.427 65.2835C147.094 63.1984 147.495 60.2965 150.278 60.4599C152.64 60.604 153.708 63.2657 153.737 65.2739C153.757 66.1387 153.12 66.5999 152.434 66.6672C152.248 66.869 152.003 67.0227 151.738 67.1188C151.464 67.2149 151.18 67.2917 150.915 67.3782C150.895 67.3782 150.866 67.3974 150.846 67.3974C150.641 67.6184 150.366 67.7722 150.033 67.8491C149.436 67.9644 148.857 67.8106 148.465 67.3206C148.309 67.1092 148.22 66.8786 148.181 66.6191ZM110.075 122.196C109.243 123.128 107.91 123.369 106.705 123.388C105.784 123.407 105.323 122.744 105.274 122.052C104.432 121.274 104.177 119.938 104.53 118.881C104.667 118.478 104.892 118.151 105.157 117.863C104.941 117.008 105.402 116.018 106.538 116.085C107.126 116.124 107.606 116.383 107.979 116.758C109.115 116.796 110.183 117.363 110.565 118.583C110.928 119.737 110.918 121.264 110.075 122.196Z" fill="#DBFDFF"/>
<rect x="124" y="31" width="6" height="3" fill="#DADCFF"/>
<rect x="118" y="22" width="3" height="6" fill="#DADCFF"/>
<rect x="133" y="22" width="3" height="6" fill="#DADCFF"/>
<rect x="124" y="16" width="6" height="3" fill="#DADCFF"/>
<rect x="22" y="185" width="3" height="3" fill="#DADCFF"/>
<rect x="28" y="182" width="3" height="3" fill="#DADCFF"/>
<rect x="25" y="179" width="3" height="3" fill="#DADCFF"/>
<rect x="51" y="240" width="3" height="3" fill="#DADCFF"/>
<rect x="25" y="185" width="3" height="3" fill="#DADCFF"/>
<rect x="57" y="234" width="3" height="3" fill="#DADCFF"/>
<rect x="54" y="237" width="3" height="3" fill="#DADCFF"/>
<rect x="48" y="237" width="3" height="3" fill="#DADCFF"/>
<rect x="48" y="234" width="3" height="3" fill="#DADCFF"/>
<rect x="54" y="231" width="3" height="3" fill="#DADCFF"/>
<rect x="51" y="231" width="3" height="3" fill="#DADCFF"/>
<rect x="48" y="231" width="3" height="3" fill="#DADCFF"/>
<rect x="22" y="182" width="3" height="3" fill="#DADCFF"/>
<rect x="64" y="181" width="4" height="8" fill="#DADCFF"/>
<rect x="68" y="189" width="4" height="8" fill="#DADCFF"/>
<rect x="114" y="61" width="4" height="8" fill="#DADCFF"/>
<rect x="106" y="69" width="8" height="4" fill="#DADCFF"/>
<rect x="124" y="127" width="4" height="4" fill="#DADCFF"/>
<rect x="45" y="121" width="3" height="3" fill="#DADCFF"/>
<rect x="42" y="121" width="3" height="3" fill="#DADCFF"/>
<rect x="39" y="124" width="3" height="3" fill="#DADCFF"/>
<path d="M39 127H42V130H39V127Z" fill="#DADCFF"/>
<rect x="42" y="130" width="3" height="3" fill="#DADCFF"/>
<rect x="45" y="130" width="3" height="3" fill="#DADCFF"/>
<rect x="48" y="127" width="3" height="3" fill="#DADCFF"/>
<rect x="48" y="124" width="3" height="3" fill="#DADCFF"/>
<rect x="99" y="98" width="3" height="3" fill="#DADCFF"/>
<rect x="96" y="98" width="3" height="3" fill="#DADCFF"/>
<rect x="93" y="101" width="3" height="3" fill="#DADCFF"/>
<path d="M93 104H96V107H93V104Z" fill="#DADCFF"/>
<rect x="96" y="104" width="3" height="3" fill="#DADCFF"/>
<rect x="99" y="101" width="3" height="3" fill="#DADCFF"/>
<rect x="64" y="220" width="3" height="3" fill="#DADCFF"/>
<rect x="67" y="217" width="3" height="3" fill="#DADCFF"/>
<rect x="64" y="214" width="3" height="3" fill="#DADCFF"/>
<rect x="61" y="217" width="3" height="3" fill="#DADCFF"/>
<rect x="147" y="110" width="3" height="6" fill="#DADCFF"/>
<rect x="150" y="107" width="6" height="3" fill="#DADCFF"/>
<rect x="147" y="101" width="3" height="6" fill="#DADCFF"/>
<rect x="141" y="107" width="6" height="3" fill="#DADCFF"/>
<rect x="109" y="158" width="3" height="3" fill="#DADCFF"/>
<rect x="112" y="155" width="3" height="3" fill="#DADCFF"/>
<rect x="109" y="152" width="3" height="3" fill="#DADCFF"/>
<rect x="106" y="155" width="3" height="3" fill="#DADCFF"/>
<rect x="98" y="40" width="3" height="3" fill="#DADCFF"/>
<rect x="101" y="37" width="3" height="3" fill="#DADCFF"/>
<rect x="98" y="34" width="3" height="3" fill="#DADCFF"/>
<rect x="95" y="37" width="3" height="3" fill="#DADCFF"/>
<rect x="41" y="207" width="3" height="3" fill="#DADCFF"/>
<rect x="44" y="204" width="3" height="3" fill="#DADCFF"/>
<rect x="41" y="201" width="3" height="3" fill="#DADCFF"/>
<rect x="44" y="201" width="3" height="3" fill="#DADCFF"/>
<rect x="38" y="201" width="3" height="3" fill="#DADCFF"/>
<rect x="38" y="204" width="3" height="3" fill="#DADCFF"/>
<rect x="62" y="146" width="6" height="6" fill="#DADCFF"/>
<rect x="18" y="153" width="3" height="9" fill="#DADCFF"/>
<rect x="24" y="153" width="3" height="9" fill="#DADCFF"/>
<rect x="153" y="146" width="3" height="6" fill="#DADCFF"/>
<rect x="150" y="152" width="3" height="3" fill="#DADCFF"/>
<rect x="150" y="143" width="3" height="3" fill="#DADCFF"/>
<rect x="147" y="146" width="3" height="6" fill="#DADCFF"/>
<rect x="128" y="131" width="4" height="4" fill="#DADCFF"/>
<rect x="138" y="49" width="4" height="4" fill="#DADCFF"/>
<rect x="134" y="53" width="4" height="4" fill="#DADCFF"/>
<g filter="url(#filter0_d_1824_8123)">
<path d="M74.8399 252.692L77.0936 251.731L87.4308 241.575L88.4009 239.249L88.4695 179.3L87.4798 176.994L78.2988 167.981L86.6568 159.804L95.6713 168.634L98.0327 169.586L159.057 169.557L161.722 168.452L171.863 158.516L172.922 155.98L172.941 125.52V120.571C172.843 120.706 172.735 120.85 172.618 120.965C171.628 121.936 170.021 121.936 169.022 120.965C168.032 119.995 168.042 118.419 169.022 117.448C170.011 116.478 171.618 116.468 172.618 117.448C172.735 117.564 172.853 117.708 172.941 117.842V96.2513L171.912 93.8491L162.663 84.788L171.922 75.6981L172.892 73.3823L173 13.5676L171.873 10.954L161.771 1.03775L159.184 0L128.123 0.0576528L123.087 0.0768703C123.087 0.0768703 123.117 0.0768703 123.126 0.0960879C123.254 0.182567 123.381 0.278655 123.489 0.39396C124.469 1.35484 124.469 2.94029 123.489 3.91078C122.499 4.88127 120.892 4.89088 119.903 3.91078C118.923 2.9499 118.923 1.36445 119.903 0.384352C120.01 0.278655 120.148 0.163349 120.275 0.0768703H120.295L115.248 0.0960879L98.2776 0.115306L95.828 1.13384L85.5692 11.2135L84.5697 13.5292L84.5011 73.0749V73.488L85.4614 75.8134L94.7306 84.9225L86.3824 93.0996L77.5051 84.4036L74.8399 83.2986L13.8157 83.4043L11.4543 84.3556L1.08762 94.5025L0.127379 96.7317L0.0587902 156.816L1.03863 159.026L10.2393 168.039L1.15621 176.956L0.0293951 179.569L0 239.413L0.970039 241.728L11.2975 251.875L13.5707 252.807L74.8301 252.73V252.711L74.8399 252.692ZM98.1993 82.4146L89.0476 73.4208L88.7242 72.6329L88.7928 14.3459L89.1358 13.558L98.2286 4.62183L99.1301 4.25669L115.258 4.23748C115.572 5.18875 116.12 6.08237 116.885 6.83185C119.521 9.41662 123.822 9.41662 126.477 6.83185C127.251 6.07276 127.8 5.15992 128.123 4.19904L158.351 4.151L159.38 4.56418L168.297 13.2986L168.757 14.3844L168.65 72.556L168.326 73.3439L159.155 82.3474L158.44 82.6452L98.9243 82.7125L98.2189 82.4146H98.2091H98.1993ZM98.1797 87.3824L98.9929 87.0653L158.43 86.998L159.233 87.3247L168.316 96.2224L168.689 97.0968V112.913C167.719 113.22 166.788 113.768 166.014 114.518C163.378 117.112 163.368 121.33 166.014 123.915C166.788 124.674 167.709 125.212 168.689 125.52L168.669 155.163L168.248 156.172L159.302 164.935L158.185 165.396L98.8655 165.415L98.0719 165.098L88.5479 155.768L88.5675 139.894C89.5571 139.587 90.4879 139.039 91.2718 138.271C93.9076 135.686 93.9174 131.468 91.2718 128.864C90.4977 128.104 89.5767 127.566 88.6066 127.259L88.6556 97.0584H88.6752L88.9888 96.3666L98.1699 87.3631V87.3824H98.1797ZM84.6677 135.349C83.6879 134.379 83.6879 132.803 84.6677 131.823C85.6475 130.853 87.2643 130.843 88.2637 131.823C89.2435 132.784 89.2435 134.369 88.2539 135.349C87.2643 136.32 85.6573 136.32 84.6677 135.349ZM14.5702 165.905L13.7667 165.588L4.59544 156.614L4.29169 155.922L4.36027 97.5581L4.66402 96.8566L13.8451 87.8628L14.6486 87.5457L73.9679 87.44L75.0751 87.9012L83.9916 96.6452L84.4129 97.6445L84.364 127.288C83.3841 127.595 82.4631 128.143 81.6792 128.902C79.0336 131.487 79.0336 135.705 81.6792 138.309C82.4435 139.058 83.3547 139.597 84.3248 139.904L84.3052 155.72L83.923 156.604L73.8993 165.953H57.8202C57.5066 164.993 56.9481 164.089 56.1838 163.33C53.5481 160.746 49.2466 160.746 46.5912 163.33C45.8172 164.089 45.2685 164.993 44.9451 165.953L14.58 165.973V165.905H14.5702ZM49.5797 166.251C50.5596 165.281 52.1763 165.281 53.1659 166.251C54.1458 167.222 54.1458 168.798 53.1659 169.768C52.1861 170.739 50.5694 170.748 49.5699 169.768C48.5705 168.788 48.5901 167.222 49.5699 166.242L49.5797 166.251ZM13.7275 248.31L4.58564 239.326L4.25249 238.548L4.28189 180.376L4.75221 179.29L13.6883 170.518L14.7172 170.104L44.9451 170.076C45.2587 171.037 45.8172 171.94 46.5814 172.699C49.2172 175.284 53.5187 175.284 56.174 172.699C56.9481 171.94 57.4968 171.037 57.8202 170.076H73.9385L74.8301 170.441L83.9034 179.348L84.2366 180.136L84.168 238.423L83.8348 239.221L74.6636 248.224L73.9581 248.531L14.4428 248.599L13.7275 248.31Z" fill="#2D88FF"/>
<path d="M155.306 66.9829C157.951 64.3885 157.951 60.1798 155.306 57.5759C154.531 56.8168 153.61 56.2787 152.631 55.9712L152.65 41.068C153.63 40.7605 154.551 40.2128 155.325 39.4537C157.961 36.8689 157.971 32.6507 155.325 30.0467C152.68 27.4523 148.388 27.4619 145.733 30.0467C143.087 32.6314 143.087 36.8497 145.733 39.4537C146.507 40.2128 147.428 40.7509 148.407 41.0583L148.388 55.952C147.408 56.2595 146.487 56.8072 145.713 57.5663C143.077 60.1606 143.067 64.3789 145.713 66.9733C148.349 69.558 152.65 69.558 155.306 66.9733V66.9829ZM148.76 36.523C147.78 35.5525 147.78 33.9767 148.76 32.9966C149.74 32.0261 151.357 32.0165 152.356 32.9966C153.336 33.9574 153.336 35.5429 152.356 36.523C151.367 37.4935 149.76 37.5031 148.77 36.523H148.76ZM148.721 64.0426C147.741 63.0817 147.741 61.4963 148.721 60.5162C149.711 59.5457 151.318 59.5457 152.307 60.5162C153.287 61.477 153.287 63.0625 152.307 64.0426C151.327 65.0131 149.711 65.0131 148.711 64.0426H148.721Z" fill="#2D88FF"/>
<path d="M38.4205 151.078C41.0661 148.484 41.0661 144.266 38.4205 141.671C35.7749 139.077 31.4833 139.087 28.8279 141.681C28.044 142.45 27.4855 143.372 27.1622 144.352H21.3811V139.048C22.4982 138.75 23.5368 138.183 24.399 137.328C27.0446 134.734 27.0446 130.516 24.399 127.931C21.7633 125.346 17.4618 125.346 14.8064 127.931C12.1609 130.525 12.1609 134.734 14.8064 137.338C15.4923 138.01 16.2762 138.5 17.1286 138.827V148.522H27.1818C27.4953 149.454 28.044 150.348 28.8083 151.088C31.4441 153.673 35.7456 153.673 38.4009 151.088V151.069L38.4205 151.078ZM17.8341 134.397C16.8543 133.437 16.8543 131.851 17.8341 130.871C18.8238 129.901 20.4307 129.891 21.4301 130.871C22.41 131.832 22.41 133.408 21.4301 134.388C20.4405 135.358 18.8336 135.368 17.8341 134.397ZM31.836 148.138C30.8562 147.177 30.8562 145.592 31.836 144.612C32.8256 143.641 34.4326 143.641 35.4222 144.612C36.4118 145.573 36.402 147.148 35.4222 148.128C34.4424 149.099 32.8256 149.109 31.8262 148.128L31.836 148.138Z" fill="#2D88FF"/>
<path d="M23.7897 233.993C26.4254 231.398 26.4352 227.19 23.7897 224.586C23.0156 223.827 22.0945 223.289 21.1147 222.981L21.1441 208.078C22.1141 207.77 23.045 207.223 23.8191 206.464C26.4646 203.879 26.4646 199.66 23.8191 197.057C21.1833 194.472 16.8818 194.472 14.2265 197.066C11.5809 199.651 11.5809 203.869 14.2265 206.473C15.0005 207.232 15.9216 207.77 16.9014 208.078L16.872 222.971C15.902 223.279 14.9809 223.827 14.1971 224.586C11.5515 227.18 11.5515 231.398 14.1971 233.993C16.8328 236.577 21.1343 236.577 23.7897 233.993ZM17.2248 203.533C16.2449 202.572 16.2449 200.987 17.2248 200.006C18.2144 199.036 19.8213 199.036 20.8208 200.006C21.8006 200.967 21.8006 202.553 20.8208 203.533C19.8311 204.503 18.2242 204.513 17.2248 203.533ZM17.1954 231.052C16.2155 230.092 16.2155 228.506 17.1954 227.526C18.185 226.565 19.7919 226.556 20.7914 227.526C21.7712 228.487 21.7712 230.072 20.7914 231.052C19.8017 232.023 18.1948 232.023 17.2052 231.052H17.1954Z" fill="#2D88FF"/>
<path d="M112.379 123.559C115.014 120.974 115.014 116.756 112.379 114.152C111.595 113.383 110.654 112.826 109.655 112.518V106.849H115.063C115.357 107.935 115.955 108.953 116.817 109.808C119.463 112.403 123.755 112.403 126.41 109.818C129.046 107.233 129.046 103.015 126.41 100.421C123.764 97.8359 119.463 97.8263 116.817 100.421C116.131 101.093 115.632 101.862 115.299 102.698H105.412V112.557C104.452 112.864 103.55 113.402 102.796 114.152C100.16 116.736 100.16 120.955 102.806 123.559C105.441 126.153 109.743 126.153 112.389 123.559H112.379ZM119.806 103.371C120.786 102.41 122.393 102.41 123.392 103.38C124.382 104.351 124.392 105.927 123.402 106.897C122.412 107.858 120.805 107.858 119.806 106.897C118.816 105.936 118.816 104.351 119.806 103.371ZM105.794 120.609C104.805 119.638 104.795 118.062 105.794 117.082C106.774 116.121 108.381 116.121 109.38 117.082C110.37 118.043 110.38 119.629 109.38 120.599C108.401 121.56 106.784 121.56 105.784 120.599L105.794 120.609Z" fill="#2D88FF"/>
</g>
<rect x="10" y="90" width="70" height="27" rx="9" fill="#D9D9D9"/>
<path d="M12.6572 113V110.48L19.1372 104.36C19.6492 103.896 20.0252 103.48 20.2652 103.112C20.5052 102.744 20.6652 102.408 20.7452 102.104C20.8412 101.8 20.8892 101.52 20.8892 101.264C20.8892 100.592 20.6572 100.08 20.1932 99.728C19.7452 99.36 19.0812 99.176 18.2012 99.176C17.4972 99.176 16.8412 99.312 16.2332 99.584C15.6412 99.856 15.1372 100.28 14.7212 100.856L11.8892 99.032C12.5292 98.072 13.4252 97.312 14.5772 96.752C15.7292 96.192 17.0572 95.912 18.5612 95.912C19.8092 95.912 20.8972 96.12 21.8252 96.536C22.7692 96.936 23.4972 97.504 24.0092 98.24C24.5372 98.976 24.8012 99.856 24.8012 100.88C24.8012 101.424 24.7292 101.968 24.5852 102.512C24.4572 103.04 24.1852 103.6 23.7692 104.192C23.3692 104.784 22.7772 105.448 21.9932 106.184L16.6172 111.248L15.8732 109.832H25.3532V113H12.6572ZM34.1575 113.288C32.7815 113.288 31.5495 112.952 30.4615 112.28C29.3735 111.592 28.5175 110.6 27.8935 109.304C27.2695 108.008 26.9575 106.44 26.9575 104.6C26.9575 102.76 27.2695 101.192 27.8935 99.896C28.5175 98.6 29.3735 97.616 30.4615 96.944C31.5495 96.256 32.7815 95.912 34.1575 95.912C35.5495 95.912 36.7815 96.256 37.8535 96.944C38.9415 97.616 39.7975 98.6 40.4215 99.896C41.0455 101.192 41.3575 102.76 41.3575 104.6C41.3575 106.44 41.0455 108.008 40.4215 109.304C39.7975 110.6 38.9415 111.592 37.8535 112.28C36.7815 112.952 35.5495 113.288 34.1575 113.288ZM34.1575 110C34.8135 110 35.3815 109.816 35.8615 109.448C36.3575 109.08 36.7415 108.496 37.0135 107.696C37.3015 106.896 37.4455 105.864 37.4455 104.6C37.4455 103.336 37.3015 102.304 37.0135 101.504C36.7415 100.704 36.3575 100.12 35.8615 99.752C35.3815 99.384 34.8135 99.2 34.1575 99.2C33.5175 99.2 32.9495 99.384 32.4535 99.752C31.9735 100.12 31.5895 100.704 31.3015 101.504C31.0295 102.304 30.8935 103.336 30.8935 104.6C30.8935 105.864 31.0295 106.896 31.3015 107.696C31.5895 108.496 31.9735 109.08 32.4535 109.448C32.9495 109.816 33.5175 110 34.1575 110ZM45.7448 113V97.64L47.4248 99.32H42.3848V96.2H49.6328V113H45.7448ZM60.0632 113.288C58.5272 113.288 57.1912 112.968 56.0552 112.328C54.9352 111.688 54.0712 110.752 53.4632 109.52C52.8552 108.288 52.5512 106.768 52.5512 104.96C52.5512 103.024 52.9112 101.384 53.6312 100.04C54.3672 98.696 55.3752 97.672 56.6552 96.968C57.9512 96.264 59.4392 95.912 61.1192 95.912C62.0152 95.912 62.8712 96.008 63.6872 96.2C64.5032 96.392 65.2072 96.68 65.7992 97.064L64.3592 99.92C63.8952 99.6 63.3992 99.384 62.8712 99.272C62.3432 99.144 61.7912 99.08 61.2152 99.08C59.7592 99.08 58.6072 99.52 57.7592 100.4C56.9112 101.28 56.4872 102.584 56.4872 104.312C56.4872 104.6 56.4872 104.92 56.4872 105.272C56.5032 105.624 56.5512 105.976 56.6312 106.328L55.5512 105.32C55.8552 104.696 56.2472 104.176 56.7272 103.76C57.2072 103.328 57.7752 103.008 58.4312 102.8C59.1032 102.576 59.8392 102.464 60.6392 102.464C61.7272 102.464 62.7032 102.68 63.5672 103.112C64.4312 103.544 65.1192 104.152 65.6312 104.936C66.1592 105.72 66.4232 106.64 66.4232 107.696C66.4232 108.832 66.1352 109.824 65.5592 110.672C64.9992 111.504 64.2392 112.152 63.2792 112.616C62.3352 113.064 61.2632 113.288 60.0632 113.288ZM59.8472 110.384C60.3912 110.384 60.8712 110.288 61.2872 110.096C61.7192 109.888 62.0552 109.592 62.2952 109.208C62.5352 108.824 62.6552 108.384 62.6552 107.888C62.6552 107.12 62.3912 106.512 61.8632 106.064C61.3512 105.6 60.6632 105.368 59.7992 105.368C59.2232 105.368 58.7192 105.48 58.2872 105.704C57.8552 105.912 57.5112 106.208 57.2552 106.592C57.0152 106.96 56.8952 107.392 56.8952 107.888C56.8952 108.368 57.0152 108.8 57.2552 109.184C57.4952 109.552 57.8312 109.848 58.2632 110.072C58.6952 110.28 59.2232 110.384 59.8472 110.384ZM69.2365 113L66.9085 106.544H68.6725L70.6045 112.1H69.7645L71.7805 106.544H73.3645L75.3205 112.1H74.4805L76.4725 106.544H78.1285L75.7885 113H73.9765L72.2605 108.236H72.8125L71.0365 113H69.2365Z" fill="#171B48"/>
<defs>
<filter id="filter0_d_1824_8123" x="0" y="0" width="173" height="253.808" filterUnits="userSpaceOnUse" color-interpolation-filters="sRGB">
<feFlood flood-opacity="0" result="BackgroundImageFix"/>
<feColorMatrix in="SourceAlpha" type="matrix" values="0 0 0 0 0 0 0 0 0 0 0 0 0 0 0 0 0 0 127 0" result="hardAlpha"/>
<feOffset dy="1"/>
<feColorMatrix type="matrix" values="0 0 0 0 0.0588235 0 0 0 0 0.0588235 0 0 0 0 0.337255 0 0 0 1 0"/>
<feBlend mode="normal" in2="BackgroundImageFix" result="effect1_dropShadow_1824_8123"/>
<feBlend mode="normal" in="SourceGraphic" in2="effect1_dropShadow_1824_8123" result="shape"/>
</filter>
</defs>
</svg>
