<svg width="173" height="252" viewBox="0 0 173 252" fill="none" xmlns="http://www.w3.org/2000/svg">
<path d="M171.991 17.2203L156.49 2.00961H125.283C125.253 2.58614 125.136 3.18188 124.94 3.7488C124.94 3.94098 124.871 4.14276 124.744 4.34455C124.704 4.42142 124.646 4.49829 124.577 4.56555C124.499 4.70968 124.41 4.85381 124.312 4.99794C123.548 7.30405 120.158 7.97667 119.11 5.43034C118.433 4.93068 117.885 4.26767 117.865 3.41249C117.855 2.96088 117.934 2.47083 118.12 2H100.767L85.2562 17.2107V71.8559L99.2874 85.6157L85.7657 98.8758L72.2341 85.6061H16.5108L1 100.817V155.462L15.2762 169.452L16.5206 168.232H48.3457C48.2477 168.415 48.1497 168.578 48.042 168.741C47.8754 169.01 47.8166 169.337 47.8558 169.654C47.8656 169.712 47.8754 169.779 47.895 169.837C47.9342 169.991 48.0028 170.144 48.091 170.279C48.1497 170.365 48.2085 170.433 48.2673 170.5C48.3261 170.557 48.3947 170.615 48.4731 170.663H16.5108L15.2762 169.452L1.0098 183.443V238.088L16.5206 253.299H72.2439L87.7548 238.088H87.745V183.443L73.4785 169.452L87.2354 155.952L85.2562 154.011V138.675H85.364C85.5207 138.675 85.6775 138.666 85.8343 138.647H85.8539C86.0107 138.627 86.1772 138.608 86.334 138.57C86.4908 138.541 86.6377 138.503 86.7945 138.454C86.8239 138.445 86.8435 138.435 86.8631 138.435C87.0101 138.387 87.1669 138.33 87.3138 138.262C87.4608 138.205 87.6078 138.128 87.745 138.061V155.462L87.2354 155.952L100.767 169.222H156.49L171.991 154.011V123.33C171.668 123.465 171.296 123.484 170.953 123.388C170.806 123.484 170.639 123.551 170.463 123.599C169.336 123.897 168.425 123.215 168.052 122.216C167.435 120.534 167.788 118.247 169.777 117.719C170.11 116.854 171.256 116.652 171.991 117.085V99.3659L157.97 85.6157L171.991 71.8655V17.2203ZM21.7138 135.764C21.3708 136.36 20.7731 136.802 20.0774 137.08C19.078 137.465 17.8924 137.417 17.1183 136.6C16.4324 135.86 16.3442 134.621 16.5108 133.669C16.7264 132.497 17.5396 131.815 18.5195 131.546C18.8134 130.931 19.5581 130.546 20.2538 130.748C20.6065 130.844 20.9495 130.96 21.2924 131.113C21.7529 131.334 21.9979 131.815 22.0175 132.286C22.625 132.795 23.0365 133.487 23.0463 134.371C23.0659 135.255 22.4094 135.716 21.7138 135.764ZM36.9502 147.977C37.1462 148.496 37.058 149.13 36.6269 149.514C35.9704 150.091 35.3139 150.734 34.4614 151.013C33.5306 151.311 32.5507 151.1 31.7277 150.629H31.7081C30.983 150.216 30.2775 149.62 30.0816 148.794C29.915 148.15 30.1012 147.583 30.4245 147.054C30.3755 146.881 30.3461 146.689 30.3559 146.497C30.4343 144.652 32.4724 142.846 34.2655 142.634C35.0689 142.548 35.7548 143.374 35.7548 144.095C35.7548 144.345 35.6862 144.556 35.598 144.739C35.6176 144.854 35.6274 144.979 35.647 145.094C35.647 145.171 35.647 145.238 35.6274 145.315C35.647 145.344 35.6764 145.373 35.7058 145.402C36.5877 144.988 37.9105 145.402 37.9105 146.651C37.9105 147.371 37.4793 147.804 36.9502 147.977ZM17.2555 200.94C17.3633 200.864 17.4907 200.816 17.6082 200.787C17.8826 200.45 18.2353 200.191 18.6763 200.056C20.4988 199.509 22.0763 201.421 22.0077 203.074C21.9195 205.168 19.7835 206.859 17.7062 206.033C16.648 205.61 15.7857 204.717 15.7269 203.544C15.6682 202.42 16.354 201.536 17.2555 200.94ZM21.9489 231.592C22.0077 232.15 21.7725 232.784 21.2336 233.005C20.7437 233.216 20.2636 233.351 19.7541 233.485C19.176 233.63 18.5685 233.418 18.2059 232.995C17.9316 232.947 17.667 232.87 17.4025 232.746C15.8935 231.996 15.2664 230.209 15.8935 228.7C17.2849 225.366 22.2625 227.883 22.2037 230.805C22.2037 231.131 22.0959 231.381 21.9489 231.592ZM146.682 35.7173C146.829 33.7955 148.965 32.7481 150.778 32.8538C150.925 32.8538 151.082 32.8923 151.229 32.9211C151.64 32.8346 152.071 32.825 152.493 32.9499C153.423 33.2382 154.031 34.0645 154.521 34.8525C155.51 36.4379 155.285 38.033 153.531 38.8785C153.129 39.3109 152.6 39.6376 152.032 39.8394C151.914 39.9643 151.777 40.07 151.66 40.195C151.072 40.733 150.141 40.7715 149.553 40.195C149.455 40.0893 149.367 39.9643 149.298 39.8298C148.426 39.5031 147.603 38.8785 147.299 38.0906C146.839 37.418 146.614 36.582 146.692 35.7173H146.682ZM148.181 66.6191C147.75 66.4077 147.417 65.9946 147.417 65.3796C147.417 65.3412 147.417 65.3123 147.427 65.2835C147.094 63.1984 147.495 60.2965 150.278 60.4599C152.64 60.604 153.708 63.2657 153.737 65.2739C153.757 66.1387 153.12 66.5999 152.434 66.6672C152.248 66.869 152.003 67.0227 151.738 67.1188C151.464 67.2149 151.18 67.2917 150.915 67.3782C150.895 67.3782 150.866 67.3974 150.846 67.3974C150.641 67.6184 150.366 67.7722 150.033 67.8491C149.436 67.9644 148.857 67.8106 148.465 67.3206C148.309 67.1092 148.221 66.8786 148.181 66.6191ZM110.075 122.196C109.243 123.128 107.91 123.369 106.705 123.388C105.784 123.407 105.323 122.744 105.274 122.052C104.432 121.274 104.177 119.938 104.53 118.881C104.667 118.478 104.892 118.151 105.157 117.863C104.941 117.008 105.402 116.018 106.538 116.085C107.126 116.124 107.606 116.383 107.979 116.758C109.115 116.796 110.183 117.363 110.565 118.583C110.928 119.737 110.918 121.264 110.075 122.196Z" fill="#DBFDFF"/>
<rect x="124" y="31" width="6" height="3" fill="#DADCFF"/>
<rect x="118" y="22" width="3" height="6" fill="#DADCFF"/>
<rect x="133" y="22" width="3" height="6" fill="#DADCFF"/>
<rect x="124" y="16" width="6" height="3" fill="#DADCFF"/>
<rect x="22" y="185" width="3" height="3" fill="#DADCFF"/>
<rect x="28" y="182" width="3" height="3" fill="#DADCFF"/>
<rect x="25" y="179" width="3" height="3" fill="#DADCFF"/>
<rect x="51" y="240" width="3" height="3" fill="#DADCFF"/>
<rect x="25" y="185" width="3" height="3" fill="#DADCFF"/>
<rect x="57" y="234" width="3" height="3" fill="#DADCFF"/>
<rect x="54" y="237" width="3" height="3" fill="#DADCFF"/>
<rect x="48" y="237" width="3" height="3" fill="#DADCFF"/>
<rect x="48" y="234" width="3" height="3" fill="#DADCFF"/>
<rect x="54" y="231" width="3" height="3" fill="#DADCFF"/>
<rect x="51" y="231" width="3" height="3" fill="#DADCFF"/>
<rect x="48" y="231" width="3" height="3" fill="#DADCFF"/>
<rect x="22" y="182" width="3" height="3" fill="#DADCFF"/>
<rect x="64" y="181" width="4" height="8" fill="#DADCFF"/>
<rect x="68" y="189" width="4" height="8" fill="#DADCFF"/>
<rect x="114" y="61" width="4" height="8" fill="#DADCFF"/>
<rect x="106" y="69" width="8" height="4" fill="#DADCFF"/>
<rect x="124" y="127" width="4" height="4" fill="#DADCFF"/>
<rect x="45" y="121" width="3" height="3" fill="#DADCFF"/>
<rect x="42" y="121" width="3" height="3" fill="#DADCFF"/>
<rect x="39" y="124" width="3" height="3" fill="#DADCFF"/>
<path d="M39 127H42V130H39V127Z" fill="#DADCFF"/>
<rect x="42" y="130" width="3" height="3" fill="#DADCFF"/>
<rect x="45" y="130" width="3" height="3" fill="#DADCFF"/>
<rect x="48" y="127" width="3" height="3" fill="#DADCFF"/>
<rect x="48" y="124" width="3" height="3" fill="#DADCFF"/>
<rect x="99" y="98" width="3" height="3" fill="#DADCFF"/>
<rect x="96" y="98" width="3" height="3" fill="#DADCFF"/>
<rect x="93" y="101" width="3" height="3" fill="#DADCFF"/>
<path d="M93 104H96V107H93V104Z" fill="#DADCFF"/>
<rect x="96" y="104" width="3" height="3" fill="#DADCFF"/>
<rect x="99" y="101" width="3" height="3" fill="#DADCFF"/>
<rect x="64" y="220" width="3" height="3" fill="#DADCFF"/>
<rect x="67" y="217" width="3" height="3" fill="#DADCFF"/>
<rect x="64" y="214" width="3" height="3" fill="#DADCFF"/>
<rect x="61" y="217" width="3" height="3" fill="#DADCFF"/>
<rect x="147" y="110" width="3" height="6" fill="#DADCFF"/>
<rect x="150" y="107" width="6" height="3" fill="#DADCFF"/>
<rect x="147" y="101" width="3" height="6" fill="#DADCFF"/>
<rect x="141" y="107" width="6" height="3" fill="#DADCFF"/>
<rect x="109" y="158" width="3" height="3" fill="#DADCFF"/>
<rect x="112" y="155" width="3" height="3" fill="#DADCFF"/>
<rect x="109" y="152" width="3" height="3" fill="#DADCFF"/>
<rect x="106" y="155" width="3" height="3" fill="#DADCFF"/>
<rect x="98" y="40" width="3" height="3" fill="#DADCFF"/>
<rect x="101" y="37" width="3" height="3" fill="#DADCFF"/>
<rect x="98" y="34" width="3" height="3" fill="#DADCFF"/>
<rect x="95" y="37" width="3" height="3" fill="#DADCFF"/>
<rect x="41" y="207" width="3" height="3" fill="#DADCFF"/>
<rect x="44" y="204" width="3" height="3" fill="#DADCFF"/>
<rect x="41" y="201" width="3" height="3" fill="#DADCFF"/>
<rect x="44" y="201" width="3" height="3" fill="#DADCFF"/>
<rect x="38" y="201" width="3" height="3" fill="#DADCFF"/>
<rect x="38" y="204" width="3" height="3" fill="#DADCFF"/>
<rect x="62" y="146" width="6" height="6" fill="#DADCFF"/>
<rect x="18" y="153" width="3" height="9" fill="#DADCFF"/>
<rect x="24" y="153" width="3" height="9" fill="#DADCFF"/>
<rect x="153" y="146" width="3" height="6" fill="#DADCFF"/>
<rect x="150" y="152" width="3" height="3" fill="#DADCFF"/>
<rect x="150" y="143" width="3" height="3" fill="#DADCFF"/>
<rect x="147" y="146" width="3" height="6" fill="#DADCFF"/>
<rect x="128" y="131" width="4" height="4" fill="#DADCFF"/>
<rect x="138" y="49" width="4" height="4" fill="#DADCFF"/>
<rect x="134" y="53" width="4" height="4" fill="#DADCFF"/>
<g filter="url(#filter0_d_1824_8123)">
<path d="M74.8399 252.692L77.0936 251.731L87.4308 241.575L88.4009 239.249L88.4695 179.3L87.4798 176.994L78.2988 167.981L86.6568 159.804L95.6713 168.634L98.0327 169.586L159.057 169.557L161.722 168.452L171.863 158.516L172.922 155.98L172.941 125.52V120.571C172.843 120.706 172.735 120.85 172.618 120.965C171.628 121.936 170.021 121.936 169.022 120.965C168.032 119.995 168.042 118.419 169.022 117.448C170.011 116.478 171.618 116.468 172.618 117.448C172.735 117.564 172.853 117.708 172.941 117.842V96.2513L171.912 93.8491L162.663 84.788L171.922 75.6981L172.892 73.3823L173 13.5676L171.873 10.954L161.771 1.03775L159.184 0L128.123 0.0576528L123.087 0.0768703C123.087 0.0768703 123.117 0.0768703 123.126 0.0960879C123.254 0.182567 123.381 0.278655 123.489 0.393961C124.469 1.35484 124.469 2.94029 123.489 3.91078C122.499 4.88127 120.892 4.89088 119.903 3.91078C118.923 2.9499 118.923 1.36445 119.903 0.384352C120.01 0.278655 120.148 0.163349 120.275 0.0768703H120.295L115.248 0.0960879L98.2776 0.115306L95.828 1.13384L85.5692 11.2135L84.5697 13.5292L84.5011 73.0749V73.488L85.4614 75.8134L94.7306 84.9225L86.3824 93.0996L77.5051 84.4036L74.8399 83.2986L13.8157 83.4043L11.4543 84.3556L1.08762 94.5025L0.127379 96.7317L0.0587902 156.816L1.03863 159.026L10.2393 168.039L1.15621 176.956L0.0293951 179.569L0 239.413L0.970039 241.728L11.2975 251.875L13.5707 252.807L74.8301 252.73V252.711L74.8399 252.692ZM98.1993 82.4146L89.0476 73.4208L88.7242 72.6329L88.7928 14.3459L89.1358 13.558L98.2286 4.62183L99.1301 4.25669L115.258 4.23748C115.572 5.18875 116.12 6.08237 116.885 6.83185C119.521 9.41662 123.822 9.41662 126.477 6.83185C127.251 6.07276 127.8 5.15992 128.123 4.19904L158.351 4.151L159.38 4.56418L168.297 13.2986L168.757 14.3844L168.65 72.556L168.326 73.3439L159.155 82.3474L158.44 82.6452L98.9243 82.7125L98.2189 82.4146H98.2091H98.1993ZM98.1797 87.3824L98.9929 87.0653L158.43 86.998L159.233 87.3247L168.316 96.2225L168.689 97.0968V112.913C167.719 113.22 166.788 113.768 166.014 114.518C163.378 117.112 163.368 121.33 166.014 123.915C166.788 124.674 167.709 125.212 168.689 125.52L168.669 155.163L168.248 156.172L159.302 164.935L158.185 165.396L98.8655 165.415L98.0719 165.098L88.5479 155.768L88.5675 139.894C89.5571 139.587 90.4879 139.039 91.2718 138.271C93.9076 135.686 93.9174 131.467 91.2718 128.864C90.4977 128.104 89.5767 127.566 88.6067 127.259L88.6556 97.0584H88.6752L88.9888 96.3666L98.1699 87.3631V87.3824H98.1797ZM84.6677 135.349C83.6879 134.379 83.6879 132.803 84.6677 131.823C85.6475 130.853 87.2643 130.843 88.2637 131.823C89.2435 132.784 89.2435 134.369 88.2539 135.349C87.2643 136.32 85.6573 136.32 84.6677 135.349ZM14.5702 165.905L13.7667 165.588L4.59544 156.614L4.29169 155.922L4.36027 97.5581L4.66402 96.8566L13.8451 87.8628L14.6486 87.5457L73.9679 87.44L75.0751 87.9012L83.9916 96.6452L84.4129 97.6445L84.364 127.288C83.3841 127.595 82.4631 128.143 81.6792 128.902C79.0336 131.487 79.0336 135.705 81.6792 138.309C82.4435 139.058 83.3547 139.597 84.3248 139.904L84.3052 155.72L83.923 156.604L73.8993 165.953H57.8202C57.5066 164.993 56.9481 164.089 56.1838 163.33C53.5481 160.745 49.2466 160.745 46.5912 163.33C45.8172 164.089 45.2685 164.993 44.9451 165.953L14.58 165.973V165.905H14.5702ZM49.5797 166.251C50.5596 165.281 52.1763 165.281 53.1659 166.251C54.1458 167.222 54.1458 168.798 53.1659 169.768C52.1861 170.739 50.5694 170.748 49.5699 169.768C48.5705 168.788 48.5901 167.222 49.5699 166.242L49.5797 166.251ZM13.7275 248.31L4.58564 239.326L4.25249 238.548L4.28189 180.376L4.75221 179.29L13.6883 170.518L14.7172 170.104L44.9451 170.076C45.2587 171.037 45.8172 171.94 46.5814 172.699C49.2172 175.284 53.5187 175.284 56.174 172.699C56.9481 171.94 57.4968 171.037 57.8202 170.076H73.9385L74.8301 170.441L83.9034 179.348L84.2366 180.136L84.168 238.423L83.8348 239.221L74.6636 248.224L73.9581 248.531L14.4428 248.599L13.7275 248.31Z" fill="#2D88FF"/>
<path d="M155.306 66.9829C157.951 64.3885 157.951 60.1798 155.306 57.5759C154.531 56.8168 153.61 56.2787 152.631 55.9712L152.65 41.068C153.63 40.7605 154.551 40.2128 155.325 39.4537C157.961 36.8689 157.971 32.6507 155.325 30.0467C152.68 27.4523 148.388 27.4619 145.733 30.0467C143.087 32.6314 143.087 36.8497 145.733 39.4537C146.507 40.2128 147.428 40.7509 148.407 41.0583L148.388 55.952C147.408 56.2595 146.487 56.8072 145.713 57.5663C143.077 60.1606 143.067 64.3789 145.713 66.9733C148.349 69.558 152.65 69.558 155.306 66.9733V66.9829ZM148.76 36.523C147.78 35.5525 147.78 33.9767 148.76 32.9966C149.74 32.0261 151.357 32.0165 152.356 32.9966C153.336 33.9574 153.336 35.5429 152.356 36.523C151.367 37.4935 149.76 37.5031 148.77 36.523H148.76ZM148.721 64.0426C147.741 63.0817 147.741 61.4963 148.721 60.5162C149.711 59.5457 151.318 59.5457 152.307 60.5162C153.287 61.477 153.287 63.0625 152.307 64.0426C151.327 65.0131 149.711 65.0131 148.711 64.0426H148.721Z" fill="#2D88FF"/>
<path d="M38.4205 151.078C41.0661 148.484 41.0661 144.266 38.4205 141.671C35.7749 139.077 31.4833 139.087 28.8279 141.681C28.044 142.45 27.4855 143.372 27.1622 144.352H21.3811V139.048C22.4982 138.75 23.5368 138.183 24.399 137.328C27.0446 134.734 27.0446 130.516 24.399 127.931C21.7633 125.346 17.4618 125.346 14.8064 127.931C12.1609 130.525 12.1609 134.734 14.8064 137.338C15.4923 138.01 16.2762 138.5 17.1286 138.827V148.522H27.1818C27.4953 149.454 28.044 150.348 28.8083 151.088C31.4441 153.673 35.7456 153.673 38.4009 151.088V151.069L38.4205 151.078ZM17.8341 134.397C16.8543 133.437 16.8543 131.851 17.8341 130.871C18.8238 129.901 20.4307 129.891 21.4301 130.871C22.41 131.832 22.41 133.408 21.4301 134.388C20.4405 135.358 18.8336 135.368 17.8341 134.397ZM31.836 148.138C30.8562 147.177 30.8562 145.592 31.836 144.612C32.8256 143.641 34.4326 143.641 35.4222 144.612C36.4118 145.573 36.402 147.148 35.4222 148.128C34.4424 149.099 32.8256 149.109 31.8262 148.128L31.836 148.138Z" fill="#2D88FF"/>
<path d="M23.7897 233.993C26.4254 231.398 26.4352 227.19 23.7897 224.586C23.0156 223.827 22.0945 223.289 21.1147 222.981L21.1441 208.078C22.1141 207.77 23.045 207.223 23.8191 206.464C26.4646 203.879 26.4646 199.66 23.8191 197.057C21.1833 194.472 16.8818 194.472 14.2265 197.066C11.5809 199.651 11.5809 203.869 14.2265 206.473C15.0005 207.232 15.9216 207.77 16.9014 208.078L16.872 222.971C15.902 223.279 14.9809 223.827 14.1971 224.586C11.5515 227.18 11.5515 231.398 14.1971 233.993C16.8328 236.577 21.1343 236.577 23.7897 233.993ZM17.2248 203.533C16.2449 202.572 16.2449 200.987 17.2248 200.006C18.2144 199.036 19.8213 199.036 20.8208 200.006C21.8006 200.967 21.8006 202.553 20.8208 203.533C19.8311 204.503 18.2242 204.513 17.2248 203.533ZM17.1954 231.052C16.2155 230.092 16.2155 228.506 17.1954 227.526C18.185 226.565 19.7919 226.556 20.7914 227.526C21.7712 228.487 21.7712 230.072 20.7914 231.052C19.8017 232.023 18.1948 232.023 17.2052 231.052H17.1954Z" fill="#2D88FF"/>
<path d="M112.379 123.559C115.014 120.974 115.014 116.756 112.379 114.152C111.595 113.383 110.654 112.826 109.655 112.518V106.849H115.063C115.357 107.935 115.955 108.953 116.817 109.808C119.463 112.403 123.755 112.403 126.41 109.818C129.046 107.233 129.046 103.015 126.41 100.421C123.764 97.8359 119.463 97.8263 116.817 100.421C116.131 101.093 115.632 101.862 115.299 102.698H105.412V112.557C104.452 112.864 103.55 113.402 102.796 114.152C100.16 116.736 100.16 120.955 102.806 123.559C105.441 126.153 109.743 126.153 112.389 123.559H112.379ZM119.806 103.371C120.786 102.41 122.393 102.41 123.392 103.38C124.382 104.351 124.392 105.927 123.402 106.897C122.412 107.858 120.805 107.858 119.806 106.897C118.816 105.936 118.816 104.351 119.806 103.371ZM105.794 120.609C104.805 119.638 104.795 118.062 105.794 117.082C106.774 116.121 108.381 116.121 109.38 117.082C110.37 118.043 110.38 119.629 109.38 120.599C108.401 121.56 106.784 121.56 105.784 120.599L105.794 120.609Z" fill="#2D88FF"/>
</g>
<rect x="10" y="90" width="70" height="27" rx="9" fill="#D9D9D9"/>
<path d="M15.0889 113V110.48L21.5689 104.36C22.0809 103.896 22.4569 103.48 22.6969 103.112C22.9369 102.744 23.0969 102.408 23.1769 102.104C23.2729 101.8 23.3209 101.52 23.3209 101.264C23.3209 100.592 23.0889 100.08 22.6249 99.728C22.1769 99.36 21.5129 99.176 20.6329 99.176C19.9289 99.176 19.2729 99.312 18.6649 99.584C18.0729 99.856 17.5689 100.28 17.1529 100.856L14.3209 99.032C14.9609 98.072 15.8569 97.312 17.0089 96.752C18.1609 96.192 19.4889 95.912 20.9929 95.912C22.2409 95.912 23.3289 96.12 24.2569 96.536C25.2009 96.936 25.9289 97.504 26.4409 98.24C26.9689 98.976 27.2329 99.856 27.2329 100.88C27.2329 101.424 27.1609 101.968 27.0169 102.512C26.8889 103.04 26.6169 103.6 26.2009 104.192C25.8009 104.784 25.2089 105.448 24.4249 106.184L19.0489 111.248L18.3049 109.832H27.7849V113H15.0889ZM36.5891 113.288C35.2131 113.288 33.9811 112.952 32.8931 112.28C31.8051 111.592 30.9491 110.6 30.3251 109.304C29.7011 108.008 29.3891 106.44 29.3891 104.6C29.3891 102.76 29.7011 101.192 30.3251 99.896C30.9491 98.6 31.8051 97.616 32.8931 96.944C33.9811 96.256 35.2131 95.912 36.5891 95.912C37.9811 95.912 39.2131 96.256 40.2851 96.944C41.3731 97.616 42.2291 98.6 42.8531 99.896C43.4771 101.192 43.7891 102.76 43.7891 104.6C43.7891 106.44 43.4771 108.008 42.8531 109.304C42.2291 110.6 41.3731 111.592 40.2851 112.28C39.2131 112.952 37.9811 113.288 36.5891 113.288ZM36.5891 110C37.2451 110 37.8131 109.816 38.2931 109.448C38.7891 109.08 39.1731 108.496 39.4451 107.696C39.7331 106.896 39.8771 105.864 39.8771 104.6C39.8771 103.336 39.7331 102.304 39.4451 101.504C39.1731 100.704 38.7891 100.12 38.2931 99.752C37.8131 99.384 37.2451 99.2 36.5891 99.2C35.9491 99.2 35.3811 99.384 34.8851 99.752C34.4051 100.12 34.0211 100.704 33.7331 101.504C33.4611 102.304 33.3251 103.336 33.3251 104.6C33.3251 105.864 33.4611 106.896 33.7331 107.696C34.0211 108.496 34.4051 109.08 34.8851 109.448C35.3811 109.816 35.9491 110 36.5891 110ZM48.1764 113V97.64L49.8564 99.32H44.8164V96.2H52.0644V113H48.1764ZM62.4949 113.288C60.9589 113.288 59.6229 112.968 58.4869 112.328C57.3669 111.688 56.5029 110.752 55.8949 109.52C55.2869 108.288 54.9829 106.768 54.9829 104.96C54.9829 103.024 55.3429 101.384 56.0629 100.04C56.7989 98.696 57.8069 97.672 59.0869 96.968C60.3829 96.264 61.8709 95.912 63.5509 95.912C64.4469 95.912 65.3029 96.008 66.1189 96.2C66.9349 96.392 67.6389 96.68 68.2309 97.064L66.7909 99.92C66.3269 99.6 65.8309 99.384 65.3029 99.272C64.7749 99.144 64.2229 99.08 63.6469 99.08C62.1909 99.08 61.0389 99.52 60.1909 100.4C59.3429 101.28 58.9189 102.584 58.9189 104.312C58.9189 104.6 58.9189 104.92 58.9189 105.272C58.9349 105.624 58.9829 105.976 59.0629 106.328L57.9829 105.32C58.2869 104.696 58.6789 104.176 59.1589 103.76C59.6389 103.328 60.2069 103.008 60.8629 102.8C61.5349 102.576 62.2709 102.464 63.0709 102.464C64.1589 102.464 65.1349 102.68 65.9989 103.112C66.8629 103.544 67.5509 104.152 68.0629 104.936C68.5909 105.72 68.8549 106.64 68.8549 107.696C68.8549 108.832 68.5669 109.824 67.9909 110.672C67.4309 111.504 66.6709 112.152 65.7109 112.616C64.7669 113.064 63.6949 113.288 62.4949 113.288ZM62.2789 110.384C62.8229 110.384 63.3029 110.288 63.7189 110.096C64.1509 109.888 64.4869 109.592 64.7269 109.208C64.9669 108.824 65.0869 108.384 65.0869 107.888C65.0869 107.12 64.8229 106.512 64.2949 106.064C63.7829 105.6 63.0949 105.368 62.2309 105.368C61.6549 105.368 61.1509 105.48 60.7189 105.704C60.2869 105.912 59.9429 106.208 59.6869 106.592C59.4469 106.96 59.3269 107.392 59.3269 107.888C59.3269 108.368 59.4469 108.8 59.6869 109.184C59.9269 109.552 60.2629 109.848 60.6949 110.072C61.1269 110.28 61.6549 110.384 62.2789 110.384ZM72.3641 113.096C71.8121 113.096 71.2801 113.032 70.7681 112.904C70.2641 112.768 69.8641 112.6 69.5681 112.4L70.1921 111.056C70.4881 111.24 70.8361 111.392 71.2361 111.512C71.6441 111.624 72.0441 111.68 72.4361 111.68C72.8681 111.68 73.1721 111.628 73.3481 111.524C73.5321 111.42 73.6241 111.276 73.6241 111.092C73.6241 110.94 73.5521 110.828 73.4081 110.756C73.2721 110.676 73.0881 110.616 72.8561 110.576C72.6241 110.536 72.3681 110.496 72.0881 110.456C71.8161 110.416 71.5401 110.364 71.2601 110.3C70.9801 110.228 70.7241 110.124 70.4921 109.988C70.2601 109.852 70.0721 109.668 69.9281 109.436C69.7921 109.204 69.7241 108.904 69.7241 108.536C69.7241 108.128 69.8401 107.768 70.0721 107.456C70.3121 107.144 70.6561 106.9 71.1041 106.724C71.5521 106.54 72.0881 106.448 72.7121 106.448C73.1521 106.448 73.6001 106.496 74.0561 106.592C74.5121 106.688 74.8921 106.828 75.1961 107.012L74.5721 108.344C74.2601 108.16 73.9441 108.036 73.6241 107.972C73.3121 107.9 73.0081 107.864 72.7121 107.864C72.2961 107.864 71.9921 107.92 71.8001 108.032C71.6081 108.144 71.5121 108.288 71.5121 108.464C71.5121 108.624 71.5801 108.744 71.7161 108.824C71.8601 108.904 72.0481 108.968 72.2801 109.016C72.5121 109.064 72.7641 109.108 73.0361 109.148C73.3161 109.18 73.5961 109.232 73.8761 109.304C74.1561 109.376 74.4081 109.48 74.6321 109.616C74.8641 109.744 75.0521 109.924 75.1961 110.156C75.3401 110.38 75.4121 110.676 75.4121 111.044C75.4121 111.444 75.2921 111.8 75.0521 112.112C74.8121 112.416 74.4641 112.656 74.0081 112.832C73.5601 113.008 73.0121 113.096 72.3641 113.096Z" fill="#171B48"/>
<defs>
<filter id="filter0_d_1824_8123" x="0" y="0" width="173" height="253.808" filterUnits="userSpaceOnUse" color-interpolation-filters="sRGB">
<feFlood flood-opacity="0" result="BackgroundImageFix"/>
<feColorMatrix in="SourceAlpha" type="matrix" values="0 0 0 0 0 0 0 0 0 0 0 0 0 0 0 0 0 0 127 0" result="hardAlpha"/>
<feOffset dy="1"/>
<feColorMatrix type="matrix" values="0 0 0 0 0.0588235 0 0 0 0 0.0588235 0 0 0 0 0.337255 0 0 0 1 0"/>
<feBlend mode="normal" in2="BackgroundImageFix" result="effect1_dropShadow_1824_8123"/>
<feBlend mode="normal" in="SourceGraphic" in2="effect1_dropShadow_1824_8123" result="shape"/>
</filter>
</defs>
</svg>
