<svg width="175" height="264" viewBox="0 0 175 264" fill="none" xmlns="http://www.w3.org/2000/svg">
<path d="M89.4342 254.38C89.1125 257.696 86.1517 260.115 82.8388 259.769L82.1792 259.7L75.7072 259.65L69.1853 259.799L62.7132 260.596L56.1913 260.646L49.6694 260.148L43.6308 260.101C43.3422 260.099 43.0538 260.118 42.7679 260.157L37.4695 260.885C36.9425 260.958 36.4082 260.96 35.8807 260.891L30.1536 260.148L23.6317 259.799L17.1098 259.55L10.588 259.999C7.28538 259.889 4.72159 257.075 4.91245 253.776L4.86733 247.865C4.86422 247.459 4.81987 247.054 4.73495 246.657L3.58174 241.262C3.50651 240.91 3.4631 240.552 3.45204 240.192L3.29343 235.038C3.27756 234.522 3.32826 234.007 3.44426 233.504L4.60942 228.455C4.71154 228.013 4.76309 227.56 4.76309 227.106V221.268L4.51416 214.746L4.06161 208.818C4.03149 208.424 4.04048 208.027 4.08847 207.634L4.71809 202.479C4.78101 201.964 4.77683 201.443 4.70564 200.929L3.91674 195.232L3.86695 188.71L4.4156 182.675C4.44804 182.319 4.44604 181.959 4.40961 181.603C4.06852 178.265 6.72867 175.384 10.0828 175.457L10.588 175.468L16.6057 176.347C16.9082 176.392 17.2136 176.413 17.5192 176.41L23.5819 176.364L30.054 175.916L35.9879 175.01C36.379 174.95 36.7749 174.93 37.17 174.948L43.048 175.219L49.5699 175.169L56.0917 175.219L62.6136 175.468L69.0857 175.418L75.6076 175.269L81.7162 175.223C82.0244 175.22 82.3324 175.242 82.6374 175.287L83.5414 175.42C86.3007 175.827 88.4156 178.082 88.6453 180.862L88.7509 182.139L89.1533 187.995C89.1837 188.437 89.165 188.881 89.0976 189.319L88.2033 195.132L87.8805 201.171C87.8634 201.492 87.8721 201.814 87.9065 202.134L88.5518 208.125L89.0994 214.647L89.2488 221.118L89.1108 227.142C89.1032 227.473 89.0682 227.804 89.006 228.129L87.9915 233.445C87.9007 233.921 87.8678 234.406 87.8937 234.89L88.2033 240.683L88.7011 247.204L89.418 253.073C89.471 253.507 89.4764 253.945 89.4342 254.38Z" fill="#9FCCF0" stroke="#FFFBDB" stroke-width="5"/>
<path d="M89.4342 254.38C89.1125 257.696 86.1517 260.115 82.8388 259.769L82.1792 259.7L75.7072 259.65L69.1853 259.799L62.7132 260.596L56.1913 260.646L49.6694 260.148L43.6308 260.101C43.3422 260.099 43.0538 260.118 42.7679 260.157L37.4695 260.885C36.9425 260.958 36.4082 260.96 35.8807 260.891L30.1536 260.148L23.6317 259.799L17.1098 259.55L10.588 259.999C7.28538 259.889 4.72159 257.075 4.91245 253.776L4.86733 247.865C4.86422 247.459 4.81987 247.054 4.73495 246.657L3.58174 241.262C3.50651 240.91 3.4631 240.552 3.45204 240.192L3.29343 235.038C3.27756 234.522 3.32826 234.007 3.44426 233.504L4.60942 228.455C4.71154 228.013 4.76309 227.56 4.76309 227.106V221.268L4.51416 214.746L4.06161 208.818C4.03149 208.424 4.04048 208.027 4.08847 207.634L4.71809 202.479C4.78101 201.964 4.77683 201.443 4.70564 200.929L3.91674 195.232L3.86695 188.71L4.4156 182.675C4.44804 182.319 4.44604 181.959 4.40961 181.603C4.06852 178.265 6.72867 175.384 10.0828 175.457L10.588 175.468L16.6057 176.347C16.9082 176.392 17.2136 176.413 17.5192 176.41L23.5819 176.364L30.054 175.916L35.9879 175.01C36.379 174.95 36.7749 174.93 37.17 174.948L43.048 175.219L49.5699 175.169L56.0917 175.219L62.6136 175.468L69.0857 175.418L75.6076 175.269L81.7162 175.223C82.0244 175.22 82.3324 175.242 82.6374 175.287L83.5414 175.42C86.3007 175.827 88.4156 178.082 88.6453 180.862L88.7509 182.139L89.1533 187.995C89.1837 188.437 89.165 188.881 89.0976 189.319L88.2033 195.132L87.8805 201.171C87.8634 201.492 87.8721 201.814 87.9065 202.134L88.5518 208.125L89.0994 214.647L89.2488 221.118L89.1108 227.142C89.1032 227.473 89.0682 227.804 89.006 228.129L87.9915 233.445C87.9007 233.921 87.8678 234.406 87.8937 234.89L88.2033 240.683L88.7011 247.204L89.418 253.073C89.471 253.507 89.4764 253.945 89.4342 254.38Z" fill="#9FCCF0" stroke="#FFFBDB" stroke-width="5" stroke-linecap="round" stroke-linejoin="round"/>
<path d="M89.4342 167.846C89.1125 171.162 86.1517 173.581 82.8388 173.235L82.1792 173.166L75.7072 173.116L69.1853 173.265L62.7132 174.062L56.1913 174.112L49.6694 173.614L43.6308 173.567C43.3422 173.565 43.0538 173.584 42.7679 173.623L37.4695 174.351C36.9425 174.423 36.4082 174.425 35.8807 174.357L30.1536 173.614L23.6317 173.265L17.1098 173.016L10.588 173.464C7.28538 173.355 4.72159 170.54 4.91245 167.242L4.86733 161.331C4.86422 160.925 4.81987 160.52 4.73495 160.123L3.58174 154.728C3.50651 154.376 3.4631 154.018 3.45204 153.658L3.29343 148.504C3.27756 147.988 3.32826 147.472 3.44426 146.97L4.60942 141.921C4.71154 141.479 4.76309 141.026 4.76309 140.572V134.734L4.51416 128.212L4.06161 122.284C4.03149 121.889 4.04048 121.493 4.08847 121.1L4.71809 115.945C4.78101 115.43 4.77683 114.909 4.70564 114.395L3.91674 108.697L3.86695 102.176L4.4156 96.1412C4.44804 95.7844 4.44604 95.4252 4.40961 95.0687C4.06852 91.7311 6.72867 88.8493 10.0828 88.9228L10.588 88.9338L16.6057 89.8133C16.9082 89.8575 17.2136 89.8785 17.5192 89.8762L23.5819 89.8299L30.054 89.3819L35.9879 88.476C36.379 88.4163 36.7749 88.3954 37.17 88.4137L43.048 88.6849L49.5699 88.6351L56.0917 88.6849L62.6136 88.9338L69.0857 88.8841L75.6076 88.7347L81.7162 88.6884C82.0244 88.6861 82.3324 88.7075 82.6374 88.7525L83.5414 88.8859C86.3007 89.293 88.4156 91.5478 88.6453 94.3274L88.7509 95.6047L89.1533 101.461C89.1837 101.903 89.165 102.347 89.0976 102.785L88.2033 108.598L87.8805 114.637C87.8634 114.958 87.8721 115.28 87.9065 115.6L88.5518 121.591L89.0994 128.113L89.2488 134.584L89.1108 140.608C89.1032 140.939 89.0682 141.269 89.006 141.595L87.9915 146.911C87.9007 147.387 87.8678 147.872 87.8937 148.356L88.2033 154.149L88.7011 160.67L89.418 166.539C89.471 166.973 89.4764 167.411 89.4342 167.846Z" fill="#9FCCF0" stroke="#FFFBDB" stroke-width="5"/>
<path d="M89.4342 167.846C89.1125 171.162 86.1517 173.581 82.8388 173.235L82.1792 173.166L75.7072 173.116L69.1853 173.265L62.7132 174.062L56.1913 174.112L49.6694 173.614L43.6308 173.567C43.3422 173.565 43.0538 173.584 42.7679 173.623L37.4695 174.351C36.9425 174.423 36.4082 174.425 35.8807 174.357L30.1536 173.614L23.6317 173.265L17.1098 173.016L10.588 173.464C7.28538 173.355 4.72159 170.54 4.91245 167.242L4.86733 161.331C4.86422 160.925 4.81987 160.52 4.73495 160.123L3.58174 154.728C3.50651 154.376 3.4631 154.018 3.45204 153.658L3.29343 148.504C3.27756 147.988 3.32826 147.472 3.44426 146.97L4.60942 141.921C4.71154 141.479 4.76309 141.026 4.76309 140.572V134.734L4.51416 128.212L4.06161 122.284C4.03149 121.889 4.04048 121.493 4.08847 121.1L4.71809 115.945C4.78101 115.43 4.77683 114.909 4.70564 114.395L3.91674 108.697L3.86695 102.176L4.4156 96.1412C4.44804 95.7844 4.44604 95.4252 4.40961 95.0687C4.06852 91.7311 6.72867 88.8493 10.0828 88.9228L10.588 88.9338L16.6057 89.8133C16.9082 89.8575 17.2136 89.8785 17.5192 89.8762L23.5819 89.8299L30.054 89.3819L35.9879 88.476C36.379 88.4163 36.7749 88.3954 37.17 88.4137L43.048 88.6849L49.5699 88.6351L56.0917 88.6849L62.6136 88.9338L69.0857 88.8841L75.6076 88.7347L81.7162 88.6884C82.0244 88.6861 82.3324 88.7075 82.6374 88.7525L83.5414 88.8859C86.3007 89.293 88.4156 91.5478 88.6453 94.3274L88.7509 95.6047L89.1533 101.461C89.1837 101.903 89.165 102.347 89.0976 102.785L88.2033 108.598L87.8805 114.637C87.8634 114.958 87.8721 115.28 87.9065 115.6L88.5518 121.591L89.0994 128.113L89.2488 134.584L89.1108 140.608C89.1032 140.939 89.0682 141.269 89.006 141.595L87.9915 146.911C87.9007 147.387 87.8678 147.872 87.8937 148.356L88.2033 154.149L88.7011 160.67L89.418 166.539C89.471 166.973 89.4764 167.411 89.4342 167.846Z" fill="#9FCCF0" stroke="#FFFBDB" stroke-width="5" stroke-linecap="round" stroke-linejoin="round"/>
<path d="M175.973 168.876C175.652 172.192 172.691 174.611 169.378 174.265L168.718 174.196L162.246 174.146L155.724 174.296L149.252 175.092L142.73 175.142L136.208 174.644L130.17 174.598C129.881 174.595 129.593 174.614 129.307 174.653L124.009 175.381C123.482 175.454 122.947 175.456 122.42 175.387L116.693 174.644L110.171 174.296L103.649 174.047L97.127 174.495C93.8244 174.385 91.2607 171.571 91.4515 168.272L91.4064 162.361C91.4033 161.955 91.3589 161.55 91.274 161.153L90.1208 155.758C90.0456 155.406 90.0022 155.048 89.9911 154.688L89.8325 149.534C89.8166 149.018 89.8673 148.503 89.9833 148L91.1485 142.951C91.2506 142.509 91.3022 142.056 91.3022 141.602V135.764L91.0532 129.242L90.6007 123.314C90.5705 122.92 90.5795 122.523 90.6275 122.13L91.2572 116.975C91.3201 116.46 91.3159 115.939 91.2447 115.425L90.4558 109.728L90.406 103.206L90.9547 97.1715C90.9871 96.8146 90.9851 96.4555 90.9487 96.099C90.6076 92.7614 93.2677 89.8796 96.6219 89.953L97.127 89.9641L103.145 90.8436C103.447 90.8878 103.753 90.9088 104.058 90.9065L110.121 90.8602L116.593 90.4122L122.527 89.5063C122.918 89.4466 123.314 89.4257 123.709 89.4439L129.587 89.7152L136.109 89.6654L142.631 89.7152L149.153 89.9641L155.625 89.9143L162.147 89.765L168.255 89.7187C168.563 89.7164 168.871 89.7378 169.176 89.7828L170.081 89.9162C172.84 90.3232 174.955 92.578 175.184 95.3577L175.29 96.635L175.692 102.492C175.723 102.933 175.704 103.377 175.637 103.815L174.742 109.628L174.42 115.667C174.402 115.988 174.411 116.31 174.446 116.63L175.091 122.621L175.638 129.143L175.788 135.615L175.65 141.638C175.642 141.969 175.607 142.3 175.545 142.625L174.531 147.941C174.44 148.417 174.407 148.902 174.433 149.386L174.742 155.179L175.24 161.701L175.957 167.57C176.01 168.003 176.015 168.441 175.973 168.876Z" fill="#9FCCF0" stroke="#FFFBDB" stroke-width="5"/>
<path d="M175.973 168.876C175.652 172.192 172.691 174.611 169.378 174.265L168.718 174.196L162.246 174.146L155.724 174.296L149.252 175.092L142.73 175.142L136.208 174.644L130.17 174.598C129.881 174.595 129.593 174.614 129.307 174.653L124.009 175.381C123.482 175.454 122.947 175.456 122.42 175.387L116.693 174.644L110.171 174.296L103.649 174.047L97.127 174.495C93.8244 174.385 91.2607 171.571 91.4515 168.272L91.4064 162.361C91.4033 161.955 91.3589 161.55 91.274 161.153L90.1208 155.758C90.0456 155.406 90.0022 155.048 89.9911 154.688L89.8325 149.534C89.8166 149.018 89.8673 148.503 89.9833 148L91.1485 142.951C91.2506 142.509 91.3022 142.056 91.3022 141.602V135.764L91.0532 129.242L90.6007 123.314C90.5705 122.92 90.5795 122.523 90.6275 122.13L91.2572 116.975C91.3201 116.46 91.3159 115.939 91.2447 115.425L90.4558 109.728L90.406 103.206L90.9547 97.1715C90.9871 96.8146 90.9851 96.4555 90.9487 96.099C90.6076 92.7614 93.2677 89.8796 96.6219 89.953L97.127 89.9641L103.145 90.8436C103.447 90.8878 103.753 90.9088 104.058 90.9065L110.121 90.8602L116.593 90.4122L122.527 89.5063C122.918 89.4466 123.314 89.4257 123.709 89.4439L129.587 89.7152L136.109 89.6654L142.631 89.7152L149.153 89.9641L155.625 89.9143L162.147 89.765L168.255 89.7187C168.563 89.7164 168.871 89.7378 169.176 89.7828L170.081 89.9162C172.84 90.3232 174.955 92.578 175.184 95.3577L175.29 96.635L175.692 102.492C175.723 102.933 175.704 103.377 175.637 103.815L174.742 109.628L174.42 115.667C174.402 115.988 174.411 116.31 174.446 116.63L175.091 122.621L175.638 129.143L175.788 135.615L175.65 141.638C175.642 141.969 175.607 142.3 175.545 142.625L174.531 147.941C174.44 148.417 174.407 148.902 174.433 149.386L174.742 155.179L175.24 161.701L175.957 167.57C176.01 168.003 176.015 168.441 175.973 168.876Z" fill="#9FCCF0" stroke="#FFFBDB" stroke-width="5" stroke-linecap="round" stroke-linejoin="round"/>
<path d="M175.973 82.3417C175.652 85.6572 172.691 88.0763 169.378 87.7302L168.718 87.6613L162.246 87.6115L155.724 87.7608L149.252 88.5574L142.73 88.6071L136.208 88.1093L130.17 88.0629C129.881 88.0606 129.593 88.0793 129.307 88.1185L124.009 88.8465C123.482 88.9189 122.947 88.9209 122.42 88.8525L116.693 88.1093L110.171 87.7608L103.649 87.5119L97.127 87.96C93.8244 87.8508 91.2607 85.036 91.4515 81.7372L91.4064 75.8266C91.4033 75.4204 91.3589 75.0155 91.274 74.6182L90.1208 69.2232C90.0456 68.8712 90.0022 68.5132 89.9911 68.1535L89.8325 62.9991C89.8166 62.4835 89.8673 61.968 89.9833 61.4653L91.1485 56.4166C91.2506 55.9741 91.3022 55.5215 91.3022 55.0674V49.2293L91.0532 42.7078L90.6007 36.7797C90.5705 36.385 90.5795 35.9884 90.6275 35.5955L91.2572 30.4408C91.3201 29.9256 91.3159 29.4045 91.2447 28.8904L90.4558 23.1931L90.406 16.6716L90.9547 10.6368C90.9871 10.28 90.9851 9.9208 90.9487 9.56432C90.6076 6.22674 93.2677 3.34494 96.6219 3.41838L97.127 3.42944L103.145 4.30891C103.447 4.35311 103.753 4.37414 104.058 4.3718L110.121 4.32553L116.593 3.87748L122.527 2.9716C122.918 2.9119 123.314 2.89102 123.709 2.90926L129.587 3.18053L136.109 3.13075L142.631 3.18053L149.153 3.42944L155.625 3.37966L162.147 3.23031L168.255 3.18404C168.563 3.1817 168.871 3.20313 169.176 3.24812L170.081 3.3815C172.84 3.78858 174.955 6.04338 175.184 8.82303L175.29 10.1003L175.692 15.9569C175.723 16.3988 175.704 16.8427 175.637 17.2805L174.742 23.0935L174.42 29.1326C174.402 29.4537 174.411 29.7756 174.446 30.0953L175.091 36.0867L175.638 42.6082L175.788 49.0799L175.65 55.1033C175.642 55.4348 175.607 55.7651 175.545 56.0908L174.531 61.4064C174.44 61.8823 174.407 62.3675 174.433 62.8513L174.742 68.6444L175.24 75.1659L175.957 81.0348C176.01 81.4686 176.015 81.9068 175.973 82.3417Z" fill="#9FCCF0" stroke="#FFFBDB" stroke-width="5"/>
<path d="M175.973 82.3417C175.652 85.6572 172.691 88.0763 169.378 87.7302L168.718 87.6613L162.246 87.6115L155.724 87.7608L149.252 88.5574L142.73 88.6071L136.208 88.1093L130.17 88.0629C129.881 88.0606 129.593 88.0793 129.307 88.1185L124.009 88.8465C123.482 88.9189 122.947 88.9209 122.42 88.8525L116.693 88.1093L110.171 87.7608L103.649 87.5119L97.127 87.96C93.8244 87.8508 91.2607 85.036 91.4515 81.7372L91.4064 75.8266C91.4033 75.4204 91.3589 75.0155 91.274 74.6182L90.1208 69.2232C90.0456 68.8712 90.0022 68.5132 89.9911 68.1535L89.8325 62.9991C89.8166 62.4835 89.8673 61.968 89.9833 61.4653L91.1485 56.4166C91.2506 55.9741 91.3022 55.5215 91.3022 55.0674V49.2293L91.0532 42.7078L90.6007 36.7797C90.5705 36.385 90.5795 35.9884 90.6275 35.5955L91.2572 30.4408C91.3201 29.9256 91.3159 29.4045 91.2447 28.8904L90.4558 23.1931L90.406 16.6716L90.9547 10.6368C90.9871 10.28 90.9851 9.9208 90.9487 9.56432C90.6076 6.22674 93.2677 3.34494 96.6219 3.41838L97.127 3.42944L103.145 4.30891C103.447 4.35311 103.753 4.37414 104.058 4.3718L110.121 4.32553L116.593 3.87748L122.527 2.9716C122.918 2.9119 123.314 2.89102 123.709 2.90926L129.587 3.18053L136.109 3.13075L142.631 3.18053L149.153 3.42944L155.625 3.37966L162.147 3.23031L168.255 3.18404C168.563 3.1817 168.871 3.20313 169.176 3.24812L170.081 3.3815C172.84 3.78858 174.955 6.04338 175.184 8.82303L175.29 10.1003L175.692 15.9569C175.723 16.3988 175.704 16.8427 175.637 17.2805L174.742 23.0935L174.42 29.1326C174.402 29.4537 174.411 29.7756 174.446 30.0953L175.091 36.0867L175.638 42.6082L175.788 49.0799L175.65 55.1033C175.642 55.4348 175.607 55.7651 175.545 56.0908L174.531 61.4064C174.44 61.8823 174.407 62.3675 174.433 62.8513L174.742 68.6444L175.24 75.1659L175.957 81.0348C176.01 81.4686 176.015 81.9068 175.973 82.3417Z" fill="#9FCCF0" stroke="#FFFBDB" stroke-width="5" stroke-linecap="round" stroke-linejoin="round"/>
</svg>
