<svg width="178" height="178" viewBox="0 0 178 178" fill="none" xmlns="http://www.w3.org/2000/svg">
<path d="M82.24 3.63225C85.469 3.89056 87.91 6.66526 87.7547 9.90083L87.7346 10.3185L87.5853 16.7902L87.884 23.3117L88.332 29.7834L88.6464 35.6664C88.6691 36.0909 88.6466 36.5166 88.5793 36.9363L87.8241 41.6468C87.6993 42.4256 87.7292 43.2213 87.9121 43.9884L88.8477 47.9116C89.0651 48.8233 89.066 49.7732 88.8501 50.6852L87.8982 54.7075C87.7243 55.4423 87.6907 56.2033 87.7991 56.9506L88.4626 61.5252C88.5411 62.0666 88.5452 62.6162 88.4748 63.1587L87.8348 68.0904C87.7683 68.6031 87.7683 69.1221 87.8348 69.6348L88.5809 75.3841L88.8797 81.9056L88.8493 82.3066C88.5935 85.6831 85.5959 88.1791 82.2289 87.8193L81.8599 87.7799L75.3381 87.8795L68.8162 88.3275L62.3441 87.979L56.6916 87.6312C56.1477 87.5977 55.6019 87.6385 55.069 87.7524L49.8797 88.8615C49.5274 88.9368 49.1689 88.9802 48.8088 88.9912L42.8283 89.1738L36.3064 88.7756L29.7845 88.3773L23.3124 88.228L17.3585 88.637C16.9807 88.6629 16.6013 88.6531 16.2253 88.6075L10.2189 87.8795C6.88127 87.9342 4.14506 85.2436 4.14506 81.9056L3.3485 75.4339L3.29871 68.9124L3.84635 62.4407L3.89281 56.3556C3.89502 56.065 3.87613 55.7747 3.83627 55.4869L3.10723 50.2219C3.03604 49.7078 3.03186 49.1866 3.09479 48.6714L3.79656 42.926L4.19485 36.4045L4.39399 29.883L3.99571 23.4113L4.39399 16.8898L4.54334 10.3185L4.50946 9.50528C4.38585 6.53873 6.45055 3.9279 9.36573 3.36449L9.74544 3.29111C10.0606 3.23021 10.38 3.19469 10.7008 3.1849L15.9427 3.02485C16.4724 3.00867 17.0019 3.06275 17.5174 3.18568L22.504 4.37473C22.9748 4.48699 23.4575 4.54187 23.9415 4.53818L29.7347 4.49395L36.2068 4.24504L42.1325 3.79272C42.529 3.76247 42.9275 3.77168 43.3221 3.82025L48.4253 4.4483C48.9401 4.51166 49.461 4.50799 49.9749 4.43739L55.7226 3.64765L62.2445 3.59786L68.1053 4.1347C68.5447 4.17494 68.9872 4.1666 69.4247 4.10982L74.7897 3.41365C75.1215 3.37059 75.4563 3.35537 75.7906 3.36813L81.8102 3.59786L82.24 3.63225Z" fill="#7C3B92" stroke="#FFFBDB" stroke-width="5"/>
<path d="M168.24 89.6322C171.469 89.8906 173.91 92.6653 173.755 95.9008L173.735 96.3185L173.585 102.79L173.884 109.312L174.332 115.783L174.646 121.666C174.669 122.091 174.647 122.517 174.579 122.936L173.824 127.647C173.699 128.426 173.729 129.221 173.912 129.988L174.848 133.912C175.065 134.823 175.066 135.773 174.85 136.685L173.898 140.708C173.724 141.442 173.691 142.203 173.799 142.951L174.463 147.525C174.541 148.067 174.545 148.616 174.475 149.159L173.835 154.09C173.768 154.603 173.768 155.122 173.835 155.635L174.581 161.384L174.88 167.906L174.849 168.307C174.593 171.683 171.596 174.179 168.229 173.819L167.86 173.78L161.338 173.879L154.816 174.328L148.344 173.979L142.692 173.631C142.148 173.598 141.602 173.639 141.069 173.752L135.88 174.861C135.527 174.937 135.169 174.98 134.809 174.991L128.828 175.174L122.306 174.776L115.784 174.377L109.312 174.228L103.359 174.637C102.981 174.663 102.601 174.653 102.225 174.607L96.2189 173.879C92.8813 173.934 90.1451 171.244 90.1451 167.906L89.3485 161.434L89.2987 154.912L89.8464 148.441L89.8928 142.356C89.895 142.065 89.8761 141.775 89.8363 141.487L89.1072 136.222C89.036 135.708 89.0319 135.187 89.0948 134.671L89.7966 128.926L90.1948 122.404L90.394 115.883L89.9957 109.411L90.394 102.89L90.5433 96.3185L90.5095 95.5053C90.3858 92.5387 92.4506 89.9279 95.3657 89.3645L95.7454 89.2911C96.0606 89.2302 96.38 89.1947 96.7008 89.1849L101.943 89.0248C102.472 89.0087 103.002 89.0628 103.517 89.1857L108.504 90.3747C108.975 90.487 109.458 90.5419 109.942 90.5382L115.735 90.4939L122.207 90.245L128.133 89.7927C128.529 89.7625 128.927 89.7717 129.322 89.8203L134.425 90.4483C134.94 90.5117 135.461 90.508 135.975 90.4374L141.723 89.6477L148.245 89.5979L154.105 90.1347C154.545 90.1749 154.987 90.1666 155.425 90.1098L160.79 89.4137C161.122 89.3706 161.456 89.3554 161.791 89.3681L167.81 89.5979L168.24 89.6322Z" fill="#7C3B92" stroke="#FFFBDB" stroke-width="5" stroke-linecap="round" stroke-linejoin="round"/>
<path d="M82.24 89.6322C85.469 89.8906 87.91 92.6653 87.7547 95.9008L87.7346 96.3185L87.5853 102.79L87.884 109.312L88.332 115.783L88.6464 121.666C88.6691 122.091 88.6466 122.517 88.5793 122.936L87.8241 127.647C87.6993 128.426 87.7292 129.221 87.9121 129.988L88.8477 133.912C89.0651 134.823 89.066 135.773 88.8501 136.685L87.8982 140.708C87.7243 141.442 87.6907 142.203 87.7991 142.951L88.4626 147.525C88.5411 148.067 88.5452 148.616 88.4748 149.159L87.8348 154.09C87.7683 154.603 87.7683 155.122 87.8348 155.635L88.5809 161.384L88.8797 167.906L88.8493 168.307C88.5935 171.683 85.5959 174.179 82.2289 173.819L81.8599 173.78L75.3381 173.879L68.8162 174.328L62.3441 173.979L56.6916 173.631C56.1477 173.598 55.6019 173.639 55.069 173.752L49.8797 174.861C49.5274 174.937 49.1689 174.98 48.8088 174.991L42.8283 175.174L36.3064 174.776L29.7845 174.377L23.3124 174.228L17.3585 174.637C16.9807 174.663 16.6013 174.653 16.2253 174.607L10.2189 173.879C6.88127 173.934 4.14506 171.244 4.14506 167.906L3.3485 161.434L3.29871 154.912L3.84635 148.441L3.89281 142.356C3.89502 142.065 3.87613 141.775 3.83627 141.487L3.10723 136.222C3.03604 135.708 3.03186 135.187 3.09479 134.671L3.79656 128.926L4.19485 122.404L4.39399 115.883L3.99571 109.411L4.39399 102.89L4.54334 96.3185L4.50946 95.5053C4.38585 92.5387 6.45055 89.9279 9.36573 89.3645L9.74544 89.2911C10.0606 89.2302 10.38 89.1947 10.7008 89.1849L15.9427 89.0248C16.4724 89.0087 17.0019 89.0628 17.5174 89.1857L22.504 90.3747C22.9748 90.487 23.4575 90.5419 23.9415 90.5382L29.7347 90.4939L36.2068 90.245L42.1325 89.7927C42.529 89.7625 42.9275 89.7717 43.3221 89.8203L48.4253 90.4483C48.9401 90.5117 49.461 90.508 49.9749 90.4374L55.7226 89.6477L62.2445 89.5979L68.1053 90.1347C68.5447 90.1749 68.9872 90.1666 69.4247 90.1098L74.7897 89.4137C75.1215 89.3706 75.4563 89.3554 75.7906 89.3681L81.8102 89.5979L82.24 89.6322Z" fill="#7C3B92" stroke="#FFFBDB" stroke-width="5"/>
<path d="M168.549 3.58147C171.778 3.83978 174.219 6.61448 174.063 9.85005L174.043 10.2677L173.894 16.7394L174.193 23.2609L174.641 29.7326L174.955 35.6156C174.978 36.0401 174.955 36.4658 174.888 36.8855L174.133 41.5961C174.008 42.3748 174.038 43.1705 174.221 43.9377L175.156 47.8608C175.374 48.7725 175.375 49.7224 175.159 50.6344L174.207 54.6568C174.033 55.3915 173.999 56.1525 174.108 56.8998L174.771 61.4744C174.85 62.0158 174.854 62.5654 174.783 63.1079L174.143 68.0396C174.077 68.5523 174.077 69.0714 174.143 69.584L174.89 75.3333L175.188 81.8548L175.158 82.2558C174.902 85.6323 171.905 88.1284 168.537 87.7686L168.169 87.7291L161.647 87.8287L155.125 88.2767L148.653 87.9283L143 87.5804C142.456 87.547 141.91 87.5877 141.378 87.7016L136.188 88.8107C135.836 88.886 135.478 88.9294 135.117 88.9404L129.137 89.123L122.615 88.7248L116.093 88.3265L109.621 88.1772L103.667 88.5862C103.289 88.6121 102.91 88.6023 102.534 88.5567L96.5275 87.8287C93.1899 87.8834 90.4537 85.1929 90.4537 81.8548L89.6571 75.3831L89.6073 68.8616L90.1549 62.3899L90.2014 56.3048C90.2036 56.0143 90.1847 55.7239 90.1449 55.4361L89.4158 50.1711C89.3446 49.657 89.3405 49.1358 89.4034 48.6206L90.1052 42.8752L90.5034 36.3537L90.7026 29.8322L90.3043 23.3605L90.7026 16.839L90.8519 10.2677L90.8181 9.4545C90.6944 6.48795 92.7591 3.87712 95.6743 3.31371L96.054 3.24033C96.3691 3.17943 96.6886 3.14391 97.0094 3.13412L102.251 2.97407C102.781 2.95789 103.311 3.01197 103.826 3.1349L108.813 4.32394C109.283 4.43621 109.766 4.49109 110.25 4.4874L116.043 4.44317L122.515 4.19426L128.441 3.74194C128.838 3.71169 129.236 3.7209 129.631 3.76947L134.734 4.39751C135.249 4.46088 135.77 4.45721 136.283 4.3866L142.031 3.59687L148.553 3.54708L154.414 4.08392C154.853 4.12416 155.296 4.11581 155.733 4.05904L161.098 3.36287C161.43 3.31981 161.765 3.30459 162.099 3.31734L168.119 3.54708L168.549 3.58147Z" fill="#7C3B92" stroke="#FFFBDB" stroke-width="5"/>
</svg>
