<svg width="259" height="180" viewBox="0 0 259 180" fill="none" xmlns="http://www.w3.org/2000/svg">
<path d="M241.98 2.24854H210.268C210.462 3.45098 210.552 4.679 209.924 5.7791C209.192 7.06853 207.762 7.65696 206.362 7.67231C203.457 7.70812 201.499 5.04229 201.923 2.24854H186.289C180.574 8.14817 177.231 10.5786 171.785 16.202C166.908 11.1671 163.635 7.78488 158.279 2.24854H102.588C96.5345 8.50122 93.1416 12.0062 87.0882 18.2538V49.2818C87.427 49.2256 87.7758 49.2307 88.1195 49.3125C88.8071 49.4712 89.3352 49.9726 89.6391 50.5917C90.5508 51.61 91.0939 52.838 91.1437 54.2349C91.1736 55.0382 90.7601 55.7699 90.1622 56.2458C89.4946 56.7728 88.8021 56.8495 87.99 56.7063C87.6811 56.65 87.3772 56.5425 87.0882 56.4044V75.7918C92.1701 81.0365 95.3786 84.3522 99.8626 88.9777C94.7558 94.248 91.5124 97.5944 86.59 102.68C81.8918 97.8246 78.7181 94.5499 74 89.6787C73.6762 89.9039 14.9013 90.262 14.9013 90.262C8.84789 96.5147 7.44789 97.973 1.39453 104.221V122.462C2.05716 122.462 2.72478 122.61 3.29275 122.938C3.43723 123.02 3.57175 123.117 3.70129 123.214C4.83224 123.572 5.6543 124.984 5.34541 126.171C5.44505 126.924 5.38028 127.701 5.13616 128.423C4.6778 129.779 3.46214 130.536 2.07211 130.209C1.83296 130.152 1.60378 130.045 1.39453 129.902V161.748C7.44789 167.996 10.8408 171.501 16.8941 177.754H72.5851C78.1203 172.033 81.4334 168.615 86.59 163.289C91.7466 168.615 95.0597 172.033 100.595 177.754H158.777C164.83 171.501 165.732 169.531 171.785 163.283V104.215C166.704 98.9708 163.5 95.6602 159.016 91.0347C164.287 85.5853 167.576 82.1878 172.782 76.8152C177.659 81.8501 180.933 85.2322 186.289 90.7686H241.98C248.033 84.5159 251.426 81.0109 257.479 74.7633V17.2304C251.426 10.9829 248.033 8.50122 241.98 2.24854ZM39.862 161.569C39.8122 162.414 39.4535 163.294 38.6663 163.636C36.8229 164.445 34.835 164.557 33.3653 162.925C32.0998 161.518 31.9952 159.558 32.2742 157.768C32.4037 156.933 33.2457 156.171 34.0129 155.982C36.4592 155.378 39.324 155.603 40.5844 158.208C41.1723 159.425 40.9083 160.761 39.862 161.574V161.569ZM64.8477 164.644C60.6677 164.65 59.6314 158.776 62.4662 156.284C63.5274 155.352 64.9324 155.286 65.9886 156.284C66.163 156.447 66.2975 156.657 66.4121 156.877C67.6427 157.44 68.674 158.474 69.0029 159.799C69.6356 162.347 67.2442 164.644 64.8477 164.644ZM123.802 27.0597C122.601 27.73 121.002 27.7505 119.851 26.9523C118.725 26.1745 117.923 24.7828 118.107 23.345C118.197 22.6337 118.356 22.0709 118.835 21.5336C119.114 21.2215 119.482 21.0271 119.871 20.9145C120.075 20.6433 120.329 20.4131 120.588 20.2596C121.201 19.8911 121.829 19.886 122.507 20.0037C123.961 20.2544 125.341 21.2983 125.765 22.777C126.253 24.4758 125.242 26.2513 123.797 27.0597H123.802ZM137.314 163.539C135.151 164.363 132.75 163.063 131.509 161.252C130.095 159.185 130.643 156.401 132.83 155.178C133.522 154.79 134.275 154.764 134.937 155.02C135.102 155.03 135.271 155.051 135.43 155.097C138.096 155.823 139.112 158.479 139.137 161.073C139.147 162.265 138.34 163.145 137.309 163.539H137.314ZM139.74 92.4571C139.531 93.3219 138.823 94.0075 138.001 94.2429C136.487 94.6829 134.564 94.6778 133.178 93.8182C131.196 92.5902 130.882 90.129 132.112 88.2051C132.247 87.9953 132.406 87.8213 132.576 87.6576C132.914 86.6496 133.911 85.7644 134.947 85.8821C136.656 86.0765 138.096 86.6445 139.147 88.1028C140.044 89.3461 140.094 91.004 139.74 92.452V92.4571ZM152.086 148.665C148.544 150.875 145.191 146.946 143.99 143.86C143.487 142.571 144.543 141.046 145.729 140.713C146.361 140.534 146.944 140.621 147.438 140.887C147.597 140.805 147.766 140.744 147.946 140.713C149.964 140.36 152.061 140.979 153.331 142.704C154.771 144.658 154.084 147.411 152.081 148.665H152.086ZM154.652 26.3434C154.014 28.5487 151.642 28.825 149.769 28.4054C147.931 27.9961 146.625 26.3127 146.212 24.4911C145.953 23.345 146.033 22.1272 146.894 21.2624C147.632 20.5256 148.608 20.4233 149.58 20.4335C149.949 20.4335 150.287 20.5205 150.591 20.6638C151.06 20.6535 151.543 20.7559 151.976 20.9554C153.835 21.8048 155.255 24.2506 154.652 26.3383V26.3434ZM194.709 57.4636C193.353 58.7018 191.336 59.5307 189.826 57.9855C188.899 57.0389 188.625 55.5141 188.595 54.2195C188.575 53.3394 189.019 52.6026 189.672 52.1472C189.682 52.0449 189.687 51.9426 189.711 51.8453C190.01 50.4843 191.515 49.7219 192.775 50.0596C194.315 50.4741 195.934 51.4667 196.318 53.1808C196.686 54.8335 195.889 56.3839 194.709 57.4636ZM209.76 71.6882C208.509 72.9264 206.636 73.0339 205.196 72.0617C203.876 71.1714 203.089 69.8052 202.944 68.1985C202.869 67.3747 203.298 66.6686 203.916 66.2081C204.299 65.2666 205.251 64.4991 206.232 64.5912C207.827 64.7345 209.252 65.4457 210.193 66.8068C211.2 68.2599 211.015 70.4448 209.76 71.6933V71.6882Z" fill="#7F4D2E"/>
<path fill-rule="evenodd" clip-rule="evenodd" d="M95.0837 9.99788H107.432H123.219V2.24707H126.219V9.99788H142.006H156.625V2.24707H158.279C158.742 2.72629 159.19 3.18936 159.625 3.63877V9.99788H165.779C166.736 10.9868 167.69 11.9715 168.683 12.9979H158.125H143.506V27.8108H148.396C148.809 28.0874 149.27 28.2927 149.769 28.404C151.096 28.7011 152.672 28.6493 153.706 27.8108H158.125H172.744V15.2211C174.752 13.1923 176.487 11.5783 178.206 9.99788H189.126L189.28 2.24707H192.28L192.127 9.99788H206.95H220.634V2.24707H223.634V9.99788H237.319H250.008C251.053 10.9636 252.103 11.9365 253.215 12.9979H238.819V27.8108H250.401H257.479V30.8108H251.901V46.1051H257.479V49.1051H250.401H238.819V63.4366H250.401H257.479V66.4366H251.901V80.2867H252.127C251.137 81.3092 250.183 82.2938 249.222 83.2867H238.819V90.7671H235.819V83.2867H222.134H208.45V90.7671H205.45V83.2867H190.597H179.05C178.089 82.2937 177.136 81.309 176.146 80.2867H189.097V66.4366H174.244H159.625V80.2867H169.417C168.413 81.3232 167.459 82.3085 166.512 83.2867H158.125H143.506V96.6553H158.125H164.464C164.998 97.207 165.534 97.7608 166.08 98.3246C166.503 98.761 166.931 99.2033 167.369 99.6553H159.625V112.542H171.785V115.542H158.125H143.506V129.874H158.125H171.785V132.874H159.625V147.205H171.785V150.205H158.125H143.506V164.537H158.125H170.584C169.524 165.658 168.635 166.636 167.84 167.537H159.625V176.869C159.354 177.154 159.072 177.448 158.777 177.752H156.625V167.537H142.006H126.219V177.752H123.219V167.537H107.432H92.5791V169.472C92.3762 169.263 92.1732 169.053 91.9695 168.843C90.644 167.474 89.2928 166.079 87.8001 164.537H91.0791H105.932V150.205H91.0791H76.2264V164.537H85.38C84.3577 165.593 83.4017 166.58 82.475 167.537H74.7264H58.9675L59.1582 177.752H56.1576L55.967 167.537H40.1521H23.4306V177.752H20.4306V167.537H7.00345C5.52922 166.015 3.98111 164.417 2.20898 162.588V148.705V147.205H3.70898H20.4306V132.874H3.70898H2.20898V131.374V130.236C3.54146 130.484 4.69291 129.733 5.13616 128.421C5.16252 128.344 5.18679 128.265 5.20898 128.186V129.874H21.9306H38.6521V115.542H21.9306H5.20898V124.678C4.92477 123.998 4.36645 123.423 3.70129 123.213C3.57175 123.115 3.43723 123.018 3.29275 122.936C2.95884 122.744 2.5905 122.613 2.20898 122.538V114.042V112.542H3.70898H20.4306V99.6553H5.8136C6.85061 98.5835 7.76776 97.6349 8.71495 96.6553H21.9306H38.6521V90.0974C39.6446 90.0899 40.6462 90.0822 41.6521 90.0744V96.6553H57.4393H73.2264V89.7228C73.7103 89.7071 73.9789 89.6919 74 89.6773C74.7797 90.4822 75.5172 91.2436 76.2264 91.9757V96.6553H80.759C81.7068 97.6339 82.6609 98.6193 83.6638 99.6553H74.7264H58.9393V112.542H74.7264H89.5791V99.6553H89.517C90.5202 98.6191 91.4744 97.6339 92.4223 96.6553H105.932V83.2867H94.3497C93.8273 82.7473 93.3027 82.2057 92.7687 81.6543C91.7555 80.6083 90.7086 79.5274 89.5791 78.3614V66.4366H87.0882V63.4366H91.0791H105.932V49.1051H91.0791H87.0882V46.1051H89.5791V30.8108H87.0882V27.8108H91.0791H105.932V12.9979H92.1784C93.1726 11.9714 94.1263 10.9867 95.0837 9.99788ZM92.5791 46.1051V30.8108H107.432H123.219V46.1051H107.432H92.5791ZM126.219 46.1051V30.8108H142.006H156.625V46.1051H142.006H126.219ZM159.625 46.1051V30.8108H174.244H189.097V46.1051H174.244H159.625ZM192.097 46.1051V30.8108H206.95H220.634V46.1051H206.95H192.097ZM223.634 46.1051V30.8108H237.319H248.901V46.1051H237.319H223.634ZM92.5791 80.2867V66.4366H107.432H123.219V80.2867H107.432H92.5791ZM126.219 80.2867V66.4366H142.006H156.625V80.2867H142.006H126.219ZM192.097 80.2867V66.4366H203.645C203.73 66.3544 203.82 66.2776 203.916 66.2066C204.299 65.2652 205.251 64.4976 206.232 64.5897C207.676 64.7195 208.981 65.3148 209.913 66.4366H220.634V80.2867H206.95H192.097ZM223.634 80.2867V66.4366H237.319H248.901V80.2867H237.319H223.634ZM23.4306 112.542V99.6553H40.1521H55.9393V112.542H40.1521H23.4306ZM92.5791 112.542V99.6553H107.432H123.219V112.542H107.432H92.5791ZM126.219 112.542V99.6553H142.006H156.625V112.542H142.006H126.219ZM23.4306 147.205V132.874H40.1521H55.9393V147.205H40.1521H23.4306ZM58.9393 147.205V132.874H74.7264H89.5791V147.205H74.7264H58.9393ZM92.5791 147.205V132.874H107.432H123.219V147.205H107.432H92.5791ZM126.219 147.205V132.874H142.006H156.625V147.205H153.499C153.157 147.784 152.677 148.29 152.081 148.663H152.086C149.824 150.075 147.639 148.983 146.043 147.205H142.006H126.219ZM140.506 150.205V164.537H124.719H108.932V150.205H124.719H140.506ZM73.2264 150.205V164.537H65.7505C65.4537 164.606 65.1508 164.643 64.8477 164.643C64.5146 164.643 64.2015 164.606 63.9087 164.537H57.4393H41.6521V150.205H57.4393H73.2264ZM38.6521 163.641V164.537H21.9306H5.20898V150.205H21.9306H38.6521V156.225C39.4453 156.617 40.1226 157.252 40.5844 158.206C41.1723 159.424 40.9083 160.759 39.862 161.573V161.568C39.8122 162.412 39.4535 163.292 38.6663 163.635C38.6616 163.637 38.6569 163.639 38.6521 163.641ZM140.506 115.542V129.874H124.719H108.932V115.542H124.719H140.506ZM105.932 115.542V129.874H91.0791H76.2264V115.542H91.0791H105.932ZM73.2264 115.542V129.874H57.4393H41.6521V115.542H57.4393H73.2264ZM140.506 83.2867V96.6553H124.719H108.932V83.2867H124.719H140.506ZM235.819 49.1051V63.4366H222.134H208.45V49.1051H222.134H235.819ZM205.45 49.1051V63.4366H190.597H175.744V49.1051H190.597H205.45ZM172.744 49.1051V63.4366H158.125H143.506V49.1051H158.125H172.744ZM140.506 49.1051V63.4366H124.719H108.932V49.1051H124.719H140.506ZM235.819 12.9979V27.8108H222.134H208.45V12.9979H222.134H235.819ZM205.45 12.9979V27.8108H190.597H175.744V12.9979H190.597H205.45ZM140.506 12.9979V27.8108H124.719H108.932V12.9979H124.719H140.506Z" fill="white"/>
<g opacity="0.75">
<path d="M258.82 15.8166L257.689 13.0688L247.51 2.60506L244.91 1.51519L213.681 1.49472H208.604C208.749 1.59194 208.883 1.70451 209.013 1.83243C210.009 2.85578 210.014 4.51873 209.018 5.53697C208.026 6.5552 206.412 6.55009 205.416 5.52673C204.419 4.50338 204.414 2.84555 205.406 1.82731C205.53 1.69939 205.665 1.58682 205.809 1.4896H200.742L183.678 1.48449L181.217 2.54877L172.18 11.8459L163.112 2.54366L160.74 1.54077L99.3997 1.41797L96.7243 2.57436L86.5556 13.0074L85.4994 15.6784L85.5492 47.7452L85.5691 52.9387C85.6588 52.7954 85.7684 52.6624 85.888 52.5345C86.8795 51.5162 88.4987 51.5214 89.4951 52.5396C90.4915 53.5629 90.4915 55.2259 89.5001 56.2441C88.5086 57.2624 86.8894 57.2624 85.893 56.239C85.7734 56.1162 85.6688 55.9832 85.5741 55.8399L85.5941 61.0437L85.614 78.5635L86.6503 81.0912L95.4339 90.1018L86.6752 99.1073L77.5428 89.7487L75.1663 88.7458L13.716 88.6742L11.3445 89.7027L1.03131 100.284L0 102.812V125.535C0.0946616 125.387 0.20427 125.249 0.328825 125.121C1.32028 124.103 2.93949 124.108 3.93593 125.131C4.92739 126.155 4.93237 127.817 3.94091 128.836C2.94946 129.854 1.33025 129.849 0.333807 128.825C0.209252 128.698 0.0996438 128.554 0.00498219 128.406V133.62L0.024911 165.692L1.08612 168.363L11.2747 178.816L13.9501 179.978L75.2909 179.998L77.6624 179L86.9791 169.447L96.1663 178.893L98.4431 179.881L160.028 179.952L162.295 178.939L172.668 168.266L173.639 165.82L173.565 103.155V102.709L172.558 100.279L163.745 91.2172L172.274 82.4778L181.352 91.821L183.619 92.8392L245.204 92.916L247.485 91.9285L257.868 81.2498L258.84 78.8142L258.82 15.8166ZM84.4531 165.845L75.251 175.281L74.4489 175.618L14.817 175.598L13.701 175.112L4.70817 165.886L4.28967 164.827L4.26974 133.625C5.25123 133.298 6.17792 132.73 6.95514 131.931C9.61065 129.204 9.60567 124.763 6.95514 122.036C6.17792 121.237 5.25123 120.669 4.26974 120.337V103.692L4.6434 102.771L13.7758 93.4072L14.5829 93.0542L74.3293 93.1258L75.1414 93.4686L84.3784 102.935L84.6723 103.62L84.6923 103.666L84.7222 130.401V131.056L84.762 165.114L84.4581 165.845H84.4531ZM168.961 102.771L169.305 103.605L169.37 164.96L169.041 165.794L159.849 175.255L159.141 175.572L99.31 175.506L98.5926 175.194L89.3805 165.717L89.0467 164.888L88.977 126.856V124.983L88.9321 103.641L88.9471 103.6L89.4004 102.5L98.3584 93.2946L99.3848 92.8648L129.771 92.916C130.095 93.9291 130.648 94.8808 131.43 95.6842C134.086 98.4114 138.41 98.4165 141.066 95.6893C141.838 94.8962 142.386 93.9598 142.705 92.9621H142.71L158.912 92.9774L159.814 93.3663L168.961 102.771ZM134.434 88.884C135.431 87.8658 137.045 87.8658 138.042 88.884C139.038 89.9022 139.043 91.5703 138.052 92.5885C137.06 93.6068 135.441 93.6016 134.444 92.5834C133.448 91.5601 133.443 89.8971 134.434 88.8789V88.884ZM160.775 88.0704L159.659 88.5975L142.72 88.577C142.396 87.5587 141.843 86.6019 141.056 85.7935C138.4 83.0611 134.076 83.0611 131.42 85.7883C130.643 86.5866 130.095 87.528 129.771 88.536L99.888 88.4798L90.2574 78.5942L89.8738 77.6731L89.8588 61.0232C90.8303 60.6957 91.7421 60.1329 92.5143 59.3398C95.1698 56.6177 95.1648 52.1763 92.5093 49.4439C91.7271 48.6406 90.8004 48.0727 89.814 47.7452L89.7641 16.5329L90.1826 15.4788L99.1456 6.2789L100.257 5.79792L159.893 5.91561L160.701 6.25843L169.918 15.7142L169.987 78.63L160.775 88.0704ZM254.246 78.7733L245.054 88.2239L244.342 88.5309L184.515 88.4644L183.803 88.1421L174.586 78.6556L174.561 78.5942L174.252 77.8164L174.182 16.4613L174.496 15.6937L174.521 15.6323L183.644 6.25331L184.54 5.86444H200.742C201.066 6.87756 201.619 7.82928 202.397 8.62749C205.057 11.3547 209.382 11.3598 212.037 8.63261C212.819 7.82928 213.367 6.87756 213.686 5.86956L244.068 5.89514L245.099 6.32495L254.082 15.5607L254.555 16.7018L254.575 77.9495L254.246 78.7733Z" fill="black"/>
<path d="M84.7178 130.401L84.668 103.625L84.6879 103.666L84.7178 130.401Z" fill="black"/>
<path d="M155.192 19.6746C152.531 16.9423 148.212 16.9372 145.556 19.6644C144.779 20.4626 144.226 21.4092 143.907 22.4223L128.632 22.4019C128.313 21.3887 127.76 20.4421 126.978 19.6388C124.322 16.9116 119.998 16.9065 117.342 19.6337C114.687 22.3609 114.692 26.7972 117.352 29.5295C120.008 32.2619 124.332 32.2619 126.988 29.5295C127.765 28.7313 128.318 27.7847 128.637 26.7767L143.907 26.7972C144.231 27.8052 144.779 28.7518 145.561 29.5551C148.222 32.2875 152.546 32.2926 155.202 29.5653C157.852 26.8381 157.852 22.3967 155.192 19.6695V19.6746ZM123.973 26.439C122.982 27.4572 121.363 27.4572 120.366 26.4339C119.37 25.4105 119.365 23.7476 120.356 22.7293C121.353 21.7111 122.967 21.7162 123.963 22.7345C124.96 23.7578 124.965 25.4208 123.973 26.439ZM152.183 26.4748C151.191 27.493 149.572 27.4879 148.58 26.4646C147.584 25.4412 147.579 23.7834 148.57 22.76C149.562 21.7418 151.181 21.7469 152.178 22.7703C153.174 23.7936 153.174 25.4566 152.183 26.4748Z" fill="black"/>
<path d="M69.7718 155.453C67.1113 152.72 62.7918 152.72 60.1363 155.448C59.359 156.246 58.806 157.192 58.4872 158.201L43.2118 158.18C42.8879 157.172 42.3399 156.225 41.5577 155.422C38.9022 152.69 34.5776 152.685 31.9221 155.412C29.2666 158.139 29.2716 162.575 31.9321 165.308C34.5926 168.04 38.9121 168.045 41.5676 165.318C42.3449 164.52 42.8979 163.573 43.2167 162.56L58.4872 162.58C58.811 163.594 59.359 164.54 60.1412 165.344C62.8017 168.071 67.1263 168.076 69.7818 165.349C72.4323 162.621 72.4323 158.185 69.7718 155.453ZM38.5534 162.217C37.562 163.241 35.9427 163.235 34.9463 162.212C33.9499 161.189 33.9449 159.526 34.9413 158.508C35.9328 157.489 37.547 157.494 38.5434 158.518C39.5399 159.541 39.5449 161.199 38.5534 162.217ZM66.7626 162.253C65.7711 163.271 64.1569 163.266 63.1605 162.243C62.164 161.219 62.159 159.562 63.1505 158.543C64.1419 157.525 65.7612 157.525 66.7576 158.548C67.754 159.572 67.754 161.235 66.7626 162.253Z" fill="black"/>
<path d="M154.18 140.348C151.519 137.616 147.195 137.611 144.544 140.338C141.889 143.065 141.889 147.507 144.549 150.234C145.341 151.048 146.288 151.621 147.289 151.948V157.914H141.844C141.55 156.773 140.962 155.688 140.09 154.793C137.43 152.066 133.105 152.061 130.45 154.793C127.799 157.52 127.799 161.956 130.46 164.689C133.12 167.421 137.44 167.421 140.095 164.699C140.783 163.993 141.291 163.174 141.62 162.299H151.554V151.928C152.516 151.595 153.417 151.037 154.185 150.249C156.84 147.522 156.835 143.081 154.18 140.353V140.348ZM137.081 161.593C136.089 162.611 134.47 162.611 133.474 161.588C132.477 160.565 132.477 158.902 133.474 157.884C134.465 156.865 136.079 156.87 137.076 157.894C138.072 158.917 138.077 160.575 137.086 161.593H137.081ZM151.17 147.149C150.179 148.167 148.56 148.162 147.563 147.138C146.567 146.115 146.567 144.452 147.558 143.434C148.55 142.416 150.169 142.421 151.165 143.444C152.157 144.467 152.162 146.125 151.17 147.149Z" fill="black"/>
<path d="M211.663 63.996C209.007 61.2688 204.683 61.2739 202.022 64.0011C201.23 64.8147 200.672 65.7869 200.353 66.8153H194.544V61.2329C195.655 60.9208 196.711 60.317 197.583 59.4216C200.244 56.6893 200.249 52.253 197.593 49.5258C194.938 46.7985 190.613 46.8037 187.957 49.5309C185.297 52.2633 185.292 56.7046 187.948 59.4267C188.63 60.1277 189.427 60.6496 190.279 60.9925V71.1953H200.383C200.707 72.1828 201.25 73.109 202.017 73.8969C204.673 76.6242 208.992 76.6242 211.653 73.8918C214.313 71.1595 214.313 66.7232 211.663 63.996ZM190.962 56.3311C189.97 55.3128 189.975 53.6499 190.972 52.6265C191.968 51.6083 193.582 51.6032 194.579 52.6214C195.57 53.6397 195.565 55.3026 194.569 56.326C193.572 57.3493 191.953 57.3493 190.962 56.3311ZM208.639 70.7962C207.642 71.8195 206.023 71.8195 205.031 70.8013C204.04 69.7831 204.045 68.1201 205.041 67.1019C206.038 66.0785 207.652 66.0734 208.644 67.0916C209.635 68.1099 209.635 69.7728 208.639 70.7962Z" fill="black"/>
</g>
<path d="M258.82 15.3058L257.689 12.5581L247.51 2.09432L244.91 1.00445L213.681 0.983978H208.604C208.749 1.0812 208.883 1.19377 209.013 1.32168C210.009 2.34504 210.014 4.00799 209.018 5.02622C208.026 6.04446 206.412 6.03934 205.416 5.01599C204.419 3.99264 204.414 2.3348 205.406 1.31657C205.53 1.18865 205.665 1.07608 205.809 0.978861H200.742L183.678 0.973745L181.217 2.03803L172.18 11.3352L163.112 2.03292L160.74 1.03003L99.3997 0.907227L96.7243 2.06362L86.5556 12.4967L85.4994 15.1677L85.5492 47.2344L85.5691 52.428C85.6588 52.2847 85.7684 52.1517 85.888 52.0237C86.8795 51.0055 88.4987 51.0106 89.4951 52.0289C90.4915 53.0522 90.4915 54.7152 89.5001 55.7334C88.5086 56.7516 86.8894 56.7516 85.893 55.7283C85.7734 55.6055 85.6688 55.4724 85.5741 55.3292L85.5941 60.5329L85.614 78.0527L86.6503 80.5804L95.4339 89.591L86.6752 98.5965L77.5428 89.238L75.1663 88.2351L13.716 88.1635L11.3445 89.1919L1.03131 99.7734L0 102.301V125.025C0.0946616 124.876 0.20427 124.738 0.328825 124.61C1.32028 123.592 2.93949 123.597 3.93593 124.62C4.92739 125.644 4.93237 127.307 3.94091 128.325C2.94946 129.343 1.33025 129.338 0.333807 128.315C0.209252 128.187 0.0996438 128.044 0.00498219 127.895V133.109L0.024911 165.181L1.08612 167.852L11.2747 178.306L13.9501 179.467L75.2909 179.488L77.6624 178.49L86.9791 168.937L96.1663 178.382L98.4431 179.37L160.028 179.441L162.295 178.428L172.668 167.755L173.639 165.309L173.565 102.644V102.199L172.558 99.7683L163.745 90.7065L172.274 81.9671L181.352 91.3103L183.619 92.3285L245.204 92.4053L247.485 91.4177L257.868 80.739L258.84 78.3034L258.82 15.3058ZM84.4531 165.335L75.251 174.77L74.4489 175.108L14.817 175.087L13.701 174.601L4.70817 165.375L4.28967 164.316L4.26974 133.114C5.25123 132.787 6.17792 132.219 6.95514 131.421C9.61065 128.693 9.60567 124.252 6.95514 121.525C6.17792 120.727 5.25123 120.159 4.26974 119.826V103.181L4.6434 102.26L13.7758 92.8965L14.5829 92.5434L74.3293 92.615L75.1414 92.9579L84.3784 102.424L84.6723 103.11L84.6923 103.156L84.7222 129.891V130.546L84.762 164.603L84.4581 165.335H84.4531ZM168.961 102.26L169.305 103.094L169.37 164.449L169.041 165.283L159.849 174.744L159.141 175.062L99.31 174.995L98.5926 174.683L89.3805 165.207L89.0467 164.378L88.977 126.345V124.472L88.9321 103.13L88.9471 103.089L89.4004 101.989L98.3584 92.7839L99.3848 92.3541L129.771 92.4053C130.095 93.4184 130.648 94.3701 131.43 95.1734C134.086 97.9007 138.41 97.9058 141.066 95.1786C141.838 94.3855 142.386 93.4491 142.705 92.4513H142.71L158.912 92.4667L159.814 92.8555L168.961 102.26ZM134.434 88.3732C135.431 87.355 137.045 87.355 138.042 88.3732C139.038 89.3915 139.043 91.0595 138.052 92.0778C137.06 93.096 135.441 93.0909 134.444 92.0727C133.448 91.0493 133.443 89.3864 134.434 88.3681V88.3732ZM160.775 87.5597L159.659 88.0867L142.72 88.0662C142.396 87.048 141.843 86.0912 141.056 85.2827C138.4 82.5504 134.076 82.5504 131.42 85.2776C130.643 86.0758 130.095 87.0173 129.771 88.0253L99.888 87.969L90.2574 78.0834L89.8738 77.1624L89.8588 60.5124C90.8303 60.185 91.7421 59.6221 92.5143 58.829C95.1698 56.1069 95.1648 51.6656 92.5093 48.9332C91.7271 48.1299 90.8004 47.5619 89.814 47.2344L89.7641 16.0222L90.1826 14.9681L99.1456 5.76816L100.257 5.28718L159.893 5.40486L160.701 5.74769L169.918 15.2035L169.987 78.1192L160.775 87.5597ZM254.246 78.2625L245.054 87.7132L244.342 88.0202L184.515 87.9537L183.803 87.6313L174.586 78.1448L174.561 78.0834L174.252 77.3057L174.182 15.9505L174.496 15.183L174.521 15.1216L183.644 5.74257L184.54 5.3537H200.742C201.066 6.36682 201.619 7.31854 202.397 8.11675C205.057 10.844 209.382 10.8491 212.037 8.12187C212.819 7.31854 213.367 6.36682 213.686 5.35881L244.068 5.3844L245.099 5.81421L254.082 15.05L254.555 16.191L254.575 77.4387L254.246 78.2625Z" fill="#A3D07C"/>
<path d="M84.7178 129.89L84.668 103.114L84.6879 103.155L84.7178 129.89Z" fill="#A3D07C"/>
<path d="M155.192 19.1639C152.531 16.4315 148.212 16.4264 145.556 19.1536C144.779 19.9519 144.226 20.8985 143.907 21.9116L128.632 21.8911C128.313 20.878 127.76 19.9314 126.978 19.1281C124.322 16.4008 119.998 16.3957 117.342 19.1229C114.687 21.8502 114.692 26.2864 117.352 29.0188C120.008 31.7511 124.332 31.7511 126.988 29.0188C127.765 28.2206 128.318 27.274 128.637 26.266L143.907 26.2864C144.231 27.2944 144.779 28.241 145.561 29.0444C148.222 31.7767 152.546 31.7818 155.202 29.0546C157.852 26.3274 157.852 21.886 155.192 19.1588V19.1639ZM123.973 25.9283C122.982 26.9465 121.363 26.9465 120.366 25.9231C119.37 24.8998 119.365 23.2368 120.356 22.2186C121.353 21.2004 122.967 21.2055 123.963 22.2237C124.96 23.2471 124.965 24.91 123.973 25.9283ZM152.183 25.9641C151.191 26.9823 149.572 26.9772 148.58 25.9538C147.584 24.9305 147.579 23.2726 148.57 22.2493C149.562 21.2311 151.181 21.2362 152.178 22.2595C153.174 23.2829 153.174 24.9458 152.183 25.9641Z" fill="#A3D07C"/>
<path d="M69.7718 154.942C67.1113 152.21 62.7918 152.21 60.1363 154.937C59.359 155.735 58.806 156.682 58.4872 157.69L43.2118 157.669C42.8879 156.661 42.3399 155.715 41.5577 154.911C38.9022 152.179 34.5776 152.174 31.9221 154.901C29.2666 157.628 29.2716 162.065 31.9321 164.797C34.5926 167.529 38.9121 167.534 41.5676 164.807C42.3449 164.009 42.8979 163.062 43.2167 162.049L58.4872 162.07C58.811 163.083 59.359 164.029 60.1412 164.833C62.8017 167.56 67.1263 167.565 69.7818 164.838C72.4323 162.111 72.4323 157.674 69.7718 154.942ZM38.5534 161.706C37.562 162.73 35.9427 162.725 34.9463 161.701C33.9499 160.678 33.9449 159.015 34.9413 157.997C35.9328 156.979 37.547 156.984 38.5434 158.007C39.5399 159.03 39.5449 160.688 38.5534 161.706ZM66.7626 161.742C65.7711 162.76 64.1569 162.755 63.1605 161.732C62.164 160.709 62.159 159.051 63.1505 158.033C64.1419 157.014 65.7612 157.014 66.7576 158.038C67.754 159.061 67.754 160.724 66.7626 161.742Z" fill="#A3D07C"/>
<path d="M154.18 139.838C151.519 137.105 147.195 137.1 144.544 139.827C141.889 142.555 141.889 146.996 144.549 149.723C145.341 150.537 146.288 151.11 147.289 151.437V157.403H141.844C141.55 156.262 140.962 155.178 140.09 154.282C137.43 151.555 133.105 151.55 130.45 154.282C127.799 157.009 127.799 161.446 130.46 164.178C133.12 166.91 137.44 166.91 140.095 164.188C140.783 163.482 141.291 162.664 141.62 161.789H151.554V151.417C152.516 151.084 153.417 150.527 154.185 149.739C156.84 147.011 156.835 142.57 154.18 139.843V139.838ZM137.081 161.082C136.089 162.101 134.47 162.101 133.474 161.077C132.477 160.054 132.477 158.391 133.474 157.373C134.465 156.355 136.079 156.36 137.076 157.383C138.072 158.406 138.077 160.064 137.086 161.082H137.081ZM151.17 146.638C150.179 147.656 148.56 147.651 147.563 146.628C146.567 145.604 146.567 143.941 147.558 142.923C148.55 141.905 150.169 141.91 151.165 142.933C152.157 143.957 152.162 145.614 151.17 146.638Z" fill="#A3D07C"/>
<path d="M211.663 63.4853C209.007 60.758 204.683 60.7631 202.022 63.4904C201.23 64.3039 200.672 65.2761 200.353 66.3046H194.544V60.7222C195.655 60.4101 196.711 59.8063 197.583 58.9109C200.244 56.1785 200.249 51.7423 197.593 49.015C194.938 46.2878 190.613 46.2929 187.957 49.0202C185.297 51.7525 185.292 56.1939 187.948 58.916C188.63 59.617 189.427 60.1389 190.279 60.4817V70.6845H200.383C200.707 71.6721 201.25 72.5982 202.017 73.3862C204.673 76.1134 208.992 76.1134 211.653 73.3811C214.313 70.6487 214.313 66.2125 211.663 63.4853ZM190.962 55.8203C189.97 54.8021 189.975 53.1392 190.972 52.1158C191.968 51.0976 193.582 51.0924 194.579 52.1107C195.57 53.1289 195.565 54.7919 194.569 55.8152C193.572 56.8386 191.953 56.8386 190.962 55.8203ZM208.639 70.2854C207.642 71.3088 206.023 71.3088 205.031 70.2906C204.04 69.2723 204.045 67.6094 205.041 66.5911C206.038 65.5678 207.652 65.5627 208.644 66.5809C209.635 67.5991 209.635 69.2621 208.639 70.2854Z" fill="#A3D07C"/>
<rect x="94" y="10.9072" width="70" height="27" rx="9" fill="#D9D9D9"/>
<path d="M102.276 33.9072V31.3872L108.756 25.2672C109.268 24.8032 109.644 24.3872 109.884 24.0192C110.124 23.6512 110.284 23.3152 110.364 23.0112C110.46 22.7072 110.508 22.4272 110.508 22.1712C110.508 21.4992 110.276 20.9872 109.812 20.6352C109.364 20.2672 108.7 20.0832 107.82 20.0832C107.116 20.0832 106.46 20.2192 105.852 20.4912C105.26 20.7632 104.756 21.1872 104.34 21.7632L101.508 19.9392C102.148 18.9792 103.044 18.2192 104.196 17.6592C105.348 17.0992 106.676 16.8192 108.18 16.8192C109.428 16.8192 110.516 17.0272 111.444 17.4432C112.388 17.8432 113.116 18.4112 113.628 19.1472C114.156 19.8832 114.42 20.7632 114.42 21.7872C114.42 22.3312 114.348 22.8752 114.204 23.4192C114.076 23.9472 113.804 24.5072 113.388 25.0992C112.988 25.6912 112.396 26.3552 111.612 27.0912L106.236 32.1552L105.492 30.7392H114.972V33.9072H102.276ZM123.777 34.1952C122.401 34.1952 121.169 33.8592 120.081 33.1872C118.993 32.4992 118.137 31.5072 117.513 30.2112C116.889 28.9152 116.577 27.3472 116.577 25.5072C116.577 23.6672 116.889 22.0992 117.513 20.8032C118.137 19.5072 118.993 18.5232 120.081 17.8512C121.169 17.1632 122.401 16.8192 123.777 16.8192C125.169 16.8192 126.401 17.1632 127.473 17.8512C128.561 18.5232 129.417 19.5072 130.041 20.8032C130.665 22.0992 130.977 23.6672 130.977 25.5072C130.977 27.3472 130.665 28.9152 130.041 30.2112C129.417 31.5072 128.561 32.4992 127.473 33.1872C126.401 33.8592 125.169 34.1952 123.777 34.1952ZM123.777 30.9072C124.433 30.9072 125.001 30.7232 125.481 30.3552C125.977 29.9872 126.361 29.4032 126.633 28.6032C126.921 27.8032 127.065 26.7712 127.065 25.5072C127.065 24.2432 126.921 23.2112 126.633 22.4112C126.361 21.6112 125.977 21.0272 125.481 20.6592C125.001 20.2912 124.433 20.1072 123.777 20.1072C123.137 20.1072 122.569 20.2912 122.073 20.6592C121.593 21.0272 121.209 21.6112 120.921 22.4112C120.649 23.2112 120.513 24.2432 120.513 25.5072C120.513 26.7712 120.649 27.8032 120.921 28.6032C121.209 29.4032 121.593 29.9872 122.073 30.3552C122.569 30.7232 123.137 30.9072 123.777 30.9072ZM135.364 33.9072V18.5472L137.044 20.2272H132.004V17.1072H139.252V33.9072H135.364ZM148.074 16.8192C149.626 16.8192 150.962 17.1392 152.082 17.7792C153.202 18.4192 154.066 19.3552 154.674 20.5872C155.282 21.8032 155.586 23.3232 155.586 25.1472C155.586 27.0832 155.218 28.7232 154.482 30.0672C153.762 31.4112 152.762 32.4352 151.482 33.1392C150.202 33.8432 148.714 34.1952 147.018 34.1952C146.138 34.1952 145.29 34.0992 144.474 33.9072C143.658 33.7152 142.954 33.4272 142.362 33.0432L143.802 30.1872C144.266 30.5072 144.762 30.7312 145.29 30.8592C145.818 30.9712 146.37 31.0272 146.946 31.0272C148.386 31.0272 149.53 30.5872 150.378 29.7072C151.242 28.8272 151.674 27.5232 151.674 25.7952C151.674 25.5072 151.666 25.1872 151.65 24.8352C151.634 24.4832 151.594 24.1312 151.53 23.7792L152.586 24.7872C152.314 25.4112 151.93 25.9392 151.434 26.3712C150.938 26.7872 150.362 27.1072 149.706 27.3312C149.05 27.5392 148.314 27.6432 147.498 27.6432C146.426 27.6432 145.45 27.4272 144.57 26.9952C143.706 26.5632 143.01 25.9552 142.482 25.1712C141.97 24.3872 141.714 23.4672 141.714 22.4112C141.714 21.2592 141.994 20.2672 142.554 19.4352C143.13 18.6032 143.898 17.9632 144.858 17.5152C145.834 17.0512 146.906 16.8192 148.074 16.8192ZM148.314 19.7232C147.754 19.7232 147.266 19.8272 146.85 20.0352C146.434 20.2272 146.106 20.5152 145.866 20.8992C145.626 21.2672 145.506 21.7072 145.506 22.2192C145.506 22.9872 145.762 23.6032 146.274 24.0672C146.802 24.5152 147.498 24.7392 148.362 24.7392C148.922 24.7392 149.418 24.6352 149.85 24.4272C150.298 24.2032 150.642 23.8992 150.882 23.5152C151.122 23.1312 151.242 22.6992 151.242 22.2192C151.242 21.7392 151.122 21.3152 150.882 20.9472C150.658 20.5632 150.33 20.2672 149.898 20.0592C149.466 19.8352 148.938 19.7232 148.314 19.7232Z" fill="#171B48"/>
</svg>
