<?xml version="1.0" encoding="UTF-8" standalone="no"?>
<svg xmlns="http://www.w3.org/2000/svg" xml:space="preserve" version="1.1" width="398.971" height="73.885" viewBox="0 0 398.971 73.885">
  <path fill="#00205b" d="m120.15 1.5117v70.861h17.258v-55.547h19.521c7.227 0 9.8145 4.1007 9.8145 8.8457 0 4.854-2.6968 8.8438-9.9238 8.8438h-16.717l23.729 37.857h19.631s-16.179-25.453-16.07-25.453c10.032-2.372 16.502-9.3837 16.502-21.68 0-13.482-8.8443-23.729-27.072-23.729zm-28.906-7.188e-4h17.258v70.864h-17.258zm-44.114 44.114h-14.523l10.747-21.787h0.217l24.16 48.536h19.846l-36.133-70.863h-15.315l-36.133 70.863h19.414l5.853-11.864h29.093zm144.96-44.113v70.861h41.961c14.668 0 24.268-7.8737 24.268-19.846-1e-3 -8.304-4.6376-14.559-11.434-16.932 5.502-3.021 8.4141-7.8752 8.4141-14.994 0-11.433-8.5222-19.09-22.867-19.09zm17.26 14.992h23.082c3.452 0 6.1484 2.6959 6.1484 6.2559 0 3.56-2.6968 6.2559-6.2578 6.2559h-22.973zm0 26.639h23.514c4.207 0 7.4434 3.0211 7.4434 7.1191 1e-3 4.206-3.2364 7.334-7.4434 7.334h-23.514zm103.44-2.0476c0 10.756-4.962 16.718-14.776 16.718-9.707 0-14.669-5.962-14.669-16.718v-39.584h-17.688v38.29c0 21.896 11.541 34.084 32.357 34.084s32.465-12.188 32.465-34.084v-38.29h-17.689zm55.009-41.095c-18.229 0-28.477 9.0611-28.477 21.248 0 13.114 7.6533 18.442 25.238 22.219 13.69 3.018 16.609 4.9013 16.609 8.7363 0 4.166-3.7748 6.041-11.217 6.041-10.786 0-20.546-2.6193-28.365-6.9023l-5.2852 15.1c8.521 4.53 21.247 7.4434 34.082 7.4434 17.905 0 28.582-8.3067 28.582-22.221 2e-3 -11.163-7.2206-18.334-22.434-22.002-16.383-3.989-19.951-4.3696-19.951-9.0605 0-3.629 4.097-5.3945 11-5.3945 9.168 0 18.931 2.3018 24.484 5.7188l5.5-14.453c-7.118-3.775-17.58-6.4727-29.768-6.4727z"/>
</svg>
