<svg width="631" height="227" viewBox="0 0 631 227" fill="none" xmlns="http://www.w3.org/2000/svg">
<path d="M453.183 102.647C443.449 100.847 430.676 99.8988 426.523 94.0015C420.283 85.1441 428.077 72.2562 448.493 73.4602C466.975 74.5495 469.495 88.8121 469.749 94.3588H496.409C496.773 83.9135 492.447 73.1041 485.957 66.2588C477.681 57.6148 458.221 48.5988 434.093 52.2135C421.115 54.0081 403.824 61.5708 398.053 78.5122C393.008 94.3588 398.053 108.767 407.78 116.337C420.033 125.708 443.027 128.515 452.459 130.397C463.863 132.675 472.331 134.2 470.924 146.331C469.444 159.081 449.681 162.709 436.605 158.489C427.284 155.481 423.272 148.037 421.472 137.955H393.379C393.379 150.733 400.981 164.216 408.677 170.405C420.093 179.585 433.064 182.815 448.052 182.815C467.737 182.815 484.027 177.74 493.892 163.172C499.063 155.535 504.7 137.955 495.685 122.107C487.765 108.412 469.749 105.528 453.183 102.647Z" fill="#003247"/>
<path d="M360.223 69.1416C348.779 56.0629 328.742 48.6002 308.35 51.8429C270.088 57.9269 260.722 94.1816 258.99 105.892C255.748 127.815 262.235 164.615 300.786 179.031C318.788 185.87 341.494 183.351 358.784 170.743C368.511 163.528 378.239 147.324 378.958 137.228H346.894C345.819 141.555 343.294 147.324 337.528 151.644C324.552 161.01 309.787 154.89 303.298 150.2C293.571 142.999 289.971 131.114 289.971 114.175C289.971 90.7202 300.752 76.8296 319.372 76.8296C336.222 76.8296 346.639 91.3269 345.819 103.366H300.416V126.064H378.958C380.875 104.696 370.946 81.3962 360.223 69.1416Z" fill="#003247"/>
<path d="M593.808 143.259C591.192 150.785 584.129 156.309 570.754 158.066C553.109 160.385 541.054 149.43 548.684 135.325C556.345 121.161 584.561 126.182 595.252 115.873C595.252 118.753 595.718 137.759 593.808 143.259ZM626.24 147.941V109.026C626.24 103.125 625.526 88.9275 623.721 79.4835C622.42 72.6835 616.557 62.3701 605.333 56.7741C595.55 51.8981 588.024 51.0208 572.096 51.0208C548.153 51.0208 522.382 59.3475 521.28 93.8915H550.096C550.096 81.3915 558.754 74.0088 572.013 74.0088C584.988 74.0088 595.99 80.9955 593.458 92.4541C590.928 103.914 569.769 104.341 556.246 106.145C540.566 108.235 519.497 115.509 514.452 137.489C512.652 146.134 514.09 161.987 527.417 172.433C536.432 179.278 546.006 182.166 558.768 182.166C575.046 182.166 588.729 175.077 596.34 168.113C596.696 169.913 598.496 176.757 599.941 178.565H630.202C625.513 169.194 626.24 154.667 626.24 147.941Z" fill="#003247"/>
<path d="M54.4131 127.648C47.2705 127.648 41.4798 121.857 41.4798 114.716C41.4798 107.573 47.2705 101.782 54.4131 101.782C61.5558 101.782 67.3465 107.573 67.3465 114.716C67.3465 121.857 61.5558 127.648 54.4131 127.648ZM154.748 185.662C103.688 168.034 94.2425 120.8 106.968 87.7315C119.674 54.6662 164.184 39.2315 195.069 61.3875C225.968 83.5515 222.689 126.065 222.689 126.065H143.484V103.366H189.45C189.45 103.366 190.733 94.5155 183.084 86.0982C172.884 74.8742 158.258 75.0035 148.749 80.4715C136.9 87.2862 128.769 111.597 135.117 132.972C141.466 154.346 160.877 162.841 179.55 162.841C206.601 162.841 226.73 144.142 226.773 113.53C226.876 62.8022 192.668 16.5515 141.26 3.50618C80.5785 -11.8845 18.9091 24.8289 3.50648 85.5115C-11.8842 146.193 24.8238 207.87 85.5091 223.265C128.826 234.252 172.642 218.694 199.777 186.82C186.93 190.614 171.668 191.501 154.748 185.662Z" fill="#003247"/>
</svg>
