<?xml version="1.0" standalone="no"?>
<!DOCTYPE svg PUBLIC "-//W3C//DTD SVG 20010904//EN"
 "http://www.w3.org/TR/2001/REC-SVG-20010904/DTD/svg10.dtd">
<svg version="1.0" xmlns="http://www.w3.org/2000/svg"
 width="1437.000000pt" height="470.000000pt" viewBox="0 0 1437.000000 470.000000"
 preserveAspectRatio="xMidYMid meet">

<g transform="translate(0.000000,470.000000) scale(0.100000,-0.100000)"
fill="#000000" stroke="none">
<path d="M1026 3568 c-3 -29 -6 -149 -6 -265 l0 -213 963 0 c530 0 1113 -3
1295 -7 l332 -6 0 271 0 272 -1289 0 -1288 0 -7 -52z"/>
<path d="M6256 2828 c-7 -892 -5 -932 53 -1047 76 -148 254 -232 466 -218 44
2 99 10 123 18 l43 12 -7 136 c-4 75 -7 137 -8 138 0 1 -26 -5 -56 -13 -102
-27 -209 9 -246 83 -18 36 -19 79 -22 861 l-2 822 -169 0 -168 0 -7 -792z"/>
<path d="M10610 2580 l0 -1030 170 0 170 0 0 193 0 192 78 75 c42 41 100 97
128 123 l50 48 254 -316 255 -315 207 0 c115 0 208 2 208 5 0 2 -149 194 -331
426 l-332 421 309 309 309 309 -212 0 -211 0 -354 -326 -353 -325 -3 620 -2
621 -170 0 -170 0 0 -1030z"/>
<path d="M5309 3499 c-113 -12 -193 -35 -298 -86 -169 -81 -290 -229 -343
-420 -22 -76 -22 -94 -26 -755 l-3 -678 170 0 171 0 2 368 3 367 438 3 437 2
0 145 0 145 -437 2 -438 3 -3 80 c-7 183 33 320 118 399 90 85 188 116 366
116 130 0 234 -23 334 -73 36 -17 68 -33 71 -35 10 -5 112 276 104 288 -12 19
-122 69 -207 94 -82 24 -262 47 -342 45 -23 -1 -75 -5 -117 -10z"/>
<path d="M7617 3039 c-86 -11 -205 -51 -277 -92 -30 -17 -92 -67 -136 -111
-68 -68 -89 -97 -127 -176 -65 -136 -80 -218 -75 -398 4 -131 8 -156 35 -235
41 -118 85 -188 168 -272 136 -136 277 -194 491 -203 210 -8 342 33 459 140
l55 50 0 -91 0 -91 170 0 170 0 0 735 0 735 -145 0 -144 0 -3 -85 -3 -85 -54
36 c-72 49 -203 110 -273 128 -76 20 -227 27 -311 15z m293 -305 c75 -21 127
-53 183 -113 87 -93 122 -203 115 -355 -13 -242 -165 -403 -397 -423 -276 -23
-492 206 -467 494 27 305 273 477 566 397z"/>
<path d="M9535 3025 c-120 -22 -241 -81 -304 -149 -14 -14 -28 -26 -33 -26 -4
0 -8 38 -8 85 l0 85 -170 0 -170 0 0 -730 0 -730 170 0 170 0 0 403 c0 433 5
478 54 575 24 47 88 115 136 144 89 54 263 70 373 34 105 -35 180 -123 206
-244 7 -35 11 -203 11 -482 l0 -430 170 0 170 0 0 483 c0 540 -3 568 -67 697
-113 232 -391 344 -708 285z"/>
<path d="M12735 3034 c-322 -48 -498 -194 -512 -428 -11 -167 53 -285 194
-359 90 -47 145 -62 353 -97 284 -49 353 -82 353 -170 0 -103 -107 -160 -299
-160 -152 0 -314 39 -453 109 -34 18 -64 31 -66 29 -1 -2 -32 -60 -69 -129
l-66 -126 70 -37 c84 -45 179 -78 292 -103 124 -27 433 -25 539 5 171 46 294
135 351 250 31 63 33 73 33 177 0 100 -3 115 -28 167 -35 71 -90 121 -181 164
-86 41 -145 56 -340 90 -197 34 -266 56 -311 98 -29 28 -35 40 -35 75 0 82 45
127 155 156 145 37 403 1 533 -75 19 -12 36 -20 37 -18 16 18 125 253 122 262
-8 20 -156 73 -267 96 -101 21 -333 35 -405 24z"/>
<path d="M1020 2136 l0 -555 661 -501 660 -501 138 108 c75 59 361 284 634
498 l496 390 1 558 0 557 -265 0 -265 0 -2 -412 -3 -411 -374 -289 c-215 -166
-381 -286 -388 -283 -8 2 -180 132 -383 287 l-369 283 -1 148 0 147 560 0 560
0 0 265 0 265 -830 0 -830 0 0 -554z"/>
</g>
</svg>
