<?xml version="1.0" encoding="utf-8"?>
<!-- Generator: Adobe Illustrator 25.0.0, SVG Export Plug-In . SVG Version: 6.00 Build 0)  -->
<svg version="1.1" id="Capa_1" xmlns="http://www.w3.org/2000/svg" xmlns:xlink="http://www.w3.org/1999/xlink" x="0px" y="0px"
	 width="250px" height="60px" viewBox="0 0 250 60" style="enable-background:new 0 0 250 60;" xml:space="preserve">
<style type="text/css">
	.st0{fill:#005098;}
</style>
<g>
	<g>
		<path class="st0" d="M38.2,13.7h-1.9H35h-4.6l-6.1,17.9l-5.1-11.4l-0.8,2.4L17,26.4l5.2,11.7l-0.8,2.4l-5.2-11.7l-1.7,5.2
			l5.2,11.7h0.6H25h1.4h1.1L38.2,13.7L38.2,13.7L38.2,13.7L38.2,13.7z M7.8,13.7c4.1-3.9,9.6-6.4,15.8-6.4s11.7,2.4,15.8,6.3
			c4.2,4.1,6.9,9.9,6.9,16.3c0,1.2-0.1,2.4-0.3,3.5L41,18.7l-0.5,1.7l-0.8,2.4l-1.3,3.9l4.8,14.6l0,0l0,0l0,0l0,0
			c-0.3,0.6-0.7,1.1-1,1.7L37.5,29l-1.7,5.2l3.8,11.6c-4.1,4.2-9.9,6.8-16.1,6.8c-6.3,0-11.4-1.9-15.5-6.1c0,0-0.6-0.6-0.8-0.9
			c-0.5-0.6-0.7-1-0.7-1c0.3-0.8,0.2-0.5,0.3-0.9l9.9-29.9H9.4L1.8,36.4c-0.2-0.3-0.5-1.7-0.5-1.7C1.1,32.6,0.3,28.5,2,23
			C3.7,17.6,7.8,13.7,7.8,13.7"/>
		<g>
			<g>
				<polygon class="st0" points="235.3,26.7 239.4,20.4 249.1,20.4 240.2,32.8 248.5,45.9 238.8,45.9 235,39.4 230.4,45.9 221,45.9 
					230.1,32.8 221.3,20.4 231.1,20.4 				"/>
				<polygon class="st0" points="181.8,40.1 191.8,40.1 191.8,45.9 172.6,45.9 172.6,20.4 181.8,20.4 				"/>
				<path class="st0" d="M161.4,20.4h-9.9l-10,25.6h8.8l1.3-3.6h9l1.4,3.6h8.5L161.4,20.4z M153.5,37.4l3-7.6l3,7.6
					C157.7,37.5,155.5,37.4,153.5,37.4L153.5,37.4z"/>
				<polygon class="st0" points="114.6,25.6 100.7,25.6 100.7,29.6 112.3,29.7 112.3,35.7 100.7,35.7 100.7,40.2 114.6,40.2 
					114.6,45.9 91.6,45.9 91.6,20.4 114.6,20.4 				"/>
				<path class="st0" d="M67.6,20.4c0,0,3.2,10.1,4.8,15.1l5.1-15.1h10.4v25.6H80V29.6c-1.7,5.3-3.1,11-4.7,16.4h-5.9
					c-1.9-5.3-3.5-10.8-5.3-16.1v16.1h-7.7V20.4H67.6L67.6,20.4z"/>
			</g>
		</g>
	</g>
	<path class="st0" d="M134.7,35.7c-0.9,2.7-1.7,4.8-5.5,4.6c-3.4-0.2-5.7-3.1-5.7-7.5c0-4.1,2.4-7.5,5.7-7.5c3.3,0,4.2,1.6,5.3,4
		l8.4,0.1c-1.6-6-5.2-10.4-13.9-10.4c-7.8,0-13.6,6.2-13.6,13.8s5.2,13.8,13.6,13.8c9.3,0,12.8-4.8,14.1-11.1L134.7,35.7z"/>
	<path class="st0" d="M201.2,37.4c0.4,1.5,1.8,2.9,3.7,3c2,0.1,4.7,0.3,5.6-1.8c0.3-0.6,0.4-1.6,0.4-1.6V20.4h8.5v16.8
		c-0.4,3-1.9,5.8-4.5,7.7c-5,3.1-12.6,2.7-17.7,0.1c-2.4-1.3-4.1-3.9-4.4-6.7V20.3h8.3V37.4L201.2,37.4z"/>
</g>
</svg>
