<svg width="155" height="37" viewBox="0 0 155 37" fill="none" xmlns="http://www.w3.org/2000/svg">
<path d="M12.7692 0H14.7337V3.65375H12.7692V0Z" fill="#303030"/>
<path d="M11.787 4.80999V5.54999H9.82248V6.47499H17.6804V5.54999H15.716V4.11624H13.7515V4.80999H11.787Z" fill="#303030"/>
<path d="M19.6449 6.93749H13.7515V7.63124H7.85799V9.29624H19.6449V6.93749Z" fill="#303030"/>
<path d="M21.6094 9.75874H13.7515V10.4525H5.8935V12.1175H21.6094V9.75874Z" fill="#303030"/>
<path d="M21.6094 12.58H13.7515V13.2738H5.8935V14.9388H21.6094V12.58Z" fill="#303030"/>
<path d="M23.5739 15.4013H13.7515V16.095H3.929V17.76H23.5739V15.4013Z" fill="#303030"/>
<path d="M23.5739 18.2225H13.7515V18.9163H3.929V20.5813H23.5739V18.2225Z" fill="#303030"/>
<path d="M25.5384 21.0438H13.7515V21.7375H1.96449V23.4025H25.5384V21.0438Z" fill="#303030"/>
<path d="M27.5029 23.865H13.7515V24.5588H0V26.2238H27.5029V23.865Z" fill="#303030"/>
<path d="M27.5029 26.6863H13.7515V27.38H0V29.045H27.5029V26.6863Z" fill="#303030"/>
<path d="M27.5029 29.5075H13.7515V30.2013H0V31.8663H27.5029V29.5075Z" fill="#303030"/>
<path d="M23.5739 32.3288H13.7515V33.0225H3.929V34.6875H23.5739V32.3288Z" fill="#303030"/>
<path d="M19.6449 35.15H13.7515V35.8438H7.85799V37H19.6449V35.15Z" fill="#303030"/>
<path d="M57.6395 15.8714H61.1177V26.336H57.6395V29.8242H47.2047V36.8007H40.2483V12.3832H57.6395V15.8714ZM54.1612 26.336V15.8714H47.2047V26.336H54.1612Z" fill="#303030"/>
<path d="M81.9735 12.3832V15.8714H85.4518V22.8478H71.5389V26.336H85.4518V29.8242H68.0606V26.336H64.5824V15.8714H68.0606V12.3832H81.9735ZM78.4953 15.8714H71.5389V19.3595H78.4953V15.8714Z" fill="#303030"/>
<path d="M95.873 26.336H102.829V15.8714H95.873V26.336ZM92.3947 26.336H88.9164V15.8714H92.3947V12.3832H109.786V29.8242H92.3947V26.336Z" fill="#303030"/>
<path d="M130.641 12.3832V15.8714H127.163V19.3595H123.685V22.8478H120.207V29.8242H113.251V12.3832H120.207V15.8714H123.685V12.3832H130.641Z" fill="#303030"/>
<path d="M155 29.8242H134.13V26.336H148.043V22.8478H134.13V12.3832H155V15.8714H141.087V19.3595H155V29.8242Z" fill="#303030"/>
</svg>
