<svg id="Capa_1" data-name="Capa 1" xmlns="http://www.w3.org/2000/svg" viewBox="0 0 919.61 638.62"><defs><style>.cls-1{fill:none;}.cls-2{fill:#2c2a29;}</style></defs><rect class="cls-1" width="919.61" height="638.62"/><path class="cls-2" d="M709.08,181.14l-36.22,17.73h0q11,4.22,22.08,8.48c4.55,1.75,10,4,11.94,9.34,2,5.53-1,10.45-3.62,14.61l-12,18.88q-21.45,33.6-43,67.14,0-10.35,0-20.71h0q8.24-25.89,16-51.93,2.2-7.39,4.35-14.8c.87-3,.31-4.76-2.55-6.18l-22-10.82-21.95,10.82c-2.86,1.42-3.42,3.2-2.56,6.18q2.16,7.41,4.35,14.8,7.75,26.06,16,51.93h0q0,10.36,0,20.71-21.52-33.52-43-67.14L584.82,231.3c-2.65-4.16-5.66-9.08-3.62-14.61,2-5.38,7.4-7.59,11.95-9.34q11-4.26,22.08-8.48h0L579,181.14l0,0q5.65,9.47,11.29,18.93l-18.67,7.18Q552,176.51,532.41,145.77C569.58,159,606.71,172.24,644,185c37.32-12.74,74.45-26,111.62-39.21q-19.53,30.76-39.18,61.46l-18.68-7.18,11.3-18.93"/><path class="cls-2" d="M173.19,240.32l126.22,21.53c-2.59,4-7.7,5.08-11.49,5.08-4.85,0-23.09-.22-30.11-.22-27.94,0-62.21-1.11-84.53-2.62.27,5.58,1.1,22.44,1.48,28.15.56,8.54.83,10.17,3,11.63,1,.68,2.88,1.62,7.88,2,48.1,3.37,86.48,3.65,124.18,1.6,16.27-.89,23.09-2.12,28.93-7.31,4.23-3.76,6.39-10,6.74-20.27.29-8.55.68-23.48.8-28.18L173.19,219.46Zm45.92-42.16c.72-1.1,3.18-3.61,8.54-4.29,2.62-.34,24.7-.73,49.23-.48s52.68,1.69,69.27,2.54c-.35-7.16-1-20.19-1.33-25.08-.56-8.53-.83-10.16-3-11.62-1-.68-2.88-1.62-7.88-2-48.1-3.37-86.48-3.65-124.18-1.6-16.27.88-23.09,2.12-28.93,7.31-4.24,3.76-6.39,10-6.74,20.26-.27,8-.63,21.61-.77,27.17l173,29.92V221.75Z"/><path class="cls-2" d="M264.52,467.51l10.54-.79c.78,8.5,7.39,10.07,12.5,10.07,6.92,0,11.48-2.91,11.48-8.81,0-5.58-4.17-7.47-9.44-9l-6.68-2c-12.19-3.7-17.61-8.18-17.61-17.3,0-11.08,8.8-16.12,20.36-16.12,14.62,0,21.31,7.79,22.72,17.14l-10.53,1C297.07,436,293.61,432,286,432c-5.82,0-9.83,2.12-9.83,7.15,0,4.25,2.67,6.68,9.75,8.8l6.68,2c8.88,2.67,17.3,6.37,17.3,17.53s-8.34,17.69-22.25,17.69C273,485.12,265.7,477.89,264.52,467.51Z"/><path class="cls-2" d="M364.92,475.45v8.81H330.25V424.51h34.36v8.8H340.79v15.57h23.27v8.57H340.79v18Z"/><path class="cls-2" d="M418,474.59H394.65l-2.83,9.67H381l19.42-59.75h11.95l19.49,59.75h-11Zm-2.36-8.1-9.28-31.76L397,466.49Z"/><path class="cls-2" d="M483,433.31H466.2v50.95H455.66V433.31H438.92v-8.8H483Z"/><path class="cls-2" d="M526,467.51l10.54-.79c.78,8.5,7.39,10.07,12.5,10.07,6.92,0,11.48-2.91,11.48-8.81,0-5.58-4.17-7.47-9.44-9l-6.68-2c-12.19-3.7-17.61-8.18-17.61-17.3,0-11.08,8.8-16.12,20.36-16.12,14.62,0,21.31,7.79,22.72,17.14l-10.53,1C558.5,436,555,432,547.42,432c-5.82,0-9.83,2.12-9.83,7.15,0,4.25,2.67,6.68,9.75,8.8l6.68,2c8.88,2.67,17.3,6.37,17.3,17.53s-8.34,17.69-22.25,17.69C534.44,485.12,527.13,477.89,526,467.51Z"/><path class="cls-2" d="M575.64,478.83a6.33,6.33,0,1,1,6.37,6.29A6.34,6.34,0,0,1,575.64,478.83Z"/><path class="cls-2" d="M633.12,474.59H609.77l-2.83,9.67H596.09l19.42-59.75h11.94L647,484.26H636Zm-2.36-8.1-9.28-31.76-9.36,31.76Z"/><path class="cls-2" d="M654.43,478.83a6.33,6.33,0,1,1,6.36,6.29A6.34,6.34,0,0,1,654.43,478.83Z"/><rect class="cls-2" x="457.55" y="105.55" width="4.5" height="252"/></svg>