<?xml version="1.0" encoding="UTF-8"?>
<svg id="Layer_1" xmlns="http://www.w3.org/2000/svg" version="1.1" viewBox="0 0 1554 438.13">
  <!-- Generator: Adobe Illustrator 30.1.0, SVG Export Plug-In . SVG Version: 2.1.1 Build 136)  -->
  <defs>
    <style>
      .st0 {
        fill: #6d3485;
      }
    </style>
  </defs>
  <path class="st0" d="M107.39,47.8L11.77,135.91v254.42h262.13l95.53-87.92V47.8H107.39ZM244.4,173.4c-14.08-9.99-29.11-19.7-46.24-23.22-8.09-1.33-17.13-1.33-23.98,3.71-6.76,4.95-8.47,15.32-4.09,22.36,3.33,5.52,9.42,8.47,15.03,11.13,14.84,6.28,30.73,9.61,45.29,16.56,13.04,5.9,25.5,14.56,32.92,27.02,8.66,14.56,10.18,32.35,7.71,48.81-2.28,15.22-9.7,29.78-21.41,39.96-15.6,13.8-36.73,19.79-57.18,21.03-25.21,1.62-50.52-3.62-73.93-12.65-7.8-3.14-15.6-6.66-22.65-11.32,6.85-16.56,13.51-33.21,20.55-49.67,12.94,7.8,27.21,13.51,41.77,17.51,8.66,2.28,17.7,4.19,26.74,3.81,7.61.09,16.27-2.47,20.17-9.61,2.76-5.71,3.43-12.84.29-18.65-3.33-5.61-9.42-8.75-15.32-11.23-9.99-4-20.65-6.37-30.73-10.09-15.79-5.61-31.78-13.51-42.25-27.12-8.66-11.04-12.65-25.4-12.27-39.3-.48-14.56,3.52-29.4,11.89-41.39,8.66-12.65,21.98-21.6,36.44-26.55,15.6-5.52,32.45-6.57,48.81-5.23,27.4,3.04,53.76,15.13,73.64,34.16-10.28,13.42-21.03,26.55-31.21,39.96h0Z"/>
  <g>
    <path class="st0" d="M1202.56,99.67h-55.95v57.85c-23.31-4.38-49,.57-67.46,15.89-11.04,9.13-19.22,21.5-24.36,34.82-6.37,16.37-8.47,34.06-8.09,51.47.38,17.51,2.66,35.59,11.61,51,5.99,10.56,15.89,18.84,27.4,22.84,11.23,4,23.31,4.95,35.11,3.81,12.08-1.14,23.98-7.14,31.11-17.13,1.24-1.43,1.9-3.81,4.09-3.71,1.14,5.33,2,10.75,3.04,16.08h47.1c-1.05-12.65-2.66-25.21-3.62-37.87V99.67h.02ZM1146.61,280.64c-1.05,12.37-15.6,19.98-26.83,16.27-5.9-1.81-10.09-7.04-12.37-12.56-4.28-10.47-4.76-21.98-5.04-33.11.29-12.94,1.14-26.45,6.66-38.34,3.43-7.61,9.9-14.27,18.27-15.98,6.47-1.33,13.23-.67,19.41,1.62-.1,27.31,0,54.71-.1,82.11h0Z"/>
    <path class="st0" d="M546.9,196.53c12.56,2.28,23.41,9.42,33.59,16.84l.48-.1c8.56-10.66,17.03-21.41,25.4-32.16-15.03-13.61-34.54-21.98-54.71-24.36-18.65-2.19-38.63,0-55,9.9-12.56,7.52-21.69,20.55-23.98,35.11-2,13.13-1.05,27.59,6.47,39.01,6.57,9.99,17.22,16.37,28.07,20.74,8.56,3.62,17.6,5.99,26.36,9.13,4.76,1.9,9.99,4.47,11.99,9.51,1.81,5.33.57,12.56-5.04,15.13-6.18,2.76-13.13,2-19.6.95-14.37-2.95-28.07-8.85-40.44-16.46-4.85,13.32-9.7,26.55-14.46,39.87,18.65,12.08,41.01,17.6,62.99,18.74,17.13.57,35.2-1.81,49.95-11.23,11.51-7.23,19.6-19.51,22.07-32.83,2.76-14.46,1.43-30.64-7.71-42.63-9.42-12.37-24.36-18.65-38.63-23.41-7.9-2.85-16.37-4.76-23.12-9.99-5.23-3.9-6.85-12.08-2.66-17.22,4.38-5.33,11.8-5.42,17.98-4.57h0v.03ZM839.09,168.46c-12.37-11.61-30.54-13.8-46.72-11.89-14.37,1.62-27.69,9.51-36.16,21.31-3.43-5.61-7.9-10.47-13.42-13.99-12.56-7.9-28.26-9.04-42.63-6.95-13.7,2.09-26.07,10.37-33.97,21.69-1.81-5.71-2.47-11.8-3.81-17.6h-46.53c1.33,11.7,2.85,23.31,4,35.01,0,45.67.1,91.25,0,136.92,18.74.19,37.49.1,56.23,0-.1-35.78,0-71.65-.1-107.42.1-6.28.48-12.94,3.71-18.55,4.19-7.9,15.41-10.09,22.93-5.71,5.99,4.38,6.28,12.75,6.66,19.51,0,37.39.1,74.69,0,112.08,18.74.19,37.49.1,56.23,0-.1-36.44,0-72.88-.1-109.42.1-5.9.95-11.99,4.09-17.13,4.66-7.71,16.46-9.8,23.6-4.28,5.23,4.95,5.52,12.84,5.8,19.6v111.23h56.14c-.1-40.25,0-80.59,0-120.84-.48-15.6-4.19-32.45-15.98-43.58h.03ZM1028.63,286.35c0-39.01.1-78.12,0-117.13-16.27-6.09-33.3-10.37-50.62-12.37-14.94-1.81-30.26-1.05-44.72,2.95-16.37,4.38-31.59,14.08-41.58,27.88-11.51,15.51-16.75,34.82-18.27,53.85-1.24,17.22-.38,34.73,4.19,51.38,3.71,13.32,10.85,26.26,22.36,34.35,13.42,9.61,30.73,11.8,46.81,9.99,13.42-1.52,26.55-8.56,33.49-20.36h2c.76,5.23,1.52,10.47,2.38,15.7h47.76c-1.14-11.61-2.38-23.31-3.52-34.92-.38-3.62-.19-7.42-.29-11.32h.01ZM970.68,287.78c-5.61,10.75-21.79,13.42-30.83,5.42-4.47-4-6.85-9.71-8.37-15.41-2.85-11.23-2.85-22.84-2.57-34.25.57-10.94,2.09-22.17,6.76-32.25,3.14-6.76,8.66-12.94,16.08-14.75,7.04-1.62,14.46-.48,21.22,1.62v73.07c0,5.52.67,11.51-2.28,16.56h0ZM1351.46,281.88c-11.61,7.52-24.74,13.32-38.63,14.08-9.32.57-19.31-1.62-26.45-7.9-5.61-4.85-8.75-11.99-9.51-19.22,21.03-1.43,42.63-4.85,61.18-15.41,12.56-7.14,22.74-19.12,25.4-33.59,2.66-15.22.76-32.16-8.85-44.62-7.33-9.51-18.74-15.13-30.26-17.51-16.37-3.24-33.68-2.19-49.48,3.52-16.08,5.9-29.88,17.41-39.01,31.87-12.56,19.6-17.32,43.58-15.89,66.7.67,12.65,2.85,25.5,7.99,37.2,6.18,14.46,17.6,26.64,31.87,33.21,17.98,8.18,38.44,9.42,57.94,7.14,17.22-2.47,34.35-7.99,48.53-18.17-4.95-12.46-9.8-24.93-14.84-37.3h0ZM1283.15,205.95c4.19-5.9,11.04-10.09,18.36-10.47,3.71-.29,7.8.57,10.37,3.33,3.81,3.52,4.57,9.32,3.43,14.27-1.52,5.52-5.8,9.8-10.56,12.75-9.13,5.71-19.98,7.99-30.54,9.04.57-10.18,2.85-20.65,8.94-28.92h0ZM1485.52,244.58c18.17-27.88,36.54-55.66,54.52-83.63-18.93.1-37.87,0-56.8.1-1.33-.19-1.81,1.24-2.47,2.09-8.28,13.8-16.65,27.5-24.93,41.2-8.28-14.37-16.46-28.83-24.55-43.29-19.98-.1-40.06-.1-60.04,0,17.7,28.07,35.3,56.14,52.9,84.21-19.51,29.12-38.82,58.33-58.23,87.44,20.27.1,40.63,0,60.99,0,9.13-15.22,18.17-30.54,27.21-45.86,9.04,15.22,17.98,30.45,26.83,45.77,20.46.19,40.82,0,61.27.1v-.29c-18.84-29.31-37.77-58.52-56.71-87.82h0v-.02Z"/>
  </g>
</svg>