<svg width="9896" height="2244" viewBox="0 0 9896 2244" fill="none" xmlns="http://www.w3.org/2000/svg">
<mask id="mask0_43_21" style="mask-type:luminance" maskUnits="userSpaceOnUse" x="0" y="0" width="9896" height="2244">
<path d="M9896 0H0V2244H9896V0Z" fill="white"/>
</mask>
<g mask="url(#mask0_43_21)">
<path d="M855.64 1711.05C383.91 1711.05 0.139893 1327.23 0.139893 855.5C0.139893 383.77 383.91 0 855.64 0C1327.37 0 1711.19 383.77 1711.19 855.5C1711.19 1327.23 1327.43 1711.05 855.64 1711.05ZM855.64 136C458.91 136 136.09 458.77 136.09 855.55C136.09 1252.34 458.86 1575.1 855.64 1575.1C1252.43 1575.1 1575.19 1252.28 1575.19 855.55C1575.19 458.77 1252.43 136 855.64 136Z" fill="#1D2C3C"/>
<path d="M517.52 1191.18L394.32 1132.14L395.84 1110.62L549.76 1112.53C549.76 1112.53 625.42 1007.35 665.78 956.59C706.19 905.83 758.42 843.85 758.42 843.85L333.26 656.48L359.35 630.12L897.69 702.67C897.69 702.67 1053.19 540.91 1108.8 493.85C1131.19 475 1210.76 424.24 1243.88 457.08L1247.58 460.79C1280.75 493.74 1230.59 573.59 1211.91 596.13C1165.29 652.13 1004.77 808.93 1004.77 808.93L1081.68 1346.68L1055.54 1372.98L864.74 949.35C864.74 949.35 803.19 1002.13 752.76 1042.92C702.32 1083.72 597.8 1160.19 597.8 1160.19L600.96 1314.11L579.45 1315.79L519.43 1193.08L517.52 1191.18Z" fill="#1D2C3C"/>
<path d="M855.65 2244C770.3 2244 683.81 2235.61 598.62 2219.05C561.75 2211.92 537.67 2176.19 544.86 2139.37C552.05 2102.5 587.73 2078.48 624.55 2085.61C777.98 2115.46 933.53 2115.4 1086.85 2085.61C1123.78 2078.48 1159.4 2102.5 1166.59 2139.37C1173.78 2176.24 1149.71 2211.92 1112.84 2219.11C1027.6 2235.61 941.05 2244 855.65 2244Z" fill="#1D2C3C"/>
<path d="M855.64 1977.55C738.81 1977.55 623.12 1958.98 511.68 1922.33C476.01 1910.56 456.62 1872.16 468.33 1836.49C480.09 1800.81 518.55 1781.48 554.17 1793.13C749.59 1857.4 961.79 1857.4 1157.16 1793.13C1192.83 1781.42 1231.29 1800.81 1243 1836.49C1254.71 1872.16 1235.32 1910.56 1199.64 1922.33C1088.26 1958.93 972.52 1977.55 855.64 1977.55Z" fill="#1D2C3C"/>
<path d="M2372.84 667.05V518.3H3224.37V667.05H2881.83V1669.71H2715.38V667.05H2372.84Z" fill="#1D2C3C"/>
<path d="M3245.07 1669.71V857.57H3401.87V971.73C3450.13 891.34 3521.97 851.09 3617.4 851.09C3634.55 851.09 3653.29 852.72 3673.66 855.93V1015.95C3658.14 1013.83 3644.68 1012.2 3633.46 1011.11C3622.24 1010.02 3613.09 1009.47 3606.12 1009.47C3528.4 1009.47 3471.32 1038.94 3434.83 1097.93C3430.03 1107.08 3425.73 1116.83 3421.97 1127.28C3418.21 1137.74 3415 1148.47 3412.33 1159.47C3409.61 1170.47 3407.65 1180.93 3406.29 1190.84C3404.92 1200.76 3404 1209.74 3403.45 1217.75C3402.91 1225.27 3402.47 1234.53 3402.26 1245.47C3401.98 1256.48 3401.87 1268.95 3401.87 1282.89V1669.66H3245.07V1669.71Z" fill="#1D2C3C"/>
<path d="M3755.41 1261.27C3755.41 1206.04 3763.31 1153.1 3779.1 1102.45C3794.9 1051.8 3818.1 1006.37 3848.66 966.18C3879.21 925.98 3917.77 894.06 3964.45 870.48C4011.07 846.9 4063.36 835.08 4121.26 835.08C4240.81 835.08 4330.84 874.67 4391.46 953.92V857.63H4545.88V1669.77H4391.46V1575.71C4356.06 1618.62 4316.68 1648.85 4273.27 1666.55C4229.86 1684.26 4179.21 1693.08 4121.31 1693.08C4061.84 1693.08 4009.44 1680.72 3964.12 1656.1C3918.81 1631.42 3880.63 1598.85 3849.53 1558.39C3818.43 1517.92 3794.95 1471.84 3779.16 1420.1C3763.31 1368.35 3755.41 1315.41 3755.41 1261.27ZM3929.92 1159.69C3922.4 1184.86 3917.83 1210.95 3916.25 1237.96C3914.61 1264.98 3915.54 1291.61 3919.08 1317.86C3922.57 1344.12 3928.61 1369.28 3937.16 1393.35C3945.71 1417.43 3956.99 1438.83 3970.93 1457.57C3989.18 1484.31 4013.42 1505.5 4043.7 1521.02C4073.98 1536.54 4108.68 1544.28 4147.78 1544.28C4226.05 1544.28 4286.35 1517.54 4328.72 1464C4370.55 1411 4391.46 1344.66 4391.46 1264.87C4392.01 1226.31 4387.16 1190.09 4376.98 1156.04C4366.79 1122.06 4351.38 1092.37 4330.73 1066.94C4310.09 1041.5 4284.49 1021.3 4253.94 1006.32C4223.38 991.34 4187.98 983.82 4147.78 983.82C4117.23 983.82 4089.99 988.4 4066.19 997.49C4042.34 1006.59 4021.59 1019.01 4003.88 1034.8C3986.18 1050.6 3971.2 1069.23 3958.84 1090.63C3946.53 1112.04 3936.89 1135.08 3929.92 1159.69Z" fill="#1D2C3C"/>
<path d="M4685.52 857.63H4851.97L5053.01 1439L5248.38 857.63H5409.98L5118.91 1669.77H4982.25L4685.52 857.63Z" fill="#1D2C3C"/>
<path d="M5483.79 1256.43C5483.79 1215.14 5487.93 1176.53 5496.26 1140.63C5504.6 1104.74 5516.36 1071.9 5531.66 1042.1C5546.97 1012.31 5564.89 985.79 5585.53 962.47C5606.12 939.16 5629.05 919.17 5654.27 902.56C5688.04 878.98 5723.71 861.82 5761.24 851.09C5798.77 840.36 5837.6 835.02 5877.85 835.02C5914.83 835.02 5951 839.98 5986.4 849.89C6021.8 859.81 6056.34 875.76 6090.1 897.71C6123.87 919.72 6153.61 949.73 6179.38 987.8C6205.14 1025.87 6224.15 1070.92 6236.46 1122.88C6246.64 1165.8 6251.71 1218.03 6251.71 1279.68V1297.38H5651.87C5653.51 1373.53 5677.09 1436.76 5722.68 1487.14C5760.69 1530.06 5816.2 1551.47 5889.13 1551.47C5910.04 1551.47 5930.25 1548.8 5949.8 1543.41C5969.35 1538.07 5987.33 1530.28 6003.67 1520.1C6020.01 1509.91 6034.6 1497.71 6047.51 1483.5C6060.37 1469.28 6070.82 1453.38 6078.88 1435.67H6243.7C6218.48 1498.91 6188.2 1548.64 6152.85 1584.8C6117.45 1620.97 6079.38 1647.11 6038.69 1663.18C6009.71 1674.94 5983.08 1682.9 5958.68 1686.87C5934.28 1690.9 5908.95 1692.92 5882.7 1692.92C5760.48 1692.92 5663.47 1653.81 5591.63 1575.54C5519.68 1497.38 5483.79 1391.01 5483.79 1256.43ZM6080.41 1179.25C6076.65 1117.59 6054.92 1068.3 6015.27 1031.32C5975.56 994.88 5928.18 976.64 5872.95 976.64C5816.69 976.64 5768.92 995.15 5729.81 1032.14C5689.62 1069.66 5665.22 1118.74 5656.66 1179.3H6080.41V1179.25Z" fill="#1D2C3C"/>
<path d="M6781.48 1669.71V518.3H7242.21C7276.53 518.3 7309.86 522.17 7342.32 529.96C7374.73 537.74 7405.07 549.24 7433.23 564.54C7461.33 579.79 7487.37 598.42 7511.22 620.42C7535.08 642.43 7555.88 667.86 7573.53 696.79C7608.33 754.14 7625.82 818.74 7625.82 890.58C7625.82 962.42 7608.39 1027.01 7573.58 1084.37C7538.24 1141.72 7491.67 1186.22 7433.82 1217.86C7375.44 1248.96 7311.77 1264.49 7242.7 1264.49H6946.35V1669.77H6781.48V1669.71ZM6946.35 1115.68H7239.38C7306.81 1115.68 7361.44 1094.77 7403.16 1052.89C7444.88 1011 7465.8 957.02 7465.8 890.96C7465.8 825.43 7444.94 772 7403.16 730.66C7360.89 689.32 7306.26 668.63 7239.38 668.63H6946.35V1115.68Z" fill="#1D2C3C"/>
<path d="M7676.26 1256.43C7676.26 1215.14 7680.4 1176.53 7688.73 1140.63C7697.06 1104.74 7708.83 1071.9 7724.13 1042.1C7739.38 1012.36 7757.4 985.79 7778 962.47C7798.6 939.16 7821.5 919.17 7846.7 902.56C7880.5 878.98 7916.2 861.82 7953.7 851.09C7991.2 840.36 8030.1 835.02 8070.3 835.02C8107.3 835.02 8143.5 839.98 8178.9 849.89C8214.3 859.81 8248.8 875.76 8282.6 897.71C8316.3 919.72 8346.1 949.73 8371.8 987.8C8397.6 1025.87 8416.6 1070.92 8428.9 1122.88C8439.1 1165.8 8444.2 1218.03 8444.2 1279.68V1297.38H7844.3C7846 1373.53 7869.6 1436.76 7915.1 1487.14C7953.2 1530.06 8008.7 1551.47 8081.6 1551.47C8102.5 1551.47 8122.7 1548.8 8142.3 1543.41C8161.8 1538.07 8179.8 1530.28 8196.1 1520.1C8212.5 1509.91 8227.1 1497.71 8240 1483.5C8252.8 1469.28 8263.3 1453.38 8271.3 1435.67H8436.2C8410.9 1498.91 8380.7 1548.64 8345.3 1584.8C8309.9 1620.97 8271.8 1647.11 8231.2 1663.18C8202.2 1674.94 8175.5 1682.9 8151.1 1686.87C8126.7 1690.9 8101.4 1692.92 8075.2 1692.92C7952.9 1692.92 7855.9 1653.81 7784.1 1575.54C7712.15 1497.38 7676.26 1391.01 7676.26 1256.43ZM8272.9 1179.25C8269.1 1117.59 8247.4 1068.3 8207.7 1031.32C8168 994.88 8120.6 976.64 8065.4 976.64C8009.2 976.64 7961.4 995.15 7922.3 1032.14C7882.1 1069.66 7857.7 1118.74 7849.1 1179.3H8272.9V1179.25Z" fill="#1D2C3C"/>
<path d="M8631.3 1669.71V857.57H8788.1V971.73C8836.3 891.34 8908.2 851.09 9003.6 851.09C9020.7 851.09 9039.5 852.72 9059.9 855.93V1015.95C9044.3 1013.83 9030.9 1012.2 9019.7 1011.11C9008.4 1010.02 8999.3 1009.47 8992.3 1009.47C8914.6 1009.47 8857.5 1038.94 8821 1097.93C8816.2 1107.08 8811.9 1116.83 8808.2 1127.28C8804.4 1137.74 8801.2 1148.47 8798.5 1159.47C8795.8 1170.47 8793.9 1180.93 8792.5 1190.84C8791.1 1200.76 8790.2 1209.74 8789.7 1217.75C8789.1 1225.27 8788.7 1234.53 8788.5 1245.47C8788.2 1256.48 8788.1 1268.95 8788.1 1282.89V1669.66H8631.3V1669.71Z" fill="#1D2C3C"/>
<path d="M9207.6 1669.71V518.3H9364.4V1180.88L9685.2 857.62H9889.4L9510.7 1231.53L9895.8 1669.77H9678.8L9364.4 1300.71V1669.77H9207.6V1669.71Z" fill="#1D2C3C"/>
<path d="M6438.78 1508.66C6438.78 1561.82 6453.98 1602.83 6484.37 1631.75C6511.77 1657.78 6548.86 1672 6595.54 1674.56V1448.53V1020.91V518.3H6438.73V1508.66H6438.78Z" fill="#1D2C3C"/>
</g>
</svg>
