<svg width="9896" height="2244" viewBox="0 0 9896 2244" fill="none" xmlns="http://www.w3.org/2000/svg">
<path d="M855.5 1711.1C383.8 1711.1 0 1327.3 0 855.5C0 383.7 383.8 0 855.5 0C1327.2 0 1711.1 383.8 1711.1 855.5C1711.1 1327.2 1327.3 1711.1 855.5 1711.1ZM855.5 136C458.8 136 136 458.8 136 855.6C136 1252.4 458.8 1575.2 855.5 1575.2C1252.3 1575.2 1575.1 1252.4 1575.1 855.6C1575.1 458.8 1252.3 136 855.5 136Z" fill="white"/>
<path d="M517.4 1191.2L394.2 1132.2L395.7 1110.7L549.6 1112.6C549.6 1112.6 625.3 1007.4 665.6 956.7C706 905.9 758.2 844 758.2 844L333 656.6L359.1 630.2L897.4 702.7C897.4 702.7 1052.9 540.9 1108.5 493.9C1130.9 475 1210.5 424.3 1243.6 457.1L1247.3 460.8C1280.5 493.7 1230.3 573.6 1211.6 596.1C1165 652.1 1004.5 808.9 1004.5 808.9L1081.4 1346.7L1055.3 1373L864.5 949.4C864.5 949.4 802.9 1002.2 752.5 1043C702.1 1083.8 597.5 1160.3 597.5 1160.3L600.7 1314.2L579.2 1315.9L519.2 1193.2L517.4 1191.2Z" fill="white"/>
<path d="M855.5 2244C770.2 2244 683.7 2235.6 598.5 2219C561.6 2211.9 537.5 2176.1 544.7 2139.3C551.9 2102.4 587.6 2078.4 624.4 2085.5C777.8 2115.4 933.4 2115.3 1086.7 2085.5C1123.6 2078.4 1159.2 2102.4 1166.4 2139.3C1173.6 2176.2 1149.5 2211.8 1112.6 2219C1027.5 2235.6 941 2244 855.5 2244Z" fill="white"/>
<path d="M855.5 1977.5C738.7 1977.5 623 1958.9 511.5 1922.3C475.8 1910.5 456.4 1872.1 468.2 1836.5C480 1800.8 518.4 1781.5 554 1793.1C749.4 1857.4 961.6 1857.4 1157 1793.1C1192.7 1781.4 1231.1 1800.8 1242.8 1836.5C1254.5 1872.2 1235.1 1910.6 1199.4 1922.3C1088.2 1958.9 972.4 1977.5 855.5 1977.5Z" fill="white"/>
<path d="M2372.7 667.1V518.3H3224.2V667.1H2881.7V1669.8H2715.2V667.1H2372.7Z" fill="white"/>
<path d="M3245 1669.7V857.6H3401.8V971.8C3450.1 891.4 3521.9 851.2 3617.3 851.2C3634.4 851.2 3653.2 852.8 3673.6 856V1016C3658.1 1013.9 3644.6 1012.2 3633.4 1011.2C3622.2 1010.1 3613 1009.6 3606.1 1009.6C3528.4 1009.6 3471.3 1039.1 3434.8 1098.1C3430 1107.3 3425.7 1117 3421.9 1127.5C3418.1 1138 3414.9 1148.7 3412.3 1159.7C3409.6 1170.7 3407.6 1181.2 3406.3 1191.1C3404.9 1201 3404 1210 3403.5 1218C3403 1225.5 3402.5 1234.8 3402.3 1245.7C3402 1256.7 3401.9 1269.2 3401.9 1283.1V1669.9L3245 1669.7Z" fill="white"/>
<path d="M3755.3 1261.3C3755.3 1206.1 3763.2 1153.1 3779 1102.5C3794.8 1051.9 3818 1006.4 3848.6 966.2C3879.1 926 3917.7 894.1 3964.4 870.5C4011 846.9 4063.3 835.1 4121.2 835.1C4240.8 835.1 4330.8 874.7 4391.4 953.9V857.6H4545.8V1669.7H4391.4V1575.6C4356 1618.5 4316.6 1648.7 4273.2 1666.4C4229.8 1684.1 4179.1 1692.9 4121.2 1692.9C4061.7 1692.9 4009.3 1680.5 3964 1655.9C3918.7 1631.2 3880.5 1598.7 3849.4 1558.2C3818.3 1517.7 3794.8 1471.7 3779 1419.9C3763.2 1368.4 3755.3 1315.4 3755.3 1261.3ZM3929.8 1159.7C3922.3 1184.9 3917.7 1211 3916.1 1238C3914.5 1265 3915.4 1291.7 3918.9 1317.9C3922.4 1344.2 3928.4 1369.3 3937 1393.4C3945.5 1417.5 3956.8 1438.9 3970.8 1457.6C3989 1484.3 4013.3 1505.5 4043.6 1521C4073.9 1536.5 4108.6 1544.3 4147.7 1544.3C4226 1544.3 4286.3 1517.6 4328.6 1464C4370.4 1411 4391.3 1344.7 4391.3 1264.9C4391.8 1226.3 4387 1190.1 4376.8 1156.1C4366.6 1122.1 4351.2 1092.4 4330.6 1067C4310 1041.6 4284.4 1021.4 4253.8 1006.4C4223.2 991.4 4187.8 983.9 4147.6 983.9C4117.1 983.9 4089.8 988.5 4066 997.6C4042.1 1006.7 4021.4 1019.1 4003.7 1034.9C3986 1050.7 3971 1069.3 3958.7 1090.7C3946.4 1112 3936.8 1135.1 3929.8 1159.7Z" fill="white"/>
<path d="M4685.4 857.6H4851.9L5052.9 1439L5248.3 857.6H5409.9L5118.8 1669.7H4982.1L4685.4 857.6Z" fill="white"/>
<path d="M5483.7 1256.4C5483.7 1215.1 5487.8 1176.5 5496.2 1140.6C5504.5 1104.7 5516.3 1071.9 5531.6 1042.1C5546.9 1012.3 5564.8 985.8 5585.5 962.5C5606.1 939.2 5629 919.2 5654.2 902.6C5688 879 5723.6 861.9 5761.2 851.1C5798.7 840.4 5837.6 835 5877.8 835C5914.8 835 5950.9 840 5986.4 849.9C6021.8 859.8 6056.3 875.8 6090.1 897.7C6123.9 919.7 6153.6 949.7 6179.4 987.8C6205.2 1025.9 6224.2 1070.9 6236.5 1122.9C6246.7 1165.8 6251.7 1218.1 6251.7 1279.7V1297.4H5651.9C5653.5 1373.6 5677.1 1436.8 5722.7 1487.2C5760.7 1530.1 5816.2 1551.5 5889.1 1551.5C5910 1551.5 5930.2 1548.8 5949.8 1543.4C5969.3 1538.1 5987.3 1530.3 6003.7 1520.1C6020 1509.9 6034.6 1497.7 6047.5 1483.5C6060.4 1469.3 6070.8 1453.4 6078.9 1435.7H6243.7C6218.5 1498.9 6188.2 1548.7 6152.8 1584.8C6117.4 1621 6079.3 1647.1 6038.6 1663.2C6009.6 1675 5983 1682.9 5958.6 1686.9C5934.2 1690.9 5908.9 1692.9 5882.6 1692.9C5760.4 1692.9 5663.4 1653.8 5591.5 1575.5C5519.6 1497.4 5483.7 1391 5483.7 1256.4ZM6080.3 1179.2C6076.5 1117.5 6054.8 1068.3 6015.2 1031.3C5975.5 994.9 5928.1 976.6 5872.9 976.6C5816.6 976.6 5768.9 995.1 5729.8 1032.1C5689.6 1069.6 5665.2 1118.7 5656.7 1179.3L6080.3 1179.2Z" fill="white"/>
<path d="M6781.4 1669.7V518.3H7242.1C7276.4 518.3 7309.8 522.2 7342.2 530C7374.6 537.8 7405 549.3 7433.1 564.6C7461.2 579.8 7487.2 598.5 7511.1 620.5C7535 642.5 7555.8 668 7573.4 696.9C7608.2 754.2 7625.7 818.8 7625.7 890.7C7625.7 962.5 7608.3 1027.1 7573.5 1084.5C7538.2 1141.8 7491.6 1186.3 7433.7 1218C7375.3 1249.1 7311.6 1264.6 7242.6 1264.6H6946.2V1669.9L6781.4 1669.7ZM6946.2 1115.7H7239.2C7306.6 1115.7 7361.3 1094.8 7403 1052.9C7444.7 1011 7465.6 957 7465.6 891C7465.6 825.5 7444.7 772 7403 730.7C7360.7 689.4 7306.1 668.7 7239.2 668.7H6946.2V1115.7Z" fill="white"/>
<path d="M7676.2 1256.4C7676.2 1215.1 7680.3 1176.5 7688.7 1140.6C7697 1104.7 7708.8 1071.9 7724.1 1042.1C7739.3 1012.4 7757.4 985.8 7778 962.5C7798.6 939.2 7821.5 919.2 7846.7 902.6C7880.5 879 7916.2 861.9 7953.7 851.1C7991.2 840.3 8030.1 835 8070.3 835C8107.3 835 8143.5 840 8178.9 849.9C8214.3 859.8 8248.8 875.8 8282.6 897.7C8316.3 919.7 8346.1 949.7 8371.8 987.8C8397.6 1025.9 8416.6 1070.9 8428.9 1122.9C8439.1 1165.8 8444.2 1218.1 8444.2 1279.7V1297.4H7844.3C7846 1373.6 7869.6 1436.8 7915.1 1487.2C7953.2 1530.1 8008.7 1551.5 8081.6 1551.5C8102.5 1551.5 8122.7 1548.8 8142.3 1543.4C8161.8 1538.1 8179.8 1530.3 8196.1 1520.1C8212.5 1509.9 8227.1 1497.7 8240 1483.5C8252.8 1469.3 8263.3 1453.4 8271.3 1435.7H8436.2C8410.9 1498.9 8380.7 1548.7 8345.3 1584.8C8309.9 1621 8271.8 1647.1 8231.2 1663.2C8202.2 1675 8175.5 1682.9 8151.1 1686.9C8126.7 1690.9 8101.4 1692.9 8075.2 1692.9C7952.9 1692.9 7855.9 1653.8 7784.1 1575.5C7712.1 1497.4 7676.2 1391 7676.2 1256.4ZM8272.8 1179.2C8269 1117.5 8247.3 1068.3 8207.6 1031.3C8167.9 994.9 8120.5 976.6 8065.3 976.6C8009.1 976.6 7961.3 995.1 7922.2 1032.1C7882 1069.6 7857.6 1118.7 7849 1179.3L8272.8 1179.2Z" fill="white"/>
<path d="M8631.2 1669.7V857.6H8788V971.8C8836.2 891.4 8908.1 851.2 9003.5 851.2C9020.6 851.2 9039.4 852.8 9059.8 856V1016C9044.2 1013.9 9030.8 1012.2 9019.6 1011.2C9008.3 1010.1 8999.2 1009.6 8992.2 1009.6C8914.5 1009.6 8857.4 1039.1 8820.9 1098.1C8816.1 1107.3 8811.8 1117 8808.1 1127.5C8804.3 1138 8801.1 1148.7 8798.4 1159.7C8795.7 1170.7 8793.8 1181.2 8792.4 1191.1C8791 1201 8790.1 1210 8789.6 1218C8789 1225.5 8788.6 1234.8 8788.4 1245.7C8788.1 1256.7 8788 1269.2 8788 1283.1V1669.9L8631.2 1669.7Z" fill="white"/>
<path d="M9207.5 1669.7V518.3H9364.3V1180.9L9685.1 857.6H9889.3L9510.6 1231.5L9895.7 1669.7H9678.6L9364.3 1300.6V1669.7H9207.5Z" fill="white"/>
<path d="M6438.7 1508.7C6438.7 1561.9 6453.9 1602.9 6484.3 1631.8C6511.7 1657.8 6548.8 1672 6595.5 1674.6V1448.6V1021V518.4H6438.7V1508.7Z" fill="white"/>
</svg>
