<svg width="181" height="58" viewBox="0 0 181 58" fill="none" xmlns="http://www.w3.org/2000/svg">
<path d="M180.98 6.9975C180.98 9.7175 179.16 11.6375 176.13 11.6375C173.09 11.6375 171.34 9.7275 171.34 7.0075C171.34 4.3575 173.08 2.4375 176.12 2.4375C179.16 2.4375 180.98 4.3475 180.98 6.9975Z" fill="#FFCB00"/>
<path d="M11.95 34.7997L7.23 19.2097C6.88 18.1497 6.01 16.6897 3.92 16.6897C1.9 16.6897 0 17.8897 0 20.1397C0 20.7897 0.14 21.3297 0.48 22.1897L6.57 39.0497C7.78 42.3497 8.85 43.4797 11.96 43.4797H12.5C15.62 43.4797 16.35 42.3497 17.55 39.0997L23.68 22.1697C24.03 21.3097 24.15 20.7697 24.15 20.1197C24.15 17.8697 22.26 16.6797 20.25 16.6797C18.15 16.6797 17.27 18.1497 16.94 19.2097L12.24 34.8097H11.97L11.95 34.7997Z" fill="#514F4F"/>
<path d="M87.3496 3.98C87.3496 1.6 88.8996 0 91.0696 0C93.2796 0 94.8396 1.59 94.8396 3.97L94.8696 39.44C94.8696 41.81 93.3096 43.4 91.0996 43.4C88.9296 43.4 87.3796 41.82 87.3796 39.45L87.3496 3.98Z" fill="#514F4F"/>
<path d="M100.859 20.5016C100.859 18.1916 102.399 16.6116 104.569 16.6016C106.779 16.6016 108.349 18.1816 108.349 20.4916L108.369 39.4216C108.369 41.7916 106.809 43.3916 104.589 43.3916C102.419 43.3916 100.879 41.7916 100.879 39.4216L100.859 20.4916V20.5016Z" fill="#514F4F"/>
<path d="M138.649 39.4725C138.649 41.7825 137.029 43.3625 134.869 43.3625C132.709 43.3625 131.079 41.7825 131.079 39.4725V27.3625C131.069 24.4525 129.449 22.5425 126.279 22.5425C123.249 22.5425 121.419 24.0025 121.419 27.3725V39.4825C121.429 41.7925 119.889 43.3725 117.669 43.3725C115.509 43.3725 113.949 41.7925 113.949 39.4825V28.5025C113.929 20.3725 118.319 16.3125 126.269 16.3125C134.169 16.3125 138.629 20.3525 138.639 28.4125V39.4625L138.649 39.4725Z" fill="#514F4F"/>
<path d="M28.1309 20.3228C28.1309 17.9928 29.7509 16.4128 31.9109 16.4028C34.0709 16.4028 35.6109 17.9828 35.6209 20.3128V32.4828C35.6309 35.3928 37.2609 37.3128 40.4309 37.3128C43.4609 37.3128 45.3609 35.8628 45.3509 32.4728V20.3028C45.3409 17.9728 46.8809 16.3928 49.1009 16.3828C51.2709 16.3828 52.8209 17.9628 52.8209 20.2928V31.3328C52.8409 39.4728 48.4409 43.5228 40.4909 43.5228C32.6009 43.5228 28.1509 39.4928 28.1409 31.4128V20.3128L28.1309 20.3228Z" fill="#514F4F"/>
<path d="M165.689 18.0069C167.779 18.9169 169.119 20.1069 169.129 22.4269L169.149 44.3969C169.149 52.2769 164.899 57.4269 155.459 57.4369C150.869 57.4369 144.869 55.0669 144.869 51.9669C144.869 50.3069 146.149 48.8569 147.629 48.8569C149.989 48.8569 151.739 50.9069 156.059 50.9069C160.379 50.9069 162.069 48.7869 162.059 45.3469V41.1669C160.849 42.4269 158.489 43.4269 155.169 43.4369C148.239 43.4369 143.369 38.4069 143.359 30.0069C143.359 21.7369 148.809 16.3069 157.039 16.2969C161.149 16.2969 164.049 17.2869 165.689 18.0169M162.039 24.5569C162.039 23.6969 160.349 22.4369 157.259 22.4369C152.599 22.4369 150.789 25.3669 150.789 29.9869C150.789 35.2169 152.609 37.1269 156.379 37.1269C160.159 37.1269 162.059 34.6669 162.049 29.7169V24.5569H162.039Z" fill="#514F4F"/>
<path d="M64.6498 32.4488C65.1298 35.4288 66.6598 37.4788 70.4498 37.4688C74.1698 37.4688 76.1698 36.0788 78.0698 36.0788C79.5498 36.0788 80.8198 37.5988 80.8198 39.0388C80.8198 41.8888 75.8298 43.4188 70.3798 43.4288C62.3498 43.4288 57.3498 38.2688 57.3398 29.9888C57.3398 21.6688 62.2598 16.2287 70.1598 16.2188C78.5798 16.2188 82.3098 21.7088 82.3198 29.2488C82.3198 31.2988 81.4398 32.4288 79.2098 32.4288H64.6498V32.4488ZM75.2998 27.5388C75.0798 24.0988 73.4698 21.9788 69.9598 21.9888C66.5298 21.9888 64.9798 23.5287 64.6498 27.5487H75.2998V27.5388Z" fill="#514F4F"/>
</svg>
