<svg width="81" height="80" viewBox="0 0 81 80" fill="none" xmlns="http://www.w3.org/2000/svg">
<circle cx="40.5" cy="40" r="39.5" stroke="#C379E0"/>
<g clip-path="url(#clip0_376_1742)">
<path d="M23.1734 58.4727C23.0226 58.4729 22.8733 58.4433 22.7341 58.3855C22.5948 58.3276 22.4684 58.2428 22.3622 58.1358C21.7199 57.4898 21.3594 56.6159 21.3594 55.705C21.3594 54.794 21.7199 53.9201 22.3622 53.2741C23.0082 52.6313 23.8825 52.2706 24.7938 52.2708C25.7052 52.271 26.5793 52.6322 27.2251 53.2752C27.6719 53.7221 28.3995 53.7209 28.8464 53.2741C29.0605 53.0587 29.1806 52.7674 29.1804 52.4637C29.1802 52.1601 29.0597 51.8689 28.8453 51.6539C28.5248 51.3354 28.2707 50.9565 28.0978 50.5391C27.9249 50.1217 27.8366 49.6742 27.8381 49.2224C27.8381 48.3034 28.1956 47.4406 28.8464 46.7921C30.1412 45.4961 32.4077 45.495 33.7059 46.7932C33.924 47.0018 34.2142 47.1182 34.516 47.1182C34.8178 47.1182 35.108 47.0018 35.3261 46.7932C35.5409 46.5784 35.6616 46.287 35.6616 45.9831C35.6616 45.6793 35.5409 45.3879 35.3261 45.173C34.6833 44.5273 34.3224 43.6533 34.3224 42.7421C34.3224 41.831 34.6833 40.957 35.3261 40.3113C36.6232 39.013 38.8885 39.0119 40.1879 40.3101C40.2944 40.4167 40.4209 40.5011 40.5601 40.5588C40.6993 40.6164 40.8485 40.646 40.9991 40.6458C41.1497 40.6462 41.2988 40.6168 41.4378 40.5592C41.5769 40.5015 41.7031 40.4169 41.8092 40.3101C41.9161 40.2041 42.0008 40.0778 42.0585 39.9388C42.1161 39.7997 42.1455 39.6505 42.145 39.5C42.1454 39.3495 42.1159 39.2004 42.0583 39.0613C42.0006 38.9223 41.916 38.796 41.8092 38.6899C41.4885 38.3714 41.2342 37.9923 41.0611 37.5747C40.888 37.1571 40.7996 36.7093 40.8009 36.2573C40.8009 35.3395 41.1595 34.4767 41.8092 33.8293C42.1277 33.5091 42.5064 33.2553 42.9236 33.0824C43.3407 32.9095 43.788 32.8211 44.2395 32.8221H44.2418C44.6934 32.8212 45.1407 32.91 45.5576 33.0832C45.9746 33.2565 46.3531 33.5109 46.671 33.8316C46.889 34.0331 47.1765 34.1424 47.4734 34.1365C47.7702 34.1306 48.0532 34.01 48.263 33.7999C48.4727 33.5898 48.593 33.3067 48.5985 33.0098C48.6039 32.713 48.4942 32.4256 48.2924 32.2079C47.9722 31.8895 47.7185 31.5108 47.5458 31.0936C47.3731 30.6764 47.2849 30.2291 47.2863 29.7776C47.2863 28.8598 47.6438 27.9958 48.2935 27.3473C49.5906 26.0491 51.8548 26.0479 53.1541 27.3461C53.3147 27.5056 53.5187 27.614 53.7407 27.6578C53.9626 27.7016 54.1926 27.6789 54.4017 27.5925C54.6108 27.5061 54.7897 27.3598 54.9159 27.172C55.0421 26.9843 55.1101 26.7634 55.1112 26.5372C55.1117 26.387 55.0823 26.2382 55.0246 26.0995C54.967 25.9608 54.8823 25.835 54.7755 25.7294C54.1321 25.0836 53.7707 24.2092 53.7705 23.2976C53.7703 22.386 54.1312 21.5114 54.7743 20.8653C55.4202 20.2223 56.2946 19.8614 57.206 19.8616C58.1174 19.8618 58.9916 20.2231 59.6373 20.8665C59.8381 21.0842 59.947 21.3713 59.941 21.6675C59.9349 21.9637 59.8145 22.2461 59.605 22.4555C59.3954 22.6649 59.1129 22.7851 58.8167 22.7909C58.5205 22.7968 58.2335 22.6877 58.0159 22.4867C57.9094 22.3801 57.7829 22.2956 57.6437 22.2379C57.5045 22.1802 57.3553 22.1505 57.2047 22.1505C57.054 22.1505 56.9048 22.1802 56.7656 22.2379C56.6264 22.2956 56.4999 22.3801 56.3934 22.4867C56.1796 22.7027 56.0598 22.9945 56.0603 23.2984C56.0607 23.6023 56.1813 23.8938 56.3957 24.1092C57.0431 24.7554 57.4017 25.6171 57.4029 26.536C57.4029 27.4539 57.0454 28.3178 56.3957 28.9675C55.0975 30.2657 52.8333 30.2657 51.5351 28.9675C51.1031 28.5367 50.348 28.5321 49.9149 28.9675C49.8081 29.0736 49.7234 29.1999 49.6658 29.3389C49.6082 29.478 49.5787 29.6271 49.5791 29.7776C49.5785 29.9279 49.6078 30.0768 49.6652 30.2157C49.7227 30.3545 49.8071 30.4806 49.9137 30.5866C50.5577 31.2319 50.9194 32.1063 50.9194 33.018C50.9194 33.9297 50.5577 34.8042 49.9137 35.4495C49.2686 36.0932 48.3946 36.4549 47.4833 36.4553C46.572 36.4557 45.6977 36.0949 45.0519 35.4518C44.946 35.3446 44.8199 35.2595 44.6808 35.2015C44.5417 35.1435 44.3925 35.1136 44.2418 35.1138C44.091 35.1134 43.9405 35.143 43.8013 35.2008C43.662 35.2587 43.5356 35.3436 43.4294 35.4506C43.3226 35.5562 43.238 35.6821 43.1803 35.8208C43.1227 35.9595 43.0932 36.1082 43.0937 36.2584C43.0931 36.409 43.1225 36.5582 43.1801 36.6972C43.2378 36.8363 43.3225 36.9625 43.4294 37.0685C44.0791 37.7182 44.4366 38.5822 44.4366 39.5C44.4366 40.419 44.0791 41.2829 43.4294 41.9315C43.1112 42.2514 42.7326 42.5051 42.3156 42.6778C41.8986 42.8504 41.4516 42.9387 41.0003 42.9375C40.5487 42.9387 40.1002 42.8502 39.6831 42.6774C39.2659 42.5045 38.8872 42.2506 38.5688 41.9303C38.3507 41.7217 38.0605 41.6053 37.7587 41.6053C37.4569 41.6053 37.1667 41.7217 36.9486 41.9303C36.5017 42.3772 36.5017 43.1048 36.9486 43.5517C37.5972 44.2002 37.9547 45.0642 37.9547 45.982C37.9547 46.8998 37.5972 47.7638 36.9475 48.4123C35.6504 49.7105 33.3851 49.7105 32.0868 48.4123C31.8687 48.2037 31.5785 48.0873 31.2767 48.0873C30.9749 48.0873 30.6848 48.2037 30.4666 48.4123C30.3595 48.518 30.2746 48.644 30.2167 48.7829C30.1589 48.9218 30.1293 49.0708 30.1298 49.2213C30.1292 49.3718 30.1585 49.521 30.2162 49.6601C30.2738 49.7991 30.3586 49.9254 30.4655 50.0314C31.1088 50.677 31.4701 51.5512 31.4703 52.4626C31.4706 53.374 31.1096 54.2484 30.4666 54.8943C29.8208 55.5367 28.9469 55.8974 28.036 55.8976C27.125 55.8978 26.251 55.5375 25.6049 54.8954C25.4984 54.789 25.372 54.7045 25.2329 54.6469C25.0938 54.5893 24.9447 54.5596 24.7942 54.5596C24.6436 54.5596 24.4945 54.5893 24.3554 54.6469C24.2163 54.7045 24.09 54.789 23.9835 54.8954C23.877 55.0019 23.7926 55.1283 23.735 55.2674C23.6774 55.4065 23.6477 55.5555 23.6477 55.7061C23.6477 55.8567 23.6774 56.0057 23.735 56.1448C23.7926 56.2839 23.877 56.4103 23.9835 56.5168C24.1437 56.677 24.2528 56.8812 24.297 57.1034C24.3412 57.3256 24.3185 57.556 24.2318 57.7653C24.1451 57.9747 23.9982 58.1536 23.8099 58.2795C23.6215 58.4054 23.4 58.4727 23.1734 58.4727Z" fill="#C379E0"/>
<path d="M24.7944 63.7264C23.7406 63.7293 22.6967 63.5232 21.7232 63.12C20.7496 62.7168 19.8656 62.1245 19.1225 61.3774C17.6207 59.872 16.7773 57.8325 16.7773 55.7061C16.7773 53.5797 17.6207 51.5402 19.1225 50.0348L51.5313 17.6249C53.0461 16.1101 55.0604 15.2759 57.2031 15.2759C59.3458 15.2759 61.3602 16.1101 62.875 17.6249C64.3768 19.1303 65.2202 21.1698 65.2202 23.2962C65.2202 25.4226 64.3768 27.4621 62.875 28.9675L30.4663 61.3774C29.7231 62.1245 28.8392 62.7168 27.8656 63.12C26.892 63.5232 25.8482 63.7293 24.7944 63.7264ZM57.2031 17.5676C56.4504 17.5656 55.7048 17.7128 55.0094 18.0007C54.3139 18.2887 53.6824 18.7116 53.1515 19.2451L20.7427 51.6539C19.67 52.7292 19.0676 54.1861 19.0676 55.7049C19.0676 57.2238 19.67 58.6807 20.7427 59.756C21.8244 60.8377 23.2636 61.4335 24.7944 61.4335C26.3252 61.4335 27.7632 60.8377 28.8461 59.756L61.2548 27.3473C62.3275 26.272 62.93 24.8151 62.93 23.2962C62.93 21.7773 62.3275 20.3204 61.2548 19.2451C60.7238 18.7116 60.0924 18.2887 59.3969 18.0007C58.7015 17.7128 57.9558 17.5656 57.2031 17.5676Z" fill="#C379E0"/>
<path d="M33.8216 66.8304H33.7598C30.8631 66.8109 28.0982 65.5356 25.7653 63.142L27.4073 61.5424C29.3025 63.488 31.5036 64.5239 33.7747 64.5387C35.844 64.5674 37.8722 63.6954 39.3789 62.1875L63.6855 37.8809C66.2522 35.3143 67.6191 30.6221 63.0221 25.8497L64.6721 24.2604C70.0517 29.8452 68.867 35.9387 65.3046 39.5011L40.9991 63.8077C39.0764 65.7304 36.4639 66.8304 33.8216 66.8304ZM18.1524 55.0845C17.9997 55.0846 17.8486 55.0541 17.7079 54.9949C17.5671 54.9357 17.4397 54.8488 17.3331 54.7396C11.9385 49.2247 13.2207 42.973 16.6926 39.5011L41.0003 15.1934C45.249 10.9458 50.9519 11.1613 56.2536 15.7721C56.3672 15.8708 56.4603 15.9909 56.5275 16.1256C56.5947 16.2603 56.6347 16.4068 56.6452 16.557C56.6557 16.7071 56.6366 16.8578 56.5889 17.0006C56.5411 17.1433 56.4658 17.2752 56.3671 17.3889C56.2683 17.5025 56.1482 17.5955 56.0136 17.6627C55.8789 17.7299 55.7323 17.7699 55.5822 17.7804C55.432 17.791 55.2813 17.7718 55.1386 17.7241C54.9958 17.6764 54.8639 17.601 54.7503 17.5023C50.3938 13.713 45.9721 13.4632 42.6205 16.8136L18.3128 41.1214C15.5215 43.9137 14.6427 48.7102 18.9705 53.1366C19.1284 53.2977 19.2353 53.5019 19.2777 53.7235C19.32 53.9451 19.296 54.1743 19.2086 54.3823C19.1213 54.5904 18.9744 54.768 18.7865 54.8929C18.5986 55.0178 18.378 55.0844 18.1524 55.0845Z" fill="#C379E0"/>
</g>
<defs>
<clipPath id="clip0_376_1742">
<rect width="55" height="55" fill="white" transform="translate(13.5 12)"/>
</clipPath>
</defs>
</svg>
