<svg width="343" height="255" viewBox="0 0 343 255" fill="none" xmlns="http://www.w3.org/2000/svg">
<path d="M4.51025 237.5C5.71206 37.6541 115.177 3.49976 171.762 3.5C231.853 3.49976 335.308 37.6541 336.51 237.5H4.51025Z" fill="#AADEFE" stroke="#BFB39A" stroke-width="7"/>
<mask id="mask0_1101_81" style="mask-type:alpha" maskUnits="userSpaceOnUse" x="0" y="4" width="333" height="237">
<path d="M4.51025 237.5C5.71206 37.6541 114.425 7.49976 171.01 7.5C231.101 7.49976 329.01 48.5 329.01 237.5H4.51025Z" fill="#AADEFE" stroke="#BFB39A" stroke-width="7"/>
</mask>
<g mask="url(#mask0_1101_81)">
<path d="M405.114 145.745C400.436 135.869 388.767 129.694 378.085 131.894C377.898 120.653 371.361 109.731 361.554 104.277C352.072 99.0041 339.891 99.0532 330.406 104.299C330.558 102.335 330.563 100.333 330.401 98.3074C328.738 77.485 310.553 61.9556 289.783 63.6226C273.229 64.9503 260.041 76.8031 256.205 92.0999C247.592 87.7872 238.044 87.7266 230.963 92.8883C226.048 96.4715 223.152 101.964 222.317 108.179C219.24 107.151 215.911 106.711 212.474 106.988C198.769 108.088 188.549 120.117 189.645 133.856C189.949 137.654 191.108 141.167 192.882 144.265C183.592 149.669 177.689 160.063 178.603 171.513C179.872 187.398 193.746 199.246 209.591 197.974C215.67 197.485 221.144 195.127 225.526 191.522C230.234 195.44 235.718 198.164 241.339 199.203C251.952 201.165 263.133 200.267 273.172 196.368C278.661 205.858 291.595 211.282 305.462 208.968C315.393 207.309 323.567 202.039 328.202 195.235C329.757 193.62 331.144 191.85 332.337 189.95C337.213 194.219 343.727 196.599 350.691 196.04C359.1 195.364 366.185 190.565 370.16 183.789C380.482 186.701 392.362 183.836 399.823 176.109C407.406 168.254 409.792 155.621 405.114 145.745Z" fill="url(#paint0_radial_1101_81)" fill-opacity="0.34"/>
</g>
<path d="M342.023 214.5H17.0124H0L0.00193596 254.5H342.023V214.5Z" fill="#897F6A"/>
<defs>
<radialGradient id="paint0_radial_1101_81" cx="0" cy="0" r="1" gradientUnits="userSpaceOnUse" gradientTransform="translate(296.422 150.197) scale(153.066 101.998)">
<stop stop-color="white"/>
<stop offset="0.2868" stop-color="#FAFDFD"/>
<stop offset="0.6194" stop-color="#ECF6F7"/>
<stop offset="0.9736" stop-color="#D5EBEE"/>
<stop offset="0.9992" stop-color="#D3EAED"/>
</radialGradient>
</defs>
</svg>
