<svg width="80" height="80" viewBox="0 0 80 80" fill="none" xmlns="http://www.w3.org/2000/svg">
<circle cx="40" cy="40" r="39.5" stroke="#C379E0"/>
<path fill-rule="evenodd" clip-rule="evenodd" d="M40 36.25C39.0054 36.25 38.0516 36.6451 37.3483 37.3483C36.6451 38.0516 36.25 39.0054 36.25 40C36.25 40.9946 36.6451 41.9484 37.3483 42.6517C38.0516 43.3549 39.0054 43.75 40 43.75C40.9946 43.75 41.9484 43.3549 42.6517 42.6517C43.3549 41.9484 43.75 40.9946 43.75 40C43.75 39.0054 43.3549 38.0516 42.6517 37.3483C41.9484 36.6451 40.9946 36.25 40 36.25ZM31.25 40C31.25 38.8509 31.4763 37.7131 31.9161 36.6515C32.3558 35.5899 33.0003 34.6253 33.8128 33.8128C34.6253 33.0003 35.5899 32.3558 36.6515 31.9161C37.7131 31.4763 38.8509 31.25 40 31.25C41.1491 31.25 42.2869 31.4763 43.3485 31.9161C44.4101 32.3558 45.3747 33.0003 46.1872 33.8128C46.9997 34.6253 47.6442 35.5899 48.0839 36.6515C48.5237 37.7131 48.75 38.8509 48.75 40C48.75 42.3206 47.8281 44.5462 46.1872 46.1872C44.5462 47.8281 42.3206 48.75 40 48.75C37.6794 48.75 35.4538 47.8281 33.8128 46.1872C32.1719 44.5462 31.25 42.3206 31.25 40Z" fill="#C379E0"/>
<path fill-rule="evenodd" clip-rule="evenodd" d="M32.0694 31.7425C27.6444 36.295 27.6444 43.705 32.0694 48.2575L28.4844 51.7425C22.1719 45.25 22.1719 34.75 28.4844 28.2575L32.0694 31.7425ZM47.9294 48.2575C52.3544 43.705 52.3544 36.295 47.9294 31.7425L51.5144 28.2575C57.8269 34.75 57.8269 45.25 51.5144 51.7425L47.9294 48.2575Z" fill="#C379E0"/>
<path fill-rule="evenodd" clip-rule="evenodd" d="M26.7408 26.77C25.0008 28.5059 23.6202 30.568 22.6783 32.8382C21.7363 35.1084 21.2514 37.5421 21.2514 40C21.2514 42.4579 21.7363 44.8916 22.6783 47.1618C23.6202 49.432 25.0008 51.4941 26.7408 53.23L23.2083 56.77C21.0026 54.5696 19.2527 51.9558 18.0586 49.0781C16.8646 46.2005 16.25 43.1155 16.25 40C16.25 36.8844 16.8646 33.7995 18.0586 30.9218C19.2527 28.0442 21.0026 25.4303 23.2083 23.23L26.7408 26.77ZM53.2608 53.23C55.0009 51.4941 56.3815 49.432 57.3234 47.1618C58.2654 44.8916 58.7502 42.4579 58.7502 40C58.7502 37.5421 58.2654 35.1084 57.3234 32.8382C56.3815 30.568 55.0009 28.5059 53.2608 26.77L56.7933 23.23C58.999 25.4303 60.749 28.0442 61.943 30.9218C63.1371 33.7995 63.7517 36.8844 63.7517 40C63.7517 43.1155 63.1371 46.2005 61.943 49.0781C60.749 51.9558 58.999 54.5696 56.7933 56.77L53.2608 53.23Z" fill="#C379E0"/>
</svg>
