<svg width="81" height="80" viewBox="0 0 81 80" fill="none" xmlns="http://www.w3.org/2000/svg">
<circle cx="40.5" cy="40" r="39.5" stroke="#C379E0"/>
<path d="M67.6437 22.0006H63.8029C63.6879 21.9963 63.5733 22.0157 63.466 22.0575C63.3588 22.0993 63.2613 22.1626 63.1796 22.2436C63.0979 22.3245 63.0337 22.4214 62.9909 22.5281C62.9482 22.6349 62.9278 22.7493 62.9311 22.8642V39.5983H61.113V33.7163C61.1108 32.2043 60.5081 30.7551 59.4374 29.6867C58.3666 28.6183 56.9153 28.0181 55.4021 28.0179H33.0789C32.835 28.0152 32.5997 28.1082 32.4236 28.2768C32.2475 28.4454 32.1444 28.6762 32.1366 28.9198V39.5983H28.0169C29.2606 39.2028 30.3218 38.376 31.0087 37.2671C31.6957 36.1583 31.9632 34.8406 31.7629 33.552C31.5626 32.2634 30.9077 31.0888 29.9164 30.2404C28.9252 29.392 27.663 28.9256 26.3578 28.9256C25.0526 28.9256 23.7904 29.392 22.7992 30.2404C21.808 31.0888 21.1531 32.2634 20.9528 33.552C20.7525 34.8406 21.02 36.1583 21.7069 37.2671C22.3939 38.376 23.4551 39.2028 24.6988 39.5983H19.0689V22.8642C19.0722 22.7493 19.0518 22.6349 19.009 22.5281C18.9663 22.4213 18.9021 22.3244 18.8203 22.2435C18.7386 22.1625 18.641 22.0992 18.5338 22.0574C18.4266 22.0156 18.3119 21.9963 18.1968 22.0006H14.356C14.2419 21.9966 14.1282 22.0164 14.022 22.0585C13.9158 22.1006 13.8196 22.1643 13.7392 22.2454C13.6589 22.3265 13.5963 22.4234 13.5552 22.5299C13.5142 22.6364 13.4957 22.7502 13.5008 22.8642V56.5595C13.4957 56.6735 13.5142 56.7874 13.5552 56.8939C13.5963 57.0004 13.659 57.0973 13.7393 57.1784C13.8197 57.2596 13.916 57.3232 14.0222 57.3653C14.1283 57.4074 14.2421 57.4271 14.3563 57.4231H18.1971C18.3121 57.4274 18.4267 57.4081 18.534 57.3663C18.6412 57.3245 18.7387 57.2611 18.8204 57.1802C18.9021 57.0992 18.9663 57.0023 19.0091 56.8956C19.0518 56.7888 19.0722 56.6744 19.0689 56.5595V49.9299H62.9311V56.5595C62.9278 56.6744 62.9482 56.7889 62.991 56.8956C63.0337 57.0024 63.0979 57.0993 63.1797 57.1803C63.2614 57.2612 63.359 57.3246 63.4662 57.3663C63.5734 57.4081 63.6881 57.4274 63.8032 57.4231H67.6439C67.7581 57.4271 67.8718 57.4074 67.978 57.3652C68.0841 57.3231 68.1804 57.2595 68.2608 57.1783C68.3411 57.0972 68.4037 57.0004 68.4448 56.8938C68.4858 56.7873 68.5043 56.6735 68.4991 56.5595V22.8642C68.5043 22.7502 68.4858 22.6364 68.4448 22.5298C68.4037 22.4233 68.341 22.3264 68.2607 22.2453C68.1803 22.1642 68.084 22.1005 67.9778 22.0584C67.8717 22.0163 67.7579 21.9966 67.6437 22.0006ZM22.7064 34.3758C22.7064 33.6542 22.9205 32.9488 23.3218 32.3488C23.723 31.7488 24.2933 31.2812 24.9605 31.0051C25.6278 30.7289 26.362 30.6567 27.0703 30.7975C27.7787 30.9382 28.4293 31.2857 28.94 31.796C29.4507 32.3062 29.7985 32.9563 29.9394 33.664C30.0803 34.3717 30.008 35.1053 29.7316 35.772C29.4552 36.4386 28.9872 37.0084 28.3867 37.4093C27.7862 37.8102 27.0802 38.0242 26.358 38.0242C25.3898 38.0231 24.4617 37.6383 23.7771 36.9544C23.0925 36.2704 22.7075 35.3431 22.7064 34.3758ZM17.2507 55.6066H15.319V23.8171H17.2507V55.6066ZM33.9548 29.8344H55.4021C56.4333 29.8341 57.4225 30.2428 58.1523 30.9706C58.8822 31.6984 59.2932 32.6859 59.2949 33.7163V39.5983H33.9548V29.8344ZM62.9311 41.4149V44.4803H19.0689V41.4149H62.9311ZM19.0689 48.1134V46.2968H62.9311V48.1134H19.0689ZM66.681 55.6066H64.7493V23.8171H66.681V55.6066Z" fill="#C379E0"/>
</svg>
