<svg width="357" height="299" viewBox="0 0 357 299" fill="none" xmlns="http://www.w3.org/2000/svg">
<path d="M11.0002 237.658C4.50002 -4.84142 178.252 3.65835 178.252 3.65835C178.252 3.65835 350.5 -10.8418 343 237.658H11.0002Z" fill="#B5E3FF" stroke="#BFB39A" stroke-width="7"/>
<path d="M345.455 230.158L342.503 264.101L338.555 298.158H15.4512L8.55273 230.158H345.455Z" fill="#BFB39A" stroke="#BFB39A"/>
<mask id="mask0_626_1270" style="mask-type:alpha" maskUnits="userSpaceOnUse" x="15" y="229" width="324" height="70">
<path d="M336 264.158L332 298.658H22L15 229.658H339L336 264.158Z" fill="#BFB39A"/>
<path d="M336 264.158L332 298.658H22L15 229.658H339L336 264.158Z" stroke="#BFB39A"/>
</mask>
<g mask="url(#mask0_626_1270)">
<path d="M-3.64175 249.793L16.335 236.732C17.3324 236.08 18.6211 236.08 19.6185 236.732L39.5952 249.793C40.4427 250.347 40.9535 251.292 40.9535 252.304V276.428C40.9535 277.455 40.4281 278.41 39.561 278.961L19.5842 291.638C18.603 292.261 17.3505 292.261 16.3693 291.638L-3.60747 278.961C-4.47462 278.41 -5 277.455 -5 276.428V252.304C-5 251.292 -4.48923 250.347 -3.64175 249.793Z" fill="#DACFB7"/>
<path d="M-2.34863 274.542V262.17L17.9769 273.658L37.4188 263.054V275.426L17.9769 286.03L-2.34863 274.542Z" fill="#BFB39A"/>
<ellipse cx="25.5" cy="254.658" rx="2.5" ry="4" fill="#BFB39A"/>
<path d="M49.3119 249.793L69.2886 236.732C70.286 236.08 71.5747 236.08 72.5721 236.732L92.5489 249.793C93.3963 250.347 93.9071 251.292 93.9071 252.304V276.428C93.9071 277.455 93.3817 278.41 92.5146 278.961L72.5378 291.638C71.5566 292.261 70.3041 292.261 69.3229 291.638L49.3461 278.961C48.479 278.41 47.9536 277.455 47.9536 276.428V252.304C47.9536 251.292 48.4644 250.347 49.3119 249.793Z" fill="#DACFB7"/>
<path d="M50.605 274.542V262.17L70.9306 273.658L90.3724 263.054V275.426L70.9306 286.03L50.605 274.542Z" fill="#BFB39A"/>
<ellipse cx="63.4536" cy="254.658" rx="2.5" ry="4" fill="#BFB39A"/>
<ellipse cx="78.4536" cy="254.658" rx="2.5" ry="4" fill="#BFB39A"/>
<path d="M102.265 249.793L122.242 236.732C123.239 236.08 124.528 236.08 125.525 236.732L145.502 249.793C146.349 250.347 146.86 251.292 146.86 252.304V276.428C146.86 277.455 146.335 278.41 145.468 278.961L125.491 291.638C124.51 292.261 123.257 292.261 122.276 291.638L102.299 278.961C101.432 278.41 100.907 277.455 100.907 276.428V252.304C100.907 251.292 101.418 250.347 102.265 249.793Z" fill="#DACFB7"/>
<path d="M103.558 274.542V262.17L123.884 273.658L143.326 263.054V275.426L123.884 286.03L103.558 274.542Z" fill="#BFB39A"/>
<ellipse cx="116.407" cy="254.658" rx="2.5" ry="4" fill="#BFB39A"/>
<ellipse cx="131.407" cy="254.658" rx="2.5" ry="4" fill="#BFB39A"/>
<path d="M155.219 249.793L175.195 236.732C176.193 236.08 177.481 236.08 178.479 236.732L198.456 249.793C199.303 250.347 199.814 251.292 199.814 252.304V276.428C199.814 277.455 199.288 278.41 198.421 278.961L178.445 291.638C177.463 292.261 176.211 292.261 175.23 291.638L155.253 278.961C154.386 278.41 153.86 277.455 153.86 276.428V252.304C153.86 251.292 154.371 250.347 155.219 249.793Z" fill="#DACFB7"/>
<path d="M156.512 274.542V262.17L176.837 273.658L196.279 263.054V275.426L176.837 286.03L156.512 274.542Z" fill="#BFB39A"/>
<ellipse cx="169.36" cy="254.658" rx="2.5" ry="4" fill="#BFB39A"/>
<ellipse cx="184.36" cy="254.658" rx="2.5" ry="4" fill="#BFB39A"/>
<path d="M208.172 249.793L228.149 236.732C229.146 236.08 230.435 236.08 231.432 236.732L251.409 249.793C252.257 250.347 252.767 251.292 252.767 252.304V276.428C252.767 277.455 252.242 278.41 251.375 278.961L231.398 291.638C230.417 292.261 229.164 292.261 228.183 291.638L208.206 278.961C207.339 278.41 206.814 277.455 206.814 276.428V252.304C206.814 251.292 207.325 250.347 208.172 249.793Z" fill="#DACFB7"/>
<path d="M209.465 274.542V262.17L229.791 273.658L249.233 263.054V275.426L229.791 286.03L209.465 274.542Z" fill="#BFB39A"/>
<ellipse cx="222.314" cy="254.658" rx="2.5" ry="4" fill="#BFB39A"/>
<ellipse cx="237.314" cy="254.658" rx="2.5" ry="4" fill="#BFB39A"/>
<path d="M261.126 249.793L281.103 236.732C282.1 236.08 283.389 236.08 284.386 236.732L304.363 249.793C305.21 250.347 305.721 251.292 305.721 252.304V276.428C305.721 277.455 305.196 278.41 304.329 278.961L284.352 291.638C283.371 292.261 282.118 292.261 281.137 291.638L261.16 278.961C260.293 278.41 259.768 277.455 259.768 276.428V252.304C259.768 251.292 260.278 250.347 261.126 249.793Z" fill="#DACFB7"/>
<path d="M262.419 274.542V262.17L282.745 273.658L302.186 263.054V275.426L282.745 286.03L262.419 274.542Z" fill="#BFB39A"/>
<ellipse cx="275.268" cy="254.658" rx="2.5" ry="4" fill="#BFB39A"/>
<ellipse cx="290.268" cy="254.658" rx="2.5" ry="4" fill="#BFB39A"/>
<path d="M314.079 249.793L334.056 236.732C335.053 236.08 336.342 236.08 337.339 236.732L357.316 249.793C358.163 250.347 358.674 251.292 358.674 252.304V276.428C358.674 277.455 358.149 278.41 357.282 278.961L337.305 291.638C336.324 292.261 335.071 292.261 334.09 291.638L314.113 278.961C313.246 278.41 312.721 277.455 312.721 276.428V252.304C312.721 251.292 313.231 250.347 314.079 249.793Z" fill="#DACFB7"/>
<path d="M315.372 274.542V262.17L335.698 273.658L355.14 263.054V275.426L335.698 286.03L315.372 274.542Z" fill="#BFB39A"/>
<ellipse cx="328.221" cy="254.658" rx="2.5" ry="4" fill="#BFB39A"/>
</g>
<path d="M42 282.658L27.5 293.658H60.5L42 282.658Z" fill="#DACFB7"/>
<path d="M96 282.658L81.5 293.658H114.5L96 282.658Z" fill="#DACFB7"/>
<path d="M150 282.658L135.5 293.658H168.5L150 282.658Z" fill="#DACFB7"/>
<path d="M204 282.658L189.5 293.658H222.5L204 282.658Z" fill="#DACFB7"/>
<path d="M258 282.658L243.5 293.658H276.5L258 282.658Z" fill="#DACFB7"/>
<path d="M312 282.658L297.5 293.658H330.5L312 282.658Z" fill="#DACFB7"/>
<path d="M43 246.658L28.5 235.658H61.5L43 246.658Z" fill="#DACFB7"/>
<path d="M97 246.658L82.5 235.658H115.5L97 246.658Z" fill="#DACFB7"/>
<path d="M151 246.658L136.5 235.658H169.5L151 246.658Z" fill="#DACFB7"/>
<path d="M205 246.658L190.5 235.658H223.5L205 246.658Z" fill="#DACFB7"/>
<path d="M259 246.658L244.5 235.658H277.5L259 246.658Z" fill="#DACFB7"/>
<path d="M313 246.658L298.5 235.658H331.5L313 246.658Z" fill="#DACFB7"/>
<path d="M357 211.658H7.48951H0L7.48951 251.658H349.51L357 211.658Z" fill="#897F6A"/>
<mask id="mask1_626_1270" style="mask-type:alpha" maskUnits="userSpaceOnUse" x="6" y="2" width="341" height="240">
<path d="M10.9999 237.658C-4.5 -3.3418 182.5 6.15815 182.5 6.15815C182.5 6.15815 341.798 37.812 343 237.658H10.9999Z" fill="#D8F0FF" stroke="#BFB39A" stroke-width="7"/>
</mask>
<g mask="url(#mask1_626_1270)">
<path d="M232.604 85.9032C227.926 76.0272 216.256 69.8525 205.575 72.0522C205.388 60.8108 198.851 49.889 189.044 44.4355C179.562 39.1623 167.381 39.2114 157.896 44.4568C158.048 42.4931 158.053 40.4916 157.891 38.4656C156.228 17.6432 138.043 2.11376 117.273 3.7808C100.719 5.10852 87.5308 16.9613 83.6949 32.2581C75.0814 27.9454 65.5342 27.8848 58.4527 33.0465C53.5377 36.6297 50.642 42.1226 49.8065 48.3367C46.7293 47.309 43.4003 46.8697 39.9634 47.1467C26.2583 48.2466 16.0391 60.2748 17.1346 74.0143C17.4387 77.8123 18.598 81.325 20.372 84.423C11.0816 89.8274 5.17897 100.221 6.09298 111.671C7.36179 127.556 21.2353 139.404 37.0808 138.132C43.16 137.644 48.6342 135.285 53.0162 131.68C57.7235 135.598 63.2075 138.322 68.8289 139.361C79.4421 141.324 90.6227 140.425 100.662 136.526C106.151 146.017 119.084 151.441 132.951 149.126C142.883 147.467 151.056 142.197 155.692 135.393C157.247 133.778 158.633 132.008 159.827 130.108C164.703 134.377 171.217 136.757 178.181 136.198C186.59 135.523 193.675 130.723 197.649 123.947C207.972 126.86 219.852 123.994 227.313 116.267C234.896 108.412 237.282 95.7792 232.604 85.9032Z" fill="url(#paint0_radial_626_1270)" fill-opacity="0.34"/>
</g>
<defs>
<radialGradient id="paint0_radial_626_1270" cx="0" cy="0" r="1" gradientUnits="userSpaceOnUse" gradientTransform="translate(123.912 90.3557) scale(153.066 101.998)">
<stop stop-color="white"/>
<stop offset="0.2868" stop-color="#FAFDFD"/>
<stop offset="0.6194" stop-color="#ECF6F7"/>
<stop offset="0.9736" stop-color="#D5EBEE"/>
<stop offset="0.9992" stop-color="#D3EAED"/>
</radialGradient>
</defs>
</svg>
